<svg width="100" height="100" viewBox="0 0 100 100" fill="none" xmlns="http://www.w3.org/2000/svg">
<path d="M69.5833 28.5068C69.5833 37.3825 57.6538 53.1993 52.4153 59.7178C51.1587 61.2783 48.825 61.2783 47.5847 59.7178C42.3462 53.1993 30.4167 37.3825 30.4167 28.5068C30.4167 17.7293 39.1802 9 50 9C60.8198 9 69.5833 17.7293 69.5833 28.5068ZM70.8889 41.5764C71.4601 40.4548 71.9823 39.3331 72.4556 38.2278C72.5372 38.0327 72.6188 37.8214 72.7003 37.6263L91.6309 30.0836C94.2094 29.0595 97 30.9452 97 33.7087V77.7291C97 79.3222 96.0208 80.7527 94.5358 81.3541L70.8889 90.7662V41.5764ZM25.4556 31.4816C25.8472 33.7737 26.6306 36.082 27.5444 38.2278C28.0177 39.3331 28.5399 40.4548 29.1111 41.5764V82.4433L8.3691 90.7174C5.79063 91.7415 3 89.8559 3 87.0924V43.072C3 41.4789 3.97917 40.0484 5.46424 39.4469L25.4719 31.4816H25.4556ZM56.4951 62.9689C58.7635 60.1404 62.3212 55.5401 65.6667 50.452V90.9775L34.3333 82.0531V50.452C37.6788 55.5401 41.2365 60.1404 43.5049 62.9689C46.8503 67.1304 53.1497 67.1304 56.4951 62.9689ZM50 33.7087C51.7313 33.7087 53.3916 33.0236 54.6158 31.8042C55.84 30.5848 56.5278 28.9309 56.5278 27.2064C56.5278 25.4819 55.84 23.828 54.6158 22.6086C53.3916 21.3892 51.7313 20.7041 50 20.7041C48.2687 20.7041 46.6084 21.3892 45.3842 22.6086C44.16 23.828 43.4722 25.4819 43.4722 27.2064C43.4722 28.9309 44.16 30.5848 45.3842 31.8042C46.6084 33.0236 48.2687 33.7087 50 33.7087Z" fill="#143772"/>
</svg>
