<svg width="100" height="100" viewBox="0 0 100 100" fill="none" xmlns="http://www.w3.org/2000/svg">
<path d="M73.7781 87.4833H10.1973C6.77709 87.4833 4 84.7062 4 81.286V28.5796C4 27.7027 4.70158 27.0011 5.57856 27.0011H17.4177C19.084 27.0011 20.4579 25.6271 20.4579 23.9609V13.0864C20.4579 12.2094 21.1595 11.5078 22.0365 11.5078H52.8184C53.6954 11.5078 54.3969 12.2094 54.3969 13.0864C54.3969 13.9633 53.6954 14.6649 52.8184 14.6649H23.6151V23.9609C23.6151 27.3811 20.838 30.1582 17.4177 30.1582H7.15712V81.286C7.15712 82.9522 8.53105 84.3261 10.1973 84.3261H73.7781C75.4444 84.3261 76.8183 82.9522 76.8183 81.286V17.7051C76.8183 16.0389 75.4444 14.6649 73.7781 14.6649H68.0778C67.2008 14.6649 66.4992 13.9633 66.4992 13.0864C66.4992 12.2094 67.2008 11.5078 68.0778 11.5078H73.7781C77.1983 11.5078 79.9754 14.2849 79.9754 17.7051V81.286C79.9754 84.7062 77.1983 87.4833 73.7781 87.4833Z" fill="white"/>
<path d="M81.6422 97.3574C81.4084 97.3574 81.1453 97.3574 80.9114 97.3282L17.7691 89.8447C15.8105 89.6108 14.0565 88.4415 13.0919 86.6876C12.8288 86.1906 12.8288 85.606 13.0919 85.1382C13.3842 84.6705 13.8811 84.349 14.4365 84.349H73.7494C75.4157 84.349 76.7896 82.975 76.7896 81.3088V22.1128C76.7896 21.6743 76.9942 21.2358 77.3158 20.9435C77.6666 20.6512 78.1051 20.505 78.5436 20.5635L89.8273 21.9082C93.2183 22.3174 95.6446 25.3869 95.2354 28.7778L87.7518 91.9202C87.3718 95.0481 84.7116 97.3867 81.613 97.3867L81.6422 97.3574ZM24.7264 87.4768L81.2622 94.2003C82.8992 94.405 84.4193 93.2064 84.6239 91.5402L92.1075 28.3978C92.3121 26.7316 91.1136 25.2407 89.4473 25.0361L79.9175 23.896V81.3088C79.9175 84.729 77.1404 87.5061 73.7202 87.5061H24.668L24.7264 87.4768Z" fill="white"/>
<path d="M68.0844 34.8927C67.2075 34.8927 66.5059 34.1911 66.5059 33.3142V12.1206C66.5059 8.84651 63.8457 6.15712 60.5424 6.15712C57.2392 6.15712 54.579 8.81728 54.579 12.1206V29.5432C54.579 30.7417 55.5729 31.7356 56.7714 31.7356C57.97 31.7356 58.9639 30.7417 58.9639 29.5432V18.4348C58.9639 17.5578 59.6655 16.8562 60.5424 16.8562C61.4194 16.8562 62.121 17.5578 62.121 18.4348V29.5432C62.121 32.4957 59.7239 34.8927 56.7714 34.8927C53.8189 34.8927 51.4219 32.4957 51.4219 29.5432V12.1206C51.4219 7.09256 55.5144 3 60.5424 3C65.5704 3 69.663 7.09256 69.663 12.1206V33.3142C69.663 34.1911 68.9614 34.8927 68.0844 34.8927Z" fill="white"/>
<path d="M5.58433 30.1522C5.17507 30.1522 4.73658 29.9768 4.44426 29.6553C3.85961 29.0122 3.88884 28.0183 4.50272 27.4336L20.9607 11.9404C21.6038 11.3557 22.5977 11.3849 23.1823 11.9988C23.767 12.6419 23.7378 13.6358 23.1239 14.2205L6.66593 29.7138C6.37361 30.0061 5.96435 30.1522 5.58433 30.1522Z" fill="white"/>
<path d="M44.5151 38.372H19.1997C18.3227 38.372 17.6211 37.6704 17.6211 36.7934C17.6211 35.9164 18.3227 35.2148 19.1997 35.2148H44.5151C45.392 35.2148 46.0936 35.9164 46.0936 36.7934C46.0936 37.6704 45.392 38.372 44.5151 38.372Z" fill="white"/>
<path d="M21.7488 47.0477H19.2348C18.3578 47.0477 17.6562 46.3462 17.6562 45.4692C17.6562 44.5922 18.3578 43.8906 19.2348 43.8906H21.7488C22.6258 43.8906 23.3274 44.5922 23.3274 45.4692C23.3274 46.3462 22.6258 47.0477 21.7488 47.0477Z" fill="white"/>
<path d="M54.6066 47.0477H49.1401C48.2631 47.0477 47.5615 46.3462 47.5615 45.4692C47.5615 44.5922 48.2631 43.8906 49.1401 43.8906H54.6066C55.4835 43.8906 56.1851 44.5922 56.1851 45.4692C56.1851 46.3462 55.4835 47.0477 54.6066 47.0477ZM38.1779 47.0477H32.7114C31.8344 47.0477 31.1328 46.3462 31.1328 45.4692C31.1328 44.5922 31.8344 43.8906 32.7114 43.8906H38.1779C39.0548 43.8906 39.7564 44.5922 39.7564 45.4692C39.7564 46.3462 39.0548 47.0477 38.1779 47.0477Z" fill="white"/>
<path d="M68.0769 47.0477H65.5629C64.686 47.0477 63.9844 46.3462 63.9844 45.4692C63.9844 44.5922 64.686 43.8906 65.5629 43.8906H68.0769C68.9539 43.8906 69.6555 44.5922 69.6555 45.4692C69.6555 46.3462 68.9539 47.0477 68.0769 47.0477Z" fill="white"/>
<path d="M68.0765 55.704H19.1997C18.3227 55.704 17.6211 55.0024 17.6211 54.1254C17.6211 53.2485 18.3227 52.5469 19.1997 52.5469H68.0765C68.9535 52.5469 69.6551 53.2485 69.6551 54.1254C69.6551 55.0024 68.9535 55.704 68.0765 55.704Z" fill="white"/>
<path d="M21.7488 64.3837H19.2348C18.3578 64.3837 17.6562 63.6821 17.6562 62.8051C17.6562 61.9281 18.3578 61.2266 19.2348 61.2266H21.7488C22.6258 61.2266 23.3274 61.9281 23.3274 62.8051C23.3274 63.6821 22.6258 64.3837 21.7488 64.3837Z" fill="white"/>
<path d="M54.6066 64.3837H49.1401C48.2631 64.3837 47.5615 63.6821 47.5615 62.8051C47.5615 61.9281 48.2631 61.2266 49.1401 61.2266H54.6066C55.4835 61.2266 56.1851 61.9281 56.1851 62.8051C56.1851 63.6821 55.4835 64.3837 54.6066 64.3837ZM38.1779 64.3837H32.7114C31.8344 64.3837 31.1328 63.6821 31.1328 62.8051C31.1328 61.9281 31.8344 61.2266 32.7114 61.2266H38.1779C39.0548 61.2266 39.7564 61.9281 39.7564 62.8051C39.7564 63.6821 39.0548 64.3837 38.1779 64.3837Z" fill="white"/>
<path d="M68.0769 64.3837H65.5629C64.686 64.3837 63.9844 63.6821 63.9844 62.8051C63.9844 61.9281 64.686 61.2266 65.5629 61.2266H68.0769C68.9539 61.2266 69.6555 61.9281 69.6555 62.8051C69.6555 63.6821 68.9539 64.3837 68.0769 64.3837Z" fill="white"/>
<path d="M68.0765 73.0595H19.1997C18.3227 73.0595 17.6211 72.3579 17.6211 71.4809C17.6211 70.6039 18.3227 69.9023 19.1997 69.9023H68.0765C68.9535 69.9023 69.6551 70.6039 69.6551 71.4809C69.6551 72.3579 68.9535 73.0595 68.0765 73.0595Z" fill="white"/>
</svg>
