<svg width="100" height="100" viewBox="0 0 100 100" fill="none" xmlns="http://www.w3.org/2000/svg">
<path d="M11.8125 14C6.94727 14 3 17.9753 3 22.875C3 25.6669 4.30352 28.2924 6.525 29.975L46.475 60.15C48.568 61.7216 51.432 61.7216 53.525 60.15L93.475 29.975C95.6965 28.2924 97 25.6669 97 22.875C97 17.9753 93.0527 14 88.1875 14H11.8125ZM3 34.7083V73.1667C3 79.6935 8.26914 85 14.75 85H85.25C91.7309 85 97 79.6935 97 73.1667V34.7083L57.05 64.8833C52.8641 68.0451 47.1359 68.0451 42.95 64.8833L3 34.7083Z" fill="#143772"/>
</svg>
