<svg width="100" height="100" viewBox="0 0 100 100" fill="none" xmlns="http://www.w3.org/2000/svg">
<path d="M96.6991 72.5677C93.5116 74.5397 90.2972 76.5386 87.1097 78.5105C84.7056 79.9962 82.3015 81.5088 79.8434 83.0486C79.3571 82.2652 78.8979 81.5359 78.4117 80.7525C83.1659 77.7811 87.866 74.8098 92.6742 71.8114C91.5397 70.6769 90.2431 70.0826 88.7574 69.8395C87.1367 69.5964 85.57 69.8395 84.1113 70.6499C78.7629 73.5672 73.4144 76.4575 68.093 79.4019C67.7958 79.564 67.5257 79.9151 67.3636 80.2393C66.2831 82.3192 64.6084 83.5348 62.2583 83.5618C56.2345 83.6158 50.2107 83.5618 44.16 83.5618C44.0519 83.5618 43.9169 83.5618 43.7548 83.5348V80.8606C44.1059 80.8606 44.4301 80.8606 44.7272 80.8606C50.4809 80.8606 56.2345 80.8606 62.0152 80.8606C64.1221 80.8606 65.5268 79.0777 65.0406 77.1058C64.6894 75.7552 63.5279 74.8908 61.9882 74.8908C57.6662 74.8908 53.3712 74.8908 49.0492 74.8908C48.3199 74.8908 48.0227 74.6747 47.6986 74.0264C46.7802 72.1355 45.9158 70.1907 44.268 68.786C41.2426 66.1658 37.65 65.6256 33.8412 65.8957C29.3031 66.2468 25.0622 67.6245 20.9563 69.5424C20.5781 69.7044 20.1729 69.8665 19.7678 69.8665C14.6894 69.8665 9.63811 69.8665 4.55978 69.8665C4.37069 69.8665 4.20862 69.8125 4.01953 69.7855C4.01953 68.8941 4.01953 67.9756 4.01953 67.0842H8.28749C8.28749 66.652 8.28749 66.2468 8.28749 65.8417C8.28749 50.4716 8.28749 35.1015 8.28749 19.7045C8.28749 16.598 9.53006 14.302 12.3934 12.9514C12.8796 12.7353 13.4198 12.4922 13.9331 12.4922C16.4452 12.4381 18.9844 12.4922 21.5506 12.4922V15.1394C21.2264 15.1394 20.9023 15.1394 20.5781 15.1394C18.6873 15.1394 16.7694 15.1124 14.8785 15.1394C12.8256 15.1934 11.2589 16.7331 11.0428 18.786C11.0157 19.1372 11.0157 19.5154 11.0157 19.8665C11.0157 35.2366 11.0157 50.6067 11.0157 66.0037C11.0157 66.3549 11.0157 66.7061 11.0157 67.1112H16.3372V52.3625H35.2999V62.9783C37.1908 63.2215 39.0006 63.4646 40.8645 63.7347V61.2766H59.8542V72.1626C61.745 72.2436 63.6359 71.9194 65.3377 73.216V52.3895H84.3544V67.3003C86.1643 67.1923 87.866 67.1112 89.7569 67.0032C89.7569 66.8411 89.7569 66.517 89.7569 66.2198C89.7569 50.7417 89.7569 35.2906 89.7569 19.8125C89.7569 17.0573 87.9741 15.0583 85.0568 15.1124C79.2491 15.2204 73.4144 15.1394 67.6067 15.1394H66.5262C66.6613 15.5175 66.6883 15.8147 66.8234 16.0038C67.4717 16.9492 67.1745 17.6515 66.2831 18.2188C66.094 18.3538 65.932 18.5699 65.7429 18.678C64.4463 19.4343 64.7434 20.7039 64.8785 21.8114C64.9325 22.2706 65.6078 22.6488 66.013 23.027C66.8774 23.8374 67.0845 24.7918 66.6343 25.8903C66.1481 27.0789 65.6078 28.2674 65.1756 29.483C64.9595 30.0772 64.6894 30.3744 64.0141 30.2663C63.3658 30.1583 62.6905 30.1583 62.0422 30.1853C61.718 30.1853 61.3669 30.3474 61.0967 30.5364C59.7731 31.3738 59.53 32.6434 59.8812 34.0481C60.0973 34.9395 59.7731 35.3987 58.8817 35.6958C57.4501 36.182 56.0724 36.8033 54.7218 37.4246C54.1005 37.6947 53.6683 37.6947 53.2631 37.1005C53.1011 36.8573 52.8309 36.6683 52.6689 36.4251C52.0206 35.4527 51.1562 35.1015 49.9946 35.2096C49.3734 35.2636 48.9412 35.3987 48.536 35.8849C47.9957 36.5062 47.4555 37.4246 46.7532 37.5867C46.1049 37.7488 45.2675 37.0734 44.5111 36.7763C43.5117 36.3711 42.5122 35.9119 41.5128 35.5337C40.8915 35.3176 40.7294 34.9935 40.8374 34.3992C40.8915 34.1021 40.8374 33.7779 40.9185 33.5078C41.2426 32.1302 40.5673 31.2118 39.5408 30.4554C39.2707 30.2663 38.8385 30.2123 38.4603 30.1853C37.596 30.1583 36.5155 30.4824 35.9212 30.1042C35.2999 29.6991 35.1378 28.5916 34.8137 27.8082C34.4085 26.8357 34.0303 25.8633 33.5981 24.8909C33.409 24.4587 33.382 24.1075 33.8142 23.8104C34.0843 23.6213 34.2734 23.3241 34.5706 23.1621C35.8672 22.4057 36.0292 21.2172 35.8401 19.9206C35.8131 19.6504 35.624 19.3803 35.435 19.1912C34.7596 18.5429 34.0573 17.9216 33.355 17.2733C33.6251 16.598 33.8682 15.9768 34.1654 15.1934H24.3329V12.4922C24.657 12.4922 24.9541 12.4381 25.2783 12.4381C28.3307 12.4381 31.3561 12.4381 34.4085 12.4381C35.0028 12.4381 35.435 12.3841 35.6511 11.7088C35.7051 11.4927 36.0833 11.3036 36.3534 11.2496C36.7045 11.1685 37.0827 11.1956 37.4339 11.3036C38.8925 11.7358 39.865 11.0065 40.6213 9.92598C40.8374 9.60183 40.8645 9.08859 40.8645 8.68341C40.8915 7.87303 40.5943 6.90059 40.9455 6.33333C41.2967 5.79308 42.2961 5.65802 43.0254 5.36088C44.1059 4.90167 45.1864 4.44246 46.2939 4.03727C46.5371 3.95624 46.9693 4.03727 47.1854 4.22636C47.5905 4.55051 47.9417 4.92868 48.2118 5.36088C48.7521 6.14424 49.4274 6.2793 50.3458 6.36034C51.6964 6.46839 52.2637 5.60399 52.858 4.79362C53.5333 3.90221 54.1275 3.79416 55.1 4.3074C56.4236 4.98271 57.8012 5.49594 59.1789 6.00918C59.7191 6.22528 59.9352 6.52241 59.8272 7.08967C59.7731 7.46785 59.8002 7.87303 59.7191 8.25121C59.53 9.25067 59.8542 10.007 60.6375 10.7093C61.2318 11.2496 61.7721 11.5197 62.5554 11.3846C63.0957 11.3036 63.6359 11.3306 64.1762 11.2496C64.6354 11.1956 64.9325 11.3306 65.0406 11.7898C65.1756 12.3841 65.5808 12.4651 66.1211 12.4651C72.55 12.4651 78.9519 12.4651 85.3809 12.4651C88.7304 12.4651 91.3506 14.41 92.134 17.5165C92.3501 18.3268 92.4041 19.1912 92.4041 20.0286C92.4041 35.8039 92.4041 51.5521 92.4041 67.3273C92.4041 68.0297 92.6742 68.3808 93.1875 68.867C94.403 69.9475 95.4835 71.2171 96.6181 72.4057V72.5948L96.6991 72.5677ZM39.2437 14.1129C38.1992 14.0769 37.4879 14.5001 37.1097 15.3825C37.0287 15.5986 36.8396 15.8147 36.8396 16.0578C36.8396 16.3279 36.8396 16.7601 37.0287 16.8682C38.5414 17.7866 38.8115 19.1372 38.6224 20.7309C38.5414 21.3252 38.6765 21.9465 38.5954 22.5408C38.5414 22.946 38.3523 23.4052 38.0822 23.6753C36.6235 25.0529 36.6235 25.0259 37.4069 26.8357C37.4069 26.8898 37.4339 26.9708 37.4879 26.9978C37.758 27.1599 38.0552 27.5111 38.2983 27.457C39.973 27.0518 41.1076 27.8082 42.08 29.0508C42.4312 29.51 42.9444 29.8341 43.2686 30.2933C43.5117 30.6445 43.7548 31.1307 43.7548 31.5359C43.7008 33.5078 43.6737 33.4808 45.5376 34.2642C46.0238 34.4803 46.375 34.5613 46.6721 34.0481C47.4555 32.6974 48.644 32.3733 50.1027 32.5624C50.3998 32.6164 50.724 32.6164 50.9941 32.5624C52.3447 32.3463 53.3712 32.7785 54.1275 33.94C54.2626 34.1561 54.6408 34.4803 54.8029 34.4262C55.5592 34.2101 56.3426 33.967 56.9368 33.5078C57.207 33.3187 57.1259 32.5624 57.0989 32.0762C57.0449 31.2658 57.0989 30.5905 57.8282 29.9962C58.6116 29.3479 59.2599 28.5375 60.0433 27.8622C60.3404 27.5921 60.8266 27.43 61.2048 27.43C63.1497 27.5111 63.1227 27.5381 63.906 25.7552C64.1491 25.215 64.2032 24.8098 63.6359 24.4586C62.3663 23.7023 61.9882 22.5678 62.2043 21.1631C62.2043 21.0281 62.2043 20.866 62.2043 20.7039C61.9882 19.1102 62.2853 17.7596 63.798 16.8682C64.5273 16.436 63.933 15.8957 63.744 15.4635C63.2037 14.0319 63.1767 14.0049 61.664 14.0859C60.8266 14.1399 60.1783 13.9778 59.6111 13.3025C59.0168 12.5732 58.3145 11.9519 57.6392 11.3036C57.207 10.8984 57.0449 10.4932 57.0719 9.89896C57.1799 7.95407 57.1529 7.95407 55.3431 7.25175C55.3161 7.25175 55.2891 7.25175 55.2621 7.22474C54.8569 6.98162 54.5057 7.00864 54.2626 7.44084C53.4252 8.87249 52.1286 9.22365 50.5889 9.00755C49.9946 8.92652 49.3734 9.06158 48.7791 8.98054C48.3469 8.92652 47.8337 8.73743 47.5635 8.44029C46.1589 7.00864 46.1859 6.98162 44.295 7.792C43.8898 7.98108 43.6197 8.17017 43.7278 8.62938C44.16 10.2771 43.4036 11.4387 42.161 12.4111C41.8639 12.6542 41.5668 12.9244 41.3237 13.2485C40.7564 13.9778 40.0811 14.356 39.2977 14.1129H39.2437ZM68.174 55.0907V76.1874C68.3901 76.1064 68.5252 76.0523 68.6602 75.9713C72.8471 73.7023 77.0071 71.4062 81.194 69.1372C81.6802 68.867 81.7072 68.5429 81.7072 68.1107C81.7072 64.0318 81.7072 59.98 81.7072 55.9011C81.7072 55.631 81.6802 55.3879 81.6532 55.0637H68.201L68.174 55.0907ZM19.1195 55.0907V67.3544C23.5225 65.4365 27.8715 63.7887 32.5987 63.2755V55.0907H19.1195ZM57.1259 72.1626V63.9778H43.7278C43.4847 64.6531 43.6467 65.0853 44.268 65.4365C46.6991 66.8411 48.2659 69.0291 49.5084 71.4873C49.6435 71.7844 50.0217 72.1355 50.2918 72.1626C52.5338 72.2166 54.8029 72.1896 57.0989 72.1896L57.1259 72.1626Z" fill="white"/>
<path d="M4.08104 83.7819C4.45921 83.7819 4.8644 83.7279 5.24257 83.7279C10.7261 83.7279 16.2096 83.7279 21.6931 83.7279C23.1248 83.7279 24.4754 83.944 25.853 84.3762C34.578 87.2125 43.3301 89.9677 52.0551 92.804C55.2425 93.8305 58.1869 93.4794 61.0232 91.6695C65.7504 88.6711 70.5045 85.6998 75.2587 82.7284C75.5018 82.5663 75.772 82.4313 76.0961 82.2422C76.5553 82.9715 77.0145 83.6738 77.5008 84.4842C77.2306 84.6733 76.9605 84.8624 76.6904 85.0245C71.9362 87.9958 67.182 90.9402 62.4548 93.9656C58.8892 96.2346 55.1615 96.6668 51.1366 95.3702C42.1955 92.4529 33.2004 89.5896 24.2323 86.7262C23.7191 86.5642 23.1788 86.4561 22.6386 86.4561C16.6688 86.4561 10.6991 86.4561 4.72933 86.4561C4.48622 86.4561 4.24311 86.4831 4 86.5102C4 85.6187 4 84.7003 4 83.8089L4.08104 83.7819Z" fill="white"/>
<path d="M40.9844 40.2656H59.866V58.445H40.9844V40.2656ZM43.7126 42.9669V55.7437H57.1648V42.9669H43.7126Z" fill="white"/>
<path d="M35.3309 49.6081H16.4492V36.1289H35.3309V49.6081ZM32.6026 46.8798V38.8301H19.1505V46.8798H32.6026Z" fill="white"/>
<path d="M84.3895 36.1289V49.5811H65.5078V36.1289H84.3895ZM81.6612 46.8798V38.8572H68.2091V46.8798H81.6612Z" fill="white"/>
<path d="M20.0703 21.2539H22.6365V23.8741H20.0703V21.2539Z" fill="white"/>
<path d="M25.5039 21.2539H28.0701V23.8741H25.5039V21.2539Z" fill="white"/>
<path d="M75.3158 21.3047V23.8709H72.7227V21.3047H75.3158Z" fill="white"/>
<path d="M78.1484 21.2734H80.7416V23.8666H78.1484V21.2734Z" fill="white"/>
<path d="M43.6523 20.6762C43.6523 17.0025 46.7588 13.9771 50.4325 14.0041C54.1061 14.0041 57.2126 17.1105 57.2126 20.7302C57.2126 24.62 54.2682 27.5373 50.4054 27.5373C46.5427 27.5373 43.6523 24.5929 43.6523 20.6762ZM50.3784 24.8361C52.6205 24.8361 54.4573 23.0803 54.4843 20.8922C54.5383 18.5692 52.7285 16.7323 50.4054 16.7323C48.1094 16.7323 46.3806 18.4881 46.3536 20.8112C46.3536 23.0262 48.1094 24.8361 50.3514 24.8361H50.3784Z" fill="white"/>
</svg>
