<svg width="100" height="100" viewBox="0 0 100 100" fill="none" xmlns="http://www.w3.org/2000/svg">
<path d="M84.4427 69.7503C87.4271 69.8481 89.4656 71.5605 91.5857 73.2891C92.5642 74.0882 93.9341 74.5122 95.1898 74.8547C96.1683 75.1156 97.1957 75.3766 96.8695 76.4692C96.7064 77.0237 95.5323 77.6271 94.8147 77.6108C92.4174 77.5782 90.6725 76.1104 88.8296 74.7405C87.5413 73.7621 85.8779 73.2402 84.3123 72.6857C83.9861 72.5716 83.1707 73.0771 82.975 73.4848C82.0455 75.3929 81.2627 77.3825 80.3331 79.5188C81.2953 79.2905 82.0781 79.0459 82.8935 78.9317C85.6495 78.5729 88.1284 79.2579 90.1832 81.1659C91.7651 82.6337 93.3959 83.9546 95.7443 84.0688C96.1846 84.0851 96.576 84.9168 96.9837 85.3571C96.4944 85.7975 95.891 86.6781 95.5323 86.5966C93.7873 86.2052 92.0423 85.6833 90.4115 84.9331C89.4493 84.4928 88.7318 83.5306 87.8675 82.862C86.0083 81.4269 83.7904 80.9539 81.8661 82.177C79.746 83.5143 77.8217 85.2756 76.1582 87.1673C74.6579 88.8634 73.6142 90.9834 72.2769 93.0546C74.3317 93.3644 75.6853 92.4675 77.0878 91.4238C78.5881 90.2985 80.1048 89.0428 81.8334 88.4394C84.9646 87.3467 87.8675 88.2437 90.3137 90.4779C91.8629 91.8967 93.4448 93.1687 95.728 93.2503C96.1683 93.2666 96.576 94.082 97 94.5386C96.5108 94.9952 95.9563 95.8759 95.5649 95.8106C93.9667 95.5497 92.3685 95.1094 90.9008 94.4734C89.9875 94.082 89.27 93.2176 88.4709 92.549C85.7474 90.2333 82.8446 90.3148 79.9906 92.4838C78.2783 93.7721 76.4028 95.1094 74.3806 95.6965C71.4289 96.5608 68.787 95.3703 66.4875 93.3318C62.6388 89.9071 60.1926 89.9234 56.3928 93.2503C52.1527 96.9522 47.8147 96.9359 43.5583 93.2176C39.8563 89.9723 37.3123 89.956 33.594 93.2503C28.1145 98.0938 22.9774 95.8759 18.9983 91.6521C18.7047 91.3259 18.7373 90.2333 19.0472 89.9071C19.3734 89.5809 20.3518 89.5157 20.8085 89.7603C21.7054 90.2496 22.3577 91.1628 23.2384 91.6847C24.5104 92.4185 25.8803 92.9567 27.3643 93.3155C25.1464 88.9612 22.8307 84.8516 18.5743 82.3401C16.5194 81.117 13.8938 81.4432 11.8879 83.0577C10.7953 83.9383 9.78418 84.982 8.56107 85.6181C7.40319 86.2215 6.03331 86.5313 4.74497 86.6455C4.2068 86.6944 3.58709 85.9116 3 85.5202C3.48924 85.031 3.91325 84.3786 4.50035 84.0688C5.91915 83.3023 7.63151 82.9598 8.83831 81.965C12.6544 78.8665 14.5951 78.2957 19.569 79.5514C18.6232 77.3009 17.7752 75.2135 16.813 73.1587C16.6825 72.8651 15.8997 72.5879 15.5899 72.702C14.0406 73.3054 12.5403 74.023 11.0562 74.7732C9.18078 75.7027 7.37058 76.8117 5.44622 77.6271C4.46773 78.0348 3.1957 77.9043 3.03262 76.5018C2.86954 75.1972 3.97849 75.1156 5.0059 74.8873C6.09854 74.6427 7.28904 74.2513 8.13706 73.5501C10.3223 71.7562 12.3935 69.8481 15.5083 69.8155C14.6114 66.6191 13.8123 63.6184 12.948 60.6503C12.4913 59.1011 12.8338 58.1552 14.4972 57.5681C17.2533 56.5896 19.9278 55.3665 22.6676 54.3228C23.7439 53.9151 24.1516 53.3443 24.1353 52.1701C24.0538 48.4519 24.1027 44.7173 24.1027 40.999C24.1027 38.9442 25.1029 37.9005 27.1034 37.8679C27.4133 37.8679 27.7068 37.8353 28.2776 37.819C28.245 35.4543 28.9625 33.1059 27.1034 30.9532C25.1627 28.7353 23.5319 26.3707 24.0538 23.0764C24.2821 21.6576 24.6898 20.9401 26.1901 21.0379C27.1523 21.1031 28.1308 21.0379 29.3702 21.0379C29.3702 19.9616 29.3702 19.0157 29.3702 18.0535C29.3702 15.6562 29.5007 15.5421 31.8328 15.4931C32.3057 15.4931 32.7786 15.4442 33.4799 15.4279C33.4799 14.6288 33.4799 13.9113 33.4799 13.1937C33.4799 11.0302 34.5725 9.82336 36.7578 9.5733C36.7578 8.26865 36.611 6.93138 36.823 5.62674C36.9209 5.05595 37.7037 4.59932 38.1929 4.09377C38.6169 4.58302 39.3508 5.03964 39.416 5.57781C39.5954 6.88246 39.4813 8.21973 39.4813 9.47545C40.8348 10.0136 41.3893 9.62222 41.8623 8.46435C42.9549 5.72458 45.0913 4.24054 48.0593 4.06116C49.3966 3.97961 50.7502 3.97961 52.1037 4.06116C54.9903 4.27316 57.0777 5.74089 58.1377 8.41542C58.5944 9.55699 59.1325 9.981 60.5187 9.49176C60.5187 8.30127 60.5187 7.02923 60.5187 5.77351C60.5187 4.81133 60.8612 3.89807 61.9538 4.1427C62.4757 4.25685 63.1117 5.13749 63.2096 5.7572C63.4053 6.99662 63.2748 8.28496 63.2748 9.65484C68.4934 9.21452 65.721 13.3242 66.5854 14.955C68.1999 15.4768 70.1079 15.5421 70.7602 16.4716C71.4452 17.4501 70.907 19.2766 70.907 21.0053C72.1953 21.0053 73.2717 21.0379 74.3317 21.0053C75.6364 20.9564 76.1256 21.5598 76.2724 22.8481C76.5985 25.6368 75.7179 27.8873 73.9729 30.0563C71.6735 32.9265 71.5756 33.9702 72.1954 37.6396C72.2932 37.6885 72.391 37.7863 72.5052 37.7863C74.9949 37.9168 76.2398 39.216 76.2398 41.684C76.2398 45.1087 76.305 48.5171 76.2071 51.9418C76.1745 53.2791 76.5007 54.0129 77.8706 54.5022C80.5288 55.4317 83.0729 56.6385 85.6985 57.617C87.0847 58.1389 87.4597 58.9869 87.0847 60.3079C86.2366 63.3575 85.4049 66.4071 84.4917 69.7503M69.2273 92.0271C72.8151 88.5861 80.8223 73.4522 81.0833 69.6687C79.2731 69.2121 77.4303 68.7392 75.6037 68.2988C74.5763 68.0379 73.5815 67.6628 73.9729 66.3745C74.3154 65.2492 75.245 65.3308 76.2561 65.5917C78.2457 66.1299 80.2516 66.5539 82.3879 67.0594C83.0729 64.6295 83.6926 62.4116 84.3449 60.0632C73.3532 55.6274 62.5246 51.2405 51.4351 46.7558C51.4351 49.4466 51.5003 51.7624 51.4025 54.0782C51.3536 55.285 51.7123 55.9862 52.8376 56.4591C58.1214 58.6934 63.389 60.9765 68.6565 63.2433C69.6187 63.651 70.8418 63.9283 70.3036 65.3471C69.8144 66.6191 68.7217 66.2603 67.7922 65.8689C62.9976 63.8793 58.2193 61.8571 53.441 59.8349C52.8539 59.5903 52.2668 59.2968 51.4351 58.9054V61.1885C51.4351 66.9942 51.4351 72.7836 51.4351 78.5893C51.4351 79.6656 51.4351 80.8887 49.9837 80.8561C48.5323 80.8235 48.5975 79.6004 48.5975 78.5403V58.8401C38.9268 63.8956 29.0115 67.3693 18.6069 69.734C21.5913 77.9043 25.5052 85.2267 30.5607 92.0598C30.9032 91.7988 31.1804 91.6521 31.3761 91.4564C35.6325 86.9227 41.4219 86.7922 45.8904 91.4564C46.5101 92.1087 47.4396 92.4838 48.6138 93.234C48.6138 90.5268 48.516 88.3578 48.679 86.1888C48.728 85.6507 49.5923 85.1614 50.0652 84.6559C50.5219 85.1451 51.0926 85.5691 51.3699 86.1399C51.5819 86.5965 51.4351 87.2163 51.4351 87.7707C51.4351 89.4342 51.4351 91.1139 51.4351 93.1198C54.8761 91.6521 56.7516 88.3415 60.4046 88.0317C64.1718 87.7218 66.8137 89.5809 69.2436 92.0108M27.0056 47.0494V52.4473C27.8373 52.1375 28.5059 51.8929 29.1745 51.6156C35.5673 49.0226 41.9438 46.3807 48.3855 43.9019C49.3477 43.5268 50.7012 43.5268 51.6471 43.9019C58.3171 46.4786 64.9219 49.202 71.543 51.8929C72.1301 52.1375 72.7335 52.3332 73.3369 52.5615V47.0657C72.1954 47.0657 71.1842 47.2451 70.2547 47.0167C69.586 46.8537 69.0479 46.1524 68.4445 45.6958C69.0642 45.2555 69.635 44.5705 70.3199 44.4237C71.2821 44.1954 72.3421 44.3748 73.3858 44.3748V40.6566C72.7335 40.624 72.1954 40.5913 71.6409 40.575C69.423 40.5261 69.3577 40.2815 69.1294 38.1777C68.6565 33.9376 69.5534 30.2357 72.6194 27.1535C72.6683 27.1045 72.7009 27.0556 72.7172 27.0067C73.0597 26.0445 73.3858 25.0823 73.7935 23.9408H26.4185C27.0708 25.3759 27.348 26.6642 28.0982 27.5285C30.5933 30.3335 31.6044 33.4484 31.2783 37.2319C31.001 40.4772 31.213 40.4935 27.8699 40.6076C27.5763 40.6076 27.2991 40.7055 26.9892 40.7544V44.3911C28.0003 44.3911 28.9625 44.2117 29.8105 44.4564C30.4792 44.6521 31.001 45.3533 31.5718 45.8262C31.001 46.2503 30.4792 46.8863 29.8432 47.0494C28.9788 47.2614 28.033 47.0983 26.9892 47.0983M48.5812 46.8047C37.4917 51.2895 26.6468 55.6764 15.6714 60.1122C16.3564 62.5258 16.9924 64.7763 17.6447 67.092C28.3917 64.7926 38.356 61.1885 47.7658 56.133C48.1246 55.9373 48.5323 55.4317 48.5323 55.073C48.5975 52.4147 48.5649 49.7402 48.5649 46.8047M32.1752 20.9238H68.102V18.2166H65.7699C59.475 18.2166 53.1638 18.2492 46.8688 18.1514C46.2654 18.1514 45.662 17.3197 45.0749 16.863C45.6783 16.4064 46.2654 15.591 46.8688 15.5747C50.9622 15.4605 55.0718 15.5095 59.1652 15.5095H63.5357V12.6718H36.4643V15.5095C37.4754 15.5095 38.3234 15.5095 39.1714 15.5095C40.1825 15.5095 41.2915 15.4931 41.2915 16.8793C41.2915 18.2818 40.1336 18.2166 39.1388 18.2166C36.8393 18.2166 34.5399 18.2166 32.1915 18.2166V20.9238H32.1752ZM44.3411 9.63853H55.5611C54.8109 7.69787 53.441 6.83354 51.6308 6.81723C48.9726 6.78461 46.0371 6.1486 44.3411 9.63853Z" fill="#003876"/>
<path d="M4.75855 96.4328C3.95945 95.6663 3.0625 95.1771 3.0625 94.6879C3.0625 94.1823 3.84529 93.53 4.43238 93.2038C5.93273 92.3721 7.56354 91.7524 9.06389 90.9207C10.287 90.252 11.3144 89.2246 12.5864 88.6702C13.1083 88.4418 13.9889 89.0126 14.7065 89.2246C14.3803 89.8443 14.1846 90.6271 13.6954 91.0511C12.5538 92.0459 11.3307 92.9755 10.0261 93.742C8.39526 94.7042 6.63398 95.4706 4.74224 96.4165" fill="#003876"/>
<path d="M42.3245 30.7435C43.5476 30.7435 44.7708 30.7435 45.9939 30.7435C47.1844 30.7435 47.8041 31.2817 47.7878 32.5211C47.7551 34.7716 47.7714 37.0385 47.7878 39.289C47.7878 40.4958 47.2659 41.1318 46.0428 41.1318C43.4824 41.1318 40.9057 41.1318 38.3454 41.1318C37.1222 41.1318 36.5352 40.5121 36.5352 39.3379C36.5352 37.0874 36.5352 34.8206 36.5352 32.5701C36.5352 31.2654 37.2038 30.7109 38.4921 30.7435C39.7805 30.7762 41.0525 30.7435 42.3408 30.7435M39.438 38.229H44.8686V33.5322H39.438V38.229Z" fill="#003876"/>
<path d="M58.0078 41.1259C56.7847 41.1259 55.5616 41.1259 54.3385 41.1259C53.1643 41.1259 52.4957 40.6203 52.512 39.3809C52.512 37.0651 52.512 34.7494 52.512 32.4336C52.512 31.2758 53.0828 30.7539 54.1917 30.7539C56.8174 30.7539 59.443 30.7539 62.0686 30.7539C63.2101 30.7539 63.732 31.3736 63.732 32.4663C63.732 34.782 63.732 37.0978 63.732 39.4135C63.732 40.6366 63.0307 41.1422 61.8566 41.1259C60.5682 41.1096 59.2962 41.1259 58.0078 41.1259ZM55.3659 38.1741H60.8618V33.5589H55.3659V38.1741Z" fill="#003876"/>
<path d="M35.1777 27.2975C34.1666 27.9498 33.5632 28.6185 33.1066 28.5369C32.6173 28.4554 31.9813 27.6726 31.9161 27.1344C31.8672 26.792 32.7152 25.9766 33.1555 25.9766C33.6774 25.9766 34.2155 26.6126 35.194 27.2812" fill="#003876"/>
<path d="M41.9433 27.3334C40.9322 27.9694 40.3125 28.638 39.8722 28.5565C39.3667 28.4586 38.7469 27.6921 38.6817 27.1377C38.6328 26.7952 39.4808 25.9961 39.9211 25.9961C40.443 25.9961 40.9649 26.6484 41.9433 27.3334Z" fill="#003876"/>
<path d="M46.7078 29.3057C46.0718 28.2946 45.4684 27.7402 45.4847 27.2183C45.4847 26.7617 46.3327 25.9463 46.6426 26.0115C47.1807 26.1257 47.9309 26.7617 47.9962 27.2672C48.0614 27.7402 47.3764 28.3273 46.7078 29.3221" fill="#003876"/>
<path d="M55.5333 27.2844C54.5222 27.9368 53.9351 28.638 53.4784 28.5565C52.9729 28.4586 52.3532 27.7084 52.2716 27.154C52.2227 26.8115 53.0381 25.9961 53.4947 25.9961C54.0166 25.9961 54.5548 26.6158 55.5333 27.2844Z" fill="#003876"/>
<path d="M62.3653 27.1507C61.4194 27.8682 60.865 28.6021 60.392 28.5532C59.9028 28.5043 59.2178 27.7867 59.1037 27.2485C59.0221 26.9061 59.7886 26.0417 60.2289 26.0091C60.7508 25.9765 61.3216 26.5636 62.3653 27.1507Z" fill="#003876"/>
<path d="M69.1333 27.2204C68.1548 27.9054 67.5677 28.6229 67.111 28.5414C66.6055 28.4599 65.9532 27.726 65.8553 27.1878C65.7901 26.8454 66.5892 26.0136 67.0458 25.9973C67.5677 25.9647 68.1058 26.5844 69.1333 27.2204Z" fill="#003876"/>
</svg>
