<svg width="100" height="100" viewBox="0 0 100 100" fill="none" xmlns="http://www.w3.org/2000/svg">
<path d="M46.3761 23.4714C45.0008 22.0696 44.7628 20.4298 45.0008 18.6048H48.0689C48.0689 19.1074 48.0689 19.5834 48.0689 20.0595C48.1218 20.9852 48.7301 21.62 49.5765 21.6465C50.4493 21.6465 51.1105 21.0117 51.1634 20.0331C51.1634 19.557 51.1634 19.0545 51.1634 18.5784C51.1105 17.6791 50.6344 17.1501 49.7352 16.9915C48.3863 16.7534 48.0424 16.3302 48.0424 14.9813C48.0424 14.2143 48.0424 13.4209 48.0424 12.6538C48.0424 12.6009 48.0424 12.5216 47.8308 12.6009C47.3283 12.0191 46.7464 11.4901 46.3761 10.8553C45.424 9.13614 44.5776 7.33762 43.7313 5.56554C42.9907 4.05796 43.6519 3 45.3446 3C48.2011 3 51.0311 3 53.8876 3C55.5804 3 56.2416 4.03151 55.501 5.56554C54.6017 7.41696 53.7025 9.29483 52.7239 11.1198C52.4329 11.6752 51.8775 12.072 51.3485 12.4687C51.0311 13.3944 51.1105 14.1879 52.2213 14.7433C53.2529 15.2723 53.8347 16.2773 54.1257 17.4411C54.6282 19.5041 54.2844 21.3291 52.9355 23.5243C56.797 26.1163 60.685 28.6819 64.5465 31.2738C73.3011 37.0926 82.0557 42.9378 90.7838 48.783C91.6566 49.3649 92.503 49.7881 93.5609 49.6294C93.6667 49.6294 93.7461 49.6294 93.8519 49.6294C95.862 49.6294 96.2587 50.0261 96.2587 51.9833C96.2587 61.4785 96.2587 70.9471 96.2587 80.4423C96.2587 85.0179 96.2587 89.5671 96.2587 94.1428C96.2587 95.7562 95.7562 96.2587 94.1957 96.2587C92.4501 96.2587 90.7045 96.2587 88.9588 96.2587C87.8744 96.2587 87.1603 95.862 86.8958 94.7247H12.3893C12.0984 96.0736 11.0934 96.2852 9.85026 96.2587C8.21043 96.2058 6.54415 96.2587 4.90432 96.2587C3.55543 96.2587 3 95.7033 3 94.3808C3 80.0985 3 65.8425 3 51.5601C3 50.1848 3.55543 49.55 4.95722 49.6558C6.5706 49.788 7.84014 49.2326 9.16259 48.3598C21.2233 40.2665 33.3104 32.226 45.3975 24.1591C45.6885 23.974 45.9794 23.7624 46.4026 23.4714H46.3761ZM86.8429 54.3637H12.3629V91.5244H86.8429V54.3637ZM86.7371 51.1634C87.3983 50.3964 87.0016 49.9996 86.3404 49.5765C74.3591 41.6154 62.3777 33.6278 50.4228 25.6138C49.7616 25.1642 49.3384 25.2435 48.7301 25.6667C36.7488 33.6807 24.741 41.6682 12.7332 49.6558C12.4951 49.8145 12.2571 49.9996 12.0191 50.1848C12.1513 50.5551 12.2571 50.8725 12.3629 51.1634H86.7371ZM6.14742 52.8032V93.0848H9.13614V52.8032H6.14742ZM93.0319 93.1377V52.8561H90.0697V93.1377H93.0319ZM51.6924 6.17387H47.5134C47.6721 6.5177 47.7779 6.78219 47.9102 7.04668C48.2011 7.655 48.4921 8.26333 48.8359 8.8452C49.1268 9.37418 50.0525 9.40063 50.3435 8.8981C50.8196 8.02529 51.2163 7.12602 51.6924 6.17387Z" fill="white"/>
<path d="M26.227 88.4335H23.2383V57.4883H26.227V88.4335Z" fill="white"/>
<path d="M29.4492 57.4375H32.4379V88.3827H29.4492V57.4375Z" fill="white"/>
<path d="M38.6831 57.457V88.4022H35.668V57.457H38.6831Z" fill="white"/>
<path d="M44.8754 88.4287H41.8867V57.457H44.8754V88.4287Z" fill="white"/>
<path d="M51.0864 88.4335H48.0977V57.4883H51.0864V88.4335Z" fill="white"/>
<path d="M54.3164 57.4375H57.3051V88.3827H54.3164V57.4375Z" fill="white"/>
<path d="M60.5273 57.4375H63.5161V88.4091H60.5273V57.4375Z" fill="white"/>
<path d="M69.7348 88.4356H66.7461V57.4375H69.7348V88.4356Z" fill="white"/>
<path d="M72.9648 57.4375H75.9536V88.3827H72.9648V57.4375Z" fill="white"/>
<path d="M17.0195 63.6445H20.0083V82.1852H17.0195V63.6445Z" fill="white"/>
<path d="M82.1381 82.2116H79.1758V63.6445H82.1381V82.2116Z" fill="white"/>
<path d="M20.0083 60.4458H17.0195V57.457H20.0083V60.4458Z" fill="white"/>
<path d="M82.1645 60.4458H79.1758V57.457H82.1645V60.4458Z" fill="white"/>
<path d="M20.0131 88.4605H17.0508V85.4453H20.0131V88.4605Z" fill="white"/>
<path d="M82.1645 88.4292H79.1758V85.4141H82.1645V88.4292Z" fill="white"/>
</svg>
