<svg width="100" height="100" viewBox="0 0 100 100" fill="none" xmlns="http://www.w3.org/2000/svg">
<path d="M49.3061 20.1279C44.0399 20.1279 39.7422 15.8301 39.7422 10.5639C39.7422 5.29772 44.0399 1 49.3061 1C54.5723 1 58.87 5.29772 58.87 10.5639C58.87 15.8301 54.5723 20.1279 49.3061 20.1279ZM49.3061 4.05682C45.7348 4.05682 42.799 6.96232 42.799 10.5639C42.799 14.1655 45.7045 17.071 49.3061 17.071C52.9077 17.071 55.8132 14.1655 55.8132 10.5639C55.8132 6.96232 52.9077 4.05682 49.3061 4.05682Z" fill="white"/>
<path d="M50.0068 67.4954C35.1161 67.4954 21.1939 65.4979 10.7826 61.8358C9.99568 61.5634 9.57196 60.6857 9.84435 59.8685C10.1167 59.0816 10.9944 58.6579 11.8116 58.9303C21.8901 62.4714 35.449 64.4084 50.0068 64.4084C64.5645 64.4084 77.8511 62.5016 87.8993 59.0513C88.6862 58.779 89.5639 59.2027 89.8363 59.9896C90.1087 60.7765 89.685 61.6542 88.8981 61.9266C78.5472 65.4979 64.7461 67.4652 50.0068 67.4652V67.4954Z" fill="white"/>
<path d="M3.51204 98.9444C2.78567 98.9444 2.15009 98.4299 1.99876 97.7035C1.33292 94.4651 1 91.1661 1 87.8369C1 74.7622 6.08462 62.4441 15.3459 53.2131C24.6072 43.9518 36.895 38.8672 49.9697 38.8672C63.0445 38.8672 75.3626 43.9518 84.5936 53.2131C93.8548 62.4744 98.9395 74.7622 98.9395 87.8369C98.9395 90.5608 98.7276 93.2847 98.2736 95.9481C98.1223 96.7955 97.3354 97.3403 96.5182 97.2193C95.6708 97.0679 95.126 96.281 95.2471 95.4639C95.6708 92.9821 95.8827 90.4095 95.8827 87.8672C95.8827 75.6096 91.1007 64.0784 82.4447 55.3922C73.7585 46.706 62.2273 41.9543 49.9697 41.9543C37.7122 41.9543 26.181 46.7362 17.4948 55.3922C8.80852 64.0784 4.05682 75.6096 4.05682 87.8672C4.05682 90.9845 4.35948 94.1019 4.99506 97.1285C5.17665 97.9456 4.63187 98.7628 3.8147 98.9444C3.7239 98.9444 3.60284 98.9747 3.51204 98.9747V98.9444Z" fill="white"/>
<path d="M24.3627 98.9444C23.6061 98.9444 22.9403 98.3694 22.8495 97.5824C22.4863 94.4046 22.3047 91.1359 22.3047 87.8369C22.3047 74.9135 25.0891 62.7165 30.1435 53.546C35.3794 44.0729 42.401 38.8672 49.9674 38.8672C57.5338 38.8672 64.5857 44.0729 69.7914 53.546C74.8458 62.7165 77.6302 74.9135 77.6302 87.8369C77.6302 90.5306 77.5091 93.1939 77.267 95.827C77.1762 96.6745 76.4498 97.2798 75.6024 97.2193C74.755 97.1285 74.1497 96.4021 74.2102 95.5546C74.4523 93.0123 74.5734 90.4398 74.5734 87.8369C74.5734 75.428 71.91 63.7758 67.0978 55.029C62.4369 46.5849 56.3535 41.924 49.9372 41.924C43.5209 41.924 37.4375 46.5849 32.7766 55.029C27.9644 63.7758 25.301 75.428 25.301 87.8369C25.301 90.9845 25.4826 94.1624 25.8155 97.2193C25.9063 98.0667 25.301 98.8233 24.4535 98.9141C24.393 98.9141 24.3325 98.9141 24.272 98.9141L24.3627 98.9444Z" fill="white"/>
<path d="M50.0006 98.8536C49.1531 98.8536 48.457 98.1575 48.457 97.3101V40.4107C48.457 39.5633 49.1531 38.8672 50.0006 38.8672C50.848 38.8672 51.5441 39.5633 51.5441 40.4107V97.3101C51.5441 98.1575 50.848 98.8536 50.0006 98.8536Z" fill="white"/>
<path d="M97.4565 89.3879H2.54354C1.69611 89.3879 1 88.6918 1 87.8443C1 86.9969 1.69611 86.3008 2.54354 86.3008H97.4565C98.3039 86.3008 99 86.9969 99 87.8443C99 88.6918 98.3039 89.3879 97.4565 89.3879Z" fill="white"/>
<path d="M38.4101 38.7174C38.4101 38.7174 38.3193 38.7174 38.289 38.7174C37.4416 38.6568 36.806 37.9002 36.8968 37.0528L37.3508 31.7563L29.966 32.634C27.9079 32.8761 25.8499 32.755 23.8523 32.2405L9.32484 28.5784C6.87332 27.9428 5.29952 25.5518 5.69297 23.0701C5.90483 21.7384 6.66147 20.558 7.75103 19.7711C8.84059 19.0145 10.2328 18.7421 11.5342 19.0145L24.4879 21.5265C26.4854 21.92 28.5738 21.8594 30.5108 21.3449L40.8919 18.7118C41.709 18.5 42.5565 19.0145 42.7683 19.8316C42.9802 20.6488 42.4657 21.4962 41.6485 21.7081L31.2674 24.3412C28.8764 24.9465 26.3341 25.0373 23.8826 24.5531L10.8986 22.041C10.3841 21.9502 9.89988 22.041 9.47617 22.3134C9.05245 22.6161 8.78006 23.0398 8.68926 23.5543C8.53793 24.4925 9.11298 25.4005 10.0512 25.6426L24.5787 29.2745C26.213 29.6982 27.9079 29.789 29.6028 29.6074L38.8641 28.5179C39.318 28.4573 39.772 28.6087 40.1049 28.9416C40.4379 29.2745 40.6195 29.7285 40.5589 30.1825L39.9536 37.3554C39.8931 38.1423 39.2272 38.7476 38.4403 38.7476L38.4101 38.7174Z" fill="white"/>
<path d="M60.7458 38.7125C59.9589 38.7125 59.2931 38.1072 59.2326 37.3203L58.6272 30.1473C58.597 29.6933 58.7483 29.2393 59.0812 28.9064C59.4142 28.5735 59.8681 28.4222 60.3221 28.4827L69.5834 29.5723C71.2783 29.7841 72.9429 29.6631 74.6075 29.2393L89.135 25.5772C90.0429 25.3351 90.618 24.4574 90.4667 23.5192C90.3759 23.0046 90.1035 22.5809 89.6797 22.2783C89.256 21.9756 88.7415 21.8848 88.2573 22.0059L75.2733 24.5179C72.8521 24.9719 70.3098 24.9114 67.8885 24.3061L57.5074 21.6729C56.6902 21.4611 56.1757 20.6439 56.3876 19.7965C56.5995 18.9793 57.4166 18.4648 58.2641 18.6767L68.6452 21.3098C70.6124 21.794 72.7007 21.8545 74.668 21.4914L87.6217 18.9793C88.9231 18.7069 90.3153 18.9793 91.4049 19.736C92.5247 20.4926 93.2511 21.7032 93.4629 23.0349C93.8564 25.5469 92.3129 27.9077 89.8613 28.5432L75.3036 32.2054C73.3061 32.7199 71.248 32.841 69.1899 32.5988L61.8051 31.7211L62.2591 37.0176C62.3196 37.865 61.7143 38.5914 60.8669 38.6822C60.8366 38.6822 60.7761 38.6822 60.7458 38.6822V38.7125Z" fill="white"/>
</svg>
