<svg width="100" height="100" viewBox="0 0 100 100" fill="none" xmlns="http://www.w3.org/2000/svg">
<path d="M33.2733 7.52035C31.8597 4.10565 28.1329 2.28816 24.5713 3.26116L8.41578 7.66722C5.22139 8.54843 3 11.4491 3 14.7536C3 60.1727 39.8273 97 85.2464 97C88.5509 97 91.4516 94.7786 92.3328 91.5842L96.7388 75.4287C97.7118 71.8671 95.8943 68.1403 92.4796 66.7267L74.8554 59.3833C71.863 58.1349 68.3932 58.9978 66.3554 61.5129L58.9386 70.5637C46.0141 64.4503 35.5497 53.9859 29.4363 41.0615L38.4871 33.6629C41.0022 31.6068 41.8651 28.1554 40.6167 25.1629L33.2733 7.53871V7.52035Z" fill="#143772"/>
</svg>
