<svg width="100" height="100" viewBox="0 0 100 100" fill="none" xmlns="http://www.w3.org/2000/svg">
<path d="M67.625 50C67.625 54.0758 67.4047 58.0047 67.0191 61.75H32.9809C32.577 58.0047 32.375 54.0758 32.375 50C32.375 45.9242 32.5953 41.9953 32.9809 38.25H67.0191C67.423 41.9953 67.625 45.9242 67.625 50ZM72.9125 38.25H95.5129C96.4859 42.0137 97 45.9426 97 50C97 54.0574 96.4859 57.9863 95.5129 61.75H72.9125C73.298 57.968 73.5 54.0391 73.5 50C73.5 45.9609 73.298 42.032 72.9125 38.25ZM93.5852 32.375H72.1598C70.3238 20.6434 66.6887 10.8211 62.007 4.54219C76.3824 8.34258 88.0773 18.7707 93.5668 32.375H93.5852ZM66.2113 32.375H33.7887C34.9086 25.6922 36.6344 19.7805 38.7457 14.9887C40.6734 10.6559 42.8215 7.51641 44.8961 5.53359C46.9523 3.5875 48.6598 3 50 3C51.3402 3 53.0477 3.5875 55.1039 5.53359C57.1785 7.51641 59.3266 10.6559 61.2543 14.9887C63.384 19.7621 65.0914 25.6738 66.2113 32.375ZM27.8402 32.375H6.41484C11.9227 18.7707 23.5992 8.34258 37.993 4.54219C33.3113 10.8211 29.6762 20.6434 27.8402 32.375ZM4.48711 38.25H27.0875C26.702 42.032 26.5 45.9609 26.5 50C26.5 54.0391 26.702 57.968 27.0875 61.75H4.48711C3.51406 57.9863 3 54.0574 3 50C3 45.9426 3.51406 42.0137 4.48711 38.25ZM38.7457 84.993C36.616 80.2195 34.9086 74.3078 33.7887 67.625H66.2113C65.0914 74.3078 63.3656 80.2195 61.2543 84.993C59.3266 89.3258 57.1785 92.4652 55.1039 94.448C53.0477 96.4125 51.3402 97 50 97C48.6598 97 46.9523 96.4125 44.8961 94.4664C42.8215 92.4836 40.6734 89.3441 38.7457 85.0113V84.993ZM27.8402 67.625C29.6762 79.3566 33.3113 89.1789 37.993 95.4578C23.5992 91.6574 11.9227 81.2293 6.41484 67.625H27.8402ZM93.5852 67.625C88.0773 81.2293 76.4008 91.6574 62.0254 95.4578C66.707 89.1789 70.3238 79.3566 72.1781 67.625H93.5852Z" fill="#143772"/>
</svg>
