<svg width="100" height="100" viewBox="0 0 100 100" fill="none" xmlns="http://www.w3.org/2000/svg">
<path d="M52.6072 86.2966C51.708 86.2966 50.9693 85.5591 50.9693 84.6613C50.9693 83.7635 51.708 83.0261 52.6072 83.0261H63.2054C64.1046 83.0261 64.8433 83.7635 64.8433 84.6613C64.8433 85.5591 64.1046 86.2966 63.2054 86.2966H52.6072ZM53.0087 65.4549C53.5225 65.519 54.0363 65.5992 54.5341 65.6954L71.2343 38.6653L72.7438 36.2285C73.2095 35.4589 74.2211 35.2345 74.9919 35.6994C75.7627 36.1643 76.0035 37.1743 75.5218 37.9439L74.0124 40.3808L59.0625 64.5571C60.4756 63.8517 61.9208 63.4669 63.366 63.0822C65.036 62.6333 66.706 62.1844 68.087 61.1904C68.9862 60.5331 69.0665 59.3627 69.1468 58.2886C69.2432 56.9579 69.3235 55.7074 70.319 54.6172C72.1175 52.6453 73.916 52.8858 75.8108 53.1423C76.9349 53.3026 78.1232 53.4629 79.0706 52.517C80.4195 51.2024 79.8895 49.8076 79.4239 48.6052C78.6531 46.5691 77.9626 44.7575 80.3552 42.9619C82.2019 41.5832 83.5026 40.0922 84.3536 38.5852C85.301 36.8858 85.6704 35.1703 85.5419 33.5511C85.4134 31.9479 84.8193 30.4248 83.8398 29.1263C83.0529 28.0842 82.0092 27.1703 80.7727 26.481C80.6443 26.4008 80.5479 26.3527 80.4676 26.3206C78.2035 25.1503 75.6181 24.8457 73.2255 25.4709C71.0256 26.0481 69.0023 27.4269 67.5731 29.6713C68.3921 30.9539 68.7935 32.5731 68.1994 34.9138C67.3644 38.1844 65.1645 39.0501 63.0609 39.8677C61.8405 40.3487 60.6683 40.7976 60.4274 42.0321C60.331 42.5291 60.7646 43.3467 61.2303 44.2285C62.2259 46.1202 63.3339 48.2044 62.1456 50.9619C61.0858 53.4469 59.3836 55.1303 57.6654 56.8297C55.594 58.8818 53.5225 60.9339 53.1211 64.493C53.0729 64.7976 53.0408 65.1343 53.0087 65.4549ZM60.4756 67.523C63.3017 68.7735 65.855 70.473 68.0228 72.5411C72.792 77.0782 75.7466 83.3627 75.7466 90.3046V94.7295H93.3621C94.2613 94.7295 95 95.4669 95 96.3647C95 97.2625 94.2613 98 93.3621 98H74.1087H24.8752H5.6379C4.73866 98 4 97.2625 4 96.3647C4 95.4669 4.73866 94.7295 5.6379 94.7295H23.2373V90.3046C23.2373 83.3627 26.192 77.0942 30.9612 72.5411C33.1451 70.473 35.6983 68.7575 38.5244 67.507C37.3522 66.8978 36.0676 66.5611 34.799 66.2244C32.84 65.6954 30.8809 65.1663 29.0021 63.8196C26.8664 62.2806 26.7219 60.2926 26.6095 58.497C26.5613 57.7435 26.5131 57.0381 26.2883 56.7976C25.646 56.0922 24.6826 56.2365 23.6548 56.3647C21.76 56.6212 19.7688 56.8938 17.6813 54.8417C14.823 52.02 15.7383 49.5992 16.5573 47.4509C16.8784 46.6172 17.1514 45.8798 16.7178 45.5591C14.4858 43.8758 12.88 42.0481 11.8202 40.1723C10.5356 37.8798 10.0538 35.523 10.2144 33.2946C10.391 31.0501 11.226 28.9499 12.5588 27.1703C13.6347 25.7435 15.0157 24.5411 16.6376 23.6273C16.7821 23.5471 16.9105 23.4669 17.0229 23.4188C19.9936 21.8798 23.43 21.4629 26.5934 22.2966C29.3233 23.018 31.8604 24.6373 33.7392 27.2505C33.8998 27.1222 34.0764 26.978 34.237 26.8497C35.2326 26.0641 36.1158 25.3748 35.7785 24.5571C34.6384 21.7836 34.1406 19.2024 34.1406 16.8297C34.1406 13.5271 35.1041 10.6573 36.742 8.3487C38.3639 6.04008 40.6441 4.29258 43.2776 3.21844C45.2206 2.43286 47.3242 2 49.492 2C51.6598 2 53.7634 2.41683 55.7064 3.21844C58.3399 4.29258 60.6201 6.04008 62.2419 8.3487C63.8798 10.6733 64.8433 13.5431 64.8433 16.8297C64.8433 19.1864 64.3295 21.7836 63.2054 24.5571C62.8682 25.3748 63.7514 26.0641 64.747 26.8497C64.9236 26.978 65.0842 27.1222 65.2608 27.2665C67.1396 24.6533 69.6767 23.018 72.4066 22.2966C75.57 21.4629 79.0064 21.8637 81.961 23.4028C82.1216 23.483 82.2661 23.5631 82.3625 23.6273C83.9843 24.5411 85.3653 25.7435 86.4412 27.1703C87.79 28.9499 88.625 31.0661 88.7856 33.2946C88.9622 35.523 88.4805 37.8798 87.1798 40.1723C86.12 42.0481 84.5142 43.8918 82.2822 45.5591C81.8486 45.8798 82.1216 46.6172 82.4427 47.4509C83.2617 49.5992 84.177 52.02 81.3187 54.8417C79.2312 56.8938 77.24 56.6212 75.3452 56.3647C74.3175 56.2204 73.3379 56.0922 72.7117 56.7976C72.4869 57.0381 72.4387 57.7435 72.3905 58.497C72.262 60.2926 72.1336 62.2645 69.9979 63.8196C68.1191 65.1824 66.16 65.6954 64.201 66.2244C62.9324 66.5772 61.6638 66.9138 60.4756 67.523ZM44.4659 65.6794C44.9637 65.5832 45.4614 65.503 45.9753 65.4389C45.9432 65.1182 45.9111 64.7976 45.8629 64.4609C45.4614 60.9178 43.3739 58.8497 41.3185 56.7976C39.6164 55.0982 37.9142 53.4148 36.8384 50.9299C35.6501 48.1723 36.742 46.0882 37.7537 44.1964C38.2193 43.3146 38.6529 42.497 38.5566 42C38.3157 40.7655 37.1435 40.3166 35.9231 39.8357C33.8195 39.018 31.6196 38.1523 30.7845 34.8818C30.1904 32.5411 30.5918 30.9058 31.4269 29.6232C29.9816 27.3788 27.9584 26.016 25.7745 25.4389C23.3979 24.8136 20.7965 25.1343 18.5324 26.3046C18.4039 26.3687 18.3076 26.4168 18.2433 26.4649C17.0069 27.1543 15.9631 28.0681 15.1763 29.1102C14.1968 30.4088 13.6026 31.9158 13.4741 33.5351C13.3457 35.1543 13.715 36.8697 14.6624 38.5691C15.5135 40.0762 16.8142 41.5671 18.6608 42.9459C21.0535 44.7415 20.379 46.5531 19.5922 48.5892C19.1265 49.8076 18.6127 51.1864 19.9455 52.501C20.8929 53.4309 22.0651 53.2705 23.2052 53.1263C25.1001 52.8697 26.8985 52.6293 28.697 54.6012C29.6926 55.6914 29.7729 56.9419 29.8692 58.2725C29.9495 59.3467 30.0298 60.517 30.9291 61.1744C32.3261 62.1844 33.9801 62.6333 35.6501 63.0661C37.0953 63.4509 38.5405 63.8357 39.9536 64.5411L26.8664 43.3467C26.4007 42.5772 26.6256 41.5832 27.3963 41.1022C28.1671 40.6373 29.1627 40.8617 29.6444 41.6313L44.4659 65.6794ZM65.7747 74.8978C61.6157 70.9379 55.8509 68.485 49.492 68.485C43.1331 68.485 37.3683 70.9379 33.2093 74.8978C29.0663 78.8417 26.5131 84.2766 26.5131 90.2886V94.7134H72.4869V91.9238H61.3587C60.4595 91.9238 59.7208 91.1864 59.7208 90.2886C59.7208 89.3908 60.4595 88.6533 61.3587 88.6533H72.4226C71.9891 83.3146 69.5322 78.489 65.7747 74.8978ZM51.1299 59.7796C52.2058 57.6313 53.7955 56.0601 55.3692 54.505C56.8465 53.0461 58.3238 51.5872 59.1428 49.6633C59.7208 48.3327 58.9982 46.986 58.3399 45.7355C57.6012 44.3407 56.9107 43.0261 57.2158 41.4228C57.7939 38.4088 59.7851 37.6393 61.8726 36.8216C63.2215 36.2926 64.6185 35.7475 65.036 34.1122C65.6462 31.7234 64.0886 30.489 62.7237 29.4148C60.7004 27.8277 58.9179 26.4168 60.1865 23.3387C61.15 20.998 61.5675 18.8176 61.5675 16.8457C61.5675 14.2485 60.8128 12.02 59.5603 10.2405C58.2917 8.44489 56.5253 7.08217 54.4699 6.2485C52.9444 5.62325 51.2423 5.28657 49.4759 5.28657C47.7095 5.28657 46.0235 5.62325 44.4819 6.2485C42.4426 7.08217 40.6601 8.44489 39.3916 10.2405C38.1391 12.02 37.3843 14.2645 37.3843 16.8457C37.3843 18.8337 37.8179 20.998 38.7653 23.3387C40.0339 26.4168 38.2515 27.8277 36.2282 29.4148C34.8632 30.489 33.3056 31.7234 33.9158 34.1122C34.3333 35.7635 35.7304 36.3086 37.0792 36.8216C39.1668 37.6393 41.1579 38.4088 41.736 41.4228C42.0411 43.0421 41.3506 44.3407 40.612 45.7355C39.9536 46.9699 39.247 48.3166 39.8091 49.6633C40.628 51.5872 42.1054 53.0461 43.5827 54.505C45.1563 56.0762 46.7461 57.6313 47.8219 59.7796V17.1503C47.8219 16.2525 48.5606 15.515 49.4599 15.515C50.3591 15.515 51.0978 16.2525 51.0978 17.1503V59.7796H51.1299ZM77.7217 34.3687C77.256 35.1383 76.2444 35.3627 75.4736 34.8978C74.7028 34.4329 74.478 33.4228 74.9437 32.6533L77.0794 29.1904C77.5451 28.4208 78.5567 28.1804 79.3275 28.6613C80.0983 29.1263 80.3392 30.1363 79.8574 30.9058L77.7217 34.3687Z" fill="white"/>
</svg>
