<svg width="100" height="100" viewBox="0 0 100 100" fill="none" xmlns="http://www.w3.org/2000/svg">
<path d="M58.1238 3.0275C58.2475 3.09625 58.385 3.17874 58.5225 3.21999C61.0799 4.04494 62.6473 6.07983 62.4411 8.76093C62.2623 11.1533 61.7536 13.5319 61.3824 15.9105C61.3549 16.1168 61.2861 16.3093 61.2036 16.6117C62.2486 16.4193 63.2248 16.1718 64.2147 16.0618C72.7255 15.0993 79.5864 18.0279 84.8111 24.8063C85.4573 25.645 85.3885 26.4837 84.7011 26.9787C83.9999 27.4874 83.2574 27.2949 82.5837 26.415C78.3764 20.929 72.8355 18.3029 65.9196 18.6466C57.4913 19.0591 49.9293 25.8237 48.5681 34.1695C46.8219 44.8664 53.6003 54.4221 64.2697 56.3058C74.1967 58.0519 84.2886 50.8748 85.911 40.9204C86.4335 37.7443 86.241 34.637 85.2373 31.5847C84.8798 30.4847 85.1823 29.7423 86.0485 29.481C86.8735 29.2335 87.4922 29.646 87.8634 30.7047C92.1394 43.0378 83.8761 56.8695 71.0206 58.9594C67.6933 59.4956 64.4347 59.3306 61.1349 58.4232C59.375 63.4691 56.4189 67.6352 52.3079 70.8387C53.834 72.4336 55.4427 73.9048 56.7901 75.5822C60.5574 80.257 62.3723 85.6604 62.4686 91.6413C62.5098 94.1162 61.0386 96.1373 58.6875 96.9485C58.495 97.0173 58.3025 97.1135 58.1238 97.196C57.4501 97.196 56.7764 97.196 56.1027 97.196C54.3153 96.6323 52.8166 95.6699 52.1154 93.8412C51.8954 93.25 51.5792 93.1537 51.0292 93.1537C45.447 93.1675 39.8786 93.1675 34.2964 93.1675C30.0066 93.1675 25.7169 93.1675 21.4271 93.1812C21.1109 93.1812 20.5884 93.305 20.5196 93.5112C19.7909 95.5049 18.2923 96.5773 16.3674 97.196C15.6937 97.196 15.0199 97.196 14.3462 97.196C14.1537 97.1135 13.975 97.0173 13.7825 96.9485C11.4314 96.1511 9.94648 94.1299 10.0015 91.6413C10.1252 84.698 12.5313 78.662 17.3436 73.6298C18.251 72.6811 19.2547 71.8287 20.2034 70.935C6.57792 60.623 6.67416 39.463 20.2584 29.1923C19.9972 28.9723 19.7359 28.7661 19.4884 28.5598C13.315 23.2801 10.1527 16.5705 10.0015 8.4447C9.96023 6.01108 11.4726 4.01744 13.7825 3.23374C13.975 3.16499 14.1675 3.06875 14.36 3C15.0337 3 15.7074 3 16.3811 3C18.141 3.56372 19.6259 4.48492 20.3134 6.27232C20.5609 6.93228 20.9184 7.02853 21.5371 7.02853C27.5455 7.01478 33.5539 7.01478 39.5623 7.01478C43.3984 7.01478 47.2207 7.02853 51.0567 7.00103C51.3729 7.00103 51.8816 6.86354 51.9641 6.67105C52.7066 4.67741 54.1915 3.60497 56.1302 3C56.7764 3.0275 57.4501 3.0275 58.1238 3.0275ZM47.9081 60.2381C40.0573 60.2381 32.3852 60.2381 24.5894 60.2381C24.9194 60.5956 25.1394 60.843 25.3731 61.0905C25.5381 61.2693 25.7306 61.4205 25.9093 61.5992C26.6106 62.3005 26.7205 63.1117 26.1981 63.7029C25.6481 64.3216 24.7957 64.2803 24.0119 63.5929C14.69 55.3296 16.5599 40.0129 27.6417 34.0733C27.9167 33.922 28.1917 33.757 28.4255 33.6195C26.7068 32.8221 25.0294 32.0796 23.407 31.2547C22.8708 30.9797 22.5545 31.0347 22.1146 31.3922C15.4599 36.6719 12.3251 43.5465 12.8751 52.0298C13.535 62.2317 21.4821 71.2375 31.5465 73.0936C33.7877 73.5061 36.125 73.4373 38.3936 73.7398C47.6881 74.991 54.164 82.2368 54.4665 91.6413C54.5215 93.305 55.6077 94.4599 57.1064 94.4599C58.6463 94.4462 59.76 93.2362 59.7187 91.5313C59.5675 85.5229 57.5188 80.2707 53.4216 75.871C48.8156 70.9487 43.0821 68.4601 36.345 68.3639C33.9526 68.3226 31.6565 67.9239 29.4429 67.0302C28.6317 66.7002 28.3155 65.9715 28.5767 65.2428C28.8379 64.5278 29.5666 64.2116 30.3916 64.4591C30.5428 64.5003 30.6803 64.5691 30.8178 64.6103C33.7052 65.669 36.6612 65.9028 39.6723 65.2015C42.8759 64.4453 45.5983 62.8229 47.9081 60.2381ZM47.0007 29.3435C45.5295 28.3673 42.2434 27.1987 39.9611 26.9512C38.0087 26.7449 36.0425 26.7587 34.1039 26.4974C24.8094 25.2463 18.306 18.0004 18.0173 8.63719C17.9623 6.91854 16.8486 5.74985 15.3087 5.7911C13.7688 5.83235 12.6276 7.05603 12.7651 8.77468C12.9163 10.6583 13.0676 12.5832 13.5488 14.3981C16.2849 24.7375 25.3456 31.7359 36.0563 31.9009C39.2736 31.9421 42.2984 32.6709 45.1033 34.2383C45.282 34.3345 45.4745 34.3895 45.612 34.4308C46.0932 32.7121 46.5332 31.0622 47.0007 29.3435ZM20.8634 9.86087C21.0146 11.772 21.5233 13.5319 22.362 15.1681C22.4858 15.4156 22.912 15.663 23.187 15.663C31.8903 15.6905 40.5798 15.6905 49.283 15.663C49.5443 15.663 49.943 15.4568 50.0668 15.2368C50.933 13.5732 51.4554 11.7995 51.5929 9.86087C41.336 9.86087 31.1203 9.86087 20.8634 9.86087ZM51.5929 90.3626C51.4554 88.424 50.933 86.6504 50.0668 84.9867C49.9568 84.7667 49.558 84.5605 49.283 84.5605C40.5798 84.533 31.8903 84.533 23.187 84.5605C22.8983 84.5605 22.4858 84.808 22.362 85.0554C21.5233 86.7054 21.0009 88.4515 20.8771 90.3626C31.1203 90.3626 41.3222 90.3626 51.5929 90.3626ZM20.8634 51.5073C21.0146 53.5284 21.5371 55.3021 22.417 56.9658C22.527 57.1857 22.9395 57.3645 23.2145 57.3645C31.8765 57.392 40.5523 57.392 49.2143 57.3507C49.5305 57.3507 50.0255 57.0345 50.1492 56.7458C50.603 55.7146 50.9879 54.6421 51.2904 53.5559C51.6617 52.181 51.0842 51.4936 49.6543 51.4936C40.401 51.4936 31.1616 51.4936 21.9083 51.4936C21.5921 51.5073 21.3033 51.5073 20.8634 51.5073ZM20.8771 48.6887C30.1441 48.6887 39.2873 48.6887 48.3893 48.6887C47.5781 46.7363 46.7944 44.8252 45.9832 42.8728C46.0382 42.8865 46.0107 42.8728 45.9695 42.8728C38.3387 42.859 30.7078 42.8453 23.077 42.859C22.8433 42.859 22.4858 43.0653 22.3758 43.2715C21.5371 44.9352 21.0146 46.7088 20.8771 48.6887ZM28.398 75.321C26.6381 74.4823 24.8782 73.6436 23.1045 72.8461C22.8845 72.7499 22.4583 72.8461 22.2383 73.0111C20.2034 74.4823 18.4848 76.2559 17.0411 78.3046C14.2362 82.2781 12.8476 86.7054 12.7513 91.5588C12.7101 93.4562 14.2775 94.8036 15.9549 94.3912C17.2473 94.0749 17.9485 93.0575 18.0173 91.5038C18.3473 84.3542 21.6608 79.0745 27.9305 75.6235C28.123 75.5135 28.288 75.3897 28.398 75.321ZM48.2793 26.7449C48.3343 26.7174 48.3756 26.7037 48.3893 26.6762C48.5406 26.4424 48.6918 26.2225 48.8431 25.9887C50.5755 23.2526 52.7066 20.8465 55.5527 19.3203C57.5051 18.2754 58.3713 16.7767 58.825 14.8106C58.9213 14.3981 59.0725 13.9856 59.1275 13.5594C59.3337 11.8958 59.6087 10.2321 59.6912 8.55469C59.7737 6.95978 58.5913 5.80484 57.1201 5.77735C55.6489 5.74985 54.5215 6.89103 54.4528 8.4722C54.439 8.62344 54.4528 8.77468 54.439 8.92592C54.1503 14.9343 51.5792 19.7191 46.7119 23.2664C45.8595 23.8851 44.9108 24.3938 43.9896 24.9713C45.4333 25.5625 46.8357 26.14 48.2793 26.7449ZM24.6719 81.7144C32.4265 81.7144 40.0848 81.7144 47.7981 81.7144C42.0234 74.5923 30.4191 74.6198 24.6719 81.7144ZM24.6307 18.4954C30.8178 25.8925 42.3947 25.315 47.7844 18.4954C40.0711 18.4954 32.4127 18.4954 24.6307 18.4954ZM45.5295 40.0129C45.777 38.528 45.4333 37.4831 43.9758 36.7131C39.7548 34.472 35.4376 34.0045 30.9416 35.5994C28.4805 36.4656 26.3906 37.9093 24.5757 40.0129C31.6703 40.0129 38.5999 40.0129 45.5295 40.0129ZM53.8615 54.8071C52.3354 60.1556 49.0081 64.1016 44.0721 66.5902C45.8595 67.4427 47.5644 68.2676 49.2968 69.0376C49.5443 69.1476 50.0255 69.0788 50.2455 68.9138C51.2629 68.0889 52.2941 67.2502 53.2153 66.3152C55.6489 63.7991 57.4226 60.8705 58.5088 57.5707C56.9276 56.6358 55.429 55.7421 53.8615 54.8071Z" fill="white"/>
<path d="M61.0967 43.6696C59.2543 43.6696 57.5081 43.6696 55.7757 43.6696C53.2046 43.6696 51.6647 42.1297 51.6509 39.5586C51.6372 38.1836 51.6372 36.795 51.6509 35.42C51.6784 33.0139 53.2046 31.474 55.6382 31.4328C57.4119 31.4053 59.1855 31.4328 61.1104 31.4328C61.1104 31.0478 61.1104 30.7315 61.1104 30.4016C61.1104 28.9029 61.0829 27.3905 61.1104 25.8918C61.1517 23.5544 62.7466 21.987 65.0702 21.9595C66.5139 21.9458 67.9575 21.9458 69.3874 21.9595C71.7661 21.987 73.3472 23.5682 73.3747 25.9606C73.3885 27.7342 73.3747 29.5079 73.3747 31.4328C74.1309 31.4328 74.8184 31.4328 75.5059 31.4328C76.757 31.4328 78.022 31.3778 79.2732 31.4603C81.308 31.5977 82.7517 33.0827 82.8067 35.1175C82.8617 36.74 82.8617 38.3624 82.8067 39.9848C82.738 42.1022 81.1293 43.6421 78.9982 43.6696C77.1695 43.6971 75.3271 43.6696 73.3747 43.6696C73.3747 45.4295 73.4022 47.1344 73.361 48.8393C73.3472 49.4443 73.306 50.0905 73.0997 50.6404C72.4948 52.2766 71.2298 53.1015 69.4974 53.1565C67.9988 53.1978 66.4864 53.2115 64.9877 53.1565C62.6366 53.074 61.1242 51.4929 61.0967 49.1418C61.0829 47.3681 61.0967 45.5945 61.0967 43.6696ZM58.9105 40.9197C59.983 40.9197 61.0554 40.9197 62.1279 40.9197C63.379 40.9335 63.8465 41.3872 63.8603 42.6384C63.874 44.7283 63.8603 46.8044 63.8603 48.8943C63.8603 50.0767 64.204 50.4204 65.4002 50.4204C66.6239 50.4342 67.8475 50.4342 69.0712 50.4204C70.2674 50.4067 70.5974 50.0767 70.5974 48.8805C70.6111 46.8319 70.5974 44.7695 70.5974 42.7209C70.5974 41.3597 71.0511 40.9335 72.426 40.9197C74.4747 40.9197 76.5371 40.9197 78.5857 40.9197C79.7406 40.9197 80.0431 40.6035 80.0431 39.4348C80.0569 38.1836 80.0569 36.9187 80.0431 35.6675C80.0294 34.4851 79.7544 34.1964 78.5719 34.1964C76.5233 34.1826 74.4609 34.1963 72.4123 34.1826C71.0236 34.1689 70.5974 33.7426 70.5974 32.3814C70.5974 30.3878 70.5974 28.3942 70.5974 26.4005C70.5974 24.9981 70.3224 24.7094 68.9612 24.7094C67.765 24.7094 66.5689 24.7094 65.3727 24.7094C64.1765 24.7094 63.8465 25.0256 63.8465 26.2218C63.8328 28.1879 63.8465 30.1403 63.8465 32.1065C63.8465 33.8389 63.5028 34.1689 61.7291 34.1826C59.763 34.1826 57.8106 34.1689 55.8445 34.1826C54.6758 34.1963 54.387 34.4851 54.387 35.6675C54.3733 36.9874 54.3733 38.3074 54.387 39.6273C54.4008 40.5622 54.7445 40.8922 55.6657 40.906C56.7657 40.9197 57.8381 40.906 58.9105 40.9197Z" fill="white"/>
</svg>
