<svg width="100" height="100" viewBox="0 0 100 100" fill="none" xmlns="http://www.w3.org/2000/svg">
<path d="M27.3362 25.2738L27.3787 25.468C27.3963 25.5375 27.4357 25.5992 27.4906 25.6432C27.5456 25.6872 27.613 25.7109 27.6821 25.7107L95.4922 25.7168C95.8833 25.7168 96.2584 25.8722 96.5349 26.1487C96.8115 26.4253 96.9669 26.8003 96.9669 27.1914C96.975 49.1192 96.9709 70.9296 96.9547 92.6226C96.9547 94.9772 94.946 97.0405 92.64 97.0345C64.0652 96.9859 35.4155 96.9859 6.69098 97.0345C3.7356 97.0405 2 95.0015 2 92.1432C2.01214 68.5123 2.01214 44.94 2 21.4263C2 19.1203 3.34724 17.3725 5.65936 16.9781C35.3589 11.9331 64.7448 6.94675 93.8173 2.01908C94.1709 1.95921 94.534 2.0415 94.8281 2.24817C95.1222 2.45483 95.3237 2.76927 95.389 3.12354L96.9547 11.7045C97.1489 12.7564 96.7181 13.3713 95.6621 13.5493L27.4333 25.1281C27.3484 25.1443 27.316 25.1929 27.3362 25.2738ZM92.6643 5.63593C92.6539 5.58157 92.6228 5.53338 92.5774 5.50165C92.5321 5.46991 92.4761 5.45713 92.4215 5.46601L86.3469 6.46732C86.3063 6.47402 86.2685 6.49237 86.2381 6.52016C86.2077 6.54794 86.1861 6.58395 86.1758 6.62381C86.1655 6.66368 86.167 6.70568 86.1802 6.74469C86.1933 6.78371 86.2175 6.81805 86.2498 6.84357L91.4081 10.9823C91.4305 11.0013 91.4567 11.0155 91.4849 11.0238C91.5131 11.0322 91.5428 11.0346 91.5719 11.0309L93.3621 10.7699C93.3908 10.7663 93.4183 10.7568 93.4432 10.7422C93.468 10.7275 93.4896 10.7079 93.5067 10.6847C93.5237 10.6614 93.5358 10.6349 93.5423 10.6067C93.5487 10.5786 93.5494 10.5495 93.5442 10.5211L92.6643 5.63593ZM84.1137 12.2021C84.1359 12.2193 84.1612 12.2318 84.1883 12.2391C84.2154 12.2464 84.2436 12.2483 84.2714 12.2446L86.8931 11.9351C86.9347 11.9303 86.9739 11.9134 87.0059 11.8864C87.0379 11.8593 87.0612 11.8235 87.0728 11.7833C87.0845 11.7431 87.084 11.7003 87.0715 11.6604C87.0589 11.6205 87.0349 11.5852 87.0023 11.5589L81.8926 7.3412C81.8701 7.3222 81.844 7.30807 81.8158 7.29971C81.7876 7.29135 81.7579 7.28896 81.7287 7.29265L79.0707 7.67496C79.0296 7.68071 78.9911 7.69839 78.9599 7.7258C78.9287 7.7532 78.9063 7.78913 78.8953 7.82915C78.8843 7.86918 78.8853 7.91153 78.8982 7.951C78.911 7.99046 78.9351 8.02531 78.9675 8.05122L84.1137 12.2021ZM75.4053 13.7253C75.426 13.7429 75.4503 13.7559 75.4765 13.7632C75.5027 13.7705 75.5302 13.7721 75.557 13.7678L79.6897 13.1063C79.7262 13.1013 79.7604 13.0856 79.7881 13.0613C79.8157 13.0369 79.8357 13.005 79.8454 12.9695C79.8551 12.9339 79.8541 12.8963 79.8426 12.8613C79.8311 12.8263 79.8096 12.7955 79.7807 12.7726L74.5132 8.54278C74.4925 8.52515 74.4682 8.51222 74.442 8.50489C74.4158 8.49755 74.3883 8.49598 74.3615 8.50029L70.332 9.20425C70.296 9.21025 70.2625 9.2266 70.2356 9.25131C70.2087 9.27602 70.1896 9.30802 70.1806 9.3434C70.1716 9.37879 70.1731 9.41604 70.1849 9.4506C70.1967 9.48515 70.2183 9.51552 70.247 9.53801L75.4053 13.7253ZM65.7988 10.0478C65.776 10.0295 65.7496 10.0163 65.7214 10.0089C65.6931 10.0016 65.6637 10.0004 65.6349 10.0053L63.0497 10.418C63.0104 10.4243 62.9737 10.4419 62.9441 10.4686C62.9145 10.4953 62.8933 10.53 62.883 10.5685C62.8728 10.607 62.8739 10.6477 62.8862 10.6856C62.8986 10.7235 62.9216 10.757 62.9526 10.7821L68.1412 14.9512C68.164 14.9694 68.1903 14.9827 68.2186 14.99C68.2468 14.9973 68.2763 14.9985 68.3051 14.9936L70.8842 14.5628C70.9236 14.5565 70.9602 14.5389 70.9898 14.5122C71.0194 14.4854 71.0406 14.4507 71.0509 14.4122C71.0612 14.3737 71.06 14.333 71.0477 14.2951C71.0354 14.2572 71.0123 14.2237 70.9813 14.1987L65.7988 10.0478ZM58.5286 11.2858C58.5082 11.27 58.4846 11.2586 58.4596 11.2524C58.4345 11.2461 58.4085 11.2451 58.383 11.2493L54.2017 11.8623C54.1653 11.8673 54.131 11.883 54.1034 11.9073C54.0757 11.9316 54.0558 11.9636 54.0461 11.9991C54.0364 12.0347 54.0374 12.0723 54.0488 12.1073C54.0603 12.1423 54.0818 12.1732 54.1107 12.196L59.3843 16.4198C59.405 16.4374 59.4293 16.4503 59.4555 16.4576C59.4817 16.465 59.5091 16.4665 59.536 16.4622L63.6626 15.8129C63.6986 15.8069 63.7321 15.7905 63.759 15.7658C63.7859 15.7411 63.805 15.7091 63.814 15.6737C63.823 15.6384 63.8215 15.6011 63.8097 15.5665C63.7979 15.532 63.7763 15.5016 63.7476 15.4791L58.5286 11.2858ZM49.796 12.7483C49.7751 12.731 49.7508 12.7183 49.7246 12.711C49.6985 12.7036 49.6711 12.7019 49.6443 12.7058L46.9862 13.1063C46.9485 13.1118 46.9131 13.1282 46.8847 13.1536C46.8562 13.179 46.8358 13.2122 46.8261 13.2491C46.8164 13.286 46.8178 13.325 46.8301 13.3611C46.8424 13.3972 46.865 13.4289 46.8952 13.4522L52.0838 17.6395C52.1047 17.6568 52.129 17.6695 52.1552 17.6769C52.1813 17.6842 52.2087 17.6859 52.2355 17.682L54.8511 17.324C54.8879 17.3184 54.9224 17.3024 54.9504 17.2778C54.9784 17.2532 54.9987 17.2211 55.009 17.1853C55.0192 17.1495 55.0189 17.1114 55.0081 17.0758C54.9973 17.0401 54.9765 17.0083 54.9482 16.9841L49.796 12.7483ZM43.3815 19.1385C43.404 19.1575 43.4301 19.1716 43.4583 19.18C43.4865 19.1883 43.5162 19.1907 43.5454 19.187L47.5809 18.5437C47.6202 18.5361 47.6565 18.5175 47.6856 18.4902C47.7148 18.4628 47.7357 18.4278 47.7458 18.3892C47.7559 18.3505 47.755 18.3098 47.743 18.2716C47.731 18.2335 47.7085 18.1995 47.678 18.1736L42.5016 14.0166C42.4791 13.9976 42.4529 13.9835 42.4247 13.9751C42.3965 13.9668 42.3669 13.9644 42.3377 13.9681L38.296 14.6053C38.2554 14.612 38.2176 14.6303 38.1873 14.6581C38.1569 14.6859 38.1352 14.7219 38.125 14.7618C38.1147 14.8016 38.1162 14.8436 38.1293 14.8826C38.1425 14.9216 38.1667 14.956 38.199 14.9815L43.3815 19.1385ZM36.0567 20.3947C36.0775 20.4123 36.1017 20.4252 36.1279 20.4325C36.1541 20.4399 36.1816 20.4414 36.2085 20.4371L38.8786 20.0184C38.9151 20.0133 38.9493 19.9977 38.977 19.9734C39.0047 19.949 39.0246 19.9171 39.0343 19.8816C39.044 19.846 39.043 19.8084 39.0315 19.7734C39.02 19.7384 38.9985 19.7075 38.9696 19.6846L33.7386 15.4609C33.7178 15.4433 33.6936 15.4304 33.6674 15.423C33.6412 15.4157 33.6137 15.4141 33.5868 15.4184L30.9713 15.8615C30.9362 15.8675 30.9035 15.8834 30.8771 15.9073C30.8507 15.9312 30.8316 15.9622 30.8221 15.9965C30.8125 16.0308 30.8129 16.0672 30.8232 16.1013C30.8335 16.1354 30.8533 16.1658 30.8803 16.1891L36.0567 20.3947ZM26.5048 16.7353C26.4821 16.7171 26.4557 16.7038 26.4275 16.6965C26.3992 16.6892 26.3697 16.6879 26.341 16.6928L18.0817 18.0037C18.0413 18.0098 18.0037 18.0278 17.9736 18.0553C17.9435 18.0829 17.9223 18.1187 17.9125 18.1583C17.9028 18.198 17.905 18.2396 17.9189 18.2779C17.9328 18.3163 17.9578 18.3497 17.9907 18.3738L23.5191 22.5005C23.5411 22.5179 23.5665 22.5307 23.5936 22.538C23.6207 22.5453 23.6491 22.547 23.6769 22.5429L31.5781 21.2564C31.6175 21.2501 31.6542 21.2325 31.6838 21.2058C31.7134 21.1791 31.7346 21.1444 31.7448 21.1058C31.7551 21.0673 31.754 21.0267 31.7416 20.9888C31.7293 20.9509 31.7062 20.9174 31.6753 20.8923L26.5048 16.7353ZM22.1476 25.4376L15.1081 20.1762C14.9151 20.0307 14.6786 19.9518 14.4345 19.9517H6.64854C5.59261 19.9517 5.06059 20.4776 5.0525 21.5295L5.03428 25.025C5.03023 25.4862 5.25882 25.7168 5.72003 25.7168L22.0566 25.7229C22.3681 25.7229 22.3985 25.6278 22.1476 25.4376ZM25.6735 29.0788C25.6735 29.0557 25.6689 29.0328 25.66 29.0114C25.6512 28.9901 25.6382 28.9707 25.6219 28.9543C25.6056 28.938 25.5862 28.925 25.5648 28.9162C25.5435 28.9073 25.5206 28.9028 25.4975 28.9028H5.21633C5.19322 28.9028 5.17034 28.9073 5.14899 28.9162C5.12764 28.925 5.10825 28.938 5.09191 28.9543C5.07557 28.9707 5.06261 28.9901 5.05376 29.0114C5.04492 29.0328 5.04035 29.0557 5.04035 29.0788V34.4919C5.04035 34.515 5.04492 34.5379 5.05376 34.5593C5.06261 34.5806 5.07557 34.6 5.09191 34.6164C5.10825 34.6327 5.12764 34.6457 5.14899 34.6545C5.17034 34.6634 5.19322 34.6679 5.21633 34.6679H25.4975C25.5206 34.6679 25.5435 34.6634 25.5648 34.6545C25.5862 34.6457 25.6056 34.6327 25.6219 34.6164C25.6382 34.6 25.6512 34.5806 25.66 34.5593C25.6689 34.5379 25.6735 34.515 25.6735 34.4919V29.0788ZM28.8412 31.2513C28.8414 31.2907 28.8536 31.329 28.8761 31.3613C28.8986 31.3936 28.9304 31.4183 28.9672 31.4321C29.0041 31.446 29.0443 31.4482 29.0825 31.4387C29.1206 31.4292 29.1551 31.4083 29.1811 31.3787L31.0381 29.2062C31.0609 29.1776 31.0753 29.1432 31.0794 29.1068C31.0836 29.0705 31.0773 29.0337 31.0615 29.0007C31.0456 28.9677 31.0208 28.9399 30.9898 28.9204C30.9588 28.9009 30.923 28.8906 30.8864 28.8907L29.0779 28.9271C29.0264 28.9271 28.977 28.9475 28.9406 28.9839C28.9042 29.0204 28.8837 29.0697 28.8837 29.1212L28.8412 31.2513ZM38.4356 29.2062C38.46 29.1767 38.4754 29.1408 38.48 29.1028C38.4846 29.0648 38.4782 29.0263 38.4616 28.9919C38.445 28.9574 38.4189 28.9284 38.3863 28.9083C38.3537 28.8882 38.3161 28.8779 38.2779 28.8785L35.4742 28.9331C35.4451 28.9335 35.4165 28.9402 35.3903 28.9528C35.3641 28.9654 35.341 28.9835 35.3225 29.006L30.8499 34.3645C30.8256 34.394 30.8102 34.4299 30.8056 34.4679C30.801 34.5058 30.8073 34.5444 30.8239 34.5788C30.8405 34.6133 30.8667 34.6423 30.8992 34.6624C30.9318 34.6825 30.9694 34.6928 31.0077 34.6922L33.7993 34.6436C33.8283 34.6432 33.8569 34.6365 33.8831 34.6239C33.9093 34.6114 33.9325 34.5932 33.951 34.5708L38.4356 29.2062ZM38.2779 34.3584C38.2546 34.3859 38.2397 34.4196 38.235 34.4553C38.2303 34.491 38.236 34.5273 38.2513 34.5599C38.2667 34.5925 38.2911 34.62 38.3216 34.6392C38.3521 34.6583 38.3875 34.6683 38.4235 34.6679L42.7018 34.674C42.7295 34.6743 42.7569 34.6684 42.7821 34.6569C42.8073 34.6453 42.8296 34.6284 42.8475 34.6072L47.32 29.2123C47.3432 29.1848 47.3581 29.1511 47.3628 29.1154C47.3675 29.0797 47.3618 29.0434 47.3465 29.0108C47.3311 28.9782 47.3068 28.9507 47.2762 28.9315C47.2457 28.9124 47.2104 28.9024 47.1743 28.9028L42.896 28.9149C42.8694 28.9155 42.8431 28.9218 42.8191 28.9333C42.795 28.9448 42.7737 28.9613 42.7565 28.9817L38.2779 34.3584ZM54.7419 29.1941C54.7636 29.1675 54.7774 29.1353 54.7816 29.1012C54.7859 29.0671 54.7803 29.0325 54.7657 29.0014C54.7512 28.9703 54.7281 28.944 54.6992 28.9255C54.6702 28.9069 54.6366 28.897 54.6023 28.8967L51.8168 28.9331C51.7901 28.9333 51.7637 28.9394 51.7396 28.9509C51.7155 28.9625 51.6941 28.9792 51.6772 28.9999L47.1379 34.3948C47.1158 34.4218 47.102 34.4546 47.0979 34.4892C47.0939 34.5239 47.0999 34.559 47.1153 34.5903C47.1306 34.6216 47.1547 34.6479 47.1845 34.6659C47.2143 34.684 47.2487 34.6931 47.2836 34.6922L50.1055 34.6436C50.1322 34.6434 50.1586 34.6374 50.1827 34.6258C50.2068 34.6143 50.2281 34.5976 50.245 34.5769L54.7419 29.1941ZM63.6444 29.188C63.6665 29.161 63.6804 29.1283 63.6844 29.0936C63.6884 29.059 63.6824 29.0239 63.6671 28.9926C63.6517 28.9612 63.6277 28.935 63.5979 28.9169C63.568 28.8988 63.5337 28.8897 63.4988 28.8907L59.184 28.9331C59.1573 28.9333 59.1309 28.9394 59.1068 28.9509C59.0827 28.9625 59.0614 28.9792 59.0444 28.9999L54.5841 34.3463C54.5626 34.3725 54.5488 34.4041 54.5444 34.4377C54.5399 34.4713 54.5449 34.5054 54.5587 34.5363C54.5726 34.5672 54.5948 34.5936 54.6229 34.6126C54.6509 34.6315 54.6837 34.6423 54.7176 34.6436L58.9838 34.68C59.0105 34.6798 59.0369 34.6738 59.061 34.6622C59.0851 34.6507 59.1064 34.634 59.1233 34.6133L63.6444 29.188ZM63.432 34.3706C63.4073 34.4005 63.3917 34.4369 63.3873 34.4755C63.3829 34.514 63.3898 34.5531 63.4072 34.5878C63.4245 34.6225 63.4516 34.6514 63.4851 34.671C63.5186 34.6907 63.5571 34.7001 63.5959 34.6982L66.4299 34.6133C66.4585 34.6136 66.4868 34.6079 66.513 34.5964C66.5392 34.5848 66.5625 34.5678 66.5816 34.5465L71.0541 29.1941C71.0789 29.1642 71.0944 29.1277 71.0988 29.0891C71.1032 29.0506 71.0963 29.0116 71.079 28.9768C71.0616 28.9421 71.0345 28.9132 71.001 28.8936C70.9675 28.874 70.9291 28.8645 70.8903 28.8664L68.0805 28.9574C68.053 28.9579 68.0258 28.9641 68.0008 28.9756C67.9757 28.9871 67.9533 29.0036 67.9349 29.0242L63.432 34.3706ZM70.8478 34.3402C70.8223 34.3703 70.8059 34.407 70.8006 34.446C70.7954 34.4851 70.8014 34.5249 70.818 34.5606C70.8346 34.5964 70.8611 34.6266 70.8943 34.6478C70.9276 34.6689 70.9662 34.6801 71.0056 34.68L75.2961 34.6497C75.3261 34.6498 75.3557 34.6433 75.383 34.6307C75.4102 34.6181 75.4344 34.5998 75.4539 34.5769L79.896 29.2244C79.9215 29.1944 79.9379 29.1576 79.9432 29.1186C79.9484 29.0795 79.9425 29.0398 79.9259 29.004C79.9093 28.9683 79.8828 28.938 79.8495 28.9169C79.8163 28.8957 79.7777 28.8845 79.7383 28.8846L75.5145 28.9149C75.4845 28.9148 75.4548 28.9213 75.4276 28.9339C75.4003 28.9465 75.3762 28.9649 75.3567 28.9878L70.8478 34.3402ZM87.3179 29.2183C87.3433 29.1868 87.3593 29.1487 87.3638 29.1085C87.3683 29.0682 87.3612 29.0275 87.3434 28.9911C87.3255 28.9548 87.2976 28.9243 87.263 28.9032C87.2284 28.8822 87.1884 28.8715 87.1479 28.8724L84.3868 28.9271C84.3568 28.9274 84.3273 28.934 84.3001 28.9466C84.2729 28.9592 84.2486 28.9773 84.229 28.9999L79.7989 34.3402C79.7738 34.3713 79.7579 34.4089 79.7532 34.4486C79.7485 34.4883 79.755 34.5285 79.7721 34.5646C79.7893 34.6008 79.8162 34.6313 79.85 34.6528C79.8837 34.6743 79.9228 34.6859 79.9628 34.6861L82.6815 34.6436C82.7114 34.6433 82.741 34.6366 82.7682 34.6241C82.7954 34.6115 82.8196 34.5934 82.8393 34.5708L87.3179 29.2183ZM87.1904 34.3402C87.1664 34.3693 87.1511 34.4046 87.1463 34.4421C87.1414 34.4795 87.1473 34.5176 87.1632 34.5518C87.179 34.5861 87.2042 34.6151 87.2359 34.6357C87.2676 34.6562 87.3044 34.6674 87.3421 34.6679L93.6231 34.68C93.6762 34.68 93.7272 34.6589 93.7647 34.6214C93.8023 34.5838 93.8234 34.5329 93.8234 34.4798L93.7748 29.0909C93.7732 29.0389 93.7514 28.9895 93.714 28.9532C93.6767 28.917 93.6266 28.8967 93.5746 28.8967L91.7661 28.9392C91.737 28.9396 91.7084 28.9463 91.6822 28.9589C91.656 28.9715 91.6329 28.9896 91.6144 29.012L87.1904 34.3402ZM5.0525 91.858C5.10105 93.2093 5.55214 93.8849 6.40578 93.8849C36.0487 93.8525 64.8379 93.8343 92.7735 93.8303C93.0439 93.8303 93.3032 93.7222 93.4944 93.5299C93.6856 93.3376 93.793 93.0767 93.793 92.8047V38.0056C93.793 37.8033 93.6919 37.7022 93.4896 37.7022H5.36804C5.14148 37.7022 5.0282 37.8155 5.0282 38.042C5.03225 56.4945 5.04037 74.4331 5.0525 91.858Z" fill="white"/>
<path d="M9.4706 24.4529C10.3454 24.4529 11.0545 23.7438 11.0545 22.869C11.0545 21.9943 10.3454 21.2852 9.4706 21.2852C8.59584 21.2852 7.88672 21.9943 7.88672 22.869C7.88672 23.7438 8.59584 24.4529 9.4706 24.4529Z" fill="white"/>
<path d="M9.4706 33.3475C10.3454 33.3475 11.0545 32.6383 11.0545 31.7636C11.0545 30.8888 10.3454 30.1797 9.4706 30.1797C8.59584 30.1797 7.88672 30.8888 7.88672 31.7636C7.88672 32.6383 8.59584 33.3475 9.4706 33.3475Z" fill="white"/>
<path d="M21.3339 33.3397C22.2086 33.3397 22.9178 32.6305 22.9178 31.7558C22.9178 30.881 22.2086 30.1719 21.3339 30.1719C20.4591 30.1719 19.75 30.881 19.75 31.7558C19.75 32.6305 20.4591 33.3397 21.3339 33.3397Z" fill="white"/>
<path d="M18.626 42.1094H12.2297C11.5225 42.1094 10.9492 42.6827 10.9492 43.3898V43.851C10.9492 44.5582 11.5225 45.1315 12.2297 45.1315H18.626C19.3331 45.1315 19.9064 44.5582 19.9064 43.851V43.3898C19.9064 42.6827 19.3331 42.1094 18.626 42.1094Z" fill="white"/>
<path d="M32.6521 49.536H12.2861C11.4526 49.536 11.0096 49.1193 10.957 48.2859L10.9388 48.0007C10.8781 47.0054 11.3455 46.5078 12.3407 46.5078L86.7291 46.5139C87.5746 46.5139 88.0055 46.9366 88.0217 47.7822L88.0277 48.0067C88.048 49.0263 87.5463 49.536 86.5227 49.536L66.1809 49.5421C66.1005 49.5421 66.0233 49.5734 65.9664 49.6292C65.9095 49.6849 65.8775 49.7606 65.8775 49.8394V64.1006C65.8775 64.1408 65.8935 64.1794 65.9219 64.2078C65.9504 64.2363 65.989 64.2523 66.0292 64.2523H86.6381C87.5322 64.2523 87.9933 64.6993 88.0217 65.5934L88.0338 65.818C88.0403 66.0284 88.0045 66.238 87.9284 66.4344C87.8523 66.6307 87.7376 66.8097 87.591 66.9609C87.4444 67.112 87.2689 67.2321 87.075 67.3141C86.881 67.3962 86.6726 67.4384 86.462 67.4383H12.4681C11.3434 67.4383 10.8397 66.88 10.957 65.7633L10.9935 65.4599C11.0784 64.6548 11.5235 64.2523 12.3285 64.2523H32.8039C33.0061 64.2523 33.1073 64.1511 33.1073 63.9488V49.9912C33.1073 49.6877 32.9556 49.536 32.6521 49.536ZM62.6915 49.8152C62.6915 49.7427 62.6628 49.6733 62.6115 49.6221C62.5603 49.5709 62.4908 49.5421 62.4184 49.5421H36.5664C36.4939 49.5421 36.4245 49.5709 36.3732 49.6221C36.322 49.6733 36.2933 49.7427 36.2933 49.8152V63.9792C36.2933 64.0516 36.322 64.1211 36.3732 64.1723C36.4245 64.2235 36.4939 64.2523 36.5664 64.2523H62.4184C62.4908 64.2523 62.5603 64.2235 62.6115 64.1723C62.6628 64.1211 62.6915 64.0516 62.6915 63.9792V49.8152Z" fill="white"/>
<path d="M24.3391 50.9023H21.2684C20.4406 50.9023 19.7695 51.5734 19.7695 52.4013V52.5833C19.7695 53.4112 20.4406 54.0823 21.2684 54.0823H24.3391C25.167 54.0823 25.8381 53.4112 25.8381 52.5833V52.4013C25.8381 51.5734 25.167 50.9023 24.3391 50.9023Z" fill="white"/>
<path d="M51.0301 50.9106L47.9594 50.8945C47.1383 50.8902 46.4692 51.5524 46.4649 52.3735L46.4637 52.592C46.4594 53.4131 47.1216 54.0822 47.9427 54.0865L51.0134 54.1026C51.8345 54.1069 52.5036 53.4447 52.5079 52.6236L52.5091 52.4051C52.5134 51.584 51.8512 50.9149 51.0301 50.9106Z" fill="white"/>
<path d="M77.7356 50.919L74.6529 50.8867C73.8285 50.8781 73.1532 51.5394 73.1445 52.3639L73.1425 52.5581C73.1339 53.3825 73.7952 54.0578 74.6196 54.0665L77.7023 54.0988C78.5267 54.1074 79.2021 53.4461 79.2107 52.6216L79.2127 52.4274C79.2214 51.603 78.56 50.9276 77.7356 50.919Z" fill="white"/>
<path d="M24.4175 70.168H12.3532C11.5757 70.168 10.9453 70.7983 10.9453 71.5759V71.9521C10.9453 72.7297 11.5757 73.36 12.3532 73.36H24.4175C25.1951 73.36 25.8254 72.7297 25.8254 71.9521V71.5759C25.8254 70.7983 25.1951 70.168 24.4175 70.168Z" fill="white"/>
<path d="M21.4322 76.0781H12.4022C11.5911 76.0781 10.9336 76.7356 10.9336 77.5467V77.8016C10.9336 78.6127 11.5911 79.2702 12.4022 79.2702H21.4322C22.2433 79.2702 22.9008 78.6127 22.9008 77.8016V77.5467C22.9008 76.7356 22.2433 76.0781 21.4322 76.0781Z" fill="white"/>
<path d="M86.6376 82.0117H12.3584C11.5909 82.0117 10.9688 82.6339 10.9688 83.4014V83.8019C10.9688 84.5694 11.5909 85.1916 12.3584 85.1916H86.6376C87.4051 85.1916 88.0273 84.5694 88.0273 83.8019V83.4014C88.0273 82.6339 87.4051 82.0117 86.6376 82.0117Z" fill="white"/>
<path d="M18.6259 86.5525L12.2297 86.5413C11.5225 86.5401 10.9482 87.1123 10.947 87.8195L10.9461 88.305C10.9449 89.0122 11.5172 89.5865 12.2244 89.5877L18.6206 89.5989C19.3278 89.6001 19.9021 89.0278 19.9033 88.3206L19.9042 87.8352C19.9054 87.128 19.3331 86.5537 18.6259 86.5525Z" fill="white"/>
<path d="M67.4461 86.5708L64.0478 86.5648C63.3138 86.5635 62.7177 87.1575 62.7164 87.8915L62.7158 88.2556C62.7145 88.9896 63.3085 89.5857 64.0425 89.587L67.4409 89.5929C68.1749 89.5942 68.7709 89.0002 68.7722 88.2662L68.7728 87.9021C68.7741 87.1681 68.1801 86.572 67.4461 86.5708Z" fill="white"/>
<path d="M86.7478 86.5625H83.2887C82.5748 86.5625 81.9961 87.1412 81.9961 87.8551V88.292C81.9961 89.0059 82.5748 89.5846 83.2887 89.5846H86.7478C87.4617 89.5846 88.0404 89.0059 88.0404 88.292V87.8551C88.0404 87.1412 87.4617 86.5625 86.7478 86.5625Z" fill="white"/>
</svg>
