<svg width="100" height="100" viewBox="0 0 100 100" fill="none" xmlns="http://www.w3.org/2000/svg">
<path d="M96 22.5972L75.2273 13.7126L74.1606 16.211L87.9997 22.134H50.8615V24.8569H93.2771V33.0257H5.72291V24.8569H48.1385V22.134H11.0143L47.0578 6.72291H51.9422L71.6342 15.1443L72.7009 12.6459L52.4896 4H46.4823L3 22.5972V43.9313H5.72291V35.7626H8.44582V94.2771H5.72291V46.6542H3V96.986H96V22.5972ZM90.5542 94.2771V86.1084H87.8313V94.2771H11.1828V35.7626H87.8313V83.3714H90.5542V35.7626H93.2771V94.2771H90.5542Z" fill="white"/>
<path d="M13.9062 38.4844H48.1391V41.2073H13.9062V38.4844Z" fill="white"/>
<path d="M13.9062 43.9297H85.1089V46.6526H13.9062V43.9297Z" fill="white"/>
<path d="M50.8633 38.4844H85.0962V41.2073H50.8633V38.4844Z" fill="white"/>
<path d="M42.6953 88.8164H45.4182V91.5393H42.6953V88.8164Z" fill="white"/>
<path d="M64.4883 88.8164H67.2112V91.5393H64.4883V88.8164Z" fill="white"/>
<path d="M45.4141 10.8086H48.137V13.5315H45.4141V10.8086Z" fill="white"/>
<path d="M53.582 67.0195H56.3049V69.7424H53.582V67.0195Z" fill="white"/>
<path d="M50.8633 10.8086H53.5862V13.5315H50.8633V10.8086Z" fill="white"/>
<path d="M76.9297 27.582H85.0984V30.3049H76.9297V27.582Z" fill="white"/>
<path d="M87.832 27.582H90.5549V30.3049H87.832V27.582Z" fill="white"/>
<path d="M61.7663 69.744V50.6836H37.2461V69.758H39.969V53.4065H45.4148V61.5752H53.5835V53.4065H59.0294V69.758H61.7663V69.744ZM50.8606 58.8523H48.1377V53.4065H50.8606V58.8523Z" fill="white"/>
<path d="M26.3398 72.4766V91.551H29.0628V75.1995H34.5086V83.3682H42.6773V75.1995H48.1231V91.551H50.846V75.1995H56.2918V83.3682H64.4606V75.1995H69.9064V91.551H72.6293V72.4766H26.3398ZM39.9684 80.6453H37.2455V75.1995H39.9684V80.6453ZM61.7657 80.6453H59.0428V75.1995H61.7657V80.6453Z" fill="white"/>
</svg>
