<svg width="100" height="100" viewBox="0 0 100 100" fill="none" xmlns="http://www.w3.org/2000/svg">
<path d="M58.2578 43.1979C56.5903 44.1507 55.214 45.58 54.2612 47.2739C53.7848 47.3533 53.3084 47.4591 52.8585 47.6179V4H4V96H96V9.39931H58.2578V43.1979ZM20.3567 41.7422H25.756V47.1415H20.3567V41.7422ZM20.3567 36.3429V30.9436H25.756V36.3429H20.3567ZM20.3567 25.5708V20.1715H25.756V25.5708H20.3567ZM20.3567 14.7986V9.39931H25.756V14.7986H20.3567ZM20.3567 52.5408H25.756V57.9402H20.3567V52.5408ZM31.1289 52.5408H36.5282V57.9402H31.1289V52.5408ZM36.5282 47.1415H31.1289V41.7422H36.5282V47.1415ZM36.5282 36.3694H31.1289V30.9701H36.5282V36.3694ZM36.5282 25.5972H31.1289V20.1979H36.5282V25.5972ZM36.5282 14.8251H31.1289V9.42578H36.5282V14.8251ZM14.9574 9.42578V63.3395H41.901V9.39931H47.4591V75.9643C45.7917 74.985 43.8596 74.4557 41.901 74.4557C37.9574 74.4557 34.3844 76.626 32.5052 80.0138C31.6582 80.1461 30.8642 80.3843 30.1231 80.7549C28.4292 77.0495 24.6709 74.4557 20.3303 74.4557C16.3867 74.4557 12.8136 76.626 10.9344 80.0138C10.4051 80.0932 9.87572 80.2255 9.37284 80.4108V9.39931H14.931L14.9574 9.42578ZM90.6007 90.6536H9.39931V87.954C9.39931 86.5512 10.6697 85.1749 12.496 85.3337L14.6133 85.519L15.3015 83.5075C16.0426 81.3107 18.0806 79.855 20.3832 79.855C23.3475 79.855 25.7825 82.2635 25.7825 85.2543V87.954H31.1818C31.1818 86.4983 32.3199 85.1749 34.0932 85.3337L36.2106 85.519L36.8987 83.5075C37.6398 81.3107 39.6778 79.855 41.9804 79.855C44.9977 79.855 47.5386 82.3165 47.5386 85.2543V87.954H52.9379C52.9379 86.4718 54.076 85.1749 55.8493 85.3337L57.9666 85.519L58.6548 83.5075C59.3959 81.3107 61.4338 79.855 63.7365 79.855C66.7008 79.855 69.1358 82.2635 69.1358 85.2543V87.954H74.5351C74.5351 86.4983 75.6732 85.1749 77.4465 85.3337L79.5639 85.519L80.252 83.5075C80.9931 81.3107 83.0311 79.855 85.3337 79.855C88.298 79.855 90.733 82.2635 90.733 85.2543V90.6536H90.6007ZM90.6007 75.9379C89.0127 75.0115 87.1864 74.4822 85.2014 74.4822C81.2578 74.4822 77.6847 76.6525 75.8055 80.0403C74.9586 80.1726 74.1646 80.4108 73.4235 80.7814C71.7296 77.0759 67.9712 74.4822 63.6306 74.4822C59.687 74.4822 56.1139 76.6525 54.2348 80.0403C53.7583 80.1197 53.2819 80.2255 52.832 80.3843V68.7388C52.832 65.7745 55.2405 63.3395 58.2313 63.3395C60.5075 63.3395 62.5455 64.8216 63.313 66.9919L64.0012 69.0035L66.1185 68.8182C67.8918 68.6594 69.0299 70.1415 69.0299 71.5972H74.4292V68.7123C74.4292 65.748 76.8377 63.313 79.8285 63.313C82.1047 63.313 84.1427 64.7952 84.9102 66.9655L85.5984 68.977L87.7158 68.7917C89.4891 68.6329 90.6272 70.1151 90.6272 71.5708V75.8849L90.6007 75.9379ZM90.6007 63.8688C90.1507 63.71 89.7008 63.5777 89.2244 63.5247C87.3452 60.1369 83.7722 57.9666 79.8285 57.9666C75.4615 57.9666 71.7031 60.5604 70.0092 64.2923C69.2681 63.9218 68.4741 63.6571 67.6536 63.5247C65.7745 60.1369 62.2014 57.9666 58.2578 57.9666C56.2992 57.9666 54.4465 58.496 52.8585 59.4223V55.267C52.8585 53.8113 53.9966 52.4879 55.7699 52.6467L57.8872 52.832L58.5754 50.8205C59.3165 48.6237 61.3544 47.168 63.6571 47.168C66.6214 47.168 69.0564 49.5765 69.0564 52.5673V55.267H74.4557C74.4557 53.8113 75.5673 52.4879 77.3671 52.6467L79.4845 52.832L80.1726 50.8205C80.9137 48.6237 82.9517 47.168 85.2543 47.168C88.2186 47.168 90.6536 49.5765 90.6536 52.5673V63.8688H90.6007ZM74.4292 25.6237H79.8285V31.023H74.4292V25.6237ZM79.8285 20.2244H74.4292V14.8251H79.8285V20.2244ZM63.6571 14.8251H69.0564V36.3959H85.2279V14.8251H90.6272V43.2244C89.0391 42.298 87.2129 41.7687 85.2279 41.7687C81.2842 41.7687 77.7112 43.939 75.832 47.3268C74.985 47.4591 74.191 47.6974 73.4499 48.0679C71.756 44.3625 67.9977 41.7687 63.6571 41.7687V14.8251Z" stroke="white" stroke-width="2" stroke-miterlimit="10"/>
</svg>
