<svg width="100" height="100" viewBox="0 0 100 100" fill="none" xmlns="http://www.w3.org/2000/svg">
<path d="M57.4725 66.5857C56.4059 66.5857 55.4647 66.5857 54.4295 66.5857C54.4295 68.5621 54.4295 70.5228 54.4295 72.5462C53.3942 72.5462 52.4531 72.5462 51.4178 72.5462C51.4178 70.6012 51.4178 68.6405 51.4178 66.6014C50.3669 66.6014 49.4101 66.6014 48.3748 66.6014C48.3748 68.5621 48.3748 70.5071 48.3748 72.5148C47.3553 72.5148 46.3984 72.5148 45.3318 72.5148C45.3318 70.5541 45.3318 68.5934 45.3318 66.5857C44.2966 66.5857 43.3554 66.5857 42.3202 66.5857C42.3202 68.5464 42.3202 70.5228 42.3202 72.5305C41.2849 72.5305 40.3438 72.5305 39.3085 72.5305C39.3085 70.6012 39.3085 68.6248 39.3085 66.6014C38.2576 66.6014 37.3008 66.6014 36.2655 66.6014C36.2655 68.5621 36.2655 70.4914 36.2655 72.5148C35.246 72.5148 34.2891 72.5148 33.2225 72.5148C33.2225 70.5698 33.2225 68.5934 33.2225 66.5857C32.1873 66.5857 31.2461 66.5857 30.2109 66.5857C30.2109 68.5464 30.2109 70.5071 30.2109 72.5305C29.1443 72.5305 28.2031 72.5305 27.1679 72.5305C27.1679 70.5541 27.1679 68.6091 27.1679 66.57C25.1287 66.57 23.168 66.57 21.1446 66.57C21.1446 65.5347 21.1446 64.5936 21.1446 63.5583C23.0739 63.5583 25.0503 63.5583 27.0738 63.5583C27.0738 62.5074 27.0738 61.5506 27.0738 60.5153C25.1131 60.5153 23.1837 60.5153 21.1603 60.5153C21.1603 59.4958 21.1603 58.5389 21.1603 57.4723C23.1053 57.4723 25.0817 57.4723 27.0894 57.4723C27.0894 56.4371 27.0894 55.4959 27.0894 54.4607C25.1287 54.4607 23.168 54.4607 21.1446 54.4607C21.1446 53.3941 21.1446 52.4529 21.1446 51.4177C23.121 51.4177 25.066 51.4177 27.0738 51.4177C27.0738 50.3981 27.0738 49.4413 27.0738 48.406C25.1287 48.406 23.1837 48.406 21.1603 48.406C21.1603 47.3865 21.1603 46.4296 21.1603 45.363C23.1053 45.363 25.066 45.363 27.0738 45.363C27.0738 44.3278 27.0738 43.3866 27.0738 42.3514C25.1287 42.3514 23.168 42.3514 21.1446 42.3514C21.1446 41.3005 21.1446 40.3436 21.1446 39.3084C23.1053 39.3084 25.0503 39.3084 27.0581 39.3084C27.0581 38.2888 27.0581 37.332 27.0581 36.2654C25.0974 36.2654 23.1367 36.2654 21.1289 36.2654C21.1289 35.2301 21.1289 34.289 21.1289 33.2537C23.0896 33.2537 25.0503 33.2537 27.0738 33.2537C27.0738 32.2185 27.0738 31.2773 27.0738 30.2421C25.1444 30.2421 23.168 30.2421 21.1446 30.2421C21.1446 29.1912 21.1446 28.2343 21.1446 27.1991C23.0896 27.1991 25.0346 27.1991 27.0581 27.1991C27.0581 26.1795 27.0581 25.2227 27.0581 24.1561C25.1131 24.1561 23.1524 24.1561 21.1289 24.1561C21.1289 23.1208 21.1289 22.1797 21.1289 21.1444C23.0739 21.1444 25.0503 21.1444 27.1208 21.1444C27.1208 19.0739 27.1208 17.1132 27.1208 15.1055C28.1561 15.1055 29.0972 15.1055 30.1325 15.1055C30.1325 17.0662 30.1325 19.0269 30.1325 21.0503C31.1677 21.0503 32.0932 21.0503 33.1441 21.0503C33.1441 19.121 33.1441 17.1446 33.1441 15.1212C34.195 15.1212 35.1519 15.1212 36.1871 15.1212C36.1871 17.0662 36.1871 19.0112 36.1871 21.0346C37.2067 21.0346 38.1635 21.0346 39.2301 21.0346C39.2301 19.0896 39.2301 17.1289 39.2301 15.1055C40.2654 15.1055 41.2065 15.1055 42.2418 15.1055C42.2418 17.0505 42.2418 19.0269 42.2418 21.0503C43.3084 21.0503 44.2495 21.0503 45.2848 21.0503C45.2848 19.0739 45.2848 17.1446 45.2848 15.1212C46.3043 15.1212 47.2612 15.1212 48.3278 15.1212C48.3278 17.0819 48.3278 19.0582 48.3278 21.066C49.363 21.066 50.3042 21.066 51.3394 21.066C51.3394 19.0896 51.3394 17.1289 51.3394 15.1055C52.3747 15.1055 53.3158 15.1055 54.3511 15.1055C54.3511 17.0505 54.3511 19.0112 54.3511 21.0346C55.402 21.0346 56.3588 21.0346 57.3941 21.0346C57.3941 19.0739 57.3941 17.1289 57.3941 15.1212C58.4136 15.1212 59.3704 15.1212 60.4371 15.1212C60.4371 17.0819 60.4371 19.0426 60.4371 21.0503C61.4723 21.0503 62.4135 21.0503 63.4487 21.0503C63.4487 19.0896 63.4487 17.1289 63.4487 15.1055C64.5153 15.1055 65.4565 15.1055 66.4917 15.1055C66.4917 17.0819 66.4917 19.0269 66.4917 21.0346C67.5113 21.0346 68.4681 21.0346 69.5034 21.0346C69.5034 19.0896 69.5034 17.1446 69.5034 15.1212C70.5229 15.1212 71.4797 15.1212 72.5464 15.1212C72.5464 17.0662 72.5464 19.0269 72.5464 21.066C74.5855 21.066 76.5305 21.066 78.554 21.066C78.554 22.0856 78.554 23.0424 78.554 24.109C76.5933 24.109 74.6326 24.109 72.6248 24.109C72.6248 25.1443 72.6248 26.0854 72.6248 27.1207C74.5855 27.1207 76.5462 27.1207 78.5696 27.1207C78.5696 28.1873 78.5696 29.1284 78.5696 30.1637C76.5933 30.1637 74.6482 30.1637 72.6405 30.1637C72.6405 31.1832 72.6405 32.1401 72.6405 33.1753C74.5855 33.1753 76.5305 33.1753 78.554 33.1753C78.554 34.1949 78.554 35.1517 78.554 36.2183C76.6089 36.2183 74.6482 36.2183 72.6248 36.2183C72.6248 37.2536 72.6248 38.1947 72.6248 39.2299C74.5698 39.2299 76.5462 39.2299 78.5696 39.2299C78.5696 40.2966 78.5696 41.2377 78.5696 42.273C76.6089 42.273 74.6639 42.273 72.6562 42.273C72.6562 43.2925 72.6562 44.2493 72.6562 45.316C74.6169 45.316 76.5776 45.316 78.5853 45.316C78.5853 46.3512 78.5853 47.2924 78.5853 48.3276C76.6246 48.3276 74.6482 48.3276 72.6405 48.3276C72.6405 49.3629 72.6405 50.304 72.6405 51.3392C74.5855 51.3392 76.5462 51.3392 78.5696 51.3392C78.5696 52.3902 78.5696 53.347 78.5696 54.3823C76.6089 54.3823 74.6639 54.3823 72.6562 54.3823C72.6562 55.4018 72.6562 56.3586 72.6562 57.4253C74.6012 57.4253 76.5776 57.4253 78.5853 57.4253C78.5853 58.4605 78.5853 59.4017 78.5853 60.4369C76.6246 60.4369 74.6639 60.4369 72.6405 60.4369C72.6405 61.5035 72.6405 62.4447 72.6405 63.4799C74.6169 63.4799 76.5619 63.4799 78.5696 63.4799C78.5696 64.4995 78.5696 65.4563 78.5696 66.4916C76.6246 66.4916 74.6796 66.4916 72.6405 66.4916C72.6405 68.5307 72.6405 70.4914 72.6405 72.5148C71.5895 72.5148 70.6327 72.5148 69.5975 72.5148C69.5975 70.5541 69.5975 68.6091 69.5975 66.6014C68.5779 66.6014 67.6211 66.6014 66.5545 66.6014C66.5545 68.5464 66.5545 70.5228 66.5545 72.5305C65.5192 72.5305 64.5781 72.5305 63.5428 72.5305C63.5428 70.5698 63.5428 68.6091 63.5428 66.5857C62.4762 66.5857 61.5351 66.5857 60.4998 66.5857C60.4998 68.5621 60.4998 70.5071 60.4998 72.5148C59.4802 72.5148 58.5234 72.5148 57.4882 72.5148C57.4725 70.5855 57.4725 68.6405 57.4725 66.5857ZM48.3435 63.4799C48.3435 63.0721 48.3435 62.727 48.3435 62.3976C48.3435 57.9272 48.3435 53.4411 48.3435 48.9707C48.3435 47.3551 48.814 46.8845 50.414 46.8845C56.4372 46.8845 62.4448 46.8845 68.4681 46.8845C68.7975 46.8845 69.1269 46.8845 69.4406 46.8845C69.4406 39.2456 69.4406 31.7322 69.4406 24.2502C65.9114 24.2502 62.4605 24.2502 58.994 24.2502C58.994 26.2736 58.994 28.2343 58.994 30.2421C60.4214 30.2421 61.7703 30.2421 63.1193 30.2421C64.4212 30.2578 64.9702 30.7754 64.9702 32.0616C64.9859 33.3165 65.0016 34.587 64.9545 35.8419C64.9388 36.3595 65.1114 36.6105 65.5663 36.8457C67.0407 37.6143 67.8564 38.8849 67.9819 40.5475C68.1387 42.822 66.5858 44.7983 64.3428 45.2846C62.2409 45.7395 60.0449 44.5317 59.245 42.4769C58.4136 40.3436 59.2606 38.0065 61.2684 36.8614C61.5351 36.7046 61.8958 36.4379 61.9115 36.2026C61.9899 35.2458 61.9429 34.2733 61.9429 33.2537C60.4998 33.2537 59.1822 33.2537 57.8646 33.2537C56.3902 33.2537 55.9039 32.7361 55.9039 31.246C55.9039 29.1912 55.9039 27.152 55.9039 25.0972C55.9039 24.7992 55.9039 24.5012 55.9039 24.2188C54.3197 24.2188 52.8766 24.2188 51.3708 24.2188C51.3708 27.1991 51.3551 30.1166 51.4022 33.0498C51.4022 33.2537 51.7943 33.5361 52.0609 33.6616C54.3981 34.7125 55.7471 36.485 55.9039 39.0574C56.0765 42.1632 53.8334 44.8454 50.759 45.316C47.8101 45.7709 44.8612 43.8729 44.0456 41.0024C43.1986 38.0065 44.6887 34.9007 47.6062 33.74C48.2337 33.489 48.3748 33.191 48.3591 32.5792C48.3278 30.0852 48.3435 27.6069 48.3435 25.1129C48.3435 24.8149 48.3435 24.5168 48.3435 24.2345C47.2611 24.2345 46.32 24.2345 45.3161 24.2345C45.3161 26.6815 45.3318 29.0657 45.3161 31.4499C45.3161 32.689 44.7671 33.238 43.528 33.2537C43.1515 33.2537 42.7751 33.2537 42.3986 33.2537C40.8614 33.2537 39.3399 33.2537 37.7557 33.2537C37.7557 34.1949 37.787 35.0105 37.74 35.8262C37.7086 36.3281 37.8811 36.5948 38.3517 36.8301C39.8262 37.5986 40.6418 38.8692 40.7673 40.5319C40.9242 42.8063 39.387 44.7827 37.1282 45.2689C35.0264 45.7238 32.8304 44.516 32.0147 42.4612C31.1834 40.3279 32.0147 37.9594 34.0539 36.8614C34.5715 36.5791 34.7754 36.2967 34.744 35.7164C34.697 34.7752 34.7283 33.8184 34.7283 32.8773C34.7283 30.4774 34.995 30.2107 37.3478 30.2107C38.9791 30.2107 40.5948 30.2107 42.2104 30.2107C42.2104 28.1245 42.2104 26.1638 42.2104 24.2031C38.1792 24.2031 34.2264 24.2031 30.2423 24.2031C30.2423 37.3163 30.2423 50.3667 30.2423 63.4172C34.2891 63.4172 38.2576 63.4172 42.2888 63.4172C42.2888 60.0134 42.2888 56.6724 42.2888 53.3313C42.2888 53.2058 42.2574 53.096 42.2418 52.9862C40.7673 52.798 40.7673 52.798 39.9673 53.9587C38.8693 55.5744 36.8616 56.2802 34.9793 55.7469C33.1127 55.2136 31.7638 53.5039 31.701 51.5745C31.6383 49.5511 32.8461 47.7629 34.7127 47.1198C36.5636 46.4767 38.7439 46.9786 39.7477 48.6413C40.4536 49.8021 41.2692 50.006 42.4143 49.8805C42.6966 49.8491 42.979 49.8805 43.2613 49.8805C44.8142 49.8805 45.3161 50.3667 45.3161 51.8882C45.3161 54.1313 45.3161 56.3586 45.3161 58.6017C45.3161 60.2016 45.3161 61.8016 45.3161 63.4485C46.3514 63.4799 47.2768 63.4799 48.3435 63.4799ZM51.4178 63.4642C53.4256 63.4642 55.3863 63.4642 57.4254 63.4642C57.4254 62.6956 57.3784 61.9741 57.4411 61.2526C57.4882 60.5467 57.2843 60.1546 56.6098 59.7938C54.8216 58.8213 54.0373 56.7351 54.5706 54.7587C55.104 52.798 56.8451 51.4334 58.8685 51.402C60.939 51.3706 62.7585 52.7196 63.3075 54.696C63.8722 56.7194 63.0095 58.8056 61.19 59.8879C60.9076 60.0605 60.5312 60.3428 60.4998 60.6094C60.4214 61.5349 60.4684 62.476 60.4684 63.4485C63.5271 63.4485 66.5074 63.4485 69.472 63.4485C69.472 58.9154 69.472 54.4293 69.472 49.9589C63.4173 49.9589 57.4097 49.9589 51.4335 49.9589C51.4178 54.5077 51.4178 58.9781 51.4178 63.4642ZM52.8766 39.3554C52.8923 37.7084 51.5747 36.3281 49.912 36.2967C48.265 36.2654 46.869 37.583 46.8376 39.2299C46.7906 40.924 48.1552 42.3357 49.8493 42.3357C51.4963 42.3357 52.8609 41.0024 52.8766 39.3554ZM37.7557 40.8769C37.787 40.0613 37.1282 39.3711 36.3126 39.3241C35.4656 39.277 34.744 39.9829 34.744 40.8299C34.744 41.6455 35.4185 42.32 36.2342 42.3357C37.0341 42.3514 37.7243 41.6769 37.7557 40.8769ZM63.4958 39.3241C62.6801 39.3084 61.9899 39.9672 61.9743 40.7828C61.9429 41.6299 62.6487 42.3514 63.5114 42.3357C64.3271 42.32 64.9859 41.6455 64.9859 40.8299C64.9859 40.0142 64.3114 39.3241 63.4958 39.3241ZM37.7557 51.3863C37.74 50.5706 37.0498 49.9119 36.2342 49.9119C35.3871 49.9119 34.697 50.6491 34.744 51.4961C34.7911 52.3118 35.4969 52.9549 36.3126 52.9235C37.1126 52.8921 37.7713 52.1863 37.7557 51.3863ZM60.4528 55.9351C60.4371 55.1195 59.7626 54.445 58.9469 54.445C58.1313 54.445 57.4568 55.1195 57.4411 55.9351C57.4254 56.7822 58.147 57.488 58.994 57.4723C59.794 57.441 60.4528 56.7351 60.4528 55.9351Z" fill="white"/>
<path d="M16.5834 78.6342C43.3274 78.6342 69.9772 78.6342 96.7055 78.6342C96.7055 79.6537 96.7055 80.6105 96.7055 81.6772C96.3448 81.6772 95.9683 81.6772 95.6075 81.6772C79.0278 81.6772 62.4481 81.6772 45.8841 81.6615C45.1155 81.6615 44.7234 81.8811 44.4567 82.6183C43.845 84.2967 43.1391 85.9593 42.4803 87.622C41.9 89.0965 41.6647 89.2533 40.1118 89.2533C34.5277 89.2533 28.9593 89.269 23.3752 89.2376C22.7164 89.2376 22.3243 89.3631 21.9792 90.0062C20.991 91.8258 18.8735 92.6414 16.8814 92.1081C14.8893 91.5591 13.5404 89.7709 13.556 87.7004C13.5717 85.677 14.9364 83.9202 16.8814 83.3869C18.8735 82.8379 20.991 83.6692 21.9792 85.4888C22.2929 86.0691 22.6223 86.2574 23.2654 86.2574C28.4888 86.226 33.7278 86.226 38.9668 86.2574C39.5628 86.2574 39.8608 86.1162 40.0647 85.5358C40.5039 84.2967 41.0216 83.0889 41.5549 81.7556C41.1471 81.7399 40.8333 81.7085 40.5039 81.7085C32.2533 81.7085 23.987 81.7085 15.7363 81.7085C14.0109 81.7085 13.5717 81.2693 13.5717 79.5282C13.5717 72.3442 13.556 65.1602 13.5874 57.9762C13.5874 57.2076 13.3364 56.8782 12.662 56.6272C10.8895 55.9684 9.16407 55.2155 7.3916 54.5567C6.38772 54.1803 5.97989 53.5528 5.99558 52.4862C6.02695 46.7767 5.99558 41.0828 6.02695 35.3732C6.02695 34.8085 5.90147 34.4948 5.36815 34.2125C3.50157 33.2243 2.63886 31.1695 3.1408 29.1774C3.65842 27.1226 5.44658 25.7266 7.54845 25.7266C9.61896 25.7266 11.3757 27.1069 11.9091 29.1147C12.4267 31.1067 11.5797 33.1929 9.74444 34.1811C9.16407 34.4948 9.03859 34.8242 9.03859 35.4203C9.05427 40.6593 9.06996 45.8826 9.03859 51.1216C9.03859 51.7647 9.2425 52.047 9.83856 52.2666C11.6424 52.9411 13.3992 53.6783 15.1874 54.3999C16.4265 54.9018 16.6304 55.1998 16.6304 56.5174C16.6304 63.4818 16.6304 70.4463 16.6304 77.4107C16.5834 77.7558 16.5834 78.1322 16.5834 78.6342ZM9.00722 30.2754C9.0229 29.4597 8.37979 28.7696 7.56414 28.7382C6.76417 28.7068 6.04264 29.3499 5.99558 30.1656C5.94852 30.9969 6.63869 31.7342 7.48571 31.7498C8.30136 31.7498 8.99153 31.0754 9.00722 30.2754ZM19.595 87.7161C19.5793 86.9005 18.9048 86.226 18.0892 86.226C17.2735 86.226 16.5991 86.8848 16.5834 87.7004C16.5677 88.5475 17.2892 89.269 18.1206 89.2376C18.9362 89.222 19.6107 88.5318 19.595 87.7161Z" fill="white"/>
<path d="M83.1495 12.0506C56.3585 12.0506 29.7086 12.0506 3.01172 12.0506C3.01172 11.0467 3.01172 10.1213 3.01172 9.05465C3.37249 9.05465 3.73326 9.05465 4.10971 9.05465C20.7208 9.05465 37.3319 9.05465 53.9272 9.07033C54.7429 9.07033 55.1664 8.83505 55.4801 8.09783C56.0919 6.71749 56.8134 5.38421 57.4879 4.03525C57.833 3.34508 58.3506 3 59.1349 3C71.5579 3 83.9652 3 96.3882 3.01568C96.4823 3.01568 96.5607 3.04706 96.7176 3.07843C96.7176 4.03525 96.7176 4.99207 96.7176 6.04301C96.3098 6.04301 95.949 6.04301 95.5726 6.04301C84.0436 6.04301 72.499 6.05869 60.9701 6.02732C60.1701 6.02732 59.6839 6.19987 59.4015 6.98415C59.1506 7.65863 58.7898 8.27037 58.3976 9.07033C58.8525 9.07033 59.1819 9.07033 59.5113 9.07033C67.6365 9.07033 75.7773 9.07033 83.9025 9.07033C85.7847 9.07033 86.1926 9.47816 86.1926 11.3134C86.1926 18.4974 86.2082 25.6814 86.1769 32.8654C86.1769 33.5242 86.3651 33.8536 86.9925 34.0889C88.7023 34.7163 90.3806 35.4379 92.0747 36.1123C93.6119 36.7241 93.753 36.928 93.753 38.5436C93.753 44.1277 93.753 49.6961 93.7373 55.2802C93.7373 55.8919 93.8158 56.2684 94.4589 56.5978C96.3098 57.5546 97.1411 59.6721 96.6078 61.6642C96.0745 63.672 94.302 65.0366 92.2315 65.0366C90.161 65.0366 88.3885 63.672 87.8552 61.6642C87.3219 59.6721 88.1689 57.5546 90.0042 56.5821C90.5688 56.284 90.7414 55.986 90.7414 55.3586C90.71 50.1196 90.71 44.8963 90.7414 39.6573C90.7414 38.9514 90.4904 38.6848 89.8787 38.4495C88.0905 37.775 86.318 37.0064 84.5299 36.3319C83.526 35.9555 83.1339 35.3124 83.1495 34.2614C83.1809 27.2343 83.1652 20.2071 83.1652 13.18C83.1496 12.8663 83.1495 12.5212 83.1495 12.0506ZM93.7373 60.5035C93.7373 59.6878 93.0785 59.0133 92.2629 58.9977C91.4159 58.982 90.71 59.7035 90.7257 60.5505C90.7414 61.3662 91.4316 62.025 92.2472 62.0093C93.0629 61.9936 93.7217 61.3191 93.7373 60.5035Z" fill="white"/>
<path d="M4.51953 96.7839C4.51953 95.7643 4.51953 94.8232 4.51953 93.7879C4.92736 93.7879 5.28813 93.7879 5.66458 93.7879C22.7462 93.7879 39.8279 93.7879 56.9095 93.8036C57.7095 93.8036 58.0545 93.5526 58.3212 92.8311C58.98 91.0586 59.7486 89.3332 60.4074 87.5607C60.7682 86.5882 61.3799 86.1961 62.3995 86.1961C68.109 86.2274 73.8029 86.1961 79.5125 86.2117C80.0928 86.2117 80.4379 86.1019 80.7516 85.5059C81.7241 83.655 83.8103 82.808 85.8181 83.3256C87.8259 83.8432 89.2062 85.6157 89.2219 87.6705C89.2376 89.7724 87.8415 91.5606 85.7867 92.0939C83.7946 92.6115 81.7241 91.7331 80.736 89.8822C80.4536 89.3489 80.1556 89.2077 79.5752 89.2077C74.3048 89.2234 69.0502 89.2391 63.7798 89.2077C63.1837 89.2077 62.9014 89.3802 62.6975 89.9449C61.9916 91.8272 61.2074 93.6781 60.4701 95.5604C60.1407 96.3917 59.5761 96.7839 58.6663 96.7839C40.8004 96.7682 22.9344 96.7839 5.06853 96.7682C4.91167 96.8152 4.75482 96.7995 4.51953 96.7839ZM86.1632 87.7019C86.1475 86.8862 85.4573 86.2274 84.6417 86.2274C83.7946 86.2431 83.1045 86.9647 83.1515 87.8117C83.1986 88.6273 83.9044 89.2705 84.7201 89.2391C85.5357 89.2077 86.1945 88.5175 86.1632 87.7019Z" fill="white"/>
<path d="M16.5191 46.8411C15.5152 46.8411 14.5898 46.8411 13.6016 46.8411C13.6016 37.2886 13.6016 27.7988 13.6016 18.2148C14.527 18.2148 15.4838 18.2148 16.5191 18.2148C16.5191 27.7046 16.5191 37.2415 16.5191 46.8411Z" fill="white"/>
<path d="M83.2188 43.8945C84.2226 43.8945 85.1481 43.8945 86.1363 43.8945C86.1363 53.4471 86.1363 62.9369 86.1363 72.5208C85.2108 72.5208 84.254 72.5208 83.2188 72.5208C83.2188 63.031 83.2188 53.5098 83.2188 43.8945Z" fill="white"/>
</svg>
