<svg width="100" height="100" viewBox="0 0 100 100" fill="none" xmlns="http://www.w3.org/2000/svg">
<path d="M73.4812 76.7548C69.9958 79.8008 65.9345 82.1952 61.4489 83.6954L58.5999 96.9401H41.3698L38.5511 83.6954C34.0655 82.1952 30.0042 79.8008 26.5188 76.7548L13.6227 80.9222L5 65.9955L15.0623 56.903C14.5925 54.6602 14.3804 52.3568 14.3804 49.9776C14.3804 47.5984 14.6077 45.295 15.0623 43.0522L5 33.9598L13.6227 19.033L26.5188 23.2004C30.0042 20.1544 34.0655 17.7601 38.5511 16.2598L41.3698 3H58.5999L61.4489 16.2598C65.9345 17.7601 69.9958 20.1544 73.4812 23.2004L86.3773 19.033L95 33.9598L84.9377 43.0522C85.4075 45.295 85.6196 47.5984 85.6196 49.9776C85.6196 52.3568 85.3923 54.6602 84.9377 56.903L95 65.9955L86.3773 80.9222L73.4812 76.7548Z" stroke="white" stroke-width="2" stroke-miterlimit="10"/>
<path d="M41.207 38.8867L29.2656 49.9643L41.207 61.0571" stroke="white" stroke-width="2" stroke-miterlimit="10"/>
<path d="M58.7969 38.8867L70.7383 49.9643L58.7969 61.0571" stroke="white" stroke-width="2" stroke-miterlimit="10"/>
<path d="M53.3911 38.8867L46.6172 61.0571" stroke="white" stroke-width="2" stroke-miterlimit="10"/>
<path d="M49.9914 77.0102C64.9307 77.0102 77.0414 64.8995 77.0414 49.9602C77.0414 35.0209 64.9307 22.9102 49.9914 22.9102C35.0521 22.9102 22.9414 35.0209 22.9414 49.9602C22.9414 64.8995 35.0521 77.0102 49.9914 77.0102Z" stroke="white" stroke-width="2" stroke-miterlimit="10"/>
</svg>
