<svg width="100" height="100" viewBox="0 0 100 100" fill="none" xmlns="http://www.w3.org/2000/svg">
<path d="M75.6938 44.1545C74.8387 44.1545 74.1056 44.8631 74.1056 45.7182C74.1056 46.5734 74.7897 47.3064 75.6449 47.3553C76.549 47.3797 77.3064 46.6467 77.3064 45.7427C77.3064 44.8875 76.5734 44.1789 75.7182 44.1789M70.9048 45.7671C70.9048 44.9119 70.1963 44.1789 69.3167 44.1789C68.4615 44.1789 67.7285 44.8875 67.704 45.7427C67.6796 46.6467 68.4371 47.4042 69.3411 47.3797C70.1963 47.3797 70.9048 46.6223 70.9048 45.7671ZM56.4891 52.1687C59.1279 49.5299 61.8156 46.8422 64.5032 44.1789C64.5765 44.2522 64.5521 44.2278 64.5277 44.2034C60.545 43.8613 59.8609 44.2034 57.9551 47.7218C57.1732 49.1634 56.5379 50.6538 56.4891 52.1687ZM47.0578 79.4121C50.4785 79.4121 53.5815 79.4121 56.709 79.4121C56.9533 79.4121 57.0755 79.3143 57.1732 79.0944C58.1261 77.0664 59.2989 75.1851 60.7894 73.2304C55.5606 73.9634 51.0649 75.7226 47.0578 79.3876M69.2922 19.2812C68.4126 20.1364 67.9728 20.9427 67.6063 21.8223C66.2624 24.9498 65.9204 28.2483 66.1647 31.5957C66.2624 32.9884 66.5313 34.3567 66.8978 35.7249C67.0444 36.2869 67.4597 36.4824 67.8995 36.5557C68.4615 36.6779 68.2904 36.067 68.4615 35.7982C69.3411 34.3322 69.3411 32.7196 69.3167 31.0826C69.2678 28.6148 69.3167 26.147 69.3167 23.6792V19.2812H69.2922ZM71.1003 38.4371C76.7933 34.7965 80.7027 29.4211 85.736 24.9986C80.3606 24.8032 71.9799 32.573 71.1003 38.4371ZM81.9976 65.5094C82.413 62.1376 80.6049 51.9244 79.0901 49.1878C78.5281 49.5787 77.9905 50.0918 77.3064 50.2384C76.5734 50.385 76.549 50.7271 76.7445 51.338C78.015 55.3206 78.7969 59.4254 78.9435 63.6036C78.9679 64.7031 79.2611 65.265 80.4339 65.2162C80.947 65.2162 81.4845 65.3872 81.9976 65.4849M47.7663 40.8315H68.3638C64.43 36.7023 51.7489 36.7023 47.7663 40.8315ZM73.4215 40.8315H93.9945C89.9141 36.7023 77.2575 36.7023 73.4215 40.8315ZM60.6916 79.2899H93.8723C91.5755 74.3054 85.5161 68.1238 77.282 68.1238C69.2434 68.1238 63.0861 74.0855 60.6916 79.2899ZM82.6573 82.564C82.8772 82.8083 82.9261 82.8816 82.9994 82.9549C86.2979 86.1068 86.0291 89.7718 82.2664 92.3618C78.8212 94.7318 74.9119 95.3427 70.8315 95.3671C69.903 95.3671 69.2434 94.6097 69.2678 93.7545C69.2922 92.8505 69.9519 92.2152 71.0026 92.1908C73.3971 92.1419 75.7182 91.8243 77.9661 90.9935C79.0656 90.5782 80.1163 90.0651 80.9959 89.2832C82.413 88.0126 82.4374 86.7177 80.9959 85.4715C79.3344 84.03 77.282 83.4191 75.1807 82.9793C73.5436 82.6373 71.8822 82.564 70.1963 82.564C48.3772 82.564 26.5336 82.564 4.71447 82.5884C3.73713 82.5884 3.49282 82.3441 3.51725 81.3912C3.59055 79.3632 3.51724 79.3632 5.56965 79.3632C17.6642 79.3632 29.7344 79.3632 41.8045 79.3632C42.342 79.3632 42.8063 79.3632 43.1972 78.8501C46.5935 74.5742 51.1626 72.1553 56.3425 70.7626C58.7125 70.1273 61.107 69.8341 63.5504 69.7608C63.9658 69.7608 64.3078 69.6631 64.6498 69.3943C67.7285 67.0243 71.1492 65.485 75.0341 65.094C75.5472 65.0452 75.7671 64.8497 75.7427 64.2877C75.4983 59.4499 74.6187 54.7586 72.9328 50.214C72.6885 49.5299 72.5418 49.2122 71.7355 49.7498C69.732 51.0692 67.2887 50.7027 65.6761 48.8946C65.2118 48.3815 65.0163 48.4059 64.5521 48.8702C62.1576 51.2891 59.7387 53.708 57.3443 56.1025C56.1714 57.2753 55.1941 57.202 54.2168 55.8337C52.9707 54.0501 53.0195 52.071 53.4837 50.0674C53.9724 47.9661 54.9742 46.0847 56.1714 44.3011C55.9271 43.9835 55.6095 44.1301 55.3407 44.1301C52.1155 44.1301 48.8658 44.1301 45.6406 44.1301C44.0768 44.1301 43.3927 43.2993 43.6615 41.76C43.9791 39.9764 45.0297 38.6814 46.4713 37.6552C49.5499 35.4562 53.0928 34.772 56.7579 34.5521C58.5904 34.43 60.4229 34.5521 62.231 34.8698C63.3305 35.0652 63.3549 35.0408 63.1594 33.8924C62.4753 29.641 62.7441 25.4384 64.2345 21.3825C64.8454 19.721 65.7005 18.1817 67.0199 16.9356C67.9728 16.0315 69.0723 15.4451 70.3917 15.323C71.6867 15.2008 72.4197 15.8605 72.4197 17.1799C72.4197 20.7228 72.4197 24.2656 72.4197 27.7841V28.8836C72.835 28.908 72.9328 28.5659 73.1283 28.3705C75.9381 25.4873 79.0657 23.1173 83.0239 22.0422C84.9053 21.5291 86.7866 21.4558 88.5458 22.482C90.3294 23.5082 90.4761 24.5833 89.0345 26.0248C86.4445 28.6148 83.8546 31.2048 81.2402 33.8191C81.0203 34.0635 80.8004 34.3078 80.4339 34.6743C80.8737 34.6743 81.1425 34.6499 81.4113 34.6254C85.3939 34.3078 89.2788 34.7476 92.9439 36.3847C94.361 37.0199 95.6315 37.8507 96.6577 39.0479C97.3419 39.8542 97.7817 40.7827 97.9527 41.8089C98.197 43.2993 97.5373 44.1301 96.0224 44.1301C91.2823 44.1301 86.5423 44.1301 81.8022 44.1301H80.7271C80.5561 44.4233 80.7515 44.6187 80.8248 44.8142C83.7324 51.509 85.0763 58.5458 85.1496 65.827C85.1496 66.4378 85.3206 66.7311 85.8826 67.0243C91.6 69.8586 95.3627 74.4765 97.7817 80.2672C98.3192 81.5622 97.5862 82.5884 96.1202 82.5884C92.0154 82.5884 87.9105 82.5884 83.8057 82.5884H82.5352L82.6573 82.564Z" fill="white"/>
<path d="M27.6569 21.7289C30.2713 21.7289 32.4215 19.5544 32.4459 16.9644C32.4459 14.3012 30.2957 12.1266 27.6325 12.1266C25.0181 12.1266 22.8679 14.2767 22.8435 16.8911C22.8435 19.5544 24.9937 21.7289 27.6569 21.7289ZM27.7302 8.92578C32.1527 8.97465 35.6955 12.6152 35.6467 17.0621C35.6222 21.4602 31.9328 25.003 27.4859 24.9542C23.0879 24.9053 19.545 21.2403 19.6183 16.7934C19.6916 12.4442 23.3322 8.90135 27.7058 8.95022" fill="white"/>
<path d="M22.8164 95.4195C19.1758 95.4195 15.5352 95.4195 11.8946 95.4195C10.7951 95.4195 10.111 94.9064 10.0132 94.0268C9.89108 93.0251 10.6241 92.2432 11.7969 92.2188C14.1425 92.2188 16.4637 92.2188 18.8093 92.2188C23.7449 92.2188 28.6804 92.2188 33.6404 92.2188C34.8132 92.2188 35.4974 92.7074 35.6195 93.6115C35.7661 94.6377 34.9843 95.4195 33.7382 95.4195C30.0976 95.4195 26.457 95.4195 22.8164 95.4195Z" fill="white"/>
<path d="M10.308 56.9778C10.9677 56.9778 11.8473 57.2221 12.6047 57.7597C13.0445 58.0773 13.3133 58.1017 13.802 57.7841C16.7584 55.8783 20.4723 57.5153 21.1565 60.936C21.4008 62.1821 20.9366 63.1106 19.9592 63.3305C18.9819 63.5504 18.2733 62.9151 18.0289 61.5957C17.8579 60.7406 17.3448 60.2274 16.4652 60.1786C15.6345 60.1297 15.0237 60.7161 14.8526 61.6446C14.6327 62.8174 14.144 63.3549 13.2644 63.3549C12.3848 63.3549 11.8228 62.793 11.6274 61.6935C11.4808 60.7894 10.9921 60.2274 10.0636 60.1786C9.20846 60.1297 8.62207 60.7405 8.4266 61.7423C8.23113 62.8418 7.547 63.4527 6.64296 63.3549C5.69006 63.2328 5.12808 62.4265 5.22581 61.2781C5.47015 58.8347 7.59587 56.9289 10.308 56.9534" fill="white"/>
<path d="M23.1154 47.3496C23.7018 47.3496 24.5814 47.5451 25.3388 48.0827C25.8519 48.4492 26.194 48.4247 26.7071 48.0827C29.7613 46.1768 33.7439 48.1804 34.0127 51.7232C34.1104 52.8961 33.4507 53.7268 32.449 53.7268C31.6182 53.7268 31.0074 53.1648 30.8363 52.2363C30.6409 51.088 30.1034 50.5504 29.2482 50.526C28.3686 50.526 27.831 51.0635 27.6356 52.2119C27.4645 53.1404 26.8781 53.7024 26.0474 53.7268C25.2167 53.7268 24.6058 53.1648 24.4592 52.2363C24.2637 51.088 23.7262 50.5504 22.8466 50.526C21.967 50.526 21.4295 51.0635 21.234 52.2119C21.063 53.2137 20.3299 53.8245 19.4503 53.7024C18.5707 53.5802 18.0088 52.8472 18.0576 51.821C18.1554 49.3776 20.3055 47.3252 23.1398 47.3008" fill="white"/>
<path d="M34.0111 89.0133C31.47 89.0133 28.929 89.0133 26.4123 89.0133C25.1662 89.0133 24.4332 88.378 24.4576 87.3763C24.4821 86.3989 25.1906 85.8125 26.3879 85.8125C31.4945 85.8125 36.6011 85.8125 41.7077 85.8125C42.9538 85.8125 43.6868 86.4478 43.6624 87.4496C43.6624 88.4025 42.9293 89.0133 41.7321 89.0133C39.1666 89.0133 36.6011 89.0133 34.0356 89.0133" fill="white"/>
<path d="M57.9829 89.0084C55.9794 89.0084 53.9758 89.0084 51.9722 89.0084C50.7994 89.0084 50.0664 88.3731 50.0664 87.4202C50.0664 86.4429 50.775 85.832 51.9478 85.832C56.0282 85.832 60.0842 85.832 64.1646 85.832C65.3374 85.832 66.0704 86.4673 66.0704 87.4202C66.0704 88.3976 65.3374 89.0084 64.1646 89.0084C62.0877 89.0084 60.0353 89.0084 57.9585 89.0084" fill="white"/>
<path d="M9.91647 89.0084C7.91292 89.0084 5.90936 89.0084 3.90581 89.0084C2.733 89.0084 2 88.3731 2 87.4202C2 86.4673 2.70858 85.832 3.88139 85.832C7.96178 85.832 12.0177 85.832 16.0981 85.832C17.2709 85.832 18.004 86.4673 18.004 87.4202C18.004 88.3731 17.2709 89.0084 16.0981 89.0084C14.0213 89.0084 11.9689 89.0084 9.89205 89.0084" fill="white"/>
<path d="M46.9293 95.4146C45.9031 95.4146 44.8525 95.4146 43.8263 95.4146C42.7267 95.4146 42.0426 94.7305 42.067 93.802C42.067 92.898 42.7512 92.2383 43.8018 92.2383C45.8298 92.2383 47.8822 92.2383 49.9102 92.2383C50.9852 92.2383 51.6938 92.9224 51.6694 93.8509C51.6694 94.7794 50.9608 95.4146 49.8369 95.4146C48.8595 95.4146 47.9066 95.4146 46.9293 95.4146Z" fill="white"/>
<path d="M20.2002 26.0449C20.2002 26.0449 20.1757 26.2892 20.1024 26.387C19.2473 27.7552 18.1478 28.9036 16.7551 29.7343C16.1687 30.1008 15.5089 29.8076 15.0691 29.2701C14.6049 28.7081 14.5072 27.9996 14.947 27.4132C15.7777 26.3625 16.7306 25.4096 17.7568 24.6033C18.2455 24.2124 18.8319 24.2612 19.3694 24.6033C19.8825 24.9209 20.1513 25.4096 20.1757 26.0449" fill="white"/>
<path d="M29.2198 31.403C29.2198 31.9405 29.2442 32.4781 29.2198 32.9912C29.1465 33.8708 28.4868 34.506 27.6805 34.5305C26.8009 34.5305 26.0923 33.9196 26.0679 32.9667C26.019 31.8672 26.019 30.7677 26.0679 29.6682C26.1168 28.7642 26.7765 28.1533 27.6072 28.1289C28.4868 28.1289 29.171 28.7397 29.2443 29.6926C29.2931 30.2546 29.2443 30.8166 29.2443 31.403" fill="white"/>
<path d="M42.1139 15.3225C42.6515 15.3225 43.189 15.2981 43.7021 15.3225C44.6061 15.3958 45.217 16.0311 45.2414 16.8618C45.2658 17.7414 44.6306 18.45 43.6777 18.4989C42.5782 18.5477 41.4787 18.5477 40.3792 18.4989C39.4751 18.45 38.8643 17.7903 38.8398 16.9595C38.8398 16.0799 39.4507 15.3958 40.4036 15.3225C40.9656 15.2736 41.5275 15.3225 42.1139 15.3225Z" fill="white"/>
<path d="M13.2409 15.3225C13.8028 15.3225 14.3892 15.2736 14.9512 15.3225C15.8308 15.3958 16.4416 16.1044 16.3928 16.9351C16.3439 17.8147 15.8308 18.4011 14.9756 18.4744C13.8028 18.5477 12.63 18.5477 11.4816 18.4744C10.602 18.4256 10.0156 17.6926 10.0156 16.8618C10.0156 16.0311 10.6509 15.3714 11.5549 15.3225C12.1169 15.2736 12.6789 15.3225 13.2653 15.3225H13.2409Z" fill="white"/>
<path d="M40.5283 28.1192C40.5039 28.8767 40.2351 29.3653 39.6976 29.6341C39.1601 29.9029 38.5492 29.9273 38.085 29.5364C37.0832 28.7056 36.1303 27.8016 35.3484 26.7754C34.8598 26.1401 35.0063 25.4315 35.5439 24.8696C36.057 24.332 36.7412 24.1366 37.352 24.5519C38.5004 25.3582 39.4533 26.3844 40.3329 27.4839C40.4795 27.6794 40.5039 27.9726 40.5283 28.1192Z" fill="white"/>
<path d="M20.2043 7.79621C20.1555 8.45592 19.9112 8.94459 19.3736 9.26222C18.8116 9.60429 18.1764 9.62873 17.6877 9.18892C16.7592 8.33375 15.8308 7.45415 15.0245 6.50124C14.5114 5.91484 14.6335 5.1574 15.1466 4.57099C15.6353 4.00902 16.3683 3.81355 16.9547 4.20449C18.1764 5.01079 19.2026 6.08587 20.0333 7.28311C20.1555 7.42971 20.1555 7.64961 20.2043 7.79621Z" fill="white"/>
<path d="M40.5289 5.64346C40.5289 5.64346 40.5289 5.76563 40.5045 5.83893C40.4067 6.64524 37.7679 9.30849 36.9372 9.40622C36.2775 9.50395 35.7644 9.25962 35.3979 8.69765C35.0069 8.11124 34.9825 7.45154 35.4468 6.93844C36.2775 6.00997 37.1326 5.15479 38.0611 4.32405C38.5498 3.88424 39.1851 3.93312 39.747 4.22632C40.309 4.51952 40.5289 5.03262 40.5289 5.64346Z" fill="white"/>
</svg>
