<svg width="100" height="100" viewBox="0 0 100 100" fill="none" xmlns="http://www.w3.org/2000/svg">
<path d="M70.5159 57.1833C69.794 59.128 68.8953 60.9842 67.8493 62.7668C66.8034 64.5494 65.5806 66.332 64.2841 67.9378L42.2153 95.2808L25.3175 74.3316L27.984 72.1512L42.2153 89.7857L61.544 65.7722C62.752 64.24 63.8864 62.6195 64.785 60.999C65.7574 59.3784 66.5676 57.5958 67.2159 55.9016L70.5159 57.1833ZM21.4282 69.4847L20.2201 67.9526C14.7987 61.161 11.7344 53.073 11.7344 45.0734C11.7344 37.4716 14.4009 30.1203 20.3085 24.2126C26.3782 18.143 34.3041 15.1523 42.23 15.1523C50.156 15.1523 58.1556 18.143 64.1516 24.2126C67.3926 27.4537 69.7351 31.2546 71.1052 35.2913C72.5636 39.4899 73.0498 44.0275 72.5636 48.4766L69.1605 48.1525C69.5583 44.1895 69.1605 40.1529 67.8641 36.4256C66.656 32.9488 64.623 29.6341 61.7207 26.7171C56.3877 21.3841 49.272 18.7175 42.23 18.7175C35.188 18.7175 28.0724 21.3841 22.7393 26.7171C17.5683 31.8881 15.1375 38.444 15.1375 45.1618C15.1375 52.3659 17.8924 59.7173 22.813 65.8606L24.021 67.3927L21.4282 69.4847Z" fill="white"/>
<path d="M42.2113 30.1836C46.4984 30.1836 50.373 31.9662 53.2163 34.7064C56.0449 37.535 57.7391 41.4243 57.7391 45.7113C57.7391 49.9984 55.9565 53.873 53.2163 56.7163C50.3877 59.5449 46.4984 61.2391 42.2113 61.2391C37.9243 61.2391 34.0497 59.4565 31.2064 56.7163C28.3778 53.8877 26.6836 49.9984 26.6836 45.7113C26.6836 41.4243 28.4662 37.5497 31.2064 34.7064C34.0497 31.8778 37.9243 30.1836 42.2113 30.1836ZM50.7855 37.1372C48.6051 34.9568 45.6145 33.572 42.2113 33.572C38.8966 33.572 35.8176 34.9421 33.6372 37.1372C31.4568 39.3176 30.072 42.3082 30.072 45.7113C30.072 49.1145 31.4421 52.1051 33.6372 54.2855C35.8323 56.4658 38.8082 57.8507 42.2113 57.8507C45.5261 57.8507 48.6051 56.4806 50.7855 54.2855C52.9658 52.1051 54.3507 49.1145 54.3507 45.7113C54.3359 42.3966 52.9658 39.3176 50.7855 37.1372Z" fill="white"/>
<path fill-rule="evenodd" clip-rule="evenodd" d="M76.5848 28.1623L79.7375 27.6025L81.6821 20.3248L70.2794 18.5422C70.0437 18.5422 69.8816 18.3801 69.7932 18.2181C69.7049 18.056 69.6312 17.8203 69.7196 17.5699L70.1174 16.4355C70.2794 16.0377 70.6035 15.7873 71.0013 15.7136L73.8299 15.2274L74.5518 13.2828C74.7138 12.7966 75.362 12.4725 75.8482 12.723C76.3343 12.885 76.6585 13.5332 76.408 14.0194L76.0839 14.8297L78.2643 14.5056L78.9861 12.4873C79.1482 12.0011 79.7964 11.677 80.2826 11.9274C80.7687 12.0895 81.0929 12.7377 80.8424 13.2239L80.5183 14.1962L83.4353 13.71L83.9951 11.6917C84.1571 11.0435 84.3929 10.4837 84.8054 9.90912L87.9581 5.46C88.2822 5.06223 88.842 4.90017 89.3282 5.06223C89.8143 5.22428 90.1384 5.71044 90.05 6.27027L89.6523 11.6917C89.5786 12.3399 89.4165 12.9882 89.1661 13.548L88.2822 15.4042L90.2268 17.5846L90.5509 16.6123C90.713 16.1261 91.3612 15.802 91.8474 16.0524C92.3335 16.2145 92.6576 16.8627 92.4072 17.3489L91.6853 19.3672L93.1438 21.0614L93.4679 20.2511C93.63 19.765 94.2782 19.4409 94.7643 19.6913C95.2505 19.8534 95.5746 20.5016 95.3242 20.9877L94.6023 22.9324L96.4585 25.1128C96.7826 25.4369 96.8563 25.8346 96.6943 26.2471L96.2965 27.3815C96.2228 27.6172 96.0608 27.7793 95.8103 27.7793C95.5746 27.8529 95.4126 27.8529 95.1621 27.7056L85.2915 21.7243L82.1388 28.6043L84.6433 31.5949L83.833 33.9373L79.546 31.757L75.6714 30.7847C75.5093 30.7847 75.3473 30.6226 75.2736 30.4605C75.2 30.2985 75.2 30.1364 75.2736 29.9744L75.6714 28.9284C75.8629 28.5601 76.1723 28.236 76.5848 28.1623Z" fill="white"/>
<path d="M81.521 31.876C75.7018 46.9176 66.5678 57.1123 56.933 63.7418C42.1419 73.9364 26.0396 76.1168 18.4377 75.4686C14.3127 75.1445 10.998 73.7744 8.65556 71.8297C6.3868 69.9735 4.94304 67.469 4.29482 64.7877C3.735 62.1212 3.97072 59.2926 5.0167 56.4641C6.31314 52.9873 8.89127 49.5841 12.6922 47.006L14.6368 49.8346C11.3957 52.1033 9.30377 54.8435 8.24305 57.6721C7.43278 59.8525 7.27073 62.0328 7.68323 64.0659C8.081 66.0105 9.14172 67.7784 10.8359 69.1632C12.6922 70.6954 15.285 71.7561 18.7618 71.9918C25.9659 72.64 41.0811 70.5333 54.9883 60.9132C64.1223 54.6078 72.7848 44.9877 78.3536 30.668L81.521 31.876Z" fill="white"/>
</svg>
