<svg width="1008" height="355" viewBox="0 0 1008 355" fill="none" xmlns="http://www.w3.org/2000/svg">
<path d="M147.944 255.202C181.484 260.043 202.684 248.927 226.79 227.591C227.412 227.017 228.022 227.029 228.62 227.627L261.98 261.37C262.243 261.643 262.392 262.006 262.398 262.385C262.405 262.763 262.269 263.131 262.016 263.414C236.284 291.957 203.461 306.54 163.548 307.161C77.0609 308.56 15.8635 237.524 31.0014 151.75C39.1443 105.6 74.514 66.4424 119.067 53.2464C145.11 45.5488 172.301 44.8794 200.64 51.2383C222.043 56.0434 241.844 66.9444 260.043 83.9414C261.215 85.041 261.275 86.1885 260.223 87.3838L227.508 124.928C226.431 126.147 225.296 126.219 224.1 125.143C205.124 108.433 186.47 97.8186 160.571 98.0338C104.539 98.4641 76.2717 154.117 91.5173 203.709C99.2297 228.846 121.183 251.329 147.944 255.202Z" fill="#004E98"/>
<path d="M605.417 209.518C613.883 232.324 636.877 252.727 662.238 255.632C694.738 259.325 715.221 248.388 737.964 227.949C738.992 227.017 740.009 227.04 741.013 228.021L773.692 260.795C774.107 261.198 774.347 261.748 774.36 262.331C774.374 262.913 774.16 263.481 773.764 263.915C751.715 287.964 724.584 301.973 692.371 305.941C666.041 309.193 642.21 306.467 620.878 297.766C535.431 262.875 514.052 151.785 576.899 86.4509C627.586 33.7388 719.884 33.7029 771.97 84.1918C773.023 85.1959 773.07 86.2477 772.114 87.3474L739.506 124.82C738.454 126.015 737.33 126.075 736.134 124.999C713.714 104.416 688.568 93.8736 657.216 99.6469C642.545 102.372 629.129 109.616 619.802 120.803C598.016 147.004 593.221 176.575 605.417 209.518Z" fill="#004E98"/>
<path d="M980.458 244.516C975.293 271.314 959.066 289.578 931.78 299.308C883.963 316.376 821.51 302.356 783.378 267.788C782.302 266.784 782.23 265.72 783.163 264.596L813.116 228.881C813.518 228.404 814.087 228.1 814.703 228.033C815.319 227.966 815.933 228.142 816.416 228.523C842.674 249.177 872.017 262.875 906.275 255.847C920.086 252.978 930.883 243.332 926.686 227.806C923.314 215.47 906.239 209.625 894.76 206.434C855.624 195.497 801.386 188.003 792.741 139.916C783.629 89.0687 817.636 52.4212 866.852 48.1899C905.809 44.867 941.226 54.9313 973.104 78.3828C974.061 79.0761 974.204 79.9008 973.535 80.8571L946.774 118.831C946.563 119.138 946.292 119.399 945.979 119.601C945.666 119.803 945.317 119.941 944.95 120.008C944.584 120.074 944.208 120.068 943.844 119.989C943.48 119.91 943.135 119.761 942.829 119.548C920.086 103.627 886.976 89.4631 859.785 99.9697C854.141 102.145 850.387 105.588 848.521 110.297C842.1 126.577 853.077 138.554 868.574 142.857C920.193 157.128 995.022 168.854 980.458 244.516Z" fill="#B30627"/>
<path d="M341.687 145.905L341.759 301.495C341.759 301.8 341.638 302.091 341.423 302.307C341.208 302.522 340.916 302.643 340.611 302.643H287.915C287.611 302.643 287.319 302.522 287.104 302.307C286.888 302.091 286.768 301.8 286.768 301.495L286.696 51.9194C286.696 51.6151 286.817 51.3233 287.032 51.1081C287.247 50.8929 287.539 50.772 287.844 50.772L337.526 50.9154C337.704 50.9098 337.882 50.9458 338.043 51.0205C338.205 51.0951 338.348 51.2065 338.459 51.3457L455.509 204.139C455.655 204.323 455.855 204.457 456.08 204.524C456.306 204.59 456.546 204.586 456.769 204.512C456.992 204.438 457.187 204.297 457.327 204.108C457.468 203.92 457.547 203.693 457.554 203.458L457.518 51.9912C457.518 51.6868 457.639 51.395 457.854 51.1798C458.069 50.9646 458.361 50.8437 458.666 50.8437L511.326 50.8078C511.63 50.8078 511.922 50.9287 512.137 51.1439C512.352 51.3591 512.473 51.651 512.473 51.9553V301.495C512.473 301.8 512.352 302.091 512.137 302.307C511.922 302.522 511.63 302.643 511.326 302.643H465.445C465.267 302.648 465.09 302.612 464.928 302.538C464.766 302.463 464.624 302.352 464.513 302.212L343.732 145.223C343.585 145.04 343.386 144.906 343.161 144.839C342.935 144.772 342.695 144.776 342.472 144.851C342.249 144.925 342.054 145.066 341.914 145.254C341.773 145.443 341.694 145.67 341.687 145.905Z" fill="#004E98"/>
<path d="M703.886 168.424L706.361 168.675C707.82 168.818 708.549 169.619 708.549 171.077V219.917C708.549 221.542 707.736 222.355 706.11 222.355L646.419 222.463C644.171 222.463 643.047 221.339 643.047 219.092L643.083 171.651C643.083 170.193 643.765 169.213 645.128 168.711C646.061 168.376 647.017 168.197 647.998 168.173C649.48 168.149 650.222 167.396 650.222 165.914C650.222 160.965 649.827 155.873 651.011 151.032C657.647 123.421 698.147 125.429 701.232 155.12C701.59 158.443 701.578 161.766 701.196 165.089C700.98 167.097 701.877 168.209 703.886 168.424ZM664.535 168.639H687.564C688.069 168.639 688.552 168.439 688.909 168.082C689.265 167.726 689.466 167.243 689.466 166.738V158.742C689.466 155.128 688.113 151.662 685.704 149.107C683.296 146.551 680.029 145.116 676.623 145.116H675.476C672.07 145.116 668.803 146.551 666.395 149.107C663.986 151.662 662.633 155.128 662.633 158.742V166.738C662.633 167.243 662.834 167.726 663.19 168.082C663.547 168.439 664.03 168.639 664.535 168.639ZM682.04 194.816C683.475 192.33 683.152 189.736 681.072 187.034C680.528 186.316 679.816 185.741 678.997 185.36C678.178 184.978 677.277 184.802 676.372 184.847C672.426 185.014 670.035 186.592 669.198 189.58C667.261 196.25 673.754 198.115 671.386 205.071C670.74 207.008 671.255 208.574 672.929 209.769C674.435 210.868 676.265 211.036 678.417 210.271C679.565 209.864 680.079 209.064 679.96 207.868C679.565 203.422 679.673 198.832 682.04 194.816Z" fill="#B30627"/>
</svg>
