<svg width="896" height="531" viewBox="0 0 896 531" fill="none" xmlns="http://www.w3.org/2000/svg">
<path d="M317.022 179.887C317.534 143.268 303.209 107.942 277.198 81.6803C251.188 55.4185 215.623 40.3724 178.327 39.8518C159.86 39.5941 141.524 42.9103 124.366 49.611C107.208 56.3117 91.5634 66.2657 78.3262 78.9047C65.0889 91.5437 54.518 106.62 47.217 123.273C39.9159 139.927 36.0278 157.83 35.7745 175.962C35.2629 212.581 49.588 247.908 75.5983 274.169C101.609 300.431 137.174 315.477 174.469 315.998C192.936 316.255 211.273 312.939 228.431 306.239C245.589 299.538 261.233 289.584 274.471 276.945C287.708 264.306 298.279 249.229 305.58 232.576C312.881 215.923 316.769 198.019 317.022 179.887Z" stroke="#CF8E90" stroke-width="2"/>
<path d="M292.517 173.422C291.993 158.44 288.471 143.71 282.151 130.073C275.83 116.436 266.836 104.158 255.681 93.9407C244.525 83.7236 231.428 75.7673 217.136 70.526C202.845 65.2846 187.639 62.8609 172.386 63.3933C141.583 64.4685 112.461 77.5189 91.4268 99.6738C70.3929 121.829 59.1701 151.273 60.2271 181.529C60.7505 196.511 64.273 211.241 70.5934 224.878C76.9138 238.516 85.9083 250.793 97.0635 261.01C108.219 271.228 121.316 279.184 135.608 284.425C149.899 289.667 165.105 292.09 180.358 291.558C211.161 290.483 240.283 277.432 261.317 255.277C282.351 233.123 293.574 203.678 292.517 173.422Z" stroke="#CF8E90" stroke-width="2"/>
<path d="M120.075 119.779C126.735 104.298 133.818 91.8288 146.584 80.337C147.747 79.2979 147.58 78.9897 146.082 79.4123C123.96 85.8319 104.613 100.652 91.3444 119.515C90.3224 120.977 90.7012 121.707 92.4809 121.707L117.035 121.76C118.48 121.76 119.493 121.1 120.075 119.779Z" stroke="#CF8E90" stroke-width="2"/>
<path d="M206.133 79.3069C204.494 78.7786 204.327 79.0692 205.631 80.1787C217.754 90.5521 226.634 103.867 232.273 120.123C232.435 120.587 232.738 120.99 233.139 121.278C233.541 121.566 234.023 121.725 234.52 121.734H260.977C261.104 121.738 261.231 121.706 261.341 121.642C261.452 121.578 261.542 121.485 261.603 121.372C261.663 121.26 261.691 121.133 261.683 121.005C261.675 120.878 261.632 120.755 261.558 120.651C248.255 100.767 229.78 86.9857 206.133 79.3069Z" stroke="#CF8E90" stroke-width="2"/>
<path d="M135.986 118.537C135.781 118.858 135.667 119.227 135.655 119.607C135.643 119.987 135.734 120.363 135.918 120.696C136.102 121.028 136.373 121.305 136.701 121.497C137.029 121.689 137.403 121.789 137.783 121.787L167.306 121.76C167.867 121.76 168.405 121.537 168.801 121.141C169.198 120.745 169.421 120.207 169.421 119.647V86.6772C169.425 86.291 169.323 85.9111 169.126 85.5787C168.93 85.2463 168.646 84.9741 168.305 84.7917C167.965 84.6093 167.581 84.5236 167.195 84.544C166.809 84.5643 166.436 84.6899 166.117 84.9072L150.681 95.4743C150.439 95.6331 150.232 95.8399 150.073 96.0819L135.986 118.537Z" stroke="#CF8E90" stroke-width="2"/>
<path d="M185.253 85.0656C183.949 84.5725 183.297 85.0216 183.297 86.4129L183.35 120.122C183.367 121.179 183.896 121.707 184.936 121.707L215.569 121.734C216.908 121.734 217.313 121.126 216.785 119.911C210.283 105.17 200.741 90.8247 185.253 85.0656Z" stroke="#CF8E90" stroke-width="2"/>
<path d="M82.1995 137.188C77.301 147.738 74.605 158.455 74.1117 169.339C74.1045 169.482 74.1265 169.625 74.1765 169.76C74.2264 169.894 74.3031 170.017 74.402 170.121C74.5009 170.224 74.6199 170.307 74.7517 170.363C74.8836 170.42 75.0255 170.449 75.1689 170.449H108.921C109.943 170.449 110.471 169.929 110.507 168.89C110.842 158.094 112.33 147.615 114.974 137.453C115.273 136.273 114.815 135.683 113.599 135.683L84.4725 135.735C83.3976 135.735 82.64 136.22 82.1995 137.188Z" stroke="#CF8E90" stroke-width="2"/>
<path d="M131.202 135.788C130.827 135.791 130.466 135.929 130.184 136.176C129.903 136.424 129.72 136.764 129.669 137.136L125.414 168.652C125.384 168.872 125.401 169.095 125.464 169.307C125.527 169.52 125.635 169.716 125.78 169.884C125.925 170.051 126.104 170.186 126.305 170.279C126.506 170.372 126.725 170.421 126.947 170.422L167.888 170.475C168.301 170.475 168.698 170.311 168.99 170.019C169.283 169.726 169.447 169.33 169.447 168.916L169.394 137.189C169.394 136.775 169.23 136.379 168.937 136.086C168.645 135.794 168.248 135.63 167.835 135.63L131.202 135.788Z" stroke="#CF8E90" stroke-width="2"/>
<path d="M226.432 170.422C226.633 170.421 226.831 170.376 227.013 170.291C227.195 170.206 227.357 170.083 227.487 169.93C227.618 169.778 227.714 169.598 227.769 169.405C227.824 169.212 227.836 169.009 227.806 168.811L223.207 136.898C223.156 136.564 222.986 136.26 222.729 136.042C222.472 135.823 222.144 135.705 221.806 135.709H184.698C184.326 135.709 183.97 135.857 183.707 136.119C183.444 136.382 183.297 136.738 183.297 137.109L183.35 169.048C183.35 169.42 183.497 169.776 183.76 170.039C184.023 170.301 184.379 170.449 184.751 170.449L226.432 170.422Z" stroke="#CF8E90" stroke-width="2"/>
<path d="M242.924 169.762C242.95 169.96 243.048 170.142 243.199 170.274C243.35 170.405 243.544 170.477 243.744 170.475L278.738 170.369C278.861 170.369 278.982 170.34 279.092 170.286C279.203 170.232 279.3 170.154 279.376 170.058C279.452 169.962 279.505 169.849 279.532 169.729C279.559 169.61 279.559 169.485 279.531 169.366L271.443 136.396C271.402 136.217 271.301 136.056 271.157 135.941C271.013 135.826 270.834 135.763 270.65 135.762L239.013 135.656C238.896 135.655 238.78 135.679 238.673 135.727C238.566 135.775 238.47 135.845 238.393 135.932C238.315 136.02 238.257 136.123 238.223 136.235C238.188 136.347 238.178 136.465 238.193 136.581L242.924 169.762Z" stroke="#CF8E90" stroke-width="2"/>
<path d="M81.2479 217.604C81.706 218.714 82.5342 219.269 83.7324 219.269L112.991 219.242C113.223 219.244 113.452 219.194 113.661 219.094C113.87 218.995 114.054 218.85 114.199 218.669C114.344 218.489 114.446 218.278 114.498 218.052C114.55 217.827 114.55 217.592 114.498 217.367C112.013 206.659 110.524 196.197 110.031 185.982C109.978 184.89 109.405 184.344 108.313 184.344H75.1688C74.0411 184.344 73.5213 184.908 73.6094 186.035C74.649 197.448 77.1952 207.971 81.2479 217.604Z" stroke="#CF8E90" stroke-width="2"/>
<path d="M126.656 184.371C126.404 184.372 126.155 184.427 125.927 184.532C125.698 184.638 125.494 184.79 125.329 184.98C125.164 185.17 125.041 185.393 124.969 185.634C124.897 185.875 124.877 186.129 124.911 186.379L129.352 217.684C129.415 218.102 129.625 218.483 129.945 218.759C130.265 219.035 130.673 219.188 131.096 219.19L167.65 219.295C167.882 219.295 168.113 219.249 168.327 219.16C168.542 219.072 168.737 218.941 168.902 218.777C169.066 218.612 169.197 218.417 169.286 218.203C169.375 217.988 169.421 217.758 169.421 217.525L169.447 186.061C169.447 185.592 169.26 185.142 168.928 184.81C168.596 184.478 168.146 184.292 167.676 184.292L126.656 184.371Z" stroke="#CF8E90" stroke-width="2"/>
<path d="M221.912 219.19C222.329 219.194 222.734 219.046 223.05 218.773C223.366 218.501 223.572 218.123 223.63 217.71L227.806 186.299C227.84 186.057 227.822 185.81 227.752 185.575C227.683 185.34 227.564 185.123 227.404 184.938C227.244 184.753 227.046 184.604 226.824 184.502C226.601 184.399 226.359 184.346 226.115 184.344L185.015 184.318C184.559 184.318 184.122 184.499 183.8 184.821C183.478 185.143 183.297 185.58 183.297 186.035L183.323 217.604C183.323 217.83 183.368 218.053 183.454 218.262C183.54 218.47 183.667 218.659 183.826 218.819C183.986 218.978 184.175 219.105 184.384 219.191C184.592 219.277 184.816 219.322 185.041 219.322L221.912 219.19Z" stroke="#CF8E90" stroke-width="2"/>
<path d="M270.888 217.974C275.011 208.076 277.61 197.333 278.685 185.744C278.756 184.811 278.333 184.344 277.416 184.344H243.902C242.863 184.344 242.325 184.864 242.29 185.903C241.99 196.259 240.484 206.755 237.77 217.393C237.453 218.643 237.938 219.269 239.224 219.269L268.985 219.242C269.392 219.242 269.79 219.122 270.129 218.896C270.467 218.671 270.731 218.35 270.888 217.974Z" stroke="#CF8E90" stroke-width="2"/>
<path d="M145.739 275.566C147.554 276.129 147.756 275.777 146.347 274.509C135.246 264.576 127.281 253.586 122.453 241.539C121.484 239.126 120.453 236.74 119.361 234.38C118.779 233.147 117.801 232.531 116.427 232.531L91.7144 232.636C90.1462 232.636 89.8026 233.288 90.6836 234.591C104.163 254.739 122.515 268.397 145.739 275.566Z" stroke="#CF8E90" stroke-width="2"/>
<path d="M168.073 270.546C168.228 270.596 168.393 270.61 168.554 270.586C168.715 270.563 168.867 270.502 168.999 270.409C169.131 270.316 169.237 270.194 169.311 270.052C169.384 269.911 169.422 269.754 169.421 269.595L169.394 234.116C169.394 233.059 168.866 232.531 167.808 232.531L136.62 232.61C135.44 232.61 135.061 233.165 135.484 234.274C141.668 249.993 151.818 264.998 168.073 270.546Z" stroke="#CF8E90" stroke-width="2"/>
<path d="M184.645 270.678C201.772 264.311 209.912 250.653 217.392 234.327C217.939 233.147 217.551 232.557 216.229 232.557L185.094 232.584C183.896 232.584 183.306 233.182 183.323 234.38L183.376 269.78C183.376 269.932 183.412 270.082 183.482 270.218C183.552 270.353 183.653 270.47 183.778 270.558C183.902 270.646 184.045 270.703 184.196 270.724C184.347 270.744 184.501 270.729 184.645 270.678Z" stroke="#CF8E90" stroke-width="2"/>
<path d="M232.775 234.274C227.039 249.808 218.661 263.519 207.164 273.373C204.661 275.521 204.97 276.067 208.089 275.011C230.414 267.473 248.343 253.841 261.875 234.116C262.598 233.077 262.324 232.557 261.056 232.557L235.18 232.584C233.982 232.584 233.18 233.147 232.775 234.274Z" stroke="#CF8E90" stroke-width="2"/>
<path d="M350.286 177.951C350.286 200.779 345.787 223.383 337.047 244.473C328.307 265.563 315.497 284.726 299.348 300.867C283.198 317.009 264.026 329.813 242.926 338.549C221.826 347.285 199.211 351.781 176.372 351.781C153.533 351.781 130.918 347.285 109.818 338.549C88.7177 329.813 69.5456 317.009 53.3962 300.867C20.781 268.268 2.45801 224.053 2.45801 177.951C2.45801 131.848 20.781 87.6341 53.3962 55.0347C86.0114 22.4353 130.247 4.12109 176.372 4.12109C222.497 4.12109 266.732 22.4353 299.348 55.0347C331.963 87.6341 350.286 131.848 350.286 177.951ZM317.022 179.887C317.534 143.268 303.209 107.942 277.198 81.68C251.188 55.4183 215.623 40.3721 178.327 39.8516C159.86 39.5939 141.524 42.91 124.366 49.6107C107.208 56.3114 91.5634 66.2654 78.3261 78.9044C65.0889 91.5435 54.5179 106.62 47.2169 123.273C39.9159 139.926 36.0277 157.83 35.7744 175.962C35.2628 212.581 49.5879 247.907 75.5983 274.169C101.609 300.431 137.174 315.477 174.469 315.997C192.936 316.255 211.272 312.939 228.431 306.238C245.589 299.538 261.233 289.584 274.47 276.945C287.708 264.306 298.279 249.229 305.58 232.576C312.881 215.923 316.769 198.019 317.022 179.887Z" fill="#9E1D20"/>
<path d="M317.022 179.887C316.769 198.019 312.881 215.923 305.58 232.576C298.279 249.229 287.708 264.306 274.471 276.945C261.233 289.584 245.589 299.538 228.431 306.239C211.273 312.939 192.936 316.255 174.469 315.998C137.174 315.477 101.609 300.431 75.5983 274.169C49.588 247.908 35.2629 212.581 35.7745 175.962C36.0278 157.83 39.9159 139.927 47.217 123.273C54.518 106.62 65.0889 91.5437 78.3262 78.9047C91.5634 66.2657 107.208 56.3117 124.366 49.611C141.524 42.9103 159.86 39.5941 178.327 39.8518C215.623 40.3724 251.188 55.4185 277.198 81.6803C303.209 107.942 317.534 143.268 317.022 179.887ZM292.517 173.422C291.993 158.44 288.471 143.71 282.151 130.073C275.83 116.436 266.836 104.158 255.68 93.9408C244.525 83.7237 231.428 75.7674 217.136 70.526C202.845 65.2847 187.639 62.861 172.386 63.3934C141.583 64.4685 112.461 77.519 91.4268 99.6738C70.3929 121.829 59.17 151.273 60.2271 181.53C60.7505 196.511 64.2729 211.241 70.5933 224.878C76.9137 238.516 85.9083 250.793 97.0634 261.011C108.219 271.228 121.316 279.184 135.608 284.425C149.899 289.667 165.105 292.09 180.358 291.558C211.161 290.483 240.283 277.432 261.317 255.278C282.351 233.123 293.574 203.678 292.517 173.422Z" fill="white"/>
<path d="M292.517 173.422C293.574 203.678 282.351 233.123 261.317 255.277C240.283 277.432 211.161 290.483 180.358 291.558C165.105 292.09 149.899 289.667 135.608 284.425C121.316 279.184 108.219 271.228 97.0635 261.01C85.9083 250.793 76.9138 238.516 70.5934 224.878C64.273 211.241 60.7505 196.511 60.2271 181.529C59.1701 151.273 70.3929 121.829 91.4268 99.6738C112.461 77.5189 141.583 64.4685 172.386 63.3933C187.639 62.8609 202.845 65.2846 217.136 70.526C231.428 75.7673 244.525 83.7236 255.681 93.9407C266.836 104.158 275.83 116.436 282.151 130.073C288.471 143.71 291.993 158.44 292.517 173.422ZM120.075 119.779C126.735 104.298 133.819 91.8287 146.585 80.337C147.748 79.2978 147.58 78.9896 146.082 79.4123C123.96 85.8319 104.613 100.652 91.3445 119.515C90.3225 120.977 90.7014 121.707 92.481 121.707L117.035 121.76C118.48 121.76 119.493 121.1 120.075 119.779ZM206.133 79.3067C204.494 78.7783 204.327 79.0689 205.631 80.1784C217.754 90.5519 226.634 103.867 232.273 120.122C232.435 120.586 232.737 120.99 233.139 121.278C233.541 121.566 234.023 121.725 234.52 121.734H260.977C261.104 121.738 261.23 121.706 261.341 121.642C261.452 121.578 261.542 121.484 261.603 121.372C261.663 121.26 261.691 121.132 261.683 121.005C261.675 120.878 261.632 120.755 261.558 120.651C248.255 100.767 229.78 86.9855 206.133 79.3067ZM135.986 118.537C135.782 118.858 135.667 119.227 135.656 119.607C135.644 119.987 135.734 120.363 135.918 120.696C136.102 121.028 136.373 121.305 136.701 121.497C137.029 121.689 137.403 121.789 137.783 121.787L167.306 121.76C167.867 121.76 168.405 121.538 168.801 121.141C169.198 120.745 169.421 120.207 169.421 119.647V86.6773C169.425 86.2911 169.323 85.9112 169.126 85.5788C168.93 85.2464 168.646 84.9742 168.305 84.7918C167.965 84.6094 167.581 84.5237 167.195 84.5441C166.809 84.5644 166.436 84.69 166.117 84.9072L150.681 95.4744C150.439 95.6332 150.232 95.84 150.073 96.082L135.986 118.537ZM185.253 85.0658C183.949 84.5726 183.297 85.0217 183.297 86.4131L183.35 120.122C183.367 121.179 183.896 121.707 184.936 121.707L215.569 121.734C216.908 121.734 217.313 121.126 216.784 119.911C210.283 105.17 200.741 90.8249 185.253 85.0658ZM82.1995 137.188C77.301 147.738 74.6051 158.455 74.1117 169.339C74.1045 169.482 74.1266 169.625 74.1765 169.76C74.2264 169.894 74.3031 170.017 74.402 170.12C74.5009 170.224 74.6199 170.307 74.7517 170.363C74.8836 170.42 75.0255 170.449 75.1689 170.448H108.921C109.943 170.448 110.472 169.929 110.507 168.89C110.842 158.094 112.33 147.615 114.974 137.452C115.273 136.272 114.815 135.682 113.599 135.682L84.4725 135.735C83.3977 135.735 82.64 136.22 82.1995 137.188ZM131.202 135.788C130.827 135.791 130.466 135.929 130.184 136.176C129.903 136.424 129.72 136.764 129.669 137.135L125.414 168.652C125.384 168.872 125.401 169.095 125.464 169.307C125.527 169.52 125.635 169.716 125.78 169.884C125.925 170.051 126.104 170.186 126.305 170.279C126.506 170.371 126.725 170.42 126.947 170.422L167.888 170.475C168.301 170.475 168.698 170.311 168.99 170.018C169.283 169.726 169.447 169.33 169.447 168.916L169.394 137.188C169.394 136.775 169.23 136.378 168.938 136.086C168.645 135.794 168.248 135.63 167.835 135.63L131.202 135.788ZM226.432 170.422C226.633 170.421 226.831 170.376 227.013 170.291C227.195 170.206 227.357 170.083 227.487 169.93C227.618 169.777 227.714 169.598 227.769 169.405C227.824 169.212 227.836 169.009 227.806 168.811L223.207 136.898C223.156 136.564 222.986 136.26 222.729 136.042C222.472 135.823 222.144 135.705 221.806 135.709H184.698C184.326 135.709 183.97 135.856 183.707 136.119C183.444 136.382 183.297 136.738 183.297 137.109L183.35 169.048C183.35 169.42 183.497 169.776 183.76 170.038C184.023 170.301 184.379 170.448 184.751 170.448L226.432 170.422ZM242.924 169.762C242.95 169.96 243.048 170.142 243.199 170.273C243.35 170.405 243.544 170.477 243.744 170.475L278.738 170.369C278.861 170.368 278.982 170.34 279.092 170.286C279.203 170.232 279.3 170.154 279.376 170.058C279.452 169.961 279.505 169.849 279.532 169.729C279.559 169.609 279.559 169.485 279.531 169.365L271.443 136.396C271.402 136.216 271.301 136.056 271.157 135.941C271.013 135.826 270.834 135.763 270.65 135.762L239.013 135.656C238.896 135.655 238.78 135.679 238.673 135.727C238.566 135.774 238.47 135.844 238.392 135.932C238.315 136.02 238.257 136.123 238.223 136.235C238.188 136.347 238.178 136.465 238.193 136.581L242.924 169.762ZM81.248 217.604C81.7061 218.714 82.5343 219.269 83.7325 219.269L112.991 219.242C113.223 219.244 113.452 219.194 113.661 219.094C113.87 218.995 114.054 218.85 114.199 218.669C114.344 218.489 114.446 218.278 114.498 218.052C114.55 217.827 114.55 217.592 114.498 217.367C112.013 206.659 110.524 196.197 110.031 185.982C109.978 184.89 109.405 184.344 108.313 184.344H75.1689C74.0412 184.344 73.5214 184.908 73.6095 186.035C74.6491 197.448 77.1953 207.971 81.248 217.604ZM126.656 184.371C126.404 184.372 126.156 184.427 125.927 184.532C125.698 184.637 125.494 184.79 125.329 184.98C125.164 185.17 125.041 185.393 124.969 185.634C124.897 185.875 124.878 186.129 124.911 186.378L129.352 217.684C129.415 218.101 129.625 218.483 129.945 218.759C130.265 219.035 130.674 219.188 131.096 219.189L167.65 219.295C167.882 219.295 168.113 219.249 168.328 219.16C168.542 219.071 168.738 218.941 168.902 218.777C169.067 218.612 169.197 218.417 169.286 218.203C169.375 217.988 169.421 217.758 169.421 217.525L169.447 186.061C169.447 185.592 169.261 185.142 168.928 184.81C168.596 184.478 168.146 184.291 167.676 184.291L126.656 184.371ZM221.912 219.189C222.329 219.194 222.734 219.046 223.05 218.773C223.366 218.501 223.572 218.123 223.63 217.71L227.806 186.299C227.84 186.057 227.822 185.81 227.752 185.575C227.683 185.34 227.564 185.123 227.404 184.938C227.244 184.753 227.046 184.604 226.824 184.502C226.601 184.399 226.359 184.346 226.115 184.344L185.015 184.318C184.559 184.318 184.122 184.499 183.8 184.821C183.478 185.143 183.297 185.58 183.297 186.035L183.323 217.604C183.323 217.83 183.368 218.053 183.454 218.262C183.54 218.47 183.667 218.659 183.826 218.819C183.986 218.978 184.175 219.105 184.384 219.191C184.592 219.277 184.816 219.322 185.041 219.322L221.912 219.189ZM270.888 217.974C275.011 208.076 277.61 197.333 278.685 185.744C278.756 184.811 278.333 184.344 277.416 184.344H243.902C242.863 184.344 242.325 184.864 242.29 185.903C241.991 196.259 240.484 206.755 237.77 217.393C237.453 218.644 237.938 219.269 239.224 219.269L268.985 219.242C269.392 219.242 269.79 219.122 270.129 218.896C270.467 218.671 270.732 218.35 270.888 217.974ZM145.739 275.565C147.554 276.129 147.756 275.777 146.347 274.509C135.246 264.575 127.281 253.586 122.453 241.539C121.484 239.126 120.453 236.74 119.361 234.38C118.78 233.147 117.802 232.531 116.427 232.531L91.7145 232.636C90.1463 232.636 89.8027 233.288 90.6837 234.591C104.163 254.739 122.515 268.397 145.739 275.565ZM168.073 270.546C168.228 270.596 168.393 270.61 168.554 270.586C168.715 270.562 168.867 270.501 168.999 270.409C169.131 270.316 169.237 270.194 169.311 270.052C169.384 269.911 169.422 269.754 169.421 269.595L169.394 234.116C169.394 233.059 168.866 232.531 167.808 232.531L136.62 232.61C135.44 232.61 135.061 233.165 135.484 234.274C141.669 249.993 151.818 264.998 168.073 270.546ZM184.645 270.678C201.772 264.311 209.913 250.653 217.392 234.327C217.939 233.147 217.551 232.557 216.229 232.557L185.094 232.583C183.896 232.583 183.306 233.182 183.323 234.38L183.376 269.78C183.376 269.932 183.412 270.082 183.482 270.218C183.552 270.353 183.653 270.469 183.778 270.557C183.902 270.645 184.046 270.702 184.197 270.723C184.347 270.744 184.501 270.729 184.645 270.678ZM232.775 234.274C227.04 249.808 218.661 263.519 207.164 273.373C204.662 275.521 204.97 276.067 208.089 275.011C230.414 267.473 248.343 253.841 261.875 234.116C262.598 233.077 262.325 232.557 261.056 232.557L235.18 232.583C233.982 232.583 233.18 233.147 232.775 234.274Z" fill="#9E1D20"/>
<path d="M146.584 80.337C133.818 91.8288 126.735 104.298 120.075 119.779C119.493 121.1 118.48 121.76 117.035 121.76L92.4809 121.707C90.7012 121.707 90.3224 120.977 91.3444 119.515C104.613 100.652 123.96 85.8319 146.082 79.4123C147.58 78.9897 147.747 79.2979 146.584 80.337Z" fill="white"/>
<path d="M206.133 79.3064C229.779 86.9852 248.254 100.767 261.558 120.65C261.632 120.755 261.675 120.877 261.683 121.005C261.691 121.132 261.663 121.259 261.602 121.372C261.542 121.484 261.451 121.578 261.341 121.642C261.23 121.706 261.104 121.737 260.976 121.734H234.519C234.022 121.725 233.541 121.566 233.139 121.278C232.737 120.99 232.435 120.586 232.273 120.122C226.634 103.866 217.753 90.5517 205.631 80.1782C204.327 79.0687 204.494 78.7781 206.133 79.3064Z" fill="white"/>
<path d="M135.986 118.537L150.073 96.0819C150.232 95.8399 150.439 95.6331 150.681 95.4743L166.117 84.9072C166.436 84.6899 166.809 84.5643 167.195 84.544C167.581 84.5236 167.965 84.6093 168.305 84.7917C168.646 84.9741 168.93 85.2463 169.126 85.5787C169.323 85.9111 169.425 86.291 169.421 86.6772V119.647C169.421 120.207 169.198 120.745 168.801 121.141C168.405 121.537 167.867 121.76 167.306 121.76L137.783 121.787C137.403 121.789 137.029 121.689 136.701 121.497C136.373 121.305 136.102 121.028 135.918 120.696C135.734 120.363 135.643 119.987 135.655 119.607C135.667 119.227 135.781 118.858 135.986 118.537Z" fill="white"/>
<path d="M185.253 85.0656C200.741 90.8247 210.283 105.17 216.785 119.911C217.313 121.126 216.908 121.734 215.569 121.734L184.936 121.707C183.896 121.707 183.367 121.179 183.35 120.122L183.297 86.4129C183.297 85.0216 183.949 84.5725 185.253 85.0656Z" fill="white"/>
<path d="M636.424 199.402L656.829 115.024C657.093 113.985 656.679 113.456 655.586 113.439L645.12 113.412C643.552 113.395 642.644 112.611 642.398 111.061C641.129 103.558 641.208 96.1612 642.635 88.8699C642.953 87.2848 643.913 86.4923 645.516 86.4923H705.144C705.635 86.4907 706.11 86.662 706.487 86.976C706.864 87.29 707.119 87.7267 707.206 88.2095C708.88 96.945 708.765 105.355 706.862 113.439C706.633 114.407 706.025 114.892 705.038 114.892L695.84 114.865C694.977 114.865 694.431 115.279 694.202 116.107L657.172 253.004C656.908 253.955 656.291 254.431 655.322 254.431H615.412C615.149 254.432 614.893 254.344 614.687 254.18C614.48 254.017 614.335 253.789 614.275 253.533L589.193 140.86C588.805 139.117 588.4 139.117 587.977 140.86L561.652 253.48C561.423 254.466 560.806 254.959 559.802 254.959H520.552C519.53 254.959 518.896 254.466 518.649 253.48L484.606 116.45C484.342 115.393 483.664 114.865 482.571 114.865L473.241 114.892C472.025 114.892 471.294 114.293 471.048 113.095C469.391 104.624 469.515 96.2317 471.418 87.9189C471.629 86.9678 472.219 86.4923 473.188 86.4923H535.803C536.228 86.4908 536.64 86.6379 536.968 86.908C537.296 87.1781 537.52 87.5544 537.6 87.9717C539.291 96.3902 539.142 104.518 537.151 112.355C536.957 113.095 536.49 113.456 535.75 113.439L525.838 113.412C524.622 113.412 524.147 114.002 524.411 115.182L543.705 200.776C544.164 202.766 544.613 202.766 545.053 200.776L571.035 86.7829C571.089 86.5421 571.226 86.327 571.423 86.1733C571.62 86.0195 571.866 85.9363 572.118 85.9375H608.751C609.104 85.936 609.446 86.056 609.721 86.2774C609.995 86.4987 610.185 86.8079 610.258 87.1527L634.416 199.376C635.05 202.3 635.719 202.308 636.424 199.402Z" fill="#040707"/>
<path d="M410.178 223.02V116.477C410.178 115.402 409.649 114.865 408.592 114.865L397.174 114.891C395.923 114.891 395.183 114.284 394.954 113.069C393.28 104.58 393.403 96.2052 395.324 87.9452C395.535 86.9765 396.134 86.4922 397.121 86.4922H463.118C463.571 86.4912 464.01 86.6494 464.358 86.9392C464.706 87.229 464.941 87.6318 465.021 88.0773C466.678 96.9185 466.554 105.434 464.651 113.623C464.568 113.983 464.363 114.304 464.07 114.534C463.778 114.765 463.414 114.89 463.039 114.891L451.304 114.865C451.127 114.865 450.951 114.901 450.788 114.97C450.624 115.039 450.476 115.14 450.351 115.267C450.225 115.395 450.126 115.546 450.058 115.713C449.991 115.88 449.956 116.058 449.956 116.239L449.929 223.258C449.929 224.174 450.396 224.631 451.33 224.631L463.118 224.605C463.571 224.604 464.01 224.764 464.362 225.058C464.714 225.352 464.956 225.761 465.048 226.217C466.669 234.776 466.563 243.159 464.731 251.366C464.624 251.824 464.367 252.232 464.002 252.525C463.638 252.817 463.187 252.977 462.722 252.978H397.068C395.87 252.978 395.156 252.388 394.927 251.208C393.288 242.525 393.412 234.142 395.297 226.058C395.526 225.107 396.134 224.631 397.121 224.631L408.565 224.605C409.64 224.605 410.178 224.077 410.178 223.02Z" fill="#040707"/>
<path d="M768.578 118.194L768.604 153.25C768.604 153.748 768.802 154.225 769.154 154.577C769.506 154.928 769.983 155.126 770.481 155.126H822.047C822.493 155.125 822.925 155.28 823.268 155.565C823.611 155.85 823.843 156.246 823.924 156.685C825.739 165.772 825.694 174.895 823.791 184.054C823.527 185.286 822.761 185.903 821.492 185.903L770.005 185.929C769.071 185.929 768.604 186.405 768.604 187.356L768.578 222.994C768.578 224.068 769.124 224.605 770.216 224.605L784.938 224.631C785.507 224.633 786.057 224.831 786.495 225.192C786.934 225.554 787.234 226.056 787.344 226.613C788.982 234.943 788.797 243.406 786.789 252C786.63 252.652 786.216 252.978 785.546 252.978H715.743C714.65 252.978 713.998 252.441 713.787 251.366C712.06 242.666 712.148 234.309 714.051 226.296C714.316 225.186 715.02 224.631 716.166 224.631L726.897 224.605C727.83 224.587 728.297 224.112 728.297 223.178V116.265C728.297 115.332 727.822 114.865 726.87 114.865L715.426 114.891C714.905 114.89 714.402 114.71 714.002 114.382C713.602 114.054 713.33 113.6 713.232 113.095C711.558 104.5 711.69 96.1435 713.628 88.0244C713.875 87.0029 714.518 86.4922 715.558 86.4922H843.826C844.742 86.4922 845.2 86.9501 845.2 87.8659V134.652C845.2 135.674 844.725 136.36 843.773 136.713C833.641 140.411 823.615 140.376 813.695 136.607C812.814 136.29 812.373 135.665 812.373 134.731L812.426 118.088C812.426 116.873 811.827 116.265 810.629 116.265L770.481 116.292C769.212 116.292 768.578 116.926 768.578 118.194Z" fill="#040707"/>
<path d="M82.1995 137.188C82.64 136.22 83.3976 135.735 84.4725 135.735L113.599 135.683C114.815 135.683 115.273 136.273 114.974 137.453C112.33 147.615 110.842 158.094 110.507 168.89C110.471 169.929 109.943 170.449 108.921 170.449H75.1689C75.0255 170.449 74.8836 170.42 74.7517 170.363C74.6199 170.307 74.5009 170.224 74.402 170.121C74.3031 170.017 74.2264 169.894 74.1765 169.76C74.1265 169.625 74.1045 169.482 74.1117 169.339C74.605 158.455 77.301 147.738 82.1995 137.188Z" fill="white"/>
<path d="M131.202 135.788L167.835 135.629C168.248 135.629 168.645 135.794 168.937 136.086C169.23 136.378 169.394 136.775 169.394 137.188L169.447 168.916C169.447 169.329 169.283 169.726 168.99 170.018C168.698 170.31 168.301 170.475 167.888 170.475L126.947 170.422C126.725 170.42 126.506 170.371 126.305 170.278C126.104 170.185 125.925 170.051 125.78 169.883C125.635 169.716 125.527 169.519 125.464 169.307C125.401 169.095 125.384 168.871 125.414 168.652L129.669 137.135C129.72 136.764 129.903 136.423 130.184 136.176C130.466 135.929 130.827 135.791 131.202 135.788Z" fill="white"/>
<path d="M226.432 170.422L184.751 170.448C184.379 170.448 184.023 170.301 183.76 170.038C183.497 169.775 183.35 169.419 183.35 169.048L183.297 137.109C183.297 136.737 183.444 136.381 183.707 136.119C183.97 135.856 184.326 135.709 184.698 135.709H221.806C222.144 135.705 222.472 135.823 222.729 136.041C222.986 136.26 223.156 136.564 223.207 136.897L227.806 168.81C227.836 169.009 227.824 169.212 227.769 169.405C227.714 169.598 227.618 169.777 227.487 169.93C227.357 170.083 227.195 170.206 227.013 170.291C226.831 170.376 226.633 170.42 226.432 170.422Z" fill="white"/>
<path d="M242.924 169.761L238.193 136.58C238.178 136.464 238.188 136.346 238.223 136.234C238.257 136.123 238.315 136.019 238.393 135.932C238.47 135.844 238.566 135.774 238.673 135.727C238.78 135.679 238.896 135.655 239.013 135.656L270.65 135.761C270.834 135.763 271.013 135.826 271.157 135.941C271.301 136.056 271.402 136.216 271.443 136.395L279.531 169.365C279.559 169.485 279.559 169.609 279.532 169.729C279.505 169.849 279.452 169.961 279.376 170.057C279.3 170.154 279.203 170.232 279.092 170.286C278.982 170.34 278.861 170.368 278.738 170.369L243.744 170.475C243.544 170.476 243.35 170.405 243.199 170.273C243.048 170.142 242.95 169.96 242.924 169.761Z" fill="white"/>
<path d="M81.2479 217.604C77.1952 207.971 74.649 197.448 73.6094 186.035C73.5213 184.908 74.0411 184.344 75.1688 184.344H108.313C109.405 184.344 109.978 184.89 110.031 185.982C110.524 196.197 112.013 206.659 114.498 217.367C114.55 217.592 114.55 217.827 114.498 218.052C114.446 218.278 114.344 218.489 114.199 218.669C114.054 218.85 113.87 218.995 113.661 219.094C113.452 219.194 113.223 219.244 112.991 219.242L83.7324 219.269C82.5342 219.269 81.706 218.714 81.2479 217.604Z" fill="white"/>
<path d="M126.656 184.371L167.676 184.292C168.146 184.292 168.596 184.478 168.928 184.81C169.26 185.142 169.447 185.592 169.447 186.061L169.421 217.525C169.421 217.758 169.375 217.988 169.286 218.203C169.197 218.417 169.066 218.612 168.902 218.777C168.737 218.941 168.542 219.072 168.327 219.16C168.113 219.249 167.882 219.295 167.65 219.295L131.096 219.19C130.673 219.188 130.265 219.035 129.945 218.759C129.625 218.483 129.415 218.102 129.352 217.684L124.911 186.379C124.877 186.129 124.897 185.875 124.969 185.634C125.041 185.393 125.164 185.17 125.329 184.98C125.494 184.79 125.698 184.638 125.927 184.532C126.155 184.427 126.404 184.372 126.656 184.371Z" fill="white"/>
<path d="M221.912 219.19L185.041 219.322C184.816 219.322 184.592 219.277 184.384 219.191C184.175 219.105 183.986 218.978 183.826 218.819C183.667 218.659 183.54 218.47 183.454 218.262C183.368 218.053 183.323 217.83 183.323 217.604L183.297 186.035C183.297 185.58 183.478 185.143 183.8 184.821C184.122 184.499 184.559 184.318 185.015 184.318L226.115 184.344C226.359 184.346 226.601 184.399 226.824 184.502C227.046 184.604 227.244 184.753 227.404 184.938C227.564 185.123 227.683 185.34 227.752 185.575C227.822 185.81 227.84 186.057 227.806 186.299L223.63 217.71C223.572 218.123 223.366 218.501 223.05 218.773C222.734 219.046 222.329 219.194 221.912 219.19Z" fill="white"/>
<path d="M270.888 217.974C270.731 218.35 270.467 218.671 270.129 218.896C269.79 219.122 269.392 219.242 268.985 219.242L239.224 219.269C237.938 219.269 237.453 218.643 237.77 217.393C240.484 206.755 241.99 196.259 242.29 185.903C242.325 184.864 242.863 184.344 243.902 184.344H277.416C278.333 184.344 278.756 184.811 278.685 185.744C277.61 197.333 275.011 208.076 270.888 217.974Z" fill="white"/>
<path d="M145.739 275.565C122.515 268.397 104.163 254.739 90.6836 234.591C89.8026 233.288 90.1462 232.636 91.7144 232.636L116.427 232.53C117.801 232.53 118.779 233.147 119.361 234.38C120.453 236.74 121.484 239.126 122.453 241.539C127.281 253.585 135.246 264.575 146.347 274.508C147.756 275.776 147.554 276.129 145.739 275.565Z" fill="white"/>
<path d="M168.073 270.546C151.818 264.998 141.668 249.993 135.484 234.274C135.061 233.164 135.44 232.61 136.62 232.61L167.808 232.53C168.866 232.53 169.394 233.059 169.394 234.115L169.421 269.595C169.422 269.754 169.384 269.91 169.311 270.052C169.237 270.193 169.131 270.315 168.999 270.408C168.867 270.501 168.715 270.562 168.554 270.586C168.393 270.61 168.228 270.596 168.073 270.546Z" fill="white"/>
<path d="M184.645 270.678C184.501 270.728 184.347 270.744 184.196 270.723C184.045 270.702 183.902 270.645 183.778 270.557C183.653 270.469 183.552 270.353 183.482 270.217C183.412 270.082 183.376 269.932 183.376 269.779L183.323 234.379C183.306 233.182 183.896 232.583 185.094 232.583L216.229 232.557C217.551 232.557 217.939 233.147 217.392 234.327C209.912 250.653 201.772 264.311 184.645 270.678Z" fill="white"/>
<path d="M207.164 273.372C218.661 263.518 227.039 249.808 232.775 234.274C233.18 233.147 233.982 232.583 235.18 232.583L261.056 232.557C262.324 232.557 262.598 233.076 261.875 234.115C248.343 253.841 230.414 267.472 208.089 275.01C204.97 276.067 204.661 275.521 207.164 273.372Z" fill="white"/>
<path d="M409.068 290.65V340.078C409.068 341.364 409.693 341.866 410.944 341.584C411.913 341.355 412.918 341.32 413.957 341.478C415.543 341.725 416.327 342.649 416.31 344.252L416.23 348.584C416.223 349.084 416.017 349.562 415.656 349.913C415.295 350.264 414.808 350.46 414.301 350.46H391.042C390.546 350.46 390.07 350.264 389.715 349.914C389.359 349.564 389.153 349.087 389.139 348.584L388.98 343.961C388.945 342.817 389.491 342.138 390.619 341.927L393.949 341.32C395.042 341.108 395.588 340.439 395.588 339.312L395.773 290.888C395.773 289.778 395.218 289.232 394.108 289.25L390.857 289.303C390.413 289.31 389.984 289.139 389.662 288.828C389.341 288.516 389.153 288.089 389.139 287.638L389.033 282.038C389.016 280.629 389.72 279.924 391.148 279.924H414.248C414.681 279.925 415.099 280.08 415.428 280.36C415.758 280.641 415.976 281.03 416.045 281.457C416.415 283.57 416.424 285.719 416.072 287.903C415.948 288.607 415.534 289.03 414.83 289.171C413.579 289.435 412.319 289.417 411.05 289.118C410.816 289.057 410.571 289.051 410.334 289.1C410.097 289.149 409.875 289.251 409.683 289.399C409.492 289.546 409.337 289.736 409.23 289.953C409.124 290.17 409.068 290.408 409.068 290.65Z" fill="#040707"/>
<path d="M495.1 310.807C495.117 319.349 495.126 328.005 495.126 336.776C495.152 343.829 501.39 343.327 505.936 340.976C506.103 340.889 506.289 340.847 506.477 340.853C506.664 340.86 506.847 340.915 507.007 341.014C507.167 341.112 507.299 341.251 507.389 341.416C507.479 341.58 507.525 341.766 507.522 341.953L507.548 347.686C507.548 348.901 506.967 349.676 505.804 350.011C496.474 352.706 484.739 352.494 483.417 340.157C482.518 331.827 482.386 322.07 483.021 310.886C483.091 309.724 482.536 309.134 481.356 309.116L477.391 309.09C476.281 309.09 475.691 308.535 475.62 307.425L475.356 302.459C475.341 302.222 475.376 301.985 475.457 301.763C475.539 301.54 475.665 301.337 475.829 301.166C475.993 300.995 476.19 300.859 476.409 300.768C476.628 300.677 476.863 300.632 477.1 300.636L480.906 300.662C481.805 300.68 482.254 300.231 482.254 299.315L482.281 291.258C482.281 289.901 482.889 288.924 484.104 288.325L493.17 283.808C494.544 283.121 495.223 283.543 495.205 285.076L495.047 298.998C495.047 300.108 495.602 300.662 496.712 300.662L503.69 300.636C504.8 300.618 505.46 301.155 505.672 302.247C505.989 303.797 506.024 305.391 505.778 307.029C505.584 308.438 504.773 309.142 503.346 309.142H496.791C495.663 309.125 495.1 309.68 495.1 310.807Z" fill="#040707"/>
<path d="M704.986 309.089L701.18 309.169C700.351 309.186 699.832 308.799 699.62 308.006C699.127 306.069 699.047 304.096 699.382 302.089C699.541 301.102 700.113 300.609 701.1 300.609L704.378 300.636C705.452 300.636 705.99 300.098 705.99 299.024L705.911 291.416C705.893 290.007 706.519 288.985 707.787 288.351L716.721 283.887C718.183 283.165 718.914 283.614 718.914 285.234V299.156C718.914 300.248 719.461 300.776 720.553 300.741L726.976 300.609C728.808 300.556 729.707 301.446 729.672 303.277L729.619 306.448C729.615 306.805 729.541 307.158 729.4 307.487C729.258 307.816 729.053 308.114 728.795 308.364C728.538 308.614 728.233 308.812 727.898 308.945C727.563 309.079 727.205 309.146 726.844 309.142L720.262 309.116C719.293 309.116 718.809 309.6 718.809 310.569C718.95 318.952 718.967 328.057 718.862 337.885C718.844 339.787 719.619 341.073 721.187 341.742C723.972 342.939 727.064 342.614 730.465 340.764C730.565 340.709 730.679 340.681 730.794 340.683C730.909 340.685 731.021 340.717 731.12 340.776C731.218 340.835 731.3 340.918 731.357 341.018C731.413 341.118 731.443 341.231 731.443 341.346L731.363 348.663C731.363 349.192 731.117 349.535 730.623 349.694C718.597 353.709 706.809 351.728 706.545 335.956C706.404 327.15 706.378 318.697 706.466 310.595C706.483 309.574 705.99 309.072 704.986 309.089Z" fill="#040707"/>
<path d="M525.468 329.035C521.239 329.035 520.12 330.902 522.112 334.636L523.486 337.198C524.446 338.995 525.895 340.484 527.668 341.494C529.44 342.503 531.463 342.992 533.503 342.905C539.582 342.658 545.238 340.853 550.472 337.489C550.492 337.478 550.514 337.472 550.537 337.47C550.559 337.469 550.58 337.472 550.599 337.48C550.618 337.488 550.633 337.5 550.643 337.516C550.653 337.531 550.658 337.549 550.657 337.568C550.921 340.597 550.991 343.671 550.868 346.788C550.851 347.352 550.595 347.766 550.102 348.03C543.353 351.482 536.596 352.82 529.829 352.045C497.32 348.347 502.156 296.356 533.212 299.474C549.256 301.059 553.802 313.581 553.22 327.609C553.168 328.56 552.674 329.035 551.74 329.035H525.468ZM522.455 320.74L539.265 320.476C539.387 320.472 539.506 320.445 539.617 320.395C539.728 320.346 539.828 320.275 539.912 320.186C539.995 320.098 540.06 319.994 540.104 319.881C540.147 319.767 540.167 319.646 540.164 319.525V319.076C540.14 317.639 539.882 316.221 539.405 314.902C538.928 313.583 538.242 312.389 537.386 311.388C536.529 310.387 535.519 309.599 534.413 309.069C533.307 308.538 532.126 308.276 530.939 308.297H530.358C529.171 308.318 528 308.621 526.913 309.19C525.825 309.758 524.842 310.582 524.02 311.612C523.198 312.642 522.552 313.86 522.12 315.195C521.689 316.53 521.479 317.956 521.504 319.393V319.842C521.507 319.963 521.534 320.083 521.584 320.194C521.634 320.305 521.705 320.405 521.793 320.488C521.882 320.571 521.986 320.637 522.099 320.68C522.213 320.723 522.334 320.744 522.455 320.74Z" fill="#040707"/>
<path d="M669.991 329.035C665.516 329.035 664.494 330.902 666.925 334.635C667.771 335.939 668.405 336.916 668.828 337.568C671.454 341.583 675.145 343.353 679.903 342.878C685.154 342.349 690.14 340.597 694.863 337.621C694.921 337.578 694.989 337.553 695.061 337.549C695.133 337.544 695.205 337.561 695.27 337.596C695.335 337.631 695.391 337.684 695.431 337.749C695.471 337.814 695.494 337.888 695.497 337.964L695.629 347.078C695.629 347.413 695.479 347.659 695.18 347.818C670.388 360.948 644.486 343.248 654.265 315.033C658.732 302.062 671.577 296.197 684.052 300.741C693.779 304.281 698.422 313.034 697.981 327.001C697.929 328.357 697.233 329.035 695.893 329.035H669.991ZM667.163 320.845L683.973 320.581C684.095 320.578 684.214 320.55 684.325 320.501C684.436 320.451 684.536 320.38 684.62 320.292C684.703 320.203 684.768 320.1 684.812 319.986C684.855 319.872 684.875 319.752 684.872 319.63V319.181C684.822 316.253 683.828 313.461 682.108 311.42C680.388 309.379 678.083 308.255 675.7 308.297H675.013C673.833 308.317 672.669 308.623 671.587 309.197C670.506 309.771 669.529 310.601 668.712 311.642C667.894 312.682 667.253 313.911 666.824 315.259C666.395 316.607 666.187 318.048 666.212 319.498V319.947C666.215 320.069 666.243 320.188 666.292 320.299C666.342 320.41 666.413 320.51 666.501 320.593C666.59 320.677 666.694 320.742 666.807 320.785C666.921 320.828 667.042 320.849 667.163 320.845Z" fill="#040707"/>
<path d="M438.617 305.708C446.731 297.571 462.299 296.99 467.929 308.456C469.409 311.485 470.079 315.465 469.938 320.396C469.691 327.899 469.682 334.997 469.911 341.689C469.929 342.517 470.352 342.931 471.18 342.931L475.118 342.905C475.946 342.887 476.369 343.292 476.387 344.12L476.572 349.35C476.607 350.354 476.122 350.856 475.118 350.856L453.207 350.883C452.914 350.883 452.625 350.824 452.355 350.711C452.085 350.597 451.841 350.431 451.637 350.222C451.432 350.013 451.272 349.765 451.165 349.493C451.058 349.22 451.006 348.93 451.013 348.637L451.092 344.569C451.11 343.459 451.683 342.896 452.81 342.878L455.348 342.852C456.317 342.852 456.802 342.359 456.802 341.372L456.749 315.773C456.731 311.229 454.458 308.843 449.93 308.614C449.278 308.579 448.634 308.605 448 308.693C442.344 309.503 439.322 312.753 438.934 318.442C438.476 325.504 438.318 332.91 438.459 340.659C438.476 341.733 439.022 342.306 440.097 342.376L442.688 342.561C443.639 342.614 444.124 343.116 444.141 344.067L444.247 348.796C444.282 349.905 443.745 350.46 442.635 350.46H420.856C420.316 350.46 419.798 350.249 419.417 349.872C419.035 349.495 418.821 348.985 418.821 348.452L418.794 344.701C418.794 344.119 419.025 343.562 419.437 343.15C419.848 342.739 420.406 342.508 420.988 342.508L424.292 342.482C425.472 342.482 426.063 341.892 426.063 340.712L426.089 310.675C426.089 309.6 425.552 309.081 424.477 309.116L421.067 309.169C420.169 309.186 419.622 308.755 419.429 307.874C419.059 306.043 419.059 304.246 419.429 302.485C419.622 301.605 420.169 301.164 421.067 301.164H435.763C436.855 301.164 437.366 301.71 437.296 302.802L437.164 305.048C437.075 306.562 437.56 306.782 438.617 305.708Z" fill="#040707"/>
<path d="M575.449 306.5C579.493 300.953 585.466 298.76 591.545 301.56C592.303 301.912 593.096 302.001 593.924 301.824C598.628 300.891 603.694 300.75 609.121 301.402C610.02 301.507 610.54 302.018 610.681 302.934L610.866 304.44C611.06 305.831 611.694 306.069 612.769 305.153C624.874 294.877 642.926 299.209 643.323 317.041C643.481 324.931 643.446 332.954 643.217 341.108C643.182 342.27 643.746 342.86 644.909 342.878L647.895 342.957C649.305 342.992 650.036 343.714 650.089 345.123L650.248 348.716C650.318 350.143 649.64 350.856 648.212 350.856L626.46 350.83C626.189 350.83 625.922 350.776 625.672 350.671C625.423 350.567 625.198 350.414 625.011 350.221C624.823 350.029 624.677 349.801 624.581 349.551C624.485 349.302 624.441 349.036 624.451 348.769L624.61 344.727C624.663 343.582 625.271 342.984 626.434 342.931L629.05 342.825C629.949 342.79 630.398 342.332 630.398 341.451L630.372 315.747C630.372 311.097 628.046 308.719 623.394 308.614C622.795 308.596 622.196 308.614 621.597 308.667C619.066 308.845 616.694 309.966 614.948 311.809C613.201 313.653 612.207 316.085 612.161 318.626L611.844 340.791C611.836 341.158 611.969 341.515 612.219 341.793C612.468 342.071 612.814 342.251 613.192 342.297L616.178 342.64C617.236 342.763 617.773 343.362 617.791 344.437L617.844 348.584C617.844 349.835 617.218 350.46 615.967 350.46L594.267 350.433C593.651 350.433 593.263 350.125 593.104 349.509C592.664 347.712 592.567 345.828 592.814 343.855C592.902 343.098 593.334 342.702 594.109 342.667L597.941 342.482C598.963 342.429 599.474 341.883 599.474 340.844L599.554 310.965C599.554 309.838 598.999 309.248 597.888 309.195L594.717 309.037C593.501 308.984 592.849 308.35 592.761 307.134L592.629 305.232C592.523 303.911 592.276 303.885 591.889 305.153C591.395 306.791 591.246 308.429 591.439 310.067C591.471 310.305 591.439 310.547 591.348 310.769C591.256 310.991 591.108 311.185 590.918 311.332C590.728 311.479 590.503 311.573 590.266 311.606C590.028 311.639 589.785 311.61 589.563 311.52C582.268 308.667 575.766 313.395 575.475 321.162C575.211 327.749 575.105 334.142 575.158 340.342C575.176 341.469 575.757 342.032 576.902 342.032H580.841C582.233 342.032 582.929 342.728 582.929 344.119L582.955 347.95C582.955 349.289 582.277 349.958 580.92 349.958L558.031 349.984C556.974 349.984 556.366 349.456 556.207 348.399L555.705 344.886C555.441 342.966 556.278 342.015 558.216 342.032L560.938 342.059C561.436 342.059 561.913 341.861 562.265 341.51C562.617 341.158 562.815 340.681 562.815 340.183L562.841 310.674C562.841 309.618 562.313 309.098 561.256 309.116L558.19 309.142C557.044 309.16 556.357 308.605 556.128 307.478C555.828 305.91 555.82 304.378 556.101 302.881C556.313 301.736 557.009 301.164 558.19 301.164H572.33C573.264 301.164 573.74 301.639 573.757 302.591V305.972C573.775 307.839 574.339 308.015 575.449 306.5Z" fill="#040707"/>
<path d="M644.301 429.344L644.274 404.221C644.257 399.606 641.94 397.237 637.323 397.114C636.724 397.097 636.125 397.105 635.526 397.141C633.003 397.325 630.64 398.45 628.903 400.293C627.167 402.137 626.182 404.565 626.143 407.1L625.799 429.344C625.782 430.26 626.231 430.762 627.147 430.85L629.817 431.14C631.156 431.281 631.808 432.021 631.773 433.36L631.693 437.111C631.676 438.344 631.05 438.96 629.817 438.96L609.28 438.934C607.271 438.934 606.214 437.939 606.108 435.949L606.003 434.073C605.981 433.656 606.044 433.239 606.189 432.849C606.334 432.458 606.558 432.101 606.845 431.801C607.133 431.501 607.479 431.265 607.861 431.105C608.244 430.946 608.655 430.868 609.069 430.876L612.399 430.929C613.439 430.947 613.958 430.445 613.958 429.423V376.086C613.958 374.906 613.359 374.324 612.161 374.342L609.412 374.421C608.337 374.439 607.685 373.919 607.456 372.863C606.998 370.89 607.034 369.006 607.562 367.209C607.738 366.663 608.108 366.39 608.672 366.39L625.033 366.417C625.404 366.417 625.761 366.564 626.023 366.827C626.286 367.089 626.434 367.445 626.434 367.817V390.932C626.434 392.165 626.936 392.421 627.94 391.699C640.31 382.928 656.988 388.317 657.252 405.172C657.375 413.326 657.375 421.375 657.252 429.318C657.234 430.427 657.78 430.956 658.891 430.903L661.481 430.797C661.823 430.779 662.165 430.831 662.485 430.949C662.806 431.068 663.098 431.251 663.344 431.486C663.589 431.722 663.783 432.005 663.913 432.319C664.043 432.632 664.105 432.968 664.097 433.307L664.018 437.164C664.004 437.652 663.801 438.116 663.45 438.456C663.1 438.796 662.63 438.987 662.142 438.987L640.838 438.934C640.361 438.932 639.898 438.773 639.521 438.482C639.143 438.191 638.872 437.783 638.75 437.322C638.416 435.984 638.31 434.698 638.433 433.465C638.539 432.25 639.156 431.44 640.283 431.035C641.006 430.771 641.702 430.718 642.371 430.876C643.658 431.158 644.301 430.647 644.301 429.344Z" fill="#040707"/>
<path d="M416.97 416.663L428.045 370.22C428.344 368.97 429.137 368.345 430.424 368.345L440.837 368.398C441.912 368.398 442.564 368.917 442.793 369.956L453.788 418.063C454.158 419.701 454.564 419.71 455.004 418.09L465.286 379.123C465.621 377.873 465.145 377.239 463.858 377.221L459.682 377.195C458.625 377.177 458.158 376.64 458.282 375.583L458.837 370.405C458.896 369.845 459.158 369.327 459.573 368.951C459.988 368.575 460.526 368.369 461.083 368.371H482.281C483.655 368.371 484.342 369.058 484.342 370.432L484.395 375.742C484.413 377.08 483.752 377.758 482.413 377.776L478.739 377.802C478.069 377.802 477.646 378.128 477.47 378.78L461.718 438.511C461.471 439.427 460.872 439.884 459.92 439.884H449.057C447.965 439.884 447.295 439.356 447.049 438.299L436.265 391.672C435.736 389.417 435.208 389.409 434.679 391.645L423.499 438.167C423.217 439.312 422.477 439.884 421.279 439.884H410.812C409.649 439.884 408.918 439.312 408.618 438.167L392.998 378.912C392.822 378.207 392.364 377.838 391.623 377.802L387.95 377.67C387.643 377.661 387.341 377.589 387.063 377.458C386.785 377.327 386.537 377.141 386.334 376.911C386.131 376.681 385.977 376.411 385.882 376.119C385.787 375.827 385.753 375.519 385.782 375.213L386.258 369.851C386.346 368.882 386.884 368.398 387.87 368.398L411.05 368.371C411.634 368.371 412.195 368.601 412.611 369.012C413.026 369.422 413.263 369.98 413.27 370.564L413.297 375.108C413.297 375.4 413.238 375.69 413.123 375.959C413.008 376.229 412.84 376.473 412.628 376.677C412.416 376.882 412.165 377.042 411.89 377.149C411.614 377.256 411.32 377.307 411.024 377.3L407.059 377.221C405.755 377.186 405.262 377.802 405.579 379.07L415.12 416.69C415.755 419.19 416.371 419.182 416.97 416.663Z" fill="#040707"/>
<path d="M545.82 399.043C545.838 407.708 545.846 416.426 545.846 425.196C545.846 432.408 552.137 431.563 556.842 429.529C557.846 429.089 558.348 429.423 558.348 430.533L558.322 436.133C558.322 437.261 557.784 438 556.709 438.352C541.459 443.398 533.345 437.296 533.371 421.392C533.371 413.872 533.389 406.422 533.424 399.043C533.424 398.846 533.385 398.652 533.311 398.47C533.236 398.289 533.127 398.125 532.989 397.987C532.851 397.849 532.688 397.741 532.508 397.668C532.329 397.595 532.137 397.56 531.944 397.563L528.323 397.642C527.195 397.66 526.57 397.105 526.446 395.978L525.944 391.646C525.803 390.536 526.279 389.84 527.371 389.559C528.675 389.206 529.997 389.083 531.336 389.189C532.446 389.259 532.992 388.748 532.975 387.656L532.922 378.463C532.923 378.247 532.982 378.036 533.094 377.854C533.206 377.672 533.366 377.526 533.556 377.433L545.159 371.647C545.231 371.611 545.312 371.594 545.392 371.598C545.473 371.602 545.551 371.626 545.62 371.668C545.689 371.71 545.746 371.77 545.785 371.84C545.825 371.91 545.846 371.989 545.846 372.07V387.762C545.846 388.126 545.988 388.476 546.241 388.734C546.494 388.991 546.837 389.136 547.194 389.136H553.723C555.855 389.136 556.833 390.193 556.657 392.306L556.366 395.397C556.242 396.894 555.432 397.634 553.934 397.616H547.247C546.296 397.616 545.82 398.092 545.82 399.043Z" fill="#040707"/>
<path d="M594.373 390.43C596.241 388.123 598.778 387.551 601.985 388.713C603.007 389.083 603.518 389.823 603.518 390.932L603.571 407.338C603.571 409.416 602.531 410.402 600.452 410.297L595.589 410.085C595.334 410.07 595.085 410.002 594.859 409.884C594.632 409.767 594.433 409.604 594.273 409.404C594.114 409.205 593.998 408.975 593.933 408.728C593.868 408.481 593.856 408.224 593.897 407.972C596.065 395.899 579.36 391.514 575.105 402.081C572.392 408.826 571.942 414.682 573.757 419.649C578.479 432.47 588.127 434.002 602.699 424.245C603.368 423.805 603.694 423.972 603.677 424.747L603.465 434.628C603.464 434.844 603.405 435.054 603.293 435.236C603.181 435.418 603.021 435.564 602.831 435.658C587.765 443.24 566.224 441.417 561.493 422.607C556.894 404.326 567.097 382.716 589.008 388.132C590.171 388.431 591.131 389.039 591.889 389.955C591.977 390.061 592.065 390.184 592.153 390.325C592.805 391.434 593.545 391.47 594.373 390.43Z" fill="#040707"/>
<path d="M508.632 405.489C507.971 391.593 489.84 397.986 482.519 402.715C482.443 402.769 482.353 402.801 482.26 402.807C482.167 402.813 482.074 402.793 481.991 402.749C481.909 402.705 481.841 402.639 481.794 402.558C481.747 402.478 481.723 402.385 481.726 402.292L481.673 394.208C481.673 393.68 481.902 393.292 482.36 393.046C495.655 385.622 521.398 383.166 521.9 404.828C522.077 412.701 522.077 420.556 521.9 428.393C521.865 429.749 522.535 430.445 523.909 430.48L526.658 430.559C527.468 430.595 527.953 431.017 528.112 431.827C528.464 433.659 528.499 435.385 528.217 437.005C528.059 437.956 527.486 438.441 526.499 438.458L512.755 438.485C512.033 438.485 511.302 438.132 510.562 437.428C510.332 437.199 510.174 436.935 510.086 436.635C509.645 435.174 508.87 434.962 507.76 436.001C501.099 442.315 486.298 442.051 480.087 434.073C474.51 426.887 475.911 415.316 484.792 411.248C491.875 408.025 499.54 407.919 507.126 407.232C508.183 407.127 508.685 406.545 508.632 405.489ZM501.602 431.167C507.504 428.842 509.804 424.096 508.5 416.928C508.341 416.082 507.839 415.677 506.993 415.712C502.87 415.906 498.897 416.408 495.073 417.218C484.792 419.411 488.465 436.371 501.602 431.167Z" fill="#040707"/>
<path d="M645.781 523.629C641.34 528.719 635.526 530.41 628.336 528.702C620.02 526.729 614.883 520.882 612.927 511.16C610.073 497.106 614.328 480.41 629.764 477.16C636.371 475.751 641.86 477.134 646.23 481.308C646.322 481.404 646.442 481.47 646.572 481.497C646.703 481.524 646.838 481.51 646.961 481.459C647.084 481.408 647.189 481.32 647.261 481.208C647.333 481.097 647.37 480.965 647.366 480.832V463.793C647.366 463.247 647.102 462.93 646.574 462.842C645.534 462.666 644.494 462.683 643.455 462.895C643.193 462.944 642.923 462.937 642.664 462.875C642.404 462.813 642.161 462.698 641.949 462.536C641.737 462.374 641.562 462.169 641.434 461.935C641.307 461.701 641.23 461.443 641.208 461.177L640.865 457.056C640.741 455.577 641.42 454.837 642.9 454.837H658.705C659.098 454.837 659.474 454.993 659.752 455.27C660.029 455.548 660.185 455.924 660.185 456.317V518.24C660.185 519.367 660.749 519.922 661.877 519.904L664.652 519.852C664.966 519.853 665.27 519.945 665.524 520.114C665.779 520.284 665.972 520.524 666.079 520.803C666.837 522.775 666.881 524.748 666.212 526.72C666.106 527.043 665.9 527.324 665.625 527.524C665.35 527.723 665.018 527.83 664.679 527.83L650.142 527.803C649.12 527.803 648.503 527.301 648.292 526.298L647.842 524.184C647.507 522.634 646.82 522.449 645.781 523.629ZM635.005 520.375C636.539 520.412 638.068 520.011 639.506 519.194C640.944 518.376 642.262 517.159 643.385 515.611C644.508 514.063 645.414 512.215 646.051 510.172C646.688 508.129 647.044 505.932 647.099 503.705C647.209 499.208 646.084 494.866 643.971 491.632C641.859 488.399 638.932 486.54 635.835 486.464C634.301 486.427 632.771 486.828 631.334 487.646C629.896 488.463 628.578 489.681 627.455 491.229C626.332 492.777 625.426 494.625 624.789 496.668C624.151 498.71 623.795 500.908 623.741 503.134C623.631 507.631 624.756 511.974 626.868 515.207C628.981 518.44 631.908 520.299 635.005 520.375Z" fill="#040707"/>
<path d="M761.679 470.846C765.883 470.846 769.291 467.44 769.291 463.238C769.291 459.036 765.883 455.63 761.679 455.63C757.475 455.63 754.067 459.036 754.067 463.238C754.067 467.44 757.475 470.846 761.679 470.846Z" fill="#040707"/>
<path d="M409.887 496.049C408.742 496.049 408.169 496.622 408.169 497.766V516.074C408.169 517.236 408.759 517.826 409.94 517.844L414.645 517.897C415.684 517.897 416.195 518.416 416.178 519.455L416.019 525.637C415.984 527.081 415.235 527.804 413.772 527.804H389.72C389.433 527.804 389.148 527.746 388.882 527.633C388.617 527.521 388.378 527.356 388.178 527.149C387.978 526.942 387.822 526.697 387.719 526.428C387.616 526.159 387.569 525.872 387.58 525.584L387.685 521.595C387.703 521.131 387.872 520.685 388.169 520.327C388.465 519.969 388.871 519.718 389.324 519.614L393.421 518.61C394.355 518.399 394.83 517.818 394.848 516.866L395.271 467.597C395.271 466.646 394.786 466.179 393.817 466.197L390.064 466.303C389.201 466.338 388.654 465.933 388.425 465.087C387.809 462.815 387.782 460.499 388.346 458.139C388.54 457.259 389.095 456.819 390.011 456.819L440.282 456.845C441.41 456.845 441.974 457.409 441.974 458.536V477.662C441.992 479.071 441.296 479.723 439.886 479.617L433.569 479.195C432.159 479.107 431.455 478.358 431.455 476.949L431.481 468.205C431.481 467.289 431.023 466.831 430.107 466.831L409.041 466.752C408.828 466.752 408.624 466.834 408.471 466.982C408.318 467.13 408.229 467.332 408.222 467.544L408.063 485.165C408.063 485.781 408.372 486.09 408.988 486.09H430.82C431.521 486.09 432.193 486.368 432.689 486.863C433.185 487.359 433.463 488.031 433.463 488.731L433.437 494.041C433.437 495.362 432.776 496.023 431.455 496.023L409.887 496.049Z" fill="#040707"/>
<path d="M736.782 487.41L736.834 515.149C736.835 515.71 736.959 516.262 737.197 516.764C737.434 517.267 737.78 517.708 738.209 518.055C740.429 519.834 743.61 519.799 747.75 517.95C747.943 517.869 748.154 517.84 748.362 517.865C748.569 517.889 748.766 517.967 748.932 518.091C749.099 518.214 749.228 518.378 749.309 518.567C749.389 518.755 749.417 518.962 749.389 519.165L748.543 525.082C748.479 525.527 748.289 525.946 747.995 526.291C747.701 526.637 747.314 526.895 746.878 527.037C732.024 531.898 724.306 525.188 724.333 510.051C724.333 502.425 724.342 494.922 724.359 487.543C724.359 486.574 723.875 486.09 722.906 486.09L718.967 486.116C718.245 486.116 717.787 485.764 717.593 485.059C717.047 483.104 716.906 481.149 717.17 479.195C717.227 478.755 717.443 478.35 717.777 478.054C718.112 477.758 718.544 477.591 718.994 477.583H722.747C723.575 477.583 723.989 477.16 723.989 476.315L723.91 468.231C723.909 467.607 724.084 466.996 724.416 466.467C724.748 465.939 725.223 465.515 725.786 465.246L734.667 460.887C736.112 460.182 736.826 460.623 736.808 462.208V476.262C736.79 477.178 737.24 477.636 738.156 477.636L744.817 477.609C746.631 477.592 747.512 478.481 747.46 480.278L747.38 484.108C747.366 484.645 747.146 485.156 746.766 485.531C746.386 485.906 745.876 486.116 745.345 486.116H738.077C737.213 486.116 736.782 486.547 736.782 487.41Z" fill="#040707"/>
<path d="M466.939 529.064C460.162 529.229 453.595 526.591 448.682 521.731C443.768 516.87 440.911 510.185 440.739 503.146C440.654 499.66 441.23 496.193 442.436 492.941C443.641 489.689 445.452 486.717 447.764 484.195C450.076 481.672 452.845 479.648 455.913 478.239C458.98 476.829 462.286 476.061 465.641 475.98C472.418 475.814 478.985 478.452 483.898 483.312C488.812 488.173 491.669 494.858 491.841 501.897C491.926 505.383 491.35 508.85 490.144 512.102C488.939 515.354 487.128 518.326 484.816 520.848C482.504 523.371 479.735 525.395 476.667 526.804C473.6 528.214 470.294 528.982 466.939 529.064ZM466.619 520.298C468.191 520.271 469.74 519.796 471.177 518.901C472.614 518.006 473.911 516.709 474.995 515.083C476.079 513.457 476.927 511.534 477.492 509.425C478.057 507.315 478.327 505.06 478.288 502.788C478.208 498.2 476.869 493.821 474.568 490.616C472.266 487.41 469.189 485.641 466.014 485.696C464.442 485.723 462.893 486.198 461.456 487.093C460.019 487.988 458.721 489.285 457.638 490.911C456.554 492.537 455.706 494.46 455.141 496.569C454.576 498.679 454.305 500.934 454.345 503.206C454.425 507.795 455.763 512.173 458.065 515.379C460.367 518.584 463.444 520.354 466.619 520.298Z" fill="#040707"/>
<path d="M714.818 518.98L716.324 518.795C717.663 518.619 718.553 519.174 718.994 520.459C719.593 522.185 719.575 523.894 718.941 525.584C718.606 526.5 717.954 526.958 716.985 526.958L704.483 526.932C703.761 526.932 703.074 526.782 702.422 526.482C701.752 526.201 701.417 525.813 701.417 525.32C701.435 523.894 700.827 523.55 699.594 524.29C691.012 529.591 683.11 530.322 675.885 526.482C669.56 523.136 666.952 517.624 668.062 509.945C669.965 496.815 686.828 496.683 696.554 495.891C698.88 495.697 699.77 494.464 699.224 492.192L698.827 490.554C698.524 489.317 697.845 488.204 696.885 487.367C695.925 486.53 694.729 486.01 693.462 485.878C685.991 485.086 679.189 487.014 673.057 491.664C673.043 491.679 673.024 491.689 673.004 491.691C672.984 491.694 672.963 491.689 672.944 491.678C672.924 491.667 672.907 491.65 672.895 491.629C672.882 491.607 672.874 491.583 672.872 491.558C672.696 488.793 672.599 485.861 672.581 482.761C672.581 482.215 672.819 481.801 673.295 481.519C687.251 473.7 713.02 471.665 712.968 494.702C712.932 502.081 712.941 509.645 712.994 517.395C713.012 518.61 713.62 519.138 714.818 518.98ZM680.114 513.538C680.194 525.162 702.527 522.388 699.488 505.242C699.329 504.362 698.81 503.966 697.928 504.054C691.691 504.714 680.061 504.054 680.114 513.538Z" fill="#040707"/>
<path d="M804.432 529.068C801.073 529.126 797.734 528.498 794.607 527.218C791.48 525.938 788.626 524.031 786.208 521.608C783.789 519.184 781.854 516.291 780.512 513.092C779.17 509.894 778.448 506.454 778.388 502.968C778.265 495.927 780.842 489.128 785.552 484.066C790.263 479.004 796.72 476.094 803.505 475.975C806.864 475.917 810.203 476.545 813.33 477.825C816.457 479.105 819.311 481.012 821.729 483.435C824.148 485.859 826.083 488.752 827.425 491.951C828.767 495.149 829.488 498.589 829.549 502.075C829.672 509.116 827.095 515.915 822.385 520.977C817.674 526.039 811.217 528.949 804.432 529.068ZM804.271 520.298C805.843 520.271 807.392 519.796 808.829 518.901C810.266 518.006 811.563 516.709 812.647 515.083C813.731 513.457 814.579 511.534 815.144 509.425C815.709 507.315 815.979 505.06 815.94 502.788C815.86 498.2 814.521 493.821 812.22 490.616C809.918 487.41 806.841 485.641 803.666 485.696C802.094 485.723 800.545 486.198 799.108 487.093C797.671 487.988 796.373 489.285 795.29 490.911C794.206 492.537 793.358 494.46 792.793 496.569C792.228 498.679 791.958 500.934 791.997 503.206C792.077 507.794 793.415 512.173 795.717 515.378C798.019 518.584 801.096 520.353 804.271 520.298Z" fill="#040707"/>
<path d="M551.37 523.075C551.476 522.581 551.608 522.08 551.767 521.569C552.155 520.371 552.974 519.79 554.225 519.825L557.185 519.904C557.399 519.908 557.612 519.869 557.81 519.789C558.009 519.71 558.19 519.592 558.342 519.442C558.495 519.292 558.616 519.113 558.699 518.916C558.781 518.719 558.824 518.507 558.824 518.293L558.877 487.675C558.877 487.259 558.71 486.86 558.414 486.563C558.117 486.267 557.714 486.096 557.291 486.09H554.066C553.168 486.09 552.595 485.649 552.348 484.769C551.925 483.307 551.793 481.757 551.952 480.119C552.075 478.833 552.78 478.191 554.066 478.191C558.753 478.138 563.238 478.138 567.52 478.191C569.793 478.226 570.638 479.335 570.057 481.519C569.564 483.457 570.057 483.747 571.537 482.391C583.537 471.401 602.302 476.209 602.567 494.49C602.672 502.539 602.664 510.429 602.54 518.161C602.523 519.429 603.157 520.037 604.443 519.984L607.192 519.878C608.461 519.808 609.13 520.415 609.201 521.701L609.465 525.584C609.483 525.869 609.443 526.155 609.346 526.424C609.249 526.692 609.098 526.938 608.902 527.146C608.707 527.354 608.47 527.52 608.208 527.633C607.945 527.746 607.663 527.804 607.377 527.803L585.598 527.83C584.999 527.83 584.585 527.548 584.356 526.984C583.704 525.258 583.554 523.383 583.907 521.357C584.083 520.371 584.664 519.878 585.651 519.878H588.109C589.078 519.878 589.563 519.394 589.563 518.425L589.51 492.747C589.51 488.326 587.29 486.116 582.849 486.116H581.475C578.836 486.109 576.302 487.142 574.421 488.992C572.54 490.842 571.466 493.359 571.431 495.996L571.114 518.61C571.114 519.455 571.537 519.878 572.383 519.878L574.947 519.852C576.268 519.852 576.929 520.512 576.929 521.833V526.06C576.929 527.222 576.347 527.803 575.184 527.803L554.066 527.856C553.132 527.856 552.445 527.451 552.005 526.641C551.881 526.412 551.785 526.183 551.714 525.954C551.185 524.211 550.789 524.237 550.525 526.033C550.489 526.28 550.41 526.509 550.287 526.72C549.881 527.478 549.247 527.856 548.384 527.856L534.587 527.777C533.23 527.777 532.578 527.099 532.631 525.743L532.684 524.316C532.737 522.749 532.191 522.511 531.045 523.603C519.231 535.095 500.359 529.547 500.174 511.372C500.104 503.288 500.104 495.477 500.174 487.939C500.192 486.724 499.593 486.116 498.377 486.116L495.602 486.09C494.844 486.09 494.359 485.72 494.148 484.98C493.655 483.096 493.611 481.237 494.016 479.406C494.192 478.578 494.703 478.164 495.549 478.164H511.222C512.403 478.164 512.993 478.754 512.993 479.934L513.072 513.062C513.072 517.624 515.354 519.896 519.918 519.878H521.9C524.347 519.871 526.694 518.901 528.434 517.176C530.175 515.452 531.169 513.111 531.204 510.658L531.495 487.86C531.512 486.68 530.922 486.09 529.724 486.09L526.684 486.116C525.38 486.116 524.719 485.464 524.702 484.161L524.623 480.172C524.605 478.833 525.266 478.164 526.605 478.164H542.516C543.415 478.164 543.864 478.613 543.864 479.511V518.584C543.864 518.764 543.9 518.942 543.972 519.108C544.043 519.274 544.148 519.423 544.279 519.547C544.41 519.671 544.565 519.766 544.735 519.828C544.904 519.889 545.085 519.915 545.265 519.904L547.987 519.799C548.449 519.775 548.907 519.887 549.303 520.123C549.699 520.358 550.013 520.705 550.207 521.12C550.489 521.701 550.639 522.335 550.657 523.022C550.745 524.941 550.983 524.959 551.37 523.075Z" fill="#040707"/>
<path d="M851.147 482.708C862.592 472.564 881.569 475.02 882.362 492.747C882.732 500.989 882.749 509.469 882.415 518.187C882.379 519.367 882.952 519.948 884.133 519.931L887.146 519.878C888.432 519.86 889.119 520.503 889.207 521.807L889.445 525.664C889.533 527.073 888.873 527.786 887.463 527.803L865.737 527.83C864.891 527.847 864.354 527.442 864.125 526.615C863.561 524.66 863.543 522.802 864.072 521.04C864.319 520.23 864.865 519.834 865.711 519.852L868.169 519.904C869.102 519.922 869.569 519.464 869.569 518.531V493.989C869.569 488 866.592 485.376 860.636 486.116C859.913 486.204 859.217 486.363 858.548 486.591C854.548 488.053 852.301 490.898 851.808 495.124C851.015 501.975 850.821 509.716 851.226 518.346C851.279 519.385 851.826 519.896 852.865 519.878L854.795 519.852C855.869 519.834 856.521 520.354 856.75 521.41C857.103 522.96 857.138 524.563 856.856 526.218C856.68 527.293 856.055 527.83 854.98 527.83L833.782 527.803C833.257 527.805 832.748 527.622 832.342 527.284C831.937 526.946 831.661 526.476 831.562 525.954C831.263 524.387 831.307 522.784 831.694 521.146C831.774 520.774 831.981 520.44 832.28 520.204C832.58 519.968 832.952 519.843 833.333 519.852L837.218 519.878C838.187 519.896 838.672 519.411 838.672 518.425L838.698 487.516C838.716 486.565 838.249 486.09 837.298 486.09L834.232 486.116C833.682 486.117 833.152 485.906 832.754 485.527C832.355 485.148 832.118 484.631 832.091 484.082L831.906 480.198C831.853 478.842 832.505 478.164 833.862 478.164H848.055C849.588 478.164 850.24 478.921 850.011 480.436L849.799 481.968C849.588 483.448 850.037 483.694 851.147 482.708Z" fill="#040707"/>
<path d="M754.966 486.116L752.006 486.089C751.248 486.089 750.79 485.711 750.631 484.953C750.226 483.069 750.2 481.211 750.552 479.379C750.693 478.569 751.169 478.164 751.979 478.164H767.811C768.692 478.164 769.133 478.604 769.133 479.485V518.583C769.133 519.57 769.626 520.045 770.613 520.01L773.23 519.878C774.34 519.843 775.018 520.362 775.265 521.437C775.617 523.092 775.635 524.748 775.318 526.403C775.243 526.804 775.031 527.167 774.717 527.427C774.403 527.688 774.008 527.83 773.6 527.83L751.847 527.803C750.367 527.803 749.671 527.064 749.759 525.584L750.023 521.489C750.076 520.538 750.578 520.045 751.53 520.01L755.283 519.878C756.182 519.825 756.631 519.341 756.631 518.425V487.78C756.631 486.671 756.076 486.116 754.966 486.116Z" fill="#040707"/>
</svg>
