<svg width="100" height="100" viewBox="0 0 100 100" fill="none" xmlns="http://www.w3.org/2000/svg">
<path d="M50 11C28.4562 11 11 28.4562 11 50V57.5C11 59.9938 8.99375 62 6.5 62C4.00625 62 2 59.9938 2 57.5V50C2 23.4875 23.4875 2 50 2C76.5125 2 98 23.4875 98 50V77.0188C98 86.1313 90.6125 93.5188 81.4812 93.5188L60.8 93.5C59.2438 96.1813 56.3375 98 53 98H47C42.0312 98 38 93.9688 38 89C38 84.0312 42.0312 80 47 80H53C56.3375 80 59.2438 81.8187 60.8 84.5L81.5 84.5188C85.6438 84.5188 89 81.1625 89 77.0188V50C89 28.4562 71.5438 11 50 11ZM29 41H32C35.3188 41 38 43.6812 38 47V68C38 71.3188 35.3188 74 32 74H29C22.3813 74 17 68.6187 17 62V53C17 46.3813 22.3813 41 29 41ZM71 41C77.6187 41 83 46.3813 83 53V62C83 68.6187 77.6187 74 71 74H68C64.6812 74 62 71.3188 62 68V47C62 43.6812 64.6812 41 68 41H71Z" fill="#143772"/>
</svg>
