<svg width="100" height="100" viewBox="0 0 100 100" fill="none" xmlns="http://www.w3.org/2000/svg">
<path d="M28.8057 65.229C28.4973 65.2044 28.2216 65.5386 27.9926 65.7091C21.9021 70.2388 15.8163 74.7728 9.73511 79.3111C9.06103 79.8135 8.18951 80.0857 7.3951 79.7562C6.36704 79.3298 5.74903 78.234 6.05511 77.1276C6.14001 76.82 6.39897 76.3718 6.832 75.783C7.45585 74.9348 8.12798 74.0287 8.84841 73.0645C14.8758 64.9988 21.0259 56.7708 27.2986 48.3804C27.5814 48.0027 27.5833 47.6117 27.3045 47.2075C26.9213 46.6537 26.6035 46.1035 26.3512 45.5567C25.6074 43.9453 25.4474 42.2743 25.871 40.5438C26.0151 39.9573 26.2215 39.3654 26.4902 38.768C26.7021 38.2984 26.5771 37.9611 26.1152 37.7563C24.739 37.1449 23.3885 36.5234 22.0637 35.8918C21.256 35.5062 20.587 35.1367 20.0566 34.7831C17.8556 33.3181 16.31 31.1335 15.7212 28.5107C15.6266 28.0855 15.5145 27.6731 15.4631 27.2327C14.5736 19.7021 13.6912 12.1669 12.8158 4.62695C12.7823 4.33878 12.748 4.0584 12.713 3.7858C12.5681 2.63624 12.9759 1.75304 14.032 1.14088C14.2041 1.04041 14.3902 0.993676 14.5904 1.00069C14.9307 1.01237 15.2508 1.01509 15.5507 1.00886C15.6029 1.00808 15.6508 1.0221 15.6944 1.05092C16.3673 1.49018 16.8837 2.20866 17.1932 2.93064C21.7105 13.4636 26.144 23.8066 30.4938 33.9595C30.7072 34.4564 31.0721 34.6297 31.5885 34.4794C34.7521 33.5599 38.0162 34.5144 40.077 37.004C40.3262 37.3061 40.563 37.6126 40.7873 37.9234C41.0303 38.2629 41.3337 38.2941 41.6974 38.0168C42.9723 37.0441 44.2091 36.1971 45.4078 35.4759C46.928 34.5607 48.506 34.0572 50.1415 33.9653C51.6462 33.8804 53.1681 34.1616 54.7071 34.8088C61.872 37.8229 68.9983 40.9456 76.1223 44.0345C76.8887 44.3663 77.3786 44.6455 77.592 44.8721C78.7859 46.1397 78.1901 48.1538 76.5043 48.5311C76.2107 48.5973 75.7633 48.595 75.162 48.5241C64.1578 47.2211 53.237 45.9325 42.3995 44.6584C41.917 44.6011 41.6004 44.9574 41.4474 45.3768C40.8321 47.0685 39.6821 48.4123 37.9975 49.4085C37.6167 49.6339 37.5688 49.9681 37.5956 50.4167C38.0419 57.9788 38.6728 65.6811 39.8305 73.1404C40.2511 75.8515 40.7865 78.6608 41.4369 81.5682C42.6339 86.9227 44.2932 92.1533 46.4148 97.2602C46.6975 97.9401 46.5978 98.5246 46.1157 99.0137C46.0885 99.041 46.0558 99.0546 46.0176 99.0546H21.7857C21.7501 99.0546 21.7159 99.0426 21.6887 99.0207C21.1474 98.583 21.0189 98.0188 21.3032 97.3279C22.0618 95.4844 22.8083 93.4914 23.5427 91.3488C24.1736 89.5061 24.8286 87.3004 25.5077 84.7318C25.7094 83.9693 25.8983 83.2135 26.0743 82.4642C27.3874 76.8644 28.3275 71.1544 28.8945 65.3341C28.8958 65.3213 28.8945 65.3084 28.8907 65.2962C28.8869 65.2839 28.8806 65.2725 28.8724 65.2627C28.8641 65.2529 28.8539 65.2449 28.8425 65.2391C28.831 65.2333 28.8185 65.2298 28.8057 65.229ZM22.1875 33.6908C23.9995 34.5413 25.7834 35.3906 27.5697 36.2259C27.9163 36.3879 28.2597 36.3388 28.6001 36.0787C28.8279 35.9035 29.0113 35.664 28.8828 35.3602C28.7858 35.1312 28.6749 34.9139 28.5767 34.6873C24.431 25.0297 19.9492 14.5925 15.1313 3.37575C15.0822 3.26048 15.0168 3.19272 14.935 3.17247C14.7722 3.13119 14.7006 3.19389 14.7201 3.36056C15.6118 11.0305 16.5382 18.9225 17.4993 27.0364C17.7458 29.1124 18.7178 31.0762 20.2915 32.4034C20.9994 33.0007 21.6314 33.4299 22.1875 33.6908ZM74.5931 45.5953C67.934 42.6934 61.3478 39.851 54.8344 37.0682C53.8157 36.6328 53.0879 36.3595 52.6509 36.2481C50.8246 35.7831 49.0344 35.9603 47.2805 36.7796C46.5055 37.1418 45.7769 37.5896 45.0947 38.1231C44.2216 38.8046 43.4544 39.3218 42.7932 39.6746C41.5443 40.3405 41.9392 41.1734 42.1121 42.288C42.1284 42.3943 42.1806 42.4918 42.2599 42.5642C42.3391 42.6367 42.4408 42.6798 42.5479 42.6863C42.9778 42.7132 43.3972 42.7109 43.8306 42.7623C54.503 44.0474 65.1773 45.3137 75.8536 46.5614C75.8851 46.5649 75.9169 46.5606 75.9462 46.5488C75.9755 46.537 76.0015 46.5181 76.0216 46.4939C76.0418 46.4697 76.0556 46.4408 76.0617 46.41C76.0679 46.3792 76.0662 46.3473 76.0569 46.3173C76.0328 46.2386 75.9685 46.1779 75.8641 46.135C75.442 45.9606 75.0183 45.7807 74.5931 45.5953ZM40.0186 42.3487C40.0186 40.7143 39.3693 39.1468 38.2136 37.9911C37.0579 36.8354 35.4905 36.1862 33.8561 36.1862C32.2217 36.1862 30.6542 36.8354 29.4985 37.9911C28.3428 39.1468 27.6935 40.7143 27.6935 42.3487C27.6935 43.9831 28.3428 45.5506 29.4985 46.7063C30.6542 47.862 32.2217 48.5113 33.8561 48.5113C35.4905 48.5113 37.0579 47.862 38.2136 46.7063C39.3693 45.5506 40.0186 43.9831 40.0186 42.3487ZM28.641 62.5256C30.3361 60.799 31.0721 58.4367 30.9004 55.9951C30.8093 54.7069 30.6948 53.3996 30.5569 52.0733C30.5102 51.627 30.4771 51.1733 30.4576 50.7122C30.4261 49.9342 30.1387 49.4762 29.3887 49.2916C29.065 49.211 28.9015 49.5837 28.7683 49.8104C28.685 49.9513 28.5939 50.088 28.4949 50.2204C21.5617 59.4823 14.7594 68.5908 8.08787 77.5459C8.07157 77.5673 8.06188 77.5931 8.06001 77.6198C8.05814 77.6466 8.06417 77.6733 8.07736 77.6966C8.15213 77.8329 8.27441 77.8383 8.44419 77.7129C14.5931 73.1669 20.7237 68.5967 26.836 64.0023C27.7403 63.3224 28.3419 62.8302 28.641 62.5256ZM31.967 61.049C31.5597 61.8574 31.2937 62.7145 31.1691 63.6203C31.0172 64.7301 30.8852 65.8166 30.773 66.8797C30.3805 70.5955 29.7987 74.4368 29.0277 78.4034C27.8103 84.6582 26.0763 90.6747 23.8254 96.4529C23.7725 96.5884 23.7768 96.722 23.8383 96.8536C23.8554 96.8918 23.8831 96.9187 23.9212 96.9342C24.031 96.981 24.1401 97.0043 24.2483 97.0043C30.5733 97.0043 36.9149 97.0032 43.2734 97.0008C43.426 97.0008 43.5849 96.9798 43.75 96.9377C43.8012 96.9247 43.8457 96.8931 43.8749 96.849C43.904 96.805 43.9157 96.7516 43.9077 96.6994C43.8828 96.5327 43.8388 96.368 43.7757 96.2052C42.6137 93.1982 41.6105 90.1844 40.7663 87.1641C38.8363 80.2621 37.6108 73.214 36.8445 66.0479C36.3585 61.5073 35.9581 56.6886 35.6435 51.5919C35.6213 51.2169 35.6108 50.5791 35.1318 50.5464C34.4367 50.4996 33.6913 50.6211 32.974 50.4622C32.5792 50.3746 32.4647 50.6912 32.4962 51.0031C32.6683 52.7119 32.8163 54.4662 32.9402 56.2661C32.9705 56.6984 32.9495 57.1412 32.9308 57.5804C32.8771 58.8375 32.5418 59.9087 31.967 61.049Z" fill="white"/>
<path d="M39.4541 12.1707C44.8794 13.1544 49.8574 15.3729 53.9813 18.977C57.1262 21.727 59.6812 25.143 61.5948 28.8417C61.8915 29.413 62.0586 30.024 61.4628 30.4656C60.8086 30.9504 60.2174 30.6023 59.8845 29.9621C58.4732 27.2459 56.7197 24.6862 54.6449 22.4595C50.3885 17.8909 45.0749 15.0711 38.704 14.0002C37.3894 13.7798 35.9057 13.624 34.253 13.5329C32.6548 13.4453 31.1641 13.6649 29.6068 13.8331C28.9678 13.9021 28.3533 13.7794 28.2435 13.0294C28.15 12.3876 28.4436 11.9955 29.1244 11.8529C29.8362 11.7034 30.5547 11.6146 31.2798 11.5866C33.9979 11.4807 36.7227 11.6754 39.4541 12.1707Z" fill="white"/>
<path d="M34.1173 19.616C40.0357 19.7573 45.4096 21.9758 49.6469 26.0636C50.3027 26.696 50.2859 27.2824 49.5967 27.8229C49.1434 28.1793 48.5756 27.8323 48.2263 27.5064C47.8712 27.1753 47.5148 26.8599 47.1574 26.5601C43.3582 23.3707 38.7973 21.6452 33.8988 21.6838C33.4713 21.6877 33.0565 21.69 32.6546 21.6908C31.9245 21.692 31.463 21.1499 31.6207 20.4384C31.7165 20.0085 32.0331 19.7608 32.5705 19.6954C33.0994 19.6308 33.6149 19.6043 34.1173 19.616Z" fill="white"/>
<path d="M5.7208 29.7321C6.22081 28.6211 6.76989 27.4669 7.44397 26.4668C7.74071 26.0264 8.27811 25.9248 8.74541 26.1981C9.48141 26.6269 9.305 27.2753 8.94284 27.8874C7.86221 29.7122 6.99887 31.6901 6.39605 33.7159C5.70522 36.0376 5.27803 38.3293 5.11448 40.591C4.79905 44.9556 5.50195 49.1851 7.22317 53.2794C8.05887 55.2678 9.0768 57.1277 10.277 58.859C10.5597 59.2664 10.7209 59.5794 10.7606 59.7983C10.8455 60.2672 10.6166 60.6297 10.0737 60.8859C9.53398 61.1406 9.03747 60.6944 8.75008 60.2866C5.14641 55.1518 3.23514 49.504 3.01629 43.3434C2.95087 41.4921 3.08249 39.5314 3.41116 37.4613C3.83641 34.7844 4.60629 32.208 5.7208 29.7321Z" fill="white"/>
<path d="M13.218 42.7713C13.2857 46.047 14.1491 49.2656 15.711 52.1687C16.0265 52.754 16.19 53.4351 15.4528 53.8183C14.3337 54.4001 13.829 52.9865 13.4703 52.2493C11.8371 48.8894 11.1455 45.2842 11.1852 41.5645C11.1977 40.3884 11.3542 39.1045 11.6548 37.7127C11.7693 37.1858 12.1035 36.7279 12.7098 36.7863C13.7928 36.8903 13.7402 37.7034 13.579 38.5632C13.3103 39.9986 13.1899 41.4013 13.218 42.7713Z" fill="white"/>
<path d="M71.9811 82.897C71.8736 82.8884 71.7755 82.9173 71.6867 82.9835C68.6446 85.2623 65.9202 87.2881 63.5136 89.0607C61.7717 90.3435 59.9399 88.4859 61.2145 86.7698C64.4498 82.413 67.7322 78.025 71.0617 73.6059C71.4017 73.1549 71.3771 72.6339 71.0956 72.1526C70.5294 71.1876 70.4523 70.0742 70.8643 68.8125C70.9986 68.4001 70.7369 68.1618 70.3923 68.0567C68.1703 67.3814 66.502 65.8475 65.766 63.5893C65.4771 62.7006 65.3038 61.8061 65.2461 60.9058C65.0335 57.5739 64.5721 54.3694 64.1713 51.1228C64.0685 50.291 64.3501 49.4627 65.1994 49.1683C66.2894 48.7898 66.9705 49.4803 67.3642 50.388C69.7404 55.8757 71.8472 60.7757 73.6844 65.0881C73.8877 65.5656 74.2386 65.7638 74.737 65.6828C76.2324 65.4386 77.5525 65.9655 78.5607 67.073C79.1133 67.6793 79.5514 67.1466 79.9977 66.8207C81.3762 65.8167 82.8727 65.4238 84.4873 65.6419C85.3705 65.7622 86.1941 66.0578 87.0656 66.4527C90.0034 67.7876 93.1865 69.1607 96.6149 70.5719C96.8813 70.6817 97.1364 70.8387 97.3801 71.0427C97.9199 71.496 98.053 72.308 97.768 72.9073C97.4354 73.6098 96.8307 73.9124 95.9537 73.815C90.033 73.1569 84.7135 72.5377 79.9953 71.9575C79.6776 71.9185 79.4439 72.0404 79.2944 72.3231C79.0502 72.7811 78.8212 73.2005 78.3703 73.4984C77.7453 73.9108 77.5782 74.6199 77.6308 75.3618C77.7788 77.4685 77.9793 79.6574 78.2324 81.9285C78.8212 87.2009 79.868 92.5024 81.9183 97.3799C82.1551 97.943 82.0877 98.485 81.7162 99.0061C81.6928 99.0396 81.6605 99.0563 81.6192 99.0563H68.8946C68.8525 99.0563 68.8171 99.0407 68.7883 99.0096C68.3638 98.5555 68.2688 98.0232 68.5032 97.4126C70.057 93.3805 71.1466 89.3528 71.772 85.3293C71.8771 84.6556 71.9675 83.8694 72.043 82.9706C72.0469 82.9254 72.0263 82.9009 71.9811 82.897ZM70.6797 65.9398C71.1571 66.1306 71.6104 66.3152 72.0395 66.4935C72.1011 66.5192 72.1186 66.5013 72.0921 66.4398L66.7987 54.1615C66.7614 54.075 66.745 54.0789 66.7497 54.1731C66.7878 54.9753 66.8572 55.8114 66.9576 56.6814C67.1149 58.0319 67.2287 59.2909 67.2988 60.4583C67.3618 61.4872 67.4689 62.2532 67.62 62.7563C68.0679 64.2415 69.0877 65.3027 70.6797 65.9398ZM84.7198 67.7307C83.9989 67.4328 83.1193 67.5193 82.4078 67.7775C81.5421 68.0894 80.7489 68.7962 79.9556 69.2985C79.9112 69.3266 79.8797 69.3655 79.861 69.4154C79.778 69.642 79.9066 69.8605 80.146 69.8885C84.2435 70.3597 88.3939 70.8441 92.5973 71.3418C92.63 71.3465 92.6573 71.336 92.6791 71.3103C92.7157 71.2674 92.7324 71.218 92.7293 71.1619C92.7285 71.1479 92.724 71.1345 92.7161 71.1231C92.7083 71.1117 92.6975 71.1029 92.6849 71.0976C90.04 69.9543 87.3849 68.832 84.7198 67.7307ZM77.8049 70.1946C77.8049 69.5154 77.5351 68.8641 77.0548 68.3838C76.5746 67.9036 75.9232 67.6338 75.244 67.6338C74.5649 67.6338 73.9135 67.9036 73.4333 68.3838C72.953 68.8641 72.6832 69.5154 72.6832 70.1946C72.6832 70.8737 72.953 71.5251 73.4333 72.0053C73.9135 72.4856 74.5649 72.7554 75.244 72.7554C75.9232 72.7554 76.5746 72.4856 77.0548 72.0053C77.5351 71.5251 77.8049 70.8737 77.8049 70.1946ZM71.9496 80.1785C72.9461 79.4098 73.2814 78.4354 73.2253 77.1913C73.1895 76.3828 73.133 75.6133 73.0559 74.8828C73.0201 74.5401 72.899 74.507 72.6926 74.7835L65.0242 85.0805C64.9977 85.1155 64.9957 85.1521 65.0183 85.1903C65.044 85.2355 65.083 85.2678 65.1351 85.2873C65.1632 85.2982 65.1893 85.2947 65.2134 85.2767C67.4658 83.6069 69.7112 81.9075 71.9496 80.1785ZM75.1436 75.4692C75.3913 77.0803 75.3726 78.7859 74.5618 80.2299C74.4691 80.395 74.4107 80.5944 74.3866 80.828C74.2144 82.5313 74.0096 84.1673 73.7721 85.7359C73.2043 89.4844 72.2724 93.1512 70.9764 96.7361C70.9646 96.7686 70.9646 96.8041 70.9764 96.8364C70.9881 96.8687 71.0109 96.8956 71.0407 96.9126C71.1497 96.9764 71.2685 97.0083 71.397 97.0083C74.1891 97.0037 76.8905 97.0025 79.5012 97.0048C79.5093 97.005 79.5174 97.0031 79.5247 96.9994C79.532 96.9957 79.5383 96.9903 79.543 96.9836C79.5477 96.9769 79.5507 96.9692 79.5518 96.9611C79.5529 96.953 79.5519 96.9447 79.5491 96.9371C78.4684 93.951 77.5864 90.84 77.042 87.7137C76.334 83.6443 75.8761 79.5344 75.6681 75.384C75.6564 75.1632 75.5303 74.9634 75.3574 74.8337C75.3497 74.828 75.3409 74.824 75.3315 74.8218C75.3222 74.8196 75.3126 74.8194 75.3032 74.8212C75.2939 74.823 75.285 74.8266 75.2773 74.832C75.2695 74.8374 75.2629 74.8443 75.2581 74.8524C75.1467 75.0354 75.1085 75.241 75.1436 75.4692Z" fill="white"/>
<path d="M44.5577 60.9263C44.3136 60.3387 44.7575 59.8854 45.2026 59.591C47.7143 57.9297 49.7627 55.8304 51.3476 53.2929C51.6958 52.7345 52.0345 51.9891 52.8383 52.106C53.3815 52.1854 53.7799 52.6609 53.683 53.2065C53.6409 53.4386 53.5291 53.7034 53.3477 54.0009C51.6841 56.7198 49.5964 58.9811 47.0847 60.7849C46.372 61.2966 45.1407 62.3305 44.5577 60.9263Z" fill="white"/>
</svg>
