<svg width="100" height="100" viewBox="0 0 100 100" fill="none" xmlns="http://www.w3.org/2000/svg">
<path d="M11.2698 57.1007C9.30891 57.0921 7.40707 57.0956 5.56431 57.111C2.57668 57.1367 0.945432 55.1792 1.00452 52.2917C1.03706 50.7384 1.0362 49.12 1.00195 47.4365C0.981396 46.3867 1.12354 45.5381 1.42838 44.8907C2.39172 42.8433 4.14371 42.4528 6.36581 42.4991C7.90715 42.5333 9.52812 42.5342 11.2287 42.5016C11.3572 42.4982 11.4342 42.434 11.4599 42.309C12.5063 36.9862 14.5101 32.173 17.4712 27.8692C17.5397 27.7699 17.5311 27.6791 17.4455 27.5969C16.0446 26.2165 14.701 24.8901 13.4149 23.6177C11.4702 21.6936 11.4959 19.2583 13.3892 17.3881C14.8586 15.9392 16.2903 14.5186 17.6844 13.1263C18.3163 12.4943 19.057 12.1056 19.9065 11.96C21.6071 11.6697 22.8299 12.2297 24.0578 13.4603C25.3474 14.7516 26.6276 16.012 27.8983 17.2417C27.9254 17.2677 27.9605 17.2836 27.9979 17.2869C28.0353 17.2902 28.0727 17.2806 28.1038 17.2597C32.5891 14.2934 37.4974 12.2717 42.8288 11.1945C42.8701 11.1856 42.9071 11.1627 42.9333 11.1299C42.9596 11.0971 42.9734 11.0564 42.9726 11.0147C42.9503 8.79856 42.9572 6.77598 42.9932 4.94692C43.024 3.29255 44.2879 1.72039 45.8524 1.26055C46.4826 1.07559 47.2104 0.989106 48.0359 1.00109C49.8033 1.02678 51.5527 1.0362 53.2842 1.02935C55.7606 1.02165 57.7335 2.78134 57.7335 5.29629C57.7369 7.2007 57.7386 9.11453 57.7386 11.0378C57.7386 11.1354 57.7875 11.1936 57.8851 11.2125C63.1308 12.2486 68.0117 14.2532 72.5278 17.2263C72.5816 17.2617 72.646 17.2774 72.7102 17.2709C72.7743 17.2643 72.8342 17.2359 72.8797 17.1903C74.3697 15.702 75.762 14.3225 77.0568 13.0518C78.2847 11.8496 80.2242 11.5644 81.7784 12.2503C82.222 12.4455 82.8042 12.9002 83.5252 13.6144C84.4586 14.5409 85.4271 15.506 86.4307 16.5095C87.3914 17.4703 87.948 18.0766 88.1005 18.3283C89.1717 20.088 88.8043 22.1354 87.3246 23.5817C85.9888 24.8884 84.6196 26.2371 83.217 27.6277C83.1587 27.6842 83.1527 27.7468 83.199 27.8153C86.2183 32.2423 88.2392 37.095 89.2616 42.3732C89.277 42.4537 89.3258 42.4948 89.408 42.4965C90.8449 42.5273 92.3631 42.5248 93.9627 42.4888C95.4321 42.4546 96.5059 42.5813 97.1841 42.869C99.1827 43.7142 99.7042 45.5227 99.6425 47.642C99.6014 49.0344 99.6014 50.3993 99.6425 51.7368C99.6785 52.9494 99.5509 53.9024 99.2597 54.596C98.43 56.5587 96.6703 57.1598 94.5689 57.1187C92.8615 57.0861 91.1172 57.0827 89.3361 57.1084C89.2402 57.1101 89.1828 57.1572 89.164 57.2497C88.1381 62.3875 86.1113 67.1836 83.0834 71.6381C83.0303 71.7169 83.0372 71.7905 83.1039 71.859C84.1606 72.9294 85.1848 73.9475 86.1764 74.9134C87.4642 76.1636 88.2049 77.0602 88.3984 77.6031C89.1177 79.612 88.4421 81.0942 86.9804 82.5071C85.7302 83.7179 84.5254 84.915 83.366 86.0984C81.9325 87.5576 80.3398 88.1433 78.3643 87.4394C77.8249 87.2476 76.9523 86.5317 75.7466 85.2918C74.6266 84.1392 73.581 83.1005 72.61 82.1757C72.5535 82.1209 72.4927 82.1158 72.4276 82.1603C68.1016 85.0529 63.1282 87.0541 57.8594 88.1099C57.7429 88.1321 57.6855 88.2024 57.6873 88.3205C57.6941 90.4955 57.689 92.5755 57.6718 94.5604C57.6513 96.8698 55.6681 98.591 53.4203 98.573C51.9561 98.5627 50.3128 98.5747 48.4906 98.609C47.2079 98.6347 46.2146 98.5028 45.5107 98.2134C43.7964 97.5095 42.9461 96.0863 42.9598 93.9438C42.97 92.0103 42.9718 90.1196 42.9649 88.2717C42.9649 88.1844 42.9229 88.133 42.839 88.1176C37.4152 87.0301 32.548 85.046 28.2374 82.1654C28.1484 82.1055 28.0661 82.1132 27.9908 82.1886C26.4084 83.7847 24.915 85.267 23.5106 86.6353C23.0671 87.0686 22.5798 87.3623 22.0489 87.5165C20.3192 88.0165 18.8301 87.6363 17.5816 86.3759C16.5643 85.3466 15.4845 84.2814 14.3422 83.1802C13.1605 82.0396 12.4704 81.2047 12.2717 80.6755C11.4574 78.4996 12.3 77.0431 13.8696 75.5069C15.2174 74.1864 16.4496 72.9679 17.5662 71.8513C17.6279 71.7897 17.6339 71.7237 17.5842 71.6535C14.618 67.3549 12.5774 62.5562 11.4625 57.2574C11.442 57.1546 11.3777 57.1024 11.2698 57.1007ZM38.4205 28.9764C37.637 27.2578 35.8388 26.22 34.1895 27.7767C32.7304 29.1554 31.2816 30.5734 29.843 32.0308C29.7779 32.0976 29.7719 32.1695 29.825 32.2466C30.3901 33.0609 31.0812 33.585 32.1344 33.5234C32.6345 33.4942 33.1175 33.484 33.5833 33.4925C34.4105 33.5079 35.2094 33.0198 35.9364 32.6448C36.8115 32.1944 37.9384 32.0574 39.3171 32.2338C40.7171 32.4136 42.5975 33.7725 41.3028 35.3396C40.5707 36.231 39.633 36.9194 38.6517 37.5411C37.0573 38.5515 35.8148 39.55 34.9243 40.5364C33.8813 41.6924 32.7741 42.9675 31.6027 44.3615C31.1968 44.8419 31.0118 45.294 30.8911 45.8952C30.7421 46.6504 30.3388 47.1402 29.6811 47.3646C29.0363 47.5855 28.2836 47.5393 27.6902 47.8732C27.0908 48.2106 26.4769 48.5857 25.8483 48.9984C25.219 49.412 24.4997 49.936 24.5074 50.7607C24.5159 51.6478 24.5271 52.5366 24.5408 53.4272C24.5431 53.5508 24.501 53.671 24.4222 53.7658C24.3434 53.8607 24.2332 53.9238 24.1118 53.9435C23.0996 54.1105 22.3007 53.2217 22.013 52.3662C21.9256 52.1068 22.0053 51.8396 21.9642 51.5724C21.9487 51.4817 21.9076 51.4046 21.8408 51.3412C20.5025 50.1184 20.5256 48.2329 19.0253 47.1154C18.9243 47.04 18.8686 47.0649 18.8584 47.1899C18.5056 51.9424 19.1144 56.4259 20.6848 60.6406C23.1047 67.1297 27.6414 72.5424 33.4908 76.2929C33.5006 76.299 33.5118 76.3024 33.5232 76.3029C33.5347 76.3033 33.546 76.3008 33.556 76.2955C33.566 76.2903 33.5743 76.2825 33.58 76.273C33.5857 76.2635 33.5886 76.2527 33.5884 76.2416C33.6004 74.3406 33.609 72.4285 33.6141 70.5052C33.6141 69.8322 33.6218 69.3364 33.1106 68.856C32.6602 68.433 32.2038 67.9963 31.7414 67.5458C31.3304 67.1451 31.3047 66.5208 31.0067 66.0276C30.6487 65.4368 30.3268 64.8665 30.0408 64.3167C29.5912 63.4536 29.3806 61.9585 30.2283 61.2495C30.4304 61.0816 30.6059 60.8676 30.7549 60.6072C31.3894 59.4975 30.5802 57.689 31.9007 56.9928C33.3136 56.2453 35.456 56.4302 36.7122 57.1701C37.3159 57.522 37.7346 58.0974 38.1919 58.6215C38.9317 59.4667 39.7897 58.8887 40.581 59.6799C41.427 60.5259 42.3038 61.3985 43.2115 62.2976C43.6465 62.7257 44.1269 62.9715 44.6527 63.0349C45.7496 63.1633 46.7052 64.142 46.5768 65.3314C46.4723 66.3128 46.1735 67.1108 45.6802 67.7257C45.4405 68.0254 45.3035 68.3739 45.2692 68.7712C45.1819 69.7397 44.3521 70.3588 43.5301 70.7056C43.2167 70.8375 42.9324 71.013 42.6772 71.2322C41.3739 72.342 39.9704 73.5305 38.4668 74.7978C38.1414 75.0719 37.8922 75.4015 37.7192 75.7869C37.4007 76.501 37.0736 77.1912 36.7379 77.8574C36.6882 77.9584 36.7139 78.0329 36.815 78.0809C39.836 79.5024 42.8681 80.4057 45.9114 80.7911C53.2396 81.721 59.9787 80.4357 66.1287 76.9352C73.7429 72.604 79.022 65.4625 81.113 57.0313C81.7347 54.5258 82.0182 51.8345 81.9634 48.9573C81.9616 48.8545 81.9085 48.8014 81.8041 48.798C80.8622 48.7638 80.0427 49.078 79.3456 49.7408C78.5835 50.4652 78.0972 51.0715 77.8865 51.5596C77.4087 52.6591 76.9317 53.5779 76.4556 54.316C76.4043 54.3931 76.3846 54.4779 76.3966 54.5703C76.5096 55.4558 76.4051 56.1665 76.0831 56.7025C75.3656 57.8911 74.6446 59.2123 73.9201 60.6663C73.7591 60.9917 73.6924 61.3137 73.7198 61.6322C73.778 62.2762 73.8285 62.9672 73.8713 63.7053C73.8778 63.8222 73.8391 63.9357 73.7634 64.0213C73.3216 64.5248 73.0664 64.8656 72.9979 65.0437C72.6896 65.8452 72.4302 66.657 71.9652 67.3686C71.6158 67.9029 71.3512 68.4741 71.1714 69.082C71.1372 69.2002 71.0678 69.2918 70.9633 69.3569L68.2634 71.0267C68.1825 71.0772 68.0915 71.1092 67.9967 71.1203C67.902 71.1314 67.8059 71.1213 67.7153 71.0909C67.6248 71.0605 67.542 71.0104 67.4729 70.9442C67.4037 70.8781 67.35 70.7974 67.3155 70.7082C67.1014 70.155 66.8086 69.6164 66.4369 69.0923C65.8358 68.2472 65.954 67.0937 66.2828 66.174C66.8497 64.5779 66.7195 63.2258 65.8923 62.1178C65.1987 61.1852 65.3066 59.7826 65.3965 58.6934C65.5404 56.9517 63.2772 55.9113 61.9748 56.8258C61.4995 57.1598 61.1219 57.6325 60.5464 57.8071C59.226 58.2079 58.094 57.8611 57.1504 56.7667C57.092 56.6984 57.0569 56.6129 57.0502 56.5227C56.98 55.6869 56.7051 55.0387 56.2256 54.578C55.8582 54.2287 55.6964 53.6943 55.6887 53.1934C55.6801 52.4107 55.6775 51.6332 55.681 50.8608C55.6835 49.9694 56.2024 49.5687 56.7907 49.0267C56.827 48.9936 56.8558 48.9534 56.8753 48.9087C56.8948 48.8639 56.9045 48.8157 56.9037 48.7672C56.8883 47.0101 58.3295 46.17 59.5009 45.2067C59.6922 45.0485 59.9371 44.9702 60.1842 44.9883C61.1758 45.0654 62.2034 45.0757 62.9124 44.2896C63.5932 43.5369 64.5 43.4701 65.2578 44.2228C65.8606 44.8222 66.466 45.4636 67.074 46.1469C67.1494 46.2308 67.2153 46.224 67.2718 46.1264L67.3155 46.0544C67.3359 46.0195 67.3632 45.989 67.3959 45.9647C67.4285 45.9404 67.4658 45.9229 67.5056 45.9131C68.7592 45.5972 69.8459 45.5895 71.0661 45.6152C71.6646 45.6306 72.1322 45.3172 72.6537 45.0937C72.6685 45.0874 72.6816 45.0775 72.6916 45.0648C72.7016 45.0521 72.7081 45.0371 72.7107 45.0212C72.7133 45.0052 72.7118 44.9889 72.7063 44.9737C72.7008 44.9585 72.6915 44.945 72.6794 44.9344L70.0771 42.6095C70.0014 42.5438 69.9027 42.5106 69.8022 42.5171C68.3199 42.6275 67.6983 41.4201 66.7452 40.5621C66.0242 39.9148 65.1842 39.6853 64.2251 39.8737C63.0023 40.1151 62.3147 40.7839 62.1623 41.88C61.9799 43.1824 60.6569 44.192 59.4007 43.4316C58.5299 42.9024 57.6616 41.808 58.5735 40.8447C59.2825 40.0946 60.3692 39.3804 60.7083 38.4017C61.1056 37.2525 60.9429 36.2549 60.2202 35.4089C60.1736 35.3538 60.1442 35.2862 60.1358 35.2145C60.1274 35.1428 60.1404 35.0702 60.173 35.0058C60.2056 34.9414 60.2565 34.888 60.3192 34.8523C60.382 34.8167 60.4539 34.8003 60.5259 34.8052C61.9491 34.9028 62.5939 34.2786 63.6266 33.4617C63.6402 33.451 63.651 33.4372 63.6581 33.4214C63.6651 33.4055 63.6681 33.3882 63.6668 33.3709C63.6656 33.3536 63.66 33.337 63.6508 33.3223C63.6415 33.3077 63.6288 33.2956 63.6137 33.287C63.0434 32.971 62.0056 32.3956 62.188 31.5915C62.3541 30.8654 62.5425 30.1821 62.7531 29.5416C62.9766 28.8634 63.7293 27.62 64.5257 27.7331C66.0105 27.9411 67.4285 28.3522 68.4972 29.4285C68.8483 29.7813 69.1848 30.1315 69.5068 30.4792C69.5821 30.5614 69.6746 30.6085 69.7842 30.6205C70.3374 30.6839 70.8486 30.8585 71.3178 31.1445C72.2118 31.6917 73.1957 32.3725 74.2772 32.2261C75.0171 32.1267 75.7038 32.1207 76.3375 32.2081C76.4556 32.2252 76.4796 32.185 76.4094 32.0873C71.597 25.4716 65.3246 21.2534 57.5922 19.4329C52.2335 18.1716 46.5639 18.4002 41.3157 19.8979C41.1992 19.9304 41.2009 19.9527 41.3208 19.9647C42.6892 20.1017 43.9291 19.9964 45.0406 19.6487C45.6109 19.4706 46.1418 19.3764 46.6333 19.3662C47.5444 19.349 48.4204 19.3405 49.2613 19.3405C49.8033 19.3405 50.3608 19.4509 50.7564 19.7695C51.2359 20.1565 51.563 20.3672 51.7377 20.4014C52.2429 20.5025 52.7259 20.6078 53.1866 20.7174C53.279 20.7397 53.3347 20.797 53.3535 20.8895C53.5179 21.6576 53.1403 22.0378 52.6831 22.5464C52.4039 22.8564 52.2369 23.2786 52.1821 23.8129C52.1256 24.3472 51.8225 24.7891 51.2727 25.1385C50.6904 25.505 50.1082 25.8543 49.5259 26.1866C48.9282 26.5257 48.2534 26.6995 47.5016 26.7081C46.772 26.7158 46.3636 27.6277 46.063 28.1543C45.9908 28.282 45.8746 28.379 45.736 28.4272C45.5975 28.4754 45.4462 28.4716 45.3103 28.4164C44.4549 28.067 43.715 27.4299 43.8101 26.4126C43.8752 25.6985 43.8572 24.921 43.7561 24.0801C43.5994 22.8033 42.6849 22.4822 41.5315 22.3281C41.477 22.3208 41.4247 22.3027 41.3775 22.2749C41.3302 22.2471 41.2891 22.2102 41.2566 22.1662C40.5373 21.1824 39.4763 21.0462 38.3229 21.1387C37.9924 21.1644 37.6781 21.2449 37.3801 21.3802C34.4773 22.6972 31.8039 24.4123 29.36 26.5257C29.2692 26.6044 29.2701 26.6832 29.3626 26.762L30.4544 27.6945C30.4704 27.7082 30.4891 27.7184 30.5094 27.7243C30.5296 27.7302 30.5509 27.7317 30.5718 27.7288C30.5927 27.7259 30.6127 27.7186 30.6305 27.7074C30.6484 27.6961 30.6636 27.6813 30.6753 27.6637C30.9031 27.3143 31.1557 27.0112 31.4331 26.7543C32.2218 26.0222 33.3521 25.8886 34.1973 25.2181C35.009 24.5784 35.7206 24.1392 36.6506 24.9561C37.1352 25.3825 37.6824 25.66 38.2921 25.7884C39.3633 26.0145 40.0569 26.9418 40.0209 28.0233C40.0175 28.1278 39.9679 28.2006 39.872 28.2417C39.4215 28.4335 39.0216 28.6955 38.6723 29.0278C38.5644 29.1288 38.4805 29.1117 38.4205 28.9764Z" fill="#143772"/>
<path d="M25.8598 52.9537C26.4301 52.7816 27.1468 52.8458 27.5322 53.3339C27.9047 53.8065 28.8911 54.9959 28.7087 55.6459C28.6904 55.7118 28.6555 55.7719 28.6072 55.8204C28.559 55.8688 28.4991 55.9041 28.4332 55.9227C28.3674 55.9412 28.2979 55.9426 28.2314 55.9265C28.1649 55.9104 28.1037 55.8775 28.0537 55.8308C27.3618 55.1835 26.663 54.5678 25.9574 53.9838C25.6714 53.7458 25.5918 53.4478 25.7185 53.0898C25.7297 53.0572 25.7484 53.0278 25.773 53.0041C25.7976 52.9804 25.8274 52.9631 25.8598 52.9537Z" fill="#143772"/>
</svg>
