<svg width="384" height="512" viewBox="0 0 384 512" fill="none" xmlns="http://www.w3.org/2000/svg">
<path d="M384 192C384 279.4 267 435 215.7 499.2C203.4 514.5 180.6 514.5 168.3 499.2C117 435 0 279.4 0 192C0 86 86 0 192 0C298 0 384 86 384 192Z" fill="#9B2731"/>
<circle cx="191.501" cy="182.501" r="158.36" fill="white"/>
<path d="M185.011 100.045C190.106 94.2575 199.992 96.8605 201.432 104.531C203.408 115.128 205.364 126.703 207.303 139.256C207.325 139.4 207.311 139.547 207.263 139.684C207.216 139.821 207.135 139.944 207.028 140.042C206.921 140.141 206.792 140.211 206.652 140.248C206.511 140.285 206.364 140.287 206.223 140.253C196.715 137.743 187.217 137.752 177.728 140.281C177.578 140.319 177.42 140.32 177.269 140.282C177.119 140.245 176.98 140.171 176.865 140.067C176.749 139.963 176.662 139.832 176.61 139.685C176.557 139.539 176.542 139.382 176.565 139.229C178.282 129.777 179.999 119.245 181.716 107.633C182.177 104.531 183.276 102.002 185.011 100.045Z" fill="#9B2731"/>
<path d="M316.604 187.02V192.364C310.585 197.219 301.742 200.099 290.075 201.004C288.967 201.096 288.644 201.65 289.106 202.665C298.272 222.493 278.223 245.449 257.399 235.978C246.322 230.938 241.218 222.16 242.085 209.644C242.159 208.536 241.642 208.056 240.535 208.204L232.753 209.256C231.701 209.404 230.981 209.976 230.593 210.973C216.305 247.166 167.595 246.529 153.278 210.89C152.909 209.985 152.235 209.459 151.257 209.311L143.254 208.148C142.183 208.001 141.694 208.462 141.786 209.533C142.82 219.779 139.257 227.791 131.097 233.569C123.316 239.108 111.769 239.44 104.098 234.04C92.6706 225.972 89.6245 215.367 94.9598 202.222C95.329 201.299 95.0244 200.755 94.046 200.588C87.8246 199.518 81.7047 198.539 75.6864 197.653C71.6065 197.044 68.8373 194.709 67.3789 190.647V186.66C69.2804 182.137 73.6741 179.875 80.5601 179.875C104.393 179.857 128.356 179.838 152.448 179.82C153.352 179.82 154.026 179.423 154.469 178.629C171.97 147.116 212.234 146.839 229.458 178.601C229.901 179.395 230.575 179.792 231.48 179.792C255.534 179.829 279.515 179.866 303.422 179.903C310.475 179.903 314.868 182.275 316.604 187.02ZM175.958 179.847C175.798 179.846 175.64 179.889 175.503 179.972C175.366 180.055 175.255 180.175 175.182 180.318L167.623 195.216C167.556 195.348 167.524 195.494 167.531 195.642C167.537 195.789 167.582 195.932 167.66 196.058C167.738 196.183 167.846 196.286 167.976 196.357C168.105 196.428 168.251 196.464 168.398 196.462L215.585 196.435C215.732 196.436 215.877 196.4 216.007 196.329C216.136 196.258 216.245 196.155 216.323 196.03C216.401 195.905 216.445 195.761 216.452 195.614C216.458 195.467 216.427 195.32 216.36 195.189L208.8 180.318C208.728 180.175 208.617 180.055 208.48 179.972C208.343 179.889 208.185 179.846 208.025 179.847H175.958ZM125.448 213.077C125.448 210.896 124.582 208.804 123.039 207.262C121.497 205.719 119.405 204.853 117.224 204.853C115.043 204.853 112.951 205.719 111.408 207.262C109.866 208.804 108.999 210.896 108.999 213.077C108.999 215.259 109.866 217.351 111.408 218.893C112.951 220.435 115.043 221.302 117.224 221.302C119.405 221.302 121.497 220.435 123.039 218.893C124.582 217.351 125.448 215.259 125.448 213.077ZM274.983 213.077C274.983 210.896 274.117 208.804 272.574 207.262C271.032 205.719 268.94 204.853 266.759 204.853C264.577 204.853 262.486 205.719 260.943 207.262C259.401 208.804 258.534 210.896 258.534 213.077C258.534 215.259 259.401 217.351 260.943 218.893C262.486 220.435 264.577 221.302 266.759 221.302C268.94 221.302 271.032 220.435 272.574 218.893C274.117 217.351 274.983 215.259 274.983 213.077Z" fill="#9B2731"/>
</svg>
