<svg width="100" height="100" viewBox="0 0 100 100" fill="none" xmlns="http://www.w3.org/2000/svg">
<g clip-path="url(#clip0_1691_127)">
<path d="M52.2417 0.787988C53.3978 -0.330829 54.6951 -0.21362 55.7659 0.857248C62.4797 7.56838 69.4297 14.5481 76.6159 21.7964C77.1407 22.3252 77.4244 22.9939 77.764 23.6132C77.788 23.6585 77.7893 23.7042 77.768 23.7504C77.3436 24.641 76.9897 25.2333 76.7065 25.5272C75.5157 26.7668 74.1194 28.1715 72.5176 29.7414C71.9537 30.2937 71.5071 30.6316 71.1777 30.755C70.1015 31.1599 69.2384 30.743 68.5032 30.0064C61.4191 22.9188 54.4647 15.9431 47.6399 9.07923C46.4385 7.87117 46.4198 6.6085 47.6292 5.37514C49.2471 3.72622 50.7846 2.19717 52.2417 0.787988Z" fill="#143772"/>
<path d="M62.4795 33.3062L44.1869 15.188C44.1821 15.1833 44.1784 15.1777 44.1758 15.1715C44.1732 15.1653 44.1719 15.1587 44.1719 15.152C44.1719 15.1453 44.1732 15.1387 44.1758 15.1325C44.1784 15.1264 44.1821 15.1208 44.1869 15.116L47.1025 12.1752C47.1072 12.1704 47.1128 12.1666 47.1189 12.1641C47.1251 12.1615 47.1317 12.1602 47.1384 12.1602C47.1451 12.1602 47.1517 12.1615 47.1579 12.1641C47.1641 12.1666 47.1697 12.1704 47.1744 12.1752L65.5896 30.3466C65.5945 30.3513 65.5985 30.357 65.6012 30.3633C65.6039 30.3696 65.6053 30.3764 65.6053 30.3832C65.6053 30.3901 65.6039 30.3969 65.6012 30.4032C65.5985 30.4095 65.5945 30.4151 65.5896 30.4199L62.5501 33.3075C62.5405 33.3165 62.5277 33.3214 62.5146 33.3212C62.5014 33.3209 62.4888 33.3155 62.4795 33.3062Z" fill="#143772"/>
<path d="M30.2786 26.0646C29.2224 25.0004 29.293 23.6805 30.3372 22.6229C32.6095 20.3267 34.904 18.0389 37.2206 15.7595C37.8253 15.1655 38.49 14.8605 39.2079 14.4689C39.2549 14.4431 39.302 14.4427 39.3491 14.4675C40.023 14.8152 40.6637 15.0856 41.2351 15.6556C48.0767 22.4911 54.9472 29.3753 61.8466 36.3085C62.319 36.7835 62.628 37.1991 62.7736 37.5551C63.2118 38.6327 62.6897 39.5104 61.9065 40.2989C59.7808 42.4398 57.5853 44.6334 55.3202 46.8799C54.7643 47.4323 54.3359 47.7692 54.0349 47.8909C52.976 48.3211 52.0876 47.9428 51.3444 47.2009C44.2283 40.092 37.2064 33.0466 30.2786 26.0646Z" fill="#143772"/>
<path d="M29.9087 29.3782L48.2494 47.5217C48.2585 47.5309 48.2636 47.5433 48.2636 47.5563C48.2636 47.5693 48.2585 47.5817 48.2494 47.5909L45.3098 50.5292C45.3006 50.5383 45.2881 50.5434 45.2752 50.5434C45.2622 50.5434 45.2498 50.5383 45.2405 50.5292L26.8586 32.3524C26.8539 32.3478 26.8502 32.3423 26.8476 32.3362C26.8451 32.3302 26.8438 32.3237 26.8438 32.3171C26.8438 32.3105 26.8451 32.304 26.8476 32.2979C26.8502 32.2919 26.8539 32.2864 26.8586 32.2818L29.8395 29.3768C29.8489 29.3679 29.8614 29.363 29.8744 29.3633C29.8874 29.3635 29.8997 29.3689 29.9087 29.3782Z" fill="#143772"/>
<path d="M39.4088 62.4968C38.3459 63.0442 37.3843 62.5474 36.6171 61.7828C29.2142 54.3933 22.2088 47.3612 15.6006 40.6865C14.4552 39.529 14.6936 38.273 15.7551 37.1795C17.5577 35.3228 19.1129 33.7813 20.4209 32.5551C20.6091 32.3793 21.1339 32.0689 21.9952 31.6241C22.0316 31.6054 22.0685 31.6045 22.1058 31.6214C23.0141 32.0485 23.5869 32.3797 23.8239 32.615C30.6754 39.438 37.5836 46.3587 44.5487 53.3771C45.3519 54.1869 46.0445 54.9847 45.6049 56.1861C45.4708 56.5537 45.2395 56.9058 44.911 57.2423C42.9948 59.2029 41.4005 60.7928 40.128 62.0119C39.9558 62.1762 39.716 62.3378 39.4088 62.4968Z" fill="#143772"/>
<path d="M73.483 54.1914C74.3661 52.9927 75.4183 51.5515 77.1272 52.3241C77.3554 52.4271 77.6568 52.6624 78.0316 53.03C79.0687 54.0502 80.0956 55.1016 81.1123 56.184C81.118 56.19 81.121 56.1981 81.1208 56.2065C81.1205 56.215 81.117 56.2231 81.111 56.2293L71.0989 66.3066C71.0936 66.3118 71.0873 66.316 71.0804 66.3187C71.0735 66.3215 71.0661 66.3229 71.0586 66.3227C71.0512 66.3226 71.0439 66.321 71.037 66.318C71.0302 66.315 71.0241 66.3107 71.019 66.3053C70.1088 65.3774 69.1698 64.4286 68.2019 63.459C67.726 62.983 67.4006 62.5555 67.2256 62.1763C66.5011 60.6113 67.8969 59.4339 68.9558 58.5441C68.9878 58.5175 68.9887 58.4891 68.9585 58.4589L58.1006 47.7729C58.0607 47.7338 58.0602 47.6938 58.0993 47.653L62.3268 43.3189C62.336 43.3098 62.3485 43.3047 62.3614 43.3047C62.3744 43.3047 62.3869 43.3098 62.3961 43.3189L73.3525 54.2021C73.4004 54.2491 73.444 54.2456 73.483 54.1914Z" fill="#143772"/>
<path d="M13.1948 56.7107C12.2052 54.6955 11.2502 52.7163 10.3179 50.6571C10.2309 50.4636 10.2189 50.2345 10.2819 49.9699C10.4098 49.4344 11.2076 48.911 11.7377 49.2067C12.0583 49.3851 12.2785 49.5858 12.3983 49.8087C12.7899 50.5421 13.7538 52.5205 15.29 55.7438C15.6469 56.4923 15.7095 57.2355 14.8438 57.6058C13.9927 57.9721 13.5598 57.4526 13.1948 56.7107Z" fill="#143772"/>
<path d="M10.1911 60.6765C8.49246 59.841 6.90525 59.0676 5.42947 58.3563C4.89537 58.0992 4.10154 57.5025 4.4212 56.7913C4.78171 55.9886 5.36865 55.779 6.18201 56.1626C8.19499 57.1136 10.3496 58.1627 12.6458 59.31C12.8891 59.4316 13.0765 59.5897 13.2079 59.7841C13.4264 60.1078 13.7354 60.7897 13.3864 61.1147C13.1564 61.3296 12.9247 61.5298 12.6911 61.7154C12.6521 61.7456 12.6094 61.7523 12.5633 61.7354C11.939 61.5001 11.1483 61.1471 10.1911 60.6765Z" fill="#143772"/>
<path d="M82.8623 58.0115C82.8721 58.0016 82.8837 57.9939 82.8965 57.9885C82.9093 57.9832 82.9231 57.9805 82.9369 57.9805C82.9508 57.9805 82.9645 57.9832 82.9773 57.9885C82.9901 57.9939 83.0017 58.0016 83.0115 58.0115L96.6957 71.6957C98.0884 73.0886 98.8918 74.9565 98.9293 76.8886C98.9668 78.8207 98.2352 80.6586 96.8955 81.9981L96.8262 82.0674C95.4868 83.4071 93.6488 84.1387 91.7167 84.1012C89.7847 84.0637 87.9167 83.2603 86.5238 81.8676L72.8396 68.1834C72.8298 68.1736 72.822 68.162 72.8167 68.1492C72.8113 68.1364 72.8086 68.1227 72.8086 68.1088C72.8086 68.0949 72.8113 68.0812 72.8167 68.0684C72.822 68.0556 72.8298 68.044 72.8396 68.0342L82.8623 58.0115Z" fill="#143772"/>
<path d="M11.5386 64.7581C11.428 65.0431 11.2762 65.3681 10.9552 65.4493C8.49647 66.0709 6.04484 66.6538 3.60031 67.1982C3.55059 67.2088 3.50841 67.1959 3.47378 67.1595C3.29175 66.9722 3.10972 66.7782 2.92769 66.5775C2.53077 66.1406 2.49082 65.456 3.00894 65.095C3.22382 64.9459 3.47467 64.8411 3.76148 64.7807C5.37399 64.438 7.06332 64.0548 8.82945 63.6313C9.1651 63.5513 9.49852 63.4661 9.82973 63.3755C10.4264 63.2117 11.1177 63.4528 11.5013 63.919C11.6638 64.1179 11.6762 64.3976 11.5386 64.7581Z" fill="#143772"/>
<path d="M47.3984 69.0008C49.3297 69.4244 49.7839 70.8735 49.7919 72.5864C49.7972 74.0045 49.7981 75.4034 49.7945 76.7833C49.7945 76.8038 49.7863 76.8234 49.7715 76.8379C49.7568 76.8524 49.7368 76.8605 49.716 76.8605L14.6224 76.8619C14.6075 76.8619 14.5933 76.856 14.5828 76.8455C14.5723 76.835 14.5664 76.8208 14.5664 76.8059C14.5593 75.7688 14.5473 74.7019 14.5305 73.6053C14.5163 72.7236 14.5504 71.9497 14.633 71.2838C14.7915 69.9931 15.945 69.0488 17.205 68.9196C17.6774 68.8708 18.2035 68.8468 18.7833 68.8477C28.3217 68.8646 37.5257 68.8725 46.3955 68.8717C46.6743 68.8717 47.0086 68.9147 47.3984 69.0008Z" fill="#143772"/>
<path d="M56.1843 79.326C57.9398 79.6217 58.6963 80.9616 58.7216 82.6225C58.7474 84.2795 58.7416 86.0012 58.7043 87.7878C58.7036 87.8297 58.6864 87.8697 58.6565 87.8991C58.6266 87.9285 58.5864 87.9449 58.5445 87.9449H5.74293C5.69854 87.9449 5.67589 87.9227 5.67501 87.8783C5.63594 86.0589 5.63016 84.2022 5.65769 82.3082C5.66568 81.7879 5.73805 81.3537 5.8748 81.0056C6.33564 79.8295 7.68888 79.1968 8.89827 79.1968C23.0859 79.2093 38.2921 79.2062 54.5167 79.1875C55.0726 79.1866 55.6284 79.2328 56.1843 79.326Z" fill="#143772"/>
<path d="M1.0414 93.3122C1.13064 91.4209 2.56512 90.3234 4.38453 90.3234C22.8281 90.3198 41.274 90.3194 59.722 90.322C61.1632 90.322 62.4578 90.7775 63.0439 92.2067C63.2046 92.6009 63.2863 93.2096 63.2889 94.0328C63.2943 95.481 63.2889 96.8729 63.273 98.2084C63.2583 99.5736 62.5364 99.9985 61.3084 99.9985C40.802 100.006 21.3604 100.003 2.98334 99.9878C1.51157 99.9865 1.04007 99.3911 1.01875 97.9833C0.987676 95.8468 0.995223 94.2898 1.0414 93.3122Z" fill="#143772"/>
</g>
<defs>
<clipPath id="clip0_1691_127">
<rect width="100" height="100" fill="white"/>
</clipPath>
</defs>
</svg>
