<svg width="100" height="100" viewBox="0 0 100 100" fill="none" xmlns="http://www.w3.org/2000/svg">
<path d="M86.2962 17.0958C84.6578 17.9475 82.6447 18.4415 80.8797 18.1523C79.2854 17.8905 77.9446 17.1199 76.8571 15.8405C74.509 13.078 74.5066 9.30354 76.8149 6.49409C78.981 3.85691 82.2832 3.68825 85.3686 4.68457C85.4119 4.69822 85.4469 4.68618 85.4734 4.64843C86.4914 3.14491 87.8744 1.67393 89.6851 1.16673C91.4585 0.670379 93.2439 1.32576 94.5908 2.55579C97.1883 4.92672 96.4751 8.30481 94.5089 10.7938C94.4848 10.8251 94.488 10.8528 94.5186 10.8769C95.3201 11.5106 95.9767 12.1941 96.4883 12.9274C97.3927 14.2245 97.6424 15.6441 97.2377 17.1861C96.8497 18.6668 95.8835 19.9378 94.5342 20.6715C93.3351 21.322 92.0392 21.5116 90.6465 21.2401C88.4888 20.8184 87.1841 19.1426 86.4131 17.1404C86.3906 17.0817 86.3516 17.0669 86.2962 17.0958Z" fill="#143772"/>
<path d="M9.67252 10.4462C9.26411 10.2269 8.88703 10.3401 8.53404 10.5823C6.85825 11.7304 4.69936 11.5521 3.25608 10.1341C1.06345 7.98005 1.86581 4.31162 4.69695 3.19483C5.45272 2.89766 6.30447 2.85871 7.2522 3.07797C7.83529 3.2129 8.2702 2.96111 8.67499 2.55873C9.9472 1.29616 11.5314 0.764872 13.2819 1.17569C14.1228 1.37407 14.8392 1.72224 15.4312 2.2202C18.5575 4.85376 17.4961 9.8727 13.5217 10.9461C12.2278 11.2955 10.9447 11.1288 9.67252 10.4462Z" fill="#143772"/>
<path d="M31.9576 21.707C30.7425 21.7135 29.451 21.7135 28.0832 21.707C24.7413 21.6902 22.1703 19.6325 21.7571 16.3315C21.5435 14.628 22.0133 13.1229 23.1667 11.8161C23.8815 11.0057 24.8766 10.3548 26.152 9.86325C26.499 9.72832 26.7496 9.41509 26.7773 9.02837C26.9797 6.16591 29.0482 3.74438 31.783 2.92275C34.3912 2.13967 37.2416 2.95528 39.0572 4.9696C40.2025 6.241 40.7972 7.76701 40.8414 9.54761C40.8424 9.59245 40.8578 9.63577 40.8853 9.67115C40.9129 9.70653 40.9511 9.73207 40.9944 9.74398C41.6799 9.93192 42.3822 10.1753 42.9882 10.5608C44.2966 11.3921 45.1792 12.5305 45.6362 13.9762C46.6374 17.1375 44.5917 20.6758 41.4004 21.5131C40.8751 21.6504 40.1165 21.7187 39.1246 21.7179C37.8524 21.7163 36.5995 21.7127 35.3658 21.707C35.3597 21.7069 35.3537 21.7079 35.348 21.7102C35.3423 21.7124 35.3371 21.7158 35.3327 21.72C35.3283 21.7243 35.3248 21.7294 35.3225 21.735C35.3201 21.7407 35.3189 21.7467 35.3189 21.7528L35.3201 50.2666C35.3201 50.2834 35.3116 50.2919 35.2948 50.2919H32.201C32.1536 50.2919 32.1303 50.2686 32.1311 50.222C32.1512 44.9123 32.1468 39.5922 32.1179 34.2616C32.1143 33.5099 31.8275 32.9147 31.3565 32.2654C30.2184 30.6976 29.0277 29.1053 27.7844 27.4886C27.7805 27.4836 27.7776 27.4778 27.776 27.4716C27.7744 27.4654 27.774 27.459 27.7749 27.4526C27.7758 27.4462 27.7779 27.44 27.7812 27.4344C27.7845 27.4288 27.7889 27.4239 27.7941 27.4199L30.2228 25.5815C30.2622 25.5518 30.2971 25.5566 30.3276 25.5959L31.9709 27.7259C32.0207 27.7902 32.0456 27.7813 32.0456 27.6994L32.0468 21.795C32.0468 21.7364 32.0171 21.707 31.9576 21.707Z" fill="#143772"/>
<path d="M71.6468 48.9743C69.224 44.1144 66.8326 39.3183 64.4605 34.5054C64.3424 34.2661 64.3083 33.9733 64.3581 33.6272C64.3894 33.4119 64.475 33.1625 64.6147 32.879C66.5985 28.8721 68.5486 24.9627 70.4649 21.1509C70.5605 20.9613 70.6786 20.7935 70.8191 20.6473C71.3468 20.0987 71.9612 19.9823 72.6624 20.2979C73.0708 20.481 73.3587 20.9292 73.5563 21.3232C78.5921 31.39 83.2544 40.7327 87.5433 49.3514C87.6148 49.4944 87.6835 49.6522 87.7493 49.8249C87.7646 49.8666 87.7505 49.8899 87.7071 49.8948C87.475 49.9245 87.2393 49.9389 87 49.9381C82.3906 49.9261 77.6781 49.9329 72.8624 49.9586C72.5411 49.9602 72.2748 49.8546 72.0636 49.6418C71.9504 49.5269 71.8114 49.3044 71.6468 48.9743Z" fill="#143772"/>
<path d="M49.9199 39.9156C52.0145 35.7295 54.065 31.635 56.0713 27.6321C56.2785 27.2176 56.611 26.7454 57.0544 26.5888C58.023 26.2454 58.7398 26.7225 59.1711 27.5791C62.9202 35.0276 66.5337 42.2676 70.0113 49.2993C70.0989 49.476 70.1908 49.6659 70.2872 49.8691C70.2896 49.8742 70.2907 49.8799 70.2904 49.8855C70.2901 49.8912 70.2883 49.8967 70.2853 49.9015C70.2823 49.9063 70.2782 49.9102 70.2733 49.913C70.2683 49.9158 70.2628 49.9173 70.2571 49.9173H45.1455C44.9977 49.9173 44.9568 49.8511 45.0226 49.7185C46.6948 46.367 48.3272 43.0993 49.9199 39.9156Z" fill="#143772"/>
<path d="M17.4337 29.4589C16.441 31.2877 15.7687 33.1803 15.5242 35.1416C15.1314 38.2872 15.9145 41.4328 17.4602 44.2061C17.4996 44.276 17.4823 44.3266 17.4084 44.3579C16.1253 44.9024 16.1832 45.9505 16.2241 47.1191C16.2591 48.1371 16.235 49.1672 16.2386 50.1912C16.2394 50.2354 16.2173 50.2575 16.1723 50.2575L13.1027 50.2587C13.0896 50.2587 13.077 50.2535 13.0677 50.2442C13.0585 50.235 13.0533 50.2224 13.0533 50.2093C13.0758 48.6737 13.0677 47.1906 13.0292 45.7602C13.0207 45.4518 12.8918 45.1675 12.6292 44.9843C11.296 44.0551 10.3595 42.8006 9.81974 41.2207C9.21256 39.4401 8.97241 37.5852 9.09931 35.656C9.25713 33.2562 10.1956 30.966 11.9184 29.2709C13.6074 27.6108 15.7591 27.6759 17.4168 29.342C17.4514 29.3765 17.457 29.4155 17.4337 29.4589Z" fill="#143772"/>
<path d="M24.1842 28.4417C25.9696 29.2898 27.1249 31.3331 27.6394 33.1606C28.3389 35.6432 28.3241 38.1226 27.5948 40.5987C27.3057 41.5818 26.8254 42.556 26.1539 43.5214C25.8407 43.9728 25.521 44.2888 25.195 44.4695C24.3733 44.9249 24.1444 45.6526 24.1721 46.5477C24.2115 47.8167 24.2175 49.0403 24.1902 50.2185C24.1894 50.2619 24.1673 50.2836 24.1239 50.2836H21.0543C21.0418 50.2836 21.0299 50.2785 21.021 50.2695C21.0122 50.2604 21.0073 50.2482 21.0073 50.2354C21.0306 48.7158 21.0225 47.2549 20.9832 45.8526C20.9748 45.5514 20.8748 45.1851 20.6061 44.9996C18.7339 43.7057 17.7714 41.8552 17.322 39.618C16.7931 36.9857 16.9208 34.3316 18.0003 31.8836C18.5054 30.7383 19.152 29.8223 19.9399 29.1356C21.147 28.0815 22.7072 27.7405 24.1842 28.4417Z" fill="#143772"/>
<path d="M41.7917 35.2028L45.1878 31.6391C45.1919 31.635 45.1967 31.6318 45.202 31.6296C45.2073 31.6274 45.2131 31.6263 45.2188 31.6265C45.2246 31.6266 45.2302 31.6279 45.2355 31.6302C45.2407 31.6326 45.2454 31.6361 45.2493 31.6403L47.4467 34.1052C47.4516 34.1107 47.4543 34.1177 47.4543 34.1248C47.4543 34.132 47.4516 34.1388 47.4467 34.1438C46.4869 35.1566 45.4958 36.1702 44.4734 37.1846C43.9807 37.6737 43.3771 38.1038 42.9446 38.6013C42.0523 39.6326 41.6375 40.7478 41.7001 41.9469C41.7612 43.1139 41.7913 44.2459 41.7905 45.343C41.7889 47.0144 41.7736 48.6304 41.7447 50.1909C41.7439 50.2423 41.7178 50.268 41.6664 50.268L38.6991 50.2704C38.6884 50.2704 38.6777 50.2683 38.6678 50.2642C38.6578 50.2601 38.6488 50.254 38.6412 50.2464C38.6336 50.2388 38.6275 50.2298 38.6234 50.2199C38.6193 50.2099 38.6172 50.1993 38.6172 50.1885V29.7742C38.6172 29.7316 38.6381 29.7104 38.6798 29.7104L41.6676 29.7031C41.6813 29.7031 41.6945 29.7086 41.7042 29.7183C41.7139 29.728 41.7194 29.7412 41.7194 29.7549V35.1726C41.7194 35.2433 41.7435 35.2534 41.7917 35.2028Z" fill="#143772"/>
<path d="M32.293 94.2784C28.5089 92.4532 25.0115 90.0184 21.825 87.2596C15.8254 82.0639 11.5911 75.6816 9.12224 68.1127C8.38012 65.8389 7.79582 63.427 7.36934 60.877C6.97178 58.5013 6.8501 56.0581 6.77902 53.7763C6.73565 52.38 7.538 51.9186 8.78129 51.9186C36.1104 51.9178 63.3475 51.9178 90.4927 51.9186C91.4649 51.9186 92.4203 52.1125 92.5613 53.2667C92.6231 53.7767 92.6432 54.3208 92.6215 54.8991C92.2641 64.5201 89.3145 73.1059 83.7727 80.6564C81.0877 84.3148 77.8534 87.4921 74.0697 90.1883C68.3171 94.288 61.4501 96.83 54.412 97.7613C46.6149 98.7917 39.2419 97.6308 32.293 94.2784ZM47.2173 83.9887C46.5041 85.6304 45.2837 86.7817 43.5561 87.4427C41.8614 88.0917 40.0202 88.6619 38.0324 89.1534C36.0975 89.6317 34.0941 90.0064 32.1484 90.4052C31.987 90.4381 31.9797 90.4919 32.1267 90.5666C41.0048 95.0418 50.2657 96.0108 59.9092 93.4736C61.3826 93.0857 62.9343 92.2894 63.9005 91.0629C64.3077 90.5461 65.0041 90.1895 65.4896 89.8016C69.1122 86.9054 68.9604 81.3997 65.0245 78.8288C64.2065 78.2939 63.2608 77.8831 62.503 77.2687C60.3586 75.529 59.861 72.7184 60.3369 70.0318C60.5007 69.109 60.6839 68.3295 60.8863 67.6934C61.8163 64.7792 64.1595 63.4371 67.1581 63.7828C70.182 64.1314 73.2352 64.488 76.3178 64.8526C79.1091 65.1839 81.4186 63.6347 82.3836 61.0445C82.5836 60.5072 82.7266 59.8156 82.8125 58.9699C82.9418 57.6905 83.0908 56.4456 83.2595 55.2352C83.2603 55.2289 83.2599 55.2224 83.2581 55.2163C83.2563 55.2101 83.2532 55.2044 83.2491 55.1996C83.245 55.1948 83.2399 55.191 83.2342 55.1884C83.2285 55.1858 83.2223 55.1845 83.2161 55.1846H20.8733C20.7817 55.1846 20.7765 55.2067 20.8576 55.2509C21.7451 55.7296 22.6009 56.1846 23.4249 56.6158C24.2425 57.0423 24.9156 57.468 25.444 57.8929C27.6222 59.6434 28.6017 62.1576 28.733 64.9165C28.798 66.2754 28.8739 67.5573 28.9607 68.762C29.0944 70.627 29.9606 72.4618 31.387 73.6533C32.9219 74.9359 34.6715 75.3443 36.6361 74.8785C37.0762 74.7741 37.5637 74.6106 38.0986 74.3881C38.5869 74.1841 39.1198 73.9906 39.6973 73.8075C41.8574 73.122 43.6802 73.5256 45.3584 74.9315C46.9567 76.2712 47.7984 78.0096 47.8835 80.1468C47.9397 81.5555 47.7177 82.8362 47.2173 83.9887Z" fill="#143772"/>
</svg>
