<svg width="100" height="100" viewBox="0 0 100 100" fill="none" xmlns="http://www.w3.org/2000/svg">
<g clip-path="url(#clip0_1691_125)">
<path d="M79.7138 21.9977L69.8334 30.2168C69.7658 30.2741 69.7384 30.2587 69.7513 30.1707C69.8077 29.7884 69.8942 29.3907 70.0105 28.9776C70.9687 25.5884 71.8923 22.3808 72.7812 19.3551C72.8865 18.9967 72.8638 18.6615 72.7132 18.3493C72.6302 18.1766 72.4339 17.9388 72.1242 17.6361C69.6533 15.2201 67.1598 12.7446 64.6436 10.2097C64.6387 10.2045 64.6353 10.1981 64.6337 10.1911C64.6322 10.1841 64.6326 10.1769 64.6349 10.1702C64.6371 10.1636 64.6412 10.1577 64.6466 10.1534C64.652 10.149 64.6585 10.1463 64.6654 10.1456C65.1753 10.0797 65.7079 10.0451 66.2632 10.0417C68.8067 10.0297 71.2348 10.0391 73.5474 10.0699C74.4894 10.0827 74.9603 9.60037 75.3466 8.79859C76.7592 5.85747 78.2149 2.93132 79.7138 0.0201396C79.7169 0.0141818 79.7215 0.00916723 79.7272 0.00562309C79.7329 0.00207895 79.7395 0.000138588 79.7462 7.15556e-06C79.7529 -0.000124277 79.7595 0.00155702 79.7653 0.00487534C79.7712 0.00819367 79.776 0.0130248 79.7793 0.0188574C79.9324 0.269438 80.0595 0.492652 80.1604 0.688499C81.6705 3.60824 83.1279 6.52113 84.5328 9.42719C84.6654 9.70086 84.8763 9.88516 85.1655 9.98009C85.3751 10.0485 85.63 10.0806 85.9303 10.0763C88.9188 10.0327 91.9304 10.0254 94.965 10.0545C95.0206 10.0553 95.0288 10.0754 94.9894 10.1148C92.504 12.6351 89.9519 15.1786 87.333 17.7451C86.7991 18.2685 86.6464 18.9082 86.8749 19.6642C87.7039 22.4086 88.642 25.6927 89.6892 29.5164C89.7577 29.7653 89.8052 30.0073 89.8317 30.2425C89.8368 30.2853 89.8227 30.293 89.7893 30.2656L79.8512 21.9977C79.8058 21.9592 79.76 21.9592 79.7138 21.9977Z" fill="#143772"/>
<path d="M38.8947 2.86962C43.4031 4.73486 46.8796 8.63982 47.4058 13.589C47.5701 15.1412 47.4939 16.5695 47.1774 17.8737C46.9138 18.959 46.6354 20.0797 46.3419 21.236C46.3274 21.2907 46.2923 21.3147 46.2367 21.3078L46.0044 21.2783C45.9454 21.2706 45.9141 21.2369 45.9107 21.177C45.8294 19.594 45.7028 18.3163 45.5308 17.3439C45.0894 14.8526 43.4339 12.5679 41.9208 10.5833C41.3805 9.87391 40.4437 9.87904 39.7597 10.3793C38.9781 10.9515 38.2402 11.4916 37.4869 12.0509C35.2154 13.7374 32.6906 14.7337 29.9126 15.0399C29.2093 15.1177 28.3752 15.1519 27.4101 15.1425C26.4099 15.1323 25.4025 15.1293 24.3878 15.1335C23.3483 15.1387 22.5184 15.2135 21.8981 15.358C18.6924 16.1034 16.3028 18.5279 15.4789 21.726C15.4767 21.7347 15.472 21.7426 15.4654 21.7487C15.4589 21.7548 15.4506 21.7588 15.4418 21.7603C15.4329 21.7618 15.4239 21.7607 15.4156 21.7571C15.4074 21.7535 15.4004 21.7476 15.3955 21.7401C13.7271 19.1681 13.2343 15.9071 13.8067 12.9463C14.56 9.04007 16.7969 5.80218 20.2183 3.85227C22.7105 2.4326 25.3683 1.67658 28.1916 1.58422C30.3477 1.51409 32.2372 1.54274 33.8601 1.67017C35.6175 1.80871 37.2956 2.20853 38.8947 2.86962Z" fill="#143772"/>
<path d="M42.1128 29.5199C41.5751 33.2825 38.6734 36.5152 35.2418 37.9328C32.4886 39.0711 29.7512 39.2079 27.0297 38.3433C23.0411 37.0758 19.7506 33.7854 18.996 29.6084C18.6777 27.8433 18.6636 26.0242 18.6803 24.1371C18.6889 23.1502 18.786 22.3946 18.9716 21.8704C19.7006 19.8088 21.6756 18.5671 23.8522 18.5401C25.0405 18.5264 26.202 18.5196 27.3364 18.5196C28.7879 18.5196 30.2958 18.4619 31.7242 18.2066C34.0333 17.7961 36.2133 16.9404 38.2641 15.6396C38.9331 15.2146 39.5855 14.7634 40.2211 14.2862C40.2377 14.2736 40.2585 14.2678 40.2793 14.27C40.3 14.2721 40.3191 14.2821 40.3328 14.2978C41.4339 15.5819 42.2719 17.1393 42.3438 18.8519C42.4302 20.9514 42.455 23.0809 42.4182 25.2404C42.39 26.8713 42.2882 28.2978 42.1128 29.5199Z" fill="#143772"/>
<path d="M58.0908 55.4162C55.4403 61.3241 51.355 65.7875 45.8349 68.8065C42.8139 70.4587 39.5183 71.562 36.0007 72.2753C34.8063 72.5181 33.6543 72.6507 32.5446 72.6729C31.1569 72.7003 29.7636 72.7255 28.3648 72.7486C27.8091 72.7576 27.4049 72.4561 27.1572 71.9828C26.6396 70.9941 26.0616 69.9862 25.4234 68.9591C24.9255 68.1561 24.0682 67.4851 23.1044 67.9893C22.7262 68.1868 22.4075 68.4917 22.1483 68.904C21.7111 69.5984 21.2649 70.3664 20.8098 71.2079C20.7824 71.2584 20.7422 71.2734 20.6892 71.2528C17.74 70.0906 14.9796 68.6576 12.4437 66.8527C7.97597 63.6713 4.70132 59.6192 2.61974 54.6965C1.01643 50.9019 0.148036 46.8798 0.0145686 42.6302C-0.134299 37.8631 0.857721 33.3381 2.99063 29.0552C4.82195 25.3773 7.45665 22.0419 10.5251 19.1645C10.5288 19.161 10.5333 19.1585 10.5382 19.1572C10.5431 19.1559 10.5482 19.1559 10.5531 19.1572C10.558 19.1585 10.5625 19.161 10.5661 19.1646C10.5698 19.1681 10.5724 19.1725 10.5739 19.1773C11.2605 21.2016 12.0266 23.1195 13.2869 24.8654C13.6068 25.3084 13.5897 25.7245 13.2355 26.1136C9.93349 29.73 7.76722 33.9761 7.06908 38.8432C6.28368 44.3192 7.21923 49.38 9.87574 54.0256C11.2344 56.4014 12.9626 58.5006 15.0604 60.3231C16.8657 61.8915 18.8818 63.1675 21.1088 64.151C25.4439 66.065 30.3668 66.5179 34.9599 65.6494C41.3509 64.441 47.09 60.74 50.6012 55.143C53.0344 51.2645 54.2741 46.958 54.3203 42.2235C54.3807 36.1813 52.045 30.7716 48.014 26.2689C47.6127 25.8207 47.5593 25.3426 47.8536 24.8346C48.8597 23.0938 49.7465 21.2542 50.6461 19.439C50.6508 19.4294 50.6577 19.4209 50.6661 19.4143C50.6746 19.4076 50.6845 19.403 50.695 19.4008C50.7055 19.3986 50.7164 19.3988 50.7269 19.4014C50.7373 19.404 50.747 19.409 50.7552 19.4159C51.195 19.782 51.6506 20.2147 52.122 20.7142C55.1224 23.8969 57.6506 27.4978 59.2355 31.5028C60.7926 35.436 61.4155 39.5146 61.1041 43.7385C60.8123 47.694 59.8079 51.5865 58.0908 55.4162Z" fill="#143772"/>
<path d="M10.2178 41.8991C10.3397 37.1911 11.999 32.4651 15.2561 29.0515C15.334 28.9702 15.3823 28.9852 15.4012 29.0964C15.5055 29.6959 15.636 30.283 15.7926 30.8577C16.9236 35.0047 19.3432 38.1425 23.0511 40.2711C23.6235 40.6008 23.816 41.2089 23.7929 41.8388C23.7467 43.1019 23.7394 44.4647 23.7711 45.9272C23.772 45.9811 23.7459 46.0106 23.6928 46.0157C22.3222 46.1457 21.0393 46.3676 19.8441 46.6815C16.859 47.464 14.3608 48.8957 12.3494 50.9764C12.3418 50.9841 12.3326 50.9899 12.3223 50.9933C12.3121 50.9967 12.3012 50.9976 12.2906 50.996C12.2799 50.9944 12.2698 50.9902 12.2611 50.9839C12.2523 50.9776 12.2452 50.9693 12.2403 50.9597C10.809 48.1392 10.1348 45.119 10.2178 41.8991Z" fill="#143772"/>
<path d="M45.2803 48.2853C43.1307 47.0692 40.7052 46.3931 38.2219 46.0852C37.9507 46.0519 37.6829 46.0194 37.4185 45.9878C37.3672 45.9809 37.3415 45.9514 37.3415 45.8992C37.3295 44.3829 37.3368 42.8136 37.3633 41.1912C37.3685 40.8526 37.5738 40.5921 37.842 40.4138C39.1741 39.5278 40.3728 38.6012 41.4379 37.6339C42.6554 36.5298 43.5892 35.2076 44.2395 33.6674C44.817 32.3016 45.3158 30.7849 45.7359 29.1172C45.7384 29.1066 45.7438 29.097 45.7513 29.0892C45.7588 29.0814 45.7682 29.0757 45.7786 29.0727C45.7891 29.0697 45.8001 29.0695 45.8106 29.0721C45.8211 29.0748 45.8307 29.0801 45.8385 29.0877C49.1624 32.3717 50.8076 37.353 50.8872 41.9712C50.9428 45.1586 50.2776 48.1673 48.8916 50.9972C48.8877 51.005 48.8821 51.0117 48.8751 51.0168C48.8682 51.0219 48.8601 51.0253 48.8517 51.0267C48.8433 51.0281 48.8347 51.0274 48.8267 51.0247C48.8186 51.0221 48.8114 51.0175 48.8056 51.0113C47.7276 49.9132 46.5525 49.0046 45.2803 48.2853Z" fill="#143772"/>
<path d="M84.8017 55.9389L74.8879 64.1863C74.8349 64.2308 74.8131 64.2188 74.8225 64.1504C74.8533 63.916 74.9051 63.6676 74.9778 63.405C75.8205 60.3382 76.7745 57.0122 77.8396 53.4271C78.0296 52.7883 77.8824 52.2311 77.3982 51.7556C74.8015 49.2079 72.2203 46.6396 69.6545 44.0509C69.6497 44.0463 69.6465 44.0404 69.6452 44.034C69.6439 44.0275 69.6446 44.0208 69.6472 44.0146C69.6498 44.0085 69.6542 44.0031 69.6598 43.9993C69.6655 43.9955 69.6721 43.9934 69.6789 43.9932C72.7529 43.9692 75.8188 43.9748 78.8766 44.0098C79.4909 44.0167 79.9323 43.7439 80.201 43.1914C81.7153 40.0775 83.0953 37.3053 84.341 34.8747C84.4984 34.5669 84.6606 34.2663 84.8274 33.9729C84.8308 33.967 84.8357 33.9621 84.8416 33.9586C84.8475 33.9551 84.8542 33.9533 84.8611 33.9531C84.8679 33.953 84.8746 33.9546 84.8807 33.9579C84.8867 33.9611 84.8918 33.9659 84.8954 33.9716C85.0725 34.259 85.2347 34.5468 85.3818 34.835C86.8191 37.6384 88.1919 40.3974 89.5 43.1118C89.7935 43.7199 90.3154 44.0188 91.0657 44.0085C93.6889 43.9709 96.6482 43.9671 99.9439 43.997C100.005 43.997 100.016 44.021 99.9785 44.0688C99.8159 44.2732 99.6513 44.4605 99.4844 44.6307C97.2831 46.8859 94.8708 49.2938 92.2477 51.8544C91.8088 52.2828 91.7228 52.7985 91.8896 53.3681C92.9788 57.0815 93.9648 60.5246 94.8477 63.6975C94.8896 63.8506 94.9132 64.0084 94.9183 64.1709C94.9192 64.2145 94.9029 64.2222 94.8695 64.194L84.9468 55.9389C84.8988 55.8987 84.8505 55.8987 84.8017 55.9389Z" fill="#143772"/>
<path d="M33.9287 46.039C33.8132 46.3443 33.6276 46.5496 33.3718 46.6548C31.5768 47.3911 29.7583 47.4146 27.9163 46.7253C27.5184 46.5765 27.1938 46.2994 27.1848 45.8607C27.1557 44.6026 27.1488 43.3827 27.1642 42.2007C27.1642 42.1554 27.1869 42.1328 27.2323 42.1328L33.8774 42.1289C33.939 42.1289 33.9694 42.1593 33.9685 42.22L33.9364 45.9941C33.9364 46.0094 33.9338 46.0246 33.9287 46.039Z" fill="#143772"/>
<path d="M25.9012 62.1383C21.0142 61.062 17.0911 58.1114 14.0483 54.2244C14.0252 54.1954 14.0256 54.1667 14.0495 54.1385C15.6024 52.2878 17.5411 50.981 19.8656 50.2182C21.0857 49.8179 22.3245 49.5536 23.5822 49.4254C24.4677 49.3356 25.4494 49.4048 26.2964 49.714C26.6823 49.8551 27.0476 49.9855 27.3924 50.1053C29.3371 50.7792 31.3323 50.8236 33.3779 50.2387C33.9717 50.0685 34.6018 49.8436 35.2683 49.5639C35.7996 49.3416 36.4156 49.2714 37.1163 49.3535C38.5374 49.5203 39.8601 49.7867 41.0844 50.1527C43.509 50.8771 45.4986 52.1997 47.0532 54.1205C47.0763 54.1496 47.0767 54.1791 47.0545 54.2091C43.9565 58.3231 39.7754 61.2865 34.6613 62.2409C31.6668 62.7994 28.7468 62.7652 25.9012 62.1383Z" fill="#143772"/>
<path d="M58.1873 62.3885C58.204 62.3719 58.2238 62.3586 58.2456 62.3496C58.2674 62.3406 58.2908 62.3359 58.3144 62.3359C58.338 62.3359 58.3613 62.3406 58.3831 62.3496C58.4049 62.3586 58.4248 62.3719 58.4414 62.3885L86.5504 90.4865C87.0748 91.0107 87.4956 91.6282 87.7886 92.3038C88.0816 92.9795 88.2412 93.7 88.2583 94.4243C88.2753 95.1485 88.1495 95.8624 87.8879 96.525C87.6264 97.1876 87.2342 97.7861 86.7339 98.2862L86.562 98.4581C86.0617 98.9582 85.463 99.3502 84.8001 99.6116C84.1372 99.8731 83.4231 99.9989 82.6985 99.9818C81.974 99.9648 81.2532 99.8053 80.5773 99.5123C79.9014 99.2194 79.2836 98.7988 78.7593 98.2746L50.6503 70.1767C50.6336 70.16 50.6204 70.1402 50.6113 70.1184C50.6023 70.0966 50.5977 70.0732 50.5977 70.0496C50.5977 70.0261 50.6023 70.0027 50.6113 69.9809C50.6204 69.9591 50.6336 69.9393 50.6503 69.9226L58.1873 62.3885Z" fill="#143772"/>
<path d="M19.5788 80.2077C20.8219 77.9712 22.2122 75.5433 23.7496 72.9237C23.7513 72.9208 23.7537 72.9183 23.7567 72.9166C23.7596 72.915 23.7629 72.9141 23.7663 72.9141C23.7697 72.9141 23.773 72.915 23.7759 72.9166C23.7789 72.9183 23.7813 72.9208 23.783 72.9237C25.4462 75.7494 27.0919 78.6323 28.72 81.5726C29.0836 82.2285 29.6068 82.6707 30.2895 82.899C30.6189 83.0102 31.2114 83.0603 32.0669 83.0491C36.5586 82.9935 41.0845 82.991 45.6447 83.0414C47.1629 83.0581 47.5273 83.9741 47.5286 85.2556C47.5372 89.6036 47.535 93.8344 47.5222 97.948C47.5183 99.4528 46.7907 99.9967 45.3842 99.998C30.5393 100.003 16.1719 100.002 2.28193 99.9941C0.992177 99.9928 0.0386575 99.6465 0.0296741 98.1712C0.00229621 93.9088 -0.00326555 89.5869 0.0129901 85.2056C0.0181234 83.8727 0.449326 83.0555 1.91618 83.0402C6.58582 82.9931 11.3385 82.9944 16.1741 83.044C18.2403 83.0658 18.7485 81.7034 19.5788 80.2077ZM40.6602 86.5141C40.6602 86.5022 40.6554 86.4907 40.647 86.4823C40.6386 86.4739 40.6272 86.4692 40.6153 86.4692H6.89425C6.88234 86.4692 6.87092 86.4739 6.86249 86.4823C6.85407 86.4907 6.84934 86.5022 6.84934 86.5141V89.6955C6.84934 89.7074 6.85407 89.7188 6.86249 89.7273C6.87092 89.7357 6.88234 89.7404 6.89425 89.7404H40.6153C40.6272 89.7404 40.6386 89.7357 40.647 89.7273C40.6554 89.7188 40.6602 89.7074 40.6602 89.6955V86.5141ZM44.0905 93.3375C44.0905 93.3239 44.0851 93.3108 44.0755 93.3012C44.0659 93.2916 44.0528 93.2862 44.0392 93.2862H3.53704C3.52342 93.2862 3.51037 93.2916 3.50074 93.3012C3.49111 93.3108 3.48571 93.3239 3.48571 93.3375V96.4907C3.48571 96.5043 3.49111 96.5174 3.50074 96.527C3.51037 96.5366 3.52342 96.542 3.53704 96.542H44.0392C44.0528 96.542 44.0659 96.5366 44.0755 96.527C44.0851 96.5174 44.0905 96.5043 44.0905 96.4907V93.3375Z" fill="#143772"/>
</g>
<defs>
<clipPath id="clip0_1691_125">
<rect width="100" height="100" fill="white"/>
</clipPath>
</defs>
</svg>
