<svg width="100" height="100" viewBox="0 0 100 100" fill="none" xmlns="http://www.w3.org/2000/svg">
<path d="M71.6121 86.0987C72.5705 85.4982 73.5387 84.865 74.5167 84.1992C74.6897 84.0813 74.8169 83.9358 74.8983 83.7628C75.0035 83.5372 75.0565 83.3162 75.0574 83.1C75.0735 74.094 75.0773 60.0979 75.0688 41.1115C75.0688 39.693 75.6019 38.8902 77.1159 38.8762C79.2906 38.8558 81.4874 38.8558 83.7062 38.8762C85.1935 38.8914 85.682 39.7642 85.682 41.1344C85.6803 51.701 85.6803 62.1429 85.682 72.46C85.682 72.5347 85.7037 72.5415 85.7469 72.4804C86.9369 70.7824 87.9874 68.9613 88.8983 67.0173C94.182 55.7438 93.8728 42.2235 88.5243 31.0836C86.1384 26.1158 82.8635 21.8143 78.6999 18.179C78.6371 18.1239 78.6066 18.1383 78.6083 18.2223C78.6261 19.1595 78.6231 20.0929 78.5994 21.0225C78.5671 22.2744 78.121 23.252 77.2609 23.9551C75.7673 25.1752 73.5485 24.9271 72.3487 23.4118C71.8118 22.7333 71.5421 21.8839 71.5396 20.8635C71.5294 17.5302 71.5286 14.2414 71.537 10.9971C71.5409 9.29739 72.2113 7.86101 73.9238 7.27577C74.3436 7.13158 75.0137 7.06033 75.934 7.06203C79.0951 7.06796 82.2423 7.06881 85.3754 7.06457C87.0255 7.0633 88.612 7.97551 89.0713 9.61418C89.5154 11.2032 88.8907 12.7974 87.4288 13.6014C86.7253 13.9882 85.9874 14.0875 85.1973 14.1943C85.188 14.1954 85.1792 14.199 85.1718 14.2048C85.1644 14.2106 85.1588 14.2183 85.1554 14.2272C85.152 14.236 85.151 14.2457 85.1526 14.2551C85.1541 14.2645 85.1582 14.2734 85.1642 14.2808C85.6299 14.8419 86.1502 15.3419 86.6413 15.8737C94.3258 24.2146 98.6701 34.1234 99.6744 45.6001C100.153 51.0632 99.6638 56.5462 98.2074 62.0491C95.3907 72.6916 89.0395 82.2552 80.2775 88.9193C75.956 92.2059 71.1914 94.6682 65.9836 96.306C60.976 97.8798 55.7648 98.8594 50.5422 98.9854C45.9909 99.0965 41.613 98.5736 37.4087 97.4167C28.0753 94.848 19.8909 89.2539 13.27 82.1241C6.1649 74.4745 2.15643 65.3986 1.24464 54.8965C0.79808 49.7502 0.938028 44.5403 1.8706 39.4919C3.18102 32.3987 5.96388 26.0306 10.2192 20.3877C14.5665 14.6218 20.1492 9.9755 26.457 6.21088C30.9769 3.51369 35.9659 1.6969 41.4239 0.760521C43.887 0.338131 46.5549 0.0862227 49.4277 0.00479802C50.3174 -0.019799 50.9938 0.0501765 51.4569 0.214722C53.1936 0.835585 54.1987 2.52642 53.7725 4.33048C53.4328 5.76687 52.3234 6.72233 50.8832 6.9946C50.6635 7.03616 50.2623 7.06457 49.6796 7.07984C47.2182 7.14515 44.7929 7.39494 42.4035 7.8292C36.4595 8.90935 30.7458 11.2694 25.8871 14.819C21.4503 18.059 17.7242 21.9509 14.709 26.4945C10.6683 32.5836 8.44691 39.3507 8.04488 46.796C7.89814 49.5093 7.97575 52.1 8.2777 54.5682C8.40832 55.6395 8.54912 56.7281 8.70009 57.8341C8.70097 57.8391 8.70319 57.8438 8.70653 57.8477C8.70987 57.8515 8.71419 57.8544 8.71903 57.8559C8.72387 57.8575 8.72905 57.8577 8.73401 57.8566C8.73896 57.8554 8.74351 57.8529 8.74716 57.8494C9.92188 56.6382 11.0631 55.4745 12.1708 54.3583C13.4024 53.1179 15.0156 52.5059 16.6568 53.4614C17.0419 53.6861 17.3807 53.9427 17.6733 54.2311C19.1364 55.6772 20.5334 57.064 21.8642 58.3914C21.8998 58.4279 21.9354 58.4279 21.971 58.3914L27.6122 52.7413C27.619 52.7345 27.6242 52.7262 27.6272 52.717C27.6303 52.7079 27.6311 52.6983 27.6298 52.6888C27.6284 52.6794 27.6248 52.6705 27.6194 52.6628C27.6139 52.6551 27.6067 52.6489 27.5982 52.6446C26.1441 51.8749 25.3718 50.3698 25.6759 48.7896C25.9125 47.5581 26.8171 46.4576 28.0524 46.0975C28.4061 45.9949 28.8412 45.9406 29.3578 45.9347C31.4333 45.9109 33.5562 45.9067 35.7267 45.922C36.4163 45.927 36.9714 45.9987 37.3921 46.137C38.8539 46.6166 39.7051 47.983 39.7254 49.5339C39.7526 51.5992 39.7572 53.7112 39.7394 55.8698C39.7326 56.6908 39.6682 57.2879 39.546 57.6611C39.306 58.3914 38.8595 58.9766 38.2064 59.4168C36.7064 60.4283 34.8819 60.2298 33.6275 58.9054C33.3514 58.614 33.1377 58.254 32.9277 57.9105C32.9023 57.8698 32.8718 57.8647 32.8361 57.8952C32.6088 58.0869 32.407 58.2705 32.2305 58.4461C29.7293 60.9329 27.2441 63.4096 24.7751 65.8761C23.7306 66.9193 22.3311 67.4651 20.9202 66.9143C20.242 66.6484 19.728 66.2476 19.1708 65.6942C17.8095 64.3447 16.4689 63.0139 15.1492 61.7018C14.9991 61.5525 14.8494 61.5529 14.7001 61.7031C13.6517 62.7607 12.597 63.8629 11.536 65.0097C11.413 65.1428 11.343 65.2921 11.326 65.4575C11.2972 65.7332 11.3438 66.0114 11.466 66.2921C15.1191 74.6492 20.8888 81.1725 28.7751 85.862C30.044 86.6169 31.3209 87.3603 32.6059 88.0923C32.6117 88.0957 32.6183 88.0974 32.625 88.0974C32.6317 88.0974 32.6382 88.0957 32.644 88.0923C32.6498 88.0889 32.6547 88.0841 32.658 88.0783C32.6614 88.0725 32.6631 88.0659 32.6631 88.0592C32.658 82.8082 32.6606 77.7005 32.6708 72.7361C32.6733 71.1623 33.499 70.6649 34.9354 70.6598C37.0685 70.6522 39.1088 70.6534 41.0562 70.6636C42.8119 70.6725 43.2661 71.4651 43.2674 73.0555C43.2708 79.1114 43.2695 85.1542 43.2636 91.1839C43.2637 91.2054 43.2715 91.2262 43.2855 91.2424C43.2995 91.2585 43.3189 91.2689 43.3399 91.2717L46.7483 91.7182C46.7805 91.7225 46.7967 91.7081 46.7967 91.675C46.7975 81.8413 46.7975 72.0911 46.7967 62.4244C46.7967 61.5822 46.9264 60.5746 47.8107 60.2641C48.1855 60.1327 48.6236 60.0657 49.1249 60.0631C52.0112 60.0479 54.1096 60.0521 55.42 60.0759C57.0167 60.1051 57.4022 61.0288 57.4022 62.4028C57.4073 71.9965 57.4086 81.5834 57.406 91.1635C57.406 91.2119 57.4298 91.231 57.4773 91.2208L60.8513 90.502C60.909 90.4892 60.9378 90.4536 60.9378 90.3951C60.9387 77.5258 60.9383 64.6925 60.9366 51.8952C60.9353 51.0555 61.0256 50.0085 61.9264 49.6751C62.2869 49.542 62.6715 49.4741 63.0803 49.4716C65.1448 49.4588 67.2614 49.4571 69.4302 49.4665C70.9989 49.4728 71.537 50.2451 71.537 51.74C71.5413 63.17 71.5421 74.6093 71.5396 86.058C71.5396 86.1156 71.5638 86.1292 71.6121 86.0987Z" fill="#143772"/>
<path d="M67.9912 28.2632C67.9912 32.9463 66.1308 37.4376 62.8194 40.7491C59.5079 44.0605 55.0166 45.9209 50.3335 45.9209C45.6504 45.9209 41.1591 44.0605 37.8476 40.7491C34.5361 37.4376 32.6758 32.9463 32.6758 28.2632C32.6758 23.5801 34.5361 19.0888 37.8476 15.7773C41.1591 12.4658 45.6504 10.6055 50.3335 10.6055C55.0166 10.6055 59.5079 12.4658 62.8194 15.7773C66.1308 19.0888 67.9912 23.5801 67.9912 28.2632ZM48.7088 36.6779C47.5197 36.0087 46.8814 34.9905 46.7941 33.6232C46.7754 33.334 46.7152 33.0749 46.6134 32.8459C46.1516 31.8039 44.8233 31.4604 43.9404 32.1957C43.3704 32.6703 43.2216 33.3853 43.2699 34.0978C43.4327 36.5316 44.9671 38.6385 47.079 39.7759C47.7394 40.1321 48.3246 40.239 48.6554 40.9845C49.1605 42.1232 51.0854 43.1206 51.8386 41.5392C51.9242 41.3577 51.9925 41.1618 52.0434 40.9514C52.1732 40.4184 52.6172 40.2148 53.0765 40.015C55.3437 39.0252 56.8373 37.2606 57.2609 34.8675C58.0294 30.524 55.0192 26.851 50.705 26.5253C50.3386 26.4973 49.9853 26.4481 49.6452 26.3777C48.1058 26.0558 46.9518 24.8637 46.8195 23.2912C46.5994 20.6792 49.2114 18.7149 51.6299 19.6856C53.0141 20.2416 53.7177 21.5164 53.8933 22.9858C54.1961 25.5278 57.4976 25.1818 57.3945 22.6131C57.2813 19.7696 55.4187 17.4591 52.8195 16.3892C52.261 16.1589 52.093 15.8764 51.9633 15.3001C51.8042 14.6004 51.1477 14.1818 50.4518 14.1614C49.4713 14.1326 48.8784 14.5592 48.6732 15.4413C48.5714 15.8815 48.3093 16.2072 47.8997 16.3701C45.5574 17.3052 43.9149 19.164 43.3971 21.6309C43.0969 23.0622 43.3004 24.7276 43.9671 26.0202C45.2368 28.482 47.5218 29.968 50.3119 30.0329C51.3182 30.0558 52.2928 30.4566 52.9582 31.2072C54.6261 33.0939 53.8971 35.9247 51.5727 36.8611C50.6592 37.2288 49.5638 37.1601 48.7088 36.6779Z" fill="#143772"/>
</svg>
