<svg width="100" height="100" viewBox="0 0 100 100" fill="none" xmlns="http://www.w3.org/2000/svg">
<path d="M87.0229 3.55165C87.0164 4.57097 87.0127 5.58047 87.0119 6.58014C87.0119 6.72669 86.9591 7.0329 86.8535 7.49876C86.4212 9.41213 84.8332 9.98074 83.0758 9.98565C79.7387 9.9963 76.6406 9.99425 73.7816 9.97951C73.2797 9.97706 72.7467 9.85711 72.1826 9.61968C70.9656 9.10756 70.37 7.83648 70.3368 6.55435C70.3188 5.88053 70.3081 5.13999 70.3049 4.33272C70.3 3.35188 70.3957 2.60889 70.5922 2.10373C71.2137 0.508433 72.5695 0 74.1807 0C80.0412 0.00163746 85.8018 0.00245672 91.4625 0.00245672C92.2411 0.00245672 92.8625 0.0667271 93.3268 0.195268C95.1664 0.704928 96.4916 2.10496 96.8723 3.97289C96.9623 4.41665 97.0082 4.91361 97.0098 5.4638C97.0147 6.98419 97.0143 8.45913 97.0086 9.88863C97.0086 9.89492 97.0074 9.90115 97.0049 9.90696C97.0025 9.91277 96.999 9.91805 96.9946 9.9225C96.9901 9.92695 96.9848 9.93048 96.979 9.93288C96.9732 9.93529 96.967 9.93653 96.9607 9.93653L93.7099 9.9353C93.7005 9.9353 93.6914 9.93155 93.6847 9.92487C93.6781 9.91819 93.6743 9.90913 93.6743 9.89969C93.6784 8.44071 93.6776 6.96658 93.6719 5.47731C93.6694 4.69624 93.511 3.81815 92.7053 3.52218C92.3803 3.40183 92.0389 3.34165 91.6811 3.34165C90.0207 3.34083 88.5355 3.3437 87.2256 3.35025C87.0921 3.35107 87.0246 3.4182 87.0229 3.55165Z" fill="#143772"/>
<path d="M13.6177 3.33229C12.1809 3.32082 10.6195 3.32328 8.93377 3.33966C8.51294 3.34375 8.1965 3.39164 7.98445 3.48334C7.27339 3.78914 7.01057 4.52845 7.00812 5.27268C7.0032 6.81435 7.00279 8.3552 7.00689 9.89523C7.00689 9.90088 7.00578 9.90647 7.00362 9.91168C7.00146 9.9169 6.99829 9.92164 6.9943 9.92563C6.99031 9.92962 6.98557 9.93278 6.98035 9.93495C6.97514 9.93711 6.96955 9.93822 6.96391 9.93822L3.63699 9.93699C3.60997 9.93699 3.59687 9.92348 3.59769 9.89646C3.63126 8.60369 3.66524 7.36372 3.69962 6.17656C3.73074 5.07455 3.82407 4.15511 3.97963 3.41825C4.37139 1.55277 6.22091 0.214149 8.05568 0.0544964C8.43312 0.0217471 8.85026 0.00496365 9.30711 0.00414492C15.184 -0.00322366 21.0887 -0.000767765 27.0212 0.0115132C28.2702 0.0139694 29.4172 0.629246 29.96 1.76278C30.1491 2.15823 30.2609 2.63227 30.2953 3.18491C30.3624 4.28201 30.3681 5.41882 30.3125 6.59534C30.2797 7.27652 30.1663 7.81607 29.9723 8.21397C29.3632 9.4654 28.2063 9.97506 26.8517 9.97997C23.7143 9.99062 20.5733 9.99266 17.4285 9.98611C16.7187 9.98448 16.1828 9.91652 15.8209 9.78225C14.4639 9.27873 13.7111 8.00642 13.6779 6.58797C13.6509 5.44502 13.6493 4.37862 13.673 3.38878C13.6733 3.37413 13.6677 3.35994 13.6573 3.34935C13.6469 3.33875 13.6327 3.33262 13.6177 3.33229Z" fill="#143772"/>
<path d="M2.91462 89.2798C3.14877 88.6969 3.32439 88.1107 3.44147 87.5212C3.65884 86.427 3.69077 85.1976 3.68955 84.0408C3.6699 61.1319 3.66498 37.6081 3.67481 13.4694C3.67481 13.4195 3.69978 13.3945 3.74972 13.3945H6.96611C6.98903 13.3945 7.00049 13.4064 7.00049 13.4301C7.00623 37.6073 7.00336 61.5646 6.9919 85.302C6.9919 86.1658 7.10202 87.0267 7.32225 87.8847C7.49787 88.5651 7.81227 89.2307 7.98666 89.9332C7.98775 89.9382 7.98772 89.9433 7.98657 89.9483C7.98542 89.9533 7.98317 89.9579 7.98 89.9619C7.97682 89.9659 7.9728 89.9692 7.96821 89.9714C7.96363 89.9737 7.9586 89.9749 7.9535 89.9749L2.82988 89.9737C2.77666 89.9737 2.75292 89.9475 2.75865 89.8951C2.78239 89.6847 2.83438 89.4796 2.91462 89.2798Z" fill="#143772"/>
<path d="M92.9756 89.0637C93.71 87.348 93.6891 85.442 93.6879 83.5618C93.674 60.1944 93.6707 36.827 93.6781 13.4596C93.6781 13.4162 93.6998 13.3945 93.7432 13.3945H96.9853C96.9993 13.3945 97.0062 13.4015 97.0062 13.4154C97.016 37.4222 97.0107 61.3681 96.9902 85.2529C96.9894 86.0446 97.1057 86.9452 97.339 87.9547C97.4827 88.5798 97.7971 89.2639 97.969 89.9393C97.9701 89.944 97.9702 89.9488 97.9692 89.9535C97.9681 89.9582 97.9661 89.9626 97.9631 89.9664C97.9602 89.9701 97.9564 89.9732 97.9521 89.9753C97.9478 89.9774 97.9431 89.9786 97.9383 89.9786H92.8172C92.764 89.9786 92.7406 89.9524 92.7472 89.9C92.7857 89.6061 92.8618 89.3273 92.9756 89.0637Z" fill="#143772"/>
<path d="M28.6021 20.0438C27.0785 20.0143 25.5102 20.0119 23.8973 20.0364C23.1064 20.0475 22.4751 20.1875 22.1878 20.9465C22.0707 21.2576 22.0121 21.617 22.0121 22.0247C22.0154 23.5811 22.0162 25.0941 22.0146 26.5638C22.0146 26.6063 21.9937 26.6276 21.952 26.6276H18.8584C18.8508 26.6276 18.8435 26.6245 18.838 26.6191C18.8325 26.6136 18.8292 26.6061 18.8289 26.5982C18.8011 25.465 18.7749 24.3098 18.7503 23.1325C18.7364 22.4693 18.7569 21.7861 18.8117 21.0828C18.869 20.3418 19.0332 19.7077 19.3042 19.1804C19.9858 17.8529 21.2409 17.0325 22.6962 16.7636C23.0089 16.7062 23.4785 16.6755 24.1048 16.6714C29.56 16.6387 35.1168 16.6358 40.775 16.6629C41.4713 16.6653 42.3236 16.6199 42.9512 16.8029C44.5281 17.2609 45.2809 18.575 45.3239 20.1531C45.3599 21.4516 45.3488 22.6122 45.2907 23.6348C45.2244 24.8113 44.5084 25.9473 43.3823 26.3943C43.0155 26.54 42.5422 26.617 41.9626 26.6252C37.2049 26.689 33.7302 26.6792 31.5385 26.5957C29.8314 26.5306 28.7286 24.9611 28.6844 23.3793C28.6582 22.4427 28.6557 21.357 28.677 20.1224C28.6787 20.0716 28.6537 20.0454 28.6021 20.0438Z" fill="#143772"/>
<path d="M72.0098 20.0758C72.009 20.9412 72.0118 21.7637 72.0184 22.5431C72.0241 23.3364 71.9566 23.9476 71.8157 24.3766C71.4686 25.4361 70.7801 26.1345 69.7501 26.4718C69.3694 26.597 68.759 26.6634 67.919 26.6707C64.6572 26.7018 61.5362 26.6961 58.556 26.6535C58.3988 26.6511 58.1233 26.5987 57.7295 26.4963C56.2423 26.1107 55.4415 24.8531 55.3764 23.377C55.3298 22.311 55.3277 21.1746 55.3703 19.9678C55.4379 18.0507 56.7691 16.6875 58.6616 16.6728C64.4549 16.6278 70.3952 16.6249 76.4825 16.6642C77.3127 16.6691 77.9644 16.7387 78.4376 16.873C79.981 17.3093 81.0539 18.3111 81.6565 19.8781C81.7392 20.0943 81.8014 20.3215 81.8432 20.5597C81.9009 20.8913 81.9807 21.2155 81.9844 21.5532C81.9975 23.135 82.0004 24.8048 81.993 26.5626C81.993 26.5954 81.9762 26.6118 81.9426 26.6118L78.7336 26.613C78.6878 26.613 78.6648 26.5897 78.6648 26.543C78.6673 24.9628 78.6673 23.4396 78.6648 21.9733C78.6624 20.7734 78.1171 20.0279 76.8313 20.0083C75.5074 19.987 73.9268 19.9829 72.0896 19.996C72.0364 19.9968 72.0098 20.0234 72.0098 20.0758Z" fill="#143772"/>
<path d="M17.9677 59.2101C18.6432 57.5522 18.7132 55.7997 18.707 54.0006C18.68 46.0883 18.6755 38.1319 18.6935 30.1313C18.6935 30.0854 18.716 30.0625 18.7611 30.0625H21.9492C21.9674 30.0625 21.9849 30.0696 21.9978 30.0823C22.0107 30.095 22.018 30.1121 22.018 30.13C22.0188 38.3272 22.0176 46.6958 22.0143 55.236C22.0131 56.8485 22.3127 58.477 23.111 59.8831C23.114 59.8883 23.1156 59.8942 23.1156 59.9003C23.1156 59.9063 23.114 59.9122 23.1111 59.9174C23.1081 59.9226 23.1038 59.927 23.0986 59.93C23.0934 59.933 23.0875 59.9347 23.0815 59.9347H17.8449C17.7966 59.9347 17.7716 59.9106 17.77 59.8623C17.7614 59.6031 17.8744 59.4386 17.9677 59.2101Z" fill="#143772"/>
<path d="M77.761 59.7519C78.3112 58.3879 78.6068 57.0153 78.6477 55.6341C78.6682 54.9718 78.6772 54.2779 78.6747 53.5525C78.6534 45.7295 78.6502 37.9111 78.6649 30.0971C78.6649 30.0766 78.6756 30.0664 78.6968 30.0664H81.939C81.9718 30.0664 81.9881 30.0828 81.9881 30.1155C82.0021 38.2357 81.9976 46.3166 81.9746 54.3582C81.9685 56.3145 82.1355 58.1296 83.0578 59.8625C83.0608 59.8684 83.0623 59.8749 83.0621 59.8815C83.0619 59.8881 83.06 59.8945 83.0567 59.9001C83.0533 59.9057 83.0486 59.9102 83.043 59.9133C83.0374 59.9164 83.0311 59.9179 83.0247 59.9177C81.3659 59.9161 79.6359 59.9169 77.8347 59.9202C77.7938 59.9202 77.7672 59.8821 77.7549 59.806C77.7525 59.7874 77.7546 59.7689 77.761 59.7519Z" fill="#143772"/>
<path d="M47.1022 48.2736H53.5804C53.623 48.2736 53.6443 48.2523 53.6443 48.2097V35.0937C53.6443 35.0819 53.6488 35.0707 53.6569 35.0624C53.665 35.0541 53.6759 35.0494 53.6873 35.0494H63.7749C63.788 35.0494 63.8008 35.0542 63.8107 35.063C63.8206 35.0718 63.8271 35.084 63.8289 35.0973C65.6604 49.9606 67.7036 66.6119 69.9583 85.0514C70.5642 90.0096 71.1848 94.9765 71.8201 99.9519C71.8234 99.9822 71.8103 99.9973 71.7808 99.9973H28.9031C28.8736 99.9973 28.8605 99.9826 28.8638 99.9531C29.4533 95.2602 30.0047 90.8357 30.518 86.6798C32.6001 69.823 34.7116 52.6235 36.8525 35.0814C36.8566 35.0454 36.8763 35.0273 36.9115 35.0273H46.9647C46.9758 35.0273 46.9864 35.0317 46.9942 35.0396C47.002 35.0474 47.0064 35.058 47.0064 35.0691V48.179C47.0064 48.2421 47.0384 48.2736 47.1022 48.2736ZM53.6197 55.1153C53.6197 55.1103 53.6188 55.1054 53.6168 55.1007C53.6149 55.0961 53.6121 55.0919 53.6086 55.0884C53.6051 55.0849 53.6009 55.0821 53.5962 55.0801C53.5916 55.0782 53.5867 55.0772 53.5817 55.0772H47.1096C47.0995 55.0772 47.0898 55.0813 47.0827 55.0884C47.0755 55.0955 47.0715 55.1052 47.0715 55.1153V71.5792C47.0715 71.5842 47.0725 71.5891 47.0744 71.5937C47.0763 71.5984 47.0792 71.6026 47.0827 71.6061C47.0862 71.6096 47.0904 71.6124 47.095 71.6143C47.0996 71.6163 47.1046 71.6172 47.1096 71.6172H53.5817C53.5867 71.6172 53.5916 71.6163 53.5962 71.6143C53.6009 71.6124 53.6051 71.6096 53.6086 71.6061C53.6121 71.6026 53.6149 71.5984 53.6168 71.5937C53.6188 71.5891 53.6197 71.5842 53.6197 71.5792V55.1153ZM53.6234 78.4098C53.6234 78.4045 53.6224 78.3993 53.6203 78.3943C53.6183 78.3894 53.6153 78.385 53.6116 78.3812C53.6078 78.3774 53.6033 78.3744 53.5984 78.3724C53.5935 78.3704 53.5882 78.3693 53.5829 78.3693H47.1133C47.1025 78.3693 47.0922 78.3736 47.0846 78.3812C47.077 78.3888 47.0728 78.3991 47.0728 78.4098V94.8713C47.0728 94.882 47.077 94.8923 47.0846 94.8999C47.0922 94.9075 47.1025 94.9118 47.1133 94.9118H53.5829C53.5937 94.9118 53.604 94.9075 53.6116 94.8999C53.6192 94.8923 53.6234 94.882 53.6234 94.8713V78.4098Z" fill="#143772"/>
<path d="M23.524 63.3789H17.0765C17.0256 63.3789 16.9844 63.4201 16.9844 63.471V69.9185C16.9844 69.9694 17.0256 70.0106 17.0765 70.0106H23.524C23.5749 70.0106 23.6161 69.9694 23.6161 69.9185V63.471C23.6161 63.4201 23.5749 63.3789 23.524 63.3789Z" fill="#143772"/>
<path d="M83.5711 63.3789H77.131C77.078 63.3789 77.0352 63.4218 77.0352 63.4747V69.9148C77.0352 69.9677 77.078 70.0106 77.131 70.0106H83.5711C83.624 70.0106 83.6669 69.9677 83.6669 69.9148V63.4747C83.6669 63.4218 83.624 63.3789 83.5711 63.3789Z" fill="#143772"/>
<path d="M8.66488 93.3438H2.08965C2.04014 93.3438 2 93.3839 2 93.4334V99.8858C2 99.9353 2.04014 99.9755 2.08965 99.9755H8.66488C8.71439 99.9755 8.75453 99.9353 8.75453 99.8858V93.4334C8.75453 93.3839 8.71439 93.3438 8.66488 93.3438Z" fill="#143772"/>
<path d="M98.5631 93.3438H91.9805C91.933 93.3438 91.8945 93.3822 91.8945 93.4297V99.8895C91.8945 99.937 91.933 99.9755 91.9805 99.9755H98.5631C98.6106 99.9755 98.6491 99.937 98.6491 99.8895V93.4297C98.6491 93.3822 98.6106 93.3438 98.5631 93.3438Z" fill="#143772"/>
</svg>
