<svg width="100" height="100" viewBox="0 0 100 100" fill="none" xmlns="http://www.w3.org/2000/svg">
<path d="M54.3972 57.6456L54.4184 57.3656L54.7146 57.0544L54.6984 56.3632L54.5334 56.1382L53.9072 55.6895L53.7422 55.3957L54.0884 55.2057V54.8945L54.2372 54.5495L54.4522 54.3945L54.7484 54.5158L54.8971 54.7408L54.9796 55.1032L55.2596 55.242L55.5559 55.6395L55.9683 55.467L56.9245 55.277L57.3208 55.5357V55.7607L57.0895 56.1932L57.127 56.4894L56.9033 56.4582L56.6271 56.6619L56.0971 56.8582L55.8208 57.2344L55.5146 57.3906L54.6709 57.6494H54.3972V57.6456Z" fill="#143772"/>
<path d="M31.2688 60.3249L31.2913 60.3724L30.9476 60.4424L30.6414 60.9036L30.6489 60.6999L30.9026 60.3949L31.2688 60.3249ZM29.9251 41.7595L30.3101 41.6183L30.4551 41.427L30.6951 41.332L30.8876 41.4295L31.3201 41.9595L31.1276 42.342L31.1751 42.7745L31.3676 42.8707L31.6563 43.2557V43.4957L31.4638 43.4944L31.3201 43.6382L31.3676 44.8369L31.8001 45.3668L31.7513 45.7581L31.91 46.0206L32.4163 46.2606L32.71 46.5693L33.4337 47.628L33.9625 47.583L34.1462 47.7192L34.6837 47.7855L35.2874 48.2992L35.4511 48.7967V49.6191L35.3536 50.2354L35.0149 50.5079L35.0674 50.5604L35.3561 50.7054L35.7411 51.0428L36.0299 51.5228L36.0774 52.3365L35.7411 52.8615L35.8374 53.054L36.0774 53.2952L36.9423 53.8265L37.0386 53.9702V54.2577L37.3273 54.5939L37.3748 54.7852L37.5185 54.8339L37.8073 54.6914L37.9998 54.6927L38.1435 55.0289L38.7685 55.1764L38.9122 55.3214L39.056 55.2739L39.4409 55.8026L40.1134 55.9026L40.2572 56.0464V56.1426L40.1134 56.2376V56.5251L40.3534 56.6701V56.9576L40.5934 57.3413L40.5446 57.6763L41.0071 57.995L41.2171 58.3487V58.7312L40.6871 59.4449L40.6384 60.1612L40.7821 60.5924V60.8311L40.4934 61.4986L40.2047 61.6398L39.7234 61.6373L39.3872 61.8261L38.3298 61.8686L38.191 61.9998L37.9598 61.8198V61.6011L38.2735 60.9124L38.4972 60.8574L38.5347 60.5286L38.4072 60.0124L38.4372 59.7774L38.5797 59.5349L38.5497 59.1825L38.3635 58.9475L38.251 58.1725L38.0648 57.9775L37.7135 57.8138L37.3098 57.735L37.0936 57.7425L36.6236 57.5788L36.2573 57.6025L35.8461 57.4613L35.3761 57.5313L35.2036 57.915L34.7849 58.095L34.7999 58.33L34.8374 58.4862L34.9874 58.8387L34.7637 59.23L34.5849 59.4175L34.4362 59.4562L34.3537 59.6362L33.8837 59.8787L33.435 59.7999L32.5313 59.9099L32.5088 59.6987L32.2625 59.6437L32.0388 59.7762L32.0838 60.0112L31.86 60.0812L31.5913 60.3399L31.5313 60.2849L31.6213 60.1987L31.4351 60.1837L31.6138 59.9649L31.5101 59.9412L31.4876 59.8474L31.2413 59.8237L31.1213 59.9412L31.1738 60.0037L30.9651 60.0199L30.8088 60.1524L30.5851 60.4886L30.5101 60.8011L30.5626 60.8799L30.3239 61.0986L30.2114 61.3486L29.2927 62.2248L29.0764 62.2561L28.8452 62.4673L28.479 62.4748L28.1577 62.6548L27.949 62.5848L27.8515 62.3773L27.999 62.3823L28.144 62.1448V61.8586L28.289 61.7161L28.3852 61.2861L28.289 60.8561L28.0002 60.5674L27.7602 60.0887L27.904 59.8987L28.0965 59.8037V59.5649L27.9527 59.3725L27.7127 59.3237L27.424 59.4662L27.3753 59.6099L27.1828 59.7524L26.6053 59.5574L26.5578 59.3187L26.3653 59.0787L26.0766 59.0287L25.9328 59.1237L25.8366 58.7412L25.5966 58.3575V58.2625L26.2703 58.1225L26.414 58.0275L26.559 57.455L26.6553 57.36V56.9301L26.8478 56.8363L27.1365 56.8376L27.329 56.6001L27.2815 56.2651L27.1853 56.1213L26.464 55.6864L26.2241 55.3026L26.0803 54.8239L26.369 54.9214L26.5615 55.2101L26.609 55.4976L26.7053 55.4989L26.849 55.3089L27.3303 55.2164L27.474 55.0739L26.9453 54.5452L25.9841 54.2052L25.5516 54.1552L25.2154 53.914L24.6866 53.8152L24.3504 53.574L23.6292 53.379L23.4367 53.2352L23.2442 52.899L22.8117 52.609L22.668 52.289L23.3542 52.2665L24.0067 51.5903H24.2891L24.6079 50.7991L25.0879 50.7866L25.3616 50.5154L25.6016 50.4691L25.5541 50.1341L25.2653 49.8454V49.6054L25.4091 49.4629L25.6016 49.4642L25.6978 49.3692L25.6503 49.1292L25.5066 49.0804V48.8892L25.4103 48.7929L25.3628 48.0267L25.5066 47.788L25.7953 47.598L26.1316 47.6005L26.3241 47.7455L26.4203 48.1292L26.6603 48.6092L26.8528 48.6104L26.949 48.323L27.2378 48.0367L27.334 47.7017L27.6715 47.1293V46.7943L27.3353 46.1218L27.1428 45.4018L27.239 45.2581L27.4315 45.2119L27.7202 44.6381L27.7677 44.3506L27.6715 44.2544V44.1107L28.0565 43.9207L28.2015 43.9219L28.394 43.5869L29.0677 43.4469L29.2602 43.1607L29.0202 42.5845L29.8376 42.4457L29.9826 42.2545V42.062L29.8864 41.9658L29.9251 41.7595Z" fill="#143772"/>
<path d="M12.613 51.2969L12.8055 51.3931L12.9492 51.5856L13.3342 51.7794L13.8629 51.9256L14.1992 51.9281L14.4879 51.7856L14.8242 51.8356L15.5454 52.2231L15.6904 52.5106L15.8816 52.5118L16.0741 52.3218L16.4103 52.4193L16.4591 52.7068L17.4203 52.903L17.949 52.5231L18.1902 52.5243L18.334 52.2868L18.5265 52.1443L18.8627 52.1456L19.2477 52.2918L20.1614 52.2968L21.2676 51.8244L21.8926 51.6844L22.5175 51.8793L22.6138 51.9756L22.6613 52.2793L22.805 52.5981L23.2388 52.888L23.43 53.2243L23.6225 53.3693L24.3437 53.5643L24.68 53.8055L25.2099 53.9043L25.5462 54.1455L25.9786 54.1955L26.9398 54.5367L27.4686 55.0655L27.3248 55.2079L26.8436 55.3017L26.6986 55.4917H26.6024L26.5549 55.2042L26.3624 54.9155L26.0749 54.818L25.9299 54.913L25.8824 55.1042L26.1224 55.3454V55.5367L25.4487 55.4842V55.6279L25.6412 55.7254V56.0604L25.5449 56.2504L25.3049 56.2491L25.2087 56.3441L25.0162 56.2954L24.8712 56.3904L24.7749 56.5329V56.8679L24.4387 56.9616L24.1987 56.7691L24.0537 56.8641L23.8612 57.1979L23.7175 57.1966L23.5725 57.3391L23.0438 57.2891L22.9963 57.4791L23.14 57.5766L23.3813 57.5778L23.4775 57.6741L23.4288 57.8641L23.2363 58.0066L22.9475 57.9578L22.8513 58.1478L22.4188 58.2416L21.8901 58.4778L21.7938 58.7165L21.5051 58.954V59.1928V59.3365L21.4563 59.7177L21.6963 59.8627L21.6001 60.1015L21.1201 60.099L20.6876 60.239L20.4464 60.1902L20.0627 59.7577L20.0139 59.3278L19.7739 59.0878L19.8227 58.8478L19.7264 58.609L19.2939 58.3191L19.0052 57.8403L18.909 57.7916L18.3802 57.7878L18.2352 57.9791L17.1778 58.499L16.7928 58.8315L16.5528 58.8303L15.6391 58.0603L15.3504 57.9628L15.2554 57.7703L14.4854 57.3841L13.9092 57.3328L13.3805 57.1866L10.3519 55.6867L10.1106 55.3029L10.0156 54.2967L10.1119 53.9155L10.7368 52.6268V51.8131L10.9293 51.7181L11.7955 51.6269L12.4205 51.4394L12.613 51.2969Z" fill="#143772"/>
<path d="M26.0722 54.8203L26.2159 55.299L26.4559 55.6828L27.1771 56.1178L27.2734 56.2615L27.3209 56.5965L27.1284 56.834L26.8396 56.8327L26.6471 56.9277V57.3577L26.5509 57.4527L26.4071 58.0264L26.2634 58.1214L25.5897 58.2614V58.3577L25.8297 58.7414L25.9259 59.1239L26.0697 59.0289L26.3584 59.0789L26.5509 59.3189L26.5984 59.5576L27.1759 59.7526L27.3684 59.6101L27.4171 59.4676L27.7058 59.3264L27.9458 59.3751L28.0896 59.5676V59.8063L27.8971 59.9013L27.7533 60.0913L27.9933 60.57L28.2821 60.8588L28.3783 61.29L28.2821 61.72L28.1371 61.8625V62.1487L27.9921 62.3862L27.8458 62.3812L27.6221 62.1975L27.6296 62.01L27.4721 61.5875L27.1884 61.455L27.0471 61.1975L26.3747 60.885L26.0759 60.9713L26.0384 60.8225L25.7472 60.69L25.5009 60.6825L25.3372 60.5026L25.1885 60.5263L24.9497 60.6125L24.8897 60.7138L24.9347 60.8075L25.2335 60.635L25.3234 60.6513L25.3534 60.7525L24.741 61.19L24.256 61.73L24.0698 62.1987V62.4725L24.1748 62.7774L24.3547 62.8712L24.3922 63.0749L24.6235 63.2387L24.766 63.4962L24.5272 63.7537L24.871 64.2224L25.0435 64.3011L25.2085 64.8948L25.5222 65.2386L25.2909 65.5673L25.261 66.0523L25.1197 66.271L25.0672 66.5598L24.4472 67.6997L24.3422 67.7935L24.1635 67.8097L23.8573 68.1997L23.8723 68.4422L23.2973 68.8409L23.3048 69.3871L23.1185 69.4109L22.9248 69.7309L22.7748 69.7696L22.5886 69.9646L22.2298 70.6671L21.4749 71.7983L21.2886 71.892L20.9974 72.3758L20.6237 72.5782L20.5637 72.7107L20.0112 73.132L19.765 73.4595L19.5862 73.9044L19.5037 73.9207L19.4312 73.6782L19.3925 73.362L19.5362 73.172L19.44 72.552L19.2587 72.4195L19.2275 72.0133L18.5913 71.2158H18.2413L18.0825 71.747L17.6376 71.8795L17.1326 71.2508L16.8438 71.0583L16.6201 71.0958V70.9158L16.4926 70.6833L16.1751 70.4508H15.6026L15.4114 70.2184L15.3477 70.0196L15.4427 69.7209V69.1234L15.5064 68.9909L15.8239 69.1572L16.1739 69.0572L16.6826 68.3922L16.7463 68.0935L16.6826 67.5285L16.2376 66.7973L16.8101 66.7635L17.0001 66.531L16.9688 66.3985L16.7463 66.1985L16.2376 65.8661L15.6589 65.8023L15.7389 65.5661V64.9448L15.9789 64.6124L16.3639 64.5186L16.7488 64.7124L17.1813 64.6674L17.4701 64.7649L17.5663 64.6699L17.1826 63.3787L16.4614 61.99V61.7987L17.1826 60.8475L17.9513 61.425L19.0575 61.67L19.6825 61.6737L20.8362 61.3463L21.0761 61.1088L21.2686 60.68L21.5086 60.4901L21.6049 60.1088L21.7011 59.8701L21.4611 59.7251L21.5099 59.3426V59.1989V58.9601L21.7986 58.7226L21.8949 58.4839L22.4236 58.2477L22.8561 58.1552L22.9523 57.9639L23.241 58.0139L23.4335 57.8714L23.4823 57.6802L23.386 57.5839L23.146 57.5827L23.0023 57.4864L23.0511 57.2952L23.5798 57.3464L23.7235 57.204L23.8673 57.2052L24.0598 56.8715L24.2035 56.7765L24.4435 56.969L24.7797 56.8752V56.5402L24.876 56.3977L25.021 56.3027L25.2135 56.3515L25.3097 56.2565L25.5497 56.2577L25.6459 56.0665V55.7315L25.4534 55.6353V55.4915L26.1272 55.5428V55.3515L25.8872 55.1116L25.9359 54.9203L26.0722 54.8203Z" fill="#143772"/>
<path d="M7.23744 23.1289L7.47618 23.4164L7.76367 23.4664L7.85991 23.6114L8.34114 23.5664L9.87982 24.2001L10.841 24.2064L11.516 24.0664L12.1872 24.1176L12.3797 23.9264L12.6684 23.8314L13.3409 23.8826L13.4859 24.2689L13.4372 24.4613L13.5809 24.6551L13.9184 24.7538L14.0621 24.9463L14.3021 25.0926L14.7346 25.2388L15.0708 25.675L15.4558 25.7725L15.8883 26.0163V26.2088L15.1671 26.975L14.8783 27.5512V28.4174L15.0221 28.8986V29.3324L14.8771 29.5724L14.5409 29.7136L14.4934 29.8098L14.5884 30.4848L14.4921 31.1085L14.5396 31.8785L13.8184 32.0185L13.1459 31.871L13.2422 32.3522L13.7709 32.7397L13.8671 32.9797L13.8184 33.1247L13.4822 33.3147L13.1447 33.8409L12.8084 33.7909L12.6647 33.5984L12.3285 33.5009L11.9435 33.5947L11.4147 33.3034L11.1735 33.5422L11.0773 34.2621L10.981 34.3584L10.6448 34.2596L10.3085 34.4984L10.0198 34.8809L9.91732 34.8471L9.63358 34.7896L9.21235 34.8234L9.1586 34.6921L8.87362 34.6371L8.72612 34.5609H8.52613L8.32489 34.3959L8.0399 34.1659L8.0924 34.0334L8.0399 33.9459L7.60617 33.7372L7.65867 33.6384L7.58492 33.4509L7.51118 33.4734L7.40618 33.9034L7.22744 33.7159L7.18369 33.4747L6.95245 33.5522L6.9312 33.4197L6.77246 33.3984L6.82496 33.1334L6.62497 33.0784V32.9472L6.67747 32.7372L6.57122 32.6272L6.39123 32.231L6.26498 32.2647L6.11624 32.001L5.9375 31.946L6.31623 31.736L6.84371 31.7023L6.96995 31.2835L7.30744 31.151L7.58117 30.941L7.75992 31.0398L7.85491 30.7748L8.16115 30.9948L8.21365 31.126H8.39364L8.46738 31.0385L8.41364 30.8623V30.6961L8.28614 30.0911L8.51738 29.7711L8.53863 29.3524L8.79112 29.0324L8.73737 28.8786L8.82237 28.7461L8.78987 28.5249L8.60988 28.3712L8.53613 27.9199L8.38989 27.7899L8.46113 27.6549L8.38739 27.4462L8.48238 27.3687L8.56613 27.0712L8.53363 26.7625L8.43863 26.8612L8.22864 26.785L8.1324 26.4988L8.1524 26.2013L7.97366 26.2788L7.87866 26.2013L7.87741 25.705L7.69867 25.4076L7.0437 24.7801L6.9887 23.3689L7.23744 23.1289Z" fill="#143772"/>
<path d="M48.1046 27.352L48.3446 27.642L48.7771 27.7408L48.9221 27.8858L49.1134 27.887L49.2583 27.9845V28.1282L49.3546 28.2257L49.6908 28.1795L49.9308 28.3245L50.3158 29.5782L50.1708 30.5394L50.3633 30.6844L50.507 31.2144L51.0358 32.2756L51.2283 32.3718L52.0932 32.3293L52.8144 32.4768L53.0069 32.623L52.9107 33.1505L52.9582 33.488L53.2469 33.778L54.4969 34.0255L55.5068 34.463L57.1405 34.9054L57.333 35.0029L57.5255 35.2442L58.1504 35.6316L58.9192 35.8279L59.6404 35.8316L59.9291 35.3054L60.1216 35.2104L60.6028 35.2129L60.9391 35.4067L61.4678 35.4579L61.9003 35.3642L62.1415 35.6541L62.7177 35.5617L62.959 35.6591L62.9102 35.8504L62.7177 35.8491L62.4777 36.1366L62.3327 36.7116L62.1403 36.7103L62.0928 36.9028L61.9003 36.9016L61.804 36.8053L61.7078 36.9966L61.4678 37.0428L61.564 37.2353L61.4678 37.3316L61.0341 37.6166L60.7466 37.6153V37.904L61.0341 38.2415L61.2265 38.819L60.6016 38.8153L60.4566 38.9577L60.1203 38.8128L59.6391 38.7615H59.4954L59.0629 38.999L58.2454 38.8977L57.7167 39.1352L57.1392 38.939V40.2352L56.9467 40.3789L56.033 40.3252L56.1293 39.5577L56.418 38.8877L56.3705 38.7915L56.033 38.6453L55.5531 38.594L55.2168 38.304L54.6393 38.0128L54.3994 38.0115L54.0619 38.3465L53.9181 38.3453L53.5819 38.1028L52.4757 37.809L52.1395 37.5191L52.0432 37.5178L51.9957 37.3741L51.6582 37.3716L51.5145 37.0828L51.3707 37.2266L51.0333 37.3203L50.8895 37.2241V37.1278L50.5533 37.0778L50.457 37.2691L50.312 37.2203L50.2645 37.4128L50.1196 37.3628L50.1683 37.0753L50.1196 36.9791L49.9758 37.1228L49.8321 37.0741L49.5908 37.5041V37.1678L49.4946 37.2641L49.3983 37.1678L49.2546 37.2628L49.0621 37.2616L49.1583 36.9253L48.9659 36.8766L48.7734 36.9716L48.4371 37.3541L48.2934 37.1616L48.1971 37.2566L48.1484 37.4966L47.6684 37.3491L47.5234 37.1091L47.2359 37.2028L47.1397 36.9628L47.0434 37.0578L46.9472 36.9616L46.7547 37.0566L46.5622 36.9591L46.3697 37.0066L46.226 37.1016V37.1978L46.3222 37.1503L46.321 37.2941L46.1297 37.2928L45.9372 36.9078L45.5523 36.6166L45.216 36.5191L44.7361 35.9404L44.4948 35.7954L44.2073 35.4092L44.1111 35.0717L44.0148 34.6867L43.8711 34.4942V34.1092L44.0148 33.7742L44.3036 33.583L44.4961 33.2955V32.8155L44.7373 32.2881L44.6886 31.9506L44.9773 31.1356L45.1223 30.2706L45.8922 29.6969L46.0847 29.6019L46.3247 29.6032L46.6135 29.3169L47.1909 29.1269V28.9832L46.806 28.837L46.7097 28.5957L46.8535 28.307L47.3347 28.0695L47.5272 28.0707L47.7197 27.927L47.7684 27.5433L47.6722 27.3495L47.5272 27.3008L48.1046 27.352Z" fill="#143772"/>
<path d="M76.9535 40.1953L77.1773 40.2666L77.6772 41.1065L78.111 41.1303L78.2085 41.4603L78.4622 41.5852L78.5372 41.5378L78.7909 41.8127L78.9334 41.7815L79.0834 41.8752L79.6434 41.7815L80.0996 41.8515L80.4734 41.7652L80.6683 41.6077L80.7133 41.4278L80.3996 41.114L80.4071 41.0115L80.6908 40.8865L80.8771 41.0353L81.1683 41.0428L81.3258 40.9565L81.3858 40.8228L81.3408 40.729L81.6095 40.549L82.0208 40.6978L82.177 40.5403H82.3495L82.6932 40.6665L83.0445 40.6903L84.4494 41.6715L84.6657 41.664L84.8157 41.5303L85.2119 41.5702L85.8094 41.979L86.0181 41.924L86.3756 42.0265V42.5102L86.1356 42.4127L86.1831 42.7489L86.0868 42.8439L85.8469 42.7464L85.7031 43.0339L85.3181 43.0802L85.2219 43.2714L85.2694 43.8476L85.0769 43.8951L84.7407 44.1814V44.3251L84.9806 44.7101L85.6531 46.2475L85.7006 47.1587L85.6044 47.4937L85.2681 47.6837L84.8831 48.2087L84.4019 48.4937L83.9694 49.3061L83.7295 49.3524L83.297 49.2061L82.6245 49.2499L82.5283 49.3449L82.432 49.6799L82.4795 50.1111L82.287 50.3011L82.3358 50.5411L82.5283 50.7336V50.8773L82.047 50.8748L81.7108 50.6811L81.6145 50.7286L81.2783 51.4448L81.0858 51.6835L80.7496 52.5435L80.3171 53.116L79.4996 53.7334L79.4034 54.0684L78.8747 54.5922L78.2972 54.7809L78.4422 53.6334L78.6822 53.5397L78.5859 53.3485L77.8172 53.3435L77.5285 53.5334L77.2397 53.5797L76.5185 53.1935L76.2785 52.6172L75.5098 52.086L75.0773 51.9398L74.7886 52.0823L74.4999 52.081L74.3561 51.7448L73.9724 51.5985L74.0211 51.1198L74.1649 51.1211L74.3086 50.9786H74.4049L74.5011 50.8361L74.5974 50.4536V49.8786L74.8861 49.0187L74.8386 48.5399L74.9824 48.2049V47.9175L74.7424 47.3887L73.9262 46.3775L73.6862 46.185L73.0137 45.99L72.87 45.5101L72.63 45.4613L72.4375 45.3163L72.1012 44.4989L71.8125 44.2101V43.9226L71.9562 43.6839L72.0525 42.7252L72.2925 42.6789L72.7737 42.9214L73.5912 43.5014L73.8312 43.5514L74.2161 43.7939L75.5623 44.0414L75.7548 43.9951L75.8998 43.7564L75.8523 43.4202L75.3711 42.8902L74.8424 42.5515L74.4574 41.8777L74.4099 41.3503L74.7949 41.2565L75.0824 40.9628L75.2611 41.0403V41.189L75.3361 41.2365L75.4411 41.1503L75.6798 41.1815L75.8448 40.9778L75.8523 41.1265L76.1136 41.1428L76.2998 41.174L76.4048 41.0803H76.6435L76.6885 41.229L76.786 41.2453L76.7185 41.449L76.9423 41.5278L77.1435 41.2215L77.1135 40.5378L76.941 40.3103L76.6198 40.3891L76.776 40.2403L76.9535 40.1953Z" fill="#143772"/>
<path d="M43.8824 21.1719V21.2831L44.2861 21.7793L45.496 22.7656L45.9373 23.018L46.6472 23.2618L47.7597 23.2943L48.0509 23.4518L48.8059 23.6568L48.9771 23.6405L49.2759 23.8455L49.4784 23.798L49.9483 23.8618L51.3758 23.568L51.422 23.7593L51.3258 24.048V24.5292L51.2295 24.9142L51.0845 25.0579L50.4121 25.3429L49.9783 25.7254L49.6421 25.7717L49.3059 25.9629L49.1609 25.8654L48.5846 25.9104L48.3922 25.8129L48.2484 25.9079L48.3434 26.6316L48.1034 27.3516L47.5259 27.3003L47.1897 27.0091L46.8535 26.5266L46.7572 26.1891L46.901 25.9967L46.8535 25.8517L46.7097 25.7067L46.3722 25.6092L46.0848 25.6067L45.8435 25.7504L45.5073 25.7967L45.2673 26.1316L44.9786 26.2266L44.8823 26.3229L44.5448 27.3316L44.3048 27.4266L44.0161 27.3291L43.8724 27.1353L43.8236 26.5579L43.7274 26.4604L43.1986 26.3616L42.9587 26.2154L42.7187 25.8767H42.6224L41.9974 27.3166L42.0449 27.9916L41.8037 28.3753V28.7603L41.9 29.0003L42.1887 29.339V29.6765L41.8512 30.3952L41.515 31.7889L41.3225 32.1726L41.3212 32.4126L41.1775 32.4589L41.1287 32.7476L41.0337 32.8426L40.4075 32.8401L40.3125 32.6951V31.8301L39.88 31.0102L39.7838 31.0089L39.5913 31.2002L39.3988 31.5364L38.9663 31.5814L37.6676 31.4302L37.5239 31.2852L37.4752 31.0439L37.3789 30.9952L37.4764 30.7552L37.6689 30.5639L37.9089 30.5652L38.1014 30.7589L38.1976 30.7114V30.5677L38.0526 30.4227L37.9089 29.989L37.8614 29.5077V29.3152L38.1976 28.739L38.1501 28.0178L38.2951 27.8253L38.6788 27.7316L39.1601 27.3491V26.7716L39.3051 26.5804L39.4488 26.5329L39.5451 25.4254L39.9788 24.898V24.658L39.8338 24.4167V24.2717L40.0263 23.9355L40.0275 23.6943L39.9313 23.6455V23.5018L40.2188 23.4068L40.1238 23.3105L40.1713 23.1655L40.4113 22.9268L40.5563 23.023L40.6525 22.9755L40.7963 23.1205L40.9412 22.9768L41.2775 22.9793V23.0755L41.3737 23.1243L41.4212 22.7868L41.855 22.838L42.0474 22.6943L42.1424 22.6956L42.3349 23.0818L42.5274 23.083L42.6724 22.843L42.8637 23.0368L42.9124 22.7956L43.0086 22.7968L43.1049 23.038L43.2961 22.9905L43.2486 22.8455H43.1049V22.7006L43.7299 22.6081L43.7774 22.5118V22.2706L43.5861 21.8356L43.8749 21.1719H43.8824Z" fill="#143772"/>
<path d="M75.0723 40.956L74.7848 41.2497L74.3998 41.3435L74.4473 41.8709L74.8323 42.5447L75.361 42.8834L75.8422 43.4134L75.8897 43.7496L75.746 43.9883L75.5535 44.0358L74.2073 43.7884L73.8223 43.5459L73.5824 43.4971L72.7649 42.9171L72.2837 42.6747L72.0437 42.7209L71.9474 43.6796L71.8037 43.9183V44.2058L72.0924 44.4946L72.4287 45.312L72.6211 45.457L72.8611 45.507L73.0049 45.987L73.6773 46.182L73.9173 46.3757L74.7348 47.3869L74.9748 47.9157V48.2031L74.831 48.5381L74.8785 49.0181L74.5898 49.8793V50.4543L74.4936 50.8368L74.3973 50.9805H74.3011L74.1573 51.123L74.0136 51.1218L73.9648 51.6005L73.7236 51.9342L73.4349 52.0767L72.8099 52.1217L72.7136 52.313V52.6954L72.5699 52.8867V53.4129L72.6661 53.5567L72.3774 53.5554L72.3287 53.8429L71.8474 54.1279L71.4624 54.5091L71.27 54.9391L70.7412 54.0754L70.6937 53.7879L70.4537 53.3554L70.3575 52.8279L69.925 52.5379L69.7325 52.1055L69.685 51.7217L69.3963 51.3855L69.2526 51.0018L68.9638 50.8568L68.9163 50.6655L69.2538 50.2368L69.0613 49.9481V49.1819L68.7726 48.6531V48.3656L68.6288 48.2206L68.3401 48.1706L68.2438 47.9307L68.3401 47.1644L68.4363 47.0207L68.6288 46.8782L68.6776 46.5432L68.8701 46.497L69.3038 45.9245L69.8325 45.7833L70.025 45.3045L70.41 45.2583L70.6025 44.9233V44.6358L70.41 44.4908L70.1213 44.4896L69.3525 44.6296L68.8713 44.2908L68.1501 44.0471L67.6214 43.6609L67.1401 43.5146L66.6602 43.1284L66.3714 43.0784L66.1314 42.9334L65.9877 42.6934L65.7952 42.5484L65.1227 42.2572L64.6428 41.8222L64.354 41.6772L63.8728 41.5785L63.6328 41.1935L63.9215 40.5235L64.2653 39.1398L64.5715 39.2023L65.199 39.0448L65.2515 38.9511L65.4677 38.9748L65.5952 38.8411L65.789 39.0061L65.9827 38.9986L66.0352 39.1161H66.3714L66.8714 38.9586L67.1251 38.9273L67.3051 38.8961L67.5364 39.1236L67.5289 39.2498L68.1713 39.2186L68.2314 39.1398L68.3876 39.2811L68.4851 39.4073L68.5751 39.4548L68.8888 39.2973L68.9788 38.7086L68.7026 38.6386L68.6351 38.7723L68.5001 38.6623L68.4401 38.8036L68.2613 38.7711L67.9326 38.8661L67.9251 38.7873L68.6876 38.5748L69.0838 38.6298L69.6588 38.5273L69.965 38.6761L70.3088 39.0061L70.48 39.0536L70.4275 39.1948L70.5175 39.2886L70.42 39.3911L70.4275 39.5323L70.5912 39.7998L71.2712 39.9648L71.5774 40.216L72.4362 40.0673L72.6374 40.2873L72.7574 40.2948L72.8099 40.4598L73.2511 40.5697L73.7436 40.9935L74.5798 40.6635H74.781L75.0723 40.956Z" fill="#143772"/>
<path d="M5.55849 50.3008L6.64719 50.307L9.00334 50.7983L10.542 50.7595L11.0707 51.002L12.4169 51.2007L12.6094 51.2982L12.4169 51.4407L11.792 51.6282L10.9257 51.7195L10.7333 51.8145V52.6282L10.1083 53.9169L10.012 54.2981L10.107 55.3043L10.3483 55.688L13.3769 57.188L13.9056 57.3342L14.4818 57.3855L15.2518 57.7717L15.3468 57.9642L15.6355 58.0617L16.5492 58.8316L16.7892 58.8329L17.1742 58.5004L18.2317 57.9804L18.3767 57.7892L18.9054 57.7929L19.0016 57.8417L19.2904 58.3204L19.7228 58.6104L19.8191 58.8491L19.7703 59.0891L20.0103 59.3291L20.0591 59.7591L20.4428 60.1916L20.684 60.2403L21.1165 60.1003L21.5965 60.1028L21.5003 60.4841L21.2603 60.6741L21.0678 61.1028L20.8278 61.3403L19.6728 61.669L19.0479 61.6653L17.9417 61.4203L17.173 60.8428L16.4517 61.794V61.9852L17.173 63.3739L17.5567 64.6664L17.4604 64.7601L17.1717 64.6639L16.7392 64.7089L16.3542 64.5164L15.9705 64.6089L15.7293 64.9426V65.5626L15.6493 65.7988L15.2118 65.4976L14.7031 64.9326L13.6856 64.0339L12.6369 63.9352L12.0619 63.7689L11.4507 63.3902L10.7933 63.2027H10.3158L9.96704 63.0039L9.6808 62.6702L8.99834 62.1827L8.6621 61.7503L8.39211 61.749L8.21837 61.6065L7.64715 61.4053L8.49461 59.9803L5.78223 58.9016L5.54974 58.5079L4.84228 58.3554L4.46104 57.4917L3.57359 57.0117L2.81362 56.7055L2.55988 55.918L3.46609 55.7518L3.44484 55.3905L1.43743 53.2569L1.1087 52.5232H0.887459L0.601222 52.1294L0.22124 52.1844L0 51.977L0.294986 51.7895L0.706218 51.657L1.13745 51.0757L1.71867 51.3157L2.1724 51.677L2.35239 51.622L2.57238 51.2807H2.80487L3.36485 51.6195L3.45984 51.882L3.63983 51.8607L3.76483 51.597L4.21856 51.6507L4.4298 51.837L4.88353 51.7045L5.21101 51.7807L5.44225 51.6482L5.35725 50.9133L5.536 50.672L5.55849 50.3008Z" fill="#143772"/>
<path d="M87.0215 64.0326L87.1715 64.1813L88.0977 64.4388L88.6502 64.79L89.1727 64.8063L89.0902 64.7201L89.1277 64.6576L89.5464 64.7276L89.6889 64.9775L89.9951 65.025L90.1751 65.1575L90.6826 65.0875L90.8838 65.1738L91.2876 65.0325L91.5263 65.0875L91.945 65.4L92.2063 65.7363L92.3488 66.0562L92.3338 66.3925L92.11 66.5337L92.0275 66.385L91.8925 66.4162L91.825 66.2912H91.5938L91.0413 66.0887L90.3313 65.9637L90.0551 66.1275L89.8764 66.0962L89.5251 66.1975L89.3389 66.4012L89.1377 66.4175L87.3227 65.785L87.3902 65.6838L87.3377 65.535L86.8978 64.9963L86.569 64.7538L86.614 64.3001L86.7865 64.1276L87.0215 64.0326ZM86.379 42.0273L86.6703 42.1761L86.8278 42.1598L87.2165 42.4898L87.5977 42.5598L88.4714 43.1648L88.5689 43.306L88.8677 43.431L89.2264 43.9023L90.1751 44.7185L90.2501 44.9147L90.9151 45.6372L90.9601 45.8022L91.3188 45.9984L91.4463 46.2646L91.8725 46.5159L92.9187 47.6146L93.27 47.8583L93.405 47.8508L93.4875 47.6621L93.6749 47.7721L93.6449 47.8658L93.7424 47.9908L94.6162 48.767L94.8849 48.9083L95.1611 48.9395L95.4374 49.3008L95.7736 49.5832L95.7811 49.7245L95.9086 49.897L96.4236 50.1707L96.6248 50.5545L96.9985 50.8682L97.2523 51.0332H97.3573L97.4773 50.8919L97.9773 51.3157L98.4335 51.5357L98.9335 52.2169L98.836 52.3819L99.001 52.4844L98.956 52.8293L98.7847 52.8456L98.9347 53.0568L98.7335 53.5818L98.5322 53.8168L98.301 54.2868L97.9273 54.7255L97.8823 54.9767L97.7698 55.0555L97.4635 55.6042L97.1348 55.6905L97.1423 55.9805L96.8885 56.4429V56.5842L96.4698 56.9292L96.3136 56.9604L96.1273 57.2741L95.7386 57.6341L95.6049 58.1041L95.5674 59.4578L95.1786 59.9353L94.5137 60.1465L92.6762 59.5603L92.4525 59.3653L92.2438 59.3265L91.945 59.1391L91.6913 58.9128L91.2363 59.1316L91.1388 59.2953L91.1238 59.5615L91.4675 59.9915L91.505 60.2815L91.1238 61.1265L90.8101 61.4477L90.6601 61.7677L90.5413 62.3627L90.4213 62.4414L90.4363 63.1689L90.4513 63.2551L90.4663 63.5676L90.3989 63.7401L89.9139 63.5214L89.8239 63.5839L89.4276 63.5764L89.1364 63.7401L88.6964 63.7476L88.3377 63.6301L88.2327 63.7626L88.084 63.7388L87.9565 63.8951L87.829 63.9188L87.7652 63.8801L87.8077 63.7688L87.949 63.7938L88.0465 63.5364L87.8077 63.3639L87.659 63.3714L87.5465 63.5126L87.5915 63.6926L87.7477 63.7313L87.7227 63.7938L87.3902 63.9426L87.4877 63.7076L87.3827 63.0901L87.069 62.6914L86.629 61.6202L86.129 60.9402L85.7928 60.1815L85.1878 59.7353L84.9941 59.3753L85.0766 59.2116L84.9941 59.1103L83.4117 58.3678L83.4904 58.1204L83.6829 57.8829L83.7317 56.8792L84.0204 56.7367L83.9729 56.5454L84.1654 56.3079L84.2141 56.0692L84.4066 55.8792L84.8391 55.0205L84.7429 54.9242V53.9193L84.0216 53.4368L83.4929 52.5719L83.2529 52.4744L83.2054 51.8044L83.1092 51.6607L82.8692 51.6119V51.3244L82.5805 51.1319L82.533 50.8919V50.7482L82.3405 50.5557L82.293 50.3157L82.4855 50.1257L82.438 49.6945L82.5342 49.3595L82.6305 49.2645L83.3029 49.2208L83.7354 49.367L83.9754 49.3208L84.4091 48.5083L84.8904 48.2233L85.2753 47.6983L85.6116 47.5083L85.7078 47.1734L85.6603 46.2621L84.9878 44.7247L84.7479 44.3397V44.196L85.0853 43.9098L85.2778 43.8635L85.2303 43.2873L85.3266 43.096L85.7116 43.0498L85.8553 42.7623L86.0953 42.8598L86.1915 42.7648L86.144 42.4286L86.384 42.5261V42.0423H86.379V42.0273Z" fill="#143772"/>
<path d="M13.8676 32.9766L14.1076 33.0753L14.3476 33.0278L14.9726 33.3203L15.3088 33.8028L15.3576 34.379L16.3663 35.154L16.655 35.1552L17.2312 35.5914L17.8562 35.7864L18.1937 36.0289H18.1449L18.0012 36.2202L17.8562 37.5164L17.9525 37.8526L17.8075 38.0438L17.4712 38.2338L16.8937 38.2313L16.5088 38.5651L16.3175 38.5638L16.2688 38.3713L15.9325 38.3701L15.4526 37.8863L14.5389 37.7376L14.2501 37.8313L13.7689 38.5501L13.8164 39.1263L13.4802 39.6513L13.0952 40.61L13.0464 41.2337L12.9502 41.3287L12.6614 41.3749L11.7477 41.1299L11.5077 41.1762L11.219 41.4149L10.2091 42.6561V42.7999L10.3053 42.8974L10.4978 42.9461L10.449 43.4248L10.0166 44.1423L9.96782 44.7173L10.0641 44.7185L10.3528 44.4323L10.449 44.4798L10.4003 45.4872L10.544 46.0147L10.3516 46.2535L10.2566 46.5884L10.1116 46.6834L10.4965 46.9259V47.1172L10.6878 47.3584L11.0728 47.5521H11.2653L11.3128 47.6971L11.6502 47.8909L11.6977 48.1296L11.5527 48.4171L11.409 48.5121L11.3615 48.7033L11.4565 48.8958L11.6015 48.9921L11.7927 49.4246L12.0815 49.5695L12.5627 49.5245L12.8027 49.6695L12.9952 50.1495V50.3408L12.8027 51.0582L12.6102 51.297L12.4177 51.1995L11.0715 51.0007L10.5428 50.7582L9.00411 50.797L6.64797 50.3058L5.55927 50.2995L5.51552 50.2208L5.69426 50.0345L5.9155 50.122L6.0205 50.0333L6.073 49.6383L7.30669 49.1646L7.71417 46.8484L7.75417 46.036L7.60668 45.7947V45.586L7.62668 44.8498L7.58418 44.7948L7.29919 44.7623L7.33044 44.5535L7.24544 44.401L6.66422 43.9736L6.46423 43.9523L6.06175 42.7886L6.103 42.6124L5.85051 42.5024L5.75551 42.6574L5.26928 42.4824L5.21679 42.3174L4.86805 42.2186L4.71056 42.3736L4.61556 42.1649L4.41557 42.3736L4.28808 42.4511L4.13059 42.6161V42.5286L3.9506 42.3749L3.95184 42.8249L3.75185 42.8474L3.57186 42.7711L3.44562 42.9799L3.37187 42.9586L3.29688 42.4861L3.42437 42.5624L3.57186 42.5299L3.54936 42.1336L3.8031 42.0349L3.78185 41.8474L3.9081 41.7924L3.92935 41.9786L4.10809 41.9574L4.07684 41.8249L4.20308 41.6924L4.18183 41.5287L4.38182 41.5824L4.48682 41.3187H4.66681L4.68681 41.1649L4.76056 41.2087L4.83555 41.5049L5.42553 41.3724L5.44678 41.2399L5.62677 41.1849L5.70051 41.3387L5.64802 41.4262L5.82676 41.5249L5.933 41.5024L5.953 41.3924L5.82676 41.2937L5.84801 41.1074L6.0055 40.9749L6.1005 41.0299L6.25924 40.9412L6.058 40.81L6.38423 40.4137H6.45798L6.53173 40.5787L6.63797 40.545L6.56297 40.3362L6.94296 39.9725L7.19545 40.105L7.26919 39.8837L7.54418 39.84L7.67042 39.675L7.84917 39.5975V39.52L7.72292 39.4875L7.84917 39.2788L8.02791 39.41L8.24915 39.2013L7.95416 39.0913L7.97416 38.915H8.22665L8.35414 38.8263L8.30164 38.5963L8.1004 38.4863L8.1529 38.3538L8.35289 38.2226L8.71163 38.4088L8.83787 38.2213L8.75412 37.9901H8.91162H9.05911L9.26035 38.0876L9.51284 37.9338L9.74408 37.4601L9.51159 37.2964L9.89157 37.1414L9.69033 36.9539L9.79658 36.9326L9.81782 36.8439L9.79533 36.7126L9.69033 36.6689L9.72158 36.5364L9.99657 36.5801L10.0703 36.5026L9.69033 36.2939L9.76408 36.1839L9.94282 36.2389L10.0166 36.1402L10.1953 36.1614L10.2491 36.0289L9.92157 35.8427L9.94157 35.5789L10.2266 35.4464L10.3003 35.5564L10.374 35.4464L10.1941 35.314L9.97157 34.9515L10.0203 34.8777L10.3091 34.4952L10.6453 34.2565L10.9815 34.3552L11.0778 34.259L11.174 33.539L11.4153 33.3003L11.944 33.5915L12.329 33.4978L12.6652 33.5953L12.8089 33.7878L13.1452 33.8378L13.4827 33.3115L13.8189 33.1216L13.8676 32.9766Z" fill="#143772"/>
<path d="M80.4694 58.9893L80.8656 59.4505L80.9781 59.803L81.0081 59.9205L80.9481 60.0768L80.3507 59.8818L80.0894 59.678V59.5768L80.2169 59.6005L80.3069 59.0143L80.4694 58.9893ZM78.287 54.7782L78.8645 54.5908L79.3932 54.067L79.4894 53.732L80.3069 53.1146L80.7394 52.5421L81.0756 51.6821L81.2681 51.4434L81.6056 50.7272L81.7018 50.6797L82.0381 50.8734L82.5193 50.8759L82.5668 51.1159L82.8555 51.3097V51.5971L83.0955 51.6459L83.1918 51.7896L83.2393 52.4596L83.4805 52.5571L84.0092 53.4221L84.7305 53.9045V54.9095L84.8267 55.0057L84.3942 55.8644L84.2017 56.0544L84.153 56.2932L83.9605 56.5319L84.008 56.7232L83.7193 56.8657L83.6705 57.8694L83.478 58.1068L83.3993 58.3543L83.1368 58.3468L82.6068 58.2368L82.3531 58.0956L82.1893 58.1968L82.0918 58.0006L81.8906 57.9544L81.5019 58.1181L81.4569 58.2743L81.3444 58.3531L80.8069 58.3143L80.3444 58.4943L79.127 58.6043L78.5282 58.5731L78.3357 58.0781L78.432 57.7444L78.2882 57.5044V57.3606L77.8558 56.7369L77.712 56.6407L77.5195 56.2569V56.0182L77.712 55.637L78.1445 55.2082L78.287 54.7782Z" fill="#143772"/>
<path d="M37.379 30.9947L37.4752 31.0434L37.524 31.2847L37.6677 31.4297L38.9664 31.5809L39.3989 31.5359L39.5914 31.1997L39.7839 31.0084L39.8801 31.0097L40.3126 31.8296V32.6946L40.4076 32.8396L41.0338 32.8421L41.1288 32.7471L41.1776 32.4584L41.3213 32.4121L41.4176 32.9896L41.5613 33.3258L41.9463 33.6646L42.235 34.1958L42.3788 34.7245L42.715 35.1595L43.5325 35.0195L44.1099 35.0708L44.2062 35.4082L44.4937 35.7945L44.7349 35.9395L45.2149 36.5182L45.5511 36.6157L45.9361 36.9069L46.1286 37.2919L46.3198 37.2931L46.4648 37.3419L46.4161 37.4856L46.3198 37.5331L46.1761 37.3881H46.0798L45.9361 37.8194L45.6474 37.9619L45.0699 38.0069L45.0224 37.9106L44.7337 37.9081L44.3012 38.4818L44.1087 38.4806L43.7237 38.6706L43.5312 38.9093L43.3387 39.3893V38.7643L43.0025 38.5231L42.2338 38.2781L41.8488 38.5168L41.8 38.9481L41.3188 39.3293L40.9351 39.1356L40.2126 39.2268L39.8764 39.4168L39.6364 39.7518V40.088L39.7801 40.2805L39.8289 40.713L40.0689 41.4817L40.0676 42.2017L39.7314 42.3917L39.5389 42.3904L39.3464 42.5342L39.2502 42.8691L38.7689 43.2979L38.5764 43.5841L37.8077 44.0116L37.4702 44.7291L37.519 45.0165L37.8065 45.1628L38.0952 45.5478L38.4802 45.8378L38.7677 46.5577L39.3927 47.1364L39.5377 47.4252L39.3927 47.6164V47.7602L39.5364 48.4314L39.1514 48.5726L39.0077 48.7164L38.8152 49.0501L38.9114 49.3376L38.8627 49.4813L38.334 49.4788L38.0452 49.6201L37.8052 49.8588V50.4338L37.564 50.5275L37.084 50.525L36.8915 50.38L36.459 50.33L35.6891 50.5175L35.0641 50.5613L35.0129 50.51L35.3503 50.2376L35.4491 49.6201V48.7989L35.2853 48.3014L34.6816 47.7877L34.1441 47.7227L33.9592 47.5852L33.4304 47.6302L32.7067 46.5715L32.413 46.2627L31.908 46.0227L31.7493 45.7603L31.7968 45.3678L31.3643 44.8391L31.3168 43.6391L31.4605 43.4966L31.653 43.4979V43.2579L31.3655 42.8716L31.173 42.7754L31.1243 42.3429L31.318 41.9604L30.8843 41.4305L30.6918 41.333L30.4518 41.428L30.3081 41.6192L29.9231 41.7604L29.8268 41.3767L29.5381 40.8955L29.2506 40.7017L29.4431 40.463V40.2705L29.3469 39.838L29.2031 39.5968L29.2506 39.3093L29.9243 39.3606L30.1643 39.1706L30.3081 38.8356L30.4531 38.7406L30.8855 38.7906L31.2705 38.5043L31.703 38.4106L31.848 38.2681L32.0405 37.6931L32.473 37.6956L33.0017 37.5544L33.1467 37.4106L33.2429 37.4119V37.3156L33.3867 37.2207L33.6754 37.1732L33.7717 37.0307L34.0592 36.9357L34.1566 36.3119L34.3491 35.8807L34.5416 35.6895L34.6854 35.7382L34.8291 36.1232L35.1654 36.1732L35.3578 36.3182L35.5991 36.2244L35.7916 35.9845V35.8882L35.5991 35.8395L35.6466 35.5032L35.4553 35.3582L35.6478 35.0233L35.5516 34.7345L35.6953 34.5433L35.5991 34.4945L35.5516 34.2533L35.6953 34.0145L35.5041 33.8696L34.8791 33.6733L33.8204 33.1871L33.7242 33.0421L34.1092 33.0446V32.8996L33.8204 32.7534L33.7254 32.3684L34.1092 32.3709L34.2054 32.1796L34.3979 32.1809L34.6391 31.9896L35.3116 32.0409L35.4078 31.8971V31.6572L35.5041 31.5622L36.3703 31.3259L36.899 30.9922L37.379 30.9947Z" fill="#143772"/>
<path d="M54.1825 22.0625L54.3688 22.0787L54.585 22.1575L54.9137 22.1337L55.16 22.315L55.325 22.3L55.445 22.52L55.6012 22.5362L55.6162 22.7887L55.7725 22.93L55.8625 22.97L56.0125 22.86L56.1912 23.0725L56.5799 23.1512L56.9612 23.9399L57.0212 24.2861L56.9462 24.5861L56.7212 24.9324L56.7149 25.4611L56.4524 25.9498L56.6624 26.4385L56.8787 26.6985L57.1999 26.7998L57.4236 27.021L57.3049 27.2173V28.3685L57.2149 28.5485L57.3124 28.9509L57.6186 29.6672L58.0136 30.2809V30.6821L58.2611 31.0446L58.8511 31.5171L58.8811 31.7683L59.0973 31.9183L59.1123 32.0833L59.3285 32.382L59.9735 32.9957L60.0235 33.382L60.456 33.7695L60.2635 33.7682L59.9273 33.5745L59.831 33.622L60.071 33.912L60.0235 34.0557L59.9273 34.0544L59.6385 33.8132L59.446 33.8595L59.4935 34.1482L59.6385 34.3894V34.5819H59.7348L59.7823 34.7269L59.686 34.7744V34.9669L59.5898 35.0619L59.3973 34.9169L59.2536 34.9644L59.2048 35.3481L59.5898 35.5906L59.6373 35.8306L58.9161 35.8269L58.1474 35.6306L57.5224 35.2431L57.3299 35.0019L57.1374 34.9044L55.5037 34.4619L54.4938 34.0245L53.2438 33.777L52.9551 33.487L52.9076 33.1495L53.0038 32.622L52.8113 32.4758L52.0901 32.3283L51.2252 32.3708L51.0327 32.2745L50.504 31.2133L50.3602 30.6834L50.1677 30.5384L50.3127 29.5772L49.9277 28.3235L49.6877 28.1785L49.3515 28.2247L49.2553 28.1272V27.9835L49.1103 27.886L48.919 27.8847L48.774 27.7397L48.3415 27.641L48.1016 27.351L48.3415 26.631L48.2466 25.9073L48.3903 25.8123L48.5828 25.9098L49.159 25.8648L49.304 25.9623L49.6402 25.7711L49.9765 25.7248L50.4102 25.3423L51.0827 25.0574L51.2277 24.9136L51.3239 24.5286V24.0474L51.4202 23.7587L51.3739 23.5674L51.6501 23.3637L51.8364 22.8512L51.9939 22.6625L52.3439 22.3625L52.5614 22.355L52.7701 22.2912L53.3001 22.1337H53.4126L53.4951 22.2362L54.01 22.2125L54.1825 22.0625Z" fill="#143772"/>
<path d="M39.5362 47.4244L39.3912 47.1357L38.7662 46.557L38.4787 45.837L38.0937 45.547L37.805 45.162L37.5175 45.0158L37.4688 44.7283L37.8062 44.0108L38.5749 43.5833L38.7674 43.2971L39.2487 42.8684L39.3449 42.5334L39.5374 42.3897L39.7299 42.3909L40.0661 42.2009L40.0674 41.4809L39.8274 40.7122L39.7786 40.2798L39.6349 40.0873V39.751L39.8749 39.416L40.2111 39.226L40.9336 39.1348L41.3173 39.3285L41.7986 38.9473L41.8473 38.5161L42.2323 38.2773L43.001 38.5223L43.3372 38.7636V39.3885L43.4335 39.821L43.9622 40.3997L43.866 41.1672L43.9135 41.5509L44.0097 41.6472L44.5384 41.7459L44.8747 41.8922L44.9709 42.0372V42.4684L45.7396 43.0484L45.6871 43.0959L46.0371 43.4146L46.5821 43.7096L46.9583 44.1558L47.367 44.4683L47.7445 45.032L47.867 45.537L47.6145 45.7445L47.3258 45.8382L47.2296 45.982V46.797L47.1333 47.0357L46.8921 47.2257L46.3146 47.4144L45.9784 47.6519L45.7384 47.9382L45.6896 48.1781L45.8334 48.3706L45.8821 48.7056L45.8334 48.8494L45.4484 49.1818L45.3534 49.4218L45.0646 49.6593L44.9197 49.6581L44.4747 49.3381L44.1034 49.2231L43.8622 49.0781L43.5735 48.7406L43.141 48.5469L42.4198 48.7819L41.891 48.7319L41.7473 48.8744L41.6023 48.8731L41.1223 48.3919L40.4974 48.1481L40.1124 47.6194L39.8724 47.4744L39.5362 47.4244Z" fill="#143772"/>
<path d="M12.5392 15.5703L12.6367 15.6478L13.5329 15.7903L13.8542 15.6641L14.8779 16.1065L15.2141 16.4228L15.7878 16.5953L16.3503 16.9515L16.5228 16.9352L16.8215 17.1252L17.8002 17.3302L18.4352 17.4252L18.504 17.354L18.9289 17.3702L19.0039 17.4727L19.1839 17.4715L19.1989 17.6065L19.4314 17.6865L19.6627 17.8277L20.2751 17.939L20.5239 17.8115L21.0276 17.7252L21.1888 17.8065L21.2351 17.949L21.1388 18.1427V18.3839L21.2826 18.6702L21.3301 19.2526L22.1 19.6426L23.0137 19.8889L23.4 20.1339L23.11 21.335L22.87 21.5725V22.0088L22.7738 22.1525V22.3463L23.0137 22.925V23.6974H22.9175L22.8213 23.5512L22.6788 23.6974L22.245 23.5962L22.1488 23.8849L22.485 24.6549L22.5325 25.2836L22.4363 25.4761V25.7173L22.245 25.8598L22.0513 26.2448L21.2826 25.9511L21.0426 26.4311L20.7539 26.4773L20.3689 26.1386L19.7926 26.1373L19.2152 25.5536L19.0727 25.5999L18.8789 25.8886L18.5902 25.8386L18.3977 26.0786L17.7252 26.4123L17.4365 26.4111L17.244 26.2661L17.0515 26.2648L16.9078 26.5048H16.8115V26.2636L16.1866 25.7786L16.2353 25.5386L15.9953 25.5849L16.0453 25.9673L15.8991 26.0173L15.4666 25.7748L15.0816 25.6761L14.7454 25.2411L14.3129 25.0949L14.0729 24.9486L13.9292 24.7549L13.5929 24.6561L13.4492 24.4624L13.4979 24.2699L13.3542 23.8837L12.6817 23.8312L12.393 23.9262L12.2005 24.1174L11.5293 24.0662L10.8556 24.2062L9.89435 24.2012L8.35567 23.5662L7.87445 23.6112L7.7782 23.4662L7.48946 23.4162L7.25073 23.1287L7.34947 23.0262L7.27072 22.5737L6.96949 22.4425L6.80075 22.1775L6.69575 22.155L6.7695 21.89L6.622 21.835L6.56951 21.7025L6.59201 21.545L7.27447 21.395L7.49821 20.9926L7.48446 20.7638L7.35572 20.6776L7.33322 20.4088L7.18448 20.5038L6.93824 19.9989L6.752 19.6589L6.90949 19.5801L6.84199 19.1701L6.66325 19.1626L6.61076 19.3601L6.49076 19.4151L6.46201 19.5339L6.17703 19.6514V19.7851L6.25952 19.8251L6.20952 19.9364L6.05078 19.8564L6.13328 19.5489L6.10328 19.3201L6.93324 18.5864L6.99324 18.3739L7.7107 18.2402L8.39067 17.8927L8.42817 17.6327L8.8169 17.5377L9.25063 17.1752L9.39313 16.9702L9.44562 16.7228L9.25188 16.0378L9.39438 16.0678L9.40188 15.939L9.62687 15.9703L9.77561 16.0965L9.83561 16.3728L10.0593 16.4828L10.3793 16.2615L10.3506 16.0103L10.4481 15.9003L10.7543 15.8378L10.8518 15.909L11.0905 15.7266L11.373 15.6316L11.868 15.7428L12.5392 15.5703Z" fill="#143772"/>
<path d="M60.4574 38.958L60.5536 38.9592L60.7461 39.2004L60.9861 39.3454L61.1311 39.3467L61.3711 39.4917L61.9473 40.0229L62.236 40.4566L63.3897 40.8954L63.631 41.1841L63.8709 41.5691L64.3509 41.6678L64.6397 41.8141L65.1209 42.2478L65.7934 42.5403L65.9858 42.6853L66.1296 42.9253L66.3708 43.0703L66.6583 43.1203L67.1395 43.5065L67.6195 43.6527L68.1482 44.0402L68.8695 44.284L69.3507 44.6214L70.1207 44.4827L70.4081 44.484L70.6006 44.6289V44.9164L70.4081 45.2514L70.0232 45.2977L69.8307 45.7751L69.302 45.9164L68.8695 46.4889L68.677 46.5364L68.6282 46.8713L68.4357 47.0138L68.3882 46.8213L68.1482 46.6764H68.0033L67.907 46.7226L67.522 47.3438L67.3783 47.3913L67.0896 47.965L66.4646 48.775L65.9821 50.3537L65.6459 50.9737L65.3109 51.3699L64.1784 50.9624H63.696L63.5022 51.3686L62.8585 51.5036L62.601 51.6724L62.081 51.6311L61.5111 51.8124L61.2223 51.7149L60.6448 52.1424V52.3823L60.4049 52.9073L60.0199 53.0973L59.9236 53.2873L59.5386 53.5248L59.3949 53.1411L59.4424 52.7111L59.2987 52.5661L59.2024 52.1823L58.7212 52.1799L58.6262 52.0361L58.5774 51.3174L58.6737 51.3186V51.2224L58.5774 51.1261L58.3862 51.1249L58.2412 51.3161L58.145 51.2674L58.0487 50.9787L57.665 50.4987L57.6162 50.1624L57.425 49.97V49.8262L57.0875 49.92L56.7513 49.8712L56.2226 50.2024L56.0301 50.2012L55.7901 50.0087L55.4526 50.0074L55.2601 49.8625L54.9239 49.765L54.8764 49.9075L54.9726 50.005L54.9714 50.2912L54.7801 50.5299L54.4426 50.5762L54.1551 50.9574L53.9139 50.9562L53.7702 50.8599L53.2889 50.8562L53.0002 51.0949L52.8077 51.1411L52.1827 50.5637L51.799 50.5612L51.4615 50.6549L50.9328 50.5562L50.7891 50.4599L50.4053 49.6912L49.9716 49.1137L49.9241 48.9225L49.6354 48.8725L49.3954 49.015L49.2504 48.775L48.7229 48.2925L48.0967 48.1925L47.9529 48.0488L47.8567 47.7601L47.1367 47.0376L47.233 46.7988V45.9839L47.3292 45.8401L47.6179 45.7464L47.8704 45.5389L48.0017 45.3652L48.4829 45.1277L49.0604 45.2264L49.7816 45.1352L50.3103 45.2339L50.4066 45.1389L50.5028 44.7552L50.6953 44.5652L51.224 44.5677L51.7528 44.2352L51.9452 44.2365L52.1377 44.5252L52.4265 44.479L52.6665 44.5764L52.8102 44.4327L52.9552 44.0027L53.0989 43.9077L53.4364 44.0527L53.8689 44.439L54.1564 44.5839L54.6376 44.6352L54.9264 44.349L55.1188 43.8702L55.3588 43.6315L55.7926 42.579L55.8413 41.8603L55.6488 41.7153L55.5526 41.2829L56.0338 40.3254L56.9475 40.3791L57.14 40.2354V38.9392L57.7175 39.1355L58.2462 38.898L59.0637 38.9992L59.4962 38.7617H59.6399L60.1211 38.813L60.4574 38.958Z" fill="#143772"/>
<path d="M9.73202 84.1925L9.88201 84.2863L9.90451 84.4425L9.68077 84.4813L9.60577 84.38L9.57577 84.24L9.73202 84.1925ZM12.9969 80.3227L13.1531 80.5015L13.4743 80.5252L13.6393 80.6427L13.8256 81.1177L14.0056 81.2964H14.3793L14.2156 81.4602L14.1856 81.6552L13.6031 82.1539L12.7969 82.4576L12.3344 82.4964L12.2144 82.4339L12.1094 82.1376L12.2806 81.6477L12.4819 81.3677L12.5344 80.9777L12.8031 80.8139L12.9969 80.3227ZM7.64961 61.4023L8.22084 61.6036L8.39458 61.7461L8.66582 61.7473L9.00205 62.1798L9.68327 62.6685L9.96951 63.001L10.3195 63.201H10.797L11.4544 63.3885L12.0657 63.7672L12.6406 63.9335L13.6893 64.0335L14.7068 64.9309L15.2155 65.4959L15.6542 65.7984L16.233 65.8621L16.7417 66.1946L16.9642 66.3946L16.9954 66.5271L16.8054 66.7596L16.233 66.7933L16.6779 67.5246L16.7417 67.857L16.6779 68.3883L16.1692 69.0532L15.8192 69.1532L15.5018 68.987L15.438 69.1195V69.717L15.343 70.0157L15.4068 70.2157L15.598 70.4482H16.1705L16.488 70.6807L16.6154 70.9132V71.0931L16.8392 71.0557L17.1279 71.2481L17.6329 71.8769L18.0779 71.7444L18.2366 71.2131H18.5866L19.2228 72.0106L19.2553 72.4168L19.4366 72.5493L19.5328 73.1693L19.3891 73.3593L19.4278 73.6755L19.3141 73.723L19.2691 73.8555L19.2766 74.4567L19.0153 74.668L18.8803 74.5355L18.6416 74.653L18.1566 75.308L17.6267 76.3367L17.3204 77.7941L17.2154 78.0666L17.0592 78.1528L17.0817 78.4953L16.9617 78.6128L16.9692 78.7615L16.8117 79.0415L16.5655 79.159L16.558 79.3615L16.2292 79.8365L16.2817 80.0315L16.088 80.359H15.8942L15.6405 80.749L15.4468 80.4377L15.118 80.189L15.0205 79.9477L15.043 79.784L14.2956 79.0903L13.9368 77.9753L13.6231 77.2979L13.3618 76.9466L13.1606 76.7754L12.7869 76.6429L12.8094 76.5341L12.6606 76.4329L12.0332 76.1917L10.7932 76.1367L9.70952 76.4492L9.18704 76.4654L9.12704 76.3954L8.9258 76.4192L8.72456 76.1854L8.47083 76.1154V76.0529L8.93455 75.9442L9.24079 75.6717L9.43453 74.9305L9.70327 75.0392L9.91201 74.9842L10.1132 74.6105L10.1207 74.2443L9.97826 73.8618L9.64202 73.503L9.64952 73.2918L9.41078 72.7931L8.93955 72.4806L8.86456 72.3243L8.95455 72.1993L9.17079 72.2156L9.24579 72.1456L9.41703 71.6469L9.40203 71.3581L9.16329 70.9919L9.1108 70.6957L8.94705 70.3994L8.21459 69.7432L7.65461 69.4545L7.19088 68.9232L6.75215 68.7833L6.84215 68.6758L6.8734 68.4358L7.16838 68.227L7.22088 67.7571L7.34713 67.6808V67.4408L7.45212 67.3858L7.39837 67.1233L7.29338 67.1021L7.41962 66.9158L7.34588 66.7846L7.16588 66.8183L7.01839 66.4684L7.12339 66.3696L7.12214 65.9209H7.21713L7.14339 65.7359H7.01714L7.06964 65.6371L7.14339 65.6584L7.12214 65.4509L7.06964 65.4184L6.94339 65.6371L6.83715 65.3422H6.7634L6.53091 65.0584L6.61466 64.8722L6.31967 64.9497L6.02344 64.6109V64.4035L6.18093 64.1622L6.32842 64.1397L6.43342 64.0297L6.38092 63.8222L6.50717 63.406L6.81215 63.2198V62.881L7.64961 61.4023Z" fill="#143772"/>
<path d="M44.2961 55.4453L44.9111 55.4691L45.2798 55.6628L45.3473 55.8828L45.6361 55.9803L45.7323 56.0765V56.2678L46.0685 56.3653V56.5565V56.7953L46.1648 56.939L46.7898 56.8952V57.0865L46.886 57.1352V57.279L46.7898 57.3265V57.4227L46.9823 57.4715L46.886 57.6627L47.0785 57.664L47.1747 57.3777L47.271 57.3302V57.6652L47.5597 57.5715L47.9447 57.7652V57.8615L47.801 58.0039H47.7047L47.6572 57.8127L47.561 57.764V58.1464L47.6572 58.1952L47.561 58.2902L47.0323 58.6702L46.4073 58.6189L46.1673 58.8564V59.0476L46.5035 58.9539L46.5998 59.1451L46.551 59.4801L46.6473 59.6714L46.7435 59.6726L46.8885 59.4826L47.2735 59.5801V59.9151L47.4172 60.4413L47.7535 60.6351L47.801 60.8263L48.1372 61.0676L48.2334 61.2113L48.2809 61.6413L48.3772 61.7375L48.7622 61.835L48.9547 61.98L48.9059 62.41L48.8097 62.505V62.8875L49.0497 63.0837L48.7897 63.2087L48.2597 62.9975L47.5047 63.3799L47.266 63.185L46.4148 62.935L45.5711 63.2162L44.9436 63.2712L44.3311 63.1225L43.9049 63.1387L43.5612 62.9675L43.3224 62.9512L42.3287 63.28L41.32 63.8512L40.79 63.9524L40.2601 64.1712L39.6926 63.7962L39.4013 63.7887L39.2076 63.8674L38.6926 63.7737L38.8714 63.3824L39.0876 63.2962V63.4599L39.0576 63.3425L38.8939 63.4049L38.8039 63.6624L38.9539 63.7324L38.9239 63.5924L39.0801 63.6312L39.0726 63.4899L39.1326 63.6224L39.3789 63.6999L39.4913 63.5512L39.7976 63.6524L39.9688 63.5437L40.3276 63.5274L40.3726 63.4099L39.9388 63.1525H39.7151H39.5513L39.1101 62.6987L39.0876 62.5662L38.9164 62.5187L38.8189 62.3937L38.4151 62.3237L38.1914 62.0038L38.3302 61.8725L39.3876 61.8313L39.7238 61.6425L40.2051 61.645L40.4938 61.5038L40.7825 60.8363V60.5976L40.6388 60.1663L40.6875 59.4501L41.2175 58.7364V58.3539L41.0075 58.0002L41.0775 57.4415L41.2613 57.184L41.445 57.0552H41.7825L42.6737 56.5403H43.0724L43.5337 56.379L43.7799 55.9603L44.2961 55.4453Z" fill="#143772"/>
<path d="M26.6468 15L27.2667 15.0475L27.8567 15.4425L28.4767 15.7425L28.5967 15.7262L28.8204 15.45L29.5604 15.8137L30.0604 15.7737L30.0979 15.8925L30.1954 15.9237L30.3666 15.7662L30.6878 15.8687L31.0616 15.6875L31.1366 15.7975L31.3228 15.7587L31.3903 15.8925L31.3378 16.1062L31.4203 16.2162L31.719 16.4212L32.0628 16.4137L32.959 17.5661L32.7877 17.8186L32.8615 17.9374L33.0115 17.9299L33.1315 17.7324L33.3327 17.7949L33.519 17.6849H33.8177L34.1239 17.8899L34.1389 18.0011L34.2664 18.0161L34.2739 18.1749L34.7664 18.3398L34.9914 18.5773L34.8939 18.6636L34.9914 18.7973L35.1626 18.6248L35.2676 18.6473L35.2826 18.7348L35.8651 19.0261L35.9401 19.1536L36.1338 19.1998L36.3876 19.5323H36.6938L36.7238 19.7135L36.9026 19.816L37.0675 19.7923L37.2175 19.6185L37.5675 19.8785L38.0837 20.0448L38.6212 19.7848L38.7787 19.831L38.905 19.7685L39.1737 20.0523L39.3312 19.9898L39.5099 19.9973L39.8387 20.0523L39.9737 20.0135L39.9062 19.7998L40.1449 19.3348L40.8699 19.1848L41.8336 19.2561L42.0873 19.3823L42.326 19.681L42.5735 19.816L42.7898 20.1235L43.126 20.131L43.3648 20.376L43.8722 21.1722L43.5835 21.8359L43.7747 22.2709V22.5122L43.7272 22.6084L43.1023 22.7009V22.8459H43.246L43.2935 22.9909L43.1023 23.0384L43.006 22.7971L42.9098 22.7959L42.861 23.0371L42.6698 22.8434L42.5248 23.0834L42.3323 23.0821L42.1398 22.6959L42.0448 22.6946L41.8523 22.8384L41.4186 22.7871L41.3711 23.1246L41.2748 23.0759V22.9796L40.9386 22.9771L40.7936 23.1209L40.6499 22.9759L40.5536 23.0234L40.4086 22.9271L40.1687 23.1659L40.1212 23.3109L40.2161 23.4071L39.9287 23.5021V23.6459L40.0249 23.6946L40.0237 23.9358L39.8312 24.2721V24.4171L39.9762 24.6583V24.8983L39.5424 25.4258L39.4462 26.5332L39.3024 26.5807L39.1574 26.772L38.5325 26.432L37.86 26.187L36.8026 25.9882L36.6101 25.6983V25.4583L36.8988 24.4483L36.8026 24.0146L36.0813 23.5759L35.7926 23.5746L35.6014 23.4771L34.8314 22.9909H34.7352V23.2321L34.9751 24.2446L34.8789 24.5333L34.6864 24.7733L33.9652 25.0583L33.8214 25.057L33.7252 24.9595L33.629 24.6221L33.5327 24.5258L33.1002 24.4746L32.619 23.9421L32.0428 23.5059L31.9465 23.5046V23.6496L31.8503 23.6971L31.4666 23.5021L31.1778 23.5009L30.6491 23.2571L29.5904 23.2021L29.3979 23.1534L29.1579 22.9109L28.9654 23.0059L28.5329 22.5697L28.4854 22.3297L28.2929 22.3284L27.7155 21.9872L27.1393 21.406L26.8993 21.4047L26.658 21.5484L26.1293 21.5447L25.5531 21.301L25.3606 20.721L25.0718 20.5747L24.1106 20.4735L23.6782 20.326L23.3919 20.1335L23.0044 19.8885L22.092 19.6423L21.322 19.2523L21.2745 18.6686L21.1295 18.3823L21.1308 18.1411L21.227 17.9474L21.1808 17.8049L21.0195 17.7249L21.2608 17.5824L21.2383 17.2986L21.3883 17.0774L21.2683 16.9987L21.2983 16.7687L21.7545 17.0137L21.8882 17.2036L22.232 17.2811L22.337 17.1399L22.457 16.9899L22.6207 16.9824L22.8219 17.1162L23.4569 17.1562L23.6744 16.9512L24.2944 16.8249L24.5706 16.6824L24.8469 16.4137L24.8019 15.9325L24.9881 15.7425L25.2643 15.6237L25.3393 15.4025L25.8406 15.2687L26.3255 15.0312L26.6468 15Z" fill="#143772"/>
<path d="M41.3203 32.4114L41.3216 32.1714L41.5141 31.7877L41.8503 30.394L42.1878 29.6753V29.3378L41.899 28.9991L41.8028 28.7591V28.3741L42.044 27.9904L41.9965 27.3154L42.6215 25.8755H42.7177L42.9577 26.2142L43.1977 26.3604L43.7265 26.4592L43.8227 26.5567L43.8714 27.1341L44.0152 27.3279L44.3039 27.4254L44.5439 27.3304L44.8814 26.3217L44.9776 26.2254L45.2664 26.1304L45.5064 25.7955L45.8426 25.7492L46.0838 25.6055L46.3713 25.608L46.7088 25.7055L46.8526 25.8505L46.9001 25.9955L46.7563 26.1879L46.8526 26.5254L47.1888 27.0079L47.525 27.2991L47.67 27.3479L47.7663 27.5416L47.7175 27.9254L47.525 28.0691L47.3325 28.0679L46.8513 28.3053L46.7076 28.5941L46.8038 28.8353L47.1888 28.9816V29.1253L46.6113 29.3153L46.3226 29.6015L46.0826 29.6003L45.8901 29.6953L45.1201 30.269L44.9751 31.134L44.6864 31.9489L44.7352 32.2864L44.4939 32.8139V33.2939L44.3014 33.5814L44.0127 33.7726L43.8689 34.1076V34.4926L44.0127 34.6851L44.1089 35.07L43.5315 35.0188L42.714 35.1588L42.3778 34.7238L42.234 34.1951L41.9453 33.6638L41.5603 33.3251L41.4166 32.9889L41.3203 32.4114Z" fill="#143772"/>
<path d="M74.4838 31.1445L74.6038 31.1758L74.7013 31.317L74.7388 31.2458L74.9626 31.2295L75.0226 31.4033L74.8513 31.8045L74.4326 32.2132L74.0513 32.8195L73.9239 33.0794L74.0064 33.2057L74.1338 33.2919L74.6113 33.3544L74.6863 33.2832L74.9326 33.3144L75.2388 33.0082L75.515 33.1657L75.7313 33.1344L76.2163 32.812L76.3962 32.8045L76.4187 32.9144L76.695 32.8832L76.74 32.9544L76.7175 33.3719L76.4112 33.9457L75.6638 34.4644L75.485 34.7006L75.1713 34.8506L75.1113 35.1731L74.9688 35.4093L74.9913 35.8106L74.9088 35.8268L74.8938 36.1018L74.8413 36.2593L74.5426 36.3693L74.1163 36.283L73.8626 36.2443L73.2951 36.2368L72.8777 35.9306L72.7502 36.0643L72.4739 35.8681L72.3314 35.9781L71.8464 35.7106L71.704 35.7581L71.6365 35.8843L71.6065 35.9943L70.8515 35.8843L69.9553 35.9318L69.8353 36.0493L69.8278 36.2455L69.634 36.1668L69.6041 36.0018L69.3128 35.9706L69.1553 36.0731L68.8866 35.7906L68.6553 35.7043L68.3791 35.7206L68.0879 35.5793L67.8266 35.5556L67.6704 35.6268L67.5292 35.5481L67.4242 35.6031L67.2229 35.4218L66.9917 35.5718L66.9167 35.4781L66.6479 35.4068L66.4542 35.4781L66.238 35.3918L65.8642 35.4631L65.2667 35.3456L65.1393 35.2593L64.878 35.3143L64.5118 35.0943L64.1081 35.0781L63.9143 35.2118L63.9968 35.3843L63.9368 36.3668L63.7943 36.7443L63.6456 37.578L63.5631 37.6255L63.7943 38.5217L63.6531 38.6792L63.8693 39.0717L64.2581 39.1429L63.9143 40.5266L63.6256 41.1966L63.3856 40.9078L62.2319 40.4691L61.9432 40.0354L61.3669 39.5041L61.1269 39.3592L60.9832 39.3579L60.7432 39.2129L60.5507 38.9717H60.4545L60.5982 38.8279L61.2232 38.8317L61.0307 38.2542L60.742 37.9167V37.628L61.0307 37.6292L61.4632 37.343L61.5594 37.248L61.4632 37.0555L61.7032 37.0093L61.7994 36.818L61.8957 36.9143L62.0882 36.9155L62.1369 36.7243L62.3294 36.7255L62.4744 36.1493L62.7156 35.8631L62.9081 35.8643L62.9569 35.6718L62.7169 35.5743L62.1394 35.6668L61.8994 35.3768L61.4669 35.4706L60.9382 35.4193L60.602 35.2256L60.1207 35.2231L59.9283 35.3181L59.6395 35.8456L59.592 35.6056L59.207 35.3631L59.2558 34.9794L59.3995 34.9319L59.592 35.0768L59.6883 34.9819V34.7894L59.7845 34.7419L59.737 34.5969H59.6408V34.4044L59.497 34.1631L59.4495 33.8744L59.642 33.8269L59.9307 34.0694H60.027L60.0757 33.9257L59.8358 33.6357L59.932 33.5882L60.2682 33.7819L60.4607 33.7832L60.0282 33.3957L59.9782 33.0094L60.827 33.4819L61.6857 33.6469L62.7319 33.4032L63.1806 33.1282L64.928 33.0107L65.2943 32.8057L65.3093 32.5145L65.6155 32.5532V32.3645L65.8242 32.4195L65.9292 32.2307L66.0792 32.1832L66.2955 32.3332L66.5717 32.192L66.6392 32.2707L66.9379 32.1845L67.3042 32.2007L67.6704 32.3182L68.3429 32.177L68.5666 32.2007L68.6791 32.3745L68.7991 32.3432L68.8741 32.2095L68.9716 32.2257L69.0916 32.422L69.3228 32.572L69.5691 32.462L69.5541 32.3595L69.704 32.3207L69.809 32.4707L69.944 32.4782L70.2653 32.722L70.3478 32.7382L70.4003 32.6207L70.5803 32.637L70.5728 32.7395L70.804 32.8657L71.0202 32.9282L71.2665 32.8732L71.4227 33.2032L71.5727 33.3057L71.6777 33.2669L71.7302 33.4169L71.9252 33.4332L72.0302 33.3857L72.0902 33.0157L72.0302 32.9057L72.1502 32.7482L72.4339 32.5907L72.5689 32.402L72.8302 32.3395L73.0314 32.0957L73.6289 31.9932L73.5839 31.8282L73.7851 31.6558L73.9414 31.632L74.0389 31.782L74.3601 31.1683L74.4838 31.1445Z" fill="#143772"/>
<path d="M47.1348 47.0391L47.8548 47.7615L47.9511 48.0503L48.0948 48.194L48.721 48.294L49.2485 48.7765L49.3935 49.0165L49.2485 49.1115L49.1522 49.3027V49.5902L49.5847 50.2152V50.5502L49.7297 50.7901L49.681 51.1726L50.0172 51.5576L50.161 51.8938L50.1135 52.0851H50.0172L49.8735 51.8926L49.681 51.9388L49.5835 52.705L49.8247 52.8975L49.8722 53.2813L50.161 53.8087L50.3534 53.8575V54.0962L50.4972 54.2412L50.5934 54.6725L50.5447 54.8637L50.6409 55.0549L50.9297 55.1049L51.3147 55.0587V54.8674L51.4584 54.8212L51.6021 55.1087L51.9396 55.3499L51.9871 55.6849L52.1796 55.9736L52.0834 56.0686L51.6984 56.0661V56.1611L51.7471 56.3049L52.1309 56.3074L52.0834 56.8336L52.2271 56.7861V56.5949L52.4196 56.4524L52.6596 56.4536L52.8521 56.7424L53.0921 56.7911L53.477 56.3636L53.5258 56.5074L53.4296 56.8886L53.5733 56.8424L53.6208 57.1286L53.8133 57.2736L53.682 57.6998L53.4671 57.9036L53.437 57.7786L53.3471 57.8323L53.3846 58.0123L53.2283 58.0986L52.8396 58.881L52.7646 58.8423L52.6083 59.0073L52.6821 59.0223L52.5783 59.1635L52.4208 59.241L51.5771 60.8922L51.3309 61.1034L51.1434 61.0409L50.9347 61.2747L50.8822 61.5796L50.5984 61.9709L50.2622 62.2296L49.836 63.0658L49.6272 63.1833L49.3435 62.9646L49.051 63.0808L48.811 62.8846V62.5034L48.9073 62.4084L48.956 61.9784L48.7635 61.8334L48.3785 61.7359L48.2823 61.6396L48.2348 61.2097L48.1385 61.0659L47.8023 60.8247L47.7536 60.6334L47.4173 60.4409L47.2736 59.9135V59.5797L46.8886 59.4822L46.7449 59.6722L46.6486 59.671L46.5524 59.4797L46.6011 59.146L46.5049 58.9535L46.1674 59.0473V58.856L46.4086 58.6185L47.0336 58.6698L47.5623 58.2898L47.6586 58.1948L47.5623 58.1473L47.5636 57.7648L47.6586 57.8123L47.7073 58.0048H47.8036L47.9473 57.8623V57.7661L47.5636 57.5736L47.2748 57.6673V57.3323L47.1786 57.3798L47.0823 57.6661L46.8899 57.6648L46.9861 57.4748L46.7936 57.4248V57.3298L46.8899 57.2823V57.1386L46.7936 57.0911V56.8999L46.1686 56.9436L46.0724 56.7999V56.5611V56.3699L45.7362 56.2711V56.0799L45.6399 55.9837L45.3524 55.8874L45.2837 55.6674L44.9149 55.4737L44.3012 55.4499V55.2162L44.1475 54.9587L43.6562 54.4112V54.1537L43.9937 53.3163L44.055 52.865V52.1563L43.7175 51.6089L43.7475 51.1901L44.055 50.7701L44.1162 50.5451L44.1475 49.9002L44.4762 49.3415L44.9212 49.6614L45.0662 49.6627L45.3549 49.4252L45.4499 49.1852L45.8349 48.8527L45.8836 48.709L45.8349 48.374L45.6912 48.1815L45.7399 47.9415L45.9799 47.6553L46.3161 47.4178L46.8936 47.2291L47.1348 47.0391Z" fill="#143772"/>
<path d="M39.536 47.4297L39.8723 47.4797L40.1123 47.6247L40.4973 48.1534L41.1222 48.3971L41.6022 48.8784L41.7472 48.8796L41.8909 48.7371L42.4197 48.7871L43.1409 48.5521L43.5734 48.7459L43.8621 49.0834L44.1033 49.2284L44.4746 49.3433L44.1458 49.9021L44.1146 50.547L44.0533 50.772L43.7459 51.192L43.7159 51.6107L44.0533 52.1582V52.8669L43.9921 53.3182L43.6546 54.1556V54.4131L44.1458 54.9606L44.2996 55.2181V55.4518L43.7771 55.958L43.5309 56.3768L43.0709 56.538H42.6709L41.7809 57.053H41.4422L41.2585 57.1817L41.0735 57.4392L41.0035 57.9979L40.541 57.6792L40.5897 57.3442L40.3498 56.9605V56.6743L40.1085 56.5293L40.1098 56.2418L40.2535 56.1468V56.0518L40.1098 55.9068L39.436 55.8081L39.0523 55.2793L38.9073 55.3268L38.7636 55.1818L38.1386 55.0343L37.9949 54.6994L37.8024 54.6981L37.5136 54.8406L37.3686 54.7918L37.3211 54.5994L37.0324 54.2631V53.9756L36.9362 53.8319L36.0712 53.3007L35.8312 53.0594L35.735 52.8682L36.0725 52.3432L36.0237 51.5295L35.7362 51.0483L35.3512 50.7108L35.0625 50.5658L35.6875 50.522L36.4574 50.3346L36.8899 50.3846L37.0824 50.5295L37.5624 50.532L37.8036 50.4383V49.8633L38.0436 49.6246L38.3323 49.4833L38.8611 49.4858L38.9098 49.3421L38.8136 49.0546L39.0061 48.7209L39.1498 48.5771L39.5348 48.4359L39.3911 47.7647V47.6209L39.536 47.4297Z" fill="#143772"/>
<path d="M18.1907 36.0273L18.287 36.0761L18.4307 36.4611L18.5744 36.5586L18.9119 36.4161L19.3444 36.4186L20.0169 36.6623L20.4019 36.5198L20.7868 36.6186L21.2668 37.006L21.988 37.106L22.8055 37.446L23.0942 37.8798L23.5742 38.1235L23.6705 38.556V39.1797L24.0554 39.5659L24.3917 39.7597L24.6804 39.7609L25.5929 40.1509L25.7854 40.4871V40.7271L25.8816 40.8246L26.1216 40.8259L26.3141 40.9221L26.4103 40.7796L26.8916 40.5896L26.9878 40.3509L27.1803 40.2559L27.564 40.4021H27.6603L27.8053 40.2596H27.9978L28.5265 40.4546L28.719 40.5996L29.2477 40.6996L29.5352 40.8934L29.8239 41.3746L29.9202 41.7583L29.8714 41.9508L29.9677 42.0471V42.2383L29.8239 42.4295L29.0065 42.5695L29.2465 43.1458L29.054 43.4333L28.3802 43.5732L28.189 43.907H28.044L27.659 44.0957V44.2407L27.7553 44.337L27.7078 44.6244L27.419 45.1982L27.2265 45.2444L27.1303 45.3882L27.3215 46.1081L27.6578 46.7806V47.1168L27.3215 47.6893L27.2253 48.0243L26.9366 48.3105L26.8403 48.5968H26.6478L26.4078 48.1155L26.3116 47.7318L26.1191 47.5868L25.7829 47.5843L25.4941 47.7756L25.3504 48.0143L25.3979 48.7805L25.4941 48.8768V49.068L25.6379 49.118L25.6866 49.3567L25.5904 49.453L25.3979 49.4517L25.2529 49.5942V49.8342L25.5416 50.1229L25.5891 50.4579L25.3491 50.5042L25.0754 50.7754L24.5954 50.7879L24.2767 51.5779H23.9942L23.3417 52.2553L22.6555 52.2778L22.608 51.9741L22.5118 51.8779L21.8868 51.6829L21.2618 51.8229L20.1556 52.2953L19.2419 52.2903L18.8569 52.1441L18.5207 52.1429L18.3282 52.2853L18.1845 52.5228L17.9432 52.5216L17.4145 52.9016L16.4533 52.7053L16.4045 52.4178L16.0683 52.3203L15.8758 52.5103L15.6846 52.5091L15.5396 52.2216L14.8184 51.8341L14.4821 51.7841L14.1934 51.9266L13.8572 51.9241L13.3284 51.7779L12.9435 51.5841L12.7997 51.3916L12.6072 51.2954L12.7997 51.0567L12.9922 50.3392V50.1479L12.7997 49.668L12.5597 49.523L12.0785 49.568L11.7898 49.423L11.5985 48.9905L11.4535 48.8943L11.3585 48.7018L11.406 48.5105L11.5498 48.4155L11.6948 48.128L11.6473 47.8893L11.3098 47.6956L11.2623 47.5506H11.0698L10.6848 47.3568L10.4936 47.1156V46.9243L10.1086 46.6819L10.2536 46.5869L10.3486 46.2519L10.5411 46.0131L10.3973 45.4857L10.4461 44.4782L10.3498 44.4307L10.0611 44.7169L9.96484 44.7157L10.0136 44.1407L10.4461 43.4233L10.4948 42.9445L10.3023 42.8958L10.2061 42.7983V42.6545L11.216 41.4133L11.5048 41.1746L11.7448 41.1284L12.6585 41.3733L12.9472 41.3271L13.0435 41.2321L13.0922 40.6084L13.4772 39.6497L13.8134 39.1247L13.7659 38.5485L14.2471 37.8298L14.5359 37.736L15.4496 37.8848L15.9296 38.3685L16.2658 38.3697L16.3146 38.5622L16.5058 38.5635L16.8908 38.2297L17.4682 38.2322L17.8045 38.0423L17.9495 37.851L17.8532 37.5148L17.9982 36.2186L18.142 36.0273H18.1907Z" fill="#143772"/>
<path d="M68.4328 47.0094L68.3365 47.1531L68.2403 47.9193L68.3365 48.1593L68.6253 48.2081L68.769 48.353V48.6405L69.0578 49.1693L69.0565 49.9355L69.249 50.223L68.9128 50.6529L68.9603 50.8442L69.249 50.9892L69.3927 51.3742L69.6815 51.7104L69.729 52.0941L69.9215 52.5254L70.3539 52.8153L70.4502 53.3428L70.6902 53.774L70.7389 54.0615L71.2664 54.9265L71.4589 54.4965L71.8439 54.1165L72.3251 53.8315L72.3738 53.5441L72.6613 53.5466L72.5663 53.4028V52.8753L72.7101 52.6854V52.3016L72.8063 52.1116L73.4313 52.0666L73.72 51.9254L73.9613 51.5904L74.345 51.7366L74.49 52.0729L74.7775 52.0741L75.0662 51.9329L75.4987 52.0779L76.2687 52.6091L76.5087 53.1853L77.2299 53.5716L77.5186 53.5253L77.8061 53.3366L78.5761 53.3403L78.6723 53.5328L78.4311 53.6266L78.2873 54.774L78.1423 55.204L77.7098 55.6327L77.5174 56.0139V56.2527L77.7098 56.6364L77.8536 56.7327L78.2861 57.3576V57.5001L78.4298 57.7401L78.3336 58.0751L78.5261 58.5701L77.5786 58.2338L77.1011 58.2263L76.5999 58.0926L75.8387 57.7951L75.45 57.4976L75.5849 57.4351L75.4724 57.0364L75.1812 56.8802L74.71 56.9901L74.4713 57.1614L73.5825 57.1776L72.8201 57.4201L72.7238 57.4126L72.7751 57.3726L72.7301 57.2789L72.3876 57.2401L72.4251 57.0676L72.2976 57.0364L72.1401 57.1464L72.1339 57.3101L72.2601 57.3651L72.2001 57.4276L72.1251 57.3889V57.5376L71.8789 57.6626L71.1552 57.7101L70.1689 57.5926L69.504 57.6389L68.5478 57.8039L67.1066 58.2501L66.5566 58.2413L66.5541 57.0052L66.6029 56.9089L66.7954 56.9102L66.8428 56.4327L65.5929 56.3289L64.7754 55.8465L64.5355 55.2227L64.1992 55.0302L64.2955 54.839L64.5842 54.6978L64.8242 54.0765L65.2579 53.3616V53.2178L65.0167 52.9291L65.2092 52.4041L65.2104 52.1641L65.1129 52.1154L64.8729 52.3066L64.7767 52.0179L65.3079 51.3654L65.6429 50.9692L65.9791 50.3492L66.4616 48.7705L67.0866 47.9606L67.3753 47.3868L67.5191 47.3393L67.904 46.7181L68.0003 46.6719H68.1453L68.3853 46.8169L68.4328 47.0094Z" fill="#143772"/>
<path d="M46.3171 37.2925L46.3183 37.1487L46.2221 37.1962V37.1L46.3658 37.005L46.5583 36.9575L46.7508 37.055L46.9433 36.96L47.0395 37.0562L47.1358 36.9612L47.232 37.2012L47.5195 37.1075L47.6645 37.3475L48.1445 37.495L48.1932 37.255L48.2895 37.16L48.4332 37.3525L48.7694 36.97L48.9619 36.875L49.1544 36.9237L49.0582 37.26L49.2507 37.2612L49.3944 37.1662L49.4907 37.2625L49.5869 37.1662V37.5025L49.8281 37.0725L49.9719 37.1212L50.1156 36.9775H50.1644L50.1156 37.3612L50.2606 37.4112L50.3081 37.2187L50.4531 37.2675L50.5494 37.0762L50.8856 37.1262V37.2225L51.0293 37.3187L51.3668 37.225L51.5106 37.0812L51.6543 37.37L51.9918 37.3725L52.0393 37.5162L52.1355 37.5175L52.4718 37.8075L53.578 38.1012L53.9142 38.3437L54.0579 38.3449L54.3954 38.0099L54.6354 38.0112L55.2129 38.3024L55.5491 38.5924L56.0291 38.6437L56.3666 38.7899L56.4141 38.8862L56.1253 39.5561L56.0291 40.3236L55.5479 41.281L55.6441 41.7135L55.8366 41.8585L55.7879 42.5772L55.3541 43.6297L55.1141 43.8684L54.9217 44.3472L54.6329 44.6334L54.1517 44.5821L53.8642 44.4372L53.4317 44.0509L53.0942 43.9059L52.9505 44.0009L52.8055 44.4309L52.6618 44.5746L52.4218 44.4771L52.133 44.5234L51.9405 44.2347L51.748 44.2334L51.2193 44.5659L50.6906 44.5634L50.4981 44.7534L50.4019 45.1371L50.3056 45.2321L49.7769 45.1334L49.0557 45.2246L48.4782 45.1259L47.997 45.3634L47.8657 45.5371L47.7432 45.0321L47.3658 44.4684L46.957 44.1559L46.5808 43.7097L46.0358 43.4147L45.6858 43.096L45.7383 43.0485L44.9696 42.4685V42.0373L44.8734 41.8923L44.5371 41.746L44.0084 41.6473L43.9122 41.551L43.8647 41.1673L43.9609 40.3998L43.4322 39.8211L43.3359 39.3886L43.5284 38.9087L43.7209 38.6699L44.1059 38.4799L44.2984 38.4812L44.7309 37.9075L45.0196 37.91L45.0671 38.0062L45.6446 37.9612L45.9333 37.8187L46.0771 37.3875H46.1733L46.3171 37.5325L46.4133 37.485L46.462 37.3412L46.3171 37.2925Z" fill="#143772"/>
<path d="M30.6531 23.2584L31.1818 23.5022L31.4706 23.5034L31.8543 23.6984L31.9506 23.6509V23.5059L32.0468 23.5072L32.623 23.9434L33.1043 24.4759L33.5367 24.5271L33.633 24.6234L33.7292 24.9608L33.8255 25.0583L33.9692 25.0596L34.6904 24.7746L34.8829 24.5346L34.9792 24.2459L34.7392 23.2334V22.9922H34.8354L35.6054 23.4784L35.7966 23.5759L36.0854 23.5772L36.8066 24.0159L36.9028 24.4496L36.6141 25.4596V25.6996L36.8066 25.9895L37.864 26.1883L38.5365 26.4333L39.1615 26.7733V27.3507L38.6802 27.7332L38.2965 27.827L38.1515 28.0195L38.199 28.7407L37.8628 29.3169V29.5094L37.9103 29.9906L38.054 30.4243L38.199 30.5693V30.7131L38.1028 30.7606L37.9103 30.5668L37.6703 30.5656L37.4778 30.7568L37.3803 30.9968L36.9003 30.9943L36.3716 31.3281L35.5054 31.5643L35.4091 31.6593V31.8993L35.3129 32.043L34.6404 31.9918L34.3992 32.183L34.2067 32.1818L34.1105 32.373L33.7267 32.3705L33.8217 32.7555L34.1105 32.9017V33.0467L33.7255 33.0442L33.8217 33.1892L34.8804 33.6754L35.5054 33.8717L35.6966 34.0167L35.5529 34.2554L35.6004 34.4967L35.6966 34.5454L35.5529 34.7366L35.6491 35.0254L35.4566 35.3604L35.6479 35.5054L35.6004 35.8416L35.7929 35.8903V35.9866L35.6004 36.2266L35.3591 36.3203L35.1667 36.1753L34.8304 36.1253L34.6867 35.7403L34.5429 35.6916L34.3504 35.8828L34.158 36.3141L34.0605 36.9378L33.773 37.0328L33.6767 37.1753L33.388 37.2228L33.2442 37.3178V37.414L33.148 37.4128L33.003 37.5565L32.4743 37.6978L32.0418 37.6953L31.8493 38.2702L31.7043 38.4127L31.2718 38.5065L30.8869 38.7927L30.4544 38.7427L30.3094 38.8377L30.1656 39.1727L29.9256 39.3627L29.2519 39.3114L29.2044 39.5989L29.3482 39.8402L29.4444 40.2726V40.4651L29.2519 40.7039L28.7232 40.6039L28.5307 40.4589L28.002 40.2639H27.8095L27.6645 40.4064H27.5683L27.1845 40.2601L26.992 40.3551L26.8958 40.5939L26.4146 40.7839L26.3183 40.9264L26.1258 40.8301L25.8858 40.8289L25.7896 40.7314V40.4914L25.5971 40.1551L24.6846 39.7652L24.3959 39.7639L24.0597 39.5702L23.6747 39.1839V38.5602L23.5784 38.1277L23.0985 37.884L22.8097 37.4503L21.9923 37.1103L21.271 37.0103L20.7911 36.6228L20.7423 36.3341L20.9348 35.8066L20.9836 35.1341L20.7436 34.6054L20.4073 34.5067L20.2148 34.0729L20.3111 33.8817L20.5511 33.9304L20.5998 33.8354L20.5036 33.2092L20.6486 33.018V32.633L20.3598 32.2955V32.1518L20.5998 32.1043L20.7448 31.7205L20.8411 31.8655L21.0811 31.8668L21.1298 31.6743L21.0336 31.2418L21.1773 31.1456L21.2735 30.9543L21.706 30.7168L22.476 30.5281L22.6685 30.9143L23.0047 30.9156L23.101 30.7243L23.0535 30.5793L23.4372 30.5331V30.3893L23.8222 30.4393L23.9184 30.3443L24.0147 29.9119L24.3997 29.7219L24.8796 29.7719L25.1209 29.4844L24.7846 29.4344L24.6884 29.3381L24.7846 29.0019L24.6409 28.7607L24.4959 28.7594V28.6632L24.7846 28.5694L24.9771 28.1857L25.3621 28.4282H25.5059L25.9871 28.7682L26.4671 28.9632L27.3808 28.9207L27.6208 28.7769L27.8132 28.3932L28.102 28.7794L28.5832 28.8307L28.7757 28.9757L29.1594 28.7857L29.4969 28.7882L29.7844 28.8857L30.1694 28.8394L30.4581 28.4569L29.8332 28.1644L29.5457 27.7295V27.3445L29.7857 26.9133L29.9306 26.2395L29.6419 26.0933L29.4019 26.092L29.3057 25.8508L29.1607 25.9458L28.8244 25.6558L28.9207 25.3196L28.6807 25.0771V24.7396L28.7295 24.6921L28.9207 24.7896L29.7382 25.4196L29.8819 25.4208L30.0269 25.0846L30.2194 24.9408L30.2669 24.6521L30.5081 24.3171V23.9309L30.6531 23.2584Z" fill="#143772"/>
<path d="M15.8869 26.0151L16.0344 25.9651L15.9844 25.5827L16.2244 25.5352L16.1756 25.7764L16.8006 26.2614V26.5014L16.8969 26.5026L17.0419 26.2626L17.2331 26.2639L17.4256 26.4089L17.7143 26.4101L18.388 26.0776L18.5805 25.8376L18.868 25.8876L19.063 25.5989L19.2055 25.5527L19.783 26.1364H20.3592L20.7429 26.4764L21.0317 26.4289L21.2729 25.9489L22.0416 26.2426V26.8201L22.2341 27.0138L22.2816 27.5913L22.3779 27.6888L22.6178 27.6901L22.9066 27.8363L23.2428 27.8375L23.8678 28.2263L24.2528 28.2288L24.589 28.1338L24.974 28.185L24.7815 28.5688L24.4928 28.6625V28.7588L24.6378 28.76L24.7815 29.0012L24.6853 29.3375L24.7815 29.4337L25.1177 29.4837L24.8765 29.7712L24.3965 29.7212L24.0115 29.9112L23.9153 30.3437L23.819 30.4387L23.4341 30.3887V30.5324L23.0503 30.5787L23.0978 30.7237L23.0016 30.9149L22.6653 30.9137L22.4729 30.5274L21.7029 30.7162L21.2704 30.9537L21.1742 31.1449L21.0304 31.2411L21.1267 31.6736L21.0779 31.8661L20.8379 31.8649L20.7417 31.7199L20.5967 32.1036L20.3567 32.1511V32.2948L20.6454 32.6323V33.0173L20.5004 33.2086L20.5967 33.8348L20.5479 33.9298L20.308 33.881L20.2117 34.0723L20.4042 34.506L20.7404 34.6047L20.9804 35.1335L20.9317 35.8059L20.7392 36.3334L20.7879 36.6221L20.4029 36.5234L20.018 36.6659L19.3455 36.4222L18.913 36.4197L18.5755 36.5621L18.4318 36.4647L18.288 36.0797L18.1918 36.0309L17.8543 35.7884L17.2293 35.5934L16.6531 35.1572L16.3644 35.156L15.3557 34.381L15.3069 33.8048L14.9707 33.3223L14.3457 33.0298L14.1057 33.0773L13.8657 32.9786L13.7695 32.7386L13.2408 32.3511L13.1445 31.8699L13.817 32.0174L14.5382 31.8774L14.4907 31.1074L14.587 30.4837L14.492 29.8087L14.5395 29.7125L14.8757 29.5712L15.0207 29.3312V28.8975L14.877 28.4163V27.5501L15.1657 26.9738L15.8869 26.2076V26.0151Z" fill="#143772"/>
<path d="M49.3936 49.0136L49.6336 48.8711L49.9223 48.9211L49.9698 49.1123L50.4035 49.6898L50.7873 50.4585L50.931 50.5548L51.4597 50.6535L51.7972 50.5598L52.181 50.5623L52.8059 51.1397L52.9984 51.0935L53.2872 50.8548L53.7684 50.8585L53.9121 50.9547L54.1534 50.956L54.4409 50.5748L54.7783 50.5285L54.9696 50.2898L54.9708 50.0035L54.8746 49.906L54.9221 49.7636L55.2583 49.861L55.4508 50.006L55.7883 50.0073L56.0283 50.1998L56.2208 50.201L56.7495 49.8698L57.0857 49.9185L57.4232 49.8248V49.9685L57.6145 50.161L57.6632 50.4973L58.0469 50.9772L58.1432 51.266L58.2394 51.3147L58.3844 51.1235L58.5757 51.1247L58.6719 51.221V51.3172L58.5757 51.316L58.6244 52.0347L58.7194 52.1784L59.2006 52.1809L59.2969 52.5647L59.4406 52.7097L59.3931 53.1396L59.5369 53.5234L59.9218 53.2859L60.0181 53.0959L60.4031 52.9059L60.6431 52.3809V52.1409L61.2205 51.7135L61.5093 51.811L62.0793 51.6297L62.5992 51.671L62.8567 51.5022L63.5004 51.3672L63.6942 50.961H64.1767L65.3091 51.3685L64.7779 52.0209L64.8741 52.3097L65.1141 52.1184L65.2116 52.1672L65.2104 52.4072L65.0179 52.9322L65.2591 53.2209V53.3646L64.8254 54.0796L64.5854 54.7008L64.2966 54.8421L64.2004 55.0333L64.5366 55.2258L64.7766 55.8495L65.5941 56.332L66.844 56.4357L66.7965 56.9132L66.604 56.912L66.5553 57.0082L66.5578 58.2444L66.0316 58.0957L65.6278 57.7669L65.4566 57.4857L64.8216 57.047L64.0817 57.0157L63.7604 57.2745L63.9329 58.1819L63.8129 58.3544L63.6629 58.3619L62.7817 58.0807L62.483 57.5957L62.4305 57.0632L61.9755 56.8357L61.5568 56.812L60.9668 56.617L59.6744 56.5157L58.8081 56.562L58.4344 56.4295L57.127 56.4832L57.0895 56.1883L57.3207 55.7558V55.532L56.9245 55.272L55.9683 55.462L55.5571 55.6345L55.2596 55.2383L54.9796 55.0996L54.8971 54.7371L54.7496 54.5121L54.4534 54.3908L54.2384 54.5471L54.0896 54.8921V55.2033L53.7446 55.3933L53.9084 55.687L54.5346 56.1358L54.6996 56.3607L54.7158 57.052L54.4196 57.362L54.3984 57.6419L54.0571 57.7832L53.6821 57.6969L53.8134 57.2707L53.6209 57.1257L53.5734 56.8395L53.4296 56.8857L53.5259 56.5045L53.4771 56.3607L53.0922 56.7882L52.8522 56.7395L52.6597 56.4507L52.4197 56.4495L52.2272 56.592V56.7832L52.0835 56.8307L52.131 56.3045L51.7472 56.302L51.6985 56.1583V56.0633L52.0835 56.0658L52.1797 55.9708L51.9872 55.682L51.9397 55.347L51.6022 55.1058L51.4585 54.8183L51.3147 54.8646V55.0558L50.9298 55.1021L50.641 55.0521L50.5448 54.8608L50.5935 54.6696L50.4973 54.2383L50.3535 54.0934V53.8546L50.161 53.8059L49.8723 53.2784L49.8248 52.8947L49.5836 52.7022L49.6811 51.936L49.8736 51.8897L50.0173 52.0822H50.1135L50.161 51.891L50.0173 51.5547L49.6811 51.1697L49.7298 50.7873L49.5848 50.5473V50.2123L49.1523 49.5873V49.2998L49.2486 49.1086L49.3936 49.0136Z" fill="#143772"/>
<path d="M23.3981 20.1328L23.6843 20.3253L24.1168 20.4728L25.078 20.574L25.3667 20.7203L25.5592 21.3003L26.1354 21.544L26.6642 21.5477L26.9054 21.404L27.1454 21.4053L27.7216 21.9865L28.2991 22.3277L28.4916 22.329L28.5391 22.5689L28.9716 23.0052L29.164 22.9102L29.404 23.1527L29.5965 23.2014L30.6552 23.2564L30.5102 23.9289V24.3151L30.269 24.6501L30.2215 24.9388L30.029 25.0826L29.884 25.4188L29.7403 25.4176L28.9228 24.7876L28.7316 24.6901L28.6828 24.7376V25.0751L28.9228 25.3176L28.8266 25.6538L29.1628 25.9438L29.3078 25.8488L29.404 26.09L29.644 26.0913L29.9328 26.2375L29.7878 26.9112L29.5478 27.3425V27.7275L29.8353 28.1624L30.4602 28.4549L30.1715 28.8374L29.7865 28.8837L29.499 28.7862L29.1615 28.7837L28.7778 28.9737L28.5853 28.8287L28.1041 28.7774L27.8154 28.3912L27.6229 28.7749L27.3829 28.9187L26.4692 28.9612L25.9892 28.7662L25.508 28.4262H25.3642L24.9792 28.1837L24.5943 28.1324L24.258 28.2274L23.873 28.2249L23.2481 27.8362L22.9118 27.835L22.6231 27.6887L22.3831 27.6875L22.2869 27.59L22.2394 27.0125L22.0469 26.8188V26.2413L22.2406 25.8563L22.4319 25.7138V25.4726L22.5281 25.2813L22.4806 24.6526L22.1444 23.8826L22.2406 23.5939L22.6743 23.6951L22.8168 23.5489L22.9131 23.6951H23.0106V22.9214L22.7706 22.3427V22.1502L22.8681 22.0065V21.5715L23.1068 21.3328L23.3981 20.1328Z" fill="#143772"/>
</svg>
