<svg width="100" height="100" viewBox="0 0 100 100" fill="none" xmlns="http://www.w3.org/2000/svg">
<path d="M87.6037 37.566C87.1296 38.6956 87.0672 39.8184 87.4165 40.9347C87.7733 42.0825 88.5893 43.0681 89.3229 44.0388C90.2661 45.2814 90.7152 46.7885 90.3559 48.3331C89.8693 50.4191 88.4246 51.6019 86.5781 52.4453C84.7391 53.2837 83.4066 54.7734 83.1771 56.822C83.0024 58.3715 83.7036 59.8911 83.6561 61.4706C83.5938 63.5093 82.174 65.3682 80.2227 66.0619C78.471 66.6833 76.5546 66.2091 74.8429 66.9253C73.1943 67.614 72.1239 68.83 71.6315 70.5734C71.3146 71.6937 71.0775 72.9613 70.3489 73.8995C69.0331 75.598 67.2706 76.3016 65.0615 76.0105C63.8113 75.8458 62.4789 75.0299 61.2437 74.7255C59.6467 74.3345 58.1454 74.6406 56.7398 75.6437C55.5969 76.4622 54.8359 77.7897 53.6781 78.6455C51.6769 80.1277 48.5977 79.9406 46.7637 78.1889C46.3096 77.7564 45.8687 77.2856 45.4412 76.7766C43.8143 74.8403 41.2192 74.169 38.8737 75.1846C38.2166 75.4691 37.5595 75.7311 36.9024 75.9706C34.2749 76.9338 31.3779 75.8933 30.1178 73.3805C29.5863 72.32 29.494 71.0949 28.9825 70.0419C28.1324 68.2968 26.7767 67.2879 24.9152 67.0151C24.2066 66.912 23.4222 66.8496 22.5622 66.828C20.704 66.7847 19.2668 66.1293 18.2504 64.8617C17.1574 63.5018 16.9204 61.9971 17.2523 60.2879C17.4294 59.3796 17.664 58.3141 17.5567 57.4059C17.3487 55.6858 16.4505 54.3575 14.8618 53.4209C13.7714 52.7797 12.5936 52.338 11.6629 51.4397C9.84882 49.688 9.58932 46.9183 11.054 44.8447C11.4716 44.2542 11.8658 43.6994 12.2368 43.1804C13.6142 41.259 13.6366 39.2578 12.3042 37.1768C11.6629 36.1762 10.7371 35.3278 10.3279 34.185C9.35726 31.4701 10.6124 28.8726 13.1575 27.6274C15.0914 26.6817 16.6858 25.5913 17.1949 23.4129C17.634 21.5265 16.5636 19.675 16.8331 17.7786C17.2123 15.1112 19.3558 13.4094 21.9982 13.2497C22.6004 13.2131 23.2251 13.1732 23.8722 13.13C25.6838 13.0127 27.2907 12.0869 28.2239 10.5224C28.8927 9.40703 29.0973 7.98972 29.5714 6.77453C30.4048 4.64108 32.5382 3.4733 34.8064 3.5781C36.5481 3.66045 38.0228 4.79579 39.7595 5.02535C42.1999 5.34475 43.9715 4.18695 45.4288 2.35543C47.8417 -0.676316 51.7118 -0.786108 54.2695 2.0535C54.9207 2.77712 55.6843 3.6854 56.5027 4.16199C58.1413 5.11352 59.848 5.21583 61.623 4.46891C62.2052 4.22438 62.8024 3.98317 63.4146 3.74529C64.9001 3.16971 66.3449 3.19134 67.7489 3.81016C69.8873 4.75337 70.5161 6.35283 71.0676 8.41891C71.6781 10.7012 73.0446 12.0961 75.1673 12.6035C76.113 12.8305 77.1984 12.7906 78.2215 12.833C80.2002 12.9104 81.8945 13.9734 82.8127 15.6951C83.6462 17.2546 83.3517 18.8391 83.0124 20.5259C82.8926 21.1314 82.8602 21.6837 82.9151 22.1828C83.2195 24.8652 84.8938 26.018 87.0996 27.066C89.0642 27.9992 90.1388 29.439 90.3235 31.3853C90.4582 32.8093 90.0424 34.1076 89.0759 35.2804C88.3755 36.1288 87.8848 36.8907 87.6037 37.566ZM76.9938 39.8218C76.9938 32.9366 74.1711 26.3334 69.1467 21.4648C64.1223 16.5962 57.3078 13.8611 50.2022 13.8611C43.0966 13.8611 36.2821 16.5962 31.2577 21.4648C26.2332 26.3334 23.4106 32.9366 23.4106 39.8218C23.4106 46.707 26.2332 53.3102 31.2577 58.1787C36.2821 63.0473 43.0966 65.7825 50.2022 65.7825C57.3078 65.7825 64.1223 63.0473 69.1467 58.1787C74.1711 53.3102 76.9938 46.707 76.9938 39.8218Z" fill="#143772"/>
<path d="M41.1264 47.347C41.1048 49.3016 41.0982 51.3918 41.1065 53.6176C41.1115 55.4616 40.5326 56.5121 38.5463 56.5245C37.0908 56.5329 35.6385 56.5329 34.1896 56.5245C32.7124 56.5146 31.6877 55.949 31.1155 54.8278C30.8559 54.3154 30.7304 53.5984 30.7387 52.6768C30.7753 49.1818 30.7778 45.6502 30.7462 42.082C30.7312 40.5848 31.1404 39.3671 32.6201 38.6959C33.1341 38.463 33.99 38.3615 35.1877 38.3915C36.1875 38.4181 37.1648 38.4239 38.1197 38.4089C39.1361 38.3956 39.9503 38.6144 40.5625 39.0652C40.6457 39.1267 40.7064 39.1101 40.7447 39.0153C41.3011 37.613 42.0023 36.7047 43.0678 35.7764C43.7065 35.22 44.278 34.4814 44.7321 33.7777C46.5353 30.9914 48.109 27.8565 49.4531 24.3731C49.5413 24.1435 49.5671 23.8915 49.5305 23.617C49.3982 22.6239 49.3758 20.4056 50.9702 20.5454C55.3095 20.9271 55.3619 25.194 54.2515 28.2832C53.7691 29.6289 53.3931 30.9939 53.1237 32.3779C53.0238 32.8894 52.7544 35.1227 53.8822 34.8632C56.3958 34.2859 58.629 34.0031 60.582 34.0148C61.5967 34.0214 62.5657 34.1362 63.489 34.3591C65.9119 34.943 67.2094 37.0266 65.9268 39.4045C65.8836 39.4827 65.8919 39.5551 65.9518 39.6216C67.5438 41.3833 67.5305 43.1583 65.9119 44.9465C65.8503 45.0147 65.8387 45.0904 65.8769 45.1736C66.727 47.0733 66.3976 48.7044 64.8888 50.0668C64.7391 50.2015 64.5919 50.3355 64.4472 50.4685C64.3823 50.5284 64.3598 50.6016 64.3798 50.6881C64.9038 52.9613 63.5638 54.6107 61.5502 55.4067C58.4311 56.6393 55.1872 56.1652 51.9284 56.1577C50.1501 56.1527 48.3976 56.0937 46.6709 55.9806C42.6286 55.7111 41.4309 50.5359 41.1539 47.347C41.1389 47.154 41.1298 47.154 41.1264 47.347Z" fill="#143772"/>
<path d="M85.1205 87.1006C84.0226 90.0126 82.7924 92.9495 81.6496 95.6544C81.1888 96.7456 80.466 97.3811 79.4812 97.5608C78.9605 97.6539 78.2685 97.6157 77.4051 97.446C74.4707 96.8704 71.7201 96.3605 69.1533 95.9164C67.8383 95.6868 67.227 94.9382 66.5782 93.7804C64.1994 89.5268 61.8206 85.2733 59.4417 81.0197C59.3885 80.9248 59.3844 80.8284 59.4293 80.7302C59.4941 80.5822 59.6014 80.4466 59.7512 80.3235C59.7857 80.295 59.8275 80.2769 59.8716 80.2712C59.9158 80.2654 59.9605 80.2723 60.0007 80.2911C61.0138 80.7635 61.9686 81.1178 62.8652 81.354C65.0561 81.9304 67.5513 81.7583 69.6948 80.9273C72.5793 79.8078 74.6919 77.7725 76.0327 74.8214C76.2091 74.4322 76.481 73.5331 76.8487 72.1241C76.8736 72.0276 76.936 71.9777 77.0358 71.9743L77.6646 71.9494C77.7661 71.9461 77.841 71.9885 77.8892 72.0767C80.2946 76.3635 82.6252 80.5215 84.8809 84.5505C85.36 85.4055 85.4399 86.2556 85.1205 87.1006Z" fill="#143772"/>
<path d="M16.0075 89.4969C15.4411 88.2468 14.7599 87.0865 15.5758 85.7365C17.8299 82.007 20.0756 78.3048 22.313 74.6301C22.3629 74.547 22.4361 74.5062 22.5326 74.5079L23.8825 74.5303C23.9302 74.5308 23.9764 74.5475 24.0139 74.5778C24.0514 74.6081 24.0781 74.6502 24.0897 74.6975C24.8948 78.0578 26.827 80.499 29.8861 82.0211C31.8591 83.0026 33.995 83.3893 36.294 83.1814C37.9658 83.0317 39.4505 82.4727 40.9826 81.8739C40.9942 81.8696 41.0068 81.8681 41.0191 81.8694C41.0315 81.8708 41.0433 81.8751 41.0538 81.8819C41.0642 81.8887 41.0729 81.8978 41.0791 81.9085C41.0854 81.9193 41.0891 81.9313 41.0899 81.9437C41.0932 81.9887 41.0832 82.0302 41.0599 82.0685C38.4998 86.3055 35.953 90.5083 33.4194 94.6771C32.9578 95.4381 32.1269 95.9172 31.2685 96.0594C28.4139 96.5269 25.5203 97.0159 22.5875 97.5266C20.7086 97.856 19.3861 97.1923 18.63 95.4381C17.7833 93.4702 16.9091 91.4898 16.0075 89.4969Z" fill="#143772"/>
</svg>
