<svg width="100" height="100" viewBox="0 0 100 100" fill="none" xmlns="http://www.w3.org/2000/svg">
<path d="M58.2033 85.611C59.2912 89.3221 56.2153 93.1311 52.1955 92.1641C50.2177 91.6857 49.4642 90.5644 48.3608 88.9904C48.3338 88.9513 48.2924 88.9245 48.2456 88.9158C48.1989 88.9071 48.1506 88.9173 48.1114 88.9441C43.9578 91.732 38.6058 89.4662 37.7313 84.6311C37.709 84.5093 37.6473 84.4845 37.5462 84.5565C37.0292 84.9371 36.4814 85.3795 35.913 85.6521C32.7445 87.1695 29.0616 86.5934 26.6569 84.0035C25.1515 82.3833 24.4888 80.5049 24.6688 78.3686C24.671 78.3422 24.6676 78.3157 24.659 78.2906C24.6505 78.2656 24.6368 78.2426 24.619 78.2231C24.6011 78.2035 24.5794 78.1879 24.5553 78.1771C24.5311 78.1663 24.505 78.1605 24.4785 78.1603C23.8647 78.1517 23.2243 78.1157 22.5573 78.0523C18.5247 77.6793 15.7316 74.7963 15.7008 70.7585C15.7006 70.7442 15.6974 70.7301 15.6912 70.7172C15.685 70.7043 15.6761 70.6929 15.6651 70.6839C15.6541 70.6748 15.6412 70.6682 15.6273 70.6647C15.6135 70.6611 15.5991 70.6607 15.585 70.6633C13.044 71.1365 10.7782 70.5253 8.7876 68.8296C6.66581 67.0241 5.98427 63.9199 6.6941 61.2657C7.33707 58.8585 8.83389 57.4902 10.7602 56.0526C10.7983 56.0243 10.8253 55.9837 10.8366 55.9377C10.8478 55.8916 10.8427 55.8431 10.8219 55.8005C9.10222 52.3799 6.53808 49.7301 3.1295 47.8509C2.5174 47.5131 1.89758 47.1779 1.27005 46.8453C1.18841 46.8019 1.12014 46.737 1.07257 46.6577C1.02499 46.5784 0.999907 46.4877 1 46.3952L1.00257 7.13575C1.00267 7.11297 1.00847 7.09058 1.01944 7.07062C1.03042 7.05067 1.04622 7.03378 1.0654 7.0215C1.08459 7.00922 1.10654 7.00195 1.12926 7.00034C1.15198 6.99873 1.17474 7.00284 1.19546 7.0123C7.17418 9.71447 13.5335 12.631 20.2735 15.7618C21.9401 16.535 23.3203 17.1086 24.4142 17.4823C26.7015 18.2608 29.257 18.2951 32.0809 17.5852C38.2483 16.0318 45.1229 16.3147 50.961 18.2256C51.4771 18.3936 52.012 18.4811 52.5658 18.4879C60.8506 18.5822 68.4771 18.6637 75.4451 18.7323C77.098 18.7494 78.6694 18.3233 80.1593 17.4541C85.5191 14.3301 91.4575 10.8727 97.9746 7.08174C97.9864 7.07484 97.9999 7.07109 98.0136 7.07089C98.0273 7.07069 98.0407 7.07404 98.0525 7.08059C98.0643 7.08714 98.074 7.09666 98.0807 7.10816C98.0873 7.11966 98.0907 7.13274 98.0903 7.14604L98.1032 11.3125C98.1032 11.405 98.0638 11.4745 97.9849 11.5208C92.644 14.679 87.2894 17.8424 81.9211 21.0109C80.3659 21.9282 78.6368 22.4169 76.7336 22.4769C71.0935 22.6518 65.3428 22.4846 59.8802 22.356C59.6744 22.3509 59.6633 22.3963 59.8468 22.4923C61.5442 23.3822 63.1688 24.3938 64.7204 25.5271C66.0064 26.4684 68.051 28.2764 68.1925 29.7707C68.5748 33.7982 69.2152 37.7092 70.1136 41.5035C70.2217 41.9596 70.3562 42.4268 70.5174 42.9052C71.6182 46.1612 68.6888 48.1981 65.8006 47.9075C61.1147 47.4368 58.4554 40.4902 57.2158 36.6427C57.1523 36.4421 57.0597 36.2595 56.938 36.0949C55.4489 34.0837 53.8569 32.2525 51.7686 30.892C51.6777 30.832 51.5885 30.8346 51.5011 30.8997C38.3297 40.5974 25.1815 50.277 12.0564 59.9386C10.4807 61.0994 9.95265 62.5748 10.4722 64.3648C11.164 66.7618 13.8645 67.7442 16.03 66.5663C16.5683 66.2748 17.279 65.7776 18.162 65.0746C18.8942 64.4917 19.6057 63.967 20.2967 63.5007C27.0658 58.9228 33.6429 54.47 40.028 50.1424C42.016 48.7948 44.2536 51.8758 42.1832 53.2852C35.4758 57.8546 28.5798 62.5439 21.4952 67.3533C20.8865 67.7665 20.4296 68.2123 20.1244 68.6907C19.0828 70.3238 19.3399 73.1168 21.364 73.9733C22.7579 74.5631 24.2102 74.5777 25.7207 74.017C26.518 73.7212 26.9655 73.2069 27.6213 72.7362C33.4149 68.5612 39.1879 64.4051 44.9403 60.2678C45.7555 59.6814 46.1387 58.9716 47.3449 59.2597C49.0167 59.6557 49.3227 61.8315 47.9673 62.7986C42.0503 67.0181 36.1325 71.2385 30.2138 75.4598C28.6758 76.5571 28.14 78.0025 28.6064 79.796C29.1645 81.9332 31.4868 83.0905 33.5829 82.3936C34.0904 82.2238 34.7643 81.8337 35.6044 81.2234C40.2406 77.8576 44.7765 74.5605 49.2121 71.332C49.7076 70.9719 50.1277 70.7465 50.4723 70.6556C52.4398 70.1361 53.9135 72.7079 52.1569 74.035C48.9455 76.4611 45.7838 78.8427 42.6719 81.1796C41.139 82.3318 40.9127 84.4408 42.5047 85.701C43.218 86.2651 44.0092 86.4742 44.8785 86.3285C45.5909 86.2102 46.0564 85.7215 46.6608 85.3692C46.6981 85.3479 46.7295 85.3177 46.7524 85.2814C46.7752 85.2451 46.7888 85.2037 46.792 85.1609C46.9926 82.0052 49.5387 79.7214 52.7793 80.2435C52.8606 80.2567 52.9447 80.2393 53.0159 80.1946L54.5179 79.2533C54.6053 79.1984 54.6499 79.1187 54.6516 79.0141C54.6928 76.3325 55.8835 74.5125 58.2239 73.5541C59.5253 73.0191 61.1481 73.1734 62.4315 73.7624C62.5301 73.8078 62.6389 73.8267 62.7471 73.8173C62.8552 73.8079 62.9591 73.7704 63.0484 73.7086C63.1377 73.6469 63.2094 73.5629 63.2563 73.465C63.3033 73.3671 63.3239 73.2586 63.3162 73.1503C63.155 70.8665 63.9232 69.1253 65.6206 67.9268C67.7295 66.4377 69.9156 66.6795 72.0708 67.8574C72.2286 67.9448 72.2646 67.9097 72.1788 67.752C71.9834 67.3987 71.7931 67.0447 71.6079 66.6898C70.8646 65.2675 70.9315 63.3746 71.541 61.9884C72.4326 59.9686 73.8848 58.7839 75.8977 58.4341C77.6749 58.1255 79.4752 58.627 80.8743 59.8023C80.888 59.814 80.9038 59.8229 80.9209 59.8285C80.938 59.8341 80.956 59.8362 80.974 59.8348C80.9919 59.8333 81.0094 59.8284 81.0254 59.8202C81.0414 59.8119 81.0556 59.8006 81.0672 59.7869C83.6408 56.7195 86.1706 53.8099 88.6568 51.058C89.2157 50.439 90.0601 49.6983 91.19 48.8359C93.299 47.2234 95.6316 46.0146 97.9335 44.7312C97.9506 44.7214 97.9699 44.7163 97.9896 44.7165C98.0094 44.7167 98.0288 44.7221 98.0459 44.7322C98.063 44.7424 98.0773 44.7568 98.0874 44.7743C98.0974 44.7917 98.1029 44.8114 98.1032 44.8315L98.0878 49.268C98.0878 49.3777 98.0398 49.4592 97.9437 49.5123C96.9956 50.0284 96.0749 50.5479 95.1816 51.0709C92.4322 52.6834 90.3465 54.6766 88.2247 57.2048C86.5838 59.1594 84.9576 61.0514 83.3459 62.8808C83.2721 62.9666 83.267 63.0566 83.3304 63.1509C84.3875 64.7172 85.6811 66.3143 86.5093 67.8908C87.3031 69.4014 87.3623 71.0054 86.6867 72.7028C85.7797 74.9763 84.0874 76.2082 81.6099 76.3985C80.0642 76.5194 78.5828 76.0153 77.3869 75.002C77.3807 74.9938 77.3716 74.9884 77.3615 74.987C77.3513 74.9855 77.341 74.9882 77.3329 74.9943C77.3247 75.0004 77.3193 75.0096 77.3178 75.0197C77.3164 75.0298 77.319 75.0401 77.3251 75.0483C78.8605 78.456 76.7465 82.3215 73.115 82.8539C71.3481 83.1111 69.5838 82.5633 68.3442 81.2774C68.2293 81.1573 68.1865 81.1796 68.2156 81.3442C69.3601 87.5604 61.9891 90.5618 58.2856 85.5698C58.1828 85.4309 58.1553 85.4446 58.2033 85.611Z" fill="#143772"/>
</svg>
