<svg width="384" height="512" viewBox="0 0 384 512" fill="none" xmlns="http://www.w3.org/2000/svg">
<path d="M384 192C384 279.4 267 435 215.7 499.2C203.4 514.5 180.6 514.5 168.3 499.2C117 435 0 279.4 0 192C0 86 86 0 192 0C298 0 384 86 384 192Z" fill="#1CA5DF"/>
<circle cx="191.501" cy="182.501" r="158.36" fill="white"/>
<g clip-path="url(#clip0_1903_1783)">
<path d="M188.031 64H195.2L195.764 83.3116C195.775 83.7311 195.95 84.1298 196.25 84.4226C196.551 84.7154 196.954 84.8792 197.374 84.8791L224.941 84.9C226.049 84.9 227.113 85.3404 227.896 86.1243C228.68 86.9082 229.121 87.9714 229.121 89.08V108.935C229.121 109.632 229.469 109.98 230.166 109.98H250.021C251.129 109.98 252.193 110.42 252.976 111.204C253.76 111.988 254.201 113.051 254.201 114.16V137.735C254.2 137.84 254.175 137.944 254.125 138.037C254.076 138.13 254.005 138.21 253.917 138.272C253.83 138.333 253.728 138.373 253.622 138.388C253.515 138.404 253.405 138.395 253.302 138.362L195.305 118.883C192.958 118.096 190.419 118.096 188.073 118.883L130.034 138.237C129.212 138.515 128.801 138.216 128.801 137.338V114.16C128.801 113.051 129.241 111.988 130.025 111.204C130.809 110.42 131.872 109.98 132.981 109.98H152.836C153.113 109.98 153.379 109.87 153.575 109.674C153.771 109.478 153.881 109.212 153.881 108.935V89.08C153.881 87.9714 154.321 86.9082 155.105 86.1243C155.889 85.3404 156.952 84.9 158.061 84.9H185.293C185.795 84.9005 186.277 84.7072 186.639 84.3606C187.001 84.0139 187.216 83.5408 187.237 83.0399L188.031 64Z" fill="#1CA5DF"/>
<path d="M117.14 233.98C117.064 234.024 116.978 234.049 116.89 234.052C116.802 234.054 116.716 234.034 116.639 233.994C116.563 233.954 116.5 233.894 116.455 233.822C116.411 233.75 116.388 233.667 116.387 233.583C116.136 226.532 116.143 219.183 116.408 211.533C116.506 209.039 116.122 206.852 115.259 204.971C111.12 195.998 106.773 186.892 102.217 177.654C96.8456 166.807 100.022 156.754 111.935 152.867C137.545 144.535 163.398 135.959 189.495 127.139C190.624 126.763 191.753 126.756 192.881 127.118C215.091 134.224 240.826 142.751 270.086 152.7C281.434 156.545 286.388 165.114 280.912 176.588C276.411 186.021 272.113 195.238 268.017 204.239C267.027 206.427 266.561 208.802 266.616 211.366C266.797 218.918 266.832 225.78 266.721 231.953C266.693 232.928 266.226 233.234 265.321 232.872C261.712 231.479 258.326 231.792 255.163 233.813C243.933 240.988 232.751 241.009 221.619 233.875C217.48 231.221 212.799 231.576 208.807 234.043C197.66 240.981 186.59 240.926 175.597 233.875C167.32 228.588 162.702 235.401 155.742 237.616C148.448 239.936 138.667 239.79 132.062 235.255C127.381 232.036 122.365 230.594 117.14 233.98ZM155.951 189.358C157.592 189.358 159.165 188.262 160.325 186.31C161.485 184.358 162.137 181.711 162.137 178.95C162.137 176.19 161.485 173.542 160.325 171.59C159.165 169.639 157.592 168.542 155.951 168.542C154.31 168.542 152.737 169.639 151.576 171.59C150.416 173.542 149.764 176.19 149.764 178.95C149.764 181.711 150.416 184.358 151.576 186.31C152.737 188.262 154.31 189.358 155.951 189.358ZM227.011 189.358C227.823 189.358 228.628 189.089 229.378 188.566C230.129 188.043 230.811 187.276 231.385 186.31C231.96 185.343 232.415 184.196 232.726 182.933C233.037 181.67 233.197 180.317 233.197 178.95C233.197 177.583 233.037 176.23 232.726 174.967C232.415 173.704 231.96 172.557 231.385 171.59C230.811 170.624 230.129 169.857 229.378 169.334C228.628 168.811 227.823 168.542 227.011 168.542C225.37 168.542 223.797 169.639 222.636 171.59C221.476 173.542 220.824 176.19 220.824 178.95C220.824 181.711 221.476 184.358 222.636 186.31C223.797 188.262 225.37 189.358 227.011 189.358Z" fill="#1CA5DF"/>
<path d="M295.999 249.153V252.768C285.173 257.52 273.97 256.698 262.392 250.302C261.793 249.968 261.18 249.961 260.553 250.281C245.588 257.819 230.875 257.826 216.412 250.302C215.771 249.982 215.13 249.982 214.489 250.302C199.413 257.743 184.637 257.722 170.16 250.239C169.631 249.961 169.094 249.961 168.551 250.239C153.795 257.722 139.033 257.743 124.264 250.302C123.553 249.94 122.849 249.954 122.153 250.344C113.653 254.998 103.893 256.698 92.8719 255.444C90.3778 255.165 88.9984 253.778 88.7337 251.284C88.6919 250.978 88.7197 250.685 88.8173 250.407C89.1347 249.387 89.7925 248.508 90.6797 247.918C91.5668 247.328 92.629 247.063 93.687 247.167C105.043 248.31 114.364 246.199 121.651 240.834C122.069 240.521 122.573 240.341 123.095 240.319C123.617 240.296 124.134 240.432 124.577 240.709C138.984 249.71 153.356 249.814 167.694 241.023C168.223 240.701 168.829 240.531 169.445 240.531C170.061 240.531 170.663 240.701 171.184 241.023C185.271 249.759 199.476 249.724 213.799 240.918C214.263 240.629 214.799 240.476 215.346 240.476C215.893 240.476 216.428 240.629 216.892 240.918C231.174 249.752 245.428 249.773 259.654 240.981C260.213 240.632 260.865 240.457 261.53 240.475C262.194 240.494 262.842 240.706 263.395 241.085C272.062 246.993 281.543 248.728 291.84 246.289C293.442 245.913 294.829 246.868 295.999 249.153Z" fill="#1CA5DF"/>
<path d="M296 265.894V268.736C288.016 276.594 270.21 271.035 261.996 266.333C261.425 266.012 260.853 266.012 260.282 266.333C245.499 274.609 230.771 274.602 216.1 266.312C215.514 265.977 214.929 265.977 214.344 266.312C199.533 274.616 184.77 274.602 170.057 266.27C169.5 265.963 168.942 265.963 168.385 266.27C153.727 274.616 139.034 274.658 124.307 266.395C123.568 265.977 122.83 265.984 122.091 266.416C112.993 271.753 102.884 273.613 91.7654 271.996C91.2421 271.92 90.745 271.718 90.3158 271.409C89.8866 271.1 89.538 270.692 89.2993 270.22C88.6444 268.91 88.5399 267.719 88.9858 266.646C89.7939 264.709 91.2429 263.818 93.3329 263.971C103.532 264.744 112.958 263.595 121.443 257.638C121.938 257.291 122.525 257.098 123.131 257.083C123.737 257.068 124.335 257.232 124.85 257.555C138.992 266.43 153.351 266.444 167.925 257.596C168.377 257.319 168.898 257.174 169.43 257.178C169.961 257.181 170.483 257.334 170.935 257.617C185.049 266.423 199.331 266.43 213.78 257.638C214.265 257.342 214.82 257.186 215.385 257.186C215.949 257.186 216.501 257.342 216.977 257.638C231.12 266.416 245.311 266.451 259.551 257.743C260.125 257.392 260.789 257.212 261.466 257.223C262.142 257.234 262.804 257.436 263.375 257.805C271.798 263.218 281.078 265.538 290.629 263.135C292.928 262.564 294.718 263.483 296 265.894Z" fill="#1CA5DF"/>
</g>
<defs>
<clipPath id="clip0_1903_1783">
<rect width="209" height="209" fill="white" transform="translate(87 64)"/>
</clipPath>
</defs>
</svg>
