<svg width="100" height="100" viewBox="0 0 100 100" fill="none" xmlns="http://www.w3.org/2000/svg">
<path d="M65.0444 5.82738H15.972C15.9344 5.82738 15.8983 5.84233 15.8717 5.86893C15.8451 5.89553 15.8302 5.93162 15.8302 5.96924L15.8274 93.7944C15.8274 93.8131 15.8311 93.8315 15.8382 93.8487C15.8453 93.8659 15.8558 93.8816 15.8689 93.8947C15.8821 93.9079 15.8977 93.9184 15.915 93.9255C15.9322 93.9326 15.9506 93.9363 15.9692 93.9363L56.5134 93.9391C56.551 93.9391 56.5871 93.954 56.6137 93.9806C56.6403 94.0072 56.6552 94.0433 56.6552 94.0809L56.683 99.53C56.683 99.5486 56.6794 99.5671 56.6722 99.5843C56.6651 99.6015 56.6547 99.6171 56.6415 99.6303C56.6283 99.6435 56.6127 99.6539 56.5955 99.6611C56.5782 99.6682 56.5598 99.6719 56.5412 99.6719H10.1419C10.1232 99.6719 10.1048 99.6682 10.0876 99.6611C10.0704 99.6539 10.0547 99.6435 10.0415 99.6303C10.0284 99.6171 10.0179 99.6015 10.0108 99.5843C10.0037 99.5671 10 99.5486 10 99.53L10.0111 0.161331C10.0111 0.123708 10.0261 0.0876247 10.0527 0.0610208C10.0793 0.0344169 10.1154 0.0194709 10.153 0.0194709L71.6729 0C71.7105 9.20815e-05 71.7465 0.0150988 71.773 0.0417239L88.9436 17.204C88.9703 17.2305 88.9853 17.2665 88.9854 17.3041L88.977 39.0448C88.977 39.0825 88.9621 39.1186 88.9355 39.1452C88.9089 39.1718 88.8728 39.1867 88.8351 39.1867L83.297 39.2006C83.2594 39.2006 83.2234 39.1857 83.1967 39.1591C83.1701 39.1325 83.1552 39.0964 83.1552 39.0588L83.1719 23.9604C83.1719 23.9228 83.1569 23.8867 83.1303 23.8601C83.1037 23.8335 83.0676 23.8186 83.03 23.8186L65.3281 23.8158C65.2905 23.8158 65.2544 23.8008 65.2278 23.7742C65.2012 23.7476 65.1863 23.7115 65.1863 23.6739V5.96924C65.1863 5.93162 65.1713 5.89553 65.1447 5.86893C65.1181 5.84233 65.082 5.82738 65.0444 5.82738ZM83.5696 19.0259C83.587 19.0258 83.6039 19.0206 83.6183 19.011C83.6328 19.0014 83.6441 18.9877 83.6509 18.9718C83.6577 18.9558 83.6597 18.9382 83.6566 18.9212C83.6535 18.9041 83.6455 18.8883 83.6336 18.8757L70.0206 5.26272C70.008 5.2508 69.9922 5.24282 69.9752 5.23975C69.9581 5.23669 69.9405 5.23867 69.9246 5.24547C69.9086 5.25226 69.895 5.26357 69.8854 5.278C69.8758 5.29243 69.8706 5.30936 69.8704 5.3267L69.8676 18.9397C69.8676 18.9514 69.87 18.963 69.8744 18.9737C69.8789 18.9845 69.8855 18.9944 69.8937 19.0026C69.902 19.0109 69.9118 19.0174 69.9226 19.0219C69.9334 19.0264 69.945 19.0287 69.9567 19.0287L83.5696 19.0259Z" fill="#143772"/>
<path d="M52.4748 27.4453H25.6104C25.4998 27.4453 25.4102 27.535 25.4102 27.6456V33.6426C25.4102 33.7533 25.4998 33.8429 25.6104 33.8429H52.4748C52.5854 33.8429 52.6751 33.7533 52.6751 33.6426V27.6456C52.6751 27.535 52.5854 27.4453 52.4748 27.4453Z" fill="#143772"/>
<path d="M68.524 84.8961L68.5185 73.5557C68.5185 73.4388 68.461 73.3693 68.346 73.3471C61.3031 72.0008 54.6663 68.254 54.7747 60.0985C54.8359 55.4885 56.656 51.8187 60.235 49.089C62.5474 47.3255 65.251 46.1164 68.346 45.4619C68.461 45.4377 68.5185 45.3673 68.5185 45.2504V39.4704C68.5185 39.3702 68.5685 39.3192 68.6687 39.3174L75.1859 39.2617C75.2128 39.2614 75.2395 39.2663 75.2644 39.2762C75.2894 39.2861 75.3121 39.3008 75.3313 39.3194C75.3504 39.338 75.3656 39.3602 75.376 39.3847C75.3864 39.4092 75.3917 39.4355 75.3917 39.462L75.3834 45.1225C75.3834 45.243 75.4409 45.3154 75.5558 45.3395C79.628 46.1795 82.7916 48.1516 85.0465 51.2559C87.1067 54.0893 88.4206 57.2585 88.988 60.7632C89.1011 61.4623 89.1642 62.155 89.1772 62.8411C89.1809 62.9412 89.1327 62.9959 89.0325 63.0052L82.4931 63.5977C82.4712 63.5999 82.4491 63.5977 82.4282 63.591C82.4072 63.5843 82.3878 63.5733 82.3711 63.5587C82.3545 63.5441 82.3409 63.5262 82.3313 63.5062C82.3216 63.4861 82.3161 63.4642 82.315 63.4419C82.1426 58.9385 80.0147 53.9289 75.4807 52.4213C75.4707 52.4182 75.46 52.4175 75.4497 52.4191C75.4393 52.4207 75.4295 52.4247 75.4211 52.4306C75.4127 52.4366 75.4059 52.4444 75.4013 52.4534C75.3966 52.4624 75.3943 52.4724 75.3945 52.4825L75.3778 67.083C75.3778 67.2016 75.4362 67.2684 75.553 67.2832C81.055 68.0565 89.0659 70.5071 89.0881 77.436C89.1132 85.8808 83.9283 91.8055 75.5252 92.7986C75.4307 92.8097 75.3834 92.8625 75.3834 92.9571L75.3889 99.2073C75.3889 99.3779 75.3036 99.4632 75.133 99.4632L68.7132 99.4548C68.6623 99.4548 68.6135 99.4343 68.5775 99.3978C68.5415 99.3613 68.5212 99.3118 68.5212 99.2601L68.5157 92.334C68.5157 92.2302 68.4656 92.1662 68.3655 92.1421C61.8205 90.6206 56.9138 86.6346 55.3088 79.9394C54.9824 78.5875 54.8443 77.2422 54.8944 75.9033C54.8981 75.8069 54.9481 75.7596 55.0446 75.7615L61.584 75.8588C61.7027 75.8607 61.7648 75.92 61.7704 76.0368C61.7954 76.4763 61.7454 76.9436 61.7815 77.3942C62.0875 81.1021 64.8051 83.8252 68.3099 85.0491C68.4526 85.0973 68.524 85.0463 68.524 84.8961ZM68.3683 52.6272C64.3906 53.8399 61.5061 56.3016 61.6842 60.6937C61.7509 62.3237 62.4417 63.5893 63.7564 64.4905C65.0063 65.3473 66.5278 65.9694 68.321 66.357C68.4545 66.3848 68.5212 66.331 68.5212 66.1956V52.7412C68.5211 52.7227 68.5167 52.7045 68.5084 52.688C68.5 52.6715 68.488 52.6572 68.4731 52.6461C68.4583 52.6351 68.4411 52.6276 68.4229 52.6243C68.4047 52.621 68.386 52.622 68.3683 52.6272ZM82.2427 77.8115C82.3373 75.6641 77.0634 74.5209 75.5113 74.2399C75.4297 74.2251 75.3889 74.2594 75.3889 74.3429L75.3806 85.8391C75.3804 85.853 75.3832 85.8667 75.3889 85.8794C75.3945 85.892 75.4029 85.9031 75.4134 85.912C75.4238 85.9208 75.436 85.9271 75.4492 85.9304C75.4623 85.9337 75.4759 85.9338 75.4891 85.9309C76.8965 85.6471 78.3457 85.1492 79.4695 84.2703C81.4027 82.7543 82.1315 80.2732 82.2427 77.8115Z" fill="#143772"/>
<path d="M47.7545 44.4141H25.5965C25.4936 44.4141 25.4102 44.4975 25.4102 44.6004V50.3471C25.4102 50.4501 25.4936 50.5335 25.5965 50.5335H47.7545C47.8574 50.5335 47.9408 50.4501 47.9408 50.3471V44.6004C47.9408 44.4975 47.8574 44.4141 47.7545 44.4141Z" fill="#143772"/>
<path d="M44.9618 59.9922H25.6076C25.4986 59.9922 25.4102 60.0806 25.4102 60.1897V66.1923C25.4102 66.3014 25.4986 66.3898 25.6076 66.3898H44.9618C45.0709 66.3898 45.1593 66.3014 45.1593 66.1923V60.1897C45.1593 60.0806 45.0709 59.9922 44.9618 59.9922Z" fill="#143772"/>
<path d="M41.0787 76.125H25.5965C25.4936 76.125 25.4102 76.2084 25.4102 76.3114V82.3362C25.4102 82.4392 25.4936 82.5226 25.5965 82.5226H41.0787C41.1816 82.5226 41.2651 82.4392 41.2651 82.3362V76.3114C41.2651 76.2084 41.1816 76.125 41.0787 76.125Z" fill="#143772"/>
</svg>
