<svg width="40" height="40" viewBox="0 0 40 40" fill="none" xmlns="http://www.w3.org/2000/svg">
<path d="M7.22928 6.67081L6.70844 6.53748C6.48719 6.4799 6.28829 6.35698 6.13749 6.18463C5.98668 6.01228 5.89093 5.79845 5.86261 5.57081C5.71677 4.37081 6.73761 4.16248 7.74178 4.16248C16.0084 4.16525 24.3654 4.16664 32.8126 4.16664C33.9834 4.16664 34.5293 5.31248 33.8334 6.25414C33.7251 6.39859 33.5807 6.4847 33.4001 6.51248C33.1557 6.54859 32.9251 6.62359 32.7084 6.73748C32.5696 6.8097 32.5001 6.92359 32.5001 7.07914V22.1875C32.5002 22.2798 32.5303 22.3696 32.5859 22.4432C32.6416 22.5169 32.7197 22.5705 32.8084 22.5958C34.1626 22.9791 35.0126 24.2083 35.0043 25.6C34.9959 27.9916 34.9987 30.325 35.0126 32.6C35.0209 34.0333 34.3751 35.175 32.9793 35.6791C30.8709 36.4416 30.0543 33.8916 31.6918 33.4333C31.9001 33.3778 32.1015 33.3055 32.2959 33.2166C32.4404 33.1528 32.5126 33.0416 32.5126 32.8833V25.4125C32.5128 25.3569 32.5014 25.3018 32.4793 25.2508C32.4572 25.1997 32.4248 25.1538 32.3841 25.1159C32.3434 25.0779 32.2954 25.0488 32.2429 25.0303C32.1905 25.0118 32.1348 25.0043 32.0793 25.0083C31.0959 25.075 30.0293 24.9166 30.0251 23.6458C30.0029 18.1903 30.0015 12.6708 30.0209 7.08748C30.0209 6.97365 29.9757 6.86449 29.8952 6.78401C29.8148 6.70352 29.7056 6.65831 29.5918 6.65831L10.2668 6.65414C10.1961 6.65414 10.1282 6.68224 10.0782 6.73225C10.0282 6.78226 10.0001 6.85008 10.0001 6.92081V15.6875C10.0001 16.3653 9.68205 16.818 9.04594 17.0458C8.93761 17.0875 8.8265 17.1 8.71261 17.0833C7.90428 16.975 7.50011 16.5125 7.50011 15.6958V7.02081C7.50011 6.8347 7.40983 6.71803 7.22928 6.67081Z" fill="white"/>
<path d="M15.0214 10.0145L13.2882 10.0357C12.8556 10.041 12.5092 10.396 12.5145 10.8286L12.5355 12.5534C12.5408 12.986 12.8958 13.3324 13.3284 13.3271L15.0616 13.306C15.4942 13.3007 15.8406 12.9457 15.8353 12.5131L15.8142 10.7882C15.8089 10.3557 15.454 10.0093 15.0214 10.0145Z" fill="white"/>
<path d="M20.9109 10.0302L19.0942 10.0365C18.6846 10.038 18.3537 10.3712 18.3551 10.7808L18.3614 12.5724C18.3628 12.9821 18.696 13.3129 19.1056 13.3115L20.9223 13.3052C21.3319 13.3037 21.6628 12.9705 21.6614 12.5609L21.6551 10.7693C21.6537 10.3597 21.3205 10.0288 20.9109 10.0302Z" fill="white"/>
<path d="M26.7038 9.9846L24.9125 10.0159C24.5029 10.023 24.1767 10.3608 24.1838 10.7704L24.2158 12.6034C24.223 13.013 24.5608 13.3392 24.9703 13.332L26.7617 13.3008C27.1713 13.2936 27.4975 12.9558 27.4903 12.5463L27.4583 10.7132C27.4512 10.3037 27.1134 9.97745 26.7038 9.9846Z" fill="white"/>
<path d="M15.0294 15.8423L13.3462 15.8246C12.8929 15.8199 12.5215 16.1835 12.5168 16.6368L12.4992 18.3201C12.4944 18.7734 12.8581 19.1447 13.3114 19.1495L14.9946 19.1671C15.4479 19.1718 15.8192 18.8082 15.824 18.3549L15.8416 16.6716C15.8464 16.2183 15.4827 15.847 15.0294 15.8423Z" fill="white"/>
<path d="M20.9422 15.8555L19.1173 15.8364C18.7101 15.8321 18.3764 16.1588 18.3722 16.5661L18.353 18.391C18.3488 18.7983 18.6755 19.132 19.0828 19.1362L20.9077 19.1553C21.315 19.1596 21.6486 18.8329 21.6529 18.4256L21.672 16.6007C21.6762 16.1934 21.3495 15.8598 20.9422 15.8555Z" fill="white"/>
<path d="M26.6848 15.8338L24.9433 15.8581C24.52 15.864 24.1816 16.2121 24.1875 16.6354L24.2121 18.4019C24.218 18.8253 24.566 19.1637 24.9894 19.1578L26.7309 19.1335C27.1543 19.1276 27.4927 18.7796 27.4868 18.3562L27.4621 16.5897C27.4562 16.1663 27.1082 15.8279 26.6848 15.8338Z" fill="white"/>
<path d="M15.0034 21.6809L13.3702 21.661C12.9031 21.6553 12.5198 22.0293 12.5141 22.4964L12.4941 24.1296C12.4884 24.5967 12.8625 24.98 13.3296 24.9857L14.9628 25.0057C15.4299 25.0114 15.8132 24.6373 15.8189 24.1702L15.8388 22.537C15.8445 22.0699 15.4705 21.6866 15.0034 21.6809Z" fill="white"/>
<path d="M20.903 21.6854L19.128 21.673C18.6954 21.67 18.3423 22.0182 18.3393 22.4509L18.3274 24.1508C18.3244 24.5834 18.6726 24.9366 19.1052 24.9396L20.8802 24.952C21.3128 24.955 21.666 24.6068 21.669 24.1741L21.6808 22.4742C21.6839 22.0416 21.3356 21.6884 20.903 21.6854Z" fill="white"/>
<path d="M26.6549 21.6484L24.9966 21.66C24.5433 21.6631 24.1783 22.0332 24.1815 22.4865L24.1933 24.1781C24.1965 24.6315 24.5665 24.9964 25.0199 24.9932L26.6782 24.9817C27.1315 24.9785 27.4964 24.6084 27.4932 24.1551L27.4814 22.4635C27.4783 22.0102 27.1082 21.6452 26.6549 21.6484Z" fill="white"/>
<path d="M7.50027 25.4042V32.8125C7.50027 32.9506 7.55514 33.0831 7.65282 33.1808C7.75049 33.2785 7.88297 33.3333 8.0211 33.3333L15.5128 33.3375C15.596 33.3375 15.676 33.3052 15.7352 33.2475C15.7945 33.1898 15.8283 33.1113 15.8294 33.0292L15.8503 28.7042C15.853 27.9014 16.2558 27.4986 17.0586 27.4958L22.7544 27.4917C23.6933 27.4889 24.1628 27.9583 24.1628 28.9L24.1669 32.9167C24.168 33.0275 24.2124 33.1335 24.2904 33.2115C24.3685 33.2896 24.4738 33.3333 24.5836 33.3333H26.1711C26.9072 33.3333 27.3739 33.6875 27.5711 34.3958C27.61 34.5347 27.6058 34.6708 27.5586 34.8042C27.3197 35.4875 26.8378 35.8306 26.1128 35.8333C20.085 35.8361 14.1197 35.8347 8.21694 35.8292C6.30444 35.8292 4.99194 34.6042 4.9961 32.7083C5.00166 30.3 5.00305 27.9139 5.00027 25.55C5.00027 23.5083 6.6711 22.3333 8.65444 22.4875C9.86277 22.5792 10.5628 23.9417 9.50444 24.7292C8.96277 25.1333 8.46277 24.9458 7.85027 25.0125C7.61694 25.0403 7.50027 25.1708 7.50027 25.4042ZM21.6816 30.5304C21.6814 30.4609 21.6676 30.3921 21.6409 30.328C21.6142 30.2638 21.5751 30.2056 21.5259 30.1565C21.4767 30.1075 21.4183 30.0686 21.3541 30.0421C21.2898 30.0156 21.221 30.002 21.1515 30.0022L18.8681 30.0062C18.7278 30.0064 18.5933 30.0624 18.4943 30.1618C18.3952 30.2612 18.3397 30.3959 18.3399 30.5363L18.344 32.8529C18.3441 32.9224 18.3579 32.9912 18.3846 33.0554C18.4113 33.1195 18.4504 33.1778 18.4996 33.2268C18.5488 33.2759 18.6072 33.3148 18.6715 33.3412C18.7357 33.3677 18.8046 33.3813 18.8741 33.3812L21.1574 33.3772C21.2977 33.3769 21.4322 33.3209 21.5313 33.2215C21.6303 33.1221 21.6858 32.9874 21.6856 32.8471L21.6816 30.5304Z" fill="white"/>
<path d="M12.5484 27.5245L10.8486 27.5008C10.3999 27.4945 10.0311 27.8532 10.0248 28.3019L10.0012 29.9934C9.9949 30.4421 10.3536 30.8109 10.8022 30.8171L12.5021 30.8409C12.9508 30.8471 13.3196 30.4885 13.3258 30.0398L13.3495 28.3483C13.3557 27.8996 12.9971 27.5308 12.5484 27.5245Z" fill="white"/>
<path d="M29.1076 27.5135L27.5911 27.495C27.0964 27.489 26.6904 27.8851 26.6844 28.3798L26.6656 29.9131C26.6596 30.4078 27.0557 30.8137 27.5505 30.8198L29.067 30.8383C29.5617 30.8443 29.9677 30.4482 29.9737 29.9535L29.9925 28.4203C29.9985 27.9255 29.6024 27.5196 29.1076 27.5135Z" fill="white"/>
</svg>
