<svg width="40" height="40" viewBox="0 0 40 40" fill="none" xmlns="http://www.w3.org/2000/svg">
<path d="M9.16704 11.8917V15.4125C9.16737 15.4363 9.17279 15.4598 9.18295 15.4813C9.1931 15.5028 9.20775 15.5219 9.22591 15.5373C9.24407 15.5527 9.26532 15.5641 9.28823 15.5706C9.31114 15.5771 9.33517 15.5786 9.35871 15.575C11.3545 15.2792 11.2212 18.3667 9.42121 18.0292C9.25177 17.9986 9.16704 18.0694 9.16704 18.2417V21.6875C9.16704 21.8514 9.24899 21.9333 9.41288 21.9333C11.3545 21.9625 11.1754 24.4625 9.64621 24.4083C9.32677 24.3972 9.16704 24.5514 9.16704 24.8708V27.925C9.16704 28.2194 9.31427 28.3694 9.60871 28.375C11.3212 28.3958 11.1962 30.9167 9.50038 30.8208C9.24204 30.8069 9.13371 30.9264 9.17538 31.1792C9.49621 33.1542 10.9712 34.25 12.9004 34.1792C13.5309 34.1542 14.1448 34.1528 14.742 34.175C14.9532 34.1827 15.1587 34.2465 15.3373 34.36C15.516 34.4735 15.6614 34.6325 15.7587 34.8208C16.2712 35.8167 15.4879 36.7167 14.4545 36.6917C14.0379 36.6833 13.6323 36.6778 13.2379 36.675C9.39621 36.6667 7.1976 34.7917 6.64204 31.05C6.61427 30.8583 6.50454 30.7806 6.31288 30.8167C4.11704 31.2333 3.87121 28.025 6.40454 28.3375C6.57954 28.3569 6.66704 28.2792 6.66704 28.1042V24.6708C6.66704 24.4736 6.56982 24.3931 6.37538 24.4292C4.72954 24.7375 3.79621 22.7875 5.33371 22.0542C5.65871 21.9 6.04621 21.9708 6.39204 21.9583C6.57538 21.95 6.66704 21.8556 6.66704 21.675V18.2292C6.66674 18.1995 6.66012 18.1703 6.64761 18.1434C6.63511 18.1165 6.61701 18.0926 6.59453 18.0733C6.57205 18.054 6.5457 18.0397 6.51725 18.0313C6.4888 18.023 6.4589 18.0208 6.42954 18.025C3.80038 18.4208 4.17954 15.0833 6.34204 15.5708C6.55871 15.6181 6.66704 15.5306 6.66704 15.3083V11.8958C6.66704 11.6875 6.56565 11.6042 6.36288 11.6458C4.10454 12.1042 3.88371 8.825 6.35454 9.19166C6.3922 9.19752 6.43065 9.1956 6.46753 9.18603C6.50441 9.17646 6.53894 9.15944 6.569 9.13601C6.59906 9.11259 6.624 9.08327 6.64229 9.04985C6.66059 9.01642 6.67185 8.9796 6.67538 8.94166C6.99621 5.46666 9.52538 3.28333 12.9545 3.31666C17.2601 3.36389 21.9184 3.35972 26.9295 3.30416C28.6684 3.28472 29.9226 3.4625 30.692 3.8375C32.8448 4.89305 34.0045 6.65278 34.1712 9.11666C34.1872 9.35639 34.1179 9.59405 33.9754 9.7875C33.1462 10.925 31.7629 10.4667 31.6629 9.10416C31.5129 6.97916 30.0504 5.82916 28.0045 5.82916C22.8045 5.83194 17.7476 5.82916 12.8337 5.82083C10.8712 5.81666 9.44204 6.88333 9.17121 8.9C9.14899 9.05555 9.21704 9.14028 9.37538 9.15416C11.6337 9.35416 10.9545 11.9125 9.46704 11.6417C9.26704 11.6056 9.16704 11.6889 9.16704 11.8917Z" fill="white"/>
<path d="M20.2246 16.275C22.8538 15.9083 21.3913 12.8375 19.6329 14.0458C19.1496 14.3792 19.2288 14.9875 19.0496 15.4792C18.9706 15.6972 18.8286 15.8868 18.6417 16.0241C18.4548 16.1613 18.2313 16.2399 17.9996 16.25C16.7371 16.2958 16.4788 15.05 16.7871 14.0708C17.201 12.7458 18.0204 11.8736 19.2454 11.4542C22.6579 10.2833 25.4496 14.1958 23.4788 17.1042C22.801 18.1069 21.8079 18.6528 20.4996 18.7417C18.9288 18.85 18.6329 16.4958 20.2246 16.275Z" fill="white"/>
<path d="M28.1502 34.1667C30.0252 34.1708 31.6502 32.85 31.6543 30.8792C31.6682 25.2069 31.6724 19.5639 31.6668 13.95C31.6641 13.25 32.0043 12.8236 32.6877 12.6708C33.0016 12.5986 33.3335 12.6722 33.6835 12.8917C33.8389 12.9886 33.9669 13.1238 34.0552 13.2842C34.1434 13.4447 34.1891 13.6252 34.1877 13.8083C34.1349 18.9056 34.1405 23.7069 34.2043 28.2125C34.2432 30.7958 34.0446 32.5 33.6085 33.325C32.1168 36.1542 29.7835 36.7708 26.6252 36.7C24.2502 36.6444 22.0502 36.6361 20.0252 36.675C19.203 36.6889 18.7141 36.2917 18.5585 35.4833C18.5335 35.35 18.5488 35.2167 18.6043 35.0833C18.8655 34.4722 19.3293 34.1667 19.996 34.1667C22.771 34.1639 25.4891 34.1639 28.1502 34.1667Z" fill="white"/>
<path d="M16.8832 28.0333C14.7124 27.1125 13.4832 25.1208 14.6041 22.7833C15.4499 21.0208 17.0707 20.3708 18.9582 20.3958C20.1444 20.4125 21.2832 20.4236 22.3749 20.4292C24.8624 20.4417 27.0041 22.5208 26.6041 25.0667C26.3124 26.9167 24.3582 28.0792 22.6541 28.475C20.6235 28.95 18.6999 28.8028 16.8832 28.0333ZM17.5332 25.575C19.2624 26.4292 22.6166 26.6875 24.0416 24.9292C24.117 24.8374 24.1582 24.724 24.1582 24.6083C24.1666 23.5958 23.3666 22.8917 22.3749 22.9042C21.0721 22.9236 19.7596 22.925 18.4374 22.9083C16.9749 22.8875 15.8124 24.7208 17.5332 25.575Z" fill="white"/>
</svg>
