<svg width="40" height="40" viewBox="0 0 40 40" fill="none" xmlns="http://www.w3.org/2000/svg">
<path d="M22.904 3.32031C22.8468 3.32074 22.7897 3.32509 22.7331 3.33333H14.3444C14.1788 3.33099 14.0143 3.36159 13.8606 3.42336C13.7069 3.48513 13.567 3.57683 13.449 3.69313C13.3311 3.80944 13.2374 3.94803 13.1735 4.10085C13.1095 4.25367 13.0766 4.41768 13.0766 4.58333C13.0766 4.74899 13.1095 4.91299 13.1735 5.06582C13.2374 5.21864 13.3311 5.35723 13.449 5.47353C13.567 5.58984 13.7069 5.68154 13.8606 5.74331C14.0143 5.80507 14.1788 5.83568 14.3444 5.83333H21.667V11.25C21.667 13.3063 23.3607 15 25.417 15H30.8337V32.9167C30.8337 33.6221 30.2891 34.1667 29.5837 34.1667H28.0407C27.875 34.1643 27.7106 34.1949 27.5569 34.2567C27.4032 34.3185 27.2633 34.4102 27.1453 34.5265C27.0274 34.6428 26.9337 34.7814 26.8697 34.9342C26.8058 35.087 26.7729 35.251 26.7729 35.4167C26.7729 35.5823 26.8058 35.7463 26.8697 35.8991C26.9337 36.052 27.0274 36.1906 27.1453 36.3069C27.2633 36.4232 27.4032 36.5149 27.5569 36.5766C27.7106 36.6384 27.875 36.669 28.0407 36.6667H29.5837C31.6399 36.6667 33.3337 34.9729 33.3337 32.9167V13.75C33.3336 13.4185 33.2019 13.1006 32.9675 12.8662C32.7331 12.6317 32.4152 12.5 32.0837 12.5H25.417C24.7116 12.5 24.167 11.9554 24.167 11.25V7.60091L27.7868 11.2207C27.902 11.3407 28.0399 11.4364 28.1926 11.5024C28.3452 11.5684 28.5095 11.6033 28.6758 11.6049C28.8421 11.6066 29.0071 11.5751 29.1611 11.5123C29.315 11.4494 29.4549 11.3565 29.5725 11.2389C29.6901 11.1213 29.7831 10.9814 29.8459 10.8274C29.9088 10.6734 29.9403 10.5085 29.9386 10.3422C29.9369 10.1759 29.9021 10.0116 29.8361 9.85893C29.7701 9.70627 29.6743 9.56831 29.5544 9.45312L23.8008 3.69954C23.7986 3.69737 23.7964 3.6952 23.7943 3.69303C23.7921 3.69086 23.7899 3.68869 23.7878 3.68652C23.7813 3.68103 23.7748 3.67561 23.7682 3.67025C23.7442 3.64701 23.7192 3.62475 23.6934 3.60352C23.4707 3.42104 23.1919 3.321 22.904 3.32031ZM10.417 3.33333C8.36074 3.33333 6.66699 5.02708 6.66699 7.08333V32.9167C6.66699 34.9729 8.36074 36.6667 10.417 36.6667H23.8838C24.0494 36.669 24.2139 36.6384 24.3676 36.5766C24.5213 36.5149 24.6612 36.4232 24.7792 36.3069C24.8971 36.1906 24.9908 36.052 25.0547 35.8991C25.1187 35.7463 25.1516 35.5823 25.1516 35.4167C25.1516 35.251 25.1187 35.087 25.0547 34.9342C24.9908 34.7814 24.8971 34.6428 24.7792 34.5265C24.6612 34.4102 24.5213 34.3185 24.3676 34.2567C24.2139 34.1949 24.0494 34.1643 23.8838 34.1667H10.417C9.71158 34.1667 9.16699 33.6221 9.16699 32.9167V7.08333C9.16699 6.37792 9.71158 5.83333 10.417 5.83333C10.5826 5.83568 10.7471 5.80507 10.9008 5.74331C11.0545 5.68154 11.1944 5.58984 11.3124 5.47353C11.4303 5.35723 11.524 5.21864 11.5879 5.06582C11.6519 4.91299 11.6848 4.74899 11.6848 4.58333C11.6848 4.41768 11.6519 4.25367 11.5879 4.10085C11.524 3.94803 11.4303 3.80944 11.3124 3.69313C11.1944 3.57683 11.0545 3.48513 10.9008 3.42336C10.7471 3.36159 10.5826 3.33099 10.417 3.33333ZM14.5837 18.3333C14.418 18.331 14.2536 18.3616 14.0999 18.4234C13.9461 18.4851 13.8062 18.5768 13.6883 18.6931C13.5703 18.8094 13.4766 18.948 13.4127 19.1009C13.3488 19.2537 13.3159 19.4177 13.3159 19.5833C13.3159 19.749 13.3488 19.913 13.4127 20.0658C13.4766 20.2186 13.5703 20.3572 13.6883 20.4735C13.8062 20.5898 13.9461 20.6815 14.0999 20.7433C14.2536 20.8051 14.418 20.8357 14.5837 20.8333H25.417C25.5826 20.8357 25.7471 20.8051 25.9008 20.7433C26.0545 20.6815 26.1944 20.5898 26.3124 20.4735C26.4303 20.3572 26.524 20.2186 26.5879 20.0658C26.6519 19.913 26.6848 19.749 26.6848 19.5833C26.6848 19.4177 26.6519 19.2537 26.5879 19.1009C26.524 18.948 26.4303 18.8094 26.3124 18.6931C26.1944 18.5768 26.0545 18.4851 25.9008 18.4234C25.7471 18.3616 25.5826 18.331 25.417 18.3333H14.5837ZM14.5837 23.3333C14.418 23.331 14.2536 23.3616 14.0999 23.4234C13.9461 23.4851 13.8062 23.5768 13.6883 23.6931C13.5703 23.8094 13.4766 23.948 13.4127 24.1008C13.3488 24.2537 13.3159 24.4177 13.3159 24.5833C13.3159 24.749 13.3488 24.913 13.4127 25.0658C13.4766 25.2186 13.5703 25.3572 13.6883 25.4735C13.8062 25.5898 13.9461 25.6815 14.0999 25.7433C14.2536 25.8051 14.418 25.8357 14.5837 25.8333H25.417C25.5826 25.8357 25.7471 25.8051 25.9008 25.7433C26.0545 25.6815 26.1944 25.5898 26.3124 25.4735C26.4303 25.3572 26.524 25.2186 26.5879 25.0658C26.6519 24.913 26.6848 24.749 26.6848 24.5833C26.6848 24.4177 26.6519 24.2537 26.5879 24.1008C26.524 23.948 26.4303 23.8094 26.3124 23.6931C26.1944 23.5768 26.0545 23.4851 25.9008 23.4234C25.7471 23.3616 25.5826 23.331 25.417 23.3333H14.5837ZM14.5837 28.3333C14.418 28.331 14.2536 28.3616 14.0999 28.4234C13.9461 28.4851 13.8062 28.5768 13.6883 28.6931C13.5703 28.8094 13.4766 28.948 13.4127 29.1008C13.3488 29.2537 13.3159 29.4177 13.3159 29.5833C13.3159 29.749 13.3488 29.913 13.4127 30.0658C13.4766 30.2186 13.5703 30.3572 13.6883 30.4735C13.8062 30.5898 13.9461 30.6815 14.0999 30.7433C14.2536 30.8051 14.418 30.8357 14.5837 30.8333H22.0837C22.2493 30.8357 22.4138 30.8051 22.5675 30.7433C22.7212 30.6815 22.8611 30.5898 22.979 30.4735C23.097 30.3572 23.1907 30.2186 23.2546 30.0658C23.3185 29.913 23.3515 29.749 23.3515 29.5833C23.3515 29.4177 23.3185 29.2537 23.2546 29.1008C23.1907 28.948 23.097 28.8094 22.979 28.6931C22.8611 28.5768 22.7212 28.4851 22.5675 28.4234C22.4138 28.3616 22.2493 28.331 22.0837 28.3333H14.5837Z" fill="white"/>
</svg>
