<svg width="40" height="40" viewBox="0 0 40 40" fill="none" xmlns="http://www.w3.org/2000/svg">
<path d="M14.879 32.6667C14.229 31.5375 13.4665 30.3042 13.4457 28.9708C13.4346 28.3181 13.4068 27.6542 13.3624 26.9792C13.3544 26.8556 13.3027 26.7389 13.2165 26.65L10.8582 24.2792C10.8017 24.2215 10.7318 24.1787 10.6547 24.1547C10.5776 24.1307 10.4958 24.1262 10.4165 24.1417C7.97904 24.575 7.68321 21.8083 9.52904 21.675C10.5499 21.6042 11.6915 21.5792 12.4582 22.3583C13.311 23.225 14.1749 24.082 15.0499 24.9292C16.504 26.3458 15.4415 28.4792 16.3415 30.15C17.0221 31.4139 17.6651 32.6472 18.2707 33.85C18.3013 33.9124 18.3475 33.9662 18.4051 34.0062C18.4626 34.0463 18.5296 34.0714 18.5999 34.0792C20.4915 34.2847 22.4138 34.0806 24.3665 33.4667C24.5277 33.4167 24.6027 33.307 24.5915 33.1375C24.5582 32.5875 24.5499 32.0875 24.7582 31.5625C25.2999 30.2125 25.861 28.8403 26.4415 27.4458C26.4718 27.3698 26.4859 27.2884 26.483 27.2066C26.4801 27.1248 26.4603 27.0446 26.4249 26.9708L25.5457 25.2167C25.4763 25.0806 25.3665 25.0097 25.2165 25.0042C23.6165 24.9417 20.9665 25.4375 20.8624 22.9542C20.8096 21.6875 20.7721 20.3972 20.7499 19.0833C20.7388 18.2861 21.0693 17.607 21.7415 17.0458C22.504 16.4083 23.4249 15.7583 24.4707 15.9625C25.2318 16.1125 25.9846 16.2625 26.729 16.4125C26.8596 16.4375 26.9374 16.3847 26.9624 16.2542L27.2499 14.7708C27.2832 14.6042 27.2207 14.4931 27.0624 14.4375C26.2874 14.1542 25.5068 13.8486 24.7207 13.5208C22.9707 12.8 23.2749 10.875 23.3457 9.35418C23.3763 8.69029 23.7124 8.27501 24.354 8.10835C24.454 8.08335 24.5554 8.07918 24.6582 8.09585C25.4415 8.23196 25.8332 8.69723 25.8332 9.49168V11.0333C25.8332 11.2333 25.929 11.3639 26.1207 11.425C27.6707 11.9125 30.0207 12.4625 29.7874 14.5625C29.6929 15.4153 29.5388 16.282 29.3249 17.1625C28.6999 19.7583 26.2415 18.9083 24.4457 18.5083C24.3005 18.476 24.1499 18.4771 24.0053 18.5114C23.8606 18.5457 23.7258 18.6123 23.6109 18.7063C23.4961 18.8003 23.4042 18.9191 23.3424 19.0537C23.2806 19.1884 23.2503 19.3353 23.254 19.4833L23.3332 22.2833C23.336 22.4278 23.4096 22.5014 23.554 22.5042C24.2402 22.5153 24.9235 22.507 25.604 22.4792C27.3415 22.4083 28.3707 25.1375 28.879 26.3958C29.1068 26.9542 29.0874 27.5583 28.8207 28.2083C28.2957 29.4917 27.7957 30.7181 27.3207 31.8875C27.2235 32.132 27.2832 32.1806 27.4999 32.0333C39.4124 24.0625 34.3082 6.27501 20.0457 5.82918C19.3346 5.80696 18.9054 5.44723 18.7582 4.75001C18.736 4.65279 18.7346 4.55696 18.754 4.46251C18.9096 3.65418 19.3985 3.27085 20.2207 3.31251C25.954 3.59862 30.429 5.98612 33.6457 10.475C38.4999 17.25 37.304 26.7333 31.2749 32.2375C25.1832 37.8042 16.3082 38.1125 9.82071 33.1333C5.76793 30.0222 3.59987 25.7278 3.31654 20.25C3.27487 19.425 3.65821 18.9278 4.46654 18.7583C4.81654 18.6861 5.16932 18.8403 5.52487 19.2208C5.69693 19.4065 5.79608 19.6477 5.80404 19.9C6.03182 25.9778 8.92626 30.3722 14.4874 33.0833C15.0707 33.3695 15.2013 33.2306 14.879 32.6667Z" fill="white"/>
<path d="M8.1541 10.3583C6.6541 9.20555 5.21522 8.09721 3.83744 7.03333C3.26244 6.58888 3.26383 6.15277 3.8416 5.72499C4.25272 5.41944 4.72216 5.35833 5.24994 5.54166C7.3416 6.26944 9.27216 6.95277 11.0416 7.59166C11.1888 7.64444 11.3166 7.61249 11.4249 7.49583C12.2666 6.59027 13.1194 5.67499 13.9833 4.74999C15.5583 3.06666 17.6499 5.57916 16.1083 7.04166C15.0916 8.00277 14.2208 8.84166 13.4958 9.55833C13.3902 9.65833 13.3624 9.77638 13.4124 9.91249C14.1041 11.8375 14.793 13.8014 15.4791 15.8042C15.6902 16.4208 15.5527 16.9278 15.0666 17.325C14.992 17.3864 14.9058 17.4322 14.8132 17.4596C14.7205 17.4871 14.6233 17.4956 14.5273 17.4847C14.4313 17.4738 14.3385 17.4437 14.2543 17.3963C14.1701 17.3488 14.0964 17.2849 14.0374 17.2083L10.4833 12.6083C10.4645 12.584 10.4409 12.5638 10.414 12.5492C10.387 12.5345 10.3574 12.5257 10.3271 12.5233C10.2967 12.521 10.2664 12.5251 10.238 12.5354C10.2096 12.5458 10.1838 12.5621 10.1624 12.5833L8.20827 14.4542C8.16143 14.5003 8.13207 14.5612 8.12523 14.6266C8.11839 14.692 8.13449 14.7577 8.17077 14.8125C8.74577 15.6847 8.80827 16.3528 8.35827 16.8167C8.28552 16.8923 8.19832 16.9525 8.10185 16.9938C8.00537 17.0351 7.90159 17.0565 7.79665 17.0569C7.69172 17.0573 7.58778 17.0366 7.491 16.996C7.39422 16.9555 7.30658 16.8959 7.23327 16.8208L6.6041 16.175C6.57698 16.1473 6.54437 16.1255 6.50829 16.111C6.47221 16.0965 6.43344 16.0897 6.39438 16.0908C6.35532 16.092 6.31679 16.1012 6.28119 16.1178C6.2456 16.1344 6.21369 16.1582 6.18744 16.1875C5.0541 17.4708 3.4916 15.8917 4.5541 14.6875C4.74577 14.4736 4.72355 14.2861 4.48744 14.125C4.10966 13.8667 3.85966 13.5444 3.73744 13.1583C3.68744 13 3.70827 12.8514 3.79994 12.7125C4.2416 12.0236 4.94438 12.0069 5.90827 12.6625C6.04716 12.7569 6.17494 12.7444 6.2916 12.625L8.17494 10.6792C8.28883 10.5625 8.28188 10.4555 8.1541 10.3583Z" fill="white"/>
</svg>
