<svg width="41" height="41" viewBox="0 0 41 41" fill="none" xmlns="http://www.w3.org/2000/svg">
<path d="M11.4458 11.7875L8.37083 14.2646C7.175 15.2041 6.40625 16.7416 6.40625 18.2791V33.7396C6.40625 34.6791 7.175 35.4479 8.11458 35.4479H25.1979" stroke="white" stroke-width="3" stroke-miterlimit="10" stroke-linecap="round" stroke-linejoin="round"/>
<path d="M29.8961 35.4479H32.8857C33.8253 35.4479 34.594 34.6792 34.594 33.7396V18.2792C34.594 16.7417 33.9107 15.2042 32.6294 14.2646L21.0128 5.12499C20.6711 4.86874 20.244 4.86874 19.9878 5.12499L16.0586 8.19999" stroke="white" stroke-width="3" stroke-miterlimit="10" stroke-linecap="round" stroke-linejoin="round"/>
<path d="M15.8018 30.4938V23.4896C15.8018 22.9771 16.1434 22.6354 16.6559 22.6354H24.258C24.7705 22.6354 25.1122 22.9771 25.1122 23.4896V35.4479" stroke="white" stroke-width="3" stroke-miterlimit="10" stroke-linecap="round" stroke-linejoin="round"/>
</svg>
