<svg width="40" height="40" viewBox="0 0 40 40" fill="none" xmlns="http://www.w3.org/2000/svg">
<path d="M16.5454 5.68751C13.9662 6.70001 11.8787 9.01667 11.1912 11.6542C10.2773 15.1514 11.1384 18.2431 13.7745 20.9292C14.2468 21.4097 14.3107 21.9403 13.9662 22.5208C13.894 22.6431 13.7898 22.7417 13.6537 22.8167C12.9398 23.1972 12.3134 23.0861 11.7745 22.4833C8.82455 19.1889 7.76622 15.6611 8.59955 11.9C10.3995 3.76251 18.9995 0.00417423 26.3162 4.35417C27.044 4.78751 27.2468 5.39584 26.9246 6.17917C26.8662 6.32362 26.7718 6.43751 26.6412 6.52084C26.1245 6.84584 25.6051 6.84862 25.0829 6.52917C22.2968 4.8264 19.4509 4.54584 16.5454 5.68751Z" fill="white"/>
<path d="M21.3625 20.1542C21.3083 21.85 18.8542 21.85 18.8583 19.9542C18.8583 19.7958 18.7833 19.693 18.6333 19.6458C17.7695 19.3764 17.1236 18.8389 16.6958 18.0333C16.1208 16.9458 17.0083 15.8083 18.2167 16.2083C18.7042 16.3708 18.825 16.8167 19.0833 17.2042C19.1917 17.368 19.3417 17.4611 19.5333 17.4833C20.2028 17.5639 20.8153 17.5375 21.3708 17.4042C21.4884 17.3757 21.5976 17.3197 21.6895 17.2408C21.7815 17.1619 21.8536 17.0622 21.9 16.95C22.1139 16.4278 22.0278 16.0042 21.6417 15.6792C21.1458 15.2625 20.3167 15.45 19.6958 15.3958C15.9375 15.0542 15.1958 10.1375 18.6708 8.62916C18.8125 8.56527 18.8792 8.45694 18.8708 8.30416C18.8083 7.11666 20.1083 6.50832 20.9875 7.30832C21.3417 7.62916 21.3083 8.01249 21.3875 8.44582C21.3973 8.50692 21.4243 8.56422 21.4655 8.61131C21.5068 8.6584 21.5605 8.69343 21.6208 8.71249C22.5431 9.00694 23.2014 9.59721 23.5958 10.4833C24.2958 12.0583 21.9958 13.0667 21.3458 11.5375C21.2083 11.2125 21.0292 10.8917 20.6417 10.8292C18.3833 10.475 18.4625 13.1042 20.2083 12.9167C25.0458 12.4042 26.1958 19 21.5875 19.8875C21.4403 19.9153 21.3653 20.0042 21.3625 20.1542Z" fill="white"/>
<path d="M5.44986 33.3375C6.67486 33.3736 7.82903 33.6944 8.91236 34.3C10.429 35.15 12.379 35.4167 13.5457 33.9167C14.404 32.8167 15.929 33.3833 15.7624 34.85C15.738 35.0641 15.6477 35.2651 15.504 35.425C13.3707 37.7875 10.4707 38.0458 7.79986 36.5333C6.70403 35.9083 5.51653 35.725 4.26236 35.85C3.23319 35.95 2.42903 35.3917 2.48736 34.3333C2.64847 31.5194 3.6818 29.2889 5.58736 27.6417C8.54986 25.075 13.7207 25.0708 15.8249 28.625C15.8668 28.6957 15.9235 28.7565 15.9911 28.8032C16.0587 28.8499 16.1356 28.8815 16.2165 28.8958C17.1304 29.0514 17.9068 29.3972 18.5457 29.9333C18.5632 29.9485 18.5848 29.9584 18.6077 29.9617C18.6307 29.9649 18.6541 29.9616 18.6752 29.9519C18.6963 29.9422 18.7142 29.9267 18.7267 29.9071C18.7392 29.8876 18.7458 29.8649 18.7457 29.8417C18.7485 28.0833 18.7512 26.3042 18.754 24.5042C18.754 23.7417 19.4165 23.3708 20.0957 23.3333C26.8082 22.9375 30.8374 16.9125 28.4374 10.5417C28.2124 9.94721 28.3485 9.44999 28.8457 9.04999C28.9262 8.9861 29.0165 8.94027 29.1165 8.91249C29.9415 8.67638 30.5054 8.9611 30.8082 9.76666C31.6943 12.1417 31.904 14.35 31.4374 16.3917C30.254 21.5583 26.9374 24.6805 21.4874 25.7583C21.329 25.7889 21.2499 25.8847 21.2499 26.0458V29.775C21.2499 29.9972 21.3374 30.0389 21.5124 29.9C22.1762 29.3583 22.9374 29.0222 23.7957 28.8917C23.9679 28.8667 24.0971 28.7792 24.1832 28.6292C25.1832 26.8958 26.811 25.9708 29.0665 25.8542C33.9749 25.6 37.3499 29.6917 37.4832 34.3625C37.5332 36.1625 35.779 35.8292 34.604 35.8375C32.8499 35.8458 31.5207 37.1417 29.7999 37.4083C27.9554 37.6944 26.2985 37.1611 24.829 35.8083C23.904 34.9542 23.9665 33.3 25.4874 33.3542C26.354 33.3833 26.5582 34.3208 27.2749 34.6417C28.4193 35.1555 29.536 35.1097 30.6249 34.5042C31.8832 33.8042 33.1776 33.4125 34.5082 33.3292C34.6999 33.3153 34.7735 33.2153 34.729 33.0292C33.8957 29.5875 31.0332 27.4167 27.5499 28.7042C27.1054 28.868 27.1124 29.0069 27.5707 29.1208C28.5901 29.3736 29.4651 29.7319 30.1957 30.1958C30.6596 30.493 30.861 30.9153 30.7999 31.4625C30.786 31.6014 30.7401 31.7278 30.6624 31.8417C30.204 32.5167 29.6124 32.6667 28.8874 32.2917C27.6957 31.675 26.4596 31.3347 25.179 31.2708C22.1957 31.1208 21.2624 34.125 21.2457 36.5542C21.243 36.7811 21.1654 37.0009 21.0249 37.1792C20.6915 37.6042 20.3332 37.7944 19.9499 37.75C19.1776 37.6639 18.7818 37.2319 18.7624 36.4542C18.7374 35.4653 18.5457 34.5028 18.1874 33.5667C16.929 30.2542 13.3665 31.125 10.9957 32.35C10.7983 32.4528 10.5747 32.4893 10.3582 32.4542C9.79708 32.368 9.45125 32.1528 9.32069 31.8083C9.03458 31.0639 9.24014 30.4944 9.93736 30.1C10.7012 29.6694 11.5207 29.3472 12.3957 29.1333C12.8707 29.0167 12.879 28.8708 12.4207 28.6958C8.93319 27.3833 6.11236 29.625 5.25403 33.0792C5.21236 33.2458 5.27764 33.3319 5.44986 33.3375Z" fill="white"/>
</svg>
