<svg width="40" height="40" viewBox="0 0 40 40" fill="none" xmlns="http://www.w3.org/2000/svg">
<path d="M9.58301 13.75H25.4163" stroke="white" stroke-width="3" stroke-miterlimit="10" stroke-linecap="round" stroke-linejoin="round"/>
<path d="M20.833 20.4167H25.4163" stroke="white" stroke-width="3" stroke-miterlimit="10" stroke-linecap="round" stroke-linejoin="round"/>
<path d="M20.833 26.25H25.4163" stroke="white" stroke-width="3" stroke-miterlimit="10" stroke-linecap="round" stroke-linejoin="round"/>
<path d="M15.4163 20.4167H9.58301V26.25H15.4163V20.4167Z" stroke="white" stroke-width="3" stroke-miterlimit="10" stroke-linecap="round" stroke-linejoin="round"/>
<path d="M4.58301 21.6667V8.75C4.58301 7.33333 5.66634 6.25 7.08301 6.25H27.9163C29.333 6.25 30.4163 7.33333 30.4163 8.75V12.3333" stroke="white" stroke-width="3" stroke-miterlimit="10" stroke-linecap="round" stroke-linejoin="round"/>
<path d="M32.9163 33.75H7.91634C6.08301 33.75 4.58301 32.25 4.58301 30.4167V27.1667" stroke="white" stroke-width="3" stroke-miterlimit="10" stroke-linecap="round" stroke-linejoin="round"/>
<path d="M30.417 17.0833V31.25C30.417 32.6667 31.5003 33.75 32.917 33.75C34.3337 33.75 35.417 32.6667 35.417 31.25V11.0833" stroke="white" stroke-width="3" stroke-miterlimit="10" stroke-linecap="round" stroke-linejoin="round"/>
</svg>
