<svg width="100" height="100" viewBox="0 0 100 100" fill="none" xmlns="http://www.w3.org/2000/svg">
<path d="M66.2175 17.5606C61.9953 18.144 59.0022 16.2724 57.2383 11.946C57.16 11.7539 57.0207 11.5928 56.842 11.4874C56.6632 11.382 56.4548 11.3382 56.2488 11.3627L51.1133 11.9773C50.3995 12.06 49.6805 11.8771 49.0941 11.4638C48.5078 11.0505 48.0955 10.4358 47.9363 9.7377L47.8738 9.45645C47.7067 8.7044 47.8397 7.91686 48.2443 7.2613C48.6489 6.60574 49.2933 6.13387 50.0404 5.94604C53.5335 5.07798 57.1967 4.99117 61.03 5.68562C61.5129 5.77381 61.9547 6.01474 62.2904 6.37292C62.6261 6.7311 62.8379 7.1876 62.8946 7.6752L63.2175 10.3835C63.2515 10.6677 63.3965 10.927 63.621 11.1046C63.8454 11.2822 64.131 11.3637 64.4154 11.3315L68.8008 10.8106C69.0269 10.7847 69.256 10.8065 69.4731 10.8747C69.6902 10.9429 69.8906 11.0559 70.0613 11.2065C72.8599 13.6717 74.7731 16.9113 75.8008 20.9252C75.9274 21.4195 75.8564 21.9428 75.6029 22.3835C75.0474 23.3835 74.1828 24.2203 73.0092 24.894C72.797 25.0151 72.6206 25.1902 72.498 25.4015C72.3753 25.6128 72.3107 25.8528 72.3107 26.0971C72.3107 26.3414 72.3753 26.5814 72.498 26.7927C72.6206 27.004 72.797 27.1791 73.0092 27.3002L74.6446 28.2377C75.1102 28.5097 75.4771 28.9228 75.6925 29.4171C75.9078 29.9115 75.9604 30.4615 75.8425 30.9877C75.0925 34.3731 72.8113 38.7065 70.1758 40.7794C69.0786 41.6474 67.5752 41.6301 65.6654 40.7273C65.4416 40.6213 65.1969 40.5668 64.9493 40.5679C64.7017 40.569 64.4574 40.6256 64.2346 40.7335C64.0117 40.8414 63.8159 40.998 63.6615 41.1916C63.5071 41.3852 63.3981 41.611 63.3425 41.8523L62.7279 44.5398C62.6417 44.9183 62.4647 45.2698 62.2123 45.5639C61.96 45.858 61.64 46.0857 61.28 46.2273C58.0231 47.5259 54.2279 47.5988 49.8946 46.446C49.3572 46.3053 48.8748 46.0063 48.5105 45.5882C48.1462 45.17 47.9171 44.6521 47.8529 44.1023L47.5613 41.6648C47.5458 41.5299 47.5038 41.3995 47.4378 41.2809C47.3717 41.1623 47.2829 41.058 47.1765 40.9738C47.07 40.8896 46.948 40.8272 46.8174 40.7903C46.6868 40.7534 46.5502 40.7426 46.4154 40.7585L42.28 41.2481C41.957 41.2871 41.6283 41.2542 41.317 41.1517C41.0058 41.0491 40.7194 40.8794 40.4779 40.6544C37.8946 38.2446 36.0786 35.1058 35.03 31.2377C34.8952 30.7403 34.9146 30.2135 35.0856 29.7263C35.2567 29.2392 35.5714 28.8147 35.9883 28.5085L37.9571 27.071C38.097 26.9685 38.2125 26.8362 38.2953 26.6838C38.3781 26.5314 38.4263 26.3625 38.4362 26.1893C38.4462 26.0161 38.4177 25.8429 38.3529 25.682C38.2881 25.5211 38.1885 25.3765 38.0613 25.2585C35.6654 23.0606 34.1029 22.519 35.6758 18.7481C36.6967 16.2759 37.9258 14.1856 39.3633 12.4773C41.2383 10.2481 43.4814 10.0606 46.0925 11.9148C48.6863 13.769 47.4779 17.2273 44.3113 17.4565C43.8985 17.485 43.4973 17.6209 43.1515 17.8496C42.8056 18.0782 42.5283 18.3906 42.3499 18.7528C42.1715 19.115 42.0988 19.513 42.1397 19.9035C42.1807 20.2939 42.3337 20.6617 42.5821 20.9669C45.2557 24.2724 45.2974 27.578 42.7071 30.8835C42.4343 31.2312 42.2694 31.6513 42.2328 32.0917C42.1962 32.5322 42.2896 32.9737 42.5013 33.3616C42.713 33.7496 43.0338 34.067 43.424 34.2745C43.8142 34.4821 44.2567 34.5707 44.6967 34.5294C49.0856 34.1266 51.9502 35.8453 53.2904 39.6856C53.4483 40.1326 53.7413 40.5199 54.1288 40.7936C54.5162 41.0672 54.9788 41.2137 55.4522 41.2126C55.9255 41.2114 56.3861 41.0627 56.7697 40.7872C57.1533 40.5116 57.4409 40.1229 57.5925 39.6752C58.8981 35.8419 61.8252 34.1231 66.3738 34.5189C66.7969 34.5574 67.2215 34.4677 67.5926 34.2614C67.9638 34.0552 68.2647 33.7419 68.4563 33.3619C68.648 32.9819 68.7218 32.5527 68.668 32.1295C68.6143 31.7063 68.4357 31.3086 68.155 30.9877C65.537 28.0155 65.5578 24.637 68.2175 20.8523C68.453 20.5166 68.5857 20.1193 68.5994 19.7093C68.6131 19.2992 68.5072 18.8944 68.2947 18.5446C68.0821 18.1948 67.7723 17.9153 67.4032 17.7405C67.0342 17.5657 66.622 17.5031 66.2175 17.5606Z" fill="white"/>
<path d="M55.2083 31.8424C58.4127 31.8424 61.0104 29.2448 61.0104 26.0404C61.0104 22.836 58.4127 20.2383 55.2083 20.2383C52.0039 20.2383 49.4062 22.836 49.4062 26.0404C49.4062 29.2448 52.0039 31.8424 55.2083 31.8424Z" fill="white"/>
<path d="M88.907 53.6978L88.7716 53.5103C88.3137 52.9072 87.6348 52.5105 86.8833 52.407C86.1318 52.3036 85.3688 52.5017 84.7612 52.9582L78.0111 58.0207C77.3696 58.5035 76.5697 58.7275 75.7693 58.6485C74.969 58.5694 74.2264 58.193 73.6882 57.5936L73.6674 57.5728C73.4107 57.2869 73.2131 56.953 73.0861 56.5901C72.9592 56.2272 72.9053 55.8426 72.9275 55.4584C72.9498 55.0741 73.0478 54.6977 73.2159 54.3509C73.384 54.0041 73.6188 53.6936 73.907 53.4374C76.1153 51.486 78.5424 49.6492 81.1882 47.927C89.2195 42.6978 98.5841 50.3436 94.9695 59.1145C93.9799 61.5207 91.8445 62.979 89.8341 64.6978C83.098 70.4617 76.4625 76.0242 69.9278 81.3853C66.3341 84.3332 61.9382 87.4061 57.3132 87.4478C53.9452 87.4756 50.5459 87.2638 47.1153 86.8124C46.323 86.7061 45.6052 86.2901 45.119 85.6556C44.6328 85.021 44.418 84.2196 44.5216 83.427L44.532 83.3124C44.6362 82.5304 45.0372 81.8184 45.6519 81.324C46.2666 80.8295 47.0479 80.5904 47.8341 80.6561C51.5702 80.9617 53.9521 81.1492 54.9799 81.2186C58.8549 81.4895 61.6466 80.0728 64.4799 77.7499C73.6813 70.2151 81.6778 63.5103 88.4695 57.6353C89.0226 57.1532 89.3746 56.481 89.4556 55.7518C89.5366 55.0226 89.3408 54.2895 88.907 53.6978Z" fill="white"/>
<path d="M20.4574 83.5942C20.5507 83.7194 20.6703 83.8228 20.8076 83.8969C20.9449 83.9711 21.0965 84.0141 21.2516 84.0231C21.4068 84.032 21.5617 84.0066 21.7053 83.9487C21.8489 83.8908 21.9776 83.8018 22.0824 83.688C24.6935 80.8824 28.013 79.3824 32.0407 79.188C32.8384 79.1499 33.6197 79.4218 34.2201 79.9464C34.8205 80.4709 35.1931 81.2073 35.2595 82.0005L35.2907 82.3442C35.322 82.7158 35.2779 83.0898 35.1611 83.4439C35.0444 83.7979 34.8574 84.1248 34.6113 84.4049C34.3652 84.685 34.0652 84.9126 33.7291 85.074C33.393 85.2354 33.0278 85.3273 32.6553 85.3442C30.3706 85.4345 28.5442 86.1394 27.1762 87.4588C24.2907 90.2296 21.0199 91.1151 17.6657 89.2817C16.6241 88.7123 15.2456 87.2019 13.5303 84.7505C13.2525 84.3546 10.9019 81.122 6.47824 75.0526C3.05116 70.3442 5.91574 66.063 9.11366 61.7713C14.7907 54.1671 22.697 48.6776 32.3012 50.2505C34.9192 50.6741 37.2282 51.0699 39.2282 51.438C43.9782 52.313 49.1762 52.1255 54.6866 52.063C57.5963 52.0282 59.6518 52.2852 60.8532 52.8338C70.6762 57.313 67.1241 70.5734 56.7491 70.7713C52.6171 70.8546 47.94 70.8685 42.7178 70.813C42.3184 70.8089 41.9238 70.7257 41.5568 70.5682C41.1898 70.4106 40.8577 70.1819 40.5797 69.8951C40.3016 69.6084 40.0832 69.2693 39.9371 68.8976C39.7909 68.5259 39.72 68.1289 39.7282 67.7296V67.4901C39.731 66.7256 40.037 65.9933 40.5795 65.4528C41.1219 64.9122 41.8569 64.6074 42.6241 64.6046L57.2074 64.5526C58.0051 64.5499 58.7699 64.234 59.3369 63.6728C59.9039 63.1116 60.2277 62.3502 60.2387 61.5526V61.438C60.254 61.0568 60.1938 60.6763 60.0617 60.3184C59.9295 59.9605 59.7279 59.6323 59.4685 59.3525C59.2091 59.0728 58.897 58.8471 58.5501 58.6883C58.2031 58.5296 57.8283 58.441 57.447 58.4276C55.5234 58.3651 51.9227 58.3234 46.6449 58.3026C42.7074 58.2817 37.8463 57.6845 32.0616 56.5109C22.7387 54.6255 14.9574 62.6255 11.1762 70.2296C11.1133 70.3557 11.0858 70.4961 11.0969 70.6357C11.1079 70.7753 11.1569 70.9087 11.2387 71.0213L20.4574 83.5942Z" fill="white"/>
</svg>
