<svg width="40" height="40" viewBox="0 0 40 40" fill="none" xmlns="http://www.w3.org/2000/svg">
<path d="M6.23766 13.9208L9.52932 15.45C10.2904 15.8056 10.5363 16.3806 10.2668 17.175C10.2279 17.2889 10.1613 17.3889 10.0668 17.475C9.57793 17.9083 9.03627 17.9861 8.44182 17.7083L2.40849 14.8833C2.19112 14.7813 2.00738 14.6193 1.87881 14.4165C1.75024 14.2137 1.68218 13.9784 1.68262 13.7383C1.68306 13.4981 1.75197 13.2631 1.88128 13.0607C2.01059 12.8584 2.19492 12.6971 2.41266 12.5958C7.84043 10.0764 12.8071 7.76111 17.3127 5.65C20.4752 4.16667 22.846 5.65833 25.5835 7.00833C26.3029 7.36389 26.5377 7.92222 26.2877 8.68333C26.2571 8.76944 26.214 8.84583 26.1585 8.9125C25.7252 9.4375 25.1988 9.55972 24.5793 9.27917C22.7627 8.45833 20.571 6.90417 18.5835 7.825C14.5224 9.71111 10.4071 11.6292 6.23766 13.5792C5.99321 13.6931 5.99321 13.8069 6.23766 13.9208Z" fill="white"/>
<path d="M33.9622 13.675L31.3372 12.4458C30.7539 12.1708 30.4803 11.7111 30.5164 11.0667C30.5247 10.9278 30.5622 10.8028 30.6289 10.6917C31.0511 9.99722 31.6289 9.82222 32.3622 10.1667L37.6081 12.6167C37.8257 12.7174 38.0097 12.8786 38.1383 13.081C38.2668 13.2834 38.3344 13.5185 38.3331 13.7583L38.3164 27.6125C38.3136 27.7486 38.3581 27.8694 38.4497 27.975C40.5956 30.4708 37.0872 32.975 35.4914 30.8542C34.7969 29.9319 34.8497 29.0014 35.6497 28.0625C35.7574 27.9361 35.8165 27.7766 35.8164 27.6125L35.8331 15.9375C35.8334 15.9133 35.8275 15.8893 35.816 15.868C35.8044 15.8467 35.7876 15.8287 35.7671 15.8157C35.7467 15.8028 35.7232 15.7953 35.699 15.794C35.6748 15.7927 35.6506 15.7976 35.6289 15.8083L31.1247 17.9125C30.9664 17.9875 30.9067 18.1111 30.9456 18.2833C31.7733 21.9417 31.8789 25.5694 31.2622 29.1667C31.0706 30.275 30.0622 30.8708 28.9997 30.8667C26.0969 30.8556 23.6081 31.8861 21.5331 33.9583C20.6122 34.875 19.2664 34.8 18.3872 33.9C16.4594 31.9194 14.0094 30.9042 11.0372 30.8542C9.70944 30.8319 8.93722 30.2306 8.72055 29.05C8.45944 27.6306 8.33027 25.8375 8.33305 23.6708C8.33293 23.5088 8.37148 23.3493 8.44544 23.2057C8.5194 23.0621 8.62661 22.9387 8.75805 22.8458C9.10805 22.5931 9.44277 22.4944 9.76222 22.55C10.4011 22.6611 10.7414 23.0403 10.7831 23.6875L11.0706 28.1083C11.0817 28.3028 11.1844 28.4028 11.3789 28.4083C14.5789 28.5167 17.3858 29.6597 19.7997 31.8375C19.9358 31.9597 20.0719 31.9583 20.2081 31.8333C22.5497 29.6861 25.3497 28.5431 28.6081 28.4042C28.7608 28.3986 28.8483 28.3208 28.8706 28.1708C29.3122 25.2236 29.2247 22.2958 28.6081 19.3875C28.5664 19.1931 28.4567 19.1389 28.2789 19.225C26.3206 20.1694 24.3108 21.1042 22.2497 22.0292C20.6997 22.725 18.8206 22.5875 17.2706 21.8375C16.0956 21.2708 14.8525 20.6889 13.5414 20.0917C13.3779 20.0173 13.2323 19.9086 13.1144 19.7731C12.9965 19.6375 12.9092 19.4782 12.8582 19.3059C12.8072 19.1337 12.7939 18.9525 12.819 18.7746C12.8441 18.5968 12.9072 18.4264 13.0039 18.275C13.0733 18.1639 13.1594 18.0583 13.2622 17.9583C13.4108 17.8085 13.6018 17.7081 13.8092 17.6708C14.0165 17.6335 14.23 17.6611 14.4206 17.75C15.7456 18.375 17.1622 19.025 18.6706 19.7C19.5678 20.1028 20.4608 20.1 21.3497 19.6917C25.7553 17.6722 29.9594 15.7153 33.9622 13.8208C33.9765 13.8148 33.9888 13.8046 33.9974 13.7917C34.006 13.7787 34.0106 13.7635 34.0106 13.7479C34.0106 13.7324 34.006 13.7171 33.9974 13.7042C33.9888 13.6912 33.9765 13.6811 33.9622 13.675Z" fill="white"/>
</svg>
