<svg width="40" height="40" viewBox="0 0 40 40" fill="none" xmlns="http://www.w3.org/2000/svg">
<path d="M18.7084 14.8417L22.7709 18.8958C22.9014 19.0236 23.032 19.0222 23.1625 18.8917L27.475 14.575C27.5005 14.55 27.52 14.5195 27.5322 14.4858C27.5443 14.4521 27.5487 14.416 27.5451 14.3802C27.5415 14.3443 27.53 14.3095 27.5114 14.2784C27.4928 14.2472 27.4676 14.2205 27.4375 14.2C25.6334 12.9792 27.4959 10.775 28.8459 12.1167C29.9209 13.1806 30.9834 14.2444 32.0334 15.3083C32.0798 15.3548 32.136 15.3899 32.1975 15.4109C32.2589 15.4319 32.324 15.4381 32.3875 15.4292C32.7292 15.375 33.0459 15.2958 33.3709 15.4542C34.2209 15.8667 34.35 16.8833 33.7 17.5333C31.2361 20 28.6847 22.55 26.0459 25.1833C25.3959 25.8292 24.4 25.6542 23.9917 24.8292C23.8209 24.4792 23.9334 24.2292 23.9667 23.8792C23.9733 23.8062 23.9637 23.7328 23.9385 23.6644C23.9132 23.5959 23.873 23.534 23.8209 23.4833L20.8834 20.5542C20.868 20.5385 20.8495 20.5262 20.8291 20.5181C20.8087 20.51 20.7868 20.5062 20.7649 20.507C20.7429 20.5078 20.7214 20.5131 20.7016 20.5227C20.6818 20.5322 20.6643 20.5458 20.65 20.5625L14.5792 27.7083C14.4737 27.8332 14.3399 27.931 14.1891 27.9933C14.0383 28.0557 13.8748 28.0808 13.7125 28.0667C13.1514 28.0222 12.75 27.7417 12.5084 27.225C12.4238 27.0457 12.3926 26.8459 12.4185 26.6494C12.4443 26.4529 12.5261 26.268 12.6542 26.1167L18.8125 18.8708C18.8503 18.8258 18.8697 18.7683 18.8665 18.7101C18.8634 18.652 18.8381 18.5976 18.7959 18.5583L18.35 18.1417C18.25 18.0472 18.1486 18.0444 18.0459 18.1333L6.21253 28.1708C5.36531 28.8903 5.20281 29.7403 5.72503 30.7208C5.80558 30.8653 5.91669 30.9833 6.05836 31.075C7.10558 31.7417 7.98058 31.6542 8.68336 30.8125C9.24169 30.1431 9.82364 29.4486 10.4292 28.7292C10.5479 28.5877 10.7023 28.4803 10.8766 28.4181C11.0508 28.3558 11.2387 28.341 11.4209 28.375C11.8125 28.4472 12.1 28.6014 12.2834 28.8375C12.6667 29.3264 12.675 29.8222 12.3084 30.325C11.6875 31.1708 10.9292 32.0833 10.175 32.8125C7.91253 35.0042 4.31253 34.05 3.19586 31.15C2.44169 29.1958 3.20003 27.425 4.74169 26.125C8.80003 22.7028 12.6389 19.4514 16.2584 16.3708C16.4167 16.2347 16.4222 16.0931 16.275 15.9458L14.1167 13.7792C14.0056 13.6681 13.8736 13.6292 13.7209 13.6625C12.3625 13.9542 11.4334 12.5583 12.4625 11.5375C14.8431 9.17084 17.3431 6.66806 19.9625 4.02917C20.9792 3.00417 22.7042 3.74584 22.1834 5.12917C22.1574 5.19739 22.1519 5.27181 22.1674 5.3435C22.1829 5.41518 22.2189 5.4811 22.2709 5.53334L25.5625 8.82501C26.1153 9.37778 26.1806 9.98473 25.7584 10.6458C25.7111 10.7236 25.6486 10.7847 25.5709 10.8292C24.9153 11.2181 24.3264 11.1375 23.8042 10.5875C23.4181 10.1792 23.1917 10.0069 23.125 10.0708C21.6445 11.5319 20.1723 12.9986 18.7084 14.4708C18.5861 14.5931 18.5861 14.7167 18.7084 14.8417ZM21.2996 8.34096C21.3159 8.32471 21.3288 8.30542 21.3376 8.28419C21.3463 8.26295 21.3509 8.2402 21.3509 8.21721C21.3509 8.19423 21.3463 8.17147 21.3376 8.15024C21.3288 8.12901 21.3159 8.10971 21.2996 8.09346L20.4982 7.29209C20.482 7.27584 20.4627 7.26294 20.4415 7.25415C20.4202 7.24535 20.3975 7.24083 20.3745 7.24083C20.3515 7.24083 20.3287 7.24535 20.3075 7.25415C20.2863 7.26294 20.267 7.27584 20.2507 7.29209L15.8254 11.7174C15.8092 11.7336 15.7963 11.7529 15.7875 11.7742C15.7787 11.7954 15.7742 11.8181 15.7742 11.8411C15.7742 11.8641 15.7787 11.8869 15.7875 11.9081C15.7963 11.9293 15.8092 11.9486 15.8254 11.9649L16.6268 12.7663C16.6431 12.7825 16.6624 12.7954 16.6836 12.8042C16.7048 12.813 16.7276 12.8175 16.7506 12.8175C16.7736 12.8175 16.7963 12.813 16.8175 12.8042C16.8388 12.7954 16.8581 12.7825 16.8743 12.7663L21.2996 8.34096ZM29.5304 16.3301C29.513 16.3127 29.4923 16.2989 29.4695 16.2894C29.4468 16.28 29.4224 16.2752 29.3978 16.2752C29.3732 16.2752 29.3488 16.28 29.326 16.2894C29.3033 16.2989 29.2826 16.3127 29.2652 16.3301L24.8634 20.7318C24.846 20.7493 24.8322 20.7699 24.8228 20.7927C24.8134 20.8154 24.8085 20.8398 24.8085 20.8644C24.8085 20.889 24.8134 20.9134 24.8228 20.9362C24.8322 20.9589 24.846 20.9796 24.8634 20.997L25.653 21.7866C25.6704 21.804 25.6911 21.8178 25.7139 21.8272C25.7366 21.8367 25.761 21.8415 25.7856 21.8415C25.8102 21.8415 25.8346 21.8367 25.8574 21.8272C25.8801 21.8178 25.9008 21.804 25.9182 21.7866L30.3199 17.3848C30.3374 17.3674 30.3512 17.3468 30.3606 17.324C30.37 17.3013 30.3749 17.2769 30.3749 17.2523C30.3749 17.2276 30.37 17.2032 30.3606 17.1805C30.3512 17.1578 30.3374 17.1371 30.3199 17.1197L29.5304 16.3301Z" fill="white"/>
<path d="M34.5962 33.7458C34.6254 31.9417 33.3045 31.45 31.6795 31.4667C29.7101 31.4917 27.7823 31.4944 25.8962 31.475C25.0851 31.4694 24.4809 31.8194 24.0837 32.525C24.0087 32.6611 23.9309 32.8014 23.8504 32.9458C23.4559 33.6458 23.6601 33.9958 24.4629 33.9958L28.9295 33.9917C29.7184 33.9917 30.1601 34.3833 30.2545 35.1667C30.2934 35.4694 30.1865 35.7819 29.9337 36.1042C29.8388 36.2238 29.7179 36.3204 29.5801 36.3868C29.4423 36.4532 29.2911 36.4876 29.1379 36.4875C27.1906 36.4986 25.2448 36.4972 23.3004 36.4833C22.1379 36.475 21.2962 35.5833 21.2254 34.4375C20.9962 30.8292 23.3462 28.8625 26.767 28.9833C28.1031 29.0306 29.4545 29.0292 30.8212 28.9792C32.5434 28.9153 33.7545 29.0708 34.4545 29.4458C35.9156 30.2292 36.774 31.375 37.0295 32.8833C37.3004 34.4833 37.0837 36.3583 35.0254 36.4917C34.0087 36.5583 32.3004 36.7083 32.3295 35.2167C32.3504 34.1042 33.3712 33.8875 34.2837 34.0125C34.4893 34.0431 34.5934 33.9542 34.5962 33.7458Z" fill="white"/>
</svg>
