<svg width="100" height="100" viewBox="0 0 100 100" fill="none" xmlns="http://www.w3.org/2000/svg">
<path d="M78.6155 78.0624C78.6155 79.1612 78.6155 80.1618 78.6155 81.2606C79.5966 81.2606 80.558 81.2606 81.4998 81.2606C86.15 81.2802 89.7211 84.7336 89.7407 89.2072C89.7603 93.6219 86.1304 97.2126 81.5194 97.2126C60.3875 97.2322 39.236 97.2322 18.104 97.2126C13.5323 97.2126 9.98088 93.7004 9.96126 89.266C9.94164 84.8709 13.5519 81.2802 18.0844 81.2606C34.5661 81.241 51.0675 81.241 67.5492 81.241C67.9809 81.241 68.4125 81.241 68.9227 81.241C68.9227 80.2011 68.9227 79.2004 68.9227 78.0428C68.5303 78.0428 68.1182 78.0428 67.7062 78.0428C46.6331 78.0428 25.56 78.0428 4.48698 78.0428C2.44638 78.0428 2.01472 77.6111 2.01472 75.6097C2.01472 62.4832 1.95585 49.3371 2.07358 36.2106C2.0932 33.5813 2.76032 30.9521 3.2116 28.3425C3.80024 24.8696 4.44773 21.4162 5.09523 17.9629C5.46803 15.9812 5.68386 15.8242 7.72446 15.785C7.88143 15.785 8.05802 15.7654 8.37195 15.7457C8.37195 14.6077 8.29347 13.4501 8.39158 12.3121C8.5093 10.8993 8.5093 9.40813 8.98021 8.11313C10.1379 4.99338 12.5709 3.20786 15.8672 3.09013C20.1446 2.91354 24.4416 3.05089 28.7387 3.05089C28.8368 3.05089 28.9153 3.09013 29.0526 3.12937C29.0526 4.13005 29.0526 5.11111 29.0526 6.22951C28.6994 6.22951 28.3462 6.22951 27.9931 6.22951C24.2454 6.22951 20.4782 6.22951 16.7305 6.22951C13.5323 6.22951 11.5506 8.21124 11.5506 11.3702C11.5506 12.8026 11.5506 14.2153 11.5506 15.7065C12.6297 15.7065 13.6304 15.7065 14.7488 15.7065C14.7488 15.1179 14.7292 14.5685 14.7488 13.9995C14.8469 11.5272 16.809 9.50624 19.2813 9.40813C20.9098 9.34927 22.5384 9.38851 24.2454 9.38851C24.2454 10.4284 24.2454 11.4291 24.2454 12.5671C23.0485 12.5671 21.832 12.626 20.6155 12.5475C17.9863 12.3709 17.692 13.6267 18.0648 15.7457C19.0066 15.7457 19.9484 15.7261 20.9098 15.7457C22.0479 15.7654 22.558 16.1578 22.7542 17.2762C23.6764 22.2796 24.5986 27.2633 25.5012 32.2667C25.56 32.6003 25.6385 32.9142 25.6974 33.2674C26.4038 33.2674 27.0512 33.2674 27.7968 33.2674C28.2285 30.9129 28.6602 28.5583 29.0918 26.2234C29.6412 23.241 30.171 20.2782 30.7008 17.2958C30.897 16.2167 31.4464 15.7654 32.5648 15.7457C34.5465 15.7261 36.5479 15.7457 38.6669 15.7457C38.6669 14.7451 38.6669 13.7836 38.6669 12.8418C38.6866 8.03465 42.1006 4.60096 46.8882 4.58134C51.0086 4.56171 55.1291 4.58134 59.328 4.58134C59.328 5.62125 59.328 6.62193 59.328 7.77958C58.9944 7.77958 58.6412 7.77958 58.2881 7.77958C54.5404 7.77958 50.7732 7.77958 47.0255 7.77958C43.8469 7.77958 41.8652 9.76131 41.8652 12.9399C41.8652 13.8425 41.8652 14.7255 41.8652 15.7457C43.376 15.7457 44.828 15.7457 46.2603 15.7457C47.5945 15.7457 48.0655 16.1185 48.3009 17.4135C49.2231 22.4169 50.1257 27.4007 51.0479 32.4041C51.0871 32.6591 51.1656 32.9142 51.2441 33.287C51.7346 33.287 52.2251 33.287 52.696 33.287C54.0499 33.3066 54.6189 33.8757 54.6189 35.2491C54.6385 37.6821 54.6385 40.0955 54.6385 42.5286C54.6385 42.8425 54.6385 43.1761 54.6385 43.7058C55.0309 43.333 55.3056 43.1172 55.5411 42.8817C58.9355 39.5069 62.3104 36.1125 65.7048 32.718C65.901 32.5218 66.058 32.2471 66.2738 32.1686C66.8429 31.992 67.4707 31.7173 68.0005 31.8154C68.7069 31.9332 69.0012 32.6003 69.0012 33.3459C69.0012 36.4068 69.0012 39.4677 69.0012 42.5286C69.0012 42.8425 69.0012 43.1564 69.0012 43.4704C69.1385 43.5685 69.2759 43.6862 69.4328 43.7843C69.6094 43.4704 69.7075 43.078 69.9626 42.8229C73.3767 39.3696 76.8104 35.9555 80.2441 32.5022C80.8719 31.8743 81.4998 31.3641 82.422 31.7762C83.305 32.1686 83.3834 32.9338 83.3834 33.7775C83.3638 36.9954 83.3834 40.2133 83.3834 43.647C83.7759 43.2742 84.0506 43.0583 84.286 42.8229C87.6216 39.4873 90.9572 36.1517 94.2928 32.8161C94.4498 32.6591 94.6263 32.4825 94.7833 32.3256C95.3327 31.7369 95.9606 31.4426 96.7454 31.7566C97.5303 32.0901 97.7461 32.7376 97.7461 33.5421C97.7265 36.9758 97.7461 40.3899 97.7461 43.8236C97.7461 54.4386 97.7461 65.034 97.7461 75.649C97.7461 77.4934 97.2948 77.9447 95.4701 77.9447C90.2508 77.9447 85.0316 77.9447 79.8124 77.9447C79.4592 78.0624 79.0864 78.0624 78.6155 78.0624ZM78.5763 74.8053C83.9525 74.8053 89.2305 74.8053 94.5086 74.8053C94.5086 62.3263 94.5086 49.9061 94.5086 37.3486C94.1554 37.6821 93.8807 37.9176 93.6453 38.1727C90.192 41.626 86.7387 45.0793 83.2853 48.5326C82.7163 49.1016 82.1277 49.5529 81.2644 49.1997C80.3814 48.8466 80.2048 48.101 80.2048 47.2376C80.2245 44.2748 80.2048 41.3121 80.2048 38.3689C80.2048 38.0746 80.2048 37.7606 80.2048 37.2309C76.3002 41.1551 72.6115 44.8439 68.9227 48.5326C68.3537 49.1016 67.765 49.5529 66.9017 49.2194C66.0188 48.8662 65.8422 48.1402 65.8422 47.2769C65.8618 44.3141 65.8422 41.3513 65.8422 38.4081C65.8422 38.0942 65.8029 37.7999 65.7833 37.3093C61.9964 41.0962 58.3469 44.7457 54.717 48.3953C54.1088 49.0035 53.5201 49.6118 52.5587 49.239C51.558 48.8466 51.4795 48.0225 51.4795 47.1003C51.4991 44.3337 51.4795 41.5867 51.4795 38.8202C51.4795 38.0942 51.4795 37.3878 51.4795 36.6422C35.9985 36.6422 20.6744 36.6422 5.29144 36.6422C5.29144 49.4156 5.29144 62.13 5.29144 74.8641C26.5411 74.8641 47.7515 74.8641 68.9619 74.8641C68.9619 70.0766 68.9619 65.3479 68.9619 60.58C60.466 60.58 52.0289 60.58 43.6115 60.58C40.5898 69.3114 32.1331 72.8824 25.2069 71.3912C17.692 69.7823 12.4139 63.3858 12.3747 55.8513C12.355 48.3757 17.5546 41.8418 24.7163 40.1937C32.1527 38.4866 40.6487 42.3127 43.6115 50.9656C43.9843 50.9656 44.3767 50.9656 44.7887 50.9656C54.4031 50.9656 63.9978 50.9656 73.6121 50.9656C76.5357 50.9656 78.5763 52.9866 78.5959 55.9102C78.6155 59.5401 78.5959 63.1503 78.5959 66.7802C78.5763 69.4291 78.5763 72.0779 78.5763 74.8053ZM44.259 57.3229C44.6906 57.3229 45.0438 57.3229 45.397 57.3229C53.579 57.3229 61.7414 57.3229 69.9234 57.3229C71.6893 57.3229 72.1798 57.7938 72.1798 59.5597C72.1798 67.0353 72.1798 74.511 72.1798 82.0062C72.1798 84.0468 71.7678 84.4589 69.7468 84.4589C52.7941 84.4589 35.8415 84.4589 18.8889 84.4589C18.4964 84.4589 18.0844 84.4392 17.692 84.4785C14.945 84.6747 12.8652 87.1273 13.1595 89.7762C13.4538 92.3269 15.514 94.034 18.3002 94.034C39.2752 94.034 60.2502 94.034 81.2251 94.034C81.4213 94.034 81.6176 94.034 81.8138 94.034C84.4626 93.9162 86.5425 91.7383 86.5228 89.1679C86.4836 86.5583 84.3841 84.4981 81.696 84.4589C80.3422 84.4392 78.9687 84.4589 77.6148 84.4589C75.8489 84.4589 75.3584 83.988 75.3584 82.2221C75.3584 73.6084 75.3584 64.9947 75.3584 56.3811C75.3584 54.6152 74.8875 54.1246 73.1216 54.1246C63.8408 54.1246 54.5797 54.1246 45.2989 54.1246C44.9457 54.1246 44.5925 54.1246 44.2197 54.1246C44.259 55.243 44.259 56.2045 44.259 57.3229ZM28.307 68.4873C35.3314 68.5069 41.0607 62.7972 41.0803 55.7728C41.1196 48.7681 35.3706 42.9798 28.3855 42.9602C21.3219 42.9602 15.5729 48.6307 15.5533 55.6355C15.5337 62.7383 21.2238 68.4677 28.307 68.4873ZM22.4403 33.3263C21.5573 28.4995 20.7136 23.7904 19.8503 19.0617C15.9065 19.0617 12.0607 19.0617 8.1365 19.0617C7.27317 23.81 6.40984 28.5387 5.54651 33.3263C11.1778 33.3263 16.7109 33.3263 22.4403 33.3263ZM33.6636 19.0617C32.8002 23.8296 31.9369 28.5583 31.0736 33.3263C36.7441 33.3263 42.3165 33.3263 47.9674 33.3263C47.104 28.5387 46.2407 23.81 45.3774 19.0617C41.4728 19.0617 37.627 19.0617 33.6636 19.0617Z" fill="white"/>
<path d="M68.9587 11.1172C68.9587 12.1767 68.9587 13.1578 68.9587 14.1781C63.1508 14.1781 57.3822 14.1781 51.5352 14.1781C51.5352 13.197 51.5352 12.1963 51.5352 11.1172C57.3038 11.1172 63.092 11.1172 68.9587 11.1172Z" fill="white"/>
<path d="M32.3477 6.18989C32.3477 5.13035 32.3477 4.14929 32.3477 3.10938C33.368 3.10938 34.349 3.10938 35.4086 3.10938C35.4086 4.09043 35.4086 5.11073 35.4086 6.18989C34.4471 6.18989 33.4268 6.18989 32.3477 6.18989Z" fill="white"/>
<path d="M65.7837 4.74219C65.7837 5.78211 65.7837 6.76316 65.7837 7.80308C64.7438 7.80308 63.7431 7.80308 62.6836 7.80308C62.6836 6.78278 62.6836 5.80173 62.6836 4.74219C63.6646 4.74219 64.6653 4.74219 65.7837 4.74219Z" fill="white"/>
<path d="M75.3383 14.1978C74.2788 14.1978 73.2977 14.1978 72.2578 14.1978C72.2578 13.1775 72.2578 12.1572 72.2578 11.0977C73.2781 11.0977 74.2788 11.0977 75.3383 11.0977C75.3383 12.118 75.3383 13.099 75.3383 14.1978Z" fill="white"/>
<path d="M17.9844 90.7758C17.9844 89.7163 17.9844 88.7352 17.9844 87.6953C23.2625 87.6953 28.5013 87.6953 33.8186 87.6953C33.8186 88.6764 33.8186 89.6967 33.8186 90.7758C28.5798 90.7758 23.3213 90.7758 17.9844 90.7758Z" fill="white"/>
<path d="M47.5117 90.7758C47.5117 89.7163 47.5117 88.7352 47.5117 87.6953C52.7898 87.6953 58.0286 87.6953 63.346 87.6953C63.346 88.6764 63.346 89.6967 63.346 90.7758C58.1071 90.7758 52.8487 90.7758 47.5117 90.7758Z" fill="white"/>
<path d="M37.1562 87.6953C38.1765 87.6953 39.1576 87.6953 40.2171 87.6953C40.2171 88.696 40.2171 89.6967 40.2171 90.7758C39.2165 90.7758 38.2158 90.7758 37.1562 90.7758C37.1562 89.7751 37.1562 88.7941 37.1562 87.6953Z" fill="white"/>
<path d="M66.707 87.6797C67.7469 87.6797 68.7084 87.6797 69.7483 87.6797C69.7483 88.7 69.7483 89.7007 69.7483 90.7798C68.7672 90.7798 67.7469 90.7798 66.707 90.7798C66.707 89.7399 66.707 88.7 66.707 87.6797Z" fill="white"/>
<path d="M23.5392 58.9076C22.4404 58.9076 21.4594 59.0254 20.5176 58.8684C19.9486 58.7703 19.3011 58.3975 18.9283 57.9266C18.4574 57.338 18.7713 56.6708 19.2422 56.1214C22.362 52.4915 25.4621 48.8616 28.5818 45.2317C29.0724 44.6627 29.6806 44.3684 30.4459 44.6627C31.2307 44.957 31.525 45.5849 31.5054 46.3894C31.4858 48.3907 31.5054 50.3725 31.5054 52.5308C32.4864 52.5308 33.4283 52.5504 34.3701 52.5308C35.1745 52.5112 35.8024 52.7466 36.1556 53.5315C36.4892 54.2771 36.1752 54.8657 35.6847 55.4347C32.6238 58.9861 29.5825 62.5375 26.5412 66.1086C26.0311 66.7168 25.4425 67.0896 24.638 66.8149C23.7943 66.5206 23.5196 65.8731 23.5196 65.0098C23.5392 63.0085 23.5392 61.0267 23.5392 58.9076ZM28.3268 50.4706C26.7375 52.3149 25.3444 53.9435 23.8532 55.6898C24.226 55.7094 24.3437 55.729 24.481 55.729C26.2666 55.7486 26.7178 56.2195 26.7375 57.9658C26.7375 58.888 26.7375 59.7906 26.7375 60.9875C28.3268 59.1431 29.7199 57.4949 31.2111 55.7486C30.8579 55.729 30.7205 55.7094 30.5832 55.7094C28.7584 55.6702 28.3268 55.2385 28.3268 53.3745C28.3268 52.5112 28.3268 51.6282 28.3268 50.4706Z" fill="white"/>
</svg>
