<svg width="100" height="100" viewBox="0 0 100 100" fill="none" xmlns="http://www.w3.org/2000/svg">
<g clip-path="url(#clip0_1796_2777)">
<path d="M58.7836 1C58.9146 1.06548 59.0455 1.14733 59.1929 1.19644C61.8285 2.04771 63.4656 4.14312 63.2527 6.92609C63.0563 9.39803 62.5488 11.8536 62.1559 14.3255C62.1232 14.5383 62.0577 14.7348 61.9759 15.0458C63.0563 14.8494 64.0713 14.5875 65.0862 14.4729C73.8772 13.4743 80.9819 16.5028 86.3842 23.5093C87.0554 24.377 86.9735 25.2446 86.2696 25.7685C85.5493 26.2923 84.7799 26.0959 84.0759 25.1955C79.7378 19.515 73.9917 16.8138 66.8379 17.1576C58.1288 17.5832 50.3037 24.5898 48.8959 33.217C47.0788 44.2834 54.1017 54.1548 65.1353 56.1029C75.3996 57.92 85.8276 50.4878 87.5137 40.1908C88.054 36.9003 87.8575 33.6917 86.8098 30.5323C86.4333 29.4027 86.7443 28.6333 87.6447 28.3714C88.4959 28.1094 89.1508 28.5514 89.5273 29.6319C93.9473 42.3844 85.4183 56.6922 72.1091 58.8531C68.6714 59.4097 65.2991 59.246 61.8776 58.2965C60.0605 63.5187 56.9992 67.8241 52.7593 71.1473C54.3309 72.8007 56.0006 74.3231 57.3921 76.0584C61.2883 80.8877 63.1709 86.47 63.2691 92.658C63.3019 95.2118 61.7958 97.3072 59.3566 98.1421C59.1601 98.2076 58.9637 98.3058 58.7672 98.3877C58.0633 98.3877 57.3758 98.3877 56.6718 98.3877C54.822 97.7983 53.2832 96.8161 52.5465 94.9172C52.3173 94.3114 51.9899 94.2132 51.4333 94.2132C45.6709 94.2296 39.8921 94.2296 34.1297 94.2296C29.6934 94.2296 25.257 94.2296 20.8206 94.246C20.4932 94.246 19.953 94.3769 19.8875 94.5897C19.1344 96.6524 17.5792 97.7492 15.5984 98.4041C14.8945 98.4041 14.2069 98.4041 13.503 98.4041C13.3066 98.3222 13.1101 98.224 12.9137 98.1585C10.4908 97.34 8.95203 95.2446 9.00114 92.6744C9.13211 85.5042 11.6204 79.2507 16.597 74.0612C17.5301 73.079 18.5615 72.2114 19.5601 71.2783C5.46513 60.6047 5.56335 38.7338 19.6255 28.1258C19.3473 27.8966 19.0853 27.6838 18.8234 27.471C12.4389 22.0033 9.16484 15.0622 9.01751 6.68054C8.9684 4.15949 10.54 2.11319 12.93 1.29467C13.1265 1.22918 13.3229 1.13096 13.5194 1.04911C14.2233 1.04911 14.9109 1.04911 15.6148 1.04911C17.4319 1.62208 18.9707 2.58793 19.691 4.43779C19.953 5.10898 20.3131 5.22357 20.9516 5.22357C27.1559 5.2072 33.3767 5.2072 39.5811 5.2072C43.5428 5.2072 47.5044 5.2072 51.466 5.19083C51.7934 5.19083 52.3173 5.05987 52.3991 4.84705C53.1522 2.78438 54.7074 1.67119 56.7046 1.04911C57.3921 1 58.0797 1 58.7836 1ZM48.2247 60.1627C40.105 60.1627 32.1817 60.1627 24.111 60.1627C24.4548 60.5392 24.684 60.7848 24.9132 61.0304C25.0933 61.2104 25.2897 61.3741 25.4698 61.5542C26.2065 62.2745 26.3047 63.1258 25.7645 63.7315C25.1915 64.3699 24.3075 64.3372 23.5053 63.6169C13.8632 55.0715 15.8112 39.2413 27.2542 33.1024C27.5488 32.9551 27.8108 32.775 28.0563 32.6277C26.2883 31.7928 24.553 31.0397 22.8669 30.1885C22.3103 29.9102 21.9829 29.9593 21.5245 30.3194C14.6489 35.7872 11.4076 42.8919 11.9642 51.6665C12.6517 62.209 20.8697 71.5238 31.2649 73.4391C33.5895 73.8648 35.996 73.7993 38.3533 74.1103C47.9628 75.4036 54.6583 82.9013 54.9693 92.6089C55.0184 94.3278 56.148 95.5229 57.7032 95.5229C59.2911 95.5229 60.4534 94.2623 60.4043 92.4943C60.257 86.2899 58.1288 80.8386 53.8889 76.304C49.1251 71.2128 43.199 68.6426 36.2252 68.5444C33.7532 68.5116 31.3795 68.1024 29.0877 67.1693C28.2528 66.8255 27.9254 66.0725 28.1873 65.3194C28.4492 64.5827 29.2186 64.2553 30.0535 64.5009C30.2008 64.55 30.3482 64.6155 30.4955 64.6646C33.4913 65.7614 36.5362 65.9906 39.6466 65.2867C43.0189 64.5009 45.8182 62.8475 48.2247 60.1627ZM47.2916 28.2077C45.7691 27.2091 42.3804 25.9976 40.0067 25.7357C37.9932 25.5229 35.9632 25.5393 33.9497 25.261C24.3402 23.9677 17.612 16.4701 17.3173 6.79513C17.2682 5.02712 16.1059 3.81571 14.518 3.84845C12.93 3.8812 11.7514 5.15809 11.8823 6.92609C12.0297 8.87417 12.1934 10.855 12.7009 12.7376C15.5329 23.4275 24.8968 30.6632 35.9796 30.8269C39.3028 30.876 42.4296 31.6291 45.3435 33.2497C45.5236 33.348 45.7364 33.3971 45.8674 33.4462C46.3421 31.7109 46.8005 29.992 47.2916 28.2077ZM20.264 8.07202C20.4113 10.0528 20.9352 11.8536 21.8028 13.5561C21.9338 13.818 22.3594 14.0636 22.6541 14.0636C31.6414 14.0963 40.6452 14.0963 49.6325 14.0636C49.9108 14.0636 50.3201 13.8508 50.4347 13.6216C51.3351 11.9027 51.8753 10.0528 52.0063 8.05565C41.4146 8.07202 30.8557 8.07202 20.264 8.07202ZM52.0226 91.3157C51.8917 89.3185 51.3351 87.485 50.4511 85.7497C50.3365 85.5205 49.9272 85.3077 49.6489 85.3077C40.6616 85.2913 31.6578 85.2913 22.6704 85.3077C22.3758 85.3077 21.9338 85.5696 21.8028 85.8152C20.9352 87.5177 20.395 89.3348 20.264 91.3157C30.8557 91.3157 41.4146 91.3157 52.0226 91.3157ZM20.264 51.1263C20.4113 53.2217 20.9679 55.0552 21.8683 56.7741C21.9829 57.0032 22.4085 57.1997 22.6868 57.1997C31.6414 57.216 40.6124 57.2324 49.5671 57.1833C49.8945 57.1833 50.402 56.8559 50.5329 56.5612C50.9913 55.4972 51.4006 54.384 51.7116 53.2708C52.1045 51.8466 51.4988 51.1426 50.0091 51.1426C40.4487 51.1426 30.8884 51.1426 21.3117 51.1426C21.017 51.1263 20.706 51.1263 20.264 51.1263ZM20.264 48.2123C29.8407 48.2123 39.3028 48.2123 48.7158 48.2123C47.8809 46.1988 47.0624 44.2179 46.2275 42.2044C46.2766 42.2207 46.2439 42.2044 46.2275 42.2044C38.3369 42.188 30.4464 42.1716 22.5559 42.188C22.3103 42.188 21.9502 42.4008 21.8356 42.6136C20.9516 44.3489 20.395 46.1824 20.264 48.2123ZM28.04 75.7474C26.2228 74.8797 24.4057 74.0121 22.5722 73.1936C22.343 73.0954 21.901 73.1936 21.6719 73.3573C19.5764 74.8797 17.7921 76.7132 16.3024 78.825C13.4048 82.934 11.9642 87.5177 11.866 92.5271C11.8332 94.4915 13.4375 95.883 15.1892 95.4574C16.5315 95.13 17.2518 94.0823 17.3337 92.478C17.6775 85.0949 21.0989 79.6272 27.5816 76.0584C27.7617 75.9438 27.9254 75.8292 28.04 75.7474ZM48.6012 25.5229C48.6503 25.4902 48.6994 25.4738 48.7158 25.4574C48.8795 25.2282 49.0268 24.9827 49.1905 24.7535C50.9749 21.9214 53.1849 19.4331 56.1316 17.8615C58.1452 16.7811 59.0455 15.2423 59.5203 13.2123C59.6185 12.7867 59.7822 12.3611 59.8313 11.9191C60.0441 10.2002 60.3224 8.46492 60.4043 6.74602C60.4861 5.09261 59.2747 3.89756 57.7523 3.88119C56.2298 3.86482 55.0675 5.02712 54.9857 6.66417C54.9857 6.82787 54.9857 6.97521 54.9693 7.13891C54.6746 13.3597 52.0063 18.3035 46.9805 21.9705C46.0965 22.609 45.1143 23.1328 44.1648 23.7385C45.6545 24.3115 47.1115 24.9008 48.6012 25.5229ZM24.1929 82.361C32.2144 82.361 40.1377 82.361 48.1101 82.361C42.1349 75.0107 30.1354 75.0271 24.1929 82.361ZM24.1438 17.0103C30.5446 24.6553 42.5114 24.0659 48.0774 17.0103C40.1213 17.0103 32.198 17.0103 24.1438 17.0103ZM45.7528 39.2413C46.0147 37.7025 45.6545 36.6221 44.1485 35.8363C39.7939 33.528 35.3248 33.0369 30.6756 34.6903C28.1382 35.5907 25.9773 37.0804 24.0947 39.2577C31.4286 39.2413 38.5989 39.2413 45.7528 39.2413ZM54.3636 54.5477C52.7757 60.0809 49.3379 64.1571 44.2303 66.7273C46.0802 67.6113 47.8482 68.4625 49.6325 69.2483C49.8945 69.3629 50.3856 69.2974 50.6148 69.1174C51.6789 68.2661 52.7429 67.3985 53.676 66.4162C56.1971 63.8133 58.0306 60.7848 59.1438 57.3798C57.5395 56.4303 56.0006 55.5135 54.3636 54.5477Z" fill="white"/>
<path d="M61.8636 43.0389C59.9646 43.0389 58.1638 43.0389 56.3631 43.0389C53.7111 43.0389 52.1068 41.451 52.0904 38.7826C52.074 37.3584 52.074 35.9342 52.0904 34.5099C52.1231 32.0216 53.6947 30.4337 56.2158 30.3846C58.0492 30.3518 59.8827 30.3846 61.8636 30.3846C61.8636 29.9917 61.8636 29.6479 61.8636 29.3205C61.8636 27.7653 61.8472 26.2101 61.8636 24.6549C61.9127 22.2485 63.5497 20.6114 65.9562 20.5787C67.4459 20.5623 68.9356 20.5623 70.4253 20.5787C72.8808 20.6114 74.5179 22.2485 74.5506 24.7204C74.567 26.5539 74.5506 28.3874 74.5506 30.3846C75.32 30.3846 76.0403 30.3846 76.7606 30.3846C78.0539 30.3846 79.3635 30.3355 80.6568 30.4173C82.7686 30.5646 84.2583 32.1035 84.3238 34.1989C84.3729 35.885 84.3729 37.5548 84.3238 39.241C84.2583 41.4346 82.5885 43.0225 80.3785 43.0389C78.4795 43.0553 76.5806 43.0389 74.567 43.0389C74.567 44.856 74.5834 46.624 74.5506 48.392C74.5343 49.0141 74.5015 49.6853 74.2887 50.2583C73.6666 51.9608 72.357 52.7957 70.5726 52.8612C69.0174 52.9103 67.4622 52.9103 65.907 52.8612C63.4842 52.7793 61.9127 51.1423 61.8799 48.7195C61.8472 46.8532 61.8636 45.0197 61.8636 43.0389ZM59.5881 40.1741C60.7012 40.1741 61.8144 40.1741 62.9113 40.1741C64.2045 40.1905 64.6956 40.6652 64.6956 41.9421C64.712 44.103 64.6956 46.2475 64.6956 48.4084C64.6956 49.6362 65.0558 49.98 66.2836 49.9964C67.5441 50.0127 68.821 50.0127 70.0815 49.9964C71.3093 49.98 71.6531 49.6362 71.6694 48.4084C71.6694 46.2803 71.6694 44.1685 71.6694 42.0403C71.6694 40.6325 72.1442 40.1905 73.5684 40.1741C75.6966 40.1741 77.8083 40.1741 79.9365 40.1741C81.1315 40.1741 81.4426 39.8467 81.4426 38.6516C81.4589 37.3584 81.4589 36.0487 81.4426 34.7555C81.4262 33.5441 81.1479 33.233 79.9201 33.233C77.792 33.2167 75.6802 33.233 73.552 33.233C72.1114 33.233 71.6694 32.7747 71.6694 31.3668C71.6694 29.3041 71.6694 27.2414 71.6694 25.1951C71.6694 23.7382 71.3911 23.4435 69.9833 23.4435C68.7555 23.4435 67.5113 23.4435 66.2836 23.4435C65.0394 23.4435 64.712 23.7709 64.6956 25.0151C64.6956 27.045 64.6956 29.0749 64.6956 31.1049C64.6956 32.9056 64.3519 33.2494 62.5184 33.2494C60.4884 33.2494 58.4585 33.2494 56.4286 33.2494C55.2172 33.2494 54.9225 33.5604 54.9225 34.7882C54.9061 36.147 54.9061 37.5057 54.9225 38.8808C54.9389 39.8467 55.299 40.1905 56.2485 40.2068C57.3781 40.1905 58.4912 40.1741 59.5881 40.1741Z" fill="white"/>
</g>
<defs>
<clipPath id="clip0_1796_2777">
<rect width="100" height="100" fill="white"/>
</clipPath>
</defs>
</svg>
