<svg width="100" height="100" viewBox="0 0 100 100" fill="none" xmlns="http://www.w3.org/2000/svg">
<path d="M49.1678 17.4651C50.3396 18.051 51.3543 17.1507 51.3543 15.5215C51.3543 14.221 50.8112 13.4922 49.8537 13.4922C48.0102 13.4922 47.4815 16.6219 49.1678 17.4651Z" fill="white"/>
<path d="M48.1992 23.3096C48.3564 24.4957 48.6565 25.2389 49.0709 25.5104C49.514 25.8105 50.7287 25.6962 51.0288 25.3246C51.4289 24.8387 51.5719 22.5236 51.2575 21.5518C50.9002 20.48 49.9141 20.037 49.0852 20.58C48.2992 21.1088 48.0134 21.952 48.1992 23.3096Z" fill="white"/>
<path d="M48.0378 61.8227C47.7091 62.6801 48.0378 65.0953 48.5666 65.7813C49.1811 66.5673 50.1528 66.553 50.7959 65.7384C51.2247 65.1953 51.2818 64.9095 51.1818 63.3518C51.096 61.9513 50.9817 61.494 50.6102 61.1224C49.767 60.2507 48.4951 60.608 48.0378 61.8227Z" fill="white"/>
<path d="M90.3702 20.5364C89.5556 20.4792 89.327 20.5793 88.3123 21.4939C85.2541 24.2092 77.9371 24.6236 73.4355 22.3371C72.0779 21.6511 69.3483 19.2931 68.3336 17.9497C67.1046 16.3206 65.5469 12.9479 65.1039 10.9901C64.9038 10.0755 64.6466 8.96078 64.5323 8.50347C64.2464 7.27445 62.9888 6.51703 60.2021 5.88823C55.1574 4.73067 46.5829 4.70209 39.809 5.81678C36.565 6.34554 35.0501 6.83143 34.65 7.48881C34.4785 7.76034 34.2927 8.78928 34.2213 9.77536C34.0498 12.2477 33.4067 14.177 31.949 16.5635C28.7479 21.8369 25.561 23.8233 19.9304 24.0663C15.7289 24.252 12.7706 23.4232 10.3841 21.4224C9.14076 20.3792 8.19756 20.2363 7.51159 20.9937C7.11145 21.4367 7.08287 21.9655 7.01141 28.7251C6.92567 37.0995 7.3401 53.0339 7.68308 54.12C7.88316 54.7488 8.22614 55.0203 10.1411 55.9921C12.7421 57.3355 13.9568 58.4501 14.8714 60.3508C15.9289 62.5659 16.1433 64.2951 15.7146 66.8532C15.243 69.6256 14.3998 71.8836 13.0708 73.8986C11.9561 75.5992 11.1986 76.3709 9.35512 77.7571C6.85421 79.6292 6.99712 80.1866 11.1986 85.2313C14.6427 89.3614 18.1726 92.5053 21.3881 94.3203C22.4599 94.9205 22.9029 95.0491 23.8175 94.992C24.9322 94.9348 24.9322 94.9348 26.0326 93.3056C27.6618 90.9048 31.3917 87.1891 33.6496 85.7172C37.1938 83.4163 41.0523 81.8443 44.8966 81.1298C47.8405 80.5724 53.4139 80.7868 56.0149 81.5299C62.3743 83.3735 68.5766 87.7608 71.6777 92.6197C72.2779 93.5629 72.9925 93.8058 74.1357 93.4771C76.5938 92.7483 88.198 84.4882 88.7839 83.0448C89.1412 82.1873 88.7982 81.3442 87.9836 81.0298C87.2119 80.7296 86.9547 80.8583 84.368 82.8304C82.1815 84.4882 78.4659 87.0033 75.4648 88.8326L74.0214 89.7186L73.2211 88.704C71.6063 86.6747 68.7481 84.1023 66.1471 82.4017C62.0599 79.7007 57.787 78.0144 53.3997 77.3856L51.4847 77.1141V75.2991C51.4847 74.2988 51.3846 73.0983 51.2417 72.6267C50.9416 71.5406 50.0985 70.9404 49.2696 71.2405C48.3121 71.5835 48.0834 72.3123 48.1406 74.8275L48.1978 77.0855L47.4118 77.1426C44.2964 77.3999 38.7372 78.929 36.0219 80.2866C33.8211 81.387 31.2488 83.0448 29.6625 84.3881C28.2048 85.6171 24.5463 89.6472 23.7032 90.9333L23.3602 91.4621L21.6739 90.3188C20.745 89.69 19.2301 88.5325 18.3012 87.7608C16.5863 86.3031 11.756 81.1012 11.7417 80.6868C11.7417 80.5582 12.4705 79.8007 13.3566 79.0005C16.7006 75.9851 19.0158 71.0118 19.5302 65.7814C19.8589 62.3801 18.2441 57.9357 15.7717 55.4633L14.4713 54.1629L15.5145 54.0057C17.4438 53.7199 18.2441 52.1907 16.9865 51.1904C16.4005 50.7188 16.2147 50.7045 13.7424 50.8331L11.1129 50.976L10.97 48.8895C10.7556 45.7455 10.2697 26.1527 10.3984 26.0241C10.4555 25.9669 11.313 26.2099 12.299 26.5672C14.8285 27.4961 17.1008 27.8105 20.2448 27.6676C26.2755 27.396 30.6057 24.938 33.864 19.9076C36.1505 16.3777 37.4796 12.9194 37.4796 10.4756C37.4796 10.0469 37.5796 9.63245 37.694 9.56099C38.0798 9.31805 42.5386 8.77499 45.2967 8.61779L48.0263 8.46059L48.1549 9.41808C48.3121 10.5756 48.8694 11.2473 49.6697 11.2473C50.5986 11.2473 51.0988 10.7471 51.2417 9.64674L51.3703 8.66067L53.7426 8.73212C55.9434 8.78929 58.8731 9.18943 60.7595 9.68961C61.5455 9.88968 61.574 9.94685 61.8456 11.4331C62.16 13.1766 63.4033 16.3349 64.6609 18.55C66.1471 21.2224 69.3769 24.2806 72.1493 25.6525C74.6502 26.8958 76.9796 27.396 80.2808 27.396C83.3677 27.396 85.5542 26.9816 87.955 25.9526C88.5553 25.6954 89.0983 25.5525 89.1841 25.624C89.3841 25.8097 89.5127 50.5902 89.327 52.2908L89.1841 53.677L87.1119 54.8917C82.3673 57.6784 79.9521 61.5513 79.9521 66.3959C79.9521 69.5399 81.0382 72.6267 83.039 75.2277C85.0254 77.8143 88.0265 79.9008 89.3127 79.5864C90.556 79.272 90.999 77.6571 90.0701 76.8139C89.7843 76.5567 88.9268 75.885 88.1551 75.3134C85.2541 73.1698 83.7964 70.4259 83.6249 66.8246C83.4105 62.2229 85.154 59.5648 90.1844 56.8781C93.0712 55.3347 92.9283 55.8921 93.0283 46.0742C93.114 38.1428 92.8139 27.9677 92.3852 23.7947C92.0994 21.2795 91.6992 20.6364 90.3702 20.5364Z" fill="white"/>
<path d="M85.7386 52.7753C87.0105 52.3323 87.1677 50.6888 85.9958 50.06C85.3241 49.7028 83.8665 49.7171 83.4092 50.0886C82.4517 50.8889 82.6232 52.3466 83.7378 52.761C84.5381 53.0611 84.9383 53.0611 85.7386 52.7753Z" fill="white"/>
<path d="M54.9826 49.7634C54.4396 50.3064 54.5253 51.564 55.1255 51.9928C55.8973 52.5358 58.0266 52.4644 58.6411 51.8784C59.2556 51.3068 59.2842 50.2778 58.6983 49.7634C57.8837 49.006 55.7258 49.006 54.9826 49.7634Z" fill="white"/>
<path d="M62.2473 49.8885C61.7042 50.6173 61.9472 51.6177 62.776 52.0607C63.4048 52.3894 65.0197 52.2322 65.9486 51.7606C67.6207 50.8888 66.7489 48.9167 64.7053 48.9739C63.3334 49.0025 62.7475 49.2311 62.2473 49.8885Z" fill="white"/>
<path d="M71.893 49.5066C70.764 50.6355 71.45 51.8217 73.3792 52.1218C75.037 52.379 76.7376 52.2218 77.2378 51.7502C77.495 51.5216 77.6522 51.0643 77.6522 50.607C77.6522 49.4351 76.6947 48.9492 74.3081 48.9492C72.6361 48.9492 72.3931 49.0064 71.893 49.5066Z" fill="white"/>
<path d="M51.3385 49.716C50.624 49.2444 48.4232 49.2587 47.6943 49.7446C46.9369 50.2448 46.7797 51.1165 47.3371 51.8597C47.58 52.2027 47.8658 53.0172 47.9516 53.6889C48.0659 54.5035 48.2946 55.0751 48.6518 55.4324C49.2949 56.0755 49.8809 56.1041 50.5811 55.5324C51.0241 55.1752 51.1242 54.8751 51.1527 53.7032C51.1813 52.7886 51.3099 52.1741 51.5529 51.9168C52.1245 51.288 52.0102 50.1591 51.3385 49.716Z" fill="white"/>
<path d="M48.5276 35.4027C49.0993 35.9744 50.1425 35.9887 50.657 35.417C51.1714 34.8454 51.4573 32.5017 51.1286 31.5156C51 31.1155 50.6141 30.6296 50.2997 30.4438C49.7709 30.1437 49.6423 30.158 49.0993 30.501C48.3133 31.0154 48.0703 31.7157 48.0703 33.4878C48.0703 34.6453 48.1703 35.0455 48.5276 35.4027Z" fill="white"/>
<path d="M48.6432 45.1164C49.1863 45.7166 50.3582 45.7023 50.9155 45.0878C51.2728 44.6877 51.3442 44.2875 51.3156 42.6012C51.3014 41.1721 51.187 40.429 50.9155 40.0288C50.1009 38.7855 48.4432 39.1999 48.1574 40.7148C47.9144 42.0867 48.1859 44.6162 48.6432 45.1164Z" fill="white"/>
<path d="M29.9036 52.9625C30.2037 53.3912 30.461 53.4627 31.6757 53.4627C34.0337 53.4627 34.9769 52.9196 34.9769 51.5906C34.9769 50.6188 34.2195 50.1901 32.5903 50.2472C30.0036 50.333 28.8604 51.4762 29.9036 52.9625Z" fill="white"/>
<path d="M21.0727 53.4206C21.8301 53.8493 23.3878 53.7493 23.9023 53.2348C24.3453 52.7918 24.5025 51.7628 24.1881 51.2912C23.9023 50.8625 23.0591 50.5195 22.2588 50.5195C20.3724 50.5338 19.5436 52.5631 21.0727 53.4206Z" fill="white"/>
<path d="M40.4241 50.4025C39.8239 50.9456 39.8096 51.9745 40.3955 52.5747C41.0815 53.2607 42.7249 53.2035 43.4538 52.4747C44.1254 51.803 44.154 51.2314 43.5824 50.5168C43.0107 49.8023 41.1529 49.7308 40.4241 50.4025Z" fill="white"/>
</svg>
