<svg width="100" height="100" viewBox="0 0 100 100" fill="none" xmlns="http://www.w3.org/2000/svg">
<path fill-rule="evenodd" clip-rule="evenodd" d="M54.1879 7L57.0625 7.13689L59.8686 7.37644L62.6235 7.83843L65.327 8.43731L67.9791 9.2244L70.5115 10.1484L73.0268 11.2264L75.4052 12.4412L77.7494 13.793L79.9567 15.3158L82.0442 16.9414L84.0633 18.7038L85.9625 20.5517L87.7592 22.5195L89.4189 24.607L90.9076 26.7801L92.3107 29.0729L93.5426 31.4342L94.6548 33.881L95.5959 36.4134L96.3659 38.9971L97.0332 41.6493L97.4439 44.3528L97.7519 47.1419L97.8203 49.9651L97.7519 52.7884L97.4439 55.5775L97.0332 58.281L96.3659 60.9332L95.5959 63.5169L94.6548 66.0493L93.5426 68.4961L92.3107 70.8574L90.9076 73.1502L89.4189 75.3233L87.7592 77.4108L85.9625 79.3786L84.0633 81.2265L82.0442 82.9547L79.9567 84.6145L77.7494 86.1031L75.4052 87.4891L73.0268 88.6697L70.5115 89.7819L67.9791 90.7059L65.327 91.493L62.6235 92.0919L59.8686 92.5539L57.0625 92.7934L54.1879 92.9303L51.3646 92.7934L48.5926 92.5539L45.8207 92.109L43.1514 91.5101L40.5335 90.7401L38.0011 89.8333L35.5371 88.7895L33.1587 87.5575L30.8488 86.24L28.6415 84.7685L26.5368 83.1772L24.5349 81.4147L22.6356 79.601L20.8561 77.6504L19.2134 75.6142L17.6564 73.4754L16.2875 71.2338L15.0213 68.9068L13.9091 66.5113L12.9509 64.0302L12.1125 61.4807L11.4623 58.8456L10.966 56.1592L10.658 53.4557L10.4869 50.6496H4.08751L3.53997 50.5811L3.04375 50.3929L2.6331 50.0678L2.3251 49.6914L2.10266 49.2636L2 48.7674L2.01711 48.2883L2.154 47.775L2.49621 47.313L3.71108 45.6361L6.07236 42.4364L8.58764 39.3736L11.2398 36.3963L13.9604 33.4875L14.046 33.4361L14.5251 32.9742L15.0384 32.6833L15.6202 32.4608L16.2362 32.4095L16.835 32.4608L17.4168 32.6833L17.9301 32.9742L18.4092 33.4361L21.1983 36.345L23.8333 39.3736L26.3828 42.4877L28.8126 45.6875L29.959 47.313L30.2499 47.775L30.4039 48.2883L30.4381 48.7674L30.3012 49.2636L30.0959 49.6914L29.7708 50.0678L29.3943 50.3929L28.8981 50.5811L28.3335 50.6496H21.934L22.0538 52.8398L22.3447 54.9957L22.7725 57.0832L23.32 59.1194L23.9873 61.1043L24.7744 63.0207L25.7155 64.8857L26.7935 66.6824L27.957 68.3763L29.2232 70.0361L29.7366 69.249L30.4039 68.5817L31.1568 67.9486L31.9781 67.3497L32.9705 66.8706L34.0485 66.4257L35.5371 65.8611L36.8546 65.2964L38.1551 64.7489L39.2844 64.2184L40.3623 63.7222L41.2692 63.2602L42.1076 62.8325L42.8263 62.456L43.4081 62.0967L43.8701 61.8571L44.1952 61.6347L44.4005 61.532L44.4689 61.4807L49.4653 77.0857L50.1668 79.1904L52.4254 72.9278L51.7581 71.9867L51.2619 71.1825L50.8684 70.3954L50.5775 69.6768L50.3722 69.0608L50.3037 68.5132L50.2695 67.9999L50.3208 67.5721L50.4406 67.1615L50.5775 66.8364L50.817 66.5626L51.0737 66.3059L51.3475 66.1006L51.6555 65.9466L51.9463 65.7755L52.2543 65.7071L52.5794 65.6215L52.8874 65.5702L53.1612 65.5359L53.4179 65.5188H53.6403H53.7772H53.8627H53.9996H54.205L54.4616 65.5359L54.7696 65.5702L55.0434 65.6215L55.3685 65.7071L55.6765 65.7755L56.0016 65.9466L56.3096 66.1006L56.5834 66.3059L56.84 66.5626L57.0625 66.8364L57.2165 67.1615L57.3362 67.5721L57.3876 67.9999L57.3362 68.5132L57.2507 69.0608L57.0625 69.6768L56.7545 70.3954L56.3609 71.1825L55.8647 71.9867L55.2316 72.9278L57.4731 79.1904L58.1575 77.0857L63.1539 61.4807L63.2395 61.532L63.4619 61.6347L63.7528 61.8571L64.2319 62.0967L64.8136 62.456L65.5152 62.8325L66.3536 63.2602L67.2947 63.7222L68.3385 64.2184L69.502 64.7489L70.7682 65.2964L72.0857 65.8611L73.5744 66.4257L74.601 66.8364L75.5421 67.2984L76.3634 67.8459L77.0478 68.4106L77.6809 69.0608L78.2456 69.7452L78.7076 70.4981L80.0936 68.787L81.3598 67.0075L82.4891 65.1082L83.4815 63.1233L84.3712 61.07L85.0899 58.9825L85.6375 56.7924L86.0823 54.5679L86.2877 52.2751L86.3732 49.9651L86.2877 47.5868L86.0481 45.2768L85.6375 43.0353L85.0215 40.8109L84.2857 38.672L83.3959 36.6016L82.3864 34.5997L81.1887 32.7004L79.8882 30.8866L78.4851 29.1927L76.9452 27.5671L75.3197 26.0443L73.5572 24.6412L71.7264 23.3921L69.7758 22.2286L67.7225 21.2191L65.6692 20.3293L63.479 19.6278L61.2546 19.0289L58.9275 18.6182L56.5834 18.3444L54.1879 18.276L51.9806 18.3444L49.8075 18.5669L47.6173 18.9262L45.4956 19.4395L43.4081 20.1069L41.3548 20.8768L39.3699 21.8179L37.4364 22.8788L36.6493 23.2895L35.7596 23.5461L34.904 23.6659H33.9971L33.1416 23.529L32.3032 23.2895L31.5332 22.8788L30.7974 22.3655L30.1643 21.7324L29.5997 20.9795L29.189 20.1924L28.9152 19.3198L28.8126 18.4642V17.5916L28.9495 16.7531L29.189 15.9147L29.5997 15.1618L30.1301 14.4432L30.7632 13.793L31.5332 13.2625L33.826 11.9792L36.2044 10.8499L38.6513 9.84039L41.1323 8.98485L43.6989 8.2662L46.2485 7.73576L48.8835 7.32511L51.5357 7.08556L54.1879 7Z" stroke="white" stroke-width="0.8985" stroke-miterlimit="10"/>
<path fill-rule="evenodd" clip-rule="evenodd" d="M53.3294 24.7812L54.5271 24.8326L55.6564 25.0208L56.7002 25.209L57.6413 25.517L58.4968 25.825L59.2839 26.2186L60.0539 26.6463L60.7383 27.0912L61.303 27.5361L61.7821 27.9467L62.1756 28.3061L62.4494 28.6483L62.6548 28.8878L62.7745 29.0761L62.7916 29.1274H62.8259H62.9114L63.0654 29.1616L63.305 29.2129L63.5445 29.2985L63.8183 29.4012L64.1092 29.5552L64.4685 29.7434L64.7765 29.9487L65.1358 30.2738L65.4609 30.616L65.786 31.0438L66.0769 31.54L66.3849 32.1047L66.5902 32.7378L66.8298 33.4906L66.9496 34.3119L67.0351 35.2702L67.0693 36.2797L67.018 37.409L66.8982 38.6923L66.6587 40.0612L66.4362 40.8825L66.1111 41.738H66.4191L66.6587 41.7722L66.9496 41.8236L67.1891 41.9262L67.4287 42.0802L67.5998 42.3198L67.7538 42.6107L67.8393 43.0042L67.8735 43.4662V44.0138L67.788 44.6811L67.634 45.4511L67.3944 46.3579L67.0351 47.3675L66.6758 48.1888L66.3507 48.8732L66.0256 49.3865L65.7176 49.7459L65.3925 50.0196L65.1529 50.1565L64.862 50.2079L64.6567 51.1832L64.2974 52.2098L63.8525 53.2536L63.2536 54.2631L62.5008 55.2726L61.6965 56.248L60.8068 57.1548L59.7801 57.9761L58.6508 58.7119L57.4189 59.3621L56.1184 59.8583L54.8522 60.1834L53.5518 60.3374H52.2343L50.951 60.2005L49.6848 59.8583L48.4699 59.4135L47.3406 58.8488L46.2797 58.2157L45.3386 57.4457L44.4318 56.6415L43.6618 55.8031L42.9774 54.8791L42.3785 53.9722L41.8652 53.014L41.4545 52.0558L41.1465 51.1318L40.9412 50.225L40.7016 50.1736L40.4108 50.0196L40.1028 49.7459L39.7776 49.4037L39.4868 48.8732L39.1274 48.2059L38.8194 47.3846L38.443 46.3579L38.2035 45.4853L38.0152 44.6811L37.9297 44.048V43.4833L37.9639 43.0042L38.0837 42.6449L38.2206 42.354L38.443 42.1145L38.6483 41.9434L38.905 41.8407L39.1446 41.7722L39.4525 41.738H39.7263L39.4183 40.8825L39.213 40.0612L39.0077 38.9319L38.905 37.8368L38.8879 36.7759L38.9734 35.715L39.1788 34.7055L39.5723 33.5933L40.0514 32.5838L40.6161 31.6085L41.2492 30.7187L41.9507 29.8974L42.7036 29.1787L43.7473 28.289L44.8253 27.519L45.9889 26.7661L46.9813 26.2186L48.025 25.7395L49.1543 25.3459L50.0783 25.1064L51.0365 24.9352L52.0461 24.8326L53.3294 24.7812Z" stroke="white" stroke-width="0.8985" stroke-miterlimit="10"/>
</svg>
