<svg width="100" height="100" viewBox="0 0 100 100" fill="none" xmlns="http://www.w3.org/2000/svg">
<path d="M94.4735 92.9403C93.9737 93.1652 93.1241 93.49 91.6996 93.49C89.6005 93.49 88.6259 92.8403 87.4014 92.0156C83.3031 89.2668 79.1298 89.1918 74.9065 92.0156C73.682 92.8403 72.7074 93.49 70.5833 93.49C68.4842 93.49 67.5346 92.8403 66.3101 92.0406C62.1618 89.2668 57.9885 89.2418 53.7902 92.0406C52.5657 92.8653 51.5911 93.515 49.492 93.515C47.3928 93.515 46.4182 92.8653 45.1937 92.0406C41.0704 89.2918 36.8971 89.2418 32.6738 92.0406C31.4493 92.8653 30.4748 93.515 28.3756 93.515C26.2765 93.515 25.3019 92.8653 24.0774 92.0406C19.9541 89.2918 15.7808 89.2418 11.5575 92.0406C10.333 92.8653 9.35842 93.515 7.25928 93.515C5.85985 93.515 5.06018 93.2152 4.5104 92.9653C2.41126 91.9657 0.911878 95.1644 3.01102 96.139C5.80987 97.4634 9.70827 97.5134 13.5067 94.9644C14.7312 94.1398 15.7058 93.49 17.805 93.49C19.9041 93.49 20.8787 94.1398 22.1032 94.9644C26.2265 97.7133 30.3998 97.7633 34.6231 94.9644C35.8476 94.1398 36.8221 93.49 38.9213 93.49C41.0204 93.49 41.995 94.1398 43.2195 94.9644C47.3428 97.7133 51.5161 97.7633 55.7394 94.9644C56.9639 94.1398 57.9385 93.49 60.0376 93.49C62.1368 93.49 63.1114 94.1398 64.3359 94.9644C68.5092 97.7633 72.6824 97.7383 76.8557 94.9644C78.0802 94.1398 79.0548 93.49 81.154 93.49C83.2531 93.49 84.2277 94.1398 85.4522 94.9644C89.2756 97.5134 93.224 97.4384 95.9979 96.139C98.072 95.1144 96.5726 91.9407 94.4735 92.9403Z" fill="white"/>
<path d="M94.4798 78.8685C93.98 79.0934 93.1303 79.4183 91.7059 79.4183C89.6068 79.4183 88.6322 78.7685 87.4077 77.9439C83.2094 75.145 79.0111 75.195 74.8878 77.9439C73.7883 78.6686 74.1131 84.4912 74.1131 23.1163C78.5863 23.1163 90.7313 23.1163 95.2294 23.1163C97.5535 23.1163 97.5535 19.5928 95.2294 19.5928H91.7059V16.9439C91.7059 8.69726 85.0086 2 76.762 2C68.5154 2 61.8182 8.69726 61.8182 16.9439V19.5928H47.7489V16.9439C47.7489 8.69726 41.0517 2 32.8051 2C24.5584 2 17.8612 8.69726 17.8612 16.9439V19.5928H3.79196C1.46792 19.5928 1.46792 23.1163 3.79196 23.1163H17.8612V75.8947C12.1385 75.8947 11.6137 79.4183 7.29052 79.4183C5.8911 79.4183 5.09143 79.1184 4.54165 78.8685C2.44251 77.8689 0.943129 81.0676 3.04227 82.0422C5.84112 83.3666 9.73952 83.4166 13.538 80.8677C14.9874 79.8931 16.5867 78.9934 19.2856 79.5182C22.5093 80.1429 23.184 82.9168 28.4319 82.9168C34.1295 82.9168 34.6043 79.3933 38.9775 79.3933C43.3507 79.3933 43.7756 82.9168 49.5232 82.9168C55.2209 82.9168 55.7457 79.3933 60.0689 79.3933C64.592 79.3933 64.7669 82.9168 70.6145 82.9168C76.4871 82.9168 76.6871 79.3933 81.1852 79.3933C85.5584 79.3933 85.9833 82.9168 91.7309 82.9168C99.6526 82.9168 96.9537 77.669 94.4798 78.8685ZM79.386 19.5928H74.1131V16.9439C74.1131 14.5948 76.9869 13.4203 78.6113 15.0696C79.5609 16.0193 79.386 16.7689 79.386 19.5928ZM35.404 19.5928H30.1312V16.9439C30.1312 14.5948 33.005 13.4203 34.6293 15.0696C35.5789 16.0193 35.404 16.7689 35.404 19.5928ZM30.1312 23.1163C41.3016 23.1163 50.6977 23.1163 61.7932 23.1163V33.662H30.1312V23.1163ZM49.4732 79.4183C47.3741 79.4183 46.3995 78.7685 45.175 77.9439C37.5281 72.8459 32.88 78.5186 30.1312 79.2183V67.0983H61.7932V76.0446C54.796 74.9451 54.2962 79.4183 49.4732 79.4183ZM70.5896 79.4183C67.9157 79.4183 67.116 78.4187 65.3167 77.3441V65.349C65.3167 64.3744 64.517 63.5997 63.5674 63.5997H28.3819C27.4073 63.5997 26.6326 64.3744 26.6326 65.349V79.2433C24.6584 78.7685 23.6838 77.3441 21.3598 76.4944V16.9439C21.3598 13.8951 22.5593 11.0213 24.7084 8.87218C31.8804 1.70012 44.2254 6.77305 44.2254 16.9439V19.5928H38.9525C38.9525 16.8939 39.2524 14.6948 37.1533 12.5957C33.3049 8.74723 26.6326 11.4711 26.6326 16.9439V35.4113C26.6326 36.3859 27.4323 37.1606 28.3819 37.1606H63.5674C64.542 37.1606 65.3167 36.3859 65.3167 35.4113V16.9439C65.3167 13.8951 66.5162 11.0213 68.6653 8.87218C75.8374 1.70012 88.1823 6.77305 88.1823 16.9439V19.5928H82.9095C82.9095 16.8939 83.2094 14.6948 81.1102 12.5957C77.2618 8.74723 70.5896 11.4711 70.5896 16.9439V79.4183Z" fill="white"/>
<path d="M63.5638 42.4609H28.3782C27.4036 42.4609 26.6289 43.2356 26.6289 44.2102V56.5302C26.6289 57.5048 27.4286 58.2794 28.3782 58.2794H63.5638C64.5384 58.2794 65.313 57.5048 65.313 56.5302V44.2102C65.313 43.2606 64.5384 42.4609 63.5638 42.4609ZM61.7895 54.7809H30.1275V45.9845H61.7895V54.7809Z" fill="white"/>
</svg>
