<svg width="100" height="100" viewBox="0 0 100 100" fill="none" xmlns="http://www.w3.org/2000/svg">
<path d="M85.4289 19.6524C85.4289 24.4267 81.5507 28.3049 76.7625 28.3049C74.6904 28.3049 72.8003 27.5908 71.3162 26.3868C69.3421 24.8047 68.082 22.3826 68.082 19.6524C68.082 18.3784 68.362 17.1463 68.8661 16.0543C70.2381 13.0721 73.2623 11 76.7625 11C81.5367 11 85.4289 14.8782 85.4289 19.6524Z" stroke="white" stroke-width="2.0001" stroke-miterlimit="10" stroke-linecap="round" stroke-linejoin="round"/>
<path d="M23.2656 80.5388V42.9609C25.6317 46.0551 29.3559 48.0572 33.5561 48.0572C37.0143 48.0572 40.1505 46.6991 42.4746 44.487V80.5388" stroke="white" stroke-width="2.0001" stroke-miterlimit="10" stroke-linecap="round" stroke-linejoin="round"/>
<path d="M46.468 35.1775C46.468 35.9336 46.398 36.6896 46.272 37.4176C45.796 40.1758 44.4239 42.6399 42.4778 44.488C40.1677 46.7001 37.0315 48.0582 33.5594 48.0582C29.3592 48.0582 25.635 46.0561 23.2688 42.9619C21.6168 40.7918 20.6367 38.1037 20.6367 35.1775C20.6367 28.0652 26.419 22.2969 33.5594 22.2969C35.7435 22.2969 37.8016 22.8289 39.5937 23.7809C43.6819 25.9511 46.468 30.2353 46.468 35.1775Z" stroke="white" stroke-width="2.0001" stroke-miterlimit="10" stroke-linecap="round" stroke-linejoin="round"/>
<path d="M46.2682 37.4214C46.4082 36.6933 46.4642 35.9373 46.4642 35.1813C46.4642 30.239 43.678 25.9548 39.5898 23.7987L68.8513 16.0703C68.3473 17.1624 68.0673 18.3804 68.0673 19.6685C68.0673 22.3986 69.3273 24.8207 71.3014 26.4028L46.2682 37.4214Z" stroke="white" stroke-width="2.0001" stroke-miterlimit="10" stroke-linecap="round" stroke-linejoin="round"/>
<path d="M79.0156 27.9952L86.814 48.0582H92.0783L85.652 22.2969" stroke="white" stroke-width="2.0001" stroke-miterlimit="10" stroke-linecap="round" stroke-linejoin="round"/>
<path d="M89.3348 48.0625L84.3086 58.423L92.079 62.8752" stroke="white" stroke-width="2.0001" stroke-miterlimit="10" stroke-linecap="round" stroke-linejoin="round"/>
<path d="M90.7109 48.7461L96.4232 52.6103L97.2213 60.8147" stroke="white" stroke-width="2.0001" stroke-miterlimit="10" stroke-linecap="round" stroke-linejoin="round"/>
<path d="M42.462 65.6133C54.7966 67.1674 63.7151 71.6196 63.7151 76.8698C63.7151 83.4082 49.8964 88.7144 32.8575 88.7144C15.8187 88.7144 2 83.4082 2 76.8698C2 71.6196 10.9184 67.1534 23.2531 65.6133" stroke="white" stroke-width="2.0001" stroke-miterlimit="10" stroke-linecap="round" stroke-linejoin="round"/>
</svg>
