<svg width="100" height="100" viewBox="0 0 100 100" fill="none" xmlns="http://www.w3.org/2000/svg">
<g clip-path="url(#clip0_1895_550)">
<path fill-rule="evenodd" clip-rule="evenodd" d="M55.2246 93.8663H5.49198C4.6631 93.8663 4 93.2032 4 92.3743V8.49198C4 7.6631 4.6631 7 5.49198 7H55.2246C56.0535 7 56.7166 7.6631 56.7166 8.49198V92.3743C56.7166 93.2032 56.0535 93.8663 55.2246 93.8663ZM6.81818 91.0481H53.7326V9.98396H6.81818V91.0481Z" fill="#FFFFFD"/>
<path fill-rule="evenodd" clip-rule="evenodd" d="M39.4712 93.8667H21.0701C20.2412 93.8667 19.5781 93.2036 19.5781 92.3747V64.0271C19.5781 63.1983 20.2412 62.5352 21.0701 62.5352H39.4712C40.3 62.5352 40.9631 63.1983 40.9631 64.0271V92.5405C40.9631 93.2036 40.3 93.8667 39.4712 93.8667ZM22.5621 91.0485H37.9792V65.5191H22.5621V91.0485Z" fill="#FFFFFD"/>
<path fill-rule="evenodd" clip-rule="evenodd" d="M25.7129 34.0231H16.4295C15.6006 34.0231 14.9375 33.36 14.9375 32.5311V17.7771C14.9375 16.9483 15.6006 16.2852 16.4295 16.2852H25.7129C26.5418 16.2852 27.2049 16.9483 27.2049 17.7771V32.5311C27.2049 33.36 26.5418 34.0231 25.7129 34.0231ZM17.9215 31.0392H24.3867V19.2691H17.9215V31.0392Z" fill="#FFFFFD"/>
<path fill-rule="evenodd" clip-rule="evenodd" d="M44.1192 34.0231H34.8357C34.0069 34.0231 33.3438 33.36 33.3438 32.5311V17.7771C33.3438 16.9483 34.0069 16.2852 34.8357 16.2852H44.1192C44.948 16.2852 45.6111 16.9483 45.6111 17.7771V32.5311C45.6111 33.36 44.948 34.0231 44.1192 34.0231ZM36.3277 31.0392H42.7929V19.2691H36.3277V31.0392Z" fill="#FFFFFD"/>
<path fill-rule="evenodd" clip-rule="evenodd" d="M25.7129 56.2341H16.4295C15.6006 56.2341 14.9375 55.571 14.9375 54.7421V39.9881C14.9375 39.1592 15.6006 38.4961 16.4295 38.4961H25.7129C26.5418 38.4961 27.2049 39.1592 27.2049 39.9881V54.7421C27.2049 55.571 26.5418 56.2341 25.7129 56.2341ZM17.9215 53.2501H24.3867V41.48H17.9215V53.2501Z" fill="#FFFFFD"/>
<path fill-rule="evenodd" clip-rule="evenodd" d="M44.1192 56.2341H34.8357C34.0069 56.2341 33.3438 55.571 33.3438 54.7421V39.9881C33.3438 39.1592 34.0069 38.4961 34.8357 38.4961H44.1192C44.948 38.4961 45.6111 39.1592 45.6111 39.9881V54.7421C45.6111 55.571 44.948 56.2341 44.1192 56.2341ZM36.3277 53.2501H42.7929V41.48H36.3277V53.2501Z" fill="#FFFFFD"/>
<path fill-rule="evenodd" clip-rule="evenodd" d="M95.5059 93.8649H55.2224C54.3936 93.8649 53.7305 93.2018 53.7305 92.373V45.2928C53.7305 44.4639 54.3936 43.8008 55.2224 43.8008H95.5059C96.3347 43.8008 96.9979 44.4639 96.9979 45.2928V92.373C96.8321 93.2018 96.3347 93.8649 95.5059 93.8649ZM56.7144 91.0468H94.0139V46.7847H56.7144V91.0468Z" fill="#FFFFFD"/>
<path fill-rule="evenodd" clip-rule="evenodd" d="M88.0465 93.866H62.3514C61.5225 93.866 60.8594 93.2029 60.8594 92.374V62.2029C60.8594 61.374 61.5225 60.7109 62.3514 60.7109H88.0465C88.8754 60.7109 89.5385 61.374 89.5385 62.2029V92.374C89.5385 93.2029 88.8754 93.866 88.0465 93.866ZM63.8433 91.0478H86.5546V63.6949H63.8433V91.0478Z" fill="#FFFFFD"/>
<path fill-rule="evenodd" clip-rule="evenodd" d="M88.0465 58.0617H62.3514C61.5225 58.0617 60.8594 57.3986 60.8594 56.5697V50.9334C60.8594 50.1045 61.5225 49.4414 62.3514 49.4414H88.0465C88.8754 49.4414 89.5385 50.1045 89.5385 50.9334V56.5697C89.5385 57.3986 88.8754 58.0617 88.0465 58.0617ZM63.8433 55.0778H86.7203V52.4254H63.8433V55.0778Z" fill="#FFFFFD"/>
<path fill-rule="evenodd" clip-rule="evenodd" d="M83.4063 46.7921C82.5774 46.7921 81.9143 46.129 81.9143 45.3002V26.7333L54.5614 16.4552C53.7325 16.1237 53.401 15.2948 53.7325 14.6317C54.0641 13.8028 54.893 13.4713 55.5561 13.8028L83.7379 24.4125C84.2352 24.5782 84.7325 25.2413 84.7325 25.7387V45.4659C84.8983 46.129 84.2352 46.7921 83.4063 46.7921Z" fill="#FFFFFD"/>
</g>
<defs>
<clipPath id="clip0_1895_550">
<rect width="100" height="100" fill="white"/>
</clipPath>
</defs>
</svg>
