<svg width="100" height="100" viewBox="0 0 100 100" fill="none" xmlns="http://www.w3.org/2000/svg">
<path d="M3 75.498C3.4712 74.7994 4.13738 74.5719 4.96604 74.6044C6.18465 74.6531 7.38702 74.6206 8.70312 74.6206C8.70312 74.1982 8.70312 73.8732 8.70312 73.532C8.70312 69.7949 8.70312 66.0741 8.70312 62.337C8.70312 61.1833 9.19057 60.5334 10.0517 60.5172C10.9454 60.5009 11.4491 61.1509 11.4491 62.3695C11.4491 62.5482 11.4491 62.7432 11.4491 62.9219C11.4491 66.4315 11.4491 69.9574 11.4491 73.467C11.4491 73.792 11.4491 74.1332 11.4491 74.5231C23.8302 74.5231 36.1626 74.5231 48.5437 74.5231C48.5437 64.0918 48.5437 53.7092 48.5437 43.2616C44.2867 43.2616 40.0297 43.2616 35.6752 43.2616C35.6752 44.2852 35.6752 45.2763 35.6752 46.2837C35.6752 48.4772 35.7239 50.687 35.6427 52.8805C35.6264 53.3842 35.3177 54.0016 34.9602 54.3428C34.4565 54.814 33.8229 54.5378 33.2704 54.1804C32.2143 53.4654 31.1419 52.7505 30.037 52.0194C29.0784 52.653 28.136 53.2705 27.2098 53.8879C26.5762 54.3104 25.91 54.8303 25.1138 54.3753C24.3339 53.9366 24.3827 53.108 24.3827 52.3443C24.3827 49.6471 24.3827 46.9662 24.3827 44.269C24.3827 43.944 24.3827 43.619 24.3827 43.2453C20.0444 43.2453 15.8036 43.2453 11.4653 43.2453C11.4653 43.6028 11.4653 43.9277 11.4653 44.2527C11.4653 47.8923 11.4653 51.5319 11.4653 55.1715C11.4653 55.3827 11.4653 55.594 11.4653 55.8214C11.4166 56.6826 10.8966 57.2513 10.133 57.2838C9.3693 57.3 8.73562 56.7313 8.73562 55.8864C8.71937 51.2069 8.71937 46.5275 8.73562 41.848C8.73562 40.9706 9.30431 40.4831 10.2305 40.4669C11.5791 40.4506 12.9114 40.4669 14.4225 40.4669C14.4225 40.0769 14.4225 39.7195 14.4225 39.3782C14.4225 32.8302 14.4225 26.2984 14.4225 19.7504C14.4225 18.0606 14.7962 17.6869 16.4535 17.6869C26.7549 17.6869 37.0563 17.6869 47.3576 17.6869C47.7151 17.6869 48.0888 17.6869 48.6087 17.6869C48.6087 17.0532 48.6087 16.4845 48.6087 15.9321C48.6087 15.1684 48.5925 14.4047 48.6087 13.6411C48.6412 12.4712 49.0799 12.0325 50.2173 12C50.3635 12 50.526 12 50.6723 12C61.5911 12 72.5099 12 83.4124 12C85.1997 12 85.5409 12.3575 85.5409 14.161C85.5409 18.3531 85.5409 22.5451 85.5409 26.7209C85.5409 26.9321 85.5572 27.1433 85.5409 27.3708C85.4759 28.297 84.9235 28.8332 84.0948 28.8007C83.2987 28.7682 82.8275 28.232 82.795 27.3383C82.7787 26.4284 82.795 25.5023 82.795 24.5924C82.795 21.6839 82.795 18.7755 82.795 15.8833C82.795 15.5584 82.795 15.2171 82.795 14.8272C79.4154 14.8272 76.1332 14.8272 72.7211 14.8272C72.7211 15.1522 72.7211 15.4771 72.7211 15.8021C72.7211 18.678 72.7536 21.5539 72.6886 24.4299C72.6723 24.9661 72.4286 25.6647 72.0387 26.006C71.4862 26.5097 70.8363 26.0872 70.2839 25.7297C69.374 25.1286 68.4803 24.4786 67.5217 23.9099C67.2779 23.7637 66.823 23.78 66.5793 23.9099C65.7019 24.4136 64.8895 24.9986 64.0445 25.5673C63.4434 25.9735 62.8422 26.3309 62.0948 25.9247C61.3961 25.5348 61.3636 24.8686 61.3636 24.1699C61.3636 21.424 61.3636 18.6618 61.3636 15.9158C61.3636 15.5746 61.3636 15.2496 61.3636 14.8272C58.0327 14.8272 54.7506 14.8272 51.3872 14.8272C51.3872 25.2098 51.3872 35.6087 51.3872 46.0888C61.7698 46.0888 72.1849 46.0888 82.7462 46.0888C82.7462 45.7963 82.7462 45.4713 82.7462 45.1464C82.7462 41.2955 82.7462 37.4447 82.7462 33.5939C82.7462 32.6677 83.2987 32.0665 84.0948 32.0665C84.8748 32.0665 85.4435 32.6515 85.4922 33.5776C85.5084 33.8214 85.4922 34.0651 85.4922 34.3088C85.4922 37.8834 85.4922 41.458 85.4922 45.0326C85.4922 45.3576 85.4922 45.6988 85.4922 46.1538C86.7596 46.1538 87.9619 46.1538 89.1805 46.1538C90.7891 46.1538 91.1953 46.5437 91.1953 48.136C91.1953 56.6013 91.1953 65.0667 91.1953 73.5482C91.1953 73.8732 91.1953 74.2144 91.1953 74.6369C92.4952 74.6369 93.7138 74.6694 94.9324 74.6206C95.7611 74.5881 96.411 74.8318 96.8984 75.5143C96.8984 77.7078 96.8984 79.9175 96.8984 82.111C96.5247 82.8422 95.9235 83.1184 95.0949 83.0859C93.8275 83.0372 92.5439 83.0697 91.2116 83.0697C91.2116 84.4508 91.2116 85.6856 91.2116 86.9368C91.2116 88.3016 90.7729 88.7566 89.408 88.7566C85.8984 88.7728 82.3725 88.7728 78.8629 88.7566C77.4818 88.7566 77.0756 88.3179 77.0756 86.9368C77.0756 85.6694 77.0756 84.402 77.0756 83.0534C76.5719 83.0534 76.2145 83.0534 75.8408 83.0534C68.4803 83.0534 61.1036 83.0534 53.7432 83.0534C53.402 83.0534 53.0607 83.0697 52.7358 83.0209C52.0534 82.9072 51.6472 82.4847 51.5984 81.7861C51.5497 81.0874 51.8746 80.5837 52.5571 80.405C52.9308 80.3075 53.337 80.3075 53.7432 80.3075C66.7905 80.3075 79.8541 80.3075 92.9014 80.3075C93.2913 80.3075 93.6813 80.3075 94.1687 80.3075C94.1687 79.7713 94.1687 79.3163 94.1687 78.8776C94.1687 78.4064 94.1687 77.919 94.1687 77.4316C64.6295 77.4316 35.2202 77.4316 5.7947 77.4316C5.7947 78.4064 5.7947 79.3164 5.7947 80.3075C6.2334 80.3075 6.62335 80.3075 7.01331 80.3075C20.0606 80.3075 33.1242 80.3075 46.1715 80.3075C46.5615 80.3075 46.9677 80.3075 47.3576 80.405C48.0401 80.5837 48.365 81.0874 48.3163 81.7861C48.2675 82.4847 47.8613 82.9072 47.1789 83.0209C46.8539 83.0697 46.5127 83.0534 46.1715 83.0534C38.7786 83.0534 31.3694 83.0534 23.9764 83.0534C23.619 83.0534 23.2615 83.0534 22.8391 83.0534C22.8391 84.4345 22.8391 85.6856 22.8391 86.9368C22.8391 88.3179 22.4166 88.7566 21.0518 88.7566C17.5747 88.7728 14.0813 88.7566 10.6042 88.7566C9.12558 88.7566 8.71937 88.3341 8.71937 86.8393C8.71937 85.6044 8.71937 84.3695 8.71937 83.0534C7.33827 83.0534 6.08716 83.0209 4.83605 83.0697C4.00739 83.1022 3.40621 82.826 3.0325 82.0948C3 79.9013 3 77.7078 3 75.498ZM88.4331 48.9647C84.1111 48.9647 79.8541 48.9647 75.5483 48.9647C75.5483 49.4034 75.5483 49.7771 75.5483 50.1346C75.5483 52.9455 75.5483 55.7564 75.5483 58.5674C75.5483 59.2173 75.4346 59.8997 74.7521 60.0622C74.2647 60.176 73.6147 60.0785 73.1435 59.8347C72.2824 59.396 71.47 58.8111 70.7063 58.2262C70.1376 57.8037 69.7152 57.7225 69.114 58.1937C68.4153 58.7624 67.6029 59.2336 66.8392 59.7373C66.2706 60.111 65.5719 60.5497 65.0032 60.046C64.5807 59.656 64.2883 58.9086 64.272 58.3237C64.1908 55.5127 64.2395 52.7018 64.2395 49.8908C64.2395 49.5659 64.2395 49.2409 64.2395 48.9484C59.8525 48.9484 55.628 48.9484 51.3872 48.9484C51.3872 57.5112 51.3872 66.0253 51.3872 74.5394C63.7683 74.5394 76.0682 74.5394 88.4169 74.5394C88.4331 66.0091 88.4331 57.5275 88.4331 48.9647ZM48.5113 20.4816C45.1641 20.4816 41.8982 20.4816 38.5186 20.4816C38.5186 20.8715 38.5186 21.1965 38.5186 21.5215C38.5186 24.3974 38.5348 27.2733 38.5186 30.133C38.5023 31.6116 37.3975 32.2128 36.1626 31.4166C35.2527 30.8479 34.3591 30.263 33.4979 29.6293C33.0267 29.2719 32.6692 29.3044 32.2143 29.6456C31.4344 30.2305 30.6382 30.8317 29.7608 31.2541C29.2084 31.5304 28.396 31.7416 27.9248 31.5141C27.5186 31.3191 27.2423 30.458 27.2261 29.8893C27.1611 27.0783 27.1936 24.2674 27.1936 21.4565C27.1936 21.1315 27.1936 20.8065 27.1936 20.4653C23.7815 20.4653 20.4993 20.4653 17.1684 20.4653C17.1684 27.1271 17.1684 33.7401 17.1684 40.3856C27.6323 40.3856 38.0312 40.3856 48.495 40.3856C48.5113 33.7564 48.5113 27.1758 48.5113 20.4816ZM72.7373 48.9484C70.8038 48.9484 68.9353 48.9484 67.0667 48.9484C67.0667 51.3857 67.0667 53.7742 67.0667 56.2764C67.7166 55.8539 68.2853 55.5127 68.8215 55.1228C69.5689 54.5703 70.2676 54.6028 70.9988 55.139C71.535 55.529 72.0874 55.8702 72.7373 56.2926C72.7373 53.7417 72.7373 51.3532 72.7373 48.9484ZM27.1936 43.2291C27.1936 45.6988 27.1936 48.0873 27.1936 50.5733C27.8598 50.1346 28.4285 49.7934 28.9647 49.4034C29.6796 48.8835 30.3458 48.8834 31.0607 49.3871C31.6131 49.7771 32.2143 50.1346 32.848 50.557C32.848 48.0385 32.848 45.6501 32.848 43.2291C30.9469 43.2291 29.0946 43.2291 27.1936 43.2291ZM64.207 14.7622C64.207 17.1994 64.207 19.5717 64.207 22.1064C64.8732 21.6677 65.4419 21.3427 65.9618 20.9365C66.693 20.3678 67.3917 20.3841 68.1391 20.9203C68.6915 21.3265 69.2765 21.6677 69.8939 22.0576C69.8939 19.5392 69.8939 17.1344 69.8939 14.7459C67.9604 14.7622 66.1081 14.7622 64.207 14.7622ZM30.0045 27.8095C30.6545 27.3871 31.2069 27.0783 31.7106 26.6884C32.5068 26.071 33.2379 26.0872 34.0341 26.6884C34.5378 27.0783 35.1065 27.4033 35.7239 27.8095C35.7239 25.2423 35.7239 22.8863 35.7239 20.4816C33.7904 20.4816 31.9218 20.4816 30.0045 20.4816C30.0045 22.9026 30.0045 25.2748 30.0045 27.8095ZM20.0119 85.9781C20.0119 84.9707 20.0119 84.0608 20.0119 83.1347C17.1359 83.1347 14.325 83.1347 11.4978 83.1347C11.4978 84.1258 11.4978 85.052 11.4978 85.9781C14.3738 85.9781 17.1684 85.9781 20.0119 85.9781ZM79.8703 85.9456C82.7787 85.9456 85.6059 85.9456 88.4169 85.9456C88.4169 84.9707 88.4169 84.0608 88.4169 83.1347C85.5409 83.1347 82.73 83.1347 79.8703 83.1347C79.8703 84.0933 79.8703 84.987 79.8703 85.9456Z" fill="white"/>
</svg>
