<svg width="100" height="100" viewBox="0 0 100 100" fill="none" xmlns="http://www.w3.org/2000/svg">
<g clip-path="url(#clip0_1796_2279)">
<path d="M13.1759 97.0838C12.4088 96.5573 11.4913 96.1662 10.8896 95.5044C9.49075 93.9401 9.52084 89.3375 10.8294 87.6679C11.6567 86.615 12.7547 86.0885 14.0934 86.0735C15.026 86.0584 15.9585 86.0735 17.207 86.0735C16.6053 85.517 16.124 85.2011 15.8533 84.7649C14.9959 83.4412 14.1686 82.0875 13.4617 80.6736C13.0104 79.7711 13.3865 78.989 14.1686 78.7032C14.9658 78.4024 15.6276 78.7634 16.0187 79.726C16.1992 80.1773 16.3797 80.6435 16.6053 81.0647C18.1997 83.9978 20.6815 85.7576 23.9906 85.9983C27.0741 86.2088 30.1726 86.0584 33.2712 86.0735C33.572 86.0735 33.8728 86.0735 34.309 86.0735C34.1887 85.0657 34.0533 84.1482 33.948 83.2307C33.8277 82.1778 34.2037 81.5611 35.031 81.4257C35.8583 81.3054 36.475 81.7716 36.6555 82.7794C36.836 83.8022 36.9413 84.8251 37.0917 85.9231C39.393 85.547 41.198 84.449 42.6419 82.7193C44.2062 80.8391 44.7026 78.628 44.7778 76.2364C44.9132 71.8895 47.7861 68.1592 51.9074 66.8356C52.2233 66.7303 52.6294 66.7303 52.855 66.5347C53.1258 66.3091 53.3965 65.918 53.3815 65.6022C53.3664 65.3615 52.9302 64.9704 52.6595 64.9554C44.9884 64.4139 37.9791 65.9331 32.3687 71.6789C32.2183 71.8293 32.0979 71.9948 31.9926 72.1151C32.7297 73.3334 33.4667 74.5067 34.1436 75.6949C34.7001 76.6877 34.5196 77.4999 33.7374 77.891C32.9703 78.267 32.2634 77.9511 31.7369 76.9734C28.7888 71.5134 24.3817 67.7681 18.4554 65.9632C16.4399 65.3465 14.2589 65.166 12.138 64.9404C10.7392 64.7899 9.3253 64.9253 7.91141 64.9103C7.36992 64.9103 6.8886 65.0005 6.78331 65.6022C6.67802 66.249 7.1443 66.4746 7.68579 66.6551C8.57323 66.9709 9.49076 67.2718 10.303 67.738C12.4389 68.9414 13.928 70.7313 14.8004 73.0025C15.1313 73.8599 14.8004 74.5969 14.0332 74.8827C13.3113 75.1685 12.6043 74.8677 12.2584 74.0253C11.2055 71.4533 9.31026 69.904 6.66298 69.182C4.97834 68.7157 3.97057 67.2868 4.00066 65.6473C4.03074 64.083 5.09868 62.6841 6.63289 62.278C7.06909 62.1577 7.53538 62.1276 8.00166 62.1427C10.7843 62.1878 13.567 62.263 16.4098 62.3382C16.9212 60.6536 17.5981 58.8035 18.0042 56.9083C18.1847 56.0359 17.8237 55.0431 17.7184 54.1106C17.3574 50.7263 17.8838 47.4623 18.9668 44.2735C19.1774 43.6719 19.2526 42.9649 19.1624 42.3332C18.6961 39.0842 19.027 35.9406 20.0047 32.812C20.2303 32.105 20.3205 31.3229 20.2604 30.5859C19.9295 26.8706 20.8019 23.4562 22.9528 20.4329C26.0964 15.9957 32.5492 15.4994 36.3847 19.365C36.5803 19.5605 36.7608 19.7711 36.9262 19.9817C37.4827 20.7037 37.4376 21.546 36.836 22.0273C36.2644 22.4936 35.4672 22.4034 34.8505 21.8017C34.309 21.2752 33.7525 20.7789 33.1057 20.3276C34.309 23.6367 34.7302 26.991 34.2037 30.4806C35.2265 30.4806 36.1441 30.4806 37.2722 30.4806C37.227 29.3976 37.197 28.3146 37.1218 27.2316C37.0465 26.2239 37.6332 25.4417 38.5356 25.5019C39.2727 25.547 39.7841 25.9682 39.8292 26.7052C39.9044 28.1341 39.8894 29.563 39.9194 31.007C39.9345 31.4583 39.8894 31.9396 40.0398 32.3457C41.228 35.73 41.6191 39.1895 40.9874 42.7393C40.9272 43.0852 40.9573 43.4763 41.0776 43.8072C42.5667 47.8233 43.018 51.9446 42.2358 56.1712C42.1606 56.5473 42.2057 56.9684 42.311 57.3445C42.7924 59.0441 43.3188 60.7288 43.8302 62.4134C45.7254 62.3231 47.6357 62.2179 49.5459 62.1577C50.6139 62.1276 51.6968 62.1276 52.7648 62.1577C54.4645 62.2179 55.8934 63.4663 56.1641 65.1058C56.4499 66.8356 55.4722 68.5202 53.8177 69.1219C53.3815 69.2723 52.9302 69.3625 52.5091 69.528C49.6362 70.6561 47.756 72.7318 47.5905 75.8153C47.38 79.7411 46.4173 83.2156 43.1834 86.0584C44.3416 86.0584 45.2591 85.9532 46.1315 86.0885C47.0039 86.2239 47.8463 86.5999 48.7036 86.8857C49.1699 87.0361 49.6362 87.337 50.1025 87.337C62.1656 87.367 74.2288 87.352 86.307 87.352C87.9165 87.352 88.3075 86.9609 88.3075 85.3515C88.3075 82.5388 88.3075 79.711 88.3075 76.8982C88.3075 75.5596 87.8262 75.0782 86.4725 75.0782C83.3439 75.0632 80.2303 75.1234 77.1017 75.0482C71.7319 74.9128 67.7309 70.8516 67.5956 65.4818C67.5655 64.068 67.6256 62.6691 67.5655 61.2552C67.5504 60.8942 67.2647 60.5332 67.0992 60.1873C66.8134 59.5706 66.3471 58.984 66.287 58.3372C66.1516 57.164 66.2719 55.9456 66.2268 54.7573C66.2118 54.4565 66.0313 54.0354 65.7906 53.8849C64.7227 53.2382 64.2564 52.2906 64.0759 51.1023C63.6999 48.6505 63.2787 46.2138 62.8876 43.7621C62.8124 43.2808 62.662 42.9799 62.1356 42.7694C60.9022 42.258 60.2253 41.2803 60.1952 39.9115C60.1802 39.2346 60.1651 38.5578 60.1952 37.896C60.2704 36.1662 61.579 34.8576 63.3238 34.7974C63.9556 34.7674 64.5873 34.7974 65.3243 34.7974C65.3243 33.1128 65.3243 31.5335 65.3243 29.9541C65.3243 29.5931 65.3093 29.2171 65.3243 28.8561C65.3694 27.9536 65.8357 27.4121 66.6329 27.382C67.4452 27.352 68.0468 27.8935 68.0619 28.826C68.107 30.2098 68.0769 31.5786 68.0769 32.9624C68.0769 33.534 68.0769 34.1055 68.0769 34.7373C70.5286 34.7373 72.9052 34.7373 75.4171 34.7373C75.4171 33.3986 75.4171 32.075 75.4171 30.7363C75.4171 30.0895 75.402 29.4427 75.4321 28.811C75.4622 27.9085 75.9736 27.382 76.7708 27.382C77.553 27.367 78.1245 27.9085 78.1546 28.7809C78.1997 30.1647 78.1697 31.5335 78.1697 32.9173C78.1697 33.5039 78.1697 34.0755 78.1697 34.7974C78.8014 34.7974 79.403 34.7824 80.0047 34.7974C81.7345 34.8275 83.0581 35.8955 83.2386 37.5801C83.3589 38.633 83.2988 39.731 83.1333 40.7689C82.9678 41.7466 82.2158 42.3633 81.3283 42.8446C81.0125 43.01 80.6966 43.4011 80.6214 43.732C80.1551 46.259 79.734 48.801 79.3429 51.3279C79.1774 52.4259 78.6359 53.2532 77.7184 53.8699C77.4777 54.0354 77.2822 54.4264 77.2672 54.7273C77.207 55.8554 77.2521 56.9985 77.2521 58.1266C77.2521 58.999 76.9663 59.721 76.2594 60.2926C76.0488 60.4731 75.8683 60.8341 75.8683 61.1048C75.8232 62.4886 75.8382 63.8574 75.8533 65.2412C75.8683 66.264 76.3647 66.7604 77.3725 66.7904C77.9892 66.8205 78.6059 66.7754 79.2075 66.8055C80.125 66.8506 80.7116 67.4372 80.6816 68.2194C80.6665 68.9865 80.11 69.4979 79.2225 69.543C78.5457 69.5731 77.8688 69.5731 77.207 69.543C74.8305 69.4678 73.1458 67.7681 73.0857 65.3766C73.0556 63.8574 73.0857 62.3232 73.0857 60.7438C72.1681 60.7438 71.3258 60.7438 70.303 60.7438C70.4685 63.1805 69.8668 65.6924 70.8746 68.0539C71.9876 70.6711 74.0333 72.1753 76.9062 72.2805C80.0498 72.3858 83.2085 72.3106 86.3672 72.3257C89.3755 72.3257 91.03 73.9953 91.0451 76.9885C91.0451 79.8614 91.0451 82.7493 91.0451 85.6222C91.0451 88.435 89.3454 90.1196 86.5176 90.1196C74.8756 90.1196 63.2486 90.1196 51.6066 90.1196C51.2456 90.1196 50.8696 90.1196 50.4334 90.1196C50.4334 91.0371 50.4334 91.8945 50.4334 92.8722C50.7793 92.8722 51.0952 92.8722 51.4261 92.8722C63.0982 92.8722 74.7553 92.8722 86.4274 92.8722C90.8946 92.8722 93.7976 89.9842 93.8127 85.532C93.8127 82.629 93.8277 79.711 93.8127 76.808C93.7976 72.5362 90.8646 69.6032 86.5928 69.5731C86.3221 69.5731 86.0363 69.5881 85.7655 69.5581C84.9232 69.4979 84.4118 69.0166 84.3968 68.2495C84.3667 67.4673 84.8931 66.8656 85.7655 66.8205C89.2401 66.64 92.2183 67.6929 94.4595 70.4605C95.8733 72.2053 96.5652 74.251 96.5803 76.4921C96.5953 79.5906 96.6104 82.6741 96.5803 85.7726C96.5352 91.4432 92.3537 95.6097 86.668 95.6097C74.665 95.6247 62.662 95.6247 50.659 95.6097C49.9069 95.6097 49.2451 95.6548 48.6585 96.2415C48.2674 96.6325 47.6658 96.798 47.1694 97.0687C35.8432 97.0838 24.5171 97.0838 13.1759 97.0838ZM30.1726 88.811C24.9984 88.811 19.8242 88.811 14.6499 88.811C13.1157 88.811 12.7096 89.2171 12.6946 90.7814C12.6946 91.3079 12.6946 91.8193 12.6946 92.3457C12.7096 93.9401 13.1007 94.3312 14.7252 94.3312C22.4414 94.3312 30.1426 94.3312 37.8588 94.3312C40.5512 94.3312 43.2436 94.3312 45.936 94.3312C47.0791 94.3312 47.5605 93.8499 47.5905 92.7368C47.6056 92.0599 47.6056 91.3831 47.5905 90.7213C47.5755 89.2472 47.1694 88.8261 45.6653 88.8261C40.5211 88.811 35.3469 88.811 30.1726 88.811ZM77.929 43.1304C73.7324 43.1304 69.6713 43.1304 65.58 43.1304C66.0162 45.7626 66.4073 48.3196 66.8736 50.8767C66.9187 51.1173 67.3248 51.4934 67.5655 51.4934C70.3481 51.5385 73.1308 51.5385 75.9134 51.4934C76.1541 51.4934 76.5602 51.1925 76.5903 50.9669C77.0716 48.3948 77.4777 45.7927 77.929 43.1304ZM30.1426 69.8589C31.2255 68.9414 32.2935 67.9937 33.4366 67.1214C33.933 66.7453 34.1135 66.3392 34.0984 65.7375C34.0684 63.2708 33.3614 60.9694 32.5041 58.7132C32.4138 58.4876 32.0378 58.262 31.767 58.262C30.669 58.2169 29.5559 58.2169 28.4579 58.262C28.2173 58.277 27.8262 58.4575 27.751 58.6531C26.8786 61.0446 26.0513 63.4513 26.1867 66.0534C26.2017 66.3091 26.2468 66.64 26.4123 66.7904C27.6457 67.8283 28.9092 68.8511 30.1426 69.8589ZM30.0674 55.4793C30.5938 55.4793 31.1052 55.4492 31.6316 55.4944C32.113 55.5245 32.3386 55.3289 32.4589 54.8777C33.2561 51.6739 33.1508 48.5001 31.9776 45.4166C31.5264 44.2284 30.4434 44.9805 29.6612 44.8451C29.1799 44.7699 28.5331 44.5443 28.2473 45.4016C27.3749 47.9737 27.0591 50.5758 27.4802 53.2532C27.8262 55.4793 27.8262 55.4793 30.0674 55.4793ZM71.7019 40.3176C74.304 40.3176 76.9062 40.3176 79.4933 40.3176C79.7941 40.3176 80.3206 40.2725 80.3356 40.1672C80.4559 39.4302 80.5311 38.6781 80.4559 37.9411C80.4409 37.7756 79.764 37.5801 79.388 37.5801C74.4695 37.55 69.5359 37.5651 64.6174 37.5651C62.8124 37.5651 62.9628 37.3545 62.9027 39.2196C62.8876 40.0318 63.0982 40.3477 63.9856 40.3327C66.5728 40.2875 69.1448 40.3176 71.7019 40.3176ZM25.5399 44.815C24.3215 44.815 23.2235 44.8 22.1405 44.83C21.9751 44.83 21.7344 45.0105 21.6743 45.176C20.3957 48.5001 19.9445 51.8995 20.7567 55.4041C22.2007 55.4041 23.6146 55.4041 25.0586 55.4041C24.2614 51.8243 24.3667 48.3798 25.5399 44.815ZM35.1513 55.4793C36.5652 55.4793 37.8137 55.5094 39.047 55.4492C39.2426 55.4342 39.5735 55.1334 39.6036 54.9228C40.1451 51.6287 39.7991 48.4249 38.6259 45.2963C38.5507 45.1008 38.3251 44.8451 38.1746 44.83C37.0616 44.7849 35.9485 44.815 34.7302 44.815C35.8583 48.3798 35.9936 51.8243 35.1513 55.4793ZM32.3386 38.1968C32.2483 37.2341 32.1882 36.437 32.0829 35.6398C31.7821 33.2632 31.7369 33.2482 29.3604 33.2783C28.849 33.2783 28.6083 33.4287 28.473 33.9401C27.9315 36.0459 27.7961 38.1667 28.112 40.3026C28.3827 42.0474 28.3978 42.0474 30.1877 42.0474C30.4283 42.0474 30.684 42.0173 30.9247 42.0474C31.6016 42.1527 31.8573 41.8218 31.9174 41.19C32.0679 40.1371 32.2183 39.0842 32.3386 38.1968ZM25.5098 42.0323C25.4045 40.4981 25.1939 39.0692 25.224 37.6553C25.2541 36.2264 25.5098 34.8125 25.6753 33.3083C24.848 33.3083 24.0057 33.2783 23.1634 33.3384C22.9829 33.3535 22.7272 33.6242 22.652 33.8348C21.7796 36.3016 21.5389 38.8285 21.8698 41.4156C21.8999 41.6413 22.1857 42.0023 22.3662 42.0173C23.4191 42.0624 24.472 42.0323 25.5098 42.0323ZM34.5647 33.2933C34.7302 34.8576 34.9859 36.2715 35.016 37.7004C35.046 39.1143 34.8505 40.5282 34.7452 42.0323C35.7981 42.0323 36.836 42.0624 37.8738 42.0173C38.0543 42.0023 38.3251 41.7315 38.3551 41.536C38.7763 38.8887 38.4604 36.3016 37.588 33.7746C37.5128 33.5791 37.2421 33.3234 37.0315 33.3083C36.2042 33.2632 35.392 33.2933 34.5647 33.2933ZM35.4371 58.2469C35.9636 60.5031 36.475 62.6541 36.9864 64.82C38.31 64.2785 39.6938 63.722 41.1528 63.1203C40.7016 61.6312 40.2955 60.2023 39.8292 58.7884C39.754 58.5778 39.4983 58.277 39.3328 58.277C38.0393 58.2319 36.7307 58.2469 35.4371 58.2469ZM19.0872 63.1354C20.6515 63.7671 22.0202 64.3237 23.2536 64.82C23.765 62.624 24.2764 60.4731 24.7878 58.262C23.5093 58.262 22.2308 58.2469 20.9372 58.277C20.7567 58.277 20.471 58.4876 20.4258 58.6531C19.9746 60.1271 19.5384 61.6162 19.0872 63.1354ZM31.3007 30.4956C32.1431 28.0439 31.4662 22.7192 30.0674 20.7789C28.6835 23.9075 28.2323 27.1263 28.8791 30.4956C29.7364 30.4956 30.5186 30.4956 31.3007 30.4956ZM27.2697 20.3126C24.3516 21.8919 22.291 27.1865 23.1634 30.4956C24.0809 30.4956 25.0285 30.4956 26.0363 30.4956C25.5399 27.0361 25.8708 23.712 27.2697 20.3126ZM74.4394 57.916C74.4394 56.6526 74.4394 55.4793 74.4394 54.3211C72.6043 54.3211 70.8445 54.3211 69.0696 54.3211C69.0696 55.5545 69.0696 56.7127 69.0696 57.916C70.8896 57.916 72.6194 57.916 74.4394 57.916Z" fill="white"/>
<path d="M71.7907 3.01563C72.6179 3.49695 72.9037 4.21894 72.8736 5.16654C72.8285 7.09184 72.8586 9.01713 72.8586 11.0778C74.2574 11.0778 75.6112 11.168 76.9348 11.0628C78.9203 10.8973 79.552 12.2661 78.7699 13.8755C76.8295 17.8013 75.0396 21.7873 73.1745 25.7431C72.7232 26.7058 72.0163 27.1119 71.2341 26.8712C70.4219 26.6155 70.091 26.0289 70.106 25.1866C70.1211 23.141 70.106 21.0954 70.106 18.8843C68.9328 18.8843 67.8047 18.8843 66.6916 18.8843C66.3006 18.8843 65.8944 18.8993 65.5034 18.8843C64.2098 18.8241 63.5329 17.8314 64.0744 16.6581C65.9847 12.4315 67.9401 8.2049 69.9105 3.99331C70.0759 3.63232 70.4369 3.34653 70.7077 3.03067C71.0687 3.01562 71.4297 3.01563 71.7907 3.01563ZM75.7164 13.8304C74.829 13.8304 74.092 13.8304 73.37 13.8304C70.7829 13.8304 70.2113 13.2738 70.106 10.6867C70.106 10.6416 70.0459 10.6115 69.9255 10.4761C69.0682 12.3413 68.2259 14.1763 67.3384 16.1016C68.4214 16.1016 69.3389 16.0866 70.2564 16.1016C72.0012 16.1317 72.8436 16.959 72.8887 18.6887C72.8887 18.9294 72.9338 19.1701 72.9789 19.6815C73.9265 17.6208 74.7839 15.8008 75.7164 13.8304Z" fill="white"/>
<path d="M30.635 3.01504C31.3119 3.49637 31.5375 4.15819 31.5225 4.98546C31.4774 6.97092 31.5225 8.95638 31.5074 10.9418C31.4924 12.1151 30.5749 12.9123 29.7025 12.446C29.2813 12.2204 28.815 11.6037 28.8 11.1374C28.7097 8.91126 28.6947 6.67009 28.8 4.44397C28.815 3.94761 29.4016 3.48132 29.7175 3C30.0183 3.01504 30.3342 3.01504 30.635 3.01504Z" fill="white"/>
<path d="M10.4533 28.9123C9.38538 28.9123 8.31744 28.9273 7.24951 28.9123C6.31694 28.8973 5.71529 28.3558 5.70025 27.5736C5.67017 26.7614 6.3019 26.1748 7.27959 26.1597C9.41547 26.1447 11.5664 26.1447 13.7023 26.1597C14.6499 26.1597 15.2214 26.6862 15.2365 27.4984C15.2515 28.3407 14.6649 28.8973 13.6872 28.9123C12.5892 28.9273 11.5213 28.9123 10.4533 28.9123Z" fill="white"/>
<path d="M49.8322 26.1629C50.9001 26.1629 51.9681 26.1479 53.036 26.1629C53.9686 26.178 54.5401 26.7195 54.5401 27.5317C54.5401 28.3439 53.9686 28.9005 53.036 28.9005C50.87 28.9155 48.689 28.9155 46.5231 28.9005C45.6056 28.8854 45.0039 28.3139 45.0039 27.5317C45.0039 26.7495 45.6206 26.178 46.5231 26.1629C47.6361 26.1479 48.7342 26.1629 49.8322 26.1629Z" fill="white"/>
<path d="M20.1066 16.1924C19.8359 16.5384 19.6404 17.0799 19.2643 17.2303C18.8582 17.3957 18.1212 17.4108 17.8354 17.1551C16.3613 15.8314 14.9625 14.4176 13.6088 12.9736C13.1124 12.4471 13.1876 11.7552 13.699 11.2288C14.2405 10.6723 14.9324 10.567 15.504 11.0934C16.9329 12.4321 18.2866 13.8309 19.6554 15.2298C19.8509 15.4253 19.9111 15.7562 20.1066 16.1924Z" fill="white"/>
<path d="M41.5121 17.5891C41.1511 17.3033 40.6247 17.0777 40.4743 16.7017C40.3238 16.2805 40.3389 15.5736 40.6096 15.2727C41.9182 13.8288 43.3171 12.46 44.731 11.1063C45.2875 10.5798 45.9944 10.655 46.5359 11.2116C47.0774 11.7681 47.1376 12.46 46.6111 13.0165C45.2875 14.4154 43.9187 15.7541 42.5349 17.0928C42.3243 17.3184 41.9483 17.3785 41.5121 17.5891Z" fill="white"/>
<path d="M71.7037 48.6807C70.9666 48.6807 70.2447 48.7107 69.5076 48.6807C68.6052 48.6355 68.0938 48.1241 68.0938 47.3269C68.0938 46.5297 68.5901 45.9882 69.4926 45.9582C70.9817 45.913 72.4858 45.9281 73.9749 45.9582C74.8473 45.9732 75.4039 46.5598 75.4039 47.3119C75.4039 48.064 74.8473 48.6355 73.99 48.6807C73.2379 48.7107 72.4708 48.6807 71.7037 48.6807Z" fill="white"/>
</g>
<defs>
<clipPath id="clip0_1796_2279">
<rect width="100" height="100" fill="white"/>
</clipPath>
</defs>
</svg>
