<svg width="100" height="100" viewBox="0 0 100 100" fill="none" xmlns="http://www.w3.org/2000/svg">
<path d="M81.1342 70.9634V3.64597H25.7231C24.071 3.64597 22.5139 4.34857 21.3935 5.46895C20.2732 6.58932 19.5706 8.0705 19.5706 9.79853V73.2801C21.2226 71.8939 23.3874 71.1153 25.7231 71.1153H81.1532V70.9634H81.1342ZM84.7042 1.84197V74.5334H25.7231C24.071 74.5334 22.5139 75.236 21.3935 76.3564C20.2732 77.4768 19.5706 78.9579 19.5706 80.686H16.0195V9.72257C16.0195 7.02608 17.1399 4.69038 18.8869 2.8674C20.615 1.13936 23.0456 0 25.7421 0H84.7232V1.84197H84.7042Z" fill="white"/>
<path d="M23.9001 72.7864V3.91182C22.9507 4.17767 22.0772 4.78533 21.3935 5.46895C20.2732 6.58932 19.5706 8.0705 19.5706 9.79853V80.667H16.0195V9.72257C16.0195 7.02608 17.1399 4.69038 18.8869 2.8674C20.615 1.13936 23.0456 0 25.7421 0H27.4701V72.6914H23.9191V72.7864H23.9001Z" fill="white"/>
<path d="M25.7226 70.9609H84.7037V74.512H81.1526H43.6676H33.6032H25.7036C24.0515 74.512 22.4944 75.2146 21.374 76.3349C20.2536 77.4553 19.551 78.9365 19.551 80.6645C19.551 82.3166 20.2536 83.8737 21.374 84.9941C22.4944 86.1145 23.9755 86.8171 25.7036 86.8171H43.7435H62.657H66.208V90.3681H25.7226C23.0261 90.3681 20.6904 89.2477 18.8674 87.5007C17.1394 85.7727 16 83.342 16 80.6455C16 77.949 17.1204 75.6133 18.8674 73.7904C20.5954 72.0813 23.0261 70.9609 25.7226 70.9609ZM84.7037 86.7411V90.2922H71.9618V86.7411H75.5128H81.1526H84.7037Z" fill="white"/>
<path d="M64.3122 78.8477H75.497V99.8309L69.0786 95.2355L62.6602 99.8309V78.8477H64.3122ZM71.946 82.4177H66.1352V92.9948L69.0786 90.9059L72.0219 92.9948V82.4177H71.946Z" fill="white"/>
<path d="M54.2643 14.6758C60.5118 14.6758 66.1517 17.1824 70.3103 21.2651C74.3931 25.3478 76.8996 31.0636 76.8996 37.3112C76.8996 43.5587 74.3931 49.1985 70.3103 53.3572C66.2276 57.4399 60.5118 59.9465 54.2643 59.9465C48.0168 59.9465 42.3769 57.4399 38.2182 53.3572C34.1355 49.2745 31.6289 43.5587 31.6289 37.3112C31.6289 31.0636 34.1355 25.4238 38.2182 21.2651C42.3769 17.1824 48.0168 14.6758 54.2643 14.6758ZM67.7847 23.7717C64.3097 20.2966 59.5433 18.1319 54.2453 18.1319C48.9472 18.1319 44.1809 20.2966 40.7058 23.7717C37.2308 27.2468 35.066 32.0131 35.066 37.3112C35.1609 42.6092 37.3257 47.3755 40.7818 50.8506C44.2569 54.3257 49.0232 56.4904 54.3212 56.4904C59.6193 56.4904 64.3856 54.3257 67.8607 50.8506C71.3358 47.3755 73.5006 42.6092 73.5006 37.3112C73.4246 32.0131 71.2598 27.2468 67.7847 23.7717Z" fill="white"/>
<path d="M54.2626 14.6758C57.3769 14.6758 60.0734 17.4482 61.8964 21.8728C63.5485 25.8605 64.4979 31.3295 64.4979 37.3112C64.4979 43.2928 63.4535 48.7618 61.8964 52.7495C60.0734 57.1741 57.3769 59.9465 54.2626 59.9465C51.1484 59.9465 48.4519 57.1741 46.6289 52.7495C44.9768 48.7618 44.0273 43.2928 44.0273 37.3112C44.0273 31.3295 45.0718 25.8605 46.6289 21.8728C48.4329 17.4482 51.1294 14.6758 54.2626 14.6758ZM58.6682 23.164C57.4529 20.0498 55.8957 18.1319 54.3386 18.1319C52.7815 18.1319 51.2243 20.0308 50.009 23.164C48.5278 26.7151 47.6733 31.7473 47.6733 37.2922C47.6733 42.8371 48.5468 47.7933 50.009 51.4203C51.2243 54.5345 52.7815 56.4525 54.3386 56.4525C55.8957 56.4525 57.4529 54.5535 58.6682 51.4203C60.1493 47.8693 61.0039 42.8371 61.0039 37.2922C61.0229 31.7473 60.0734 26.81 58.6682 23.164Z" fill="white"/>
<path d="M31.6094 37.3173C31.6094 34.2031 34.3818 31.5066 38.8064 29.6836C42.7941 28.0315 48.2631 27.082 54.2447 27.082C60.2264 27.082 65.6954 28.1264 69.6831 29.6836C74.1077 31.5066 76.8801 34.2031 76.8801 37.3173C76.8801 40.4316 74.1077 43.1281 69.6831 44.9511C65.6954 46.6031 60.2264 47.5526 54.2447 47.5526C48.2631 47.5526 42.7941 46.5082 38.8064 44.9511C34.4008 43.1281 31.6094 40.4316 31.6094 37.3173ZM40.2116 32.9687C37.0973 34.1841 35.1794 35.7412 35.1794 37.2983C35.1794 38.8555 37.0783 40.4126 40.2116 41.6279C43.7626 43.1091 48.7948 43.9636 54.3397 43.9636C59.8846 43.9636 64.8408 43.0901 68.4678 41.6279C71.5821 40.4126 73.5 38.8555 73.5 37.2983C73.5 35.7412 71.6011 34.1841 68.4678 32.9687C64.9168 31.4876 59.8846 30.633 54.3397 30.633C48.7948 30.633 43.7626 31.5066 40.2116 32.9687Z" fill="white"/>
</svg>
