<svg width="100" height="100" viewBox="0 0 100 100" fill="none" xmlns="http://www.w3.org/2000/svg">
<g clip-path="url(#clip0_1895_846)">
<path d="M89.4007 33.7544C89.643 34.4017 90.1023 34.6501 90.7789 34.4998C92.086 34.2075 92.8064 34.7003 92.94 35.9782C93.2324 38.7887 94.8193 40.3151 97.7008 40.5573C98.0647 40.5886 98.4035 40.7546 98.6505 41.0225C98.8975 41.2904 99.0348 41.6407 99.0351 42.0043V75.9752C99.0351 76.7979 98.6238 77.2448 97.8011 77.3158C94.7024 77.5914 93.057 79.2827 92.8649 82.3898C92.8457 82.6906 92.7126 82.9728 92.4926 83.1788C92.2726 83.3848 91.9823 83.4992 91.6809 83.4986H8.65486C8.27026 83.4988 7.90075 83.3497 7.62473 83.0831C7.34871 82.8164 7.18792 82.4531 7.17652 82.0703C7.11387 79.9655 5.82972 77.9547 3.66857 77.535C3.14237 77.4306 2.61407 77.3346 2.0837 77.2469C1.78109 77.1965 1.50616 77.0404 1.30774 76.8065C1.10933 76.5725 1.00028 76.2757 1 75.969V42.0294C1.00035 41.6605 1.13919 41.3053 1.38884 41.0348C1.63848 40.7642 1.98058 40.5982 2.34682 40.5698C5.362 40.3318 6.97817 38.6989 7.19533 35.6712C7.21751 35.3487 7.36168 35.0466 7.59881 34.8258C7.83593 34.6049 8.14838 34.4817 8.47322 34.481C12.8289 34.4894 17.0719 34.4935 21.2021 34.4935C22.3798 34.4935 23.5804 34.2764 24.8041 33.8421C41.6465 27.8326 58.2926 21.9129 74.7424 16.083C75.0781 15.9641 75.4456 15.9732 75.7741 16.1086C76.1027 16.2439 76.3689 16.4959 76.5215 16.8159C77.791 19.4511 79.7893 20.4137 82.5164 19.7037C83.5687 19.4323 84.2536 19.7663 84.571 20.706C86.0556 25.116 87.7908 29.4759 89.4007 33.7544ZM68.3467 34.481H85.8677C85.9046 34.4815 85.941 34.4728 85.9738 34.4559C86.0065 34.439 86.0347 34.4144 86.0557 34.3841C86.0767 34.3538 86.09 34.3188 86.0944 34.2822C86.0987 34.2456 86.094 34.2084 86.0807 34.1741L82.1092 23.5249C82.0256 23.3035 81.8649 23.1971 81.6268 23.2054C78.6493 23.2931 76.3774 22.3034 74.8114 20.2362C74.686 20.0706 74.5115 19.9492 74.3133 19.8895C74.115 19.8298 73.9033 19.8349 73.7089 19.9042L33.9436 34.055C33.1292 34.3432 33.1522 34.4873 34.0125 34.4873L62.3518 34.4748C63.1328 34.4748 63.6422 34.8485 63.8803 35.596C63.9304 35.7589 63.9471 35.9218 63.9304 36.0847C63.8385 37.1036 63.2789 37.6131 62.2516 37.6131H10.672C10.4506 37.6131 10.2815 37.7092 10.1646 37.9013C9.94532 38.2646 9.8952 38.8534 9.69475 39.2731C8.66324 41.4614 6.98235 42.8542 4.65205 43.4514C4.41819 43.5099 4.30126 43.6581 4.30126 43.8961V73.9456C4.30126 74.167 4.40566 74.3089 4.61447 74.3716C7.48766 75.2736 9.32097 77.0819 10.1144 79.7964C10.1507 79.916 10.2245 80.0208 10.3249 80.0952C10.4253 80.1697 10.547 80.2099 10.672 80.2099H89.4759C89.7474 80.2099 89.9207 80.0804 89.9958 79.8215C90.8478 77.0151 92.7124 75.1922 95.5898 74.3528C95.7986 74.2902 95.903 74.1482 95.903 73.9268V43.9024C95.903 43.7103 95.8111 43.5892 95.6274 43.5391C92.7208 42.7331 90.8415 40.881 89.9896 37.9827C89.9144 37.7405 89.7516 37.6194 89.501 37.6194L68.403 37.6131C67.3674 37.6131 66.8203 37.0974 66.7618 36.0659C66.7535 35.9155 66.7702 35.7673 66.8119 35.6211C67.0375 34.861 67.549 34.481 68.3467 34.481Z" fill="white"/>
<path d="M74.6219 40.5772L74.434 40.5769C73.5795 40.5754 72.8855 41.267 72.884 42.1215L72.8785 45.2786C72.877 46.1332 73.5685 46.8271 74.4231 46.8286L74.611 46.8289C75.4655 46.8304 76.1595 46.1389 76.161 45.2844L76.1665 42.1272C76.168 41.2727 75.4764 40.5787 74.6219 40.5772Z" fill="white"/>
<path d="M91.4023 43.5487L80.5652 43.5676C79.7073 43.5691 79.0129 44.2658 79.0144 45.1238L79.0148 45.3118C79.0163 46.1698 79.713 46.8641 80.571 46.8626L91.4081 46.8437C92.2661 46.8422 92.9604 46.1454 92.9589 45.2874L92.9586 45.0995C92.9571 44.2415 92.2603 43.5472 91.4023 43.5487Z" fill="white"/>
<path d="M10.4048 55.9926C10.4089 56.8821 10.8537 57.3289 11.739 57.3331L15.0841 57.3519C15.4283 57.3532 15.7605 57.4788 16.0194 57.7056C16.2784 57.9323 16.4468 58.245 16.4936 58.586C16.5019 58.6486 16.5103 58.7113 16.5187 58.7739C16.5465 58.9879 16.5311 59.2054 16.4732 59.4134C16.4154 59.6213 16.3163 59.8155 16.1819 59.9844C16.0475 60.1533 15.8805 60.2934 15.6908 60.3965C15.5012 60.4995 15.2927 60.5634 15.0779 60.5843C12.0898 60.8724 9.35236 60.7784 7.76751 58.1788C7.30814 57.4229 7.07637 56.4979 7.07219 55.4037C7.05966 52.8855 7.10977 50.8455 7.22253 49.2836C7.35616 47.4169 8.36471 46.093 10.2482 45.3121C10.8161 45.074 12.4177 45.0239 15.0528 45.1617C15.7502 45.1951 16.2138 45.5418 16.4435 46.2016C16.5103 46.3979 16.5354 46.5962 16.5187 46.7967C16.431 47.7781 15.8943 48.2688 14.9087 48.2688L11.9645 48.2625C11.5492 48.2625 11.1509 48.4275 10.8572 48.7212C10.5635 49.0149 10.3985 49.4132 10.3985 49.8286L10.4048 55.9926Z" fill="white"/>
<path d="M24.6717 57.3653C25.3169 57.3089 26.1501 57.2024 26.645 57.6973C27.6786 58.7121 27.2338 60.5412 25.5989 60.5914C23.6194 60.654 21.6085 60.6603 19.5664 60.6102C17.305 60.5538 17.3677 57.2901 19.4474 57.3277C19.794 57.3319 20.1344 57.3507 20.4685 57.3841C20.7483 57.4133 20.8881 57.2859 20.8881 57.002L20.8819 48.7269C20.8819 48.4095 20.7253 48.2529 20.4121 48.2571L19.3284 48.2696C18.5975 48.2738 18.1423 47.923 17.9628 47.2172C17.8792 46.8832 17.8792 46.5574 17.9628 46.24C18.159 45.5009 18.6393 45.1313 19.4035 45.1313L25.8118 45.125C26.7013 45.125 27.1482 45.5677 27.1524 46.453L27.1586 47.0043C27.167 47.8478 26.7494 48.2675 25.9058 48.2634H24.6529C24.3397 48.2592 24.181 48.4137 24.1769 48.7269L24.1706 56.908C24.1706 57.2421 24.3376 57.3945 24.6717 57.3653Z" fill="white"/>
<path d="M31.8559 54.3979L31.8497 58.7077C31.8455 59.7935 31.3068 60.4262 30.2335 60.6058C30.0748 60.6308 29.9224 60.6183 29.7762 60.5682C28.9619 60.3051 28.5547 59.7455 28.5547 58.8894L28.561 46.4424C28.5631 46.2119 28.6284 45.9862 28.7498 45.7897C28.8713 45.5932 29.0442 45.4333 29.25 45.3273C30.3212 44.7886 31.2922 45.2396 31.787 46.2419C32.6306 47.9541 33.4533 49.6058 34.2552 51.1969C34.5308 51.7482 34.6686 51.7148 34.6686 51.0967V46.7556C34.6686 45.8869 35.0883 45.3482 35.9277 45.1394C36.0989 45.0976 36.2701 45.0914 36.4414 45.1206C37.4562 45.3044 37.9636 45.912 37.9636 46.9435L37.9573 59.0961C37.9556 59.3926 37.8625 59.681 37.6907 59.9212C37.519 60.1615 37.2771 60.3416 36.9989 60.4366C35.9673 60.7874 35.2219 60.5035 34.7626 59.5847C33.7853 57.6094 32.9125 55.8575 32.1441 54.329C31.952 53.9448 31.8559 53.9678 31.8559 54.3979Z" fill="white"/>
<path d="M42.9646 54.3705C42.664 54.3705 42.5032 54.5188 42.4823 54.8153C42.4364 55.5002 42.5032 56.0807 42.6827 56.5568C42.7717 56.7857 42.9273 56.9827 43.1295 57.1223C43.3316 57.2619 43.5709 57.3377 43.8166 57.3398L46.8798 57.3523C47.857 57.3565 48.4354 57.8388 48.615 58.7994C48.64 58.9372 48.64 59.0771 48.615 59.2191C48.4605 60.0209 47.9802 60.4698 47.1742 60.5659C43.4345 61.0106 39.4066 60.3905 39.25 55.7111C39.1748 53.5019 39.1831 51.4806 39.275 49.6473C39.3794 47.5885 40.3483 46.1916 42.1816 45.4566C43.6161 44.8865 45.4891 45.1245 47.0239 45.1183C48.022 45.1099 48.5482 45.6027 48.6024 46.5966C48.6108 46.7762 48.5983 46.9558 48.5649 47.1354C48.4312 47.8745 47.9865 48.2462 47.2306 48.2504L44.017 48.2692C43.3739 48.2734 42.9312 48.574 42.689 49.1712C42.522 49.5888 42.4364 50.0816 42.4322 50.6496C42.428 51.0923 42.6473 51.299 43.0899 51.2697C43.9544 51.2155 44.8251 51.2113 45.7021 51.2572C45.8936 51.2673 46.0812 51.3147 46.2533 51.3966C46.4255 51.4785 46.5785 51.5932 46.703 51.7335C46.8274 51.8738 46.9206 52.0367 46.9769 52.2123C47.0332 52.3879 47.0513 52.5724 47.0301 52.7544C47.0218 52.8087 47.0176 52.8609 47.0176 52.911C47.026 53.8965 46.5123 54.3872 45.4766 54.3831L42.9646 54.3705Z" fill="white"/>
<path d="M55.6934 52.4308C55.0461 52.9653 54.3152 52.9779 53.5009 52.4684C53.2629 52.3222 53.1438 52.389 53.1438 52.6688L53.1564 59.0458C53.1564 59.8226 52.7805 60.3091 52.0288 60.5054C51.8659 60.5471 51.7031 60.5638 51.5402 60.5555C50.5212 60.5054 50.0117 59.9687 50.0117 58.9456L50.018 46.5361C50.0175 46.2471 50.1072 45.965 50.2745 45.7293C50.4417 45.4935 50.6783 45.3157 50.9514 45.2207C52.6364 44.6256 53.7264 46.7053 54.3215 47.9456C54.3453 47.9942 54.3811 48.0361 54.4255 48.0671C54.4699 48.0981 54.5214 48.1174 54.5753 48.123C54.6291 48.1286 54.6836 48.1205 54.7334 48.0993C54.7833 48.0781 54.8269 48.0446 54.8602 48.002C55.3447 47.3797 55.7811 46.7262 56.1695 46.0413C56.9963 44.588 59.2139 44.7947 59.2327 46.7429C59.2744 50.6768 59.2765 54.7256 59.2389 58.8892C59.2306 59.5866 58.9257 60.1107 58.3244 60.4615C58.0988 60.591 57.8754 60.6411 57.6541 60.6119C56.6351 60.4657 56.1256 59.8789 56.1256 58.8516V52.6312C56.1256 52.2596 55.9815 52.1927 55.6934 52.4308Z" fill="white"/>
<path d="M64.2114 57.859C64.1739 58.5397 64.0047 59.1641 63.704 59.732C63.4075 60.3041 62.8751 60.6027 62.1067 60.6278C61.9271 60.632 61.7663 60.5819 61.6243 60.4775C60.8434 59.9011 60.5719 59.1411 60.81 58.1973C61.8248 54.1589 62.7978 50.2563 63.7291 46.4894C63.9713 45.508 64.5685 45.0591 65.5207 45.1426C66.7046 45.2429 66.8299 46.0384 67.0805 47.0219C68.0452 50.7888 69.0077 54.6392 69.9683 58.5731C70.1812 59.4543 69.8764 60.0807 69.0537 60.4524C68.7948 60.5652 68.5213 60.584 68.2331 60.5088C67.402 60.2916 66.8988 59.7612 66.7234 58.9177L66.5229 57.9467C66.4603 57.6544 66.2807 57.5082 65.9842 57.5082L64.5936 57.4957C64.3555 57.4957 64.2281 57.6168 64.2114 57.859Z" fill="white"/>
<path d="M74.6023 48.1441L74.4144 48.1454C73.5599 48.1514 72.872 48.849 72.878 49.7035L72.9 52.8606C72.906 53.7151 73.6035 54.403 74.4581 54.397L74.646 54.3957C75.5005 54.3897 76.1884 53.6922 76.1824 52.8377L76.1604 49.6806C76.1544 48.8261 75.4568 48.1382 74.6023 48.1441Z" fill="white"/>
<path d="M89.8472 48.1133H80.5762C79.7251 48.1133 79.0352 48.8032 79.0352 49.6543V49.8547C79.0352 50.7058 79.7251 51.3957 80.5762 51.3957H89.8472C90.6983 51.3957 91.3882 50.7058 91.3882 49.8547V49.6543C91.3882 48.8032 90.6983 48.1133 89.8472 48.1133Z" fill="white"/>
<path d="M89.9819 52.7973L80.4227 52.814C79.6478 52.8153 79.0206 53.4446 79.022 54.2196L79.0225 54.5453C79.0239 55.3203 79.6532 55.9474 80.4282 55.9461L89.9874 55.9294C90.7623 55.928 91.3895 55.2987 91.3881 54.5237L91.3875 54.198C91.3862 53.4231 90.7569 52.7959 89.9819 52.7973Z" fill="white"/>
<path d="M74.6438 55.7982L74.4433 55.7971C73.5923 55.7927 72.8987 56.479 72.8943 57.33L72.8776 60.5122C72.8732 61.3633 73.5595 62.0568 74.4105 62.0613L74.611 62.0623C75.462 62.0668 76.1556 61.3805 76.16 60.5294L76.1767 57.3472C76.1811 56.4962 75.4948 55.8026 74.6438 55.7982Z" fill="white"/>
<path d="M89.8613 57.3327L80.5526 57.3489C79.7189 57.3504 79.0441 58.0275 79.0456 58.8612L79.0461 59.1243C79.0475 59.9581 79.7246 60.6328 80.5584 60.6314L89.867 60.6151C90.7008 60.6137 91.3755 59.9366 91.374 59.1028L91.3736 58.8397C91.3721 58.006 90.695 57.3312 89.8613 57.3327Z" fill="white"/>
<path d="M89.8527 61.8978L80.5441 61.8816C79.6999 61.8801 79.0144 62.5632 79.013 63.4074L79.0125 63.6454C79.0111 64.4896 79.6942 65.1751 80.5383 65.1766L89.847 65.1928C90.6911 65.1943 91.3766 64.5111 91.3781 63.667L91.3785 63.429C91.38 62.5848 90.6969 61.8993 89.8527 61.8978Z" fill="white"/>
<path d="M62.306 63.4531H14.8607C13.9647 63.4531 13.2383 64.1795 13.2383 65.0756V65.1131C13.2383 66.0092 13.9647 66.7356 14.8607 66.7356H62.306C63.202 66.7356 63.9284 66.0092 63.9284 65.1131V65.0756C63.9284 64.1795 63.202 63.4531 62.306 63.4531Z" fill="white"/>
<path d="M74.6509 63.4648H74.4128C73.5721 63.4648 72.8906 64.1464 72.8906 64.987V68.1943C72.8906 69.035 73.5721 69.7165 74.4128 69.7165H74.6509C75.4916 69.7165 76.1731 69.035 76.1731 68.1943V64.987C76.1731 64.1464 75.4916 63.4648 74.6509 63.4648Z" fill="white"/>
<path d="M90.0476 66.5784L80.3506 66.5954C79.6241 66.5966 79.0362 67.1866 79.0375 67.9131L79.0383 68.4143C79.0396 69.1408 79.6296 69.7287 80.3561 69.7275L90.0531 69.7105C90.7796 69.7093 91.3676 69.1193 91.3663 68.3928L91.3654 67.8916C91.3642 67.1651 90.7742 66.5772 90.0476 66.5784Z" fill="white"/>
<path d="M33.359 69.5625H20.9057C20.0927 69.5625 19.4336 70.2216 19.4336 71.0346V71.3729C19.4336 72.1859 20.0927 72.845 20.9057 72.845H33.359C34.172 72.845 34.8311 72.1859 34.8311 71.3729V71.0346C34.8311 70.2216 34.172 69.5625 33.359 69.5625Z" fill="white"/>
<path d="M56.3359 69.5457L39.2471 69.5756C38.4375 69.577 37.7824 70.2344 37.7838 71.044L37.7844 71.3947C37.7858 72.2043 38.4433 72.8594 39.2528 72.858L56.3416 72.8282C57.1511 72.8268 57.8063 72.1694 57.8049 71.3598L57.8042 71.009C57.8028 70.1995 57.1454 69.5443 56.3359 69.5457Z" fill="white"/>
<path d="M74.6986 71.1281L74.3729 71.1276C73.5564 71.1262 72.8934 71.7869 72.892 72.6034L72.8862 75.8983C72.8848 76.7148 73.5455 77.3778 74.362 77.3793L74.6877 77.3798C75.5042 77.3813 76.1672 76.7205 76.1686 75.9041L76.1744 72.6091C76.1758 71.7926 75.5151 71.1296 74.6986 71.1281Z" fill="white"/>
<path d="M91.5182 71.1289H80.4556C79.6668 71.1289 79.0273 71.7684 79.0273 72.5571V72.8328C79.0273 73.6216 79.6668 74.261 80.4556 74.261H91.5182C92.307 74.261 92.9465 73.6216 92.9465 72.8328V72.5571C92.9465 71.7684 92.307 71.1289 91.5182 71.1289Z" fill="white"/>
</g>
<defs>
<clipPath id="clip0_1895_846">
<rect width="100" height="100" fill="white"/>
</clipPath>
</defs>
</svg>
