<svg width="100" height="100" viewBox="0 0 100 100" fill="none" xmlns="http://www.w3.org/2000/svg">
<path d="M38.9961 5.33142L41.4325 3.92578L44.2438 8.77524L41.7839 10.1809L38.9961 5.33142Z" fill="white"/>
<path d="M61.457 13.3855L66.3065 10.5742L67.7121 13.0107L62.8627 15.8219L61.457 13.3855Z" fill="white"/>
<path d="M48.6172 2H51.4285V7.59914H48.6172V2Z" fill="white"/>
<path d="M32.3164 13.0107L33.7221 10.5742L38.5715 13.3855L37.1659 15.8219L32.3164 13.0107Z" fill="white"/>
<path d="M55.8125 8.77524L58.6238 3.92578L61.0602 5.33142L58.2489 10.1809L55.8125 8.77524Z" fill="white"/>
<path d="M48.6172 81.8906H51.4285V84.6785H48.6172V81.8906Z" fill="white"/>
<path d="M95.0547 74.8861C95.0547 74.8627 95.0547 74.8392 95.0547 74.8158L92.2434 24.3533C92.1263 22.034 90.2755 20.2301 88.0499 20.2301H61.1319C60.4291 14.7013 55.7202 10.4141 50.0039 10.4141C44.2876 10.4141 39.5787 14.7013 38.8759 20.2301H11.9813C9.75575 20.2301 7.90499 22.034 7.78785 24.3533L7.62386 27.1646L10.4117 27.3286L10.5757 24.5173C10.6226 23.6739 11.2317 23.0414 11.9813 23.0414H28.9193L28.3571 34.4505H10.0369L10.2712 30.1399L7.4833 29.9759L5 74.8158C5 74.8392 5 74.8627 5 74.8861V80.4852C5 82.8045 6.89762 84.6787 9.1935 84.6787H23.3905V89.2471H20.5792C18.2599 89.2471 16.3857 91.1447 16.3857 93.4405V94.8462H13.5744V97.6575H86.4568V94.8462H83.6456V93.4405C83.6456 91.1212 81.748 89.2471 79.4521 89.2471H76.6408V84.6787H90.8378C93.1571 84.6787 95.0313 82.7811 95.0313 80.4852L95.0547 74.8861ZM7.78785 74.9095L8.32668 65.07H26.8109L26.2486 76.2917H9.17007C8.7718 76.2917 8.37354 76.1277 8.09241 75.8232C7.95185 75.6826 7.78785 75.4249 7.76443 75.1204V74.9095H7.78785ZM68.3007 23.018L68.8629 34.4271H51.4096V23.018H68.3007ZM69.0035 37.2149L69.5657 48.2492H51.4096V37.2149H69.0035ZM72.5176 51.0605H90.9315L91.564 62.2822H73.0798L72.5176 51.0605ZM70.2686 62.2588H51.4096V51.0371H69.7063L70.2686 62.2588ZM90.7675 48.2492H72.377L71.8148 37.2149H90.1584L90.7675 48.2492ZM48.6217 48.2492H30.4655L31.0278 37.2149H48.6217V48.2492ZM48.6217 51.0605V62.2822H29.7627L30.325 51.0605H48.6217ZM26.9514 62.2588H8.46725L9.09978 51.0371H27.5137L26.9514 62.2588ZM29.6221 65.07H48.6217V76.2917H29.0833L29.6221 65.07ZM51.4096 65.07H70.4091L70.9714 76.2917H51.433L51.4096 65.07ZM73.7827 76.2917L73.2204 65.07H91.7046L92.2434 74.9095V75.0969C92.22 75.4249 92.056 75.6592 91.9154 75.7998C91.6343 76.1043 91.2595 76.2683 90.8378 76.2683L73.7827 76.2917ZM89.4555 24.4939L90.0178 34.4037H71.6976L71.1354 22.9945H88.0733C88.7996 23.018 89.4087 23.6505 89.4555 24.4939ZM50.0039 13.2019C54.174 13.2019 57.6178 16.2475 58.2972 20.2067H41.7106C42.39 16.2475 45.8573 13.2019 50.0039 13.2019ZM31.7306 23.018H48.6217V34.4271H31.1683L31.7306 23.018ZM28.2165 37.2149L27.6542 48.2492H9.26378L9.87289 37.2149H28.2165ZM26.1783 84.6787H28.9896V89.2471H26.1783V84.6787ZM19.1735 93.464C19.1735 92.6909 19.8061 92.0583 20.5792 92.0583H34.5887C35.3618 92.0583 35.9944 92.6909 35.9944 93.464V94.8696H19.1735V93.464ZM80.8577 93.464V94.8696H64.0369V93.464C64.0369 92.6909 64.6694 92.0583 65.4425 92.0583H79.4521C80.2252 92.0818 80.8577 92.6909 80.8577 93.464ZM73.8295 89.2705H71.0182V84.6787H73.8295V89.2705ZM90.8378 81.8909H54.2208V84.6787H68.2304V89.2471H65.4191C63.0998 89.2471 61.2256 91.1447 61.2256 93.4405V94.8462H38.8056V93.4405C38.8056 91.1212 36.908 89.2471 34.6122 89.2471H31.8009V84.6787H45.8104V81.8674H9.1935C8.42039 81.8674 7.78785 81.2349 7.78785 80.4618V78.8219C8.23297 78.9859 8.70152 79.0562 9.1935 79.0562H90.8612C91.3532 79.0562 91.8217 78.9625 92.2668 78.8219V80.4618C92.2434 81.2583 91.6109 81.8909 90.8378 81.8909Z" fill="white"/>
<path d="M43 40.0234H45.8113V42.8347H43V40.0234Z" fill="white"/>
<path d="M82.4219 25.8281H85.2332V28.6394H82.4219V25.8281Z" fill="white"/>
<path d="M62.9609 53.8438H65.7722V56.655H62.9609V53.8438Z" fill="white"/>
</svg>
