<svg width="100" height="100" viewBox="0 0 100 100" fill="none" xmlns="http://www.w3.org/2000/svg">
<g clip-path="url(#clip0_1796_2492)">
<path d="M74.8648 86.0886H24.1289C18.7653 86.0886 14.4062 81.7295 14.4062 76.3659V25.668C14.4062 20.3044 18.7653 15.9453 24.1289 15.9453H74.8648C80.2283 15.9453 84.5874 20.3044 84.5874 25.668V76.3659C84.5874 81.7484 80.2283 86.0886 74.8648 86.0886Z" stroke="white" stroke-width="1.4665" stroke-miterlimit="10" stroke-linecap="round" stroke-linejoin="round"/>
<path d="M30.1367 3V14.4094" stroke="white" stroke-width="1.4665" stroke-miterlimit="10" stroke-linecap="round" stroke-linejoin="round"/>
<path d="M43.0469 3V14.4094" stroke="white" stroke-width="1.4665" stroke-miterlimit="10" stroke-linecap="round" stroke-linejoin="round"/>
<path d="M55.9492 3V14.4094" stroke="white" stroke-width="1.4665" stroke-miterlimit="10" stroke-linecap="round" stroke-linejoin="round"/>
<path d="M68.8594 3V14.4094" stroke="white" stroke-width="1.4665" stroke-miterlimit="10" stroke-linecap="round" stroke-linejoin="round"/>
<path d="M95.9993 31.6758H84.5898" stroke="white" stroke-width="1.4665" stroke-miterlimit="10" stroke-linecap="round" stroke-linejoin="round"/>
<path d="M95.9993 44.5625H84.5898" stroke="white" stroke-width="1.4665" stroke-miterlimit="10" stroke-linecap="round" stroke-linejoin="round"/>
<path d="M95.9993 57.4648H84.5898" stroke="white" stroke-width="1.4665" stroke-miterlimit="10" stroke-linecap="round" stroke-linejoin="round"/>
<path d="M95.9993 70.375H84.5898" stroke="white" stroke-width="1.4665" stroke-miterlimit="10" stroke-linecap="round" stroke-linejoin="round"/>
<path d="M14.4094 31.6758H3" stroke="white" stroke-width="1.4665" stroke-miterlimit="10" stroke-linecap="round" stroke-linejoin="round"/>
<path d="M14.4094 44.5625H3" stroke="white" stroke-width="1.4665" stroke-miterlimit="10" stroke-linecap="round" stroke-linejoin="round"/>
<path d="M14.4094 57.4648H3" stroke="white" stroke-width="1.4665" stroke-miterlimit="10" stroke-linecap="round" stroke-linejoin="round"/>
<path d="M14.4094 70.375H3" stroke="white" stroke-width="1.4665" stroke-miterlimit="10" stroke-linecap="round" stroke-linejoin="round"/>
<path d="M30.1367 86.0898V97.4993" stroke="white" stroke-width="1.4665" stroke-miterlimit="10" stroke-linecap="round" stroke-linejoin="round"/>
<path d="M43.0469 86.0898V97.4993" stroke="white" stroke-width="1.4665" stroke-miterlimit="10" stroke-linecap="round" stroke-linejoin="round"/>
<path d="M55.9492 86.0898V97.4993" stroke="white" stroke-width="1.4665" stroke-miterlimit="10" stroke-linecap="round" stroke-linejoin="round"/>
<path d="M68.8594 86.0898V97.4993" stroke="white" stroke-width="1.4665" stroke-miterlimit="10" stroke-linecap="round" stroke-linejoin="round"/>
<path d="M65.0731 74.4884H33.9342C29.1392 74.4884 25.2539 70.6031 25.2539 65.8081V34.6881C25.2539 29.8931 29.1392 26.0078 33.9342 26.0078H65.0731C69.8681 26.0078 73.7534 29.8931 73.7534 34.6881V65.8081C73.7534 70.6031 69.8681 74.4884 65.0731 74.4884Z" stroke="white" stroke-width="1.4665" stroke-miterlimit="10" stroke-linecap="round" stroke-linejoin="round"/>
</g>
<defs>
<clipPath id="clip0_1796_2492">
<rect width="100" height="100" fill="white"/>
</clipPath>
</defs>
</svg>
