<svg width="100" height="100" viewBox="0 0 100 100" fill="none" xmlns="http://www.w3.org/2000/svg">
<g clip-path="url(#clip0_1796_2687)">
<path d="M22.3688 15.0691C24.7641 13.7071 26.9715 12.2355 29.3355 11.1553C33.6876 9.15141 38.2433 8.72871 42.8303 10.4351C45.664 11.4997 46.118 11.6563 45.3978 15.1944C45.1004 16.666 44.3019 18.0593 43.5348 19.39C41.7032 22.5211 39.7619 25.5895 37.8833 28.6893C37.5545 29.2215 37.2571 29.7851 36.9126 30.3644C41.2805 31.1158 42.8773 32.9005 42.5329 36.5795C42.2354 39.9141 40.3098 41.2448 35.6602 41.2761C35.7541 41.6205 35.8324 41.9493 35.942 42.2624C36.7091 44.7046 37.9459 46.912 39.4801 48.9472C39.8089 49.3699 40.1063 49.4795 40.6699 49.4326C41.938 49.3543 43.2844 49.229 44.4585 49.5735C47.2608 50.3719 48.2941 52.7202 48.6698 55.3503C48.842 56.5401 48.7794 57.7925 48.7167 58.998C48.6541 60.2191 47.7305 60.7044 46.5407 60.4226C45.3978 60.1565 44.208 59.906 43.0495 59.906C39.7306 59.8903 37.4606 61.5498 36.2081 64.5869C35.7072 65.7924 35.2845 67.0448 34.8931 68.2972C34.6739 68.9861 34.4078 69.7062 33.672 69.7219C33.0927 69.7375 32.3413 69.4244 31.9342 69.0017C31.0889 68.1407 30.3217 67.1544 29.7112 66.1055C27.8169 62.8179 27.8795 59.4989 29.7895 56.227C30.0713 55.7573 30.3844 55.319 30.7131 54.818C30.5409 54.6771 30.3844 54.5362 30.1965 54.4266C24.952 51.2329 20.7407 47.0529 17.8288 41.6205C17.594 41.1822 17.3748 41.0256 16.8582 41.1822C15.9032 41.464 14.9326 41.6675 13.9619 41.9023C12.8034 42.1841 12.3494 41.9806 11.7389 40.9474C9.62541 37.3623 8.87395 33.4641 9.29665 29.3624C9.96983 22.8498 12.7252 17.1826 16.5451 11.9694C17.2965 10.9518 18.2358 10.9048 19.1595 11.8128C20.2867 12.9243 21.3982 14.0828 22.3688 15.0691ZM45.664 56.9628C45.6953 53.002 43.9575 51.64 40.3725 52.6419C40.3098 52.6575 40.2472 52.6575 40.1846 52.6889C39.3549 53.0333 38.6504 52.7828 38.1338 52.1096C37.1005 50.7476 36.0046 49.4326 35.1436 47.9766C32.2317 42.9982 31.1828 37.7224 32.8892 32.0708C33.2023 31.0375 33.9068 29.8947 33.7033 28.971C33.4841 27.9848 32.4509 27.155 31.6681 26.3566C29.0537 23.6795 26.3766 21.0338 23.7152 18.3724C21.68 20.1258 20.1928 22.0044 19.2221 24.2431C17.0617 29.2215 17.6722 34.106 19.8796 38.8809C22.7289 45.0334 27.3942 49.4482 33.2806 52.6575C35.1906 53.6908 35.2375 54.4266 33.8598 56.0391C32.9675 57.088 32.1847 58.3248 31.6838 59.6085C30.9793 61.3932 31.5272 63.6632 32.7327 64.947C34.8305 58.7005 39.1827 56.0861 45.664 56.9628ZM35.8794 26.1844C37.805 22.9281 39.7619 19.6561 41.6719 16.3529C42.0006 15.7736 42.1572 15.1004 42.4077 14.4742C42.6738 13.8167 42.4233 13.5036 41.7814 13.2844C39.4175 12.439 37.0222 12.2981 34.58 12.7208C31.4646 13.2688 28.7092 14.6151 26.2201 16.3998C29.4294 19.6561 32.6074 22.8655 35.8794 26.1844ZM16.2163 38.1451C13.6175 30.3957 14.6195 23.3821 20.0988 17.48C19.3787 16.6973 18.7212 15.9615 18.048 15.2413C15.0735 19.2961 12.0207 26.3253 12.2712 31.9925C12.3807 34.3252 12.8661 36.5482 14.0089 38.693C14.7604 38.5051 15.4648 38.3329 16.2163 38.1451ZM35.1436 36.8144C35.2062 37.0648 35.2062 37.8163 35.441 37.8946C36.5056 38.239 37.6797 38.4582 38.6973 37.8163C39.668 37.2057 39.5427 36.1412 39.4175 35.1862C39.2609 33.9807 38.5878 33.5581 37.1162 33.5581C35.6446 33.5581 35.6289 33.5737 35.3784 35.0766C35.2845 35.5619 35.2375 36.0786 35.1436 36.8144Z" fill="white"/>
<path d="M75.281 21.7815C75.6098 21.2806 76.0325 20.6544 76.4708 20.0125C77.2849 18.807 77.7859 18.6348 79.1479 19.1984C82.5764 20.6074 85.2848 22.9087 87.4139 25.8989C90.1223 29.7188 91.406 34.0553 91.9226 38.6423C92.0009 39.3938 91.6878 39.9417 91.0773 40.3487C90.0283 41.0376 89.0108 41.7577 87.9462 42.4309C87.4922 42.7127 87.3513 43.0415 87.2887 43.5737C87.0069 45.7968 86.6155 48.0042 86.318 50.2116C86.2711 50.5873 86.318 51.104 86.5529 51.3858C90.4197 56.2859 90.0283 61.7652 85.457 66.1331C84.502 67.0567 83.4218 66.8532 82.7799 65.6791C82.1537 64.5519 81.5901 63.3934 80.8074 62.3758C77.7546 58.3524 73.6842 57.0843 68.8623 58.5402C68.471 58.6655 68.0796 58.822 67.6725 58.916C66.6393 59.1664 65.5747 58.3837 65.7626 57.3661C66.4514 53.734 67.9387 50.5873 71.4298 48.787C71.7742 48.6148 72.15 48.5052 72.51 48.3799C72.8388 48.2703 73.1832 48.1921 73.7781 48.0199C72.6822 47.0649 71.696 46.2195 70.7253 45.3898C69.8799 46.3917 69.1598 47.3936 68.2831 48.2077C66.6236 49.7419 64.6354 49.8828 62.7881 48.74C60.5494 47.3467 59.2969 45.0453 59.9858 43.0258C60.3772 41.8673 61.2382 40.8497 61.9583 39.6599C60.2832 38.0787 58.8116 36.0905 57.7784 33.7735C55.9624 29.7031 55.07 25.4292 54.9135 20.9831C54.8665 19.8559 55.3205 19.1671 56.3068 18.7131C60.3145 16.8501 64.4319 16.8345 68.4866 18.3843C70.7723 19.308 72.9327 20.6074 75.281 21.7815ZM65.5591 38.6423C66.5454 39.2529 67.4221 39.7225 68.2361 40.2861C70.5062 41.8517 72.8545 43.3233 74.9679 45.061C76.0951 45.9847 77.0031 47.2997 77.6763 48.6148C78.6 50.3995 77.6606 51.4797 75.6724 51.1822C73.0267 50.7908 70.4122 52.4973 69.739 55.143C76.3456 54.0315 81.0578 56.8808 84.5646 62.3914C85.6449 60.8729 86.2711 59.3073 86.0519 57.4913C85.8014 55.5188 84.7838 53.9532 83.3592 52.6225C82.686 51.9963 82.4981 51.3075 82.8895 50.4621C83.0461 50.1177 83.1713 49.7419 83.2966 49.3819C86.0519 40.881 82.4981 31.9105 74.6235 25.6797C72.6822 30.6738 70.0052 35.1825 65.5591 38.6423ZM72.0247 23.5193C70.8349 22.9087 69.6451 22.1886 68.3927 21.6719C65.2929 20.3726 62.0992 19.9655 58.8116 21.0301C58.2011 21.2336 57.9506 21.4997 58.0132 22.1886C58.295 25.7423 59.0308 29.1865 60.5337 32.4115C61.2069 33.8674 62.1775 35.1981 63.0073 36.5758C66.6236 34.4154 70.7097 28.4507 72.0247 23.5193ZM77.5354 23.9889C82.185 28.2002 85.6449 33.1003 86.9286 39.3938C87.4452 39.0494 87.8992 38.8458 88.228 38.5171C88.4628 38.2979 88.682 37.8752 88.635 37.5778C87.8836 32.4115 85.9423 27.8245 81.8406 24.396C80.8856 23.5976 79.7584 22.9713 78.6939 22.2512C78.2399 22.9244 77.9111 23.4253 77.5354 23.9889ZM68.0013 43.7303C67.062 43.1667 66.2479 42.7284 65.4808 42.2117C64.9798 41.8517 64.5728 41.836 64.1501 42.29C63.8996 42.5405 63.6022 42.744 63.383 43.0102C62.6159 43.9025 62.7255 44.5913 63.7274 45.5776C64.7293 46.5639 65.4495 46.6892 66.2792 45.8594C66.9054 45.2332 67.3907 44.4818 68.0013 43.7303Z" fill="white"/>
<path d="M80.4673 70.8637C78.9957 72.304 77.6493 73.7756 76.1464 75.0593C72.9527 77.7677 69.2581 79.2862 64.9998 79.0514C61.1173 78.8322 57.7358 77.2354 54.7143 74.8714C53.1644 73.6503 51.7241 72.257 50.3934 71.0828C49.2506 72.1317 48.0921 73.2276 46.8866 74.2922C42.9102 77.7677 38.4171 79.7089 33.016 78.8792C29.3683 78.3156 26.1903 76.6561 23.341 74.3861C21.9947 73.3059 20.7422 72.1004 19.3802 70.8793C19.1454 71.1455 18.8793 71.4429 18.6131 71.756C15.8578 74.9027 12.7111 77.4859 8.5624 78.5661C7.57612 78.8166 6.54287 78.9575 5.52527 79.0201C4.67988 79.0671 4.05367 78.3782 4.0067 77.5798C3.95974 76.7814 4.50767 76.0456 5.36872 75.983C10.2062 75.6229 13.6034 72.8519 16.5936 69.3764C17.0163 68.8911 17.4077 68.3745 17.799 67.8735C18.9888 66.308 19.8499 66.308 21.0553 67.8109C23.1688 70.4566 25.7206 72.6014 28.7108 74.1826C34.2528 77.0945 39.466 76.4526 44.1939 72.4762C45.8847 71.0672 47.3093 69.3295 48.7653 67.6856C49.8768 66.4176 50.7691 66.3863 51.8024 67.717C53.9941 70.5506 56.6556 72.8519 59.8649 74.4644C64.718 76.891 69.3677 76.4839 73.579 73.1337C75.5202 71.5838 77.1484 69.6426 78.8078 67.7639C79.9976 66.4176 80.8117 66.3862 81.9546 67.7952C84.9604 71.5212 88.5298 74.4644 93.3047 75.6699C93.8369 75.8108 94.3692 75.8734 94.9172 75.9517C96.0443 76.1082 96.6706 76.7657 96.561 77.6737C96.4514 78.6287 95.6217 79.1453 94.4788 79.0044C91.9896 78.7226 89.6726 77.9086 87.4965 76.6561C85.07 75.2785 82.9565 73.5251 81.0465 71.4899C80.843 71.2864 80.6552 71.0828 80.4673 70.8637Z" fill="white"/>
<path d="M65.8131 86.4674C64.639 87.5476 63.4491 88.7218 62.1967 89.8176C58.2516 93.2305 53.8055 95.1091 48.4827 94.3107C44.8193 93.7628 41.6569 92.1033 38.792 89.849C37.43 88.7687 36.1932 87.5633 34.8156 86.3422C34.6434 86.53 34.4242 86.7805 34.1893 87.031C33.1561 88.0799 32.1698 89.2071 31.0583 90.1621C24.8588 95.4536 17.9861 95.9389 11.0664 91.6337C8.5929 90.0994 6.43246 88.1895 4.55382 85.9508C3.81802 85.0741 3.81802 84.1817 4.53817 83.5712C5.27397 82.9449 6.1037 83.0702 6.88647 83.9625C8.65552 85.9821 10.6124 87.7824 12.9138 89.1758C18.6749 92.6356 24.2013 92.1816 29.211 87.6729C30.6982 86.3265 31.9976 84.7453 33.297 83.1954C34.4242 81.8647 35.2852 81.8334 36.3811 83.2111C38.4789 85.8725 41.0151 88.0173 44.0052 89.5985C49.4689 92.4947 54.8231 91.9937 59.5823 87.939C61.2574 86.5144 62.6977 84.7923 64.1536 83.1328C65.2652 81.8647 66.1106 81.8178 67.1908 83.1328C69.4138 85.8412 72.0126 88.1269 75.1437 89.7394C80.0125 92.2442 84.756 92.0094 89.2335 88.8314C90.7207 87.7824 91.9731 86.4204 93.3352 85.1837C93.57 84.9645 93.7578 84.6827 93.9927 84.4792C94.6502 83.9312 95.3703 83.9156 96.0122 84.4948C96.6384 85.0584 96.795 85.8412 96.247 86.4831C92.5211 90.8979 88.1689 94.2324 82.0946 94.4673C77.6172 94.6395 73.7503 92.9174 70.2436 90.2873C68.678 89.0818 67.2221 87.6729 65.8131 86.4674Z" fill="white"/>
<path d="M53.9772 5C54.9948 5.01566 56.1533 5.70449 57.0613 6.83167C58.8147 8.99211 59.347 11.5909 59.5192 14.2836C59.5662 15.129 58.9087 15.8178 58.0789 15.7709C55.1827 15.6143 52.3961 15.0351 50.1887 12.9686C48.7171 11.5909 48.3726 9.82184 49.1084 8.05279C49.8442 6.22112 51.6133 5 53.9772 5ZM56.1064 12.3893C55.9342 10.8707 55.261 9.32087 54.5252 8.60072C53.8207 7.91189 53.0223 7.92754 52.3334 8.63203C51.6759 9.32087 51.6446 10.088 52.3334 10.7455C53.351 11.7318 54.6348 12.1545 56.1064 12.3893Z" fill="white"/>
<path d="M16.9682 52.8438C17.8919 52.8594 19.0191 53.4856 19.9114 54.5345C21.7744 56.7263 22.3067 59.372 22.4789 62.143C22.5259 63.0197 21.8214 63.6772 20.929 63.6303C18.2989 63.4737 15.7628 62.9258 13.6493 61.2507C11.8646 59.8417 11.301 57.963 12.0055 56.0531C12.71 54.1275 14.526 52.8438 16.9682 52.8438ZM18.9408 60.2174C19.066 60.1235 19.1756 60.0452 19.3009 59.9513C18.7216 58.8084 18.2363 57.603 17.5318 56.5384C16.9526 55.6774 16.0133 55.74 15.3088 56.4758C14.6199 57.1803 14.6199 57.9787 15.3557 58.6519C16.3733 59.5912 17.6258 59.9982 18.9408 60.2174Z" fill="white"/>
<path d="M86.7609 5C89.0779 5.01566 90.8313 6.23677 91.5671 8.05279C92.2872 9.8375 91.9271 11.5596 90.4712 12.9842C88.7804 14.628 86.6357 15.2229 84.3969 15.6143C83.8647 15.7082 83.3167 15.7865 82.7688 15.7865C81.7825 15.8022 81.0937 15.1446 81.1563 14.1584C81.2972 11.7005 81.8138 9.32087 83.2698 7.27002C84.2091 5.92367 85.4615 5.01566 86.7609 5ZM84.35 12.1232C84.4596 12.2014 84.5692 12.2954 84.6787 12.3737C85.9781 12.1701 87.1836 11.7631 88.2012 10.8864C89.0153 10.1819 89.0309 9.36783 88.3264 8.64769C87.5906 7.89623 86.6513 7.86492 86.0408 8.78859C85.3676 9.80618 84.9136 10.996 84.35 12.1232Z" fill="white"/>
<path d="M36.3848 17.3391C36.3848 18.1689 35.6804 18.8734 34.8506 18.889C34.0209 18.889 33.3164 18.2002 33.3164 17.3548C33.3164 16.5094 34.0052 15.8206 34.8506 15.8206C35.6804 15.8049 36.3848 16.4938 36.3848 17.3391Z" fill="white"/>
<path d="M65.6865 25.0703C66.5319 25.0703 67.2208 25.7591 67.2364 26.5889C67.2364 27.4186 66.5476 28.1231 65.7178 28.1388C64.8881 28.1388 64.1836 27.4499 64.168 26.6045C64.168 25.7748 64.8568 25.0703 65.6865 25.0703Z" fill="white"/>
</g>
<defs>
<clipPath id="clip0_1796_2687">
<rect width="100" height="100" fill="white"/>
</clipPath>
</defs>
</svg>
