<svg width="100" height="100" viewBox="0 0 100 100" fill="none" xmlns="http://www.w3.org/2000/svg">
<g clip-path="url(#clip0_1895_662)">
<path d="M49.3217 97.0759C33.9871 97.0759 18.6526 97.0759 3.13971 97.0759C2.78309 97.0759 2.42647 97.0759 2.24816 97.0759C1.53493 97.0759 1 96.8976 1 96.1843C1 95.6494 1.53493 95.1145 2.06985 95.2928C4.03125 95.6494 3.67463 94.2229 3.67463 93.1531C3.67463 71.2211 3.67463 49.1108 3.67463 27.1788C3.67463 24.3259 3.67463 24.3259 6.52757 24.3259C10.9853 24.3259 10.9853 24.3259 10.9853 19.8681C10.9853 18.4417 10.9853 17.0152 10.9853 15.5887C10.9853 14.5189 11.3419 13.0924 9.38052 13.2707C8.84559 13.2707 8.66728 12.7358 8.84559 12.2009C9.0239 11.4876 9.55882 11.3093 10.2721 11.3093C13.125 11.3093 15.9779 11.3093 18.8309 11.3093C20.614 11.3093 22.932 12.0226 23.8235 10.9527C24.7151 10.0612 24.0018 7.74315 24.1801 6.13837C24.3585 1.32403 23.4669 2.03726 28.2812 2.03726C42.7243 2.03726 57.1673 2.03726 71.432 2.03726C73.9283 2.03726 73.9283 2.03727 73.9283 4.53359C73.9283 6.31668 73.9283 8.09976 73.9283 9.70454C73.9283 10.9527 74.2849 11.3093 75.5331 11.3093C79.6342 11.3093 83.9136 11.3093 88.0147 11.3093C88.7279 11.3093 89.7978 10.9527 89.9761 12.0226C90.1544 13.2707 89.2629 13.0924 88.3713 13.2707C87.6581 13.2707 87.6581 13.8056 87.6581 14.3406C87.6581 17.1935 87.6581 20.2248 87.6581 23.0777C87.6581 23.9692 88.0147 24.1476 88.9063 24.1476C90.3327 24.1476 91.9375 24.1476 93.364 24.1476C94.9688 23.9693 95.5037 24.6825 95.5037 26.2873C95.5037 42.87 95.5037 59.4527 95.5037 76.2137C95.5037 82.0979 95.5037 87.9821 95.5037 93.688C95.5037 94.5795 95.5037 95.2928 96.5735 95.1145C97.2868 95.1145 98 95.2928 98 96.1843C98 97.2542 97.1085 97.0759 96.3952 97.0759C89.4412 97.0759 82.4871 97.0759 75.5331 97.0759C66.6176 97.2542 58.0588 97.2542 49.3217 97.0759ZM49.5 28.6053C41.2978 28.6053 33.0956 28.6053 24.8934 28.6053C23.4669 28.6053 22.932 28.7836 22.932 30.3884C22.932 43.5832 22.932 56.7781 22.932 69.9729C22.932 71.3994 23.4669 71.756 24.8934 71.756C41.2978 71.756 57.5239 71.756 73.9283 71.756C75.3548 71.756 75.8897 71.3994 75.7114 69.9729C75.7114 56.7781 75.7114 43.5832 75.7114 30.2101C75.7114 28.7836 75.3548 28.427 73.9283 28.427C65.9044 28.6053 57.7022 28.6053 49.5 28.6053ZM93.364 54.4601C93.364 45.7229 93.364 36.8075 93.364 28.0704C93.364 26.4656 92.829 26.109 91.4026 26.109C89.0846 26.2873 86.7665 26.109 84.4485 26.109C83.9136 26.109 83.2004 25.9306 83.2004 26.6439C83.2004 29.3185 81.239 28.6053 79.8125 28.427C78.2077 28.427 77.8511 28.7836 77.8511 30.3884C77.8511 43.0483 77.8511 55.7082 77.8511 68.3681C77.8511 71.5777 77.8511 71.5777 81.0607 71.5777C82.4871 71.5777 83.2004 72.1126 83.2004 73.5391C83.2004 74.074 83.2004 74.609 83.2004 75.1439C83.2004 78.1751 83.2004 78.1751 80.1691 78.3534C79.4559 78.3534 78.2077 77.9968 78.2077 78.7101C78.0294 80.6715 77.1379 82.4545 76.6029 84.2376C75.8897 87.4472 76.4246 90.8351 76.4246 94.0446C76.4246 94.7579 76.6029 95.2928 77.4945 95.2928C78.386 95.2928 78.2077 94.5795 78.2077 94.0446C78.2077 92.2615 78.2077 90.4784 78.2077 88.517C78.2077 86.5556 78.7427 84.7726 80.8824 84.0593C81.4173 83.881 81.5956 83.5244 81.7739 82.9895C82.3088 80.8498 83.9136 79.9582 86.0533 79.6016C88.193 79.245 90.1544 79.6016 91.2243 81.7413C91.5809 82.4545 92.2941 82.8112 93.0073 82.8112C93.8989 82.6328 93.364 81.7413 93.364 81.2064C93.364 72.1126 93.364 63.3755 93.364 54.4601ZM5.63603 54.4601C5.63603 63.1972 5.63603 72.1126 5.63603 80.8498C5.63603 81.3847 5.27941 82.2762 5.99265 82.6328C6.88419 82.8112 7.41912 82.2762 7.95404 81.563C9.0239 79.6016 10.9853 79.4233 13.125 79.6016C15.2647 79.9582 16.8695 80.8498 17.4044 82.9895C17.5827 83.7027 17.761 84.0593 18.4743 84.2376C20.2574 84.7726 20.7923 86.199 20.9706 87.9821C20.9706 89.9435 20.9706 91.9049 20.9706 93.8663C20.9706 94.4012 20.614 95.2928 21.6838 95.2928C22.7537 95.2928 22.3971 94.4012 22.3971 93.8663C22.3971 90.6568 22.3971 87.4472 22.3971 84.4159C22.3971 84.0593 22.3971 83.3461 22.2188 83.3461C20.2574 82.8112 20.9706 81.2064 20.9706 79.9582C20.9706 78.8884 20.7923 78.3534 19.5441 78.5317C19.0092 78.5317 18.4743 78.5317 17.9393 78.5317C16.5129 78.7101 15.7996 77.9968 15.7996 76.5703C15.7996 76.0354 15.7996 75.5005 15.7996 74.9656C15.7996 71.9343 15.7996 71.756 18.8309 71.9343C20.614 71.9343 20.9706 71.3994 20.9706 69.7946C20.9706 56.7781 20.9706 43.7615 20.9706 30.745C20.9706 29.1402 20.614 28.6053 19.0092 28.7836C18.6526 28.7836 18.296 28.7836 17.761 28.7836C16.6912 28.7836 15.6213 28.7836 15.6213 27.1788C15.6213 26.2873 14.9081 26.4656 14.3732 26.4656C11.8768 26.4656 9.38051 26.4656 7.0625 26.4656C5.63603 26.4656 5.45772 27.0005 5.45772 28.2487C5.63603 36.8075 5.63603 45.5446 5.63603 54.4601ZM48.6085 17.3718C55.7408 17.3718 63.0515 17.3718 70.1838 17.3718C71.432 17.3718 71.7886 17.1935 71.7886 15.767C71.6103 12.3792 71.7886 8.813 71.7886 5.42513C71.7886 4.17697 71.6103 3.82035 70.3621 3.82035C56.0974 3.82035 41.6544 3.82035 27.3897 3.82035C26.3199 3.82035 25.7849 3.99866 25.7849 5.24682C25.7849 8.63469 25.7849 12.2009 25.7849 15.5887C25.7849 16.8369 26.1415 17.1935 27.3897 17.1935C34.5221 17.1935 41.6544 17.3718 48.6085 17.3718ZM49.3217 78.3534C43.7941 78.3534 38.2665 78.3534 32.739 78.3534C31.3125 78.3534 30.9559 78.7101 30.9559 80.1365C30.9559 81.3847 31.4908 82.8112 29.7077 83.3461C29.5294 83.3461 29.5294 84.0593 29.5294 84.4159C29.5294 87.6255 29.5294 90.8351 29.5294 94.0446C29.5294 96.006 30.9559 95.2928 31.8474 95.2928C32.9173 95.4711 33.8088 95.4711 33.6305 93.8663C33.4522 90.3001 33.6305 86.9123 33.6305 83.3461C33.6305 81.9196 33.9871 81.2064 35.5919 81.2064C44.864 81.2064 53.9577 81.2064 63.2298 81.2064C64.6563 81.2064 65.3695 81.7413 65.3695 83.3461C65.3695 86.9123 65.3695 90.4784 65.3695 94.0446C65.3695 95.8277 66.4393 95.2928 67.3309 95.2928C68.2224 95.2928 69.4706 96.006 69.4706 94.0446C69.4706 90.8351 69.4706 87.6255 69.4706 84.2376C69.4706 83.881 69.6489 83.3461 69.2923 83.1678C67.5092 82.6329 67.8658 81.2064 68.0441 80.1365C68.2224 78.5317 67.5092 78.3534 66.0827 78.3534C60.3768 78.3534 54.8493 78.3534 49.3217 78.3534ZM42.1893 83.1678C40.0496 83.1678 38.4448 83.1678 36.8401 83.1678C35.9485 83.1678 35.4136 83.3461 35.4136 84.4159C35.4136 87.6255 35.4136 90.8351 35.4136 93.8663C35.4136 94.9362 35.7702 95.1145 36.8401 95.1145C40.2279 95.1145 43.6158 95.1145 47.182 95.1145C48.2518 95.1145 48.4301 94.7578 48.4301 93.688C48.4301 92.2615 48.4301 90.8351 48.4301 89.4086C48.4301 87.2689 49.3217 84.5942 48.0735 83.3461C46.6471 82.2762 43.9724 83.3461 42.1893 83.1678ZM56.8107 95.1145C58.4154 95.1145 60.1985 95.1145 61.8033 95.1145C62.8732 95.1145 63.2298 94.9362 63.2298 93.8663C63.2298 90.8351 63.2298 87.6255 63.2298 84.5942C63.2298 83.5244 62.8732 83.1678 61.8033 83.1678C58.4154 83.1678 55.0276 83.1678 51.6397 83.1678C50.5699 83.1678 50.2132 83.5244 50.3915 84.4159C50.3915 87.6255 50.3915 90.8351 50.3915 93.8663C50.3915 94.7579 50.5699 95.1145 51.6397 95.1145C53.2445 95.1145 55.0276 95.1145 56.8107 95.1145ZM79.9908 13.2707C79.0993 13.2707 78.5643 13.2707 78.0294 13.2707C73.9283 13.2707 73.75 13.2707 73.75 17.3718C73.75 18.7983 73.2151 19.1549 71.9669 19.1549C69.2923 19.1549 66.6176 19.1549 63.943 19.1549C62.8732 19.1549 61.9816 18.9766 61.9816 20.5814C61.9816 22.3645 63.0515 21.8295 63.943 21.8295C69.6489 21.8295 75.1765 21.8295 80.8824 21.8295C81.7739 21.8295 82.8438 21.8295 82.8438 23.0777C82.8438 24.5042 83.9136 24.1476 84.6268 24.1476C85.6967 24.1476 85.3401 23.4343 85.5184 22.7211C85.5184 21.4729 85.5184 20.2248 85.5184 18.9766C85.5184 17.1935 86.2316 14.6972 85.1618 13.449C84.0919 12.5575 81.5956 13.449 79.9908 13.2707ZM26.1415 22.0079C28.8162 22.0079 31.6691 22.0079 34.3438 22.0079C35.2353 22.0079 36.1268 22.1862 36.1268 20.7597C36.1268 19.1549 35.2353 19.3332 34.3438 19.3332C32.3824 19.3332 30.5993 19.3332 28.6379 19.3332C24.1801 19.3332 24.0018 19.3332 24.0018 14.8755C24.0018 13.8056 23.6452 13.449 22.5754 13.449C19.9007 13.449 17.0478 13.6273 14.3732 13.449C13.125 13.449 12.9467 13.984 12.9467 15.0538C12.9467 17.7284 12.9467 20.2248 12.9467 22.8994C12.9467 23.4343 12.5901 24.5042 13.8382 24.5042C14.7298 24.5042 15.9779 25.2174 16.1562 23.4343C16.1562 22.3645 17.0478 22.3645 17.761 22.3645C20.4357 22.0079 23.2886 22.0079 26.1415 22.0079ZM86.4099 95.1145C87.1232 95.1145 88.0147 95.1145 88.7279 95.1145C93.5423 95.1145 93.5423 95.1145 93.1857 90.4784C93.1857 90.3001 93.1857 90.3001 93.1857 90.1218C93.1857 89.4086 92.829 89.2303 92.2941 89.2303C88.5496 89.2303 84.8051 89.2303 81.0607 89.2303C79.6342 89.2303 79.9908 90.3001 80.1691 91.0134C80.5257 92.4398 78.921 94.2229 81.0607 95.1145C81.239 95.2928 81.7739 95.1145 81.9522 95.1145C83.557 95.1145 84.9835 95.1145 86.4099 95.1145ZM12.0551 95.1145C12.7684 95.1145 13.6599 95.1145 14.3732 95.1145C19.0092 95.1145 19.0092 95.1145 18.8309 90.4784C18.8309 89.4086 18.4743 89.2303 17.5827 89.2303C15.0864 89.2303 12.5901 89.2303 10.0938 89.2303C5.45772 89.2303 5.45772 89.2303 5.63603 94.0446C5.63603 94.9362 5.99265 95.2928 6.88419 95.2928C8.48897 95.1145 10.2721 95.1145 12.0551 95.1145ZM49.3217 22.0079C52.5312 22.0079 55.7408 22.0079 58.7721 22.0079C59.8419 22.0079 60.3768 21.8295 60.3768 20.7597C60.3768 19.6898 60.0202 19.3332 58.9504 19.3332C52.5312 19.3332 45.9338 19.3332 39.5147 19.3332C38.4448 19.3332 38.0882 19.6898 38.0882 20.7597C38.0882 21.8295 38.6232 22.0079 39.5147 22.0079C42.7243 21.8295 45.9338 21.8295 49.3217 22.0079ZM86.7665 87.2689C88.5496 87.2689 90.3327 87.2689 91.9375 87.2689C93.7206 87.2689 93.364 86.3773 93.0073 85.4858C92.6507 84.5942 91.9375 84.4159 91.046 84.4159C90.1544 84.4159 89.6195 84.0593 89.4412 83.1678C89.0846 81.563 87.6581 81.563 86.4099 81.563C85.1618 81.7413 83.557 82.0979 83.557 83.5244C83.557 85.1292 83.0221 86.0207 81.239 86.0207C80.8824 86.0207 80.3474 86.3773 80.3474 86.9123C80.3474 87.6255 81.0607 87.2689 81.4173 87.2689C83.2004 87.2689 84.9835 87.2689 86.7665 87.2689ZM12.2335 87.2689C13.8382 87.2689 15.6213 87.2689 17.2261 87.2689C17.761 87.2689 18.4743 87.6255 18.4743 86.9123C18.4743 86.199 17.761 85.8424 17.2261 86.0207C15.7996 86.0207 15.2647 85.4858 15.443 84.0593C15.6213 82.8112 14.5515 82.0979 13.4816 81.7413C12.2335 81.3847 10.4504 81.0281 9.91544 82.2762C9.20221 83.881 8.31066 84.4159 6.70588 84.7725C5.81434 84.9509 5.45772 86.0207 5.63603 86.9123C5.81434 87.9821 6.70588 87.4472 7.24081 87.4472C8.84559 87.2689 10.4504 87.2689 12.2335 87.2689ZM57.5239 76.392C59.4853 76.392 61.4467 76.392 63.5864 76.392C64.6562 76.392 65.0129 76.0354 64.8346 75.1439C64.8346 74.2523 64.8346 73.7174 63.5864 73.7174C59.4853 73.7174 55.3842 73.7174 51.2831 73.7174C50.2132 73.7174 50.0349 74.2523 50.0349 75.1439C50.0349 76.2137 50.3915 76.5703 51.2831 76.5703C53.6011 76.392 55.5625 76.392 57.5239 76.392ZM57.5239 26.6439C59.6636 26.6439 61.625 26.6439 63.7647 26.6439C64.8346 26.6439 65.0129 26.109 65.0129 25.2174C65.0129 24.3259 64.8346 23.7909 63.7647 23.7909C59.8419 23.7909 55.7408 23.7909 51.818 23.7909C50.7482 23.7909 50.3915 24.1476 50.3915 25.0391C50.3915 25.9306 50.3915 26.4656 51.6397 26.4656C53.4228 26.4656 55.3842 26.6439 57.5239 26.6439ZM73.75 76.392C75.7114 76.392 77.6728 76.392 79.8125 76.392C80.8823 76.392 81.0607 75.8571 81.0607 74.9656C81.0607 74.074 80.8824 73.5391 79.9908 73.7174C76.068 73.7174 71.9669 73.7174 68.0441 73.7174C66.796 73.7174 66.9743 74.4306 66.9743 75.1439C66.9743 76.0354 67.1526 76.392 68.2224 76.392C69.8272 76.392 71.7886 76.392 73.75 76.392ZM25.0717 76.392C27.0331 76.392 28.9945 76.392 30.9559 76.392C32.0257 76.392 32.204 76.0354 32.204 74.9656C32.204 74.074 32.0257 73.5391 30.9559 73.5391C27.0331 73.5391 23.1103 73.5391 19.3658 73.5391C18.4743 73.5391 17.9393 73.7174 17.9393 74.7873C17.9393 75.8571 18.1176 76.392 19.3658 76.2137C21.1489 76.2137 23.1103 76.392 25.0717 76.392ZM41.2978 73.7174C39.1581 73.7174 37.1967 73.7174 35.057 73.7174C33.9871 73.7174 33.8088 74.2523 33.9871 74.9656C33.9871 75.6788 33.8088 76.392 34.8787 76.392C38.9798 76.392 43.0809 76.392 47.0037 76.392C48.2518 76.392 47.8952 75.5005 48.0735 74.7873C48.2518 73.8957 47.7169 73.7174 47.0037 73.7174C45.2206 73.7174 43.2592 73.7174 41.2978 73.7174ZM25.0717 23.7909C23.1103 23.7909 20.9706 23.7909 19.0092 23.7909C17.761 23.7909 18.1176 24.5042 17.9393 25.3957C17.761 26.4656 18.1176 26.6439 19.0092 26.6439C22.932 26.6439 26.8548 26.6439 30.9559 26.6439C32.0257 26.6439 32.204 26.109 32.204 25.2174C32.204 24.3259 32.0257 23.7909 30.9559 23.7909C28.9945 23.9692 27.0331 23.7909 25.0717 23.7909ZM73.9283 26.6439C75.8897 26.6439 77.8511 26.6439 79.9908 26.6439C81.0607 26.6439 81.0607 26.2873 81.0607 25.3957C81.0607 24.5042 81.0607 23.9692 79.9908 23.9692C76.068 23.9692 72.1452 23.9692 68.2224 23.9692C67.1526 23.9692 66.9743 24.5042 66.9743 25.3957C66.9743 26.2873 67.1526 26.8222 68.2224 26.8222C70.0055 26.4656 71.9669 26.6439 73.9283 26.6439ZM41.2978 26.6439C43.2592 26.6439 45.0423 26.6439 47.0037 26.6439C47.8952 26.6439 48.4301 26.4656 48.4301 25.3957C48.4301 24.3259 48.2518 23.7909 47.0037 23.9692C43.0809 23.9692 39.3364 23.9692 35.4136 23.9692C34.3437 23.9692 34.1654 24.5042 34.1654 25.3957C34.1654 26.2873 34.3437 26.8222 35.4136 26.8222C37.1967 26.4656 39.3364 26.6439 41.2978 26.6439ZM74.2849 89.052C74.2849 87.4472 74.2849 86.0207 74.2849 84.4159C74.4632 83.1678 73.75 82.9895 72.6801 82.9895C71.6103 82.9895 71.0754 83.1678 71.0754 84.4159C71.2537 87.4472 71.0754 90.4784 71.0754 93.5097C71.0754 94.7578 71.432 95.2928 72.6801 95.1145C73.9283 95.1145 74.2849 94.7578 74.2849 93.5097C74.2849 92.0832 74.2849 90.6567 74.2849 89.052ZM27.568 89.052C27.568 87.4472 27.568 85.8424 27.568 84.4159C27.568 83.1678 27.2114 82.8112 25.9632 82.9895C24.8934 82.9895 24.3585 82.9895 24.3585 84.4159C24.5368 87.4472 24.3585 90.3001 24.3585 93.3314C24.3585 94.4012 24.3585 95.2928 25.9632 95.2928C27.3897 95.2928 27.568 94.7578 27.568 93.5097C27.3897 91.9049 27.568 90.4784 27.568 89.052ZM25.7849 81.0281C26.3199 81.0281 26.8548 81.0281 27.3897 81.0281C28.4596 81.0281 28.9945 81.0281 28.9945 79.6016C28.9945 78.1751 28.2813 78.1751 27.2114 78.3534C25.9632 78.3534 24.8934 78.3534 23.6452 78.3534C22.5754 78.3534 22.5754 78.8884 22.5754 79.7799C22.5754 80.6715 22.5754 81.2064 23.6452 81.2064C24.5368 81.0281 25.25 81.0281 25.7849 81.0281ZM72.6801 78.3534C72.1452 78.3534 71.6103 78.3534 71.0754 78.3534C70.1838 78.3534 69.4706 78.3534 69.4706 79.6016C69.4706 80.8498 70.0055 81.2064 71.0754 81.0281C72.1452 81.0281 73.2151 81.0281 74.2849 81.0281C75.3548 81.0281 75.7114 80.6715 75.7114 79.6016C75.7114 78.5317 75.1765 78.3534 74.2849 78.3534C73.9283 78.3534 73.3934 78.3534 72.6801 78.3534Z" fill="#FFFFFD"/>
<path d="M86.4108 3.64453C87.3023 3.82284 88.3722 4.17946 89.0854 4.89269C89.977 5.78423 90.6902 6.31916 91.9384 5.42762C92.6516 4.89269 93.7215 5.071 94.613 5.24931C95.1479 5.24931 95.5045 5.60593 95.5045 6.31916C95.5045 7.0324 95.1479 7.21071 94.4347 7.21071C92.6516 7.0324 91.4034 7.56732 90.6902 9.35041C90.5119 9.70703 90.1553 9.88534 89.7987 9.88534C89.2637 9.88534 88.9071 9.35041 88.9071 8.9938C88.9071 7.0324 87.659 6.31916 86.0542 5.78423C85.3409 5.60593 84.9843 5.24931 85.1626 4.53608C85.5192 3.82284 85.8759 3.64453 86.4108 3.64453Z" fill="#FFFFFD"/>
<path d="M49.5005 41.2628C42.5464 41.2628 35.4141 41.2628 28.46 41.2628C28.1034 41.2628 27.7468 41.2628 27.5685 41.2628C27.0335 41.2628 26.3203 41.0845 26.3203 40.3713C26.3203 39.658 26.8552 39.3014 27.3902 39.3014C28.8166 39.4797 29.1733 38.7665 28.9949 37.5183V37.34C29.1733 35.9135 28.2817 33.7738 29.5299 33.2389C31.4913 32.3474 33.8093 32.8823 36.1273 33.0606C36.6622 33.0606 36.8405 33.7738 36.8405 34.3088C36.8405 35.3786 36.8405 36.4485 36.8405 37.6966C36.6622 38.9448 37.0188 39.4797 38.4453 39.4797C39.8718 39.4797 39.8718 38.7665 39.8718 37.6966C39.8718 33.0606 39.8718 33.0606 44.6861 33.0606C47.7174 33.0606 47.7174 33.0606 47.7174 36.0919C47.7174 36.6268 47.7174 37.1617 47.7174 37.6966C47.5391 38.9448 47.8957 39.658 49.3221 39.658C50.7486 39.658 50.7486 38.9448 50.7486 37.8749C50.7486 33.2389 50.7486 33.2389 55.563 33.2389C58.7725 33.2389 58.7725 33.2389 58.7725 36.4485C58.7725 36.9834 58.7725 37.6966 58.7725 38.2316C58.7725 39.3014 58.9508 39.8363 60.199 39.658C61.2688 39.658 61.9821 39.658 61.8038 38.2316C61.8038 38.0532 61.8038 38.0533 61.8038 37.8749C61.9821 36.4485 60.9122 34.3088 62.517 33.5955C64.3001 32.704 66.7964 33.2389 68.7578 33.4172C69.471 33.4172 69.6494 34.1305 69.6494 34.8437C69.6494 35.7352 69.6494 36.8051 69.6494 37.6966C69.6494 38.9448 69.6494 39.8363 71.2541 39.658C71.7891 39.658 72.5023 39.8363 72.5023 40.5496C72.5023 41.4411 71.7891 41.4411 71.0758 41.6194C68.2229 41.6194 65.5482 41.6194 62.6953 41.6194C58.4159 41.2628 53.9582 41.2628 49.5005 41.2628ZM63.9435 36.8051C63.7652 38.2316 63.7652 39.4797 65.9049 39.3014C67.3313 39.1231 68.2229 38.9448 68.0446 37.34C67.8663 36.0919 68.7578 34.4871 66.2615 34.6654C64.4784 34.8437 63.4085 34.8437 63.9435 36.8051ZM52.8883 36.8051C52.71 38.2316 52.71 39.4797 54.8497 39.3014C56.4545 39.3014 57.1677 38.9448 56.9894 37.34C56.8111 36.0919 57.346 34.4871 55.028 34.6654C53.0666 34.8437 52.5317 35.2003 52.8883 36.8051ZM34.8791 36.9834C35.2358 35.3786 34.8791 34.6654 32.9177 34.6654C31.313 34.6654 30.9563 35.2003 30.9563 36.8051C31.1346 38.2316 30.778 39.4797 32.9177 39.4797C34.8791 39.3014 35.0574 38.5882 34.8791 36.9834ZM45.756 36.9834C46.1126 35.5569 45.9343 34.6654 43.9729 34.6654C42.1898 34.6654 41.6549 35.2003 41.8332 36.8051C42.0115 38.2316 41.6549 39.3014 43.7946 39.3014C45.756 39.3014 46.1126 38.5882 45.756 36.9834Z" fill="#FFFFFD"/>
<path d="M49.5005 53.5719C42.5464 53.5719 35.4141 53.5719 28.46 53.5719C28.1034 53.5719 27.7468 53.5719 27.5685 53.5719C27.0335 53.5719 26.3203 53.5719 26.3203 52.6804C26.3203 51.9671 26.8552 51.6105 27.3902 51.6105C28.8166 51.7888 28.9949 51.0756 28.9949 49.8274C28.9949 45.1914 28.9949 45.1914 33.631 45.1914C36.8405 45.1914 36.8405 45.1914 36.8405 48.401C36.8405 48.9359 36.8405 49.2925 36.8405 49.8274C36.6622 50.8973 36.8405 51.6105 38.267 51.6105C39.6935 51.6105 39.8718 51.0756 39.8718 49.8274C39.8718 45.1914 39.8718 45.1914 44.5078 45.1914C44.6861 45.1914 44.8644 45.1914 45.0427 45.1914C47.7174 45.1914 47.7174 45.1914 47.7174 47.866C47.7174 48.5793 47.7174 49.2925 47.7174 50.0057C47.5391 51.2539 48.074 51.6105 49.3221 51.6105C50.392 51.6105 51.1052 51.4322 50.9269 50.1841C50.7486 49.1142 50.9269 48.0444 50.9269 46.7962C50.9269 45.7263 51.2835 45.1914 52.5317 45.1914C54.1365 45.1914 55.563 45.1914 57.1677 45.1914C58.4159 45.1914 58.7725 45.7263 58.7725 46.7962C58.7725 47.866 58.7725 48.9359 58.7725 50.1841C58.5942 51.4322 59.3074 51.6105 60.3773 51.6105C61.6255 51.6105 61.9821 51.2539 61.9821 50.0057C61.9821 45.1914 62.1604 45.1914 66.9747 45.1914C69.8277 45.1914 69.8277 45.1914 69.8277 48.0443C69.8277 48.7576 69.8277 49.2925 69.8277 50.0057C69.6494 51.0756 70.006 51.7888 71.2541 51.6105C71.9674 51.6105 72.6806 51.7888 72.6806 52.5021C72.6806 53.5719 71.7891 53.3936 71.0758 53.3936C63.9435 53.5719 56.6328 53.5719 49.5005 53.5719ZM56.8111 49.2925C57.1677 47.866 56.8111 47.1528 55.028 47.1528C53.2449 47.1528 52.71 47.6877 52.8883 49.4708C52.8883 50.8973 52.8883 51.7888 54.8497 51.7888C56.8111 51.6105 57.1677 50.8973 56.8111 49.2925ZM67.8663 49.2925C68.4012 47.5094 67.5096 47.1528 65.7266 47.1528C63.5869 46.9745 63.9435 48.2227 63.7652 49.4708C63.5869 51.0756 64.1218 51.6105 65.9049 51.6105C67.8663 51.6105 68.0446 50.8973 67.8663 49.2925ZM34.8791 49.6491C35.0574 48.2227 35.2358 47.1528 33.096 47.1528C31.4913 47.3311 30.5997 47.3311 30.9563 49.2925C31.1346 50.3624 30.4214 51.9671 32.7394 51.7888C34.1659 51.6105 35.4141 51.6105 34.8791 49.6491ZM45.756 49.4708C46.1126 47.866 45.5777 47.1528 43.7946 47.1528C42.1898 47.1528 41.8332 47.6877 41.8332 49.1142C42.0115 50.3624 41.4766 51.7888 43.7946 51.6105C45.5777 51.6105 46.1126 51.0756 45.756 49.4708Z" fill="#FFFFFD"/>
<path d="M49.503 65.8726C42.5489 65.8726 35.7732 65.8726 28.8192 65.8726C28.2842 65.8726 27.9276 65.8726 27.3927 65.8726C26.6795 65.8726 26.1445 65.6943 26.1445 64.9811C26.1445 64.2678 26.6795 63.9112 27.3927 64.0895C28.4625 64.0895 28.9975 64.0895 28.9975 62.663C28.9975 61.0583 28.1059 58.9186 29.5324 58.027C31.3155 56.9572 33.6335 57.6704 35.7732 57.6704C36.6648 57.6704 36.8431 58.2053 36.8431 59.0969C36.8431 60.345 36.8431 61.7715 36.8431 63.0197C36.8431 64.4461 37.7346 64.0895 38.6261 64.0895C39.5177 64.0895 40.2309 64.0895 40.0526 62.8414C40.0526 62.663 40.0526 62.663 40.0526 62.4847C40.2309 60.88 39.3394 58.7402 40.5875 58.027C42.3706 56.9572 44.867 57.6704 47.0067 57.6704C47.7199 57.6704 47.8982 58.3836 47.8982 58.9186C47.8982 59.9884 48.0765 61.0583 47.8982 61.9498C47.5416 64.0895 48.7898 63.9112 50.2162 63.9112C50.7511 63.9112 51.1078 63.7329 51.1078 63.198C51.1078 63.0197 51.1078 62.8413 51.1078 62.663C51.2861 61.0583 50.3945 58.7402 51.6427 58.027C53.4258 56.9572 55.9221 57.6704 58.0618 57.6704C58.775 57.6704 58.9534 58.3836 58.9534 58.9186C58.9534 59.9884 59.1317 61.0583 58.9534 62.3064C58.775 63.5546 59.1317 64.0895 60.5581 64.0895C62.1629 64.0895 61.9846 63.198 61.9846 62.3064C61.9846 57.6704 61.9846 57.6704 66.6206 57.6704C67.1556 57.6704 67.8688 57.6704 68.4037 57.6704C69.4736 57.6704 70.0085 58.2053 69.8302 59.2752C69.8302 60.1667 69.8302 60.8799 69.8302 61.7715C69.8302 63.0197 69.4736 64.4461 71.6133 64.0895C72.1482 63.9112 72.6831 64.4461 72.6831 64.9811C72.6831 65.6943 72.3265 65.8726 71.6133 65.8726C71.0784 65.8726 70.7217 65.8726 70.1868 65.8726C63.4111 65.8726 56.457 65.8726 49.503 65.8726ZM52.8909 61.9498C52.3559 63.9112 53.4258 64.0895 55.0306 64.0895C57.1703 64.2678 56.8136 62.8413 56.8136 61.5932C56.992 59.8101 56.457 59.4535 54.6739 59.4535C52.7125 59.4535 52.7125 60.345 52.8909 61.9498ZM67.8688 62.1281C67.8688 59.6318 67.8688 59.6318 66.0857 59.4535C64.3026 59.2752 63.7677 59.9884 63.946 61.7715C63.946 63.198 63.946 64.2678 65.9074 64.0895C67.5122 63.9112 68.2254 63.7329 67.8688 62.1281ZM41.8357 61.4149C41.8357 63.9112 41.8357 63.7329 43.6188 63.9112C45.4019 64.0895 45.9368 63.3763 45.7585 61.7715C45.5802 60.345 45.9368 59.2752 43.7971 59.4535C42.1923 59.6318 41.4791 59.9884 41.8357 61.4149ZM30.9589 61.5932C30.9589 63.0197 30.6023 64.2678 32.742 64.0895C34.1684 63.9112 35.2383 63.9112 34.8817 62.1281C34.7034 60.88 35.2383 59.4535 32.9203 59.6318C31.3155 59.6318 30.6023 59.9884 30.9589 61.5932Z" fill="#FFFFFD"/>
<path d="M85.6976 53.7502C84.2711 53.7502 82.6663 53.7502 81.2399 53.7502C80.7049 53.7502 80.17 53.5719 79.9917 52.8587C79.8134 52.3238 80.17 51.7888 80.7049 51.7888C81.9531 51.6105 81.5965 50.8973 81.7748 50.0057C81.9531 45.1914 81.9531 45.1914 86.7674 45.1914C89.6204 45.1914 89.6204 45.1914 89.6204 48.0443C89.6204 48.7576 89.6204 49.6491 89.6204 50.3624C89.6204 51.0756 89.4421 51.6105 90.5119 51.7888C91.0468 51.7888 91.4035 52.3238 91.4035 52.8587C91.2251 53.5719 90.6902 53.7502 90.1553 53.7502C88.5505 53.7502 87.124 53.7502 85.6976 53.7502ZM87.8373 49.6491C87.8373 47.1528 87.8373 47.3311 85.8759 47.1528C83.9145 46.9745 83.7362 47.866 83.7362 49.4708C83.7362 50.8973 83.5579 51.7888 85.6976 51.7888C87.659 51.7888 88.0156 51.0756 87.8373 49.6491Z" fill="#FFFFFD"/>
<path d="M85.6981 41.2633C84.2716 41.2633 82.6668 41.2633 81.2403 41.2633C80.7054 41.2633 79.9922 41.085 79.9922 40.3718C79.9922 39.6585 80.3488 39.4802 80.8837 39.3019C82.1319 39.1236 81.7753 38.2321 81.7753 37.5188C81.9536 32.8828 81.7753 32.8828 86.5896 32.8828C89.7992 32.8828 89.6209 32.8828 89.7992 36.0924C89.7992 37.3405 88.9076 39.3019 91.2256 39.6586C91.4039 39.6586 91.5822 40.1935 91.4039 40.5501C91.2256 41.085 90.6907 41.2633 90.1558 41.2633C88.7293 41.2633 87.3028 41.2633 85.6981 41.2633ZM87.6595 36.8056C88.0161 35.2008 87.4812 34.6659 85.6981 34.6659C83.38 34.4876 83.915 35.9141 83.7367 37.1622C83.5584 38.9453 84.2716 39.3019 85.8764 39.3019C88.0161 39.4802 87.8378 38.2321 87.6595 36.8056Z" fill="#FFFFFD"/>
<path d="M85.6981 65.8702C84.2716 65.8702 82.6668 65.8702 81.2403 65.8702C80.5271 65.8702 79.9922 65.6919 79.9922 64.9786C79.9922 64.2654 80.3488 63.9088 80.8837 63.9088C82.1319 63.9088 81.7753 63.0172 81.7753 62.304C81.9536 57.3114 81.9536 57.3114 86.9462 57.4897C89.6209 57.4897 89.6209 57.4897 89.6209 60.3426C89.6209 61.0559 89.6209 61.9474 89.6209 62.6606C89.6209 63.3739 89.6209 63.9088 90.5124 63.9088C91.0473 63.9088 91.4039 64.4437 91.2256 64.9786C91.0473 65.6919 90.5124 65.6919 89.9775 65.6919C88.7293 65.8702 87.3028 65.8702 85.6981 65.8702ZM87.6595 61.9474C88.0161 60.3426 87.8378 59.4511 85.6981 59.6294C84.0933 59.6294 83.5584 60.1643 83.7367 61.7691C83.915 63.0172 83.38 64.4437 85.6981 64.2654C87.3028 63.9088 88.1944 63.7305 87.6595 61.9474Z" fill="#FFFFFD"/>
<path d="M13.4812 41.2698C12.0548 41.2698 10.45 41.2698 9.02353 41.2698C8.4886 41.2698 7.77537 41.0915 7.59706 40.3782C7.41875 39.665 7.95367 39.3084 8.66691 39.3084C9.55845 39.3084 9.55845 38.7734 9.55845 38.0602C9.55845 36.812 9.55845 35.5639 9.55845 34.3157C9.55845 33.0676 10.0934 32.7109 11.1632 32.7109C11.3415 32.7109 11.6982 32.7109 11.8765 32.7109C17.0474 32.7109 17.0474 32.7109 17.2257 37.8819C17.2257 38.5951 17.2257 39.1301 18.1173 39.3084C18.6522 39.3084 19.1871 39.665 19.0088 40.3782C18.8305 40.9131 18.4739 41.2698 17.939 41.2698C16.5125 41.2698 14.9077 41.2698 13.4812 41.2698ZM11.3415 36.6337C11.3415 38.0602 10.8066 39.4867 13.1246 39.4867C14.7294 39.4867 15.621 39.1301 15.4426 37.347C15.2643 35.9205 15.621 34.8506 13.4812 34.8506C11.6982 34.8506 11.1632 35.2073 11.3415 36.6337Z" fill="#FFFFFD"/>
<path d="M13.1272 53.7502C11.7007 53.7502 10.4525 53.7502 9.02606 53.7502C8.31282 53.7502 7.59959 53.7502 7.42128 52.8587C7.24297 52.1454 7.7779 51.7888 8.49113 51.7888C9.38268 51.7888 9.20437 51.0756 9.20437 50.5407C9.20437 49.2925 9.20437 48.0443 9.20437 46.7962C9.20437 45.548 9.73929 45.1914 10.8091 45.1914C12.4139 45.1914 13.8404 45.1914 15.4452 45.1914C16.6933 45.1914 17.05 45.7263 17.05 46.7962C17.05 47.866 17.05 48.9359 17.05 49.8274C17.05 50.719 16.8716 51.6105 18.2981 51.7888C18.833 51.7888 19.0114 52.3238 18.833 52.8587C18.6547 53.3936 18.1198 53.5719 17.5849 53.5719C16.3367 53.7502 14.7319 53.7502 13.1272 53.7502ZM15.2669 49.4708C15.8018 47.6877 15.2669 47.1528 13.3055 47.1528C11.5224 47.1528 11.3441 47.866 11.3441 49.2925C11.5224 50.5407 10.9875 51.9671 13.3055 51.7888C15.2669 51.7888 15.6235 51.0756 15.2669 49.4708Z" fill="#FFFFFD"/>
<path d="M13.1252 65.8727C11.6988 65.8727 10.2723 65.8727 8.84582 65.8727C8.13258 65.8727 7.59766 65.6944 7.59766 64.9812C7.59766 64.4462 7.95427 63.9113 8.4892 63.9113C9.55905 63.9113 9.38074 63.1981 9.38074 62.6631C9.38074 61.415 9.38074 60.1668 9.38074 58.9187C9.38074 57.8488 9.73736 57.4922 10.8072 57.4922C12.412 57.4922 14.1951 57.4922 15.7999 57.4922C16.6914 57.4922 17.2263 57.8488 17.2263 58.9187C17.2263 59.8102 17.2263 60.8801 17.2263 61.7716C17.2263 62.6631 16.8697 63.9113 18.4745 63.9113C18.8311 63.9113 19.0094 64.4462 19.0094 64.8028C18.8311 65.3378 18.4745 65.6944 17.9396 65.6944C16.3348 65.8727 14.73 65.8727 13.1252 65.8727ZM15.2649 61.9499C15.4432 60.5234 15.6216 59.4536 13.4818 59.6319C11.8771 59.6319 11.1638 59.9885 11.3421 61.7716C11.5204 63.1981 11.1638 64.2679 13.3035 64.2679C15.0866 64.0896 15.6216 63.5547 15.2649 61.9499Z" fill="#FFFFFD"/>
<path d="M36.48 10.5956C36.48 11.8438 36.48 12.9136 36.48 14.1618C36.48 14.6967 36.3017 15.4099 35.5885 15.4099C34.8752 15.4099 34.6969 14.875 34.5186 14.1618C34.5186 13.8051 34.5186 13.4485 34.5186 13.2702C34.6969 11.8438 34.162 11.4871 32.7355 11.4871C31.1307 11.4871 31.1307 12.2004 31.1307 13.4485C31.1307 13.9835 31.1307 14.3401 31.1307 14.875C30.9524 15.4099 30.7741 15.5882 30.2392 15.5882C29.7043 15.5882 29.3477 15.2316 29.3477 14.6967C29.3477 12.0221 29.3477 9.34743 29.3477 6.67279C29.3477 6.13787 29.7043 5.78125 30.2392 5.78125C30.7741 5.78125 31.1307 5.95956 31.1307 6.49448C31.3091 6.8511 31.3091 7.38603 31.1307 7.92096C30.9524 9.16912 31.4874 9.70405 32.7355 9.70405C34.162 9.70405 34.5186 9.16912 34.3403 7.92096C34.3403 7.56434 34.3403 7.20772 34.3403 7.02941C34.3403 6.31618 34.6969 5.95956 35.4102 5.95956C36.1234 5.95956 36.3017 6.49449 36.3017 7.02941C36.48 7.92096 36.48 9.16912 36.48 10.5956Z" fill="#FFFFFD"/>
<path d="M37.5547 10.4187C37.5547 6.67424 39.3378 4.71285 42.1907 5.42608C43.9738 5.96101 44.8654 7.20917 45.0437 9.52719C45.222 13.0934 44.5087 14.6981 42.5473 15.2331C39.6944 16.3029 37.5547 14.3415 37.5547 10.4187ZM43.0823 10.4187C43.0823 9.8838 43.0823 9.34888 43.0823 8.81395C43.0823 7.7441 42.369 7.38748 41.4775 7.20917C40.5859 7.20917 39.8727 7.56579 39.6944 8.45733C39.5161 9.70549 39.3378 10.9537 39.6944 12.3801C39.8727 13.2717 40.5859 13.6283 41.4775 13.6283C42.369 13.6283 42.9039 13.0934 43.0823 12.2018C43.0823 11.4886 43.0823 10.9537 43.0823 10.4187Z" fill="#FFFFFD"/>
<path d="M54.3125 10.2398C54.4908 4.71227 53.421 5.60382 59.1268 5.60382C59.8401 5.60382 60.9099 5.42551 60.9099 6.49536C60.9099 7.56521 60.0184 7.56522 59.1268 7.56522C58.4136 7.56522 57.8787 7.56522 57.1654 7.56522C56.4522 7.56522 56.0956 7.56522 56.0956 8.45676C56.0956 9.3483 56.4522 9.52661 57.3437 9.52661C58.2353 9.52661 59.1268 9.52661 60.0184 9.52661C60.5533 9.52661 61.0882 9.88323 61.0882 10.4182C61.0882 11.1314 60.7316 11.488 60.0184 11.488C59.1268 11.488 58.057 11.488 57.1654 11.488C56.6305 11.488 56.2739 11.6663 56.2739 12.3796C56.2739 13.0928 56.2739 13.4494 57.1654 13.4494C58.057 13.4494 59.1268 13.4494 60.0184 13.4494C60.5533 13.4494 61.0882 13.806 61.0882 14.341C61.0882 14.8759 60.7316 15.2325 60.0184 15.2325C58.4136 15.2325 56.9871 15.2325 55.3824 15.2325C54.4908 15.2325 54.3125 14.5193 54.3125 13.806C54.3125 12.5579 54.3125 11.488 54.3125 10.2398Z" fill="#FFFFFD"/>
<path d="M48.4324 11.1317C48.4324 10.5967 48.4324 9.8835 48.4324 9.34857C48.4324 8.27872 48.6108 7.03056 46.8277 7.38718C46.1144 7.56548 45.7578 7.03056 45.7578 6.31733C45.7578 5.7824 46.2927 5.42578 46.8277 5.42578C48.6108 5.42578 50.3938 5.42578 51.9986 5.42578C52.7119 5.42578 53.0685 5.7824 53.0685 6.49563C53.0685 7.03056 52.5335 7.56548 51.9986 7.38718C50.0372 7.03056 50.2155 8.27872 50.2155 9.52688C50.2155 10.9534 50.2155 12.3798 50.2155 13.8063C50.2155 14.5195 50.0372 15.2328 49.1457 15.0545C48.4324 15.0545 48.2541 14.3412 48.2541 13.8063C48.4324 12.9147 48.4324 12.0232 48.4324 11.1317Z" fill="#FFFFFD"/>
<path d="M62.5156 10.2425C62.5156 9.17266 62.5156 8.1028 62.5156 7.21126C62.5156 6.49803 62.6939 5.60648 63.5855 5.78479C64.477 5.78479 64.477 6.49803 64.477 7.21126C64.477 8.81604 64.477 10.4208 64.477 12.0256C64.477 13.0954 64.8336 13.4521 65.9035 13.4521C66.795 13.4521 67.5083 13.4521 68.3998 13.4521C68.9347 13.4521 69.4697 13.8087 69.4697 14.3436C69.4697 14.8785 69.1131 15.2352 68.5781 15.4135C66.9733 15.4135 65.3686 15.4135 63.7638 15.4135C62.8722 15.4135 62.6939 14.7002 62.6939 13.8087C62.5156 12.5605 62.5156 11.3124 62.5156 10.2425Z" fill="#FFFFFD"/>
</g>
<defs>
<clipPath id="clip0_1895_662">
<rect width="100" height="100" fill="white"/>
</clipPath>
</defs>
</svg>
