<svg width="100" height="100" viewBox="0 0 100 100" fill="none" xmlns="http://www.w3.org/2000/svg">
<path d="M86.7168 89.9494C71.6741 89.9494 57.2361 89.9494 42.2878 89.9494C42.0421 86.7935 41.7965 83.7509 41.5508 80.8028C56.8581 74.113 74.2631 77.7603 86.7168 89.9494Z" fill="white"/>
<path d="M34.2613 41.9663C35.5842 57.7461 36.9259 73.507 38.2866 89.7025C34.4125 89.7025 30.9353 89.7025 26.8533 89.7025C26.8533 88.5119 26.7588 87.1891 26.8722 85.8851C28.1006 72.1085 29.3289 58.313 30.6896 44.5364C30.803 43.327 31.8991 42.2309 32.5227 41.0781C33.1085 41.3805 33.6755 41.6829 34.2613 41.9663Z" fill="white"/>
<path d="M2 93.7461C33.4651 93.7461 64.9112 93.7461 97.1133 93.7461C93.8817 96.2217 6.34652 96.5997 2 93.7461Z" fill="white"/>
<path d="M33.0285 28.0187C27.2835 29.077 26.3008 28.0754 27.7371 21.5934C28.8898 16.3587 30.1938 11.1618 31.4222 5.96484C31.9702 5.98374 32.4993 6.02154 33.0474 6.04043C33.0285 13.2972 33.0285 20.5729 33.0285 28.0187Z" fill="white"/>
<path d="M25.6812 36.8438C26.834 38.2422 27.7978 39.395 28.7238 40.5477C27.0796 44.5163 14.0968 49.8455 6.72656 48.2203C13.0196 44.4407 19.2937 40.68 25.6812 36.8438Z" fill="white"/>
<path d="M56.6914 50.2042C50.4173 46.727 44.1432 43.2498 37.9258 39.7914C39.4754 33.6496 41.4408 33.0071 45.844 37.0135C49.0567 39.9237 52.2504 42.8907 55.4064 45.8766C56.3324 46.7459 57.0505 47.842 57.882 48.8247C57.4662 49.2782 57.0883 49.7318 56.6914 50.2042Z" fill="white"/>
<path d="M71.8462 24.7821C71.8462 31.5476 71.8462 38.313 71.8462 45.2108C66.706 46.7793 65.3264 45.5698 66.5926 39.9949C67.7454 34.8547 68.9926 29.7145 70.2021 24.5742C70.7312 24.6498 71.2982 24.7065 71.8462 24.7821Z" fill="white"/>
<path d="M94.8071 67.0218C88.2496 63.3934 82.2778 60.0863 76.2305 56.7413C76.873 54.9082 77.3643 53.4909 77.8368 52.1491C82.2778 52.0546 93.5788 61.5225 94.8071 67.0218Z" fill="white"/>
<path d="M46.9375 64.829C52.7392 61.2951 58.5408 57.7423 64.4748 54.1328C65.6465 55.4557 66.648 56.5895 68.2355 58.366C62.396 63.9597 54.629 63.9786 47.9769 66.6243C47.6367 66.0385 47.2966 65.4338 46.9375 64.829Z" fill="white"/>
<path d="M51.6843 24.9373C52.7237 22.8774 53.7442 20.8176 54.8214 18.6632C53.593 17.1892 52.4214 15.7718 50.8906 13.9387C54.0844 11.2552 57.2214 8.6473 61.568 5C59.5837 9.91346 56.0876 13.8442 62.5507 16.849C58.7522 20.0427 55.5206 22.7641 52.2891 25.4854C52.0812 25.2964 51.8733 25.1263 51.6843 24.9373Z" fill="white"/>
<path d="M74.4146 77.6814C71.9768 76.8121 70.276 76.2074 68.2539 75.4892C68.7075 70.6136 69.0854 65.8513 69.6901 61.1079C69.8035 60.1819 70.8051 59.3693 71.4099 58.5C71.9957 59.4449 72.9784 60.3331 73.0918 61.3158C73.6209 66.5694 73.9611 71.8041 74.4146 77.6814Z" fill="white"/>
<path d="M23.4475 89.9106C19.1955 89.9106 15.5293 89.9106 11.882 89.9106C11.7119 89.476 11.5607 89.0413 11.3906 88.6256C15.2269 87.1137 19.0443 85.6019 23.4475 83.8633C23.4475 86.4712 23.4475 87.9452 23.4475 89.9106Z" fill="white"/>
<path d="M37.1514 34.6177C35.1294 36.2052 33.901 37.9249 32.7104 37.906C31.4821 37.8682 30.2915 36.1485 29.082 35.1658C30.1781 33.9185 31.1041 31.9909 32.4459 31.6319C33.4475 31.3673 34.9782 33.1437 37.1514 34.6177Z" fill="white"/>
<path d="M70.7697 56.7623C69.4468 54.3812 67.9728 52.9071 68.2185 51.8111C68.4452 50.6961 70.3539 49.3543 71.6201 49.2598C72.4327 49.1842 74.2091 51.2441 74.1335 52.2079C74.0012 53.4741 72.4705 54.608 70.7697 56.7623Z" fill="white"/>
</svg>
