<svg width="100" height="100" viewBox="0 0 100 100" fill="none" xmlns="http://www.w3.org/2000/svg">
<path d="M79.1234 40.0409C76.5837 35.6963 74.1878 31.5913 73.5489 27.3745C72.4947 20.3624 69.6835 14.3087 65.3708 9.85232C61.1061 5.42786 55.6434 3 49.989 3C43.7437 3 38.1372 5.6994 33.7447 10.8107C29.9751 15.2032 27.3716 21.0972 26.4451 27.3745C25.8222 31.5913 23.4103 35.6963 20.8706 40.0409C15.8871 48.5703 10.2328 58.2498 14.5135 72.9767C16.6379 80.2603 21.3818 86.4578 28.2501 90.8662C34.5753 94.9233 42.2901 97.1595 49.973 97.1595C56.2344 97.1595 62.4318 95.7379 67.9105 93.0226L66.6806 90.5468C61.5853 93.0705 55.8191 94.3962 49.973 94.3962C42.8013 94.3962 35.6135 92.3198 29.7355 88.5342C23.4423 84.4931 19.0817 78.8387 17.149 72.1941C15.376 66.1244 15.2961 60.4541 16.8934 54.8317C18.299 49.8481 20.8068 45.5515 23.2346 41.4145C25.918 36.8303 28.4417 32.5017 29.1605 27.7578C30.0071 22.0715 32.4349 16.5289 35.8371 12.5837C38.5206 9.453 43.1527 5.73134 49.989 5.73134C54.8927 5.73134 59.6366 7.8717 63.3742 11.7371C67.2236 15.7143 69.8591 21.4006 70.8015 27.7418C71.5043 32.4857 74.044 36.8144 76.7274 41.3986C79.1553 45.5515 81.663 49.8322 83.0686 54.8157C84.6659 60.4221 84.5701 66.1084 82.8131 72.1781C81.2637 77.529 78.0053 82.3687 73.3891 86.1862L75.1461 88.3106C80.1776 84.1257 83.7395 78.8228 85.4486 72.9448C89.7612 58.2498 84.1069 48.5863 79.1234 40.0409Z" fill="white"/>
<path d="M69.0625 89.2813L70.4681 91.6612C71.2987 91.1661 72.0973 90.655 72.88 90.0959L71.2987 87.8438C70.5799 88.3389 69.8292 88.8181 69.0625 89.2813Z" fill="white"/>
<path d="M31.9086 28.1859C31.1259 33.4729 28.2987 38.2807 25.5833 42.9288C24.5132 44.7657 23.3951 46.6664 22.4207 48.5832C18.2838 56.6654 17.5171 63.5017 19.8331 71.4402C21.6221 77.5737 25.6952 82.7649 31.6051 86.4546C36.9719 89.8089 43.5048 91.6458 50.0057 91.6458C56.4907 91.6458 63.0235 89.7929 68.4064 86.4546C74.3163 82.7649 78.3893 77.5737 80.1783 71.4402C82.4943 63.5017 81.7117 56.6654 77.5907 48.5832C76.6164 46.6664 75.4983 44.7657 74.4281 42.9288C71.7127 38.2807 68.9015 33.4729 68.1029 28.1859C67.3841 23.3462 65.3875 18.5703 62.6242 15.0723C59.238 10.7756 54.8774 8.52344 50.0057 8.52344C43.952 8.52344 38.681 12.0534 35.167 18.4585L37.5789 19.7842C41.636 12.3889 47.0987 11.2867 49.9897 11.2867C55.0371 11.2867 58.4553 14.2896 60.4359 16.7973C62.8957 19.928 64.7007 24.2247 65.3556 28.6012C66.2181 34.4153 69.173 39.4627 72.0322 44.3344C73.0864 46.1393 74.1725 48.0081 75.1149 49.845C78.9484 57.3362 79.6352 63.374 77.5108 70.6735C75.9136 76.1362 72.2558 80.7843 66.9209 84.1066C61.9853 87.1894 55.9636 88.8825 49.9738 88.8825C44 88.8825 37.9782 87.1894 33.0426 84.1066C27.7077 80.7843 24.05 76.1362 22.4527 70.6735C20.3283 63.374 21.0151 57.3362 24.8486 49.845C25.791 48.0081 26.8771 46.1393 27.9313 44.3344C30.7905 39.4627 33.7295 34.4153 34.608 28.6012C34.9274 26.4289 35.5663 24.1927 36.4129 22.1482L33.8732 21.078C32.9628 23.3142 32.26 25.79 31.9086 28.1859Z" fill="white"/>
<path d="M29.4336 61.1105C29.4336 72.5151 38.7138 81.7953 50.1183 81.7953C61.5229 81.7953 70.8031 72.5151 70.8031 61.1105C70.8031 49.706 61.5229 40.4258 50.1183 40.4258C38.7138 40.4258 29.4336 49.706 29.4336 61.1105ZM68.0558 61.1105C68.0558 70.9977 60.0055 79.0479 50.1183 79.0479C40.2312 79.0479 32.1809 70.9977 32.1809 61.1105C32.1809 51.2234 40.2312 43.1731 50.1183 43.1731C60.0055 43.1891 68.0558 51.2234 68.0558 61.1105Z" fill="white"/>
<path d="M54.1367 16.8047H56.9V19.568H54.1367V16.8047Z" fill="white"/>
<path d="M56.8867 22.3086H59.65V25.0719H56.8867V22.3086Z" fill="white"/>
<path d="M57.0156 50.0859H59.7789V52.8492H57.0156V50.0859Z" fill="white"/>
<path d="M51.4922 47.3203H54.2555V50.0836H51.4922V47.3203Z" fill="white"/>
</svg>
