<svg width="100" height="100" viewBox="0 0 100 100" fill="none" xmlns="http://www.w3.org/2000/svg">
<path d="M5 40.1293C5.20545 39.4102 5.36687 38.6471 5.64569 37.9574C7.03979 34.4502 9.84266 32.5131 13.2619 31.3538C16.5637 30.2238 19.9682 30.1358 23.4021 30.3853C23.9744 30.4293 24.5468 30.488 25.3539 30.5614C24.0918 29.3727 23.0059 28.3455 21.8319 27.2449C22.4923 26.6285 23.094 26.0562 23.681 25.5132C25.2218 26.8193 26.6746 28.1253 28.2008 29.3287C29.228 30.1358 30.3726 30.8108 31.4879 31.5152C31.708 31.6473 32.0896 31.75 32.2803 31.6473C34.9658 30.1651 37.622 28.639 40.3808 27.0834C32.2657 23.2533 24.7082 18.7482 17.8991 12.5554C17.8991 13.4212 17.8257 14.0816 17.9138 14.698C18.3247 17.6476 19.7041 20.1716 21.4064 22.5489C21.6118 22.8278 21.8173 23.1066 22.0814 23.4588C21.4064 24.0017 20.746 24.5154 20.0269 25.0877C17.4882 21.8446 15.5658 18.3813 15.2283 14.243C15.1549 13.3479 15.331 12.35 15.7126 11.5429C16.505 9.84061 18.5448 9.48842 19.9095 10.7798C25.4859 16.0187 31.9428 19.9368 38.7226 23.356C40.058 24.0311 41.408 24.6474 42.7875 25.2197C43.1543 25.3665 43.6386 25.3665 44.0201 25.2638C47.953 24.2365 51.8711 24.2659 55.8186 25.2491C56.1855 25.3371 56.6551 25.4105 56.9779 25.2638C64.5501 21.9766 71.6233 17.853 77.9922 12.5701C78.5938 12.0712 79.1662 11.5135 79.7385 10.9706C81.4848 9.31232 83.8621 9.97268 84.5224 12.2913C84.948 13.8175 84.6252 15.3143 84.2289 16.7818C82.9522 21.5511 80.0466 25.2784 76.5834 28.6536C75.9817 29.2406 75.336 29.7836 74.5143 30.532C75.2773 30.488 75.835 30.444 76.378 30.4146C80.3548 30.1211 84.273 30.2679 88.0004 31.9114C91.537 33.4816 94.061 35.947 94.7654 39.9238C94.7801 40.0119 94.8388 40.0853 94.8828 40.1586C94.8828 40.8043 94.8828 41.45 94.8828 42.0957C93.4887 43.1816 92.168 44.385 90.6712 45.3241C87.0758 47.5841 83.1724 49.0222 78.858 48.9195C77.7574 48.8901 76.6715 48.6406 75.4388 48.4645C74.617 50.8418 73.7659 53.3072 72.8707 55.89C72.0489 55.6111 71.2711 55.347 70.3907 55.0535C70.9923 53.2779 71.5646 51.5756 72.1516 49.8586C72.5038 48.8314 72.812 47.8042 73.2522 46.8063C73.7952 45.5443 73.7218 44.3116 73.0761 43.1816C72.1663 41.5821 71.1831 40.0266 70.1559 38.5151C69.3634 37.3411 68.4389 36.2405 67.4264 34.9051C66.5165 35.9617 65.592 36.8568 64.873 37.884C62.9506 40.6136 61.8206 43.7246 60.8961 46.909C58.9884 53.454 58.0345 60.1603 57.5062 66.9254C57.4916 67.2042 57.5062 67.4977 57.5062 67.8939C58.7242 67.7618 59.9129 67.6738 61.0722 67.4977C62.7011 67.2335 64.2419 67.1895 65.4893 68.657C66.2817 66.5585 67.0301 64.6068 67.8226 62.5229C68.6297 62.8164 69.4221 63.0806 70.3173 63.4034C69.3928 65.7807 68.571 68.114 67.5878 70.3886C67.1182 71.4599 66.9861 72.4431 67.2503 73.5877C67.6318 75.2313 67.8666 76.9189 68.1601 78.5918C68.8351 82.4072 66.6633 85.0927 62.8038 84.8726C61.0428 84.7699 59.9716 85.1074 59.1058 86.7656C57.9318 88.9815 55.848 90.1261 53.3533 90.4637C50.8732 90.7865 48.3932 90.8012 45.9279 90.3609C43.213 89.862 41.408 88.1451 40.146 85.7971C39.7204 85.0193 39.2802 84.6525 38.385 84.8726C37.9742 84.9753 37.5192 84.9313 37.079 84.9313C33.2342 84.9606 31.077 82.3779 31.7667 78.5624C32.1483 76.5227 32.5151 74.4829 32.8673 72.4431C32.9114 72.1789 32.882 71.8561 32.794 71.5919C30.0938 64.0638 27.379 56.5357 24.6642 49.0075C24.5908 48.8167 24.5174 48.6406 24.4587 48.4792C23.3141 48.6406 22.2282 48.9048 21.1422 48.9341C16.8132 49.0515 12.9244 47.6134 9.31438 45.3828C7.7882 44.4437 6.4528 43.211 5.02935 42.1104C5 41.4207 5 40.775 5 40.1293ZM34.731 33.2762C35.7289 34.5529 36.7708 35.6975 37.6073 36.9889C39.7791 40.3347 41.0265 44.0915 42.0244 47.9069C43.6973 54.2611 44.5925 60.7326 45.0474 67.2776C45.0767 67.7618 45.0621 68.2021 45.7811 68.2021C48.5546 68.1727 51.3282 68.1874 54.1017 68.2021C54.63 68.2021 54.8061 67.982 54.8354 67.4683C54.9382 65.9862 55.0556 64.4894 55.2023 63.0072C55.8627 56.6824 56.9046 50.4456 58.9003 44.385C60.045 40.9217 61.4537 37.6052 63.8604 34.8024C64.286 34.3034 64.7702 33.8485 65.2545 33.3349C62.2902 31.6473 59.4286 29.9597 56.479 28.4042C55.4371 27.8612 54.2484 27.4356 53.0891 27.3476C51.0053 27.1862 48.8922 27.2155 46.7937 27.3329C45.7958 27.3916 44.7392 27.6704 43.8587 28.14C40.777 29.7983 37.754 31.5739 34.731 33.2762ZM49.758 80.8517C52.2233 81.1305 54.5419 81.4093 56.8605 81.6588C58.9737 81.8789 61.1015 82.1578 63.2294 82.2311C64.9023 82.2898 65.6214 81.424 65.592 79.7658C65.5773 79.2375 65.4746 78.7239 65.3866 78.2103C65.005 76.0824 64.6675 73.9399 64.1832 71.8414C63.7724 70.0951 63.2441 69.875 61.4831 70.0804C58.9297 70.3886 56.3763 70.6528 53.8082 70.8582C48.5546 71.2984 43.3598 70.6968 38.1502 70.0364C36.7268 69.8603 36.1251 70.0804 35.8023 71.4745C35.1859 74.204 34.6723 76.9629 34.3055 79.7511C34.0853 81.424 34.9805 82.2458 36.6974 82.2458C37.9448 82.2458 39.2068 82.1431 40.4542 81.9963C43.6093 81.6295 46.735 81.2332 49.758 80.8517ZM42.3913 67.8792C42.3913 67.4537 42.4059 67.1602 42.3913 66.8667C41.863 60.1163 40.9238 53.4393 39.0161 46.9237C38.0182 43.5192 36.8148 40.188 34.6577 37.3264C34.0266 36.4753 33.2195 35.7562 32.4418 34.9197C31.5319 36.1084 30.7102 37.1063 29.9764 38.1629C28.9052 39.7331 27.8632 41.3179 26.9094 42.9615C26.1903 44.1942 26.161 45.4856 26.6746 46.909C28.2888 51.3555 29.771 55.8459 31.3412 60.3217C32.3097 63.0659 33.3369 65.7807 34.3788 68.657C35.6115 67.2482 37.0496 67.2042 38.5905 67.439C39.8232 67.6298 41.0852 67.7325 42.3913 67.8792ZM29.8003 33.9659C27.3643 33.6284 25.1337 33.2028 22.8738 33.012C19.616 32.7332 16.3876 32.9093 13.3059 34.1567C10.5177 35.2866 8.33117 37.0182 7.77353 40.188C7.71483 40.5255 7.9056 41.0538 8.16974 41.2886C10.503 43.3724 13.2325 44.7225 16.1968 45.603C18.0312 46.1459 19.8949 46.4688 21.8173 46.2193C23.4462 46.0139 23.4462 45.9845 23.6956 44.429C24.0331 42.3158 25.0897 40.5402 26.2784 38.8232C27.3496 37.253 28.5089 35.7415 29.8003 33.9659ZM70.1705 34.098C70.3907 34.4208 70.5521 34.6409 70.7282 34.8757C71.7114 36.2258 72.7386 37.5319 73.6778 38.9113C74.8224 40.5695 75.8497 42.3158 76.1872 44.3556C76.466 46.0139 76.466 46.0139 78.1976 46.234C78.4618 46.2633 78.7259 46.2927 78.9901 46.278C83.9061 46.19 88.1178 44.3263 91.8305 41.2152C92.0506 41.0244 92.1973 40.5549 92.1533 40.2467C91.7864 37.84 90.3336 36.1965 88.3085 34.9931C86.2541 33.7604 83.9941 33.2468 81.6462 33.0414C77.7721 32.6892 74.0153 33.1735 70.1705 34.098ZM59.502 27.0541C62.2609 28.6096 64.873 30.1064 67.4997 31.5592C67.7199 31.6766 68.1308 31.6326 68.3655 31.5005C72.9294 28.8738 76.7302 25.4252 79.533 20.9347C80.7657 18.9683 81.6902 16.8551 81.9837 14.5219C82.0571 13.9349 81.969 13.3332 81.9544 12.5261C75.1599 18.7335 67.6318 23.224 59.502 27.0541ZM57.4475 84.4617C52.4288 83.3904 47.454 83.3904 42.4206 84.4764C43.3158 86.1053 44.4457 87.4994 46.3534 87.6755C48.5987 87.8809 50.9026 87.8956 53.1478 87.7635C55.2023 87.6314 56.5377 86.2814 57.4475 84.4617Z" fill="white"/>
<path d="M68.6719 60.0005C68.9654 59.1494 69.2295 58.3863 69.523 57.5352C70.3448 57.814 71.1372 58.0781 72.003 58.3716C71.7242 59.2081 71.4601 59.9712 71.1666 60.8517C70.3301 60.5728 69.5377 60.3087 68.6719 60.0005Z" fill="white"/>
<path d="M46.043 31.1641C46.9088 31.1641 47.6865 31.1641 48.5523 31.1641C48.5523 32.0152 48.5523 32.837 48.5523 33.7175C47.7159 33.7175 46.9088 33.7175 46.043 33.7175C46.043 32.8663 46.043 32.0592 46.043 31.1641Z" fill="white"/>
<path d="M53.7935 33.7292C52.9717 33.7292 52.1939 33.7292 51.3281 33.7292C51.3281 32.8781 51.3281 32.0563 51.3281 31.1758C52.1352 31.1758 52.913 31.1758 53.7935 31.1758C53.7935 31.9829 53.7935 32.8047 53.7935 33.7292Z" fill="white"/>
<path d="M40.25 75.9166C40.25 75.0508 40.25 74.273 40.25 73.4219C41.0865 73.4219 41.8936 73.4219 42.7741 73.4219C42.7741 74.2437 42.7741 75.0654 42.7741 75.9166C41.9082 75.9166 41.0865 75.9166 40.25 75.9166Z" fill="white"/>
<path d="M57.0938 75.9508C57.0938 75.1143 57.0938 74.3072 57.0938 73.4414C57.9155 73.4414 58.7226 73.4414 59.5885 73.4414C59.5885 74.2632 59.5885 75.085 59.5885 75.9508C58.752 75.9508 57.9596 75.9508 57.0938 75.9508Z" fill="white"/>
</svg>
