<svg width="100" height="100" viewBox="0 0 100 100" fill="none" xmlns="http://www.w3.org/2000/svg">
<g clip-path="url(#clip0_1895_761)">
<path d="M44.0167 37.4794C44.1135 37.471 44.162 37.4162 44.162 37.3151L44.1241 34.6609C44.1241 34.5724 44.0777 34.5261 43.9851 34.5219C41.6511 34.4755 39.2707 34.4882 36.8441 34.5598C31.7379 34.7051 29.9242 28.1834 34.152 25.82C34.9904 25.3481 36.0668 25.1269 37.3812 25.1564C39.454 25.1943 41.5015 25.2091 43.5238 25.2007C43.9366 25.1964 44.1367 24.9879 44.1241 24.575C43.8902 16.7515 54.5386 17.4846 53.5843 24.7583C53.5781 24.8039 53.5811 24.8502 53.5932 24.8945C53.6054 24.9387 53.6263 24.9799 53.6547 25.0155C53.6832 25.051 53.7186 25.0802 53.7586 25.1012C53.7987 25.1222 53.8426 25.1345 53.8877 25.1375C55.556 25.2386 57.5909 25.4471 59.1012 24.4929C60.0323 23.9073 60.8306 23.6313 61.4963 23.665C67.7989 23.9936 73.952 24.3728 79.9555 24.8025C82.161 24.9605 84.3918 24.6825 86.0475 26.3066C87.602 27.8359 87.9791 29.658 87.1786 31.7729C86.3824 33.8646 84.4802 34.7557 82.3063 34.8694C75.5192 35.2107 68.9406 35.6215 62.5706 36.1017C61.4036 36.1902 60.165 35.8679 58.8548 35.1349C57.2243 34.2312 55.6697 34.5282 53.9572 34.5092C53.9118 34.5084 53.8668 34.5168 53.8247 34.5339C53.7825 34.5509 53.7442 34.5764 53.7118 34.6088C53.6795 34.6411 53.6538 34.6797 53.6362 34.7223C53.6187 34.7649 53.6096 34.8106 53.6096 34.8568L53.6223 37.4731C53.6223 37.6627 53.7065 37.7975 53.875 37.8775C57.3886 39.5648 56.8641 43.3691 56.7441 46.611C56.7314 46.8849 56.8473 47.085 57.0916 47.2114C59.156 48.2604 60.0407 50.0509 59.7458 52.5829C59.7163 52.8315 59.828 52.9621 60.0807 52.9747C63.3732 53.1074 66.8047 52.0331 68.6942 55.7174C68.7869 55.8943 68.9322 55.9849 69.1302 55.9891L72.429 55.9954C72.6313 55.9954 72.8309 55.9519 73.0142 55.8679C73.1974 55.7839 73.36 55.6614 73.4907 55.5088C74.9631 53.7836 76.9853 52.9178 79.2919 52.9621C82.3295 53.0253 85.2617 53.0211 88.0886 52.9494C88.3161 52.9452 88.5057 52.8568 88.6574 52.684C89.7317 51.4328 91.0146 49.9667 92.7966 49.8971C94.6883 49.8171 96.5925 49.8002 98.5094 49.8466C98.8827 49.8549 99.2379 50.009 99.499 50.2759C99.76 50.5429 99.9061 50.9014 99.906 51.2748V76.1861C99.9061 76.6069 99.7402 77.0107 99.4445 77.31C99.1487 77.6093 98.7469 77.78 98.3262 77.785C96.7547 77.8018 95.2044 77.8144 93.6751 77.8229C90.9387 77.8418 90.3068 76.4579 88.5563 74.8843C88.3793 74.7284 88.1729 74.6505 87.937 74.6505C84.8446 74.6421 81.7355 74.6421 78.6094 74.6505C76.7052 74.6589 74.9146 73.7363 73.2379 71.8826C73.0904 71.7183 72.905 71.6361 72.6818 71.6361H69.225C68.9638 71.6361 68.7742 71.752 68.6563 71.9837C66.792 75.5795 63.3795 74.5494 60.1439 74.6568C59.8533 74.6695 59.7247 74.8211 59.7584 75.1118C60.0997 78.1262 58.463 80.812 55.2843 80.812C37.2443 80.7994 20.7189 80.7972 5.70803 80.8057C2.76316 80.8057 0.993697 78.8972 1.00002 75.7564C1.02108 68.1436 1.02108 60.061 1.00002 51.5086C0.993697 48.766 2.95275 46.8069 5.71436 46.8196C16.0825 46.8448 25.726 46.847 34.6449 46.8259C34.8513 46.8259 34.9566 46.7227 34.9608 46.5162C35.024 43.5018 34.133 39.9566 37.3054 38.105C39.1001 37.056 41.9186 37.6184 44.0167 37.4794ZM50.2921 23.1809C50.2923 23.0763 50.2718 22.9727 50.232 22.8761C50.1921 22.7794 50.1336 22.6915 50.0598 22.6174C49.986 22.5434 49.8984 22.4846 49.8018 22.4444C49.7053 22.4042 49.6018 22.3834 49.4972 22.3833L48.2712 22.3811C48.1667 22.3809 48.0631 22.4013 47.9664 22.4412C47.8698 22.481 47.7818 22.5395 47.7078 22.6133C47.6337 22.6871 47.5749 22.7748 47.5347 22.8714C47.4946 22.9679 47.4738 23.0714 47.4736 23.176L47.4606 30.6077C47.4604 30.7122 47.4808 30.8158 47.5207 30.9125C47.5605 31.0092 47.619 31.097 47.6928 31.1711C47.7666 31.2452 47.8543 31.304 47.9508 31.3442C48.0473 31.3843 48.1509 31.4051 48.2554 31.4053L49.4814 31.4075C49.586 31.4076 49.6895 31.3872 49.7862 31.3474C49.8829 31.3075 49.9708 31.249 50.0449 31.1752C50.1189 31.1014 50.1777 31.0137 50.2179 30.9172C50.2581 30.8207 50.2789 30.7171 50.2791 30.6126L50.2921 23.1809ZM60.1439 32.0636C60.9023 32.5376 61.7933 32.8472 62.697 32.7903C69.72 32.3395 76.3534 31.9246 82.597 31.5454C83.6376 31.4822 84.198 30.9303 84.278 29.8897C84.2864 29.7717 84.2717 29.6538 84.2338 29.5358C83.9894 28.7185 83.4417 28.2824 82.5907 28.2277C76.5619 27.8612 70.0023 27.442 62.9119 26.9701C61.8881 26.9027 60.9444 27.1197 60.0807 27.621C59.8574 27.7516 59.7521 27.9454 59.7648 28.2024C59.8069 29.1335 59.7985 30.1383 59.7395 31.2168C59.7184 31.6002 59.8533 31.8824 60.1439 32.0636ZM44.143 30.9577V28.7332C44.143 28.6785 44.1323 28.6242 44.1113 28.5736C44.0903 28.523 44.0596 28.477 44.0209 28.4383C43.9822 28.3996 43.9362 28.3689 43.8856 28.3479C43.835 28.3269 43.7807 28.3162 43.7259 28.3162L37.0273 28.3288C36.5282 28.3292 36.0495 28.4772 35.6964 28.7402C35.3433 29.0033 35.1447 29.3599 35.1441 29.7317V29.9845C35.1439 30.1688 35.1924 30.3514 35.2869 30.5217C35.3814 30.692 35.5201 30.8467 35.695 30.977C35.8699 31.1073 36.0776 31.2106 36.3062 31.281C36.5348 31.3515 36.7798 31.3876 37.0273 31.3874L43.7259 31.3748C43.8366 31.3748 43.9427 31.3308 44.0209 31.2526C44.0991 31.1744 44.143 31.0683 44.143 30.9577ZM56.6027 28.6091C56.6025 28.5734 56.5952 28.5381 56.5813 28.5052C56.5675 28.4723 56.5472 28.4425 56.5218 28.4175C56.4964 28.3924 56.4663 28.3726 56.4333 28.3592C56.4002 28.3458 56.3648 28.339 56.3291 28.3392L53.8772 28.3563C53.8416 28.3566 53.8062 28.3639 53.7734 28.3777C53.7405 28.3916 53.7107 28.4119 53.6856 28.4373C53.6606 28.4627 53.6408 28.4928 53.6273 28.5258C53.6139 28.5589 53.6072 28.5943 53.6074 28.63L53.6245 31.0819C53.6248 31.1176 53.632 31.1528 53.6459 31.1857C53.6598 31.2186 53.68 31.2484 53.7054 31.2735C53.7309 31.2985 53.7609 31.3183 53.794 31.3318C53.8271 31.3452 53.8625 31.352 53.8982 31.3517L56.35 31.3346C56.3857 31.3343 56.421 31.3271 56.4539 31.3132C56.4868 31.2993 56.5166 31.2791 56.5417 31.2537C56.5667 31.2283 56.5865 31.1982 56.5999 31.1651C56.6134 31.132 56.6201 31.0966 56.6199 31.0609L56.6027 28.6091ZM50.2808 34.7371C50.2802 34.6717 50.2537 34.6092 50.2071 34.5634C50.1605 34.5176 50.0977 34.4922 50.0323 34.4927L47.6941 34.5131C47.6618 34.5134 47.6298 34.5201 47.6 34.5327C47.5702 34.5454 47.5432 34.5638 47.5205 34.5869C47.4978 34.6099 47.4799 34.6373 47.4678 34.6673C47.4556 34.6973 47.4495 34.7294 47.4498 34.7618L47.4718 37.2768C47.4724 37.3422 47.4989 37.4047 47.5455 37.4505C47.5921 37.4963 47.655 37.5217 47.7204 37.5212L50.0585 37.5007C50.0909 37.5005 50.1229 37.4938 50.1527 37.4812C50.1825 37.4685 50.2095 37.4501 50.2322 37.427C50.2549 37.404 50.2728 37.3766 50.2849 37.3466C50.297 37.3166 50.3031 37.2845 50.3028 37.2521L50.2808 34.7371ZM40.7748 49.7139C40.7035 49.8009 40.6139 49.871 40.5122 49.9191C40.4106 49.9672 40.2995 49.9921 40.1871 49.9919L10.8015 49.9856C10.5909 49.9856 10.4855 50.093 10.4855 50.3079V57.253C10.4855 58.1251 10.1043 58.7739 9.34172 59.1994C9.18163 59.2837 9.01101 59.3237 8.82985 59.3195C7.72184 59.2858 7.16783 58.7149 7.16783 57.6069L7.1615 50.9209C7.1615 49.994 6.72545 49.6823 5.85337 49.9856C5.73119 50.0278 5.62798 50.0636 5.54372 50.0931C4.62529 50.4132 4.16608 51.0578 4.16608 52.0268V75.7248C4.16608 76.6685 4.61688 77.2836 5.51845 77.5701C5.61535 77.5996 5.72068 77.6312 5.83443 77.6649C6.72337 77.9472 7.16783 77.6228 7.16783 76.6917V63.8316C7.16783 62.7067 7.73025 62.1401 8.85511 62.1316C9.38174 62.1316 9.87045 62.5866 10.3212 63.4966C10.4335 63.7212 10.4919 63.9678 10.4919 64.2171L10.4855 77.3236C10.4855 77.5343 10.5909 77.6396 10.8015 77.6396L55.1136 77.6333C55.4091 77.6331 55.6957 77.5338 55.9273 77.3515C56.1589 77.1692 56.322 76.9145 56.3902 76.6285L56.6682 75.4594C56.8115 74.8612 56.5756 74.5894 55.9605 74.6442C51.461 75.0297 50.1402 71.9711 50.2476 68.1541C50.3319 64.9059 50.3361 61.624 50.2603 58.3084C50.1908 55.2118 52.2256 52.7283 55.4928 53.0253C56.4154 53.1138 56.7925 52.7009 56.624 51.7867L56.5545 51.4201C56.3818 50.4722 55.813 49.9961 54.8482 49.9919H45.7735C44.6486 49.9919 44.122 49.4316 44.1936 48.311L44.2062 48.134C44.261 47.2661 44.7244 46.8322 45.5965 46.8322L52.8197 46.8385C53.2452 46.8385 53.4579 46.6279 53.4579 46.2066V42.2506C53.4579 42.0642 53.4211 41.8796 53.3496 41.7074C53.2781 41.5353 53.1732 41.3789 53.0411 41.2474C52.909 41.1159 52.7522 41.0117 52.5797 40.941C52.4072 40.8702 52.2225 40.8342 52.0361 40.835L39.4793 40.8413C39.1251 40.8413 38.7852 40.9809 38.5342 41.2296C38.2831 41.4783 38.1412 41.8159 38.1396 42.1684L38.1332 46.333C38.1332 46.6363 38.2849 46.7943 38.5882 46.8069L40.4082 46.8954C40.6441 46.908 40.8211 47.0155 40.9391 47.2177C41.4657 48.1151 41.4109 48.9471 40.7748 49.7139ZM96.6894 74.1197L96.6136 53.5308C96.6119 53.428 96.5699 53.33 96.4966 53.2579C96.4233 53.1858 96.3246 53.1453 96.2218 53.1454L94.1048 53.1517C93.1444 53.155 92.2247 53.5364 91.548 54.212C90.8713 54.8875 90.493 55.8018 90.4963 56.7538L90.5469 70.9473C90.5486 71.4187 90.6439 71.8851 90.8274 72.32C91.0109 72.7549 91.279 73.1496 91.6164 73.4818C91.9538 73.8139 92.3539 74.0769 92.7939 74.2558C93.2339 74.4346 93.7051 74.5258 94.1806 74.5241L96.2976 74.5178C96.3496 74.5178 96.4011 74.5075 96.449 74.4874C96.497 74.4673 96.5405 74.4379 96.5769 74.4008C96.6134 74.3638 96.6421 74.3198 96.6615 74.2715C96.6808 74.2233 96.6903 74.1716 96.6894 74.1197ZM54.785 56.2293C54.4654 56.2591 54.1685 56.4072 53.9523 56.6445C53.736 56.8817 53.6161 57.1911 53.6159 57.5121V69.9109C53.6159 70.7704 54.0414 71.2717 54.8925 71.4149C55.1242 71.4571 55.358 71.4992 55.5939 71.5413C56.2764 71.6635 56.6177 71.377 56.6177 70.6819V56.8233C56.6177 56.3177 56.367 56.0881 55.8657 56.1345L54.785 56.2293ZM59.7332 56.5705V71.08C59.7332 71.1356 59.7441 71.1907 59.7654 71.242C59.7867 71.2934 59.8179 71.3401 59.8572 71.3794C59.8965 71.4187 59.9432 71.4499 59.9946 71.4712C60.0459 71.4925 60.101 71.5034 60.1566 71.5034H64.0936C64.5528 71.5034 64.9933 71.315 65.318 70.9796C65.6427 70.6442 65.8251 70.1893 65.8251 69.715V57.9355C65.8251 57.4612 65.6427 57.0063 65.318 56.6709C64.9933 56.3355 64.5528 56.1471 64.0936 56.1471H60.1566C60.101 56.1471 60.0459 56.1581 59.9946 56.1793C59.9432 56.2006 59.8965 56.2318 59.8572 56.2711C59.8179 56.3104 59.7867 56.3571 59.7654 56.4085C59.7441 56.4598 59.7332 56.5149 59.7332 56.5705ZM78.1039 68.3437C78.226 67.3789 78.7737 66.8965 79.7469 66.8965H87.0965C87.2987 66.8965 87.4082 66.7954 87.4251 66.5932L87.5073 65.7653C87.5241 65.5758 87.4356 65.4788 87.2418 65.4746H79.9681C79.016 65.4746 78.4072 65.0154 78.1418 64.097C78.0744 63.8611 78.0849 63.6209 78.1734 63.3766C78.4683 62.5677 79.0455 62.1632 79.9049 62.1632L86.8247 62.1506C87.2545 62.1506 87.4777 61.9357 87.4946 61.506L87.5073 61.3417C87.5199 61.0468 87.3788 60.8993 87.0839 60.8993L79.9302 60.8867C78.8854 60.8825 78.2808 60.3643 78.1165 59.3321C78.0744 59.0625 78.1249 58.7865 78.2682 58.5043C78.5799 57.8892 79.0792 57.5837 79.7659 57.5879H87.2987C87.4756 57.5879 87.5494 57.4995 87.5199 57.3225L87.3872 56.501C87.3708 56.4041 87.3212 56.316 87.2472 56.2524C87.1732 56.1888 87.0796 56.1538 86.9827 56.1534C84.2991 56.1408 81.7565 56.1492 79.3551 56.1787C78.1102 56.1913 75.2475 57.2467 75.2475 58.8392C75.2475 62.2096 75.2559 65.5842 75.2728 68.963C75.2728 69.1778 75.3402 69.3674 75.475 69.5317C76.4861 70.7998 77.8237 71.4444 79.4878 71.4655C82.0788 71.4908 84.5876 71.4887 87.0143 71.4592C87.3724 71.455 87.5367 71.2738 87.5073 70.9157L87.4883 70.6945C87.4588 70.269 87.2292 70.0563 86.7995 70.0563L79.7406 70.0626C78.8854 70.0626 78.3503 69.6476 78.1355 68.8176C78.0933 68.666 78.0828 68.508 78.1039 68.3437ZM71.9351 59.6203C71.935 59.5797 71.9269 59.5394 71.9113 59.5019C71.8957 59.4643 71.8728 59.4302 71.844 59.4015C71.8152 59.3728 71.781 59.3501 71.7434 59.3346C71.7058 59.3191 71.6656 59.3111 71.6249 59.3112L69.4004 59.3151C69.3598 59.3152 69.3195 59.3233 69.282 59.3389C69.2445 59.3545 69.2103 59.3774 69.1816 59.4062C69.1529 59.435 69.1302 59.4691 69.1147 59.5067C69.0992 59.5443 69.0912 59.5846 69.0913 59.6253L69.106 68.0175C69.106 68.0582 69.1141 68.0984 69.1297 68.136C69.1453 68.1735 69.1682 68.2076 69.197 68.2363C69.2258 68.265 69.26 68.2878 69.2976 68.3033C69.3352 68.3188 69.3754 68.3267 69.4161 68.3267L71.6406 68.3228C71.6812 68.3227 71.7215 68.3146 71.759 68.299C71.7966 68.2834 71.8307 68.2605 71.8594 68.2317C71.8881 68.2029 71.9108 68.1687 71.9263 68.1311C71.9418 68.0935 71.9498 68.0533 71.9497 68.0126L71.9351 59.6203Z" fill="white"/>
<path d="M18.2447 52.9969L14.7437 52.9908C13.9619 52.9894 13.327 53.622 13.3257 54.4038L13.3251 54.7325C13.3237 55.5142 13.9564 56.1491 14.7382 56.1505L18.2392 56.1566C19.0209 56.158 19.6558 55.5253 19.6572 54.7435L19.6578 54.4149C19.6591 53.6331 19.0265 52.9982 18.2447 52.9969Z" fill="white"/>
<path d="M49.0024 70.1697C49.0014 70.7606 48.884 71.3455 48.6569 71.891C48.4298 72.4365 48.0976 72.9319 47.679 73.349C47.2605 73.7661 46.7639 74.0966 46.2176 74.3218C45.6713 74.547 45.086 74.6623 44.4951 74.6613L27.1166 74.631C25.9233 74.6289 24.7796 74.1528 23.9373 73.3076C23.095 72.4623 22.6229 71.317 22.625 70.1237L22.6471 57.4721C22.6481 56.8812 22.7655 56.2963 22.9926 55.7508C23.2197 55.2053 23.5519 54.7099 23.9705 54.2928C24.389 53.8757 24.8856 53.5451 25.4319 53.32C25.9782 53.0948 26.5635 52.9794 27.1544 52.9805L44.5329 53.0108C45.7262 53.0129 46.8699 53.4889 47.7122 54.3342C48.5545 55.1795 49.0266 56.3248 49.0245 57.5181L49.0024 70.1697ZM45.721 57.691C45.721 57.2837 45.5592 56.8931 45.2713 56.6052C44.9833 56.3172 44.5927 56.1554 44.1854 56.1554H27.3503C27.1487 56.1554 26.949 56.1951 26.7627 56.2723C26.5764 56.3494 26.4071 56.4626 26.2645 56.6052C26.1219 56.7478 26.0088 56.917 25.9316 57.1033C25.8544 57.2897 25.8147 57.4893 25.8147 57.691V69.9381C25.8147 70.1398 25.8544 70.3395 25.9316 70.5258C26.0088 70.7121 26.1219 70.8814 26.2645 71.024C26.4071 71.1666 26.5764 71.2797 26.7627 71.3569C26.949 71.434 27.1487 71.4738 27.3503 71.4738H44.1854C44.5927 71.4738 44.9833 71.312 45.2713 71.024C45.5592 70.736 45.721 70.3454 45.721 69.9381V57.691Z" fill="white"/>
<path d="M18.2185 59.1595L14.7554 59.1655C13.9736 59.1669 13.3409 59.8017 13.3423 60.5835L13.3429 60.9121C13.3443 61.6939 13.9791 62.3266 14.7609 62.3252L18.224 62.3192C19.0058 62.3178 19.6384 61.6829 19.6371 60.9012L19.6365 60.5725C19.6351 59.7908 19.0003 59.1581 18.2185 59.1595Z" fill="white"/>
<path d="M21.24 69.9872C21.24 70.6088 21.1176 71.2243 20.8797 71.7985C20.6418 72.3728 20.2932 72.8946 19.8537 73.3341C19.4141 73.7737 18.8924 74.1223 18.3181 74.3602C17.7438 74.598 17.1283 74.7205 16.5068 74.7205C15.8852 74.7205 15.2697 74.598 14.6954 74.3602C14.1211 74.1223 13.5993 73.7737 13.1598 73.3341C12.7203 72.8946 12.3716 72.3728 12.1338 71.7985C11.8959 71.2243 11.7734 70.6088 11.7734 69.9872C11.7734 68.7318 12.2721 67.5279 13.1598 66.6403C14.0475 65.7526 15.2514 65.2539 16.5068 65.2539C17.7621 65.2539 18.966 65.7526 19.8537 66.6403C20.7413 67.5279 21.24 68.7318 21.24 69.9872ZM17.9412 69.9935C17.9412 69.6097 17.7888 69.2416 17.5174 68.9702C17.246 68.6988 16.8779 68.5464 16.4941 68.5464C16.1103 68.5464 15.7422 68.6988 15.4708 68.9702C15.1994 69.2416 15.0469 69.6097 15.0469 69.9935C15.0469 70.3773 15.1994 70.7454 15.4708 71.0168C15.7422 71.2882 16.1103 71.4407 16.4941 71.4407C16.8779 71.4407 17.246 71.2882 17.5174 71.0168C17.7888 70.7454 17.9412 70.3773 17.9412 69.9935Z" fill="white"/>
</g>
<defs>
<clipPath id="clip0_1895_761">
<rect width="100" height="100" fill="white"/>
</clipPath>
</defs>
</svg>
