<svg width="100" height="100" viewBox="0 0 100 100" fill="none" xmlns="http://www.w3.org/2000/svg">
<path d="M30.7481 39.1253L49.3828 74.9052H74.2495L55.3563 38.5933C50.8572 40.0676 46.4341 40.6756 42.011 40.6756C38.2111 40.5996 34.472 40.0676 30.7481 39.1253ZM46.6165 74.9052L28.3313 39.8092L10.0462 74.9052H20.0171V77.4132H5.97266L27.7234 35.6445L28.6809 35.9941C33.104 37.3773 37.5119 38.1677 42.0262 38.2437C46.5253 38.3349 51.0396 37.5445 55.5387 35.9941L56.5723 35.6445L78.323 77.4132H36.6455V74.9052H46.6165Z" fill="white"/>
<path d="M34.5673 74.9071L28.2442 62.7778L21.9212 74.9071H34.5673ZM29.369 59.5706L38.6408 77.415H17.8477L28.2442 57.4883L29.369 59.5706Z" fill="white"/>
<path fill-rule="evenodd" clip-rule="evenodd" d="M75.9861 77.4153H96.3536C95.1376 73.9497 96.1864 71.1834 99.6519 69.101C96.612 69.0098 93.9368 70.4842 93.2377 73.5241C92.4625 69.5418 94.4536 66.2435 97.22 64.3436C94.0128 65.0427 92.0217 67.0339 91.0641 70.241C90.8057 67.8091 89.5897 66.1675 87.5074 65.2099C89.4073 68.0675 89.7569 70.849 88.6322 73.6153C88.6322 72.5818 88.2826 71.6242 87.5986 70.925C87.7658 72.3082 87.5074 73.5241 86.7322 74.7401C87.249 72.5666 86.9906 70.925 85.5162 68.7667C85.957 70.3322 85.425 71.3658 84.3915 73.0074C82.6587 69.709 83.1755 66.7755 85.8658 64.1764C83.0995 64.9515 81.5339 66.9427 81.2755 70.0738C80.9259 67.4747 78.8436 65.4835 74.9525 63.918C77.9924 66.7755 79.4516 70.241 79.3756 74.4817C78.342 71.7914 76.0013 70.1498 72.2773 69.633C75.3781 71.3506 76.9436 74.3905 75.9861 77.4153Z" fill="white"/>
<path d="M70.6914 29.0647V23H73.1234V29.0647H70.6914Z" fill="white"/>
<path d="M65.9361 39.0352H83.6133L87.5196 43.2759L83.6133 47.6078H64.6289V39.0352H65.9361ZM82.4885 41.5431H67.152V45.1758H82.4885L84.13 43.3519L82.4885 41.5431Z" fill="white"/>
<path d="M73.1234 35.2227V40.2537H70.6914V35.2227H73.1234Z" fill="white"/>
<path d="M70.6914 67.7201V46.4102H73.1234V67.7201H70.6914Z" fill="white"/>
<path d="M77.1062 30.3712H61.7698L60.1282 32.1952L61.7698 34.0191H77.1062V30.3712ZM61.253 27.8633H79.6294V36.4359H60.7362L56.7539 32.1952L60.6602 27.9545H61.2682V27.8633H61.253Z" fill="white"/>
<path d="M23.4683 77.4142H0V74.9062H23.4683V77.4142Z" fill="white"/>
<path d="M77.6259 32.8002H69.1445V32.3594H77.6259V32.8002Z" fill="white"/>
<path d="M75.4667 43.1066H66.8789V42.5898H75.4667V43.1066Z" fill="white"/>
</svg>
