<svg width="100" height="100" viewBox="0 0 100 100" fill="none" xmlns="http://www.w3.org/2000/svg">
<g clip-path="url(#clip0_1895_540)">
<path fill-rule="evenodd" clip-rule="evenodd" d="M95.4737 98.3926H42.9488C42.1619 98.3926 41.375 97.8025 41.375 96.8189V10.8511C41.375 10.0642 41.9652 9.27734 42.9488 9.27734H95.277C96.0639 9.27734 96.8507 9.86751 96.8507 10.8511V97.0156C96.8507 97.8025 96.2606 98.3926 95.4737 98.3926ZM44.5226 95.4418H93.8999V12.2282H44.5226V95.4418Z" fill="#FFFFFD"/>
<path fill-rule="evenodd" clip-rule="evenodd" d="M89.5688 12.2296H48.8472C48.0603 12.2296 47.2734 11.6394 47.2734 10.6558V3.57378C47.2734 2.78689 47.8636 2 48.8472 2H89.7655C90.5524 2 91.3393 2.59017 91.3393 3.57378V10.6558C91.1426 11.6394 90.5524 12.2296 89.5688 12.2296ZM50.2243 9.27873H87.995V5.14756H50.2243V9.27873Z" fill="#FFFFFD"/>
<path fill-rule="evenodd" clip-rule="evenodd" d="M34.8851 30.9171H13.2457C12.4588 30.9171 11.6719 30.3269 11.6719 29.3433V22.2613C11.6719 21.4744 12.262 20.6875 13.2457 20.6875H34.8851C35.672 20.6875 36.4589 21.2777 36.4589 22.2613V29.3433C36.2622 30.3269 35.672 30.9171 34.8851 30.9171ZM14.6227 27.9662H33.3114V23.8351H14.6227V27.9662Z" fill="#FFFFFD"/>
<path fill-rule="evenodd" clip-rule="evenodd" d="M58.1018 27.3826H49.8394C49.0525 27.3826 48.2656 26.7924 48.2656 25.8088V17.5464C48.2656 16.7595 48.8558 15.9727 49.8394 15.9727H58.1018C58.8886 15.9727 59.6755 16.5628 59.6755 17.5464V25.8088C59.6755 26.7924 59.0854 27.3826 58.1018 27.3826ZM51.4132 24.4317H56.528V19.3169H51.4132V24.4317Z" fill="#FFFFFD"/>
<path fill-rule="evenodd" clip-rule="evenodd" d="M73.2463 27.3826H64.9839C64.197 27.3826 63.4102 26.7924 63.4102 25.8088V17.5464C63.4102 16.7595 64.0003 15.9727 64.9839 15.9727H73.2463C74.0332 15.9727 74.8201 16.5628 74.8201 17.5464V25.8088C74.8201 26.7924 74.2299 27.3826 73.2463 27.3826ZM66.5577 24.4317H71.6725V19.3169H66.5577V24.4317Z" fill="#FFFFFD"/>
<path fill-rule="evenodd" clip-rule="evenodd" d="M73.2463 27.3826H64.9839C64.197 27.3826 63.4102 26.7924 63.4102 25.8088V17.5464C63.4102 16.7595 64.0003 15.9727 64.9839 15.9727H73.2463C74.0332 15.9727 74.8201 16.5628 74.8201 17.5464V25.8088C74.8201 26.7924 74.2299 27.3826 73.2463 27.3826ZM66.5577 24.4317H71.6725V19.3169H66.5577V24.4317Z" fill="#FFFFFD"/>
<path fill-rule="evenodd" clip-rule="evenodd" d="M88.3947 27.3826H80.1324C79.3455 27.3826 78.5586 26.7924 78.5586 25.8088V17.5464C78.5586 16.7595 79.1488 15.9727 80.1324 15.9727H88.3947C89.1816 15.9727 89.9685 16.5628 89.9685 17.5464V25.8088C89.9685 26.7924 89.3783 27.3826 88.3947 27.3826ZM81.7062 24.4317H86.8209V19.3169H81.7062V24.4317Z" fill="#FFFFFD"/>
<path fill-rule="evenodd" clip-rule="evenodd" d="M58.1018 42.5271H49.8394C49.0525 42.5271 48.2656 41.9369 48.2656 40.9533V32.691C48.2656 31.9041 48.8558 31.1172 49.8394 31.1172H58.1018C58.8886 31.1172 59.6755 31.7074 59.6755 32.691V40.9533C59.6755 41.9369 59.0854 42.5271 58.1018 42.5271ZM51.4132 39.5763H56.528V34.4615H51.4132V39.5763Z" fill="#FFFFFD"/>
<path fill-rule="evenodd" clip-rule="evenodd" d="M73.2463 42.5271H64.9839C64.197 42.5271 63.4102 41.9369 63.4102 40.9533V32.691C63.4102 31.9041 64.0003 31.1172 64.9839 31.1172H73.2463C74.0332 31.1172 74.8201 31.7074 74.8201 32.691V40.9533C74.8201 41.9369 74.2299 42.5271 73.2463 42.5271ZM66.5577 39.5763H71.6725V34.4615H66.5577V39.5763Z" fill="#FFFFFD"/>
<path fill-rule="evenodd" clip-rule="evenodd" d="M73.2463 42.5271H64.9839C64.197 42.5271 63.4102 41.9369 63.4102 40.9533V32.691C63.4102 31.9041 64.0003 31.1172 64.9839 31.1172H73.2463C74.0332 31.1172 74.8201 31.7074 74.8201 32.691V40.9533C74.8201 41.9369 74.2299 42.5271 73.2463 42.5271ZM66.5577 39.5763H71.6725V34.4615H66.5577V39.5763Z" fill="#FFFFFD"/>
<path fill-rule="evenodd" clip-rule="evenodd" d="M88.3947 42.5271H80.1324C79.3455 42.5271 78.5586 41.9369 78.5586 40.9533V32.691C78.5586 31.9041 79.1488 31.1172 80.1324 31.1172H88.3947C89.1816 31.1172 89.9685 31.7074 89.9685 32.691V40.9533C89.9685 41.9369 89.3783 42.5271 88.3947 42.5271ZM81.7062 39.5763H86.8209V34.4615H81.7062V39.5763Z" fill="#FFFFFD"/>
<path fill-rule="evenodd" clip-rule="evenodd" d="M58.1018 57.6755H49.8394C49.0525 57.6755 48.2656 57.0854 48.2656 56.1018V47.8394C48.2656 47.0525 48.8558 46.2656 49.8394 46.2656H58.1018C58.8886 46.2656 59.6755 46.8558 59.6755 47.8394V56.1018C59.6755 57.0854 59.0854 57.6755 58.1018 57.6755ZM51.4132 54.7247H56.528V49.6099H51.4132V54.7247Z" fill="#FFFFFD"/>
<path fill-rule="evenodd" clip-rule="evenodd" d="M73.2463 57.6755H64.9839C64.197 57.6755 63.4102 57.0854 63.4102 56.1018V47.8394C63.4102 47.0525 64.0003 46.2656 64.9839 46.2656H73.2463C74.0332 46.2656 74.8201 46.8558 74.8201 47.8394V56.1018C74.8201 57.0854 74.2299 57.6755 73.2463 57.6755ZM66.5577 54.7247H71.6725V49.6099H66.5577V54.7247Z" fill="#FFFFFD"/>
<path fill-rule="evenodd" clip-rule="evenodd" d="M73.2463 57.6755H64.9839C64.197 57.6755 63.4102 57.0854 63.4102 56.1018V47.8394C63.4102 47.0525 64.0003 46.2656 64.9839 46.2656H73.2463C74.0332 46.2656 74.8201 46.8558 74.8201 47.8394V56.1018C74.8201 57.0854 74.2299 57.6755 73.2463 57.6755ZM66.5577 54.7247H71.6725V49.6099H66.5577V54.7247Z" fill="#FFFFFD"/>
<path fill-rule="evenodd" clip-rule="evenodd" d="M88.3947 57.6755H80.1324C79.3455 57.6755 78.5586 57.0854 78.5586 56.1018V47.8394C78.5586 47.0525 79.1488 46.2656 80.1324 46.2656H88.3947C89.1816 46.2656 89.9685 46.8558 89.9685 47.8394V56.1018C89.9685 57.0854 89.3783 57.6755 88.3947 57.6755ZM81.7062 54.7247H86.8209V49.6099H81.7062V54.7247Z" fill="#FFFFFD"/>
<path fill-rule="evenodd" clip-rule="evenodd" d="M42.9511 98.3915H5.57378C4.78689 98.3915 4 97.8013 4 96.8177V29.5386C4 28.7517 4.59017 27.9648 5.57378 27.9648H42.9511C43.7379 27.9648 44.5248 28.555 44.5248 29.5386V97.0144C44.5248 97.8013 43.9347 98.3915 42.9511 98.3915ZM7.14756 95.4407H41.574V30.9157H7.14756V95.4407Z" fill="#FFFFFD"/>
<path fill-rule="evenodd" clip-rule="evenodd" d="M36.0705 91.514H27.8082C27.0213 91.514 26.2344 90.9238 26.2344 89.9402V81.8746C26.2344 81.0877 26.8245 80.3008 27.8082 80.3008H36.0705C36.8574 80.3008 37.6443 80.8909 37.6443 81.8746V90.1369C37.6443 90.9238 36.8574 91.514 36.0705 91.514ZM29.3819 88.5631H34.4967V83.4483H29.3819V88.5631Z" fill="#FFFFFD"/>
<path fill-rule="evenodd" clip-rule="evenodd" d="M36.0705 46.0662H27.8082C27.0213 46.0662 26.2344 45.476 26.2344 44.4924V36.23C26.2344 35.4431 26.8245 34.6562 27.8082 34.6562H36.0705C36.8574 34.6562 37.6443 35.2464 37.6443 36.23V44.4924C37.6443 45.476 36.8574 46.0662 36.0705 46.0662ZM29.3819 43.1153H34.4967V38.0005H29.3819V43.1153Z" fill="#FFFFFD"/>
<path fill-rule="evenodd" clip-rule="evenodd" d="M36.0705 61.2185H27.8082C27.0213 61.2185 26.2344 60.6283 26.2344 59.6447V51.3824C26.2344 50.5955 26.8245 49.8086 27.8082 49.8086H36.0705C36.8574 49.8086 37.6443 50.3988 37.6443 51.3824V59.6447C37.6443 60.6283 36.8574 61.2185 36.0705 61.2185ZM29.3819 58.2677H34.4967V53.1529H29.3819V58.2677Z" fill="#FFFFFD"/>
<path fill-rule="evenodd" clip-rule="evenodd" d="M36.0705 76.3552H27.8082C27.0213 76.3552 26.2344 75.7651 26.2344 74.7814V66.5191C26.2344 65.7322 26.8245 64.9453 27.8082 64.9453H36.0705C36.8574 64.9453 37.6443 65.5355 37.6443 66.5191V74.7814C37.6443 75.7651 36.8574 76.3552 36.0705 76.3552ZM29.3819 73.4044H34.4967V68.2896H29.3819V73.4044Z" fill="#FFFFFD"/>
<path fill-rule="evenodd" clip-rule="evenodd" d="M20.7307 91.514H12.4683C11.6814 91.514 10.8945 90.9238 10.8945 89.9402V81.8746C10.8945 81.0877 11.4847 80.3008 12.4683 80.3008H20.7307C21.5175 80.3008 22.3044 80.8909 22.3044 81.8746V90.1369C22.3044 90.9238 21.7143 91.514 20.7307 91.514ZM14.0421 88.5631H19.1569V83.4483H14.0421V88.5631Z" fill="#FFFFFD"/>
<path fill-rule="evenodd" clip-rule="evenodd" d="M20.7307 46.0662H12.4683C11.6814 46.0662 10.8945 45.476 10.8945 44.4924V36.23C10.8945 35.4431 11.4847 34.6562 12.4683 34.6562H20.7307C21.5175 34.6562 22.3044 35.2464 22.3044 36.23V44.4924C22.3044 45.476 21.7143 46.0662 20.7307 46.0662ZM14.0421 43.1153H19.1569V38.0005H14.0421V43.1153Z" fill="#FFFFFD"/>
<path fill-rule="evenodd" clip-rule="evenodd" d="M20.7307 61.2185H12.4683C11.6814 61.2185 10.8945 60.6283 10.8945 59.6447V51.3824C10.8945 50.5955 11.4847 49.8086 12.4683 49.8086H20.7307C21.5175 49.8086 22.3044 50.3988 22.3044 51.3824V59.6447C22.3044 60.6283 21.7143 61.2185 20.7307 61.2185ZM14.0421 58.2677H19.1569V53.1529H14.0421V58.2677Z" fill="#FFFFFD"/>
<path fill-rule="evenodd" clip-rule="evenodd" d="M20.7307 76.3552H12.4683C11.6814 76.3552 10.8945 75.7651 10.8945 74.7814V66.5191C10.8945 65.7322 11.4847 64.9453 12.4683 64.9453H20.7307C21.5175 64.9453 22.3044 65.5355 22.3044 66.5191V74.7814C22.3044 75.7651 21.7143 76.3552 20.7307 76.3552ZM14.0421 73.4044H19.1569V68.2896H14.0421V73.4044Z" fill="#FFFFFD"/>
<path fill-rule="evenodd" clip-rule="evenodd" d="M58.1018 72.8162H49.8394C49.0525 72.8162 48.2656 72.226 48.2656 71.2424V62.98C48.2656 62.1931 48.8558 61.4062 49.8394 61.4062H58.1018C58.8886 61.4062 59.6755 61.9964 59.6755 62.98V71.2424C59.6755 72.226 59.0854 72.8162 58.1018 72.8162ZM51.4132 69.8653H56.528V64.7505H51.4132V69.8653Z" fill="#FFFFFD"/>
<path fill-rule="evenodd" clip-rule="evenodd" d="M73.2463 72.8162H64.9839C64.197 72.8162 63.4102 72.226 63.4102 71.2424V62.98C63.4102 62.1931 64.0003 61.4062 64.9839 61.4062H73.2463C74.0332 61.4062 74.8201 61.9964 74.8201 62.98V71.2424C74.8201 72.226 74.2299 72.8162 73.2463 72.8162ZM66.5577 69.8653H71.6725V64.7505H66.5577V69.8653Z" fill="#FFFFFD"/>
<path fill-rule="evenodd" clip-rule="evenodd" d="M73.2463 72.8162H64.9839C64.197 72.8162 63.4102 72.226 63.4102 71.2424V62.98C63.4102 62.1931 64.0003 61.4062 64.9839 61.4062H73.2463C74.0332 61.4062 74.8201 61.9964 74.8201 62.98V71.2424C74.8201 72.226 74.2299 72.8162 73.2463 72.8162ZM66.5577 69.8653H71.6725V64.7505H66.5577V69.8653Z" fill="#FFFFFD"/>
<path fill-rule="evenodd" clip-rule="evenodd" d="M88.3947 72.8162H80.1324C79.3455 72.8162 78.5586 72.226 78.5586 71.2424V62.98C78.5586 62.1931 79.1488 61.4062 80.1324 61.4062H88.3947C89.1816 61.4062 89.9685 61.9964 89.9685 62.98V71.2424C89.9685 72.226 89.3783 72.8162 88.3947 72.8162ZM81.7062 69.8653H86.8209V64.7505H81.7062V69.8653Z" fill="#FFFFFD"/>
<path fill-rule="evenodd" clip-rule="evenodd" d="M77.3808 98.3934H61.2496C60.4627 98.3934 59.6758 97.8032 59.6758 96.8196V78.3277C59.6758 77.5408 60.266 76.7539 61.2496 76.7539H77.3808C78.1677 76.7539 78.9546 77.3441 78.9546 78.3277V96.8196C78.7579 97.8032 78.1677 98.3934 77.3808 98.3934ZM62.6266 95.4425H75.807V80.0982H62.6266V95.4425Z" fill="#FFFFFD"/>
<path fill-rule="evenodd" clip-rule="evenodd" d="M69.316 98.3934C68.5291 98.3934 67.7422 97.8032 67.7422 96.8196V78.3277C67.7422 77.5408 68.3324 76.7539 69.316 76.7539C70.1029 76.7539 70.8897 77.3441 70.8897 78.3277V96.8196C70.693 97.8032 70.1029 98.3934 69.316 98.3934Z" fill="#FFFFFD"/>
</g>
<defs>
<clipPath id="clip0_1895_540">
<rect width="100" height="100" fill="white"/>
</clipPath>
</defs>
</svg>
