<svg width="100" height="100" viewBox="0 0 100 100" fill="none" xmlns="http://www.w3.org/2000/svg">
<g clip-path="url(#clip0_1796_2202)">
<path d="M99.3212 59.0521C98.8547 60.4142 98.5562 61.8695 97.9031 63.1384C95.4215 67.915 89.8985 70.266 84.7486 68.8853C79.5988 67.5045 76.0722 62.8025 76.1655 57.4474C76.2588 52.0923 79.9346 47.5769 85.1964 46.3827C85.4763 46.3267 85.7562 46.2334 86.0361 46.1588C86.2973 42.371 85.9614 38.7512 83.5544 35.6352C78.6845 29.3471 69.6163 30.3174 65.9405 37.5011C64.9889 39.3483 64.5784 41.3075 64.5784 43.3786C64.597 53.8462 64.5784 64.3325 64.5784 74.8001C64.5784 80.7337 62.8058 86.0328 58.9247 90.5856C50.9947 99.8777 36.646 99.8404 28.772 90.5109C24.9469 85.9955 23.193 80.771 23.1743 74.8934C23.1743 74.5762 23.137 74.2404 23.1743 73.9232C23.2863 73.0089 23.081 72.5238 21.9988 72.3372C19.8717 71.9453 18.435 69.8369 18.2857 67.0194C18.1924 65.3214 18.267 63.6048 18.267 61.9069C16.5691 61.2351 14.9084 60.7127 13.3784 59.929C5.9895 56.1599 1.34344 50.3384 0.16793 41.9792C0.149271 41.8299 0.0559766 41.6807 0 41.5314C0 39.7215 0 37.9116 0 36.1016C1.06356 36.1016 2.12711 36.1016 3.30262 36.1016C3.30262 35.6538 3.30262 35.2807 3.30262 34.8888C3.30262 28.3022 3.30262 21.697 3.30262 15.1104C3.30262 10.7629 5.48571 7.87077 9.64664 6.56465C9.96384 6.47136 10.2997 6.15416 10.449 5.85561C11.6245 3.57923 14.0315 2.49702 16.3825 3.22471C18.6029 3.89643 20.1329 6.09818 19.9277 8.29993C19.6665 10.9122 17.7819 12.8154 15.1697 12.9273C13.2478 13.0206 11.6805 12.1996 10.7289 10.5203C10.2997 9.77398 9.94518 9.84861 9.36676 10.1658C7.70612 11.0801 6.67988 12.4795 6.66122 14.3641C6.60524 21.5104 6.64256 28.6568 6.64256 35.8031C6.64256 35.8591 6.67988 35.9151 6.73585 36.083C8.3032 36.083 9.8892 36.083 11.6618 36.083C11.1953 41.55 12.3149 46.364 16.8676 49.7973C19.5545 51.8124 22.6332 52.708 25.9545 52.6147C30.2087 52.5028 33.8845 51.0287 36.702 47.6888C39.5195 44.3489 39.986 40.3745 39.7434 36.139C40.8816 36.139 41.9078 36.139 43.0087 36.139C43.0274 35.7844 43.0647 35.5046 43.0647 35.2433C43.046 28.5261 43.0087 21.7903 42.9714 15.0731C42.9527 12.5355 41.8519 10.8002 39.818 9.99789C39.7061 9.96057 39.5755 9.94191 39.5381 9.92325C38.9224 10.6136 38.4186 11.36 37.7656 11.8824C35.5265 13.655 32.2985 13.0766 30.7125 10.7069C29.1638 8.39322 29.8729 5.22121 32.2612 3.76582C34.6682 2.31043 37.8775 3.22471 39.1836 5.70634C39.3702 6.0422 39.6501 6.4527 39.9673 6.56465C44.3708 8.11334 46.2927 10.7442 46.3113 15.409C46.33 21.9769 46.3486 28.5448 46.3673 35.0941C46.3673 35.374 46.3673 35.6725 46.3673 36.0643C47.4495 36.0643 48.5131 36.0643 49.5393 36.0643C50.8827 46.6812 44.7626 58.1191 31.4589 61.7949C31.4589 63.0451 31.5335 64.3325 31.4402 65.6013C31.3469 66.8701 31.2163 68.1949 30.8245 69.3891C30.2647 71.143 28.9586 72.2066 27.074 72.4678C26.9248 72.4864 26.7755 72.5611 26.6262 72.5984C25.544 82.4689 31.0484 91.5558 40.0419 93.7389C46.5725 95.3249 52.1142 93.2538 56.5177 88.2905C59.9136 84.4654 61.2944 79.8567 61.2944 74.8001C61.2944 64.2952 61.2571 53.7903 61.3131 43.2853C61.3504 37.4078 63.8133 32.7431 68.9632 29.8136C75.3632 26.1565 83.3119 28.5261 87.1742 35.0194C88.7229 37.613 89.4133 40.4305 89.432 43.4346C89.432 44.3116 89.432 45.1699 89.432 45.9722C90.85 46.5506 92.2868 46.9798 93.5556 47.6888C96.5037 49.3308 98.2949 51.8871 99.0413 55.1897C99.1159 55.5629 99.2465 55.936 99.3398 56.2905C99.3212 57.2422 99.3212 58.1564 99.3212 59.0521ZM3.39591 39.5162C3.3586 39.6095 3.30262 39.6655 3.30262 39.7215C3.30262 40.02 3.30262 40.2999 3.32128 40.5984C3.5825 44.4048 4.81399 47.8941 7.20233 50.8608C12.8 57.8206 20.2076 60.3582 28.8653 58.9214C36.2915 57.69 41.7772 53.5664 44.8933 46.5879C45.8822 44.3675 46.33 41.9979 46.3113 39.5349C45.1731 39.5349 44.1282 39.5349 43.0833 39.5349C42.6915 48.8643 35.8437 55.3016 26.9248 55.9733C18.2297 56.6264 8.56442 50.7489 8.17258 39.5162C6.58658 39.5162 4.98192 39.5162 3.39591 39.5162ZM87.734 65.9372C92.2681 65.9185 96.0186 62.1868 95.9999 57.6713C95.9999 53.1745 92.2121 49.3868 87.7154 49.4054C83.1999 49.4054 79.4681 53.1559 79.4681 57.69C79.4868 62.2427 83.1999 65.9558 87.734 65.9372ZM21.4204 62.5599C21.5137 64.3139 21.551 66.0118 21.7376 67.6911C21.8682 68.8666 22.4653 69.2585 23.6595 69.2771C24.4618 69.2958 25.2641 69.2585 26.0851 69.2771C27.0927 69.2958 27.7457 68.792 27.8577 67.8591C28.0629 66.0865 28.1003 64.2952 28.2122 62.5413C25.8799 62.5599 23.7527 62.5599 21.4204 62.5599ZM14.8525 9.62471C15.7854 9.64337 16.5131 8.93433 16.5131 8.00138C16.5131 7.12442 15.8041 6.39672 14.9271 6.37806C14.0315 6.3594 13.2478 7.12442 13.2665 8.02004C13.2478 8.89701 13.9755 9.60605 14.8525 9.62471ZM36.3848 8.0387C36.4035 7.18039 35.7131 6.41538 34.8361 6.37806C33.9218 6.32209 33.1568 7.04978 33.1195 7.96407C33.1008 8.85969 33.7539 9.56873 34.6495 9.62471C35.5825 9.66202 36.3661 8.95299 36.3848 8.0387Z" fill="white"/>
<path d="M87.7002 62.615C84.9574 62.5963 82.793 60.4133 82.793 57.6704C82.793 54.9462 84.9947 52.7258 87.7189 52.7071C90.4431 52.6885 92.7568 55.0208 92.7008 57.7264C92.6635 60.4506 90.4244 62.6337 87.7002 62.615ZM87.7376 56.0471C86.8606 56.0471 86.1329 56.7561 86.1142 57.6331C86.0956 58.566 86.8046 59.2937 87.7376 59.2937C88.6519 59.2937 89.4169 58.5287 89.3795 57.6331C89.3422 56.7748 88.5772 56.0471 87.7376 56.0471Z" fill="white"/>
</g>
<defs>
<clipPath id="clip0_1796_2202">
<rect width="100" height="100" fill="white"/>
</clipPath>
</defs>
</svg>
