<svg width="100" height="100" viewBox="0 0 100 100" fill="none" xmlns="http://www.w3.org/2000/svg">
<g clip-path="url(#clip0_1796_2534)">
<path d="M24.6437 85.9046L6 75.1252V53.5664L24.6437 64.3458V85.9046Z" stroke="white" stroke-width="1.7201" stroke-miterlimit="10" stroke-linecap="round" stroke-linejoin="round"/>
<path d="M43.2843 75.1252L24.6406 85.9046V64.3458L43.2843 53.5664V75.1252Z" stroke="white" stroke-width="1.7201" stroke-miterlimit="10" stroke-linecap="round" stroke-linejoin="round"/>
<path d="M24.6437 64.3439L6 53.5645L24.6437 42.7852L43.2874 53.5645L24.6437 64.3439Z" stroke="white" stroke-width="1.7201" stroke-miterlimit="10" stroke-linecap="round" stroke-linejoin="round"/>
<path d="M55.8742 46.1034L37.2305 35.34V13.7812L55.8742 24.5606V46.1034Z" stroke="white" stroke-width="1.7201" stroke-miterlimit="10" stroke-linecap="round" stroke-linejoin="round"/>
<path d="M74.5148 35.34L55.8711 46.1034V24.5606L74.5148 13.7812V35.34Z" stroke="white" stroke-width="1.7201" stroke-miterlimit="10" stroke-linecap="round" stroke-linejoin="round"/>
<path d="M55.8742 24.5588L37.2305 13.7794L55.8742 3L74.5179 13.7794L55.8742 24.5588Z" stroke="white" stroke-width="1.7201" stroke-miterlimit="10" stroke-linecap="round" stroke-linejoin="round"/>
<path d="M74.5226 96.6698L55.8789 85.9064V64.3477L74.5226 75.127V96.6698Z" stroke="white" stroke-width="1.7201" stroke-miterlimit="10" stroke-linecap="round" stroke-linejoin="round"/>
<path d="M93.1632 85.9064L74.5195 96.6698V75.127L93.1632 64.3477V85.9064Z" stroke="white" stroke-width="1.7201" stroke-miterlimit="10" stroke-linecap="round" stroke-linejoin="round"/>
<path d="M74.5226 75.1252L55.8789 64.3458L74.5226 53.5664L93.1663 64.3458L74.5226 75.1252Z" stroke="white" stroke-width="1.7201" stroke-miterlimit="10" stroke-linecap="round" stroke-linejoin="round"/>
<path d="M43.2891 64.3477L55.8784 71.5072" stroke="white" stroke-width="1.7201" stroke-miterlimit="10" stroke-linecap="round" stroke-linejoin="round"/>
<path d="M66.418 40.0117V57.2139" stroke="white" stroke-width="1.7201" stroke-miterlimit="10" stroke-linecap="round" stroke-linejoin="round"/>
<path d="M30.3945 46.0994L44.137 39.3242" stroke="white" stroke-width="1.7201" stroke-miterlimit="10" stroke-linecap="round" stroke-linejoin="round"/>
</g>
<defs>
<clipPath id="clip0_1796_2534">
<rect width="100" height="100" fill="white"/>
</clipPath>
</defs>
</svg>
