<svg width="100" height="100" viewBox="0 0 100 100" fill="none" xmlns="http://www.w3.org/2000/svg">
<path d="M27.9538 93.4975C27.9538 92.9391 27.9538 92.4924 27.9538 91.9978C29.0069 91.9978 29.9961 91.9978 31.0491 91.9978C31.0491 92.4764 31.0491 92.9072 31.0491 93.4656C34.1763 93.4656 37.2557 93.4656 40.3829 93.4656C40.3829 94.5506 40.3829 95.5398 40.3829 96.6247C40.0319 96.6247 39.7287 96.6247 39.4096 96.6247C30.044 96.6247 20.6942 96.6247 11.3286 96.6247C6.31867 96.6247 3 93.338 3 88.344C3 62.6722 3 36.9844 3 11.3126C3 6.30272 6.28676 3.01596 11.2967 3C23.4545 3 35.5963 3 47.7542 3C52.7481 3 56.0349 6.30271 56.0349 11.3286C56.0349 31.2246 56.0349 51.1207 56.0349 71.0008C56.0349 72.7399 55.5722 73.2026 53.865 73.2186C52.5407 73.2186 51.2164 73.2186 49.8443 73.2186C49.8443 72.1655 49.8443 71.1923 49.8443 70.1233C50.8335 70.1233 51.8227 70.1233 52.8598 70.1233C52.8598 63.8529 52.8598 57.6942 52.8598 51.4238C51.9025 51.4238 50.9133 51.4238 49.8602 51.4238C49.8602 50.3389 49.8602 49.3497 49.8602 48.2807C50.8335 48.2807 51.7908 48.2807 52.8438 48.2807C52.8438 42.0263 52.8438 35.8357 52.8438 29.5493C51.8706 29.5493 50.8973 29.5493 49.8602 29.5493C49.8602 28.4804 49.8602 27.523 49.8602 26.4541C50.8335 26.4541 51.8227 26.4541 52.8758 26.4541C52.8917 26.0392 52.9236 25.7201 52.9236 25.417C52.9236 20.7102 52.9236 15.9875 52.9236 11.2807C52.9236 8.02587 51.025 6.14316 47.7701 6.14316C42.5687 6.14316 37.3674 6.14316 32.166 6.14316C31.8469 6.14316 31.5278 6.14316 31.1289 6.14316C31.097 6.66968 31.0651 7.13238 31.0172 7.6589C30.028 7.6589 29.0547 7.6589 27.9857 7.6589C27.9538 7.21216 27.9379 6.74946 27.89 6.19103C27.5709 6.17507 27.2518 6.15912 26.9327 6.14316C21.6994 6.14316 16.4661 6.14316 11.2329 6.14316C7.99396 6.14316 6.07934 8.04182 6.07934 11.2807C6.07934 15.9875 6.07934 20.7102 6.07934 25.417C6.07934 25.7042 6.07934 25.9914 6.07934 26.3902C7.11643 26.3902 8.10564 26.3902 9.14273 26.3902C9.14273 27.4592 9.14273 28.4165 9.14273 29.4855C8.18542 29.4855 7.1962 29.4855 6.14316 29.4855C6.14316 35.7719 6.14316 41.9624 6.14316 48.2169C7.11643 48.2169 8.08969 48.2169 9.12677 48.2169C9.12677 49.2699 9.12677 50.2591 9.12677 51.36C8.15351 51.36 7.16429 51.36 6.12721 51.36C6.12721 57.6304 6.12721 63.7891 6.12721 70.0594C7.10047 70.0594 8.08969 70.0594 9.14273 70.0594C9.14273 71.1444 9.14273 72.1336 9.14273 73.2026C8.15351 73.2026 7.18025 73.2026 6.12721 73.2026C6.11125 73.5855 6.07934 73.8887 6.07934 74.2078C6.07934 78.9465 6.07934 83.7011 6.07934 88.4398C6.07934 91.551 8.00991 93.5135 11.1052 93.5135C16.7055 93.4975 22.2579 93.4975 27.9538 93.4975Z" fill="white"/>
<path d="M93.4038 90.3539C88.2343 90.3539 83.1127 90.3539 77.9433 90.3539C77.9433 89.3168 77.9433 88.3595 77.9433 87.2905C83.0968 87.2905 88.2343 87.2905 93.4357 87.2905C93.4357 74.7816 93.4357 62.3685 93.4357 49.8597C82.0756 49.8597 70.6996 49.8597 59.2438 49.8597C59.2438 48.7748 59.2438 47.7855 59.2438 46.7006C70.6358 46.7006 82.0278 46.7006 93.4038 46.7006C93.6272 43.4138 90.7552 40.494 87.3249 40.4621C84.0381 40.4302 80.7673 40.4462 77.4806 40.4462C77.1295 40.4462 76.7785 40.4462 76.3797 40.4462C76.3797 39.4091 76.3797 38.4358 76.3797 37.3668C79.4271 37.3668 82.4905 37.3668 85.6177 37.3668C85.6177 36.2819 85.6177 35.2927 85.6177 34.2556C77.8635 34.2556 70.1572 34.2556 62.3551 34.2556C62.3551 35.2288 62.3551 36.2181 62.3551 37.303C63.3284 37.303 64.3176 37.303 65.3547 37.303C65.3547 38.372 65.3547 39.3293 65.3547 40.3664C63.8549 40.3664 62.3391 40.3664 60.7596 40.3664C60.7436 39.9037 60.7117 39.425 60.6798 38.8985C60.1852 38.8985 59.7384 38.8985 59.2119 38.8985C59.196 38.5635 59.1641 38.2763 59.1641 37.9891C59.1641 33.2504 59.1641 28.4958 59.1641 23.7571C59.1641 22.2254 59.6746 21.7148 61.2063 21.7148C69.7264 21.7148 78.2305 21.7148 86.7505 21.7148C88.2822 21.7148 88.8087 22.2254 88.8087 23.7571C88.8087 27.9533 88.8087 32.1495 88.8087 36.3298C88.8087 36.6808 88.8087 37.0318 88.8087 37.1594C90.2606 37.8934 91.6647 38.388 92.8134 39.2176C95.3184 41.0206 96.5948 43.5734 96.5948 46.6527C96.6108 61.6984 96.6108 76.7601 96.5948 91.8058C96.5948 94.4703 94.6642 96.5764 92.0795 96.5923C86.942 96.6402 81.8044 96.6083 76.6828 96.6083C76.5871 96.6083 76.5073 96.5604 76.3637 96.5285C76.3637 95.5552 76.3637 94.5979 76.3637 93.4811C76.6988 93.4811 77.0498 93.4811 77.3848 93.4811C81.8363 93.4811 86.2878 93.4172 90.7393 93.513C93.4038 93.5768 93.691 92.6035 93.4038 90.3539ZM62.3232 31.0167C70.1412 31.0167 77.8794 31.0167 85.6017 31.0167C85.6017 28.9266 85.6017 26.9003 85.6017 24.8899C77.7997 24.8899 70.0933 24.8899 62.3232 24.8899C62.3232 26.9481 62.3232 28.9425 62.3232 31.0167Z" fill="white"/>
<path d="M49.7485 87.2621C49.7485 86.1612 49.7485 85.1879 49.7485 84.1349C48.3125 84.1349 46.9244 84.1349 45.5363 84.1349C44.0844 84.1349 43.5579 83.5924 43.5579 82.1245C43.5579 80.3056 43.5419 78.4867 43.5579 76.6679C43.5738 75.3276 44.1163 74.7852 45.4725 74.7852C50.4026 74.7852 55.3487 74.7852 60.2789 74.7852C61.7467 74.7852 62.2732 75.3117 62.2732 76.7795C62.2732 77.2901 62.2732 77.8166 62.2732 78.407C64.1719 77.8645 65.9908 77.7369 67.8256 78.2474C72.8036 79.6355 75.7553 84.7092 74.447 89.6234C73.0908 94.6653 68.065 97.617 63.0391 96.3086C62.4328 96.1491 61.9063 95.9895 61.3319 96.4522C61.0926 96.6437 60.6458 96.6277 60.3108 96.6277C55.3806 96.6437 50.4345 96.6437 45.5044 96.6277C44.1163 96.6277 43.5738 96.0693 43.5738 94.6653C43.5738 92.8145 43.5579 90.9637 43.5738 89.1129C43.5898 87.8365 44.1482 87.278 45.4246 87.278C46.8446 87.2461 48.2646 87.2621 49.7485 87.2621ZM68.4 81.8533C66.0227 80.3695 62.736 80.88 60.7735 83.0818C58.9227 85.14 58.6195 88.4428 60.0395 90.1819C62.8157 87.4216 65.6079 84.6295 68.4 81.8533ZM62.4488 92.7028C64.858 94.1228 68.049 93.6282 69.9955 91.4742C71.8623 89.4001 72.1814 86.225 70.7933 84.3423C68.0171 87.1185 65.225 89.9266 62.4488 92.7028ZM46.717 81.0236C50.5622 81.0236 54.3276 81.0555 58.0771 80.9757C58.444 80.9757 58.9865 80.3854 59.1141 79.9706C59.2896 79.3483 59.162 78.6463 59.162 77.9602C54.9498 77.9602 50.8494 77.9602 46.717 77.9602C46.717 78.9814 46.717 79.9387 46.717 81.0236ZM46.7329 93.4208C50.642 93.4208 54.4393 93.4208 58.2206 93.4208C57.742 92.5751 57.2314 91.8252 56.8645 91.0115C56.6411 90.501 56.3699 90.3733 55.8433 90.3733C53.3065 90.4052 50.7856 90.3893 48.2487 90.3893C47.7381 90.3893 47.2435 90.3893 46.717 90.3893C46.7329 91.4742 46.7329 92.4315 46.7329 93.4208ZM52.9554 87.1983C54.0404 87.1983 55.0137 87.1983 55.955 87.1983C56.1305 86.1612 56.306 85.1879 56.4656 84.1987C55.2849 84.1987 54.1361 84.1987 52.9554 84.1987C52.9554 85.2198 52.9554 86.1771 52.9554 87.1983Z" fill="white"/>
<path d="M74.049 52.9258C77.7187 52.9258 81.3884 52.9258 85.0581 52.9258C86.7334 52.9258 87.228 53.4044 87.228 55.0478C87.228 57.8081 87.228 60.5683 87.228 63.3445C87.228 64.8921 86.7174 65.4187 85.2017 65.4187C77.6868 65.4187 70.1879 65.4187 62.673 65.4187C61.253 65.4187 60.7105 64.8762 60.6946 63.4881C60.6786 60.6321 60.6946 57.7602 60.6946 54.9042C60.6946 53.4523 61.2371 52.9417 62.7209 52.9258C66.5182 52.9258 70.2836 52.9258 74.049 52.9258ZM63.9175 56.1009C63.9175 58.2069 63.9175 60.2332 63.9175 62.2276C70.6825 62.2276 77.3837 62.2276 84.0689 62.2276C84.0689 60.1535 84.0689 58.1431 84.0689 56.1009C77.3358 56.1009 70.6666 56.1009 63.9175 56.1009Z" fill="white"/>
<path d="M16.9766 90.37C12.7325 90.354 9.22238 86.8439 9.23834 82.5839C9.23834 78.2281 12.7804 74.7339 17.1361 74.7658C21.3802 74.7978 24.8425 78.3238 24.8265 82.5998C24.8265 86.9077 21.3164 90.3859 16.9766 90.37ZM17.0404 77.893C14.5035 77.8771 12.3815 79.9832 12.3655 82.52C12.3496 85.1207 14.4557 87.2428 17.0404 87.2428C19.5932 87.2428 21.6993 85.1686 21.7153 82.6158C21.7312 80.031 19.6411 77.909 17.0404 77.893Z" fill="white"/>
<path d="M49.7996 17.0887C49.7677 21.3966 46.2416 24.8589 41.9178 24.8429C37.6258 24.811 34.1636 21.253 34.2114 16.9292C34.2593 12.6372 37.8173 9.19091 42.1411 9.23877C46.3852 9.28664 49.8315 12.8287 49.7996 17.0887ZM46.6883 17.0089C46.6724 14.4082 44.5344 12.3181 41.9337 12.366C39.3968 12.3979 37.3227 14.5199 37.3386 17.0727C37.3546 19.6575 39.4926 21.7476 42.0933 21.7157C44.6142 21.6838 46.7043 19.5458 46.6883 17.0089Z" fill="white"/>
<path d="M49.7993 60.76C49.7674 65.0679 46.2573 68.5461 41.9494 68.5301C37.6575 68.5142 34.1792 64.9721 34.2112 60.6483C34.2431 56.3564 37.7851 52.8941 42.109 52.926C46.353 52.9739 49.8312 56.5 49.7993 60.76ZM42.0292 65.4029C44.566 65.4029 46.6881 63.2968 46.6881 60.76C46.6881 58.1593 44.582 56.0373 41.9973 56.0532C39.4444 56.0692 37.3543 58.1593 37.3384 60.6962C37.3224 63.2968 39.4285 65.4029 42.0292 65.4029Z" fill="white"/>
<path d="M9.23834 38.8964C9.22238 34.6363 12.7006 31.1103 16.9447 31.0783C21.2685 31.0464 24.8106 34.5247 24.8265 38.8166C24.8425 43.1404 21.3642 46.6825 17.0723 46.6825C12.7644 46.6825 9.25429 43.2043 9.23834 38.8964ZM21.7153 38.8804C21.7153 36.2957 19.5932 34.1896 16.9925 34.2056C14.4557 34.2215 12.3655 36.3435 12.3655 38.8804C12.3815 41.4811 14.5035 43.5872 17.0883 43.5553C19.6411 43.5234 21.7153 41.4332 21.7153 38.8804Z" fill="white"/>
<path d="M49.7955 38.8483C49.7955 43.1721 46.3014 46.6663 41.9935 46.6823C37.7015 46.6982 34.1914 43.1721 34.1914 38.8642C34.2074 34.5563 37.7175 31.0781 42.0413 31.0781C46.3014 31.0941 49.7955 34.6042 49.7955 38.8483ZM41.9775 34.2053C39.4247 34.2213 37.3346 36.3114 37.3346 38.8483C37.3186 41.433 39.4406 43.555 42.0413 43.555C44.5782 43.555 46.6843 41.433 46.7002 38.9121C46.6843 36.3114 44.5622 34.1894 41.9775 34.2053Z" fill="white"/>
<path d="M9.23828 17.0404C9.23828 12.7325 12.7484 9.22238 17.0563 9.23834C21.3163 9.23834 24.8265 12.7325 24.8424 16.9766C24.8584 21.3323 21.3323 24.8584 16.9765 24.8425C12.7165 24.8265 9.23828 21.3164 9.23828 17.0404ZM17.0563 21.7153C19.5932 21.7153 21.6992 19.6092 21.7152 17.0723C21.7152 14.4716 19.6091 12.3655 17.0244 12.3655C14.4716 12.3815 12.3814 14.4716 12.3655 17.0085C12.3495 19.5932 14.4716 21.7153 17.0563 21.7153Z" fill="white"/>
<path d="M17.121 52.926C21.4289 52.9739 24.8752 56.5 24.8433 60.8397C24.8114 65.1317 21.2374 68.578 16.9136 68.5301C12.6216 68.4823 9.17533 64.9083 9.23915 60.5845C9.30297 56.3244 12.845 52.8941 17.121 52.926ZM21.7161 60.7121C21.7001 58.1114 19.5621 56.0213 16.9614 56.0532C14.4246 56.0851 12.3504 58.2072 12.3664 60.76C12.3823 63.3447 14.5203 65.4348 17.121 65.4189C19.6419 65.387 21.732 63.249 21.7161 60.7121Z" fill="white"/>
<path d="M40.047 75.0703C40.3023 76.0595 40.5416 76.9849 40.8128 77.9741C38.611 78.8357 37.2389 80.3674 37.3506 82.8245C37.4463 85.0104 38.7387 86.3825 40.8128 87.1643C40.5575 88.1376 40.3182 89.0789 40.0789 90.0362C37.0474 89.5895 34.3989 86.4144 34.2234 83.0798C34.0159 79.3463 36.4252 75.9798 40.047 75.0703Z" fill="white"/>
<path d="M84.0829 74.8477C84.0829 75.8688 84.0829 76.8421 84.0829 77.8472C80.477 77.8472 76.919 77.8472 73.2812 77.8472C73.2812 76.8899 73.2812 75.9007 73.2812 74.8477C76.8392 74.8477 80.4132 74.8477 84.0829 74.8477Z" fill="white"/>
<path d="M70.1094 71.593C70.1094 70.5559 70.1094 69.6145 70.1094 68.6094C72.6622 68.6094 75.215 68.6094 77.8157 68.6094C77.8157 69.5667 77.8157 70.5559 77.8157 71.593C75.2788 71.593 72.726 71.593 70.1094 71.593Z" fill="white"/>
<path d="M24.8867 51.3121C24.8867 50.3069 24.8867 49.3496 24.8867 48.3125C25.8759 48.3125 26.8652 48.3125 27.9022 48.3125C27.9022 49.2858 27.9022 50.275 27.9022 51.3121C26.913 51.3121 25.9557 51.3121 24.8867 51.3121Z" fill="white"/>
<path d="M31.1602 48.2773C32.1813 48.2773 33.1386 48.2773 34.1597 48.2773C34.1597 49.2985 34.1597 50.2877 34.1597 51.3088C33.1546 51.3088 32.1972 51.3088 31.1602 51.3088C31.1602 50.3356 31.1602 49.3623 31.1602 48.2773Z" fill="white"/>
<path d="M37.3633 48.2773C38.3844 48.2773 39.3577 48.2773 40.3788 48.2773C40.3788 49.2825 40.3788 50.2717 40.3788 51.3088C39.3736 51.3088 38.4004 51.3088 37.3633 51.3088C37.3633 50.3036 37.3633 49.3463 37.3633 48.2773Z" fill="white"/>
<path d="M46.6363 51.328C45.6311 51.328 44.6738 51.328 43.6367 51.328C43.6367 50.3388 43.6367 49.3496 43.6367 48.3125C44.61 48.3125 45.5992 48.3125 46.6363 48.3125C46.6363 49.2858 46.6363 50.2431 46.6363 51.328Z" fill="white"/>
<path d="M18.6562 51.2964C18.6562 50.2594 18.6562 49.302 18.6562 48.2969C19.6614 48.2969 20.6187 48.2969 21.6558 48.2969C21.6558 49.2701 21.6558 50.2434 21.6558 51.2964C20.6826 51.2964 19.7093 51.2964 18.6562 51.2964Z" fill="white"/>
<path d="M15.4175 51.3284C14.3964 51.3284 13.4391 51.3284 12.418 51.3284C12.418 50.3072 12.418 49.318 12.418 48.2969C13.4231 48.2969 14.3804 48.2969 15.4175 48.2969C15.4175 49.2701 15.4175 50.2594 15.4175 51.3284Z" fill="white"/>
<path d="M31.0188 20.1369C29.9976 20.1369 29.0563 20.1369 28.0352 20.1369C28.0352 19.1477 28.0352 18.1585 28.0352 17.1055C28.9765 17.1055 29.9657 17.1055 31.0188 17.1055C31.0188 18.0787 31.0188 19.068 31.0188 20.1369Z" fill="white"/>
<path d="M31.0351 57.5666C30.0139 57.5666 29.0407 57.5666 28.0195 57.5666C28.0195 56.5615 28.0195 55.5722 28.0195 54.5352C29.0247 54.5352 29.998 54.5352 31.0351 54.5352C31.0351 55.5403 31.0351 56.4976 31.0351 57.5666Z" fill="white"/>
<path d="M31.0188 45.1057C29.9817 45.1057 29.0563 45.1057 28.0352 45.1057C28.0352 44.1165 28.0352 43.1273 28.0352 42.0742C28.9925 42.0742 29.9817 42.0742 31.0188 42.0742C31.0188 43.0634 31.0188 44.0367 31.0188 45.1057Z" fill="white"/>
<path d="M31.0188 13.8987C29.9817 13.8987 29.0563 13.8987 28.0352 13.8987C28.0352 12.9094 28.0352 11.9202 28.0352 10.8672C28.9925 10.8672 29.9817 10.8672 31.0188 10.8672C31.0188 11.8564 31.0188 12.8297 31.0188 13.8987Z" fill="white"/>
<path d="M27.9691 26.4071C27.9691 25.402 27.9691 24.4127 27.9691 23.3438C28.9902 23.3438 29.9635 23.3438 31.0644 23.3438C31.0644 24.3649 31.0644 25.386 31.0644 26.4071L31.0963 26.3752C30.0433 26.3752 28.9902 26.3752 27.9531 26.3752L27.9691 26.4071Z" fill="white"/>
<path d="M31.0191 88.773C29.982 88.773 29.0247 88.773 28.0195 88.773C28.0195 87.7678 28.0195 86.8105 28.0195 85.7734C28.9928 85.7734 29.9661 85.7734 31.0191 85.7734C31.0191 86.7307 31.0191 87.72 31.0191 88.773Z" fill="white"/>
<path d="M12.3984 29.4406C12.3984 28.4355 12.3984 27.4782 12.3984 26.457C13.4196 26.457 14.3928 26.457 15.4299 26.457C15.4299 27.4462 15.4299 28.4036 15.4299 29.4406C14.4726 29.4406 13.4834 29.4406 12.3984 29.4406Z" fill="white"/>
<path d="M31.051 60.8047C31.051 61.8258 31.051 62.7831 31.051 63.8043C30.0299 63.8043 29.0407 63.8043 28.0195 63.8043C28.0195 62.7991 28.0195 61.8418 28.0195 60.8047C28.9928 60.8047 29.9661 60.8047 31.051 60.8047Z" fill="white"/>
<path d="M27.9691 70.1064C27.9691 69.1012 27.9691 68.112 27.9691 67.043C28.9902 67.043 29.9635 67.043 31.0644 67.043C31.0644 68.0641 31.0644 69.0852 31.0644 70.1064L31.0963 70.0744C30.0433 70.0744 28.9902 70.0744 27.9531 70.0744L27.9691 70.1064Z" fill="white"/>
<path d="M28.0469 35.7891C29.068 35.7891 29.9934 35.7891 31.0145 35.7891C31.0145 36.7942 31.0145 37.7675 31.0145 38.8205C30.0413 38.8205 29.068 38.8205 28.0469 38.8205C28.0469 37.7994 28.0469 36.7942 28.0469 35.7891Z" fill="white"/>
<path d="M15.4494 70.1719C15.4494 71.177 15.4494 72.1344 15.4494 73.1555C14.4283 73.1555 13.4551 73.1555 12.418 73.1555C12.418 72.1663 12.418 71.209 12.418 70.1719C13.3912 70.1719 14.3645 70.1719 15.4494 70.1719Z" fill="white"/>
<path d="M21.6558 73.1714C20.6187 73.1714 19.6614 73.1714 18.6562 73.1714C18.6562 72.1663 18.6562 71.209 18.6562 70.1719C19.6295 70.1719 20.6187 70.1719 21.6558 70.1719C21.6558 71.1292 21.6558 72.1184 21.6558 73.1714Z" fill="white"/>
<path d="M27.9696 73.2014C26.9645 73.2014 25.9752 73.2014 24.9062 73.2014C24.9062 72.1803 24.9062 71.207 24.9062 70.1061C25.9274 70.1061 26.9485 70.1061 27.9696 70.1061L27.9377 70.0742C27.9377 71.1273 27.9377 72.1803 27.9377 73.2174L27.9696 73.2014Z" fill="white"/>
<path d="M31.0664 70.1058C32.0716 70.1058 33.0608 70.1058 34.1298 70.1058C34.1298 71.1269 34.1298 72.1002 34.1298 73.2011C33.1087 73.2011 32.0875 73.2011 31.0664 73.2011L31.0983 73.233C31.0983 72.18 31.0983 71.1269 31.0983 70.0898L31.0664 70.1058Z" fill="white"/>
<path d="M37.3633 70.1367C38.3685 70.1367 39.3417 70.1367 40.3628 70.1367C40.3628 71.1259 40.3628 72.1152 40.3628 73.1522C39.3736 73.1522 38.4004 73.1522 37.3633 73.1522C37.3633 72.163 37.3633 71.2057 37.3633 70.1367Z" fill="white"/>
<path d="M46.6207 73.1718C45.6155 73.1718 44.6582 73.1718 43.6211 73.1718C43.6211 72.1826 43.6211 71.2093 43.6211 70.1562C44.5944 70.1562 45.5836 70.1562 46.6207 70.1562C46.6207 71.1295 46.6207 72.0868 46.6207 73.1718Z" fill="white"/>
<path d="M31.0647 73.2031C31.0647 74.2083 31.0647 75.1975 31.0647 76.2665C30.0436 76.2665 29.0703 76.2665 27.9694 76.2665C27.9694 75.2454 27.9694 74.2243 27.9694 73.2031L27.9375 73.235C28.9905 73.235 30.0436 73.235 31.0807 73.235L31.0647 73.2031Z" fill="white"/>
<path d="M18.6367 29.4566C18.6367 28.4355 18.6367 27.4782 18.6367 26.457C19.6578 26.457 20.6471 26.457 21.6682 26.457C21.6682 27.4622 21.6682 28.4195 21.6682 29.4566C20.6949 29.4566 19.7217 29.4566 18.6367 29.4566Z" fill="white"/>
<path d="M31.0647 29.5C31.0647 30.5052 31.0647 31.4944 31.0647 32.5634C30.0436 32.5634 29.0703 32.5634 27.9694 32.5634C27.9694 31.5423 27.9694 30.5211 27.9694 29.5L27.9375 29.5319C28.9905 29.5319 30.0436 29.5319 31.0807 29.5319L31.0647 29.5Z" fill="white"/>
<path d="M46.6363 26.4688C46.6363 27.4899 46.6363 28.4472 46.6363 29.4683C45.6311 29.4683 44.6738 29.4683 43.6367 29.4683C43.6367 28.511 43.6367 27.5218 43.6367 26.4688C44.594 26.4688 45.5673 26.4688 46.6363 26.4688Z" fill="white"/>
<path d="M37.3828 26.457C38.388 26.457 39.3453 26.457 40.3824 26.457C40.3824 27.4303 40.3824 28.4195 40.3824 29.4726C39.4091 29.4726 38.4199 29.4726 37.3828 29.4726C37.3828 28.4833 37.3828 27.526 37.3828 26.457Z" fill="white"/>
<path d="M31.0664 26.4066C32.0716 26.4066 33.0608 26.4066 34.1298 26.4066C34.1298 27.4277 34.1298 28.4169 34.1298 29.5019C33.1087 29.5019 32.0875 29.5019 31.0664 29.5019L31.0983 29.5338C31.0983 28.4808 31.0983 27.4277 31.0983 26.3906L31.0664 26.4066Z" fill="white"/>
<path d="M27.9696 29.5022C26.9645 29.5022 25.9752 29.5022 24.9062 29.5022C24.9062 28.4811 24.9062 27.4919 24.9062 26.4069C25.9274 26.4069 26.9485 26.4069 27.9696 26.4069L27.9377 26.375C27.9377 27.428 27.9377 28.4811 27.9377 29.5182L27.9696 29.5022Z" fill="white"/>
<path d="M31.0347 79.5042C31.0507 79.6638 31.0826 79.7914 31.0826 79.9031C31.0826 80.7487 31.0826 81.5784 31.0826 82.4879C30.0615 82.4879 29.0722 82.4879 28.0352 82.4879C28.0352 81.5146 28.0352 80.5254 28.0352 79.4883C29.0084 79.5042 29.9657 79.5042 31.0347 79.5042Z" fill="white"/>
<path d="M41.997 82.5347C40.912 82.5347 39.9228 82.5347 38.9336 82.5347C39.0134 80.7318 40.226 79.5352 41.9491 79.5352C41.9651 79.6628 41.997 79.7904 41.997 79.9181C41.997 80.7478 41.997 81.5774 41.997 82.5347Z" fill="white"/>
<path d="M13.9609 82.5038C14.0886 80.7168 15.1735 79.6319 17.0403 79.4883C17.0403 79.9988 17.0403 80.4935 17.0403 81.004C17.0403 81.4827 17.0403 81.9613 17.0403 82.5038C16.0032 82.5038 15.014 82.5038 13.9609 82.5038Z" fill="white"/>
<path d="M38.9336 16.9765C39.0612 15.1895 40.1462 14.1045 41.9491 13.9609C41.9491 14.9502 41.9491 15.9234 41.9491 16.9765C40.9599 16.9765 39.9707 16.9765 38.9336 16.9765Z" fill="white"/>
<path d="M41.9605 57.6602C41.9605 58.6494 41.9605 59.6386 41.9605 60.6757C40.9234 60.6757 39.9502 60.6757 38.9609 60.6757C38.9609 58.9525 40.1576 57.7399 41.9605 57.6602Z" fill="white"/>
<path d="M16.9451 38.8525C15.9399 38.8525 14.9666 38.8525 14.0093 38.8525C13.9614 37.1931 15.0624 36.0443 16.9451 35.7891C16.9451 36.7783 16.9451 37.7675 16.9451 38.8525Z" fill="white"/>
<path d="M38.9141 38.8163C39.0577 36.9974 40.1426 35.9284 41.9455 35.8008C41.9455 36.79 41.9455 37.7633 41.9455 38.8163C40.9563 38.8163 39.9671 38.8163 38.9141 38.8163Z" fill="white"/>
<path d="M17.0104 13.9453C17.0104 14.9664 17.0104 15.9237 17.0104 16.9608C16.0212 16.9608 15.032 16.9608 14.0428 16.9608C13.8992 15.3972 15.1117 14.1208 17.0104 13.9453Z" fill="white"/>
<path d="M16.9928 60.6959C15.9398 60.6959 14.9665 60.6959 14.0092 60.6959C13.9613 58.9887 15.1739 57.7601 16.9928 57.6484C16.9928 58.6377 16.9928 59.6269 16.9928 60.6959Z" fill="white"/>
</svg>
