<svg width="100" height="100" viewBox="0 0 100 100" fill="none" xmlns="http://www.w3.org/2000/svg">
<path d="M74.9865 44.3272C73.1701 41.3271 70.068 40.2862 67.2719 40.8169C65.8841 41.1026 64.4963 40.5311 63.8024 39.3678L59.3532 31.939C55.5572 25.6326 47.1691 26.0816 43.7812 31.7349L31.6378 51.9806L30.9643 50.8581C28.5356 46.7763 22.5966 46.7763 20.1679 50.8581C-5.20046 93.1252 6.28982 73.9815 0.228343 84.0636C-0.404337 85.1248 0.350797 86.4922 1.59575 86.4922C104.518 86.4922 98.1712 86.88 98.8447 85.6759C99.4978 84.5126 100.988 87.676 74.9865 44.3272ZM46.516 33.388C48.6385 29.8368 54.0469 29.347 56.598 33.5921L61.0472 41.021C62.4146 43.3272 65.1698 44.5313 67.8842 43.9599C70.9252 43.3884 72.0885 45.7354 73.0681 47.3886L68.9863 46.5722C67.9046 46.3681 67.7618 46.7967 63.9861 50.5724C56.6593 41.7965 56.7817 41.3679 55.3939 41.8373L51.3325 43.1843L47.1895 40.4291C46.067 39.674 45.5976 40.3271 40.4953 43.368L46.516 33.388ZM22.9027 52.4908C24.0865 50.4907 27.0254 50.4907 28.2091 52.4908C31.0051 57.1441 28.9642 53.7562 32.7399 60.0422L30.352 60.8381C24.2702 58.8176 26.2906 58.5115 20.719 62.2259L18.025 60.6136L22.9027 52.4908ZM16.3923 63.3484C21.8007 66.573 19.9026 66.6139 25.8008 62.6749C31.3317 64.5117 29.4132 64.5117 34.4338 62.8382L36.4135 66.1445C33.7399 67.022 31.4745 69.2874 30.6786 72.1243C29.3316 72.0222 27.903 72.5529 26.9233 73.5529C23.3926 71.0834 18.474 71.859 15.8821 75.4305C13.6983 75.0836 11.5349 75.5122 9.71853 76.5122C7.06536 77.9817 4.49383 83.1656 16.3923 63.3484ZM5.28978 81.839C4.71832 83.5329 5.24896 83.288 4.41219 83.288L5.28978 81.839ZM8.20826 83.288C9.14708 79.6552 12.9636 77.7572 16.1882 78.7572C16.9433 79.0021 17.7393 78.6552 18.0862 77.9613C18.9026 76.3285 20.5557 75.3081 22.3721 75.3081C25.7396 75.3081 25.8212 77.9817 27.6172 77.5939C28.9846 77.3082 28.5356 76.3285 29.3724 75.6551C29.4132 75.6142 29.454 75.5938 29.454 75.5938C30.8623 74.8183 31.9644 75.8796 31.9644 76.9204C31.9644 79.043 35.1686 79.043 35.1686 76.9204C35.1686 75.6142 34.6175 74.3897 33.6991 73.4917C34.6379 68.4507 41.5158 67.1445 44.0669 71.859C42.4954 73.0631 41.5566 74.8999 41.5566 76.9204C41.5566 79.043 44.7608 79.043 44.7608 76.9204C44.7608 76.7367 44.72 74.9816 46.5976 74.0223C47.4752 73.7774 47.3119 73.8795 47.2099 73.4101C47.3732 73.1447 47.2711 73.0835 47.5364 73.757C48.6589 73.5325 50.21 74.1652 50.8835 75.6142C51.4141 76.7775 53.0673 76.8796 53.7204 75.7367C57.2511 69.5323 66.8433 71.8182 67.1087 79.0225C67.1495 80.2675 68.5373 80.9818 69.5782 80.3083C70.4149 79.7573 71.9048 80.3491 71.9048 81.7982C71.9048 82.4921 72.3538 83.1043 73.0069 83.3084H8.20826V83.288ZM79.3337 83.288C78.4561 81.4512 76.6397 80.2879 74.8233 80.1246C74.1498 78.1654 72.1701 76.7776 70.0067 76.9204C68.1291 68.7976 57.8838 66.1853 52.2917 72.2467C50.7202 70.7773 48.5773 70.2875 47.0058 70.5936C45.6996 67.9813 43.0669 66.0832 39.9239 65.7771L33.5154 55.1032L37.0462 49.205L46.2915 43.6537C51.8835 47.3886 49.9651 47.0212 55.3939 45.2252C63.4759 54.9399 62.884 54.5113 63.8432 54.5521C64.8637 54.593 64.8841 54.246 69.2312 49.8989L75.3335 51.1234L94.6608 83.3288H79.3337V83.288Z" fill="white"/>
<path d="M1.59736 38.552C6.96493 38.552 7.59761 38.8173 8.20988 37.756C8.82215 36.6948 7.98538 36.205 7.98538 35.3682C7.98538 34.2049 9.35278 33.3885 10.3732 34.0008C11.3937 34.613 12.7203 33.9191 12.7815 32.7354C13.0672 27.9597 20.0879 27.6944 20.7206 32.4701C20.8022 33.1436 21.3329 33.6946 21.986 33.8171C23.1901 34.062 24.1697 35.2049 23.884 36.6744C23.7003 37.654 24.4554 38.5724 25.4555 38.5724H31.9251C34.0477 38.5724 34.0477 35.3682 31.9251 35.3682H27.0678C26.7821 33.4089 25.4759 31.7354 23.6595 30.9802C21.7206 24.2861 12.2713 23.98 9.96505 30.5925C7.18943 30.3476 4.76076 32.5517 4.76076 35.3682H1.55654C-0.504768 35.3478 -0.504767 38.552 1.59736 38.552Z" fill="white"/>
<path d="M67.1049 25.7746C72.4724 25.7746 73.1051 26.04 73.7174 24.9787C74.3296 23.9174 73.4929 23.4276 73.4929 22.5908C73.4929 21.4275 74.8603 20.6112 75.8807 21.2234C76.9012 21.8357 78.2278 21.1418 78.289 19.9581C78.5747 15.1824 85.5954 14.9171 86.2281 19.6928C86.3097 20.3663 86.8404 20.9173 87.4935 21.0398C88.6976 21.2847 89.6772 22.4276 89.3915 23.897C89.2078 24.8766 89.9629 25.7951 90.963 25.7951H97.4326C99.5552 25.7951 99.5552 22.5908 97.4326 22.5908H92.5753C92.2896 20.6316 90.9834 18.958 89.167 18.2029C87.2281 11.5087 77.7788 11.2026 75.4726 17.8151C72.6969 17.5702 70.2682 19.7744 70.2682 22.5908H67.064C64.9823 22.5704 64.9823 25.7746 67.1049 25.7746Z" fill="white"/>
<path d="M33.558 28.9598C37.9664 28.9598 41.538 25.3679 41.538 20.9799C41.538 16.592 37.946 13 33.558 13C29.1497 13 25.5781 16.592 25.5781 20.9799C25.5781 25.3679 29.1497 28.9598 33.558 28.9598ZM33.558 16.1838C36.1908 16.1838 38.3542 18.3268 38.3542 20.9799C38.3542 23.6127 36.2112 25.776 33.558 25.776C30.9253 25.776 28.7619 23.6331 28.7619 20.9799C28.7619 18.3268 30.9049 16.1838 33.558 16.1838Z" fill="white"/>
</svg>
