<svg width="100" height="100" viewBox="0 0 100 100" fill="none" xmlns="http://www.w3.org/2000/svg">
<g clip-path="url(#clip0_1895_853)">
<path d="M67.7125 29.1822C65.6734 34.4256 57.7841 31.8403 59.5986 25.8626C60.4765 22.9861 61.2877 20.2997 62.0321 17.8034C63.3187 13.5311 68.5681 12.6815 71.3112 16.3288C79.1924 26.7952 87.6582 38.0809 96.7086 50.1859C96.8895 50.426 96.9855 50.7184 96.9817 51.0173C96.9574 59.2384 96.9635 67.2673 96.9999 75.1039C97.012 76.8699 95.9197 78.3082 94.3358 79.0364C94.1133 79.1416 94.0182 79.3156 94.0505 79.5584C94.4996 83.242 92.4241 85.3297 88.9346 85.3418C79.1964 85.3742 68.6915 85.3782 57.42 85.3539C54.3249 85.3479 52.3222 83.4969 52.3526 80.3473C52.389 76.52 52.383 72.6744 52.3344 68.8107C52.3263 68.0137 51.9217 67.6132 51.1207 67.6091L48.0196 67.5848C47.1093 67.5808 46.6501 68.0339 46.642 68.9442C46.5975 72.8241 46.5874 76.791 46.6116 80.8449C46.6238 82.5684 45.938 83.8327 44.5543 84.6378C43.6966 85.1355 42.58 85.3802 41.2044 85.3721C31.4783 85.3196 21.0807 85.3175 10.0114 85.3661C7.15307 85.3782 4.67704 83.4241 5.03509 80.3351C5.06746 80.0317 5.05126 79.7283 4.98653 79.4248C4.94607 79.2266 4.83685 79.0789 4.65883 78.9818C2.90296 78.027 2.02302 76.8072 2.01897 75.3224C1.99874 68.04 1.99469 60.3004 2.00682 52.1036C2.00682 50.9829 2.24146 50.1131 2.71077 49.4941C11.0734 38.4815 19.5109 27.2949 28.0233 15.9343C30.4265 12.724 35.6941 13.6342 36.9806 17.7427C37.7979 20.3604 38.6394 23.1317 39.5052 26.0568C41.2651 32.0224 33.0542 34.3709 31.3004 28.982C31.2879 28.9418 31.264 28.9064 31.2316 28.8799C31.1991 28.8534 31.1594 28.8369 31.1172 28.8324C31.075 28.828 31.0321 28.8357 30.9936 28.8546C30.9551 28.8736 30.9225 28.9031 30.8998 28.9395L20.4071 46.0714C20.1643 46.4678 19.8143 46.7126 19.3572 46.8057C18.7988 46.919 18.2689 46.7409 17.7672 46.2716C17.5481 46.0677 17.4066 45.7941 17.3668 45.4975C17.3269 45.2009 17.3912 44.8997 17.5487 44.6452L29.6375 24.9402C31.4541 21.9787 32.7852 22.183 33.6307 25.5531L34.1951 27.8228C34.3448 28.4095 34.7191 28.7473 35.3178 28.8363C35.5039 28.8646 35.6779 28.8403 35.8397 28.7635C36.5437 28.4398 36.7824 27.9098 36.5558 27.1735L33.9524 18.6227C33.845 18.2713 33.6424 17.9566 33.3671 17.7132C33.0918 17.4699 32.7545 17.3075 32.3926 17.244C32.0307 17.1806 31.6583 17.2185 31.3166 17.3537C30.975 17.4888 30.6774 17.7159 30.4568 18.0098L6.96493 49.3242C6.94043 49.3573 6.92552 49.3965 6.92181 49.4375C6.91811 49.4786 6.92575 49.5198 6.94393 49.5568C6.9621 49.5937 6.99007 49.625 7.02482 49.6471C7.05957 49.6693 7.09972 49.6814 7.14091 49.6822H91.9386C91.9775 49.6825 92.0156 49.6719 92.0486 49.6514C92.0817 49.631 92.1083 49.6017 92.1254 49.5668C92.1425 49.532 92.1495 49.493 92.1454 49.4543C92.1414 49.4157 92.1265 49.379 92.1025 49.3485C84.4559 39.1773 76.6354 28.7554 68.641 18.0826C67.6578 16.7657 65.6551 16.9235 65.1393 18.5863C64.229 21.5195 63.3612 24.4041 62.5359 27.2402C62.3214 27.9685 62.5601 28.4863 63.252 28.7938C63.6161 28.9556 64.0348 28.8444 64.5082 28.46C64.6582 28.334 64.7644 28.1618 64.8116 27.9685L65.7826 24.0785C65.8558 23.7836 66.0166 23.5175 66.2439 23.3151C66.4713 23.1127 66.7546 22.9832 67.057 22.9436C67.7367 22.8526 68.3618 23.1257 68.7259 23.7265C73.2693 31.1869 77.4304 38.0041 81.2092 44.1779C81.7594 45.0801 81.6441 45.9035 80.8633 46.6479C80.7621 46.7409 80.6306 46.7976 80.4688 46.8178C79.5868 46.919 79.0083 46.7409 78.7332 46.2838C75.5977 41.1011 72.1102 35.3824 68.2708 29.1276C68.0483 28.7675 67.8622 28.7857 67.7125 29.1822ZM7.07416 76.3237C7.34508 76.3787 7.58933 76.5246 7.76685 76.7373C7.94436 76.9501 8.04461 77.2173 8.05121 77.495L8.1301 81.0573C8.13645 81.3492 8.25693 81.6271 8.46565 81.8312C8.67438 82.0354 8.95477 82.1497 9.24676 82.1497H42.0723C42.4629 82.1497 42.8377 81.9953 43.115 81.7203C43.3924 81.4452 43.5498 81.0717 43.553 80.681C43.5813 77.1491 43.5813 73.253 43.553 68.9928C43.5348 65.655 46.0837 64.3684 49.0088 64.3502C51.3756 64.332 53.8091 64.4352 55.0168 66.7777C55.4092 67.5464 55.5993 68.4365 55.5872 69.4479C55.5387 73.2672 55.5326 77.0601 55.569 80.8267C55.5722 81.1787 55.7149 81.5152 55.9661 81.763C56.2173 82.0107 56.5566 82.1497 56.9102 82.1497H89.675C89.8378 82.1497 89.999 82.1173 90.1493 82.0543C90.2996 81.9913 90.4359 81.8991 90.5504 81.7828C90.665 81.6666 90.7555 81.5286 90.8167 81.377C90.8779 81.2254 90.9086 81.0631 90.907 80.8995C90.8948 79.4188 90.2819 76.2691 92.5698 76.2388C92.9346 76.2356 93.2835 76.0884 93.5403 75.8293C93.7972 75.5701 93.9413 75.22 93.9413 74.8551L93.9474 53.02C93.9474 52.9395 93.9147 52.8624 93.8567 52.8054C93.7986 52.7485 93.7199 52.7166 93.6379 52.7166H5.49024C5.28795 52.7166 5.18681 52.8177 5.18681 53.02V75.0918C5.18732 75.3306 5.2697 75.5618 5.42005 75.7464C5.5704 75.931 5.77952 76.0578 6.01214 76.1053L7.07416 76.3237Z" fill="white"/>
<path d="M42.2045 75.0075C42.2045 76.1744 41.7409 77.2935 40.9158 78.1186C40.0907 78.9437 38.9716 79.4073 37.8047 79.4073H13.8334C12.6665 79.4073 11.5474 78.9437 10.7223 78.1186C9.89714 77.2935 9.43359 76.1744 9.43359 75.0075V59.9935C9.43359 58.8266 9.89714 57.7075 10.7223 56.8824C11.5474 56.0573 12.6665 55.5938 13.8334 55.5938H37.8047C38.9716 55.5938 40.0907 56.0573 40.9158 56.8824C41.7409 57.7075 42.2045 58.8266 42.2045 59.9935V75.0075ZM39.0184 59.9146C39.0184 59.5767 38.8842 59.2525 38.6452 59.0135C38.4062 58.7745 38.082 58.6402 37.744 58.6402H13.8941C13.5561 58.6402 13.2319 58.7745 12.9929 59.0135C12.7539 59.2525 12.6197 59.5767 12.6197 59.9146V74.965C12.6197 75.303 12.7539 75.6271 12.9929 75.8661C13.2319 76.1051 13.5561 76.2394 13.8941 76.2394H37.744C38.082 76.2394 38.4062 76.1051 38.6452 75.8661C38.8842 75.6271 39.0184 75.303 39.0184 74.965V59.9146Z" fill="white"/>
<path d="M89.5315 75.183C89.5305 75.7417 89.4195 76.2947 89.2048 76.8105C88.9901 77.3262 88.6759 77.7947 88.2802 78.189C87.8845 78.5833 87.4149 78.8959 86.8984 79.1088C86.3819 79.3216 85.8285 79.4307 85.2699 79.4297L61.153 79.3877C60.5943 79.3867 60.0413 79.2757 59.5256 79.061C59.0098 78.8463 58.5413 78.5321 58.147 78.1364C57.7526 77.7407 57.4401 77.2712 57.2272 76.7547C57.0144 76.2382 56.9053 75.6848 56.9063 75.1261L56.9329 59.8209C56.9339 59.2622 57.0449 58.7092 57.2596 58.1935C57.4743 57.6777 57.7885 57.2093 58.1842 56.8149C58.5799 56.4206 59.0495 56.1081 59.566 55.8952C60.0825 55.6823 60.6359 55.5732 61.1946 55.5742L85.3114 55.6163C85.8701 55.6172 86.4231 55.7282 86.9389 55.9429C87.4546 56.1576 87.923 56.4718 88.3174 56.8675C88.7117 57.2632 89.0243 57.7328 89.2372 58.2493C89.4501 58.7658 89.5591 59.3192 89.5582 59.8778L89.5315 75.183ZM86.5173 60.0789C86.5176 59.8932 86.4814 59.7093 86.4106 59.5376C86.3398 59.3659 86.236 59.2098 86.1049 59.0783C85.9738 58.9468 85.8181 58.8423 85.6467 58.771C85.4753 58.6996 85.2915 58.6627 85.1058 58.6624L61.3894 58.621C61.0143 58.6203 60.6545 58.7687 60.3888 59.0334C60.1232 59.2981 59.9736 59.6575 59.9729 60.0325L59.9471 74.8037C59.9468 74.9894 59.9831 75.1733 60.0538 75.345C60.1246 75.5167 60.2285 75.6727 60.3595 75.8043C60.4906 75.9358 60.6463 76.0402 60.8177 76.1116C60.9891 76.183 61.173 76.2198 61.3586 76.2202L85.0751 76.2616C85.4501 76.2622 85.81 76.1139 86.0756 75.8492C86.3412 75.5845 86.4908 75.2251 86.4915 74.8501L86.5173 60.0789Z" fill="white"/>
</g>
<defs>
<clipPath id="clip0_1895_853">
<rect width="100" height="100" fill="white"/>
</clipPath>
</defs>
</svg>
