<svg width="100" height="100" viewBox="0 0 100 100" fill="none" xmlns="http://www.w3.org/2000/svg">
<path d="M45.2494 84.5831V96.7788H75.4953C75.4953 96.7788 72.7429 75.9762 79.9964 63.9783C91.2492 42.9932 86.7633 3.01523 56.7456 3.00002C18.121 2.96961 24.8727 33.3675 14 49.1063C31.3051 54.1853 20.0066 77.9683 31.746 78.2268C43.4855 78.4853 53.2481 66.4874 53.2481 66.4874H58.7681" stroke="white" stroke-width="1.8137" stroke-miterlimit="10" stroke-linecap="round" stroke-linejoin="round"/>
<path d="M57.4016 46.3087L47.5021 20.3359L41.3131 36.1964L37.3594 46.3087" stroke="white" stroke-width="1.8137" stroke-miterlimit="10" stroke-linecap="round" stroke-linejoin="round"/>
<path d="M53.7628 36.7578H41.3086" stroke="white" stroke-width="1.8137" stroke-miterlimit="10" stroke-linecap="round" stroke-linejoin="round"/>
<path d="M64.5781 19.3477V46.3089" stroke="white" stroke-width="1.8137" stroke-miterlimit="10" stroke-linecap="round" stroke-linejoin="round"/>
<path d="M64.5759 71.9643C67.602 71.9643 70.0503 69.5161 70.0503 66.49C70.0503 63.4639 67.602 61.0156 64.5759 61.0156C61.5498 61.0156 59.1016 63.4639 59.1016 66.49" stroke="white" stroke-width="1.8137" stroke-miterlimit="10" stroke-linecap="round" stroke-linejoin="round"/>
</svg>
