<svg width="100" height="100" viewBox="0 0 100 100" fill="none" xmlns="http://www.w3.org/2000/svg">
<path d="M83.9251 94.9851C61.3133 94.9851 38.6867 94.9851 16.0749 94.9851C13.3471 94.0461 12.4528 92.0934 12.4826 89.3061C12.572 79.0957 12.5124 68.8854 12.5124 58.6751C12.5124 58.3024 12.5124 57.9447 12.5124 57.5124C11.4988 57.5124 10.6194 57.5124 9.75489 57.5124C7.01226 57.5124 6.0583 56.8864 5 54.3972C5 53.8755 5 53.3389 5 52.8172C5.37264 52.206 5.65585 51.5055 6.13283 50.9838C9.02451 47.6747 11.9609 44.4104 14.8824 41.1312C15.8513 40.0431 17.0735 39.5065 18.5343 39.4916C20.3826 39.4916 22.2309 39.4916 24.0643 39.4916C24.2729 39.4916 24.4965 39.4468 24.7648 39.417C24.6605 39.2084 24.6158 39.0742 24.5561 38.9401C22.5439 34.9453 21.098 30.7569 20.3975 26.3299C19.7118 21.9626 19.6969 17.625 21.2024 13.4068C22.5737 9.54621 24.9586 6.62471 29.0725 5.43226C29.6539 5.2683 30.265 5.14906 30.8463 5C31.845 5 32.8437 5 33.8274 5C33.902 5.04472 33.9616 5.11925 34.051 5.13415C36.9129 5.61113 39.4468 6.87811 41.7721 8.51772C46.3928 11.782 49.7466 16.1345 52.4296 21.0533C52.5936 21.3514 52.7575 21.6346 52.9215 21.9179C54.0394 21.0831 55.1275 20.3528 56.1262 19.4882C56.633 19.056 57.1994 18.4449 57.3186 17.8337C57.5571 16.5966 57.4975 15.2998 57.5571 14.0328C56.156 13.8688 55.0977 13.3322 54.7698 12.1249C54.263 10.2468 54.1438 8.27923 55.53 6.71415C56.1858 5.96887 57.2292 5.55151 58.0937 5C61.6711 5 65.2484 5 68.8109 5C69.109 5.11924 69.4071 5.22359 69.7052 5.34283C71.8069 6.19245 72.6863 8.01093 72.4925 11.1262C72.4031 12.6615 71.5386 13.5409 69.4965 14.1222C69.4965 15.0762 69.4965 16.0301 69.4965 16.999C69.4965 17.9977 69.9139 18.8175 70.7039 19.4137C71.3746 19.9354 72.0603 20.4273 72.7608 20.9192C74.6091 22.2458 75.5035 24.0344 75.4886 26.315C75.4588 30.3544 75.4886 34.3938 75.4886 38.4482C75.4886 38.7612 75.4886 39.0742 75.4886 39.4916C77.4412 39.4916 79.3044 39.5214 81.1676 39.4916C82.8668 39.4617 84.2084 40.0729 85.3412 41.3548C87.9646 44.3508 90.6625 47.2872 93.256 50.2981C93.9417 51.103 94.4187 52.0868 95 52.996C95 53.4581 95 53.9351 95 54.3972C93.9268 56.9162 92.9877 57.5124 90.1557 57.5124C89.2912 57.5124 88.4266 57.5124 87.4727 57.5124C87.4727 57.9894 87.4727 58.3322 87.4727 58.6751C87.4727 69.1537 87.4578 79.6323 87.4876 90.0961C87.4876 92.1381 86.6976 93.6436 84.8642 94.5826C84.5661 94.7317 84.2382 94.851 83.9251 94.9851ZM84.4915 57.5571C61.4326 57.5571 38.5078 57.5571 15.5234 57.5571C15.5234 57.9 15.5234 58.1981 15.5234 58.4813C15.5234 68.945 15.5234 79.3938 15.5234 89.8576C15.5234 91.5866 15.9407 92.004 17.7294 92.004C39.2531 92.004 60.7916 92.004 82.3153 92.004C84.0891 92.004 84.5065 91.5866 84.5065 89.8576C84.5065 79.4237 84.5065 69.0046 84.5065 58.5707C84.4915 58.2428 84.4915 57.9298 84.4915 57.5571ZM49.9404 54.4866C63.4747 54.4866 77.0089 54.4866 90.5432 54.4568C91.0053 54.4568 91.4525 54.114 91.9145 53.9351C91.7357 53.5028 91.676 52.9811 91.3779 52.6532C88.7546 49.6572 86.0566 46.7208 83.4631 43.6949C82.6582 42.7559 81.7936 42.4131 80.5863 42.4131C61.0749 42.4429 41.5634 42.428 22.0669 42.428C20.9192 42.428 19.7714 42.3683 18.6386 42.4578C18.1467 42.4876 17.5356 42.6665 17.2226 42.9944C14.2266 46.2885 11.2753 49.6125 8.33885 52.9662C8.14508 53.1898 8.01093 53.6668 8.13018 53.8904C8.27923 54.1587 8.68168 54.3375 9.00961 54.4419C9.27791 54.5313 9.59093 54.4568 9.88904 54.4568C23.2295 54.4866 36.585 54.4866 49.9404 54.4866ZM51.416 39.4617C51.4608 39.2382 51.5055 39.1636 51.5055 39.0742C51.5055 34.8559 51.5204 30.6376 51.5055 26.4194C51.5055 26.0616 51.3713 25.6741 51.2223 25.3312C49.8808 22.2905 48.2113 19.4435 46.1544 16.835C43.2925 13.2428 39.9834 10.1872 35.5714 8.56244C31.0997 6.92282 26.8367 8.56244 24.6903 12.8105C23.3935 15.3743 22.9612 18.1467 22.9911 20.9788C23.0507 27.2839 24.8543 33.1269 27.8503 38.6419C28.1633 39.2382 28.5061 39.4617 29.1918 39.4468C36.3018 39.417 43.4266 39.4319 50.5366 39.4319C50.8049 39.4617 51.0881 39.4617 51.416 39.4617ZM54.5611 39.4021C60.5979 39.4021 66.5303 39.4021 72.4329 39.4021C72.4329 36.3912 72.4329 33.4548 72.4329 30.5482C66.426 30.5482 60.4935 30.5482 54.5611 30.5482C54.5611 33.5144 54.5611 36.4359 54.5611 39.4021ZM66.5154 14.0179C64.4733 14.0179 62.5356 14.0179 60.5681 14.0179C60.5532 14.2564 60.5084 14.4203 60.5234 14.5992C61.0152 18.5045 59.48 21.3514 56.0815 23.2743C54.4419 24.1984 54.3673 25.7635 54.5909 27.4329C60.5681 27.4329 66.5005 27.4329 72.4329 27.4329C72.7608 25.5548 72.3286 24.0345 70.6293 23.0209C70.1077 22.7079 69.6307 22.3054 69.1388 21.9328C67.3799 20.6509 66.5005 18.9218 66.5154 16.7456C66.5154 15.8513 66.5154 14.9569 66.5154 14.0179ZM57.5273 10.9026C61.5966 10.9026 65.5316 10.9026 69.5114 10.9026C69.5114 10.3809 69.5412 9.91885 69.5114 9.45678C69.4518 8.57735 68.8705 7.99603 67.9762 7.98112C64.995 7.95131 62.0139 7.95131 59.0328 7.98112C58.1236 7.99603 57.587 8.56244 57.5422 9.47168C57.4975 9.94866 57.5273 10.3958 57.5273 10.9026Z" fill="white"/>
<path d="M70.9836 87.4744C69.0757 87.4744 67.1678 87.4893 65.2748 87.4744C63.2029 87.4595 62.0105 86.267 61.9956 84.1951C61.9806 82.3767 61.9806 80.5582 61.9956 78.7397C62.0105 76.6976 63.2476 75.4903 65.3046 75.4754C69.1055 75.4754 72.9214 75.4605 76.7223 75.4754C78.7345 75.4754 79.9717 76.6827 80.0015 78.6801C80.0313 80.5582 80.0313 82.4363 80.0015 84.2995C79.9717 86.2521 78.7494 87.4446 76.7819 87.4595C74.8442 87.4744 72.9214 87.4744 70.9836 87.4744ZM65.0363 84.4187C69.031 84.4187 72.9661 84.4187 76.9459 84.4187C76.9459 82.4363 76.9459 80.4837 76.9459 78.5161C72.9512 78.5161 69.0161 78.5161 65.0363 78.5161C65.0363 80.4837 65.0363 82.4065 65.0363 84.4187Z" fill="white"/>
<path d="M28.1758 31.5052C28.2355 30.1488 28.9956 28.7327 30.6054 27.9576C34.3169 26.1839 38.0582 24.4399 41.8145 22.7556C43.9907 21.7867 46.4948 22.8003 47.5382 24.9318C48.5965 27.0931 47.8363 29.7612 45.6601 30.8195C41.889 32.6678 38.0732 34.4714 34.2126 36.1259C31.2911 37.3631 28.1609 35.0974 28.1758 31.5052ZM45.0937 27.0633C44.885 25.856 43.8565 25.1256 42.8578 25.5727C39.2358 27.2124 35.6286 28.8967 32.0364 30.581C31.2464 30.9537 30.993 31.7735 31.306 32.5039C31.6488 33.2789 32.4686 33.6367 33.2735 33.264C36.8658 31.6244 40.458 29.9848 44.0205 28.2707C44.4826 28.062 44.7509 27.4807 45.0937 27.0633Z" fill="white"/>
<path d="M35.8674 12.4102C37.8647 12.4996 39.5938 13.8113 40.1453 15.6894C40.7117 17.6569 39.9664 19.8331 38.1628 20.7722C36.0909 21.8603 33.9744 22.8739 31.7981 23.7235C29.6368 24.5731 27.1774 23.3956 26.2682 21.2492C25.344 19.0879 26.1787 16.5837 28.2804 15.5254C30.2181 14.5566 32.1857 13.6622 34.1681 12.7977C34.6898 12.5741 35.301 12.5294 35.8674 12.4102ZM37.3132 17.3141C37.343 15.913 36.2847 15.1528 35.2264 15.6C33.3781 16.39 31.5447 17.2545 29.7412 18.1488C28.9661 18.5364 28.7425 19.3711 29.1002 20.1014C29.443 20.802 30.2629 21.1448 31.0379 20.802C32.8564 19.9971 34.66 19.1773 36.4338 18.283C36.8809 18.0743 37.1343 17.5228 37.3132 17.3141Z" fill="white"/>
</svg>
