<svg width="6914" height="3526" viewBox="0 0 6914 3526" fill="none" xmlns="http://www.w3.org/2000/svg">
<path d="M2872.58 82.4295C2871.52 87.0548 2871.59 92.4731 2875.02 96.1733C2942.29 167.58 3010.24 239.691 3078.88 312.507C3080.07 313.743 3080.77 315.386 3080.86 317.132L3081.06 320.039L2719.41 319.775C2717.16 319.731 2716.63 318.762 2717.82 316.868C2765.31 239.515 2813.17 162.514 2861.41 85.8655C2863.57 82.4295 2867.29 81.2842 2872.58 82.4295Z" fill="#8A1D04"/>
<path d="M2872.58 82.4297H3696.25C3700.1 82.4299 3703.8 83.9487 3706.56 86.6586C4016.25 391.314 4267.96 638.218 4461.71 827.372C5270.73 1617.38 6035.15 2364.77 6754.97 3069.53C6757.97 3072.49 6757.37 3073.96 6753.19 3073.96H5679.47C5678.55 3073.96 5677.64 3073.77 5676.8 3073.41C5675.96 3073.05 5675.21 3072.51 5674.58 3071.85L3427.9 683.789L3213.21 455.628C3172.64 412.062 3132 369.002 3091.3 326.449C3087.38 322.308 3083.96 320.172 3081.06 320.04L3080.86 317.132C3080.77 315.386 3080.07 313.743 3078.88 312.507C3010.24 239.691 2942.29 167.58 2875.02 96.1735C2871.59 92.4733 2871.52 87.055 2872.58 82.4297Z" fill="#631306"/>
<path d="M3213.22 455.629L3427.91 683.79L3422.09 691.454C3421.03 692.864 3419.65 693.569 3417.93 693.569H2486.02C2485.8 693.567 2485.58 693.506 2485.39 693.392C2485.19 693.278 2485.04 693.115 2484.93 692.92C2484.82 692.725 2484.77 692.505 2484.77 692.282C2484.78 692.059 2484.84 691.842 2484.96 691.653L2630.2 459.395C2630.93 458.222 2631.94 457.254 2633.13 456.583C2634.32 455.913 2635.66 455.561 2637.01 455.563L3213.22 455.629Z" fill="#8A1D04"/>
<path d="M3186.78 1066.9H2254.61C2254.22 1066.9 2253.85 1066.79 2253.52 1066.6C2253.18 1066.4 2252.91 1066.12 2252.72 1065.79C2252.54 1065.45 2252.44 1065.07 2252.45 1064.69C2252.45 1064.3 2252.56 1063.93 2252.76 1063.6L2398.72 830.085C2398.92 829.765 2399.19 829.5 2399.51 829.315C2399.84 829.129 2400.2 829.031 2400.58 829.027H3332.48C3332.87 829.031 3333.25 829.136 3333.58 829.331C3333.91 829.527 3334.18 829.807 3334.37 830.142C3334.56 830.478 3334.65 830.857 3334.65 831.241C3334.64 831.626 3334.53 832.002 3334.33 832.331L3188.63 1065.84C3188.44 1066.16 3188.17 1066.43 3187.84 1066.61C3187.52 1066.8 3187.15 1066.9 3186.78 1066.9Z" fill="#8A1D04"/>
<path d="M2167.18 1202.36H3099.49C3099.86 1202.36 3100.23 1202.46 3100.56 1202.65C3100.88 1202.84 3101.15 1203.12 3101.33 1203.45C3101.51 1203.78 3101.6 1204.15 3101.59 1204.53C3101.58 1204.91 3101.47 1205.27 3101.27 1205.59L2955.17 1439.24C2954.98 1439.54 2954.72 1439.79 2954.41 1439.96C2954.09 1440.14 2953.74 1440.23 2953.39 1440.23H2021.15C2020.77 1440.23 2020.4 1440.13 2020.08 1439.93C2019.75 1439.74 2019.48 1439.47 2019.3 1439.14C2019.12 1438.81 2019.03 1438.43 2019.04 1438.06C2019.05 1437.68 2019.16 1437.31 2019.36 1436.99L2165.4 1203.35C2165.59 1203.04 2165.85 1202.79 2166.16 1202.62C2166.47 1202.45 2166.82 1202.36 2167.18 1202.36Z" fill="#8A1D04"/>
<path d="M1933.67 1575.68H2865.77C2866.16 1575.69 2866.53 1575.79 2866.86 1575.99C2867.2 1576.18 2867.47 1576.46 2867.66 1576.8C2867.84 1577.13 2867.94 1577.51 2867.93 1577.9C2867.93 1578.28 2867.82 1578.66 2867.62 1578.99L2721.72 1812.5C2721.53 1812.82 2721.26 1813.09 2720.93 1813.27C2720.61 1813.46 2720.24 1813.55 2719.87 1813.56H1787.76C1787.38 1813.55 1787 1813.45 1786.67 1813.25C1786.34 1813.06 1786.07 1812.78 1785.88 1812.44C1785.69 1812.11 1785.6 1811.73 1785.6 1811.34C1785.61 1810.96 1785.72 1810.58 1785.91 1810.25L1931.82 1576.74C1932.01 1576.42 1932.28 1576.16 1932.6 1575.97C1932.93 1575.79 1933.29 1575.69 1933.67 1575.68Z" fill="#8A1D04"/>
<path d="M1700.47 1949.02H2632.91C2633.27 1949.02 2633.62 1949.12 2633.93 1949.31C2634.24 1949.49 2634.49 1949.76 2634.67 1950.07C2634.84 1950.39 2634.93 1950.74 2634.92 1951.1C2634.91 1951.46 2634.81 1951.81 2634.63 1952.12L2488.59 2185.9C2488.41 2186.2 2488.16 2186.44 2487.86 2186.62C2487.56 2186.79 2487.22 2186.88 2486.88 2186.89H1554.37C1554.01 2186.88 1553.66 2186.78 1553.35 2186.6C1553.04 2186.41 1552.79 2186.15 1552.62 2185.83C1552.44 2185.52 1552.35 2185.16 1552.36 2184.8C1552.37 2184.44 1552.47 2184.09 1552.65 2183.78L1698.75 1950.01C1698.93 1949.71 1699.18 1949.46 1699.48 1949.29C1699.79 1949.12 1700.12 1949.02 1700.47 1949.02Z" fill="#8A1D04"/>
<path d="M1231.78 3075.02C1146.67 3096.63 1045.11 3089.95 968.917 3043.57C867.376 2981.72 819.205 2889.41 824.403 2766.64C828.764 2664.03 887.046 2571.65 978.301 2523.88C1038.74 2492.25 1106.65 2480.4 1182.02 2488.33C1260.48 2496.61 1325.13 2529.14 1375.96 2585.92C1378.03 2588.21 1377.95 2590.4 1375.7 2592.47L1293.96 2667.73C1291.93 2669.62 1289.99 2669.53 1288.14 2667.46C1250.74 2625.13 1204.58 2603.28 1149.64 2601.91C1027.73 2598.94 948.301 2694.88 962.904 2814.88C972.882 2896.55 1032.49 2956.55 1114.42 2968.5C1183.08 2978.55 1243.28 2955.82 1288.21 2904.68C1290.15 2902.43 1292.22 2902.32 1294.42 2904.34L1376.09 2980C1376.85 2980.69 1377.29 2981.65 1377.34 2982.67C1377.39 2983.7 1377.04 2984.71 1376.36 2985.49C1337.95 3030.46 1289.75 3060.31 1231.78 3075.02Z" fill="#8A1D04"/>
<path d="M1419.24 2765.65C1429.61 2562 1627.38 2454.43 1812.41 2493.68C1927.98 2518.13 2024.98 2604.62 2047.12 2721.11C2064.34 2811.99 2048.35 2891.79 1999.14 2960.51C1931.35 3055.13 1818.68 3094.64 1702.12 3085.32C1637.1 3080.17 1570.89 3055.46 1521.13 3012.91C1448 2950.35 1414.04 2867.93 1419.24 2765.65ZM1735.76 2972.2C1759.62 2972.24 1783.26 2967.48 1805.32 2958.18C1827.39 2948.88 1847.44 2935.23 1864.35 2918.01C1881.25 2900.78 1894.67 2880.32 1903.84 2857.79C1913.02 2835.27 1917.76 2811.11 1917.8 2786.71C1917.84 2762.31 1913.19 2738.14 1904.09 2715.58C1895 2693.02 1881.65 2672.52 1864.81 2655.24C1847.96 2637.95 1827.95 2624.23 1805.92 2614.85C1783.89 2605.48 1760.27 2600.63 1736.41 2600.59C1712.55 2600.55 1688.91 2605.31 1666.84 2614.61C1644.78 2623.91 1624.72 2637.56 1607.82 2654.79C1590.92 2672.01 1577.5 2692.47 1568.32 2715C1559.15 2737.53 1554.41 2761.68 1554.37 2786.08C1554.32 2810.48 1558.98 2834.65 1568.08 2857.21C1577.17 2879.77 1590.52 2900.27 1607.36 2917.56C1624.21 2934.84 1644.21 2948.56 1666.24 2957.94C1688.27 2967.31 1711.9 2972.16 1735.76 2972.2Z" fill="#8A1D04"/>
<path d="M3956.34 2808.53C3948.61 2934.14 3865.94 3033.06 3747 3070.92C3693.34 3088.06 3635.55 3091.43 3573.61 3081.03C3452.09 3060.61 3354.56 2974.25 3328.79 2852.61C3291.52 2677.04 3401.8 2518.13 3578.7 2490.91C3705.7 2471.28 3833.43 2511.46 3906.84 2618.37C3944.33 2672.95 3960.83 2736.33 3956.34 2808.53ZM3640.59 2972.14C3688.79 2971.88 3734.9 2952.07 3768.8 2917.06C3802.7 2882.05 3821.59 2834.71 3821.34 2785.45C3821.08 2736.19 3801.68 2689.04 3767.42 2654.39C3733.16 2619.73 3686.84 2600.41 3638.65 2600.66C3590.46 2600.91 3544.34 2620.72 3510.44 2655.73C3476.55 2690.75 3457.65 2738.09 3457.91 2787.35C3458.17 2836.61 3477.56 2883.75 3511.82 2918.41C3546.08 2953.06 3592.4 2972.39 3640.59 2972.14Z" fill="#8A1D04"/>
<path d="M347.178 2954.82L297.157 3075.74C296.987 3076.17 296.696 3076.53 296.32 3076.79C295.943 3077.05 295.499 3077.19 295.042 3077.2L160.308 3077.4C159.924 3077.39 159.547 3077.3 159.21 3077.12C158.872 3076.93 158.586 3076.67 158.376 3076.35C158.167 3076.03 158.04 3075.66 158.008 3075.28C157.976 3074.89 158.04 3074.51 158.193 3074.16L415.372 2497.18C415.551 2496.77 415.847 2496.42 416.223 2496.17C416.598 2495.93 417.037 2495.79 417.486 2495.79H548.256C548.705 2495.79 549.144 2495.93 549.52 2496.17C549.895 2496.42 550.191 2496.77 550.371 2497.18L808.342 3074.03C808.496 3074.38 808.559 3074.76 808.527 3075.14C808.495 3075.53 808.369 3075.89 808.159 3076.22C807.949 3076.54 807.663 3076.8 807.326 3076.98C806.989 3077.17 806.611 3077.26 806.228 3077.26H668.255C667.799 3077.26 667.354 3077.12 666.978 3076.86C666.602 3076.6 666.31 3076.23 666.141 3075.81L616.119 2954.82C615.95 2954.4 615.658 2954.04 615.282 2953.78C614.906 2953.52 614.461 2953.38 614.005 2953.37H349.293C348.836 2953.38 348.392 2953.52 348.016 2953.78C347.639 2954.04 347.348 2954.4 347.178 2954.82ZM392.971 2846.33C392.841 2846.66 392.795 2847.02 392.836 2847.37C392.877 2847.73 393.004 2848.06 393.207 2848.36C393.409 2848.65 393.68 2848.89 393.996 2849.05C394.312 2849.22 394.663 2849.3 395.019 2849.3H569.071C569.427 2849.3 569.779 2849.22 570.095 2849.05C570.411 2848.89 570.682 2848.65 570.884 2848.36C571.086 2848.06 571.213 2847.73 571.254 2847.37C571.295 2847.02 571.249 2846.66 571.119 2846.33L484.028 2636.07C483.854 2635.69 483.574 2635.37 483.223 2635.15C482.872 2634.92 482.463 2634.8 482.045 2634.8C481.628 2634.8 481.219 2634.92 480.868 2635.15C480.516 2635.37 480.237 2635.69 480.063 2636.07L392.971 2846.33Z" fill="#8A1D04"/>
<path d="M2288.04 2921.65V3073.96C2288.04 3076.16 2286.94 3077.26 2284.74 3077.26H2154.23C2153.13 3077.26 2152.58 3076.71 2152.58 3075.61V2499.36C2152.58 2497.12 2153.7 2495.97 2155.95 2495.93C2244.93 2495.57 2330.73 2495.64 2413.32 2496.12C2513.3 2496.65 2617.11 2539.27 2647.18 2640.43C2660.09 2683.74 2660.35 2727.37 2647.97 2771.33C2619.89 2870.84 2518.26 2914.65 2423.37 2916.5C2379.05 2917.38 2335.64 2917.43 2293.13 2916.63C2289.74 2916.59 2288.04 2918.26 2288.04 2921.65ZM2288.37 2608.32L2287.71 2804.04C2287.71 2804.27 2287.76 2804.51 2287.85 2804.72C2287.93 2804.94 2288.07 2805.13 2288.23 2805.3C2288.4 2805.47 2288.59 2805.6 2288.81 2805.69C2289.03 2805.78 2289.26 2805.82 2289.49 2805.82L2413.99 2806.29C2427.78 2806.33 2441.44 2803.99 2454.2 2799.4C2466.96 2794.8 2478.56 2788.04 2488.35 2779.5C2498.13 2770.96 2505.9 2760.8 2511.21 2749.62C2516.52 2738.43 2519.28 2726.43 2519.32 2714.31V2699.64C2519.39 2675.16 2508.41 2651.66 2488.78 2634.28C2469.15 2616.91 2442.49 2607.1 2414.65 2607L2290.15 2606.54C2289.68 2606.54 2289.23 2606.73 2288.89 2607.06C2288.56 2607.39 2288.37 2607.85 2288.37 2608.32Z" fill="#8A1D04"/>
<path d="M2886.06 2920.34V3073.96C2886.06 3074.84 2885.71 3075.68 2885.09 3076.3C2884.47 3076.92 2883.63 3077.27 2882.75 3077.27H2753.9C2751.7 3077.27 2750.59 3076.16 2750.59 3073.96V2500.75C2750.59 2499.54 2751.08 2498.37 2751.94 2497.5C2752.81 2496.64 2753.99 2496.14 2755.22 2496.13C2845.44 2495.38 2933.48 2495.49 3019.34 2496.46C3125.39 2497.65 3235.88 2555.2 3251.21 2668.59C3265.22 2772.02 3227.44 2845.8 3137.88 2889.94C3137.68 2890.05 3137.5 2890.2 3137.36 2890.38C3137.21 2890.56 3137.11 2890.77 3137.06 2891C3137 2891.22 3136.99 2891.46 3137.03 2891.68C3137.07 2891.91 3137.16 2892.13 3137.29 2892.32L3264.16 3074.09C3264.37 3074.41 3264.49 3074.77 3264.51 3075.14C3264.53 3075.52 3264.45 3075.89 3264.28 3076.21C3264.11 3076.54 3263.85 3076.81 3263.54 3077C3263.23 3077.18 3262.87 3077.28 3262.51 3077.27H3122.95C3120.66 3077.27 3118.87 3076.32 3117.6 3074.43L3009.82 2918.82C3008.28 2916.52 3006.12 2915.38 3003.35 2915.38H2891.01C2887.71 2915.38 2886.06 2917.03 2886.06 2920.34ZM2886.39 2608.46L2885.72 2804.17C2885.72 2804.42 2885.77 2804.66 2885.87 2804.88C2885.96 2805.11 2886.09 2805.31 2886.27 2805.48C2886.44 2805.65 2886.64 2805.79 2886.87 2805.88C2887.09 2805.98 2887.33 2806.02 2887.58 2806.02L3012.73 2806.49C3026.41 2806.53 3039.96 2804.13 3052.61 2799.4C3065.27 2794.67 3076.77 2787.72 3086.48 2778.94C3096.18 2770.16 3103.88 2759.72 3109.16 2748.22C3114.43 2736.73 3117.16 2724.39 3117.2 2711.93V2702.28C3117.28 2677.12 3106.39 2652.96 3086.92 2635.1C3067.45 2617.25 3041 2607.16 3013.39 2607.07L2888.24 2606.61C2887.75 2606.61 2887.27 2606.8 2886.93 2607.15C2886.58 2607.49 2886.39 2607.97 2886.39 2608.46Z" fill="#8A1D04"/>
<path d="M4285.01 2903.68L4460.52 2496.98C4460.67 2496.62 4460.93 2496.32 4461.26 2496.11C4461.59 2495.9 4461.98 2495.79 4462.37 2495.79H4593.6C4593.93 2495.79 4594.26 2495.87 4594.55 2496.02C4594.85 2496.17 4595.1 2496.4 4595.28 2496.68C4595.47 2496.95 4595.58 2497.27 4595.61 2497.6C4595.64 2497.93 4595.58 2498.26 4595.45 2498.57L4345.47 3076.07C4345.32 3076.43 4345.06 3076.74 4344.73 3076.95C4344.4 3077.16 4344.02 3077.27 4343.62 3077.26H4212.72C4212.33 3077.27 4211.95 3077.16 4211.62 3076.95C4211.29 3076.74 4211.03 3076.43 4210.87 3076.07L3961.69 2498.57C3961.56 2498.26 3961.5 2497.93 3961.53 2497.6C3961.56 2497.27 3961.67 2496.95 3961.86 2496.68C3962.04 2496.4 3962.29 2496.17 3962.58 2496.02C3962.88 2495.87 3963.21 2495.79 3963.54 2495.79H4106.4C4106.79 2495.79 4107.18 2495.9 4107.51 2496.11C4107.84 2496.32 4108.1 2496.62 4108.25 2496.98L4281.38 2903.68C4281.53 2904.04 4281.79 2904.34 4282.11 2904.55C4282.43 2904.76 4282.81 2904.87 4283.2 2904.87C4283.58 2904.87 4283.96 2904.76 4284.28 2904.55C4284.6 2904.34 4284.86 2904.04 4285.01 2903.68Z" fill="#8A1D04"/>
<path d="M4776.9 2495.79H4646.06C4644.79 2495.79 4643.75 2496.83 4643.75 2498.11V3074.95C4643.75 3076.23 4644.79 3077.26 4646.06 3077.26H4776.9C4778.18 3077.26 4779.21 3076.23 4779.21 3074.95V2498.11C4779.21 2496.83 4778.18 2495.79 4776.9 2495.79Z" fill="#8A1D04"/>
<path d="M181.721 3356.37C186.082 3418.88 260.685 3444.78 305.751 3404.54C307.689 3402.78 309.605 3402.8 311.499 3404.61L318.834 3411.55C320.817 3413.4 321.015 3415.42 319.429 3417.62C316.389 3421.81 312.557 3425.22 307.931 3427.87C279.605 3443.99 251.434 3447.16 223.416 3437.38C179.1 3421.92 158.681 3389.45 162.161 3339.99C167.58 3262.21 266.103 3235.52 318.9 3282.5C321.191 3284.57 321.279 3286.73 319.165 3288.97L311.698 3296.77C309.495 3299.02 307.27 3299.04 305.024 3296.84C294.011 3286.13 280.729 3280.08 265.178 3278.67C217.998 3274.37 178.417 3308 181.721 3356.37Z" fill="#3D3D3D"/>
<path d="M600.79 3350.55C600.832 3362.67 598.411 3374.67 593.665 3385.88C588.919 3397.09 581.94 3407.28 573.128 3415.88C564.316 3424.47 553.843 3431.3 542.307 3435.98C530.771 3440.66 518.397 3443.08 505.893 3443.13C480.639 3443.22 456.386 3433.58 438.469 3416.35C420.551 3399.11 410.438 3375.68 410.352 3351.22C410.31 3339.11 412.731 3327.1 417.477 3315.89C422.223 3304.69 429.201 3294.49 438.013 3285.9C446.825 3277.3 457.299 3270.47 468.835 3265.79C480.371 3261.12 492.745 3258.69 505.249 3258.65C530.503 3258.56 554.756 3268.19 572.673 3285.43C590.591 3302.66 600.704 3326.09 600.79 3350.55ZM579.764 3352.38C579.948 3342.77 578.21 3333.21 574.649 3324.26C571.088 3315.31 565.773 3307.13 559.008 3300.2C552.243 3293.27 544.16 3287.72 535.221 3283.87C526.282 3280.02 516.662 3277.94 506.91 3277.75C487.216 3277.38 468.18 3284.73 453.99 3298.19C439.8 3311.65 431.619 3330.11 431.246 3349.53C431.062 3359.14 432.8 3368.69 436.361 3377.65C439.922 3386.6 445.237 3394.77 452.002 3401.7C458.767 3408.63 466.85 3414.18 475.789 3418.03C484.728 3421.89 494.348 3423.96 504.099 3424.15C523.794 3424.53 542.83 3417.18 557.02 3403.72C571.21 3390.26 579.391 3371.79 579.764 3352.38Z" fill="#3D3D3D"/>
<path d="M1020 3280.58C990.393 3289.7 989.666 3326.5 1020.86 3335.16C1038.92 3340.18 1056.19 3345.2 1072.66 3350.23C1123.28 3365.75 1116.34 3426.35 1067.7 3438.83C1034.36 3447.38 1003.26 3441.65 974.402 3421.65C972.684 3420.47 972.287 3418.92 973.212 3417.03L979.556 3404.47C980.437 3402.8 981.582 3402.58 982.992 3403.81C1001.32 3420.07 1024.6 3426.72 1052.84 3423.77C1092.29 3419.61 1100.68 3376.13 1058.65 3365.75C1025.68 3357.63 967.662 3349.76 977.838 3300.01C981.318 3282.74 992.485 3270.96 1011.34 3264.66C1038.08 3255.63 1065.83 3258.01 1094.6 3271.79C1096.3 3272.6 1097.62 3274.04 1098.26 3275.81C1098.91 3277.58 1098.83 3279.53 1098.04 3281.24L1095.06 3287.65C1093.56 3290.91 1091.25 3291.66 1088.12 3289.9C1064.86 3276.86 1042.15 3273.75 1020 3280.58Z" fill="#3D3D3D"/>
<path d="M3160.86 3352.55C3160.43 3377.01 3150 3400.29 3131.86 3417.28C3113.71 3434.26 3089.35 3443.56 3064.11 3443.12C3051.62 3442.9 3039.29 3440.3 3027.83 3435.46C3016.37 3430.62 3006 3423.65 2997.31 3414.93C2988.63 3406.21 2981.8 3395.92 2977.21 3384.65C2972.62 3373.38 2970.37 3361.34 2970.58 3349.23C2971.01 3324.77 2981.44 3301.48 2999.59 3284.5C3017.73 3267.51 3042.1 3258.22 3067.33 3258.66C3079.83 3258.88 3092.16 3261.48 3103.62 3266.32C3115.08 3271.15 3125.45 3278.13 3134.13 3286.85C3142.82 3295.57 3149.65 3305.85 3154.24 3317.13C3158.82 3328.4 3161.07 3340.44 3160.86 3352.55ZM3139.46 3343.2C3138.45 3333.64 3135.55 3324.37 3130.91 3315.92C3126.27 3307.48 3119.99 3300.02 3112.43 3293.98C3104.87 3287.94 3096.17 3283.43 3086.83 3280.72C3077.49 3278 3067.69 3277.12 3058 3278.14C3048.31 3279.16 3038.91 3282.05 3030.34 3286.65C3021.77 3291.25 3014.2 3297.47 3008.06 3304.95C3001.92 3312.43 2997.33 3321.03 2994.55 3330.26C2991.77 3339.48 2990.85 3349.15 2991.86 3358.71C2992.86 3368.27 2995.77 3377.54 3000.4 3385.98C3005.04 3394.43 3011.32 3401.88 3018.88 3407.92C3026.45 3413.97 3035.15 3418.47 3044.49 3421.19C3053.82 3423.91 3063.62 3424.78 3073.31 3423.77C3083 3422.75 3092.4 3419.85 3100.97 3415.25C3109.54 3410.65 3117.11 3404.44 3123.25 3396.95C3129.4 3389.47 3133.99 3380.88 3136.77 3371.65C3139.55 3362.43 3140.46 3352.76 3139.46 3343.2Z" fill="#3D3D3D"/>
<path d="M4547.45 3349.29C4547.67 3361.4 4545.41 3373.44 4540.82 3384.71C4536.23 3395.98 4529.4 3406.27 4520.71 3414.99C4512.02 3423.71 4501.64 3430.69 4490.17 3435.52C4478.7 3440.36 4466.36 3442.96 4453.86 3443.18C4428.61 3443.62 4404.22 3434.33 4386.07 3417.34C4367.91 3400.36 4357.47 3377.07 4357.04 3352.61C4356.83 3340.5 4359.09 3328.46 4363.68 3317.19C4368.26 3305.92 4375.1 3295.63 4383.79 3286.91C4392.48 3278.19 4402.86 3271.21 4414.33 3266.38C4425.8 3261.54 4438.14 3258.94 4450.64 3258.72C4475.89 3258.28 4500.28 3267.58 4518.43 3284.56C4536.59 3301.54 4547.03 3324.83 4547.45 3349.29ZM4526.3 3354.58C4526.77 3344.98 4525.32 3335.37 4522.02 3326.32C4518.73 3317.26 4513.66 3308.94 4507.1 3301.81C4500.55 3294.68 4492.63 3288.9 4483.81 3284.78C4474.99 3280.66 4465.44 3278.3 4455.69 3277.83C4445.95 3277.35 4436.21 3278.77 4427.03 3282C4417.85 3285.24 4409.41 3290.22 4402.19 3296.68C4394.97 3303.13 4389.11 3310.92 4384.95 3319.61C4380.79 3328.3 4378.4 3337.72 4377.93 3347.32C4377.46 3356.93 4378.92 3366.53 4382.21 3375.58C4385.51 3384.64 4390.58 3392.97 4397.13 3400.09C4403.69 3407.22 4411.6 3413.01 4420.42 3417.12C4429.24 3421.24 4438.8 3423.6 4448.54 3424.08C4458.28 3424.55 4468.02 3423.13 4477.2 3419.9C4486.38 3416.66 4494.82 3411.68 4502.04 3405.22C4509.27 3398.77 4515.12 3390.98 4519.29 3382.29C4523.45 3373.6 4525.83 3364.18 4526.3 3354.58Z" fill="#3D3D3D"/>
<path d="M4733.23 3420.79C4760.58 3412.6 4763.36 3377.12 4734.15 3368.26C4718.12 3363.42 4701.69 3358.64 4684.86 3353.93C4652.92 3344.98 4640.41 3326.04 4647.33 3297.1C4659.09 3247.81 4733.89 3254.81 4766.99 3274.44C4768.01 3275.05 4768.29 3275.91 4767.85 3277.01L4762.04 3291.35C4761.69 3292.19 4761.11 3292.39 4760.32 3291.95C4735.03 3276.62 4710.54 3273.09 4686.84 3281.37C4668.6 3287.78 4656.78 3311.24 4673.63 3326.17C4680.06 3331.77 4687.39 3335.49 4695.63 3337.34C4717.21 3342.1 4735.5 3347.67 4750.47 3354.06C4790.78 3371.24 4780.67 3426.68 4740.36 3437.84C4705.17 3447.58 4672.81 3442.29 4643.29 3421.98C4642.33 3421.32 4641.91 3420.42 4642.04 3419.28C4642.39 3414.52 4644.53 3409.76 4648.45 3405C4649.51 3403.68 4650.72 3403.53 4652.08 3404.54C4677.41 3423.97 4704.46 3429.38 4733.23 3420.79Z" fill="#3D3D3D"/>
<path d="M842.568 3398.07V3262.28C842.568 3261.86 842.742 3261.46 843.052 3261.16C843.362 3260.86 843.782 3260.69 844.22 3260.69L860.74 3260.63C861.841 3260.63 862.392 3261.18 862.392 3262.28V3436.59C862.392 3439.32 861.004 3440.68 858.229 3440.68H847.656C845.894 3440.68 844.44 3439.98 843.295 3438.57L735.256 3302.26C733.009 3299.44 731.886 3299.81 731.886 3303.38V3437.38C731.886 3439.63 730.785 3440.75 728.582 3440.75L714.441 3440.55C712.855 3440.55 712.062 3439.74 712.062 3438.11V3264.26C712.062 3262.19 713.076 3260.94 715.102 3260.5C722.811 3258.78 729.089 3261 733.935 3267.17C769.088 3311.84 804.066 3355.91 838.868 3399.39C841.335 3402.47 842.568 3402.03 842.568 3398.07Z" fill="#3D3D3D"/>
<path d="M1270.43 3280.98V3438.57C1270.43 3438.86 1270.37 3439.14 1270.26 3439.41C1270.15 3439.67 1269.99 3439.91 1269.79 3440.11C1269.58 3440.32 1269.34 3440.48 1269.08 3440.59C1268.82 3440.7 1268.53 3440.75 1268.25 3440.75L1251.13 3440.69C1250.84 3440.69 1250.56 3440.63 1250.3 3440.52C1250.03 3440.41 1249.79 3440.25 1249.59 3440.05C1249.39 3439.85 1249.23 3439.61 1249.12 3439.34C1249.01 3439.08 1248.95 3438.79 1248.95 3438.51V3280.98C1248.95 3280.4 1248.72 3279.85 1248.31 3279.44C1247.9 3279.03 1247.35 3278.8 1246.77 3278.8H1188.42C1187.84 3278.8 1187.29 3278.57 1186.88 3278.16C1186.47 3277.75 1186.24 3277.2 1186.24 3276.62L1186.11 3262.81C1186.11 3262.23 1186.34 3261.68 1186.75 3261.27C1187.16 3260.86 1187.71 3260.63 1188.29 3260.63H1331.02C1331.6 3260.63 1332.15 3260.86 1332.56 3261.27C1332.97 3261.68 1333.2 3262.23 1333.2 3262.81V3276.62C1333.2 3277.2 1332.97 3277.75 1332.56 3278.16C1332.15 3278.57 1331.6 3278.8 1331.02 3278.8H1272.61C1272.03 3278.8 1271.47 3279.03 1271.06 3279.44C1270.66 3279.85 1270.43 3280.4 1270.43 3280.98Z" fill="#3D3D3D"/>
<path d="M1452.14 3389.47L1452.21 3437.38C1452.21 3439.58 1451.09 3440.68 1448.84 3440.68H1435.62C1433.42 3440.68 1432.32 3439.58 1432.32 3437.38V3264.26C1432.32 3262.01 1433.44 3260.87 1435.69 3260.82C1461.15 3260.07 1486.24 3260.32 1510.95 3261.55C1550.8 3263.47 1576.64 3289.96 1572.87 3330.67C1570.8 3352.96 1558.69 3368.86 1536.53 3378.37C1536.18 3378.51 1535.88 3378.73 1535.63 3379C1535.38 3379.28 1535.2 3379.61 1535.1 3379.97C1535 3380.32 1534.98 3380.7 1535.04 3381.06C1535.1 3381.43 1535.25 3381.77 1535.47 3382.07L1574.65 3437.05C1576.33 3439.43 1575.71 3440.62 1572.8 3440.62L1556.28 3440.68C1554.48 3440.68 1553.05 3439.93 1551.99 3438.44L1515.98 3387.42C1514.61 3385.44 1512.74 3384.47 1510.36 3384.52H1457.1C1453.8 3384.52 1452.14 3386.17 1452.14 3389.47ZM1452.14 3281.44V3363.77C1452.14 3364.45 1452.42 3365.11 1452.9 3365.59C1453.38 3366.07 1454.04 3366.35 1454.72 3366.35H1505.54C1518.12 3366.35 1530.19 3361.95 1539.08 3354.12C1547.98 3346.28 1552.98 3335.66 1552.98 3324.59V3320.62C1552.98 3309.55 1547.98 3298.92 1539.08 3291.09C1530.19 3283.26 1518.12 3278.86 1505.54 3278.86H1454.72C1454.04 3278.86 1453.38 3279.13 1452.9 3279.62C1452.42 3280.1 1452.14 3280.76 1452.14 3281.44Z" fill="#3D3D3D"/>
<path d="M1753.47 3423.64C1796.09 3426.55 1814.39 3400.38 1814.06 3361.26C1813.8 3324.66 1813.8 3291.66 1814.06 3262.28C1814.06 3261.86 1814.23 3261.46 1814.53 3261.16C1814.82 3260.86 1815.23 3260.7 1815.65 3260.7L1831.97 3260.63C1832.94 3260.63 1833.44 3261.14 1833.49 3262.15C1834.28 3319.99 1834.04 3359.52 1832.76 3380.76C1827.74 3462.62 1695.85 3464.87 1687.12 3381.81C1684.61 3357.58 1684.06 3317.67 1685.47 3262.08C1685.47 3261.11 1685.98 3260.63 1686.99 3260.63H1704.83C1706.2 3260.63 1706.86 3261.31 1706.81 3262.68C1706.02 3318.27 1706.26 3356.64 1707.54 3377.78C1709 3402.96 1727.3 3421.79 1753.47 3423.64Z" fill="#3D3D3D"/>
<path d="M2012.43 3356.84L2070.45 3261.62C2070.64 3261.3 2070.91 3261.03 2071.24 3260.85C2071.56 3260.66 2071.93 3260.57 2072.3 3260.56L2088.89 3260.43C2089.28 3260.43 2089.67 3260.53 2090.01 3260.73C2090.35 3260.93 2090.63 3261.22 2090.82 3261.56C2091.01 3261.91 2091.1 3262.3 2091.09 3262.69C2091.07 3263.09 2090.95 3263.47 2090.74 3263.8L2020.83 3377.85C2020.62 3378.18 2020.5 3378.57 2020.5 3378.97L2020.43 3438.44C2020.43 3439.02 2020.2 3439.57 2019.79 3439.98C2019.38 3440.39 2018.83 3440.62 2018.25 3440.62H2002.79C2002.21 3440.62 2001.65 3440.39 2001.24 3439.98C2000.84 3439.57 2000.61 3439.02 2000.61 3438.44L2000.47 3380.82C2000.47 3380.42 2000.35 3380.03 2000.14 3379.7L1929.11 3263.67C1928.91 3263.33 1928.8 3262.95 1928.8 3262.56C1928.79 3262.17 1928.9 3261.79 1929.09 3261.45C1929.29 3261.11 1929.57 3260.83 1929.91 3260.64C1930.25 3260.45 1930.64 3260.36 1931.03 3260.36L1948.93 3260.69C1949.29 3260.71 1949.65 3260.81 1949.96 3261C1950.27 3261.18 1950.53 3261.44 1950.72 3261.75L2008.73 3356.84C2008.93 3357.15 2009.2 3357.41 2009.53 3357.59C2009.85 3357.77 2010.21 3357.86 2010.58 3357.86C2010.95 3357.86 2011.32 3357.77 2011.64 3357.59C2011.97 3357.41 2012.24 3357.15 2012.43 3356.84Z" fill="#3D3D3D"/>
<path d="M2207.1 3360.27V3420.4C2207.1 3420.98 2207.33 3421.53 2207.74 3421.94C2208.15 3422.35 2208.7 3422.58 2209.28 3422.58L2312.17 3422.52C2312.74 3422.52 2313.3 3422.75 2313.71 3423.15C2314.12 3423.56 2314.35 3424.12 2314.35 3424.7L2314.54 3438.51C2314.54 3439.08 2314.31 3439.64 2313.91 3440.05C2313.5 3440.46 2312.94 3440.69 2312.36 3440.69H2187.81C2187.23 3440.69 2186.67 3440.46 2186.26 3440.05C2185.85 3439.64 2185.62 3439.08 2185.62 3438.51V3262.81C2185.62 3262.23 2185.85 3261.68 2186.26 3261.27C2186.67 3260.86 2187.23 3260.63 2187.81 3260.63H2307.34C2307.92 3260.63 2308.48 3260.86 2308.88 3261.27C2309.29 3261.68 2309.52 3262.23 2309.52 3262.81L2309.59 3276.62C2309.59 3277.2 2309.36 3277.75 2308.95 3278.16C2308.54 3278.57 2307.99 3278.8 2307.41 3278.8H2209.28C2208.7 3278.8 2208.15 3279.03 2207.74 3279.44C2207.33 3279.85 2207.1 3280.4 2207.1 3280.98V3337.74C2207.1 3338.32 2207.33 3338.87 2207.74 3339.28C2208.15 3339.69 2208.7 3339.92 2209.28 3339.92H2297.5C2298.07 3339.92 2298.63 3340.15 2299.04 3340.56C2299.45 3340.97 2299.68 3341.52 2299.68 3342.1L2299.54 3355.91C2299.54 3356.49 2299.32 3357.04 2298.91 3357.45C2298.5 3357.86 2297.94 3358.09 2297.36 3358.09H2209.28C2208.7 3358.09 2208.15 3358.32 2207.74 3358.73C2207.33 3359.14 2207.1 3359.69 2207.1 3360.27Z" fill="#3D3D3D"/>
<path d="M2446.04 3440.69L2430.77 3440.62C2430.16 3440.62 2429.57 3440.38 2429.14 3439.94C2428.7 3439.51 2428.46 3438.92 2428.46 3438.31V3262.94C2428.46 3262.33 2428.7 3261.74 2429.14 3261.31C2429.57 3260.87 2430.16 3260.63 2430.77 3260.63H2443.53C2443.88 3260.62 2444.23 3260.7 2444.55 3260.84C2444.87 3260.99 2445.15 3261.21 2445.38 3261.49L2553.35 3397.87C2553.64 3398.26 2554.06 3398.55 2554.53 3398.7C2555 3398.84 2555.5 3398.83 2555.96 3398.67C2556.43 3398.5 2556.83 3398.2 2557.11 3397.79C2557.38 3397.39 2557.53 3396.91 2557.51 3396.42L2557.25 3262.94C2557.25 3262.33 2557.49 3261.74 2557.93 3261.31C2558.36 3260.87 2558.95 3260.63 2559.56 3260.63H2576.48C2577.09 3260.63 2577.68 3260.87 2578.11 3261.31C2578.55 3261.74 2578.79 3262.33 2578.79 3262.94V3438.44C2578.79 3439.05 2578.55 3439.64 2578.11 3440.08C2577.68 3440.51 2577.09 3440.75 2576.48 3440.75L2561.87 3440.62C2561.53 3440.62 2561.19 3440.54 2560.89 3440.39C2560.58 3440.24 2560.31 3440.03 2560.09 3439.76L2452.32 3303.31C2452.02 3302.92 2451.61 3302.63 2451.14 3302.49C2450.67 3302.35 2450.17 3302.36 2449.7 3302.52C2449.24 3302.68 2448.84 3302.98 2448.56 3303.39C2448.28 3303.79 2448.14 3304.28 2448.15 3304.77L2448.35 3438.37C2448.35 3438.99 2448.11 3439.58 2447.67 3440.01C2447.24 3440.44 2446.65 3440.69 2446.04 3440.69Z" fill="#3D3D3D"/>
<path d="M2705.99 3262.81C2705.99 3262.26 2706.21 3261.74 2706.59 3261.36C2706.98 3260.97 2707.5 3260.76 2708.04 3260.76H2784.89C2809.04 3260.76 2832.2 3270.11 2849.28 3286.75C2866.35 3303.39 2875.95 3325.96 2875.95 3349.5V3352.14C2875.95 3375.68 2866.35 3398.25 2849.28 3414.89C2832.2 3431.53 2809.04 3440.88 2784.89 3440.88H2708.04C2707.5 3440.88 2706.98 3440.67 2706.59 3440.28C2706.21 3439.9 2705.99 3439.38 2705.99 3438.83V3262.81ZM2725.95 3281.57L2725.68 3419.94C2725.68 3420.64 2725.96 3421.31 2726.46 3421.8C2726.95 3422.3 2727.63 3422.58 2728.33 3422.58L2782.11 3422.71C2791.64 3422.73 2801.08 3420.96 2809.89 3417.52C2818.7 3414.07 2826.71 3409.01 2833.46 3402.62C2840.21 3396.23 2845.57 3388.65 2849.23 3380.29C2852.89 3371.93 2854.78 3362.98 2854.8 3353.93V3348.11C2854.84 3329.83 2847.22 3312.29 2833.64 3299.34C2820.06 3286.39 2801.62 3279.1 2782.38 3279.06L2728.59 3278.93C2728.24 3278.93 2727.9 3279 2727.58 3279.13C2727.26 3279.26 2726.97 3279.46 2726.72 3279.7C2726.48 3279.95 2726.28 3280.24 2726.15 3280.56C2726.02 3280.88 2725.95 3281.22 2725.95 3281.57Z" fill="#3D3D3D"/>
<path d="M3457.97 3278.8H3398.17C3397.07 3278.8 3396.52 3278.25 3396.52 3277.15V3262.28C3396.52 3261.18 3397.07 3260.63 3398.17 3260.63H3477.93C3480.88 3260.63 3482.38 3262.1 3482.42 3265.06C3482.6 3308.4 3482.49 3349.17 3482.09 3387.36C3481.74 3422.69 3465.28 3441.04 3432.73 3442.4C3410.88 3443.33 3393.81 3435.71 3381.52 3419.54C3379.36 3416.68 3379.51 3413.95 3381.98 3411.35L3387.53 3405.47C3387.98 3404.99 3388.53 3404.62 3389.14 3404.38C3389.75 3404.15 3390.41 3404.04 3391.07 3404.08C3391.73 3404.12 3392.37 3404.29 3392.96 3404.6C3393.55 3404.91 3394.06 3405.34 3394.47 3405.86C3404.07 3418.37 3416.47 3424.48 3431.67 3424.17C3458.1 3423.64 3462.86 3398.53 3462.73 3377.12C3462.47 3343.95 3462.47 3312.79 3462.73 3283.62C3462.77 3280.41 3461.19 3278.8 3457.97 3278.8Z" fill="#3D3D3D"/>
<path d="M3669.89 3422.98C3728.3 3430.58 3736.76 3387.43 3735.44 3338.6C3734.73 3313.14 3734.78 3287.37 3735.57 3261.29C3735.57 3260.94 3735.75 3260.76 3736.1 3260.76L3753.15 3260.63C3754.29 3260.63 3754.87 3261.2 3754.87 3262.35C3755.17 3296.75 3755.13 3332.15 3754.73 3368.53C3754.47 3390.78 3747.66 3409.01 3734.32 3423.24C3712.44 3446.57 3664.73 3447.82 3638.77 3432.29C3618.06 3419.92 3607.42 3399.23 3606.85 3370.25C3606.19 3335.63 3606.03 3299.61 3606.39 3262.21C3606.39 3261.16 3606.92 3260.63 3607.97 3260.63L3626.21 3260.7C3627.27 3260.7 3627.8 3261.22 3627.8 3262.28C3627.8 3300.21 3627.88 3337.08 3628.06 3372.89C3628.19 3398.46 3643.59 3419.54 3669.89 3422.98Z" fill="#3D3D3D"/>
<path d="M3902.02 3303.38V3438.97C3902.02 3440.07 3901.47 3440.62 3900.37 3440.62L3882.2 3440.69C3881.76 3440.69 3881.34 3440.51 3881.03 3440.2C3880.72 3439.89 3880.55 3439.47 3880.55 3439.03V3263.93C3880.55 3261.73 3881.65 3260.63 3883.85 3260.63H3894.23C3896.56 3260.63 3898.45 3261.53 3899.91 3263.34L4007.68 3399.06C4009.89 3401.88 4010.99 3401.5 4010.99 3397.94L4011.05 3262.28C4011.05 3261.84 4011.23 3261.42 4011.54 3261.11C4011.85 3260.8 4012.27 3260.63 4012.7 3260.63L4029.22 3260.7C4030.33 3260.7 4030.88 3261.22 4030.88 3262.28V3436.13C4030.87 3436.82 4030.72 3437.51 4030.43 3438.14C4030.14 3438.78 4029.72 3439.34 4029.19 3439.8C4028.67 3440.25 4028.05 3440.59 4027.38 3440.79C4026.72 3440.99 4026.02 3441.04 4025.33 3440.95C4023.3 3440.64 4021.21 3440.58 4019.05 3440.75C4016.01 3441.02 4013.54 3439.94 4011.65 3437.51C3974.42 3390.6 3938.76 3345.58 3904.67 3302.46C3904.48 3302.19 3904.22 3302 3903.92 3301.9C3903.62 3301.81 3903.29 3301.81 3902.99 3301.91C3902.69 3302.02 3902.44 3302.22 3902.26 3302.48C3902.09 3302.75 3902 3303.06 3902.02 3303.38Z" fill="#3D3D3D"/>
<path d="M4214.24 3280.98V3438.44C4214.24 3439.02 4214.01 3439.57 4213.6 3439.98C4213.19 3440.39 4212.64 3440.62 4212.06 3440.62L4194.94 3440.69C4194.37 3440.69 4193.81 3440.46 4193.4 3440.05C4192.99 3439.64 4192.76 3439.08 4192.76 3438.51V3280.98C4192.76 3280.4 4192.53 3279.85 4192.12 3279.44C4191.72 3279.03 4191.16 3278.8 4190.58 3278.8H4133.89C4133.31 3278.8 4132.75 3278.57 4132.35 3278.16C4131.94 3277.75 4131.71 3277.2 4131.71 3276.62L4131.64 3262.81C4131.64 3262.23 4131.87 3261.68 4132.28 3261.27C4132.69 3260.86 4133.24 3260.63 4133.82 3260.63H4274.9C4275.19 3260.63 4275.47 3260.69 4275.73 3260.79C4276 3260.9 4276.24 3261.07 4276.44 3261.27C4276.64 3261.47 4276.8 3261.71 4276.91 3261.97C4277.02 3262.24 4277.08 3262.52 4277.08 3262.81L4276.88 3276.62C4276.88 3276.91 4276.83 3277.19 4276.72 3277.45C4276.61 3277.72 4276.45 3277.96 4276.24 3278.16C4276.04 3278.36 4275.8 3278.52 4275.54 3278.63C4275.27 3278.74 4274.99 3278.8 4274.7 3278.8H4216.42C4216.13 3278.8 4215.85 3278.86 4215.59 3278.97C4215.32 3279.08 4215.08 3279.24 4214.88 3279.44C4214.68 3279.64 4214.51 3279.88 4214.41 3280.15C4214.3 3280.41 4214.24 3280.69 4214.24 3280.98Z" fill="#3D3D3D"/>
</svg>
