<svg width="3602" height="1399" viewBox="0 0 3602 1399" fill="none" xmlns="http://www.w3.org/2000/svg">
<g clip-path="url(#clip0_1760_2)">
<path d="M3003.66 557.833L3441.22 555.536C3442.37 555.536 3443.47 555.991 3444.28 556.802C3445.09 557.613 3445.55 558.713 3445.55 559.86L3445.28 777.683C3445.28 778.83 3444.82 779.93 3444.01 780.741C3443.2 781.552 3442.1 782.007 3440.95 782.007L3002.58 784.304C3001.45 784.34 3000.39 784.811 2999.6 785.618C2998.82 786.425 2998.38 787.505 2998.38 788.628L3003.25 1063.34C3003.25 1063.92 3003.37 1064.49 3003.59 1065.03C3003.82 1065.56 3004.15 1066.04 3004.57 1066.45C3004.98 1066.85 3005.47 1067.17 3006.01 1067.37C3006.56 1067.58 3007.13 1067.68 3007.71 1067.66L3494.35 1066.31C3495.47 1066.31 3496.55 1066.75 3497.36 1067.53C3498.17 1068.31 3498.64 1069.38 3498.67 1070.5L3503 1288.87C3503 1289.99 3502.56 1291.07 3501.78 1291.88C3501 1292.68 3499.93 1293.15 3498.81 1293.19L2729.52 1299C2728.37 1299 2727.27 1298.54 2726.46 1297.73C2725.65 1296.92 2725.19 1295.82 2725.19 1294.68L2716 88.4047C2716 87.2579 2716.46 86.1581 2717.27 85.3472C2718.08 84.5362 2719.18 84.0807 2720.33 84.0807L3464.74 78C3465.89 78 3466.99 78.4556 3467.8 79.2665C3468.62 80.0774 3469.07 81.1772 3469.07 82.324V301.769C3469.07 302.916 3468.62 304.016 3467.8 304.826C3466.99 305.637 3465.89 306.093 3464.74 306.093L2999.2 310.552C2998.07 310.587 2997.01 311.058 2996.22 311.865C2995.44 312.673 2995 313.752 2995.01 314.876L2999.2 553.509C2999.2 554.088 2999.31 554.662 2999.54 555.195C2999.76 555.729 3000.09 556.212 3000.51 556.615C3000.93 557.019 3001.42 557.334 3001.96 557.543C3002.5 557.753 3003.08 557.851 3003.66 557.833Z" fill="#831420"/>
<path d="M1239.84 1305.32C1233.44 1304.51 1230.2 1300.91 1230.11 1294.51L1222 117.854C1221.98 115.74 1222.71 113.687 1224.08 112.073C1225.44 110.459 1227.35 109.391 1229.43 109.066C1388.66 85.0905 1553.08 77.6545 1722.67 86.758C2058.29 104.875 2293.62 299.564 2300.79 648.383C2305.65 881.604 2227.26 1101.98 2020.58 1216.36C1927.04 1268.19 1818.73 1299.92 1695.63 1311.54C1543.25 1325.96 1391.32 1323.89 1239.84 1305.32ZM1786.33 1069.8C1912.18 1018.02 1981.65 908.915 2000.17 775.742C2016.12 660.28 2007.47 538.735 1943.26 440.173C1853.78 302.403 1661.17 277.121 1511.26 305.784C1505.86 306.775 1503.11 310.065 1503.02 315.653C1500.18 572.535 1510.05 831.715 1504.78 1089.54C1504.69 1095.94 1507.79 1099.32 1514.1 1099.68C1606.83 1105.5 1700.23 1105.09 1786.33 1069.8Z" fill="#831420"/>
<path d="M2611.89 84.1176L2344.3 85.9857C2341.31 86.0065 2338.91 88.4437 2338.93 91.4293L2347.34 1296.11C2347.36 1299.1 2349.8 1301.5 2352.78 1301.48L2620.38 1299.61C2623.36 1299.59 2625.77 1297.15 2625.74 1294.17L2617.33 89.4856C2617.31 86.5001 2614.88 84.0967 2611.89 84.1176Z" fill="#831420"/>
<path d="M467.499 1007.17L385.453 1313.81C385.163 1314.85 384.545 1315.76 383.693 1316.42C382.841 1317.08 381.799 1317.44 380.723 1317.46L103.092 1318C102.301 1318.01 101.517 1317.84 100.805 1317.49C100.094 1317.14 99.4753 1316.63 99.0002 1316C98.5251 1315.37 98.2072 1314.63 98.0727 1313.85C97.9382 1313.07 97.9908 1312.27 98.2264 1311.51L457.902 104.027C458.217 103.016 458.845 102.131 459.695 101.5C460.545 100.868 461.574 100.523 462.633 100.514L817.983 97C819.042 97.0094 820.071 97.3547 820.921 97.9861C821.772 98.6176 822.399 99.5026 822.714 100.514L1205.77 1304.35C1206.01 1305.11 1206.06 1305.91 1205.93 1306.69C1205.79 1307.47 1205.47 1308.2 1205 1308.84C1204.52 1309.47 1203.91 1309.98 1203.19 1310.33C1202.48 1310.68 1201.7 1310.85 1200.91 1310.84L911.653 1311.11C910.594 1311.1 909.565 1310.75 908.715 1310.12C907.865 1309.49 907.237 1308.6 906.922 1307.59L814.064 1007.04C813.749 1006.03 813.121 1005.14 812.271 1004.51C811.421 1003.88 810.392 1003.54 809.333 1003.53H472.23C471.153 1003.54 470.112 1003.91 469.259 1004.57C468.407 1005.22 467.79 1006.14 467.499 1007.17ZM626.454 324.577C594.014 482.963 551.572 633.51 509.941 788.382C509.579 789.762 509.575 791.214 509.931 792.595C510.287 793.977 510.99 795.241 511.971 796.262C512.953 797.284 514.178 798.029 515.528 798.425C516.878 798.82 518.307 798.852 519.673 798.517C528.864 796.355 537.695 795.184 546.165 795.003C615.01 793.652 686.783 793.472 761.484 794.463C762.682 794.477 763.867 794.206 764.94 793.673C766.013 793.14 766.944 792.359 767.657 791.396C768.369 790.433 768.843 789.314 769.039 788.132C769.235 786.951 769.147 785.739 768.783 784.598C716.97 622.699 672.41 469.314 635.104 324.442C631.86 311.829 628.977 311.874 626.454 324.577Z" fill="#831420"/>
</g>
<defs>
<clipPath id="clip0_1760_2">
<rect width="3602" height="1399" fill="white"/>
</clipPath>
</defs>
</svg>
