<svg width="3298" height="2025" viewBox="0 0 3298 2025" fill="none" xmlns="http://www.w3.org/2000/svg">
<path d="M1649.19 275.805C1649.44 275.787 1649.67 275.675 1649.84 275.492C1650 275.308 1650.09 275.068 1650.09 274.82L1649.98 268.758C1649.97 267.929 1649.56 267.52 1648.74 267.532L1636.98 267.618C1636.78 267.621 1636.58 267.582 1636.39 267.505C1636.21 267.428 1636.04 267.314 1635.9 267.17C1635.76 267.026 1635.65 266.856 1635.58 266.668C1635.51 266.481 1635.48 266.281 1635.49 266.081L1635.73 261.142C1635.77 260.451 1636.13 260.1 1636.82 260.088L1637.52 260.071C1638.44 260.059 1638.89 260.508 1638.87 261.418L1638.8 264.596C1638.8 264.732 1638.82 264.867 1638.87 264.994C1638.92 265.12 1638.99 265.236 1639.08 265.334C1639.18 265.432 1639.29 265.51 1639.41 265.564C1639.54 265.618 1639.67 265.647 1639.8 265.649L1648.74 265.822C1649.52 265.834 1649.93 265.448 1649.95 264.665C1650.19 257.285 1649.93 249.248 1649.15 240.555C1649.06 239.496 1649.55 238.978 1650.61 239.001L1651.3 239.018C1651.52 239.023 1651.73 239.074 1651.93 239.167C1652.12 239.26 1652.3 239.394 1652.44 239.558C1652.58 239.723 1652.68 239.915 1652.74 240.123C1652.8 240.33 1652.82 240.548 1652.79 240.762C1651.69 248.764 1651.44 256.738 1652.03 264.682C1652.05 264.968 1652.18 265.233 1652.39 265.428C1652.6 265.623 1652.87 265.732 1653.15 265.736L1660.91 265.839C1661.57 265.851 1662.09 265.592 1662.47 265.062C1663.14 264.13 1663.3 262.921 1662.96 261.435C1662.92 261.282 1662.92 261.121 1662.95 260.966C1662.99 260.812 1663.06 260.668 1663.16 260.545C1663.26 260.423 1663.39 260.326 1663.53 260.261C1663.68 260.197 1663.84 260.167 1664 260.175L1664.48 260.192C1665.53 260.226 1666.06 260.768 1666.07 261.815L1666.09 266.202C1666.09 267.077 1665.66 267.515 1664.79 267.515L1653.48 267.584C1652.36 267.584 1651.8 268.148 1651.8 269.276L1651.84 274.112C1651.85 275.356 1652.47 276.006 1653.71 276.064C1660.96 276.421 1667.54 278.159 1673.45 281.279C1691.54 290.836 1701.39 306.581 1703 328.515C1703.01 328.705 1702.99 328.896 1702.92 329.075C1702.86 329.255 1702.76 329.42 1702.63 329.559C1702.5 329.699 1702.34 329.81 1702.17 329.886C1701.99 329.962 1701.8 330.001 1701.61 330H1599.85C1599.74 330 1599.62 329.978 1599.52 329.934C1599.42 329.89 1599.32 329.826 1599.24 329.746C1599.16 329.666 1599.1 329.57 1599.06 329.466C1599.02 329.361 1599 329.249 1599 329.136C1599.59 300.45 1620.15 277.929 1649.19 275.805Z" fill="#003777"/>
<path d="M1718.06 336H1583.94C1582.87 336 1582 336.88 1582 337.965V344.035C1582 345.12 1582.87 346 1583.94 346H1718.06C1719.13 346 1720 345.12 1720 344.035V337.965C1720 336.88 1719.13 336 1718.06 336Z" fill="#003777"/>
<path d="M1624.28 352H1610.72C1608.67 352 1607 353.666 1607 355.721V425.279C1607 427.334 1608.67 429 1610.72 429H1624.28C1626.33 429 1628 427.334 1628 425.279V355.721C1628 353.666 1626.33 352 1624.28 352Z" fill="#003777"/>
<path d="M1658.2 352H1644.8C1642.7 352 1641 353.705 1641 355.807V425.193C1641 427.295 1642.7 429 1644.8 429H1658.2C1660.3 429 1662 427.295 1662 425.193V355.807C1662 353.705 1660.3 352 1658.2 352Z" fill="#003777"/>
<path d="M1692.2 352H1677.81C1675.7 352 1674 353.621 1674 355.62V425.38C1674 427.379 1675.7 429 1677.81 429H1692.2C1694.3 429 1696 427.379 1696 425.38V355.62C1696 353.621 1694.3 352 1692.2 352Z" fill="#003777"/>
<path d="M1718.06 437H1583.94C1582.87 437 1582 437.874 1582 438.951V445.049C1582 446.126 1582.87 447 1583.94 447H1718.06C1719.13 447 1720 446.126 1720 445.049V438.951C1720 437.874 1719.13 437 1718.06 437Z" fill="#003777"/>
<path d="M1784.38 468.605C1906.28 529.353 1985.85 649.278 1991 785.691C1991.01 785.89 1990.94 786.084 1990.81 786.237C1990.67 786.39 1990.49 786.491 1990.29 786.52C1988.67 786.762 1987.06 786.889 1985.45 786.9C1969.19 787.039 1954.09 787.033 1940.13 786.883C1939.88 786.879 1939.63 786.779 1939.44 786.6C1939.25 786.421 1939.14 786.178 1939.11 785.915C1936.77 759.116 1933.27 735.214 1928.58 714.209C1920.57 678.192 1908.51 643.857 1892.41 611.204C1887.58 601.422 1881.92 590.834 1875.41 579.439C1858.82 550.381 1838.01 523.748 1812.99 499.541C1795.82 482.915 1778.57 469.371 1761.24 458.909C1759.52 457.872 1759.59 457.722 1761.45 458.46C1769.76 461.743 1777.41 465.125 1784.38 468.605Z" fill="#003777"/>
<path d="M1413.75 604.346C1392.19 646.842 1377.59 691.085 1369.94 737.074C1367.18 753.629 1365.14 769.96 1363.8 786.066C1363.78 786.32 1363.67 786.558 1363.48 786.732C1363.29 786.905 1363.04 787.001 1362.78 787L1313.52 786.914C1313.32 786.914 1313.11 786.872 1312.92 786.791C1312.73 786.71 1312.56 786.591 1312.42 786.442C1312.27 786.294 1312.16 786.117 1312.09 785.925C1312.02 785.732 1311.99 785.527 1312 785.323C1315.74 706.81 1341.15 636.685 1388.23 574.947C1426.68 524.502 1481.1 481.805 1540.42 458.493C1542.44 457.698 1542.52 457.865 1540.68 458.995C1507.43 479.332 1478.11 508.039 1454.22 538.942C1440.09 557.216 1426.6 579.017 1413.75 604.346Z" fill="#003777"/>
<path d="M1559.82 509.659C1525.9 563.302 1504.23 622.113 1494.25 684.933C1489.09 717.411 1486.6 751.1 1486.77 785.998C1486.77 786.263 1486.67 786.518 1486.48 786.706C1486.29 786.894 1486.03 787 1485.77 787L1397.78 786.689C1397.67 786.69 1397.56 786.667 1397.46 786.623C1397.36 786.578 1397.27 786.513 1397.2 786.431C1397.13 786.35 1397.07 786.254 1397.04 786.149C1397 786.044 1396.99 785.934 1397 785.825C1398.57 768.6 1400.51 752.943 1402.82 738.852C1410.46 692.41 1424.77 650.49 1445.76 613.092C1451.56 602.745 1457.68 592.515 1464.11 582.399C1493.25 536.584 1534.31 496.196 1583.22 472.607C1585.71 471.408 1588.15 470.325 1590.54 469.358C1592.26 468.666 1592.46 468.977 1591.15 470.291C1579.35 482.169 1568.9 495.292 1559.82 509.659Z" fill="#003777"/>
<path d="M1810.87 699.895C1801.89 631.337 1779.79 568.087 1743.81 510.921C1734.67 496.412 1724.12 483.021 1712.16 470.748C1710.38 468.916 1710.65 468.524 1712.98 469.573C1764.82 493.116 1807.98 534.033 1838.57 582.037C1844.16 590.795 1849.73 600.009 1855.28 609.678C1886.52 664.129 1900.82 723.542 1905.99 785.928C1906.04 786.458 1905.8 786.723 1905.27 786.723L1817.61 787C1816.66 787 1816.18 786.522 1816.2 785.565C1816.34 756.766 1814.57 728.209 1810.87 699.895Z" fill="#003777"/>
<path d="M1529.01 682.051C1542.85 606.15 1574.55 526.471 1632.95 475.16C1633.05 475.079 1633.16 475.026 1633.28 475.008C1633.4 474.989 1633.53 475.005 1633.64 475.055C1633.75 475.104 1633.84 475.185 1633.9 475.287C1633.97 475.388 1634 475.507 1634 475.628L1633.98 786.267C1633.98 786.595 1633.85 786.91 1633.63 787.143C1633.4 787.377 1633.09 787.51 1632.76 787.515L1521.55 788C1521.14 788 1520.76 787.84 1520.47 787.554C1520.19 787.269 1520.02 786.881 1520.02 786.475C1519.73 751.413 1522.73 716.605 1529.01 682.051Z" fill="#003777"/>
<path d="M1744.84 583.187C1771.41 645.839 1783.02 715.581 1783 786.256C1783 786.763 1782.75 787.011 1782.26 787L1670.18 786.671C1669.87 786.667 1669.58 786.541 1669.36 786.321C1669.14 786.101 1669.02 785.804 1669.02 785.495L1669 475.955C1669 474.906 1669.39 474.721 1670.18 475.401C1703.06 503.295 1727.67 542.705 1744.84 583.187Z" fill="#003777"/>
<path d="M1524.32 811.99L1629.91 812.06C1630.18 812.06 1630.45 812.005 1630.71 811.899C1630.96 811.792 1631.19 811.636 1631.39 811.439C1631.58 811.242 1631.74 811.008 1631.84 810.75C1631.95 810.493 1632 810.217 1632 809.939L1632.05 799.156C1632.06 798.6 1632.28 798.067 1632.67 797.674C1633.06 797.28 1633.58 797.057 1634.13 797.053L1668.19 797C1668.75 797 1669.28 797.221 1669.67 797.615C1670.06 798.009 1670.28 798.544 1670.29 799.104L1670.41 809.904C1670.41 810.463 1670.64 810.998 1671.03 811.392C1671.42 811.786 1671.95 812.007 1672.5 812.007L1778.4 812.06C1778.95 812.06 1779.48 811.839 1779.88 811.445C1780.27 811.051 1780.49 810.516 1780.5 809.956L1780.53 799.174C1780.53 798.614 1780.76 798.079 1781.15 797.685C1781.54 797.291 1782.07 797.07 1782.62 797.07L1816.65 797C1817.21 797 1817.74 797.221 1818.13 797.615C1818.52 798.009 1818.74 798.544 1818.75 799.104L1818.85 809.939C1818.86 810.498 1819.08 811.033 1819.47 811.427C1819.86 811.821 1820.39 812.043 1820.95 812.042L1900.79 812.025C1901.07 812.025 1901.34 811.969 1901.6 811.862C1901.85 811.754 1902.09 811.596 1902.28 811.397C1902.48 811.199 1902.63 810.963 1902.73 810.703C1902.84 810.444 1902.89 810.166 1902.89 809.886L1902.84 799.209C1902.83 798.929 1902.89 798.651 1902.99 798.392C1903.09 798.132 1903.25 797.897 1903.44 797.698C1903.64 797.499 1903.87 797.341 1904.12 797.233C1904.38 797.126 1904.65 797.07 1904.93 797.07L1939.03 797.053C1939.58 797.053 1940.11 797.274 1940.5 797.668C1940.9 798.062 1941.12 798.597 1941.12 799.156L1941.18 809.956C1941.18 810.516 1941.4 811.051 1941.79 811.445C1942.19 811.839 1942.72 812.06 1943.27 812.06L2008.91 812.025C2009.18 812.025 2009.46 812.081 2009.71 812.19C2009.97 812.299 2010.2 812.458 2010.4 812.659C2010.59 812.859 2010.75 813.097 2010.85 813.359C2010.95 813.62 2011 813.9 2011 814.181L2010.91 820.914C2010.9 821.47 2010.68 822.001 2010.29 822.391C2009.9 822.781 2009.37 823 2008.82 823H1294.13C1293.57 823 1293.04 822.776 1292.65 822.379C1292.26 821.981 1292.03 821.441 1292.03 820.879L1292 814.146C1292 813.865 1292.05 813.586 1292.16 813.325C1292.26 813.065 1292.42 812.828 1292.61 812.629C1292.81 812.43 1293.04 812.272 1293.3 812.165C1293.56 812.059 1293.83 812.005 1294.11 812.007L1359.21 812.077C1359.49 812.08 1359.76 812.027 1360.02 811.921C1360.27 811.816 1360.51 811.66 1360.7 811.462C1360.9 811.265 1361.06 811.031 1361.16 810.772C1361.27 810.513 1361.32 810.236 1361.32 809.956L1361.36 799.174C1361.36 798.614 1361.58 798.079 1361.98 797.685C1362.37 797.291 1362.9 797.07 1363.45 797.07L1397.62 797C1398.18 797 1398.71 797.224 1399.1 797.621C1399.49 798.019 1399.71 798.559 1399.71 799.121V809.921C1399.71 810.484 1399.93 811.023 1400.33 811.421C1400.72 811.819 1401.25 812.042 1401.81 812.042H1481.79C1482.35 812.042 1482.88 811.819 1483.27 811.421C1483.67 811.023 1483.89 810.484 1483.89 809.921L1483.84 799.156C1483.83 798.875 1483.89 798.596 1483.99 798.335C1484.1 798.075 1484.25 797.838 1484.45 797.639C1484.65 797.44 1484.88 797.282 1485.14 797.176C1485.39 797.069 1485.67 797.015 1485.95 797.018L1520.1 797.053C1520.65 797.053 1521.19 797.276 1521.58 797.674C1521.97 798.072 1522.19 798.611 1522.19 799.174L1522.23 809.869C1522.23 810.431 1522.45 810.971 1522.84 811.369C1523.23 811.766 1523.77 811.99 1524.32 811.99Z" fill="#003777"/>
<path d="M1396.42 834.357L1365.26 834.412C1363.24 834.415 1361.61 836.052 1361.62 838.067L1361.67 869.264C1361.67 871.279 1363.31 872.91 1365.33 872.906L1396.49 872.852C1398.51 872.848 1400.14 871.212 1400.13 869.197L1400.08 838C1400.08 835.984 1398.44 834.354 1396.42 834.357Z" fill="#003777"/>
<path d="M1518.34 834H1487.66C1485.64 834 1484 835.679 1484 837.749V869.251C1484 871.321 1485.64 873 1487.66 873H1518.34C1520.36 873 1522 871.321 1522 869.251V837.749C1522 835.679 1520.36 834 1518.34 834Z" fill="#003777"/>
<path d="M1666.4 834H1635.6C1633.61 834 1632 835.655 1632 837.697V869.303C1632 871.345 1633.61 873 1635.6 873H1666.4C1668.39 873 1670 871.345 1670 869.303V837.697C1670 835.655 1668.39 834 1666.4 834Z" fill="#003777"/>
<path d="M1815.21 834H1783.79C1781.7 834 1780 835.696 1780 837.788V869.212C1780 871.304 1781.7 873 1783.79 873H1815.21C1817.3 873 1819 871.304 1819 869.212V837.788C1819 835.696 1817.3 834 1815.21 834Z" fill="#003777"/>
<path d="M1937.27 834.447L1906.28 834.393C1904.22 834.39 1902.54 836.059 1902.54 838.122L1902.49 869.111C1902.48 871.174 1904.15 872.85 1906.22 872.853L1937.21 872.907C1939.27 872.911 1940.95 871.241 1940.95 869.179L1941 838.189C1941.01 836.126 1939.34 834.451 1937.27 834.447Z" fill="#003777"/>
<path d="M2007.16 882H1295.84C1293.72 882 1292 883.73 1292 885.865V903.135C1292 905.27 1293.72 907 1295.84 907H2007.16C2009.28 907 2011 905.27 2011 903.135V885.865C2011 883.73 2009.28 882 2007.16 882Z" fill="#003777"/>
<path d="M1007.97 1067.78L981.293 1067.73C980.731 1067.73 980.45 1067.44 980.45 1066.86L980.416 1058.5C980.404 1057.93 980.685 1057.65 981.259 1057.65L1018.71 1057.54C1019.56 1057.54 1019.98 1057.97 1019.98 1058.83C1019.96 1069.96 1019.97 1081.79 1020 1094.33C1020.02 1096.87 1018.06 1098.28 1016.2 1099.6C996.129 1113.75 968.162 1115.76 949.54 1099.75C928.423 1081.57 927.425 1045.41 947.131 1025.26C964.909 1007.06 996.267 1006.19 1015.66 1023.17C1016.42 1023.84 1016.47 1024.55 1015.82 1025.31L1010.69 1031.35C1010.53 1031.53 1010.34 1031.68 1010.12 1031.79C1009.91 1031.9 1009.67 1031.96 1009.43 1031.97C1009.19 1031.99 1008.95 1031.95 1008.72 1031.87C1008.49 1031.79 1008.29 1031.67 1008.11 1031.5C1003.19 1027.01 998.011 1024.15 992.583 1022.95C971.598 1018.28 956.694 1025.31 947.871 1044.05C943.138 1054.12 943.603 1068.53 948.026 1079.03C958.163 1103 985.613 1106.08 1006.16 1093.81C1007.88 1092.76 1009.59 1091.62 1009.52 1089.32C1009.32 1082.77 1009.31 1076.12 1009.48 1069.37C1009.51 1068.31 1009 1067.78 1007.97 1067.78Z" fill="#003777"/>
<path d="M1098.99 1110.71C1085.94 1109.27 1074.01 1102.66 1065.82 1092.33C1057.63 1081.99 1053.85 1068.78 1055.31 1055.59C1056.03 1049.07 1058.02 1042.74 1061.16 1036.98C1064.3 1031.22 1068.53 1026.14 1073.61 1022.03C1078.69 1017.92 1084.52 1014.85 1090.77 1013.01C1097.01 1011.17 1103.55 1010.58 1110.01 1011.29C1123.06 1012.73 1134.99 1019.34 1143.18 1029.67C1151.37 1040.01 1155.15 1053.22 1153.69 1066.41C1152.97 1072.93 1150.98 1079.26 1147.84 1085.02C1144.7 1090.78 1140.47 1095.86 1135.39 1099.97C1130.31 1104.08 1124.48 1107.15 1118.23 1108.99C1111.99 1110.83 1105.45 1111.42 1098.99 1110.71ZM1106.15 1100.57C1116.18 1100.15 1125.62 1095.58 1132.4 1087.86C1139.18 1080.15 1142.74 1069.92 1142.3 1059.42C1141.86 1048.93 1137.45 1039.03 1130.05 1031.91C1122.64 1024.78 1112.85 1021.01 1102.82 1021.43C1092.79 1021.85 1083.34 1026.42 1076.56 1034.14C1069.78 1041.85 1066.22 1052.08 1066.66 1062.58C1067.1 1073.07 1071.51 1082.97 1078.92 1090.09C1086.32 1097.22 1096.12 1100.99 1106.15 1100.57Z" fill="#003777"/>
<path d="M1746.2 1110.67C1733.3 1109.14 1721.53 1102.45 1713.49 1092.05C1705.46 1081.66 1701.81 1068.42 1703.34 1055.25C1704.88 1042.08 1711.48 1030.05 1721.7 1021.81C1731.91 1013.58 1744.9 1009.81 1757.8 1011.33C1770.7 1012.86 1782.47 1019.55 1790.51 1029.95C1798.54 1040.34 1802.19 1053.58 1800.66 1066.75C1799.12 1079.92 1792.52 1091.95 1782.3 1100.19C1772.09 1108.42 1759.1 1112.19 1746.2 1110.67ZM1753.67 1100.62C1763.59 1100.2 1772.94 1095.62 1779.64 1087.9C1786.35 1080.18 1789.87 1069.94 1789.44 1059.44C1789 1048.94 1784.64 1039.03 1777.31 1031.9C1769.98 1024.77 1760.29 1021 1750.37 1021.42C1740.44 1021.84 1731.1 1026.41 1724.39 1034.13C1717.68 1041.85 1714.16 1052.09 1714.6 1062.6C1715.04 1073.1 1719.4 1083 1726.72 1090.13C1734.05 1097.26 1743.74 1101.03 1753.67 1100.62Z" fill="#003777"/>
<path d="M2348.58 1083.46H2298.01C2297.83 1083.46 2297.65 1083.52 2297.5 1083.62C2297.35 1083.71 2297.23 1083.85 2297.16 1084.02L2286.21 1108.39C2286.13 1108.56 2286.01 1108.7 2285.86 1108.8C2285.71 1108.89 2285.54 1108.95 2285.36 1108.95L2275.93 1109C2275.77 1109 2275.62 1108.96 2275.48 1108.88C2275.35 1108.81 2275.23 1108.7 2275.15 1108.57C2275.06 1108.44 2275.01 1108.29 2275 1108.14C2274.99 1107.98 2275.02 1107.82 2275.08 1107.68L2318.06 1012.55C2318.13 1012.39 2318.25 1012.25 2318.4 1012.15C2318.55 1012.05 2318.73 1012 2318.91 1012L2328.08 1012.03C2328.26 1012.04 2328.43 1012.09 2328.58 1012.19C2328.73 1012.29 2328.85 1012.43 2328.92 1012.59L2371.92 1107.68C2371.98 1107.83 2372.01 1107.98 2372 1108.14C2371.98 1108.3 2371.93 1108.45 2371.85 1108.58C2371.76 1108.71 2371.64 1108.82 2371.5 1108.89C2371.37 1108.96 2371.21 1109 2371.05 1109L2361.02 1108.86C2360.84 1108.86 2360.66 1108.81 2360.51 1108.71C2360.36 1108.61 2360.24 1108.47 2360.17 1108.31L2349.43 1084.02C2349.35 1083.85 2349.23 1083.71 2349.08 1083.62C2348.93 1083.52 2348.76 1083.46 2348.58 1083.46ZM2302.19 1072.58C2302.15 1072.68 2302.13 1072.8 2302.14 1072.91C2302.15 1073.03 2302.19 1073.14 2302.25 1073.23C2302.31 1073.33 2302.4 1073.41 2302.5 1073.46C2302.6 1073.52 2302.72 1073.55 2302.83 1073.55H2343.8C2343.92 1073.55 2344.03 1073.52 2344.13 1073.46C2344.24 1073.41 2344.32 1073.33 2344.39 1073.23C2344.45 1073.14 2344.49 1073.03 2344.5 1072.91C2344.51 1072.8 2344.49 1072.68 2344.44 1072.58L2323.96 1026.65C2323.91 1026.52 2323.82 1026.41 2323.7 1026.34C2323.59 1026.26 2323.46 1026.22 2323.32 1026.22C2323.18 1026.22 2323.05 1026.26 2322.93 1026.34C2322.82 1026.41 2322.73 1026.52 2322.68 1026.65L2302.19 1072.58Z" fill="#003777"/>
<path d="M1316.93 1013H1308.07C1307.48 1013 1307 1013.48 1307 1014.07V1107.93C1307 1108.52 1307.48 1109 1308.07 1109H1316.93C1317.52 1109 1318 1108.52 1318 1107.93V1014.07C1318 1013.48 1317.52 1013 1316.93 1013Z" fill="#003777"/>
<path d="M1593.89 1032.56L1593.91 1108.07C1593.91 1108.29 1593.82 1108.5 1593.66 1108.66C1593.5 1108.81 1593.28 1108.9 1593.05 1108.9L1584.27 1108.94C1583.94 1108.94 1583.61 1108.8 1583.37 1108.56C1583.13 1108.32 1583 1108 1583 1107.66V1014.43C1583 1013.51 1583.47 1013.06 1584.4 1013.07L1592.28 1013.21C1593.11 1013.22 1593.78 1013.55 1594.29 1014.19L1652.82 1087.84C1653.67 1088.9 1654.09 1088.75 1654.09 1087.39L1654.08 1013.69C1654.08 1013.58 1654.12 1013.47 1654.2 1013.39C1654.29 1013.3 1654.4 1013.26 1654.51 1013.26L1664.46 1013C1664.82 1012.99 1665 1013.16 1665 1013.52L1664.97 1107.61C1664.97 1108.45 1664.55 1108.87 1663.71 1108.88C1660.71 1108.95 1656.54 1109.59 1654.41 1106.93C1633.8 1081.11 1613.98 1056.2 1594.94 1032.22C1594.24 1031.33 1593.89 1031.44 1593.89 1032.56Z" fill="#003777"/>
<path d="M2194.05 1098.78L2246.07 1098.74C2246.19 1098.74 2246.31 1098.77 2246.43 1098.81C2246.54 1098.86 2246.65 1098.93 2246.73 1099.02C2246.82 1099.11 2246.89 1099.21 2246.93 1099.33C2246.98 1099.44 2247 1099.57 2247 1099.69L2246.9 1108.08C2246.89 1108.33 2246.79 1108.56 2246.62 1108.73C2246.44 1108.9 2246.21 1109 2245.96 1109L2182.93 1108.97C2182.81 1108.97 2182.69 1108.94 2182.58 1108.89C2182.46 1108.85 2182.36 1108.78 2182.27 1108.69C2182.19 1108.61 2182.12 1108.5 2182.07 1108.39C2182.02 1108.28 2182 1108.16 2182 1108.03L2182.03 1014.09C2182.03 1013.84 2182.13 1013.61 2182.3 1013.43C2182.47 1013.26 2182.71 1013.16 2182.95 1013.16L2192.1 1013C2192.22 1013 2192.35 1013.02 2192.46 1013.07C2192.58 1013.11 2192.68 1013.18 2192.77 1013.27C2192.86 1013.35 2192.93 1013.46 2192.98 1013.57C2193.02 1013.69 2193.05 1013.81 2193.05 1013.93L2193.12 1097.84C2193.12 1098.09 2193.22 1098.33 2193.39 1098.5C2193.57 1098.68 2193.8 1098.78 2194.05 1098.78Z" fill="#003777"/>
<path d="M1250.73 1058.5C1249.63 1059.1 1249.67 1059.6 1250.86 1059.99C1263.02 1063.96 1270.52 1072.61 1268.74 1086.19C1266.64 1102.32 1251.28 1108.66 1236.61 1108.87C1222.99 1109.04 1208.41 1109.04 1192.88 1108.87C1192.65 1108.87 1192.43 1108.78 1192.27 1108.62C1192.11 1108.46 1192.02 1108.24 1192.02 1108.01L1192 1013.65C1192 1013.28 1192.19 1013.1 1192.57 1013.1C1206.68 1012.97 1220.68 1012.97 1234.55 1013.1C1248.46 1013.22 1263.31 1020.3 1263.74 1036.41C1264 1046.21 1259.67 1053.57 1250.73 1058.5ZM1202.82 1023.88L1202.75 1054.61C1202.75 1054.74 1202.77 1054.86 1202.82 1054.98C1202.86 1055.1 1202.93 1055.21 1203.02 1055.3C1203.11 1055.39 1203.21 1055.46 1203.33 1055.51C1203.44 1055.56 1203.57 1055.58 1203.69 1055.58L1233.5 1055.63C1236 1055.64 1238.47 1055.25 1240.78 1054.48C1243.09 1053.71 1245.19 1052.58 1246.96 1051.15C1248.72 1049.73 1250.13 1048.03 1251.09 1046.17C1252.05 1044.3 1252.54 1042.3 1252.55 1040.28V1038.42C1252.55 1034.34 1250.56 1030.42 1247 1027.53C1243.44 1024.64 1238.61 1023.01 1233.57 1023L1203.76 1022.95C1203.51 1022.95 1203.28 1023.05 1203.1 1023.22C1202.92 1023.39 1202.82 1023.63 1202.82 1023.88ZM1202.75 1067.2L1202.54 1097.2C1202.54 1097.7 1202.74 1098.18 1203.09 1098.53C1203.43 1098.88 1203.9 1099.08 1204.4 1099.09L1235.46 1099.31C1238.4 1099.33 1241.31 1098.94 1244.03 1098.16C1246.75 1097.38 1249.22 1096.22 1251.31 1094.75C1253.4 1093.29 1255.06 1091.54 1256.19 1089.61C1257.33 1087.68 1257.92 1085.61 1257.94 1083.51V1081.65C1257.97 1077.42 1255.64 1073.34 1251.47 1070.32C1247.3 1067.3 1241.63 1065.58 1235.7 1065.54L1204.64 1065.33C1204.39 1065.33 1204.15 1065.37 1203.92 1065.47C1203.69 1065.56 1203.48 1065.7 1203.31 1065.87C1203.13 1066.04 1202.99 1066.25 1202.9 1066.48C1202.8 1066.7 1202.75 1066.95 1202.75 1067.2Z" fill="#003777"/>
<path d="M1372.16 1066.43L1372.11 1097.76C1372.11 1098.02 1372.21 1098.27 1372.4 1098.45C1372.59 1098.64 1372.84 1098.74 1373.1 1098.74L1430.99 1098.79C1431.25 1098.79 1431.5 1098.9 1431.69 1099.08C1431.88 1099.27 1431.98 1099.52 1431.98 1099.78L1432 1107.96C1432 1108.22 1431.89 1108.47 1431.71 1108.66C1431.52 1108.84 1431.27 1108.95 1431 1108.95L1362 1109C1361.87 1109 1361.74 1108.97 1361.62 1108.93C1361.49 1108.88 1361.38 1108.8 1361.29 1108.71C1361.2 1108.62 1361.13 1108.51 1361.08 1108.39C1361.03 1108.27 1361 1108.14 1361 1108.01L1361.04 1013.99C1361.04 1013.72 1361.14 1013.47 1361.33 1013.29C1361.51 1013.1 1361.77 1013 1362.03 1013L1430.51 1013.02C1430.78 1013.02 1431.03 1013.12 1431.22 1013.31C1431.41 1013.49 1431.51 1013.74 1431.51 1014L1431.49 1022.01C1431.49 1022.14 1431.47 1022.27 1431.42 1022.39C1431.37 1022.51 1431.29 1022.62 1431.2 1022.71C1431.11 1022.8 1431 1022.87 1430.88 1022.92C1430.76 1022.97 1430.63 1023 1430.5 1023L1373.07 1023.03C1372.81 1023.03 1372.55 1023.14 1372.36 1023.32C1372.18 1023.51 1372.07 1023.76 1372.07 1024.02L1372.14 1054.44C1372.14 1054.57 1372.17 1054.7 1372.22 1054.82C1372.27 1054.94 1372.34 1055.05 1372.43 1055.14C1372.53 1055.23 1372.64 1055.31 1372.76 1055.36C1372.88 1055.4 1373.01 1055.43 1373.14 1055.43H1424.08C1424.21 1055.43 1424.34 1055.46 1424.46 1055.51C1424.58 1055.56 1424.69 1055.63 1424.79 1055.73C1424.88 1055.82 1424.95 1055.93 1425 1056.05C1425.05 1056.17 1425.08 1056.3 1425.07 1056.43L1424.95 1064.53C1424.95 1064.79 1424.84 1065.03 1424.65 1065.21C1424.47 1065.4 1424.22 1065.5 1423.95 1065.5L1373.16 1065.45C1372.89 1065.45 1372.64 1065.55 1372.45 1065.73C1372.26 1065.92 1372.16 1066.17 1372.16 1066.43Z" fill="#003777"/>
<path d="M1520.16 1069.72C1519.54 1069.86 1519.42 1070.18 1519.81 1070.69L1547.87 1107.98C1547.94 1108.07 1547.99 1108.17 1548 1108.28C1548.01 1108.39 1547.99 1108.5 1547.94 1108.6C1547.89 1108.7 1547.82 1108.79 1547.72 1108.84C1547.63 1108.9 1547.52 1108.93 1547.41 1108.93L1536.76 1108.98C1536.15 1108.99 1535.54 1108.85 1535 1108.57C1534.46 1108.3 1533.99 1107.9 1533.63 1107.41L1508.8 1073.9C1508.33 1073.27 1507.73 1072.76 1507.03 1072.4C1506.33 1072.05 1505.56 1071.86 1504.77 1071.86L1481.02 1071.83C1480.39 1071.83 1480.08 1072.14 1480.08 1072.76L1480.1 1107.77C1480.1 1108.59 1479.69 1109 1478.87 1109L1470.66 1108.97C1469.55 1108.97 1469 1108.41 1469 1107.31V1014.37C1469 1014.04 1469.13 1013.72 1469.37 1013.48C1469.61 1013.24 1469.94 1013.1 1470.28 1013.1C1485.34 1012.97 1500.17 1012.97 1514.77 1013.1C1517.75 1013.12 1521.13 1013.78 1524.91 1015.07C1537.94 1019.48 1544.65 1028.19 1545.06 1041.19C1545.54 1056.98 1534.65 1066.55 1520.16 1069.72ZM1480.07 1024.28L1480.13 1060.8C1480.13 1061.07 1480.24 1061.33 1480.43 1061.52C1480.62 1061.71 1480.88 1061.82 1481.15 1061.82L1511.53 1061.77C1514.45 1061.76 1517.34 1061.28 1520.04 1060.36C1522.74 1059.44 1525.19 1058.08 1527.25 1056.38C1529.31 1054.68 1530.94 1052.67 1532.06 1050.45C1533.17 1048.23 1533.74 1045.85 1533.73 1043.46V1041.42C1533.72 1036.57 1531.37 1031.94 1527.19 1028.52C1523.01 1025.11 1517.36 1023.2 1511.46 1023.21L1481.09 1023.26C1480.81 1023.26 1480.56 1023.37 1480.36 1023.56C1480.17 1023.75 1480.07 1024.01 1480.07 1024.28Z" fill="#003777"/>
<path d="M1896 1013.54C1896 1013.39 1896.06 1013.26 1896.16 1013.16C1896.26 1013.06 1896.39 1013 1896.53 1013H1931.53C1944.39 1013 1956.71 1017.92 1965.8 1026.69C1974.89 1035.45 1980 1047.34 1980 1059.74V1062.26C1980 1074.66 1974.89 1086.55 1965.8 1095.31C1956.71 1104.08 1944.39 1109 1931.53 1109H1896.53C1896.39 1109 1896.26 1108.94 1896.16 1108.84C1896.06 1108.74 1896 1108.61 1896 1108.46V1013.54ZM1906.91 1024.77L1906.77 1097.55C1906.77 1097.93 1906.92 1098.29 1907.19 1098.56C1907.46 1098.83 1907.82 1098.98 1908.2 1098.98L1930.69 1099.02C1935.67 1099.03 1940.6 1098.08 1945.21 1096.23C1949.81 1094.38 1954 1091.66 1957.52 1088.24C1961.05 1084.81 1963.85 1080.74 1965.77 1076.25C1967.68 1071.77 1968.67 1066.96 1968.68 1062.11V1060.41C1968.7 1050.6 1964.72 1041.19 1957.62 1034.24C1950.52 1027.3 1940.88 1023.38 1930.83 1023.36L1908.34 1023.33C1908.15 1023.33 1907.96 1023.37 1907.79 1023.44C1907.62 1023.51 1907.46 1023.62 1907.33 1023.75C1907.19 1023.88 1907.09 1024.04 1907.02 1024.22C1906.95 1024.39 1906.91 1024.58 1906.91 1024.77Z" fill="#003777"/>
<path d="M2029.05 1066.34L2029.01 1097.85C2029.01 1098.09 2029.11 1098.32 2029.28 1098.5C2029.45 1098.67 2029.69 1098.76 2029.93 1098.76L2087.07 1098.71C2087.31 1098.71 2087.54 1098.81 2087.71 1098.98C2087.89 1099.15 2087.98 1099.39 2087.98 1099.63L2088 1108.08C2088 1108.33 2087.9 1108.56 2087.73 1108.73C2087.56 1108.9 2087.33 1109 2087.09 1109L2018.95 1108.95C2018.83 1108.95 2018.71 1108.92 2018.6 1108.88C2018.49 1108.83 2018.39 1108.76 2018.3 1108.68C2018.22 1108.59 2018.15 1108.49 2018.1 1108.38C2018.06 1108.27 2018.03 1108.15 2018.03 1108.03L2018 1013.93C2018 1013.69 2018.1 1013.46 2018.27 1013.29C2018.44 1013.11 2018.67 1013.02 2018.91 1013.02L2086.38 1013C2086.62 1013 2086.85 1013.1 2087.02 1013.27C2087.2 1013.44 2087.29 1013.67 2087.29 1013.92L2087.27 1022.11C2087.27 1022.36 2087.18 1022.59 2087.01 1022.76C2086.84 1022.93 2086.6 1023.03 2086.36 1023.03H2029.91C2029.67 1023.03 2029.44 1023.13 2029.26 1023.3C2029.09 1023.47 2029 1023.7 2029 1023.95L2029.05 1054.52C2029.05 1054.76 2029.14 1054.99 2029.32 1055.16C2029.49 1055.34 2029.72 1055.43 2029.96 1055.43H2080.35C2080.47 1055.43 2080.59 1055.46 2080.71 1055.5C2080.82 1055.55 2080.92 1055.62 2081.01 1055.71C2081.09 1055.79 2081.16 1055.9 2081.2 1056.01C2081.25 1056.12 2081.27 1056.24 2081.27 1056.37L2081.13 1064.65C2081.12 1064.89 2081.03 1065.12 2080.86 1065.29C2080.68 1065.45 2080.45 1065.55 2080.21 1065.55L2029.96 1065.43C2029.72 1065.43 2029.49 1065.52 2029.32 1065.69C2029.14 1065.87 2029.05 1066.1 2029.05 1066.34Z" fill="#003777"/>
<path d="M656.54 1154.71C660.687 1148.66 670.647 1160.37 672.483 1163.58C672.95 1164.39 673.108 1165.36 672.926 1166.28C672.745 1167.21 672.236 1168.03 671.497 1168.6L647.038 1187.43C646.664 1187.72 646.224 1187.91 645.759 1187.97C645.295 1188.04 644.822 1187.98 644.387 1187.81C641.514 1186.67 637.333 1182.96 639.696 1179.46C646.336 1169.67 651.95 1161.42 656.54 1154.71Z" fill="#003777"/>
<path d="M1232.37 1319.88C1251.86 1329.17 1270.8 1326.07 1289.47 1317.04C1290.36 1316.61 1291.38 1316.54 1292.31 1316.87C1293.24 1317.19 1294.01 1317.86 1294.44 1318.75C1295.4 1320.7 1295.13 1322.48 1293.63 1324.08C1284.75 1333.7 1263.45 1346.13 1248.6 1344.92C1210.34 1341.79 1178.02 1319.67 1176.11 1278.93C1174.12 1237.12 1200.25 1204.34 1242.85 1200.46C1257.35 1199.13 1270.89 1200.67 1283.47 1205.08C1286.28 1206.07 1292.15 1208.8 1292.46 1212.33C1292.79 1216 1290.11 1221.71 1288.75 1225.05C1286.53 1230.46 1282.7 1231.5 1277.26 1228.15C1264.12 1220.07 1251.98 1215.47 1236.35 1216.31C1205.96 1217.96 1195.91 1243.5 1198.54 1270.26C1200.87 1293.69 1212.14 1310.23 1232.37 1319.88Z" fill="#003777"/>
<path d="M1757.34 1280.53C1752.92 1230.48 1792.65 1192.06 1843.16 1201.41C1888.72 1209.84 1909.6 1255.3 1895.8 1297.17C1883.7 1333.9 1845.61 1352.23 1808.54 1342.35C1779.32 1334.54 1760.01 1310.72 1757.34 1280.53ZM1848.26 1329.47C1859.88 1325.44 1868.95 1315.56 1873.48 1302.02C1878 1288.48 1877.61 1272.38 1872.38 1257.26C1869.79 1249.77 1866.09 1242.75 1861.5 1236.6C1856.9 1230.44 1851.5 1225.28 1845.6 1221.39C1839.7 1217.51 1833.41 1214.99 1827.1 1213.97C1820.79 1212.95 1814.58 1213.45 1808.83 1215.45C1797.2 1219.48 1788.13 1229.35 1783.61 1242.89C1779.08 1256.43 1779.48 1272.54 1784.71 1287.66C1787.3 1295.14 1790.99 1302.17 1795.59 1308.32C1800.18 1314.47 1805.58 1319.64 1811.49 1323.52C1817.39 1327.4 1823.67 1329.93 1829.98 1330.95C1836.29 1331.97 1842.5 1331.47 1848.26 1329.47Z" fill="#003777"/>
<path d="M2628.54 1341.88C2622.34 1344.48 2615.99 1345.46 2609.49 1344.8C2589.59 1342.77 2573.17 1336.1 2560.23 1324.8C2538.22 1305.57 2534.65 1274.42 2543.45 1247.99C2551.5 1223.8 2570.39 1207.14 2595.37 1202.01C2612.21 1198.55 2631.24 1199.45 2647.4 1205.51C2651.24 1206.95 2656.72 1210.08 2655.13 1215.04C2654.06 1218.38 2652.93 1221.67 2651.72 1224.91C2649.8 1230.08 2646.29 1231.32 2641.18 1228.63C2637.82 1226.85 2634.51 1225.11 2631.28 1223.4C2617.06 1215.85 2602.58 1214.18 2587.84 1218.42C2558.89 1226.73 2556.18 1266.94 2566.17 1289.87C2575.7 1311.71 2596.52 1325.26 2619.51 1325.57C2629.89 1325.72 2641.05 1322.77 2653 1316.7C2653.45 1316.45 2653.94 1316.41 2654.44 1316.58C2656.38 1317.2 2657.55 1318.57 2657.96 1320.68C2658.07 1321.3 2657.96 1321.87 2657.63 1322.39C2651.86 1331.32 2637.94 1337.91 2628.54 1341.88Z" fill="#003777"/>
<path d="M1428.03 1308.29C1426.05 1304.49 1422.01 1304.27 1418.29 1304.25C1400.73 1304.19 1385.6 1304.24 1372.9 1304.39C1365.24 1304.47 1361.96 1320.99 1361.82 1325.72C1361.63 1332.3 1369.13 1334.27 1374.42 1335.01C1375.13 1335.12 1375.6 1335.51 1375.84 1336.19C1376.29 1337.49 1376.26 1338.9 1375.74 1340.42C1375.65 1340.7 1375.49 1340.95 1375.28 1341.16C1375.07 1341.36 1374.82 1341.5 1374.54 1341.58C1373.52 1341.85 1372.46 1341.99 1371.37 1341.99C1358.63 1342.02 1345.51 1341.99 1332.03 1341.91C1331.12 1341.89 1330.44 1341.62 1330 1341.08C1329.2 1340.1 1328.88 1338.74 1329.04 1337C1329.07 1336.66 1329.18 1336.33 1329.37 1336.04C1329.57 1335.76 1329.83 1335.53 1330.14 1335.38C1332.46 1334.2 1335.25 1334.08 1337.47 1332.66C1342.03 1329.77 1345.69 1325.14 1348.47 1318.76C1361.29 1289.28 1374.3 1259.33 1387.49 1228.92C1391.32 1220.07 1393.44 1212.13 1393.83 1205.08C1393.88 1204.19 1394.34 1203.66 1395.18 1203.47L1405.92 1201.09C1407.34 1200.78 1408.34 1201.29 1408.92 1202.63C1425.57 1241.9 1442.43 1281.3 1459.49 1320.83C1462.8 1328.52 1468.32 1333.34 1476.02 1335.29C1476.6 1335.44 1477.05 1335.76 1477.38 1336.24C1478.18 1337.43 1478.2 1338.77 1477.47 1340.26C1477.22 1340.78 1476.82 1341.21 1476.34 1341.51C1475.85 1341.81 1475.29 1341.97 1474.72 1341.98C1458.29 1341.98 1441.7 1341.98 1424.94 1341.99C1423.2 1341.99 1422.16 1341.41 1421.8 1340.25C1421.46 1339.13 1421.42 1337.89 1421.68 1336.52C1421.83 1335.77 1422.26 1335.29 1422.97 1335.08C1426.69 1334.01 1431.44 1333.01 1433.01 1328.93C1435.21 1323.22 1430.82 1313.61 1428.03 1308.29ZM1373.74 1292.12C1373.7 1292.21 1373.69 1292.31 1373.69 1292.41C1373.7 1292.51 1373.73 1292.6 1373.79 1292.68C1373.84 1292.77 1373.91 1292.83 1374 1292.88C1374.08 1292.93 1374.18 1292.95 1374.28 1292.95H1420.91C1421.01 1292.95 1421.1 1292.93 1421.19 1292.88C1421.28 1292.83 1421.35 1292.77 1421.4 1292.68C1421.45 1292.6 1421.49 1292.51 1421.49 1292.41C1421.5 1292.31 1421.48 1292.21 1421.44 1292.12L1398.13 1236.41C1398.08 1236.31 1398.01 1236.22 1397.91 1236.16C1397.82 1236.1 1397.71 1236.07 1397.59 1236.07C1397.48 1236.07 1397.37 1236.1 1397.28 1236.16C1397.18 1236.22 1397.11 1236.31 1397.06 1236.41L1373.74 1292.12Z" fill="#003777"/>
<path d="M1973.21 1252.76C1972.16 1274.08 1971.21 1295.46 1970.36 1316.91C1969.93 1327.65 1974.19 1333.59 1983.14 1334.72C1983.43 1334.76 1983.71 1334.85 1983.97 1335C1984.22 1335.15 1984.44 1335.36 1984.61 1335.59C1984.78 1335.83 1984.9 1336.1 1984.96 1336.39C1985.03 1336.68 1985.03 1336.97 1984.97 1337.26L1984.49 1339.8C1984.2 1341.27 1983.32 1342 1981.83 1342L1943.27 1341.91C1941.54 1341.9 1940.56 1341.04 1940.32 1339.32L1940.02 1337.18C1939.98 1336.89 1940 1336.59 1940.07 1336.31C1940.15 1336.02 1940.28 1335.76 1940.46 1335.53C1940.64 1335.3 1940.87 1335.1 1941.13 1334.96C1941.38 1334.82 1941.66 1334.73 1941.96 1334.7C1951.46 1333.74 1956.51 1328.16 1957.11 1317.98C1959.41 1278.15 1961.52 1240.56 1963.45 1205.23C1963.79 1198.78 1971.77 1200.6 1974 1204.75C1992.2 1238.83 2010.81 1273.67 2029.84 1309.27C2029.91 1309.4 2030.01 1309.51 2030.14 1309.58C2030.26 1309.66 2030.41 1309.7 2030.55 1309.7C2030.7 1309.69 2030.84 1309.65 2030.97 1309.57C2031.09 1309.49 2031.19 1309.38 2031.26 1309.25C2047.4 1276.56 2064.6 1241.85 2082.84 1205.13C2085.12 1200.53 2093.47 1198.68 2093.81 1205.53C2095.38 1235.58 2097.49 1273.59 2100.14 1319.57C2100.47 1325.38 2103.15 1329.78 2108.17 1332.77C2110.31 1334.05 2113.21 1334.32 2115.65 1334.91C2116.31 1335.06 2116.7 1335.47 2116.84 1336.14C2117.23 1338.09 2116.89 1339.72 2115.82 1341.05C2115.34 1341.65 2114.71 1341.95 2113.94 1341.95H2064.36C2063.98 1341.95 2063.62 1341.85 2063.3 1341.65C2062.98 1341.45 2062.72 1341.18 2062.54 1340.84C2061.82 1339.38 2061.58 1337.84 2061.82 1336.24C2061.87 1335.9 2062.02 1335.57 2062.26 1335.32C2062.5 1335.06 2062.81 1334.88 2063.15 1334.81C2072.16 1332.78 2076.44 1327.44 2076 1318.8C2075.28 1304.68 2074.08 1282.94 2072.41 1253.59C2072.34 1252.38 2072.03 1252.32 2071.49 1253.4C2059.46 1277.38 2047.72 1301.42 2036.28 1325.54C2034.59 1329.08 2033.83 1333.51 2032.19 1337.3C2031.95 1337.86 2031.56 1338.29 2031.01 1338.59C2027.61 1340.53 2021.15 1341.2 2018.99 1337.18C2003.41 1307.83 1988.5 1279.62 1974.26 1252.54C1973.63 1251.33 1973.28 1251.4 1973.21 1252.76Z" fill="#003777"/>
<path d="M2732.37 1305.21C2728 1307.91 2725.57 1317.14 2724.5 1321.8C2722.19 1331.83 2729.35 1333.38 2736.8 1335.11C2737.52 1335.27 2738.03 1335.69 2738.33 1336.37C2738.8 1337.45 2738.87 1338.55 2738.54 1339.68C2738.34 1340.33 2737.94 1340.9 2737.39 1341.31C2736.85 1341.72 2736.19 1341.94 2735.5 1341.94C2721.8 1342.02 2708.05 1342.02 2694.26 1341.93C2691.92 1341.91 2690.98 1339.82 2691 1337.79C2691.01 1337.14 2691.24 1336.51 2691.66 1336C2692.07 1335.5 2692.65 1335.15 2693.29 1335.01C2700.85 1333.35 2706.49 1328.29 2710.21 1319.84C2723.03 1290.8 2736.24 1260.58 2749.86 1229.18C2753.89 1219.91 2756.09 1211.91 2756.46 1205.16C2756.5 1204.47 2756.84 1204 2757.49 1203.74C2760.67 1202.47 2764.28 1201.57 2768.34 1201.04C2770.05 1200.81 2771.24 1201.49 2771.91 1203.07C2788.73 1242.3 2805.19 1280.59 2821.29 1317.92C2824.63 1325.65 2829.43 1333.42 2838.61 1334.82C2840.25 1335.07 2841.04 1336.03 2841 1337.69L2840.95 1339.25C2840.9 1341.09 2839.96 1342.01 2838.12 1342L2786.99 1341.96C2786.51 1341.96 2786.03 1341.82 2785.61 1341.57C2785.2 1341.31 2784.87 1340.94 2784.65 1340.51C2784.03 1339.26 2784.01 1337.86 2784.58 1336.29C2784.69 1336 2784.86 1335.75 2785.08 1335.54C2785.3 1335.33 2785.57 1335.18 2785.87 1335.09C2792.33 1333.19 2797.9 1331.34 2796.3 1322.95C2795.3 1317.71 2793.39 1312.63 2790.58 1307.73C2788.35 1303.84 2783.67 1304.19 2779.61 1304.19C2764.62 1304.19 2749.93 1304.23 2735.54 1304.31C2734.42 1304.31 2733.32 1304.62 2732.37 1305.21ZM2736.27 1291.96C2736.22 1292.06 2736.21 1292.18 2736.22 1292.29C2736.23 1292.4 2736.27 1292.5 2736.33 1292.6C2736.39 1292.69 2736.47 1292.76 2736.57 1292.82C2736.67 1292.87 2736.78 1292.9 2736.89 1292.9L2783.6 1292.97C2783.71 1292.97 2783.82 1292.94 2783.91 1292.89C2784.01 1292.83 2784.1 1292.76 2784.16 1292.66C2784.22 1292.57 2784.26 1292.47 2784.27 1292.36C2784.28 1292.25 2784.26 1292.13 2784.22 1292.03L2760.97 1236.41C2760.92 1236.29 2760.83 1236.18 2760.72 1236.11C2760.61 1236.04 2760.48 1236 2760.35 1236C2760.21 1236 2760.08 1236.04 2759.97 1236.11C2759.86 1236.18 2759.77 1236.29 2759.72 1236.41L2736.27 1291.96Z" fill="#003777"/>
<path d="M3097.55 1304.97C3093.36 1306.74 3090.51 1317.44 3089.54 1321.55C3087.26 1331.2 3093.62 1333.29 3101.28 1334.71C3102.87 1335.01 3103.63 1335.97 3103.55 1337.58C3103.41 1340.54 3102.17 1342.01 3099.84 1342C3085.08 1341.93 3071.6 1341.85 3059.38 1341.76C3058.64 1341.75 3057.93 1341.5 3057.35 1341.04C3056.77 1340.59 3056.37 1339.95 3056.19 1339.24C3055.54 1336.6 3056.53 1335.02 3059.16 1334.5C3067.63 1332.84 3072.56 1325.8 3075.92 1318.18C3087.72 1291.36 3100.64 1261.83 3114.7 1229.58C3118.65 1220.52 3120.95 1212.29 3121.61 1204.88C3121.67 1204.22 3122.02 1203.77 3122.65 1203.55C3126.02 1202.4 3129.74 1201.56 3133.82 1201.03C3135.19 1200.86 3136.15 1201.41 3136.69 1202.67C3152.13 1238.47 3167.79 1274.91 3183.65 1311.98C3187.87 1321.84 3192.39 1333.1 3203.93 1334.76C3204.53 1334.85 3205.07 1335.15 3205.45 1335.61C3205.83 1336.07 3206.03 1336.65 3206 1337.25L3205.89 1339.31C3205.81 1341.01 3204.92 1341.86 3203.21 1341.84L3152.26 1341.81C3151.59 1341.81 3150.93 1341.59 3150.4 1341.19C3149.86 1340.78 3149.47 1340.21 3149.3 1339.56C3148.71 1337.42 3149.45 1335.06 3151.91 1334.59C3157.74 1333.48 3162.42 1330.37 3161.34 1323.48C3160.7 1319.42 3157.37 1307.4 3152.99 1305.09C3151.87 1304.49 3150.68 1304.18 3149.42 1304.17C3133.43 1304.03 3117.33 1304.05 3101.09 1304.22C3099.86 1304.23 3098.69 1304.48 3097.55 1304.97ZM3101.24 1291.99C3101.2 1292.09 3101.19 1292.19 3101.2 1292.29C3101.2 1292.39 3101.24 1292.48 3101.29 1292.57C3101.35 1292.65 3101.42 1292.72 3101.51 1292.77C3101.6 1292.81 3101.7 1292.84 3101.8 1292.84H3148.74C3148.84 1292.84 3148.94 1292.81 3149.03 1292.77C3149.12 1292.72 3149.19 1292.65 3149.25 1292.57C3149.3 1292.48 3149.34 1292.39 3149.34 1292.29C3149.35 1292.19 3149.34 1292.09 3149.3 1291.99L3125.83 1236.29C3125.78 1236.18 3125.7 1236.09 3125.6 1236.02C3125.5 1235.96 3125.39 1235.93 3125.27 1235.93C3125.15 1235.93 3125.04 1235.96 3124.94 1236.02C3124.84 1236.09 3124.76 1236.18 3124.72 1236.29L3101.24 1291.99Z" fill="#003777"/>
<path d="M466.306 1289.91C466.19 1298.95 466.167 1308.12 466.236 1317.41C466.357 1330.5 475.923 1333.53 486.768 1334.68C488.578 1334.88 489.357 1335.88 489.103 1337.68L488.861 1339.35C488.607 1341.12 487.587 1342 485.799 1342L428.2 1341.97C427.587 1341.97 426.991 1341.75 426.515 1341.37C426.04 1340.98 425.712 1340.44 425.589 1339.84L425.07 1337.21C424.793 1335.86 425.341 1335.08 426.713 1334.87C436.14 1333.49 442.211 1328.75 442.245 1318.43C442.315 1286.38 442.292 1256.15 442.176 1227.74C442.124 1216.31 435.5 1213.47 426.384 1209.86C425.681 1209.58 425.283 1209.06 425.191 1208.3C424.983 1206.58 425.306 1205.09 426.159 1203.81C426.32 1203.56 426.546 1203.36 426.812 1203.24C427.077 1203.11 427.372 1203.06 427.664 1203.1C447.054 1205.12 465.925 1203.81 484.831 1203.08C516.726 1201.82 548.276 1215.57 542.256 1253.65C536.687 1288.82 495.139 1293.66 467.326 1289.06C466.657 1288.95 466.317 1289.23 466.306 1289.91ZM515.152 1262.95C518.069 1253.74 517.954 1244.54 514.806 1235.35C509.444 1219.75 495.243 1212.88 479.088 1213.63C471.65 1213.97 466.565 1217.83 466.444 1225.73C466.202 1243.3 466.138 1260.89 466.254 1278.5C466.255 1278.66 466.313 1278.82 466.418 1278.94C466.523 1279.07 466.667 1279.15 466.824 1279.17C482.772 1281.47 509.012 1282.35 515.152 1262.95Z" fill="#003777"/>
<path d="M1639.4 1203.04C1682.5 1201.8 1716.58 1228.38 1713.85 1273.86C1711.23 1317.38 1678.22 1344.14 1635.23 1341.87C1611.44 1340.6 1590.7 1340.56 1573 1341.74C1571.72 1341.82 1570.89 1341.25 1570.5 1340.03C1570.15 1338.88 1569.98 1337.72 1570 1336.55C1570.02 1336.03 1570.21 1335.54 1570.54 1335.16C1570.88 1334.77 1571.34 1334.51 1571.84 1334.42C1584.84 1332.11 1591.33 1326.34 1591.32 1317.12C1591.29 1285.78 1591.28 1255.56 1591.28 1226.44C1591.28 1216.77 1584.02 1212.32 1575.72 1209.97C1575.39 1209.87 1575.09 1209.71 1574.84 1209.48C1574.58 1209.25 1574.39 1208.96 1574.27 1208.64C1573.57 1206.82 1573.82 1205.18 1575.01 1203.72C1575.38 1203.27 1575.86 1203.06 1576.45 1203.11C1598.13 1204.75 1617.92 1203.66 1639.4 1203.04ZM1654.24 1217.44C1644.17 1213.45 1615.56 1208.19 1615.49 1226.1C1615.35 1254.36 1615.33 1282.37 1615.42 1310.14C1615.44 1315.5 1614.99 1320.38 1618.24 1324.48C1625.68 1333.8 1648.86 1331.78 1658.88 1329.21C1677.99 1324.3 1687.66 1309.33 1689.48 1290.23C1692.22 1261.39 1682.62 1228.72 1654.24 1217.44Z" fill="#003777"/>
<path d="M171.064 1276.12C177.847 1276.74 183.422 1279.73 187.79 1285.09C199.068 1298.89 209.977 1312.49 220.515 1325.9C225.634 1332.41 231.348 1336.15 237.658 1337.11C238.362 1337.22 238.778 1337.62 238.905 1338.32C239.102 1339.36 238.992 1340.38 238.576 1341.36C238.287 1342.06 237.785 1342.55 237.068 1342.83C226.807 1346.75 214.241 1345.13 205.591 1339.79C201.2 1337.08 195.879 1331.54 189.628 1323.19C180.926 1311.53 172.375 1300.56 163.975 1290.28C156.66 1281.32 145.29 1278.92 134.023 1279.13C133.445 1279.14 133.156 1279.43 133.156 1280.01C133.307 1291.79 133.301 1303.37 133.139 1314.75C132.914 1330.15 140.974 1333.21 154.476 1334.84C154.755 1334.87 155.023 1334.96 155.265 1335.1C155.508 1335.25 155.718 1335.44 155.884 1335.66C156.05 1335.89 156.167 1336.15 156.229 1336.42C156.291 1336.7 156.296 1336.98 156.244 1337.26L155.776 1339.68C155.476 1341.22 154.545 1341.98 152.985 1341.98L95.1797 1341.96C93.4926 1341.96 92.5393 1341.13 92.3197 1339.47L92.0424 1337.33C91.8459 1335.79 92.5219 1334.91 94.0704 1334.7C102.078 1333.65 106.908 1329.88 108.561 1323.39C108.919 1321.98 109.11 1316.51 109.133 1307C109.202 1280.94 109.185 1255.14 109.081 1229.62C109.029 1217.19 104.124 1213.75 93.273 1209.94C92.5335 1209.68 92.1233 1209.15 92.0424 1208.37C91.8691 1206.67 92.2273 1205.16 93.117 1203.84C93.4868 1203.3 93.9953 1203.06 94.6424 1203.13C113.483 1205.03 132.012 1204.05 150.697 1203.11C172.797 1202.01 202.003 1208.82 204.465 1234.79C206.579 1257.1 193.059 1271.74 171.705 1274.89C171.682 1274.9 171.659 1274.91 171.636 1274.91C170.688 1275.14 170.359 1275.46 170.648 1275.88C170.752 1276.03 170.891 1276.11 171.064 1276.12ZM178.292 1235C174.253 1219.33 161.028 1212.81 145.706 1213.66C137.836 1214.09 133.451 1218.83 133.382 1226.4C133.243 1240.69 133.174 1254.8 133.174 1268.73C133.174 1269.36 133.486 1269.69 134.11 1269.72C144.059 1270.22 153.309 1269.58 161.86 1267.8C179.106 1264.22 182.001 1249.42 178.292 1235Z" fill="#003777"/>
<path d="M316.814 1276.76C315.931 1276.88 315.122 1277.32 314.536 1277.98C313.949 1278.65 313.624 1279.5 313.62 1280.38C313.516 1292.29 313.504 1304.7 313.585 1317.62C313.62 1326.27 319.748 1329.8 327.665 1330.43C347.803 1332.06 368.793 1327.59 380.615 1310.25C381.125 1309.5 381.873 1308.94 382.741 1308.66C383.61 1308.39 384.548 1308.4 385.407 1308.72C391.952 1311.1 384.348 1327.12 381.813 1331.4C376.813 1339.86 371.709 1342.4 362.404 1341.95C330.263 1340.4 299.691 1340.32 270.687 1341.73C269.194 1341.8 268.384 1341.09 268.256 1339.6L268.013 1336.77C267.898 1335.38 268.534 1334.56 269.923 1334.32C279.576 1332.66 285.64 1329.11 288.117 1323.65C289.147 1321.36 289.639 1315.31 289.593 1305.5C289.465 1280.64 289.454 1255.44 289.558 1229.9C289.61 1217.02 284.332 1213.79 273.1 1209.87C272.742 1209.75 272.431 1209.52 272.213 1209.22C271.994 1208.91 271.88 1208.54 271.885 1208.16C271.885 1206.88 272.087 1205.62 272.492 1204.38C272.759 1203.6 273.308 1203.23 274.142 1203.26C305.194 1204.69 335.333 1204.63 364.556 1203.09C367.739 1202.93 370.91 1202.99 374.07 1203.26C376.616 1203.48 377.664 1204.84 377.212 1207.34C375.847 1214.97 374.024 1222.45 371.744 1229.78C371.62 1230.19 371.401 1230.56 371.105 1230.86C370.81 1231.17 370.446 1231.4 370.042 1231.54C368.254 1232.16 366.206 1231.47 365.511 1229.61C362.855 1222.46 358.671 1217.89 350.598 1216.26C340.066 1214.16 330.697 1213.9 322.491 1215.49C316.542 1216.64 313.562 1220.39 313.551 1226.76C313.527 1238.4 313.545 1250.03 313.603 1261.67C313.614 1264.43 315.009 1265.9 317.787 1266.09C332.647 1267.07 349.73 1266.49 362.109 1257.68C363.127 1256.96 364.261 1256.58 365.511 1256.54C366.472 1256.51 367.085 1256.87 367.352 1257.63C367.537 1258.18 367.514 1258.73 367.282 1259.27C363.254 1268.66 359.204 1277.56 355.13 1285.98C354.905 1286.44 354.564 1286.84 354.141 1287.14C353.717 1287.43 353.225 1287.62 352.71 1287.67C352.195 1287.72 351.675 1287.64 351.199 1287.44C350.724 1287.24 350.308 1286.92 349.991 1286.51C342.543 1276.93 327.509 1275.26 316.814 1276.76Z" fill="#003777"/>
<path d="M598.746 1226.22C598.555 1216.23 592.539 1211.56 583.629 1210.19C583.2 1210.12 582.807 1209.91 582.515 1209.59C582.222 1209.27 582.046 1208.86 582.017 1208.43C581.924 1206.9 582.213 1205.52 582.884 1204.3C583.346 1203.47 584.091 1203.05 585.12 1203.05C604.224 1203.02 621.143 1203 635.878 1203C638.941 1203 640.449 1204.68 640.403 1208.05C640.391 1209.14 639.848 1209.81 638.773 1210.04C627.904 1212.48 623.535 1217.13 623.553 1228.32C623.587 1251.39 623.622 1272.96 623.657 1293.01C623.691 1316.19 639.033 1332.34 662.852 1331.01C686.429 1329.68 699.257 1313.83 699.257 1291.14C699.269 1271.75 699.326 1252.61 699.43 1233.71C699.517 1219.81 697.437 1212.68 682.702 1210.07C681.766 1209.9 681.315 1209.34 681.349 1208.4C681.396 1206.74 681.806 1205.27 682.58 1204C682.962 1203.35 683.534 1203.02 684.297 1203.02H727.358C727.873 1203.02 728.371 1203.2 728.762 1203.54C729.153 1203.87 729.412 1204.34 729.49 1204.85L729.958 1207.96C730.166 1209.31 729.594 1210.08 728.242 1210.28C719.141 1211.56 713.351 1216.63 713.386 1226.52C713.467 1247.39 713.426 1269.06 713.264 1291.52C713.074 1317.28 699.5 1336.37 675.23 1342.72C645.812 1350.42 610.274 1338.62 601.19 1307.48C599.433 1301.45 598.624 1293.29 598.763 1283.01C599.063 1261.81 599.058 1242.88 598.746 1226.22Z" fill="#003777"/>
<path d="M852.648 1266.23C864.225 1267.37 873.179 1271.85 879.511 1279.67C887.569 1289.62 889.164 1304.49 884.103 1316.04C875.784 1335.03 852.058 1342.52 832.7 1341.97C810.742 1341.33 788.385 1340.31 765.456 1341.87C764.543 1341.94 763.919 1341.55 763.584 1340.69C762.937 1339.07 762.828 1337.41 763.255 1335.7C763.417 1335.05 763.827 1334.65 764.486 1334.51C774.191 1332.47 784.07 1329.17 784.035 1317.22C783.977 1289.44 783.989 1259.35 784.069 1226.93C784.104 1216.31 777.085 1212.94 768.108 1209.93C767.795 1209.83 767.518 1209.64 767.307 1209.39C767.096 1209.14 766.959 1208.83 766.912 1208.5C766.716 1207.07 766.843 1205.64 767.293 1204.2C767.402 1203.86 767.625 1203.57 767.924 1203.37C768.224 1203.17 768.582 1203.08 768.94 1203.11C788.212 1204.94 806.374 1203.98 825.872 1203.08C847.379 1202.08 878.315 1210.64 875.646 1238.12C874.317 1251.76 866.611 1260.72 852.526 1265C850.528 1265.61 850.568 1266.02 852.648 1266.23ZM847.552 1226.59C842.024 1215.64 828.142 1212.16 816.721 1214.03C809.754 1215.17 808.246 1220.8 808.263 1226.95C808.275 1237.66 808.287 1249.34 808.298 1262C808.298 1262.66 808.627 1263.01 809.286 1263.03C819.5 1263.45 827.79 1263.23 834.156 1262.38C852.041 1259.99 854.104 1239.58 847.552 1226.59ZM842.024 1275.59C832.18 1271.69 820.048 1273.31 809.494 1272.98C808.72 1272.95 808.327 1273.32 808.315 1274.1C808.281 1286.84 808.223 1300.64 808.142 1315.49C808.096 1324.21 812.481 1329.3 821.296 1330.78C834.901 1333.06 856.374 1331.94 860.187 1314.71C863.688 1298.81 858.194 1282.03 842.024 1275.59Z" fill="#003777"/>
<path d="M925.545 1334.49C936.73 1332.04 944.903 1328.11 944.92 1317.75C944.955 1289.39 944.943 1258.72 944.886 1225.75C944.869 1215.71 938.02 1211.61 929.279 1210.14C928.602 1210.03 928.195 1209.63 928.057 1208.95C927.759 1207.53 927.857 1206.11 928.35 1204.68C928.515 1204.19 928.826 1203.77 929.24 1203.47C929.654 1203.18 930.149 1203.02 930.656 1203.02L983.035 1203C983.512 1203 983.98 1203.14 984.382 1203.4C984.785 1203.66 985.105 1204.03 985.306 1204.47C985.822 1205.65 985.925 1207.08 985.616 1208.78C985.501 1209.43 985.122 1209.84 984.48 1209.99C972.555 1212.86 968.959 1216.82 968.925 1229.6C968.833 1258.73 968.839 1288.09 968.942 1317.68C968.976 1325.58 974.81 1329.61 981.933 1330.34C997.626 1331.95 1015.38 1329.41 1027.62 1319.1C1030.75 1316.47 1033.16 1313.37 1035.71 1310.15C1038.51 1306.64 1043.55 1308.98 1042.95 1313.2C1041.23 1325.24 1034.17 1342.66 1020.58 1341.98C990.227 1340.47 958.818 1340.4 926.354 1341.77C925.184 1341.82 924.53 1341.25 924.392 1340.08L924.014 1336.64C923.956 1336.15 924.081 1335.67 924.365 1335.27C924.648 1334.87 925.068 1334.6 925.545 1334.49Z" fill="#003777"/>
<path d="M1132.82 1210.35C1118.82 1212.74 1117.76 1220.9 1117.79 1233.11C1117.84 1262.82 1117.87 1291.41 1117.9 1318.86C1117.9 1324.91 1120.32 1329.39 1125.16 1332.33C1127.7 1333.87 1130.94 1334.32 1133.82 1335.03C1134.12 1335.11 1134.4 1335.28 1134.6 1335.52C1134.81 1335.75 1134.94 1336.05 1134.97 1336.36C1135.13 1338.26 1134.69 1339.88 1133.66 1341.23C1133.27 1341.72 1132.77 1341.96 1132.16 1341.96C1115.89 1342 1098.95 1342.01 1081.36 1342C1077.76 1341.98 1076.7 1339.67 1077.09 1336.31C1077.18 1335.56 1077.59 1335.12 1078.33 1334.98C1087.67 1333.18 1094.09 1329.33 1094.09 1318.57C1094.07 1290.84 1094.09 1261.3 1094.16 1229.96C1094.18 1217.24 1090.85 1213.1 1078.79 1210.02C1077.65 1209.73 1077.05 1208.99 1077.01 1207.8C1076.85 1203.62 1079.47 1203 1083.09 1203C1097.92 1203.03 1112.75 1203.04 1127.58 1203.02C1130.5 1203.01 1132.01 1203.01 1132.09 1203.03C1134.01 1203.54 1134.98 1205.11 1135 1207.73C1135 1209.23 1134.27 1210.1 1132.82 1210.35Z" fill="#003777"/>
<path d="M2171.53 1229.59C2171.51 1217.39 2167.91 1212.77 2155.98 1210.19C2155.44 1210.07 2154.96 1209.77 2154.62 1209.33C2154.28 1208.9 2154.11 1208.36 2154.14 1207.82C2154.22 1205.72 2155.04 1203.02 2157.67 1203.02C2173.21 1203.06 2190.19 1203.06 2208.6 1203C2211.62 1203 2213.08 1204.64 2212.97 1207.92C2212.94 1209.27 2212.25 1210.07 2210.9 1210.31C2197.03 1212.75 2195.67 1219.75 2195.74 1232.29C2195.86 1259.83 2195.83 1287.4 2195.65 1314.99C2195.57 1328.4 2199.22 1332.05 2211.75 1335.08C2212.43 1335.25 2212.82 1335.67 2212.92 1336.37C2213.27 1338.83 2212.52 1341.98 2209.54 1341.98C2190.33 1342.01 2173.06 1342.01 2157.74 1341.96C2157.03 1341.96 2156.35 1341.72 2155.79 1341.3C2155.23 1340.88 2154.82 1340.29 2154.62 1339.62L2154.19 1338.1C2153.62 1336.15 2154.34 1335.03 2156.35 1334.74C2165.87 1333.37 2171.49 1328.09 2171.51 1317.9C2171.57 1289.39 2171.57 1259.95 2171.53 1229.59Z" fill="#003777"/>
<path d="M2371.04 1299.85C2371.08 1273.99 2371.05 1249.55 2370.95 1226.53C2370.92 1216.21 2362.16 1212.39 2353.52 1210.79C2352.08 1210.53 2351.29 1209.67 2351.16 1208.23C2350.86 1205.17 2351.71 1203.56 2353.72 1203.38C2355.01 1203.28 2356.3 1203.23 2357.61 1203.23C2372.1 1203.23 2385.81 1203.22 2398.73 1203.19C2399.21 1203.19 2399.67 1203.31 2400.09 1203.55C2400.5 1203.78 2400.84 1204.11 2401.09 1204.51C2401.84 1205.7 2402.12 1207.01 2401.95 1208.46C2401.9 1208.9 2401.72 1209.31 2401.44 1209.65C2401.16 1209.99 2400.79 1210.24 2400.37 1210.38C2391.93 1213.01 2384.98 1215.99 2384.93 1226.46C2384.79 1255.42 2384.79 1284.29 2384.91 1313.08C2384.95 1322.82 2385.74 1332.23 2387.29 1341.32C2387.35 1341.69 2387.29 1342.07 2387.1 1342.4C2386.92 1342.73 2386.64 1342.99 2386.29 1343.13C2382.55 1344.66 2378.01 1344.26 2375.13 1341.23C2343.08 1307.57 2312.05 1274.92 2282.03 1243.27C2281.31 1242.5 2280.95 1242.64 2280.95 1243.71C2280.98 1267.63 2280.96 1292.07 2280.88 1317.03C2280.84 1329.16 2289.02 1332.99 2299.38 1334.79C2300.33 1334.95 2300.78 1335.52 2300.71 1336.49L2300.48 1339.6C2300.44 1340.28 2300.13 1340.91 2299.64 1341.38C2299.14 1341.84 2298.49 1342.1 2297.82 1342.1H2253.08C2252.28 1342.1 2251.62 1341.78 2251.12 1341.16C2250.1 1339.91 2249.77 1338.36 2250.15 1336.49C2250.24 1336.05 2250.45 1335.65 2250.74 1335.33C2251.04 1335.01 2251.42 1334.78 2251.84 1334.67C2257.4 1333.13 2263.11 1331.01 2265.51 1325.25C2267.4 1320.71 2266.95 1316.2 2266.99 1311.26C2267.18 1281.97 2267.11 1256.21 2266.76 1233.98C2266.63 1224.65 2263.36 1216.3 2256.97 1208.92C2256.69 1208.6 2256.48 1208.21 2256.35 1207.8C2256.23 1207.38 2256.2 1206.95 2256.26 1206.52C2256.32 1206.09 2256.47 1205.68 2256.7 1205.31C2256.94 1204.95 2257.24 1204.64 2257.61 1204.41C2260.88 1202.31 2270.88 1203.16 2274.72 1203.23C2276.84 1203.26 2278.62 1204.04 2280.05 1205.57C2309.41 1236.8 2339.17 1268.45 2369.33 1300.53C2370.47 1301.74 2371.04 1301.51 2371.04 1299.85Z" fill="#003777"/>
<path d="M2495.57 1210.41C2487.31 1211.71 2480.92 1216.34 2480.89 1225.55C2480.81 1255.55 2480.79 1286.15 2480.84 1317.37C2480.84 1329.35 2486.51 1333.01 2496.57 1334.91C2496.97 1334.99 2497.33 1335.21 2497.58 1335.54C2497.84 1335.86 2497.96 1336.27 2497.94 1336.68C2497.84 1338.17 2497.54 1339.48 2497.05 1340.6C2496.87 1341.01 2496.57 1341.37 2496.19 1341.62C2495.81 1341.87 2495.37 1342 2494.92 1342L2443.54 1341.97C2441.58 1341.97 2440.46 1340.97 2440.18 1338.99L2440.05 1337.96C2439.78 1336.01 2440.62 1334.9 2442.55 1334.62C2452.28 1333.22 2457.14 1327.44 2457.12 1317.28C2457.06 1286.92 2457.09 1258.38 2457.2 1231.67C2457.27 1218.85 2454.53 1212.68 2441.5 1210.02C2441.13 1209.94 2440.79 1209.74 2440.54 1209.46C2440.28 1209.17 2440.12 1208.81 2440.08 1208.42C2439.7 1204.81 2441.29 1203.01 2444.85 1203.02C2461.81 1203.04 2478.57 1203.03 2495.11 1203C2495.65 1203 2496.11 1203.19 2496.5 1203.57C2497.37 1204.46 2497.46 1205.88 2497.84 1207C2498.13 1207.87 2498.03 1208.64 2497.51 1209.31C2497.04 1209.92 2496.4 1210.29 2495.57 1210.41Z" fill="#003777"/>
<path d="M2905.16 1243.12C2905.2 1266.16 2905.17 1290.02 2905.09 1314.72C2905.04 1329.06 2911.34 1331.85 2923.83 1334.9C2924.53 1335.07 2924.96 1335.51 2925.11 1336.21C2925.72 1339.07 2925.04 1342.05 2921.73 1342.05C2906.1 1342.04 2891.77 1342.06 2878.74 1342.11C2875.16 1342.12 2873.61 1340.23 2874.08 1336.46C2874.18 1335.75 2874.56 1335.29 2875.23 1335.09C2883.9 1332.26 2891.16 1329.13 2891.21 1318.28C2891.32 1292.84 2891.34 1266.84 2891.26 1240.29C2891.22 1227.04 2889.53 1219.26 2881.34 1209.03C2880.91 1208.5 2880.64 1207.87 2880.56 1207.19C2880.48 1206.52 2880.59 1205.84 2880.88 1205.22C2881.17 1204.61 2881.62 1204.09 2882.2 1203.72C2882.77 1203.36 2883.43 1203.16 2884.11 1203.16L2899.48 1203C2900.31 1202.99 2901.14 1203.16 2901.9 1203.48C2902.66 1203.81 2903.35 1204.29 2903.92 1204.89L2994.58 1300.9C2995.34 1301.69 2995.72 1301.54 2995.72 1300.44C2995.8 1275.59 2995.8 1250.88 2995.72 1226.29C2995.68 1215.39 2986.58 1212.36 2977.75 1210.42C2976.63 1210.16 2975.99 1209.46 2975.84 1208.32C2975.4 1204.88 2976.86 1203.14 2980.22 1203.1C2995.66 1203 3010.06 1202.98 3023.44 1203.05C3026.44 1203.07 3027.25 1206.02 3026.94 1208.53C3026.89 1208.9 3026.73 1209.26 3026.5 1209.56C3026.26 1209.85 3025.94 1210.08 3025.59 1210.21C3018.59 1212.7 3011.51 1214.56 3010.42 1222.5C3009.9 1226.31 3009.64 1230.5 3009.64 1235.08C3009.65 1258.25 3009.66 1281.3 3009.68 1304.22C3009.7 1317.39 3010.49 1329.81 3012.06 1341.48C3012.17 1342.28 3011.84 1342.83 3011.08 1343.13C3006.55 1344.88 3002.6 1343.99 2999.22 1340.44C2967.55 1307.21 2936.47 1274.66 2905.98 1242.79C2905.43 1242.23 2905.16 1242.34 2905.16 1243.12Z" fill="#003777"/>
<path d="M2006.07 1459H1293.93C1293.42 1459 1293 1459.42 1293 1459.93V1492.07C1293 1492.58 1293.42 1493 1293.93 1493H2006.07C2006.58 1493 2007 1492.58 2007 1492.07V1459.93C2007 1459.42 2006.58 1459 2006.07 1459Z" fill="#EB242A"/>
<path d="M992.649 1652.19C973.948 1655.19 963.993 1667.89 961.937 1685.73C958.895 1712.1 965.618 1739.87 985.234 1757.67C993.749 1765.42 1003.68 1769.87 1015.01 1771.04C1035.36 1773.14 1038.21 1761.89 1036.05 1744.71C1034.51 1732.28 1024.1 1728.08 1013.41 1726.68C1011.08 1726.38 1010.39 1725.15 1011.35 1722.99L1012.39 1720.7C1012.85 1719.66 1013.6 1718.78 1014.55 1718.16C1015.5 1717.54 1016.61 1717.21 1017.74 1717.21C1037.19 1717.2 1056.78 1717.21 1076.51 1717.25C1080.57 1717.26 1081.81 1721.43 1080.5 1724.75C1080.38 1725.05 1080.2 1725.33 1079.97 1725.55C1079.74 1725.78 1079.47 1725.96 1079.17 1726.07C1071.56 1729.07 1066.05 1731.69 1065.08 1740.95C1064.13 1750.19 1063.68 1760.07 1068.82 1767.68C1068.91 1767.81 1068.97 1767.97 1069 1768.13C1069.02 1768.29 1069.02 1768.46 1068.98 1768.62C1068.93 1768.77 1068.86 1768.92 1068.76 1769.05C1068.66 1769.18 1068.53 1769.28 1068.38 1769.36C1057.6 1775.03 1046.54 1780 1035.22 1784.25C1024.93 1788.12 1014.89 1787.35 1002.93 1785.33C960.347 1778.15 930.205 1749.3 934.387 1703.57C936.865 1676.62 949.458 1656.39 972.168 1642.88C994.964 1629.32 1029.62 1627.9 1054.76 1635.92C1059.1 1637.31 1067.88 1641.28 1066.07 1647.14C1064.49 1652.19 1062.52 1657.16 1060.17 1662.03C1056.37 1669.9 1049.16 1665.26 1044.22 1662.19C1028.67 1652.52 1011.48 1649.18 992.649 1652.19Z" fill="#EB242A"/>
<path d="M1408.9 1681.15C1405.8 1696.76 1406.86 1711.45 1412.09 1725.23C1421.67 1750.52 1449.14 1766.33 1476.03 1762.81C1486.21 1761.46 1495.17 1759.09 1502.9 1755.67C1503.19 1755.55 1503.5 1755.48 1503.81 1755.49C1504.13 1755.49 1504.44 1755.56 1504.72 1755.69C1506.73 1756.59 1508.12 1758.25 1508.89 1760.67C1509.09 1761.28 1509.01 1761.87 1508.67 1762.42C1502.04 1773.06 1484.56 1781.13 1470.86 1785.54C1467.77 1786.53 1464.67 1787.01 1461.54 1787C1423.88 1786.77 1388.12 1765.41 1381.28 1726.46C1378.97 1713.3 1379.79 1699.93 1383.73 1686.35C1393.31 1653.41 1419.1 1634.11 1452.34 1631.46C1468.37 1630.17 1486.08 1631.34 1500.42 1638.28C1503.48 1639.77 1507.07 1642.62 1505.98 1646.5C1504.5 1651.92 1502.73 1656.89 1500.67 1661.41C1498.15 1666.97 1494.28 1668.05 1489.08 1664.68C1485.07 1662.07 1481.08 1659.76 1477.12 1657.75C1451.94 1644.98 1415.66 1647.11 1408.9 1681.15Z" fill="#EB242A"/>
<path d="M827.223 1659.8C830.87 1651.45 832.994 1643.61 833.596 1636.28C833.622 1635.97 833.732 1635.68 833.913 1635.43C834.094 1635.18 834.339 1635 834.62 1634.89C839.019 1633.14 843.384 1632.18 847.713 1632C848.106 1631.99 848.495 1632.09 848.827 1632.3C849.159 1632.51 849.419 1632.82 849.571 1633.18C868.602 1677.9 886.702 1720.11 903.869 1759.81C907.84 1768.98 913.952 1774.3 922.206 1775.8C922.647 1775.87 923.053 1776.09 923.362 1776.42C923.672 1776.75 923.869 1777.17 923.925 1777.62C924.098 1779.22 923.971 1780.85 923.543 1782.51C923.358 1783.2 922.906 1783.58 922.188 1783.65C921.112 1783.76 920.035 1783.81 918.959 1783.83C898.411 1784 879.744 1784.04 862.959 1783.95C861.767 1783.95 860.563 1783.81 859.347 1783.53C858.618 1783.37 858.155 1782.92 857.958 1782.19C857.46 1780.27 857.57 1778.54 858.288 1777C858.774 1775.93 859.602 1775.32 860.771 1775.17C877.319 1773.05 870.148 1756.65 864.904 1748.36C864.437 1747.62 863.694 1747.09 862.837 1746.89C860.036 1746.21 856.91 1745.88 853.461 1745.9C841.132 1745.91 827.837 1745.95 813.575 1746.02C809.246 1746.04 806.265 1748.07 804.632 1752.12C803.023 1756.1 801.981 1759.81 801.507 1763.24C800.222 1772.38 807.254 1774.39 814.686 1775.66C815.072 1775.73 815.432 1775.9 815.726 1776.16C816.021 1776.42 816.238 1776.76 816.353 1777.14C816.816 1778.68 816.851 1780.22 816.457 1781.78C816.31 1782.38 815.965 1782.91 815.477 1783.29C814.989 1783.67 814.387 1783.88 813.766 1783.88L766.969 1784C764.978 1784.01 763.989 1783.02 764 1781.03L764.017 1778.39C764.017 1776.66 764.868 1775.64 766.57 1775.33C772.59 1774.24 777.046 1771.39 779.94 1766.78C782.985 1761.94 786.151 1755.6 789.439 1747.77C800.193 1722.2 812.788 1692.87 827.223 1659.8ZM836.652 1678.9C836.603 1678.78 836.52 1678.68 836.415 1678.61C836.31 1678.54 836.187 1678.51 836.062 1678.51C835.936 1678.51 835.813 1678.54 835.708 1678.61C835.603 1678.68 835.521 1678.78 835.471 1678.9L813.662 1731.35C813.622 1731.45 813.607 1731.56 813.617 1731.66C813.628 1731.76 813.664 1731.87 813.722 1731.95C813.78 1732.04 813.859 1732.11 813.951 1732.16C814.044 1732.21 814.147 1732.24 814.252 1732.24L857.524 1732.26C857.629 1732.26 857.732 1732.23 857.825 1732.18C857.917 1732.13 857.996 1732.06 858.054 1731.97C858.112 1731.88 858.148 1731.78 858.159 1731.68C858.169 1731.57 858.154 1731.47 858.114 1731.37L836.652 1678.9Z" fill="#EB242A"/>
<path d="M2448.45 1659.26C2452.04 1650.92 2454.11 1643.2 2454.66 1636.09C2454.69 1635.77 2454.81 1635.48 2455.02 1635.24C2455.23 1635 2455.5 1634.84 2455.81 1634.77L2467.93 1632.05C2468.42 1631.94 2468.94 1632.01 2469.39 1632.24C2469.84 1632.47 2470.19 1632.85 2470.39 1633.31C2490.44 1680.21 2508.26 1721.78 2523.86 1758C2527.93 1767.49 2533.08 1773.7 2542.9 1775.81C2543.56 1775.96 2544.03 1776.34 2544.3 1776.94C2545.18 1778.83 2545.23 1780.67 2544.44 1782.47C2544.21 1782.99 2543.82 1783.33 2543.28 1783.48C2542.14 1783.77 2540.99 1783.92 2539.83 1783.93C2521.3 1784 2502.76 1783.99 2484.21 1783.91C2482.86 1783.91 2481.55 1783.82 2480.29 1783.64C2479.62 1783.54 2479.2 1783.17 2479.01 1782.51C2478.49 1780.7 2478.48 1778.95 2478.98 1777.25C2479.21 1776.47 2479.72 1775.97 2480.5 1775.76C2487.54 1773.91 2493.75 1771.49 2491.62 1762.37C2490.43 1757.31 2488.43 1752.55 2485.62 1748.1C2485.29 1747.59 2484.81 1747.22 2484.25 1747.06C2482.23 1746.43 2480.18 1746.11 2478.13 1746.1C2463.85 1745.95 2449.26 1745.96 2434.36 1746.14C2430.68 1746.19 2428.11 1747.25 2426.5 1750.65C2423.96 1756.08 2422.61 1760.9 2422.46 1765.11C2422.18 1772.87 2429.79 1774.77 2435.95 1775.97C2436.78 1776.13 2437.32 1776.62 2437.55 1777.44C2438.06 1779.37 2437.86 1781.16 2436.97 1782.8C2436.81 1783.12 2436.56 1783.38 2436.25 1783.57C2435.95 1783.76 2435.6 1783.86 2435.24 1783.86L2387.79 1784C2387.06 1784 2386.37 1783.71 2385.85 1783.2C2385.33 1782.69 2385.04 1781.99 2385.03 1781.26L2385 1778.09C2384.99 1776.59 2385.72 1775.73 2387.19 1775.5C2396.41 1774.01 2401.89 1767.12 2405.36 1759.11C2419.77 1725.9 2434.13 1692.62 2448.45 1659.26ZM2456.21 1679.55L2435.24 1729.94C2435.17 1730.1 2435.14 1730.27 2435.15 1730.44C2435.16 1730.61 2435.2 1730.78 2435.27 1730.93C2435.35 1731.09 2435.46 1731.22 2435.59 1731.33C2435.72 1731.44 2435.87 1731.52 2436.04 1731.57C2437.8 1732.05 2439.58 1732.31 2441.38 1732.35C2451.66 1732.53 2462.21 1732.53 2473.05 1732.35C2474.65 1732.33 2476.07 1732.11 2477.31 1731.71C2477.53 1731.64 2477.74 1731.52 2477.91 1731.37C2478.08 1731.21 2478.23 1731.02 2478.32 1730.81C2478.42 1730.6 2478.47 1730.37 2478.48 1730.14C2478.48 1729.9 2478.44 1729.67 2478.35 1729.45L2457.7 1679.55C2457.2 1678.36 2456.7 1678.36 2456.21 1679.55Z" fill="#EB242A"/>
<path d="M1913.98 1652.38C1913.62 1651.57 1912.99 1651.11 1912.1 1650.99C1898.11 1649.35 1876.05 1651.22 1868.17 1664.69C1866.63 1667.36 1863.73 1668.14 1860.88 1667.15C1859.28 1666.6 1858.7 1665.5 1859.15 1663.86C1861.58 1655.11 1863.28 1645.76 1864.25 1635.82C1864.46 1633.74 1865.6 1632.81 1867.69 1633.03C1879.22 1634.23 1891.19 1634.88 1903.6 1634.99C1937.3 1635.23 1970.59 1635.75 2004.07 1633.07C2004.5 1633.03 2004.93 1633.16 2005.27 1633.43C2005.61 1633.7 2005.84 1634.08 2005.91 1634.5C2006.06 1635.36 2006.02 1636.18 2005.79 1636.96C2003.15 1646.33 2000.81 1655.46 1998.78 1664.35C1998.61 1665.07 1998.24 1665.73 1997.72 1666.25C1997.19 1666.78 1996.52 1667.14 1995.79 1667.29C1993.29 1667.83 1991.52 1665.85 1990.53 1663.86C1983.97 1650.77 1965.96 1649.56 1952.66 1650.87C1949.12 1651.22 1947.37 1653.29 1947.4 1657.09C1947.72 1689.39 1947.58 1723.19 1947.44 1758.62C1947.4 1772.27 1960.75 1774.27 1971.04 1775.65C1972.54 1775.85 1973.17 1776.68 1972.93 1778.16L1972.45 1781.44C1972.21 1783.1 1971.24 1783.93 1969.55 1783.93L1892.73 1784C1891.47 1784 1890.64 1783.4 1890.23 1782.2C1889.71 1780.67 1889.46 1778.98 1889.49 1777.12C1889.49 1776.77 1889.62 1776.43 1889.85 1776.17C1890.07 1775.9 1890.39 1775.73 1890.74 1775.67C1900.59 1774.02 1914.83 1772.86 1914.88 1759.65C1915.01 1721.68 1914.99 1686.78 1914.84 1654.94C1914.84 1654.49 1914.73 1654.04 1914.51 1653.59C1914.33 1653.19 1914.15 1652.78 1913.98 1652.38Z" fill="#EB242A"/>
<path d="M1196.26 1711.27C1205.16 1712.73 1212.5 1717.08 1218.31 1724.32C1229.7 1738.54 1240.53 1752.27 1250.8 1765.52C1255.76 1771.93 1261.98 1776.05 1269.47 1777.88C1270.13 1778.04 1270.56 1778.45 1270.75 1779.09C1271.52 1781.54 1270.49 1784.35 1267.79 1784.98C1244.39 1790.5 1229.47 1784.86 1215.6 1766.41C1206.24 1753.96 1196.38 1741.21 1186.01 1728.17C1178.16 1718.3 1167.73 1715.4 1155.23 1715.66C1155.15 1715.66 1155.07 1715.68 1154.99 1715.71C1154.92 1715.75 1154.85 1715.79 1154.79 1715.85C1154.74 1715.91 1154.69 1715.98 1154.66 1716.06C1154.64 1716.14 1154.62 1716.22 1154.62 1716.3C1154.89 1729.11 1154.94 1741.91 1154.76 1754.69C1154.55 1769.58 1163.6 1773.23 1176.52 1775C1178.35 1775.25 1179.18 1776.3 1178.99 1778.14L1178.72 1780.78C1178.52 1782.67 1177.47 1783.62 1175.56 1783.62C1154.75 1783.66 1134.16 1783.72 1113.79 1783.81C1111.66 1783.83 1109.59 1783.7 1107.56 1783.43C1106.93 1783.35 1106.47 1783.02 1106.18 1782.44C1105.23 1780.51 1104.97 1778.5 1105.4 1776.4C1105.46 1776.08 1105.63 1775.78 1105.87 1775.55C1106.11 1775.33 1106.41 1775.18 1106.73 1775.14C1116.6 1773.77 1123.1 1768.94 1123.15 1758.13C1123.36 1718.48 1123.34 1686.35 1123.11 1661.74C1123.01 1650.96 1116.56 1645.39 1106.98 1642.97C1105.48 1642.6 1104.84 1641.65 1105.03 1640.11L1105.45 1636.83C1105.69 1634.92 1106.77 1634.06 1108.69 1634.26C1129.34 1636.41 1150.78 1635.13 1171.59 1634.14C1198.91 1632.86 1234.23 1639.94 1232.99 1675.53C1232.24 1696.41 1215.97 1708.66 1196.29 1710.31C1193.69 1710.52 1193.68 1710.84 1196.26 1711.27ZM1181.32 1648.82C1174.61 1646.5 1159.75 1644.76 1156.25 1653.28C1155.37 1655.44 1154.93 1658.33 1154.92 1661.98C1154.91 1676.19 1154.83 1690.13 1154.69 1703.82C1154.69 1703.99 1154.75 1704.16 1154.87 1704.29C1154.98 1704.41 1155.15 1704.49 1155.32 1704.5C1163.56 1704.83 1171.67 1704.45 1179.67 1703.35C1189.52 1701.98 1198.08 1697.94 1199.67 1686.87C1201.91 1671.18 1197.56 1654.43 1181.32 1648.82Z" fill="#EB242A"/>
<path d="M1305.02 1660.44C1304.97 1650.39 1298.55 1645.27 1289.44 1643.78C1287.54 1643.47 1286.75 1642.37 1287.07 1640.47L1287.59 1637.48C1287.87 1635.81 1288.84 1634.99 1290.51 1635C1309.56 1635.09 1328.46 1635.11 1347.22 1635.05C1350.11 1635.04 1351.77 1635.12 1352.2 1635.29C1354.12 1636.1 1355.06 1637.88 1355 1640.63C1354.95 1642.43 1354.05 1643.52 1352.3 1643.9C1343.05 1645.91 1336.79 1650.15 1336.75 1660.49C1336.56 1703.6 1336.57 1736.39 1336.81 1758.87C1336.89 1768.63 1343.32 1774 1352.52 1775.16C1353.95 1775.34 1354.74 1776.14 1354.88 1777.59C1355.27 1781.82 1353.84 1783.95 1350.59 1783.96C1329.28 1784.01 1309.17 1784.01 1290.25 1783.98C1289.05 1783.98 1288.25 1783.42 1287.85 1782.3C1287.36 1780.95 1287.11 1779.41 1287.09 1777.69C1287.06 1776.27 1287.76 1775.46 1289.16 1775.27C1299.7 1773.72 1305 1768.2 1305.06 1758.71C1305.24 1727.78 1305.23 1695.03 1305.02 1660.44Z" fill="#EB242A"/>
<path d="M1632.48 1767.71C1649.95 1762.48 1657.39 1747 1657.44 1729.75C1657.49 1708.12 1657.5 1685.39 1657.48 1661.55C1657.48 1650.78 1651.19 1645.89 1641.2 1643.87C1639.56 1643.54 1638.7 1642.55 1638.63 1640.9C1638.47 1636.95 1640.08 1634.98 1643.45 1635C1659.22 1635.1 1674.77 1635.11 1690.12 1635.02C1691.3 1635.01 1692.07 1635.56 1692.44 1636.69C1692.98 1638.29 1693.13 1639.99 1692.89 1641.79C1692.78 1642.66 1692.29 1643.21 1691.44 1643.44C1678.59 1646.81 1675.61 1651.49 1675.59 1664.97C1675.56 1684.24 1675.57 1704.83 1675.63 1726.75C1675.72 1762.35 1654.27 1785.74 1617.93 1786.95C1581.36 1788.17 1549.93 1767.99 1549.74 1728.44C1549.64 1708.44 1549.67 1686.94 1549.81 1663.92C1549.89 1651.58 1544.7 1644.93 1534.25 1643.98C1533.92 1643.95 1533.6 1643.85 1533.31 1643.69C1533.02 1643.53 1532.76 1643.32 1532.55 1643.06C1532.34 1642.8 1532.19 1642.51 1532.09 1642.19C1532 1641.87 1531.98 1641.54 1532.02 1641.22L1532.49 1637.4C1532.67 1635.83 1533.56 1635.05 1535.14 1635.05C1556.27 1635.09 1576.76 1635.1 1596.61 1635.09C1599.58 1635.09 1599.66 1638 1600.06 1640.16C1600.21 1640.93 1600.1 1641.66 1599.73 1642.36C1599.4 1643.01 1598.85 1643.44 1598.09 1643.63C1588.46 1646.08 1582.1 1649.23 1582.07 1660.67C1582 1683.16 1581.94 1704.97 1581.89 1726.11C1581.86 1744.32 1587.32 1763.09 1607.39 1768.23C1615.77 1770.38 1624.14 1770.21 1632.48 1767.71Z" fill="#EB242A"/>
<path d="M2091.01 1643.46C2080.07 1646.04 2074.58 1649.89 2074.53 1661.91C2074.43 1684.41 2074.42 1706.83 2074.49 1729.16C2074.58 1756.14 2091.48 1773.56 2118.94 1769.13C2143.77 1765.12 2150.3 1745.58 2150.06 1723.14C2149.84 1701.81 2149.78 1681.47 2149.88 1662.14C2149.95 1649.94 2142.84 1646.14 2132.54 1643.69C2132.18 1643.6 2131.85 1643.41 2131.61 1643.14C2131.36 1642.86 2131.2 1642.52 2131.16 1642.15C2130.91 1640.1 2131.21 1638.14 2132.04 1636.26C2132.21 1635.89 2132.48 1635.57 2132.83 1635.34C2133.17 1635.12 2133.58 1635 2133.99 1635L2182.28 1635.03C2182.74 1635.04 2183.2 1635.18 2183.57 1635.45C2183.95 1635.72 2184.22 1636.1 2184.37 1636.54C2185.03 1638.49 2185.17 1640.36 2184.8 1642.13C2184.66 1642.78 2184.28 1643.19 2183.66 1643.38C2174.29 1646.21 2167.99 1649.09 2167.89 1660.39C2167.69 1681.94 2167.65 1703.48 2167.77 1725.03C2167.97 1759.97 2149.42 1784.34 2113.81 1786.78C2084.81 1788.78 2055.38 1777.28 2045.51 1748.47C2043.22 1741.79 2042.19 1730.62 2042.4 1714.97C2042.69 1695.23 2042.67 1677.27 2042.34 1661.12C2042.12 1650.49 2036.85 1644.72 2026.54 1643.83C2025.45 1643.73 2024.94 1643.14 2025.01 1642.05L2025.3 1637.64C2025.41 1635.92 2026.34 1635.05 2028.08 1635.05L2089.63 1635.07C2090.5 1635.08 2091.12 1635.48 2091.48 1636.28C2092.18 1637.86 2092.5 1639.66 2092.44 1641.7C2092.42 1642.66 2091.94 1643.25 2091.01 1643.46Z" fill="#EB242A"/>
<path d="M2295.33 1710.96C2305.1 1712.08 2313.25 1716.74 2319.78 1724.93C2330.63 1738.57 2341.23 1752.03 2351.6 1765.3C2356.86 1772.04 2363.18 1776.24 2370.54 1777.9C2371.15 1778.04 2371.53 1778.4 2371.69 1778.99C2372.63 1782.35 2371.45 1784.41 2368.15 1785.19C2349.9 1789.42 2332.79 1786.78 2320.68 1771.39C2309.97 1757.77 2298.89 1743.57 2287.43 1728.78C2279.44 1718.44 2269.09 1715.49 2256.48 1715.72C2256.25 1715.72 2256.04 1715.81 2255.88 1715.97C2255.72 1716.13 2255.63 1716.34 2255.63 1716.57C2255.63 1729.2 2255.63 1742.28 2255.63 1755.81C2255.63 1770.8 2266.2 1773.18 2278.34 1775.23C2279.61 1775.43 2280.17 1776.19 2280.01 1777.48L2279.54 1780.94C2279.3 1782.76 2278.26 1783.68 2276.42 1783.68L2209.44 1783.8C2208.66 1783.8 2207.91 1783.51 2207.33 1782.97C2206.76 1782.44 2206.41 1781.7 2206.35 1780.92L2206.11 1777.76C2205.98 1776.16 2206.71 1775.25 2208.3 1775.02C2220.86 1773.11 2223.9 1766.9 2223.93 1754.76C2224.01 1726.82 2224.02 1698.18 2223.95 1668.84C2223.91 1654.5 2222.91 1647.16 2207.66 1642.84C2207.21 1642.71 2206.81 1642.45 2206.52 1642.09C2206.23 1641.72 2206.06 1641.28 2206.02 1640.81C2205.92 1639.03 2206.15 1637.26 2206.7 1635.5C2206.96 1634.68 2207.51 1634.3 2208.35 1634.37C2226.38 1635.7 2244.33 1635.75 2262.19 1634.53C2281.71 1633.21 2310.68 1633.16 2325.12 1649.26C2333.51 1658.62 2336 1670.25 2332.6 1684.13C2328.54 1700.7 2311.64 1710.02 2295.31 1710.27C2295.11 1710.27 2295.01 1710.36 2295 1710.56V1710.58C2294.99 1710.81 2295.1 1710.94 2295.33 1710.96ZM2264.03 1647.75C2257.02 1649.14 2255.72 1656.31 2255.68 1662.3C2255.62 1675.41 2255.61 1689.13 2255.63 1703.48C2255.63 1703.74 2255.73 1704 2255.91 1704.19C2256.09 1704.38 2256.34 1704.49 2256.6 1704.5C2265.37 1704.92 2273.86 1704.46 2282.07 1703.13C2291.95 1701.52 2299.37 1697.11 2300.79 1685.97C2303.83 1662.07 2289.64 1642.7 2264.03 1647.75Z" fill="#EB242A"/>
<path d="M1841.78 1754.49C1840.06 1763.04 1836.67 1770.75 1831.06 1777.4C1826.76 1782.48 1821.87 1784.28 1815.44 1783.97C1779.24 1782.24 1745.07 1782.17 1712.95 1783.78C1711.32 1783.86 1710.44 1783.08 1710.32 1781.46L1710.01 1777.33C1709.9 1775.59 1710.69 1774.57 1712.41 1774.27C1725.73 1771.9 1732.43 1765.72 1732.49 1755.72C1732.73 1722.33 1732.74 1691.16 1732.55 1662.21C1732.47 1651.29 1727.1 1645.19 1716.46 1643.9C1716.12 1643.86 1715.78 1643.74 1715.48 1643.57C1715.17 1643.4 1714.91 1643.17 1714.69 1642.9C1714.48 1642.62 1714.32 1642.31 1714.23 1641.97C1714.14 1641.64 1714.12 1641.29 1714.17 1640.94L1714.6 1637.54C1714.81 1635.87 1715.76 1635.03 1717.45 1635.03L1779.2 1635C1779.84 1634.99 1780.46 1635.23 1780.93 1635.66C1781.4 1636.1 1781.69 1636.69 1781.74 1637.33L1782.02 1641.15C1782.06 1641.73 1781.88 1642.31 1781.51 1642.77C1781.15 1643.22 1780.63 1643.53 1780.05 1643.62C1767.36 1645.71 1764 1652.8 1764.11 1664.92C1764.33 1693.96 1764.38 1724.24 1764.26 1755.77C1764.23 1764.53 1768.46 1769.37 1776.96 1770.28C1800.05 1772.75 1818.88 1765.6 1833.44 1748.84C1834.25 1747.91 1835.27 1747.48 1836.52 1747.56C1840.9 1747.83 1842.65 1750.14 1841.78 1754.49Z" fill="#EB242A"/>
</svg>
