<?xml version="1.0" encoding="UTF-8"?>
<svg id="Layer_1" xmlns="http://www.w3.org/2000/svg" version="1.1" viewBox="0 0 893 135.3">
  <!-- Generator: Adobe Illustrator 29.1.0, SVG Export Plug-In . SVG Version: 2.1.0 Build 142)  -->
  <defs>
    <style>
      .st0 {
        fill: #f6921e;
      }

      .st1 {
        fill: #db5c1e;
      }

      .st2 {
        fill: #2e9d41;
      }

      .st3 {
        isolation: isolate;
      }

      .st4 {
        fill: #7b8c95;
      }

      .st5 {
        fill: #a5cd39;
      }

      .st6 {
        fill: #ffca05;
      }
    </style>
  </defs>
  <polygon class="st4" points="126.7 130.1 126.7 117 132.8 117 132.8 119.8 129.8 119.8 129.8 121.5 133.6 121.5 133.6 124.1 129.8 124.1 129.8 130.1 126.7 130.1"/>
  <path class="st4" d="M150.5,123.6c.1.6.1,1.2,0,1.9h-7.1c0,0,0-.1,0-.2h0c0-.7,0-1,.2-1.3.1-.3.3-.5.6-.7h3.5c0-.4-.3-.6-.6-.8-.3-.2-.8-.3-1.4-.3-.7,0-1.3,0-1.8.4-.5.4-.9.9-1.1,1.7-.2.7-.2,1.4.2,2.1.3.6.8,1.1,1.5,1.4.7.3,1.7.3,2.9.2.1,0,.2,0,.3,0,.1,0,.2,0,.3,0v2.5c-.6.2-1.3.3-1.9.3-.8,0-1.4,0-2-.2-.6-.2-1.1-.4-1.7-.7-.3-.2-.6-.4-.9-.7-.2-.2-.5-.5-.6-.7-.2-.3-.3-.6-.4-.9s-.2-.7-.3-1.1c-.1-.5-.1-1.1,0-1.7,0-.2,0-.4.1-.7,0-.3.2-.6.3-.9.1-.3.2-.5.4-.8.1-.2.3-.5.5-.7.2-.2.5-.5.8-.7.5-.4,1-.7,1.6-.8.6-.2,1.3-.3,2-.3.2,0,.4,0,.7,0,.2,0,.4,0,.6.1,1,.3,1.9.8,2.4,1.4.6.6,1,1.4,1.2,2.4"/>
  <path class="st4" d="M157.6,120.7c0,0,.1,0,.2-.1,0,0,.1,0,.2-.1.7-.4,1.3-.7,2-.8s1.3-.2,2.1,0c0,0,.2,0,.3,0,0,0,.2,0,.2,0v2.5h-.2s-.2,0-.2,0c-.1,0-.2,0-.4,0-.4,0-.7,0-.9,0-.2,0-.4.2-.6.4v7.5h-2.7v-9.4h0Z"/>
  <path class="st4" d="M170.3,118.2c-.3,0-.6-.2-.8-.4-.2-.2-.4-.5-.4-.8,0-.3,0-.6.2-1,.2-.3.4-.5.6-.6s.6-.1,1.1,0c.4,0,.8.3,1,.6.2.3.3.8.1,1.2-.1.3-.3.6-.6.8-.3.2-.7.2-1.2.2M169.2,130.1v-10.3h2.7v10.3h-2.7Z"/>
  <path class="st4" d="M183.5,122.9c.2,0,.5,0,.7,0s.5,0,.7,0v2.3c0,0-.2,0-.3,0h-.3c-.5,0-.9,0-1.2,0-.3,0-.5,0-.7.2-.2,0-.3.2-.4.3-.1.1-.2.3-.2.4,0,.2,0,.3,0,.4,0,.2,0,.3.1.4.1.2.4.4.7.6.3.1.8.2,1.4.2.4,0,.7,0,1-.1s.6-.2.8-.4v-4c0-.6-.1-.9-.3-1.1s-.6-.3-1.2-.3h-1s-.1,0-.1,0c-.2,0-.5,0-.7,0-.2,0-.4,0-.6,0v-2.4l.6-.2h.2s0,0,0,0c0,0,.1,0,.2,0,.9-.1,1.7-.2,2.3,0,.6,0,1.2.2,1.6.4.4.2.8.5,1.1.9.2.4.4.8.5,1.3,0,.2,0,.4,0,.6v6.7c-.2.1-.4.2-.6.2-.2,0-.4.1-.6.2-.2,0-.5.1-.8.2-.3,0-.7.1-1.1.2-.2,0-.4,0-.6,0-.2,0-.4,0-.5,0-.9,0-1.7,0-2.3-.2-.6-.2-1.1-.4-1.6-.7-.5-.4-.9-.8-1.1-1.2-.2-.4-.3-1-.3-1.6,0-1.1.4-2,1.1-2.6.7-.6,1.8-.9,3.2-1"/>
  <rect class="st4" x="208.9" y="117" width="3.1" height="13.1"/>
  <path class="st4" d="M219.5,130.1v-9.5c.1,0,.2,0,.3-.2.1,0,.2,0,.3-.1h.3c0-.1.4-.2.4-.2.1,0,.3,0,.4-.1.1,0,.3,0,.4-.1.6-.1,1-.2,1.4-.3.4,0,.8,0,1.1,0,.8,0,1.4,0,1.9.2.5.1.9.3,1.3.6.3.3.6.6.8,1.1.2.4.3,1,.4,1.6,0,0,0,.2,0,.2v6.9h-2.7v-6.6c0-.1,0-.2,0-.3,0-.2-.1-.5-.2-.6s-.2-.3-.4-.4c-.2,0-.4-.1-.7-.2-.3,0-.6,0-1,0-.2,0-.4,0-.6,0-.2,0-.4,0-.7.2v7.8h-2.7,0Z"/>
  <path class="st4" d="M235.9,127.7c0-.2,0-.4,0-.6v-10.1h2.7v2.8h2.9v2.5h-2.9v4.3c0,.4.1.7.4.9s.7.2,1.4.2c0,0,.1,0,.2,0,0,0,.1,0,.2,0v2.4c-.2,0-.4,0-.7.1-1.3.1-2.3,0-2.9-.5-.6-.4-1.1-1.1-1.2-2"/>
  <path class="st4" d="M258,123.6c.1.6.1,1.2,0,1.9h-7.1c0,0,0-.1,0-.2h0c0-.7,0-1,.2-1.3s.3-.5.6-.7h3.5c0-.4-.3-.7-.6-.8-.3-.2-.8-.3-1.4-.4-.7,0-1.3,0-1.8.4s-.9.9-1.1,1.7c-.2.7-.2,1.4.2,2.1.3.6.8,1.1,1.5,1.4.7.3,1.7.3,2.9.2,0,0,.2,0,.3,0,.1,0,.2,0,.3,0v2.5c-.6.2-1.3.2-1.9.2-.7,0-1.4,0-2-.2-.6-.2-1.1-.4-1.7-.7-.4-.2-.6-.4-.9-.7-.2-.2-.5-.5-.6-.7-.2-.3-.3-.6-.4-.9s-.2-.7-.3-1.1c-.1-.5-.1-1.1,0-1.7,0-.2,0-.4.1-.7,0-.3.2-.6.3-.9s.2-.5.4-.8.3-.5.5-.7c.2-.2.5-.4.8-.7.5-.4,1-.7,1.6-.8.6-.2,1.3-.3,2-.3.2,0,.4,0,.7,0,.2,0,.4,0,.6.1,1,.3,1.9.8,2.4,1.4.6.6,1,1.4,1.2,2.4"/>
  <path class="st4" d="M265.1,120.7c0,0,.1,0,.2-.1,0,0,.1,0,.2-.1.7-.4,1.3-.7,2-.8.6-.1,1.3-.2,2.1,0,0,0,.2,0,.3,0s.2,0,.2,0v2.5h-.2s-.2,0-.2,0c-.1,0-.2,0-.4,0-.4,0-.7,0-.9,0-.2,0-.4.2-.6.4v7.5h-2.7v-9.4h0Z"/>
  <path class="st4" d="M280,130.1v-9.4c.1,0,.2-.1.3-.2s.2,0,.3-.1h.3c0-.1.4-.2.4-.2.1,0,.3,0,.4-.1s.3,0,.4-.1c.5-.1,1-.2,1.4-.3.4,0,.8,0,1.1,0,.7,0,1.4,0,1.9.2.5.1,1,.3,1.3.6.3.3.6.6.8,1.1.2.4.3,1,.4,1.6,0,0,0,.2,0,.2v6.9h-2.7v-6.7c0,0,0-.2,0-.2,0-.3-.1-.5-.2-.6s-.2-.3-.4-.4c-.2,0-.4-.1-.7-.2-.3,0-.6,0-1,0-.2,0-.4,0-.6,0-.2,0-.4,0-.7.2v7.8h-2.7Z"/>
  <path class="st4" d="M300.5,123c.2,0,.5,0,.7,0,.2,0,.5,0,.7,0v2.3c-.1,0-.2,0-.3,0h-.3c-.5,0-.9,0-1.2,0s-.5,0-.7.2c-.2,0-.3.2-.4.3-.1.1-.2.2-.2.4,0,.2,0,.3,0,.4,0,.2,0,.3.1.4.1.2.4.4.7.6.3.1.8.2,1.4.2.4,0,.7,0,1-.1.3,0,.5-.2.8-.4v-4c0-.5-.1-.9-.3-1.1s-.6-.3-1.2-.3h-1s-.1,0-.1,0c-.2,0-.5,0-.7,0s-.4,0-.6,0v-2.4h.6c0-.1.2-.2.2-.2,0,0,0,0,0,0,0,0,.1,0,.2,0,.9-.1,1.7-.2,2.3,0,.6,0,1.2.2,1.6.4.4.2.8.5,1,.9.3.4.4.8.5,1.3,0,.2,0,.4,0,.6v6.7c-.2,0-.4.2-.6.2-.2,0-.4.1-.6.2-.2,0-.5.1-.8.2-.3,0-.7.1-1.1.2-.2,0-.4,0-.6,0-.2,0-.4,0-.5,0-.9,0-1.7,0-2.3-.2-.6-.2-1.1-.4-1.6-.7-.5-.4-.9-.8-1.1-1.2-.2-.4-.3-1-.3-1.6,0-1.1.5-2,1.1-2.6.7-.6,1.8-.9,3.2-1"/>
  <path class="st4" d="M319.9,119.8v2.4l-1.3-.2h-.1c0,0-.2,0-.3,0-.1,0-.2,0-.4,0-.3,0-.6.1-.8.2-.2,0-.4.2-.6.4-.3.3-.5.6-.7,1-.2.4-.2.8-.2,1.3,0,.5.2.9.4,1.3.2.4.6.7,1,.9.4.2,1,.4,1.6.4s1.4,0,2.2-.2c.2,0,.4,0,.5-.1v2.5c-.2,0-.3.1-.5.2-.2,0-.4,0-.6.1-.2,0-.5,0-.8,0s-.6,0-1,0-.4,0-.6,0c-.2,0-.4,0-.5,0-1.5-.3-2.6-1-3.3-1.9-.7-.9-1.1-2-1.1-3.4s0-.8.1-1.2c0-.4.2-.7.3-1,.1-.3.3-.6.4-.9.3-.5.6-.8,1-1.1s.8-.6,1.4-.8c.4-.2.8-.3,1.2-.3.4,0,1,0,1.5,0,.1,0,.2,0,.4,0,.1,0,.2,0,.4,0,0,0,.1,0,.2,0h.3c0,0,0,0,0,0Z"/>
  <path class="st4" d="M329.1,118.2c-.3,0-.6-.2-.8-.4-.2-.2-.4-.5-.4-.8,0-.3,0-.6.2-1,.1-.3.4-.5.6-.6.3-.1.6-.1,1.1,0,.5,0,.8.3,1,.6.2.3.3.8.1,1.2,0,.3-.3.6-.6.8-.3.2-.7.2-1.2.2M328,119.8h2.7v10.4h-2.7v-10.4Z"/>
  <path class="st4" d="M340.8,124.9c0,.6.1,1.2.4,1.7.3.4.6.7,1,.9.4.2.8.3,1.3.3s.9-.1,1.3-.3c.4-.2.7-.5,1-.9.2-.3.3-.7.4-1.1,0-.4,0-.8,0-1.2s-.2-.7-.5-1c-.4-.5-.7-.8-1.2-1s-.9-.2-1.4-.1c-.6.1-1.2.5-1.6,1.1-.2.2-.3.5-.4.8s-.1.6-.1.9M338,125.8c0-.3,0-.6,0-1,0-.9.2-1.7.7-2.4.4-.8,1-1.4,1.8-1.9.8-.6,1.9-.9,3-.9s2.8.5,3.8,1.5c.7.6,1.1,1.3,1.4,2.2.3.8.4,1.7.2,2.6-.1.7-.3,1.3-.6,1.9s-.7,1.1-1.2,1.5c-.5.4-1,.7-1.7,1-.6.2-1.3.3-2,.3s-1.4-.1-2-.4c-.6-.2-1.2-.6-1.7-1s-.9-.9-1.2-1.5c-.3-.6-.5-1.2-.6-1.9"/>
  <path class="st4" d="M356.2,130.1v-9.5c.1,0,.2-.1.3-.2.1,0,.2,0,.3-.1h.3c0-.1.4-.2.4-.2.1,0,.3,0,.4-.1.1,0,.2,0,.4-.1.5-.1,1-.2,1.5-.3s.8,0,1.1,0c.7,0,1.4,0,1.9.2.5.1,1,.3,1.3.6.3.3.6.6.8,1.1.2.4.3,1,.4,1.6,0,0,0,.2,0,.2v6.9h-2.7v-6.6c0-.1,0-.2,0-.2,0-.3-.1-.5-.2-.6,0-.2-.2-.3-.4-.4-.2,0-.4-.1-.7-.2-.3,0-.6,0-1,0-.2,0-.4,0-.6,0-.2,0-.4,0-.7.2v7.8h-2.7Z"/>
  <path class="st4" d="M376.7,123c.2,0,.5,0,.7,0,.2,0,.5,0,.7,0v2.3c-.1,0-.2,0-.3,0h-.3c-.5,0-.9,0-1.2,0-.3,0-.5,0-.7.2-.2,0-.3.2-.4.3-.1.1-.2.2-.2.4,0,.2,0,.3,0,.4,0,.2,0,.3.1.4.1.2.4.4.7.6.3.1.8.2,1.4.2.4,0,.7,0,1-.1.3,0,.5-.2.8-.4v-4c0-.6-.1-.9-.3-1.1-.2-.2-.6-.3-1.2-.3h-1s-.1,0-.1,0c-.2,0-.5,0-.7,0s-.5,0-.7,0v-2.4l.6-.2h.3s0,0,0,0,.1,0,.2,0c.9-.1,1.6-.2,2.3,0,.6,0,1.2.2,1.6.4.4.2.8.5,1,.9.3.4.4.8.5,1.3,0,.2,0,.4,0,.6v6.6c-.2,0-.4.2-.6.2-.2,0-.4.1-.6.2-.2,0-.5.1-.8.2-.3,0-.7.1-1.1.1-.2,0-.4,0-.6,0-.2,0-.4,0-.5,0-.9,0-1.7,0-2.3-.2s-1.1-.4-1.6-.7c-.5-.4-.9-.8-1.1-1.2-.2-.4-.3-1-.3-1.6,0-1.1.4-2,1.1-2.6s1.8-.9,3.2-1"/>
  <rect class="st4" x="389.2" y="114.7" width="2.7" height="15.5"/>
  <path class="st4" d="M421.3,119.7c.1,0,.2,0,.3,0,0,0,.2,0,.3,0h0v2.3c0,0-.2,0-.2,0,0,0-.2,0-.2,0-1.1,0-1.9,0-2.4.5-.6.4-.8,1.1-.9,2.1,0,.9.1,1.6.5,2.1.4.5.9.8,1.7,1,.3,0,.5.1.9.1s.7,0,1.1-.1c0,0,.1,0,.2,0,0,0,.1,0,.2,0v-13h2.7v15c-1.1.4-2.2.6-3.3.7-.1,0-.3,0-.4,0h-.4c-.8,0-1.5,0-2-.2-.6-.1-1.1-.3-1.5-.6s-.8-.6-1.1-1-.6-.9-.8-1.5c-.1-.3-.2-.6-.3-.9,0-.3-.1-.7-.1-1.2,0-.2,0-.3,0-.5,0-.2,0-.3,0-.5.2-1.5.8-2.7,1.8-3.4,1-.8,2.4-1.1,4.1-.9"/>
  <path class="st4" d="M443.1,123.6c.1.6.1,1.2,0,1.9h-7.1c0,0,0-.1,0-.2v-.2c0-.5,0-.9.2-1.2.1-.3.3-.5.6-.7h3.5c0-.4-.3-.7-.6-.8-.3-.2-.8-.3-1.4-.4-.7,0-1.3,0-1.8.4-.5.3-.9.9-1,1.7-.2.7-.2,1.4.2,2,.3.6.8,1.1,1.5,1.4.7.3,1.7.3,2.9.2,0,0,.2,0,.3,0,.1,0,.2,0,.3,0v2.5c-.6.2-1.3.2-1.9.2-.8,0-1.4,0-2-.2-.6-.1-1.1-.4-1.7-.7-.4-.2-.6-.4-.9-.7-.3-.2-.5-.5-.6-.7-.2-.3-.3-.6-.5-.9-.1-.3-.2-.7-.3-1.1-.1-.5-.1-1.1,0-1.7,0-.2,0-.4.1-.7,0-.3.2-.6.3-.9s.2-.5.4-.8c.1-.2.3-.5.5-.7.2-.2.5-.4.8-.7.5-.4,1-.7,1.6-.8.6-.2,1.3-.3,2-.3.2,0,.5,0,.7,0,.2,0,.4,0,.6.1,1,.3,1.9.8,2.4,1.4.6.6,1,1.4,1.2,2.4"/>
  <polygon class="st4" points="467.3 130.2 472.4 117.1 475.8 117.1 480.2 130.2 477 130.2 475.8 126.1 472.9 126.1 473.8 123.3 474.9 123.3 474 120 470.4 130.2 467.3 130.2"/>
  <rect class="st4" x="486.7" y="114.7" width="2.7" height="15.5"/>
  <path class="st4" d="M497.9,118.3c-.3,0-.6-.2-.8-.4-.2-.2-.4-.5-.4-.8,0-.3,0-.6.2-1,.2-.3.4-.5.6-.6.3-.1.6-.2,1.1,0,.5,0,.8.3,1,.6.2.3.3.8.1,1.2,0,.3-.3.6-.6.8s-.7.2-1.2.2M496.8,119.8h2.7v10.3h-2.7v-10.3Z"/>
  <path class="st4" d="M507,130.2v-9.5l.7-.3s0,0,.2,0c.1,0,.3-.1.5-.2.1,0,.3-.1.5-.2.2,0,.5-.1.9-.2.1,0,.3,0,.4,0,.1,0,.2,0,.4,0,.9-.1,1.7-.1,2.3,0,.6.1,1.1.3,1.6.7h.3c0-.1.3-.2.3-.2h.3c0,0,0,0,0-.1s.1,0,.2,0c.8-.3,1.5-.4,2.3-.3,0,0,.2,0,.3,0,0,0,.2,0,.2,0,.6,0,1.2.2,1.6.4.4.2.8.5,1,.8.3.3.5.8.6,1.3.1.5.2,1.2.2,1.9v6.2h-3.1v-7.1c0-.3-.2-.5-.5-.8-.2,0-.3-.2-.6-.2-.2,0-.5,0-.8,0-.4,0-.8.2-1.2.4v7.6h-2.7v-6.6c0-.6-.1-1-.4-1.3-.2-.2-.7-.3-1.4-.2-.3,0-.6.1-.9.2,0,0-.1,0-.2,0,0,0-.1,0-.2.1v7.6h-2.7,0Z"/>
  <path class="st4" d="M539.5,123.6c.1.6.1,1.2,0,1.8h-7.1c0,0,0-.1,0-.2h0c0-.7,0-1,.2-1.3s.3-.5.6-.7h3.5c0-.4-.3-.7-.6-.8-.3-.2-.8-.3-1.4-.4-.7,0-1.3,0-1.8.4s-.8.9-1,1.7c-.2.7-.2,1.4.2,2.1.3.6.8,1.1,1.5,1.4s1.7.3,2.9.2c0,0,.2,0,.3,0,0,0,.2,0,.3,0v2.5c-.6.2-1.3.2-1.9.2-.8,0-1.4,0-2-.2s-1.1-.4-1.7-.7c-.3-.2-.6-.4-.9-.7-.2-.2-.5-.5-.7-.7-.2-.3-.3-.6-.5-.9s-.2-.7-.3-1.1c-.1-.5-.1-1.1,0-1.7,0-.2,0-.4,0-.7,0-.3.2-.6.3-.9.1-.3.2-.5.4-.8.2-.2.3-.5.5-.7.2-.2.5-.4.7-.7.5-.4,1-.7,1.6-.8.6-.2,1.3-.3,2-.3.2,0,.5,0,.7,0,.2,0,.4,0,.6.1,1,.3,1.9.8,2.4,1.4.6.6,1,1.4,1.2,2.4"/>
  <path class="st4" d="M546.7,130.2v-9.5c0,0,.2,0,.3-.1,0,0,.2,0,.3-.1h.3c0-.1.4-.2.4-.2.1,0,.3,0,.4-.1.1,0,.3,0,.4-.1.5-.1,1-.2,1.5-.3.4,0,.8,0,1.1,0,.8,0,1.4,0,1.9.2.5.1,1,.3,1.3.6.3.3.6.6.8,1.1.2.4.3,1,.3,1.6,0,0,0,.2,0,.2v6.9h-2.7v-6.6c0,0,0-.2,0-.2,0-.2,0-.5-.2-.6,0-.2-.2-.3-.4-.4-.2,0-.4-.1-.7-.2-.3,0-.6,0-1,0-.2,0-.4,0-.6,0-.2,0-.4,0-.7.2v7.7h-2.7Z"/>
  <path class="st4" d="M563.1,127.8c0-.2,0-.4,0-.6v-10.1h2.7v2.8h3v2.5h-3v4.3c0,.4.2.7.4.9.3.2.7.2,1.4.2,0,0,.1,0,.2,0,0,0,0,0,.2,0v2.4c-.2,0-.4,0-.7.1-1.3.1-2.3,0-2.9-.5-.7-.4-1-1.1-1.2-2"/>
  <path class="st4" d="M577.5,124.9c0,.6.1,1.2.4,1.7.3.4.6.7,1,.9.4.2.8.3,1.3.3s.9-.1,1.3-.3.7-.5,1-.9c.2-.3.3-.7.4-1.1,0-.4,0-.8,0-1.2,0-.4-.2-.7-.5-1-.3-.5-.7-.8-1.2-1-.5-.2-.9-.2-1.4-.1-.6.1-1.2.5-1.7,1.1-.2.2-.3.5-.4.8,0,.3-.1.6-.2.9M574.7,125.8c0-.3,0-.6,0-1,0-.9.2-1.7.7-2.5s1-1.4,1.8-1.9c.8-.6,1.9-.9,3-.9s2.8.5,3.8,1.5c.7.6,1.1,1.3,1.4,2.2.3.8.4,1.7.2,2.6,0,.7-.3,1.3-.6,1.9-.3.6-.7,1.1-1.2,1.5-.5.4-1,.7-1.7.9-.6.2-1.3.3-2,.3s-1.4-.1-2-.3c-.6-.2-1.2-.6-1.7-1-.5-.4-.9-.9-1.2-1.5-.3-.6-.5-1.2-.6-1.9"/>
  <path class="st4" d="M594.9,130.4c-.8,0-1.7-.1-2.4-.4v-2.4c0,0,.1,0,.2,0,0,0,.1,0,.2,0,.7.2,1.2.2,1.8.2s1,0,1.3-.1c.9-.3,1.2-.7.8-1.4,0-.1-.1-.2-.2-.3-.1,0-.3-.2-.5-.3-.2-.1-.4-.2-.5-.3-.1,0-.2-.1-.3-.2,0,0-.2-.1-.3-.2-.1,0-.3-.2-.5-.3,0,0-.2,0-.3-.2,0,0-.2-.2-.3-.3-.3-.2-.5-.5-.6-.8,0-.2-.2-.6-.2-.9,0-.6,0-1.1.2-1.4.2-.4.5-.7,1-1,.2-.2.5-.3.9-.4.3,0,.8-.2,1.3-.2.6,0,1.2,0,1.8.2v2.2c-.4,0-.8,0-1.3-.1h-.6c0,0-.2,0-.3,0-.2,0-.3.2-.4.3,0,.2,0,.3,0,.5,0,0,.2.2.3.3l.8.3s.1,0,.3.1.5.2.8.3c.3.1.6.3.9.6.2.2.4.5.5.8.1.3.2.7.3,1.1,0,.8-.1,1.4-.5,2.1-.4.6-1.1,1.1-1.9,1.4-.3.1-.6.2-1,.3-.4,0-.8,0-1.4,0"/>
  <path class="st4" d="M605.7,131.9h-1.1l.7-1.7c-.2,0-.3,0-.5,0-.4,0-.8-.2-1-.5-.2-.3-.3-.6-.3-1,0-.3.1-.6.3-.8.2-.2.5-.4.9-.5.2,0,.5,0,.8,0,.7,0,1.1.4,1.3.8.2.4,0,1.1-.2,2,0,.1,0,.2,0,.3h0c0,.1-.3.7-.3.7l-.3.7h0Z"/>
  <polygon class="st4" points="624.7 119.8 624.7 117.1 633.2 117.1 633.2 119.8 630.5 119.8 630.5 130.2 627.4 130.2 627.4 119.8 624.7 119.8"/>
  <path class="st4" d="M644,123c.2,0,.5,0,.7,0,.2,0,.5,0,.7,0v2.3c0,0-.2,0-.3,0h-.3c-.5,0-.9,0-1.2,0-.3,0-.5,0-.7.2-.2,0-.3.2-.4.3,0,.1-.2.3-.2.4s0,.3,0,.4c0,.2,0,.3.1.4.2.2.4.4.7.5.3.1.8.2,1.4.2.4,0,.7,0,1-.1.3,0,.5-.2.8-.4v-3.9c0-.6-.1-.9-.3-1.1-.2-.2-.6-.3-1.2-.3h-1s-.2,0-.2,0c-.2,0-.5,0-.7,0s-.4,0-.7,0v-2.4h.6c0-.1.2-.2.2-.2,0,0,0,0,0,0,0,0,.1,0,.2,0,.9-.1,1.7-.2,2.3,0,.7,0,1.2.2,1.6.4.4.2.8.5,1,.9s.4.8.5,1.3c0,.2,0,.4,0,.6v6.7c-.2.1-.4.2-.6.2-.2,0-.4.1-.6.2-.2,0-.5.1-.8.2-.3,0-.7.1-1.1.2-.2,0-.4,0-.6,0-.2,0-.3,0-.5,0-.9,0-1.7,0-2.3-.2s-1.1-.4-1.6-.7c-.5-.4-.9-.8-1.1-1.2-.2-.4-.3-1-.3-1.6,0-1.1.4-2,1.2-2.6s1.8-.9,3.2-1"/>
  <path class="st4" d="M656.4,114.7h2.7v13c.1,0,.2,0,.4,0,.1,0,.2,0,.4,0,.6,0,1.2.1,1.7,0,.5,0,.9-.3,1.2-.5.3-.3.6-.6.7-1s.2-.9.2-1.4c0-1.1-.3-1.9-.8-2.3-.5-.5-1.4-.7-2.5-.6,0,0-.2,0-.3,0,0,0-.2,0-.3,0v-2.4c0,0,.2,0,.3,0s.2,0,.3,0c3.6-.3,5.7,1.2,6.1,4.7,0,.4,0,.8,0,1.3s-.2.9-.3,1.3c-.1.3-.2.6-.3.8,0,.2-.2.4-.3.6-.1.2-.3.3-.4.5-.2.1-.3.3-.6.5-.7.5-1.6.9-2.6,1.1-1,.2-2.3,0-3.8-.2-.4,0-.7-.2-1-.2-.2,0-.5-.2-.8-.3v-14.9h0Z"/>
  <path class="st4" d="M678,123c.2,0,.5,0,.7,0s.5,0,.7,0v2.3c0,0-.2,0-.3,0h-.3c-.5,0-.9,0-1.2,0-.3,0-.5,0-.7.2-.2,0-.3.2-.4.3-.1.1-.2.2-.2.4s0,.3,0,.4c0,.2,0,.3.1.4.2.2.4.4.7.6.3.1.8.2,1.4.2.4,0,.7,0,1-.1.3,0,.5-.2.8-.4v-4c0-.6-.1-.9-.3-1.1-.2-.2-.6-.3-1.2-.3h-1s-.2,0-.2,0c-.2,0-.5,0-.7,0s-.4,0-.7,0v-2.4h.6c0-.1.3-.2.3-.2,0,0,0,0,0,0,0,0,.1,0,.2,0,.9-.1,1.7-.2,2.3,0,.7,0,1.2.2,1.6.4.4.2.8.5,1,.9.3.4.4.8.5,1.3,0,.2,0,.4,0,.6v6.7c-.2,0-.4.2-.6.2-.2,0-.4.1-.6.2-.2,0-.5.1-.8.2-.3,0-.7.1-1.1.2-.2,0-.4,0-.6,0-.2,0-.3,0-.5,0-.9,0-1.7,0-2.3-.2-.6-.2-1.1-.4-1.6-.7-.5-.4-.9-.8-1.1-1.2-.2-.4-.3-1-.3-1.6,0-1.1.5-2,1.2-2.6.7-.6,1.8-.9,3.2-1"/>
  <path class="st4" d="M697.3,119.8v2.4l-1.3-.2h0c0,0-.2,0-.3,0,0,0-.2,0-.4,0-.3,0-.6.1-.8.2-.2,0-.4.2-.6.4-.3.3-.5.6-.7,1-.2.4-.2.8-.2,1.3,0,.5.2.9.4,1.3.2.4.6.7,1,.9.4.2,1,.4,1.6.4.6,0,1.4,0,2.2-.2.2,0,.4,0,.5-.1v2.5c-.2,0-.3.1-.5.2-.2,0-.4,0-.6.1-.2,0-.5,0-.8,0s-.7,0-1,0-.4,0-.6,0c-.2,0-.3,0-.5,0-1.5-.3-2.6-1-3.3-1.9-.7-.9-1.1-2-1.1-3.4s0-.8.1-1.2c0-.4.2-.7.3-1,.1-.3.3-.6.4-.9.3-.5.6-.8,1-1.2.4-.3.8-.6,1.4-.8.4-.2.8-.3,1.2-.3.5,0,1,0,1.5,0,.1,0,.3,0,.4,0,.1,0,.2,0,.4,0,0,0,.1,0,.2,0,0,0,0,0,0,0h.2c0,0,0,0,0,0Z"/>
  <path class="st4" d="M708.1,124.9c0,.6.1,1.2.4,1.7.3.4.6.7,1,.9s.8.3,1.3.3.9-.1,1.3-.3.7-.5,1-.9c.2-.3.3-.7.4-1.1,0-.4,0-.8,0-1.2,0-.4-.2-.7-.5-1-.3-.5-.8-.8-1.2-1-.5-.2-.9-.2-1.4-.1-.6.1-1.2.5-1.7,1.1-.2.2-.3.5-.4.8,0,.3-.1.6-.2.9M705.3,125.8c0-.3,0-.6,0-1,0-.9.2-1.7.7-2.5s1-1.4,1.8-1.9c.8-.6,1.9-.9,3-.9s2.8.5,3.8,1.5c.7.6,1.1,1.3,1.4,2.2.3.8.4,1.7.2,2.6,0,.7-.3,1.3-.6,1.9-.3.6-.7,1.1-1.2,1.5-.5.4-1,.7-1.7.9s-1.3.3-2,.3-1.4-.1-2-.3c-.6-.2-1.2-.6-1.7-1-.5-.4-.9-.9-1.2-1.5-.3-.6-.5-1.2-.6-1.9"/>
  <path class="st4" d="M725.5,130.4c-.8,0-1.7-.1-2.4-.4v-2.4c0,0,.1,0,.2,0s.1,0,.2,0c.6.1,1.2.2,1.8.2s1,0,1.3-.1c.9-.3,1.2-.7.8-1.4,0-.1-.1-.2-.2-.3-.1-.1-.3-.2-.5-.3-.2-.1-.4-.2-.5-.3-.1,0-.2-.1-.3-.2s-.2-.1-.3-.2-.3-.2-.5-.3c0,0-.2,0-.3-.2,0,0-.2-.2-.3-.3-.3-.3-.5-.5-.6-.8-.1-.2-.2-.6-.2-.9,0-.6,0-1.1.2-1.4.2-.4.5-.7,1-1,.2-.2.5-.3.9-.4.3,0,.8-.2,1.3-.2.6,0,1.2,0,1.8.2v2.2c-.4,0-.8,0-1.3-.1h-.6c0,0-.2,0-.3,0-.2,0-.3.2-.4.3,0,.2,0,.3,0,.5,0,0,.2.2.3.3l.8.3s.1,0,.3.2c.2,0,.5.2.8.3.3.1.6.3.9.6.2.2.4.5.5.8.1.3.2.7.3,1.1,0,.8-.1,1.4-.5,2.1-.4.6-1.1,1.1-1.9,1.4-.3.1-.6.2-1,.3s-.8,0-1.4,0"/>
  <path class="st4" d="M749,119.9h2.7v6.4c0,0,0,.1,0,.2,0,0,0,0,0,.1,0,.4.3.8.6,1,.3.2.8.3,1.4.2.3,0,.6,0,1.1-.2,0,0,.1,0,.2,0,0,0,.1,0,.2,0v-7.6h2.7v12.3c0,.2,0,.4,0,.5,0,.5-.2.9-.5,1.2-.2.3-.5.6-.9.9s-.8.4-1.3.4-1.2.1-1.9,0c0,0-.2,0-.2,0,0,0-.2,0-.3,0v-2.4h.3c.4,0,.8,0,1,0,.3,0,.5,0,.6-.2.2-.1.3-.2.3-.4,0-.2,0-.4,0-.7v-1.8c-.3,0-.5.1-.8.2-.2,0-.5,0-.7.1-.7,0-1.3,0-1.7,0-.4,0-.8-.2-1.1-.4-.3-.2-.6-.3-.8-.5-.2-.2-.4-.4-.5-.6-.2-.2-.3-.5-.3-.7,0-.3-.2-.6-.2-.9,0,0,0-.1,0-.2v-7.1h0Z"/>
  <path class="st4" d="M776.2,130.2v-12.6c.7-.3,1.5-.5,2.3-.6,1-.1,1.9-.1,2.6,0s1.3.3,1.8.7c.5.3.8.7,1,1.2.2.5.2,1,.2,1.6,0,.3-.1.6-.2.8-.1.3-.3.5-.5.7.4,0,.7.2,1.1.5.6.4,1.1,1,1.4,1.8.3.8.3,1.6.2,2.5-.2.9-.5,1.6-1.1,2.2-.6.6-1.3,1-2.2,1.2-.5.1-1,.2-1.4.2s-.8,0-1.1-.2v-2.6c0,0,.1,0,.2,0s.1,0,.2,0c1,0,1.7-.2,2.1-.6s.5-1,.3-1.7c0-.4-.3-.7-.7-.9-.3-.2-.9-.4-1.7-.5,0,0-.1,0-.2,0h-.2v-2.3c.3,0,.5,0,.8-.3,0,0,.2-.2.2-.3,0-.2,0-.4,0-.6-.1-.2-.3-.3-.5-.4,0,0-.2,0-.4,0s-.4,0-.7,0c0,0-.1,0-.2,0v10.4h-3.1Z"/>
  <path class="st4" d="M803.4,123.7c.1.6.1,1.2,0,1.9h-7.1c0,0,0-.1,0-.2h0c0-.7,0-1.1.2-1.3s.3-.5.6-.7h3.5c0-.4-.3-.6-.6-.8-.3-.2-.8-.3-1.4-.4-.7,0-1.3,0-1.8.4-.5.3-.8.9-1,1.7-.2.7-.2,1.4.2,2.1.3.6.8,1.1,1.5,1.4.7.3,1.7.3,2.9.2,0,0,.2,0,.3,0,0,0,.2,0,.3,0v2.5c-.6.2-1.3.3-1.9.3-.8,0-1.4,0-2-.2-.6-.2-1.1-.4-1.7-.7-.3-.2-.6-.4-.9-.7-.2-.2-.5-.5-.6-.7-.2-.3-.3-.6-.5-.9s-.2-.7-.3-1.1c-.1-.5-.1-1.1,0-1.7,0-.2,0-.4.1-.7,0-.3.2-.6.3-.9,0-.3.2-.5.4-.8.2-.2.3-.5.5-.7.2-.2.5-.5.8-.7.5-.4,1-.7,1.6-.8.6-.2,1.3-.3,2-.3.2,0,.5,0,.7,0,.2,0,.4,0,.7.1,1,.3,1.8.8,2.4,1.4.6.6,1,1.4,1.2,2.4"/>
  <path class="st4" d="M810.6,114.8h2.7v13c.1,0,.2,0,.4,0,.1,0,.2,0,.4,0,.6,0,1.2,0,1.7,0,.5,0,.9-.2,1.2-.5.3-.3.6-.6.7-1,.2-.4.2-.9.2-1.4,0-1.1-.3-1.9-.8-2.3-.5-.5-1.4-.7-2.5-.6,0,0-.2,0-.3,0s-.2,0-.3,0v-2.4c.1,0,.2,0,.3,0,0,0,.2,0,.3,0,3.6-.3,5.7,1.2,6,4.7,0,.4,0,.9,0,1.3,0,.4-.2.9-.3,1.3-.1.3-.2.6-.3.8-.1.2-.2.4-.3.6-.1.2-.3.3-.4.5-.2.1-.3.3-.6.5-.7.6-1.6.9-2.6,1.1s-2.3,0-3.8-.2c-.4,0-.7-.2-1-.2-.2,0-.5-.2-.8-.3v-14.9h0Z"/>
  <path class="st4" d="M829,118.3c-.3,0-.6-.2-.8-.4-.2-.2-.4-.4-.4-.8,0-.3,0-.6.2-1,.2-.3.4-.5.6-.6.3-.1.6-.1,1.1,0,.5,0,.8.3,1,.6.2.3.3.8.1,1.2,0,.3-.3.6-.6.8-.3.2-.7.2-1.2.2M828,119.9h2.7v10.3h-2.7v-10.3Z"/>
  <path class="st4" d="M843.8,119.8c0,0,.2,0,.3,0,0,0,.2,0,.3,0h0v2.3c0,0-.2,0-.2,0,0,0-.2,0-.2,0-1.1,0-1.9,0-2.4.6-.5.4-.8,1.1-.8,2.1,0,.9.2,1.6.5,2.1.3.5.9.8,1.7,1,.3,0,.5.1.9.1.3,0,.7,0,1.1-.1,0,0,.2,0,.2,0,0,0,.2,0,.2,0v-13h2.7v14.9c-1.1.4-2.2.6-3.3.7-.1,0-.3,0-.4,0h-.4c-.8,0-1.5,0-2-.2s-1.1-.3-1.5-.6-.8-.6-1.1-1-.6-.9-.8-1.5c-.1-.3-.2-.6-.3-.9,0-.3-.1-.7-.1-1.2,0-.2,0-.3,0-.5,0-.2,0-.3,0-.5.2-1.5.8-2.7,1.8-3.4s2.4-1.1,4.1-.9"/>
  <path class="st4" d="M859.5,123c.2,0,.5,0,.7,0,.2,0,.5,0,.7,0v2.3c0,0-.2,0-.3,0h-.3c-.5,0-.9,0-1.2,0-.3,0-.5,0-.7.2-.2,0-.3.2-.4.3,0,.1-.2.3-.2.4,0,.2,0,.3,0,.4,0,.2,0,.3.2.4.2.2.4.4.7.5s.8.2,1.4.2c.4,0,.7,0,1,0,.3,0,.5-.2.8-.4v-4c0-.6-.1-.9-.3-1.1-.2-.2-.6-.3-1.2-.3h-1s-.2,0-.2,0c-.2,0-.5,0-.7,0s-.5,0-.7,0v-2.4l.6-.2h.3s0,0,0,0c0,0,.1,0,.2,0,.9-.1,1.7-.2,2.3,0,.7,0,1.2.2,1.7.4.4.2.8.5,1,.9.3.4.4.8.5,1.3,0,.2,0,.4,0,.6v6.7c-.2.1-.4.2-.6.2-.2,0-.4.1-.6.2s-.5.1-.8.2c-.3,0-.7.1-1.1.2-.2,0-.4,0-.6,0-.2,0-.3,0-.5,0-.9,0-1.7,0-2.3-.2s-1.1-.4-1.6-.7c-.5-.4-.9-.8-1.1-1.2-.2-.4-.3-1-.3-1.6,0-1.1.5-2,1.2-2.6.7-.6,1.8-.9,3.2-1"/>
  <path class="st4" d="M874,130.4c-.8,0-1.7-.1-2.4-.3v-2.4c0,0,.1,0,.2,0s.1,0,.2,0c.7.2,1.2.2,1.8.2s1,0,1.3-.1c.9-.3,1.2-.7.8-1.4,0-.1-.2-.2-.2-.3-.1,0-.3-.2-.5-.3-.2-.1-.4-.2-.5-.3-.1,0-.2-.1-.3-.2-.1,0-.2-.1-.3-.2-.1,0-.3-.2-.5-.3,0,0-.2,0-.3-.2,0,0-.2-.2-.3-.3-.3-.2-.5-.5-.5-.8-.1-.2-.2-.6-.2-.9,0-.6,0-1.1.2-1.4.2-.4.5-.7,1-1.1.2-.2.5-.3.9-.4.3,0,.8-.2,1.3-.2.6,0,1.2,0,1.8.2v2.2c-.4,0-.8,0-1.3,0h-.5c0,0-.2,0-.3,0-.2,0-.3.2-.4.3,0,.2,0,.3,0,.5,0,0,.2.2.3.3l.8.3s.1,0,.3.1c.2,0,.5.2.8.3.3.1.6.3.9.6.2.2.4.5.5.8.2.3.2.7.3,1.1,0,.8-.1,1.5-.5,2.1s-1.1,1.1-1.9,1.4c-.3.1-.6.2-1,.2-.4,0-.8,0-1.4,0"/>
  <polygon class="st5" points="0 102.1 25.7 37.5 42.6 37.5 64.5 102.1 48.8 102.1 42.6 82.1 27.9 81.8 32.6 68.3 38.2 68.3 33.8 52 15.7 102.1 0 102.1"/>
  <path class="st5" d="M94.2,50.2c.5.1.9.2,1.3.3s.8.2,1.3.3c1.3-1.6,2.8-2.7,4.6-3.5,1.8-.8,4.2-1.2,7.1-1.2s.8,0,1.2,0,.8,0,1.2.1v11.6c-.4,0-.9.1-1.4.4s-1,.5-1.3.6-.6.3-.6.4c.2.4.5.7.7,1.1.2.4.4.7.6,1.1,1.2,2.1,2,4.1,2.3,6,.4,1.9.4,4.2,0,6.9-.1.5-.2.9-.2,1.3s0,.5,0,.5c0,0,0,0,0,.2,0,.2,0,.3,0,.4-.1.7-.4,1.4-.7,2.4-.4.9-.8,1.8-1.3,2.7-1.6,2.7-3.8,4.9-6.6,6.6-2.8,1.7-6.5,2.9-10.9,3.5-4.7.5-9,0-12.8-1.4-3.9-1.6-6.9-3.5-8.9-5.9-2-2.4-3.4-5.3-4.1-8.9-.8-4.2,0-8.7,2.1-13.4,1.6-3.5,3.7-6.2,6.1-8,2.4-1.9,5.7-3.2,9.6-4,1.6-.3,3.3-.4,5.1-.4,1.8,0,3.7.2,5.8.6M86.8,106.9c-2.1-.2-3.9-.5-5.4-.7-1.5-.2-2.8-.4-4-.7-1.2-.2-2.3-.5-3.3-.8-1-.3-2.1-.7-3.1-1.1l2.8-11.6c1.3.5,2.5,1,3.7,1.4s2.6.7,4.2.9c1.6.2,3.4.4,5.6.6s4.7.3,7.9.4c.8,0,1.8,0,2.8.3,5.6,1.3,9.5,3.7,11.8,7.3,2.3,3.6,2.9,7.7,1.8,12.4-.7,2.8-2,5.1-3.7,6.9-1.8,1.8-4.3,3.2-7.6,4.2-1.7.5-3.7.9-6,1.2-2.3.2-4.9.3-7.8,0-.4,0-.8-.1-1.2-.1-.4,0-.8,0-1.2-.1v-11.8c.3,0,.6,0,.8,0s.5,0,.8,0c1.3,0,2.3,0,3,0s1.4,0,2,0c1.7-.1,2.9-.2,3.6-.4.7-.2,1.3-.4,1.8-.8,1-.7,1.6-1.5,1.8-2.6.2-1.1-.1-2-.8-2.8-.5-.5-1.1-.9-1.8-1.2s-1.8-.5-3.3-.7c-.3,0-.6,0-.9,0s-.6,0-.9,0c-.5,0-1.1-.1-1.6-.1s-1,0-1.6-.1M79.1,72.4c.5,3.8,2.9,6.2,7.1,7.2,2.3.5,4.2.4,5.8-.3,4.7-2,6.4-5.9,5.1-11.7-.4-1.6-1.1-2.9-2.3-4-1.2-1-2.6-1.7-4.1-2-1.5-.3-3.3-.2-5.2.4-2,.6-3.5,1.6-4.6,3.1-1.1,1.5-1.7,3.3-1.8,5.5v.9c0,.2,0,.5.2.8"/>
  <path class="st5" d="M117.3,55.6c.4-.2.7-.5,1.1-.7.4-.2.7-.4,1.1-.6,3.3-1.9,6.6-3.2,9.9-3.9,3.2-.7,6.7-.8,10.4-.4.5,0,.9,0,1.4.1.4,0,.8.1,1.3.2v12.2h-1c0,0-.9,0-.9,0-.6,0-1.2,0-1.9,0-2,0-3.6.2-4.6.5s-2.1,1-3.1,2v37.2h-13.6v-46.5h0Z"/>
  <path class="st5" d="M143.4,80.4c-.3-1.6-.4-3.1-.3-4.8.1-4.4,1.2-8.4,3.4-12.1,2.1-3.7,5.2-6.9,9.1-9.5,4.2-2.9,9.3-4.3,15.3-4.3s13.9,2.5,19.1,7.4c3.3,3.1,5.7,6.7,7.1,10.6,1.4,4,1.8,8.2,1.2,12.7-.5,3.3-1.5,6.4-3.1,9.2-1.6,2.8-3.6,5.2-6,7.3s-5.2,3.6-8.4,4.7-6.5,1.7-10.2,1.7-6.9-.6-10.1-1.7c-3.1-1.1-5.9-2.7-8.3-4.8-2.4-2-4.4-4.4-5.9-7.2-1.6-2.8-2.6-5.8-3.1-9.2M157.5,76.1c-.1,3.2.6,5.9,2.2,8.3,1.3,2,2.9,3.6,4.9,4.7,1.9,1.1,4,1.6,6.3,1.6s4.4-.5,6.3-1.6c1.9-1.1,3.6-2.6,4.9-4.7,1-1.7,1.7-3.5,2-5.5.3-2.1.2-4.1-.3-6-.5-1.9-1.2-3.5-2.2-4.9-1.7-2.3-3.7-3.9-6-4.8-2.2-.9-4.6-1.1-7.1-.6-3.1.5-5.9,2.3-8.3,5.4-.8,1.1-1.5,2.4-1.9,3.7-.4,1.3-.7,2.8-.8,4.3"/>
  <path class="st2" d="M224.4,66.7c1.2,0,2.4,0,3.6,0,1.2,0,2.4.2,3.6.4v11.5c-.5,0-1,0-1.5,0h-1.5c-2.6.1-4.7.3-6.1.5s-2.6.5-3.4.8c-.8.3-1.4.8-1.9,1.3-.5.6-.9,1.3-1.1,2-.2.7-.3,1.4-.3,2.2s.3,1.4.7,2c.7,1.1,1.9,2,3.5,2.7,1.6.7,3.9,1,6.8.9,2,0,3.6-.2,5-.5s2.7-1,4-1.8v-19.5c0-2.7-.6-4.6-1.7-5.6-1.1-1-3.1-1.5-6-1.4l-5,.2h-.7c-1.1.1-2.3.2-3.4.4-1.1.2-2.2.3-3.3.5v-11.7l2.9-.7,1.3-.2s.1,0,.4,0c.3,0,.7,0,1.1-.2,4.4-.6,8.3-.8,11.5-.5s6,1,8.2,2.1c2.2,1.1,4,2.6,5.2,4.4,1.3,1.9,2.2,4.1,2.6,6.6.2,1,.3,2,.3,3v32.8c-.9.5-1.9.9-2.8,1.2-.9.3-2,.6-3.1.9-1.2.3-2.5.6-4,.8s-3.3.5-5.4.8c-1,.1-1.9.2-2.8.3s-1.8,0-2.6,0c-4.6.1-8.5-.2-11.6-1.1-3.1-.8-5.7-2-7.8-3.6-2.6-1.9-4.4-3.9-5.4-6.1-1.1-2.1-1.5-4.8-1.3-8,.3-5.5,2.2-9.7,5.7-12.7,3.5-3,8.9-4.6,16.2-4.9"/>
  <rect class="st2" x="255.9" y="25.9" width="13.6" height="76.3"/>
  <path class="st2" d="M275.9,102.2v-51h13.5v51h-13.5ZM281.2,43.4c-1.7-.2-3.1-.9-4.2-1.9s-1.9-2.2-2.1-3.7c-.3-1.6,0-3.1.9-4.8.8-1.4,1.8-2.4,3.2-3s3.2-.7,5.6-.4c2.3.4,4,1.4,5,3.1,1.1,1.7,1.3,3.7.6,6-.5,1.6-1.5,2.8-3.1,3.7s-3.5,1.2-5.9.9"/>
  <path class="st2" d="M296,102.2v-46.7l3.3-1.3s.3-.1,1-.4c.6-.3,1.4-.6,2.2-.9.7-.3,1.6-.6,2.6-.9,1-.3,2.5-.6,4.4-1,.7-.1,1.3-.2,1.9-.3.6,0,1.3-.2,1.9-.3,4.6-.6,8.4-.6,11.5,0,3,.6,5.7,1.7,7.9,3.4l1.4-.5,1.4-.6,1.4-.5s.1,0,.5-.2c.3-.1.7-.2,1.1-.4,3.8-1.3,7.6-1.8,11.4-1.6.5,0,.9,0,1.4,0s.8,0,1.3.1c3.2.3,5.8.9,8,1.8s3.9,2.2,5.2,4c1.4,1.7,2.3,3.8,2.9,6.4.6,2.6.9,5.7.9,9.2v30.6h-15.5v-34.9c0-1.4-.8-2.7-2.4-3.8-.7-.5-1.6-.8-2.8-1-1.1-.2-2.5-.1-4.1.2-2.2.2-4.2,1-6.2,2.2v37.2h-13.5v-32.4c0-3.1-.6-5.1-1.8-6.2-1.2-1.1-3.5-1.5-6.9-1.2-1.4.2-2.9.5-4.7,1.1-.4.1-.7.3-1.1.4-.4.1-.7.3-1.1.5v37.8h-13.6Z"/>
  <path class="st2" d="M427.7,69.8c.7,3.1.6,6.1,0,9.2h-35.5c0-.3,0-.6,0-.8v-.7c0-2.5.3-4.4.9-5.8s1.5-2.5,2.8-3.5l17.4-.2c-.4-1.7-1.4-3-2.8-4-1.5-.9-3.9-1.5-7.1-1.8-3.6-.3-6.7.4-9.2,2.1-2.5,1.7-4.2,4.4-5.2,8.2-1.1,3.5-.8,6.9.8,10.1,1.5,3.2,4,5.5,7.5,6.9s8.4,1.7,14.6.9c.5,0,1-.1,1.5-.2.5,0,1-.2,1.5-.3v12.2c-3.2.8-6.5,1.2-9.7,1.2-3.7.1-7-.2-9.9-1-2.9-.8-5.7-2-8.3-3.6-1.7-1.1-3.2-2.2-4.5-3.3-1.3-1.1-2.3-2.3-3.2-3.6-.9-1.3-1.6-2.8-2.2-4.3s-1.1-3.4-1.5-5.4c-.5-2.6-.7-5.3-.4-8.2,0-1,.2-2.1.5-3.3.4-1.6.8-3,1.4-4.3.5-1.3,1.2-2.6,1.9-3.8.8-1.2,1.6-2.3,2.7-3.4,1-1.1,2.3-2.2,3.7-3.4,2.3-1.8,4.9-3.2,7.8-4.2s6.3-1.4,10.1-1.3c1.1,0,2.2,0,3.3.2,1.1.2,2.2.4,3.2.7,5.2,1.5,9.3,3.8,12.2,6.8s4.9,7,6,11.9"/>
  <path class="st2" d="M432.8,102.2v-46.7c.5-.3,1.1-.5,1.6-.7s1-.4,1.6-.6l1.4-.5,1.8-.5c.7-.2,1.3-.5,2-.6s1.3-.4,2-.5c2.8-.7,5.2-1.1,7.2-1.4,2.1-.3,3.9-.5,5.6-.5,3.7,0,6.9.3,9.5,1s4.8,1.7,6.5,3c1.7,1.4,3,3.1,3.9,5.3.9,2.2,1.5,4.8,1.8,7.8,0,.4,0,.7,0,1.1v33.9h-13.5v-32.8c0-.5,0-.9,0-1.3-.2-1.3-.5-2.3-.9-3.1-.5-.8-1.1-1.4-2-1.8-.9-.5-2-.7-3.3-.8-1.4,0-3,0-5,.2-1,.1-2,.3-3.1.5-1,.2-2.1.5-3.3.8v38.2h-13.6Z"/>
  <path class="st2" d="M484.4,90.2c-.2-.9-.3-1.9-.3-3v-49.7h13.5v13.5h14.7v12.3h-14.7v21.5c0,2,.7,3.5,2.1,4.4s3.7,1.3,6.9,1.1c.3,0,.6,0,.8,0s.5,0,.8-.1v12c-1.1.2-2.2.4-3.3.5-6.5.6-11.3-.2-14.6-2.4s-5.2-5.6-6-10.1"/>
  <path class="st2" d="M533,66.7c1.2,0,2.4,0,3.5,0,1.2,0,2.4.2,3.6.4v11.5c-.5,0-1,0-1.5,0h-1.5c-2.6.1-4.7.3-6.1.5s-2.6.5-3.4.8c-.8.3-1.4.8-1.9,1.3s-.9,1.3-1.1,2c-.2.7-.3,1.4-.3,2.2s.3,1.4.7,2c.7,1.1,1.9,2,3.5,2.7,1.6.7,3.9,1,6.8.9,2,0,3.7-.2,5-.5,1.4-.4,2.7-1,4-1.8v-19.5c0-2.7-.6-4.6-1.7-5.6-1.1-1-3.1-1.5-6-1.4l-5,.2h-.7c-1.1.1-2.3.3-3.4.4-1.1.2-2.2.3-3.3.5v-11.7l2.9-.7,1.3-.2s.2,0,.5,0c.3,0,.7,0,1.1-.2,4.4-.6,8.3-.8,11.5-.5s6,1,8.2,2.1c2.2,1.1,4,2.6,5.2,4.4,1.3,1.9,2.2,4.1,2.7,6.6.2,1,.3,2,.3,3v32.8c-1,.5-1.9.9-2.8,1.2s-2,.6-3.1.9c-1.2.3-2.5.6-4,.8-1.5.3-3.3.5-5.4.8-1,.1-1.9.2-2.8.3s-1.8,0-2.6,0c-4.6.1-8.5-.2-11.6-1.1-3.1-.8-5.7-2-7.8-3.6-2.6-1.9-4.4-3.9-5.4-6.1-1-2.1-1.5-4.8-1.3-8,.3-5.5,2.2-9.7,5.7-12.7,3.5-3,8.9-4.6,16.2-4.9"/>
  <path class="st2" d="M564.5,55.7c.4-.2.7-.5,1.1-.7.4-.2.7-.4,1.1-.6,3.3-1.9,6.7-3.2,9.9-3.9,3.2-.7,6.7-.8,10.4-.4.5,0,.9,0,1.3.1.4,0,.8.1,1.3.2v12.2h-1c0,0-.9,0-.9,0-.6,0-1.2,0-1.9,0-2,0-3.6.2-4.6.5-1,.3-2.1,1-3.1,2v37.2h-13.5v-46.5h0Z"/>
  <path class="st2" d="M591.6,102.2v-51.1h13.5v51.1h-13.5ZM597,43.4c-1.7-.2-3.1-.9-4.2-1.9-1.1-1-1.9-2.2-2.2-3.7-.3-1.6,0-3.1.9-4.8.8-1.4,1.8-2.4,3.2-3,1.3-.6,3.2-.7,5.6-.4,2.3.4,4,1.4,5,3.1,1.1,1.7,1.3,3.7.6,6-.5,1.6-1.5,2.8-3.1,3.7-1.6.9-3.5,1.2-5.9.9"/>
  <path class="st2" d="M632.4,66.7c1.2,0,2.4,0,3.5,0,1.2,0,2.4.2,3.6.4v11.5c-.5,0-1,0-1.5,0h-1.5c-2.6.1-4.7.3-6.1.5s-2.6.5-3.4.8c-.8.3-1.4.8-1.9,1.3-.5.6-.9,1.3-1.1,2s-.3,1.4-.3,2.2.3,1.4.7,2c.7,1.1,1.9,2,3.5,2.7,1.6.7,3.9,1,6.8.9,2,0,3.7-.2,5-.5s2.7-1,4-1.8v-19.5c0-2.7-.6-4.6-1.7-5.6-1.1-1-3.1-1.5-6-1.4l-5,.2h-.7c-1.1.1-2.3.3-3.4.4s-2.2.3-3.3.5v-11.7l2.9-.7,1.3-.2s.2,0,.5,0c.3,0,.7-.1,1.1-.2,4.4-.6,8.3-.8,11.5-.5,3.3.3,6,1,8.2,2.1,2.2,1.1,4,2.6,5.2,4.4,1.3,1.9,2.2,4.1,2.7,6.6.2,1,.3,2,.3,3v32.8c-1,.5-1.9.9-2.8,1.2-.9.3-2,.6-3.1.9-1.2.3-2.5.6-4,.8-1.5.3-3.3.5-5.4.8-1,.1-1.9.2-2.8.3-.9,0-1.8,0-2.6,0-4.6.1-8.5-.2-11.6-1.1-3.1-.8-5.7-2-7.8-3.6-2.6-1.9-4.4-3.9-5.4-6.1-1-2.1-1.5-4.8-1.3-8,.3-5.5,2.2-9.7,5.8-12.7,3.5-3,9-4.6,16.2-4.9"/>
  <g>
    <path class="st0" d="M695.5,51.9l-3.7.8v-12c3.5-1.4,6.5-2.3,8.8-2.5,2.4-.2,4.1-.4,5-.5s1.9-.1,3.1-.1c3.5,0,6.5.4,9.1,1.1s6,2.6,10.3,5.7,6.5,8,6.5,15-.3,4-1,6.8c-.7,2.8-2.3,5.9-4.8,9.4s-6.6,7.6-12,12.2l-2.8,2.2h16.1v12.8h-35.7v-13.4l19.7-18.4c.9-.9,1.5-1.5,1.8-1.9.3-.4,1-1.4,2-3.2s1.6-3.7,1.6-5.8c0-4.2-1.8-6.7-5.5-7.7-3.7-1-6.7-1.5-9.2-1.5s-5.5.3-9.2,1.1h0Z"/>
    <path class="st6" d="M745.1,95.8c-5.9-7.2-8.8-15.4-8.8-24.6s.7-8.8,2.2-13,3.5-7.9,6.2-11.1,5.6-5.6,8.9-7.1,6.7-2.3,10.2-2.3,7.1.7,10.3,2.2,6.1,3.8,8.8,7c2.6,3.2,4.7,7,6.2,11.2s2.3,8.6,2.3,13-.7,8.9-2.2,13.1-3.5,7.8-6.1,11.1c-2.6,3.2-5.6,5.6-8.9,7.1-3.3,1.5-6.8,2.3-10.4,2.3s-7-.7-10.2-2.2c-3.2-1.4-6-3.7-8.5-6.7ZM750.9,71.2c0,6.9,1.3,12.2,3.9,15.9s5.6,5.5,9.1,5.5,6.8-2,9.3-6.1c2.5-4.1,3.7-9.1,3.7-15.1s-1-10.6-3-13.9-3.7-5.4-5.2-6.3c-1.5-.8-3.1-1.2-4.8-1.2-3.6,0-6.6,1.8-9.2,5.4s-3.8,8.9-3.8,15.9Z"/>
    <path class="st5" d="M797,51.9l-3.7.8v-12c3.5-1.4,6.5-2.3,8.8-2.5,2.4-.2,4.1-.4,5-.5s1.9-.1,3.1-.1c3.5,0,6.5.4,9.1,1.1s6,2.6,10.3,5.7,6.5,8,6.5,15-.3,4-1,6.8c-.7,2.8-2.3,5.9-4.8,9.4-2.6,3.5-6.6,7.6-12,12.2l-2.8,2.2h16.1v12.8h-35.7v-13.4l19.7-18.4c.9-.9,1.5-1.5,1.8-1.9.3-.4,1-1.4,2-3.2s1.6-3.7,1.6-5.8c0-4.2-1.8-6.7-5.5-7.7-3.7-1-6.7-1.5-9.2-1.5s-5.5.3-9.2,1.1h0Z"/>
    <path class="st1" d="M856,103.5c-2.9,0-5.2-.2-7-.5s-3.5-.9-5.1-1.7v-12l4.8.7c3.4.3,6.3.5,8.7.5h1.6c.4,0,.9,0,1.4,0,.5,0,1.6-.2,3.4-.3,1.8-.2,3.6-1.2,5.5-3.1,1.9-1.9,2.9-4.2,2.9-6.7s-.3-2.9-1.1-4.4l-1-1.6c-1.2-1.6-2.8-2.7-4.7-3.3-2-.6-5-.9-9.1-.9s-3.8.2-6,.5l-3.3.4v-32.3h29.6v13.4h-14.8v5.3c.7,0,1.3,0,1.8-.1s.9,0,1.2,0c1,0,1.8,0,2.6.2s2.8.5,6,1.2c3.2.7,6.2,3.1,9.1,7.2,2.9,4.1,4.3,9.2,4.3,15.3s-.8,6.4-2.4,9.3c-1.6,2.9-3.5,5.2-5.7,7-2.2,1.8-4.5,3.1-6.8,3.9s-4.4,1.3-6.4,1.6c-2,.2-3.6.4-4.8.4s-2.8,0-4.7,0h0Z"/>
  </g>
  <g>
    <g class="st3">
      <g class="st3">
        <path class="st4" d="M757.5,19.7c.3-.3.5-.6.7-.9.2-.3.4-.6.6-.9-.6.5-1.3.9-2.1,1.2s-1.6.4-2.5.4-1.8-.2-2.6-.5c-.8-.3-1.6-.8-2.2-1.4s-1.1-1.3-1.5-2.2c-.4-.9-.6-1.9-.6-3s.2-2.1.6-3c.4-.9,1-1.8,1.7-2.5s1.6-1.2,2.6-1.7c1-.4,2.1-.6,3.3-.6s2.3.2,3.2.6c1,.4,1.8.9,2.5,1.6s1.2,1.5,1.6,2.5c.4,1,.6,2.1.6,3.2s0,1.4-.2,2c-.1.6-.3,1.3-.6,1.9-.2.6-.5,1.2-.9,1.8-.4.6-.8,1.2-1.2,1.8l-6,8.7c-.1.2-.4.4-.6.5s-.6.2-.9.2h-2.8l7.5-9.8ZM750.3,12.1c0,.8.1,1.5.3,2.1.2.6.5,1.1,1,1.6s.9.7,1.5,1,1.3.3,2,.3,1.6-.1,2.2-.4c.6-.3,1.2-.6,1.6-1.1.4-.4.8-1,1-1.5.2-.6.3-1.2.3-1.8s-.1-1.5-.4-2.1c-.2-.6-.6-1.2-1-1.6s-1-.8-1.6-1c-.6-.2-1.3-.4-2-.4s-1.4.1-2.1.4c-.6.2-1.2.6-1.6,1-.4.4-.8,1-1,1.6-.2.6-.4,1.3-.4,2Z"/>
      </g>
      <g class="st3">
        <path class="st4" d="M801.4,26.8v2.7h-15.2V4.9h15.2v2.7h-11.8v8.2h9.6v2.6h-9.6v8.4h11.9Z"/>
      </g>
      <g class="st3">
        <path class="st4" d="M819,4.2v25.3h-1.8c-.4,0-.7-.2-.8-.6l-.3-2.1c-.7.9-1.6,1.6-2.5,2.2-1,.5-2.1.8-3.3.8s-1.9-.2-2.7-.6-1.5-.9-2.1-1.7-1-1.7-1.3-2.8c-.3-1.1-.5-2.4-.5-3.8s.2-2.5.5-3.6c.3-1.1.8-2.1,1.5-2.9.6-.8,1.4-1.5,2.4-1.9.9-.5,2-.7,3.2-.7s2,.2,2.7.5c.8.4,1.4.9,2,1.5V4.2h3.1ZM815.9,16.2c-.6-.8-1.2-1.3-1.9-1.6-.7-.3-1.4-.5-2.2-.5-1.6,0-2.9.6-3.7,1.7-.9,1.2-1.3,2.8-1.3,5s0,2.1.3,2.9c.2.8.5,1.5.9,2,.4.5.8.9,1.4,1.1.5.2,1.2.4,1.9.4,1,0,1.9-.2,2.6-.7.8-.5,1.4-1.1,2.1-1.9v-8.4Z"/>
        <path class="st4" d="M827.7,6.6c0,.3,0,.6-.2.8s-.3.5-.5.7-.4.4-.7.5c-.3.1-.6.2-.9.2s-.6,0-.8-.2-.5-.3-.7-.5-.3-.4-.5-.7c-.1-.3-.2-.5-.2-.8s0-.6.2-.9c.1-.3.3-.5.5-.7s.4-.4.7-.5.5-.2.8-.2.6,0,.9.2c.3.1.5.3.7.5s.4.4.5.7.2.6.2.9ZM827.1,12.1v17.4h-3.1V12.1h3.1Z"/>
        <path class="st4" d="M844.2,15.2c0,.1-.2.2-.3.3,0,0-.2.1-.4.1s-.4,0-.6-.2-.5-.3-.8-.5-.7-.3-1.1-.5c-.4-.1-1-.2-1.6-.2s-1.6.2-2.3.5-1.2.7-1.6,1.3c-.4.6-.8,1.3-1,2.1s-.3,1.7-.3,2.7.1,2,.4,2.8c.2.8.6,1.5,1,2.1.4.6,1,1,1.6,1.3.6.3,1.3.4,2.1.4s1.4,0,1.8-.3c.5-.2.9-.4,1.2-.6.3-.2.6-.4.8-.6s.4-.3.6-.3.4,0,.6.3l.9,1.1c-.4.5-.8.9-1.3,1.2-.5.3-1,.6-1.6.8-.6.2-1.1.4-1.7.5s-1.2.2-1.9.2c-1.1,0-2.1-.2-3-.6-.9-.4-1.7-1-2.4-1.7-.7-.8-1.2-1.7-1.6-2.8s-.6-2.4-.6-3.8.2-2.5.5-3.6c.4-1.1.9-2,1.6-2.8.7-.8,1.5-1.4,2.6-1.9,1-.4,2.2-.7,3.5-.7s2.3.2,3.2.6c.9.4,1.8,1,2.5,1.7l-.8,1.1Z"/>
        <path class="st4" d="M852.4,6.6c0,.3,0,.6-.2.8s-.3.5-.5.7-.4.4-.7.5c-.3.1-.6.2-.9.2s-.6,0-.8-.2-.5-.3-.7-.5-.3-.4-.5-.7c-.1-.3-.2-.5-.2-.8s0-.6.2-.9c.1-.3.3-.5.5-.7s.4-.4.7-.5.5-.2.8-.2.6,0,.9.2c.3.1.5.3.7.5s.4.4.5.7.2.6.2.9ZM851.7,12.1v17.4h-3.1V12.1h3.1Z"/>
        <path class="st4" d="M864.1,11.8c1.3,0,2.4.2,3.4.6,1,.4,1.9,1,2.6,1.8.7.8,1.3,1.7,1.7,2.8.4,1.1.6,2.3.6,3.7s-.2,2.6-.6,3.7c-.4,1.1-.9,2-1.7,2.8-.7.8-1.6,1.4-2.6,1.8-1,.4-2.2.6-3.4.6s-2.4-.2-3.5-.6c-1-.4-1.9-1-2.6-1.8-.7-.8-1.3-1.7-1.7-2.8-.4-1.1-.6-2.3-.6-3.7s.2-2.6.6-3.7c.4-1.1.9-2,1.7-2.8.7-.8,1.6-1.4,2.6-1.8,1-.4,2.2-.6,3.5-.6ZM864.1,27.4c1.7,0,3-.6,3.8-1.7.8-1.2,1.3-2.8,1.3-4.8s-.4-3.7-1.3-4.8c-.8-1.2-2.1-1.7-3.8-1.7s-1.6.1-2.3.4-1.2.7-1.6,1.3c-.4.6-.8,1.3-1,2.1-.2.8-.3,1.7-.3,2.8,0,2.1.4,3.7,1.3,4.8.9,1.2,2.2,1.7,3.9,1.7ZM869.1,4.6l-4,4.4c-.2.2-.3.3-.5.4s-.4.1-.6.1h-1.8l2.5-4.2c.2-.3.3-.5.5-.6s.5-.2.8-.2h3Z"/>
        <path class="st4" d="M879.1,14.6c.4-.4.8-.8,1.2-1.2s.9-.6,1.3-.9c.5-.2,1-.4,1.5-.6.5-.1,1.1-.2,1.7-.2,1,0,1.8.2,2.5.5.7.3,1.3.8,1.8,1.3.5.6.9,1.3,1.1,2.1s.4,1.7.4,2.7v11.1h-3.1v-11.1c0-1.3-.3-2.3-.9-3.1-.6-.7-1.5-1.1-2.7-1.1s-1.8.2-2.5.7c-.8.4-1.5,1-2.2,1.8v12.8h-3.1V12.1h1.8c.4,0,.7.2.8.6l.2,1.9Z"/>
      </g>
    </g>
    <g class="st3">
      <g class="st3">
        <path class="st4" d="M765.1,9.7l.6-3.1c.1-.6.2-1.1.2-1.5h1.2v.8c0,0,0,0,0,0,.4-.6,1-.9,1.6-.9s1.2.5,1.2,1.2,0,.5,0,.8l-.5,2.6h-1.3l.5-2.5c0-.2,0-.3,0-.5,0-.3-.1-.5-.4-.5s-.9.5-1.1,1.5l-.4,2h-1.3Z"/>
      </g>
      <g class="st3">
        <path class="st4" d="M770.7,5.7c.3-.3.5-.4.8-.6.3-.1.6-.2,1-.2s.5,0,.7.1c.2,0,.4.2.5.4s.2.3.3.6.1.5.1.7v3h-.4c0,0-.1,0-.2,0s0,0-.1-.2v-.4c-.2.1-.3.2-.5.3-.1,0-.2.2-.4.2-.1,0-.3.1-.4.1s-.3,0-.5,0-.4,0-.5,0c-.2,0-.3-.1-.4-.2-.1-.1-.2-.2-.3-.4,0-.2-.1-.3-.1-.6s0-.4.2-.5c.1-.2.3-.3.5-.5.2-.1.5-.2.9-.3.4,0,.8-.1,1.4-.1v-.4c0-.4,0-.6-.2-.8-.2-.2-.4-.3-.7-.3s-.4,0-.5,0c-.1,0-.3.1-.4.2s-.2.1-.3.2c0,0-.1,0-.2,0s-.1,0-.1,0,0,0-.1-.1v-.3ZM773.4,7.6c-.4,0-.7,0-1,0-.3,0-.5.1-.7.2-.2,0-.3.2-.4.3,0,.1-.1.2-.1.4s0,.2,0,.3,0,.2.2.2c0,0,.2,0,.2.1,0,0,.2,0,.3,0s.3,0,.4,0c.1,0,.2,0,.3-.1s.2-.1.3-.2c0,0,.2-.2.3-.3v-1Z"/>
      </g>
    </g>
  </g>
</svg>