<?xml version="1.0" encoding="UTF-8"?>
<svg id="Layer_1" xmlns="http://www.w3.org/2000/svg" version="1.1" viewBox="0 0 888.3 133">
  <!-- Generator: Adobe Illustrator 29.1.0, SVG Export Plug-In . SVG Version: 2.1.0 Build 142)  -->
  <defs>
    <style>
      .st0 {
        fill: #f6921e;
      }

      .st1 {
        fill: #db5c1e;
      }

      .st2 {
        fill: #2e9d41;
      }

      .st3 {
        isolation: isolate;
      }

      .st4 {
        fill: #7b8c95;
      }

      .st5 {
        fill: #a5cd39;
      }

      .st6 {
        fill: #ffca05;
      }
    </style>
  </defs>
  <polygon class="st5" points="0 102 25.6 37.4 42.6 37.4 64.4 102 48.8 102 42.5 82 27.9 81.7 32.5 68.2 38.2 68.2 33.7 52 15.7 102 0 102"/>
  <path class="st5" d="M94.1,50.2c.5.1.9.2,1.3.3s.8.2,1.3.3c1.2-1.5,2.8-2.7,4.6-3.5,1.8-.8,4.2-1.2,7-1.2s.8,0,1.2,0,.8,0,1.2.1v11.6c-.4,0-.9.1-1.4.4s-1,.5-1.3.6c-.4.2-.6.3-.6.4.2.4.5.7.7,1.1s.4.7.6,1.1c1.2,2.1,2,4.1,2.3,6,.4,1.9.4,4.2,0,6.9-.1.5-.2.9-.2,1.3s0,.5,0,.5c0,0,0,0,0,.2,0,.2,0,.3,0,.4-.1.7-.4,1.4-.7,2.4-.4.9-.8,1.8-1.2,2.6-1.6,2.7-3.8,4.9-6.6,6.6-2.8,1.7-6.5,2.8-10.9,3.4-4.7.5-9,0-12.8-1.4-3.9-1.6-6.8-3.5-8.9-5.9-2-2.4-3.4-5.3-4.1-8.9-.8-4.2,0-8.6,2.1-13.4,1.6-3.5,3.7-6.1,6.1-8s5.7-3.2,9.6-4c1.6-.3,3.3-.4,5.1-.4s3.7.2,5.8.6M86.7,106.7c-2.1-.2-3.9-.5-5.4-.7s-2.8-.4-4-.7-2.3-.5-3.3-.8c-1-.3-2.1-.7-3.1-1.1l2.8-11.6c1.2.5,2.5,1,3.7,1.4s2.6.7,4.2.9c1.6.2,3.4.4,5.6.6,2.1.2,4.7.3,7.8.4.8,0,1.8,0,2.8.3,5.6,1.2,9.5,3.7,11.8,7.3,2.3,3.6,2.9,7.7,1.8,12.4-.7,2.8-2,5.1-3.7,6.9-1.8,1.8-4.3,3.2-7.6,4.2-1.7.5-3.7.9-6,1.2-2.3.2-4.9.3-7.8,0-.4,0-.8-.1-1.2-.1-.4,0-.7,0-1.2-.1v-11.7c.3,0,.6,0,.8,0s.5,0,.8,0c1.3,0,2.3,0,3,0s1.4,0,2,0c1.7-.1,2.9-.2,3.6-.4.7-.2,1.3-.4,1.8-.8,1-.7,1.6-1.5,1.8-2.6.2-1.1-.1-2-.8-2.8-.5-.5-1.1-.9-1.8-1.2-.7-.3-1.8-.5-3.3-.7-.3,0-.6,0-.9,0s-.6,0-.9,0c-.5,0-1.1-.1-1.6-.1s-1,0-1.6-.1M79,72.3c.5,3.8,2.9,6.2,7.1,7.2,2.3.5,4.2.4,5.7-.3,4.7-2,6.4-5.9,5.1-11.7-.4-1.6-1.1-2.9-2.3-4s-2.6-1.7-4.1-2c-1.5-.3-3.3-.2-5.2.4-2,.6-3.5,1.6-4.6,3.1-1.1,1.5-1.7,3.3-1.8,5.5v.9c0,.2,0,.5.2.8"/>
  <path class="st5" d="M117.2,55.6c.4-.2.7-.5,1.1-.7.4-.2.7-.4,1.1-.6,3.3-1.9,6.6-3.2,9.9-3.9,3.2-.7,6.7-.8,10.4-.4.5,0,.9,0,1.3.1.4,0,.8.1,1.3.2v12.2h-1c0,0-.9,0-.9,0-.6,0-1.2,0-1.9,0-2,0-3.6.2-4.6.5-1,.3-2.1,1-3.1,2v37.2h-13.5v-46.4h0Z"/>
  <path class="st5" d="M143.2,80.3c-.3-1.6-.4-3.1-.3-4.8.1-4.4,1.2-8.4,3.4-12.1,2.1-3.7,5.2-6.9,9.1-9.5,4.2-2.9,9.3-4.3,15.2-4.3s13.8,2.5,19.1,7.3c3.3,3.1,5.6,6.7,7.1,10.6,1.4,4,1.8,8.2,1.2,12.7-.5,3.3-1.5,6.4-3.1,9.2-1.6,2.8-3.5,5.2-6,7.3-2.4,2-5.2,3.6-8.3,4.7-3.1,1.1-6.5,1.7-10.2,1.7s-6.9-.6-10-1.7c-3.1-1.1-5.9-2.7-8.2-4.8s-4.4-4.4-5.9-7.2c-1.6-2.8-2.6-5.8-3.1-9.2M157.3,76c-.1,3.2.6,5.9,2.1,8.2,1.3,2,2.9,3.6,4.8,4.7,1.9,1.1,4,1.6,6.3,1.6s4.4-.5,6.3-1.6c1.9-1,3.6-2.6,4.9-4.7,1-1.7,1.7-3.5,2-5.5.3-2.1.2-4.1-.3-6-.5-1.9-1.2-3.5-2.2-4.9-1.7-2.3-3.7-3.8-6-4.8s-4.6-1.1-7-.6c-3.1.5-5.9,2.3-8.2,5.4-.8,1.1-1.5,2.4-1.9,3.7-.4,1.3-.7,2.8-.8,4.3"/>
  <path class="st2" d="M224.1,66.6c1.2,0,2.4,0,3.5,0,1.2,0,2.4.2,3.6.4v11.5c-.5,0-1,0-1.5,0h-1.5c-2.6.1-4.7.3-6.1.5s-2.6.5-3.4.8c-.8.3-1.4.7-1.9,1.3s-.9,1.3-1.1,2c-.2.7-.3,1.4-.3,2.2,0,.7.3,1.4.7,2,.7,1.1,1.9,2,3.5,2.7,1.6.7,3.9,1,6.8.9,2,0,3.6-.2,5-.5,1.4-.4,2.7-1,4-1.8v-19.5c0-2.7-.6-4.6-1.7-5.6-1.1-1-3.1-1.5-6-1.4l-5,.2h-.7c-1.1.1-2.2.2-3.4.4s-2.2.3-3.3.5v-11.6l2.9-.7,1.3-.2s.1,0,.4,0c.3,0,.7,0,1.1-.2,4.4-.6,8.3-.7,11.5-.4,3.3.3,6,1,8.2,2.1,2.2,1.1,4,2.6,5.2,4.4s2.2,4.1,2.6,6.6c.2,1,.3,2,.3,3v32.8c-.9.5-1.9.9-2.8,1.2-.9.3-2,.6-3.1.9-1.2.3-2.5.6-4,.8-1.5.3-3.3.5-5.4.8-1,.1-1.9.2-2.8.3s-1.8,0-2.6,0c-4.6.1-8.5-.2-11.6-1.1-3.1-.8-5.7-2-7.8-3.6-2.6-1.9-4.4-3.9-5.4-6.1-1.1-2.1-1.5-4.8-1.3-8,.3-5.5,2.2-9.7,5.7-12.7,3.5-3,8.9-4.6,16.2-4.9"/>
  <rect class="st2" x="255.6" y="25.8" width="13.5" height="76.2"/>
  <path class="st2" d="M275.5,102v-51h13.5v51h-13.5ZM280.9,43.3c-1.7-.2-3.1-.9-4.2-1.9-1.1-1-1.9-2.2-2.1-3.7-.3-1.5,0-3.1.9-4.8.8-1.4,1.8-2.4,3.2-3s3.2-.7,5.6-.4c2.3.4,4,1.4,5,3.1,1.1,1.7,1.3,3.7.6,6-.5,1.5-1.5,2.8-3.1,3.7-1.6.9-3.5,1.2-5.9.9"/>
  <path class="st2" d="M295.6,102v-46.6l3.3-1.3s.3-.1,1-.4c.6-.3,1.4-.6,2.2-.9.7-.3,1.6-.6,2.6-.9,1-.3,2.5-.6,4.4-1,.7-.1,1.3-.2,1.9-.3.6,0,1.3-.2,1.9-.3,4.6-.6,8.4-.6,11.4,0s5.7,1.7,7.9,3.4l1.4-.5,1.4-.6,1.4-.5s.1,0,.5-.2c.3-.1.7-.2,1.1-.4,3.8-1.2,7.6-1.8,11.4-1.6.5,0,.9,0,1.3,0,.4,0,.8,0,1.3.1,3.2.3,5.8.9,8,1.8,2.1.9,3.9,2.2,5.2,4,1.3,1.7,2.3,3.8,2.9,6.4.6,2.6.9,5.6.9,9.2v30.6h-15.5v-34.9c0-1.4-.8-2.7-2.4-3.8-.7-.5-1.6-.8-2.8-1-1.1-.2-2.5-.1-4.1.2-2.1.2-4.2,1-6.2,2.2v37.2h-13.5v-32.4c0-3.1-.6-5.1-1.8-6.2-1.2-1.1-3.5-1.5-6.9-1.2-1.4.2-2.9.5-4.7,1.1-.4.1-.7.3-1.1.4-.4.2-.7.3-1.1.5v37.7h-13.5Z"/>
  <path class="st2" d="M427.1,69.8c.7,3.1.6,6.1,0,9.1h-35.4c0-.3,0-.6,0-.8v-.7c0-2.5.3-4.4.9-5.8.6-1.3,1.5-2.5,2.8-3.5l17.4-.2c-.4-1.7-1.4-3-2.8-4-1.5-.9-3.8-1.5-7.1-1.8-3.6-.3-6.7.4-9.2,2.1-2.5,1.7-4.2,4.4-5.2,8.1-1.1,3.5-.8,6.9.8,10.1,1.5,3.2,4,5.5,7.5,6.9,3.5,1.4,8.4,1.7,14.6.9.5,0,1-.1,1.5-.2s1-.2,1.5-.3v12.2c-3.2.8-6.5,1.2-9.7,1.2-3.7.1-7-.2-9.9-1-2.9-.8-5.7-2-8.3-3.6-1.7-1.1-3.2-2.2-4.5-3.3-1.3-1.1-2.3-2.3-3.2-3.6-.9-1.3-1.6-2.8-2.2-4.3-.6-1.6-1.1-3.4-1.5-5.4-.5-2.6-.7-5.3-.4-8.2,0-1,.2-2.1.5-3.3.4-1.6.8-3,1.3-4.3.5-1.3,1.2-2.6,1.9-3.8.8-1.2,1.6-2.3,2.7-3.4,1-1.1,2.3-2.2,3.7-3.4,2.3-1.8,4.9-3.2,7.8-4.2,2.9-.9,6.3-1.4,10-1.3,1.1,0,2.2,0,3.3.2,1.1.2,2.1.4,3.2.7,5.2,1.5,9.2,3.8,12.1,6.8,2.9,3,4.9,7,6,11.9"/>
  <path class="st2" d="M432.2,102v-46.6c.5-.3,1-.5,1.6-.7s1-.4,1.6-.6l1.4-.5,1.8-.5c.7-.2,1.3-.5,2-.6.7-.2,1.3-.4,2-.5,2.8-.7,5.2-1.1,7.2-1.4,2.1-.3,3.9-.5,5.6-.5,3.7,0,6.9.3,9.5,1s4.8,1.7,6.5,3c1.7,1.4,3,3.1,3.9,5.3.9,2.2,1.5,4.7,1.8,7.8,0,.4,0,.7,0,1.1v33.9h-13.5v-32.7c0-.5,0-.9,0-1.2-.2-1.3-.5-2.3-.9-3.1-.5-.8-1.1-1.4-2-1.8-.9-.5-2-.7-3.3-.8-1.3,0-3,0-5,.2-1,.1-2,.3-3.1.5-1,.2-2.1.5-3.3.8v38.2h-13.5,0Z"/>
  <path class="st2" d="M483.7,90.1c-.2-.9-.3-1.9-.3-3v-49.7h13.5v13.5h14.7v12.3h-14.7v21.4c0,2,.7,3.5,2.1,4.4,1.4.9,3.7,1.3,6.9,1.1.3,0,.6,0,.8,0s.5,0,.8-.1v12c-1.1.2-2.2.4-3.3.5-6.5.6-11.3-.2-14.6-2.4s-5.2-5.6-6-10"/>
  <path class="st2" d="M532.2,66.6c1.2,0,2.4,0,3.5,0,1.2,0,2.4.2,3.6.4v11.5c-.5,0-1,0-1.5,0h-1.5c-2.6.1-4.7.3-6.1.5-1.4.2-2.6.5-3.4.8-.8.3-1.4.7-1.9,1.3-.5.6-.9,1.2-1.1,2-.2.7-.3,1.4-.3,2.2,0,.8.3,1.4.7,2,.7,1.1,1.9,2,3.5,2.7s3.9,1,6.8.9c2,0,3.6-.2,5-.5,1.4-.4,2.7-1,4-1.8v-19.5c0-2.7-.6-4.6-1.7-5.6s-3.1-1.5-6-1.4l-5,.2h-.7c-1.1.1-2.2.3-3.4.4-1.1.2-2.2.3-3.3.5v-11.7l2.9-.7,1.2-.2s.2,0,.5,0c.3,0,.7,0,1.1-.2,4.4-.6,8.3-.8,11.5-.5s6,1,8.2,2.1,4,2.6,5.2,4.4c1.3,1.8,2.2,4.1,2.6,6.6.2,1,.3,2,.3,3v32.8c-1,.5-1.9.9-2.8,1.2s-2,.6-3.1.9c-1.2.3-2.5.6-4,.8s-3.3.5-5.4.8c-1,.1-1.9.2-2.8.3-.9,0-1.8,0-2.6,0-4.6.1-8.5-.2-11.6-1.1-3.1-.8-5.7-2-7.8-3.6-2.6-1.9-4.4-3.9-5.4-6.1-1-2.1-1.5-4.8-1.3-8,.3-5.5,2.2-9.7,5.7-12.7s8.9-4.6,16.2-4.9"/>
  <path class="st2" d="M563.7,55.6c.4-.2.7-.5,1.1-.7.4-.2.7-.4,1.1-.6,3.3-1.9,6.6-3.2,9.9-3.9,3.2-.7,6.7-.8,10.4-.4.5,0,.9,0,1.3.1.4,0,.8.1,1.3.2v12.2h-1c0,0-.9,0-.9,0-.6,0-1.2,0-1.9,0-2,0-3.6.2-4.6.5s-2.1,1-3.1,2v37.2h-13.5v-46.4h0Z"/>
  <path class="st2" d="M590.8,102v-51h13.5v51h-13.5ZM596.1,43.3c-1.7-.2-3.1-.9-4.2-1.9-1.1-1-1.8-2.2-2.2-3.7-.3-1.6,0-3.1.9-4.8.8-1.4,1.8-2.4,3.2-3,1.3-.6,3.2-.7,5.6-.4,2.3.4,4,1.4,5,3.1,1.1,1.7,1.3,3.7.6,6-.5,1.5-1.5,2.8-3.1,3.7-1.6.9-3.5,1.2-5.9.9"/>
  <path class="st2" d="M631.5,66.6c1.2,0,2.4,0,3.5,0,1.2,0,2.4.2,3.6.4v11.5c-.5,0-1,0-1.5,0h-1.5c-2.6.1-4.7.3-6.1.5s-2.6.5-3.4.8c-.8.3-1.4.7-1.9,1.3s-.9,1.3-1.1,2-.3,1.4-.3,2.2c0,.8.3,1.4.7,2,.7,1.1,1.9,2,3.5,2.7,1.6.7,3.9,1,6.8.9,2,0,3.7-.2,5-.5s2.7-1,4-1.8v-19.5c0-2.7-.6-4.6-1.7-5.6-1.1-1-3.1-1.5-6-1.4l-5,.2h-.7c-1.1.1-2.2.3-3.4.4s-2.2.3-3.3.5v-11.7l2.9-.7,1.3-.2s.2,0,.5,0c.3,0,.7-.1,1.1-.2,4.4-.6,8.3-.7,11.5-.4,3.3.3,6,1,8.2,2.1s4,2.6,5.2,4.4c1.3,1.8,2.2,4.1,2.7,6.6.2,1,.3,2,.3,3v32.8c-1,.5-1.9.9-2.8,1.2-.9.3-2,.6-3.1.9-1.2.3-2.5.6-4,.8-1.5.3-3.3.5-5.4.8-1,.1-1.9.2-2.8.3s-1.8,0-2.6,0c-4.6.1-8.5-.2-11.6-1.1-3.1-.8-5.7-2-7.8-3.6-2.6-1.9-4.4-3.9-5.4-6.1-1-2.1-1.5-4.8-1.3-8,.3-5.5,2.2-9.7,5.7-12.7,3.5-3,8.9-4.6,16.2-4.9"/>
  <g>
    <path class="st0" d="M694.5,51.8l-3.7.8v-12c3.5-1.4,6.4-2.2,8.8-2.5s4.1-.4,5-.5,1.9-.1,3.1-.1c3.5,0,6.5.4,9.1,1.1,2.6.7,6,2.6,10.3,5.7,4.3,3,6.4,8,6.4,15s-.3,4-1,6.8c-.7,2.8-2.3,5.9-4.8,9.4s-6.6,7.6-12,12.2l-2.8,2.2h16.1v12.8h-35.6v-13.4l19.6-18.4c.9-.9,1.5-1.5,1.8-1.9.3-.4,1-1.4,2-3.2,1-1.7,1.5-3.6,1.5-5.8,0-4.1-1.8-6.7-5.5-7.7s-6.7-1.5-9.2-1.5-5.5.3-9.2,1.1h0Z"/>
    <path class="st6" d="M744.1,95.7c-5.9-7.2-8.8-15.4-8.8-24.6s.7-8.8,2.2-13c1.5-4.2,3.5-7.9,6.2-11.1,2.6-3.2,5.6-5.5,8.9-7.1,3.3-1.5,6.7-2.3,10.2-2.3s7.1.7,10.3,2.2,6.1,3.8,8.8,7c2.6,3.2,4.7,7,6.2,11.2,1.5,4.3,2.3,8.6,2.3,13s-.7,8.9-2.2,13.1c-1.5,4.2-3.5,7.8-6.1,11.1-2.6,3.2-5.6,5.6-8.9,7.1-3.3,1.5-6.7,2.3-10.3,2.3s-7-.7-10.2-2.2c-3.2-1.4-6-3.7-8.5-6.7h0ZM749.8,71.1c0,6.9,1.3,12.2,3.9,15.8,2.6,3.6,5.6,5.5,9.1,5.5s6.8-2,9.3-6.1c2.5-4.1,3.7-9.1,3.7-15.1s-1-10.5-3-13.9c-2-3.3-3.7-5.4-5.2-6.3-1.5-.8-3.1-1.2-4.8-1.2-3.5,0-6.6,1.8-9.2,5.4-2.5,3.6-3.8,8.9-3.8,15.9h0Z"/>
    <path class="st5" d="M795.9,51.8l-3.7.8v-12c3.5-1.4,6.4-2.2,8.8-2.5s4.1-.4,5-.5,1.9-.1,3.1-.1c3.5,0,6.5.4,9.1,1.1,2.6.7,6,2.6,10.3,5.7,4.3,3,6.4,8,6.4,15s-.3,4-1,6.8c-.7,2.8-2.3,5.9-4.8,9.4-2.6,3.5-6.6,7.6-12,12.2l-2.8,2.2h16.1v12.8h-35.6v-13.4l19.6-18.4c.9-.9,1.5-1.5,1.8-1.9.3-.4,1-1.4,2-3.2s1.5-3.6,1.5-5.8c0-4.1-1.8-6.7-5.5-7.7s-6.7-1.5-9.2-1.5-5.5.3-9.2,1.1h0Z"/>
    <path class="st1" d="M854.8,103.4c-2.9,0-5.2-.2-7-.5s-3.5-.9-5.1-1.7v-12l4.8.7c3.4.3,6.3.5,8.7.5h1.6c.4,0,.9,0,1.4,0,.5,0,1.6-.2,3.4-.3,1.8-.2,3.6-1.2,5.5-3.1s2.9-4.2,2.9-6.7-.3-2.9-1.1-4.4l-1-1.6c-1.2-1.6-2.8-2.7-4.7-3.3-2-.6-5-.9-9.1-.9s-3.8.2-6,.5l-3.3.4v-32.2h29.6v13.4h-14.8v5.3c.7,0,1.3,0,1.8-.1s.9,0,1.2,0c1,0,1.8,0,2.6.2s2.8.5,6,1.2c3.2.7,6.2,3.1,9.1,7.2,2.9,4.1,4.3,9.2,4.3,15.3s-.8,6.4-2.3,9.3c-1.6,2.9-3.5,5.2-5.7,7s-4.5,3.1-6.8,3.9-4.4,1.3-6.4,1.6c-2,.2-3.6.4-4.8.4s-2.8,0-4.7,0h0Z"/>
  </g>
  <g>
    <g class="st3">
      <g class="st3">
        <path class="st4" d="M756.5,19.7c.3-.3.5-.6.7-.9s.4-.6.6-.9c-.6.5-1.3.9-2.1,1.1-.8.3-1.6.4-2.5.4s-1.8-.2-2.6-.5c-.8-.3-1.6-.8-2.2-1.4-.6-.6-1.1-1.3-1.5-2.2-.4-.9-.6-1.9-.6-3s.2-2.1.6-3,1-1.8,1.7-2.5c.7-.7,1.6-1.2,2.6-1.6,1-.4,2.1-.6,3.3-.6s2.2.2,3.2.6c1,.4,1.8.9,2.5,1.6.7.7,1.2,1.5,1.6,2.5s.6,2,.6,3.2,0,1.4-.2,2c-.1.6-.3,1.3-.6,1.9-.2.6-.5,1.2-.9,1.8-.4.6-.8,1.2-1.2,1.8l-6,8.7c-.1.2-.4.4-.6.5-.3.1-.6.2-.9.2h-2.8l7.5-9.8ZM749.3,12.1c0,.8.1,1.5.3,2.1.2.6.5,1.1,1,1.6.4.4.9.7,1.5,1,.6.2,1.3.3,2,.3s1.6-.1,2.2-.4c.6-.3,1.2-.6,1.6-1.1.4-.4.8-1,1-1.5.2-.6.3-1.2.3-1.8s-.1-1.5-.4-2.1c-.2-.6-.6-1.2-1-1.6-.4-.4-1-.8-1.6-1-.6-.2-1.3-.4-2-.4s-1.4.1-2.1.4-1.2.6-1.6,1c-.4.4-.8,1-1,1.6s-.4,1.3-.4,2Z"/>
      </g>
      <g class="st3">
        <path class="st4" d="M800.3,26.7v2.7h-15.2V4.9h15.2v2.7h-11.8v8.2h9.6v2.6h-9.6v8.4h11.8Z"/>
      </g>
      <g class="st3">
        <path class="st4" d="M817.9,4.2v25.3h-1.8c-.4,0-.7-.2-.8-.6l-.3-2.1c-.7.9-1.6,1.6-2.5,2.2-1,.5-2,.8-3.3.8s-1.9-.2-2.7-.6c-.8-.4-1.5-.9-2.1-1.7s-1-1.7-1.3-2.8c-.3-1.1-.5-2.4-.5-3.8s.2-2.5.5-3.6c.3-1.1.8-2.1,1.5-2.9.6-.8,1.4-1.5,2.4-1.9.9-.5,2-.7,3.1-.7s2,.2,2.7.5c.8.4,1.4.9,2,1.5V4.2h3.1ZM814.8,16.2c-.6-.8-1.2-1.3-1.9-1.6-.7-.3-1.4-.5-2.2-.5-1.6,0-2.9.6-3.7,1.7-.9,1.2-1.3,2.8-1.3,4.9s0,2.1.3,2.9c.2.8.5,1.5.9,2,.4.5.8.9,1.4,1.1.5.2,1.2.4,1.9.4,1,0,1.9-.2,2.6-.7.8-.5,1.4-1.1,2.1-1.9v-8.4Z"/>
        <path class="st4" d="M826.6,6.6c0,.3,0,.6-.2.8-.1.3-.3.5-.5.7s-.4.4-.7.5c-.3.1-.6.2-.8.2s-.6,0-.8-.2-.5-.3-.7-.5c-.2-.2-.3-.4-.5-.7-.1-.3-.2-.5-.2-.8s0-.6.2-.8.3-.5.5-.7c.2-.2.4-.4.7-.5s.5-.2.8-.2.6,0,.8.2c.3.1.5.3.7.5.2.2.4.4.5.7s.2.6.2.8ZM825.9,12.1v17.4h-3.1V12.1h3.1Z"/>
        <path class="st4" d="M847.1,29.5h-3.1v-14.8h-9v10.4c0,.7.2,1.3.5,1.6.4.4.8.5,1.4.5s.6,0,.8-.1.4-.2.6-.3c.2-.1.3-.2.4-.3s.2-.1.3-.1c.2,0,.3,0,.4.3l.9,1.5c-.5.5-1.2.9-1.9,1.2-.7.3-1.5.4-2.3.4-1.4,0-2.4-.4-3.2-1.1-.7-.8-1.1-1.9-1.1-3.3v-10.6h-2.1c-.2,0-.3,0-.5-.2-.1-.1-.2-.3-.2-.5v-1.2l2.8-.4.7-5.4c0-.2.1-.3.2-.4.1-.1.3-.2.5-.2h1.5v6h12v17ZM847.8,6.5c0,.3,0,.6-.2.8-.1.3-.3.5-.5.7s-.4.3-.7.5c-.3.1-.5.2-.8.2s-.6,0-.8-.2c-.3-.1-.5-.3-.7-.5s-.3-.4-.5-.7c-.1-.3-.2-.5-.2-.8s0-.6.2-.8c.1-.3.3-.5.5-.7s.4-.4.7-.5c.3-.1.5-.2.8-.2s.6,0,.8.2c.3.1.5.3.7.5s.4.4.5.7.2.6.2.8Z"/>
        <path class="st4" d="M859.4,11.8c1.3,0,2.4.2,3.4.6,1,.4,1.9,1,2.6,1.8.7.8,1.3,1.7,1.7,2.8.4,1.1.6,2.3.6,3.7s-.2,2.6-.6,3.7c-.4,1.1-.9,2-1.7,2.8-.7.8-1.6,1.4-2.6,1.8-1,.4-2.2.6-3.4.6s-2.4-.2-3.5-.6c-1-.4-1.9-1-2.6-1.8s-1.3-1.7-1.7-2.8-.6-2.3-.6-3.7.2-2.6.6-3.7.9-2,1.7-2.8c.7-.8,1.6-1.4,2.6-1.8,1-.4,2.2-.6,3.5-.6ZM859.4,27.3c1.7,0,3-.6,3.8-1.7.8-1.1,1.3-2.8,1.3-4.8s-.4-3.7-1.3-4.8c-.8-1.2-2.1-1.7-3.8-1.7s-1.6.1-2.3.4c-.6.3-1.2.7-1.6,1.3-.4.6-.7,1.3-1,2.1-.2.8-.3,1.7-.3,2.8,0,2.1.4,3.7,1.3,4.8.9,1.2,2.1,1.7,3.9,1.7Z"/>
        <path class="st4" d="M874.4,14.6c.4-.4.8-.8,1.2-1.1.4-.3.9-.6,1.3-.9.5-.2,1-.4,1.5-.6.5-.1,1.1-.2,1.7-.2.9,0,1.8.2,2.5.5.7.3,1.3.8,1.8,1.3s.9,1.3,1.1,2.1c.3.8.4,1.7.4,2.7v11.1h-3.1v-11.1c0-1.3-.3-2.3-.9-3.1-.6-.7-1.5-1.1-2.7-1.1s-1.7.2-2.5.7c-.8.4-1.5,1-2.2,1.8v12.8h-3.1V12.1h1.8c.4,0,.7.2.8.6l.2,1.9Z"/>
      </g>
    </g>
    <g class="st3">
      <g class="st3">
        <path class="st4" d="M766.7,3.9l-.2,1.3h1l-.2,1h-1l-.3,1.5c0,.2,0,.4,0,.6,0,.2,0,.4.4.4s.2,0,.4,0l-.2,1c-.2,0-.5.1-.8.1-.8,0-1.2-.4-1.2-1s0-.5,0-.8l.4-1.8h-.6l.2-1h.6l.2-1,1.4-.3Z"/>
        <path class="st4" d="M767.3,9.7l1.2-6.6h1.3l-.5,2.6h0c.4-.4.8-.7,1.4-.7s1.1.4,1.1,1.2,0,.6,0,.8l-.5,2.6h-1.3l.5-2.5c0-.2,0-.4,0-.6,0-.3-.1-.5-.5-.5s-.9.6-1.1,1.5l-.4,2.1h-1.3Z"/>
      </g>
    </g>
  </g>
  <g class="st3">
    <g class="st3">
      <path class="st4" d="M130.3,127.6h-3.2v-13.2h6.2v2.8h-3.1v1.7h3.9v2.6h-3.9v6.1Z"/>
      <path class="st4" d="M142.1,123.1c0-.2,0-.5,0-.7v-.2c0-.9.2-1.7.7-2.5s1.1-1.4,1.9-2c.8-.6,1.9-.8,3.1-.8s2.8.5,4,1.6c1.1,1,1.7,2.3,1.7,3.9s0,.8-.2,1.6c-.1.8-.7,1.7-1.7,2.5-1,.9-2.3,1.3-3.8,1.3s-2.7-.4-3.7-1.3-1.6-2-1.8-3.4ZM145,122.2c0,.7.2,1.3.6,2,.4.7,1.1,1,2.1,1s1.7-.3,2-.9c.4-.6.6-1,.6-1.4,0-.3,0-.5,0-.6,0-.7-.2-1.3-.7-1.9-.5-.6-1.2-.9-2-.9s-.5,0-.9.1c-.4,0-.7.3-1.1.7-.3.4-.5.8-.6,1,0,.3-.1.6-.1.9Z"/>
      <path class="st4" d="M161.9,123.1c0-.2,0-.5,0-.7v-.2c0-.9.2-1.7.7-2.5s1.1-1.4,1.9-2c.8-.6,1.9-.8,3.1-.8s2.8.5,4,1.6c1.1,1,1.7,2.3,1.7,3.9s0,.8-.2,1.6c-.1.8-.7,1.7-1.7,2.5-1,.9-2.3,1.3-3.8,1.3s-2.7-.4-3.7-1.3-1.6-2-1.8-3.4ZM164.7,122.2c0,.7.2,1.3.6,2,.4.7,1.1,1,2.1,1s1.7-.3,2-.9c.4-.6.6-1,.6-1.4,0-.3,0-.5,0-.6,0-.7-.2-1.3-.7-1.9-.5-.6-1.2-.9-2-.9s-.5,0-.9.1c-.4,0-.7.3-1.1.7-.3.4-.5.8-.6,1,0,.3-.1.6-.1.9Z"/>
      <path class="st4" d="M187.7,117h.6v2.5h-.5c-1.1,0-2,.1-2.5.6-.6.4-.8,1.1-.8,2s.2,1.6.5,2.1c.3.5.8.8,1.3.9.5.1,1,.2,1.3.2s.7,0,1-.1h.5v-13.2h2.8v15.1c-.6.2-1.2.4-1.7.5s-1.1.2-1.7.2h-.8c-1.6,0-2.8-.3-3.6-.8-.9-.5-1.4-1.1-1.7-1.9-.3-.7-.5-1.3-.6-1.6,0-.4-.1-.7-.1-1.1v-.5c0-.2,0-.6.1-1.4,0-.8.6-1.6,1.4-2.3.9-.8,2-1.1,3.5-1.1s.6,0,1,0Z"/>
      <path class="st4" d="M203.4,128.6l-.3.7h-1.1l.7-1.7c-.1,0-.3,0-.5,0-.4,0-.7-.1-1-.4-.2-.3-.3-.6-.3-1,0-.7.2-1.1.7-1.2.5-.2.8-.2,1-.2s.4,0,.9.1c.5,0,.7.5.7,1.3s-.1.9-.3,1.5v.3c-.1,0-.2.1-.2.1l-.3.6Z"/>
      <path class="st4" d="M228.2,117.1h-2.8v-2.8h8.7v2.8h-2.8v10.4h-3.2v-10.4Z"/>
      <path class="st4" d="M242.1,123.1c0-.2,0-.5,0-.7v-.2c0-.9.2-1.7.7-2.5s1.1-1.4,1.9-2c.8-.6,1.9-.8,3.1-.8s2.8.5,4,1.6c1.1,1,1.7,2.3,1.7,3.9s0,.8-.2,1.6c-.1.8-.7,1.7-1.7,2.5-1,.9-2.3,1.3-3.8,1.3s-2.7-.4-3.7-1.3-1.6-2-1.8-3.4ZM245,122.2c0,.7.2,1.3.6,2,.4.7,1.1,1,2.1,1s1.7-.3,2-.9c.4-.6.6-1,.6-1.4,0-.3,0-.5,0-.6,0-.7-.2-1.3-.7-1.9-.5-.6-1.2-.9-2-.9s-.5,0-.9.1c-.4,0-.7.3-1.1.7s-.5.8-.6,1c0,.3-.1.6-.1.9Z"/>
      <path class="st4" d="M262.1,127v-15h2.8v13.1l.8.2c.1,0,.3,0,.5,0,.2,0,.4,0,.5,0,1,0,1.7-.3,2.2-.8.5-.5.8-1.2.8-2.2,0-2-.9-2.9-2.8-2.9h-1.1c0,0,0-2.4,0-2.4h.6c.2,0,.3,0,.5,0h.4c3.1,0,4.8.8,5,2.4.2,1.6.3,2.5.3,2.6,0,.1,0,.2,0,.3,0,.7-.1,1.3-.3,1.9-.2.6-.4,1.1-.7,1.4s-.6.7-1.1,1c-.5.3-1,.6-1.6.8s-1.4.3-2.2.3-.8,0-1.3,0c-.5,0-1-.1-1.6-.3-.6-.1-1.1-.3-1.7-.5Z"/>
      <path class="st4" d="M285.4,120.3c.2,0,.5,0,.7,0,.2,0,.5,0,.8,0v2.3h-.6c-.5,0-.9,0-1.2,0s-.5.1-.7.2c-.2,0-.4.2-.5.4s-.2.4-.2.6,0,.4.2.6.4.4.7.5c.3.1.8.2,1.4.2s1.3-.2,1.8-.5v-4c0-.5-.1-.9-.3-1.1-.2-.2-.6-.3-1.2-.3h-1.2c-.2,0-.5,0-.7,0s-.5.1-.6.1v-2.4h.3c0,0,.3-.1.3-.1h.3s.3,0,.3,0c.6,0,1.1-.1,1.7-.1,1.2,0,2.1.2,2.7.7.6.5,1,1.1,1.2,2v.6c0,0,0,6.7,0,6.7-.4.2-.8.3-1.3.4-.4.1-1,.2-1.9.3-.3,0-.5,0-.7,0-.1,0-.3,0-.4,0-1.8,0-3-.3-3.7-.8-.7-.5-1.1-1-1.3-1.4-.2-.4-.3-1-.3-1.7,0-1.1.4-2,1.1-2.7.8-.6,1.9-.9,3.4-.9Z"/>
      <path class="st4" d="M306.3,117h.3v2.5h-.7c0,0-.5-.2-.5-.2h-.8c-.6.2-1.1.4-1.4.7-.3.3-.6.7-.7,1.1s-.2.9-.2,1.3c0,.8.3,1.5.9,2,.6.5,1.5.8,2.5.8s1.2,0,1.9-.2h.5c0-.1,0,2.4,0,2.4-.4.1-.8.2-1.2.3-.5,0-1.1,0-1.9,0s-.3,0-.5,0c-.2,0-.7-.1-1.5-.3-.9-.2-1.7-.7-2.4-1.6-.8-.9-1.1-2-1.1-3.4s0-.9.2-1.4c.1-.5.3-1.1.6-1.6.3-.5.7-.9,1.1-1.2.4-.3.8-.6,1.2-.7.5-.2.9-.3,1.3-.4.4,0,1,0,1.6,0h.7c0,0,.3.1.3.1Z"/>
      <path class="st4" d="M323.1,117h.3v2.5h-.7c0,0-.5-.2-.5-.2h-.8c-.6.2-1.1.4-1.4.7-.3.3-.6.7-.7,1.1s-.2.9-.2,1.3c0,.8.3,1.5.9,2,.6.5,1.5.8,2.5.8s1.2,0,1.9-.2h.5c0-.1,0,2.4,0,2.4-.4.1-.8.2-1.2.3-.5,0-1.1,0-1.9,0s-.3,0-.5,0c-.2,0-.7-.1-1.5-.3-.9-.2-1.7-.7-2.4-1.6-.8-.9-1.1-2-1.1-3.4s0-.9.2-1.4c.1-.5.3-1.1.6-1.6.3-.5.7-.9,1.1-1.2.4-.3.8-.6,1.2-.7.5-.2.9-.3,1.3-.4.4,0,1,0,1.6,0h.7c0,0,.3.1.3.1Z"/>
      <path class="st4" d="M332.9,123.1c0-.2,0-.5,0-.7v-.2c0-.9.2-1.7.7-2.5s1.1-1.4,1.9-2c.8-.6,1.9-.8,3.1-.8s2.8.5,4,1.6c1.1,1,1.7,2.3,1.7,3.9s0,.8-.2,1.6c-.1.8-.7,1.7-1.7,2.5-1,.9-2.3,1.3-3.8,1.3s-2.7-.4-3.7-1.3-1.6-2-1.8-3.4ZM335.7,122.2c0,.7.2,1.3.6,2,.4.7,1.1,1,2.1,1s1.7-.3,2-.9c.4-.6.6-1,.6-1.4,0-.3,0-.5,0-.6,0-.7-.2-1.3-.7-1.9-.5-.6-1.2-.9-2-.9s-.5,0-.9.1c-.4,0-.7.3-1.1.7s-.5.8-.6,1c0,.3-.1.6-.1.9Z"/>
      <path class="st4" d="M370,120.3c.2,0,.5,0,.7,0,.2,0,.5,0,.8,0v2.3h-.6c-.5,0-.9,0-1.2,0s-.5.1-.7.2c-.2,0-.4.2-.5.4s-.2.4-.2.6,0,.4.2.6.4.4.7.5c.3.1.8.2,1.4.2s1.3-.2,1.8-.5v-4c0-.5-.1-.9-.3-1.1-.2-.2-.6-.3-1.2-.3h-1.2c-.2,0-.5,0-.7,0s-.5.1-.6.1v-2.4h.3c0,0,.3-.1.3-.1h.3s.3,0,.3,0c.6,0,1.1-.1,1.7-.1,1.2,0,2.1.2,2.7.7.6.5,1,1.1,1.2,2v.6c0,0,0,6.7,0,6.7-.4.2-.8.3-1.3.4-.4.1-1,.2-1.9.3-.3,0-.5,0-.7,0-.1,0-.3,0-.4,0-1.8,0-3-.3-3.7-.8-.7-.5-1.1-1-1.3-1.4-.2-.4-.3-1-.3-1.7,0-1.1.4-2,1.1-2.7.8-.6,1.9-.9,3.4-.9Z"/>
      <path class="st4" d="M386.9,127.6h-2.8v-9.5l.6-.3h.3c0-.1.4-.2.4-.2l.8-.2c1-.3,1.9-.4,2.6-.4,1.5,0,2.6.3,3.2.8.7.5,1,1.4,1.1,2.7v7.1h-2.8v-6.9c0-.4-.2-.7-.4-.9-.2-.2-.6-.3-1.1-.3h-.3c0,0-.3,0-.5,0s-.4,0-.6,0c-.1,0-.4,0-.7.2v7.8Z"/>
      <path class="st4" d="M408.1,117h.6v2.5h-.5c-1.1,0-2,.1-2.5.6s-.8,1.1-.8,2,.2,1.6.5,2.1c.3.5.8.8,1.3.9.5.1,1,.2,1.3.2s.7,0,1-.1h.5v-13.2h2.8v15.1c-.6.2-1.2.4-1.7.5-.5.1-1.1.2-1.7.2h-.8c-1.5,0-2.8-.3-3.6-.8s-1.4-1.1-1.7-1.9c-.3-.7-.5-1.3-.6-1.6,0-.4-.1-.7-.1-1.1v-.5c0-.2,0-.6.1-1.4,0-.8.6-1.6,1.4-2.3.9-.8,2-1.1,3.5-1.1s.6,0,1,0Z"/>
      <path class="st4" d="M437.4,127.6h-3.2v-12.7c.8-.3,1.5-.5,2.2-.6.7,0,1.2-.1,1.6-.1,1.4,0,2.5.3,3.2.8s1.1,1.3,1.1,2.2,0,.2,0,.3c0,.1,0,.3,0,.7,0,.3-.3.7-.7,1.1.4,0,.9.4,1.7.8.7.5,1.1,1.5,1.1,3s-.1,1-.3,2c-.2,1.1-.9,1.8-2.1,2-1.2.3-2,.4-2.4.4s-.8,0-1.2-.2v-2.6h.4c1.7,0,2.6-.6,2.6-1.7s0-.4-.1-.7c0-.3-.3-.6-.7-.8s-.9-.4-1.7-.5h-.4v-2.3c.1,0,.3,0,.4,0,.1,0,.3-.1.4-.2,0,0,.2-.2.2-.3,0-.1,0-.2,0-.3,0-.4-.1-.6-.4-.7-.2,0-.4-.1-.5-.1h-.4c-.2,0-.3,0-.3,0h-.2v10.5Z"/>
      <path class="st4" d="M463.3,121c0,.1,0,.3,0,.4s0,.3,0,.5c0,.3,0,.6-.1.9h-7.2v-.3c0-.5,0-.9.1-1.2.1-.3.3-.5.6-.7h3.6c0-.4-.3-.7-.6-.9-.3-.2-.8-.3-1.4-.3s-1.4.2-1.9.5c-.5.3-.8.7-1,1.3-.1.5-.2.9-.2,1.2s.1.9.3,1.3c.2.5.6.8,1.1,1.1.5.3,1.2.4,2.1.4s.7,0,1.2,0h.6c0,0,0,2.4,0,2.4-.7.2-1.3.3-2,.3-1.5,0-2.6-.3-3.5-.8-.9-.5-1.5-1-1.8-1.5-.3-.5-.6-1-.7-1.6s-.2-1.1-.2-1.4v-1.3c.3-.6.5-1.2.8-1.7.3-.5.8-1,1.6-1.6.8-.6,1.9-.9,3.4-.9s.6,0,.9,0,.9.2,1.9.5c1.1.3,1.8,1.4,2.3,3.4Z"/>
      <path class="st4" d="M474.6,127.6l-3.5-10.4h2.8l2.2,6.9,2.2-6.9h2.7l-3.5,10.4h-2.9Z"/>
      <path class="st4" d="M499.6,121c0,.1,0,.3,0,.4s0,.3,0,.5c0,.3,0,.6-.1.9h-7.2v-.3c0-.5,0-.9.1-1.2.1-.3.3-.5.6-.7h3.6c0-.4-.3-.7-.6-.9-.3-.2-.8-.3-1.4-.3s-1.4.2-1.9.5c-.5.3-.8.7-1,1.3-.1.5-.2.9-.2,1.2s.1.9.3,1.3c.2.5.6.8,1.1,1.1.5.3,1.2.4,2.1.4s.7,0,1.2,0h.6c0,0,0,2.4,0,2.4-.7.2-1.3.3-2,.3-1.5,0-2.6-.3-3.5-.8-.9-.5-1.5-1-1.8-1.5-.3-.5-.6-1-.7-1.6s-.2-1.1-.2-1.4v-1.3c.3-.6.5-1.2.8-1.7.3-.5.8-1,1.6-1.6.8-.6,1.9-.9,3.4-.9s.6,0,.9,0,.9.2,1.9.5c1.1.3,1.8,1.4,2.3,3.4Z"/>
      <path class="st4" d="M508.3,127.6v-9.5l.4-.3c1.1-.6,2.2-.9,3.3-.9s.5,0,.8,0h.5v2.6h-.2s-.6,0-.6,0c-.4,0-.7,0-1,0-.2,0-.4.2-.6.4v7.6h-2.8Z"/>
      <path class="st4" d="M525.7,120.3c.2,0,.5,0,.7,0,.2,0,.5,0,.8,0v2.3h-.6c-.5,0-.9,0-1.2,0s-.5.1-.7.2c-.2,0-.4.2-.5.4s-.2.4-.2.6,0,.4.2.6.4.4.7.5c.3.1.8.2,1.4.2s1.3-.2,1.8-.5v-4c0-.5-.1-.9-.3-1.1-.2-.2-.6-.3-1.2-.3h-1.2c-.2,0-.5,0-.7,0s-.5.1-.6.1v-2.4h.3c0,0,.3-.1.3-.1h.3s.3,0,.3,0c.6,0,1.1-.1,1.7-.1,1.2,0,2.1.2,2.7.7.6.5,1,1.1,1.2,2v.6c0,0,0,6.7,0,6.7-.4.2-.8.3-1.3.4-.4.1-1,.2-1.9.3-.3,0-.5,0-.7,0-.1,0-.3,0-.4,0-1.8,0-3-.3-3.7-.8-.7-.5-1.1-1-1.3-1.4-.2-.4-.3-1-.3-1.7,0-1.1.4-2,1.1-2.7.8-.6,1.9-.9,3.4-.9Z"/>
      <path class="st4" d="M545.5,117h.5c.3-.2.6-.5.9-.6.4-.2.8-.2,1.4-.2h.5v2.4c-.1,0-.2,0-.4.1-.1,0-.2.1-.3.2l.3.4c.4.6.5,1.3.5,2v1c-.1,0-.1.1-.1.1,0,.3-.2.7-.5,1.2-.3.5-.7.9-1.3,1.2-.6.3-1.1.6-1.6.6-.5,0-.8.1-.9.1-.1,0-.3,0-.4,0-.7,0-1.5-.2-2.5-.6-1-.4-1.6-1-1.8-1.8s-.2-1.4-.2-1.6c0-.6.2-1.4.7-2.5.5-1,1.2-1.6,2.1-1.8.9-.2,1.5-.3,1.9-.3s.8,0,1.2.1ZM544,128.5c-.9-.1-1.5-.2-1.9-.3s-.8-.2-1.3-.4l.6-2.4c.5.2,1.1.4,1.7.5.6.1,1.5.2,2.6.2h.6c.9.3,1.6.6,2.1,1.2.5.5.8,1.2.8,2s0,.6-.2,1.1c-.1.4-.3.8-.7,1.2-.4.4-.8.6-1.3.8-.5.2-1,.2-1.5.3-.5,0-1,0-1.6,0h-.5v-2.4h.3s1,0,1,0c.3,0,.6,0,.7,0s.3-.1.5-.2c.2-.1.3-.3.3-.6s0-.3-.2-.4c-.1-.1-.2-.2-.4-.3-.2,0-.4-.1-.7-.1h-.4s-.6,0-.6,0ZM542.4,121.5c.1.8.4,1.2,1,1.3.5.1.9.2,1.1.2s.6-.1,1-.3c.5-.2.7-.7.7-1.5s0-.5-.1-.8c0-.3-.2-.6-.5-.8-.3-.2-.7-.4-1.1-.4s-.6,0-1.2.2c-.6.2-.9.7-.9,1.6s0,.3,0,.3Z"/>
      <path class="st4" d="M568.4,121c0,.1,0,.3,0,.4s0,.3,0,.5c0,.3,0,.6-.1.9h-7.2v-.3c0-.5,0-.9.1-1.2.1-.3.3-.5.6-.7h3.6c0-.4-.3-.7-.6-.9-.3-.2-.8-.3-1.4-.3s-1.4.2-1.9.5c-.5.3-.8.7-1,1.3-.1.5-.2.9-.2,1.2s.1.9.3,1.3c.2.5.6.8,1.1,1.1.5.3,1.2.4,2.1.4s.7,0,1.2,0h.6c0,0,0,2.4,0,2.4-.7.2-1.3.3-2,.3-1.5,0-2.6-.3-3.5-.8-.9-.5-1.5-1-1.8-1.5-.3-.5-.6-1-.7-1.6s-.2-1.1-.2-1.4v-1.3c.3-.6.5-1.2.8-1.7.3-.5.8-1,1.6-1.6.8-.6,1.9-.9,3.4-.9s.6,0,.9,0,.9.2,1.9.5c1.1.3,1.8,1.4,2.3,3.4Z"/>
      <path class="st4" d="M579.1,127.7c-.9,0-1.7-.1-2.5-.3v-2.4h.4c.7.2,1.3.3,1.9.3s1,0,1.5-.2c.5-.1.7-.4.7-.9s0-.3-.1-.5c0-.2-.2-.3-.3-.4-.1,0-.3-.2-.5-.3l-1.7-.9c0,0-.2-.1-.3-.2,0,0-.2-.2-.4-.4s-.4-.4-.5-.7-.2-.6-.2-.9c0-.6,0-1.1.3-1.5s.5-.6.8-.9c.4-.2.8-.4,1.1-.5.4-.1.8-.2,1.2-.2s.6,0,1,0c.3,0,.6,0,.9.2v2.3c-.3,0-.6,0-.7,0-.2,0-.4,0-.6,0h-.9c-.3.1-.4.3-.4.6s0,.2,0,.3c0,0,.2.2.4.3l.8.3,1.2.5c.3.1.6.3.9.6s.5.6.6.9c.1.3.2.7.2,1.1v.3c0,.7-.2,1.3-.7,1.9-.4.6-.9,1-1.5,1.2-.6.2-1,.3-1.4.4-.4,0-.8,0-1.4,0Z"/>
      <path class="st4" d="M608.8,127.6h-3.2v-13.2h3.2v13.2Z"/>
      <path class="st4" d="M620.5,127.6h-2.8v-9.5l.6-.3h.3c0-.1.4-.2.4-.2l.8-.2c1-.3,1.9-.4,2.6-.4,1.5,0,2.6.3,3.2.8.7.5,1,1.4,1.1,2.7v7.1h-2.8v-6.9c0-.4-.2-.7-.4-.9-.2-.2-.6-.3-1.1-.3h-.3c0,0-.3,0-.5,0s-.4,0-.6,0c-.1,0-.4,0-.7.2v7.8Z"/>
      <path class="st4" d="M636,125.1v-.6c0,0,0-10.1,0-10.1h2.8v2.8h3v2.5h-3v4.4c0,.4.1.7.4.9.3.2.8.3,1.4.3h.3v2.5h-.7c-.1.1-.3.1-.4.1h-.3c-1,0-1.9-.2-2.4-.7-.6-.4-.9-1.1-1-1.9Z"/>
      <path class="st4" d="M659.8,121c0,.1,0,.3,0,.4s0,.3,0,.5c0,.3,0,.6-.1.9h-7.2v-.3c0-.5,0-.9.1-1.2.1-.3.3-.5.6-.7h3.6c0-.4-.3-.7-.6-.9-.3-.2-.8-.3-1.4-.3s-1.4.2-1.9.5c-.5.3-.8.7-1,1.3-.1.5-.2.9-.2,1.2s.1.9.3,1.3c.2.5.6.8,1.1,1.1.5.3,1.2.4,2.1.4s.7,0,1.2,0h.6c0,0,0,2.4,0,2.4-.7.2-1.3.3-2,.3-1.5,0-2.6-.3-3.5-.8-.9-.5-1.5-1-1.8-1.5-.3-.5-.6-1-.7-1.6s-.2-1.1-.2-1.4v-1.3c.3-.6.5-1.2.8-1.7.3-.5.8-1,1.6-1.6.8-.6,1.9-.9,3.4-.9s.6,0,.9,0,.9.2,1.9.5c1.1.3,1.8,1.4,2.3,3.4Z"/>
      <path class="st4" d="M668.5,127.6v-9.5l.4-.3c1.1-.6,2.2-.9,3.3-.9s.5,0,.8,0h.5v2.6h-.2s-.6,0-.6,0c-.4,0-.7,0-1,0-.2,0-.4.2-.6.4v7.6h-2.8Z"/>
      <path class="st4" d="M684.5,127.6h-2.8v-9.5l.6-.3h.3c0-.1.4-.2.4-.2l.8-.2c1-.3,1.9-.4,2.6-.4,1.5,0,2.6.3,3.2.8.7.5,1,1.4,1.1,2.7v7.1h-2.8v-6.9c0-.4-.2-.7-.4-.9-.2-.2-.6-.3-1.1-.3h-.3c0,0-.3,0-.5,0s-.4,0-.6,0c-.1,0-.4,0-.7.2v7.8Z"/>
      <path class="st4" d="M704.1,120.3c.2,0,.5,0,.7,0,.2,0,.5,0,.8,0v2.3h-.6c-.5,0-.9,0-1.2,0s-.5.1-.7.2c-.2,0-.4.2-.5.4s-.2.4-.2.6,0,.4.2.6.4.4.7.5c.3.1.8.2,1.4.2s1.3-.2,1.8-.5v-4c0-.5-.1-.9-.3-1.1-.2-.2-.6-.3-1.2-.3h-1.2c-.2,0-.5,0-.7,0s-.5.1-.6.1v-2.4h.3c0,0,.3-.1.3-.1h.3s.3,0,.3,0c.6,0,1.1-.1,1.7-.1,1.2,0,2.1.2,2.7.7.6.5,1,1.1,1.2,2v.6c0,0,0,6.7,0,6.7-.4.2-.8.3-1.3.4-.4.1-1,.2-1.9.3-.3,0-.5,0-.7,0-.1,0-.3,0-.4,0-1.8,0-3-.3-3.7-.8-.7-.5-1.1-1-1.3-1.4-.2-.4-.3-1-.3-1.7,0-1.1.4-2,1.1-2.7.8-.6,1.9-.9,3.4-.9Z"/>
      <path class="st4" d="M718.2,125.1v-.6c0,0,0-10.1,0-10.1h2.8v2.8h3v2.5h-3v4.4c0,.4.1.7.4.9.3.2.8.3,1.4.3h.3v2.5h-.7c-.1.1-.3.1-.4.1h-.3c-1,0-1.9-.2-2.4-.7-.6-.4-.9-1.1-1-1.9Z"/>
      <path class="st4" d="M732.7,115.6c-.3,0-.6-.2-.9-.4-.2-.2-.4-.4-.4-.6,0-.2,0-.3,0-.4,0-.2,0-.5.3-.9.2-.4.6-.6,1.2-.6h.2c.1,0,.3,0,.5,0,.2,0,.4.2.6.4s.3.5.3.9v.3c0,0,0,.2-.1.4,0,.2-.2.3-.5.5-.3.2-.6.3-1,.3s-.2,0-.3,0ZM734.4,127.6h-2.8v-10.4h2.8v10.4Z"/>
      <path class="st4" d="M743.2,123.1c0-.2,0-.5,0-.7v-.2c0-.9.2-1.7.7-2.5s1.1-1.4,1.9-2c.8-.6,1.9-.8,3.1-.8s2.8.5,4,1.6c1.1,1,1.7,2.3,1.7,3.9s0,.8-.2,1.6c-.1.8-.7,1.7-1.7,2.5-1,.9-2.3,1.3-3.8,1.3s-2.7-.4-3.7-1.3-1.6-2-1.8-3.4ZM746.1,122.2c0,.7.2,1.3.6,2,.4.7,1.1,1,2.1,1s1.7-.3,2-.9c.4-.6.6-1,.6-1.4,0-.3,0-.5,0-.6,0-.7-.2-1.3-.7-1.9-.5-.6-1.2-.9-2-.9s-.5,0-.9.1c-.4,0-.7.3-1.1.7s-.5.8-.6,1c0,.3-.1.6-.1.9Z"/>
      <path class="st4" d="M766,127.6h-2.8v-9.5l.6-.3h.3c0-.1.4-.2.4-.2l.8-.2c1-.3,1.9-.4,2.6-.4,1.5,0,2.6.3,3.2.8.7.5,1,1.4,1.1,2.7v7.1h-2.8v-6.9c0-.4-.2-.7-.4-.9-.2-.2-.6-.3-1.1-.3h-.3c0,0-.3,0-.5,0s-.4,0-.6,0c-.1,0-.4,0-.7.2v7.8Z"/>
      <path class="st4" d="M785.5,120.3c.2,0,.5,0,.7,0,.2,0,.5,0,.8,0v2.3h-.6c-.5,0-.9,0-1.2,0s-.5.1-.7.2c-.2,0-.4.2-.5.4s-.2.4-.2.6,0,.4.2.6.4.4.7.5c.3.1.8.2,1.4.2s1.3-.2,1.8-.5v-4c0-.5-.1-.9-.3-1.1-.2-.2-.6-.3-1.2-.3h-1.2c-.2,0-.5,0-.7,0s-.5.1-.6.1v-2.4h.3c0,0,.3-.1.3-.1h.3s.3,0,.3,0c.6,0,1.1-.1,1.7-.1,1.2,0,2.1.2,2.7.7.6.5,1,1.1,1.2,2v.6c0,0,0,6.7,0,6.7-.4.2-.8.3-1.3.4-.4.1-1,.2-1.9.3-.3,0-.5,0-.7,0-.1,0-.3,0-.4,0-1.8,0-3-.3-3.7-.8-.7-.5-1.1-1-1.3-1.4-.2-.4-.3-1-.3-1.7,0-1.1.4-2,1.1-2.7.8-.6,1.9-.9,3.4-.9Z"/>
      <path class="st4" d="M799.6,127.6v-15.6h2.8v15.6h-2.8Z"/>
      <path class="st4" d="M827.5,127.6h-3.2v-13.2h6.2v2.8h-3.1v1.7h3.9v2.6h-3.9v6.1Z"/>
      <path class="st4" d="M843.7,120.3c.2,0,.5,0,.7,0,.2,0,.5,0,.8,0v2.3h-.6c-.5,0-.9,0-1.2,0s-.5.1-.7.2c-.2,0-.4.2-.5.4s-.2.4-.2.6,0,.4.2.6.4.4.7.5c.3.1.8.2,1.4.2s1.3-.2,1.8-.5v-4c0-.5-.1-.9-.3-1.1-.2-.2-.6-.3-1.2-.3h-1.2c-.2,0-.5,0-.7,0s-.5.1-.6.1v-2.4h.3c0,0,.3-.1.3-.1h.3s.3,0,.3,0c.6,0,1.1-.1,1.7-.1,1.2,0,2.1.2,2.7.7.6.5,1,1.1,1.2,2v.6c0,0,0,6.7,0,6.7-.4.2-.8.3-1.3.4-.4.1-1,.2-1.9.3-.3,0-.5,0-.7,0-.1,0-.3,0-.4,0-1.8,0-3-.3-3.7-.8-.7-.5-1.1-1-1.3-1.4-.2-.4-.3-1-.3-1.7,0-1.1.4-2,1.1-2.7.8-.6,1.9-.9,3.4-.9Z"/>
      <path class="st4" d="M858.9,115.6c-.3,0-.6-.2-.9-.4-.2-.2-.4-.4-.4-.6,0-.2,0-.3,0-.4,0-.2,0-.5.3-.9.2-.4.6-.6,1.2-.6h.2c.1,0,.3,0,.5,0,.2,0,.4.2.6.4s.3.5.3.9v.3c0,0,0,.2-.1.4,0,.2-.2.3-.5.5-.3.2-.6.3-1,.3s-.2,0-.3,0ZM860.6,127.6h-2.8v-10.4h2.8v10.4Z"/>
      <path class="st4" d="M869.6,127.6v-9.5l.4-.3c1.1-.6,2.2-.9,3.3-.9s.5,0,.8,0h.5v2.6h-.2s-.6,0-.6,0c-.4,0-.7,0-1,0-.2,0-.4.2-.6.4v7.6h-2.8Z"/>
    </g>
  </g>
</svg>