<svg width="2000" height="2000" viewBox="0 0 2000 2000" fill="none" xmlns="http://www.w3.org/2000/svg">
<path d="M721.442 1119.28C719.228 1124.51 716.868 1129.68 714.362 1134.8C713.828 1135.84 713.015 1136.51 711.922 1136.8L592.082 1169.16C591.889 1169.21 591.685 1169.21 591.494 1169.15C591.303 1169.09 591.132 1168.98 590.999 1168.83C590.867 1168.68 590.778 1168.5 590.743 1168.3C590.708 1168.11 590.729 1167.91 590.802 1167.72C711.602 853.92 928.242 591.8 1203.32 395C1205.38 393.548 1207.71 392.515 1210.16 391.96C1242.96 384.547 1276.8 378.187 1311.68 372.88C1316.83 372.107 1317.17 373.067 1312.72 375.76C1301.76 382.347 1291.4 389.253 1281.64 396.48C1236.23 430.08 1191 469.627 1145.96 515.12C1018.04 644.32 906.628 787.267 811.722 943.96C776.308 1002.39 746.215 1060.83 721.442 1119.28Z" fill="#262261"/>
<path d="M1833.84 809.721C1833.86 809.695 1833.86 809.668 1833.84 809.641L1833.4 808.561C1833.18 808.081 1832.84 807.935 1832.36 808.121C1801.53 820.735 1772.17 835.521 1744.28 852.481C1619.16 928.681 1506.84 1023.68 1381.96 1099.64C1310.12 1143.36 1229 1182.76 1147.16 1174.64C1035.36 1163.48 996.798 1075.88 991.398 976.281C986.158 880.121 1002.76 779.641 1022.88 684.041C1023.19 682.491 1023.88 681.037 1024.88 679.801C1062.72 633.935 1103.58 588.641 1147.48 543.921C1149.64 541.735 1150.29 542.108 1149.44 545.041C1123.92 633.361 1097.84 721.001 1080.32 810.601C1062.96 899.681 1039.72 1072.04 1154.52 1113.8C1196.4 1129.04 1241.16 1127.8 1285.2 1113.56C1355.28 1090.92 1423.8 1050.4 1484.64 1010.4C1539.57 974.295 1594.42 938.215 1649.2 902.161C1698.96 869.401 1751.72 836.841 1805.96 813.921C1807.64 813.201 1807.6 812.588 1805.84 812.081C1805.38 811.948 1804.92 811.895 1804.44 811.921C1804.06 811.948 1803.7 812.041 1803.36 812.201C1748.13 835.855 1700.5 860.281 1660.48 885.481C1585.22 932.841 1516.85 975.575 1455.36 1013.68C1414.45 1039.01 1371.92 1060.24 1327.76 1077.36C1291.68 1091.36 1255.85 1096.53 1220.28 1092.88C1143.92 1085.04 1118.96 1024.4 1115.68 957.201C1113.73 917.788 1117.04 874.415 1125.6 827.081C1134.69 776.868 1144.04 733.961 1153.64 698.361C1172.97 626.815 1191.96 555.775 1210.6 485.241C1210.94 483.961 1211.6 482.881 1212.56 482.001C1247.92 449.228 1286.04 419.748 1326.92 393.561C1327.19 393.381 1327.51 393.282 1327.84 393.274C1328.17 393.266 1328.49 393.35 1328.77 393.516C1329.06 393.683 1329.29 393.925 1329.44 394.216C1329.59 394.506 1329.66 394.834 1329.64 395.161C1328.17 418.308 1324.12 440.148 1317.48 460.681C1296.22 526.335 1273.26 597.268 1248.6 673.481C1229.82 731.535 1215.45 787.495 1205.48 841.361C1196.36 890.481 1190.64 945.361 1205.96 988.161C1233.24 1064.4 1322.72 1040.64 1378.04 1018.52C1407.9 1006.6 1434.85 994.255 1458.88 981.481C1516.37 950.921 1575.38 918.961 1635.92 885.601C1701.73 849.308 1760.04 822.561 1810.84 805.361C1845.08 793.788 1880.36 788.535 1916.68 789.601C1923.42 789.788 1930.33 790.761 1937.4 792.521C1937.41 792.521 1937.42 792.526 1937.43 792.533C1937.43 792.541 1937.44 792.551 1937.44 792.561C1937.44 792.572 1937.43 792.582 1937.43 792.59C1937.42 792.597 1937.41 792.601 1937.4 792.601C1928.68 791.761 1920.16 790.281 1911.24 791.361C1878.76 795.255 1847.58 805.908 1817.72 823.321C1775.21 848.121 1730.37 880.641 1683.2 920.881C1591.28 999.321 1499.08 1083.88 1401.64 1152.52C1302.32 1222.48 1183.72 1280.24 1061.04 1256.16C886.118 1221.8 877.397 1012.88 883.677 874.041C883.756 872.031 884.409 870.088 885.557 868.441C914.251 826.388 943.838 785.628 974.318 746.161C976.371 743.468 977.104 743.788 976.518 747.121C966.171 804.908 959.784 862.855 957.357 920.961C953.237 1019.36 967.957 1150.28 1072.32 1193.36C1102.34 1205.76 1133.41 1210.6 1165.52 1207.88C1261.72 1199.76 1351.72 1153.52 1433.44 1097.76C1521.28 1037.84 1600 971.321 1683.08 905.841C1731 868.041 1780.2 832.961 1833.84 809.721ZM1814.72 810.521C1815.44 810.815 1815.77 810.548 1815.72 809.721C1815.7 809.579 1815.65 809.445 1815.55 809.338C1815.46 809.23 1815.34 809.154 1815.2 809.121C1812.9 808.401 1810.89 808.895 1809.16 810.601C1809.03 810.721 1808.95 810.876 1808.92 811.044C1808.89 811.213 1808.91 811.387 1808.98 811.544C1809.05 811.701 1809.16 811.833 1809.31 811.922C1809.46 812.011 1809.63 812.052 1809.8 812.041C1811.34 811.961 1812.69 811.481 1813.84 810.601C1814.1 810.415 1814.4 810.388 1814.72 810.521Z" fill="#262261"/>
<path d="M570.839 1099.2C557.186 1128.19 545.119 1156.31 534.639 1183.56C534.453 1184.04 534.155 1184.48 533.766 1184.83C533.378 1185.19 532.91 1185.45 532.399 1185.6L411.919 1219.36C411.633 1219.44 411.33 1219.44 411.045 1219.36C410.76 1219.27 410.504 1219.11 410.305 1218.89C410.105 1218.67 409.971 1218.4 409.917 1218.11C409.863 1217.82 409.892 1217.52 409.999 1217.24C534.599 902.44 760.959 644.16 1036.92 444.48C1044.04 439.334 1051.92 435.454 1060.56 432.84C1091.25 423.534 1122.47 415.067 1154.2 407.44C1156.31 406.934 1156.44 407.28 1154.6 408.48C1085.91 453.094 1022.51 502.907 964.399 557.92C797.839 715.627 666.652 896.054 570.839 1099.2Z" fill="#262261"/>
<path d="M596.241 823.399C499.001 947.319 418.041 1084.68 360.321 1229.8C359.841 1230.97 359.001 1231.75 357.801 1232.12L225.961 1271.92C223.721 1272.59 223.081 1271.85 224.041 1269.72C251.695 1208.04 283.095 1148.35 318.241 1090.64C412.561 935.839 522.668 798.066 648.561 677.319C709.815 618.546 774.135 567.159 841.521 523.159C886.321 493.919 935.441 473.799 986.001 456.719C990.615 455.173 990.855 455.666 986.721 458.199C964.081 472.039 942.908 486.279 923.201 500.919C801.801 591.039 692.521 700.679 596.241 823.399Z" fill="#262261"/>
<path d="M1813.84 810.601C1812.69 811.481 1811.35 811.961 1809.8 812.041C1809.63 812.052 1809.46 812.011 1809.31 811.922C1809.16 811.833 1809.05 811.701 1808.98 811.544C1808.91 811.387 1808.89 811.213 1808.92 811.044C1808.95 810.876 1809.04 810.721 1809.16 810.601C1810.89 808.895 1812.91 808.401 1815.2 809.121C1815.34 809.154 1815.46 809.23 1815.56 809.337C1815.65 809.445 1815.71 809.579 1815.72 809.721C1815.77 810.548 1815.44 810.815 1814.72 810.521C1814.4 810.388 1814.11 810.415 1813.84 810.601Z" fill="white"/>
<path d="M277.963 1590.56C294.256 1598.88 309.589 1602.63 323.963 1601.8C355.963 1599.96 367.403 1567.84 333.723 1554.52C302.803 1542.36 266.963 1530.96 270.763 1489C275.963 1431.48 338.363 1429 381.723 1442.16C382.709 1442.45 383.149 1443.12 383.043 1444.16L379.763 1472.72C379.744 1472.88 379.689 1473.04 379.6 1473.17C379.512 1473.31 379.393 1473.42 379.253 1473.5C379.113 1473.58 378.957 1473.63 378.795 1473.64C378.633 1473.65 378.472 1473.62 378.323 1473.56C359.483 1465.88 314.523 1456.32 310.923 1488.64C309.776 1498.85 315.096 1506.39 326.883 1511.24C355.563 1523.12 392.763 1532.32 394.243 1570.96C396.883 1639.16 318.443 1638.4 274.363 1624.76C273.856 1624.6 273.629 1624.25 273.683 1623.72L277.163 1591C277.173 1590.91 277.204 1590.83 277.254 1590.75C277.304 1590.68 277.371 1590.62 277.449 1590.57C277.527 1590.53 277.615 1590.51 277.704 1590.5C277.794 1590.5 277.882 1590.52 277.963 1590.56Z" fill="#262261"/>
<path d="M605.84 1546.64C605.84 1569.09 596.923 1590.61 581.05 1606.49C565.177 1622.36 543.648 1631.28 521.2 1631.28H504.96C482.512 1631.28 460.984 1622.36 445.111 1606.49C429.238 1590.61 420.32 1569.09 420.32 1546.64V1521.2C420.32 1510.08 422.51 1499.08 426.763 1488.81C431.017 1478.54 437.251 1469.21 445.111 1461.35C452.97 1453.49 462.301 1447.25 472.57 1443C482.839 1438.75 493.845 1436.56 504.96 1436.56H521.2C532.315 1436.56 543.322 1438.75 553.591 1443C563.86 1447.25 573.19 1453.49 581.05 1461.35C588.909 1469.21 595.144 1478.54 599.397 1488.81C603.651 1499.08 605.84 1510.08 605.84 1521.2V1546.64ZM508.84 1601.64C558.84 1605.04 571.6 1553.72 564.56 1513.8C562.454 1501.85 557.747 1491.44 550.44 1482.56C537.16 1466.48 513.32 1461.96 494.8 1469.2C455.96 1484.48 453.52 1540.56 467.76 1572.68C475.734 1590.65 489.427 1600.31 508.84 1601.64Z" fill="#262261"/>
<path d="M1410.28 1546.96C1410.24 1558.08 1408.01 1569.08 1403.72 1579.33C1399.43 1589.58 1393.16 1598.89 1385.28 1606.73C1377.39 1614.56 1368.04 1620.76 1357.75 1624.98C1347.47 1629.19 1336.46 1631.35 1325.34 1631.31L1309.18 1631.25C1286.73 1631.17 1265.24 1622.18 1249.42 1606.25C1233.6 1590.32 1224.76 1568.76 1224.84 1546.32L1224.93 1520.88C1224.96 1509.76 1227.19 1498.76 1231.48 1488.51C1235.77 1478.25 1242.04 1468.95 1249.92 1461.11C1257.81 1453.28 1267.16 1447.08 1277.45 1442.86C1287.73 1438.64 1298.75 1436.49 1309.86 1436.53L1326.02 1436.59C1348.47 1436.67 1369.97 1445.66 1385.78 1461.59C1401.6 1477.52 1410.44 1499.08 1410.36 1521.52L1410.28 1546.96ZM1296.48 1597.48C1330.72 1611.52 1360.56 1592.52 1368.32 1557.8C1376.12 1522.96 1367.04 1467.68 1321.28 1466.08C1295.28 1465.2 1277.92 1477.55 1269.2 1503.12C1259.32 1532.2 1263 1583.72 1296.48 1597.48Z" fill="#262261"/>
<path d="M1766.2 1590.68C1786.04 1600.88 1814.36 1608.28 1833.12 1594.32C1852.2 1580.12 1839.24 1561.16 1821.64 1554.44C1790.24 1542.48 1754.96 1530.44 1758.84 1488.72C1764.16 1431.32 1826.52 1429.16 1869.92 1442.16C1870.3 1442.27 1870.63 1442.52 1870.85 1442.85C1871.07 1443.19 1871.17 1443.6 1871.12 1444L1867.76 1472.92C1867.68 1473.8 1867.21 1474.07 1866.36 1473.72C1847.04 1465.56 1807.32 1457.36 1799.8 1484.76C1796.76 1495.75 1800.68 1503.99 1811.56 1509.48C1827.96 1517.8 1846.52 1522.24 1861.52 1532.88C1879.63 1545.73 1885.97 1564.83 1880.56 1590.16C1869.88 1640.2 1798.68 1635.8 1762.48 1624.8C1761.95 1624.64 1761.71 1624.29 1761.76 1623.76L1765.08 1591.32C1765.1 1591.19 1765.14 1591.07 1765.21 1590.96C1765.28 1590.85 1765.38 1590.76 1765.49 1590.69C1765.6 1590.63 1765.72 1590.6 1765.84 1590.59C1765.97 1590.59 1766.09 1590.62 1766.2 1590.68Z" fill="#262261"/>
<path d="M192.56 1585.52H117.48C117.178 1585.52 116.883 1585.62 116.634 1585.79C116.384 1585.96 116.192 1586.2 116.08 1586.48L100.12 1627.88C100.009 1628.16 99.816 1628.4 99.5666 1628.57C99.3172 1628.74 99.0225 1628.84 98.7201 1628.84L62.0001 1628.88C61.7499 1628.88 61.5024 1628.83 61.2797 1628.71C61.0569 1628.6 60.8659 1628.43 60.7234 1628.23C60.5809 1628.02 60.4915 1627.78 60.463 1627.53C60.4345 1627.28 60.4679 1627.03 60.5601 1626.8L133.84 1439.96C133.952 1439.68 134.144 1439.44 134.394 1439.27C134.643 1439.1 134.938 1439 135.24 1439H176.64C176.943 1439 177.237 1439.1 177.487 1439.27C177.736 1439.44 177.929 1439.68 178.04 1439.96L251.84 1626.8C251.931 1627.03 251.965 1627.28 251.938 1627.52C251.912 1627.77 251.826 1628 251.688 1628.21C251.55 1628.41 251.365 1628.58 251.147 1628.7C250.93 1628.82 250.687 1628.88 250.44 1628.88L210.96 1628.84C210.653 1628.83 210.355 1628.74 210.105 1628.56C209.855 1628.38 209.665 1628.13 209.56 1627.84L193.96 1586.52C193.855 1586.23 193.665 1585.98 193.415 1585.8C193.165 1585.62 192.867 1585.53 192.56 1585.52ZM128.08 1553.44C128.009 1553.63 127.986 1553.84 128.013 1554.04C128.039 1554.25 128.115 1554.44 128.232 1554.61C128.35 1554.78 128.507 1554.92 128.689 1555.01C128.872 1555.11 129.074 1555.16 129.28 1555.16L180.88 1555.08C181.086 1555.08 181.289 1555.03 181.471 1554.93C181.653 1554.84 181.81 1554.7 181.928 1554.53C182.046 1554.36 182.121 1554.17 182.147 1553.96C182.174 1553.76 182.151 1553.55 182.08 1553.36L156.16 1481.08C156.065 1480.84 155.898 1480.63 155.681 1480.48C155.464 1480.34 155.208 1480.26 154.946 1480.27C154.685 1480.27 154.431 1480.35 154.219 1480.51C154.007 1480.66 153.847 1480.87 153.76 1481.12L128.08 1553.44Z" fill="#262261"/>
<path d="M757.397 1575.72C759.023 1578.87 759.837 1578.67 759.837 1575.12V1440.08C759.837 1439.79 759.95 1439.52 760.153 1439.32C760.355 1439.11 760.63 1439 760.917 1439L795.957 1439.04C796.19 1439.04 796.414 1439.13 796.579 1439.3C796.744 1439.46 796.837 1439.69 796.837 1439.92V1626.52C796.837 1628.07 796.05 1628.84 794.477 1628.84H752.077C750.45 1628.84 749.263 1628.12 748.517 1626.68L678.437 1491.44C677.157 1488.99 676.517 1489.15 676.517 1491.92L676.477 1627.56C676.477 1628.41 676.05 1628.84 675.197 1628.84L640.957 1628.88C639.97 1628.88 639.477 1628.4 639.477 1627.44V1441.24C639.477 1439.75 640.237 1439 641.757 1439H684.277C685.957 1439 687.197 1439.76 687.997 1441.28L757.397 1575.72Z" fill="#262261"/>
<path d="M875.243 1586.48L859.323 1627.88C859.212 1628.16 859.019 1628.4 858.77 1628.57C858.52 1628.74 858.226 1628.84 857.923 1628.84L821.203 1628.88C820.953 1628.88 820.706 1628.83 820.483 1628.71C820.26 1628.6 820.069 1628.43 819.927 1628.23C819.784 1628.02 819.695 1627.78 819.666 1627.53C819.638 1627.28 819.671 1627.03 819.763 1626.8L893.043 1439.96C893.155 1439.68 893.347 1439.44 893.597 1439.27C893.846 1439.1 894.141 1439 894.443 1439H935.843C936.146 1439 936.44 1439.1 936.69 1439.27C936.939 1439.44 937.132 1439.68 937.243 1439.96L1011.04 1626.76C1011.13 1626.99 1011.17 1627.24 1011.14 1627.48C1011.11 1627.73 1011.03 1627.96 1010.89 1628.17C1010.75 1628.37 1010.57 1628.54 1010.35 1628.66C1010.13 1628.78 1009.89 1628.84 1009.64 1628.84H970.163C969.856 1628.83 969.558 1628.74 969.308 1628.56C969.058 1628.38 968.868 1628.13 968.763 1627.84L953.163 1586.52C953.058 1586.23 952.868 1585.98 952.618 1585.8C952.368 1585.62 952.07 1585.53 951.763 1585.52H876.643C876.341 1585.52 876.046 1585.62 875.797 1585.79C875.547 1585.96 875.355 1586.2 875.243 1586.48ZM887.283 1553.56C887.22 1553.74 887.2 1553.93 887.226 1554.12C887.251 1554.31 887.322 1554.49 887.432 1554.65C887.541 1554.8 887.686 1554.93 887.855 1555.02C888.024 1555.11 888.212 1555.16 888.403 1555.16L940.163 1555.08C940.354 1555.08 940.542 1555.03 940.711 1554.94C940.88 1554.85 941.025 1554.72 941.135 1554.57C941.245 1554.41 941.315 1554.23 941.341 1554.04C941.367 1553.85 941.347 1553.66 941.283 1553.48L915.283 1480.88C915.196 1480.65 915.043 1480.46 914.843 1480.32C914.643 1480.18 914.406 1480.11 914.163 1480.11C913.921 1480.11 913.684 1480.18 913.484 1480.32C913.284 1480.46 913.13 1480.65 913.043 1480.88L887.283 1553.56Z" fill="#262261"/>
<path d="M1074.52 1547.12V1627.56C1074.52 1627.9 1074.39 1628.23 1074.15 1628.47C1073.91 1628.71 1073.58 1628.84 1073.24 1628.84L1037.28 1628.88C1036.94 1628.88 1036.61 1628.75 1036.37 1628.51C1036.13 1628.27 1036 1627.94 1036 1627.6V1440.28C1036 1439.94 1036.13 1439.61 1036.37 1439.37C1036.61 1439.13 1036.94 1439 1037.28 1439H1073.28C1073.62 1439 1073.95 1439.13 1074.19 1439.37C1074.43 1439.61 1074.56 1439.94 1074.56 1440.28L1074.52 1514.2C1074.52 1514.54 1074.65 1514.87 1074.89 1515.11C1075.13 1515.35 1075.46 1515.48 1075.8 1515.48L1149.56 1515.44C1149.9 1515.44 1150.23 1515.31 1150.47 1515.07C1150.71 1514.83 1150.84 1514.5 1150.84 1514.16L1150.88 1440.28C1150.88 1439.94 1151.01 1439.61 1151.25 1439.37C1151.49 1439.13 1151.82 1439 1152.16 1439H1188.24C1188.58 1439 1188.91 1439.13 1189.15 1439.37C1189.39 1439.61 1189.52 1439.94 1189.52 1440.28L1189.48 1627.56C1189.48 1627.9 1189.35 1628.23 1189.11 1628.47C1188.87 1628.71 1188.54 1628.84 1188.2 1628.84L1152.16 1628.88C1151.82 1628.88 1151.49 1628.75 1151.25 1628.51C1151.01 1628.27 1150.88 1627.94 1150.88 1627.6L1150.84 1547.16C1150.84 1546.82 1150.71 1546.49 1150.47 1546.25C1150.23 1546.01 1149.9 1545.88 1149.56 1545.88L1075.8 1545.84C1075.46 1545.84 1075.13 1545.97 1074.89 1546.21C1074.65 1546.45 1074.52 1546.78 1074.52 1547.12Z" fill="#262261"/>
<path d="M1539.28 1535.88C1546.19 1539.51 1551.36 1545.48 1554.8 1553.8C1565.47 1579.67 1575.67 1604.4 1585.4 1628C1585.44 1628.09 1585.46 1628.19 1585.45 1628.29C1585.44 1628.39 1585.41 1628.49 1585.35 1628.57C1585.3 1628.66 1585.22 1628.72 1585.13 1628.77C1585.04 1628.82 1584.94 1628.84 1584.84 1628.84L1543.92 1628.88C1543.12 1628.88 1542.59 1628.51 1542.32 1627.76C1534.3 1606.88 1526.2 1586.09 1518.04 1565.4C1511.88 1549.72 1497.72 1548.8 1483.08 1550.08C1481.8 1550.19 1481.16 1550.88 1481.16 1552.16V1627.84C1481.16 1628.1 1481.06 1628.36 1480.87 1628.55C1480.68 1628.73 1480.43 1628.84 1480.16 1628.84L1443.88 1628.88C1443.19 1628.88 1442.84 1628.55 1442.84 1627.88V1441.2C1442.84 1439.76 1443.55 1439.04 1444.96 1439.04C1466.06 1438.85 1487.56 1438.93 1509.48 1439.28C1520.63 1439.47 1531.43 1441.07 1541.88 1444.08C1586.92 1457 1584.64 1522.88 1539.52 1534.08C1537.87 1534.51 1537.79 1535.11 1539.28 1535.88ZM1481.24 1470.52L1481.08 1518.28C1481.08 1518.64 1481.23 1518.99 1481.48 1519.24C1481.74 1519.5 1482.08 1519.64 1482.44 1519.64L1503.68 1519.72C1507.65 1519.73 1511.58 1519.16 1515.25 1518.03C1518.93 1516.9 1522.26 1515.24 1525.07 1513.14C1527.89 1511.04 1530.12 1508.55 1531.64 1505.8C1533.17 1503.05 1533.96 1500.1 1533.96 1497.12V1492C1533.98 1485.99 1530.81 1480.22 1525.16 1475.95C1519.52 1471.68 1511.85 1469.27 1503.84 1469.24L1482.6 1469.16C1482.24 1469.16 1481.9 1469.3 1481.64 1469.56C1481.39 1469.81 1481.24 1470.16 1481.24 1470.52Z" fill="#262261"/>
<path d="M1651.52 1547.24V1597.48C1651.52 1597.84 1651.66 1598.19 1651.92 1598.44C1652.17 1598.7 1652.52 1598.84 1652.88 1598.84H1725.2C1725.56 1598.84 1725.91 1598.98 1726.16 1599.24C1726.42 1599.49 1726.56 1599.84 1726.56 1600.2L1726.48 1627.48C1726.48 1627.84 1726.34 1628.19 1726.08 1628.44C1725.83 1628.7 1725.48 1628.84 1725.12 1628.84H1614.36C1614 1628.84 1613.65 1628.7 1613.4 1628.44C1613.14 1628.19 1613 1627.84 1613 1627.48V1440.36C1613 1440 1613.14 1439.65 1613.4 1439.4C1613.65 1439.14 1614 1439 1614.36 1439H1724.52C1724.88 1439 1725.23 1439.14 1725.48 1439.4C1725.74 1439.65 1725.88 1440 1725.88 1440.36L1725.84 1467.8C1725.84 1468.16 1725.7 1468.51 1725.44 1468.76C1725.19 1469.02 1724.84 1469.16 1724.48 1469.16H1652.92C1652.56 1469.16 1652.21 1469.3 1651.96 1469.56C1651.7 1469.81 1651.56 1470.16 1651.56 1470.52L1651.48 1514.12C1651.48 1514.48 1651.62 1514.83 1651.88 1515.08C1652.13 1515.34 1652.48 1515.48 1652.84 1515.48L1718.24 1515.52C1718.6 1515.52 1718.95 1515.66 1719.2 1515.92C1719.46 1516.17 1719.6 1516.52 1719.6 1516.88L1719.48 1544.52C1719.48 1544.88 1719.34 1545.23 1719.08 1545.48C1718.83 1545.74 1718.48 1545.88 1718.12 1545.88H1652.88C1652.52 1545.88 1652.17 1546.02 1651.92 1546.28C1651.66 1546.53 1651.52 1546.88 1651.52 1547.24Z" fill="#262261"/>
</svg>
