<svg width="900" height="268" viewBox="0 0 900 268" fill="none" xmlns="http://www.w3.org/2000/svg">
<g clip-path="url(#clip0_2926_3943)">
<path d="M50.8984 0C56.1317 0.94 60.7717 3.26 64.8184 6.96C90.6084 30.54 74.3084 65.48 51.9384 83.69C47.9784 86.92 40.4984 92.87 35.6784 97.8C19.1917 114.653 10.045 135.113 8.23837 159.18C8.20718 159.572 8.2607 159.967 8.39531 160.336C8.52991 160.705 8.74242 161.041 9.01837 161.32C18.4484 170.98 26.5384 181.21 32.7184 193.3C35.0584 197.88 35.3184 201.77 30.8484 204.62C29.795 205.287 27.415 206.29 23.7084 207.63C21.9284 206.443 20.6584 205.35 19.8984 204.35C10.6784 192.15 3.88837 179.24 2.33837 163.78C2.14503 161.873 2.12837 158.517 2.28837 153.71C2.4017 150.37 2.3817 147.007 2.22837 143.62C6.56837 123.1 16.275 105.427 31.3484 90.6C32.4484 89.52 38.125 84.95 48.3784 76.89C51.3784 74.5367 54.8517 70.5067 58.7984 64.8C65.6284 54.94 66.4384 41.55 62.5684 30.45C60.4284 24.3033 57.3717 18.6567 53.3984 13.51C53.354 13.4558 53.2915 13.4196 53.2224 13.4079C53.1533 13.3962 53.0824 13.4099 53.0227 13.4465C52.9629 13.4831 52.9185 13.54 52.8974 13.6069C52.8764 13.6737 52.8803 13.7458 52.9084 13.81C58.6284 26.33 63.1984 44.16 57.3284 57.33C57.304 57.3842 57.2686 57.4327 57.2245 57.4726C57.1805 57.5124 57.1286 57.5427 57.0722 57.5615C57.0158 57.5803 56.9562 57.5872 56.897 57.5818C56.8378 57.5764 56.7804 57.5587 56.7284 57.53C41.8184 48.9 34.5784 32.18 38.1284 15.17C39.5817 8.21 42.895 3.15333 48.0684 0H50.8984Z" fill="#62B701"/>
<path d="M101.032 54.6711C112.982 54.5211 125.702 59.7111 131.822 70.4611C132.368 71.4145 132.648 72.4645 132.662 73.6111C132.675 74.7578 132.422 75.8145 131.902 76.7811C126.062 87.6811 113.472 93.1911 101.522 93.3411C89.5617 93.4911 76.8417 88.3011 70.7217 77.5511C70.1817 76.5978 69.9051 75.5478 69.8917 74.4011C69.8717 73.2545 70.1217 72.1978 70.6417 71.2311C76.4917 60.3311 89.0817 54.8211 101.032 54.6711Z" fill="#62B701"/>
<path d="M843.047 191.439H830.057C829.969 191.439 829.885 191.405 829.823 191.343C829.761 191.281 829.727 191.197 829.727 191.109V75.3194C829.727 75.2458 829.751 75.1743 829.797 75.1164C829.842 75.0584 829.905 75.0172 829.977 74.9994L842.967 71.7794C843.015 71.7672 843.066 71.7663 843.115 71.7767C843.164 71.7871 843.21 71.8085 843.25 71.8394C843.289 71.8702 843.321 71.9097 843.343 71.9547C843.365 71.9998 843.377 72.0492 843.377 72.0994V191.109C843.377 191.197 843.342 191.281 843.28 191.343C843.218 191.405 843.134 191.439 843.047 191.439Z" fill="#1B292A"/>
<path d="M702.601 92.4295H691.471C691.388 92.4292 691.306 92.4074 691.234 92.3661C691.162 92.3248 691.101 92.2654 691.059 92.1938C691.017 92.1223 690.994 92.0409 690.992 91.9577C690.991 91.8746 691.011 91.7925 691.051 91.7195L699.721 75.6095C699.763 75.5325 699.825 75.4685 699.901 75.4244C699.977 75.3803 700.063 75.3579 700.151 75.3595H714.001C714.089 75.3594 714.176 75.3838 714.251 75.4298C714.327 75.4758 714.388 75.5417 714.428 75.6203C714.468 75.6989 714.486 75.787 714.48 75.8751C714.473 75.9632 714.442 76.0477 714.391 76.1195L702.991 92.2295C702.946 92.2914 702.888 92.3418 702.82 92.3766C702.752 92.4113 702.677 92.4295 702.601 92.4295Z" fill="#1B292A"/>
<path d="M281.57 132.079C288.42 135.759 289.93 141.479 289.87 149.359C289.85 151.819 289.867 157.686 289.92 166.959C289.947 171.779 289.4 175.579 288.28 178.359C283.95 189.059 274.55 191.699 263.26 191.359C260.594 191.286 253.8 191.306 242.88 191.419C242.807 191.421 242.735 191.407 242.667 191.38C242.599 191.352 242.537 191.311 242.485 191.259C242.433 191.207 242.391 191.145 242.363 191.076C242.335 191.007 242.32 190.934 242.32 190.859V76.8393C242.32 76.7358 242.361 76.6367 242.435 76.5635C242.508 76.4904 242.607 76.4493 242.71 76.4493C244.21 76.4693 251.5 76.4693 264.58 76.4493C269.26 76.4426 272.89 76.9526 275.47 77.9793C280.937 80.1593 284.784 83.9193 287.01 89.2593C288.237 92.1993 288.827 97.236 288.78 104.369C288.72 112.769 288.62 117.879 288.48 119.699C288.067 124.973 285.757 128.916 281.55 131.529C281.504 131.559 281.466 131.601 281.44 131.65C281.414 131.699 281.402 131.755 281.404 131.81C281.406 131.865 281.422 131.919 281.451 131.967C281.481 132.014 281.522 132.053 281.57 132.079ZM255.9 90.1293L255.84 125.789C255.84 125.893 255.881 125.992 255.955 126.065C256.028 126.138 256.127 126.179 256.23 126.179L266.11 126.199C268.419 126.202 270.634 125.301 272.269 123.694C273.904 122.087 274.825 119.906 274.83 117.629L274.87 98.3693C274.873 97.2404 274.65 96.1221 274.214 95.0783C273.778 94.0344 273.138 93.0856 272.33 92.2859C271.522 91.4863 270.562 90.8516 269.505 90.418C268.448 89.9845 267.315 89.7606 266.17 89.7593L256.29 89.7393C256.187 89.7393 256.088 89.7804 256.015 89.8535C255.941 89.9267 255.9 90.0258 255.9 90.1293ZM255.81 138.779L255.95 177.439C255.953 177.599 256.018 177.752 256.132 177.864C256.247 177.976 256.4 178.039 256.56 178.039L266.88 178.009C268.117 178.005 269.341 177.754 270.481 177.271C271.622 176.787 272.658 176.08 273.529 175.191C274.4 174.301 275.09 173.246 275.558 172.086C276.027 170.925 276.266 169.683 276.26 168.429L276.18 147.629C276.17 145.101 275.169 142.68 273.399 140.899C271.629 139.118 269.234 138.121 266.74 138.129L256.42 138.159C256.339 138.159 256.259 138.175 256.185 138.207C256.11 138.238 256.042 138.284 255.985 138.341C255.929 138.399 255.884 138.468 255.854 138.543C255.824 138.618 255.809 138.698 255.81 138.779Z" fill="#1B292A"/>
<path d="M548.792 76.4704C550.945 76.4637 553.062 76.4771 555.142 76.5104C555.302 76.5131 555.457 76.5724 555.579 76.6783C555.702 76.7842 555.784 76.9299 555.812 77.0904L575.612 190.92C575.62 190.974 575.617 191.029 575.603 191.082C575.588 191.134 575.562 191.183 575.527 191.225C575.492 191.267 575.448 191.3 575.399 191.324C575.35 191.347 575.296 191.36 575.242 191.36H562.782C562.619 191.36 562.462 191.302 562.338 191.196C562.213 191.09 562.13 190.943 562.102 190.78L559.442 175.47C559.41 175.29 559.317 175.126 559.178 175.006C559.04 174.886 558.865 174.817 558.682 174.81C558.102 174.784 554.888 174.78 549.042 174.8C543.188 174.814 539.972 174.83 539.392 174.85C539.209 174.859 539.035 174.931 538.898 175.053C538.762 175.175 538.671 175.34 538.642 175.52L536.062 190.85C536.033 191.013 535.95 191.16 535.825 191.266C535.701 191.372 535.544 191.43 535.382 191.43L522.922 191.49C522.867 191.49 522.813 191.477 522.764 191.454C522.715 191.43 522.671 191.397 522.636 191.355C522.601 191.313 522.575 191.264 522.561 191.212C522.546 191.159 522.543 191.104 522.552 191.05L541.782 77.1304C541.807 76.9681 541.889 76.82 542.011 76.7121C542.134 76.6042 542.29 76.5435 542.452 76.5404C544.525 76.4937 546.638 76.4704 548.792 76.4704ZM549.022 163.21C551.915 163.204 554.625 163.184 557.152 163.15C557.218 163.15 557.283 163.135 557.342 163.107C557.402 163.079 557.455 163.038 557.498 162.988C557.54 162.938 557.572 162.879 557.59 162.816C557.608 162.752 557.612 162.686 557.602 162.62C554.355 143.027 551.558 125.34 549.212 109.56C549.152 109.167 549.035 108.97 548.862 108.97C548.688 108.97 548.572 109.167 548.512 109.56C546.258 125.354 543.568 143.057 540.442 162.67C540.432 162.736 540.436 162.802 540.454 162.866C540.472 162.929 540.503 162.988 540.546 163.038C540.588 163.088 540.641 163.129 540.701 163.157C540.761 163.185 540.826 163.2 540.892 163.2C543.418 163.22 546.128 163.224 549.022 163.21Z" fill="#1B292A"/>
<path d="M343.814 191.409H336.604C336.497 191.409 336.391 191.38 336.298 191.326C336.205 191.271 336.128 191.193 336.074 191.099L333.774 187.119C333.74 187.062 333.694 187.013 333.639 186.976C333.585 186.938 333.523 186.912 333.458 186.899C333.393 186.887 333.326 186.889 333.261 186.904C333.197 186.92 333.136 186.949 333.084 186.989C326.344 192.269 317.224 194.319 309.314 190.949C299.774 186.889 297.644 175.749 298.374 165.989C299.234 154.619 305.384 146.799 313.864 140.119C319.144 135.953 324.88 132.026 331.074 128.339C331.312 128.196 331.51 127.993 331.648 127.749C331.787 127.506 331.861 127.231 331.864 126.949C331.884 125.183 331.744 123.399 331.444 121.599C329.464 109.729 315.064 110.799 309.944 119.419C309.902 119.492 309.842 119.553 309.771 119.597C309.7 119.642 309.618 119.668 309.534 119.674C309.449 119.68 309.364 119.665 309.286 119.631C309.207 119.597 309.138 119.545 309.084 119.479L302.184 110.939C302.099 110.834 302.051 110.703 302.05 110.569C302.048 110.434 302.092 110.304 302.174 110.199C308.654 101.849 318.314 99.3992 328.534 100.949C336.494 102.159 341.254 108.459 343.524 116.209C344.177 118.429 344.51 121.839 344.524 126.439C344.584 149.593 344.59 171.009 344.544 190.689C344.541 190.881 344.463 191.064 344.326 191.199C344.19 191.334 344.006 191.409 343.814 191.409ZM331.774 141.659C331.774 141.595 331.758 141.531 331.726 141.475C331.693 141.419 331.647 141.373 331.59 141.341C331.534 141.31 331.471 141.294 331.406 141.295C331.341 141.296 331.279 141.315 331.224 141.349C320.854 147.699 311.094 155.519 311.834 168.879C312.194 175.359 314.894 180.259 322.214 179.589C325.874 179.249 328.93 177.716 331.384 174.989C331.633 174.709 331.772 174.35 331.774 173.979V141.659Z" fill="#1B292A"/>
<path d="M390.348 191.419C390.235 191.42 390.126 191.379 390.042 191.303C389.957 191.228 389.902 191.123 389.888 191.009C389.848 190.616 389.851 168.946 389.897 125.999C389.907 119.579 388.317 113.449 380.467 113.769C377.367 113.889 374.337 115.499 371.717 117.379C371.405 117.605 371.15 117.902 370.974 118.245C370.799 118.587 370.707 118.966 370.707 119.349V190.999C370.707 191.113 370.662 191.223 370.582 191.303C370.501 191.384 370.392 191.429 370.277 191.429H357.647C357.525 191.429 357.409 191.381 357.322 191.295C357.236 191.208 357.187 191.091 357.188 190.969V102.009C357.188 101.898 357.232 101.791 357.311 101.712C357.389 101.634 357.496 101.589 357.607 101.589H366.128C366.353 101.59 366.573 101.666 366.75 101.805C366.928 101.945 367.054 102.14 367.107 102.359L367.967 105.819C367.992 105.922 368.043 106.016 368.114 106.094C368.186 106.171 368.276 106.229 368.376 106.262C368.476 106.295 368.583 106.302 368.686 106.282C368.79 106.263 368.887 106.217 368.967 106.149C376.167 100.169 387.457 98.2293 395.247 103.519C402.297 108.309 403.747 117.159 403.617 125.499C403.537 130.166 403.537 151.903 403.617 190.709C403.617 190.9 403.542 191.083 403.407 191.218C403.272 191.353 403.088 191.429 402.897 191.429L390.348 191.419Z" fill="#1B292A"/>
<path d="M458.813 161.241C458.859 161.229 458.908 161.228 458.955 161.238C459.002 161.248 459.046 161.268 459.084 161.298C459.123 161.328 459.154 161.366 459.176 161.41C459.199 161.453 459.211 161.502 459.213 161.551C459.266 164.138 459.26 167.361 459.193 171.221C458.973 183.171 451.133 191.281 439.473 192.491C429.543 193.511 420.383 188.571 416.783 179.061C415.756 176.341 415.273 172.574 415.333 167.761C415.486 155.714 415.496 141.594 415.363 125.401C415.316 120.388 415.816 116.521 416.863 113.801C419.516 106.928 424.656 102.604 432.283 100.831C433.496 100.544 435.776 100.478 439.123 100.631C449.343 101.081 456.753 107.671 458.863 117.671C459.25 119.518 459.36 122.254 459.193 125.881C459.185 126.032 459.12 126.175 459.01 126.279C458.9 126.383 458.755 126.441 458.603 126.441H447.363C447.287 126.441 447.212 126.426 447.143 126.397C447.073 126.367 447.01 126.324 446.956 126.27C446.903 126.216 446.862 126.152 446.834 126.082C446.806 126.012 446.792 125.937 446.793 125.861C446.833 122.961 446.913 119.291 445.283 117.321C442.596 114.074 439.05 113.038 434.643 114.211C429.513 115.571 428.393 119.711 428.423 124.901C428.463 131.128 428.466 144.891 428.433 166.191C428.433 171.341 428.233 175.411 432.433 177.821C435.386 179.514 438.456 179.708 441.643 178.401C447.413 176.051 447.043 170.131 446.773 165.031C446.762 164.806 446.83 164.583 446.965 164.403C447.1 164.222 447.294 164.094 447.513 164.041L458.813 161.241Z" fill="#1B292A"/>
<path d="M514.651 171.371C514.68 176.932 512.499 182.278 508.587 186.231C504.675 190.184 499.353 192.421 493.791 192.45L490.771 192.466C485.21 192.495 479.864 190.314 475.911 186.402C471.958 182.49 469.721 177.168 469.692 171.606L469.43 121.627C469.401 116.065 471.582 110.72 475.494 106.767C479.406 102.814 484.728 100.576 490.29 100.547L493.31 100.532C498.871 100.502 504.217 102.684 508.17 106.596C512.123 110.508 514.36 115.83 514.389 121.391L514.651 171.371ZM501.199 122.463C501.197 121.32 500.97 120.189 500.531 119.134C500.091 118.08 499.449 117.122 498.64 116.315C497.83 115.509 496.87 114.87 495.814 114.434C494.758 113.999 493.626 113.776 492.483 113.778L491.203 113.78C488.896 113.784 486.685 114.705 485.056 116.339C483.427 117.973 482.515 120.188 482.519 122.495L482.602 170.495C482.604 171.638 482.831 172.769 483.27 173.823C483.709 174.878 484.352 175.836 485.161 176.643C485.971 177.449 486.931 178.088 487.987 178.524C489.043 178.959 490.175 179.182 491.318 179.18L492.598 179.178C494.905 179.174 497.116 178.253 498.745 176.619C500.374 174.984 501.286 172.77 501.282 170.463L501.199 122.463Z" fill="#1B292A"/>
<path d="M636.628 102.99L629.708 113.56C629.601 113.724 629.529 113.909 629.496 114.104C629.464 114.298 629.471 114.498 629.518 114.69L630.588 119C630.668 119.312 630.708 119.635 630.708 119.96C630.715 126.227 630.755 133.803 630.828 142.69C630.868 147.977 630.345 151.927 629.258 154.54C626.712 160.7 622.178 164.8 615.658 166.84C612.332 167.88 608.462 168.077 604.048 167.43C603.804 167.393 603.553 167.414 603.317 167.492C603.081 167.571 602.865 167.703 602.688 167.88C599.658 170.84 598.348 175.97 602.028 178.78C603.302 179.753 605.878 180.22 609.758 180.18C616.918 180.113 624.485 180.093 632.458 180.12C632.53 180.122 632.599 180.141 632.661 180.176C632.723 180.212 632.775 180.262 632.813 180.323C632.851 180.383 632.873 180.452 632.877 180.523C632.881 180.594 632.868 180.665 632.838 180.73L627.898 191.24C627.839 191.369 627.743 191.478 627.623 191.554C627.502 191.63 627.362 191.67 627.218 191.67C612.345 191.617 604.642 191.583 604.108 191.57C598.788 191.46 593.578 192.62 593.988 198.87C594.228 202.62 596.858 204.79 600.488 204.79C606.988 204.783 613.882 204.763 621.168 204.73C621.248 204.731 621.327 204.752 621.396 204.791C621.466 204.83 621.525 204.886 621.568 204.953C621.61 205.021 621.636 205.098 621.641 205.178C621.646 205.258 621.632 205.337 621.598 205.41L616.658 215.93C616.596 216.064 616.496 216.176 616.37 216.255C616.244 216.333 616.097 216.373 615.948 216.37C612.435 216.303 607.482 216.297 601.088 216.35C595.875 216.39 592.098 215.843 589.758 214.71C583.118 211.49 579.718 205.07 580.108 197.64C580.448 190.94 583.755 186.02 590.028 182.88C590.18 182.805 590.296 182.674 590.354 182.514C590.411 182.354 590.406 182.177 590.338 182.02C587.298 175.08 588.702 169.26 594.548 164.56C594.592 164.524 594.628 164.478 594.652 164.427C594.676 164.376 594.688 164.32 594.687 164.264C594.686 164.207 594.672 164.153 594.646 164.104C594.62 164.054 594.583 164.012 594.538 163.98C588.652 159.66 585.702 153.74 585.688 146.22C585.675 136.587 585.652 131.123 585.618 129.83C585.452 122.163 585.978 116.873 587.198 113.96C590.065 107.107 595.058 102.817 602.178 101.09C607.818 99.7233 613.815 100.453 620.168 103.28C620.627 103.483 621.129 103.569 621.628 103.53L636.318 102.47C636.381 102.466 636.443 102.479 636.499 102.508C636.554 102.538 636.6 102.581 636.632 102.635C636.664 102.689 636.681 102.751 636.68 102.813C636.68 102.876 636.662 102.937 636.628 102.99ZM617.838 121.69C617.838 119.364 616.914 117.133 615.27 115.489C613.625 113.844 611.394 112.92 609.068 112.92H607.308C604.982 112.92 602.752 113.844 601.107 115.489C599.462 117.133 598.538 119.364 598.538 121.69V146.55C598.538 148.876 599.462 151.107 601.107 152.751C602.752 154.396 604.982 155.32 607.308 155.32H609.068C611.394 155.32 613.625 154.396 615.27 152.751C616.914 151.107 617.838 148.876 617.838 146.55V121.69Z" fill="#1B292A"/>
<path d="M677.883 115.95C677.865 116.008 677.835 116.062 677.793 116.107C677.752 116.152 677.702 116.187 677.645 116.21C677.588 116.233 677.527 116.244 677.467 116.24C677.406 116.236 677.346 116.219 677.293 116.19C669.593 111.917 663.103 113.35 657.823 120.49C657.504 120.925 657.333 121.451 657.333 121.99V190.98C657.333 191.105 657.283 191.224 657.195 191.312C657.107 191.4 656.987 191.45 656.863 191.45H644.193C644.044 191.45 643.902 191.391 643.797 191.286C643.692 191.181 643.633 191.038 643.633 190.89V102.22C643.633 102.05 643.7 101.887 643.82 101.767C643.94 101.647 644.103 101.58 644.273 101.58H652.673C652.867 101.579 653.055 101.644 653.208 101.764C653.36 101.883 653.468 102.051 653.513 102.24L654.863 107.71C654.895 107.83 654.96 107.939 655.051 108.025C655.142 108.11 655.254 108.168 655.376 108.192C655.497 108.216 655.622 108.205 655.737 108.161C655.851 108.116 655.951 108.039 656.023 107.94C661.016 101.247 667.743 99.0365 676.203 101.31C678.049 101.81 679.673 102.713 681.073 104.02C681.219 104.158 681.323 104.334 681.372 104.529C681.422 104.724 681.415 104.929 681.353 105.12L677.883 115.95Z" fill="#1B292A"/>
<path d="M761.942 161.231C761.988 161.22 762.036 161.218 762.083 161.228C762.13 161.238 762.174 161.259 762.213 161.289C762.251 161.318 762.283 161.356 762.305 161.4C762.327 161.444 762.34 161.492 762.342 161.541C762.402 164.128 762.398 167.351 762.332 171.211C762.122 183.161 754.282 191.271 742.622 192.481C732.702 193.511 723.542 188.581 719.932 179.071C718.905 176.351 718.422 172.585 718.482 167.771C718.628 155.731 718.628 141.615 718.482 125.421C718.435 120.408 718.935 116.541 719.982 113.821C722.628 106.948 727.765 102.625 735.392 100.851C736.605 100.558 738.885 100.488 742.232 100.641C752.442 101.091 759.862 107.671 761.972 117.671C762.358 119.518 762.472 122.255 762.312 125.881C762.304 126.033 762.238 126.175 762.129 126.279C762.019 126.384 761.873 126.442 761.722 126.441H750.482C750.406 126.441 750.331 126.426 750.261 126.397C750.191 126.368 750.128 126.325 750.075 126.271C750.022 126.217 749.98 126.153 749.952 126.083C749.924 126.012 749.91 125.937 749.912 125.861C749.952 122.961 750.022 119.291 748.392 117.331C745.705 114.085 742.158 113.048 737.752 114.221C732.632 115.581 731.512 119.721 731.542 124.911C731.588 131.138 731.598 144.901 731.572 166.201C731.582 171.341 731.382 175.411 735.582 177.821C738.535 179.515 741.605 179.708 744.792 178.401C750.552 176.041 750.182 170.121 749.912 165.031C749.901 164.806 749.968 164.584 750.103 164.403C750.239 164.223 750.432 164.095 750.652 164.041L761.942 161.231Z" fill="#1B292A"/>
<path d="M817.594 171.401C817.589 174.175 817.038 176.92 815.972 179.481C814.906 182.041 813.346 184.367 811.382 186.324C809.417 188.282 807.086 189.834 804.522 190.891C801.958 191.948 799.21 192.489 796.437 192.484L793.677 192.479C790.903 192.475 788.158 191.923 785.598 190.858C783.037 189.792 780.711 188.232 778.754 186.267C776.796 184.303 775.244 181.972 774.187 179.408C773.13 176.843 772.589 174.096 772.594 171.323L772.681 121.603C772.685 118.829 773.236 116.084 774.302 113.523C775.368 110.963 776.928 108.637 778.893 106.679C780.857 104.722 783.188 103.17 785.752 102.113C788.317 101.056 791.064 100.515 793.837 100.52L796.597 100.524C799.371 100.529 802.116 101.08 804.677 102.146C807.237 103.212 809.563 104.772 811.521 106.736C813.478 108.701 815.03 111.032 816.087 113.596C817.144 116.16 817.685 118.908 817.681 121.681L817.594 171.401ZM804.429 122.468C804.431 121.326 804.208 120.194 803.773 119.138C803.337 118.081 802.698 117.121 801.892 116.312C801.085 115.503 800.127 114.86 799.072 114.421C798.018 113.982 796.887 113.755 795.744 113.753L794.444 113.751C792.137 113.747 789.922 114.66 788.288 116.288C786.654 117.917 785.733 120.128 785.729 122.436L785.645 170.495C785.643 171.638 785.866 172.77 786.302 173.826C786.737 174.882 787.376 175.842 788.183 176.652C788.989 177.461 789.947 178.104 791.002 178.543C792.057 178.982 793.188 179.209 794.33 179.211L795.63 179.213C797.937 179.217 800.152 178.304 801.786 176.676C803.421 175.047 804.341 172.836 804.345 170.528L804.429 122.468Z" fill="#1B292A"/>
<path d="M899.714 190.682C899.711 190.874 899.633 191.057 899.496 191.191C899.36 191.326 899.176 191.402 898.984 191.402L891.784 191.392C891.677 191.391 891.572 191.363 891.479 191.308C891.386 191.254 891.308 191.176 891.254 191.082L888.954 187.112C888.92 187.055 888.874 187.006 888.819 186.968C888.765 186.93 888.703 186.904 888.638 186.892C888.573 186.88 888.506 186.881 888.441 186.897C888.377 186.912 888.316 186.941 888.264 186.982C881.534 192.252 872.414 194.292 864.514 190.922C854.984 186.852 852.864 175.722 853.604 165.972C854.464 154.612 860.614 146.802 869.094 140.132C874.374 135.972 880.11 132.052 886.304 128.372C886.542 128.228 886.74 128.025 886.878 127.782C887.017 127.538 887.091 127.263 887.094 126.982C887.114 125.215 886.974 123.435 886.674 121.642C884.704 109.772 870.314 110.832 865.194 119.442C865.152 119.514 865.092 119.575 865.021 119.62C864.95 119.664 864.868 119.69 864.784 119.696C864.699 119.702 864.614 119.687 864.536 119.654C864.457 119.62 864.388 119.568 864.334 119.502L857.444 110.962C857.359 110.856 857.312 110.726 857.31 110.591C857.308 110.457 857.352 110.327 857.434 110.222C863.914 101.882 873.574 99.4417 883.784 101.002C891.734 102.212 896.484 108.512 898.754 116.262C899.4 118.482 899.73 121.888 899.744 126.482C899.784 149.615 899.774 171.015 899.714 190.682ZM887.134 141.552C887.135 141.487 887.118 141.424 887.086 141.368C887.053 141.312 887.007 141.266 886.951 141.234C886.894 141.202 886.831 141.186 886.766 141.188C886.702 141.189 886.639 141.208 886.584 141.242C876.194 147.612 866.404 155.442 867.144 168.832C867.504 175.332 870.214 180.242 877.554 179.572C881.22 179.232 884.284 177.695 886.744 174.962C886.995 174.679 887.134 174.316 887.134 173.942V141.552Z" fill="#1B292A"/>
<path d="M702.317 101.602H689.777C689.512 101.602 689.297 101.816 689.297 102.082V190.962C689.297 191.227 689.512 191.442 689.777 191.442H702.317C702.582 191.442 702.797 191.227 702.797 190.962V102.082C702.797 101.816 702.582 101.602 702.317 101.602Z" fill="#1B292A"/>
<path d="M2.23 143.621C2.38333 147.008 2.40333 150.371 2.29 153.711C2.13 158.518 2.14667 161.874 2.34 163.781C3.89 179.241 10.68 192.151 19.9 204.351C20.66 205.351 21.93 206.444 23.71 207.631C20.3567 209.191 17.18 210.631 14.18 211.951C11.71 213.031 10.82 210.731 9.8 208.551C3.68667 195.464 0.42 181.651 0 167.111V164.031C0.193333 157.211 0.936667 150.408 2.23 143.621Z" fill="#539301"/>
<path d="M17.3284 155.698C18.8484 154.288 20.7284 155.638 22.4584 156.028C23.8184 156.328 29.115 158.125 38.3484 161.418C52.4084 166.432 65.445 172.632 77.4584 180.018C78.585 180.712 79.505 181.592 80.2184 182.658C80.4074 182.945 80.5051 183.283 80.4984 183.628C80.4384 185.835 79.5417 187.212 77.8084 187.758C68.6217 190.652 59.5684 193.742 50.6484 197.028C48.6284 197.775 46.6817 197.658 44.8084 196.678C43.7217 196.105 42.5584 194.535 41.3184 191.968C35.4984 179.858 26.6084 168.428 17.1684 158.338C17.0047 158.161 16.8789 157.952 16.7983 157.724C16.7177 157.495 16.6839 157.251 16.6987 157.006C16.7136 156.76 16.7769 156.518 16.8849 156.294C16.993 156.07 17.1437 155.867 17.3284 155.698Z" fill="#62B701"/>
<path d="M206.727 161.158C206.507 160.878 206.274 161.012 206.027 161.558C205.909 161.821 205.854 162.105 205.867 162.388C206.157 167.358 205.317 171.548 204.637 177.228C203.891 183.548 202.917 188.555 201.717 192.248C197.811 204.295 190.621 214.018 180.147 221.418C174.001 225.765 167.264 229.598 159.938 232.918C161.504 230.645 163.458 228.102 165.798 225.288C175.011 214.248 184.561 203.278 194.447 192.378C194.928 191.839 195.28 191.199 195.477 190.508C197.991 181.622 199.188 172.145 199.068 162.078C199.067 161.795 199.125 161.519 199.238 161.268C200.404 158.615 202.401 157.942 205.227 159.248C206.141 159.675 206.641 160.312 206.727 161.158Z" fill="#62B701"/>
<path d="M206.731 161.162C207.018 161.728 207.165 162.352 207.171 163.032C207.521 204.942 183.471 242.202 145.431 259.172C143.991 259.812 142.915 259.508 142.201 258.262C141.868 257.682 141.881 257.115 142.241 256.562C147.928 247.768 153.828 239.888 159.941 232.922C167.268 229.602 174.005 225.768 180.151 221.422C190.625 214.022 197.815 204.298 201.721 192.252C202.921 188.558 203.895 183.552 204.641 177.232C205.321 171.552 206.161 167.362 205.871 162.392C205.858 162.109 205.913 161.825 206.031 161.562C206.278 161.015 206.511 160.882 206.731 161.162Z" fill="#539301"/>
<path d="M73.1613 244.708C72.6546 244.081 71.8646 243.678 70.7913 243.498C69.4513 243.285 68.5679 243.098 68.1413 242.938C52.3213 237.138 38.9513 227.668 28.0312 214.528C74.4012 194.628 125.981 180.098 175.901 176.028C176.171 176.002 176.445 176.036 176.701 176.128C177.395 176.375 177.898 176.751 178.211 177.258C178.355 177.49 178.447 177.751 178.479 178.023C178.511 178.296 178.484 178.573 178.399 178.837C178.314 179.101 178.173 179.346 177.985 179.555C177.798 179.764 177.568 179.932 177.311 180.048C146.771 193.888 116.981 209.908 91.1012 229.338C85.2946 233.691 79.3146 238.815 73.1613 244.708Z" fill="#62B701"/>
<path d="M141.663 243.309C139.389 244.009 137.182 244.709 135.042 245.409C132.402 246.269 130.179 246.899 128.372 247.299C113.066 250.672 97.6292 250.639 82.0625 247.199C87.8425 241.779 93.8692 236.839 100.143 232.379C125.923 214.029 154.252 198.799 182.982 186.249C184.016 185.795 184.789 185.565 185.303 185.559C187.503 185.539 187.722 188.079 186.592 189.319C169.792 207.732 154.816 225.729 141.663 243.309Z" fill="#62B701"/>
<path d="M337.059 210.738C338.619 209.698 339.899 208.428 341.919 208.948C344.739 209.668 346.143 211.558 346.129 214.618C346.116 217.378 346.126 219.911 346.159 222.218C346.161 222.316 346.142 222.412 346.105 222.503C346.067 222.593 346.012 222.674 345.941 222.741C345.871 222.809 345.787 222.861 345.696 222.895C345.604 222.929 345.507 222.944 345.409 222.938H345.359C345.163 222.928 344.979 222.843 344.844 222.701C344.71 222.559 344.637 222.372 344.639 222.178C344.659 219.698 345.439 212.998 343.279 211.208C341.893 210.048 340.129 210.068 337.989 211.268C337.513 211.538 337.116 211.93 336.841 212.402C336.565 212.875 336.42 213.412 336.419 213.958L336.439 222.198C336.44 222.396 336.363 222.586 336.225 222.729C336.087 222.872 335.899 222.958 335.699 222.968H335.639C335.541 222.971 335.442 222.954 335.35 222.918C335.258 222.882 335.174 222.828 335.103 222.759C335.032 222.69 334.976 222.607 334.938 222.516C334.899 222.425 334.879 222.327 334.879 222.228L334.859 203.558C334.859 203.431 334.91 203.309 335 203.219C335.09 203.129 335.212 203.078 335.339 203.078H335.709C335.898 203.078 336.078 203.153 336.211 203.286C336.345 203.419 336.419 203.6 336.419 203.788V210.398C336.419 210.473 336.439 210.546 336.478 210.61C336.516 210.674 336.571 210.726 336.637 210.761C336.703 210.796 336.777 210.812 336.851 210.808C336.926 210.804 336.998 210.78 337.059 210.738Z" fill="#71726F"/>
<path d="M396.981 203.74V222.43C396.981 222.554 396.931 222.674 396.843 222.762C396.755 222.85 396.635 222.9 396.511 222.9H396.231C396.048 222.9 395.872 222.827 395.743 222.698C395.614 222.568 395.541 222.393 395.541 222.21V221.12C395.54 221.062 395.523 221.006 395.492 220.958C395.461 220.909 395.417 220.87 395.365 220.845C395.313 220.82 395.255 220.81 395.198 220.817C395.141 220.823 395.086 220.845 395.041 220.88C392.927 222.593 391.201 223.377 389.861 223.23C383.481 222.52 381.371 215.02 385.741 210.69C387.831 208.64 391.481 208.17 393.761 210.42C394.194 210.847 394.561 211.18 394.861 211.42C394.918 211.464 394.986 211.492 395.058 211.5C395.13 211.508 395.203 211.496 395.269 211.465C395.334 211.433 395.389 211.385 395.429 211.324C395.468 211.263 395.489 211.192 395.491 211.12V203.61C395.491 203.542 395.504 203.474 395.53 203.411C395.557 203.348 395.595 203.29 395.643 203.242C395.691 203.194 395.749 203.156 395.812 203.129C395.875 203.103 395.943 203.09 396.011 203.09H396.331C396.503 203.09 396.669 203.158 396.79 203.28C396.912 203.402 396.981 203.567 396.981 203.74ZM390.43 210.304C389.751 210.279 389.074 210.401 388.437 210.665C387.799 210.928 387.214 211.327 386.715 211.838C386.216 212.349 385.812 212.963 385.528 213.645C385.243 214.327 385.082 215.062 385.054 215.81C384.999 217.321 385.49 218.79 386.42 219.894C387.35 220.997 388.642 221.646 390.012 221.696C390.69 221.721 391.368 221.598 392.005 221.335C392.642 221.072 393.227 220.673 393.726 220.162C394.226 219.65 394.629 219.036 394.914 218.355C395.199 217.673 395.36 216.937 395.387 216.189C395.443 214.679 394.952 213.21 394.022 212.106C393.092 211.002 391.8 210.354 390.43 210.304Z" fill="#71726F"/>
<path d="M250.787 213.709C250.781 216.329 251.811 218.469 253.877 220.129C254.188 220.38 254.524 220.591 254.877 220.759C259.124 222.785 262.634 221.705 265.407 217.519C265.507 217.366 265.651 217.248 265.821 217.18C265.991 217.112 266.178 217.098 266.357 217.139L266.457 217.169C266.537 217.187 266.611 217.224 266.673 217.277C266.736 217.329 266.785 217.395 266.817 217.47C266.849 217.545 266.863 217.627 266.858 217.708C266.853 217.789 266.829 217.868 266.787 217.939C264.561 221.765 261.504 223.472 257.617 223.059C252.637 222.529 249.357 218.809 249.367 213.709C249.377 208.609 252.667 204.899 257.647 204.389C261.534 203.989 264.584 205.705 266.797 209.539C266.839 209.609 266.863 209.688 266.868 209.769C266.873 209.851 266.859 209.932 266.827 210.007C266.795 210.082 266.746 210.148 266.683 210.201C266.621 210.253 266.547 210.29 266.467 210.309L266.367 210.339C266.188 210.38 266.001 210.365 265.831 210.297C265.661 210.229 265.517 210.111 265.417 209.959C262.664 205.759 259.157 204.665 254.897 206.679C254.548 206.844 254.215 207.052 253.907 207.299C251.827 208.952 250.787 211.089 250.787 213.709Z" fill="#71726F"/>
<path d="M565.922 204.678L565.662 204.679C565.331 204.682 565.064 204.952 565.067 205.284L565.152 217.563C565.155 217.895 565.425 218.161 565.757 218.159L566.017 218.157C566.348 218.155 566.615 217.884 566.612 217.553L566.527 205.273C566.524 204.942 566.254 204.675 565.922 204.678Z" fill="#71726F"/>
<path d="M243.54 210.85C244.214 210.85 244.76 210.304 244.76 209.63C244.76 208.956 244.214 208.41 243.54 208.41C242.867 208.41 242.32 208.956 242.32 209.63C242.32 210.304 242.867 210.85 243.54 210.85Z" fill="#71726F"/>
<path d="M278.043 208.901C278.954 209.011 279.834 209.305 280.633 209.765C281.431 210.225 282.133 210.843 282.697 211.582C283.261 212.322 283.678 213.17 283.922 214.077C284.166 214.984 284.233 215.933 284.12 216.869C284.006 217.805 283.715 218.71 283.261 219.533C282.808 220.355 282.202 221.079 281.477 221.663C280.753 222.247 279.924 222.679 279.039 222.936C278.154 223.192 277.229 223.267 276.318 223.157C275.406 223.047 274.526 222.753 273.728 222.293C272.929 221.833 272.228 221.215 271.663 220.475C271.099 219.735 270.683 218.888 270.439 217.981C270.195 217.074 270.128 216.125 270.241 215.189C270.354 214.253 270.646 213.348 271.099 212.525C271.553 211.703 272.159 210.979 272.883 210.395C273.608 209.811 274.436 209.378 275.322 209.122C276.207 208.866 277.132 208.791 278.043 208.901ZM282.64 216.009C282.64 214.537 282.056 213.125 281.015 212.084C279.974 211.044 278.562 210.459 277.09 210.459C275.618 210.459 274.207 211.044 273.166 212.084C272.125 213.125 271.54 214.537 271.54 216.009C271.54 217.481 272.125 218.892 273.166 219.933C274.207 220.974 275.618 221.559 277.09 221.559C278.562 221.559 279.974 220.974 281.015 219.933C282.056 218.892 282.64 217.481 282.64 216.009Z" fill="#71726F"/>
<path d="M296.911 212.512C296.511 212.458 296.077 212.202 295.611 211.742C293.831 209.992 291.621 209.882 289.801 211.702C289.624 211.879 289.495 212.098 289.424 212.338C289.353 212.578 289.343 212.832 289.394 213.077C289.446 213.322 289.558 213.55 289.719 213.741C289.881 213.932 290.088 214.08 290.321 214.172C290.934 214.418 292.657 214.928 295.491 215.702C298.461 216.522 298.821 220.122 296.631 221.852C293.931 223.992 288.631 223.802 287.561 219.892C287.529 219.772 287.532 219.645 287.569 219.526C287.605 219.407 287.674 219.301 287.767 219.219C287.86 219.137 287.975 219.083 288.097 219.062C288.22 219.041 288.346 219.055 288.461 219.102C288.807 219.255 289.174 219.592 289.561 220.112C291.191 222.322 296.151 222.192 296.461 219.142C296.51 218.661 296.379 218.179 296.091 217.785C295.804 217.391 295.381 217.112 294.901 217.002C292.467 216.428 290.857 215.992 290.071 215.692C284.201 213.422 290.341 206.402 295.901 209.792C296.767 210.318 297.317 210.978 297.551 211.772C297.579 211.865 297.583 211.964 297.562 212.06C297.542 212.155 297.498 212.244 297.434 212.317C297.37 212.391 297.289 212.448 297.197 212.482C297.106 212.516 297.007 212.526 296.911 212.512Z" fill="#71726F"/>
<path d="M303.516 216.528C303.429 216.529 303.342 216.55 303.264 216.59C303.186 216.63 303.119 216.687 303.067 216.757C303.015 216.827 302.981 216.908 302.967 216.994C302.953 217.079 302.96 217.166 302.986 217.248C304.293 221.175 306.73 222.455 310.296 221.088C311.376 220.678 312.336 219.298 313.376 219.038C313.494 219.008 313.618 219.014 313.732 219.055C313.846 219.096 313.946 219.17 314.017 219.268C314.089 219.365 314.131 219.482 314.136 219.604C314.141 219.725 314.11 219.845 314.046 219.948C312.646 222.258 309.446 223.748 306.676 223.088C300.996 221.758 299.716 214.578 303.336 210.798C305.936 208.088 310.446 208.318 312.876 211.118C313.936 212.325 314.446 213.968 314.406 216.048C314.404 216.176 314.351 216.298 314.259 216.388C314.168 216.478 314.045 216.528 313.916 216.528H303.516ZM303.196 214.918L312.616 214.878C312.632 214.878 312.647 214.875 312.661 214.869C312.675 214.863 312.688 214.854 312.698 214.842C312.708 214.831 312.716 214.818 312.721 214.803C312.726 214.789 312.728 214.773 312.726 214.758V214.658C312.719 213.538 312.22 212.466 311.339 211.678C310.457 210.891 309.266 210.452 308.026 210.458H307.746C307.131 210.461 306.522 210.574 305.955 210.789C305.388 211.005 304.873 211.32 304.44 211.716C304.007 212.111 303.665 212.58 303.433 213.095C303.2 213.611 303.083 214.162 303.086 214.718V214.818C303.089 214.846 303.102 214.871 303.122 214.889C303.142 214.908 303.169 214.918 303.196 214.918Z" fill="#71726F"/>
<path d="M319.148 216C319.118 220.19 322.918 223.01 326.778 221.12C327.043 220.988 327.286 220.812 327.498 220.6L329.238 218.83C329.342 218.723 329.482 218.657 329.631 218.646C329.781 218.635 329.929 218.679 330.048 218.77L330.318 218.98C330.378 219.028 330.429 219.088 330.465 219.156C330.502 219.224 330.524 219.3 330.53 219.377C330.537 219.455 330.528 219.533 330.503 219.608C330.479 219.682 330.439 219.751 330.388 219.81C326.981 223.71 323.495 224.277 319.928 221.51C318.248 220.204 317.418 218.36 317.438 215.98C317.451 213.607 318.311 211.78 320.018 210.5C323.625 207.787 327.101 208.407 330.448 212.36C330.498 212.421 330.536 212.491 330.559 212.566C330.582 212.641 330.589 212.72 330.581 212.798C330.573 212.875 330.549 212.95 330.51 213.018C330.472 213.085 330.42 213.144 330.358 213.19L330.088 213.39C329.968 213.48 329.819 213.523 329.669 213.51C329.52 213.497 329.381 213.429 329.278 213.32L327.568 211.53C327.361 211.312 327.121 211.13 326.858 210.99C323.028 209.04 319.178 211.81 319.148 216Z" fill="#71726F"/>
<path d="M427.327 216.511C427.238 216.51 427.151 216.531 427.071 216.57C426.992 216.609 426.923 216.666 426.87 216.736C426.818 216.807 426.783 216.888 426.768 216.974C426.754 217.06 426.76 217.148 426.787 217.231C428.1 221.184 430.55 222.474 434.137 221.101C435.227 220.691 436.197 219.301 437.237 219.041C437.354 219.011 437.478 219.017 437.592 219.058C437.707 219.099 437.806 219.173 437.878 219.271C437.95 219.368 437.991 219.485 437.996 219.606C438.001 219.728 437.97 219.847 437.907 219.951C436.507 222.281 433.287 223.771 430.497 223.111C424.787 221.771 423.507 214.541 427.147 210.751C429.757 208.021 434.297 208.261 436.737 211.071C437.803 212.284 438.317 213.938 438.277 216.031C438.274 216.159 438.221 216.281 438.13 216.371C438.038 216.461 437.915 216.511 437.787 216.511H427.327ZM427.187 214.881L436.267 214.841C436.307 214.841 436.345 214.825 436.373 214.797C436.401 214.769 436.417 214.731 436.417 214.691V214.601C436.415 214.065 436.294 213.535 436.061 213.04C435.828 212.546 435.488 212.098 435.059 211.721C434.631 211.344 434.124 211.045 433.566 210.843C433.008 210.641 432.41 210.538 431.807 210.541H431.607C430.39 210.547 429.225 210.982 428.368 211.751C427.511 212.52 427.032 213.559 427.037 214.641V214.731C427.037 214.771 427.053 214.809 427.081 214.837C427.109 214.865 427.147 214.881 427.187 214.881Z" fill="#71726F"/>
<path d="M450.993 212.541C450.593 212.488 450.16 212.228 449.693 211.761C447.923 209.991 445.713 209.861 443.863 211.671C443.684 211.847 443.552 212.065 443.478 212.306C443.405 212.546 443.392 212.801 443.442 213.047C443.491 213.293 443.602 213.523 443.763 213.716C443.923 213.909 444.13 214.059 444.363 214.151C444.977 214.405 446.7 214.931 449.533 215.731C452.513 216.581 452.833 220.191 450.623 221.911C447.893 224.031 442.583 223.791 441.543 219.861C441.513 219.741 441.517 219.614 441.555 219.495C441.593 219.377 441.663 219.271 441.757 219.19C441.852 219.109 441.967 219.056 442.09 219.037C442.213 219.018 442.339 219.033 442.453 219.081C442.8 219.235 443.167 219.575 443.553 220.101C445.163 222.331 450.143 222.251 450.483 219.191C450.538 218.711 450.411 218.226 450.125 217.828C449.84 217.43 449.416 217.147 448.933 217.031C446.5 216.431 444.89 215.978 444.103 215.671C438.233 213.341 444.453 206.351 450.003 209.811C450.87 210.345 451.417 211.011 451.643 211.811C451.669 211.904 451.672 212.002 451.65 212.095C451.628 212.189 451.583 212.276 451.518 212.348C451.454 212.421 451.372 212.476 451.28 212.51C451.189 212.544 451.09 212.554 450.993 212.541Z" fill="#71726F"/>
<path d="M459.06 210.67C460.7 209.41 462.21 208.49 464.15 208.86C472.38 210.41 471.5 222.96 463.5 223.34C461.96 223.413 460.47 222.717 459.03 221.25C458.966 221.189 458.886 221.147 458.799 221.13C458.712 221.113 458.622 221.121 458.541 221.154C458.46 221.188 458.391 221.244 458.342 221.316C458.294 221.388 458.269 221.473 458.27 221.56V228.5C458.27 228.67 458.202 228.833 458.082 228.953C457.962 229.073 457.799 229.14 457.63 229.14H457.33C457.091 229.14 456.862 229.045 456.693 228.876C456.525 228.708 456.43 228.479 456.43 228.24V209.55C456.43 209.43 456.462 209.313 456.524 209.21C456.585 209.107 456.674 209.023 456.78 208.966C456.886 208.909 457.006 208.881 457.127 208.885C457.249 208.889 457.367 208.926 457.47 208.99C457.923 209.29 458.146 209.697 458.14 210.21C458.138 210.318 458.166 210.423 458.222 210.515C458.278 210.608 458.358 210.682 458.455 210.73C458.551 210.778 458.659 210.798 458.766 210.787C458.873 210.777 458.975 210.736 459.06 210.67ZM463.178 210.44C461.841 210.424 460.552 210.994 459.594 212.025C458.636 213.056 458.088 214.464 458.07 215.938C458.061 216.668 458.183 217.393 458.428 218.071C458.673 218.748 459.036 219.366 459.498 219.888C459.96 220.41 460.51 220.826 461.118 221.113C461.726 221.4 462.38 221.552 463.042 221.56C464.378 221.576 465.667 221.006 466.625 219.975C467.583 218.944 468.131 217.536 468.149 216.062C468.158 215.331 468.037 214.607 467.792 213.929C467.547 213.252 467.183 212.634 466.721 212.112C466.26 211.59 465.709 211.174 465.101 210.887C464.493 210.6 463.839 210.448 463.178 210.44Z" fill="#71726F"/>
<path d="M475.011 216.52C474.922 216.521 474.835 216.542 474.756 216.582C474.676 216.623 474.608 216.681 474.556 216.752C474.505 216.824 474.471 216.906 474.458 216.993C474.445 217.079 474.453 217.168 474.481 217.25C475.821 221.21 478.288 222.49 481.881 221.09C482.971 220.67 483.931 219.27 484.981 219.01C485.099 218.983 485.221 218.99 485.335 219.031C485.448 219.073 485.547 219.146 485.619 219.243C485.691 219.339 485.733 219.455 485.741 219.575C485.748 219.695 485.721 219.815 485.661 219.92C484.261 222.26 481.031 223.78 478.231 223.13C472.491 221.82 471.161 214.57 474.801 210.73C477.411 207.98 481.971 208.19 484.441 211.01C485.515 212.223 486.038 213.88 486.011 215.98C486.009 216.111 485.955 216.236 485.861 216.327C485.768 216.419 485.642 216.47 485.511 216.47L475.011 216.52ZM475.001 214.79L483.941 214.83C483.981 214.83 484.019 214.814 484.047 214.786C484.075 214.758 484.091 214.72 484.091 214.68V214.6C484.096 213.548 483.627 212.536 482.789 211.788C481.951 211.04 480.812 210.616 479.621 210.61H479.361C478.771 210.607 478.187 210.707 477.641 210.904C477.095 211.101 476.598 211.391 476.179 211.758C475.761 212.125 475.428 212.561 475.2 213.042C474.972 213.523 474.853 214.039 474.851 214.56V214.64C474.851 214.68 474.867 214.718 474.895 214.746C474.923 214.774 474.961 214.79 475.001 214.79Z" fill="#71726F"/>
<path d="M498.938 216.061C498.918 212.341 501.158 209.381 504.778 208.781C506.928 208.431 508.528 209.521 510.118 211.001C510.177 211.06 510.252 211.1 510.335 211.116C510.417 211.131 510.503 211.121 510.58 211.086C510.657 211.052 510.723 210.995 510.769 210.923C510.815 210.85 510.839 210.766 510.838 210.681C510.798 209.654 511.094 209.077 511.728 208.951C511.815 208.933 511.905 208.936 511.992 208.958C512.079 208.981 512.16 209.022 512.23 209.081C512.299 209.139 512.356 209.212 512.395 209.295C512.434 209.378 512.456 209.469 512.458 209.561C512.491 211.667 512.511 213.811 512.518 215.991C512.531 218.171 512.534 220.314 512.528 222.421C512.527 222.514 512.507 222.606 512.468 222.69C512.43 222.774 512.373 222.848 512.303 222.908C512.234 222.967 512.152 223.01 512.065 223.033C511.977 223.056 511.886 223.058 511.798 223.041C511.158 222.921 510.854 222.347 510.888 221.321C510.889 221.235 510.865 221.151 510.819 221.079C510.773 221.007 510.707 220.95 510.63 220.915C510.552 220.881 510.467 220.871 510.385 220.886C510.302 220.901 510.227 220.941 510.168 221.001C508.598 222.501 507.008 223.601 504.858 223.281C501.228 222.721 498.958 219.781 498.938 216.061ZM505.944 210.492C504.612 210.462 503.323 211.017 502.358 212.037C501.393 213.056 500.832 214.455 500.799 215.927C500.782 216.655 500.896 217.38 501.133 218.059C501.37 218.738 501.725 219.358 502.18 219.884C502.634 220.409 503.178 220.831 503.781 221.123C504.383 221.416 505.033 221.574 505.692 221.589C507.023 221.619 508.313 221.064 509.277 220.045C510.242 219.025 510.803 217.626 510.836 216.155C510.853 215.426 510.739 214.701 510.503 214.023C510.266 213.344 509.91 212.724 509.455 212.198C509.001 211.672 508.457 211.251 507.855 210.958C507.252 210.665 506.603 210.507 505.944 210.492Z" fill="#71726F"/>
<path d="M519.858 210.37C521.778 209.216 522.972 208.663 523.438 208.71C526.758 209.036 528.488 210.673 528.628 213.62C528.728 215.833 528.738 218.726 528.658 222.3C528.653 222.511 528.566 222.712 528.414 222.86C528.263 223.007 528.06 223.09 527.848 223.09H527.508C527.327 223.09 527.153 223.018 527.024 222.891C526.895 222.764 526.821 222.591 526.818 222.41L526.798 213.88C526.799 213.412 526.702 212.95 526.514 212.521C526.326 212.093 526.052 211.708 525.708 211.392C525.364 211.075 524.958 210.833 524.516 210.681C524.073 210.529 523.604 210.471 523.138 210.51L522.938 210.52C521.951 210.591 521.027 211.033 520.353 211.756C519.679 212.48 519.306 213.432 519.308 214.42L519.318 222.23C519.318 222.332 519.299 222.434 519.26 222.528C519.221 222.623 519.164 222.709 519.093 222.781C519.021 222.854 518.937 222.911 518.843 222.95C518.75 222.99 518.65 223.01 518.548 223.01H518.218C518.001 223.01 517.792 222.922 517.639 222.767C517.485 222.611 517.398 222.4 517.398 222.18V209.59C517.398 209.486 517.423 209.383 517.47 209.291C517.516 209.198 517.585 209.118 517.668 209.056C517.752 208.995 517.849 208.954 517.952 208.937C518.054 208.921 518.159 208.928 518.258 208.96C518.838 209.153 519.152 209.51 519.198 210.03C519.205 210.103 519.23 210.174 519.272 210.236C519.313 210.297 519.369 210.347 519.435 210.381C519.501 210.415 519.574 210.432 519.648 210.43C519.722 210.428 519.794 210.407 519.858 210.37Z" fill="#71726F"/>
<path d="M559.417 216.069C559.424 218.229 559.418 220.356 559.398 222.449C559.397 222.541 559.377 222.631 559.339 222.714C559.301 222.797 559.245 222.871 559.176 222.929C559.107 222.987 559.027 223.029 558.941 223.052C558.854 223.074 558.765 223.077 558.677 223.059C558.044 222.939 557.744 222.369 557.778 221.349C557.781 221.265 557.759 221.183 557.715 221.111C557.671 221.04 557.607 220.984 557.53 220.949C557.454 220.915 557.369 220.904 557.287 220.918C557.204 220.933 557.128 220.971 557.068 221.029C555.498 222.509 553.917 223.599 551.787 223.269C548.177 222.699 545.938 219.769 545.938 216.079C545.938 212.379 548.168 209.459 551.768 208.879C553.908 208.539 555.487 209.629 557.057 211.109C557.118 211.167 557.194 211.205 557.277 211.219C557.359 211.234 557.444 211.223 557.52 211.188C557.597 211.154 557.661 211.098 557.705 211.026C557.749 210.955 557.771 210.873 557.768 210.789C557.734 209.769 558.034 209.196 558.667 209.069C558.754 209.051 558.844 209.054 558.931 209.076C559.017 209.099 559.097 209.141 559.166 209.199C559.235 209.257 559.291 209.331 559.329 209.414C559.367 209.497 559.387 209.587 559.388 209.679C559.408 211.772 559.417 213.902 559.417 216.069ZM553.013 210.367C552.343 210.331 551.671 210.442 551.037 210.693C550.403 210.944 549.819 211.329 549.318 211.827C548.817 212.325 548.408 212.927 548.116 213.596C547.824 214.266 547.653 214.992 547.615 215.732C547.536 217.225 547.999 218.686 548.9 219.792C549.802 220.899 551.069 221.56 552.422 221.631C553.092 221.666 553.764 221.555 554.398 221.305C555.032 221.054 555.616 220.669 556.117 220.171C556.618 219.672 557.027 219.071 557.319 218.401C557.611 217.731 557.782 217.006 557.82 216.266C557.899 214.773 557.436 213.312 556.535 212.205C555.633 211.099 554.366 210.438 553.013 210.367Z" fill="#71726F"/>
<path d="M349.938 216.039C349.938 212.399 352.138 209.509 355.688 208.939C357.787 208.609 359.347 209.679 360.897 211.139C360.956 211.197 361.03 211.235 361.111 211.249C361.191 211.263 361.275 211.252 361.35 211.218C361.425 211.183 361.489 211.127 361.533 211.056C361.577 210.985 361.6 210.902 361.598 210.819C361.564 209.812 361.858 209.249 362.478 209.129C362.562 209.111 362.65 209.114 362.734 209.136C362.818 209.158 362.897 209.199 362.965 209.256C363.032 209.313 363.088 209.385 363.126 209.467C363.165 209.549 363.186 209.638 363.188 209.729C363.214 211.796 363.228 213.892 363.228 216.019C363.228 218.152 363.218 220.249 363.198 222.309C363.196 222.4 363.175 222.489 363.136 222.571C363.098 222.653 363.042 222.725 362.975 222.782C362.907 222.839 362.828 222.88 362.744 222.902C362.66 222.924 362.572 222.927 362.487 222.909C361.867 222.796 361.574 222.236 361.607 221.229C361.61 221.146 361.587 221.063 361.543 220.992C361.499 220.921 361.435 220.865 361.36 220.83C361.285 220.796 361.201 220.785 361.121 220.799C361.04 220.813 360.966 220.851 360.908 220.909C359.358 222.369 357.798 223.449 355.698 223.119C352.148 222.559 349.947 219.669 349.938 216.039ZM356.838 210.304C356.148 210.276 355.458 210.397 354.809 210.659C354.16 210.922 353.563 211.321 353.054 211.834C352.545 212.347 352.132 212.964 351.84 213.649C351.548 214.334 351.382 215.075 351.352 215.828C351.321 216.581 351.427 217.332 351.664 218.039C351.9 218.745 352.262 219.393 352.728 219.945C353.195 220.497 353.757 220.943 354.383 221.257C355.009 221.571 355.687 221.747 356.377 221.774C357.067 221.802 357.757 221.681 358.406 221.419C359.055 221.156 359.652 220.757 360.161 220.244C360.67 219.731 361.083 219.114 361.375 218.429C361.667 217.744 361.833 217.003 361.863 216.25C361.894 215.497 361.788 214.746 361.551 214.039C361.315 213.333 360.953 212.685 360.487 212.133C360.02 211.581 359.458 211.135 358.832 210.821C358.206 210.507 357.528 210.331 356.838 210.304Z" fill="#71726F"/>
<path d="M369.603 210.951C369.599 211.012 369.614 211.072 369.646 211.123C369.677 211.175 369.724 211.216 369.779 211.241C369.834 211.266 369.895 211.273 369.955 211.263C370.014 211.252 370.069 211.224 370.113 211.181C371.833 209.401 373.546 208.671 375.253 208.991C378.583 209.611 379.483 211.991 379.433 215.301C379.379 219.234 379.369 221.531 379.403 222.191C379.408 222.294 379.392 222.397 379.356 222.494C379.319 222.59 379.263 222.678 379.19 222.752C379.118 222.825 379.031 222.883 378.935 222.92C378.839 222.958 378.736 222.975 378.633 222.971L378.583 222.961C378.345 222.939 378.125 222.829 377.965 222.655C377.806 222.481 377.719 222.255 377.723 222.021L377.743 213.831C377.744 213.349 377.644 212.871 377.448 212.43C377.252 211.989 376.966 211.594 376.607 211.272C376.248 210.949 375.826 210.705 375.367 210.557C374.907 210.409 374.422 210.359 373.943 210.411L373.633 210.451C372.579 210.578 371.609 211.086 370.905 211.878C370.201 212.671 369.813 213.693 369.813 214.751V222.441C369.813 222.58 369.762 222.714 369.669 222.817C369.576 222.919 369.449 222.981 369.313 222.991L368.953 223.021C368.871 223.028 368.789 223.018 368.711 222.991C368.634 222.965 368.563 222.923 368.503 222.867C368.442 222.812 368.394 222.744 368.362 222.669C368.329 222.594 368.312 222.513 368.313 222.431V209.481C368.311 209.379 368.341 209.28 368.399 209.197C368.457 209.114 368.54 209.051 368.637 209.017C368.733 208.983 368.838 208.98 368.938 209.007C369.038 209.035 369.126 209.092 369.193 209.171C369.526 209.591 369.663 210.184 369.603 210.951Z" fill="#71726F"/>
<path d="M414.683 216.08C414.683 217.958 413.938 219.759 412.61 221.086C411.282 222.414 409.481 223.16 407.603 223.16C405.726 223.16 403.925 222.414 402.597 221.086C401.269 219.759 400.523 217.958 400.523 216.08C400.523 214.202 401.269 212.401 402.597 211.074C403.925 209.746 405.726 209 407.603 209C409.481 209 411.282 209.746 412.61 211.074C413.938 212.401 414.683 214.202 414.683 216.08ZM407.653 210.29C406.947 210.285 406.246 210.427 405.591 210.709C404.937 210.99 404.341 211.405 403.837 211.93C403.334 212.455 402.933 213.079 402.658 213.768C402.383 214.456 402.239 215.195 402.234 215.942C402.228 216.69 402.362 217.43 402.628 218.123C402.893 218.815 403.285 219.445 403.781 219.977C404.277 220.509 404.867 220.932 405.518 221.222C406.169 221.513 406.867 221.665 407.574 221.67C408.28 221.675 408.981 221.533 409.636 221.251C410.29 220.97 410.886 220.555 411.39 220.03C411.893 219.505 412.293 218.881 412.569 218.192C412.844 217.504 412.988 216.765 412.993 216.018C412.999 215.27 412.865 214.53 412.599 213.837C412.334 213.145 411.942 212.515 411.446 211.983C410.95 211.451 410.36 211.028 409.709 210.738C409.058 210.447 408.36 210.295 407.653 210.29Z" fill="#71726F"/>
<path d="M491.691 210.841C491.692 210.889 491.706 210.936 491.732 210.977C491.758 211.017 491.795 211.05 491.839 211.071C491.882 211.092 491.931 211.1 491.979 211.094C492.027 211.089 492.073 211.071 492.111 211.041C493.791 209.681 495.147 209.021 496.181 209.061C496.438 209.072 496.683 209.176 496.868 209.352C497.054 209.529 497.169 209.767 497.191 210.021L497.201 210.111C497.21 210.223 497.197 210.335 497.161 210.442C497.126 210.548 497.068 210.646 496.993 210.729C496.918 210.813 496.827 210.88 496.725 210.927C496.623 210.973 496.513 210.999 496.401 211.001C493.534 211.054 492.054 212.464 491.961 215.231C491.941 215.924 491.921 218.278 491.901 222.291C491.901 222.492 491.821 222.686 491.678 222.828C491.535 222.971 491.342 223.051 491.141 223.051H490.781C490.664 223.051 490.548 223.028 490.44 222.984C490.332 222.94 490.234 222.875 490.151 222.793C490.069 222.711 490.003 222.614 489.958 222.508C489.914 222.401 489.891 222.286 489.891 222.171V209.631C489.891 209.453 489.961 209.283 490.087 209.157C490.213 209.032 490.383 208.961 490.561 208.961H490.941C491.14 208.961 491.33 209.04 491.471 209.181C491.612 209.321 491.691 209.512 491.691 209.711V210.841Z" fill="#71726F"/>
<path d="M535.024 220.819C534.989 220.86 534.967 220.911 534.961 220.964C534.954 221.017 534.963 221.072 534.986 221.12C535.009 221.169 535.046 221.209 535.091 221.238C535.137 221.266 535.19 221.28 535.244 221.279H542.474C542.657 221.279 542.832 221.352 542.962 221.481C543.091 221.611 543.164 221.786 543.164 221.969V222.229C543.164 222.38 543.104 222.525 542.997 222.632C542.89 222.739 542.745 222.799 542.594 222.799H533.304C533.133 222.801 532.965 222.754 532.82 222.664C532.675 222.574 532.558 222.444 532.483 222.29C532.408 222.135 532.378 221.962 532.396 221.791C532.413 221.619 532.479 221.456 532.584 221.319L540.564 211.089C540.584 211.063 540.597 211.031 540.6 210.998C540.604 210.965 540.598 210.931 540.584 210.901C540.569 210.871 540.546 210.845 540.518 210.827C540.49 210.809 540.457 210.8 540.424 210.799H533.454C533.287 210.799 533.127 210.733 533.008 210.615C532.89 210.497 532.824 210.336 532.824 210.169V209.819C532.824 209.655 532.89 209.497 533.008 209.381C533.127 209.265 533.287 209.199 533.454 209.199H542.064C542.249 209.2 542.431 209.253 542.588 209.351C542.746 209.45 542.872 209.59 542.953 209.755C543.035 209.921 543.068 210.106 543.048 210.289C543.029 210.472 542.958 210.645 542.844 210.789L535.024 220.819Z" fill="#71726F"/>
<path d="M243.719 213.51L243.439 213.511C243.179 213.511 242.969 213.722 242.97 213.982L242.992 226.602C242.992 226.861 243.203 227.071 243.462 227.071L243.742 227.07C244.002 227.07 244.212 226.859 244.212 226.6L244.19 213.98C244.189 213.72 243.978 213.51 243.719 213.51Z" fill="#1B292A"/>
<path d="M28.0307 214.531C38.9507 227.671 52.3206 237.141 68.1406 242.941C68.5673 243.101 69.4506 243.288 70.7906 243.501C71.864 243.681 72.654 244.085 73.1607 244.711C70.8873 247.071 68.6573 249.401 66.4706 251.701C64.4906 253.795 62.974 255.081 61.9206 255.561C57.7206 257.471 53.8007 255.841 50.1307 253.531C36.8573 245.198 26.6206 235.768 19.4206 225.241C17.694 222.715 18.014 220.345 20.3806 218.131C21.5673 217.011 24.1173 215.811 28.0307 214.531Z" fill="#539301"/>
<path d="M565.916 223.168C566.612 223.168 567.176 222.604 567.176 221.908C567.176 221.213 566.612 220.648 565.916 220.648C565.22 220.648 564.656 221.213 564.656 221.908C564.656 222.604 565.22 223.168 565.916 223.168Z" fill="#71726F"/>
<path d="M141.663 243.309C137.603 249.049 133.84 254.782 130.373 260.509C127.823 264.739 126.193 265.799 121.513 266.529C117.213 267.195 112.877 267.685 108.503 267.999H98.3833C90.5533 267.539 81.8133 266.349 73.9133 263.839C70.3133 262.689 69.8733 259.669 72.2633 257.009C75.9899 252.875 79.2566 249.605 82.0633 247.199C97.6299 250.639 113.067 250.672 128.373 247.299C130.18 246.899 132.403 246.269 135.043 245.409C137.183 244.709 139.39 244.009 141.663 243.309Z" fill="#539301"/>
</g>
<defs>
<clipPath id="clip0_2926_3943">
<rect width="900" height="268" fill="white"/>
</clipPath>
</defs>
</svg>
