<svg width="4732" height="1733" viewBox="0 0 4732 1733" fill="none" xmlns="http://www.w3.org/2000/svg">
<path d="M2793.46 1081.56C2793.46 1081.29 2793.38 1081.03 2793.22 1080.8C2793.07 1080.58 2792.85 1080.41 2792.59 1080.32C2792.34 1080.22 2792.06 1080.21 2791.8 1080.28C2791.54 1080.35 2791.3 1080.49 2791.13 1080.7C2727.21 1155.66 2618.94 1173.34 2528.42 1146.42C2412.79 1112.08 2334.85 1002.74 2312.81 888.545C2304.48 845.364 2302.76 802.077 2307.65 758.685C2321.47 636.022 2393.85 518.253 2513.26 473.316C2557.18 456.792 2605.64 452.742 2658.65 461.167C2711.53 469.554 2755.56 493.563 2790.75 533.193C2790.98 533.45 2791.27 533.631 2791.6 533.711C2791.94 533.791 2792.28 533.767 2792.6 533.642C2792.92 533.517 2793.2 533.297 2793.39 533.011C2793.58 532.725 2793.69 532.387 2793.69 532.042C2793.27 474.966 2793.31 421.594 2793.83 371.926C2793.95 361.045 2795.65 349.021 2798.93 335.856C2815.04 270.998 2867.19 218.49 2934.85 211.063C2944.31 210.026 2959.74 209.748 2981.13 210.228C2981.58 210.236 2982.02 210.403 2982.36 210.699C2982.69 210.994 2982.91 211.399 2982.97 211.84C2983.28 213.721 2983.43 217.415 2983.43 222.923C2983.42 336.921 2983.41 624.795 2983.41 1086.54C2983.41 1094.17 2984.33 1110.01 2981.25 1118.5C2976.26 1132.24 2966.13 1139.16 2950.86 1139.25C2897 1139.62 2845.77 1139.59 2797.17 1139.17C2796.18 1139.16 2795.24 1138.76 2794.54 1138.06C2793.85 1137.36 2793.46 1136.41 2793.46 1135.43V1081.56ZM2494.61 807.652C2494.75 896.807 2549.55 969.322 2644.46 969.207C2739.35 969.063 2793.98 896.375 2793.83 807.22C2793.72 718.066 2738.89 645.55 2643.98 645.694C2549.09 645.838 2494.49 718.498 2494.61 807.652Z" fill="#F27920"/>
<path d="M661.103 673.935C728.937 722.442 763.012 791.647 763.444 874.756C764.163 1015.61 666.081 1118.76 528.859 1136.92C514.296 1138.86 483.204 1139.75 435.583 1139.6C355.575 1139.35 253.992 1139.33 130.833 1139.54C130.123 1139.54 129.442 1139.26 128.94 1138.76C128.438 1138.26 128.156 1137.58 128.156 1136.87V241.06C128.156 240.686 128.305 240.327 128.569 240.062C128.834 239.798 129.192 239.649 129.566 239.649C301.076 239.342 414.766 239.419 470.637 239.879C555.912 240.541 640.41 279.145 688.99 349.905C724.965 402.298 737.916 464.421 730.923 527.983C724.725 584.272 701.375 631.896 660.872 670.855C660.659 671.063 660.494 671.314 660.389 671.592C660.283 671.869 660.24 672.166 660.262 672.46C660.284 672.755 660.37 673.04 660.516 673.295C660.661 673.55 660.862 673.769 661.103 673.935ZM324.205 434.655L323.917 588.725C323.917 589.381 324.178 590.011 324.642 590.475C325.106 590.94 325.736 591.201 326.392 591.201L459.672 591.431C469.815 591.45 479.862 589.498 489.24 585.688C498.617 581.877 507.141 576.282 514.325 569.221C521.509 562.161 527.212 553.774 531.108 544.54C535.005 535.306 537.018 525.405 537.032 515.403V508.667C537.062 488.478 528.96 469.103 514.507 454.803C500.054 440.503 480.434 432.448 459.96 432.409L326.68 432.179C326.024 432.179 325.394 432.44 324.93 432.904C324.466 433.368 324.205 433.998 324.205 434.655ZM324.032 776.965V943.875C324.032 944.554 324.302 945.206 324.783 945.686C325.263 946.167 325.914 946.437 326.594 946.437H486.61C508.097 946.437 528.703 937.896 543.897 922.693C559.09 907.491 567.625 886.871 567.625 865.372V855.469C567.625 844.823 565.53 834.282 561.458 824.446C557.387 814.611 551.42 805.674 543.897 798.147C536.374 790.619 527.442 784.648 517.613 780.574C507.784 776.5 497.249 774.403 486.61 774.403H326.594C325.914 774.403 325.263 774.673 324.783 775.154C324.302 775.634 324.032 776.286 324.032 776.965Z" fill="#F27920"/>
<path d="M4013.82 732.665C4013.76 732.817 4013.76 732.982 4013.82 733.13C4013.89 733.277 4014 733.397 4014.15 733.467C4014.29 733.537 4014.46 733.553 4014.63 733.511C4014.79 733.47 4014.93 733.373 4015.02 733.241C4041.82 693.744 4065.16 657.012 4090.08 621.056C4123.58 572.713 4154.91 527.449 4184.08 485.266C4206.2 453.255 4219.78 434.351 4224.83 428.555C4284.75 359.724 4374.43 329.526 4463.1 352.643C4493.11 360.473 4520.1 373.696 4544.08 392.312C4544.69 392.788 4545.1 393.477 4545.22 394.237C4545.33 394.998 4545.16 395.771 4544.72 396.399C4488.06 477.657 4449.49 533.283 4428.99 563.28C4408.81 592.873 4393.09 613.034 4381.82 623.762C4300.12 701.574 4183.01 714.011 4088.1 651.801C4087.91 651.673 4087.69 651.614 4087.47 651.635C4087.25 651.656 4087.05 651.754 4086.89 651.914C4086.74 652.075 4086.64 652.286 4086.62 652.512C4086.59 652.738 4086.65 652.965 4086.77 653.154C4194.37 813.999 4290.75 958.319 4375.92 1086.12C4388.59 1105.14 4381.8 1132.92 4358.11 1138.57C4355.98 1139.08 4347.89 1139.36 4333.85 1139.4C4272.93 1139.59 4223.61 1139.52 4185.89 1139.17C4185.06 1139.16 4184.24 1138.95 4183.5 1138.55C4182.76 1138.15 4182.13 1137.57 4181.66 1136.87L3741.3 478.386C3741.13 478.14 3741.03 477.852 3741.02 477.555C3741 477.258 3741.07 476.962 3741.21 476.698C3741.34 476.435 3741.55 476.215 3741.81 476.061C3742.06 475.907 3742.35 475.825 3742.65 475.824H3973.41C3974.14 475.825 3974.86 476 3975.51 476.336C3976.16 476.671 3976.72 477.157 3977.15 477.753C4031.86 553.809 4043.72 643.654 4013.82 732.665Z" fill="#F27920"/>
<path d="M1319.9 534.635C1320.04 534.764 1320.2 534.851 1320.39 534.887C1320.57 534.922 1320.76 534.903 1320.93 534.833C1321.1 534.762 1321.24 534.643 1321.35 534.491C1321.45 534.338 1321.51 534.158 1321.52 533.973V477.837C1321.52 477.173 1321.78 476.536 1322.25 476.066C1322.72 475.597 1323.35 475.333 1324.02 475.333L1508.5 475.39C1509.06 475.392 1509.61 475.588 1510.04 475.945C1510.48 476.301 1510.77 476.797 1510.89 477.348C1511.14 478.615 1511.26 485.447 1511.26 497.845C1511.17 746.126 1511.17 948.137 1511.29 1103.88C1511.32 1123.45 1499.12 1139.6 1478.11 1139.54C1415.64 1139.37 1364.16 1139.37 1323.67 1139.54C1323.09 1139.54 1322.52 1139.31 1322.11 1138.89C1321.69 1138.48 1321.46 1137.92 1321.46 1137.33V1082.8C1321.45 1082.44 1321.34 1082.09 1321.14 1081.8C1320.93 1081.51 1320.64 1081.28 1320.31 1081.15C1319.97 1081.02 1319.6 1081 1319.26 1081.09C1318.91 1081.17 1318.59 1081.36 1318.35 1081.62C1278.69 1127.11 1224.84 1151.15 1163.69 1156.79C1072.45 1165.22 989.568 1131.14 927.691 1064.35C781.288 906.337 803.419 610.432 995.007 495.513C1027.68 475.918 1062.2 463.808 1098.56 459.183C1172.75 449.741 1251.55 466.754 1306 520.443C1308.48 522.88 1313.11 527.611 1319.9 534.635ZM1022.15 807.165C1022 896.348 1076.63 969.036 1171.57 969.18C1266.49 969.324 1321.31 896.78 1321.46 807.597C1321.57 718.414 1266.95 645.725 1172.03 645.581C1077.09 645.438 1022.26 717.982 1022.15 807.165Z" fill="#F27920"/>
<path d="M1807.78 533.628C1807.78 533.854 1807.85 534.075 1807.98 534.259C1808.11 534.442 1808.3 534.579 1808.51 534.65C1808.73 534.72 1808.96 534.721 1809.17 534.651C1809.39 534.581 1809.58 534.445 1809.71 534.261C1849.6 480.256 1912.31 460.076 1976.72 456.996C2014.67 455.173 2050.44 461.861 2084.04 477.061C2181.37 521.163 2221.95 621.343 2223.56 722.387C2223.85 739.813 2223.93 860.24 2223.79 1083.67C2223.76 1104.42 2226.58 1126.99 2204.22 1137.1C2200.08 1138.96 2192.18 1139.75 2180.54 1139.46C2179.48 1139.44 2131.27 1139.45 2035.89 1139.49C2035.45 1139.49 2035.03 1139.32 2034.72 1139.01C2034.41 1138.7 2034.23 1138.28 2034.22 1137.85C2033.99 1129.25 2033.86 1123.66 2033.85 1121.09C2033.65 1071.19 2033.62 948.368 2033.76 752.614C2033.78 742.999 2032.24 731.973 2029.15 719.537C2011.22 647.424 1934.58 623.79 1871.41 651.253C1823.87 671.923 1808.07 724.603 1807.92 772.765C1807.83 806.235 1807.82 924.983 1807.89 1129.01C1807.89 1132.69 1807.61 1135.7 1807.03 1138.02C1806.92 1138.43 1806.68 1138.8 1806.34 1139.06C1806 1139.32 1805.59 1139.46 1805.16 1139.46H1620.16C1619.63 1139.46 1619.12 1139.25 1618.74 1138.87C1618.36 1138.49 1618.15 1137.98 1618.15 1137.44V477.809C1618.15 477.484 1618.21 477.162 1618.33 476.862C1618.46 476.562 1618.64 476.289 1618.86 476.059C1619.09 475.829 1619.36 475.646 1619.66 475.522C1619.96 475.398 1620.27 475.334 1620.59 475.334H1805.74C1806.28 475.334 1806.8 475.549 1807.18 475.932C1807.56 476.316 1807.78 476.835 1807.78 477.377V533.628Z" fill="#F27920"/>
<path d="M3680.08 1019.5C3680.39 1019.68 3680.65 1019.93 3680.86 1020.22C3681.06 1020.51 3681.21 1020.84 3681.28 1021.19C3681.35 1021.54 3681.35 1021.9 3681.28 1022.24C3681.21 1022.59 3681.06 1022.92 3680.86 1023.21C3649.83 1067.8 3610.99 1101.56 3564.33 1124.52C3494.68 1158.8 3408.86 1165.22 3331.07 1151.32C3298.87 1145.54 3268.75 1135.72 3240.7 1121.87C3127.97 1066.14 3066.7 959.047 3058.46 834.398C3044.59 624.998 3186.62 450.23 3404.54 457.053C3528.44 460.939 3634.32 536.247 3681.95 649.41C3713.61 724.583 3721.71 803.298 3706.24 885.553C3706.15 886.039 3705.9 886.479 3705.51 886.794C3705.13 887.11 3704.64 887.282 3704.14 887.28H3260.56C3260.34 887.281 3260.13 887.334 3259.93 887.434C3259.74 887.535 3259.58 887.68 3259.45 887.858C3259.33 888.036 3259.25 888.241 3259.22 888.456C3259.19 888.671 3259.22 888.89 3259.29 889.094C3275.31 932.965 3306.13 960.86 3351.76 972.778C3374.44 978.709 3398.27 980.772 3423.25 978.968C3465.06 975.974 3500.44 959.978 3529.39 930.979C3529.86 930.517 3530.47 930.223 3531.12 930.145C3531.77 930.067 3532.43 930.208 3532.99 930.547L3680.08 1019.5ZM3390.07 738.276C3451.73 738.296 3496 738.267 3522.86 738.19C3523.43 738.19 3523.83 738.104 3524.04 737.931C3524.52 737.528 3524.67 736.971 3524.5 736.261C3508.5 671 3456.43 633.865 3390.09 633.865C3323.73 633.836 3271.67 670.943 3255.64 736.175C3255.44 736.885 3255.59 737.442 3256.07 737.845C3256.28 738.017 3256.68 738.113 3257.28 738.133C3284.14 738.209 3328.4 738.257 3390.07 738.276Z" fill="#F27920"/>
<path d="M3911.13 821.874L4028.98 993.13C4029.1 993.307 4029.17 993.515 4029.18 993.73C4029.18 993.946 4029.12 994.157 4029.01 994.339L3932.31 1138.97C3932.21 1139.11 3932.08 1139.24 3931.92 1139.32C3931.77 1139.41 3931.59 1139.45 3931.42 1139.46H3699.02C3698.82 1139.45 3698.63 1139.4 3698.47 1139.29C3698.3 1139.19 3698.16 1139.05 3698.07 1138.87C3697.98 1138.7 3697.94 1138.5 3697.95 1138.31C3697.96 1138.11 3698.02 1137.92 3698.13 1137.76L3909.31 821.903C3909.41 821.753 3909.55 821.629 3909.7 821.543C3909.86 821.456 3910.03 821.409 3910.21 821.406C3910.39 821.404 3910.57 821.445 3910.73 821.526C3910.89 821.608 3911.03 821.727 3911.13 821.874Z" fill="#F27920"/>
<path d="M4535.51 989.394C4553.54 989.205 4570.91 996.552 4583.8 1009.82C4596.68 1023.08 4604.04 1041.18 4604.23 1060.13C4604.43 1079.08 4597.46 1097.32 4584.85 1110.86C4572.25 1124.39 4555.04 1132.1 4537.01 1132.29C4518.98 1132.48 4501.61 1125.13 4488.72 1111.86C4475.84 1098.6 4468.48 1080.5 4468.29 1061.55C4468.09 1042.6 4475.06 1024.36 4487.67 1010.82C4500.27 997.291 4517.48 989.583 4535.51 989.394ZM4535.91 1000.24C4520.88 1000.32 4506.49 1006.79 4495.92 1018.22C4485.34 1029.65 4479.45 1045.11 4479.54 1061.19C4479.62 1077.28 4485.67 1092.68 4496.37 1104C4507.06 1115.32 4521.51 1121.63 4536.55 1121.55C4551.58 1121.47 4565.97 1115.01 4576.55 1103.58C4587.12 1092.15 4593.01 1076.69 4592.93 1060.6C4592.84 1044.51 4586.79 1029.12 4576.1 1017.8C4565.4 1006.48 4550.95 1000.17 4535.91 1000.24Z" fill="#F27920"/>
<path d="M4513.84 1020.02C4531.86 1019.1 4552.58 1017.43 4562.08 1026.61C4567.26 1031.68 4567.29 1042.18 4566.54 1049.15C4565.7 1057.15 4556.58 1063.08 4549.53 1065.65C4549.32 1065.72 4549.13 1065.85 4548.98 1066.01C4548.83 1066.16 4548.71 1066.36 4548.64 1066.56C4548.57 1066.77 4548.55 1066.99 4548.58 1067.2C4548.61 1067.42 4548.69 1067.63 4548.81 1067.81L4569.73 1099.07C4569.95 1099.4 4570.08 1099.78 4570.1 1100.17C4570.12 1100.56 4570.03 1100.95 4569.84 1101.3C4569.66 1101.65 4569.38 1101.94 4569.04 1102.14C4568.7 1102.34 4568.31 1102.44 4567.92 1102.44H4563.89C4562.73 1102.44 4561.59 1102.16 4560.56 1101.62C4559.52 1101.08 4558.63 1100.31 4557.96 1099.36C4551.8 1090.59 4546.47 1081.95 4541.96 1073.45C4537.27 1064.61 4532.17 1064.32 4524.14 1065.3C4523.5 1065.39 4522.91 1065.71 4522.48 1066.2C4522.05 1066.68 4521.81 1067.3 4521.81 1067.95V1099.41C4521.81 1100.28 4521.47 1101.1 4520.87 1101.71C4520.26 1102.32 4519.44 1102.67 4518.59 1102.67H4515.45C4514.96 1102.67 4514.47 1102.57 4514.02 1102.38C4513.57 1102.19 4513.15 1101.92 4512.81 1101.57C4512.46 1101.22 4512.18 1100.81 4512 1100.36C4511.81 1099.9 4511.71 1099.42 4511.71 1098.92V1022.26C4511.71 1021.69 4511.93 1021.13 4512.33 1020.72C4512.72 1020.3 4513.27 1020.05 4513.84 1020.02ZM4521.9 1030.78L4522.07 1054.45C4522.07 1054.99 4522.29 1055.51 4522.67 1055.89C4523.05 1056.28 4523.57 1056.49 4524.12 1056.49L4540.4 1056.38C4542.64 1056.36 4544.85 1056 4546.91 1055.32C4548.97 1054.64 4550.84 1053.65 4552.41 1052.4C4553.98 1051.15 4555.22 1049.68 4556.07 1048.06C4556.91 1046.44 4557.34 1044.71 4557.33 1042.96V1041.81C4557.3 1038.28 4555.49 1034.91 4552.28 1032.44C4549.08 1029.97 4544.74 1028.6 4540.23 1028.63L4523.94 1028.74C4523.4 1028.74 4522.88 1028.96 4522.5 1029.34C4522.11 1029.72 4521.9 1030.24 4521.9 1030.78Z" fill="#F27920"/>
<path d="M2314.96 1457.62C2315.45 1457.72 2315.89 1457.95 2316.25 1458.28C2316.62 1458.61 2316.89 1459.02 2317.04 1459.49C2319.77 1467.81 2318.99 1474.57 2308.78 1474.83C2277.38 1475.75 2274.21 1454.02 2274.3 1426.55C2274.45 1363.36 2274.49 1324.69 2274.41 1310.57C2274.39 1308.19 2275.3 1305.9 2276.96 1304.19C2278.61 1302.48 2280.87 1301.5 2283.25 1301.44H2283.94C2285.04 1301.42 2286.14 1301.61 2287.16 1302.01C2288.19 1302.42 2289.12 1303.02 2289.91 1303.79C2290.7 1304.56 2291.33 1305.48 2291.75 1306.5C2292.18 1307.51 2292.4 1308.6 2292.4 1309.71C2292.29 1344.17 2292.32 1388.59 2292.52 1442.96C2292.57 1456.67 2305.24 1455.57 2314.96 1457.62Z" fill="#5B6770"/>
<path d="M1009.74 1465.22C1009.78 1464.9 1009.71 1464.57 1009.56 1464.28C1009.41 1464 1009.18 1463.76 1008.9 1463.61C1008.62 1463.46 1008.29 1463.39 1007.98 1463.43C1007.66 1463.46 1007.36 1463.6 1007.12 1463.81C1002.09 1468.21 996.619 1471.55 990.575 1472.73C961.738 1478.34 924.698 1478.26 919.345 1441.84C917.676 1430.58 917.244 1415.54 918.05 1396.73C919.374 1365.99 931.979 1352.43 962.918 1351.88C977.711 1351.61 992.542 1351.56 1007.41 1351.74C1007.72 1351.74 1008.03 1351.68 1008.31 1351.57C1008.6 1351.45 1008.86 1351.28 1009.08 1351.06C1009.3 1350.85 1009.47 1350.59 1009.59 1350.3C1009.71 1350.02 1009.77 1349.71 1009.77 1349.4L1009.57 1309.71C1009.57 1308.62 1009.79 1307.54 1010.22 1306.54C1010.66 1305.54 1011.3 1304.64 1012.1 1303.9C1012.9 1303.16 1013.85 1302.6 1014.88 1302.25C1015.91 1301.89 1017 1301.76 1018.09 1301.85L1018.78 1301.91C1021.08 1302.03 1023.24 1303.03 1024.82 1304.69C1026.41 1306.36 1027.29 1308.56 1027.3 1310.86C1027.36 1401.54 1027.36 1453.44 1027.3 1466.57C1027.28 1471.94 1024.86 1474.73 1020.05 1474.92C1012.33 1475.24 1008.9 1472.01 1009.74 1465.22ZM1007.47 1370.68C992.523 1370.68 977.567 1370.71 962.601 1370.77C938.512 1370.85 936.901 1379.98 935.692 1401.65C935.231 1409.56 935.577 1421.6 936.728 1437.78C937.419 1447.38 942.244 1452.98 951.204 1454.59C965.038 1457.07 978.871 1456.67 992.705 1453.38C1003.44 1450.82 1009.31 1445.61 1009.54 1434.5C1009.94 1413.87 1009.91 1393.23 1009.43 1372.58C1009.41 1372.07 1009.2 1371.59 1008.83 1371.23C1008.47 1370.88 1007.98 1370.68 1007.47 1370.68Z" fill="#5B6770"/>
<path d="M2242.42 1459.26C2245.12 1467.55 2244.34 1474.28 2234.16 1474.54C2202.84 1475.41 2199.74 1453.73 2199.88 1426.35C2200.15 1363.35 2200.25 1324.8 2200.2 1310.71C2200.18 1308.34 2201.1 1306.06 2202.75 1304.37C2204.41 1302.67 2206.66 1301.69 2209.03 1301.65H2209.72C2210.82 1301.62 2211.91 1301.82 2212.93 1302.23C2213.95 1302.63 2214.88 1303.24 2215.66 1304.01C2216.45 1304.78 2217.07 1305.69 2217.49 1306.71C2217.91 1307.72 2218.13 1308.81 2218.13 1309.91C2217.95 1344.26 2217.91 1388.54 2218.01 1442.73C2218.04 1456.41 2230.67 1455.34 2240.34 1457.39C2240.83 1457.49 2241.27 1457.72 2241.64 1458.05C2242 1458.38 2242.27 1458.79 2242.42 1459.26Z" fill="#5B6770"/>
<path d="M3798.17 1302.97H3789.88C3784.71 1302.97 3780.52 1307.16 3780.52 1312.32V1322.05C3780.52 1327.22 3784.71 1331.41 3789.88 1331.41H3798.17C3803.33 1331.41 3807.52 1327.22 3807.52 1322.05V1312.32C3807.52 1307.16 3803.33 1302.97 3798.17 1302.97Z" fill="#5B6770"/>
<path d="M130.167 1472.79C129.035 1470.83 128.316 1468.03 128.009 1464.38C127.97 1463.86 128.057 1420.92 128.268 1335.56C128.287 1328.03 128.517 1320.94 128.959 1314.28C129.024 1313.21 129.494 1312.2 130.273 1311.46C131.053 1310.71 132.084 1310.29 133.16 1310.28C163.418 1309.86 186.413 1309.87 202.146 1310.31C220.105 1310.83 231.031 1319.92 234.926 1337.57C235.463 1339.93 235.598 1347.18 235.329 1359.31C235.137 1367.21 232.585 1373.79 227.674 1379.03C227.403 1379.32 227.198 1379.66 227.075 1380.04C226.951 1380.42 226.911 1380.82 226.958 1381.21C227.004 1381.61 227.136 1381.99 227.344 1382.33C227.552 1382.66 227.832 1382.95 228.163 1383.17C247.963 1396.18 247.014 1430.41 241.287 1449.64C234.408 1472.76 213.946 1474.66 193.627 1474.95C165.039 1475.31 144.682 1475.09 132.556 1474.28C132.06 1474.25 131.582 1474.09 131.165 1473.83C130.748 1473.57 130.405 1473.21 130.167 1472.79ZM145.708 1330.35L145.478 1373.41C145.474 1373.74 145.536 1374.07 145.661 1374.38C145.785 1374.69 145.968 1374.97 146.201 1375.2C146.434 1375.44 146.712 1375.63 147.017 1375.75C147.323 1375.88 147.651 1375.95 147.982 1375.95L200.707 1376.21C205.274 1376.23 209.664 1374.44 212.912 1371.23C216.16 1368.03 218.002 1363.67 218.032 1359.11L218.09 1345.46C218.105 1343.2 217.673 1340.95 216.819 1338.86C215.965 1336.76 214.705 1334.85 213.112 1333.24C211.519 1331.63 209.623 1330.35 207.534 1329.48C205.445 1328.6 203.203 1328.14 200.937 1328.13L148.212 1327.87C147.553 1327.87 146.921 1328.13 146.452 1328.59C145.983 1329.06 145.716 1329.69 145.708 1330.35ZM145.651 1396.99L145.478 1453.47C145.478 1454.06 145.711 1454.63 146.126 1455.05C146.54 1455.47 147.104 1455.71 147.694 1455.72L204.419 1455.92C207.281 1455.93 210.116 1455.39 212.764 1454.35C215.412 1453.3 217.82 1451.75 219.851 1449.8C221.882 1447.85 223.496 1445.53 224.601 1442.97C225.707 1440.42 226.281 1437.67 226.292 1434.9L226.35 1416.13C226.372 1410.54 224.099 1405.16 220.029 1401.19C215.96 1397.21 210.427 1394.97 204.65 1394.95L147.925 1394.74C147.627 1394.74 147.332 1394.8 147.057 1394.91C146.781 1395.02 146.53 1395.18 146.319 1395.39C146.107 1395.6 145.939 1395.85 145.825 1396.12C145.71 1396.4 145.651 1396.69 145.651 1396.99Z" fill="#5B6770"/>
<path d="M1281.02 1316.9C1281.03 1315.01 1281.79 1313.21 1283.12 1311.87C1284.46 1310.54 1286.27 1309.79 1288.16 1309.79L1353.23 1309.91C1359.98 1309.92 1366.67 1311.28 1372.91 1313.9C1379.14 1316.53 1384.8 1320.38 1389.57 1325.22C1394.34 1330.07 1398.12 1335.81 1400.69 1342.14C1403.27 1348.46 1404.59 1355.23 1404.57 1362.07L1404.46 1423.1C1404.44 1436.91 1399 1450.15 1389.33 1459.9C1379.67 1469.65 1366.58 1475.11 1352.94 1475.09L1287.87 1474.97C1286.93 1474.97 1286 1474.79 1285.13 1474.43C1284.27 1474.07 1283.48 1473.54 1282.81 1472.87C1282.15 1472.21 1281.63 1471.42 1281.27 1470.55C1280.91 1469.68 1280.73 1468.75 1280.73 1467.81L1281.02 1316.9ZM1298.29 1330.43L1298.72 1453.99C1298.72 1454.6 1298.96 1455.19 1299.4 1455.62C1299.83 1456.05 1300.41 1456.29 1301.02 1456.29L1352.77 1456.12C1361.88 1456.08 1370.6 1452.34 1377.02 1445.73C1383.43 1439.11 1387.02 1430.15 1386.99 1420.83L1386.79 1363.02C1386.76 1353.69 1383.11 1344.76 1376.64 1338.18C1370.18 1331.61 1361.42 1327.93 1352.31 1327.96L1300.56 1328.13C1299.96 1328.14 1299.38 1328.38 1298.95 1328.82C1298.53 1329.25 1298.29 1329.83 1298.29 1330.43Z" fill="#5B6770"/>
<path d="M2791.62 1402.52V1453.21C2791.62 1453.98 2791.92 1454.71 2792.46 1455.25C2793 1455.79 2793.74 1456.09 2794.5 1456.09H2870.74C2872.28 1456.09 2873.76 1456.7 2874.85 1457.79C2875.94 1458.88 2876.55 1460.36 2876.55 1461.91V1468.7C2876.55 1470.39 2875.88 1472.02 2874.68 1473.22C2873.48 1474.42 2871.86 1475.09 2870.16 1475.09H2779.16C2778.23 1475.09 2777.33 1474.77 2776.61 1474.17C2775.89 1473.57 2775.4 1472.73 2775.22 1471.81C2774.24 1466.63 2773.77 1461.05 2773.81 1455.08C2773.98 1427.39 2774.03 1385.15 2773.95 1328.36C2773.95 1323.43 2774.18 1318.96 2774.64 1314.95C2774.79 1313.59 2775.43 1312.34 2776.45 1311.43C2777.46 1310.52 2778.78 1310.02 2780.14 1310.02H2871.2C2871.89 1310.02 2872.58 1310.16 2873.22 1310.43C2873.87 1310.69 2874.45 1311.08 2874.94 1311.57C2875.43 1312.07 2875.82 1312.65 2876.09 1313.29C2876.36 1313.94 2876.49 1314.62 2876.49 1315.32V1323.15C2876.49 1324.45 2875.98 1325.69 2875.06 1326.61C2874.14 1327.53 2872.9 1328.04 2871.6 1328.04H2793.61C2793.03 1328.04 2792.47 1328.27 2792.06 1328.69C2791.65 1329.1 2791.42 1329.65 2791.42 1330.23V1379.4C2791.42 1380.06 2791.68 1380.69 2792.14 1381.15C2792.6 1381.62 2793.22 1381.88 2793.87 1381.88H2840.92C2843.2 1381.88 2845.39 1382.78 2847.01 1384.4C2848.62 1386.01 2849.53 1388.2 2849.53 1390.48V1392.87C2849.53 1394.96 2848.7 1396.96 2847.23 1398.43C2845.75 1399.9 2843.75 1400.73 2841.67 1400.73H2793.41C2792.93 1400.73 2792.48 1400.92 2792.14 1401.26C2791.81 1401.59 2791.62 1402.04 2791.62 1402.52Z" fill="#5B6770"/>
<path d="M3422.44 1349.35V1329.28C3422.44 1328.32 3422.63 1327.36 3423 1326.47C3423.37 1325.58 3423.91 1324.77 3424.59 1324.09C3425.27 1323.41 3426.08 1322.87 3426.97 1322.5C3427.86 1322.13 3428.82 1321.94 3429.78 1321.94H3432.34C3433.33 1321.94 3434.3 1322.14 3435.21 1322.51C3436.12 1322.89 3436.94 1323.44 3437.63 1324.13C3438.33 1324.83 3438.88 1325.65 3439.26 1326.56C3439.63 1327.47 3439.83 1328.44 3439.83 1329.43V1349.03C3439.83 1349.79 3440.13 1350.51 3440.66 1351.05C3441.2 1351.58 3441.92 1351.88 3442.68 1351.88H3468.89C3470.73 1351.88 3472.48 1352.61 3473.78 1353.9C3475.07 1355.19 3475.8 1356.94 3475.8 1358.76V1363.77C3475.8 1365.59 3475.08 1367.34 3473.79 1368.63C3472.5 1369.92 3470.75 1370.65 3468.92 1370.65H3441.87C3441.62 1370.65 3441.37 1370.7 3441.14 1370.79C3440.91 1370.89 3440.7 1371.03 3440.53 1371.21C3440.35 1371.38 3440.21 1371.59 3440.11 1371.82C3440.02 1372.05 3439.97 1372.3 3439.97 1372.55C3439.72 1393.24 3439.91 1414.65 3440.55 1436.77C3441.09 1456.35 3457.9 1455.23 3471.25 1457.5C3471.95 1457.61 3472.61 1457.91 3473.15 1458.37C3473.69 1458.83 3474.1 1459.42 3474.33 1460.09C3475.83 1464.28 3475.24 1468.57 3472.55 1472.99C3472.28 1473.43 3471.91 1473.81 3471.47 1474.08C3471.03 1474.35 3470.53 1474.51 3470.02 1474.54C3452.63 1475.87 3435.91 1471.52 3427.22 1455.95C3423.88 1449.94 3422.26 1438.57 3422.36 1421.83C3422.49 1397.82 3422.46 1381.57 3422.27 1373.07C3422.26 1372.56 3422.14 1372.07 3421.9 1371.62C3421.67 1371.18 3421.34 1370.79 3420.93 1370.49C3420.52 1370.2 3420.05 1370 3419.56 1369.92C3419.06 1369.84 3418.55 1369.87 3418.07 1370.02C3413.52 1371.36 3408.46 1370.91 3402.87 1368.66C3402.35 1368.45 3401.91 1368.09 3401.59 1367.62C3401.28 1367.16 3401.12 1366.61 3401.12 1366.04V1358.73C3401.12 1356.92 3401.84 1355.19 3403.12 1353.91C3404.41 1352.63 3406.15 1351.91 3407.97 1351.91H3419.88C3420.56 1351.91 3421.21 1351.64 3421.69 1351.16C3422.17 1350.68 3422.44 1350.03 3422.44 1349.35Z" fill="#5B6770"/>
<path d="M365.705 1463.28C365.697 1462.97 365.599 1462.67 365.424 1462.41C365.248 1462.15 365.002 1461.94 364.715 1461.82C364.427 1461.7 364.11 1461.66 363.801 1461.71C363.492 1461.76 363.204 1461.9 362.971 1462.1C347.487 1476.93 330.334 1475.12 309.181 1474.45C283.97 1473.62 276.142 1453.35 277.091 1431.39C278.185 1406.89 290.215 1395.15 314.793 1394.94C333.96 1394.79 349.972 1394.89 362.827 1395.23C363.388 1395.24 363.931 1395.04 364.343 1394.66C364.756 1394.29 365.006 1393.77 365.043 1393.22C366.194 1375.4 354.337 1371.34 338.393 1370.82C326.104 1370.42 309.555 1369.52 301.468 1375.74C301.221 1375.93 301.006 1376.18 300.835 1376.46L295.05 1385.96C294.571 1386.77 293.798 1387.37 292.892 1387.63C289.227 1388.73 285.553 1388.38 281.869 1386.6C281.4 1386.37 280.995 1386.04 280.688 1385.62C280.381 1385.21 280.184 1384.72 280.113 1384.21C278.127 1368.8 291.194 1356.71 305.353 1354.04C314.64 1352.27 325.614 1351.52 338.277 1351.79C368.842 1352.45 383.145 1366.56 383.462 1397.45C383.75 1426.39 383.683 1450.32 383.26 1469.24C383.238 1470.6 382.679 1471.9 381.705 1472.85C380.73 1473.81 379.418 1474.34 378.051 1474.34L371.23 1474.31C369.762 1474.3 368.357 1473.71 367.321 1472.67C366.286 1471.63 365.705 1470.22 365.705 1468.75V1463.28ZM365.561 1414.49C365.506 1414.12 365.316 1413.77 365.025 1413.52C364.735 1413.28 364.363 1413.14 363.978 1413.14C347.995 1413.39 332.128 1413.43 316.376 1413.28C311.925 1413.22 307.32 1414.1 302.562 1415.9C301.366 1416.36 300.288 1417.08 299.406 1418.01C298.525 1418.94 297.862 1420.06 297.468 1421.28C294.743 1429.88 294.503 1438.35 296.748 1446.67C300.058 1458.91 322.535 1456.29 331.975 1455.92C343.084 1455.51 361.647 1450.88 364.323 1439.28C366.242 1430.99 366.654 1422.72 365.561 1414.49Z" fill="#5B6770"/>
<path d="M444.275 1363.34C444.405 1363.54 444.579 1363.71 444.784 1363.83C444.988 1363.95 445.218 1364.03 445.457 1364.05C445.695 1364.07 445.935 1364.04 446.159 1363.96C446.383 1363.87 446.585 1363.74 446.75 1363.57C459.269 1350.64 482.235 1350.3 499.388 1353C520.666 1356.38 531.679 1369.37 532.428 1391.98C532.907 1405.99 533.003 1430.87 532.715 1466.63C532.708 1467.77 532.474 1468.89 532.027 1469.94C531.58 1470.99 530.929 1471.93 530.112 1472.73C529.295 1473.52 528.328 1474.14 527.268 1474.56C526.208 1474.97 525.076 1475.17 523.938 1475.15H523.88C521.534 1475.09 519.301 1474.13 517.661 1472.46C516.02 1470.78 515.102 1468.53 515.102 1466.19C515.083 1429.15 515.045 1406.29 514.987 1397.59C514.929 1386.28 512.8 1374.54 500.137 1372.26C485.085 1369.58 444.678 1367.66 444.045 1390.86C443.929 1395.64 443.891 1420.62 443.929 1465.82C443.929 1468.17 442.996 1470.43 441.335 1472.1C439.673 1473.77 437.419 1474.71 435.065 1474.72H434.72C433.55 1474.72 432.391 1474.49 431.31 1474.04C430.229 1473.59 429.248 1472.94 428.421 1472.11C427.595 1471.28 426.941 1470.3 426.496 1469.22C426.05 1468.14 425.823 1466.99 425.827 1465.82C425.789 1429.72 425.827 1398.27 425.942 1371.46C425.98 1363.15 426.431 1357.82 427.295 1355.48C427.637 1354.56 428.299 1353.79 429.165 1353.29C434.432 1350.18 443.469 1351.82 443.757 1359.11C443.834 1361.5 444.006 1362.92 444.275 1363.34Z" fill="#5B6770"/>
<path d="M588.372 1413.25C588.343 1424.16 588.113 1433.49 590.214 1443.22C593.955 1460.38 632.06 1456.41 644.896 1455.22C652.609 1454.53 655.516 1448.83 658.566 1442.67C658.84 1442.13 659.22 1441.64 659.685 1441.25C660.149 1440.85 660.689 1440.55 661.272 1440.37C665.205 1439.16 668.773 1439.58 671.978 1441.64C672.478 1441.96 672.894 1442.39 673.194 1442.9C673.494 1443.4 673.669 1443.97 673.704 1444.54C674.74 1459.86 664.524 1470.8 649.875 1473.13C630.515 1476.2 613.401 1476.08 598.531 1472.76C569.924 1466.34 570.097 1438.3 570.154 1413.2C570.241 1388.09 570.183 1360.05 598.848 1353.78C613.737 1350.53 630.851 1350.5 650.191 1353.66C664.84 1356.08 675 1367.08 673.877 1382.39C673.834 1382.97 673.653 1383.53 673.348 1384.03C673.043 1384.53 672.623 1384.96 672.122 1385.27C668.917 1387.32 665.349 1387.74 661.415 1386.51C660.831 1386.32 660.289 1386.02 659.824 1385.62C659.359 1385.22 658.98 1384.73 658.71 1384.18C655.717 1377.99 652.839 1372.29 645.126 1371.57C632.29 1370.3 594.214 1366.13 590.387 1383.26C588.228 1392.99 588.401 1402.31 588.372 1413.25Z" fill="#5B6770"/>
<path d="M1459.8 1421.29C1459.23 1421.28 1458.67 1421.5 1458.25 1421.89C1457.82 1422.27 1457.55 1422.81 1457.5 1423.39C1456.55 1434.01 1457.33 1448.72 1468.58 1453.3C1481.04 1458.39 1510.34 1456.03 1517.22 1454.65C1525.85 1452.89 1528.5 1448.37 1531.06 1440.63C1533.04 1434.56 1536.93 1433.75 1542.72 1434.5C1544.13 1434.69 1545.43 1435.41 1546.38 1436.53C1547.33 1437.65 1547.87 1439.09 1547.9 1440.6C1548.36 1463.72 1529.91 1473.88 1509.13 1474.69C1477.87 1475.87 1443.22 1477.94 1439.97 1436.97C1438.97 1424.69 1438.86 1409.67 1439.63 1391.89C1440.78 1363.62 1456.92 1352.51 1485.53 1351.74C1499.82 1351.35 1511.29 1352 1519.92 1353.69C1549.05 1359.39 1551.32 1393.88 1547.61 1417.31C1547.53 1417.79 1547.33 1418.23 1547.03 1418.6C1546.73 1418.97 1546.33 1419.25 1545.88 1419.41C1542.68 1420.59 1538.31 1421.18 1532.79 1421.2C1520.41 1421.26 1496.08 1421.29 1459.8 1421.29ZM1459.86 1402.66L1528.47 1402.08C1528.82 1402.08 1529.16 1402.01 1529.48 1401.87C1529.8 1401.74 1530.09 1401.54 1530.33 1401.29C1530.58 1401.04 1530.77 1400.75 1530.9 1400.42C1531.03 1400.1 1531.09 1399.76 1531.09 1399.41L1531.03 1393.22C1531.01 1390.2 1530.42 1387.22 1529.29 1384.45C1528.16 1381.67 1526.53 1379.15 1524.47 1377.04C1522.42 1374.92 1519.98 1373.25 1517.31 1372.12C1514.64 1370.99 1511.78 1370.42 1508.9 1370.45L1478.85 1370.74C1473.04 1370.79 1467.49 1373.25 1463.41 1377.58C1459.34 1381.92 1457.08 1387.77 1457.12 1393.85L1457.18 1400.04C1457.18 1400.39 1457.26 1400.73 1457.39 1401.05C1457.53 1401.37 1457.73 1401.66 1457.98 1401.91C1458.23 1402.15 1458.52 1402.34 1458.84 1402.47C1459.16 1402.6 1459.51 1402.66 1459.86 1402.66Z" fill="#5B6770"/>
<path d="M1581.63 1448.72C1579.87 1439.25 1587.9 1437.06 1595.15 1439.85C1596.12 1440.22 1596.9 1440.94 1597.34 1441.87L1601.23 1450.02C1601.77 1451.15 1602.58 1452.14 1603.59 1452.9C1605.83 1454.58 1609.55 1455.53 1614.75 1455.75C1630.83 1456.36 1645.57 1456.27 1658.96 1455.49C1670.24 1454.8 1670.13 1445.99 1670.01 1436.26C1669.9 1426.12 1664.72 1421.13 1654.5 1421.29C1647.49 1421.4 1633.37 1421.28 1612.13 1420.91C1597.38 1420.66 1588.29 1413.81 1584.85 1400.36C1579.9 1380.98 1583.76 1354.76 1608.16 1352.54C1617.24 1351.7 1632.87 1351.53 1655.04 1352.02C1671.97 1352.4 1684.6 1362.42 1684.49 1380.06C1684.47 1381.34 1683.98 1382.56 1683.11 1383.49C1679.88 1386.81 1675.59 1387.31 1670.24 1384.99C1669.52 1384.67 1668.93 1384.1 1668.6 1383.37L1665.26 1376.23C1664.51 1374.62 1663.32 1373.25 1661.81 1372.29C1660.31 1371.33 1658.56 1370.82 1656.77 1370.82H1610.87C1608.98 1370.82 1607.14 1371.4 1605.59 1372.47C1604.05 1373.55 1602.86 1375.07 1602.2 1376.84C1600.55 1381.25 1600.48 1387.37 1601.97 1395.18C1602.22 1396.49 1602.8 1397.71 1603.65 1398.74C1604.5 1399.76 1605.6 1400.55 1606.84 1401.02C1610.52 1402.44 1615.1 1403.09 1620.57 1402.98C1641.67 1402.56 1655.04 1402.63 1660.69 1403.21C1668.34 1404.01 1674.73 1406.85 1679.85 1411.73C1690.53 1421.95 1689.7 1447.25 1684.03 1459.49C1675.56 1477.74 1648.63 1475.44 1629.4 1475.09C1605.17 1474.63 1586.43 1474.89 1581.63 1448.72Z" fill="#5B6770"/>
<path d="M1891.44 1368.83C1892.4 1368.34 1895.68 1365.71 1901.29 1360.95C1907.66 1355.53 1918.34 1352.48 1933.35 1351.79C1934.35 1351.75 1935.36 1351.91 1936.3 1352.26C1937.24 1352.62 1938.1 1353.16 1938.83 1353.85C1939.55 1354.55 1940.13 1355.38 1940.52 1356.3C1940.92 1357.22 1941.12 1358.22 1941.12 1359.22V1363.97C1941.12 1365.71 1940.44 1367.39 1939.23 1368.64C1938.01 1369.89 1936.36 1370.62 1934.61 1370.68C1908.65 1371.51 1888.22 1379.63 1889.75 1409.63C1890.03 1415.27 1890.02 1434.26 1889.69 1466.6C1889.67 1468.71 1888.81 1470.73 1887.31 1472.22C1885.8 1473.71 1883.77 1474.54 1881.66 1474.54H1879.99C1877.9 1474.54 1875.89 1473.71 1874.41 1472.23C1872.94 1470.75 1872.1 1468.75 1872.1 1466.65C1872.09 1443.12 1872.07 1409.74 1872.05 1366.5C1872.05 1361.84 1872.34 1358.46 1872.94 1356.37C1873.34 1354.99 1874.27 1353.8 1875.57 1352.99C1876.87 1352.19 1878.46 1351.83 1880.08 1351.96C1888.65 1352.73 1891.78 1357.84 1889.46 1367.28C1889.39 1367.54 1889.41 1367.81 1889.49 1368.06C1889.58 1368.31 1889.74 1368.54 1889.95 1368.7C1890.16 1368.86 1890.41 1368.96 1890.68 1368.99C1890.94 1369.01 1891.21 1368.96 1891.44 1368.83Z" fill="#5B6770"/>
<path d="M1985.81 1368.72C1986.79 1368.22 1990.09 1365.58 1995.71 1360.8C2002.1 1355.37 2012.83 1352.31 2027.89 1351.62C2028.9 1351.58 2029.91 1351.74 2030.85 1352.09C2031.8 1352.45 2032.66 1352.99 2033.39 1353.69C2034.12 1354.39 2034.7 1355.22 2035.09 1356.15C2035.49 1357.07 2035.69 1358.07 2035.69 1359.08V1363.85C2035.69 1365.61 2035.01 1367.29 2033.79 1368.55C2032.57 1369.81 2030.91 1370.54 2029.16 1370.59C2003.11 1371.43 1982.59 1379.57 1984.12 1409.68C1984.4 1415.35 1984.39 1434.41 1984.06 1466.88C1984.04 1469.01 1983.18 1471.04 1981.67 1472.53C1980.16 1474.02 1978.12 1474.86 1976 1474.86H1974.33C1972.23 1474.86 1970.22 1474.02 1968.74 1472.54C1967.25 1471.06 1966.42 1469.04 1966.42 1466.94C1966.4 1443.32 1966.38 1409.8 1966.36 1366.39C1966.36 1361.71 1966.66 1358.32 1967.25 1356.23C1967.65 1354.84 1968.58 1353.64 1969.89 1352.83C1971.2 1352.02 1972.8 1351.66 1974.42 1351.79C1983.03 1352.56 1986.17 1357.68 1983.83 1367.17C1983.76 1367.42 1983.78 1367.7 1983.86 1367.95C1983.95 1368.2 1984.11 1368.42 1984.32 1368.59C1984.53 1368.75 1984.78 1368.85 1985.05 1368.87C1985.31 1368.9 1985.58 1368.84 1985.81 1368.72Z" fill="#5B6770"/>
<path d="M2160.16 1436.22C2160.15 1441.32 2159.12 1446.36 2157.16 1451.07C2155.19 1455.77 2152.32 1460.04 2148.7 1463.64C2145.08 1467.23 2140.79 1470.08 2136.07 1472.01C2131.36 1473.95 2126.3 1474.93 2121.2 1474.92L2089.72 1474.81C2079.42 1474.77 2069.56 1470.64 2062.31 1463.34C2055.05 1456.03 2051 1446.14 2051.03 1435.84L2051.19 1390.64C2051.21 1385.54 2052.23 1380.49 2054.2 1375.79C2056.16 1371.08 2059.04 1366.81 2062.66 1363.22C2066.27 1359.63 2070.56 1356.78 2075.28 1354.85C2080 1352.91 2085.05 1351.92 2090.15 1351.94L2121.63 1352.05C2131.93 1352.09 2141.79 1356.21 2149.05 1363.52C2156.3 1370.83 2160.36 1380.72 2160.32 1391.02L2160.16 1436.22ZM2142.46 1391.84C2142.46 1386.28 2140.25 1380.95 2136.32 1377.02C2132.39 1373.09 2127.06 1370.88 2121.51 1370.88H2089.96C2084.41 1370.88 2079.08 1373.09 2075.15 1377.02C2071.22 1380.95 2069.01 1386.28 2069.01 1391.84V1434.9C2069.01 1440.46 2071.22 1445.79 2075.15 1449.72C2079.08 1453.65 2084.41 1455.86 2089.96 1455.86H2121.51C2127.06 1455.86 2132.39 1453.65 2136.32 1449.72C2140.25 1445.79 2142.46 1440.46 2142.46 1434.9V1391.84Z" fill="#5B6770"/>
<path d="M2448.43 1436.51C2448.44 1441.53 2447.46 1446.5 2445.55 1451.14C2443.64 1455.78 2440.83 1460 2437.29 1463.56C2433.74 1467.11 2429.54 1469.94 2424.9 1471.87C2420.27 1473.8 2415.3 1474.79 2410.28 1474.8L2378.34 1474.86C2373.32 1474.87 2368.35 1473.89 2363.71 1471.97C2359.06 1470.06 2354.85 1467.25 2351.29 1463.71C2347.74 1460.16 2344.91 1455.95 2342.98 1451.32C2341.06 1446.68 2340.06 1441.72 2340.05 1436.7L2339.97 1390.29C2339.96 1385.27 2340.94 1380.3 2342.85 1375.65C2344.77 1371.01 2347.57 1366.79 2351.12 1363.24C2354.66 1359.68 2358.87 1356.86 2363.5 1354.93C2368.13 1353 2373.1 1352 2378.12 1351.99L2410.07 1351.94C2415.09 1351.93 2420.06 1352.91 2424.7 1354.82C2429.34 1356.74 2433.56 1359.54 2437.11 1363.09C2440.67 1366.63 2443.49 1370.84 2445.42 1375.48C2447.35 1380.11 2448.34 1385.08 2448.35 1390.1L2448.43 1436.51ZM2430.78 1391.63C2430.78 1386.16 2428.61 1380.91 2424.74 1377.04C2420.87 1373.17 2415.62 1370.99 2410.15 1370.99H2378.08C2375.37 1370.99 2372.69 1371.53 2370.19 1372.57C2367.68 1373.6 2365.41 1375.12 2363.49 1377.04C2361.58 1378.96 2360.06 1381.23 2359.02 1383.74C2357.98 1386.24 2357.45 1388.92 2357.45 1391.63V1435.1C2357.45 1437.81 2357.98 1440.5 2359.02 1443C2360.06 1445.51 2361.58 1447.78 2363.49 1449.7C2365.41 1451.62 2367.68 1453.14 2370.19 1454.17C2372.69 1455.21 2375.37 1455.74 2378.08 1455.74H2410.15C2415.62 1455.74 2420.87 1453.57 2424.74 1449.7C2428.61 1445.83 2430.78 1440.58 2430.78 1435.1V1391.63Z" fill="#5B6770"/>
<path d="M2948.56 1426.55C2948.4 1426.34 2948.2 1426.17 2947.96 1426.06C2947.73 1425.94 2947.47 1425.88 2947.21 1425.88C2946.95 1425.89 2946.7 1425.95 2946.47 1426.07C2946.25 1426.19 2946.05 1426.37 2945.91 1426.58L2914.77 1471.12C2914.1 1472.06 2913.25 1472.86 2912.26 1473.46C2911.28 1474.07 2910.17 1474.46 2909.03 1474.61C2907.88 1474.76 2906.71 1474.68 2905.6 1474.36C2904.49 1474.04 2903.46 1473.49 2902.57 1472.76L2902.28 1472.5C2900.41 1471.01 2899.18 1468.88 2898.83 1466.52C2898.49 1464.16 2899.05 1461.76 2900.41 1459.8L2933.88 1411.53C2934.44 1410.72 2934.73 1409.76 2934.72 1408.79C2934.71 1407.81 2934.39 1406.87 2933.82 1406.08L2904.78 1366.39C2904.14 1365.51 2903.68 1364.52 2903.42 1363.47C2903.17 1362.42 2903.12 1361.33 2903.29 1360.26C2903.45 1359.19 2903.83 1358.16 2904.39 1357.24C2904.95 1356.31 2905.69 1355.51 2906.57 1354.87L2908.49 1353.46C2910.14 1352.26 2912.2 1351.76 2914.22 1352.07C2916.24 1352.38 2918.05 1353.48 2919.26 1355.13L2946.51 1392.41C2946.73 1392.71 2947.02 1392.94 2947.35 1393.11C2947.68 1393.27 2948.04 1393.36 2948.41 1393.36C2948.78 1393.36 2949.14 1393.27 2949.46 1393.11C2949.79 1392.94 2950.07 1392.71 2950.28 1392.41L2977.62 1355.33C2978.34 1354.36 2979.26 1353.55 2980.31 1352.97C2981.37 1352.38 2982.53 1352.02 2983.74 1351.93C2984.94 1351.83 2986.16 1351.99 2987.3 1352.4C2988.44 1352.81 2989.47 1353.45 2990.34 1354.3L2990.78 1354.73C2992.49 1356.34 2993.55 1358.52 2993.76 1360.86C2993.97 1363.2 2993.31 1365.54 2991.9 1367.42L2961.56 1408.19C2961.06 1408.86 2960.79 1409.68 2960.78 1410.53C2960.78 1411.37 2961.04 1412.19 2961.54 1412.88L2995.61 1459.46C2996.34 1460.44 2996.85 1461.57 2997.14 1462.76C2997.42 1463.95 2997.47 1465.19 2997.27 1466.4C2997.07 1467.61 2996.64 1468.77 2995.98 1469.81C2995.33 1470.85 2994.48 1471.76 2993.48 1472.47L2992.91 1472.87C2992.01 1473.53 2991 1474.01 2989.92 1474.28C2988.84 1474.55 2987.72 1474.61 2986.62 1474.44C2985.52 1474.27 2984.47 1473.89 2983.51 1473.32C2982.56 1472.74 2981.73 1471.98 2981.08 1471.09L2948.56 1426.55Z" fill="#5B6770"/>
<path d="M3047.79 1361.7C3047.75 1362.02 3047.8 1362.35 3047.95 1362.64C3048.09 1362.93 3048.32 1363.16 3048.61 1363.32C3048.9 1363.47 3049.22 1363.54 3049.54 1363.5C3049.87 1363.46 3050.17 1363.32 3050.41 1363.11C3055.45 1358.73 3060.89 1355.42 3066.93 1354.24C3095.68 1348.71 3132.61 1348.86 3137.87 1385.19C3139.51 1396.41 3139.91 1411.4 3139.08 1430.15C3137.7 1460.78 3125.1 1474.28 3094.27 1474.77C3079.52 1475 3064.73 1475.02 3049.89 1474.83C3049.59 1474.83 3049.29 1474.89 3049 1475.01C3048.72 1475.13 3048.46 1475.3 3048.25 1475.51C3048.03 1475.73 3047.86 1475.99 3047.74 1476.27C3047.62 1476.55 3047.56 1476.86 3047.56 1477.16L3047.68 1516.72C3047.68 1517.81 3047.46 1518.88 3047.02 1519.88C3046.59 1520.88 3045.95 1521.78 3045.15 1522.51C3044.35 1523.25 3043.4 1523.81 3042.37 1524.16C3041.34 1524.51 3040.24 1524.64 3039.16 1524.55L3038.47 1524.49C3036.18 1524.36 3034.03 1523.36 3032.46 1521.69C3030.89 1520.03 3030.01 1517.83 3030.01 1515.54C3030.12 1425.14 3030.22 1373.4 3030.3 1360.31C3030.33 1354.96 3032.75 1352.2 3037.55 1352.02C3045.24 1351.7 3048.66 1354.92 3047.79 1361.7ZM3050.1 1455.95C3064.97 1455.87 3079.85 1455.77 3094.76 1455.66C3118.74 1455.46 3120.29 1446.39 3121.41 1424.8C3121.83 1416.93 3121.44 1404.94 3120.23 1388.84C3119.5 1379.29 3114.67 1373.73 3105.73 1372.18C3091.95 1369.76 3078.19 1370.22 3064.43 1373.56C3053.75 1376.15 3047.94 1381.36 3047.77 1392.41C3047.44 1412.95 3047.56 1433.49 3048.14 1454.05C3048.15 1454.56 3048.37 1455.04 3048.73 1455.39C3049.1 1455.75 3049.59 1455.95 3050.1 1455.95Z" fill="#5B6770"/>
<path d="M3283.32 1436.08C3283.32 1446.38 3279.23 1456.26 3271.95 1463.54C3264.67 1470.83 3254.8 1474.92 3244.5 1474.92H3213.13C3202.83 1474.92 3192.96 1470.83 3185.68 1463.54C3178.4 1456.26 3174.3 1446.38 3174.3 1436.08V1390.83C3174.3 1380.53 3178.4 1370.65 3185.68 1363.37C3192.96 1356.09 3202.83 1352 3213.13 1352H3244.5C3254.8 1352 3264.67 1356.09 3271.95 1363.37C3279.23 1370.65 3283.32 1380.53 3283.32 1390.83V1436.08ZM3265.6 1391.79C3265.61 1389.05 3265.07 1386.34 3264.03 1383.81C3262.99 1381.28 3261.46 1378.98 3259.53 1377.04C3257.59 1375.1 3255.3 1373.56 3252.77 1372.51C3250.25 1371.46 3247.54 1370.91 3244.8 1370.91L3212.97 1370.85C3207.45 1370.84 3202.14 1373.03 3198.23 1376.93C3194.31 1380.83 3192.11 1386.13 3192.1 1391.66L3192.02 1434.84C3192.02 1437.58 3192.55 1440.29 3193.6 1442.82C3194.64 1445.35 3196.17 1447.65 3198.1 1449.59C3200.03 1451.53 3202.33 1453.07 3204.85 1454.12C3207.38 1455.17 3210.09 1455.71 3212.82 1455.72L3244.66 1455.77C3250.18 1455.78 3255.48 1453.6 3259.4 1449.69C3263.31 1445.79 3265.52 1440.5 3265.53 1434.97L3265.6 1391.79Z" fill="#5B6770"/>
<path d="M3342.87 1368.75C3343.83 1368.25 3347.12 1365.62 3352.74 1360.86C3359.15 1355.43 3369.88 1352.38 3384.95 1351.71C3385.95 1351.66 3386.95 1351.82 3387.9 1352.18C3388.84 1352.54 3389.7 1353.08 3390.42 1353.77C3391.15 1354.47 3391.73 1355.31 3392.12 1356.23C3392.51 1357.16 3392.72 1358.16 3392.72 1359.16V1363.94C3392.71 1365.69 3392.02 1367.36 3390.81 1368.62C3389.59 1369.87 3387.93 1370.6 3386.18 1370.65C3360.14 1371.48 3339.62 1379.6 3341.11 1409.68C3341.4 1415.35 3341.35 1434.4 3340.97 1466.86C3340.95 1468.98 3340.09 1471.01 3338.58 1472.5C3337.07 1473.99 3335.03 1474.83 3332.91 1474.83H3331.24C3329.14 1474.83 3327.13 1474 3325.65 1472.51C3324.16 1471.03 3323.33 1469.01 3323.33 1466.91C3323.35 1443.29 3323.37 1409.78 3323.39 1366.39C3323.4 1361.7 3323.71 1358.32 3324.31 1356.23C3324.71 1354.84 3325.65 1353.65 3326.95 1352.85C3328.26 1352.04 3329.86 1351.68 3331.47 1351.82C3340.09 1352.61 3343.22 1357.73 3340.88 1367.19C3340.82 1367.45 3340.83 1367.72 3340.92 1367.98C3341.01 1368.23 3341.16 1368.45 3341.37 1368.61C3341.58 1368.78 3341.84 1368.88 3342.1 1368.9C3342.37 1368.93 3342.63 1368.87 3342.87 1368.75Z" fill="#5B6770"/>
<path d="M3585.74 1462.22C3570.26 1477.1 3553.08 1475.32 3531.89 1474.69C3506.65 1473.88 3498.77 1453.61 3499.69 1431.62C3500.75 1407.06 3512.78 1395.29 3537.39 1395.06C3556.6 1394.87 3572.64 1394.93 3585.51 1395.26C3586.07 1395.27 3586.61 1395.07 3587.03 1394.69C3587.44 1394.32 3587.69 1393.8 3587.73 1393.25C3588.85 1375.4 3576.96 1371.34 3560.99 1370.85C3548.67 1370.47 3532.09 1369.61 3524.01 1375.83C3523.76 1376.02 3523.55 1376.26 3523.37 1376.55L3517.62 1386.08C3517.14 1386.89 3516.37 1387.49 3515.46 1387.75C3511.78 1388.86 3508.09 1388.52 3504.41 1386.74C3503.94 1386.52 3503.53 1386.19 3503.23 1385.77C3502.92 1385.35 3502.72 1384.86 3502.65 1384.35C3500.64 1368.92 3513.7 1356.8 3527.86 1354.09C3537.17 1352.31 3548.16 1351.54 3560.85 1351.79C3591.47 1352.4 3605.8 1366.5 3606.17 1397.45C3606.5 1426.43 3606.47 1450.4 3606.09 1469.36C3606.07 1470.72 3605.51 1472.01 3604.53 1472.97C3603.56 1473.92 3602.25 1474.46 3600.88 1474.45H3594.06C3592.58 1474.45 3591.17 1473.87 3590.13 1472.83C3589.09 1471.79 3588.5 1470.37 3588.5 1468.9V1463.4C3588.5 1463.08 3588.4 1462.77 3588.23 1462.51C3588.05 1462.24 3587.8 1462.03 3587.51 1461.91C3587.21 1461.78 3586.89 1461.75 3586.58 1461.8C3586.26 1461.86 3585.97 1462 3585.74 1462.22ZM3587.9 1414.58C3587.84 1414.2 3587.65 1413.86 3587.36 1413.61C3587.07 1413.36 3586.7 1413.23 3586.32 1413.22C3570.33 1413.45 3554.47 1413.48 3538.71 1413.31C3534.26 1413.25 3529.65 1414.13 3524.87 1415.93C3523.68 1416.39 3522.6 1417.11 3521.72 1418.04C3520.83 1418.97 3520.17 1420.09 3519.78 1421.31C3517.05 1429.91 3516.8 1438.37 3519.03 1446.7C3522.34 1458.97 3544.82 1456.35 3554.26 1456C3565.39 1455.6 3583.96 1450.99 3586.66 1439.39C3588.58 1431.08 3588.99 1422.81 3587.9 1414.58Z" fill="#5B6770"/>
<path d="M3643.48 1413.37C3643.48 1388.27 3643.33 1360.23 3672 1353.87C3686.87 1350.57 3703.98 1350.47 3723.34 1353.58C3737.99 1355.97 3748.18 1366.91 3747.11 1382.22C3747.08 1382.8 3746.9 1383.37 3746.6 1383.87C3746.3 1384.38 3745.89 1384.81 3745.39 1385.13C3742.18 1387.18 3738.61 1387.61 3734.68 1386.4C3734.1 1386.21 3733.55 1385.91 3733.09 1385.51C3732.62 1385.11 3732.25 1384.62 3731.97 1384.06C3728.92 1377.9 3726.05 1372.2 3718.33 1371.48C3705.5 1370.28 3667.39 1366.22 3663.62 1383.37C3661.49 1393.1 3661.69 1402.43 3661.69 1413.37C3661.69 1424.31 3661.52 1433.64 3663.65 1443.34C3667.42 1460.49 3705.53 1456.41 3718.36 1455.17C3726.07 1454.48 3728.98 1448.75 3732 1442.59C3732.28 1442.04 3732.66 1441.56 3733.12 1441.16C3733.59 1440.77 3734.13 1440.47 3734.71 1440.29C3738.64 1439.06 3742.21 1439.46 3745.41 1441.49C3745.91 1441.82 3746.33 1442.25 3746.63 1442.75C3746.93 1443.26 3747.11 1443.82 3747.14 1444.4C3748.24 1459.72 3738.05 1470.69 3723.4 1473.07C3704.06 1476.2 3686.94 1476.14 3672.05 1472.87C3643.39 1466.54 3643.51 1438.47 3643.48 1413.37Z" fill="#5B6770"/>
<path d="M4012.32 1363.68C4024.78 1350.76 4047.69 1350.38 4064.79 1353.06C4086.01 1356.4 4097.01 1369.33 4097.8 1391.87C4098.29 1405.84 4098.43 1430.65 4098.2 1466.31C4098.19 1467.44 4097.96 1468.56 4097.52 1469.6C4097.07 1470.65 4096.43 1471.59 4095.61 1472.38C4094.8 1473.17 4093.84 1473.79 4092.79 1474.21C4091.74 1474.62 4090.61 1474.82 4089.48 1474.8H4089.42C4087.08 1474.76 4084.85 1473.8 4083.21 1472.14C4081.57 1470.48 4080.65 1468.24 4080.64 1465.91C4080.57 1428.96 4080.49 1406.16 4080.41 1397.51C4080.36 1386.22 4078.2 1374.51 4065.56 1372.26C4050.57 1369.61 4010.25 1367.77 4009.67 1390.89C4009.56 1395.66 4009.56 1420.59 4009.67 1465.65C4009.67 1467.99 4008.74 1470.24 4007.09 1471.91C4005.43 1473.57 4003.18 1474.51 4000.84 1474.51H4000.49C3998.14 1474.51 3995.89 1473.58 3994.22 1471.93C3992.56 1470.27 3991.63 1468.02 3991.63 1465.68C3991.53 1429.67 3991.52 1398.3 3991.6 1371.57C3991.62 1363.28 3992.06 1357.97 3992.92 1355.65C3993.26 1354.74 3993.91 1353.97 3994.76 1353.46C4000.03 1350.35 4009.04 1351.97 4009.33 1359.22C4009.4 1361.62 4009.58 1363.03 4009.84 1363.45C4009.97 1363.65 4010.15 1363.82 4010.35 1363.95C4010.56 1364.07 4010.79 1364.15 4011.03 1364.17C4011.26 1364.19 4011.5 1364.16 4011.73 1364.07C4011.95 1363.99 4012.15 1363.86 4012.32 1363.68Z" fill="#5B6770"/>
<path d="M4291.65 1439.83C4292.62 1440.2 4293.4 1440.92 4293.84 1441.84L4297.73 1449.99C4298.27 1451.12 4299.07 1452.11 4300.06 1452.87C4302.3 1454.56 4306.02 1455.52 4311.22 1455.75C4327.3 1456.38 4342.04 1456.3 4355.43 1455.52C4366.71 1454.85 4366.63 1446.04 4366.51 1436.31C4366.41 1426.18 4361.25 1421.18 4351.03 1421.32C4344.02 1421.43 4329.9 1421.3 4308.66 1420.91C4293.91 1420.64 4284.82 1413.77 4281.41 1400.3C4276.46 1380.93 4280.34 1354.7 4304.75 1352.51C4313.82 1351.69 4329.45 1351.54 4351.63 1352.05C4368.55 1352.46 4381.19 1362.47 4381.04 1380.12C4381.03 1381.4 4380.53 1382.62 4379.66 1383.55C4376.44 1386.87 4372.15 1387.37 4366.8 1385.04C4366.07 1384.73 4365.49 1384.15 4365.16 1383.43L4361.82 1376.29C4361.08 1374.68 4359.89 1373.31 4358.39 1372.34C4356.89 1371.38 4355.14 1370.86 4353.36 1370.85L4307.45 1370.82C4305.57 1370.81 4303.72 1371.38 4302.17 1372.45C4300.62 1373.52 4299.43 1375.04 4298.76 1376.81C4297.11 1381.22 4297.04 1387.34 4298.53 1395.15C4298.77 1396.46 4299.35 1397.68 4300.19 1398.7C4301.04 1399.72 4302.13 1400.51 4303.37 1400.99C4307.05 1402.43 4311.63 1403.09 4317.1 1402.98C4338.2 1402.58 4351.57 1402.66 4357.21 1403.24C4364.87 1404.06 4371.26 1406.91 4376.38 1411.79C4387.06 1422.04 4386.2 1447.34 4380.5 1459.55C4372.01 1477.8 4345.1 1475.47 4325.87 1475.09C4301.64 1474.6 4282.9 1474.86 4278.13 1448.66C4276.37 1439.19 4284.4 1437.03 4291.65 1439.83Z" fill="#5B6770"/>
<path d="M816.101 1436.32C816.093 1441.38 815.087 1446.39 813.142 1451.07C811.198 1455.74 808.351 1459.98 804.767 1463.56C801.182 1467.13 796.929 1469.96 792.25 1471.89C787.571 1473.82 782.558 1474.81 777.498 1474.8L745.61 1474.74C740.549 1474.73 735.54 1473.73 730.868 1471.78C726.196 1469.84 721.952 1466.99 718.38 1463.41C714.808 1459.82 711.977 1455.57 710.048 1450.89C708.12 1446.21 707.132 1441.19 707.141 1436.13L707.22 1390.59C707.229 1385.53 708.235 1380.52 710.179 1375.84C712.124 1371.17 714.97 1366.92 718.555 1363.35C722.139 1359.78 726.393 1356.95 731.071 1355.02C735.75 1353.09 740.763 1352.1 745.824 1352.11L777.712 1352.17C782.773 1352.17 787.782 1353.18 792.454 1355.12C797.126 1357.07 801.369 1359.92 804.942 1363.5C808.514 1367.09 811.345 1371.34 813.273 1376.02C815.202 1380.7 816.19 1385.72 816.181 1390.78L816.101 1436.32ZM797.961 1390.99C797.942 1385.64 795.799 1380.51 792.002 1376.74C788.205 1372.97 783.066 1370.86 777.716 1370.88L744.964 1370.99C739.614 1371.01 734.49 1373.16 730.719 1376.95C726.949 1380.75 724.842 1385.89 724.86 1391.24L725.016 1435.81C725.034 1441.16 727.178 1446.28 730.974 1450.05C734.771 1453.83 739.91 1455.93 745.261 1455.92L778.012 1455.8C783.363 1455.78 788.487 1453.64 792.257 1449.84C796.027 1446.04 798.135 1440.9 798.116 1435.55L797.961 1390.99Z" fill="#5B6770"/>
<path d="M1085.17 1421.26C1084.6 1421.25 1084.05 1421.47 1083.62 1421.86C1083.19 1422.25 1082.93 1422.78 1082.87 1423.36C1081.89 1433.95 1082.64 1448.63 1093.86 1453.24C1106.33 1458.36 1135.59 1456.06 1142.47 1454.68C1151.11 1452.92 1153.78 1448.4 1156.32 1440.69C1158.33 1434.61 1162.22 1433.81 1168 1434.58C1169.41 1434.78 1170.71 1435.5 1171.65 1436.62C1172.59 1437.74 1173.13 1439.18 1173.15 1440.69C1173.58 1463.8 1155.11 1473.91 1134.39 1474.69C1103.13 1475.84 1068.51 1477.82 1065.31 1436.89C1064.35 1424.61 1064.27 1409.6 1065.06 1391.86C1066.26 1363.6 1082.38 1352.51 1110.99 1351.79C1125.26 1351.43 1136.72 1352.09 1145.35 1353.78C1174.45 1359.56 1176.66 1393.99 1172.92 1417.43C1172.84 1417.9 1172.64 1418.34 1172.34 1418.7C1172.03 1419.07 1171.64 1419.34 1171.2 1419.5C1167.99 1420.67 1163.63 1421.26 1158.1 1421.26C1145.73 1421.31 1121.42 1421.31 1085.17 1421.26ZM1084.8 1402.4H1153.93C1154.22 1402.4 1154.51 1402.34 1154.78 1402.23C1155.04 1402.12 1155.29 1401.96 1155.49 1401.75C1155.7 1401.55 1155.86 1401.3 1155.97 1401.03C1156.09 1400.76 1156.14 1400.48 1156.14 1400.18V1392.04C1156.14 1386.37 1153.88 1380.94 1149.86 1376.93C1145.84 1372.93 1140.39 1370.68 1134.7 1370.68H1104.02C1098.34 1370.68 1092.88 1372.93 1088.86 1376.93C1084.84 1380.94 1082.58 1386.37 1082.58 1392.04V1400.18C1082.58 1400.48 1082.64 1400.76 1082.75 1401.03C1082.86 1401.3 1083.03 1401.55 1083.23 1401.75C1083.44 1401.96 1083.68 1402.12 1083.95 1402.23C1084.22 1402.34 1084.51 1402.4 1084.8 1402.4Z" fill="#5B6770"/>
<path d="M1811.84 1463.17C1811.83 1462.86 1811.73 1462.55 1811.56 1462.29C1811.38 1462.03 1811.13 1461.83 1810.85 1461.71C1810.56 1461.58 1810.24 1461.54 1809.93 1461.59C1809.62 1461.64 1809.34 1461.78 1809.1 1461.99C1793.62 1476.82 1776.49 1475 1755.37 1474.34C1730.22 1473.51 1722.36 1453.27 1723.34 1431.33C1724.43 1406.86 1736.43 1395.15 1760.98 1394.94C1780.13 1394.79 1796.12 1394.89 1808.96 1395.23C1809.52 1395.24 1810.06 1395.04 1810.47 1394.66C1810.89 1394.29 1811.14 1393.77 1811.17 1393.22C1812.33 1375.43 1800.5 1371.37 1784.55 1370.85C1772.26 1370.45 1755.74 1369.55 1747.66 1375.74C1747.41 1375.93 1747.19 1376.18 1747.02 1376.46L1741.27 1385.96C1740.79 1386.77 1740.03 1387.37 1739.14 1387.63C1735.45 1388.73 1731.78 1388.38 1728.12 1386.6C1727.65 1386.38 1727.24 1386.04 1726.93 1385.62C1726.63 1385.21 1726.43 1384.72 1726.36 1384.21C1724.37 1368.83 1737.41 1356.74 1751.54 1354.1C1760.83 1352.33 1771.79 1351.58 1784.44 1351.85C1814.97 1352.48 1829.25 1366.59 1829.56 1397.45C1829.85 1426.35 1829.79 1450.25 1829.36 1469.16C1829.33 1470.51 1828.77 1471.8 1827.8 1472.75C1826.82 1473.7 1825.52 1474.23 1824.15 1474.23H1817.36C1816.63 1474.23 1815.91 1474.08 1815.24 1473.8C1814.57 1473.52 1813.96 1473.11 1813.44 1472.6C1812.93 1472.08 1812.52 1471.47 1812.25 1470.79C1811.97 1470.12 1811.83 1469.4 1811.84 1468.67V1463.17ZM1811.49 1414.35C1811.44 1413.97 1811.25 1413.63 1810.96 1413.38C1810.66 1413.13 1810.29 1413 1809.91 1412.99C1793.87 1413.24 1777.94 1413.3 1762.13 1413.17C1757.68 1413.11 1753.06 1413.99 1748.26 1415.82C1747.06 1416.28 1745.98 1417.01 1745.1 1417.94C1744.22 1418.88 1743.56 1420 1743.17 1421.23C1740.44 1429.86 1740.2 1438.36 1742.45 1446.7C1745.79 1459 1768.35 1456.35 1777.82 1455.97C1788.98 1455.54 1807.61 1450.88 1810.31 1439.25C1812.21 1430.9 1812.6 1422.6 1811.49 1414.35Z" fill="#5B6770"/>
<path d="M2643.43 1461.39C2629.15 1476.24 2610.36 1475.69 2589.64 1474.28C2574.39 1473.25 2563.74 1466.85 2557.69 1455.08C2554.43 1448.75 2552.9 1436.08 2553.09 1417.08C2553.36 1392.38 2553.38 1373.4 2553.15 1360.14C2553.13 1359.07 2553.32 1358.01 2553.72 1357.01C2554.11 1356.02 2554.71 1355.11 2555.46 1354.35C2556.21 1353.59 2557.1 1352.98 2558.09 1352.56C2559.07 1352.15 2560.13 1351.94 2561.2 1351.94H2562.9C2565.03 1351.94 2567.08 1352.78 2568.59 1354.28C2570.11 1355.77 2570.97 1357.81 2570.99 1359.94C2571.12 1374.55 2571.14 1397.6 2571.05 1429.12C2571.02 1442.39 2573.87 1453.44 2589.24 1455.54C2604.32 1457.59 2629.9 1457.93 2641.1 1443.08C2642.92 1440.68 2644.09 1435.55 2644.61 1427.68C2644.78 1425.01 2644.91 1402.5 2644.98 1360.14C2644.99 1359.03 2645.22 1357.92 2645.67 1356.9C2646.12 1355.88 2646.78 1354.96 2647.6 1354.2C2648.42 1353.45 2649.39 1352.87 2650.45 1352.5C2651.5 1352.14 2652.62 1351.99 2653.73 1352.08L2654.08 1352.11C2656.41 1352.29 2658.6 1353.35 2660.19 1355.06C2661.79 1356.78 2662.68 1359.04 2662.68 1361.38C2662.8 1419.78 2662.72 1463.41 2662.45 1492.28C2662.3 1507.67 2655.82 1517.73 2643.03 1522.47C2639.3 1523.84 2629.61 1524.47 2613.96 1524.37C2595.29 1524.26 2585.51 1524.19 2584.63 1524.17C2560.57 1523.51 2551.33 1507.88 2553.23 1485.34C2553.33 1484.14 2553.88 1483.02 2554.77 1482.21C2555.66 1481.39 2556.83 1480.94 2558.04 1480.93H2565.81C2566.71 1480.93 2567.58 1481.25 2568.27 1481.83C2568.96 1482.41 2569.42 1483.21 2569.58 1484.1C2571.39 1494.46 2571.28 1505.09 2581.81 1505.14C2609.11 1505.28 2627.05 1505.21 2635.63 1504.94C2637.34 1504.88 2638.99 1504.31 2640.37 1503.29C2641.75 1502.27 2642.78 1500.86 2643.34 1499.24C2644.42 1496.06 2644.98 1491.87 2645.04 1486.69C2645.19 1474.08 2645.3 1465.92 2645.36 1462.19C2645.36 1461.97 2645.3 1461.75 2645.18 1461.56C2645.05 1461.37 2644.88 1461.22 2644.67 1461.13C2644.46 1461.05 2644.23 1461.02 2644.01 1461.07C2643.79 1461.11 2643.59 1461.22 2643.43 1461.39Z" fill="#5B6770"/>
<path d="M3796.04 1352.34H3791.95C3788.17 1352.34 3785.1 1355.41 3785.1 1359.19V1467.78C3785.1 1471.56 3788.17 1474.63 3791.95 1474.63H3796.04C3799.82 1474.63 3802.89 1471.56 3802.89 1467.78V1359.19C3802.89 1355.41 3799.82 1352.34 3796.04 1352.34Z" fill="#5B6770"/>
<path d="M3951.89 1436.1C3951.9 1441.16 3950.91 1446.16 3948.99 1450.84C3947.06 1455.51 3944.24 1459.76 3940.67 1463.34C3937.1 1466.92 3932.87 1469.76 3928.2 1471.7C3923.54 1473.64 3918.53 1474.65 3913.48 1474.66L3881.48 1474.71C3876.42 1474.72 3871.42 1473.74 3866.75 1471.81C3862.08 1469.88 3857.83 1467.06 3854.25 1463.49C3850.67 1459.92 3847.83 1455.68 3845.89 1451.02C3843.94 1446.35 3842.94 1441.35 3842.93 1436.29L3842.85 1390.64C3842.84 1385.58 3843.83 1380.57 3845.75 1375.9C3847.68 1371.23 3850.51 1366.98 3854.07 1363.4C3857.64 1359.82 3861.88 1356.98 3866.54 1355.03C3871.21 1353.09 3876.21 1352.09 3881.26 1352.08L3913.27 1352.02C3918.32 1352.01 3923.33 1353 3928 1354.93C3932.67 1356.85 3936.92 1359.68 3940.49 1363.25C3944.07 1366.82 3946.92 1371.05 3948.86 1375.72C3950.8 1380.39 3951.8 1385.39 3951.81 1390.45L3951.89 1436.1ZM3933.76 1391.12C3933.76 1388.47 3933.25 1385.84 3932.24 1383.39C3931.22 1380.93 3929.74 1378.7 3927.87 1376.82C3925.99 1374.94 3923.77 1373.45 3921.32 1372.43C3918.87 1371.41 3916.24 1370.88 3913.59 1370.88L3881.01 1370.82C3878.36 1370.82 3875.73 1371.33 3873.28 1372.35C3870.83 1373.36 3868.6 1374.84 3866.72 1376.72C3864.84 1378.59 3863.34 1380.81 3862.33 1383.26C3861.31 1385.71 3860.78 1388.34 3860.77 1390.99L3860.7 1435.5C3860.69 1438.15 3861.21 1440.78 3862.22 1443.24C3863.23 1445.69 3864.72 1447.92 3866.59 1449.8C3868.46 1451.68 3870.69 1453.17 3873.14 1454.19C3875.58 1455.21 3878.21 1455.74 3880.86 1455.74L3913.44 1455.8C3916.1 1455.81 3918.72 1455.29 3921.18 1454.28C3923.63 1453.26 3925.86 1451.78 3927.74 1449.91C3929.62 1448.03 3931.11 1445.81 3932.13 1443.36C3933.15 1440.91 3933.68 1438.28 3933.68 1435.63L3933.76 1391.12Z" fill="#5B6770"/>
<path d="M4154.2 1423.36C4153.23 1433.95 4153.97 1448.66 4165.2 1453.27C4177.66 1458.39 4206.93 1456.12 4213.81 1454.74C4222.44 1453.01 4225.12 1448.49 4227.68 1440.78C4229.69 1434.7 4233.58 1433.9 4239.36 1434.67C4240.77 1434.87 4242.07 1435.59 4243.01 1436.71C4243.96 1437.83 4244.49 1439.27 4244.52 1440.78C4244.92 1463.89 4226.44 1474 4205.69 1474.75C4174.44 1475.87 4139.81 1477.83 4136.65 1436.89C4135.69 1424.61 4135.61 1409.59 4136.42 1391.84C4137.66 1363.57 4153.8 1352.51 4182.41 1351.79C4196.68 1351.45 4208.14 1352.13 4216.77 1353.84C4245.87 1359.62 4248.06 1394.08 4244.29 1417.52C4244.21 1417.99 4244.01 1418.43 4243.7 1418.79C4243.4 1419.15 4243 1419.43 4242.56 1419.59C4239.36 1420.76 4234.99 1421.34 4229.46 1421.34C4217.09 1421.38 4192.77 1421.35 4156.51 1421.26C4155.93 1421.26 4155.38 1421.47 4154.96 1421.86C4154.53 1422.25 4154.26 1422.78 4154.2 1423.36ZM4155.1 1402.29L4226.13 1402.4C4226.27 1402.4 4226.42 1402.37 4226.56 1402.32C4226.69 1402.26 4226.82 1402.18 4226.92 1402.07C4227.02 1401.97 4227.11 1401.85 4227.16 1401.71C4227.22 1401.57 4227.25 1401.43 4227.25 1401.28L4227.28 1391.72C4227.28 1386.14 4225.03 1380.79 4221.02 1376.83C4217 1372.88 4211.55 1370.66 4205.86 1370.65L4175.47 1370.59C4172.66 1370.59 4169.87 1371.13 4167.27 1372.18C4164.66 1373.24 4162.3 1374.78 4160.3 1376.74C4158.31 1378.69 4156.73 1381 4155.65 1383.56C4154.57 1386.11 4154.01 1388.84 4154 1391.61L4153.97 1401.16C4153.97 1401.46 4154.09 1401.75 4154.3 1401.96C4154.51 1402.17 4154.8 1402.29 4155.1 1402.29Z" fill="#5B6770"/>
</svg>
