<svg width="1043" height="1087" viewBox="0 0 1043 1087" fill="none" xmlns="http://www.w3.org/2000/svg">
<path d="M171.198 845.382C169.471 849.568 167.168 853.535 164.288 857.282C150.468 875.262 129.788 884.272 106.978 881.802C86.7376 879.622 69.7476 868.202 60.1276 850.672C56.5676 844.185 54.7543 836.375 54.6876 827.242C54.6009 815.508 54.5943 799.682 54.6676 779.762C54.7209 765.748 59.5209 753.715 69.0676 743.662C79.3143 732.882 91.8643 726.608 106.718 724.842C113.011 724.095 119.331 724.308 125.678 725.482C145.958 729.222 162.478 742.542 171.318 761.192C171.384 761.333 171.393 761.494 171.343 761.64C171.292 761.786 171.186 761.906 171.048 761.972C166.161 764.392 163.408 765.772 162.788 766.112C159.128 768.112 156.354 769.192 154.468 769.352C148.608 769.852 144.488 768.032 141.018 763.852C139.984 762.605 139.321 761.825 139.028 761.512C131.868 753.782 119.808 750.972 109.598 752.432C97.4576 754.162 86.0476 761.692 82.8476 773.882C82.3276 775.868 82.0909 779.305 82.1376 784.192C82.1576 786.872 82.1643 800.975 82.1576 826.502C82.1476 839.462 91.8376 849.202 103.588 852.932C116.188 856.922 129.218 853.692 138.938 844.932C145.768 838.762 151.738 834.442 161.038 839.612C161.898 840.092 165.188 841.752 170.908 844.592C171.046 844.663 171.153 844.784 171.207 844.93C171.261 845.076 171.257 845.238 171.198 845.382Z" fill="#003764"/>
<path d="M328.021 878.939C325.174 878.926 320.024 878.942 312.571 878.989C307.831 879.016 304.648 878.582 303.021 877.689C298.771 875.359 296.901 872.539 295.201 867.739C292.921 861.312 289.424 851.462 284.711 838.189C284.688 838.119 284.643 838.058 284.581 838.015C284.52 837.972 284.447 837.949 284.371 837.949L228.351 837.959C228.255 837.959 228.161 837.989 228.082 838.045C228.004 838.1 227.944 838.179 227.911 838.269L213.771 878.189C213.696 878.403 213.556 878.588 213.372 878.721C213.188 878.853 212.968 878.926 212.741 878.929C206.028 878.996 200.564 878.982 196.351 878.889C189.401 878.729 186.941 871.269 188.951 865.629C199.704 835.229 214.508 793.486 233.361 740.399C239.151 724.099 267.331 723.749 276.901 736.119C278.061 737.619 279.251 740.129 280.471 743.649C281.531 746.736 297.474 791.699 328.301 878.539C328.317 878.584 328.322 878.632 328.316 878.68C328.309 878.727 328.291 878.772 328.264 878.811C328.237 878.85 328.2 878.882 328.158 878.905C328.116 878.927 328.069 878.939 328.021 878.939ZM237.991 809.999C237.973 810.047 237.968 810.099 237.974 810.15C237.981 810.201 238 810.25 238.029 810.292C238.059 810.334 238.098 810.369 238.143 810.393C238.189 810.417 238.24 810.429 238.291 810.429L274.511 810.369C274.563 810.369 274.613 810.357 274.659 810.333C274.704 810.309 274.744 810.274 274.773 810.232C274.802 810.19 274.821 810.141 274.828 810.09C274.835 810.039 274.829 809.987 274.811 809.939L256.611 759.049C256.588 758.988 256.547 758.935 256.494 758.898C256.44 758.86 256.376 758.84 256.311 758.84C256.246 758.84 256.182 758.86 256.128 758.898C256.075 758.935 256.034 758.988 256.011 759.049L237.991 809.999Z" fill="#003764"/>
<path d="M681.838 879.031C678.984 879.011 673.831 879.025 666.378 879.071C661.631 879.098 658.444 878.665 656.818 877.771C652.568 875.441 650.698 872.621 648.998 867.811C646.718 861.385 643.221 851.528 638.508 838.241C638.484 838.171 638.439 838.111 638.378 838.067C638.317 838.024 638.243 838.001 638.168 838.001H582.108C582.011 838.002 581.918 838.032 581.839 838.087C581.76 838.143 581.7 838.221 581.668 838.311L567.508 878.261C567.432 878.475 567.293 878.661 567.109 878.793C566.925 878.925 566.704 878.998 566.478 879.001C559.764 879.068 554.298 879.051 550.078 878.951C543.128 878.791 540.668 871.331 542.678 865.681C553.444 835.268 568.264 793.501 587.138 740.381C592.928 724.071 621.128 723.731 630.708 736.111C631.868 737.611 633.058 740.121 634.278 743.641C635.338 746.728 651.284 791.725 682.118 878.631C682.134 878.676 682.138 878.725 682.132 878.772C682.126 878.819 682.108 878.864 682.081 878.903C682.053 878.943 682.017 878.975 681.975 878.997C681.932 879.019 681.885 879.031 681.838 879.031ZM591.738 810.011C591.72 810.058 591.714 810.109 591.72 810.159C591.726 810.209 591.744 810.256 591.772 810.298C591.801 810.339 591.839 810.373 591.884 810.396C591.928 810.419 591.977 810.431 592.028 810.431L628.288 810.361C628.337 810.361 628.385 810.349 628.428 810.326C628.472 810.303 628.509 810.27 628.537 810.23C628.566 810.19 628.584 810.144 628.591 810.096C628.598 810.047 628.593 809.998 628.578 809.951L610.358 759.031C610.335 758.972 610.296 758.922 610.244 758.886C610.192 758.85 610.131 758.831 610.068 758.831C610.005 758.831 609.943 758.85 609.891 758.886C609.84 758.922 609.8 758.972 609.778 759.031L591.738 810.011Z" fill="#003764"/>
<path d="M981.898 878.999C979.045 878.979 973.891 878.992 966.438 879.039C961.691 879.066 958.505 878.636 956.878 877.749C952.628 875.419 950.758 872.599 949.058 867.789C946.778 861.362 943.281 851.506 938.568 838.219C938.545 838.149 938.499 838.088 938.438 838.045C938.377 838.002 938.304 837.979 938.228 837.979L882.168 837.989C882.072 837.989 881.978 838.019 881.899 838.075C881.821 838.13 881.761 838.209 881.728 838.299L867.578 878.249C867.502 878.463 867.363 878.648 867.179 878.781C866.995 878.913 866.775 878.986 866.548 878.989C859.835 879.056 854.368 879.042 850.148 878.949C843.198 878.789 840.738 871.329 842.748 865.679C853.508 835.266 868.318 793.499 887.178 740.379C892.968 724.069 921.168 723.729 930.748 736.099C931.908 737.599 933.098 740.109 934.318 743.629C935.378 746.716 951.331 791.706 982.178 878.599C982.194 878.644 982.199 878.692 982.192 878.74C982.186 878.787 982.168 878.832 982.141 878.871C982.114 878.91 982.077 878.942 982.035 878.965C981.993 878.987 981.946 878.999 981.898 878.999ZM910.198 810.399C922.258 810.386 928.335 810.379 928.428 810.379C928.466 810.378 928.503 810.368 928.536 810.35C928.57 810.332 928.598 810.306 928.619 810.275C928.641 810.244 928.655 810.208 928.66 810.171C928.665 810.133 928.661 810.095 928.648 810.059L910.298 758.669C910.289 758.637 910.275 758.609 910.26 758.586C910.244 758.563 910.226 758.547 910.208 758.539C910.188 758.532 910.168 758.529 910.148 758.529C910.121 758.529 910.098 758.532 910.078 758.539C910.06 758.547 910.042 758.563 910.026 758.586C910.01 758.608 909.997 758.637 909.988 758.669L891.748 810.099C891.735 810.135 891.731 810.173 891.736 810.21C891.741 810.248 891.755 810.284 891.776 810.315C891.798 810.346 891.826 810.372 891.86 810.39C891.893 810.408 891.93 810.418 891.968 810.419C892.068 810.419 898.145 810.412 910.198 810.399Z" fill="#003764"/>
<path d="M378.603 773.022C378.582 772.975 378.546 772.936 378.5 772.912C378.455 772.888 378.402 772.879 378.351 772.889C378.301 772.898 378.254 772.924 378.22 772.963C378.186 773.001 378.166 773.05 378.163 773.102V878.702C378.163 878.74 378.156 878.778 378.142 878.813C378.128 878.848 378.107 878.88 378.081 878.907C378.055 878.934 378.024 878.955 377.99 878.97C377.956 878.984 377.92 878.992 377.883 878.992C375.57 878.985 372.27 879.002 367.983 879.042C360.583 879.102 354.143 878.172 351.553 871.062C350.933 869.349 350.626 866.115 350.633 861.362C350.653 830.089 350.653 790.969 350.633 744.002C350.633 740.355 350.94 737.712 351.553 736.072C354.553 728.052 361.623 728.032 368.983 728.012C381.276 727.979 388.746 727.985 391.393 728.032C391.554 728.035 391.712 728.087 391.844 728.181C391.976 728.276 392.077 728.409 392.133 728.562L434.543 848.002C434.563 848.062 434.601 848.114 434.652 848.151C434.703 848.188 434.765 848.208 434.828 848.208C434.891 848.208 434.953 848.188 435.004 848.151C435.055 848.114 435.093 848.062 435.113 848.002C459.2 780.322 472.253 743.659 474.273 738.012C476.08 732.979 479.146 729.829 483.473 728.562C484.873 728.155 489.416 727.962 497.103 727.982C505.263 728.015 512.416 728.029 518.563 728.022C518.722 728.022 518.875 728.084 518.987 728.195C519.1 728.305 519.163 728.455 519.163 728.612V878.362C519.163 878.498 519.11 878.629 519.014 878.726C518.919 878.823 518.789 878.879 518.653 878.882C506.033 879.162 491.653 881.222 491.463 865.442C491.396 859.615 491.383 828.775 491.423 772.922C491.424 772.871 491.408 772.822 491.376 772.783C491.343 772.743 491.298 772.717 491.248 772.709C491.198 772.7 491.147 772.71 491.104 772.736C491.061 772.763 491.028 772.804 491.013 772.852C470.673 830.092 459.846 860.655 458.533 864.542C456.706 869.929 453.713 873.745 449.553 875.992C437.603 882.442 416.893 880.882 411.603 865.982C397.523 826.322 386.523 795.335 378.603 773.022Z" fill="#003764"/>
<path d="M823.037 878.64C823.054 878.678 823.062 878.72 823.059 878.762C823.056 878.804 823.043 878.844 823.021 878.879C822.999 878.914 822.969 878.942 822.933 878.962C822.898 878.981 822.858 878.991 822.817 878.99C814.031 878.983 808.997 879 807.717 879.04C798.567 879.28 792.387 877.39 788.647 868.68C784.474 858.953 779.111 846.683 772.557 831.87C770.831 827.976 767.724 826.023 763.237 826.01C748.531 825.983 738.254 825.976 732.407 825.99C732.296 825.99 732.189 826.034 732.11 826.113C732.032 826.192 731.987 826.298 731.987 826.41V878.33C731.987 878.46 731.937 878.585 731.846 878.68C731.754 878.775 731.63 878.832 731.497 878.84C725.784 879.206 720.757 879.196 716.417 878.81C711.084 878.33 707.514 876.116 705.707 872.17C704.807 870.216 704.361 865.883 704.367 859.17C704.387 844.876 704.407 805.656 704.427 741.51C704.434 735.71 706.547 731.76 710.767 729.66C713.081 728.5 717.317 727.93 723.477 727.95C746.211 728.01 765.047 728.033 779.987 728.02C787.227 728.01 795.987 730.97 802.077 735.59C813.557 744.303 820.241 755.713 822.127 769.82C822.667 773.85 822.607 780.93 821.887 785.38C819.294 801.506 810.924 813.623 796.777 821.73C796.721 821.762 796.673 821.806 796.635 821.859C796.598 821.912 796.573 821.972 796.561 822.035C796.55 822.098 796.552 822.163 796.569 822.224C796.586 822.285 796.616 822.342 796.657 822.39C799.231 825.43 801.934 830.213 804.767 836.74C816.487 863.673 822.577 877.64 823.037 878.64ZM731.957 756.06L732.037 798C732.037 798.132 732.09 798.26 732.184 798.353C732.277 798.447 732.405 798.5 732.537 798.5L776.267 798.43C781.18 798.42 785.888 796.334 789.355 792.633C792.823 788.931 794.766 783.916 794.757 778.69V775.17C794.753 772.581 794.269 770.018 793.334 767.627C792.398 765.237 791.029 763.066 789.304 761.238C787.58 759.411 785.534 757.963 783.283 756.976C781.033 755.99 778.621 755.485 776.187 755.49L732.457 755.56C732.325 755.56 732.197 755.612 732.104 755.706C732.01 755.8 731.957 755.927 731.957 756.06Z" fill="#003764"/>
<path d="M54.6025 940.258C54.6158 935.772 54.6591 932.448 54.7325 930.288C55.0225 922.208 62.1225 915.108 70.0925 913.088C80.6325 910.428 90.6525 915.338 95.7425 924.958C95.8257 925.121 95.843 925.309 95.7909 925.485C95.7387 925.66 95.6211 925.808 95.4625 925.898C93.2158 927.205 91.5891 927.962 90.5825 928.168C86.1525 929.108 84.6525 924.958 81.1525 923.368C75.7925 920.928 68.8525 922.478 65.6225 927.508C63.7925 930.378 64.4125 936.378 64.4025 940.278C64.3925 944.188 63.7425 950.178 65.5725 953.058C68.7825 958.108 75.7125 959.678 81.0825 957.268C84.5925 955.688 86.1025 951.548 90.5325 952.498C91.5391 952.712 93.1625 953.475 95.4025 954.788C95.5594 954.881 95.6749 955.03 95.7251 955.205C95.7754 955.379 95.7565 955.567 95.6725 955.728C90.5525 965.328 80.5125 970.198 69.9825 967.498C62.0125 965.448 54.9425 958.308 54.6925 950.238C54.6258 948.072 54.5958 944.745 54.6025 940.258Z" fill="#00A6CF"/>
<path d="M124.721 912.422C131.641 912.432 138.041 914.972 142.671 920.022C148.301 926.162 147.471 932.042 147.461 940.352C147.441 948.662 148.251 954.552 142.591 960.672C137.941 965.702 131.541 968.212 124.621 968.202C117.691 968.192 111.301 965.652 106.671 960.602C101.041 954.462 101.861 948.582 101.881 940.272C101.901 931.962 101.091 926.082 106.741 919.952C111.391 914.922 117.801 912.412 124.721 912.422ZM137.842 933.815C137.845 932.303 137.55 930.806 136.974 929.409C136.398 928.011 135.552 926.741 134.485 925.67C133.418 924.599 132.151 923.749 130.755 923.169C129.36 922.588 127.864 922.287 126.352 922.285L123.132 922.279C121.621 922.277 120.123 922.572 118.726 923.148C117.329 923.724 116.058 924.569 114.988 925.636C113.917 926.703 113.067 927.97 112.486 929.366C111.905 930.761 111.605 932.257 111.602 933.769L111.579 946.809C111.577 948.321 111.872 949.818 112.448 951.215C113.024 952.613 113.869 953.883 114.936 954.954C116.003 956.024 117.271 956.874 118.666 957.455C120.061 958.036 121.558 958.337 123.069 958.339L126.289 958.345C127.801 958.347 129.298 958.052 130.695 957.476C132.093 956.9 133.363 956.055 134.434 954.988C135.505 953.921 136.355 952.653 136.935 951.258C137.516 949.863 137.817 948.366 137.819 946.855L137.842 933.815Z" fill="#00A6CF"/>
<path d="M327.871 940.271C327.861 944.171 327.221 950.171 329.041 953.041C332.251 958.091 339.181 959.661 344.551 957.251C348.061 955.671 349.571 951.531 354.001 952.481C355.008 952.694 356.631 953.457 358.871 954.771C359.028 954.863 359.144 955.012 359.194 955.187C359.244 955.362 359.225 955.549 359.141 955.711C354.021 965.311 343.981 970.181 333.451 967.481C325.491 965.431 318.421 958.301 318.171 950.221C318.098 948.061 318.068 944.737 318.081 940.251C318.088 935.771 318.131 932.447 318.211 930.281C318.491 922.211 325.591 915.101 333.551 913.081C344.091 910.421 354.121 915.331 359.201 924.951C359.285 925.112 359.304 925.3 359.254 925.474C359.204 925.649 359.088 925.798 358.931 925.891C356.685 927.197 355.058 927.954 354.051 928.161C349.611 929.091 348.121 924.951 344.611 923.361C339.251 920.921 332.321 922.471 329.091 927.501C327.261 930.371 327.881 936.371 327.871 940.271Z" fill="#00A6CF"/>
<path d="M384.67 940.262C384.69 931.962 383.88 926.072 389.53 919.952C394.18 914.922 400.59 912.412 407.51 912.422C414.43 912.442 420.83 914.972 425.46 920.022C431.09 926.172 430.26 932.052 430.24 940.362C430.23 948.662 431.03 954.552 425.38 960.672C420.73 965.702 414.32 968.212 407.4 968.202C400.48 968.182 394.08 965.652 389.45 960.602C383.83 954.452 384.65 948.572 384.67 940.262ZM420.64 933.842C420.64 932.323 420.341 930.818 419.759 929.414C419.178 928.011 418.325 926.735 417.251 925.661C416.177 924.586 414.901 923.734 413.498 923.153C412.094 922.571 410.589 922.272 409.07 922.272H405.91C404.39 922.272 402.886 922.571 401.482 923.153C400.078 923.734 398.803 924.586 397.729 925.661C396.654 926.735 395.802 928.011 395.221 929.414C394.639 930.818 394.34 932.323 394.34 933.842V946.782C394.34 949.851 395.559 952.793 397.729 954.963C399.898 957.133 402.841 958.352 405.91 958.352H409.07C412.138 958.352 415.081 957.133 417.251 954.963C419.421 952.793 420.64 949.851 420.64 946.782V933.842Z" fill="#00A6CF"/>
<path d="M661.906 940.292C661.906 948.602 662.736 954.492 657.096 960.622C652.456 965.672 646.056 968.202 639.136 968.212C632.216 968.212 625.806 965.702 621.166 960.662C615.516 954.532 616.326 948.652 616.316 940.342C616.316 932.032 615.486 926.142 621.126 920.002C625.766 914.952 632.166 912.432 639.086 912.422C646.006 912.422 652.416 914.932 657.056 919.972C662.706 926.102 661.896 931.982 661.906 940.292ZM652.028 933.595C652.031 932.112 651.741 930.643 651.176 929.273C650.611 927.902 649.782 926.656 648.735 925.606C647.689 924.555 646.446 923.722 645.077 923.152C643.708 922.582 642.24 922.287 640.758 922.285L637.338 922.279C635.855 922.276 634.387 922.566 633.016 923.131C631.645 923.696 630.399 924.525 629.349 925.572C628.299 926.618 627.465 927.861 626.895 929.23C626.325 930.599 626.031 932.067 626.028 933.549L626.005 947.009C626.002 948.492 626.292 949.96 626.857 951.331C627.422 952.702 628.251 953.948 629.297 954.998C630.344 956.048 631.587 956.882 632.956 957.452C634.325 958.022 635.792 958.316 637.275 958.319L640.695 958.325C642.177 958.327 643.646 958.038 645.017 957.473C646.388 956.908 647.634 956.079 648.684 955.032C649.734 953.985 650.568 952.742 651.138 951.374C651.707 950.005 652.002 948.537 652.005 947.055L652.028 933.595Z" fill="#00A6CF"/>
<path d="M770.402 940.25C770.415 935.763 770.458 932.437 770.532 930.27C770.822 922.2 777.922 915.1 785.892 913.08C796.432 910.43 806.452 915.34 811.532 924.96C811.616 925.121 811.635 925.309 811.584 925.484C811.534 925.659 811.419 925.808 811.262 925.9C809.015 927.207 807.388 927.963 806.382 928.17C801.942 929.1 800.452 924.96 796.952 923.36C791.592 920.93 784.652 922.47 781.422 927.5C779.582 930.37 780.202 936.37 780.192 940.27C780.192 944.17 779.542 950.17 781.362 953.04C784.572 958.09 791.502 959.67 796.872 957.26C800.382 955.68 801.892 951.54 806.322 952.49C807.328 952.703 808.952 953.47 811.192 954.79C811.349 954.882 811.464 955.031 811.514 955.206C811.565 955.381 811.546 955.569 811.462 955.73C806.342 965.33 796.292 970.19 785.762 967.49C777.802 965.43 770.732 958.3 770.482 950.22C770.415 948.053 770.388 944.73 770.402 940.25Z" fill="#00A6CF"/>
<path d="M817.628 940.231C817.642 935.744 817.688 932.421 817.768 930.261C818.058 922.181 825.168 915.081 833.138 913.071C843.688 910.431 853.698 915.351 858.778 924.981C858.859 925.142 858.874 925.328 858.822 925.501C858.77 925.674 858.654 925.82 858.498 925.911C856.252 927.217 854.625 927.974 853.618 928.181C849.178 929.111 847.688 924.961 844.188 923.361C838.828 920.921 831.888 922.461 828.658 927.491C826.818 930.361 827.438 936.361 827.418 940.261C827.408 944.161 826.758 950.161 828.578 953.041C831.778 958.091 838.708 959.671 844.088 957.271C847.598 955.691 849.108 951.551 853.538 952.511C854.545 952.724 856.168 953.487 858.408 954.801C858.565 954.893 858.681 955.042 858.731 955.217C858.781 955.392 858.762 955.579 858.678 955.741C853.548 965.341 843.498 970.201 832.968 967.491C825.008 965.431 817.948 958.291 817.708 950.211C817.642 948.044 817.615 944.717 817.628 940.231Z" fill="#00A6CF"/>
<path d="M929.94 940.29C929.95 948.6 930.77 954.48 925.13 960.62C920.49 965.67 914.089 968.2 907.169 968.2C900.249 968.21 893.84 965.69 889.2 960.65C883.55 954.52 884.359 948.63 884.359 940.32C884.349 932.01 883.529 926.13 889.169 919.99C893.799 914.94 900.21 912.42 907.13 912.41C914.05 912.41 920.459 914.92 925.099 919.96C930.749 926.09 929.94 931.98 929.94 940.29ZM894.15 940.32C894.156 945.507 894.226 948.647 894.359 949.74C895.079 955.49 902.099 958.43 907.109 958.42C912.119 958.42 919.13 955.47 919.84 949.72C919.973 948.627 920.039 945.483 920.039 940.29C920.033 935.103 919.96 931.964 919.82 930.87C919.11 925.12 912.09 922.18 907.08 922.19C902.06 922.19 895.049 925.14 894.349 930.89C894.216 931.984 894.15 935.127 894.15 940.32Z" fill="#00A6CF"/>
<path d="M165.373 930.611V965.391C165.373 965.701 165.306 966.007 165.175 966.288C165.044 966.569 164.853 966.818 164.616 967.018C164.378 967.217 164.1 967.362 163.801 967.442C163.501 967.522 163.188 967.535 162.883 967.481L158.993 966.811C158.073 966.669 157.233 966.205 156.623 965.502C156.014 964.799 155.673 963.902 155.663 962.971C155.643 960.971 155.633 946.535 155.633 919.661C155.643 916.101 156.573 913.771 160.253 913.681C162.106 913.635 165.296 913.625 169.823 913.651C169.953 913.655 170.079 913.697 170.184 913.772C170.289 913.847 170.369 913.951 170.413 914.071L185.093 955.421C185.113 955.484 185.152 955.538 185.205 955.577C185.258 955.615 185.322 955.636 185.388 955.636C185.453 955.636 185.517 955.615 185.57 955.577C185.623 955.538 185.663 955.484 185.683 955.421C193.389 933.768 197.919 921.058 199.273 917.291C200.153 914.841 201.763 913.661 204.523 913.651C209.223 913.638 212.566 913.635 214.553 913.641C214.717 913.641 214.875 913.707 214.991 913.823C215.107 913.939 215.173 914.097 215.173 914.261V965.431C215.172 965.704 215.114 965.974 215.001 966.222C214.888 966.471 214.724 966.692 214.52 966.872C214.316 967.052 214.075 967.186 213.816 967.265C213.556 967.344 213.282 967.367 213.013 967.331L208.543 966.751C207.681 966.642 206.889 966.221 206.314 965.567C205.74 964.914 205.423 964.073 205.423 963.201V930.701C205.431 930.63 205.413 930.559 205.37 930.501C205.328 930.444 205.265 930.405 205.195 930.392C205.125 930.379 205.052 930.394 204.992 930.433C204.932 930.472 204.89 930.532 204.873 930.601L193.503 962.691C193.195 963.548 192.659 964.306 191.953 964.881C188.706 967.501 184.979 967.948 180.773 966.221C178.673 965.361 177.583 963.621 176.773 961.361C174.773 955.735 171.119 945.458 165.813 930.531C165.792 930.484 165.756 930.445 165.71 930.421C165.665 930.397 165.612 930.389 165.561 930.398C165.51 930.407 165.464 930.433 165.43 930.472C165.396 930.511 165.376 930.56 165.373 930.611Z" fill="#00A6CF"/>
<path d="M376.589 966.808C376.589 966.859 376.579 966.91 376.559 966.957C376.54 967.005 376.511 967.048 376.475 967.084C376.439 967.12 376.396 967.149 376.348 967.168C376.301 967.188 376.25 967.198 376.199 967.198H371.649C370.36 967.198 369.124 966.68 368.213 965.757C367.301 964.834 366.789 963.583 366.789 962.278V918.498C366.789 917.193 367.301 915.942 368.213 915.019C369.124 914.096 370.36 913.578 371.649 913.578H376.199C376.303 913.578 376.402 913.619 376.475 913.692C376.548 913.765 376.589 913.865 376.589 913.968V966.808Z" fill="#00A6CF"/>
<path d="M497.95 914.48L478.41 946.45C478.26 946.698 478.18 946.985 478.18 947.28V965.44C478.181 965.76 478.11 966.077 477.973 966.366C477.836 966.656 477.635 966.911 477.386 967.114C477.137 967.317 476.846 967.463 476.534 967.54C476.221 967.617 475.896 967.623 475.58 967.56L471.56 966.72C470.677 966.54 469.883 966.06 469.313 965.363C468.742 964.665 468.431 963.791 468.43 962.89V947.27C468.43 946.917 468.333 946.574 468.15 946.28C461.024 934.6 455.614 925.703 451.92 919.59C450.607 917.423 450.724 915.553 452.27 913.98C452.456 913.794 452.708 913.69 452.97 913.69H459.18C459.336 913.69 459.489 913.73 459.624 913.805C459.759 913.88 459.871 913.989 459.95 914.12L472.76 935.08C472.82 935.177 472.904 935.257 473.004 935.313C473.104 935.368 473.216 935.398 473.33 935.398C473.444 935.398 473.557 935.368 473.657 935.313C473.756 935.257 473.84 935.177 473.9 935.08L485.69 915.77C486.081 915.131 486.63 914.603 487.285 914.237C487.94 913.871 488.679 913.679 489.43 913.68H497.5C497.593 913.681 497.684 913.706 497.764 913.754C497.844 913.801 497.911 913.869 497.956 913.95C498.002 914.031 498.025 914.123 498.024 914.216C498.023 914.309 497.998 914.4 497.95 914.48Z" fill="#00A6CF"/>
<path d="M528.6 965.479C528.6 965.78 528.534 966.077 528.407 966.35C528.28 966.623 528.095 966.865 527.864 967.059C527.633 967.252 527.363 967.393 527.072 967.471C526.781 967.548 526.477 967.561 526.18 967.509L522.36 966.839C521.436 966.693 520.595 966.222 519.988 965.511C519.381 964.799 519.048 963.894 519.05 962.959C519.017 961.819 519 947.549 519 920.149C519 916.199 519.64 913.699 524.01 913.659C529.177 913.605 536.423 913.615 545.75 913.689C548.057 913.702 550.18 914.295 552.12 915.469C558.333 919.222 561.16 924.985 560.6 932.759C559.98 941.419 553.38 948.539 544.5 948.369C543.593 948.355 538.413 948.359 528.96 948.379C528.865 948.379 528.773 948.416 528.705 948.481C528.638 948.547 528.6 948.636 528.6 948.729V965.479ZM528.59 923.759V938.239C528.59 938.347 528.633 938.452 528.71 938.529C528.787 938.605 528.891 938.649 529 938.649H543.96C545.798 938.649 547.561 937.889 548.86 936.537C550.16 935.185 550.89 933.351 550.89 931.439V930.559C550.89 928.646 550.16 926.813 548.86 925.46C547.561 924.108 545.798 923.349 543.96 923.349H529C528.891 923.349 528.787 923.392 528.71 923.469C528.633 923.546 528.59 923.65 528.59 923.759Z" fill="#00A6CF"/>
<path d="M730.272 915.27C730.185 915.704 730.138 926.627 730.132 948.04C730.132 951.54 731.372 954.154 733.852 955.88C739.482 959.78 747.672 959.18 751.532 953.22C752.432 951.827 752.878 949.764 752.872 947.03C752.805 930.277 752.808 920.55 752.882 917.85C752.906 916.874 753.284 915.939 753.947 915.222C754.609 914.504 755.51 914.052 756.482 913.95L761.182 913.46C761.405 913.438 761.631 913.469 761.839 913.552C762.048 913.635 762.234 913.766 762.381 913.936C762.528 914.106 762.632 914.308 762.684 914.526C762.737 914.745 762.736 914.972 762.682 915.19C762.548 915.717 762.525 927.32 762.612 950C762.622 953.8 760.582 958.28 757.802 961.18C750.432 968.85 738.422 970.69 729.402 964.79C724.962 961.88 720.582 956.59 720.462 951C720.395 948.027 720.388 936.794 720.442 917.3C720.445 916.471 720.754 915.673 721.31 915.06C721.866 914.447 722.629 914.062 723.452 913.98L728.632 913.47C728.867 913.447 729.104 913.48 729.325 913.565C729.546 913.649 729.744 913.785 729.903 913.959C730.062 914.134 730.178 914.344 730.242 914.571C730.306 914.799 730.316 915.038 730.272 915.27Z" fill="#00A6CF"/>
<path d="M948.001 932.61V965.25C948.001 965.577 947.93 965.901 947.793 966.198C947.656 966.495 947.457 966.76 947.209 966.972C946.961 967.185 946.67 967.342 946.356 967.431C946.043 967.52 945.713 967.54 945.391 967.49L941.601 966.89C940.63 966.753 939.741 966.274 939.095 965.54C938.449 964.806 938.089 963.866 938.081 962.89C937.988 953.89 937.968 939.34 938.021 919.24C938.041 912.92 942.251 913.65 946.891 913.7C947.064 913.703 947.234 913.746 947.385 913.826C947.536 913.906 947.665 914.021 947.761 914.16L971.061 948.09C971.099 948.147 971.155 948.19 971.219 948.212C971.283 948.234 971.353 948.235 971.419 948.213C971.485 948.192 971.543 948.15 971.585 948.094C971.626 948.038 971.65 947.97 971.651 947.9C971.618 934.553 971.628 924.513 971.681 917.78C971.695 916.327 972.638 915.037 974.511 913.91C974.688 913.805 974.888 913.746 975.091 913.74L980.881 913.59C980.943 913.589 981.003 913.6 981.06 913.622C981.117 913.645 981.169 913.678 981.213 913.721C981.257 913.764 981.292 913.815 981.315 913.872C981.339 913.928 981.351 913.989 981.351 914.05L981.361 966.68C981.361 966.814 981.313 966.943 981.227 967.044C981.14 967.145 981.021 967.211 980.891 967.23C980.611 967.277 979.148 967.227 976.501 967.08C972.691 966.88 970.921 965.42 968.581 961.99C958.695 947.517 951.985 937.677 948.451 932.47C948.42 932.429 948.377 932.398 948.328 932.382C948.279 932.366 948.226 932.366 948.177 932.381C948.127 932.396 948.084 932.427 948.053 932.468C948.021 932.509 948.003 932.558 948.001 932.61Z" fill="#00A6CF"/>
<path d="M260.184 914.312V920.232C260.184 920.497 260.096 920.754 259.934 920.962C258.694 922.562 257.637 923.362 256.764 923.362C245.991 923.348 239.744 923.368 238.024 923.422C235.771 923.488 234.521 924.859 234.274 927.532C234.141 928.952 234.101 931.412 234.154 934.912C234.156 935.045 234.211 935.172 234.307 935.266C234.402 935.359 234.53 935.412 234.664 935.412H259.644C259.715 935.412 259.785 935.425 259.851 935.452C259.916 935.479 259.976 935.518 260.026 935.567C260.076 935.616 260.116 935.675 260.143 935.739C260.17 935.803 260.184 935.872 260.184 935.942V941.552C260.184 941.645 260.17 941.736 260.144 941.822C259.477 943.895 258.284 944.985 256.564 945.092C255.044 945.192 247.731 945.212 234.624 945.152C234.504 945.152 234.388 945.199 234.302 945.283C234.216 945.367 234.166 945.482 234.164 945.602C234.104 949.428 234.124 952.045 234.224 953.452C234.391 955.852 235.764 957.115 238.344 957.242C242.884 957.462 248.861 957.515 256.274 957.402C257.847 957.375 259.097 958.262 260.024 960.062C260.129 960.272 260.184 960.502 260.184 960.732V966.542C260.184 966.629 260.166 966.716 260.133 966.797C260.099 966.877 260.049 966.951 259.987 967.012C259.925 967.073 259.851 967.122 259.77 967.154C259.688 967.187 259.601 967.203 259.514 967.202C251.721 967.155 246.511 967.155 243.884 967.202C235.204 967.362 229.244 966.672 225.624 959.382C224.771 957.668 224.354 954.878 224.374 951.012C224.441 939.005 224.447 932.262 224.394 930.782C224.124 922.952 225.834 917.682 232.664 914.622C234.417 913.835 237.524 913.505 241.984 913.632C242.557 913.652 248.401 913.655 259.514 913.642C259.692 913.642 259.862 913.712 259.988 913.838C260.113 913.964 260.184 914.134 260.184 914.312Z" fill="#00A6CF"/>
<path d="M311.141 965.801C311.206 965.945 311.233 966.103 311.222 966.261C311.21 966.419 311.159 966.571 311.074 966.704C310.988 966.837 310.871 966.947 310.733 967.023C310.594 967.1 310.439 967.14 310.281 967.141L303.761 967.151C302.964 967.152 302.184 966.925 301.513 966.498C300.841 966.071 300.306 965.462 299.971 964.741L293.111 950.001C292.883 949.517 292.523 949.107 292.073 948.82C291.624 948.533 291.102 948.381 290.571 948.381L279.491 948.391C279.411 948.391 279.335 948.423 279.278 948.479C279.222 948.535 279.191 948.612 279.191 948.691L279.201 965.461C279.202 965.774 279.133 966.084 279.001 966.368C278.868 966.652 278.675 966.903 278.434 967.103C278.194 967.304 277.912 967.449 277.609 967.528C277.305 967.607 276.989 967.618 276.681 967.561L272.531 966.791C271.666 966.659 270.878 966.222 270.309 965.56C269.74 964.897 269.428 964.053 269.431 963.181C269.457 950.361 269.444 935.534 269.391 918.701C269.384 915.368 271.021 913.688 274.301 913.661C281.334 913.608 288.504 913.608 295.811 913.661C300.091 913.694 303.757 915.481 306.811 919.021C314.081 927.421 312.081 940.821 302.481 946.581C302.418 946.619 302.371 946.678 302.348 946.748C302.326 946.818 302.331 946.894 302.361 946.961L311.141 965.801ZM279.141 923.741L279.201 938.321C279.201 938.425 279.242 938.524 279.315 938.597C279.388 938.67 279.487 938.711 279.591 938.711L293.971 938.661C294.954 938.657 295.927 938.456 296.835 938.069C297.742 937.682 298.565 937.117 299.258 936.405C299.951 935.694 300.499 934.851 300.872 933.923C301.245 932.996 301.435 932.003 301.431 931.001V930.901C301.423 928.878 300.626 926.94 299.216 925.515C297.805 924.09 295.897 923.293 293.911 923.301L279.531 923.351C279.427 923.351 279.328 923.392 279.255 923.465C279.182 923.538 279.141 923.638 279.141 923.741Z" fill="#00A6CF"/>
<path d="M609.252 965.769C609.319 965.912 609.348 966.069 609.338 966.227C609.327 966.385 609.277 966.537 609.191 966.671C609.105 966.804 608.987 966.914 608.847 966.991C608.708 967.068 608.551 967.108 608.392 967.109H601.882C601.087 967.109 600.31 966.882 599.64 966.455C598.971 966.028 598.437 965.419 598.102 964.699L591.262 949.979C591.034 949.495 590.674 949.085 590.224 948.798C589.775 948.511 589.253 948.359 588.722 948.359H577.662C577.582 948.359 577.506 948.391 577.449 948.447C577.393 948.503 577.362 948.579 577.362 948.659V965.409C577.361 965.722 577.292 966.032 577.158 966.315C577.025 966.599 576.831 966.849 576.59 967.049C576.35 967.249 576.068 967.393 575.766 967.47C575.464 967.548 575.148 967.558 574.842 967.499L570.702 966.729C569.838 966.599 569.049 966.163 568.48 965.501C567.911 964.838 567.599 963.993 567.602 963.119C567.642 950.319 567.642 935.516 567.602 918.709C567.595 915.382 569.228 913.706 572.502 913.679C579.528 913.632 586.688 913.639 593.982 913.699C598.255 913.732 601.915 915.519 604.962 919.059C612.212 927.449 610.212 940.829 600.622 946.569C600.559 946.607 600.512 946.666 600.489 946.736C600.467 946.806 600.472 946.882 600.502 946.949L609.252 965.769ZM577.362 923.749V938.249C577.362 938.358 577.405 938.462 577.482 938.539C577.559 938.616 577.663 938.659 577.772 938.659H592.302C594.211 938.659 596.043 937.867 597.393 936.457C598.743 935.046 599.502 933.134 599.502 931.139V930.859C599.502 928.865 598.743 926.952 597.393 925.542C596.043 924.131 594.211 923.339 592.302 923.339H577.772C577.663 923.339 577.559 923.382 577.482 923.459C577.405 923.536 577.362 923.64 577.362 923.749Z" fill="#00A6CF"/>
<path d="M670.097 918.029C670.099 917.448 670.215 916.872 670.439 916.335C670.662 915.798 670.99 915.31 671.402 914.9C671.814 914.489 672.303 914.164 672.841 913.943C673.379 913.721 673.956 913.608 674.537 913.609L690.297 913.669C696.245 913.69 701.941 915.836 706.134 919.635C710.327 923.434 712.674 928.576 712.657 933.929L712.618 946.969C712.609 949.621 712.021 952.246 710.886 954.692C709.751 957.139 708.091 959.36 706.002 961.228C703.912 963.097 701.434 964.576 698.708 965.582C695.983 966.587 693.064 967.1 690.118 967.089L674.357 967.029C673.776 967.028 673.2 966.912 672.663 966.688C672.126 966.465 671.638 966.137 671.228 965.725C670.818 965.313 670.492 964.823 670.271 964.285C670.049 963.747 669.936 963.171 669.938 962.589L670.097 918.029ZM679.998 923.759V956.979C679.998 957.067 680.032 957.151 680.094 957.213C680.156 957.275 680.24 957.309 680.328 957.309H690.097C693.482 957.309 696.727 956.167 699.12 954.134C701.513 952.102 702.857 949.344 702.857 946.469V934.269C702.857 931.394 701.513 928.637 699.12 926.604C696.727 924.571 693.482 923.429 690.097 923.429H680.328C680.24 923.429 680.156 923.464 680.094 923.526C680.032 923.588 679.998 923.672 679.998 923.759Z" fill="#00A6CF"/>
<path d="M876.171 966.91C876.171 966.979 876.143 967.045 876.094 967.094C876.046 967.142 875.98 967.17 875.911 967.17H871.241C870.604 967.17 869.973 967.043 869.385 966.798C868.796 966.552 868.262 966.192 867.811 965.738C867.361 965.283 867.004 964.744 866.76 964.151C866.516 963.558 866.391 962.922 866.391 962.28V918.48C866.391 917.838 866.516 917.202 866.76 916.609C867.004 916.015 867.361 915.476 867.811 915.022C868.262 914.568 868.796 914.208 869.385 913.962C869.973 913.716 870.604 913.59 871.241 913.59H875.911C875.98 913.59 876.046 913.617 876.094 913.666C876.143 913.715 876.171 913.781 876.171 913.85V966.91Z" fill="#00A6CF"/>
<path d="M119.143 1020.02L112.003 1022.85C111.786 1022.94 111.551 1022.99 111.313 1022.99C109.733 1023 107.97 1022.55 106.023 1021.62C105.533 1021.38 105.118 1021.02 104.823 1020.57C99.2135 1011.89 87.6835 1010.55 78.6535 1013.38C74.0935 1014.81 70.0235 1018.44 70.3435 1023.55C71.0035 1034.12 91.1335 1031.51 96.8235 1031.93C108.723 1032.82 118.593 1040.86 120.063 1052.89C120.883 1059.63 117.523 1067.84 112.463 1072.18C108.61 1075.48 104.083 1077.7 98.8835 1078.84C81.2535 1082.72 61.6435 1077.37 55.7035 1058.77C55.6565 1058.63 55.662 1058.47 55.7192 1058.34C55.7763 1058.2 55.881 1058.09 56.0135 1058.03C58.3068 1056.91 60.4968 1056 62.5835 1055.29C66.5735 1053.94 69.7135 1056.16 72.4835 1059.59C77.7035 1066.06 88.6035 1066.61 96.2435 1064.71C99.1035 1064 101.194 1063.02 102.514 1061.77C109.974 1054.72 103.643 1046.27 95.0035 1046.2C89.6135 1046.15 83.8635 1046.55 78.5335 1045.86C66.1835 1044.26 57.6435 1037.73 56.1435 1025.58C54.5835 1013 63.3135 1002.37 75.1335 999.378C83.3202 997.312 90.7502 997.222 97.4235 999.108C107.393 1001.93 116.873 1009 119.593 1019.14C119.64 1019.31 119.62 1019.5 119.537 1019.66C119.454 1019.83 119.314 1019.95 119.143 1020.02Z" fill="#003764"/>
<path d="M346.416 1038.85C346.436 1028.59 345.196 1019.44 351.836 1011.01C358.766 1002.22 368.606 997.799 380.106 997.809C391.606 997.829 401.426 1002.28 408.336 1011.1C414.956 1019.54 413.686 1028.69 413.676 1038.95C413.656 1049.21 414.896 1058.36 408.256 1066.78C401.316 1075.58 391.486 1080 379.986 1079.98C368.486 1079.96 358.666 1075.51 351.756 1066.7C345.136 1058.26 346.406 1049.11 346.416 1038.85ZM399.426 1038.9C399.426 1035.69 399.416 1032.78 399.396 1030.15C399.356 1026.36 399.063 1023.85 398.516 1022.6C395.506 1015.75 387.216 1012.18 380.136 1012.18C373.056 1012.17 364.756 1015.74 361.746 1022.59C361.193 1023.84 360.9 1026.35 360.866 1030.14C360.84 1032.77 360.826 1035.68 360.826 1038.89C360.826 1042.1 360.836 1045.01 360.856 1047.64C360.896 1051.43 361.19 1053.94 361.736 1055.19C364.746 1062.04 373.036 1065.61 380.116 1065.61C387.196 1065.62 395.496 1062.05 398.506 1055.2C399.06 1053.95 399.353 1051.44 399.386 1047.65C399.413 1045.02 399.426 1042.11 399.426 1038.9Z" fill="#003764"/>
<path d="M604.58 1038.89C604.59 1049.14 605.84 1058.29 599.22 1066.72C592.3 1075.53 582.48 1079.97 570.98 1079.97C559.48 1079.97 549.65 1075.54 542.73 1066.74C536.1 1058.31 537.35 1049.16 537.35 1038.91C537.34 1028.65 536.09 1019.5 542.71 1011.07C549.63 1002.26 559.45 997.83 570.95 997.82C582.45 997.82 592.28 1002.25 599.2 1011.05C605.83 1019.48 604.58 1028.63 604.58 1038.89ZM551.64 1038.91C551.64 1042.12 551.653 1045.04 551.68 1047.67C551.72 1051.46 552.013 1053.99 552.56 1055.24C555.59 1062.1 563.89 1065.66 570.98 1065.66C578.07 1065.66 586.37 1062.08 589.39 1055.22C589.937 1053.97 590.23 1051.45 590.27 1047.66C590.29 1045.03 590.3 1042.11 590.3 1038.9C590.3 1035.69 590.287 1032.77 590.26 1030.14C590.22 1026.35 589.927 1023.82 589.38 1022.57C586.35 1015.71 578.05 1012.15 570.96 1012.15C563.87 1012.15 555.57 1015.73 552.55 1022.59C552.003 1023.84 551.71 1026.36 551.67 1030.15C551.65 1032.78 551.64 1035.7 551.64 1038.91Z" fill="#003764"/>
<path d="M885.808 1046.26C883.775 1046.13 880.368 1046.11 875.588 1046.21C870.148 1046.32 865.408 1045.51 865.408 1039.3C865.401 1036.41 865.405 1034.05 865.418 1032.21C865.421 1032.06 865.483 1031.91 865.592 1031.81C865.7 1031.7 865.846 1031.64 865.998 1031.64H900.318C900.387 1031.64 900.453 1031.67 900.502 1031.72C900.551 1031.77 900.578 1031.84 900.578 1031.91C900.598 1041.94 900.595 1048.39 900.568 1051.26C900.408 1065.54 888.838 1076.3 875.458 1079.03C861.505 1081.88 849.805 1078.48 840.358 1068.81C834.478 1062.79 833.178 1055.63 833.388 1046.5C833.395 1046.15 833.405 1039.57 833.418 1026.75C833.428 1015.77 840.418 1006.57 849.698 1001.88C867.728 992.78 892.048 999.29 899.528 1019.45C899.606 1019.65 899.607 1019.88 899.532 1020.08C899.456 1020.29 899.309 1020.46 899.118 1020.56C895.368 1022.59 892.168 1024.85 887.928 1023.6C886.901 1023.3 885.721 1022.32 884.388 1020.65C879.055 1014 872.031 1011.29 863.318 1012.52C854.808 1013.73 847.608 1019.49 847.588 1028.5C847.568 1038.67 847.581 1045.83 847.628 1049.99C847.668 1053.92 849.091 1057.21 851.898 1059.86C859.788 1067.32 872.638 1067.38 880.988 1060.93C885.028 1057.8 886.835 1053.11 886.408 1046.86C886.401 1046.71 886.336 1046.56 886.225 1046.45C886.115 1046.34 885.966 1046.27 885.808 1046.26Z" fill="#003764"/>
<path d="M946.753 997.809C958.263 997.819 968.093 1002.25 975.013 1011.06C981.643 1019.5 980.383 1028.65 980.383 1038.91C980.383 1049.17 981.633 1058.32 975.003 1066.75C968.073 1075.56 958.243 1079.99 946.743 1079.99C935.243 1079.99 925.413 1075.55 918.493 1066.74C911.863 1058.31 913.113 1049.16 913.123 1038.9C913.123 1028.64 911.863 1019.48 918.503 1011.05C925.423 1002.25 935.253 997.809 946.753 997.809ZM966.053 1038.96C966.06 1035.75 966.053 1032.83 966.033 1030.2C966.007 1026.41 965.72 1023.88 965.173 1022.63C962.163 1015.77 953.873 1012.18 946.783 1012.16C939.693 1012.15 931.383 1015.7 928.353 1022.56C927.8 1023.81 927.5 1026.33 927.453 1030.12C927.427 1032.75 927.41 1035.67 927.403 1038.88C927.397 1042.09 927.4 1045 927.413 1047.63C927.447 1051.42 927.737 1053.95 928.283 1055.2C931.283 1062.06 939.583 1065.65 946.673 1065.67C953.753 1065.68 962.063 1062.13 965.103 1055.27C965.657 1054.02 965.953 1051.5 965.993 1047.71C966.027 1045.08 966.047 1042.17 966.053 1038.96Z" fill="#003764"/>
<path d="M199.839 1077.89C199.86 1077.95 199.867 1078.01 199.859 1078.07C199.851 1078.13 199.828 1078.19 199.793 1078.24C199.757 1078.29 199.71 1078.33 199.656 1078.36C199.601 1078.38 199.541 1078.4 199.479 1078.4C195.693 1078.34 192.693 1078.33 190.479 1078.37C186.713 1078.41 184.206 1076.73 182.959 1073.31C180.266 1065.91 178.399 1060.67 177.359 1057.57C177.304 1057.4 177.197 1057.25 177.054 1057.15C176.91 1057.04 176.737 1056.99 176.559 1056.99H148.139C147.99 1056.99 147.845 1057.04 147.723 1057.12C147.601 1057.21 147.509 1057.34 147.459 1057.48L140.249 1077.82C140.197 1077.97 140.101 1078.09 139.974 1078.18C139.847 1078.27 139.695 1078.33 139.539 1078.33C135.289 1078.38 130.759 1079.05 128.469 1077.07C126.836 1075.64 126.483 1073.59 127.409 1070.93C128.329 1068.26 135.939 1046.78 150.239 1006.49C152.459 1000.25 159.449 998.648 165.449 999.638C169.123 1000.25 171.963 1002.08 173.969 1005.12C174.016 1005.18 174.05 1005.25 174.069 1005.32L199.839 1077.89ZM152.899 1042.23C152.882 1042.28 152.876 1042.33 152.883 1042.38C152.889 1042.43 152.908 1042.48 152.937 1042.52C152.967 1042.56 153.006 1042.6 153.052 1042.62C153.097 1042.65 153.148 1042.66 153.199 1042.66L171.629 1042.63C171.681 1042.63 171.732 1042.62 171.777 1042.59C171.823 1042.57 171.862 1042.53 171.891 1042.49C171.921 1042.45 171.94 1042.4 171.946 1042.35C171.953 1042.3 171.947 1042.25 171.929 1042.2L162.669 1016.3C162.647 1016.24 162.606 1016.18 162.552 1016.15C162.498 1016.11 162.435 1016.09 162.369 1016.09C162.304 1016.09 162.24 1016.11 162.187 1016.15C162.133 1016.18 162.092 1016.24 162.069 1016.3L152.899 1042.23Z" fill="#003764"/>
<path d="M223.321 1026.76C223.294 1026.72 223.256 1026.69 223.211 1026.68C223.166 1026.66 223.118 1026.66 223.073 1026.68C223.029 1026.69 222.99 1026.72 222.962 1026.76C222.935 1026.8 222.921 1026.84 222.921 1026.89V1078.08C222.921 1078.12 222.913 1078.17 222.896 1078.2C222.879 1078.24 222.855 1078.28 222.824 1078.31C222.793 1078.34 222.757 1078.36 222.717 1078.38C222.677 1078.39 222.634 1078.4 222.591 1078.4C217.571 1078.35 208.491 1079.8 208.471 1071.77C208.405 1032.76 208.418 1010.79 208.511 1005.85C208.641 998.92 216.051 999.35 221.781 999.71C221.938 999.722 222.09 999.769 222.227 999.847C222.363 999.924 222.481 1000.03 222.571 1000.16L257.621 1051.21C257.65 1051.25 257.691 1051.29 257.739 1051.3C257.788 1051.32 257.84 1051.32 257.889 1051.31C257.939 1051.29 257.982 1051.26 258.013 1051.22C258.044 1051.18 258.061 1051.13 258.061 1051.08C258.061 1023.14 258.058 1009.04 258.051 1008.78C257.711 998.48 264.001 999.54 271.731 999.58C271.894 999.582 272.049 999.649 272.163 999.765C272.277 999.881 272.341 1000.04 272.341 1000.2V1078.07C272.342 1078.13 272.32 1078.19 272.281 1078.23C272.242 1078.27 272.188 1078.3 272.131 1078.3C265.571 1078.71 258.981 1078.92 254.951 1073.04C247.665 1062.41 237.121 1046.98 223.321 1026.76Z" fill="#003764"/>
<path d="M302.718 1014H284.698C284.539 1014 284.386 1013.94 284.27 1013.83C284.155 1013.72 284.086 1013.57 284.078 1013.41C283.708 1005.65 282.998 999.509 292.638 999.619C296.138 999.652 310.675 999.652 336.248 999.619C336.412 999.618 336.57 999.679 336.692 999.79C336.814 999.901 336.891 1000.05 336.908 1000.22C337.088 1002.16 337.112 1004.51 336.978 1007.28C336.792 1011.09 334.882 1013.31 331.248 1013.96C331.155 1013.98 331.058 1013.99 330.958 1013.99H318.208C318.127 1013.99 318.046 1014 317.971 1014.04C317.896 1014.07 317.827 1014.11 317.77 1014.17C317.712 1014.23 317.667 1014.3 317.635 1014.37C317.604 1014.45 317.588 1014.53 317.588 1014.61V1077.75C317.589 1077.89 317.535 1078.03 317.438 1078.13C317.341 1078.24 317.209 1078.3 317.068 1078.31C312.895 1078.52 309.778 1078.37 307.718 1077.87C303.958 1076.94 303.388 1073.86 303.388 1070.05C303.415 1047.35 303.418 1028.89 303.398 1014.68C303.398 1014.5 303.327 1014.33 303.199 1014.2C303.072 1014.07 302.899 1014 302.718 1014Z" fill="#003764"/>
<path d="M738.157 1078.09C738.157 1078.13 738.149 1078.17 738.133 1078.21C738.117 1078.25 738.093 1078.29 738.063 1078.32C738.034 1078.35 737.998 1078.37 737.96 1078.39C737.921 1078.4 737.879 1078.41 737.837 1078.41H730.637C729.715 1078.41 728.802 1078.22 727.951 1077.85C727.099 1077.48 726.325 1076.94 725.673 1076.25C725.021 1075.57 724.504 1074.75 724.152 1073.86C723.799 1072.97 723.617 1072.01 723.617 1071.04V1006.94C723.617 1004.99 724.357 1003.11 725.673 1001.73C726.99 1000.35 728.775 999.57 730.637 999.57H737.837C737.922 999.57 738.003 999.604 738.063 999.664C738.123 999.724 738.157 999.805 738.157 999.89V1078.09Z" fill="#003764"/>
<path d="M769.659 1026.76C769.632 1026.72 769.594 1026.69 769.549 1026.68C769.504 1026.66 769.456 1026.66 769.411 1026.68C769.366 1026.69 769.328 1026.72 769.3 1026.76C769.273 1026.8 769.259 1026.84 769.259 1026.89L769.229 1078.02C769.229 1078.06 769.221 1078.1 769.204 1078.14C769.187 1078.18 769.163 1078.22 769.132 1078.25C769.101 1078.28 769.065 1078.3 769.025 1078.32C768.985 1078.33 768.942 1078.34 768.899 1078.34C763.889 1078.28 754.819 1079.73 754.799 1071.71C754.759 1032.75 754.786 1010.8 754.879 1005.87C755.019 998.949 762.419 999.389 768.139 999.749C768.296 999.761 768.448 999.808 768.584 999.886C768.721 999.963 768.839 1000.07 768.929 1000.2L803.899 1051.2C803.928 1051.24 803.969 1051.27 804.017 1051.29C804.065 1051.31 804.118 1051.31 804.167 1051.3C804.217 1051.28 804.26 1051.25 804.291 1051.21C804.322 1051.17 804.339 1051.12 804.339 1051.07C804.359 1023.17 804.366 1009.09 804.359 1008.83C804.019 998.539 810.299 999.599 818.019 999.649C818.182 999.651 818.337 999.718 818.451 999.834C818.565 999.95 818.629 1000.11 818.629 1000.27L818.589 1078.03C818.589 1078.09 818.568 1078.15 818.529 1078.19C818.489 1078.23 818.436 1078.26 818.379 1078.26C811.829 1078.67 805.239 1078.88 801.219 1073C793.953 1062.38 783.433 1046.97 769.659 1026.76Z" fill="#003764"/>
<path d="M462.118 1006.2C462.121 1005.33 462.295 1004.47 462.631 1003.67C462.967 1002.86 463.457 1002.14 464.075 1001.52C464.693 1000.91 465.425 1000.42 466.23 1000.1C467.036 999.765 467.898 999.598 468.768 999.602L492.418 999.692C501.108 999.723 509.431 1002.97 515.555 1008.71C521.68 1014.46 525.106 1022.23 525.078 1030.32L525.018 1047.88C525.005 1051.89 524.144 1055.86 522.484 1059.55C520.825 1063.25 518.399 1066.61 515.346 1069.43C512.292 1072.26 508.671 1074.49 504.689 1076.01C500.707 1077.53 496.443 1078.31 492.138 1078.29L468.488 1078.2C466.734 1078.19 465.055 1077.49 463.82 1076.25C462.584 1075 461.893 1073.32 461.898 1071.56L462.118 1006.2ZM476.268 1014.38L476.448 1063.6C476.448 1063.67 476.474 1063.73 476.519 1063.77C476.564 1063.82 476.625 1063.84 476.688 1063.84L492.278 1063.78C497.128 1063.76 501.772 1062.08 505.191 1059.09C508.609 1056.1 510.522 1052.06 510.508 1047.85L510.448 1029.89C510.442 1027.81 509.962 1025.74 509.036 1023.82C508.11 1021.9 506.756 1020.15 505.052 1018.68C503.348 1017.22 501.327 1016.05 499.104 1015.26C496.882 1014.47 494.501 1014.07 492.098 1014.08L476.508 1014.14C476.445 1014.14 476.384 1014.17 476.339 1014.21C476.294 1014.26 476.268 1014.32 476.268 1014.38Z" fill="#003764"/>
<path d="M692.64 1023.74C692.638 1023.68 692.615 1023.63 692.577 1023.58C692.538 1023.54 692.485 1023.51 692.426 1023.5C692.368 1023.48 692.308 1023.49 692.256 1023.52C692.203 1023.55 692.163 1023.6 692.14 1023.65C688.24 1034.58 682.833 1049.83 675.92 1069.41C674.887 1072.34 673.863 1074.27 672.85 1075.2C667.06 1080.51 654.05 1079.87 651.11 1071.88C650.083 1069.09 644.39 1053.09 634.03 1023.87C634.012 1023.82 633.976 1023.78 633.928 1023.75C633.88 1023.72 633.825 1023.71 633.771 1023.72C633.717 1023.72 633.669 1023.75 633.636 1023.79C633.603 1023.83 633.587 1023.89 633.59 1023.94V1077.75C633.59 1077.89 633.538 1078.02 633.445 1078.12C633.352 1078.22 633.225 1078.28 633.09 1078.28C628.49 1078.51 620.81 1078.97 619.8 1074.42C619.273 1072.06 619.01 1070.5 619.01 1069.75C619.003 1040.42 619 1020.24 619 1009.19C619 1005 619.79 1000.29 624.83 999.821C627.17 999.601 632.29 999.555 640.19 999.681C640.358 999.684 640.521 999.739 640.656 999.837C640.792 999.935 640.895 1000.07 640.95 1000.23L662.75 1061.62C662.771 1061.69 662.813 1061.74 662.868 1061.78C662.923 1061.82 662.99 1061.84 663.058 1061.84C663.127 1061.84 663.195 1061.82 663.253 1061.78C663.31 1061.74 663.355 1061.69 663.38 1061.62C665.193 1056.51 671.907 1037.64 683.52 1005.02C685.07 1000.67 687.75 999.511 692.28 999.611C694.713 999.665 699.483 999.668 706.59 999.621C706.699 999.621 706.803 999.665 706.88 999.741C706.957 999.818 707 999.923 707 1000.03V1078.01C707 1078.1 706.966 1078.18 706.904 1078.25C706.842 1078.31 706.758 1078.35 706.67 1078.35C700.81 1078.52 692.64 1079.74 692.64 1071.05C692.653 1049.7 692.653 1033.93 692.64 1023.74Z" fill="#003764"/>
<mask id="mask0_2926_3733" style="mask-type:luminance" maskUnits="userSpaceOnUse" x="411" y="3" width="340" height="189">
<path d="M422.006 109.282C406.483 148.439 411.937 191.791 411.937 191.791C466.616 130.399 542.692 95.2976 626.319 107.744C678.901 115.575 699.877 135.153 731.762 145.782C745.187 150.396 753.578 140.188 750.082 127.462C745.607 111.38 736.517 96.5562 725.888 82.4319C691.207 36.2831 628.277 3 567.025 3C509.129 3 452.492 32.6471 422.145 109.142" fill="white"/>
</mask>
<g mask="url(#mask0_2926_3733)">
<path d="M753.432 3.14453H406.477V191.795H753.432V3.14453Z" fill="url(#paint0_linear_2926_3733)"/>
</g>
<mask id="mask1_2926_3733" style="mask-type:luminance" maskUnits="userSpaceOnUse" x="410" y="3" width="231" height="189">
<path d="M421.996 109.287C406.753 147.604 411.648 189.977 411.928 191.795C413.606 187.32 433.743 135.997 474.578 96.421C545.619 27.4775 624.492 19.2267 640.434 18.2478C616.94 8.59848 591.768 3.14453 566.876 3.14453C508.98 3.14453 452.343 32.7916 421.996 109.287Z" fill="white"/>
</mask>
<g mask="url(#mask1_2926_3733)">
<path d="M640.299 3.14453H406.758V191.795H640.299V3.14453Z" fill="url(#paint1_linear_2926_3733)"/>
</g>
<path fill-rule="evenodd" clip-rule="evenodd" d="M411.789 198.923C461.014 144.383 538.349 118.092 609.949 138.929C606.733 138.09 581.84 149.697 576.946 151.935C486.746 192.909 481.851 284.927 468.986 296.394C446.191 316.392 426.053 260.594 420.739 245.351C416.124 231.926 412.069 213.187 411.789 198.923Z" fill="#E76026"/>
<path fill-rule="evenodd" clip-rule="evenodd" d="M411.788 198.923C461.014 144.383 538.348 118.092 609.948 138.929C606.732 138.09 581.84 149.697 576.945 151.935C572.05 154.032 567.436 156.41 563.1 158.927C508.701 152.634 453.602 171.233 412.208 207.173C411.928 204.377 411.788 201.58 411.648 198.923" fill="#D54327"/>
<mask id="mask2_2926_3733" style="mask-type:luminance" maskUnits="userSpaceOnUse" x="308" y="417" width="340" height="190">
<path d="M432.62 501.832C380.038 494.001 359.061 474.422 327.177 463.794C313.752 459.319 305.361 469.528 308.857 482.114C313.332 498.056 322.422 513.02 333.05 527.144C400.595 616.784 574.282 657.899 636.793 500.433C652.316 461.277 646.862 417.785 646.862 417.785C592.183 479.177 516.107 514.278 432.48 501.832" fill="white"/>
</mask>
<g mask="url(#mask2_2926_3733)">
<path d="M652.462 417.785H305.367V657.899H652.462V417.785Z" fill="url(#paint2_linear_2926_3733)"/>
</g>
<mask id="mask3_2926_3733" style="mask-type:luminance" maskUnits="userSpaceOnUse" x="418" y="417" width="230" height="190">
<path d="M584.356 513.292C513.315 582.096 434.442 590.347 418.5 591.465C496.394 623.49 593.446 609.785 636.938 500.426C652.181 462.109 647.286 419.736 647.146 417.918C645.468 422.393 625.331 473.716 584.496 513.292" fill="white"/>
</mask>
<g mask="url(#mask3_2926_3733)">
<path d="M652.041 417.918H418.5V623.49H652.041V417.918Z" fill="url(#paint3_linear_2926_3733)"/>
</g>
<path fill-rule="evenodd" clip-rule="evenodd" d="M647.012 410.785C597.786 465.325 520.452 491.615 448.852 470.778C452.068 471.757 476.96 460.01 481.855 457.773C572.055 416.798 576.949 324.78 589.815 313.313C612.61 293.176 632.747 349.113 638.062 364.357C642.676 377.782 646.732 396.521 647.012 410.645" fill="#C42229"/>
<path fill-rule="evenodd" clip-rule="evenodd" d="M647.012 410.79C597.786 465.329 520.452 491.62 448.852 470.783C452.068 471.762 476.96 460.015 481.855 457.778C486.61 455.54 491.225 453.303 495.7 450.786C550.099 457.079 605.198 438.339 646.592 402.539C646.872 405.476 647.012 408.273 647.152 410.79" fill="#A81F24"/>
<mask id="mask4_2926_3733" style="mask-type:luminance" maskUnits="userSpaceOnUse" x="642" y="186" width="189" height="341">
<path d="M642.391 187.312C703.783 241.991 738.884 318.067 726.437 401.694C718.606 454.275 699.028 475.252 688.26 507.137C683.645 520.562 693.854 528.953 706.579 525.456C722.522 521.121 737.485 511.892 751.609 501.263C841.25 433.718 882.364 260.031 724.899 197.52C701.825 188.43 677.352 186.473 661.13 186.473C644.908 186.473 642.391 187.452 642.391 187.452" fill="white"/>
</mask>
<g mask="url(#mask4_2926_3733)">
<path d="M882.504 186.336H642.391V528.816H882.504V186.336Z" fill="url(#paint4_linear_2926_3733)"/>
</g>
<mask id="mask5_2926_3733" style="mask-type:luminance" maskUnits="userSpaceOnUse" x="642" y="186" width="189" height="230">
<path d="M642.389 187.319C646.864 188.997 698.187 209.135 737.763 249.969C806.567 321.01 814.818 400.023 815.797 415.825C847.821 337.932 834.256 240.879 724.758 197.388C701.683 188.298 677.21 186.34 660.849 186.34C650.081 186.34 642.948 187.179 642.109 187.179" fill="white"/>
</mask>
<g mask="url(#mask5_2926_3733)">
<path d="M847.963 186.34H642.391V415.825H847.963V186.34Z" fill="url(#paint5_linear_2926_3733)"/>
</g>
<path fill-rule="evenodd" clip-rule="evenodd" d="M635.255 187.316C689.935 236.542 716.086 313.876 695.249 385.476C696.088 382.26 684.481 357.368 682.243 352.473C641.129 262.273 549.251 257.379 537.783 244.513C517.786 221.718 573.584 201.581 588.827 196.266C602.252 191.652 620.991 187.596 635.115 187.316" fill="#009A49"/>
<path fill-rule="evenodd" clip-rule="evenodd" d="M635.259 187.316C689.938 236.542 716.089 313.876 695.252 385.476C696.091 382.26 684.484 357.368 682.247 352.473C680.009 347.718 677.771 343.104 675.254 338.768C681.687 284.369 662.948 229.27 627.008 187.876C629.805 187.596 632.602 187.456 635.259 187.456" fill="#058844"/>
<path fill-rule="evenodd" clip-rule="evenodd" d="M423.545 422.394C368.866 373.169 342.715 295.835 363.552 224.234C362.573 227.451 374.32 252.203 376.558 257.098C417.672 347.298 509.69 352.192 521.017 365.058C541.015 387.853 485.217 407.99 469.974 413.305C456.549 417.919 437.81 421.975 423.685 422.255" fill="#0280AD"/>
<path fill-rule="evenodd" clip-rule="evenodd" d="M423.545 422.394C368.866 373.169 342.715 295.835 363.552 224.234C362.573 227.451 374.32 252.203 376.558 257.098C378.795 261.992 381.033 266.468 383.55 270.943C377.257 325.342 395.996 380.441 431.796 421.835C428.999 422.115 426.202 422.255 423.545 422.394Z" fill="#046A9C"/>
<mask id="mask6_2926_3733" style="mask-type:luminance" maskUnits="userSpaceOnUse" x="227" y="82" width="189" height="341">
<path d="M351.519 83.6899C335.577 88.1649 320.614 97.2548 306.489 107.883C216.849 175.428 175.734 349.115 333.2 411.626C372.356 427.149 415.848 421.695 415.848 421.695C354.456 367.015 319.355 290.94 331.801 207.313C339.633 154.731 359.211 133.754 369.979 101.87C373.755 90.5423 367.042 82.7109 357.253 82.7109C355.435 82.7109 353.617 82.9906 351.659 83.55" fill="white"/>
</mask>
<g mask="url(#mask6_2926_3733)">
<path d="M415.84 82.8555H175.727V427.153H415.84V82.8555Z" fill="url(#paint6_linear_2926_3733)"/>
</g>
<mask id="mask7_2926_3733" style="mask-type:luminance" maskUnits="userSpaceOnUse" x="227" y="193" width="189" height="230">
<path d="M333.197 411.629C371.514 426.872 413.887 421.978 415.705 421.698C411.23 420.02 359.907 399.882 320.331 359.047C251.387 288.006 243.137 209.134 242.158 193.191C210.133 271.085 223.698 368.137 333.057 411.629" fill="white"/>
</mask>
<g mask="url(#mask7_2926_3733)">
<path d="M415.705 193.328H210.273V426.869H415.705V193.328Z" fill="url(#paint7_linear_2926_3733)"/>
</g>
<defs>
<linearGradient id="paint0_linear_2926_3733" x1="330.709" y1="104.476" x2="675.566" y2="104.476" gradientUnits="userSpaceOnUse">
<stop stop-color="#EA7625"/>
<stop offset="1" stop-color="#F9C219"/>
</linearGradient>
<linearGradient id="paint1_linear_2926_3733" x1="405.499" y1="91.5265" x2="615.057" y2="91.5265" gradientUnits="userSpaceOnUse">
<stop stop-color="#DF5C26"/>
<stop offset="1" stop-color="#F1B31C"/>
</linearGradient>
<linearGradient id="paint2_linear_2926_3733" x1="176.738" y1="571.363" x2="521.595" y2="571.363" gradientUnits="userSpaceOnUse">
<stop stop-color="#E43B27"/>
<stop offset="1" stop-color="#DA2228"/>
</linearGradient>
<linearGradient id="paint3_linear_2926_3733" x1="323.545" y1="556.434" x2="533.103" y2="556.434" gradientUnits="userSpaceOnUse">
<stop stop-color="#DA3527"/>
<stop offset="1" stop-color="#C02429"/>
</linearGradient>
<linearGradient id="paint4_linear_2926_3733" x1="765.398" y1="134.006" x2="765.398" y2="478.863" gradientUnits="userSpaceOnUse">
<stop stop-color="#95BC3E"/>
<stop offset="1" stop-color="#D0D228"/>
</linearGradient>
<linearGradient id="paint5_linear_2926_3733" x1="752.029" y1="435.613" x2="752.029" y2="202.772" gradientUnits="userSpaceOnUse">
<stop stop-color="#C5CC2E"/>
<stop offset="1" stop-color="#68A243"/>
</linearGradient>
<linearGradient id="paint6_linear_2926_3733" x1="337.947" y1="562.439" x2="337.947" y2="217.582" gradientUnits="userSpaceOnUse">
<stop stop-color="#00ACD3"/>
<stop offset="1" stop-color="#62C0E1"/>
</linearGradient>
<linearGradient id="paint7_linear_2926_3733" x1="299.634" y1="132.915" x2="299.634" y2="365.757" gradientUnits="userSpaceOnUse">
<stop stop-color="#49BADD"/>
<stop offset="1" stop-color="#0199C3"/>
</linearGradient>
</defs>
</svg>
