<svg width="4745" height="1061" viewBox="0 0 4745 1061" fill="none" xmlns="http://www.w3.org/2000/svg">
<g clip-path="url(#clip0_1778_2015)">
<path d="M244.912 444.972C194.404 459.506 166.93 509.796 184.28 559.516C199.655 603.526 247.511 627.588 292.119 614.299C292.55 614.167 293.013 614.158 293.456 614.273C293.899 614.387 294.307 614.621 294.636 614.948L442.102 763.028C442.419 763.346 442.654 763.737 442.786 764.166C442.918 764.595 442.943 765.05 442.86 765.491C437.771 792.034 442.679 815.69 457.585 836.459C479.51 867.044 518.514 880.55 554.596 869.128C577.82 861.766 595.252 846.844 606.891 824.36C609.76 818.785 611.439 812.966 613.252 807.038C613.379 806.637 613.628 806.287 613.964 806.039C614.3 805.79 614.705 805.657 615.12 805.658L703.821 805.685C704.23 805.684 704.627 805.819 704.951 806.069C705.274 806.319 705.505 806.669 705.608 807.065C723.933 876.734 810.144 895.761 856.592 842.251C885.853 808.581 884.553 759.564 854.995 726.001C833.233 701.263 798.586 690.572 766.727 699.828C735.464 708.896 714.648 731.334 705.581 762.676C705.464 763.074 705.221 763.424 704.89 763.672C704.558 763.921 704.155 764.056 703.74 764.057H614.524C614.283 764.058 614.046 763.976 613.851 763.825C613.656 763.674 613.512 763.46 613.442 763.218C608.028 743.098 597.841 727.219 582.882 715.581C546.665 687.486 495.859 690.545 464.92 724.919C464.762 725.089 464.572 725.226 464.36 725.322C464.148 725.417 463.919 725.469 463.686 725.474C463.454 725.479 463.223 725.437 463.007 725.351C462.791 725.265 462.595 725.136 462.43 724.973L329.662 593.322C328.651 592.33 328.615 591.301 329.554 590.237C340.345 577.84 347.4 564.758 350.721 550.991C360.465 510.689 342.167 471.659 306.14 452.036C300.239 448.815 293.932 446.975 287.544 445.026C286.606 444.755 286.137 444.124 286.137 443.131L286.164 363.259C286.164 361.761 286.895 360.823 288.356 360.444C306.618 355.752 321.821 345.882 333.966 330.833C379.765 274.048 339.65 189.655 267.758 188.031C202.713 186.543 158.539 256.509 188.449 315.27C200.124 338.222 218.801 353.379 244.479 360.741C245.724 361.084 246.347 361.896 246.347 363.177V443.077C246.347 444.07 245.869 444.701 244.912 444.972Z" stroke="#F58E92" stroke-width="2"/>
<path d="M616.097 275.755C616.097 264.253 613.832 252.863 609.43 242.237C605.028 231.61 598.576 221.955 590.442 213.822C582.309 205.688 572.653 199.237 562.026 194.835C551.399 190.433 540.008 188.168 528.506 188.168C505.275 188.168 482.996 197.396 466.569 213.822C450.142 230.247 440.914 252.525 440.914 275.755C440.914 287.257 443.18 298.646 447.582 309.273C451.983 319.899 458.435 329.555 466.569 337.688C482.996 354.113 505.275 363.341 528.506 363.341C540.008 363.341 551.399 361.076 562.026 356.674C572.653 352.272 582.309 345.821 590.442 337.688C598.576 329.555 605.028 319.899 609.43 309.273C613.832 298.646 616.097 287.257 616.097 275.755Z" stroke="#F58E92" stroke-width="2"/>
<path d="M598.338 476.883C598.15 476.629 598.058 476.317 598.077 476.004C598.097 475.691 598.228 475.398 598.446 475.178L730.727 342.309C731.557 341.479 732.432 341.425 733.353 342.147C762.55 365.19 793.371 369.782 825.817 355.924C845.955 347.317 862.9 329.453 871.264 308.964C899.929 238.808 831.501 166.974 759.961 193.499C714.811 210.253 691.776 260.705 708.153 305.743C708.281 306.101 708.306 306.487 708.225 306.856C708.143 307.225 707.959 307.562 707.692 307.827L566.912 449.167C566.118 449.979 565.18 450.205 564.097 449.844C556.41 447.191 549.372 444.133 541.09 443.105C511.694 439.55 486.8 448.058 466.409 468.628C449.32 485.842 440.875 506.918 441.074 531.855C441.453 579.952 483.597 620.308 532.103 617.791C603.021 614.11 640.131 534.697 598.338 476.883Z" stroke="#F58E92" stroke-width="2"/>
<path d="M877.949 530.094C877.949 506.865 868.721 484.587 852.294 468.161C835.867 451.736 813.588 442.508 790.357 442.508C767.126 442.508 744.847 451.736 728.421 468.161C711.994 484.587 702.766 506.865 702.766 530.094C702.766 553.324 711.994 575.602 728.421 592.028C744.847 608.453 767.126 617.681 790.357 617.681C813.588 617.681 835.867 608.453 852.294 592.028C868.721 575.602 877.949 553.324 877.949 530.094Z" stroke="#F58E92" stroke-width="2"/>
<path d="M354.238 784.438C354.238 761.209 345.01 738.931 328.583 722.505C312.156 706.079 289.877 696.852 266.646 696.852C243.416 696.852 221.136 706.079 204.71 722.505C188.283 738.931 179.055 761.209 179.055 784.438C179.055 807.668 188.283 829.946 204.71 846.371C221.136 862.797 243.416 872.025 266.646 872.025C289.877 872.025 312.156 862.797 328.583 846.371C345.01 829.946 354.238 807.668 354.238 784.438Z" stroke="#F58E92" stroke-width="2"/>
<path d="M498.157 0H559.195C593.987 3.55471 617.933 6.81169 631.034 9.77094C650.793 14.2459 668.893 18.8743 685.332 23.656C692.947 25.8935 706.499 30.7564 725.988 38.2447C732.827 40.8611 739.386 43.7121 745.666 46.7977C761.88 54.7281 777.985 61.9548 793.17 71.3198C806.704 79.6833 820.292 87.343 832.933 96.8974C847.929 108.211 863.195 119.011 877.081 131.867C888.097 142.071 899.303 151.571 909.291 162.696C921.824 176.662 934.6 189.762 945.833 205.136C954.657 217.18 964.05 228.792 971.656 241.242C977.196 250.318 982.934 259.801 988.871 269.689C996.558 282.518 1002.7 296.539 1009.17 309.801C1013.77 319.184 1017.89 328.955 1021.51 339.114C1026.74 353.811 1032.45 367.858 1036.35 382.989C1038.73 392.227 1041.08 401.367 1043.41 410.407C1045.6 418.851 1047.46 428.162 1049.02 438.339C1051.22 452.883 1053.14 466.217 1054.78 478.343C1055.92 486.698 1056.8 501.431 1057.43 522.542C1057.7 531.51 1057.58 541.29 1057.05 551.882C1056.53 562.077 1055.81 571.848 1054.89 581.195C1053.63 593.7 1051.84 606.665 1049.53 620.09C1046.93 635.066 1044.3 647.869 1041.63 658.497C1030.75 701.658 1014.97 742.682 994.312 781.567C985 799.079 970.925 822.14 957.553 840.139C952.753 846.617 947.818 853.203 942.747 859.897C933.707 871.915 923.475 882.687 913.352 893.893C900.169 908.535 886.148 920.688 871.829 933.815C859.73 944.885 846.034 954.223 832.906 964.184C821.131 973.116 808.22 980.369 795.633 988.192C779.528 998.233 762.854 1005.78 746.099 1014.01C730.292 1021.78 713.428 1027.44 697.079 1033.39C677.482 1040.51 656.396 1045.3 636.122 1050.28C622.083 1053.73 596.351 1057.3 558.925 1061H497.941C466.307 1057.75 444.238 1054.85 431.733 1052.28C410.746 1047.99 391.158 1043.15 372.968 1037.75C366.869 1035.95 353.904 1031.35 334.072 1023.97C319.59 1018.59 306.463 1011.77 292.496 1005.16C282.065 1000.24 272.213 994.895 262.937 989.139C249.755 980.965 236.492 973.413 223.933 964.021C217.581 959.294 211.355 954.638 205.256 950.055C195.999 943.108 187.427 936.008 179.541 928.754C173.947 923.575 168.245 918.342 162.434 913.055C151.255 902.878 141.43 891.375 131.009 879.953C118.287 866.014 107.622 851.047 96.4429 836.052C87.4293 823.953 79.7691 810.501 71.8111 797.482C61.8501 781.134 54.2982 764.245 45.9613 747.166C38.4635 731.738 33.104 715.146 27.2574 698.961C20.5716 680.474 16.1866 660.121 11.2061 640.822C7.50683 626.441 3.77146 599.979 0 561.437V499.211C2.99551 467.724 6.83915 441.181 11.5309 419.582C30.0634 334.179 66.9298 258.141 122.13 191.467C164.861 139.879 215.505 97.9079 274.062 65.5546C323.47 38.2718 375.134 19.5419 429.053 9.36495C448.434 5.70197 471.468 2.58032 498.157 0ZM244.91 444.97C194.402 459.505 166.928 509.794 184.278 559.515C199.653 603.525 247.509 627.587 292.117 614.297C292.548 614.166 293.011 614.157 293.454 614.271C293.897 614.386 294.305 614.619 294.634 614.947L442.1 763.027C442.417 763.345 442.652 763.735 442.784 764.164C442.916 764.594 442.941 765.049 442.858 765.49C437.769 792.033 442.677 815.689 457.583 836.458C479.508 867.043 518.512 880.549 554.594 869.127C577.818 861.765 595.25 846.842 606.889 824.359C609.758 818.783 611.436 812.964 613.25 807.037C613.377 806.636 613.626 806.286 613.962 806.037C614.298 805.789 614.703 805.656 615.118 805.656L703.819 805.683C704.228 805.682 704.625 805.818 704.949 806.067C705.272 806.317 705.503 806.668 705.606 807.064C723.931 876.732 810.142 895.76 856.59 842.25C885.851 808.579 884.551 759.562 854.993 726C833.231 701.261 798.584 690.57 766.725 699.827C735.461 708.894 714.646 731.332 705.579 762.675C705.462 763.073 705.219 763.422 704.888 763.671C704.556 763.92 704.153 764.055 703.738 764.055H614.522C614.281 764.056 614.044 763.975 613.849 763.824C613.654 763.672 613.51 763.459 613.439 763.216C608.026 743.097 597.839 727.218 582.88 715.58C546.663 687.485 495.857 690.543 464.918 724.917C464.76 725.088 464.569 725.225 464.358 725.32C464.146 725.416 463.917 725.467 463.684 725.473C463.452 725.478 463.221 725.436 463.005 725.35C462.789 725.264 462.593 725.135 462.428 724.972L329.66 593.321C328.649 592.329 328.613 591.3 329.551 590.235C340.343 577.839 347.398 564.757 350.719 550.989C360.463 510.687 342.165 471.658 306.138 452.035C300.237 448.814 293.93 446.973 287.542 445.025C286.604 444.754 286.135 444.122 286.135 443.13L286.162 363.257C286.162 361.76 286.892 360.821 288.354 360.442C306.616 355.751 321.819 345.881 333.964 330.832C379.762 274.047 339.648 189.654 267.755 188.03C202.711 186.541 158.537 256.508 188.447 315.269C200.122 338.221 218.799 353.378 244.477 360.74C245.722 361.083 246.345 361.895 246.345 363.176V443.076C246.345 444.068 245.867 444.7 244.91 444.97ZM616.092 275.752C616.092 264.25 613.826 252.86 609.425 242.234C605.023 231.607 598.571 221.952 590.437 213.819C582.303 205.685 572.647 199.234 562.02 194.832C551.393 190.431 540.003 188.165 528.5 188.165C505.27 188.165 482.99 197.393 466.564 213.819C450.137 230.244 440.909 252.522 440.909 275.752C440.909 287.254 443.174 298.643 447.576 309.27C451.978 319.896 458.43 329.552 466.564 337.685C482.99 354.111 505.27 363.338 528.5 363.338C540.003 363.338 551.393 361.073 562.02 356.671C572.647 352.27 582.303 345.818 590.437 337.685C598.571 329.552 605.023 319.896 609.425 309.27C613.826 298.643 616.092 287.254 616.092 275.752ZM598.336 476.882C598.147 476.627 598.055 476.315 598.075 476.002C598.095 475.69 598.226 475.397 598.444 475.176L730.725 342.308C731.555 341.478 732.43 341.424 733.35 342.145C762.547 365.188 793.369 369.78 825.814 355.922C845.953 347.315 862.897 329.451 871.261 308.962C899.926 238.806 831.498 166.972 759.958 193.497C714.809 210.251 691.774 260.703 708.15 305.741C708.279 306.099 708.304 306.485 708.222 306.854C708.141 307.223 707.956 307.56 707.69 307.825L566.91 449.166C566.116 449.978 565.177 450.203 564.095 449.842C556.407 447.19 549.37 444.131 541.087 443.103C511.691 439.548 486.798 448.056 466.407 468.626C449.318 485.841 440.873 506.916 441.071 531.853C441.45 579.95 483.595 620.306 532.1 617.789C603.018 614.108 640.128 534.695 598.336 476.882ZM877.947 530.094C877.947 506.865 868.718 484.587 852.292 468.161C835.865 451.735 813.586 442.507 790.355 442.507C767.124 442.507 744.845 451.735 728.418 468.161C711.992 484.587 702.763 506.865 702.763 530.094C702.763 553.323 711.992 575.601 728.418 592.027C744.845 608.453 767.124 617.681 790.355 617.681C813.586 617.681 835.865 608.453 852.292 592.027C868.718 575.601 877.947 553.323 877.947 530.094ZM354.237 784.436C354.237 761.207 345.009 738.929 328.582 722.503C312.156 706.077 289.876 696.85 266.646 696.85C243.415 696.85 221.136 706.077 204.709 722.503C188.282 738.929 179.054 761.207 179.054 784.436C179.054 807.666 188.282 829.944 204.709 846.369C221.136 862.795 243.415 872.023 266.646 872.023C289.876 872.023 312.156 862.795 328.582 846.369C345.009 829.944 354.237 807.666 354.237 784.436Z" fill="#EB1C24"/>
<path d="M246.347 443.077V363.177C246.347 361.896 245.724 361.084 244.479 360.741C218.801 353.379 200.124 338.222 188.449 315.27C158.539 256.509 202.713 186.543 267.758 188.031C339.65 189.655 379.765 274.048 333.966 330.833C321.821 345.882 306.618 355.752 288.356 360.444C286.895 360.823 286.164 361.761 286.164 363.259L286.137 443.131C286.137 444.124 286.606 444.755 287.544 445.026C293.932 446.975 300.239 448.815 306.14 452.036C342.167 471.659 360.465 510.689 350.721 550.991C347.4 564.758 340.345 577.84 329.554 590.237C328.615 591.301 328.651 592.33 329.662 593.322L462.43 724.973C462.595 725.136 462.791 725.265 463.007 725.351C463.223 725.437 463.454 725.479 463.686 725.474C463.919 725.469 464.148 725.417 464.36 725.322C464.572 725.226 464.762 725.089 464.92 724.919C495.859 690.545 546.665 687.486 582.882 715.581C597.841 727.219 608.028 743.098 613.442 763.218C613.512 763.46 613.656 763.674 613.851 763.825C614.046 763.976 614.283 764.058 614.524 764.057H703.74C704.155 764.056 704.558 763.921 704.89 763.672C705.221 763.424 705.464 763.074 705.581 762.676C714.648 731.334 735.464 708.896 766.727 699.828C798.586 690.572 833.233 701.263 854.995 726.001C884.553 759.564 885.853 808.581 856.592 842.251C810.144 895.761 723.933 876.734 705.608 807.065C705.505 806.669 705.274 806.319 704.951 806.069C704.627 805.819 704.23 805.684 703.821 805.685L615.12 805.658C614.705 805.657 614.3 805.79 613.964 806.039C613.628 806.287 613.379 806.637 613.252 807.038C611.439 812.966 609.76 818.785 606.891 824.36C595.252 846.844 577.82 861.766 554.596 869.128C518.514 880.55 479.51 867.044 457.585 836.459C442.679 815.69 437.771 792.034 442.86 765.491C442.943 765.05 442.918 764.595 442.786 764.166C442.654 763.737 442.419 763.346 442.102 763.028L294.636 614.948C294.307 614.621 293.899 614.387 293.456 614.273C293.013 614.158 292.55 614.167 292.119 614.299C247.511 627.588 199.655 603.526 184.28 559.516C166.93 509.796 194.404 459.506 244.912 444.972C245.869 444.701 246.347 444.07 246.347 443.077Z" fill="white"/>
<path d="M528.498 363.337C576.873 363.337 616.09 324.123 616.09 275.751C616.09 227.378 576.873 188.164 528.498 188.164C480.122 188.164 440.906 227.378 440.906 275.751C440.906 324.123 480.122 363.337 528.498 363.337Z" fill="white"/>
<path d="M598.338 476.883C640.131 534.697 603.021 614.11 532.103 617.791C483.597 620.308 441.453 579.952 441.074 531.855C440.875 506.918 449.32 485.842 466.409 468.628C486.8 448.058 511.694 439.55 541.09 443.105C549.372 444.133 556.41 447.191 564.097 449.844C565.18 450.205 566.118 449.979 566.912 449.167L707.692 307.827C707.959 307.562 708.143 307.225 708.225 306.856C708.306 306.487 708.281 306.101 708.153 305.743C691.776 260.705 714.811 210.253 759.961 193.499C831.501 166.974 899.929 238.808 871.264 308.964C862.9 329.453 845.955 347.317 825.817 355.924C793.371 369.782 762.55 365.19 733.353 342.147C732.432 341.425 731.557 341.479 730.727 342.309L598.446 475.178C598.228 475.398 598.097 475.691 598.077 476.004C598.058 476.317 598.15 476.629 598.338 476.883Z" fill="white"/>
<path d="M1615.93 411.786C1593.27 385.666 1562.47 373.514 1528.2 373.135C1414.6 371.917 1364.01 486.759 1391.27 583.575C1393.03 589.837 1395.33 595.827 1398.17 601.548C1402.01 609.343 1405.18 617.354 1409.86 624.716C1435.63 665.18 1477.26 689.053 1525.6 687.808C1565.01 686.779 1598.69 669.105 1620.94 636.68C1621.05 636.513 1621.19 636.372 1621.36 636.263C1621.53 636.155 1621.72 636.082 1621.92 636.05C1622.12 636.017 1622.33 636.024 1622.52 636.072C1622.72 636.12 1622.91 636.207 1623.07 636.328L1710.48 701.774C1710.93 702.117 1710.99 702.514 1710.67 702.965C1700.76 716.895 1689.25 729.256 1676.13 740.046C1636.5 772.661 1581.61 787.899 1531.12 787.25C1416.57 785.788 1317.37 726.377 1284.02 613.132C1271.05 569.122 1268.86 523.299 1277.44 475.662C1288.29 415.304 1316.73 366.485 1362.76 329.206C1408.78 291.936 1469.25 274.803 1529.31 273.747C1593.6 272.638 1658.34 294.453 1698.89 344.796C1698.97 344.897 1699.03 345.011 1699.07 345.133C1699.1 345.256 1699.12 345.383 1699.1 345.509C1699.09 345.635 1699.05 345.756 1698.99 345.866C1698.93 345.976 1698.85 346.072 1698.76 346.15L1618.42 412.002C1617.52 412.742 1616.69 412.67 1615.93 411.786Z" fill="#595959"/>
<path d="M4441.79 621.58C4486.53 700.316 4600.86 713.741 4654.59 636.71C4655.19 635.862 4655.9 635.753 4656.73 636.385L4743.86 701.615C4744.49 702.084 4744.58 702.643 4744.11 703.293C4734.16 716.916 4723.24 728.744 4711.33 738.777C4673.6 770.499 4620.7 786.576 4572.36 787.199C4444.84 788.85 4336.6 717.855 4311.59 588.396C4304.14 549.854 4304.06 511.636 4311.37 473.743C4324.87 403.822 4360.54 350.51 4418.37 313.809C4444.9 296.991 4475.76 285.335 4510.94 278.839C4589.41 264.385 4681.09 279.38 4732.6 345.07C4732.89 345.431 4732.86 345.765 4732.5 346.072L4652.05 412.005C4651.15 412.745 4650.32 412.673 4649.56 411.789C4633.23 392.987 4612.95 381.104 4588.71 376.142C4520.31 362.149 4456.92 396.686 4430.85 461.131C4415.35 499.42 4413.26 539.866 4424.57 582.469C4428.01 595.461 4435.18 609.968 4441.79 621.58Z" fill="#595959"/>
<path d="M2025.41 287.581L1908.37 385.29C1908.21 385.425 1908.01 385.501 1907.8 385.507L1819.02 385.534C1818.85 385.533 1818.69 385.487 1818.54 385.401C1818.4 385.314 1818.29 385.191 1818.21 385.044C1818.13 384.896 1818.09 384.731 1818.1 384.565C1818.11 384.398 1818.17 384.238 1818.26 384.1L1886.5 286.498C1886.58 286.374 1886.69 286.272 1886.83 286.201C1886.96 286.131 1887.1 286.093 1887.25 286.092L2024.81 285.957C2025 285.957 2025.19 286.014 2025.34 286.122C2025.5 286.23 2025.62 286.383 2025.68 286.56C2025.75 286.738 2025.75 286.931 2025.71 287.113C2025.66 287.296 2025.55 287.459 2025.41 287.581Z" fill="#595959"/>
<path d="M3973.57 382.202V774.095C3973.57 774.325 3973.48 774.545 3973.31 774.708C3973.15 774.87 3972.93 774.961 3972.7 774.961L3867.03 774.934C3866.8 774.934 3866.58 774.843 3866.42 774.681C3866.25 774.518 3866.16 774.298 3866.16 774.068V382.202C3866.16 381.972 3866.07 381.752 3865.91 381.589C3865.75 381.427 3865.53 381.336 3865.3 381.336H3728.12C3727.89 381.336 3727.67 381.244 3727.5 381.082C3727.34 380.92 3727.25 380.699 3727.25 380.47V286.901C3727.25 286.672 3727.34 286.451 3727.5 286.289C3727.67 286.126 3727.89 286.035 3728.12 286.035H4111.7C4111.92 286.035 4112.15 286.126 4112.31 286.289C4112.47 286.451 4112.56 286.672 4112.56 286.901V380.47C4112.56 380.699 4112.47 380.92 4112.31 381.082C4112.15 381.244 4111.92 381.336 4111.7 381.336H3974.43C3974.2 381.336 3973.98 381.427 3973.82 381.589C3973.66 381.752 3973.57 381.972 3973.57 382.202Z" fill="#595959"/>
<path d="M4252.69 286.062H4147.24C4146.68 286.062 4146.23 286.511 4146.23 287.064V773.933C4146.23 774.486 4146.68 774.934 4147.24 774.934H4252.69C4253.25 774.934 4253.69 774.486 4253.69 773.933V287.064C4253.69 286.511 4253.25 286.062 4252.69 286.062Z" fill="#595959"/>
<path d="M1947.45 734.796C1947.45 731.909 1946.66 731.666 1945.07 734.066C1936.47 747.003 1926.39 756.919 1914.84 763.811C1881.3 783.759 1839.78 787.576 1801.48 778.238C1783 773.727 1766.89 765.462 1753.16 753.445C1732.73 735.563 1722.08 711.781 1721.19 682.098C1720.17 648.049 1732.02 621.009 1756.76 600.98C1769.5 590.677 1784.59 582.828 1802.02 577.433C1832.01 568.14 1866.01 563.088 1904.01 562.276C1918.88 561.951 1932.76 561.725 1945.64 561.599C1946.69 561.581 1947.2 561.058 1947.18 560.029C1946.82 541.913 1939.87 527.504 1926.31 516.804C1899.19 495.341 1859.7 498.21 1830.9 514.693C1819.01 521.496 1808.37 530.04 1798.99 540.325C1798.1 541.317 1797.19 541.335 1796.25 540.379L1743.5 486.138C1742.76 485.38 1742.79 484.64 1743.58 483.919C1793.06 439.097 1862.38 424.67 1927.86 433.548C1987.14 441.596 2022.83 473.408 2034.94 528.984C2039.7 550.872 2042.13 575.791 2042.22 603.741C2042.38 662.385 2042.4 718.954 2042.27 773.447C2042.27 774.44 2041.78 774.936 2040.78 774.936H1948.94C1947.95 774.936 1947.45 774.448 1947.45 773.474V734.796ZM1841.19 706.079C1846.14 708.001 1850.5 710.301 1855.86 711.195C1889.48 716.689 1935.17 702.858 1944.83 666.697C1947.36 657.206 1948.19 644.792 1947.35 629.454C1947.29 628.498 1946.79 628.011 1945.83 627.993C1928.18 627.542 1909.74 627.975 1890.5 629.292C1869.96 630.699 1848.71 635.869 1832.52 648.725C1824.3 655.257 1820.22 664.307 1820.29 675.873C1820.36 690.615 1827.33 700.684 1841.19 706.079Z" fill="#595959"/>
<path d="M2188.79 483.621C2218.67 434.117 2280.58 420.313 2334.04 439.367C2355.08 446.874 2371.2 459.947 2382.41 478.587C2384.57 482.186 2386.36 485.813 2388.31 489.467C2388.98 490.73 2389.65 490.739 2390.34 489.494C2405.77 461.535 2428.4 441.614 2460.47 434.82C2505.89 425.212 2558.89 432.384 2586.88 471.82C2607.69 501.187 2613.35 540.866 2613.4 577.243C2613.53 641.769 2613.56 707.171 2613.49 773.447C2613.49 774.458 2612.98 774.963 2611.97 774.963L2511.93 774.882C2511.52 774.882 2511.13 774.716 2510.84 774.422C2510.55 774.127 2510.38 773.728 2510.38 773.312C2510.37 709.922 2510.36 647.471 2510.36 585.959C2510.38 577.162 2509.36 567.716 2507.73 558.919C2501.97 527.522 2479.96 518.997 2451 523.517C2413.7 529.363 2402.44 563.25 2402.36 596.488C2402.25 653.489 2402.23 712.467 2402.3 773.42C2402.3 774.431 2401.79 774.936 2400.76 774.936L2300.26 774.882C2299.95 774.882 2299.65 774.759 2299.43 774.541C2299.21 774.323 2299.09 774.026 2299.09 773.718C2299.16 706.665 2299.06 643.078 2298.79 582.954C2298.71 564.008 2294.06 542.057 2278.6 529.552C2273.95 525.781 2267.62 523.562 2259.63 522.894C2234.94 520.864 2212.53 528.037 2200.81 551.124C2195.86 560.868 2193.12 572.344 2192.61 583.36C2192.17 592.806 2191.01 602.55 2191.04 611.807C2191.22 668.033 2191.22 722.12 2191.04 774.07C2191.04 774.173 2191.02 774.275 2190.98 774.37C2190.94 774.465 2190.89 774.552 2190.81 774.625C2190.74 774.698 2190.66 774.755 2190.57 774.795C2190.48 774.834 2190.38 774.855 2190.28 774.855L2089.48 774.963C2088.32 774.963 2087.75 774.394 2087.75 773.258L2087.72 440.504C2087.72 440.174 2087.85 439.857 2088.08 439.624C2088.32 439.39 2088.63 439.259 2088.96 439.259H2185.73C2186.06 439.259 2186.38 439.39 2186.61 439.624C2186.85 439.857 2186.98 440.174 2186.98 440.504L2186.95 483.107C2186.95 485.47 2187.56 485.642 2188.79 483.621Z" fill="#595959"/>
<path d="M2876.66 733.416C2876.59 733.282 2876.49 733.168 2876.36 733.087C2876.24 733.007 2876.09 732.961 2875.93 732.956C2875.78 732.95 2875.63 732.985 2875.49 733.056C2875.35 733.127 2875.23 733.233 2875.15 733.362C2864.27 750.522 2849.03 763.379 2830.11 771.228C2786.01 789.579 2725.71 788.172 2686.54 756.531C2663.69 738.09 2651.81 713.423 2650.89 682.532C2649.61 639.622 2668.22 608.036 2706.73 587.772C2719.78 580.916 2735.62 575.43 2754.26 571.316C2794.24 562.492 2834.95 561.356 2875.72 561.762C2876.49 561.762 2876.87 561.374 2876.85 560.598C2876.65 543.239 2870.5 529.309 2858.39 518.807C2832.84 496.613 2794.43 497.371 2765.63 512.014C2751.81 519.033 2739.51 528.479 2728.74 540.352C2727.82 541.345 2726.89 541.354 2725.95 540.379L2672.95 485.895C2672.37 485.299 2672.39 484.731 2673 484.19C2722.27 439.151 2792.67 424.319 2859.1 433.846C2917.35 442.183 2952.5 473.76 2964.55 528.578C2969.26 549.943 2971.68 573.707 2971.81 599.871C2972.13 657.143 2972.19 715.029 2972 773.529C2972 774.467 2971.53 774.936 2970.59 774.936H2878.72C2877.69 774.936 2877.17 774.422 2877.15 773.393C2877.13 760.726 2877.16 748.203 2877.23 735.825C2877.25 734.959 2877.06 734.156 2876.66 733.416ZM2773.62 707.162C2776.43 708.136 2778.98 709.706 2781.93 710.383C2816.41 718.205 2865.59 703.589 2875.04 664.938C2876.99 656.945 2877.75 645.198 2877.31 629.698C2877.28 628.579 2876.7 628.002 2875.58 627.966C2856.25 627.569 2837.5 628.02 2819.31 629.319C2799.3 630.727 2777.59 636.14 2761.9 649.023C2752.64 656.638 2748.77 667.23 2750.28 680.799C2751.73 693.484 2759.5 702.272 2773.62 707.162Z" fill="#595959"/>
<path d="M3120.79 491.199C3120.79 494.248 3121.53 494.438 3122.99 491.767C3137.12 466.027 3156.85 443.724 3185.24 435.632C3204.73 430.074 3226.69 429.578 3251.13 434.143C3251.62 434.231 3252.06 434.494 3252.38 434.884C3252.71 435.275 3252.88 435.769 3252.89 436.281L3252.86 528.361C3252.86 528.482 3252.83 528.603 3252.78 528.711C3252.73 528.82 3252.65 528.915 3252.55 528.986C3252.45 529.058 3252.34 529.105 3252.22 529.123C3252.1 529.142 3251.97 529.131 3251.86 529.092C3231.27 522.542 3208.86 520.909 3184.62 524.193C3150.95 528.767 3129.84 551.881 3124.56 584.605C3121.9 600.935 3120.61 617.86 3120.66 635.381C3120.75 683.92 3120.79 729.861 3120.77 773.203C3120.75 774.358 3120.16 774.935 3119.01 774.935H3019.21C3018.05 774.935 3017.48 774.358 3017.48 773.203V441.207C3017.48 439.908 3018.12 439.258 3019.4 439.258H3119.22C3120.27 439.258 3120.79 439.782 3120.79 440.828V491.199Z" fill="#595959"/>
<path d="M3488.27 734.771C3488.27 732.047 3487.5 731.812 3485.97 734.068C3474.57 750.876 3460.22 763.299 3441.55 771.121C3407.19 785.503 3371.39 787.054 3334.14 775.777C3297.87 764.815 3267.88 735.069 3263.22 696.175C3258.54 657.064 3267.83 623.826 3300.04 599.034C3312.25 589.615 3326.75 582.343 3343.53 577.218C3374.09 567.889 3407.52 562.918 3443.85 562.305C3459.4 562.052 3473.61 561.799 3486.45 561.547C3487.5 561.529 3488.01 560.996 3488 559.95C3487.62 543.241 3481.65 529.708 3470.1 519.35C3444.09 496.046 3403.98 497.345 3374.53 513.098C3361.77 519.937 3350.18 529.022 3339.75 540.354C3338.86 541.328 3337.97 541.346 3337.07 540.408L3283.9 485.761C3283.81 485.662 3283.74 485.545 3283.69 485.418C3283.64 485.29 3283.62 485.155 3283.63 485.019C3283.63 484.883 3283.66 484.749 3283.72 484.626C3283.78 484.502 3283.86 484.391 3283.96 484.299C3334.22 438.476 3404.76 424.239 3472.35 434.118C3503.78 438.72 3532.06 451.739 3552.39 476.64C3563.99 490.877 3571.84 508.858 3575.94 530.583C3581.05 557.577 3583.56 584.842 3583.49 612.377C3583.33 665.175 3583.19 718.883 3583.09 773.503C3583.09 774.46 3582.61 774.938 3581.65 774.938H3489.76C3488.76 774.938 3488.27 774.442 3488.27 773.449V734.771ZM3432.75 629.131C3411.58 630.404 3389.06 635.736 3372.66 649.296C3356.2 662.883 3356.64 692.467 3376.4 703.293C3383.11 706.974 3390.85 710.303 3398.43 711.413C3431.59 716.312 3475.25 702.562 3485.53 667.078C3488.08 658.327 3488.93 645.723 3488.1 629.267C3488.07 628.437 3487.63 628.013 3486.78 627.995C3469.02 627.652 3451.01 628.031 3432.75 629.131Z" fill="#595959"/>
<path d="M790.357 617.681C838.733 617.681 877.949 578.467 877.949 530.094C877.949 481.722 838.733 442.508 790.357 442.508C741.982 442.508 702.766 481.722 702.766 530.094C702.766 578.467 741.982 617.681 790.357 617.681Z" fill="white"/>
<path d="M266.646 872.025C315.022 872.025 354.238 832.811 354.238 784.438C354.238 736.065 315.022 696.852 266.646 696.852C218.271 696.852 179.055 736.065 179.055 784.438C179.055 832.811 218.271 872.025 266.646 872.025Z" fill="white"/>
</g>
<defs>
<clipPath id="clip0_1778_2015">
<rect width="4745" height="1061" fill="white"/>
</clipPath>
</defs>
</svg>
