<svg width="1189" height="432" viewBox="0 0 1189 432" fill="none" xmlns="http://www.w3.org/2000/svg">
<path d="M508.141 215.102C494.441 215.102 487.641 208.502 487.641 195.302V25.4016C487.641 12.2016 494.441 5.60156 508.141 5.60156H525.941V91.2016H609.441V25.5016C609.441 12.3016 616.341 5.70157 630.141 5.70157H647.741V215.302H630.141C616.341 215.302 609.441 208.702 609.441 195.502V129.502H525.941V215.402H508.141V215.102Z" fill="white"/>
<path d="M710.336 5.60156H728.136V143.802C728.136 149.002 729.336 153.902 731.736 158.402C734.136 162.902 737.336 166.902 741.536 170.402C745.636 173.802 750.436 176.502 755.836 178.502C761.236 180.502 767.036 181.402 773.236 181.402C779.436 181.402 784.936 180.402 790.336 178.402C795.736 176.402 800.536 173.702 804.636 170.302C808.736 166.902 812.036 162.902 814.436 158.302C816.836 153.802 818.136 148.902 818.136 143.802V25.4016C818.136 12.2016 824.936 5.60156 838.636 5.60156H856.236V143.802C856.236 164.802 847.836 182.902 831.036 198.102C814.936 212.402 795.636 219.502 773.236 219.502C750.836 219.502 731.336 212.402 715.236 198.102C698.336 183.002 689.836 164.902 689.836 143.802V25.4016C689.836 12.2016 696.636 5.60156 710.336 5.60156Z" fill="white"/>
<path d="M919.137 215.102C905.337 215.102 898.438 208.502 898.438 195.302V25.4016C898.438 12.2016 905.337 5.60156 919.137 5.60156H1003.84C1012.34 5.60156 1020.14 7.20157 1027.34 10.4016C1034.44 13.6016 1040.64 18.0016 1045.94 23.5016C1051.14 29.0016 1055.24 35.5016 1058.24 43.0016C1061.14 50.5016 1062.64 58.6016 1062.64 67.3016C1062.64 84.5016 1057.54 98.9016 1047.24 110.302C1057.54 121.702 1062.64 136.002 1062.64 153.202C1062.64 170.402 1061.14 170.202 1058.14 177.702C1055.14 185.202 1051.04 191.802 1045.84 197.302C1040.64 202.802 1034.44 207.202 1027.24 210.402C1020.04 213.602 1012.24 215.202 1003.84 215.202H919.137V215.102ZM936.737 43.7016V91.1016H1003.84C1007.14 91.1016 1010.14 90.4016 1012.64 89.1016C1015.14 87.8016 1017.34 86.0016 1019.04 83.9016C1020.74 81.7016 1022.04 79.2016 1022.94 76.3016C1023.84 73.4016 1024.24 70.4016 1024.24 67.3016C1024.24 64.2016 1023.84 61.3016 1022.94 58.4016C1022.04 55.5016 1020.74 53.0016 1019.04 50.8016C1017.34 48.7016 1015.14 46.9016 1012.54 45.6016C1009.94 44.3016 1007.04 43.6016 1003.84 43.6016H936.737V43.7016ZM936.737 176.802H1003.84C1007.14 176.802 1010.14 176.202 1012.64 174.902C1015.14 173.602 1017.34 171.902 1019.04 169.802C1020.74 167.702 1022.04 165.102 1022.94 162.202C1023.84 159.302 1024.24 156.302 1024.24 153.202C1024.24 150.102 1023.84 147.202 1022.94 144.202C1022.04 141.302 1020.74 138.702 1018.94 136.502C1017.14 134.302 1015.04 132.502 1012.44 131.202C1009.94 129.902 1007.04 129.202 1003.74 129.202H936.637V176.702L936.737 176.802Z" fill="white"/>
<path d="M508.542 313.898C509.642 315.998 511.142 317.898 513.142 319.498C515.042 321.098 517.342 322.398 519.842 323.298C522.342 324.198 525.042 324.698 527.842 324.698C530.642 324.698 533.542 324.098 536.242 322.998C539.042 321.898 542.042 319.798 545.242 316.898C546.942 315.298 548.742 314.198 550.642 313.698C552.542 313.198 554.642 313.398 556.942 314.598L564.442 318.398C562.842 322.098 560.642 325.498 558.042 328.498C555.442 331.498 552.542 333.998 549.342 336.098C546.142 338.198 542.742 339.698 539.042 340.798C535.342 341.898 531.642 342.398 527.842 342.398C517.342 342.398 508.342 339.098 500.942 332.498C493.142 325.498 489.242 317.098 489.242 307.298V276.098C489.242 266.298 493.142 257.998 500.942 250.998C508.242 244.298 517.242 240.898 527.842 240.898C538.442 240.898 535.242 241.398 538.942 242.498C542.642 243.598 546.042 245.198 549.242 247.198C552.442 249.298 555.342 251.798 557.942 254.798C560.542 257.798 562.742 261.098 564.342 264.898L556.842 268.598H556.542C554.542 269.698 552.542 269.998 550.442 269.698C548.342 269.398 546.542 268.198 544.842 266.298C542.842 263.698 540.342 261.698 537.342 260.498C534.342 259.298 531.142 258.698 527.742 258.698C524.342 258.698 522.142 259.198 519.642 260.098C517.142 260.998 514.842 262.298 512.942 263.898C511.042 265.498 509.542 267.298 508.442 269.498C507.342 271.598 506.842 273.798 506.842 276.198V307.398C506.842 309.698 507.442 311.898 508.542 313.998" fill="#2DC4D4"/>
<path d="M596.537 313.899C595.837 315.999 595.037 318.199 594.237 320.399C593.437 322.699 592.637 324.899 591.837 327.199C591.037 329.499 590.238 331.699 589.438 333.899C588.637 336.099 587.837 338.299 587.137 340.299H577.237C575.837 340.299 574.737 340.099 573.837 339.599C572.937 339.099 572.237 338.399 571.737 337.599C571.237 336.799 571.038 335.799 570.938 334.799C570.938 333.799 571.037 332.699 571.438 331.499L599.938 251.099C600.438 249.699 601.237 248.499 602.237 247.499C603.237 246.399 604.437 245.499 605.737 244.799C607.037 244.099 608.437 243.599 610.037 243.199C611.537 242.899 613.137 242.699 614.737 242.699C616.337 242.699 617.837 242.899 619.438 243.199C620.938 243.599 622.437 244.099 623.737 244.799C625.037 245.499 626.237 246.399 627.237 247.399C628.237 248.499 629.037 249.699 629.537 250.999L661.237 340.199H649.137C646.937 340.199 645.137 339.599 643.537 338.499C642.037 337.399 640.837 335.799 640.137 333.599L633.037 313.699H596.537V313.899ZM614.837 262.499L602.837 296.299H626.837L614.837 262.499Z" fill="#2DC4D4"/>
<path d="M750.938 249.699C751.637 247.599 752.737 245.999 754.237 244.899C755.737 243.799 757.637 243.199 759.837 243.199H779.737V340.399H771.537C765.137 340.399 761.938 337.299 761.938 331.199V271.099L740.137 332.499C739.637 333.899 738.837 335.099 737.837 336.099C736.837 337.099 735.637 337.999 734.337 338.699C733.037 339.399 731.537 339.899 730.037 340.299C728.537 340.599 726.937 340.799 725.537 340.799C724.137 340.799 722.438 340.599 720.938 340.299C719.438 339.999 717.937 339.399 716.637 338.699C715.337 337.999 714.137 337.099 713.137 335.999C712.137 334.899 711.337 333.699 710.837 332.399L689.137 271.299V340.399H680.938C674.537 340.399 671.438 337.299 671.438 331.199V252.399C671.438 246.299 674.637 243.199 680.938 243.199H697.938L725.537 321.099L750.938 249.799V249.699Z" fill="#2DC4D4"/>
<path d="M816.037 313.899C815.337 315.999 814.537 318.199 813.737 320.399C812.937 322.699 812.137 324.899 811.337 327.199C810.537 329.499 809.738 331.699 808.938 333.899C808.137 336.099 807.337 338.299 806.637 340.299H796.737C795.337 340.299 794.237 340.099 793.337 339.599C792.437 339.099 791.737 338.399 791.237 337.599C790.737 336.799 790.538 335.799 790.438 334.799C790.438 333.799 790.537 332.699 790.938 331.499L819.438 251.099C819.938 249.699 820.737 248.499 821.737 247.499C822.737 246.399 823.937 245.499 825.237 244.799C826.537 244.099 827.937 243.599 829.537 243.199C831.037 242.899 832.637 242.699 834.237 242.699C835.837 242.699 837.337 242.899 838.938 243.199C840.438 243.599 841.937 244.099 843.237 244.799C844.537 245.499 845.737 246.399 846.737 247.399C847.737 248.499 848.537 249.699 849.037 250.999L880.637 340.199H868.537C866.337 340.199 864.537 339.599 863.037 338.499C861.537 337.399 860.337 335.799 859.637 333.599L852.537 313.699H816.037V313.899ZM834.237 262.499L822.237 296.299H846.237L834.137 262.499H834.237Z" fill="#2DC4D4"/>
<path d="M900.336 340.302C894.036 340.302 890.836 337.202 890.836 331.102V252.302C890.836 246.202 894.036 243.102 900.336 243.102H938.536C946.436 243.102 953.236 246.302 958.936 252.802C964.236 258.902 966.836 266.202 966.836 274.502C966.836 282.802 966.436 280.702 965.636 283.602C964.836 286.502 963.736 289.202 962.236 291.702C960.736 294.202 958.936 296.502 956.836 298.502C954.736 300.502 952.336 302.202 949.736 303.502C950.636 304.502 951.536 305.702 952.336 307.002C953.136 308.302 953.936 309.802 954.536 311.402L967.136 340.302H955.336C953.036 340.302 951.036 339.802 949.236 338.802C947.536 337.802 946.236 336.502 945.536 334.702L934.536 309.602C933.536 307.302 931.336 306.102 928.236 306.102H908.536V340.302H900.336ZM908.536 288.402H938.536C939.936 288.402 941.336 288.002 942.636 287.302C943.936 286.602 945.036 285.602 946.036 284.302C947.036 283.102 947.736 281.602 948.336 279.902C948.936 278.202 949.236 276.402 949.236 274.502C949.236 272.602 948.936 270.902 948.336 269.202C947.736 267.502 947.036 266.102 946.036 264.802C945.036 263.602 943.936 262.602 942.636 261.802C941.336 261.102 940.036 260.702 938.536 260.702H908.536V288.302V288.402Z" fill="#2DC4D4"/>
<path d="M1000.94 313.899C1000.24 315.999 999.436 318.199 998.636 320.399C997.836 322.699 997.036 324.899 996.236 327.199C995.436 329.499 994.636 331.699 993.836 333.899C993.036 336.099 992.236 338.299 991.536 340.299H981.636C980.236 340.299 979.136 340.099 978.236 339.599C977.336 339.099 976.636 338.399 976.136 337.599C975.636 336.799 975.436 335.799 975.336 334.799C975.336 333.799 975.436 332.699 975.836 331.499L1004.34 251.099C1004.84 249.699 1005.64 248.499 1006.64 247.499C1007.64 246.399 1008.84 245.499 1010.14 244.799C1011.44 244.099 1012.84 243.599 1014.34 243.199C1015.84 242.899 1017.44 242.699 1019.04 242.699C1020.64 242.699 1022.14 242.899 1023.74 243.199C1025.24 243.599 1026.74 244.099 1028.04 244.799C1029.34 245.499 1030.54 246.399 1031.54 247.399C1032.54 248.499 1033.34 249.699 1033.84 250.999L1065.54 340.199H1053.44C1051.24 340.199 1049.44 339.599 1047.84 338.499C1046.34 337.399 1045.14 335.799 1044.44 333.599L1037.34 313.699H1000.84L1000.94 313.899ZM1019.14 262.499L1007.14 296.299H1031.14L1019.14 262.499Z" fill="#2DC4D4"/>
<path d="M508.536 406.2C509.236 406.2 509.936 406.2 510.736 406.2C511.536 406.2 512.336 406 513.136 405.8C513.936 405.6 514.736 405.4 515.436 405.1C516.136 404.8 516.836 404.4 517.436 403.9C518.036 403.4 518.536 402.8 518.836 402.2C519.136 401.5 519.336 400.7 519.336 399.8C519.336 397.9 518.436 396.5 516.536 395.4C515.836 395 515.036 394.8 514.236 394.6C513.436 394.4 512.636 394.4 511.836 394.3C511.036 394.3 510.236 394.3 509.336 394.3C508.536 394.3 507.636 394.3 506.736 394.3C505.036 394.3 503.436 394.3 502.036 394C500.536 393.8 499.236 393.6 498.236 393.2C496.736 392.7 495.336 392 494.136 391.2C492.936 390.4 491.936 389.4 491.036 388.3C490.236 387.2 489.536 385.9 489.136 384.6C488.636 383.2 488.436 381.8 488.436 380.3C488.436 378.8 488.636 377.8 488.936 376.6C489.236 375.4 489.736 374.3 490.436 373.2C493.636 367.7 499.636 365 508.436 365C517.236 365 510.836 365.1 512.136 365.3C513.436 365.5 514.736 365.9 516.036 366.3C517.336 366.8 518.636 367.4 519.836 368.1C521.036 368.8 522.236 369.7 523.336 370.6C524.436 371.6 525.336 372.7 526.136 373.9C526.936 375.1 527.636 376.5 528.136 378.1L524.636 379.7C524.036 379.9 523.536 380.1 522.936 380.1C522.336 380.1 521.736 380.1 521.136 380C520.536 379.9 520.036 379.6 519.536 379.3C519.036 379 518.636 378.5 518.236 378C517.636 377.2 517.036 376.5 516.236 375.9C515.436 375.3 514.636 374.9 513.736 374.5C512.836 374.2 511.836 373.9 510.936 373.7C509.936 373.5 509.036 373.5 508.136 373.5C506.736 373.5 505.336 373.6 504.036 373.9C502.736 374.2 501.636 374.6 500.636 375.1C499.636 375.7 498.836 376.4 498.336 377.2C497.736 378 497.436 379 497.436 380.2C497.436 382 498.336 383.4 500.136 384.2C501.936 385 504.536 385.5 507.936 385.5C511.336 385.5 510.036 385.5 511.036 385.5C512.036 385.5 513.136 385.5 514.236 385.6C516.336 385.8 518.236 386.4 519.936 387.1C521.636 387.9 523.136 388.9 524.436 390.1C525.736 391.3 526.636 392.7 527.336 394.3C528.036 395.9 528.336 397.6 528.336 399.5C528.336 401.4 528.036 402.9 527.336 404.6C526.636 406.3 525.736 407.7 524.636 409C520.936 412.8 515.536 414.7 508.536 414.7C501.536 414.7 503.836 414.4 501.636 413.8C499.436 413.2 497.536 412.4 495.736 411.3C494.036 410.2 492.436 408.8 491.236 407.2C489.936 405.6 489.036 403.7 488.336 401.5L491.836 400C492.336 399.8 492.936 399.6 493.536 399.6C494.136 399.6 494.736 399.6 495.336 399.6C495.936 399.7 496.436 400 496.936 400.3C497.436 400.6 497.836 401 498.236 401.6C498.636 402.2 499.136 402.8 499.836 403.3C500.536 403.8 501.236 404.3 502.136 404.7C503.036 405.1 504.036 405.4 505.136 405.6C506.236 405.8 507.436 406 508.836 406" fill="white"/>
<path d="M545.141 400.899C544.741 401.899 544.341 402.999 543.941 404.099C543.541 405.199 543.141 406.299 542.741 407.399C542.341 408.499 541.941 409.599 541.541 410.699C541.141 411.799 540.741 412.799 540.341 413.799H535.341C534.641 413.799 534.041 413.699 533.641 413.399C533.141 413.199 532.841 412.799 532.541 412.399C532.341 411.999 532.141 411.499 532.141 410.999C532.141 410.499 532.141 409.899 532.441 409.399L546.741 369.899C547.041 369.199 547.341 368.599 547.941 368.099C548.441 367.599 549.041 367.099 549.741 366.799C550.341 366.499 551.141 366.199 551.841 365.999C552.641 365.799 553.441 365.699 554.241 365.699C555.041 365.699 555.841 365.699 556.541 365.999C557.341 366.199 558.041 366.399 558.741 366.799C559.441 367.099 560.041 367.599 560.541 368.099C561.041 368.599 561.441 369.199 561.741 369.899L577.641 413.799H571.541C570.441 413.799 569.541 413.499 568.741 412.999C567.941 412.499 567.441 411.699 567.041 410.599L563.441 400.799H545.141V400.899ZM554.341 375.599L548.341 392.199H560.441L554.341 375.599Z" fill="white"/>
<path d="M587.542 413.899C584.342 413.899 582.742 412.399 582.742 409.399V370.699C582.742 367.699 584.342 366.199 587.542 366.199H591.242L613.542 397.999V370.699C613.542 367.699 615.142 366.199 618.342 366.199H622.342V413.999H618.342C615.342 413.999 613.142 412.899 611.642 410.799L591.642 382.199V413.999H587.542V413.899Z" fill="white"/>
<path d="M629.539 370.602C629.539 367.602 631.139 366.102 634.339 366.102H662.439V370.302C662.439 373.302 660.839 374.802 657.639 374.802H650.439V413.902H646.339C643.139 413.902 641.539 412.402 641.539 409.402V374.802H629.539V370.602Z" fill="white"/>
<path d="M709.842 397.2C709.842 402.3 707.742 406.6 703.442 410C699.342 413.3 694.542 414.9 689.042 414.9C683.542 414.9 678.642 413.3 674.642 410C670.342 406.5 668.242 402.2 668.242 397.2V382.7C668.242 377.7 670.342 373.5 674.642 370C678.642 366.7 683.442 365 689.042 365C694.642 365 694.442 365.4 696.842 366.2C699.242 367 701.442 368.2 703.542 369.9C707.842 373.4 709.942 377.7 709.942 382.6V397.1L709.842 397.2ZM677.042 397.2C677.042 398.5 677.342 399.6 678.042 400.7C678.642 401.8 679.542 402.7 680.642 403.6C681.742 404.4 683.042 405.1 684.442 405.5C685.942 406 687.442 406.2 689.042 406.2C690.642 406.2 692.142 406 693.642 405.5C695.142 405 696.342 404.4 697.442 403.6C698.542 402.8 699.442 401.8 700.042 400.7C700.642 399.6 701.042 398.4 701.042 397.2V382.7C701.042 381.5 700.742 380.3 700.042 379.2C699.342 378.1 698.542 377.2 697.442 376.3C696.342 375.5 695.042 374.8 693.642 374.4C692.242 373.9 690.642 373.7 689.042 373.7C687.442 373.7 685.842 373.9 684.442 374.4C683.042 374.9 681.742 375.5 680.642 376.3C679.542 377.1 678.642 378.1 678.042 379.2C677.442 380.3 677.042 381.4 677.042 382.7V397.2Z" fill="white"/>
<path d="M744.339 413.899C741.139 413.899 739.539 412.399 739.539 409.399V370.699C739.539 367.699 741.139 366.199 744.339 366.199H757.639C763.239 366.199 768.039 367.799 772.039 371.099C776.339 374.599 778.439 378.899 778.439 383.799V396.199C778.439 397.899 778.139 399.499 777.639 401.099C777.139 402.599 776.339 404.099 775.439 405.399C774.439 406.699 773.339 407.899 772.039 408.899C770.739 409.999 769.339 410.899 767.739 411.599C766.239 412.299 764.539 412.899 762.839 413.299C761.139 413.699 759.339 413.899 757.539 413.899H744.239H744.339ZM748.439 405.199H757.639C759.239 405.199 760.739 404.999 762.139 404.499C763.539 403.999 764.839 403.399 765.939 402.599C767.039 401.799 767.939 400.799 768.539 399.699C769.239 398.599 769.539 397.399 769.539 396.199V383.799C769.539 382.599 769.239 381.399 768.539 380.299C767.839 379.199 767.039 378.299 765.939 377.399C764.839 376.599 763.539 375.899 762.139 375.499C760.739 374.999 759.139 374.799 757.639 374.799H748.439V405.099V405.199Z" fill="white"/>
<path d="M827.842 397.2C827.842 402.3 825.742 406.6 821.442 410C817.342 413.3 812.542 414.9 807.042 414.9C801.542 414.9 796.642 413.3 792.642 410C788.342 406.5 786.242 402.2 786.242 397.2V382.7C786.242 377.7 788.342 373.5 792.642 370C796.642 366.7 801.442 365 807.042 365C812.642 365 812.442 365.4 814.842 366.2C817.242 367 819.442 368.2 821.542 369.9C825.842 373.4 827.942 377.7 827.942 382.6V397.1L827.842 397.2ZM795.042 397.2C795.042 398.5 795.342 399.6 796.042 400.7C796.642 401.8 797.542 402.7 798.642 403.6C799.742 404.4 801.042 405.1 802.442 405.5C803.842 406 805.442 406.2 807.042 406.2C808.642 406.2 810.142 406 811.642 405.5C813.042 405 814.342 404.4 815.442 403.6C816.542 402.8 817.442 401.8 818.042 400.7C818.742 399.6 819.042 398.4 819.042 397.2V382.7C819.042 381.5 818.742 380.3 818.042 379.2C817.442 378.1 816.542 377.2 815.442 376.3C814.342 375.5 813.042 374.8 811.642 374.4C810.142 373.9 808.642 373.7 807.042 373.7C805.442 373.7 803.842 373.9 802.442 374.4C800.942 374.9 799.742 375.5 798.642 376.3C797.542 377.1 796.642 378.1 796.042 379.2C795.442 380.3 795.042 381.4 795.042 382.7V397.2Z" fill="white"/>
<path d="M876.842 369.302C877.242 368.302 877.742 367.502 878.542 366.902C879.342 366.302 880.242 366.102 881.342 366.102H891.342V413.902H887.242C884.042 413.902 882.442 412.402 882.442 409.402V379.902L871.442 410.102C871.142 410.802 870.842 411.402 870.342 411.902C869.842 412.402 869.242 412.802 868.542 413.202C867.842 413.502 867.142 413.802 866.342 414.002C865.542 414.202 864.842 414.302 864.042 414.302C863.242 414.302 862.442 414.302 861.742 414.002C860.942 413.802 860.242 413.602 859.542 413.202C858.842 412.902 858.242 412.402 857.742 411.902C857.242 411.402 856.842 410.802 856.542 410.102L845.642 380.102V414.102H841.542C838.342 414.102 836.742 412.602 836.742 409.602V370.902C836.742 367.902 838.342 366.402 841.542 366.402H850.142L864.042 404.702L876.842 369.602V369.302Z" fill="white"/>
<path d="M906.237 413.899C903.037 413.899 901.438 412.399 901.438 409.399V370.699C901.438 367.699 903.037 366.199 906.237 366.199H910.338V413.999H906.237V413.899Z" fill="white"/>
<path d="M925.441 413.899C922.241 413.899 920.641 412.399 920.641 409.399V370.699C920.641 367.699 922.241 366.199 925.441 366.199H929.141L951.441 397.999V370.699C951.441 367.699 953.041 366.199 956.241 366.199H960.241V413.999H956.241C953.241 413.999 951.041 412.899 949.541 410.799L929.541 382.199V413.999H925.441V413.899Z" fill="white"/>
<path d="M975.739 369.898C979.739 366.598 984.539 364.898 990.139 364.898C995.739 364.898 994.439 365.198 996.639 365.798C998.739 366.398 1000.74 367.298 1002.54 368.498C1004.34 369.698 1005.94 371.098 1007.34 372.798C1008.74 374.498 1009.84 376.398 1010.54 378.498L1006.94 380.298C1006.54 380.498 1006.04 380.698 1005.54 380.698C1005.04 380.698 1004.54 380.698 1003.94 380.698C1003.44 380.698 1002.94 380.398 1002.44 380.098C1001.94 379.798 1001.54 379.398 1001.24 378.898C1000.04 377.198 998.539 375.898 996.539 374.998C994.639 373.998 992.539 373.598 990.239 373.598C987.939 373.598 987.039 373.798 985.639 374.298C984.139 374.798 982.939 375.398 981.839 376.198C980.739 376.998 979.839 377.998 979.239 379.098C978.639 380.198 978.239 381.298 978.239 382.498V396.998C978.239 398.298 978.539 399.398 979.239 400.498C979.839 401.598 980.739 402.498 981.839 403.398C982.939 404.198 984.239 404.898 985.639 405.298C987.039 405.798 988.639 405.998 990.239 405.998C991.839 405.998 993.339 405.798 994.839 405.298C996.239 404.798 997.539 404.198 998.639 403.398C999.739 402.598 1000.64 401.598 1001.24 400.498C1001.84 399.398 1002.24 398.198 1002.24 396.998V394.098H994.039C990.839 394.098 989.239 392.598 989.239 389.598V385.398H1011.14V396.998C1011.14 402.098 1009.04 406.398 1004.74 409.798C1000.64 413.098 995.839 414.698 990.339 414.698C984.839 414.698 979.939 413.098 975.939 409.798C971.639 406.298 969.539 401.998 969.539 396.998V382.498C969.539 377.498 971.639 373.298 975.939 369.798" fill="white"/>
<path d="M1060.34 397.2C1060.34 402.3 1058.14 406.6 1053.94 410C1049.84 413.3 1045.04 414.9 1039.54 414.9C1034.04 414.9 1029.14 413.3 1025.14 410C1020.84 406.5 1018.74 402.2 1018.74 397.2V382.7C1018.74 377.7 1020.84 373.5 1025.14 370C1029.14 366.7 1033.94 365 1039.54 365C1045.14 365 1044.94 365.4 1047.34 366.2C1049.74 367 1051.94 368.2 1054.04 369.9C1058.34 373.4 1060.44 377.7 1060.44 382.6V397.1L1060.34 397.2ZM1027.54 397.2C1027.54 398.5 1027.84 399.6 1028.54 400.7C1029.14 401.8 1030.04 402.7 1031.14 403.6C1032.24 404.4 1033.54 405.1 1034.94 405.5C1036.34 406 1037.94 406.2 1039.54 406.2C1041.14 406.2 1042.64 406 1044.14 405.5C1045.64 405 1046.84 404.4 1047.94 403.6C1049.04 402.8 1049.94 401.8 1050.54 400.7C1051.24 399.6 1051.54 398.4 1051.54 397.2V382.7C1051.54 381.5 1051.24 380.3 1050.54 379.2C1049.84 378.1 1049.04 377.2 1047.94 376.3C1046.84 375.5 1045.54 374.8 1044.14 374.4C1042.74 373.9 1041.14 373.7 1039.54 373.7C1037.94 373.7 1036.34 373.9 1034.94 374.4C1033.44 374.9 1032.24 375.5 1031.14 376.3C1030.04 377.1 1029.14 378.1 1028.54 379.2C1027.94 380.3 1027.54 381.4 1027.54 382.7V397.2Z" fill="white"/>
<path d="M1143.14 5.89844H1136.44C1111.64 5.89844 1091.44 26.0984 1091.44 50.8984V370.098C1091.44 394.898 1111.64 415.098 1136.44 415.098H1143.14C1167.94 415.098 1188.14 394.898 1188.14 370.098V50.8984C1188.14 26.1984 1167.94 5.89844 1143.14 5.89844ZM1141.34 71.0984C1152.74 71.0984 1161.34 77.0984 1161.34 86.0984C1161.34 95.0984 1156.74 98.6984 1150.64 104.798L1142.24 113.198H1162.14V127.298H1118.94V115.898L1138.14 95.8984C1140.34 93.4984 1142.14 90.7984 1142.14 88.8984C1142.14 86.9984 1140.84 85.9984 1138.54 85.9984C1134.34 85.9984 1128.94 88.7984 1123.54 93.0984L1116.74 79.8984C1124.64 74.4984 1132.64 71.1984 1141.34 71.1984V71.0984ZM1139.94 143.298C1156.24 143.298 1165.24 153.298 1165.24 171.498C1165.24 189.698 1156.14 199.798 1139.94 199.798C1123.74 199.798 1114.54 189.698 1114.54 171.498C1114.54 153.298 1123.54 143.298 1139.94 143.298ZM1138.44 229.798C1134.24 229.798 1128.84 232.598 1123.44 236.898L1116.64 223.698C1124.54 218.298 1132.54 214.998 1141.24 214.998C1149.94 214.998 1161.24 220.998 1161.24 229.998C1161.24 238.998 1156.64 242.598 1150.54 248.698L1142.14 257.098H1162.04V271.198H1118.84V259.798L1138.04 239.798C1140.24 237.398 1142.04 234.698 1142.04 232.798C1142.04 230.898 1140.74 229.898 1138.44 229.898V229.798ZM1165.74 332.498H1158.74V343.198H1141.74V332.498H1115.64V320.498L1131.84 287.798H1149.24L1134.14 319.398H1141.64V308.798H1158.64V319.398H1165.64V332.498H1165.74Z" fill="white"/>
<path d="M1139.94 186.498C1144.84 186.498 1146.54 182.698 1146.54 171.498C1146.54 160.298 1144.84 156.598 1139.94 156.598C1135.04 156.598 1133.34 160.298 1133.34 171.498C1133.34 182.698 1135.04 186.498 1139.94 186.498Z" fill="white"/>
<mask id="mask0_2653_153" style="mask-type:luminance" maskUnits="userSpaceOnUse" x="131" y="0" width="244" height="135">
<path d="M139.442 76C128.342 104 132.242 135 132.242 135C171.342 91.1 225.742 66 285.542 74.9C323.142 80.5 338.142 94.5 360.942 102.1C370.542 105.4 376.542 98.1 374.042 89C370.842 77.5 364.342 66.9 356.742 56.8C331.942 23.8 286.942 0 243.142 0C201.742 0 161.242 21.2 139.542 75.9" fill="white"/>
</mask>
<g mask="url(#mask0_2653_153)">
<path d="M376.444 0.101562H128.344V135.002H376.444V0.101562Z" fill="url(#paint0_linear_2653_153)"/>
</g>
<mask id="mask1_2653_153" style="mask-type:luminance" maskUnits="userSpaceOnUse" x="131" y="0" width="165" height="135">
<path d="M139.438 76.0016C128.538 103.402 132.038 133.702 132.238 135.002C133.438 131.802 147.838 95.1016 177.038 66.8016C227.838 17.5016 284.238 11.6016 295.638 10.9016C278.838 4.00157 260.838 0.101562 243.038 0.101562C201.638 0.101562 161.138 21.3016 139.438 76.0016Z" fill="white"/>
</mask>
<g mask="url(#mask1_2653_153)">
<path d="M295.539 0.101562H128.539V135.002H295.539V0.101562Z" fill="url(#paint1_linear_2653_153)"/>
</g>
<path fill-rule="evenodd" clip-rule="evenodd" d="M132.141 140.099C167.341 101.099 222.641 82.2989 273.841 97.1989C271.541 96.5989 253.741 104.899 250.241 106.499C185.741 135.799 182.241 201.599 173.041 209.799C156.741 224.099 142.341 184.199 138.541 173.299C135.241 163.699 132.341 150.299 132.141 140.099Z" fill="#E76026"/>
<path fill-rule="evenodd" clip-rule="evenodd" d="M132.139 140.099C167.339 101.099 222.639 82.2989 273.839 97.1989C271.539 96.5989 253.739 104.899 250.239 106.499C246.739 107.999 243.439 109.699 240.339 111.499C201.439 106.999 162.039 120.299 132.439 145.999C132.239 143.999 132.139 141.999 132.039 140.099" fill="#D54327"/>
<mask id="mask2_2653_153" style="mask-type:luminance" maskUnits="userSpaceOnUse" x="57" y="296" width="244" height="136">
<path d="M147.037 356.702C109.437 351.102 94.4369 337.102 71.6369 329.502C62.0369 326.302 56.0369 333.602 58.5369 342.602C61.7369 354.002 68.2369 364.702 75.8369 374.802C124.137 438.902 248.337 468.302 293.037 355.702C304.137 327.702 300.237 296.602 300.237 296.602C261.137 340.502 206.737 365.602 146.937 356.702" fill="white"/>
</mask>
<g mask="url(#mask2_2653_153)">
<path d="M304.239 296.602H56.0391V468.302H304.239V296.602Z" fill="url(#paint2_linear_2653_153)"/>
</g>
<mask id="mask3_2653_153" style="mask-type:luminance" maskUnits="userSpaceOnUse" x="136" y="296" width="166" height="136">
<path d="M255.538 364.899C204.738 414.099 148.337 419.999 136.938 420.799C192.638 443.699 262.038 433.899 293.138 355.699C304.038 328.299 300.538 297.999 300.438 296.699C299.237 299.899 284.838 336.599 255.638 364.899" fill="white"/>
</mask>
<g mask="url(#mask3_2653_153)">
<path d="M303.938 296.699H136.938V443.699H303.938V296.699Z" fill="url(#paint3_linear_2653_153)"/>
</g>
<path fill-rule="evenodd" clip-rule="evenodd" d="M300.341 291.598C265.141 330.598 209.841 349.398 158.641 334.498C160.941 335.198 178.741 326.798 182.241 325.198C246.741 295.898 250.241 230.098 259.441 221.898C275.741 207.498 290.141 247.498 293.941 258.398C297.241 267.998 300.141 281.398 300.341 291.498" fill="#C42229"/>
<path fill-rule="evenodd" clip-rule="evenodd" d="M300.341 291.599C265.141 330.599 209.841 349.399 158.641 334.499C160.941 335.199 178.741 326.799 182.241 325.199C185.641 323.599 188.941 321.999 192.141 320.199C231.041 324.699 270.441 311.299 300.041 285.699C300.241 287.799 300.341 289.799 300.441 291.599" fill="#A81F24"/>
<mask id="mask4_2653_153" style="mask-type:luminance" maskUnits="userSpaceOnUse" x="297" y="131" width="135" height="244">
<path d="M297.039 131.799C340.939 170.899 366.039 225.299 357.139 285.099C351.539 322.699 337.539 337.699 329.839 360.499C326.539 370.099 333.839 376.099 342.939 373.599C354.339 370.499 365.039 363.899 375.139 356.299C439.239 307.999 468.639 183.799 356.039 139.099C339.539 132.599 322.039 131.199 310.439 131.199C298.839 131.199 297.039 131.899 297.039 131.899" fill="white"/>
</mask>
<g mask="url(#mask4_2653_153)">
<path d="M468.739 131.098H297.039V375.998H468.739V131.098Z" fill="url(#paint4_linear_2653_153)"/>
</g>
<mask id="mask5_2653_153" style="mask-type:luminance" maskUnits="userSpaceOnUse" x="296" y="131" width="136" height="165">
<path d="M297.036 131.802C300.236 133.002 336.936 147.402 365.236 176.602C414.436 227.402 420.336 283.902 421.036 295.202C443.936 239.502 434.236 170.102 355.936 139.002C339.436 132.502 321.936 131.102 310.236 131.102C302.536 131.102 297.436 131.702 296.836 131.702" fill="white"/>
</mask>
<g mask="url(#mask5_2653_153)">
<path d="M444.039 131.102H297.039V295.202H444.039V131.102Z" fill="url(#paint5_linear_2653_153)"/>
</g>
<path fill-rule="evenodd" clip-rule="evenodd" d="M291.937 131.801C331.037 167.001 349.737 222.301 334.837 273.501C335.437 271.201 327.137 253.401 325.537 249.901C296.137 185.401 230.437 181.901 222.237 172.701C207.937 156.401 247.837 142.001 258.737 138.201C268.337 134.901 281.737 132.001 291.837 131.801" fill="#009A49"/>
<path fill-rule="evenodd" clip-rule="evenodd" d="M291.939 131.801C331.039 167.001 349.739 222.301 334.839 273.501C335.439 271.201 327.139 253.401 325.539 249.901C323.939 246.501 322.339 243.201 320.539 240.101C325.139 201.201 311.739 161.801 286.039 132.201C288.039 132.001 290.039 131.901 291.939 131.901" fill="#058844"/>
<path fill-rule="evenodd" clip-rule="evenodd" d="M140.541 299.899C101.441 264.699 82.741 209.399 97.641 158.199C96.941 160.499 105.341 178.199 106.941 181.699C136.341 246.199 202.141 249.699 210.241 258.899C224.541 275.199 184.641 289.599 173.741 293.399C164.141 296.699 150.741 299.599 140.641 299.799" fill="#0280AD"/>
<path fill-rule="evenodd" clip-rule="evenodd" d="M140.541 299.899C101.441 264.699 82.741 209.399 97.641 158.199C96.941 160.499 105.341 178.199 106.941 181.699C108.541 185.199 110.141 188.399 111.941 191.599C107.441 230.499 120.841 269.899 146.441 299.499C144.441 299.699 142.441 299.799 140.541 299.899Z" fill="#046A9C"/>
<mask id="mask6_2653_153" style="mask-type:luminance" maskUnits="userSpaceOnUse" x="0" y="57" width="136" height="244">
<path d="M89.0388 57.7C77.6388 60.9 66.9388 67.4 56.8388 75C-7.26122 123.3 -36.6612 247.5 75.9388 292.2C103.939 303.3 135.039 299.4 135.039 299.4C91.1388 260.3 66.0388 205.9 74.9388 146.1C80.5388 108.5 94.5388 93.5 102.239 70.7C104.939 62.6 100.139 57 93.1388 57C91.8388 57 90.5388 57.2 89.1388 57.6" fill="white"/>
</mask>
<g mask="url(#mask6_2653_153)">
<path d="M135.036 57.1016H-36.6641V303.302H135.036V57.1016Z" fill="url(#paint6_linear_2653_153)"/>
</g>
<mask id="mask7_2653_153" style="mask-type:luminance" maskUnits="userSpaceOnUse" x="0" y="136" width="135" height="165">
<path d="M75.9389 292.2C103.339 303.1 133.639 299.6 134.939 299.4C131.739 298.2 95.0389 283.8 66.7389 254.6C17.4389 203.8 11.5389 147.4 10.8389 136C-12.0611 191.7 -2.36109 261.1 75.8389 292.2" fill="white"/>
</mask>
<g mask="url(#mask7_2653_153)">
<path d="M134.939 136.102H-11.9609V303.102H134.939V136.102Z" fill="url(#paint7_linear_2653_153)"/>
</g>
<defs>
<linearGradient id="paint0_linear_2653_153" x1="74.1637" y1="72.5616" x2="320.764" y2="72.5616" gradientUnits="userSpaceOnUse">
<stop stop-color="#EA7625"/>
<stop offset="1" stop-color="#F9C219"/>
</linearGradient>
<linearGradient id="paint1_linear_2653_153" x1="127.639" y1="63.3016" x2="277.489" y2="63.3016" gradientUnits="userSpaceOnUse">
<stop stop-color="#DF5C26"/>
<stop offset="1" stop-color="#F1B31C"/>
</linearGradient>
<linearGradient id="paint2_linear_2653_153" x1="-35.9409" y1="406.422" x2="210.659" y2="406.422" gradientUnits="userSpaceOnUse">
<stop stop-color="#E43B27"/>
<stop offset="1" stop-color="#DA2228"/>
</linearGradient>
<linearGradient id="paint3_linear_2653_153" x1="69.0375" y1="395.749" x2="218.887" y2="395.749" gradientUnits="userSpaceOnUse">
<stop stop-color="#DA3527"/>
<stop offset="1" stop-color="#C02429"/>
</linearGradient>
<linearGradient id="paint4_linear_2653_153" x1="384.999" y1="93.6777" x2="384.999" y2="340.278" gradientUnits="userSpaceOnUse">
<stop stop-color="#95BC3E"/>
<stop offset="1" stop-color="#D0D228"/>
</linearGradient>
<linearGradient id="paint5_linear_2653_153" x1="375.439" y1="309.352" x2="375.439" y2="142.852" gradientUnits="userSpaceOnUse">
<stop stop-color="#C5CC2E"/>
<stop offset="1" stop-color="#68A243"/>
</linearGradient>
<linearGradient id="paint6_linear_2653_153" x1="79.3359" y1="400.042" x2="79.3359" y2="153.442" gradientUnits="userSpaceOnUse">
<stop stop-color="#00ACD3"/>
<stop offset="1" stop-color="#62C0E1"/>
</linearGradient>
<linearGradient id="paint7_linear_2653_153" x1="51.9391" y1="92.9016" x2="51.9391" y2="259.402" gradientUnits="userSpaceOnUse">
<stop stop-color="#49BADD"/>
<stop offset="1" stop-color="#0199C3"/>
</linearGradient>
</defs>
</svg>
