<svg width="1555" height="457" viewBox="0 0 1555 457" fill="none" xmlns="http://www.w3.org/2000/svg">
<g clip-path="url(#clip0_986_41)">
<path d="M114.279 144.75C105.069 165.6 98.6593 187.97 98.0593 210.74C98.0459 211.226 97.7993 211.496 97.3193 211.55L96.4993 211.65C96.3834 211.664 96.2658 211.653 96.1541 211.619C96.0424 211.585 95.9391 211.528 95.8506 211.452C95.7622 211.376 95.6906 211.282 95.6404 211.177C95.5902 211.071 95.5626 210.956 95.5593 210.84C94.9593 195.886 95.8893 181.703 98.3493 168.29C103.669 139.27 114.729 112.07 131.529 86.6897C158.199 46.3797 198.429 12.5897 245.559 0.899674C246.953 0.559674 248.329 0.573008 249.689 0.939674C254.563 2.27301 259.443 3.73967 264.329 5.33967C278.036 9.81301 291.033 16.5897 303.319 25.6697C303.919 26.1163 303.849 26.323 303.109 26.2897C285.089 25.4297 266.739 27.0497 249.499 30.6897C214.809 38.0397 183.589 54.8197 158.559 79.7697C140.006 98.263 125.246 119.923 114.279 144.75Z" fill="white"/>
<path d="M85.8401 380.16C41.8401 332.97 8.21011 275.2 1.81011 210.18C1.64345 208.453 1.57678 206.73 1.61011 205.01C1.65011 202.83 1.14011 200.82 1.03011 198.63C0.670112 190.943 0.756779 184.47 1.29011 179.21C1.42345 177.87 1.50678 176.557 1.54011 175.27C1.56678 174.077 1.64011 172.89 1.76011 171.71C4.99345 140.55 15.5568 112.39 33.4501 87.2301C44.5034 71.6901 57.0401 58.7301 71.0601 48.3501C107.167 21.6168 147.373 9.85342 191.68 13.0601C193.067 13.1601 193.13 13.5034 191.87 14.0901C174.71 21.9968 158.873 32.2001 144.36 44.7001C100.3 82.6601 77.5001 137.45 79.0101 195.47C80.4701 251.59 104.6 308.33 147.27 345.37C156.677 353.53 166.647 360.627 177.18 366.66C177.444 366.811 177.664 367.03 177.817 367.293C177.969 367.557 178.05 367.856 178.05 368.16L177.98 456.22C177.98 456.54 177.83 456.647 177.53 456.54C176.53 456.193 175.62 455.75 174.8 455.21C142.013 433.617 112.36 408.6 85.8401 380.16Z" fill="white"/>
<path d="M124.398 270.539C146.032 270.892 167.532 270.969 188.898 270.769C191.328 270.739 193.818 270.349 196.238 270.049C213.432 268.876 228.555 262.982 241.608 252.369C276.938 223.649 281.938 172.749 252.868 137.459C250.542 134.632 247.978 131.979 245.178 129.499C229.665 115.752 211.365 108.769 190.278 108.549C180.758 108.449 171.628 108.439 162.888 108.519C162.255 108.519 162.148 108.282 162.568 107.809C176.068 92.5025 191.602 79.9558 209.168 70.1691C235.788 55.3558 264.428 47.9225 295.088 47.8691C296.228 47.8691 297.478 48.1591 298.408 48.8391C306.382 54.6058 313.648 61.0925 320.208 68.2991C346.738 97.4491 363.878 135.309 367.298 174.869C367.452 176.682 367.502 178.469 367.448 180.229C367.378 182.599 367.798 184.889 367.828 187.279C368.222 222.806 358.825 255.479 339.638 285.299C326.092 306.359 308.748 323.796 287.608 337.609C258.562 356.589 226.538 366.172 191.538 366.359C189.932 366.366 188.425 365.819 187.018 364.719C156.685 341.006 136.045 310.592 125.098 273.479C124.978 273.059 124.745 272.079 124.398 270.539Z" fill="white"/>
<path d="M601.397 107.533C601.445 116.606 597.886 125.326 591.504 131.775C585.122 138.224 576.44 141.874 567.367 141.922L560.467 141.958C555.975 141.981 551.522 141.12 547.362 139.422C543.203 137.725 539.418 135.225 536.225 132.065C533.032 128.905 530.492 125.147 528.751 121.005C527.01 116.864 526.102 112.42 526.078 107.927L526.043 101.247C525.996 92.1745 529.555 83.4543 535.937 77.0052C542.318 70.5561 551.001 66.9063 560.074 66.8588L566.974 66.8227C571.466 66.7992 575.919 67.6608 580.079 69.3582C584.238 71.0557 588.023 73.5558 591.216 76.7158C594.409 79.8758 596.949 83.6338 598.69 87.7753C600.431 91.9168 601.339 96.3607 601.362 100.853L601.397 107.533ZM563.955 126.759C569.461 126.711 574.721 124.312 578.577 120.088C582.434 115.865 584.571 110.164 584.52 104.239C584.468 98.3143 582.231 92.6514 578.301 88.496C574.372 84.3406 569.071 82.0331 563.565 82.0811C558.06 82.1292 552.8 84.5289 548.944 88.7522C545.087 92.9756 542.95 98.6767 543.001 104.601C543.053 110.526 545.29 116.189 549.219 120.344C553.149 124.5 558.45 126.807 563.955 126.759Z" fill="white"/>
<path d="M745.985 105.818C746 114.401 742.605 122.638 736.547 128.717C730.489 134.796 722.264 138.22 713.682 138.235L707.342 138.246C703.092 138.253 698.883 137.424 694.954 135.804C691.025 134.185 687.453 131.807 684.443 128.808C681.433 125.808 679.043 122.245 677.41 118.322C675.777 114.398 674.933 110.192 674.925 105.942L674.914 99.5623C674.899 90.9799 678.294 82.7431 684.352 76.6638C690.41 70.5846 698.635 67.1609 707.218 67.1459L713.558 67.1348C717.807 67.1274 722.017 67.9571 725.945 69.5764C729.874 71.1958 733.446 73.5732 736.456 76.5729C739.466 79.5725 741.856 83.1357 743.489 87.059C745.122 90.9822 745.967 95.1887 745.974 99.4383L745.985 105.818ZM710.645 125.109C716.175 125.061 721.457 122.655 725.33 118.42C729.204 114.185 731.351 108.469 731.299 102.528C731.273 99.5869 730.708 96.6789 729.637 93.9705C728.565 91.262 727.008 88.8062 725.054 86.7431C723.1 84.6801 720.787 83.0502 718.248 81.9466C715.708 80.843 712.992 80.2873 710.254 80.3112C704.725 80.3595 699.442 82.7657 695.569 87.0004C691.696 91.2352 689.549 96.9516 689.6 102.892C689.626 105.834 690.191 108.742 691.262 111.45C692.334 114.159 693.891 116.614 695.845 118.678C697.799 120.741 700.112 122.37 702.652 123.474C705.191 124.578 707.907 125.133 710.645 125.109Z" fill="white"/>
<path d="M769.378 105.669C769.511 106.042 769.541 106.422 769.468 106.809C767.601 117.269 765.795 127.342 764.048 137.029C764.025 137.147 763.963 137.253 763.872 137.33C763.78 137.407 763.666 137.449 763.548 137.449H750.018C749.372 137.449 749.111 137.132 749.238 136.499L762.638 68.6691C763.092 66.3758 763.895 66.2458 765.048 68.2791L788.788 110.129C789.221 110.889 789.652 110.889 790.078 110.129L813.788 68.1691C814.908 66.1891 815.688 66.3158 816.128 68.5492L829.698 136.799C829.785 137.239 829.608 137.459 829.168 137.459L815.688 137.439C815.341 137.439 815.135 137.269 815.068 136.929L809.418 107.169C809.165 105.836 808.705 105.759 808.038 106.939L790.568 137.839C789.988 138.859 789.351 138.896 788.658 137.949C788.445 137.656 788.115 137.122 787.668 136.349C781.768 126.082 775.871 115.812 769.978 105.539C769.911 105.426 769.808 105.356 769.668 105.329C769.381 105.289 769.285 105.402 769.378 105.669Z" fill="white"/>
<path d="M875.27 98.7908L875.3 136.741C875.307 137.107 875.127 137.291 874.76 137.291L861.17 137.331C861.115 137.331 861.06 137.32 861.009 137.3C860.958 137.279 860.912 137.249 860.873 137.211C860.834 137.173 860.803 137.127 860.782 137.078C860.761 137.028 860.75 136.975 860.75 136.921V67.7108C860.748 67.5629 860.79 67.4177 860.87 67.2935C860.951 67.1693 861.066 67.0717 861.202 67.0129C861.338 66.9541 861.488 66.9368 861.633 66.9631C861.779 66.9894 861.913 67.0582 862.02 67.1608C863.76 68.7708 865.6 70.0608 867.35 71.6908C877.297 80.9774 887.41 90.3241 897.69 99.7308C900.35 102.161 902.43 104.851 905.55 106.731C905.596 106.76 905.649 106.776 905.703 106.777C905.757 106.778 905.811 106.765 905.858 106.738C905.905 106.712 905.944 106.673 905.971 106.626C905.998 106.578 906.011 106.525 906.01 106.471L906 68.7508C906 68.5545 906.079 68.3663 906.22 68.2275C906.36 68.0887 906.551 68.0108 906.75 68.0108L919.81 68.0008C920.19 68.0008 920.38 68.1874 920.38 68.5608L920.42 138.061C920.42 138.514 920.2 138.681 919.76 138.561C919.533 138.501 919.33 138.394 919.15 138.241C913.42 133.361 908.22 127.911 902.54 122.931C900.207 120.884 898.033 118.877 896.02 116.911C890.67 111.671 883.99 106.091 878.31 100.151C877.817 99.6374 876.977 99.0808 875.79 98.4808C875.443 98.3074 875.27 98.4108 875.27 98.7908Z" fill="white"/>
<path d="M1008.4 71.3196C1008.12 75.753 1008.01 80.2296 1008.08 84.7496C1008.08 85.2496 1007.71 85.4363 1006.97 85.3096C1002.05 82.3496 996.815 80.7363 991.248 80.4696C961.548 79.0396 959.708 123.48 988.738 124.79C996.072 125.123 1002.95 123.3 1009.37 119.32L1008.73 134.64C1005.87 135.853 1003.84 136.603 1002.65 136.89C992.268 139.39 979.448 139.35 970.158 134.2C955.518 126.1 950.348 109.63 953.738 93.6396C956.598 80.1396 967.518 69.8096 981.258 67.6096C986.352 66.803 991.765 66.843 997.498 67.7296C1001.48 68.3496 1005.12 69.5463 1008.4 71.3196Z" fill="white"/>
<path d="M1056.78 126.479C1046.27 125.953 1038.26 125.846 1032.75 126.159C1031.61 126.219 1031.15 126.953 1031.37 128.359L1027.83 136.769C1027.68 137.143 1027.4 137.329 1026.99 137.329L1013.3 137.369C1013.18 137.369 1013.06 137.341 1012.96 137.287C1012.86 137.233 1012.76 137.155 1012.7 137.059C1012.63 136.964 1012.58 136.853 1012.57 136.736C1012.55 136.62 1012.56 136.501 1012.6 136.389C1013.19 134.669 1013.95 132.806 1014.88 130.799C1024.19 110.533 1033.82 89.4126 1043.75 67.4393C1043.82 67.276 1043.94 67.1374 1044.1 67.0398C1044.25 66.9422 1044.42 66.8897 1044.6 66.8887C1044.78 66.8876 1044.96 66.938 1045.11 67.0338C1045.26 67.1297 1045.37 67.2669 1045.45 67.4293C1055.87 90.2893 1066.04 112.729 1075.97 134.749C1076.16 135.176 1076.28 135.619 1076.34 136.079C1076.36 136.235 1076.35 136.393 1076.3 136.544C1076.26 136.694 1076.18 136.833 1076.08 136.952C1075.97 137.07 1075.84 137.165 1075.7 137.23C1075.55 137.295 1075.4 137.329 1075.24 137.329L1062.04 137.239C1061.77 137.239 1061.51 137.159 1061.28 137.01C1061.06 136.86 1060.89 136.647 1060.79 136.399L1056.78 126.479ZM1036.94 115.299C1037.06 115.646 1037.33 115.833 1037.75 115.859C1041.87 116.093 1046.65 115.983 1052.08 115.529L1045.25 98.1893C1044.72 96.8559 1044.19 96.8526 1043.65 98.1793C1041.43 103.606 1039.07 109.109 1036.58 114.689C1036.53 114.783 1036.52 114.879 1036.55 114.979C1036.6 115.173 1036.73 115.279 1036.94 115.299Z" fill="white"/>
<path d="M1081.59 66.9891C1082.2 66.9824 1082.56 67.0191 1082.65 67.0991C1087.29 71.3191 1091.42 75.6691 1096.24 79.7991C1098.59 81.8057 1100.73 83.7624 1102.66 85.6691C1104.77 87.7491 1107.15 89.9257 1109.78 92.199C1112.28 94.3524 1114.67 96.6324 1116.95 99.0391C1118.25 100.419 1119.83 101.839 1121.68 103.299C1123.21 104.506 1124.83 105.899 1126.52 107.479C1127.01 94.0657 1127.03 80.9024 1126.58 67.9891L1140.34 68.0491C1140.51 68.0491 1140.68 68.1165 1140.8 68.2365C1140.92 68.3565 1140.99 68.5193 1140.99 68.6891C1141.02 91.5157 1141.01 114.062 1140.97 136.329C1140.97 136.936 1140.88 137.536 1140.71 138.129C1140.69 138.214 1140.64 138.291 1140.58 138.354C1140.51 138.416 1140.44 138.461 1140.35 138.485C1140.27 138.509 1140.18 138.511 1140.09 138.491C1140 138.471 1139.93 138.429 1139.86 138.369L1096.43 98.1691C1096.08 98.0291 1095.87 97.969 1095.81 97.989C1095.6 98.0558 1095.41 98.1893 1095.28 98.3695C1095.15 98.5497 1095.08 98.767 1095.08 98.9891C1095.11 111.522 1095.13 123.962 1095.14 136.309C1095.14 136.535 1095.05 136.753 1094.89 136.914C1094.73 137.075 1094.52 137.166 1094.29 137.169L1082.53 137.199C1082.36 137.199 1082.2 137.132 1082.08 137.012C1081.96 136.892 1081.89 136.729 1081.89 136.559L1081.59 66.9891Z" fill="white"/>
<path d="M1189.62 126.561C1181.92 126.141 1174.17 125.981 1166.37 126.081C1165.34 126.091 1164.84 126.531 1164.42 127.401L1160.98 135.721C1160.79 136.183 1160.47 136.58 1160.06 136.86C1159.64 137.141 1159.16 137.294 1158.66 137.301L1146.99 137.431C1146.76 137.434 1146.53 137.38 1146.33 137.273C1146.13 137.165 1145.96 137.009 1145.83 136.817C1145.71 136.626 1145.63 136.405 1145.61 136.177C1145.6 135.949 1145.64 135.719 1145.73 135.511L1176.59 67.5708C1176.66 67.4178 1176.77 67.2852 1176.91 67.1855C1177.04 67.0858 1177.2 67.0222 1177.37 67.0008C1177.9 66.9341 1178.3 67.1841 1178.55 67.7508C1189.04 90.8974 1199.39 113.774 1209.61 136.381C1209.92 137.061 1209.7 137.397 1208.95 137.391L1194.81 137.261C1194.65 137.26 1194.49 137.212 1194.35 137.121C1194.21 137.03 1194.1 136.902 1194.04 136.751L1189.62 126.561ZM1169.95 115.231C1170.07 115.664 1170.42 115.881 1171 115.881C1175.41 115.894 1179.83 115.901 1184.25 115.901C1184.76 115.901 1184.99 115.677 1184.93 115.231C1184.96 115.064 1184.97 114.894 1184.98 114.721C1184.99 114.514 1184.96 114.317 1184.87 114.131C1182.36 108.417 1179.93 102.691 1177.6 96.9508C1177.44 96.5641 1177.28 96.5641 1177.11 96.9508C1174.58 102.944 1172.05 108.897 1169.54 114.811C1169.41 115.131 1169.54 115.271 1169.95 115.231Z" fill="white"/>
<path d="M427.49 118.54L427.5 140.75C427.5 141.083 427.333 141.25 427 141.25H410.92C410.533 141.25 410.34 141.056 410.34 140.67L410.35 68.2895C410.35 67.9629 410.513 67.7962 410.84 67.7895C421.24 67.6629 430.633 67.7062 439.02 67.9195C445.76 68.0929 451.3 69.5062 455.64 72.1595C464.4 77.5095 465.87 88.6995 464.44 98.4795C462.98 108.47 455.45 115.07 445.76 116.87C440.227 117.896 434.35 118.25 428.13 117.93C427.703 117.91 427.49 118.113 427.49 118.54ZM427.51 82.1095L427.47 103.29C427.47 103.385 427.508 103.477 427.575 103.544C427.643 103.612 427.734 103.65 427.83 103.65L436.33 103.67C437.793 103.672 439.242 103.424 440.595 102.937C441.948 102.451 443.177 101.736 444.214 100.835C445.25 99.9329 446.073 98.8616 446.635 97.682C447.197 96.5024 447.488 95.2375 447.49 93.9595V91.5195C447.495 88.9393 446.326 86.4627 444.24 84.6343C442.155 82.8058 439.324 81.7754 436.37 81.7695L427.87 81.7495C427.774 81.7495 427.683 81.7875 427.615 81.855C427.548 81.9225 427.51 82.0141 427.51 82.1095Z" fill="white"/>
<path d="M486.25 117.321V140.751C486.25 141.084 486.083 141.251 485.75 141.251H469.5C469.167 141.251 469 141.084 469 140.751L469.05 68.2508C469.05 67.8908 469.23 67.7141 469.59 67.7208C477.737 67.7941 485.437 67.7941 492.69 67.7208C500.11 67.6408 507.43 68.7408 513.79 72.4308C521.99 77.2008 523.23 88.2808 522.16 97.0808C521.16 105.354 517.21 111.024 510.31 114.091C510.236 114.123 510.171 114.171 510.118 114.232C510.065 114.293 510.026 114.365 510.004 114.444C509.982 114.522 509.978 114.604 509.991 114.685C510.004 114.766 510.034 114.843 510.08 114.911L527.69 140.841C527.717 140.88 527.734 140.925 527.737 140.972C527.74 141.02 527.731 141.067 527.709 141.109C527.687 141.152 527.655 141.187 527.614 141.212C527.574 141.237 527.527 141.25 527.48 141.251H508.03C507.477 141.251 507.053 141.017 506.76 140.551L492.06 117.261C491.827 116.894 491.49 116.707 491.05 116.701L486.93 116.641C486.477 116.641 486.25 116.867 486.25 117.321ZM485.98 82.0508L486.02 102.311C486.02 102.374 486.045 102.436 486.09 102.481C486.135 102.526 486.196 102.551 486.26 102.551L494.63 102.531C497.316 102.525 499.89 101.663 501.786 100.135C503.682 98.6063 504.745 96.5366 504.74 94.3808V89.9008C504.738 88.833 504.473 87.7761 503.962 86.7906C503.451 85.805 502.702 84.9102 501.76 84.1571C500.817 83.4039 499.699 82.8073 498.469 82.4013C497.239 81.9953 495.921 81.7879 494.59 81.7908L486.22 81.8108C486.156 81.8108 486.095 81.8361 486.05 81.8811C486.005 81.9261 485.98 81.9872 485.98 82.0508Z" fill="white"/>
<path d="M610.789 68.0794C621.022 67.7394 631.092 68.046 640.999 68.9994C650.409 69.9094 657.259 72.2294 663.809 79.7394C670.139 86.9994 670.479 96.4394 670.089 105.869C669.649 116.629 666.069 125.719 656.509 131.269C650.056 135.009 642.196 137.033 632.929 137.339L611.899 137.259C611.759 137.259 611.619 137.232 611.49 137.178C611.36 137.124 611.242 137.045 611.142 136.946C611.043 136.847 610.964 136.729 610.911 136.599C610.857 136.469 610.829 136.33 610.829 136.189L610.789 68.0794ZM625.229 125.319C625.669 126.086 626.712 126.083 628.359 125.309C630.592 125.076 632.886 124.843 635.239 124.609C642.679 123.869 650.309 120.349 653.119 113.099C655.759 106.289 655.929 96.7594 652.709 89.7794C651.409 86.9727 649.342 84.9394 646.509 83.6794C640.076 80.8394 633.162 79.7127 625.769 80.2994C625.436 80.3261 625.269 80.506 625.269 80.8394L625.229 125.319Z" fill="white"/>
<path d="M850.429 68.0195L850.119 136.63C850.119 136.97 849.952 137.156 849.619 137.19L847.689 137.39C842.079 137.67 837.679 137.89 835.899 132.19C835.819 131.936 835.776 129.806 835.769 125.8C835.722 106.466 835.729 87.3929 835.789 68.5795C835.789 68.2395 835.959 68.0695 836.299 68.0695L850.429 68.0195Z" fill="white"/>
<path d="M945.49 68.62L945.44 136.93C945.44 137.343 945.237 137.537 944.83 137.51C941.47 137.28 936.75 138.23 933.91 136.55C931.67 135.223 930.55 133.15 930.55 130.33C930.523 109.503 930.517 88.9433 930.53 68.65C930.53 68.2167 930.747 68 931.18 68H944.87C945.283 68 945.49 68.2067 945.49 68.62Z" fill="white"/>
<path d="M541.33 291.819C541.977 291.193 542.59 290.503 543.17 289.749C543.201 289.711 543.239 289.68 543.282 289.657C543.325 289.634 543.372 289.62 543.42 289.616C543.468 289.612 543.516 289.619 543.561 289.635C543.606 289.651 543.646 289.676 543.68 289.709C551.8 297.659 558.88 306.179 566.96 314.079C567.28 314.393 567.284 314.706 566.97 315.019C545.54 336.359 517.55 345.629 487.8 341.119C460.63 337.009 436 320.769 422.16 296.949C404.01 265.729 407.4 226.889 430.17 199.139C432.67 196.089 436.36 192.929 439.36 189.629C441.174 187.643 444.14 185.233 448.26 182.399C468.51 168.479 492.96 162.729 517.04 166.619C536.16 169.706 552.847 178.489 567.1 192.969C567.22 193.089 567.224 193.209 567.11 193.329L543.9 217.899C543.587 218.233 543.274 218.233 542.96 217.899C536.054 210.399 528.604 205.286 520.61 202.559C505.41 197.379 491.074 198.526 477.6 205.999C455.66 218.159 446.06 242.579 451.36 266.909C455.85 287.569 472.33 303.239 492.86 307.489C499.547 308.869 506.25 308.836 512.97 307.389C523.524 305.109 532.977 299.919 541.33 291.819Z" fill="white"/>
<path d="M1151.94 290.121C1156.87 294.774 1161.46 299.458 1165.71 304.171C1168.9 307.704 1171.98 311.024 1174.97 314.131C1175.2 314.378 1175.21 314.631 1174.99 314.891C1174.02 316.038 1172.98 317.114 1171.89 318.121C1155.63 333.051 1135.07 341.751 1113.01 342.201C1093.64 342.601 1076.08 337.804 1060.32 327.811C1037.25 313.201 1021.53 289.121 1019.15 261.761C1017.49 242.741 1021.49 225.284 1031.14 209.391C1034.86 203.264 1038.93 197.978 1043.36 193.531C1062.67 174.131 1086.4 164.851 1114.53 165.691C1134.67 166.298 1152.74 173.364 1168.75 186.891C1170.94 188.741 1172.7 190.881 1174.92 192.731C1175 192.801 1175.07 192.888 1175.12 192.986C1175.17 193.083 1175.2 193.19 1175.2 193.298C1175.21 193.407 1175.19 193.514 1175.15 193.615C1175.11 193.715 1175.05 193.806 1174.97 193.881C1171.16 197.601 1167.73 201.134 1164.66 204.481C1160.61 208.914 1156.38 213.448 1151.97 218.081C1151.65 218.421 1151.34 218.414 1151.04 218.061C1139.9 205.151 1122.61 197.641 1105.72 199.661C1086.06 202.021 1069.27 214.451 1062.08 232.811C1055.57 249.451 1056.97 269.261 1067.08 284.541C1076.21 298.341 1090.62 306.951 1107.24 308.341C1110.85 308.648 1114.28 308.551 1117.51 308.051C1130.72 306.024 1141.86 300.058 1150.92 290.151C1150.98 290.081 1151.06 290.024 1151.15 289.984C1151.24 289.944 1151.33 289.923 1151.42 289.92C1151.52 289.917 1151.61 289.933 1151.7 289.968C1151.79 290.002 1151.87 290.055 1151.94 290.121Z" fill="white"/>
<path d="M1215.79 165.561L1229.5 165.551C1234.68 166.625 1239.51 168.906 1243.55 172.192C1247.59 175.478 1250.72 179.668 1252.66 184.391C1253.54 186.524 1254.17 188.741 1254.53 191.001L1254.41 201.051C1253.35 206.846 1250.58 212.232 1246.43 216.574C1242.27 220.916 1236.92 224.034 1230.98 225.561C1227.15 226.546 1223.17 226.847 1219.24 226.451C1214.91 226.015 1210.72 224.746 1206.92 222.719C1203.12 220.693 1199.79 217.952 1197.13 214.661C1194.34 211.203 1192.34 207.215 1191.28 202.963C1190.21 198.71 1190.11 194.288 1190.96 189.991C1192.33 183.127 1196.08 176.909 1201.6 172.351C1205.67 168.997 1210.55 166.663 1215.79 165.561Z" fill="white"/>
<path d="M684.388 311.941C684.082 311.421 683.618 311.161 682.998 311.161C659.938 310.974 636.862 311.084 613.768 311.491L603.318 337.931C603.178 338.284 602.918 338.461 602.538 338.461L562.308 338.481C561.628 338.488 561.418 338.174 561.678 337.541L630.198 170.091C630.318 169.804 630.535 169.661 630.848 169.661L666.998 169.631C667.378 169.631 667.642 169.808 667.788 170.161L736.488 337.981C736.509 338.034 736.517 338.091 736.511 338.147C736.505 338.204 736.486 338.258 736.454 338.305C736.423 338.352 736.38 338.391 736.331 338.418C736.281 338.445 736.225 338.46 736.168 338.461C723.975 338.488 711.752 338.501 699.498 338.501C697.992 338.501 696.662 338.434 695.508 338.301C695.29 338.273 695.084 338.188 694.911 338.054C694.739 337.92 694.606 337.743 694.528 337.541L684.388 311.941ZM649.278 223.351C648.925 221.798 648.658 221.811 648.478 223.391C648.278 225.071 647.878 226.981 647.258 228.551C640.825 244.624 634.272 260.854 627.598 277.241C627.564 277.323 627.55 277.412 627.559 277.501C627.568 277.589 627.6 277.674 627.65 277.749C627.7 277.823 627.769 277.884 627.849 277.926C627.929 277.968 628.018 277.991 628.108 277.991L670.218 278.011C670.266 278.011 670.313 278 670.355 277.977C670.397 277.955 670.434 277.923 670.46 277.883C670.487 277.844 670.503 277.798 670.508 277.75C670.513 277.703 670.506 277.655 670.488 277.611C663.788 261.238 657.245 244.948 650.858 228.741C650.305 227.348 649.778 225.551 649.278 223.351Z" fill="white"/>
<path d="M975.329 311.449C951.736 310.876 928.216 310.899 904.769 311.519L894.509 337.569C894.383 337.889 894.156 338.086 893.829 338.159C893.143 338.319 892.453 338.399 891.759 338.399C879.326 338.486 866.373 338.509 852.899 338.469C852.606 338.462 852.516 338.326 852.629 338.059L921.359 170.059C921.479 169.766 921.696 169.619 922.009 169.619L958.209 169.629C958.576 169.629 958.829 169.802 958.969 170.149C980.016 221.689 1001.15 273.282 1022.36 324.929C1024.21 329.429 1025.91 333.749 1027.46 337.889C1027.61 338.282 1027.47 338.479 1027.05 338.479L987.319 338.419C986.976 338.42 986.641 338.317 986.356 338.125C986.07 337.932 985.849 337.659 985.719 337.339L975.329 311.449ZM918.839 277.979L961.249 278.009C961.311 278.009 961.372 277.993 961.426 277.964C961.481 277.935 961.527 277.893 961.561 277.841C961.596 277.79 961.617 277.731 961.624 277.67C961.631 277.609 961.622 277.547 961.599 277.489C955.773 263.156 949.686 248.062 943.339 232.209C942.189 229.319 941.279 226.279 940.369 223.299C940.352 223.242 940.35 223.181 940.364 223.123C940.378 223.065 940.407 223.012 940.449 222.969C940.583 222.829 940.586 222.682 940.459 222.529C940.199 222.209 940.013 222.246 939.899 222.639C939.289 224.739 938.979 226.889 938.169 228.969C931.783 245.116 925.413 260.956 919.059 276.489C918.926 276.809 918.756 277.102 918.549 277.369C918.506 277.426 918.479 277.493 918.471 277.564C918.463 277.635 918.475 277.707 918.505 277.77C918.536 277.834 918.583 277.887 918.642 277.924C918.701 277.961 918.77 277.98 918.839 277.979Z" fill="white"/>
<path d="M1502.05 311.739C1501.99 311.572 1501.83 311.419 1501.55 311.279C1501.38 311.186 1501.17 311.139 1500.91 311.139C1478.21 311.106 1455.5 311.129 1432.79 311.209C1432.55 311.216 1432.34 311.309 1432.18 311.489C1432.11 311.569 1432.05 311.652 1432.01 311.739C1431.69 311.926 1431.46 312.182 1431.33 312.509C1428 320.502 1424.7 328.862 1421.44 337.589C1421.35 337.844 1421.17 338.063 1420.95 338.217C1420.73 338.371 1420.46 338.452 1420.19 338.449L1380.39 338.409C1380.27 338.409 1380.14 338.377 1380.03 338.318C1379.92 338.258 1379.83 338.172 1379.76 338.068C1379.69 337.963 1379.64 337.843 1379.63 337.718C1379.62 337.592 1379.63 337.466 1379.68 337.349L1448.14 170.029C1448.26 169.756 1448.46 169.619 1448.74 169.619L1484.98 169.639C1485.33 169.639 1485.57 169.799 1485.7 170.119C1507.4 223.152 1529.19 276.339 1551.06 329.679C1552.28 332.646 1553.33 335.386 1554.22 337.899C1554.36 338.292 1554.22 338.489 1553.79 338.489L1514.06 338.409C1513.71 338.409 1513.37 338.305 1513.08 338.111C1512.79 337.917 1512.57 337.641 1512.44 337.319L1502.05 311.739ZM1467.86 225.729C1467.71 224.549 1467.41 223.472 1466.98 222.499C1466.94 222.399 1466.87 222.332 1466.77 222.299C1466.69 222.279 1466.61 222.296 1466.52 222.349C1466.4 222.429 1466.36 222.542 1466.4 222.689C1466.56 223.216 1466.56 223.739 1466.4 224.259C1465.32 227.812 1464.04 231.419 1462.57 235.079C1456.86 249.272 1451.2 263.286 1445.61 277.119C1445.57 277.216 1445.56 277.321 1445.57 277.425C1445.58 277.529 1445.62 277.629 1445.67 277.716C1445.73 277.802 1445.81 277.874 1445.9 277.923C1445.99 277.972 1446.1 277.999 1446.2 277.999L1488.26 277.989C1488.32 277.987 1488.38 277.969 1488.43 277.936C1488.48 277.903 1488.52 277.857 1488.54 277.803C1488.57 277.749 1488.58 277.69 1488.57 277.63C1488.56 277.571 1488.54 277.516 1488.5 277.469C1488.38 277.316 1488.27 277.149 1488.2 276.969C1481.57 260.816 1474.96 244.389 1468.36 227.689C1468.11 227.056 1467.95 226.402 1467.86 225.729Z" fill="white"/>
<path d="M825.54 286.351L783.98 286.411L783.97 337.811C783.97 338.151 783.804 338.321 783.47 338.321L745.15 338.481C744.764 338.481 744.57 338.287 744.57 337.901L744.7 170.011C744.7 169.942 744.728 169.876 744.776 169.827C744.825 169.778 744.891 169.751 744.96 169.751C768.907 169.777 792.814 169.767 816.68 169.721C827.34 169.707 836.734 171.567 844.86 175.301C863.08 183.681 875 199.611 877.63 219.591C882.21 254.351 860.31 283.151 825.54 286.351ZM784 203.461L784.03 252.451C784.03 252.498 784.039 252.544 784.057 252.587C784.075 252.63 784.101 252.669 784.133 252.702C784.166 252.735 784.205 252.76 784.247 252.777C784.29 252.794 784.335 252.802 784.38 252.801C793.28 252.681 802.707 252.691 812.66 252.831C817.154 252.897 820.707 252.434 823.32 251.441C837.77 245.981 842.44 229.321 835.73 216.041C832.397 209.454 826.827 205.294 819.02 203.561C807.32 202.827 795.647 202.794 784 203.461Z" fill="white"/>
<path d="M1272.92 169.76L1405.46 169.75L1405.14 202.22C1405.14 202.468 1405.04 202.704 1404.86 202.878C1404.69 203.052 1404.45 203.15 1404.21 203.15H1359.98C1359.73 203.15 1359.49 203.198 1359.26 203.293C1359.03 203.387 1358.83 203.525 1358.65 203.698C1358.48 203.872 1358.34 204.078 1358.25 204.305C1358.16 204.532 1358.11 204.775 1358.11 205.02L1358.13 337.56C1358.13 337.651 1358.11 337.742 1358.08 337.826C1358.04 337.911 1357.99 337.987 1357.93 338.051C1357.86 338.116 1357.79 338.166 1357.7 338.2C1357.62 338.234 1357.53 338.251 1357.44 338.25L1320.55 338.21C1320.38 338.21 1320.21 338.142 1320.09 338.02C1319.97 337.898 1319.9 337.732 1319.9 337.56C1319.91 293.533 1319.92 249.597 1319.91 205.75C1319.91 204.783 1319.69 204.117 1319.25 203.75C1319 203.337 1318.75 203.13 1318.5 203.13C1303.44 203.15 1288.41 203.147 1273.41 203.12C1273.34 203.12 1273.27 203.106 1273.2 203.078C1273.13 203.051 1273.07 203.01 1273.02 202.959C1272.97 202.908 1272.93 202.847 1272.9 202.78C1272.87 202.714 1272.86 202.642 1272.86 202.57L1272.92 169.76Z" fill="white"/>
<path d="M1244.68 281.52C1244.07 294.433 1244 307.353 1244.47 320.28C1241.84 334.99 1230.85 342.33 1216.5 342.29C1211.34 342.277 1206.01 342.26 1200.51 342.24L1200.61 293.96L1200.84 243.36C1200.84 242.953 1201.04 242.75 1201.44 242.75H1244.55C1244.85 242.75 1245 242.9 1244.99 243.2L1244.68 281.52Z" fill="white"/>
<path d="M1272.78 242.811C1272.46 242.864 1272.3 243.094 1272.3 243.501C1272.08 263.387 1272.1 280.554 1272.36 295.001C1271.24 303.401 1266.53 308.541 1258.25 310.421L1253.52 310.211C1253.3 310.2 1253.1 310.108 1252.94 309.952C1252.79 309.795 1252.7 309.587 1252.7 309.371L1252.51 283.251L1252.59 243.341C1252.59 243.001 1252.76 242.831 1253.09 242.831L1272.78 242.811Z" fill="white"/>
</g>
<defs>
<clipPath id="clip0_986_41">
<rect width="1555" height="457" fill="white"/>
</clipPath>
</defs>
</svg>
