<svg width="1501" height="456" viewBox="0 0 1501 456" fill="none" xmlns="http://www.w3.org/2000/svg">
<g clip-path="url(#clip0_991_150)">
<path d="M209.946 42.5388C160.346 65.1688 124.236 109.839 106.366 161.529C101.82 174.675 98.8597 187.702 97.4863 200.609C97.1663 203.669 97.103 206.829 97.2963 210.089C97.3019 210.188 97.2853 210.288 97.2475 210.38C97.2098 210.472 97.1519 210.555 97.0781 210.622C97.0043 210.689 96.9165 210.739 96.8211 210.768C96.7256 210.797 96.6249 210.804 96.5264 210.789C96.1464 210.735 95.7697 210.749 95.3963 210.829C95.2914 210.849 95.1834 210.846 95.0796 210.821C94.9758 210.796 94.8788 210.748 94.7952 210.681C94.7116 210.615 94.6434 210.531 94.5952 210.436C94.5471 210.34 94.5202 210.236 94.5163 210.129C93.3697 173.769 101.51 139.045 118.936 105.959C144.956 56.5588 190.626 13.4988 245.676 0.0887902C246.189 -0.0295967 246.72 -0.0295967 247.226 0.0887902C266.966 4.83879 285.636 12.6888 301.946 24.8588C302.493 25.2655 302.423 25.4588 301.736 25.4388C269.986 24.4188 238.626 29.4588 209.946 42.5388Z" fill="white"/>
<path d="M0.498304 175.839C4.2283 124.799 29.7583 78.549 70.3483 47.759C104.528 21.829 147.838 8.78902 190.908 12.619C191.728 12.6924 191.765 12.9024 191.018 13.249C166.832 24.569 146.048 39.4624 128.668 57.9291C43.5583 148.369 69.4883 304.939 176.288 366.109C176.655 366.322 176.838 366.639 176.838 367.059L176.828 455.729C176.828 455.775 176.816 455.819 176.792 455.859C176.769 455.898 176.736 455.93 176.697 455.952C176.658 455.973 176.614 455.984 176.57 455.981C176.526 455.979 176.484 455.965 176.448 455.939C140.888 432.966 108.888 405.752 80.4483 374.299C42.9983 332.869 12.9683 282.689 3.34831 227.049C0.254977 209.189 -0.69503 192.119 0.498304 175.839Z" fill="white"/>
<path d="M263.477 222.65C286.357 173.91 255.267 117.21 202.407 108.79C197.407 107.996 190.757 107.653 182.457 107.76C175.437 107.853 168.494 107.86 161.627 107.78C161.593 107.78 161.561 107.769 161.533 107.751C161.505 107.732 161.483 107.706 161.47 107.675C161.457 107.644 161.454 107.609 161.461 107.577C161.467 107.544 161.483 107.513 161.507 107.49C195.407 68.9496 243.757 47.1396 295.257 47.3096C295.745 47.3096 296.22 47.4635 296.617 47.7496C328.227 70.4796 350.517 106.25 360.657 143.33C383.097 225.32 342.947 310.71 267.177 347.81C243.744 359.283 218.304 365.22 190.857 365.62C189.617 365.64 188.477 365.333 187.437 364.7C186.45 364.1 185.514 363.443 184.627 362.73C154.414 338.463 134.034 307.63 123.487 270.23C123.47 270.166 123.468 270.1 123.481 270.036C123.494 269.972 123.521 269.912 123.56 269.86C123.6 269.807 123.651 269.765 123.709 269.736C123.767 269.706 123.832 269.69 123.897 269.69C146.23 269.73 168.07 269.723 189.417 269.67C221.707 269.6 249.857 251.66 263.477 222.65Z" fill="white"/>
<path d="M535.648 82.9398C544.128 69.2998 559.168 64.4398 574.698 66.4298C615.228 71.6098 616.768 131.45 577.788 140.44C573.068 141.526 567.984 141.79 562.538 141.23C546.178 139.55 534.118 128.52 531.008 112.23C529.158 102.54 530.438 91.3298 535.648 82.9398ZM568.411 126.178C571.15 126.139 573.854 125.521 576.369 124.357C578.884 123.194 581.16 121.508 583.068 119.397C584.976 117.285 586.478 114.789 587.488 112.051C588.498 109.313 588.997 106.386 588.956 103.438C588.914 100.491 588.334 97.5791 587.248 94.8703C586.162 92.1614 584.591 89.7082 582.625 87.6508C580.659 85.5934 578.336 83.972 575.79 82.8792C573.244 81.7865 570.523 81.2437 567.784 81.282C565.045 81.3202 562.341 81.9387 559.826 83.1022C557.311 84.2656 555.035 85.9512 553.127 88.0628C551.219 90.1743 549.718 92.6704 548.707 95.4085C547.697 98.1466 547.198 101.073 547.24 104.021C547.281 106.969 547.861 109.88 548.947 112.589C550.034 115.298 551.604 117.751 553.57 119.809C555.536 121.866 557.859 123.488 560.405 124.58C562.952 125.673 565.672 126.216 568.411 126.178Z" fill="white"/>
<path d="M724.347 136.638C711.597 139.638 697.357 137.038 688.127 127.128C680.107 118.508 677.857 106.598 679.577 94.9983C682.667 74.1883 701.297 64.2783 721.037 66.7883C742.627 69.5383 753.457 88.7083 749.967 109.368C747.687 122.868 737.567 133.528 724.347 136.638ZM715.121 124.486C717.872 124.448 720.587 123.829 723.113 122.664C725.639 121.499 727.925 119.812 729.841 117.699C731.757 115.585 733.266 113.087 734.28 110.346C735.295 107.605 735.796 104.676 735.755 101.726C735.714 98.7753 735.131 95.8612 734.04 93.15C732.95 90.4387 731.372 87.9835 729.398 85.9243C727.423 83.8651 725.091 82.2424 722.534 81.1488C719.976 80.0552 717.244 79.5121 714.493 79.5505C711.742 79.5889 709.026 80.2081 706.501 81.3727C703.975 82.5373 701.689 84.2245 699.773 86.338C697.857 88.4514 696.348 90.9498 695.334 93.6904C694.319 96.4311 693.818 99.3602 693.859 102.311C693.9 105.261 694.483 108.175 695.574 110.887C696.664 113.598 698.242 116.053 700.216 118.112C702.191 120.171 704.523 121.794 707.08 122.888C709.638 123.981 712.37 124.525 715.121 124.486Z" fill="white"/>
<path d="M773.949 105.02L768.359 136.08C768.292 136.466 768.062 136.66 767.669 136.66L754.049 136.65C753.981 136.649 753.914 136.634 753.852 136.605C753.791 136.576 753.737 136.533 753.694 136.481C753.651 136.428 753.62 136.367 753.604 136.301C753.587 136.235 753.585 136.166 753.599 136.1L767.259 67.5296C767.592 65.8296 768.185 65.7329 769.039 67.2396L793.499 110.42C793.528 110.471 793.571 110.513 793.622 110.543C793.673 110.573 793.731 110.588 793.789 110.588C793.847 110.588 793.904 110.573 793.953 110.543C794.002 110.513 794.042 110.471 794.069 110.42C802.362 95.7263 810.652 81.0896 818.939 66.5096C819.099 66.2363 819.365 66.1629 819.739 66.2896C819.84 66.3264 819.929 66.388 819.999 66.4685C820.069 66.549 820.117 66.6458 820.139 66.7496L833.979 136.3C834.025 136.533 833.932 136.65 833.699 136.65L819.869 136.59C819.797 136.591 819.727 136.566 819.672 136.52C819.617 136.474 819.581 136.41 819.569 136.34L813.579 105.02C813.479 104.493 813.299 104.463 813.039 104.93L794.579 137.48C794.507 137.602 794.405 137.704 794.282 137.774C794.16 137.845 794.02 137.882 793.879 137.882C793.737 137.882 793.598 137.845 793.475 137.774C793.352 137.704 793.25 137.602 793.179 137.48L774.579 104.91C774.265 104.37 774.055 104.406 773.949 105.02Z" fill="white"/>
<path d="M879.706 97.5184L879.696 136.218C879.696 136.498 879.556 136.638 879.276 136.638L865.936 136.618C865.536 136.618 865.336 136.418 865.336 136.018L865.356 66.8684C865.356 66.742 865.392 66.6183 865.461 66.5123C865.53 66.4064 865.628 66.3228 865.744 66.2719C865.86 66.221 865.988 66.2049 866.112 66.2256C866.237 66.2462 866.353 66.3028 866.446 66.3884L910.126 106.668C910.161 106.701 910.206 106.723 910.253 106.731C910.301 106.74 910.35 106.734 910.394 106.715C910.439 106.696 910.477 106.664 910.504 106.624C910.531 106.584 910.545 106.537 910.546 106.488L910.506 68.0184C910.506 67.8619 910.568 67.7118 910.679 67.6012C910.789 67.4905 910.939 67.4284 911.096 67.4284L924.486 67.3984C924.597 67.3984 924.704 67.4426 924.783 67.5214C924.862 67.6001 924.906 67.707 924.906 67.8184L924.896 137.298C924.896 137.932 924.623 138.095 924.076 137.788C923.749 137.602 923.456 137.392 923.196 137.158C909.509 124.545 895.156 111.268 880.136 97.3284C880.099 97.2962 880.053 97.2752 880.004 97.2679C879.956 97.2606 879.906 97.2673 879.861 97.2872C879.816 97.3071 879.777 97.3394 879.75 97.3803C879.722 97.4212 879.707 97.4691 879.706 97.5184Z" fill="white"/>
<path d="M1013.64 133.519C1005.35 137.579 994.736 138.709 985.946 137.119C967.616 133.819 956.966 119.799 957.256 101.379C957.546 82.5195 970.276 68.2595 989.176 66.5895C997.186 65.8795 1005.5 66.7895 1012.5 70.7295C1012.83 70.9228 1013 71.2095 1013 71.5895L1012.99 84.7895C1012.99 85.2895 1012.78 85.4028 1012.37 85.1295C1004.14 79.6995 991.846 77.6095 983.216 82.3995C969.316 90.1095 968.326 111.829 981.586 120.619C990.866 126.759 1004.59 124.609 1013.66 118.759C1013.7 118.73 1013.75 118.714 1013.8 118.711C1013.86 118.709 1013.91 118.722 1013.96 118.748C1014 118.774 1014.04 118.812 1014.07 118.858C1014.09 118.904 1014.11 118.956 1014.11 119.009V132.759C1014.11 132.918 1014.06 133.074 1013.98 133.208C1013.9 133.342 1013.78 133.45 1013.64 133.519Z" fill="white"/>
<path d="M1036.08 126.588L1031.93 136.198C1031.8 136.485 1031.58 136.628 1031.28 136.628H1017.05C1017 136.629 1016.94 136.615 1016.9 136.589C1016.85 136.564 1016.81 136.526 1016.78 136.48C1016.75 136.435 1016.74 136.382 1016.73 136.328C1016.73 136.273 1016.74 136.219 1016.76 136.168L1048.32 66.7383C1048.38 66.6042 1048.48 66.4906 1048.6 66.411C1048.73 66.3314 1048.87 66.2891 1049.02 66.2891C1049.17 66.2891 1049.31 66.3314 1049.43 66.411C1049.56 66.4906 1049.66 66.6042 1049.72 66.7383L1081.2 136.278C1081.21 136.316 1081.22 136.358 1081.22 136.399C1081.21 136.441 1081.2 136.481 1081.18 136.516C1081.16 136.55 1081.12 136.579 1081.09 136.599C1081.05 136.618 1081.01 136.628 1080.97 136.628L1065.95 136.588C1065.85 136.588 1065.76 136.559 1065.68 136.506C1065.6 136.453 1065.54 136.377 1065.5 136.288L1061.44 126.528C1061.3 126.195 1061.04 126.028 1060.68 126.028H1036.93C1036.52 126.028 1036.24 126.215 1036.08 126.588ZM1040.9 114.078C1040.88 114.13 1040.87 114.187 1040.87 114.243C1040.88 114.299 1040.9 114.353 1040.93 114.4C1040.96 114.446 1041.01 114.484 1041.06 114.51C1041.11 114.536 1041.16 114.549 1041.22 114.548H1056.4C1056.45 114.549 1056.51 114.536 1056.56 114.51C1056.61 114.484 1056.65 114.446 1056.69 114.4C1056.72 114.353 1056.74 114.299 1056.74 114.243C1056.75 114.187 1056.74 114.13 1056.72 114.078L1049.12 96.1183C1049.09 96.0586 1049.05 96.0079 1048.99 95.9724C1048.94 95.9368 1048.87 95.9179 1048.81 95.9179C1048.74 95.9179 1048.68 95.9368 1048.62 95.9724C1048.57 96.0079 1048.53 96.0586 1048.5 96.1183L1040.9 114.078Z" fill="white"/>
<path d="M1130.87 106.549L1130.86 67.8887C1130.86 67.562 1131.02 67.3986 1131.36 67.3986L1144.52 67.4187C1144.97 67.4187 1145.2 67.6453 1145.2 68.0987V137.029C1145.2 137.829 1144.84 138.055 1144.12 137.709C1143.96 137.635 1143.83 137.542 1143.71 137.429C1129.16 123.962 1114.74 110.612 1100.46 97.3787C1100.42 97.3395 1100.36 97.3133 1100.31 97.3032C1100.25 97.2932 1100.2 97.2997 1100.14 97.3221C1100.09 97.3445 1100.05 97.3816 1100.02 97.429C1099.98 97.4764 1099.97 97.5319 1099.97 97.5886V136.219C1099.97 136.512 1099.82 136.659 1099.53 136.659L1086.02 136.609C1085.8 136.602 1085.69 136.492 1085.69 136.279V66.8587C1085.69 66.7351 1085.72 66.6143 1085.79 66.5111C1085.86 66.4078 1085.96 66.3264 1086.07 66.2767C1086.18 66.227 1086.31 66.2111 1086.43 66.231C1086.55 66.2508 1086.67 66.3056 1086.76 66.3887L1130.48 106.719C1130.51 106.75 1130.55 106.772 1130.6 106.78C1130.64 106.788 1130.69 106.783 1130.73 106.764C1130.77 106.746 1130.81 106.716 1130.83 106.677C1130.86 106.639 1130.87 106.594 1130.87 106.549Z" fill="white"/>
<path d="M1193.5 126.03H1169.75C1169.59 126.03 1169.44 126.075 1169.31 126.16C1169.17 126.246 1169.07 126.367 1169.01 126.51L1164.81 136.24C1164.7 136.493 1164.51 136.62 1164.23 136.62L1150.14 136.66C1149.68 136.66 1149.54 136.45 1149.74 136.03C1159.92 113.59 1170.42 90.49 1181.24 66.73C1181.31 66.5633 1181.43 66.4366 1181.59 66.35C1181.68 66.3019 1181.77 66.2723 1181.87 66.263C1181.97 66.2536 1182.07 66.2648 1182.17 66.2958C1182.26 66.3268 1182.35 66.3769 1182.42 66.443C1182.5 66.5091 1182.56 66.5898 1182.6 66.68L1214.18 136.43C1214.19 136.457 1214.2 136.488 1214.2 136.518C1214.2 136.549 1214.19 136.578 1214.17 136.604C1214.15 136.63 1214.13 136.652 1214.11 136.667C1214.08 136.682 1214.05 136.69 1214.02 136.69L1199.04 136.59C1198.72 136.59 1198.49 136.44 1198.37 136.14L1194.37 126.6C1194.21 126.22 1193.92 126.03 1193.5 126.03ZM1173.79 114.08C1173.77 114.131 1173.76 114.186 1173.76 114.241C1173.77 114.296 1173.79 114.349 1173.82 114.394C1173.85 114.44 1173.89 114.478 1173.94 114.503C1173.99 114.528 1174.04 114.541 1174.1 114.54H1189.32C1189.37 114.541 1189.43 114.528 1189.48 114.503C1189.53 114.478 1189.57 114.44 1189.6 114.394C1189.63 114.349 1189.65 114.296 1189.65 114.241C1189.66 114.186 1189.65 114.131 1189.63 114.08L1182.01 96.11C1181.98 96.0525 1181.94 96.0038 1181.89 95.9697C1181.83 95.9356 1181.77 95.9174 1181.71 95.9174C1181.64 95.9174 1181.58 95.9356 1181.53 95.9697C1181.48 96.0038 1181.43 96.0525 1181.41 96.11L1173.79 114.08Z" fill="white"/>
<path d="M431.667 117.829V139.879C431.667 140.245 431.484 140.429 431.117 140.429H415.277C414.897 140.429 414.707 140.239 414.707 139.859V67.7388C414.707 67.2988 414.927 67.0755 415.367 67.0688C420.594 67.0488 425.767 67.0454 430.887 67.0588C442.977 67.1088 460.937 66.0288 466.807 79.6988C469.054 84.9255 469.674 90.9088 468.667 97.6488C465.907 116.079 447.507 117.489 432.297 117.209C431.877 117.202 431.667 117.409 431.667 117.829ZM431.657 81.2088V102.929C431.657 102.982 431.678 103.033 431.716 103.07C431.753 103.108 431.804 103.129 431.857 103.129H440.717C443.672 103.129 446.505 102.112 448.594 100.302C450.683 98.4926 451.857 96.0381 451.857 93.4788V90.6588C451.857 88.0994 450.683 85.6449 448.594 83.8352C446.505 82.0255 443.672 81.0088 440.717 81.0088H431.857C431.804 81.0088 431.753 81.0298 431.716 81.0674C431.678 81.1049 431.657 81.1558 431.657 81.2088Z" fill="white"/>
<path d="M514.117 113.339C514.072 113.355 514.031 113.381 513.998 113.415C513.965 113.45 513.94 113.491 513.926 113.537C513.911 113.582 513.907 113.63 513.914 113.678C513.922 113.725 513.94 113.77 513.967 113.809L531.737 139.989C531.769 140.032 531.787 140.084 531.791 140.138C531.795 140.191 531.784 140.245 531.759 140.293C531.734 140.341 531.697 140.381 531.65 140.408C531.604 140.436 531.551 140.45 531.497 140.449L511.997 140.419C511.89 140.418 511.784 140.391 511.69 140.338C511.596 140.286 511.515 140.21 511.457 140.119L496.497 116.469C496.31 116.169 496.04 116.019 495.687 116.019L490.947 116.009C490.58 116.009 490.397 116.192 490.397 116.559V139.769C490.397 140.215 490.174 140.439 489.727 140.439L474.147 140.419C473.687 140.419 473.457 140.189 473.457 139.729V67.7288C473.457 67.636 473.475 67.5442 473.511 67.4586C473.547 67.373 473.6 67.2954 473.666 67.2303C473.732 67.1651 473.81 67.1138 473.896 67.0792C473.982 67.0446 474.074 67.0275 474.167 67.0288C478.914 67.1221 484.09 67.1288 489.697 67.0488C500.397 66.8988 509.987 67.0088 518.227 72.0188C526.897 77.2888 527.737 89.9888 525.867 98.9988C524.407 106.052 520.49 110.832 514.117 113.339ZM490.217 81.3388L490.257 101.639C490.257 101.702 490.282 101.764 490.327 101.809C490.372 101.854 490.433 101.879 490.497 101.879L499.387 101.859C501.994 101.853 504.492 100.975 506.331 99.4189C508.171 97.8624 509.202 95.7545 509.197 93.5588V89.3388C509.195 88.2513 508.938 87.175 508.442 86.1713C507.945 85.1676 507.219 84.2562 506.305 83.4891C505.39 82.7221 504.305 82.1145 503.111 81.7009C501.917 81.2873 500.638 81.0759 499.347 81.0788L490.457 81.0988C490.393 81.0988 490.332 81.1241 490.287 81.1691C490.242 81.2141 490.217 81.2751 490.217 81.3388Z" fill="white"/>
<path d="M654.095 133.408C653.515 133.728 652.915 133.955 652.295 134.088C649.902 134.622 647.435 135.138 644.895 135.638C642.142 136.178 639.625 136.468 637.345 136.508C629.865 136.628 622.472 136.662 615.165 136.608C615.064 136.606 614.967 136.565 614.896 136.494C614.825 136.423 614.785 136.328 614.785 136.228V67.8584C614.785 67.7567 614.825 67.659 614.896 67.5861C614.967 67.5133 615.063 67.471 615.165 67.4684C624.732 67.2418 633.492 67.3684 641.445 67.8484C647.005 68.1784 654.605 69.4984 659.635 72.1984C671.985 78.8184 674.925 90.5685 674.475 103.678C674.005 117.318 669.125 128.008 655.555 132.758C655.062 132.932 654.575 133.148 654.095 133.408ZM629.505 79.9784L629.425 123.968C629.418 124.328 629.595 124.515 629.955 124.528C635.348 124.775 640.528 124.158 645.495 122.678C651.082 121.018 654.975 117.842 657.175 113.148C660.365 106.348 660.595 93.6684 655.895 87.1584C650.815 80.1484 638.385 79.2284 629.995 79.4784C629.668 79.4918 629.505 79.6584 629.505 79.9784Z" fill="white"/>
<path d="M840.446 130.29C840.38 108.05 840.35 87.2099 840.356 67.7699C840.356 67.6798 840.393 67.5933 840.459 67.5295C840.524 67.4657 840.614 67.4299 840.706 67.4299L854.476 67.4199C854.903 67.4199 855.116 67.6332 855.116 68.0599V136.24C855.116 136.527 854.976 136.663 854.696 136.65C852.416 136.557 850.003 136.55 847.456 136.63C843.696 136.75 840.456 134.19 840.446 130.29Z" fill="white"/>
<path d="M935.496 67.4299L949.376 67.4199C949.729 67.4199 949.906 67.5999 949.906 67.9599V136.25C949.906 136.617 949.722 136.783 949.356 136.75C947.462 136.583 945.426 136.56 943.246 136.68C938.826 136.91 935.156 134.66 935.156 130C935.136 109.42 935.136 88.6799 935.156 67.7799C935.156 67.5466 935.269 67.4299 935.496 67.4299Z" fill="white"/>
<path d="M518.387 167.04C538.517 169.38 556.637 178.9 571.387 193.48C571.654 193.74 571.661 194.003 571.408 194.27L548.127 219C548.096 219.033 548.058 219.058 548.016 219.075C547.974 219.092 547.928 219.1 547.883 219.098C547.838 219.096 547.793 219.085 547.752 219.064C547.712 219.044 547.676 219.015 547.648 218.98C528.298 195.32 491.798 193.91 470.488 215.28C446.818 239.03 449.428 280.74 477.588 299.96C500.078 315.32 530.157 310.98 547.687 290.44C547.725 290.396 547.772 290.361 547.824 290.337C547.876 290.313 547.933 290.3 547.99 290.299C548.048 290.298 548.105 290.309 548.158 290.332C548.211 290.354 548.258 290.388 548.298 290.43L571.577 315.15C571.635 315.212 571.666 315.294 571.664 315.379C571.662 315.465 571.628 315.547 571.567 315.61C553.437 333.81 529.038 344 503.288 342.81C463.248 340.96 428.668 315.1 418.108 276.25C412.218 254.59 415.477 230.68 427.247 211.01C446.257 179.25 481.877 162.81 518.387 167.04Z" fill="white"/>
<path d="M755.488 254.58C755.488 278.001 745.778 300.463 728.495 317.024C711.212 333.586 687.77 342.89 663.328 342.89C638.886 342.89 615.444 333.586 598.161 317.024C580.878 300.463 571.168 278.001 571.168 254.58C571.168 231.158 580.878 208.696 598.161 192.135C615.444 175.574 638.886 166.27 663.328 166.27C687.77 166.27 711.212 175.574 728.495 192.135C745.778 208.696 755.488 231.158 755.488 254.58ZM663.263 309.329C677.351 309.354 690.872 303.62 700.852 293.388C710.832 283.157 716.453 269.266 716.478 254.772C716.503 240.278 710.931 226.368 700.987 216.102C691.043 205.836 677.542 200.054 663.453 200.03C649.365 200.005 635.844 205.739 625.864 215.971C615.884 226.202 610.263 240.093 610.238 254.587C610.213 269.081 615.785 282.991 625.729 293.257C635.673 303.524 649.174 309.305 663.263 309.329Z" fill="white"/>
<path d="M1367.38 199.259L1344.87 223.169C1344.83 223.214 1344.77 223.25 1344.72 223.274C1344.66 223.298 1344.6 223.311 1344.54 223.31C1344.48 223.309 1344.42 223.295 1344.37 223.269C1344.31 223.243 1344.26 223.205 1344.23 223.159C1320.19 194.459 1273.57 199.529 1256.95 233.679C1245.45 257.309 1250.98 285.979 1271.85 302.459C1294.11 320.049 1326.24 315.849 1344.38 294.639C1344.41 294.602 1344.45 294.572 1344.49 294.551C1344.54 294.53 1344.58 294.518 1344.63 294.516C1344.68 294.515 1344.73 294.523 1344.77 294.54C1344.81 294.558 1344.85 294.585 1344.89 294.619L1368.15 319.329C1368.22 319.412 1368.27 319.523 1368.26 319.636C1368.26 319.75 1368.22 319.859 1368.14 319.939C1343.7 344.639 1308.84 353.109 1275.79 342.869C1237.16 330.899 1210.56 296.079 1212.03 255.289C1213.2 222.929 1232.9 194.789 1261.54 180.489C1296.63 162.959 1339.17 168.849 1367.27 197.059C1367.75 197.539 1367.99 197.443 1367.99 196.769L1367.98 175.039C1367.98 174.978 1368 174.92 1368.05 174.877C1368.09 174.833 1368.15 174.809 1368.22 174.809H1500.69C1501.11 174.809 1501.33 175.019 1501.33 175.439L1501.32 207.849C1501.32 208.303 1501.09 208.529 1500.65 208.529H1454.72C1454.38 208.529 1454.22 208.696 1454.22 209.029V342.789C1454.22 343.129 1454.05 343.299 1453.71 343.299H1415.44C1415.34 343.299 1415.24 343.259 1415.17 343.188C1415.1 343.117 1415.06 343.02 1415.06 342.919L1415.07 208.899C1415.07 208.801 1415.03 208.707 1414.96 208.638C1414.89 208.568 1414.79 208.529 1414.7 208.529H1368.47C1368.14 208.529 1367.98 208.369 1367.98 208.049L1367.99 199.499C1367.99 198.899 1367.79 198.819 1367.38 199.259Z" fill="white"/>
<path d="M1025.81 172.659H1066.88C1066.92 172.659 1066.96 172.667 1067 172.683C1067.04 172.699 1067.07 172.723 1067.1 172.752C1067.13 172.782 1067.16 172.817 1067.17 172.856C1067.19 172.895 1067.2 172.937 1067.2 172.979L1067.21 342.979C1067.21 343.064 1067.17 343.145 1067.11 343.205C1067.05 343.265 1066.97 343.299 1066.89 343.299L1031.2 343.289C1031.15 343.29 1031.1 343.28 1031.05 343.259C1031.01 343.239 1030.97 343.208 1030.94 343.169L897.516 173.159C897.478 173.112 897.454 173.055 897.447 172.995C897.441 172.935 897.451 172.874 897.477 172.82C897.503 172.766 897.544 172.72 897.595 172.688C897.646 172.656 897.705 172.639 897.766 172.639L939.906 172.659C939.953 172.657 940 172.667 940.043 172.686C940.086 172.705 940.125 172.733 940.156 172.769L1024.94 273.999C1024.98 274.051 1025.03 274.088 1025.1 274.107C1025.16 274.125 1025.23 274.123 1025.29 274.101C1025.35 274.079 1025.41 274.038 1025.45 273.984C1025.48 273.93 1025.51 273.865 1025.51 273.799L1025.49 172.979C1025.49 172.894 1025.52 172.812 1025.58 172.752C1025.64 172.692 1025.72 172.659 1025.81 172.659Z" fill="white"/>
<path d="M815.278 242.488L815.218 343.028C815.218 343.361 815.052 343.528 814.718 343.528H773.928C773.588 343.528 773.418 343.355 773.418 343.008L773.398 173.218C773.398 173.115 773.438 173.016 773.51 172.942C773.581 172.869 773.678 172.828 773.778 172.828H809.438C809.554 172.828 809.669 172.853 809.774 172.901C809.88 172.949 809.973 173.02 810.048 173.108C836.135 204.248 862.188 235.348 888.208 266.408C905.908 287.538 924.088 308.328 941.908 328.978C942.128 329.231 942.238 329.525 942.238 329.858L942.218 343.028C942.218 343.361 942.052 343.528 941.718 343.528L901.368 343.518C901.015 343.518 900.725 343.385 900.498 343.118L816.118 242.188C815.558 241.522 815.278 241.621 815.278 242.488Z" fill="white"/>
<path d="M1125.7 309.589H1205.6C1205.64 309.589 1205.69 309.598 1205.73 309.615C1205.77 309.633 1205.81 309.659 1205.84 309.691C1205.88 309.724 1205.9 309.762 1205.92 309.805C1205.94 309.847 1205.95 309.893 1205.95 309.939V342.939C1205.95 343.031 1205.91 343.12 1205.84 343.186C1205.78 343.252 1205.69 343.289 1205.6 343.289H1086.47C1086.37 343.289 1086.29 343.252 1086.22 343.186C1086.15 343.12 1086.12 343.031 1086.12 342.939V175.159C1086.12 175.066 1086.15 174.977 1086.22 174.911C1086.29 174.845 1086.37 174.809 1086.47 174.809H1204.44C1204.53 174.809 1204.62 174.845 1204.68 174.911C1204.75 174.977 1204.79 175.066 1204.79 175.159V208.299C1204.79 208.391 1204.75 208.48 1204.68 208.546C1204.62 208.612 1204.53 208.649 1204.44 208.649H1125.72C1125.62 208.649 1125.54 208.685 1125.47 208.751C1125.4 208.817 1125.37 208.906 1125.37 208.999L1125.35 242.709C1125.35 242.801 1125.38 242.89 1125.45 242.956C1125.52 243.022 1125.6 243.059 1125.7 243.059H1193.16C1193.25 243.059 1193.34 243.095 1193.4 243.161C1193.47 243.227 1193.51 243.316 1193.51 243.409L1193.53 276.439C1193.53 276.531 1193.49 276.62 1193.42 276.686C1193.36 276.752 1193.27 276.789 1193.18 276.789H1125.72C1125.62 276.789 1125.54 276.825 1125.47 276.891C1125.4 276.957 1125.37 277.046 1125.37 277.139L1125.35 309.239C1125.35 309.331 1125.38 309.42 1125.45 309.486C1125.52 309.552 1125.6 309.589 1125.7 309.589Z" fill="white"/>
<path d="M900.917 189.69L942.227 243.34C942.266 243.392 942.286 243.455 942.287 243.52L943.437 318.91C943.438 318.973 943.419 319.034 943.384 319.086C943.348 319.138 943.298 319.178 943.24 319.201C943.181 319.224 943.117 319.228 943.056 319.214C942.995 319.199 942.939 319.167 942.897 319.12L901.827 272.71C901.777 272.655 901.749 272.584 901.747 272.51L900.367 189.89C900.366 189.826 900.386 189.763 900.422 189.71C900.459 189.657 900.511 189.617 900.571 189.595C900.632 189.573 900.697 189.57 900.759 189.587C900.821 189.604 900.876 189.64 900.917 189.69Z" fill="white"/>
</g>
<defs>
<clipPath id="clip0_991_150">
<rect width="1501" height="456" fill="white"/>
</clipPath>
</defs>
</svg>
