<svg width="5749" height="2924" viewBox="0 0 5749 2924" fill="none" xmlns="http://www.w3.org/2000/svg">
<path d="M2783.18 217.328C2782.73 217.35 2782.29 217.282 2781.87 217.127C2781.45 216.972 2781.07 216.733 2780.75 216.426C2780.42 216.119 2780.17 215.749 2779.99 215.339C2779.82 214.929 2779.73 214.488 2779.73 214.043V212.072C2779.71 199.775 2782.11 187.595 2786.8 176.227C2791.5 164.859 2798.39 154.524 2807.08 145.814C2815.78 137.105 2826.1 130.189 2837.47 125.464C2848.84 120.738 2861.04 118.295 2873.35 118.274H2877.3C2889.61 118.252 2901.81 120.652 2913.2 125.338C2924.59 130.024 2934.94 136.903 2943.66 145.582C2952.39 154.261 2959.32 164.571 2964.05 175.923C2968.78 187.275 2971.23 199.447 2971.25 211.743V213.714C2971.25 214.558 2970.93 215.37 2970.35 215.981C2969.77 216.593 2968.97 216.957 2968.13 217L2783.18 217.328Z" fill="#1F3C73"/>
<path d="M2997.35 227.3L2753.59 227.725C2750.78 227.73 2748.5 230.014 2748.51 232.827L2748.52 240.712C2748.53 243.524 2750.81 245.8 2753.62 245.795L2997.38 245.37C3000.19 245.365 3002.47 243.081 3002.46 240.268L3002.45 232.383C3002.45 229.571 3000.16 227.295 2997.35 227.3Z" fill="#1F3C73"/>
<path d="M2819.31 255.605H2802.22C2796.15 255.605 2791.22 260.533 2791.22 266.612V387.843C2791.22 393.921 2796.15 398.849 2802.22 398.849H2819.31C2825.38 398.849 2830.31 393.921 2830.31 387.843V266.612C2830.31 260.533 2825.38 255.605 2819.31 255.605Z" fill="#1F3C73"/>
<path d="M2884.56 255.259L2865.51 255.292C2859.16 255.304 2854.02 260.461 2854.03 266.811L2854.24 387.714C2854.25 394.064 2859.41 399.204 2865.76 399.192L2884.81 399.159C2891.16 399.148 2896.3 393.991 2896.29 387.64L2896.08 266.738C2896.07 260.387 2890.91 255.248 2884.56 255.259Z" fill="#1F3C73"/>
<path d="M2946.2 255.415L2932.73 255.462C2925.47 255.487 2919.61 261.391 2919.63 268.649L2920.04 386.266C2920.07 393.524 2925.97 399.387 2933.23 399.361L2946.7 399.314C2953.95 399.289 2959.82 393.385 2959.79 386.127L2959.38 268.511C2959.36 261.253 2953.45 255.39 2946.2 255.415Z" fill="#1F3C73"/>
<path d="M2996.87 413.137H2755.09C2751.19 413.137 2748.02 416.299 2748.02 420.2V424.143C2748.02 428.044 2751.19 431.206 2755.09 431.206H2996.87C3000.77 431.206 3003.94 428.044 3003.94 424.143V420.2C3003.94 416.299 3000.77 413.137 2996.87 413.137Z" fill="#1F3C73"/>
<path d="M2255.58 1047.71C2261 786.687 2425.75 561.638 2659.65 454.698C2660.96 454.151 2661.95 454.479 2662.61 455.684L2662.77 455.848C2663.65 457.491 2663.32 458.86 2661.79 459.955C2470.92 584.964 2368.92 818.391 2350.03 1045.25C2349.7 1048.75 2347.73 1050.56 2344.11 1050.67L2259.85 1051.82C2257 1051.93 2255.58 1050.56 2255.58 1047.71Z" fill="#1F3C73"/>
<path d="M3400.78 1036.21C3382.71 810.505 3278.58 590.384 3090.01 459.625C3088.15 458.311 3087.76 456.668 3088.86 454.697H3089.02C3089.79 453.383 3090.83 453.054 3092.14 453.711C3336.23 571.219 3471.74 765.495 3498.68 1036.54C3499.67 1046.18 3495.34 1050.94 3485.7 1050.83L3416.22 1050.5C3406.7 1050.5 3401.55 1045.74 3400.78 1036.21Z" fill="#1F3C73"/>
<path d="M2755.74 480.98C2623.52 635.722 2572.1 842.866 2572.92 1048.04C2572.92 1050.23 2571.83 1051.32 2569.64 1051.32L2414.25 1051.16C2413.68 1051.16 2413.12 1051.05 2412.6 1050.82C2412.08 1050.59 2411.61 1050.26 2411.23 1049.84C2410.84 1049.43 2410.54 1048.93 2410.36 1048.4C2410.17 1047.86 2410.1 1047.29 2410.15 1046.73C2421.81 818.719 2544.02 582.335 2750.65 474.574C2763.46 467.894 2765.16 470.029 2755.74 480.98Z" fill="#1F3C73"/>
<path d="M3178.05 1046.89C3181.99 851.572 3129.1 638.021 3001.64 487.879C2986.53 470.138 2989.1 466.962 3009.36 478.351C3209.75 590.712 3330.81 818.061 3341.49 1047.22C3341.6 1049.41 3340.5 1050.5 3338.2 1050.5L3182.32 1051.16C3181.77 1051.18 3181.22 1051.09 3180.7 1050.88C3180.18 1050.68 3179.71 1050.37 3179.31 1049.97C3178.91 1049.57 3178.6 1049.09 3178.38 1048.56C3178.16 1048.03 3178.05 1047.46 3178.05 1046.89Z" fill="#1F3C73"/>
<path d="M2633.7 1040.98C2633.21 844.839 2692.01 609.112 2836.39 485.253C2836.96 484.795 2837.65 484.505 2838.38 484.416C2839.11 484.327 2839.84 484.442 2840.51 484.75C2841.17 485.057 2841.74 485.543 2842.15 486.154C2842.55 486.766 2842.78 487.477 2842.8 488.21V1042.29C2842.8 1044.56 2841.9 1046.73 2840.3 1048.33C2838.69 1049.93 2836.52 1050.83 2834.26 1050.83L2644.38 1051.82C2637.26 1051.82 2633.7 1048.21 2633.7 1040.98Z" fill="#1F3C73"/>
<path d="M2909.32 512.521C2909.32 505.457 2906.53 498.558 2906.69 492.151C2906.75 490.883 2907.16 489.657 2907.89 488.614C2908.61 487.57 2909.61 486.753 2910.78 486.255C2911.95 485.757 2913.23 485.599 2914.49 485.799C2915.74 486 2916.91 486.55 2917.86 487.387C3063.4 620.939 3120.72 850.587 3118.26 1042.62C3118.21 1044.94 3117.26 1047.16 3115.6 1048.79C3113.94 1050.41 3111.71 1051.33 3109.39 1051.32L2919.18 1050.83C2917.68 1050.83 2916.19 1050.53 2914.8 1049.95C2913.42 1049.37 2912.16 1048.52 2911.11 1047.45C2910.05 1046.38 2909.22 1045.12 2908.66 1043.72C2908.1 1042.33 2907.82 1040.84 2907.84 1039.33C2910.03 858.637 2910.53 683.032 2909.32 512.521Z" fill="#1F3C73"/>
<path d="M2921.48 1095.84L3102.16 1095.68C3108.29 1095.68 3111.63 1092.61 3112.18 1086.48L3112.84 1078.92C3113.12 1076.26 3114.37 1073.79 3116.37 1071.98C3118.36 1070.16 3120.96 1069.13 3123.68 1069.07L3170.82 1068.74C3172.59 1068.75 3174.33 1069.13 3175.94 1069.86C3177.55 1070.59 3178.97 1071.66 3180.13 1072.98C3181.28 1074.31 3182.13 1075.86 3182.62 1077.54C3183.11 1079.22 3183.23 1080.98 3182.98 1082.7C3182.65 1084.34 3182.59 1085.99 3182.81 1087.63C3183.36 1092.89 3186.26 1095.51 3191.52 1095.51L3323.74 1095.84C3330.1 1095.95 3334.15 1092.94 3335.9 1086.81C3336.45 1084.84 3336.61 1082.87 3336.39 1080.89C3336.25 1079.35 3336.44 1077.8 3336.94 1076.34C3337.44 1074.88 3338.25 1073.54 3339.3 1072.41C3340.35 1071.27 3341.63 1070.38 3343.06 1069.77C3344.48 1069.17 3346.02 1068.87 3347.56 1068.9L3394.7 1069.23C3401.05 1069.23 3404.72 1072.41 3405.71 1078.76L3407.19 1088.12C3408.06 1093.38 3411.13 1096.01 3416.38 1096.01L3527.75 1095.68C3528.61 1095.68 3529.47 1095.85 3530.26 1096.2C3531.05 1096.54 3531.76 1097.05 3532.35 1097.68C3532.94 1098.31 3533.38 1099.06 3533.67 1099.87C3533.95 1100.69 3534.06 1101.55 3533.99 1102.41L3533.66 1106.85C3533.12 1113.31 3529.61 1116.54 3523.15 1116.54H2229.63C2227.02 1116.54 2224.5 1115.62 2222.54 1113.96C2220.58 1112.3 2219.31 1110.01 2218.95 1107.51L2218.13 1101.43C2217.58 1097.81 2219.17 1096.01 2222.89 1096.01L2334.92 1095.68C2339.73 1095.68 2342.91 1093.32 2344.44 1088.62C2344.99 1086.97 2345.04 1085.06 2344.61 1082.87C2342.75 1073.78 2346.47 1069.23 2355.78 1069.23L2406.04 1069.4C2412.83 1069.4 2415.84 1072.74 2415.07 1079.42C2414.64 1082.37 2414.91 1085.22 2415.89 1087.96C2417.54 1093.11 2421.1 1095.68 2426.57 1095.68L2556.66 1095.84C2559.44 1095.83 2562.13 1094.83 2564.21 1093.02C2566.29 1091.2 2567.64 1088.71 2568 1085.99L2568.65 1080.4C2569.09 1077.15 2570.7 1074.17 2573.18 1072.03C2575.66 1069.88 2578.84 1068.71 2582.12 1068.74L2628.44 1069.07C2629.87 1069.09 2631.28 1069.42 2632.56 1070.05C2633.85 1070.67 2634.98 1071.58 2635.87 1072.69C2636.77 1073.81 2637.41 1075.1 2637.74 1076.49C2638.07 1077.88 2638.1 1079.33 2637.81 1080.73C2637.48 1082.7 2637.48 1084.73 2637.81 1086.81C2638.68 1092.72 2642.13 1095.68 2648.15 1095.68L2829.17 1095.84C2835.3 1095.84 2838.14 1092.83 2837.71 1086.81C2837.49 1084.84 2837.54 1082.87 2837.87 1080.89C2838.86 1073.01 2843.29 1069.12 2851.18 1069.23H2901.77C2908.01 1069.34 2911.68 1072.46 2912.77 1078.6L2914.74 1090.09C2915.4 1093.93 2917.65 1095.84 2921.48 1095.84Z" fill="#1F3C73"/>
<path d="M2406.61 1137.42L2355.04 1137.06C2349.5 1137.02 2344.98 1141.47 2344.95 1147.01L2344.6 1196.62C2344.56 1202.15 2349.02 1206.67 2354.55 1206.71L2406.12 1207.07C2411.66 1207.11 2416.18 1202.65 2416.21 1197.12L2416.56 1147.51C2416.6 1141.97 2412.14 1137.46 2406.61 1137.42Z" fill="#1F3C73"/>
<path d="M2628.22 1137.03L2578.29 1137.12C2572.75 1137.13 2568.27 1141.62 2568.28 1147.16L2568.37 1197.1C2568.38 1202.63 2572.87 1207.11 2578.41 1207.1L2628.34 1207.01C2633.88 1207 2638.35 1202.51 2638.34 1196.97L2638.26 1147.04C2638.25 1141.5 2633.75 1137.02 2628.22 1137.03Z" fill="#1F3C73"/>
<path d="M2904.35 1137.34L2847.52 1137.14C2842.17 1137.12 2837.81 1141.44 2837.79 1146.8L2837.62 1197.06C2837.6 1202.42 2841.92 1206.77 2847.28 1206.79L2904.11 1206.99C2909.46 1207.01 2913.82 1202.68 2913.83 1197.33L2914.01 1147.06C2914.03 1141.71 2909.7 1137.36 2904.35 1137.34Z" fill="#1F3C73"/>
<path d="M3173.31 1137.04L3122.71 1136.78C3117.18 1136.75 3112.67 1141.21 3112.64 1146.75L3112.38 1196.68C3112.35 1202.22 3116.81 1206.73 3122.35 1206.76L3172.94 1207.02C3178.47 1207.05 3182.98 1202.59 3183.01 1197.05L3183.27 1147.12C3183.3 1141.58 3178.84 1137.07 3173.31 1137.04Z" fill="#1F3C73"/>
<path d="M3396.55 1136.99L3345.96 1137.16C3340.42 1137.18 3335.95 1141.69 3335.97 1147.22L3336.15 1197.16C3336.17 1202.69 3340.67 1207.16 3346.2 1207.14L3396.79 1206.97C3402.33 1206.95 3406.8 1202.44 3406.78 1196.91L3406.6 1146.97C3406.58 1141.44 3402.08 1136.97 3396.55 1136.99Z" fill="#1F3C73"/>
<path d="M3526.1 1223.48H2225.52C2221.25 1223.48 2217.8 1226.94 2217.8 1231.2V1261.76C2217.8 1266.02 2221.25 1269.48 2225.52 1269.48H3526.1C3530.37 1269.48 3533.83 1266.02 3533.83 1261.76V1231.2C3533.83 1226.94 3530.37 1223.48 3526.1 1223.48Z" fill="#1F3C73"/>
<path d="M1696.45 1554.49L1659 1555.47C1656.95 1555.52 1654.94 1554.9 1653.26 1553.68C1651.57 1552.47 1650.3 1550.74 1649.63 1548.74L1648.15 1544.14C1647.79 1543.07 1647.68 1541.93 1647.84 1540.81C1648.01 1539.69 1648.44 1538.63 1649.1 1537.71C1649.76 1536.79 1650.63 1536.05 1651.64 1535.54C1652.64 1535.03 1653.76 1534.76 1654.89 1534.77L1717.47 1535.43C1723.93 1535.43 1727.16 1538.66 1727.16 1545.12L1726.83 1594.07C1726.72 1605.24 1721.85 1613.73 1712.21 1619.54C1680.9 1638.37 1649.52 1642.21 1618.1 1631.03C1532.85 1600.81 1540.73 1459.7 1636 1452.15C1663.27 1449.96 1687.9 1453.51 1709.92 1462.82C1716.16 1465.56 1717.85 1470.05 1715.01 1476.29L1713.2 1480.07C1710.46 1485.88 1706.47 1486.92 1701.21 1483.19C1638.63 1439.17 1567.18 1487.79 1584.42 1562.21C1600.36 1631.86 1719.28 1642.21 1706.79 1563.19C1705.81 1557.28 1702.36 1554.38 1696.45 1554.49Z" fill="#1F3C73"/>
<path d="M1973.06 1542.82C1973.06 1567.83 1963.13 1591.81 1945.44 1609.5C1927.76 1627.18 1903.78 1637.11 1878.78 1637.11C1853.77 1637.11 1829.79 1627.18 1812.11 1609.5C1794.43 1591.81 1784.49 1567.83 1784.49 1542.82C1784.49 1517.81 1794.43 1493.83 1812.11 1476.15C1829.79 1458.47 1853.77 1448.53 1878.78 1448.53C1903.78 1448.53 1927.76 1458.47 1945.44 1476.15C1963.13 1493.83 1973.06 1517.81 1973.06 1542.82ZM1881.53 1616.86C1890.97 1616.51 1900.25 1614.22 1908.84 1610.13C1917.42 1606.03 1925.14 1600.2 1931.56 1592.97C1937.98 1585.75 1942.98 1577.26 1946.25 1568.01C1949.53 1558.75 1951.03 1548.91 1950.67 1539.04C1949.94 1519.1 1941.67 1500.25 1927.67 1486.64C1913.67 1473.04 1895.09 1465.79 1876.02 1466.49C1866.58 1466.83 1857.3 1469.12 1848.72 1473.22C1840.13 1477.32 1832.41 1483.15 1825.99 1490.37C1819.57 1497.6 1814.58 1506.08 1811.3 1515.34C1808.02 1524.59 1806.52 1534.44 1806.88 1544.31C1807.61 1564.25 1815.89 1583.09 1829.89 1596.7C1843.89 1610.31 1862.46 1617.56 1881.53 1616.86Z" fill="#1F3C73"/>
<path d="M3160.31 1542.82C3160.31 1555.2 3157.87 1567.47 3153.13 1578.91C3148.39 1590.35 3141.45 1600.74 3132.69 1609.5C3123.94 1618.25 3113.55 1625.2 3102.11 1629.94C3090.67 1634.67 3078.41 1637.11 3066.03 1637.11C3041.02 1637.11 3017.04 1627.18 2999.36 1609.5C2981.68 1591.81 2971.74 1567.83 2971.74 1542.82C2971.74 1517.81 2981.68 1493.83 2999.36 1476.15C3017.04 1458.47 3041.02 1448.53 3066.03 1448.53C3078.41 1448.53 3090.67 1450.97 3102.11 1455.71C3113.55 1460.45 3123.94 1467.39 3132.69 1476.15C3141.45 1484.9 3148.39 1495.3 3153.13 1506.74C3157.87 1518.18 3160.31 1530.44 3160.31 1542.82ZM3139.61 1541.67C3139.61 1522.15 3131.86 1503.44 3118.06 1489.63C3104.26 1475.83 3085.54 1468.08 3066.03 1468.08C3046.51 1468.08 3027.79 1475.83 3013.99 1489.63C3000.19 1503.44 2992.44 1522.15 2992.44 1541.67C2992.44 1561.19 3000.19 1579.91 3013.99 1593.71C3027.79 1607.51 3046.51 1615.26 3066.03 1615.26C3085.54 1615.26 3104.26 1607.51 3118.06 1593.71C3131.86 1579.91 3139.61 1561.19 3139.61 1541.67Z" fill="#1F3C73"/>
<path d="M4147.17 1585.04H4063.89C4061.82 1585.03 4059.8 1585.62 4058.05 1586.72C4056.3 1587.83 4054.91 1589.41 4054.03 1591.28L4035.31 1631.69C4034.79 1632.84 4033.93 1633.79 4032.83 1634.41C4031.74 1635.03 4030.48 1635.29 4029.23 1635.14L4022.33 1634.48C4015.98 1633.94 4014.12 1630.76 4016.75 1624.96L4091.32 1460.03C4092.61 1457.26 4094.74 1454.96 4097.42 1453.45C4100.1 1451.95 4103.2 1451.32 4106.27 1451.65C4114.59 1452.64 4120.45 1456.91 4123.84 1464.47C4147.93 1517.8 4172.3 1571.62 4196.94 1625.94C4199.57 1631.75 4197.7 1634.59 4191.35 1634.48L4183.8 1634.32C4181.7 1634.27 4179.66 1633.61 4177.94 1632.41C4176.21 1631.22 4174.88 1629.54 4174.11 1627.59L4159.49 1593.09C4157.19 1587.72 4153.08 1585.04 4147.17 1585.04ZM4067.83 1558.92C4067.47 1559.69 4067.32 1560.55 4067.37 1561.4C4067.43 1562.25 4067.7 1563.07 4068.16 1563.79C4068.62 1564.51 4069.25 1565.1 4069.99 1565.51C4070.74 1565.93 4071.58 1566.14 4072.43 1566.15H4139.78C4140.63 1566.14 4141.47 1565.93 4142.21 1565.51C4142.96 1565.1 4143.59 1564.51 4144.05 1563.79C4144.51 1563.07 4144.78 1562.25 4144.83 1561.4C4144.89 1560.55 4144.73 1559.69 4144.38 1558.92L4110.7 1484.34C4110.29 1483.47 4109.64 1482.74 4108.82 1482.22C4108.01 1481.71 4107.07 1481.44 4106.1 1481.44C4105.14 1481.44 4104.2 1481.71 4103.38 1482.22C4102.57 1482.74 4101.92 1483.47 4101.5 1484.34L4067.83 1558.92Z" fill="#1F3C73"/>
<path d="M2157.85 1544.96C2205.65 1573.05 2180.68 1628.73 2134.2 1632.35C2105.51 1634.54 2075.72 1635.03 2044.84 1633.83C2042.05 1633.74 2039.4 1632.57 2037.44 1630.55C2035.48 1628.53 2034.37 1625.82 2034.33 1622.98L2034.16 1465.45C2034.16 1458.22 2037.78 1454.44 2045.01 1454.11C2087.22 1452.14 2181.83 1437.52 2171.81 1507.17C2170.94 1513.64 2168.25 1519.17 2163.76 1523.77L2156.04 1531.65C2151.12 1536.91 2151.72 1541.34 2157.85 1544.96ZM2055.85 1475.31V1525.9C2055.85 1527.47 2056.47 1528.97 2057.58 1530.08C2058.69 1531.19 2060.19 1531.81 2061.76 1531.81H2114.16C2124.05 1531.81 2133.53 1528.7 2140.52 1523.15C2147.52 1517.61 2151.44 1510.09 2151.44 1502.25V1498.96C2151.44 1491.12 2147.52 1483.6 2140.52 1478.05C2133.53 1472.51 2124.05 1469.39 2114.16 1469.39H2061.76C2060.19 1469.39 2058.69 1470.01 2057.58 1471.12C2056.47 1472.23 2055.85 1473.74 2055.85 1475.31ZM2055.52 1559.41L2055.19 1605.41C2055.19 1607.76 2056.12 1610.02 2057.79 1611.68C2059.45 1613.34 2061.71 1614.28 2064.06 1614.28L2120.07 1614.61C2130.99 1614.67 2141.48 1611.58 2149.24 1606.01C2157 1600.43 2161.39 1592.83 2161.46 1584.87V1581.26C2161.47 1573.3 2157.16 1565.65 2149.46 1559.99C2141.76 1554.32 2131.31 1551.1 2120.4 1551.03L2064.39 1550.54C2063.22 1550.54 2062.07 1550.77 2060.99 1551.22C2059.92 1551.66 2058.94 1552.32 2058.12 1553.14C2057.29 1553.96 2056.64 1554.94 2056.19 1556.02C2055.75 1557.09 2055.52 1558.25 2055.52 1559.41Z" fill="#1F3C73"/>
<path d="M2262 1454.27L2252.8 1454.29C2249.17 1454.3 2246.23 1457.24 2246.24 1460.87L2246.53 1626.78C2246.53 1630.41 2249.48 1633.35 2253.11 1633.34L2262.31 1633.33C2265.94 1633.32 2268.87 1630.37 2268.87 1626.74L2268.58 1460.83C2268.57 1457.2 2265.62 1454.27 2262 1454.27Z" fill="#1F3C73"/>
<path d="M2367.93 1531.48H2458.76C2459.75 1531.47 2460.7 1531.81 2461.46 1532.45C2462.21 1533.08 2462.71 1533.96 2462.87 1534.93L2464.68 1545.45C2464.77 1546.03 2464.74 1546.62 2464.59 1547.18C2464.43 1547.75 2464.16 1548.27 2463.79 1548.72C2463.41 1549.18 2462.95 1549.54 2462.42 1549.8C2461.89 1550.05 2461.32 1550.2 2460.73 1550.21L2367.6 1551.2C2366.51 1551.2 2365.47 1551.63 2364.7 1552.4C2363.93 1553.17 2363.49 1554.21 2363.49 1555.3L2363.99 1609.84C2363.99 1610.93 2364.42 1611.97 2365.19 1612.74C2365.96 1613.51 2367 1613.95 2368.09 1613.95L2471.25 1614.44C2472.31 1614.44 2473.33 1614.85 2474.09 1615.58C2474.86 1616.32 2475.31 1617.32 2475.35 1618.38L2475.52 1629.88C2475.54 1630.43 2475.45 1630.99 2475.25 1631.5C2475.06 1632.02 2474.76 1632.49 2474.37 1632.89C2473.99 1633.29 2473.53 1633.61 2473.02 1633.83C2472.51 1634.04 2471.96 1634.15 2471.41 1634.15L2346.41 1633.99C2345.32 1633.99 2344.28 1633.56 2343.51 1632.79C2342.74 1632.02 2342.31 1630.97 2342.31 1629.88L2341.98 1458.06C2341.98 1456.97 2342.41 1455.92 2343.18 1455.15C2343.95 1454.38 2344.99 1453.95 2346.08 1453.95L2470.26 1453.62C2470.81 1453.6 2471.37 1453.69 2471.88 1453.88C2472.4 1454.08 2472.87 1454.38 2473.27 1454.76C2473.67 1455.15 2473.99 1455.61 2474.2 1456.12C2474.42 1456.63 2474.53 1457.17 2474.53 1457.73V1465.61C2474.53 1466.67 2474.12 1467.69 2473.39 1468.46C2472.65 1469.23 2471.65 1469.68 2470.59 1469.72L2367.76 1470.38C2366.68 1470.38 2365.63 1470.81 2364.86 1471.58C2364.09 1472.35 2363.66 1473.39 2363.66 1474.48L2363.82 1527.38C2363.82 1528.47 2364.26 1529.51 2365.03 1530.28C2365.8 1531.05 2366.84 1531.48 2367.93 1531.48Z" fill="#1F3C73"/>
<path d="M2643.39 1568.94L2687.57 1625.94C2690.75 1630.1 2689.76 1632.68 2684.62 1633.66L2676.73 1635.3C2674.32 1635.75 2671.84 1635.53 2669.58 1634.65C2667.31 1633.78 2665.35 1632.3 2663.92 1630.38L2618.26 1569.1C2614.31 1563.96 2609.11 1561.49 2602.65 1561.71L2570.62 1562.7C2564.05 1562.92 2560.82 1566.31 2560.93 1572.88L2562.41 1622.66C2562.63 1629.12 2559.56 1632.62 2553.21 1633.17L2548.78 1633.66C2542.75 1634.21 2539.74 1631.47 2539.74 1625.45L2539.91 1465.29C2539.91 1457.07 2544.07 1453.07 2552.39 1453.29C2578.45 1454.06 2604.51 1454.17 2630.58 1453.62C2693.98 1452.31 2707.12 1540.52 2648.32 1554.98C2639.56 1557.17 2637.91 1561.82 2643.39 1568.94ZM2560.93 1477.61L2561.26 1535.76C2561.3 1537.78 2562.14 1539.7 2563.58 1541.11C2565.02 1542.52 2566.96 1543.31 2568.98 1543.31L2618.26 1543.15C2624.33 1543.12 2630.34 1542.19 2635.94 1540.43C2641.54 1538.66 2646.62 1536.08 2650.89 1532.85C2655.17 1529.61 2658.55 1525.78 2660.84 1521.57C2663.13 1517.36 2664.29 1512.86 2664.25 1508.32V1503.72C2664.17 1494.59 2659.25 1485.87 2650.57 1479.46C2641.88 1473.06 2630.15 1469.5 2617.93 1469.56L2568.65 1469.72C2567.62 1469.72 2566.61 1469.93 2565.66 1470.32C2564.71 1470.72 2563.85 1471.31 2563.13 1472.04C2562.41 1472.77 2561.85 1473.64 2561.47 1474.6C2561.09 1475.56 2560.91 1476.58 2560.93 1477.61Z" fill="#1F3C73"/>
<path d="M2889.61 1576.49L2888.46 1461.83C2888.46 1457.24 2890.71 1454.77 2895.2 1454.44L2903.9 1453.79C2908.06 1453.57 2910.14 1455.48 2910.14 1459.53L2910.31 1614.44C2910.42 1639.3 2902.04 1642.53 2885.18 1624.13C2848.71 1584.27 2814.16 1541.34 2781.53 1495.35C2774.85 1485.93 2771.51 1487.02 2771.51 1498.63L2771.84 1624.79C2771.84 1632.02 2768.22 1635.19 2761 1634.32L2756.4 1633.82C2754.77 1633.66 2753.26 1632.88 2752.17 1631.63C2751.07 1630.39 2750.47 1628.77 2750.48 1627.09L2750.65 1481.88C2750.76 1444.31 2762.48 1440.26 2785.8 1469.72L2874.33 1581.92C2884.63 1594.95 2889.72 1593.14 2889.61 1576.49Z" fill="#1F3C73"/>
<path d="M3326.04 1461.18C3326.04 1458.91 3326.94 1456.74 3328.54 1455.14C3330.14 1453.54 3332.32 1452.64 3334.58 1452.64L3396.18 1452.97C3420.44 1453.05 3443.68 1462.45 3460.77 1479.09C3477.87 1495.72 3487.42 1518.23 3487.34 1541.67V1545.61C3487.3 1557.22 3484.89 1568.7 3480.25 1579.41C3475.62 1590.12 3468.84 1599.84 3460.31 1608.01C3451.79 1616.19 3441.68 1622.66 3430.56 1627.06C3419.44 1631.46 3407.54 1633.71 3395.52 1633.66L3333.92 1633.33C3332.8 1633.33 3331.69 1633.11 3330.66 1632.68C3329.62 1632.25 3328.68 1631.62 3327.88 1630.83C3327.09 1630.04 3326.46 1629.1 3326.03 1628.06C3325.6 1627.02 3325.38 1625.91 3325.38 1624.79L3326.04 1461.18ZM3346.41 1479.25V1604.42C3346.41 1606.95 3347.41 1609.37 3349.2 1611.16C3350.98 1612.95 3353.41 1613.95 3355.93 1613.95H3391.41C3410.93 1613.95 3429.65 1606.72 3443.45 1593.84C3457.25 1580.96 3465 1563.5 3465 1545.28V1538.39C3465 1520.17 3457.25 1502.71 3443.45 1489.83C3429.65 1476.95 3410.93 1469.72 3391.41 1469.72H3355.93C3353.41 1469.72 3350.98 1470.72 3349.2 1472.51C3347.41 1474.3 3346.41 1476.72 3346.41 1479.25Z" fill="#1F3C73"/>
<path d="M3576.54 1613.95L3681.17 1614.44C3682.16 1614.44 3683.12 1614.81 3683.85 1615.48C3684.58 1616.15 3685.03 1617.07 3685.11 1618.05L3686.26 1629.72C3686.31 1630.26 3686.24 1630.81 3686.06 1631.33C3685.88 1631.84 3685.6 1632.32 3685.23 1632.72C3684.86 1633.12 3684.41 1633.44 3683.91 1633.66C3683.41 1633.88 3682.86 1633.99 3682.32 1633.99H3556C3554.96 1633.99 3553.96 1633.57 3553.22 1632.83C3552.48 1632.09 3552.06 1631.09 3552.06 1630.05L3551.9 1457.89C3551.9 1456.85 3552.31 1455.84 3553.05 1455.1C3553.79 1454.36 3554.79 1453.95 3555.84 1453.95L3681.83 1453.79C3682.39 1453.78 3682.94 1453.9 3683.46 1454.12C3683.97 1454.35 3684.43 1454.69 3684.8 1455.11C3685.18 1455.53 3685.46 1456.02 3685.62 1456.56C3685.79 1457.1 3685.84 1457.66 3685.77 1458.22L3684.62 1466.43C3684.46 1467.36 3683.98 1468.2 3683.25 1468.81C3682.53 1469.41 3681.62 1469.73 3680.68 1469.72L3576.87 1470.38C3575.82 1470.38 3574.82 1470.79 3574.08 1471.53C3573.34 1472.27 3572.92 1473.27 3572.92 1474.32V1527.54C3572.92 1528.59 3573.34 1529.59 3574.08 1530.33C3574.82 1531.07 3575.82 1531.48 3576.87 1531.48L3668.52 1531.16C3669.54 1531.16 3670.52 1531.55 3671.25 1532.25C3671.99 1532.96 3672.42 1533.92 3672.46 1534.93L3672.96 1546.93C3672.98 1547.46 3672.89 1547.99 3672.7 1548.49C3672.52 1548.98 3672.23 1549.44 3671.86 1549.82C3671.49 1550.2 3671.05 1550.51 3670.56 1550.72C3670.07 1550.93 3669.55 1551.03 3669.01 1551.03L3577.19 1550.54C3576.15 1550.54 3575.15 1550.96 3574.41 1551.69C3573.67 1552.43 3573.25 1553.44 3573.25 1554.48L3572.59 1610.01C3572.59 1611.05 3573.01 1612.05 3573.75 1612.79C3574.49 1613.53 3575.49 1613.95 3576.54 1613.95Z" fill="#1F3C73"/>
<path d="M3872.69 1613.62L3967.79 1614.93C3968.89 1614.97 3969.93 1615.41 3970.71 1616.17C3971.5 1616.93 3971.98 1617.95 3972.06 1619.04L3972.72 1629.23C3972.74 1629.82 3972.64 1630.42 3972.43 1630.97C3972.22 1631.53 3971.89 1632.04 3971.48 1632.47C3971.07 1632.9 3970.57 1633.24 3970.02 1633.47C3969.47 1633.71 3968.88 1633.83 3968.29 1633.82L3850.84 1633.66C3849.67 1633.66 3848.54 1633.19 3847.71 1632.36C3846.87 1631.53 3846.41 1630.4 3846.41 1629.23L3846.9 1459.21C3846.9 1458.08 3847.32 1457 3848.08 1456.18C3848.84 1455.36 3849.89 1454.85 3851.01 1454.77L3863 1453.95C3863.61 1453.9 3864.22 1453.99 3864.79 1454.19C3865.37 1454.39 3865.9 1454.71 3866.35 1455.13C3866.79 1455.54 3867.15 1456.05 3867.39 1456.61C3867.64 1457.17 3867.76 1457.77 3867.76 1458.38L3868.25 1609.18C3868.25 1609.77 3868.37 1610.34 3868.59 1610.88C3868.81 1611.42 3869.14 1611.91 3869.55 1612.32C3869.96 1612.73 3870.45 1613.06 3870.99 1613.28C3871.53 1613.51 3872.11 1613.62 3872.69 1613.62Z" fill="#1F3C73"/>
<path d="M1035.97 1756.37C1044.4 1744.76 1052.4 1733.16 1059.95 1721.55C1061.04 1719.89 1062.48 1718.49 1064.17 1717.45C1065.86 1716.4 1067.76 1715.74 1069.73 1715.51C1071.7 1715.27 1073.7 1715.47 1075.58 1716.09C1077.47 1716.71 1079.2 1717.73 1080.65 1719.08L1088.37 1726.48C1095.6 1733.27 1095.27 1739.73 1087.38 1745.86L1048.45 1776.25C1046.93 1777.44 1045.09 1778.16 1043.17 1778.35C1041.24 1778.53 1039.3 1778.16 1037.58 1777.28C1035.86 1776.4 1034.42 1775.05 1033.44 1773.38C1032.45 1771.72 1031.97 1769.81 1032.03 1767.87C1032.14 1763.82 1033.45 1759.99 1035.97 1756.37Z" fill="#1F3C73"/>
<path d="M2063.23 1866.1C2045 1900.11 2050.09 1953.99 2073.58 1984.71C2106.21 2027.53 2150.56 2038.97 2206.63 2019.04C2234.66 2009.07 2237.95 2014.44 2216.48 2035.14C2144.7 2103.97 2024.63 2044.34 2012.81 1954.48C1998.68 1847.21 2085.24 1784.63 2189.38 1803.68C2200.33 1805.65 2210.24 1809.65 2219.11 1815.67C2224.81 1819.4 2226.45 1824.43 2224.04 1830.79L2218.13 1846.72C2217.44 1848.64 2216.32 1850.37 2214.85 1851.78C2213.38 1853.18 2211.61 1854.23 2209.66 1854.84C2207.72 1855.44 2205.66 1855.59 2203.65 1855.26C2201.65 1854.94 2199.74 1854.15 2198.09 1852.96C2156.2 1823.72 2090.01 1816.33 2063.23 1866.1Z" fill="#1F3C73"/>
<path d="M3338.36 1932.47C3338.36 1967.67 3324.38 2001.43 3299.49 2026.32C3274.6 2051.21 3240.84 2065.2 3205.64 2065.2C3170.44 2065.2 3136.68 2051.21 3111.79 2026.32C3086.9 2001.43 3072.92 1967.67 3072.92 1932.47C3072.92 1897.27 3086.9 1863.51 3111.79 1838.61C3136.68 1813.72 3170.44 1799.74 3205.64 1799.74C3240.84 1799.74 3274.6 1813.72 3299.49 1838.61C3324.38 1863.51 3338.36 1897.27 3338.36 1932.47ZM3242.14 2035.83C3252.62 2032.13 3262.06 2025.81 3269.91 2017.22C3277.77 2008.62 3283.88 1997.92 3287.92 1985.73C3291.95 1973.54 3293.83 1960.09 3293.43 1946.16C3293.03 1932.23 3290.37 1918.08 3285.6 1904.53C3280.82 1890.98 3274.03 1878.29 3265.62 1867.18C3257.2 1856.07 3247.31 1846.77 3236.53 1839.79C3225.75 1832.82 3214.28 1828.32 3202.77 1826.54C3191.26 1824.76 3179.95 1825.75 3169.47 1829.44C3158.99 1833.13 3149.56 1839.45 3141.7 1848.05C3133.85 1856.64 3127.73 1867.34 3123.69 1879.53C3119.66 1891.73 3117.79 1905.17 3118.18 1919.1C3118.58 1933.04 3121.24 1947.18 3126.02 1960.73C3130.79 1974.28 3137.58 1986.98 3146 1998.08C3154.41 2009.19 3164.3 2018.5 3175.08 2025.47C3185.86 2032.44 3197.34 2036.95 3208.84 2038.72C3220.35 2040.5 3231.66 2039.52 3242.14 2035.83Z" fill="#1F3C73"/>
<path d="M3468.78 1898.96L3465.17 2023.15C3464.95 2029.39 3467.41 2034.37 3472.56 2038.09L3485.04 2047.29C3493.69 2053.43 3492.76 2057.1 3482.25 2058.3C3460.13 2060.82 3439.05 2060.93 3419.01 2058.63C3404.34 2056.99 3403.63 2052.88 3416.88 2046.31C3422.9 2043.24 3428.05 2039.3 3432.32 2034.48C3437.03 2029.33 3439.6 2022.54 3440.04 2014.11C3442.77 1956.62 3445.95 1895.13 3449.56 1829.64C3451.64 1792.29 3461.5 1790.16 3479.13 1823.23L3568.65 1991.61C3569.15 1992.53 3569.9 1993.29 3570.8 1993.82C3571.71 1994.35 3572.74 1994.62 3573.79 1994.61C3574.84 1994.59 3575.87 1994.28 3576.75 1993.73C3577.64 1993.17 3578.36 1992.38 3578.83 1991.44L3671.64 1804.67C3672.41 1803.2 3673.63 1802.01 3675.14 1801.27C3676.64 1800.54 3678.35 1800.29 3680.02 1800.56C3686.15 1801.66 3689.38 1805.27 3689.71 1811.4C3693.54 1882.48 3697.7 1953.28 3702.19 2023.8C3702.39 2026.69 3703.29 2029.47 3704.81 2031.91C3706.33 2034.35 3708.42 2036.36 3710.9 2037.77C3716.59 2040.94 3722.07 2044.45 3727.32 2048.28C3738.05 2055.95 3736.79 2059.78 3723.54 2059.78L3637.64 2059.61C3624.28 2059.61 3623.02 2055.73 3633.86 2047.95L3649.3 2036.62C3654.56 2032.89 3657.02 2027.8 3656.69 2021.34L3651.93 1910.46C3651.38 1898.52 3648.48 1897.97 3643.22 1908.81L3575.38 2049.59C3571.88 2056.93 3566.51 2058.74 3559.29 2055.01C3555.78 2053.26 3553.1 2050.69 3551.24 2047.29C3527.15 2002.72 3500.92 1953 3472.56 1898.14C3472.38 1897.72 3472.06 1897.38 3471.65 1897.17C3471.24 1896.96 3470.78 1896.9 3470.33 1897C3469.89 1897.09 3469.49 1897.34 3469.21 1897.7C3468.92 1898.06 3468.77 1898.5 3468.78 1898.96Z" fill="#1F3C73"/>
<path d="M4549.11 1875.3C4536.13 1905.36 4540.24 1951.36 4559.62 1978.46C4594.66 2027.52 4640.1 2041.27 4695.95 2019.69C4725.3 2008.3 4728.64 2013.56 4705.97 2035.46C4677.72 2062.73 4642.07 2070.62 4599.04 2059.12C4415.89 2010.49 4508.7 1732.88 4706.3 1812.88C4708.04 1813.57 4709.62 1814.61 4710.95 1815.94C4712.28 1817.26 4713.32 1818.85 4714.03 1820.59C4714.73 1822.34 4715.08 1824.22 4715.05 1826.11C4715.02 1828 4714.62 1829.87 4713.86 1831.61L4706.3 1848.03C4702.47 1856.57 4696.66 1858.27 4688.89 1853.12C4641.09 1821.26 4574.57 1816.33 4549.11 1875.3Z" fill="#1F3C73"/>
<path d="M192.346 1939.86C225.307 1979.5 258.76 2016.57 292.707 2051.07C302.562 2061.15 300.482 2065.75 286.465 2064.87L260.184 2063.23C254.038 2062.81 248.061 2061.1 242.651 2058.21C237.241 2055.32 232.522 2051.32 228.811 2046.47C206.581 2017.67 185.064 1990.73 164.258 1965.65C153.307 1952.51 137.922 1945.39 118.102 1944.3C111.641 1943.97 108.41 1947.03 108.41 1953.49L108.575 2021.83C108.571 2025.3 109.64 2028.68 111.638 2031.53C113.635 2034.38 116.465 2036.56 119.744 2037.77L146.354 2047.29C147.16 2047.58 147.897 2048.03 148.517 2048.62C149.137 2049.21 149.626 2049.92 149.952 2050.71C150.277 2051.5 150.432 2052.35 150.407 2053.21C150.381 2054.06 150.175 2054.9 149.803 2055.67C148.599 2058.08 146.628 2059.28 143.89 2059.28C110.491 2060.16 77.5847 2060.11 45.1713 2059.12C26.9935 2058.57 25.8985 2053.97 41.8862 2045.32L54.3697 2038.75C61.378 2034.92 64.8822 2028.95 64.8822 2020.85L64.7179 1844.26C64.6664 1841.26 63.895 1838.32 62.4673 1835.66C61.0395 1833 58.9961 1830.71 56.5051 1828.98L38.7653 1816.99C28.2529 1809.87 29.3479 1806.25 42.0505 1806.15C86.3999 1806.04 126.752 1805.93 163.108 1805.82C242.773 1805.65 272.339 1909.14 194.81 1931.81C189.991 1933.24 189.17 1935.92 192.346 1939.86ZM107.918 1840.97V1911.28C107.918 1915.29 109.51 1919.13 112.344 1921.96C115.178 1924.8 119.021 1926.39 123.029 1926.39H145.532C151.723 1926.39 157.853 1925.23 163.573 1922.99C169.292 1920.74 174.489 1917.45 178.867 1913.3C183.244 1909.15 186.717 1904.23 189.086 1898.81C191.455 1893.39 192.674 1887.58 192.674 1881.71V1870.54C192.674 1864.67 191.455 1858.86 189.086 1853.44C186.717 1848.02 183.244 1843.09 178.867 1838.94C174.489 1834.8 169.292 1831.5 163.573 1829.26C157.853 1827.01 151.723 1825.86 145.532 1825.86H123.029C119.021 1825.86 115.178 1827.45 112.344 1830.28C109.51 1833.12 107.918 1836.96 107.918 1840.97Z" fill="#1F3C73"/>
<path d="M446.617 1920.15C476.622 1923 503.122 1918.01 526.118 1905.2C533.893 1900.93 536.357 1903.01 533.51 1911.44C528.363 1926.45 521.957 1941.45 514.291 1956.45C511.444 1962.15 507.776 1962.75 503.286 1958.26C487.737 1942.6 468.354 1936.96 445.139 1941.34C442.885 1941.8 440.863 1943.02 439.423 1944.79C437.983 1946.56 437.216 1948.77 437.255 1951.03V2015.42C437.255 2026.81 442.894 2033.55 454.173 2035.63C496.442 2043.19 530.662 2033.44 556.834 2006.39C570.522 1992.48 575.724 1995.11 572.438 2014.27C569.591 2031.36 561.762 2044.99 548.95 2055.18C544.679 2058.57 539.751 2060.16 534.167 2059.94C476.567 2056.98 418.694 2056.88 360.547 2059.61C358.138 2059.72 356.276 2058.74 354.962 2056.66C354.331 2055.61 353.963 2054.43 353.889 2053.21C353.815 2051.99 354.038 2050.77 354.539 2049.65C355.039 2048.54 355.803 2047.56 356.763 2046.81C357.724 2046.05 358.853 2045.54 360.054 2045.32C372.428 2043.24 382.119 2037.71 389.127 2028.73C391.998 2025.11 393.561 2020.65 393.562 2016.08L393.398 1843.6C393.393 1841 392.781 1838.44 391.611 1836.13C390.441 1833.81 388.746 1831.82 386.664 1830.29L367.61 1816C359.506 1809.98 360.492 1806.97 370.566 1806.97L543.365 1805.65C544.732 1805.66 546.082 1805.96 547.32 1806.54C548.557 1807.12 549.653 1807.96 550.53 1809.01C551.406 1810.06 552.043 1811.29 552.394 1812.61C552.745 1813.93 552.803 1815.31 552.563 1816.66L545.993 1852.3C544.241 1861.61 540.737 1862.38 535.481 1854.6C517.631 1827.99 488.667 1820.11 448.589 1830.95C441.471 1832.81 437.857 1837.47 437.748 1844.91L436.598 1908.65C436.379 1915.66 439.719 1919.49 446.617 1920.15Z" fill="#1F3C73"/>
<path d="M716.98 1971.24C710.081 2011.1 717.801 2034.97 740.14 2042.86C768.064 2052.71 767.243 2058.24 737.677 2059.45C711.176 2060.54 685.169 2060.54 659.654 2059.45C640.163 2058.57 638.63 2052.93 655.055 2042.53L666.06 2035.47C668.171 2034.12 669.909 2032.25 671.115 2030.04C672.32 2027.83 672.954 2025.35 672.959 2022.82L672.795 1844.42C672.795 1841.51 672.111 1838.64 670.799 1836.04C669.486 1833.45 667.582 1831.2 665.239 1829.47L645.364 1814.69C637.918 1809.21 638.794 1806.42 647.992 1806.31C689.385 1805.87 730.34 1805.76 770.857 1805.98C905.547 1806.64 878.281 1990.46 727.821 1963.68C721.689 1962.58 718.075 1965.1 716.98 1971.24ZM716.652 1843.27V1930.33C716.651 1934.7 718.377 1938.9 721.453 1942.01C724.528 1945.11 728.706 1946.88 733.077 1946.92H752.952C760.43 1946.95 767.838 1945.52 774.753 1942.73C781.667 1939.94 787.952 1935.85 793.247 1930.67C798.542 1925.5 802.743 1919.35 805.609 1912.59C808.475 1905.82 809.95 1898.56 809.95 1891.24V1882.37C809.949 1867.63 803.983 1853.49 793.36 1843.05C782.738 1832.61 768.325 1826.72 753.281 1826.68H733.406C731.213 1826.66 729.039 1827.07 727.007 1827.89C724.975 1828.72 723.127 1829.94 721.569 1831.48C720.011 1833.02 718.774 1834.86 717.93 1836.88C717.086 1838.91 716.652 1841.08 716.652 1843.27Z" fill="#1F3C73"/>
<path d="M948.917 1827.99L933.641 1816.17C924.333 1808.94 925.593 1805.32 937.419 1805.32L1018.23 1805.65C1034 1805.65 1035.43 1810.14 1022.5 1819.12C1010.84 1827.34 1004.6 1833.58 1003.94 1848.86C1002.3 1882.48 1002.85 1925.3 1005.59 1977.31C1010.35 2065.69 1139.46 2059.78 1140.61 1964.99C1141.04 1925.13 1141.04 1886.09 1140.61 1847.87C1140.55 1842.5 1138.96 1837.26 1136.01 1832.8C1133.07 1828.34 1128.9 1824.84 1124.02 1822.74C1119.74 1820.88 1115.97 1818.36 1112.68 1815.18C1106.11 1808.72 1107.43 1805.43 1116.62 1805.32L1186.76 1805.16C1201.44 1805.16 1202.42 1808.83 1189.72 1816.17C1175.59 1824.27 1168.26 1835.88 1167.71 1850.99C1166.39 1884.61 1166.45 1919.16 1167.87 1954.65C1170.99 2032.35 1115.97 2077.35 1039.59 2062.08C931.013 2040.56 959.922 1927.38 958.116 1846.39C958.006 1838.84 954.94 1832.7 948.917 1827.99Z" fill="#1F3C73"/>
<path d="M1434.79 1924.75C1446.12 1926.88 1459.26 1931.15 1466.65 1940.35C1515.44 2001.95 1458.11 2060.93 1393.39 2059.45C1351.56 2058.46 1308.2 2058.3 1263.3 2058.95C1261.33 2059.06 1259.85 2058.24 1258.87 2056.49C1255.47 2050.69 1257.06 2047.07 1263.63 2045.65C1274.8 2043.35 1283.67 2038.42 1290.24 2030.86C1294.51 2026.15 1296.65 2020.62 1296.65 2014.27L1296.48 1843.6C1296.48 1841.05 1295.89 1838.53 1294.75 1836.25C1293.61 1833.97 1291.95 1831.99 1289.91 1830.46L1271.35 1816.66C1262.04 1809.65 1263.19 1806.2 1274.8 1806.31C1315.43 1806.42 1353.1 1806.14 1387.81 1805.49C1449.9 1804.34 1502.79 1876.94 1433.31 1914.23C1424.22 1919.16 1424.71 1922.67 1434.79 1924.75ZM1340.17 1839.98L1339.85 1901.09C1339.85 1902.95 1340.21 1904.78 1340.92 1906.5C1341.63 1908.21 1342.67 1909.77 1343.98 1911.08C1345.3 1912.39 1346.85 1913.43 1348.57 1914.14C1350.28 1914.85 1352.12 1915.22 1353.97 1915.22L1375 1915.38C1380.74 1915.4 1386.42 1914.33 1391.73 1912.22C1397.04 1910.11 1401.87 1907.01 1405.94 1903.09C1410.01 1899.17 1413.25 1894.51 1415.47 1889.37C1417.68 1884.24 1418.83 1878.73 1418.85 1873.17V1868.57C1418.9 1857.33 1414.33 1846.53 1406.17 1838.55C1398.01 1830.57 1386.91 1826.06 1375.33 1826.02L1354.3 1825.86C1350.55 1825.86 1346.96 1827.34 1344.31 1829.99C1341.66 1832.64 1340.17 1836.24 1340.17 1839.98ZM1340.01 1951.85L1340.34 2022.81C1340.34 2027.39 1342.16 2031.78 1345.39 2035.01C1348.62 2038.25 1353.01 2040.06 1357.59 2040.06L1386.82 2039.9C1400.28 2039.85 1413.18 2034.59 1422.66 2025.25C1432.15 2015.92 1437.46 2003.28 1437.41 1990.13V1983.88C1437.39 1977.37 1436.06 1970.92 1433.49 1964.91C1430.92 1958.9 1427.16 1953.44 1422.43 1948.85C1417.71 1944.26 1412.1 1940.62 1405.93 1938.15C1399.77 1935.68 1393.16 1934.42 1386.5 1934.44L1357.26 1934.6C1352.68 1934.6 1348.3 1936.42 1345.06 1939.65C1341.83 1942.89 1340.01 1947.28 1340.01 1951.85Z" fill="#1F3C73"/>
<path d="M1851.18 1826.84L1834.26 1814.85C1825.61 1808.72 1826.6 1805.6 1837.22 1805.49L1927.89 1805.32C1941.14 1805.21 1942.29 1808.88 1931.34 1816.33L1914.42 1827.66C1911.84 1829.37 1909.73 1831.71 1908.27 1834.46C1906.81 1837.21 1906.04 1840.3 1906.04 1843.43L1905.88 2019.69C1905.88 2027.03 1909 2032.73 1915.24 2036.78C1921.37 2040.61 1927.34 2044.66 1933.14 2048.93C1940.92 2054.74 1939.99 2057.97 1930.35 2058.63C1902.54 2060.38 1875.65 2060.71 1849.7 2059.61C1824.95 2058.52 1823.75 2052.6 1846.09 2041.87C1849.37 2040.34 1852.33 2038.26 1854.96 2035.63C1857.19 2033.39 1858.96 2030.74 1860.14 2027.83C1861.33 2024.93 1861.91 2021.82 1861.86 2018.71V1847.21C1861.75 1838.56 1858.19 1831.77 1851.18 1826.84Z" fill="#1F3C73"/>
<path d="M2374.01 1991.28C2366.01 1991.28 2360.15 1994.89 2356.43 2002.12C2344.71 2025.44 2349.91 2041.1 2372.03 2049.1C2382.88 2053.04 2382.6 2055.89 2371.21 2057.64C2348 2061.36 2324.4 2061.75 2300.42 2058.79C2284.32 2056.71 2283.56 2052.11 2298.12 2044.99C2309.84 2039.19 2318.27 2030.59 2323.41 2019.2C2352 1955.57 2380.47 1888.99 2408.83 1819.45C2419.45 1793.39 2430.46 1793.22 2441.84 1818.96C2468.89 1879.85 2495.99 1943.14 2523.15 2008.85C2530.6 2026.92 2543.08 2040.72 2560.6 2050.25C2561.44 2050.74 2562.1 2051.47 2562.49 2052.36C2562.88 2053.24 2562.98 2054.23 2562.78 2055.17C2562.58 2056.12 2562.09 2056.98 2561.37 2057.63C2560.66 2058.27 2559.76 2058.68 2558.8 2058.79C2528.02 2060.87 2498.84 2060.98 2471.25 2059.12C2454.38 2058.02 2453.18 2053.15 2467.63 2044.5L2475.35 2039.9C2481.48 2036.18 2483.35 2030.97 2480.94 2024.29L2472.89 2001.95C2470.37 1994.83 2465.33 1991.28 2457.78 1991.28H2374.01ZM2420.49 1874.32C2420.09 1873.36 2419.42 1872.55 2418.55 1871.97C2417.69 1871.4 2416.68 1871.1 2415.65 1871.1C2414.61 1871.1 2413.6 1871.4 2412.74 1871.97C2411.87 1872.55 2411.2 1873.36 2410.8 1874.32L2374.66 1961.71C2374.34 1962.51 2374.22 1963.38 2374.31 1964.24C2374.4 1965.1 2374.71 1965.92 2375.19 1966.64C2375.68 1967.35 2376.34 1967.94 2377.1 1968.34C2377.87 1968.74 2378.73 1968.94 2379.59 1968.93H2450.88C2451.73 1968.92 2452.56 1968.69 2453.31 1968.28C2454.06 1967.87 2454.69 1967.28 2455.16 1966.57C2455.63 1965.86 2455.92 1965.05 2456 1964.2C2456.08 1963.35 2455.96 1962.5 2455.64 1961.71L2420.49 1874.32Z" fill="#1F3C73"/>
<path d="M2763.63 1830.62L2742.77 1815.51C2732.91 1808.39 2734.01 1805.21 2746.05 1805.98C2777.26 1807.84 2809.24 1807.51 2841.98 1804.99C3055.51 1788.4 3032.52 2064.21 2870.39 2059.61C2831.85 2058.41 2790.46 2058.13 2746.22 2058.79C2743.15 2058.9 2739.97 2058.68 2736.69 2058.13C2729.57 2057.04 2728.15 2053.59 2732.42 2047.78C2733.79 2046.08 2735.71 2044.92 2737.84 2044.5C2747.37 2042.64 2755.63 2038.75 2762.64 2032.84C2766.8 2029.22 2768.88 2024.62 2768.88 2019.04L2768.72 1840.8C2768.71 1838.82 2768.25 1836.86 2767.37 1835.1C2766.48 1833.33 2765.2 1831.79 2763.63 1830.62ZM2813.89 1852.8L2813.23 2016.08C2813.23 2022.57 2815.81 2028.8 2820.4 2033.39C2824.99 2037.98 2831.22 2040.56 2837.71 2040.56L2863.82 2040.72C2875.4 2040.76 2886.87 2038.39 2897.57 2033.74C2908.28 2029.08 2918.02 2022.24 2926.22 2013.61C2934.43 2004.97 2940.95 1994.71 2945.41 1983.41C2949.86 1972.11 2952.17 1959.99 2952.19 1947.74V1921.79C2952.24 1897.11 2943.04 1873.43 2926.59 1855.93C2910.14 1838.44 2887.81 1828.57 2864.48 1828.48L2838.36 1828.32C2831.87 1828.32 2825.65 1830.9 2821.06 1835.49C2816.47 1840.08 2813.89 1846.3 2813.89 1852.8Z" fill="#1F3C73"/>
<path d="M3884.19 1828.65C3881.76 1830.27 3879.77 1832.47 3878.39 1835.05C3877.02 1837.63 3876.3 1840.51 3876.31 1843.43L3876.47 2020.35C3876.47 2028.46 3880.03 2034.37 3887.15 2038.09C3891.2 2040.17 3894.92 2042.58 3898.32 2045.32C3910.91 2055.07 3909.21 2059.94 3893.23 2059.94H3818.98C3793.91 2059.83 3792.59 2053.81 3815.04 2041.87C3818.98 2039.68 3822.65 2037.11 3826.04 2034.15C3828.01 2032.34 3829.58 2030.13 3830.65 2027.67C3831.73 2025.21 3832.28 2022.55 3832.29 2019.86L3832.12 1843.93C3832.12 1837.9 3829.71 1833.14 3824.89 1829.63L3805.02 1815.34C3796.04 1808.77 3797.08 1805.49 3808.14 1805.49L3897.33 1805.32C3907.41 1805.21 3908.72 1808.55 3901.27 1815.34C3895.91 1820.16 3890.21 1824.6 3884.19 1828.65Z" fill="#1F3C73"/>
<path d="M4030.87 1892.88L4031.36 2019.86C4031.47 2032.56 4037.72 2039.96 4050.09 2042.04C4054.8 2042.8 4059.12 2044.56 4063.07 2047.29C4072.7 2053.75 4071.77 2057.48 4060.27 2058.46C4036.73 2060.65 4012.58 2060.93 3987.84 2059.29C3969.66 2058.08 3968.34 2052.71 3983.89 2043.19L3995.72 2035.96C4001.2 2032.56 4003.99 2027.64 4004.1 2021.17C4004.32 1966.09 4004.21 1912.48 4003.77 1860.35C4003.61 1843.6 3997.03 1827.83 3986.85 1814.85C3982.03 1808.72 3983.51 1805.6 3991.29 1805.49L4015.76 1805.32C4021.78 1805.21 4026.93 1807.4 4031.2 1811.9L4186.59 1976.66C4192.61 1983.01 4195.62 1981.8 4195.62 1973.04C4195.51 1934.17 4195.62 1893.76 4195.95 1851.81C4195.95 1833.58 4184.62 1824.05 4167.37 1821.26C4166.24 1821.05 4165.15 1820.59 4164.19 1819.91C4163.23 1819.23 4162.41 1818.35 4161.78 1817.32C4159.49 1813.15 4159.65 1809.6 4162.28 1806.64C4162.58 1806.23 4162.98 1805.9 4163.44 1805.67C4163.89 1805.44 4164.4 1805.32 4164.91 1805.32H4240.46C4251.96 1805.32 4253.6 1809.27 4245.39 1817.15C4240.79 1821.53 4235.81 1825.47 4230.44 1828.98C4224.75 1832.59 4221.9 1837.74 4221.9 1844.42L4222.56 2041.87C4222.56 2066.29 4214.18 2069.63 4197.43 2051.89L4041.88 1888.44C4034.43 1880.67 4030.76 1882.15 4030.87 1892.88Z" fill="#1F3C73"/>
<path d="M4852.16 2043.35C4856.21 2043.9 4859.88 2045.43 4863.16 2047.95C4870.83 2053.86 4869.84 2057.37 4860.2 2058.46C4836.99 2061.09 4812.19 2061.09 4785.8 2058.46C4774.3 2057.26 4773.42 2053.65 4783.17 2047.62L4798.44 2038.09C4804.36 2034.48 4808.74 2029.5 4811.58 2023.15C4842.79 1955.36 4870.88 1889.59 4895.85 1825.86C4908.88 1792.68 4922.18 1792.51 4935.76 1825.37C4963.8 1892.72 4991.88 1958.31 5020.03 2022.16C5025.45 2034.48 5035.3 2039.74 5046.14 2046.47C5060.71 2055.45 5059.45 2059.94 5042.37 2059.94L4958.59 2059.78C4950.16 2059.78 4947.7 2056 4951.2 2048.44C4952.74 2045.27 4955.8 2043.95 4960.4 2044.5C4961.59 2044.64 4962.79 2044.55 4963.94 2044.22C4965.09 2043.9 4966.17 2043.36 4967.1 2042.62C4968.03 2041.89 4968.8 2040.98 4969.37 2039.95C4969.94 2038.92 4970.3 2037.79 4970.42 2036.62C4971.95 2022.6 4969.22 2010.11 4962.21 1999.16C4960.7 1996.85 4958.64 1994.94 4956.2 1993.63C4953.76 1992.31 4951.03 1991.61 4948.25 1991.61L4864.64 1991.11C4858.62 1991.11 4853.85 1993.58 4850.35 1998.51C4843.56 2008.25 4840.11 2018.38 4840 2028.9C4839.92 2032.4 4841.11 2035.8 4843.36 2038.47C4845.6 2041.13 4848.73 2042.87 4852.16 2043.35ZM4864.8 1961.38C4864.48 1962.18 4864.36 1963.05 4864.45 1963.91C4864.54 1964.77 4864.85 1965.6 4865.33 1966.31C4865.82 1967.03 4866.48 1967.61 4867.24 1968.01C4868.01 1968.41 4868.87 1968.62 4869.73 1968.61L4940.85 1968.77C4941.72 1968.78 4942.57 1968.58 4943.34 1968.18C4944.11 1967.78 4944.76 1967.19 4945.25 1966.48C4945.74 1965.76 4946.04 1964.94 4946.14 1964.08C4946.23 1963.22 4946.11 1962.35 4945.78 1961.55L4910.47 1875.63C4910.07 1874.68 4909.39 1873.86 4908.53 1873.29C4907.67 1872.72 4906.66 1872.41 4905.62 1872.41C4904.59 1872.41 4903.57 1872.72 4902.71 1873.29C4901.85 1873.86 4901.18 1874.68 4900.78 1875.63L4864.8 1961.38Z" fill="#1F3C73"/>
<path d="M5614.31 1991.28L5526.1 1991.44C5519.42 1991.44 5515.1 1994.62 5513.13 2000.97L5505.73 2024.29C5502.56 2034.59 5506.28 2040.61 5516.9 2042.36C5521.5 2043.13 5525.28 2045.21 5528.24 2048.61C5534.92 2056.16 5533.22 2059.94 5523.14 2059.94H5454.49C5440.36 2059.94 5438.94 2055.72 5450.21 2047.29C5455.47 2043.46 5460.84 2040.01 5466.31 2036.94C5471.46 2034.1 5475.13 2029.99 5477.32 2024.62L5568.97 1810.58C5570.83 1806.31 5574.06 1803.95 5578.66 1803.52L5583.76 1803.02C5588.9 1802.59 5592.52 1804.78 5594.6 1809.59C5625.48 1882.86 5655.81 1953.66 5685.6 2021.99C5689.76 2031.74 5696.6 2038.81 5706.13 2043.19C5727.81 2053.26 5726.71 2058.68 5702.84 2059.45C5678.97 2060.11 5654.88 2060.27 5630.57 2059.94C5609.65 2059.72 5608.01 2053.92 5625.64 2042.53C5628.05 2040.89 5630.35 2039.08 5632.54 2037.11C5637.8 2032.18 5639 2026.38 5636.15 2019.7L5627.45 1999.82C5624.93 1994.12 5620.55 1991.28 5614.31 1991.28ZM5530.7 1961.71C5530.38 1962.51 5530.25 1963.38 5530.35 1964.24C5530.44 1965.1 5530.74 1965.93 5531.23 1966.64C5531.72 1967.36 5532.37 1967.94 5533.14 1968.34C5533.91 1968.74 5534.76 1968.94 5535.63 1968.94H5607.08C5607.95 1968.93 5608.81 1968.71 5609.57 1968.29C5610.34 1967.86 5610.99 1967.26 5611.46 1966.53C5611.93 1965.79 5612.21 1964.95 5612.28 1964.08C5612.35 1963.21 5612.2 1962.34 5611.84 1961.54L5576.04 1875.63C5575.63 1874.68 5574.96 1873.86 5574.1 1873.29C5573.24 1872.72 5572.22 1872.41 5571.19 1872.41C5570.15 1872.41 5569.14 1872.72 5568.28 1873.29C5567.42 1873.86 5566.75 1874.68 5566.34 1875.63L5530.7 1961.71Z" fill="#1F3C73"/>
<path d="M1645.53 2034.48C1689 2044.23 1723.55 2035.63 1749.18 2008.69C1765.27 1991.72 1771.3 1994.73 1767.24 2017.72C1764.72 2031.96 1757.99 2043.73 1747.04 2053.04C1742.77 2056.66 1737.79 2058.46 1732.09 2058.46L1552.07 2058.3C1551.52 2058.3 1551.19 2058.03 1551.08 2057.48L1550.75 2053.37C1550.52 2051.51 1551.01 2049.62 1552.14 2048.1C1553.27 2046.57 1554.95 2045.52 1556.83 2045.16C1567.23 2043.08 1575.77 2038.86 1582.45 2032.51C1584.53 2030.54 1586.18 2028.15 1587.31 2025.5C1588.44 2022.85 1589.02 2019.98 1589.02 2017.07V1842.61C1589.02 1835.49 1585.96 1830.07 1579.83 1826.35L1562.74 1815.84C1551.35 1808.94 1552.34 1805.49 1565.7 1805.49H1657.19C1667.27 1805.49 1668.31 1808.55 1660.31 1814.69L1641.26 1829.14C1636.66 1832.65 1634.36 1837.3 1634.36 1843.11L1634.2 2020.35C1634.19 2023.65 1635.31 2026.84 1637.38 2029.41C1639.44 2031.98 1642.31 2033.77 1645.53 2034.48Z" fill="#1F3C73"/>
<path d="M4396.01 1847.38L4395.85 2019.86C4395.84 2023.65 4396.84 2027.37 4398.74 2030.66C4400.65 2033.95 4403.39 2036.68 4406.69 2038.59L4421.31 2047.13C4432.48 2053.48 4431.66 2057.26 4418.84 2058.46C4391.47 2060.87 4363.27 2060.98 4334.25 2058.79C4316.4 2057.48 4315.47 2052.82 4331.46 2044.83C4337.7 2041.65 4342.9 2037.33 4347.06 2031.85C4350.47 2027.38 4352.32 2021.89 4352.32 2016.25V1845.08C4352.32 1837.96 4349.42 1832.37 4343.61 1828.32L4326.2 1815.67C4316.79 1808.88 4317.88 1805.49 4329.49 1805.49L4418.84 1805.32C4430.23 1805.32 4431.38 1808.77 4422.29 1815.67L4405.87 1827.83C4399.3 1832.76 4396.01 1839.27 4396.01 1847.38Z" fill="#1F3C73"/>
<path d="M5178.21 1885.32C5173.17 1879.96 5170.65 1881 5170.65 1888.44L5171.14 2017.4C5171.14 2021.7 5172.38 2025.9 5174.71 2029.52C5177.04 2033.13 5180.37 2035.99 5184.28 2037.76C5191.18 2040.94 5197.81 2044.45 5204.16 2048.28C5212.81 2053.53 5212.1 2056.77 5202.02 2057.97C5175.31 2061.15 5148.15 2061.31 5120.55 2058.46C5107.85 2057.15 5106.97 2053.21 5117.92 2046.64L5136.98 2035.14C5142.45 2031.85 5145.19 2026.98 5145.19 2020.52C5144.75 1969.05 5144.75 1917.57 5145.19 1866.1C5145.36 1847.7 5137.31 1830.95 5127.94 1815.67C5124.22 1809.32 5126.03 1805.82 5133.36 1805.16C5148.64 1803.84 5163.42 1803.19 5174.76 1815.34C5226.23 1870.65 5276.6 1924.15 5325.87 1975.84C5331.9 1982.19 5334.91 1980.98 5334.91 1972.22L5334.74 1847.21C5334.69 1842.83 5333.41 1838.55 5331.06 1834.86C5328.71 1831.17 5325.38 1828.22 5321.44 1826.35C5314.54 1823.06 5308.03 1819.07 5301.89 1814.36C5293.9 1808.33 5294.94 1805.32 5305.01 1805.32L5383.86 1805.49C5394.37 1805.49 5395.57 1808.83 5387.47 1815.51L5368.75 1830.95C5364.26 1834.67 5362.01 1839.49 5362.01 1845.41L5362.5 2044.34C5362.5 2067 5354.67 2070.13 5339.02 2053.7L5178.21 1885.32Z" fill="#1F3C73"/>
<path d="M3524.47 2273.33H2228.15C2224.79 2273.33 2222.07 2276.05 2222.07 2279.41V2330.33C2222.07 2333.69 2224.79 2336.41 2228.15 2336.41H3524.47C3527.82 2336.41 3530.54 2333.69 3530.54 2330.33V2279.41C3530.54 2276.05 3527.82 2273.33 3524.47 2273.33Z" fill="#ED232D"/>
<path d="M1767.9 2637.84C1759.52 2747.25 1856.93 2798.5 1953.18 2757.92C1959.86 2755.18 1963.15 2757.43 1963.04 2764.66L1962.87 2770.24C1962.76 2776.16 1960.36 2780.87 1955.65 2784.37C1891.92 2831.79 1827.8 2831.41 1763.3 2783.22C1704.17 2739.03 1702.36 2651.64 1735.71 2591.85C1764.62 2540.05 1816.47 2515.84 1891.26 2519.24C1914.04 2520.33 1933.86 2525.48 1950.72 2534.68C1960.57 2540.16 1962.98 2547.93 1957.95 2558.01L1946.94 2579.85C1941.79 2590.26 1934.68 2591.79 1925.59 2584.45C1862.18 2532.71 1774.8 2548.15 1767.9 2637.84Z" fill="#ED232D"/>
<path d="M2244.25 2547.99C2237.02 2545.47 2230.94 2541.58 2226.02 2536.33C2219.66 2529.75 2221.03 2525.98 2230.12 2524.99C2257.17 2522.36 2284.44 2521.87 2311.92 2523.51C2337.66 2525.15 2339.13 2532.05 2316.36 2544.21C2310.33 2547.39 2305.19 2551.49 2300.92 2556.53C2298.05 2559.94 2296.37 2564.15 2296.15 2568.52C2294.4 2605.1 2294.4 2644.36 2296.15 2686.3C2299.93 2777.14 2248.52 2832.83 2151.94 2816.73C2017.24 2794.39 2058.64 2659.36 2051.41 2563.43C2051.08 2558.61 2048.84 2554.89 2044.68 2552.26L2023.98 2539.28C2010.62 2531.07 2011.71 2526.25 2027.26 2524.83C2062.63 2521.65 2100.25 2521.54 2140.11 2524.5C2155 2525.7 2156.37 2530.63 2144.22 2539.28C2138.41 2543.44 2132.39 2547.22 2126.15 2550.62C2122.86 2552.36 2120.1 2554.95 2118.14 2558.12C2116.17 2561.3 2115.08 2564.94 2114.98 2568.69C2113.99 2617.31 2114.16 2664.29 2115.47 2709.63C2118.26 2812.13 2256.07 2811.15 2260.35 2713.41C2262.54 2664.67 2262.54 2616.76 2260.35 2569.67C2260.15 2564.88 2258.51 2560.25 2255.64 2556.38C2252.77 2552.52 2248.8 2549.59 2244.25 2547.99Z" fill="#ED232D"/>
<path d="M2769.37 2554.23C2735.21 2551.49 2709.31 2560.2 2691.68 2580.35C2676.02 2598.42 2670.6 2595.74 2675.42 2572.3L2684.12 2530.58C2685.11 2525.76 2688.07 2523.35 2692.99 2523.35H2952.36C2959.58 2523.35 2962.21 2526.8 2960.24 2533.7L2946.12 2584.29C2943.82 2592.61 2940.26 2593.11 2935.44 2585.77C2917.04 2557.41 2889.61 2547.55 2853.15 2556.2C2847.45 2557.52 2844.6 2561.13 2844.6 2567.04V2774.19C2844.6 2777.13 2845.57 2779.99 2847.35 2782.34C2849.13 2784.68 2851.62 2786.38 2854.46 2787.16L2890.92 2797.51C2894.43 2798.5 2896.73 2800.74 2897.82 2804.25C2898.59 2806.66 2898.48 2808.63 2897.49 2810.16C2896.07 2812.24 2894.16 2813.28 2891.75 2813.28C2840.83 2813.5 2792.75 2813.45 2747.53 2813.12C2727.16 2813.01 2725.68 2807.64 2743.09 2797.02C2750.32 2792.75 2758.04 2789.79 2766.25 2788.15C2770.8 2787.24 2774.9 2784.77 2777.83 2781.18C2780.77 2777.58 2782.37 2773.08 2782.35 2768.44L2782.51 2568.36C2782.51 2559.6 2778.13 2554.89 2769.37 2554.23Z" fill="#ED232D"/>
<path d="M3032.51 2551.11L3017.89 2541.91C2997.64 2529.31 2999.44 2523.02 3023.32 2523.02L3124.33 2523.18C3148.97 2523.18 3150.67 2529.48 3129.43 2542.07L3112.18 2552.42C3107.03 2555.38 3104.46 2559.81 3104.46 2565.73V2710.61C3104.46 2756.39 3127.29 2781.36 3172.95 2785.52C3182.7 2786.4 3192.34 2785.03 3201.86 2781.41C3234.5 2769.04 3250.81 2745.38 3250.81 2710.45V2571.64C3250.81 2566.98 3249.48 2562.42 3246.98 2558.49C3244.48 2554.57 3240.91 2551.43 3236.69 2549.46C3230.88 2546.73 3225.3 2543.44 3219.93 2539.61C3207.67 2530.63 3209.15 2525.54 3224.37 2524.33C3250.87 2522.14 3278.02 2521.98 3305.84 2523.84C3325.99 2525.15 3327.46 2531.12 3310.27 2541.74L3293.85 2551.76C3289.03 2554.83 3286.46 2559.21 3286.13 2564.91C3283.17 2624.86 3296.8 2713.57 3272.99 2762.69C3236.85 2837.43 3113.16 2836.44 3064.87 2775.01C3027.91 2728.02 3045.65 2625.85 3041.55 2566.06C3041.34 2563.01 3040.42 2560.06 3038.84 2557.46C3037.27 2554.86 3035.1 2552.68 3032.51 2551.11Z" fill="#ED232D"/>
<path d="M3562.57 2679.73C3566.52 2680.39 3570.24 2681.7 3573.74 2683.67C3583.25 2689.07 3591.29 2696.44 3597.23 2705.19C3622.86 2743.41 3650.23 2774.57 3679.36 2798.66C3696 2812.35 3693.54 2818.98 3671.97 2818.54L3642.24 2817.88C3623.73 2817.44 3608.73 2809.94 3597.23 2795.38C3573.25 2764.82 3550.14 2735.2 3527.91 2706.51C3515.1 2690.19 3497.31 2682.14 3474.53 2682.36C3468.84 2682.47 3466.04 2685.31 3466.15 2690.9L3467.8 2767.78C3467.91 2775.55 3471.3 2781.41 3477.98 2785.36C3485.87 2789.95 3494.35 2793.35 3503.44 2795.54C3507.6 2796.53 3511 2798.66 3513.62 2801.95C3515.71 2804.57 3515.6 2807.48 3513.3 2810.65C3512.68 2811.47 3511.89 2812.13 3510.98 2812.59C3510.07 2813.04 3509.06 2813.28 3508.04 2813.28H3379.75C3366.83 2813.28 3365.14 2808.96 3374.66 2800.3C3380.25 2795.16 3386.54 2791.1 3393.55 2788.15C3396.84 2786.78 3399.68 2784.5 3401.71 2781.59C3403.75 2778.68 3404.91 2775.26 3405.05 2771.72C3407.24 2713.9 3408.01 2656.07 3407.35 2598.25C3407.02 2563.76 3395.63 2543.39 3373.18 2537.14C3370.12 2536.38 3368.53 2534.41 3368.42 2531.23C3368.31 2529.26 3368.8 2527.62 3369.9 2526.3C3370.67 2525.43 3371.6 2524.99 3372.69 2524.99C3423.39 2524.99 3474.37 2524.49 3525.62 2523.51C3557.15 2522.85 3598.55 2537.64 3612.51 2569.34C3635.83 2622.73 3604.46 2650.49 3561.26 2671.52C3552.94 2675.57 3553.37 2678.31 3562.57 2679.73ZM3467.63 2563.43L3465.99 2644.9C3465.95 2646.78 3466.27 2648.65 3466.95 2650.4C3467.63 2652.15 3468.65 2653.75 3469.94 2655.11C3471.24 2656.47 3472.79 2657.55 3474.51 2658.31C3476.22 2659.07 3478.07 2659.48 3479.95 2659.52L3503.44 2660.02C3510.17 2660.17 3516.86 2658.98 3523.14 2656.52C3529.42 2654.06 3535.15 2650.37 3540.02 2645.68C3544.88 2640.98 3548.78 2635.36 3551.5 2629.14C3554.21 2622.92 3555.69 2616.22 3555.84 2609.42V2602.85C3555.99 2596.06 3554.82 2589.3 3552.38 2582.96C3549.95 2576.62 3546.3 2570.83 3541.65 2565.92C3537 2561.01 3531.43 2557.07 3525.27 2554.33C3519.11 2551.59 3512.47 2550.1 3505.74 2549.96L3482.25 2549.46C3480.37 2549.42 3478.51 2549.75 3476.76 2550.43C3475.01 2551.1 3473.41 2552.12 3472.05 2553.42C3470.69 2554.71 3469.6 2556.26 3468.84 2557.98C3468.09 2559.7 3467.68 2561.55 3467.63 2563.43Z" fill="#ED232D"/>
<path d="M3932.48 2782.23C3934.89 2769.42 3931.33 2757.65 3921.8 2746.92C3917.64 2742.21 3912.44 2739.85 3906.2 2739.85L3825.38 2740.02C3818.15 2740.02 3812.46 2742.97 3808.3 2748.89C3801.51 2758.63 3798.94 2768.98 3800.58 2779.93C3801.89 2788.04 3806.6 2792.97 3814.71 2794.72C3819.74 2795.81 3823.96 2798.17 3827.35 2801.78C3834.36 2809.45 3832.66 2813.28 3822.26 2813.28H3736.19C3721.3 2813.28 3719.93 2808.96 3732.08 2800.3C3746.21 2790.28 3757.38 2784.04 3764.94 2767.29C3799.76 2689.86 3830.75 2616.1 3857.9 2546.01C3872.03 2509.77 3886.76 2509.49 3902.09 2545.19L3999.82 2772.21C4002.5 2778.21 4006.91 2783.25 4012.47 2786.67C4019.92 2791.27 4026.82 2796.31 4033.17 2801.78C4042.69 2810.11 4041.16 2814.21 4028.57 2814.1H3914.9C3903.51 2814.1 3901.87 2810.05 3909.97 2801.95C3913.15 2798.88 3916.82 2796.69 3920.98 2795.38C3927.44 2793.3 3931.27 2788.91 3932.48 2782.23ZM3825.71 2707.16C3825.39 2707.97 3825.26 2708.84 3825.36 2709.7C3825.45 2710.56 3825.75 2711.38 3826.24 2712.1C3826.73 2712.81 3827.38 2713.39 3828.15 2713.79C3828.92 2714.2 3829.77 2714.4 3830.64 2714.39L3901.1 2714.56C3901.97 2714.56 3902.82 2714.36 3903.59 2713.96C3904.36 2713.56 3905.02 2712.98 3905.5 2712.26C3905.99 2711.55 3906.29 2710.72 3906.39 2709.86C3906.48 2709 3906.36 2708.13 3906.03 2707.33L3870.88 2621.09C3870.48 2620.13 3869.81 2619.32 3868.94 2618.74C3868.08 2618.17 3867.07 2617.87 3866.04 2617.87C3865 2617.87 3863.99 2618.17 3863.13 2618.74C3862.26 2619.32 3861.59 2620.13 3861.19 2621.09L3825.71 2707.16Z" fill="#ED232D"/>
<path d="M2495.39 2784.53C2539.3 2796.91 2577.3 2785.14 2609.39 2749.22C2613.22 2744.95 2617.49 2743.3 2622.2 2744.29C2623.74 2744.65 2625.19 2745.32 2626.46 2746.26C2627.73 2747.2 2628.79 2748.4 2629.57 2749.77C2630.36 2751.14 2630.86 2752.66 2631.03 2754.24C2631.2 2755.81 2631.05 2757.4 2630.58 2758.91C2619.08 2798.11 2600.46 2817.17 2574.73 2816.07C2505.41 2813.23 2441.24 2812.35 2382.22 2813.45C2377.07 2813.56 2374.01 2811.09 2373.02 2806.05C2372.8 2804.52 2373.18 2802.93 2374.17 2801.29C2375.27 2799.32 2376.85 2797.84 2378.93 2796.85L2407.35 2784.04C2410.84 2782.41 2413.79 2779.83 2415.86 2776.6C2417.92 2773.37 2419.02 2769.63 2419.01 2765.81C2418.68 2705.68 2418.79 2644.36 2419.34 2581.83C2419.51 2560.14 2406.36 2546.34 2386.33 2539.77C2383.48 2538.9 2381.89 2536.98 2381.56 2534.02C2381.01 2528.33 2383.59 2525.48 2389.28 2525.48L2500.48 2525.32C2522.28 2525.32 2523.86 2531.07 2505.25 2542.56L2489.31 2552.42C2482.74 2556.47 2479.46 2562.33 2479.46 2570L2479.62 2763.84C2479.63 2768.51 2481.18 2773.06 2484.02 2776.8C2486.87 2780.53 2490.86 2783.25 2495.39 2784.53Z" fill="#ED232D"/>
</svg>
