<svg width="6586" height="2440" viewBox="0 0 6586 2440" fill="none" xmlns="http://www.w3.org/2000/svg">
<path d="M1771.06 491.733C1770.9 492.355 1770.38 492.625 1769.51 492.542L476.209 492.636C475.172 492.636 474.653 493.165 474.653 494.223V1433.84C474.653 1434.4 474.933 1434.68 475.493 1434.68L1769.57 1434.71C1769.67 1434.26 1770.16 1434.34 1771.03 1434.96V1669.59C1771.03 1669.83 1770.94 1670.06 1770.77 1670.23C1770.6 1670.4 1770.37 1670.5 1770.13 1670.5H239.661C239.455 1670.5 239.257 1670.41 239.111 1670.27C238.965 1670.12 238.883 1669.92 238.883 1669.72V257.537C238.883 256.499 239.402 255.98 240.439 255.98H1770.1C1770.35 255.98 1770.6 256.082 1770.78 256.263C1770.96 256.444 1771.06 256.689 1771.06 256.945V491.733Z" fill="black"/>
<path d="M3900.12 1080.73H3803.45C3802.93 1080.73 3802.67 1080.47 3802.67 1079.95V920.445C3802.67 919.408 3803.19 918.889 3804.23 918.889H4092.78C4093.28 918.889 4093.53 919.148 4093.53 919.667C4093.91 1009.94 4093.85 1096.15 4093.38 1178.29C4093.23 1203.5 4089.18 1229.33 4081.24 1255.76C4040.09 1392.7 3913.54 1449.78 3777.12 1445.64C3715.58 1443.8 3654.05 1427.8 3604.47 1394.22C3529.55 1343.49 3489.99 1261.42 3489.96 1170.86C3489.9 1043.88 3489.81 911.098 3489.71 772.52C3489.69 749.054 3490.85 729.364 3493.2 713.45C3513.33 577.04 3617.6 495.997 3750.44 483.05C3824.12 475.861 3902.08 486.567 3965.86 523.758C4043.86 569.291 4087.12 647.252 4092.75 736.605C4093.96 755.631 4094.19 775.716 4093.44 796.858C4093.4 797.812 4092.91 798.29 4091.98 798.29H3903.95C3902.87 798.29 3902.32 797.75 3902.3 796.671C3902.11 787.21 3902.15 778.133 3902.39 769.439C3904.51 699.507 3857.82 656.371 3790.31 656.838C3724.58 657.305 3682.19 702.246 3682.16 767.759C3682.05 895.589 3682.02 1027.37 3682.06 1163.11C3682.06 1169.46 3682.9 1175.52 3682.84 1181.78C3682.82 1184.58 3683.07 1187.35 3683.59 1190.09C3693.34 1242.73 3724.82 1272.42 3778.02 1279.16C3790.55 1280.76 3804.31 1280.07 3819.29 1277.08C3856.52 1269.64 3884.9 1245.58 3896.82 1208.83C3901.06 1195.78 3902.95 1178.37 3902.52 1156.6C3902.04 1131.31 3902.01 1106.81 3902.43 1083.09C3902.47 1081.51 3901.7 1080.73 3900.12 1080.73Z" fill="black"/>
<path d="M4454.61 1267.56C4511.94 1278.14 4568.62 1255.2 4586.2 1196.66C4590 1184.02 4591.64 1167.37 4591.12 1146.71C4590.64 1127.97 4590.63 1108.5 4591.09 1088.29C4591.11 1087.4 4591.57 1086.95 4592.46 1086.95H4781.42C4781.94 1086.95 4782.21 1087.22 4782.23 1087.76C4782.66 1115.61 4782.57 1144.92 4781.95 1175.71C4780.91 1227 4768.26 1273.26 4744.01 1314.49C4698.44 1391.92 4615.77 1433.53 4527.63 1443.3C4367.52 1461.04 4209.75 1390.05 4182.2 1216.8C4179.84 1201.92 4178.65 1188.2 4178.63 1175.65C4178.38 1028.26 4178.4 886.296 4178.69 749.772C4178.75 728.235 4182.2 703.835 4187.78 682.859C4219.03 565.402 4313.05 497.867 4431.42 483.862C4562.02 468.425 4705.29 513.241 4759.41 642.96C4773.81 677.485 4781.35 713.213 4782.01 750.145C4782.55 778.902 4782.6 808.718 4782.17 839.591C4782.16 839.784 4782.08 839.966 4781.94 840.099C4781.8 840.233 4781.61 840.307 4781.42 840.307H4592.49C4592.13 840.307 4591.79 840.167 4591.53 839.917C4591.28 839.667 4591.13 839.327 4591.12 838.969C4590.69 823.034 4590.68 804.91 4591.09 784.598C4591.55 761.837 4590.18 744.657 4586.98 733.059C4576.61 695.359 4552.23 671.385 4513.84 661.135C4493.05 655.574 4472.26 655.253 4451.46 660.17C4399.61 672.464 4370.73 712.923 4370.73 765.395C4370.75 888.931 4370.68 1016.48 4370.51 1148.05C4370.49 1168.32 4371.94 1183.84 4374.87 1194.6C4385.32 1232.95 4415.33 1260.3 4454.61 1267.56Z" fill="black"/>
<path d="M1771.06 491.734L2592.91 491.765C2593.47 491.765 2594.01 491.988 2594.41 492.385C2594.81 492.782 2595.03 493.321 2595.03 493.882V1434.65C2595.03 1435.23 2594.74 1435.52 2594.16 1435.52L1771.03 1434.96C1770.16 1434.34 1769.67 1434.26 1769.57 1434.71L1769.51 492.544C1770.38 492.627 1770.9 492.357 1771.06 491.734Z" fill="#EE212E"/>
<path d="M1769.51 492.543L1769.57 1434.71L475.497 1434.68C474.936 1434.68 474.656 1434.4 474.656 1433.84V494.224C474.656 493.165 475.175 492.636 476.212 492.636L1769.51 492.543ZM769.688 698.418C769.688 674.844 760.322 652.236 743.652 635.566C726.981 618.897 704.371 609.532 680.796 609.532C657.22 609.532 634.61 618.897 617.939 635.566C601.269 652.236 591.903 674.844 591.903 698.418C591.903 710.091 594.202 721.649 598.67 732.433C603.137 743.217 609.685 753.016 617.939 761.27C626.194 769.523 635.993 776.071 646.778 780.538C657.563 785.005 669.122 787.304 680.796 787.304C692.469 787.304 704.028 785.005 714.813 780.538C725.598 776.071 735.398 769.523 743.652 761.27C751.906 753.016 758.454 743.217 762.921 732.433C767.389 721.649 769.688 710.091 769.688 698.418Z" fill="white"/>
<path d="M3229.91 518.685C3340.59 558.117 3404.83 659.887 3404.96 777.499C3405.12 911.761 3405.1 1037.13 3404.89 1153.61C3404.85 1176.98 3401.74 1200.61 3395.56 1224.51C3374.02 1307.65 3324.52 1366.56 3247.06 1401.26C3206.2 1419.56 3160.94 1428.82 3111.26 1429.05C3031.09 1429.4 2932.42 1429.45 2815.27 1429.2C2814.21 1429.2 2813.68 1428.67 2813.68 1427.62V499.576C2813.68 499.171 2813.84 498.783 2814.13 498.497C2814.41 498.211 2814.8 498.051 2815.2 498.051C2917.44 497.802 3018.46 497.843 3118.27 498.175C3154.64 498.3 3191.86 505.136 3229.91 518.685ZM3151.54 683.665C3137.18 677.482 3122.99 674.287 3108.96 674.079C3082.84 673.685 3048.74 673.612 3006.68 673.861C3005.63 673.882 3005.1 674.411 3005.1 675.449V1252.55C3005.1 1252.79 3005.19 1253.02 3005.36 1253.19C3005.53 1253.36 3005.76 1253.45 3006 1253.45C3038.93 1253.5 3070.84 1253.48 3101.74 1253.39C3155.12 1253.3 3200 1222.99 3210.77 1169.05C3212.76 1159.03 3213.76 1148.34 3213.76 1136.99C3213.57 1014.39 3213.55 896.522 3213.7 783.381C3213.76 740.09 3191.5 700.845 3151.54 683.665Z" fill="black"/>
<path d="M5066.24 497.992H4876.57C4876.09 497.992 4875.7 498.382 4875.7 498.864V1428.43C4875.7 1428.91 4876.09 1429.3 4876.57 1429.3H5066.24C5066.72 1429.3 5067.11 1428.91 5067.11 1428.43V498.864C5067.11 498.382 5066.72 497.992 5066.24 497.992Z" fill="black"/>
<path d="M5592.9 1069.4C5593.37 1069.39 5593.83 1069.19 5594.16 1068.85C5594.49 1068.51 5594.68 1068.05 5594.67 1067.56V499.517C5594.67 498.48 5595.19 497.961 5596.23 497.961H5784.54C5784.74 497.961 5784.94 498.043 5785.09 498.189C5785.23 498.335 5785.31 498.533 5785.31 498.739V1428.52C5785.31 1428.73 5785.23 1428.93 5785.09 1429.07C5784.94 1429.22 5784.74 1429.3 5784.54 1429.3H5564.33C5563.25 1429.3 5562.54 1428.78 5562.21 1427.74C5499.07 1238.69 5436.02 1049.63 5373.07 860.569C5372.32 858.307 5370.97 857.519 5369.02 858.203C5368.56 858.36 5368.17 858.657 5367.89 859.053C5367.61 859.45 5367.46 859.925 5367.46 860.413V1428.52C5367.46 1428.73 5367.38 1428.93 5367.24 1429.07C5367.09 1429.22 5366.89 1429.3 5366.69 1429.3H5176.82C5176.31 1429.3 5176.05 1429.04 5176.05 1428.52V499.517C5176.05 499.104 5176.21 498.709 5176.5 498.417C5176.79 498.125 5177.19 497.961 5177.6 497.961H5397.69C5397.83 497.96 5397.97 498.005 5398.09 498.088C5398.21 498.172 5398.29 498.291 5398.34 498.428C5461.94 687.963 5525.59 877.52 5589.29 1067.1C5589.46 1067.64 5589.76 1068.08 5590.19 1068.44C5591 1069.08 5591.9 1069.4 5592.9 1069.4Z" fill="black"/>
<path d="M6086.45 674.954V871.835C6086.45 872.14 6086.57 872.433 6086.79 872.649C6087 872.865 6087.29 872.986 6087.6 872.986H6340.52C6340.83 872.986 6341.12 873.108 6341.33 873.324C6341.55 873.54 6341.67 873.833 6341.67 874.138V1044.56C6341.67 1044.87 6341.55 1045.16 6341.33 1045.38C6341.12 1045.59 6340.83 1045.72 6340.52 1045.72H6087.6C6087.29 1045.72 6087 1045.84 6086.79 1046.05C6086.57 1046.27 6086.45 1046.56 6086.45 1046.87V1252.31C6086.45 1252.61 6086.57 1252.91 6086.79 1253.12C6087 1253.34 6087.29 1253.46 6087.6 1253.46H6384.87C6385.18 1253.46 6385.47 1253.58 6385.69 1253.8C6385.9 1254.01 6386.02 1254.3 6386.02 1254.61V1428.15C6386.02 1428.45 6385.9 1428.75 6385.69 1428.96C6385.47 1429.18 6385.18 1429.3 6384.87 1429.3H5896.18C5895.88 1429.3 5895.58 1429.18 5895.37 1428.96C5895.15 1428.75 5895.03 1428.45 5895.03 1428.15V499.112C5895.03 498.961 5895.06 498.812 5895.12 498.672C5895.18 498.532 5895.26 498.405 5895.37 498.298C5895.48 498.191 5895.6 498.106 5895.74 498.049C5895.88 497.991 5896.03 497.961 5896.18 497.961H6384.87C6385.02 497.961 6385.17 497.991 6385.31 498.049C6385.45 498.106 6385.58 498.191 6385.69 498.298C6385.79 498.405 6385.88 498.532 6385.94 498.672C6385.99 498.812 6386.02 498.961 6386.02 499.112V672.651C6386.02 672.957 6385.9 673.25 6385.69 673.466C6385.47 673.681 6385.18 673.803 6384.87 673.803H6087.6C6087.29 673.803 6087 673.924 6086.79 674.14C6086.57 674.356 6086.45 674.649 6086.45 674.954Z" fill="black"/>
<path d="M680.791 787.303C729.885 787.303 769.683 747.507 769.683 698.417C769.683 649.327 729.885 609.531 680.791 609.531C631.697 609.531 591.898 649.327 591.898 698.417C591.898 747.507 631.697 787.303 680.791 787.303Z" fill="#EE212E"/>
<path d="M3891.84 1560.07C3891.95 1559.83 3892.13 1559.63 3892.36 1559.48C3892.58 1559.34 3892.85 1559.26 3893.12 1559.27L3928.53 1559.23C3929.15 1559.23 3929.75 1559.4 3930.27 1559.72C3930.79 1560.04 3931.21 1560.51 3931.47 1561.06C3931.74 1561.61 3931.85 1562.22 3931.78 1562.83C3931.71 1563.44 3931.47 1564.02 3931.09 1564.49L3897.35 1606.7C3896.5 1607.73 3895.4 1608.25 3894.05 1608.25H3871.95C3871.69 1608.25 3871.43 1608.19 3871.19 1608.06C3870.96 1607.93 3870.77 1607.75 3870.63 1607.52C3870.49 1607.3 3870.41 1607.04 3870.39 1606.78C3870.38 1606.51 3870.43 1606.25 3870.55 1606.01L3891.84 1560.07Z" fill="black"/>
<path d="M3503.46 1680.96C3495.21 1641.27 3431.28 1645.69 3431.41 1689.86C3431.49 1726.08 3431.52 1761.59 3431.5 1796.39C3431.47 1838.56 3501.28 1842.48 3504.43 1795.36C3504.82 1789.41 3504.85 1783.42 3504.52 1777.4C3504.46 1776.16 3505.05 1775.54 3506.29 1775.54H3536.7C3538.01 1775.54 3538.7 1776.18 3538.76 1777.47C3539.34 1787.99 3539.3 1796.47 3538.63 1802.92C3534.93 1838.12 3510 1858.76 3476.01 1861.06C3443.27 1863.27 3411.52 1851.54 3400.22 1819.57C3396.63 1809.43 3395.05 1795.11 3395.49 1776.63C3396.01 1755.3 3396 1733.21 3395.46 1710.37C3394.96 1688.73 3396.67 1672.78 3400.59 1662.53C3412.48 1631.44 3443.95 1619.64 3475.7 1622.32C3508.34 1625.04 3528.75 1640.76 3536.92 1669.47C3540.22 1681.05 3538.48 1693.65 3539.01 1706.04C3539.05 1707.24 3538.46 1707.85 3537.23 1707.85H3506.29C3504.95 1707.85 3504.32 1707.18 3504.43 1705.85C3505.24 1696.16 3504.91 1687.86 3503.46 1680.96Z" fill="black"/>
<path d="M3654.76 1657.36C3628.62 1646.57 3601.63 1661.29 3601.79 1691.19C3601.98 1726.13 3601.96 1759.88 3601.73 1792.44C3601.35 1841.02 3673.44 1841.77 3675 1795.05C3675.18 1789.24 3675.14 1783.39 3674.87 1777.5C3674.81 1776.19 3675.43 1775.54 3676.74 1775.54H3707.89C3709.31 1775.54 3710.04 1776.24 3710.1 1777.65C3710.77 1792.57 3709.86 1804.75 3707.37 1814.19C3698.06 1849.42 3666.19 1863.12 3631.76 1861.12C3593.45 1858.91 3566.68 1833.98 3566.81 1795.17C3566.93 1762.41 3566.9 1727.43 3566.71 1690.23C3566.53 1653.66 3587.19 1628.42 3624.73 1622.91C3661.67 1617.53 3696.5 1632.06 3707.09 1668.04C3709.6 1676.57 3710.62 1689.12 3710.17 1705.7C3710.13 1707.13 3709.39 1707.85 3707.96 1707.85H3677.17C3675.56 1707.85 3674.8 1707.04 3674.9 1705.42C3676.12 1685.84 3675.4 1665.92 3654.76 1657.36Z" fill="black"/>
<path d="M3960.04 1795.23C3960.1 1812.58 3953.26 1829.24 3941.04 1841.55C3928.81 1853.87 3912.19 1860.82 3894.84 1860.88L3879.4 1860.93C3862.05 1860.99 3845.39 1854.16 3833.07 1841.93C3820.76 1829.71 3813.81 1813.09 3813.75 1795.74L3813.38 1688.12C3813.31 1670.77 3820.15 1654.11 3832.38 1641.79C3844.6 1629.48 3861.22 1622.53 3878.57 1622.47L3894.01 1622.42C3911.36 1622.36 3928.03 1629.19 3940.34 1641.42C3952.65 1653.64 3959.6 1670.26 3959.66 1687.61L3960.04 1795.23ZM3924.83 1690.04C3924.83 1680.53 3921.05 1671.4 3914.32 1664.67C3907.59 1657.94 3898.46 1654.16 3888.95 1654.16H3884.53C3875.01 1654.16 3865.88 1657.94 3859.15 1664.67C3852.42 1671.4 3848.64 1680.53 3848.64 1690.04V1793.24C3848.64 1802.76 3852.42 1811.89 3859.15 1818.62C3865.88 1825.35 3875.01 1829.13 3884.53 1829.13H3888.95C3898.46 1829.13 3907.59 1825.35 3914.32 1818.62C3921.05 1811.89 3924.83 1802.76 3924.83 1793.24V1690.04Z" fill="black"/>
<path d="M4338.23 1765.42H4307.66C4307.15 1765.42 4306.89 1765.16 4306.89 1764.64V1735.85C4306.89 1735.33 4307.15 1735.08 4307.66 1735.08H4373.65C4374.98 1735.08 4375.62 1735.74 4375.58 1737.07C4375.1 1752.42 4375.09 1767.57 4375.55 1782.51C4376.05 1798.88 4374.45 1811.8 4370.75 1821.28C4357.4 1855.49 4319.15 1866.57 4284.82 1859.41C4246.66 1851.44 4231.32 1823.56 4231.94 1787.24C4232.46 1757.4 4232.45 1728.73 4231.91 1701.21C4231.6 1684.91 4233.12 1672.34 4236.48 1663.52C4245.11 1641.03 4262.27 1627.63 4287.96 1623.31C4298.79 1621.51 4313.39 1621.29 4324.25 1623.94C4360.77 1632.88 4377.8 1658.01 4375.33 1699.32C4375.31 1699.81 4375.06 1700.06 4374.58 1700.06H4341.75C4340.77 1700.06 4340.31 1699.57 4340.38 1698.6C4342.02 1671.56 4331.38 1656.85 4308.47 1654.47C4291.58 1652.7 4279.32 1658.37 4271.68 1671.46C4268.51 1676.9 4266.96 1687.29 4267.05 1702.65C4267.25 1738.23 4267.34 1769.31 4267.3 1795.89C4267.23 1833.83 4321.95 1843.69 4336.92 1811.98C4342.84 1799.41 4339.97 1781.51 4340.47 1767.75C4340.53 1766.2 4339.78 1765.42 4338.23 1765.42Z" fill="black"/>
<path d="M5939.19 1682.82C5934.59 1648.18 5881.64 1643.7 5869.63 1674.3C5867.3 1680.27 5866.14 1687.21 5866.14 1695.12C5866.18 1727.15 5866.29 1759.59 5866.45 1792.44C5866.52 1805.55 5871.03 1815.39 5879.99 1821.97C5899.91 1836.63 5932.59 1829.57 5938.63 1803.02C5940.21 1796 5940.65 1787.52 5939.94 1777.56C5939.84 1776.21 5940.46 1775.54 5941.81 1775.54H5972.28C5973.79 1775.54 5974.52 1776.29 5974.46 1777.81C5974.15 1789.73 5975.58 1802.24 5972.34 1813.79C5962.63 1848.77 5932.53 1863.21 5896.65 1861.15C5868.91 1859.57 5845.32 1845.94 5835.58 1819.79C5832.2 1810.68 5830.65 1795.84 5830.94 1775.26C5831.33 1747.16 5831.4 1720.45 5831.13 1695.12C5830.57 1646.69 5859.42 1621.17 5906.57 1622.1C5945.64 1622.88 5976.36 1648.77 5974.52 1689.11C5974.27 1694.5 5974.28 1700.11 5974.55 1705.92C5974.61 1707.2 5974 1707.85 5972.71 1707.85H5941.81C5940.56 1707.85 5939.97 1707.22 5940.03 1705.98C5940.45 1697.8 5940.17 1690.08 5939.19 1682.82Z" fill="black"/>
<path d="M2827.69 1627.21C2827.69 1626.9 2827.81 1626.61 2828.02 1626.39C2828.24 1626.18 2828.53 1626.05 2828.84 1626.05H2900.77C2909.6 1626.05 2918.34 1627.76 2926.5 1631.08C2934.65 1634.4 2942.06 1639.27 2948.31 1645.41C2954.55 1651.54 2959.5 1658.83 2962.88 1666.84C2966.26 1674.86 2968 1683.45 2968 1692.13V1791.28C2968 1808.81 2960.91 1825.61 2948.31 1838C2935.7 1850.4 2918.6 1857.36 2900.77 1857.36H2828.84C2828.53 1857.36 2828.24 1857.24 2828.02 1857.02C2827.81 1856.8 2827.69 1856.51 2827.69 1856.21V1627.21ZM2861.68 1660.16V1823.43C2861.68 1823.99 2861.9 1824.53 2862.3 1824.93C2862.69 1825.33 2863.23 1825.55 2863.79 1825.55H2896.29C2901.11 1825.55 2905.89 1824.63 2910.34 1822.83C2914.8 1821.03 2918.85 1818.4 2922.26 1815.09C2925.67 1811.77 2928.37 1807.83 2930.22 1803.49C2932.06 1799.16 2933.01 1794.51 2933.01 1789.82V1693.78C2933.01 1689.09 2932.06 1684.44 2930.22 1680.1C2928.37 1675.77 2925.67 1671.83 2922.26 1668.51C2918.85 1665.2 2914.8 1662.56 2910.34 1660.77C2905.89 1658.97 2901.11 1658.05 2896.29 1658.05H2863.79C2863.23 1658.05 2862.69 1658.27 2862.3 1658.67C2861.9 1659.07 2861.68 1659.6 2861.68 1660.16Z" fill="black"/>
<path d="M3036.84 1626.15H3003.72C3003.21 1626.15 3002.79 1626.57 3002.79 1627.08V1856.33C3002.79 1856.85 3003.21 1857.26 3003.72 1857.26H3036.84C3037.36 1857.26 3037.77 1856.85 3037.77 1856.33V1627.08C3037.77 1626.57 3037.36 1626.15 3036.84 1626.15Z" fill="black"/>
<path d="M3114.03 1772.42V1855.68C3114.03 1856.71 3113.51 1857.23 3112.47 1857.23H3080.57C3079.53 1857.23 3079.02 1856.71 3079.02 1855.68V1627.86C3079.02 1626.74 3079.58 1626.18 3080.7 1626.18C3105.33 1626.01 3128.61 1626.02 3150.54 1626.21C3201.74 1626.68 3223.28 1662.66 3218.7 1709.18C3216.09 1735.91 3204.07 1754.17 3182.66 1763.96C3181.6 1764.44 3181.31 1765.19 3181.79 1766.23L3222.13 1855.86C3222.54 1856.78 3222.24 1857.23 3221.22 1857.23H3182.69C3182.05 1857.23 3181.61 1856.93 3181.39 1856.33L3147.49 1771.68C3147.31 1771.21 3146.99 1770.81 3146.57 1770.53C3146.16 1770.24 3145.66 1770.09 3145.16 1770.09H3116.37C3114.81 1770.09 3114.03 1770.87 3114.03 1772.42ZM3113.94 1659.26L3114.06 1737.88C3114.06 1738.19 3114.19 1738.49 3114.41 1738.71C3114.63 1738.94 3114.93 1739.06 3115.24 1739.06L3147.37 1739C3152.19 1738.99 3156.96 1738.03 3161.42 1736.18C3165.87 1734.33 3169.91 1731.61 3173.32 1728.2C3176.72 1724.78 3179.42 1720.73 3181.26 1716.27C3183.1 1711.81 3184.04 1707.03 3184.03 1702.21V1694.68C3184.02 1689.86 3183.06 1685.08 3181.21 1680.63C3179.36 1676.18 3176.65 1672.13 3173.23 1668.73C3169.81 1665.33 3165.76 1662.63 3161.3 1660.79C3156.84 1658.95 3152.06 1658.01 3147.24 1658.02L3115.12 1658.08C3114.81 1658.08 3114.51 1658.2 3114.28 1658.43C3114.06 1658.65 3113.94 1658.95 3113.94 1659.26Z" fill="black"/>
<path d="M3285.22 1757.05V1824.37C3285.22 1824.62 3285.32 1824.87 3285.5 1825.05C3285.68 1825.23 3285.93 1825.33 3286.18 1825.33H3366.73C3366.99 1825.33 3367.24 1825.43 3367.42 1825.61C3367.6 1825.8 3367.7 1826.04 3367.7 1826.3V1856.27C3367.7 1856.52 3367.6 1856.77 3367.42 1856.95C3367.24 1857.13 3366.99 1857.23 3366.73 1857.23H3251.17C3250.91 1857.23 3250.67 1857.13 3250.49 1856.95C3250.3 1856.77 3250.2 1856.52 3250.2 1856.27V1627.11C3250.2 1626.86 3250.3 1626.61 3250.49 1626.43C3250.67 1626.25 3250.91 1626.15 3251.17 1626.15H3366.73C3366.99 1626.15 3367.24 1626.25 3367.42 1626.43C3367.6 1626.61 3367.7 1626.86 3367.7 1627.11V1657.08C3367.7 1657.34 3367.6 1657.59 3367.42 1657.77C3367.24 1657.95 3366.99 1658.05 3366.73 1658.05H3286.18C3285.93 1658.05 3285.68 1658.15 3285.5 1658.33C3285.32 1658.51 3285.22 1658.76 3285.22 1659.01V1724C3285.22 1724.25 3285.32 1724.5 3285.5 1724.68C3285.68 1724.86 3285.93 1724.96 3286.18 1724.96H3356.62C3356.87 1724.96 3357.12 1725.06 3357.3 1725.24C3357.48 1725.43 3357.58 1725.67 3357.58 1725.93V1755.12C3357.58 1755.38 3357.48 1755.62 3357.3 1755.8C3357.12 1755.98 3356.87 1756.08 3356.62 1756.08H3286.18C3285.93 1756.08 3285.68 1756.19 3285.5 1756.37C3285.32 1756.55 3285.22 1756.79 3285.22 1757.05Z" fill="black"/>
<path d="M3777.61 1626.15H3744.5C3743.98 1626.15 3743.56 1626.57 3743.56 1627.08V1856.33C3743.56 1856.85 3743.98 1857.26 3744.5 1857.26H3777.61C3778.13 1857.26 3778.55 1856.85 3778.55 1856.33V1627.08C3778.55 1626.57 3778.13 1626.15 3777.61 1626.15Z" fill="black"/>
<path d="M4103.62 1790.79C4103.74 1785.22 4102.28 1779.3 4102.28 1773.51C4102.26 1726.06 4102.25 1677.48 4102.25 1627.77C4102.25 1627.34 4102.42 1626.93 4102.73 1626.62C4103.04 1626.32 4103.46 1626.15 4103.9 1626.15H4135.71C4136.74 1626.15 4137.26 1626.67 4137.26 1627.7V1855.68C4137.26 1856.09 4137.1 1856.49 4136.81 1856.78C4136.52 1857.07 4136.12 1857.23 4135.71 1857.23H4097.67C4096.59 1857.23 4095.85 1856.73 4095.43 1855.74L4031.63 1694.62C4028.8 1687.52 4027.69 1687.77 4028.3 1695.36C4028.46 1697.4 4028.55 1699.33 4028.58 1701.15C4029.28 1752.59 4029.39 1804.13 4028.92 1855.77C4028.9 1856.75 4028.41 1857.23 4027.45 1857.23H3996.42C3995.39 1857.23 3994.87 1856.71 3994.87 1855.68V1627.7C3994.87 1626.67 3995.39 1626.15 3996.42 1626.15H4034.68C4035.57 1626.15 4036.18 1626.56 4036.51 1627.39L4101.41 1791.19C4102.78 1794.68 4103.51 1794.54 4103.62 1790.79Z" fill="black"/>
<path d="M4446.36 1724.96H4516.01C4516.27 1724.96 4516.51 1725.06 4516.69 1725.24C4516.88 1725.43 4516.98 1725.67 4516.98 1725.93V1755.12C4516.98 1755.38 4516.88 1755.62 4516.69 1755.8C4516.51 1755.98 4516.27 1756.08 4516.01 1756.08H4446.36C4446.1 1756.08 4445.85 1756.19 4445.67 1756.37C4445.49 1756.55 4445.39 1756.79 4445.39 1757.05V1824.37C4445.39 1824.62 4445.49 1824.87 4445.67 1825.05C4445.85 1825.23 4446.1 1825.33 4446.36 1825.33H4526.91C4527.16 1825.33 4527.41 1825.43 4527.59 1825.61C4527.77 1825.8 4527.87 1826.04 4527.87 1826.3V1856.27C4527.87 1856.52 4527.77 1856.77 4527.59 1856.95C4527.41 1857.13 4527.16 1857.23 4526.91 1857.23H4411.34C4411.08 1857.23 4410.84 1857.13 4410.66 1856.95C4410.48 1856.77 4410.38 1856.52 4410.38 1856.27V1627.11C4410.38 1626.86 4410.48 1626.61 4410.66 1626.43C4410.84 1626.25 4411.08 1626.15 4411.34 1626.15H4526.91C4527.16 1626.15 4527.41 1626.25 4527.59 1626.43C4527.77 1626.61 4527.87 1626.86 4527.87 1627.11V1657.08C4527.87 1657.34 4527.77 1657.59 4527.59 1657.77C4527.41 1657.95 4527.16 1658.05 4526.91 1658.05H4446.36C4446.1 1658.05 4445.85 1658.15 4445.67 1658.33C4445.49 1658.51 4445.39 1658.76 4445.39 1659.01V1724C4445.39 1724.25 4445.49 1724.5 4445.67 1724.68C4445.85 1724.86 4446.1 1724.96 4446.36 1724.96Z" fill="black"/>
<path d="M4596.82 1694.9C4596.94 1696.45 4597.84 1699.47 4597.84 1701.74C4597.91 1750.11 4597.93 1801.39 4597.91 1855.58C4597.91 1856.02 4597.73 1856.44 4597.42 1856.75C4597.11 1857.06 4596.69 1857.23 4596.26 1857.23L4564.45 1857.26C4563.41 1857.26 4562.89 1856.73 4562.89 1855.68V1627.7C4562.89 1626.67 4563.41 1626.15 4564.45 1626.15H4603.63C4603.92 1626.15 4604.21 1626.23 4604.45 1626.39C4604.69 1626.55 4604.87 1626.78 4604.97 1627.05L4669.62 1790.29C4671.55 1795.14 4672.51 1794.9 4672.51 1789.57C4672.54 1786.21 4671.08 1781.57 4671.08 1777.53C4671.04 1727.25 4671.03 1677.36 4671.05 1627.83C4671.05 1626.71 4671.61 1626.15 4672.73 1626.15H4704.51C4705.55 1626.15 4706.06 1626.67 4706.06 1627.7V1855.68C4706.06 1856.71 4705.55 1857.23 4704.51 1857.23H4666.91C4665.44 1857.23 4664.43 1856.55 4663.89 1855.18C4641.92 1799.88 4620.63 1746.22 4600.02 1694.18C4597.41 1687.6 4596.34 1687.84 4596.82 1694.9Z" fill="black"/>
<path d="M4782.32 1757.05V1824.37C4782.32 1824.62 4782.42 1824.87 4782.6 1825.05C4782.78 1825.23 4783.03 1825.33 4783.29 1825.33H4863.84C4864.09 1825.33 4864.34 1825.43 4864.52 1825.61C4864.7 1825.8 4864.8 1826.04 4864.8 1826.3V1856.27C4864.8 1856.52 4864.7 1856.77 4864.52 1856.95C4864.34 1857.13 4864.09 1857.23 4863.84 1857.23H4748.27C4748.01 1857.23 4747.77 1857.13 4747.59 1856.95C4747.41 1856.77 4747.3 1856.52 4747.3 1856.27V1627.11C4747.3 1626.86 4747.41 1626.61 4747.59 1626.43C4747.77 1626.25 4748.01 1626.15 4748.27 1626.15H4863.84C4864.09 1626.15 4864.34 1626.25 4864.52 1626.43C4864.7 1626.61 4864.8 1626.86 4864.8 1627.11V1657.08C4864.8 1657.34 4864.7 1657.59 4864.52 1657.77C4864.34 1657.95 4864.09 1658.05 4863.84 1658.05H4783.29C4783.03 1658.05 4782.78 1658.15 4782.6 1658.33C4782.42 1658.51 4782.32 1658.76 4782.32 1659.01V1724C4782.32 1724.25 4782.42 1724.5 4782.6 1724.68C4782.78 1724.86 4783.03 1724.96 4783.29 1724.96H4852.94C4853.2 1724.96 4853.44 1725.06 4853.62 1725.24C4853.81 1725.43 4853.91 1725.67 4853.91 1725.93V1755.12C4853.91 1755.38 4853.81 1755.62 4853.62 1755.8C4853.44 1755.98 4853.2 1756.08 4852.94 1756.08H4783.29C4783.03 1756.08 4782.78 1756.19 4782.6 1756.37C4782.42 1756.55 4782.32 1756.79 4782.32 1757.05Z" fill="black"/>
<path d="M4934.83 1772.42V1855.68C4934.83 1856.71 4934.31 1857.23 4933.27 1857.23H4901.37C4900.33 1857.23 4899.81 1856.71 4899.81 1855.68V1627.83C4899.81 1626.65 4900.4 1626.06 4901.59 1626.08C4923.95 1626.23 4946.85 1626.22 4970.28 1626.05C5023.94 1625.65 5046.63 1666.76 5038.6 1715.62C5034.7 1739.34 5022.77 1755.49 5002.8 1764.08C5002.67 1764.14 5002.55 1764.23 5002.45 1764.34C5002.35 1764.44 5002.27 1764.57 5002.22 1764.71C5002.17 1764.84 5002.14 1764.99 5002.15 1765.13C5002.15 1765.27 5002.18 1765.41 5002.24 1765.54L5042.71 1855.49C5042.79 1855.68 5042.82 1855.88 5042.81 1856.09C5042.79 1856.29 5042.72 1856.49 5042.61 1856.66C5042.5 1856.83 5042.35 1856.97 5042.17 1857.07C5041.99 1857.17 5041.79 1857.23 5041.59 1857.23H5004.11C5003.63 1857.23 5003.15 1857.09 5002.75 1856.82C5002.35 1856.54 5002.05 1856.16 5001.87 1855.71L4968.19 1771.33C4968.05 1770.97 4967.79 1770.65 4967.46 1770.43C4967.14 1770.21 4966.75 1770.09 4966.36 1770.09H4937.16C4935.61 1770.09 4934.83 1770.87 4934.83 1772.42ZM4934.64 1660.01V1737.19C4934.64 1737.71 4934.85 1738.21 4935.22 1738.58C4935.58 1738.95 4936.08 1739.15 4936.6 1739.15H4967.79C4977.62 1739.15 4987.05 1735.31 4994 1728.47C5000.95 1721.63 5004.86 1712.35 5004.86 1702.68V1694.52C5004.86 1684.85 5000.95 1675.57 4994 1668.73C4987.05 1661.89 4977.62 1658.05 4967.79 1658.05H4936.6C4936.08 1658.05 4935.58 1658.25 4935.22 1658.62C4934.85 1658.99 4934.64 1659.49 4934.64 1660.01Z" fill="black"/>
<path d="M5106.98 1803.55L5095.59 1856.39C5095.54 1856.61 5095.42 1856.81 5095.24 1856.95C5095.07 1857.09 5094.85 1857.17 5094.63 1857.17L5058.86 1857.36C5058.71 1857.36 5058.56 1857.32 5058.43 1857.26C5058.29 1857.19 5058.17 1857.09 5058.08 1856.97C5057.98 1856.85 5057.92 1856.71 5057.89 1856.56C5057.86 1856.41 5057.86 1856.26 5057.9 1856.11L5114.7 1626.9C5114.76 1626.68 5114.88 1626.49 5115.06 1626.36C5115.23 1626.22 5115.45 1626.15 5115.67 1626.15H5163.1C5163.32 1626.15 5163.54 1626.22 5163.71 1626.36C5163.89 1626.49 5164.01 1626.68 5164.07 1626.9L5220.87 1855.99C5220.91 1856.13 5220.91 1856.29 5220.88 1856.44C5220.85 1856.59 5220.78 1856.73 5220.69 1856.85C5220.6 1856.97 5220.48 1857.06 5220.34 1857.13C5220.21 1857.2 5220.06 1857.23 5219.9 1857.23H5183.21C5182.98 1857.24 5182.75 1857.16 5182.57 1857.02C5182.39 1856.88 5182.26 1856.68 5182.21 1856.45L5170.41 1803.55C5170.36 1803.32 5170.24 1803.12 5170.06 1802.98C5169.87 1802.84 5169.65 1802.76 5169.42 1802.77H5107.95C5107.72 1802.77 5107.5 1802.85 5107.33 1802.99C5107.15 1803.13 5107.03 1803.33 5106.98 1803.55ZM5114.42 1770.43C5114.39 1770.58 5114.39 1770.74 5114.43 1770.89C5114.46 1771.04 5114.53 1771.18 5114.63 1771.3C5114.73 1771.42 5114.86 1771.52 5115 1771.58C5115.14 1771.65 5115.29 1771.68 5115.45 1771.68L5162.35 1771.58C5162.51 1771.58 5162.66 1771.55 5162.79 1771.48C5162.93 1771.41 5163.05 1771.32 5163.15 1771.2C5163.24 1771.08 5163.31 1770.94 5163.35 1770.79C5163.38 1770.64 5163.38 1770.49 5163.35 1770.34L5139.69 1662.56C5139.64 1662.34 5139.51 1662.14 5139.33 1662C5139.15 1661.86 5138.93 1661.79 5138.7 1661.79C5138.47 1661.79 5138.25 1661.86 5138.07 1662C5137.89 1662.14 5137.76 1662.34 5137.7 1662.56L5114.42 1770.43Z" fill="black"/>
<path d="M5282.87 1825.33H5358.69C5358.82 1825.33 5358.95 1825.36 5359.07 1825.41C5359.19 1825.46 5359.3 1825.53 5359.39 1825.62C5359.48 1825.72 5359.56 1825.83 5359.61 1825.95C5359.66 1826.07 5359.68 1826.2 5359.68 1826.33V1856.24C5359.68 1856.37 5359.66 1856.5 5359.61 1856.62C5359.56 1856.74 5359.48 1856.85 5359.39 1856.94C5359.3 1857.03 5359.19 1857.11 5359.07 1857.16C5358.95 1857.21 5358.82 1857.23 5358.69 1857.23H5248.63C5248.5 1857.23 5248.37 1857.21 5248.25 1857.16C5248.13 1857.11 5248.02 1857.03 5247.92 1856.94C5247.83 1856.85 5247.76 1856.74 5247.71 1856.62C5247.66 1856.5 5247.63 1856.37 5247.63 1856.24V1627.14C5247.63 1627.01 5247.66 1626.88 5247.71 1626.76C5247.76 1626.64 5247.83 1626.53 5247.92 1626.44C5248.02 1626.35 5248.13 1626.27 5248.25 1626.22C5248.37 1626.17 5248.5 1626.15 5248.63 1626.15H5280.87C5281.01 1626.15 5281.13 1626.17 5281.26 1626.22C5281.38 1626.27 5281.49 1626.35 5281.58 1626.44C5281.67 1626.53 5281.74 1626.64 5281.79 1626.76C5281.84 1626.88 5281.87 1627.01 5281.87 1627.14V1824.34C5281.87 1824.47 5281.9 1824.6 5281.95 1824.72C5282 1824.84 5282.07 1824.95 5282.16 1825.04C5282.25 1825.13 5282.36 1825.21 5282.48 1825.26C5282.61 1825.31 5282.74 1825.33 5282.87 1825.33Z" fill="black"/>
<path d="M5449.95 1627.18C5449.95 1626.88 5450.06 1626.59 5450.27 1626.38C5450.48 1626.17 5450.77 1626.05 5451.07 1626.05H5522.96C5540.81 1626.05 5557.93 1633.06 5570.55 1645.53C5583.17 1658.01 5590.26 1674.92 5590.26 1692.56V1790.85C5590.26 1808.49 5583.17 1825.4 5570.55 1837.88C5557.93 1850.35 5540.81 1857.36 5522.96 1857.36H5451.07C5450.77 1857.36 5450.48 1857.24 5450.27 1857.03C5450.06 1856.82 5449.95 1856.53 5449.95 1856.24V1627.18ZM5484.12 1659.23V1824.24C5484.12 1824.57 5484.25 1824.89 5484.48 1825.12C5484.72 1825.36 5485.04 1825.49 5485.37 1825.49H5518.08C5527.91 1825.49 5537.34 1821.75 5544.29 1815.1C5551.24 1808.44 5555.15 1799.42 5555.15 1790.01V1693.47C5555.15 1684.06 5551.24 1675.03 5544.29 1668.38C5537.34 1661.72 5527.91 1657.99 5518.08 1657.99H5485.37C5485.04 1657.99 5484.72 1658.12 5484.48 1658.35C5484.25 1658.58 5484.12 1658.9 5484.12 1659.23Z" fill="black"/>
<path d="M5660.04 1757.02V1824.4C5660.04 1824.65 5660.14 1824.88 5660.31 1825.06C5660.49 1825.23 5660.73 1825.33 5660.97 1825.33H5741.59C5741.83 1825.33 5742.07 1825.43 5742.25 1825.61C5742.42 1825.78 5742.52 1826.02 5742.52 1826.27V1856.3C5742.52 1856.55 5742.42 1856.78 5742.25 1856.96C5742.07 1857.13 5741.83 1857.23 5741.59 1857.23H5625.96C5625.71 1857.23 5625.47 1857.13 5625.3 1856.96C5625.12 1856.78 5625.02 1856.55 5625.02 1856.3V1627.08C5625.02 1626.83 5625.12 1626.6 5625.3 1626.42C5625.47 1626.25 5625.71 1626.15 5625.96 1626.15H5741.59C5741.83 1626.15 5742.07 1626.25 5742.25 1626.42C5742.42 1626.6 5742.52 1626.83 5742.52 1627.08V1657.12C5742.52 1657.36 5742.42 1657.6 5742.25 1657.78C5742.07 1657.95 5741.83 1658.05 5741.59 1658.05H5660.97C5660.73 1658.05 5660.49 1658.15 5660.31 1658.32C5660.14 1658.5 5660.04 1658.73 5660.04 1658.98V1724.03C5660.04 1724.28 5660.14 1724.51 5660.31 1724.69C5660.49 1724.86 5660.73 1724.96 5660.97 1724.96H5730.69C5730.94 1724.96 5731.18 1725.06 5731.35 1725.24C5731.53 1725.41 5731.63 1725.65 5731.63 1725.9V1755.15C5731.63 1755.4 5731.53 1755.64 5731.35 1755.81C5731.18 1755.99 5730.94 1756.08 5730.69 1756.08H5660.97C5660.73 1756.08 5660.49 1756.18 5660.31 1756.36C5660.14 1756.53 5660.04 1756.77 5660.04 1757.02Z" fill="black"/>
<path d="M6042.81 1626.12H6009.5C6009.02 1626.12 6008.63 1626.51 6008.63 1626.99V1856.36C6008.63 1856.84 6009.02 1857.23 6009.5 1857.23H6042.81C6043.29 1857.23 6043.68 1856.84 6043.68 1856.36V1626.99C6043.68 1626.51 6043.29 1626.12 6042.81 1626.12Z" fill="black"/>
<path d="M6118.69 1693.75C6118.79 1697.85 6119.84 1702.65 6119.84 1707.28C6119.91 1757.29 6119.93 1806.72 6119.91 1855.58C6119.91 1856.02 6119.73 1856.44 6119.42 1856.75C6119.11 1857.06 6118.69 1857.23 6118.26 1857.23L6086.45 1857.26C6085.41 1857.26 6084.89 1856.73 6084.89 1855.68V1627.7C6084.89 1626.67 6085.41 1626.15 6086.45 1626.15H6124.57C6125.78 1626.15 6126.6 1626.71 6127.03 1627.83C6149.26 1683.93 6170.69 1737.99 6191.34 1790.01C6193.47 1795.34 6194.44 1795.13 6194.23 1789.39C6194.17 1786.77 6193.02 1783.57 6193.02 1780.67C6193.06 1732.2 6193.07 1681.25 6193.05 1627.8C6193.05 1626.7 6193.6 1626.15 6194.7 1626.15H6226.51C6227.55 1626.15 6228.06 1626.67 6228.06 1627.7V1855.68C6228.06 1856.71 6227.55 1857.23 6226.51 1857.23H6187.45C6187.15 1857.23 6186.87 1857.15 6186.62 1856.98C6186.38 1856.81 6186.19 1856.58 6186.08 1856.3L6121.34 1693.06C6119.47 1688.31 6118.59 1688.54 6118.69 1693.75Z" fill="black"/>
<path d="M6303.54 1757.05V1824.37C6303.54 1824.62 6303.64 1824.87 6303.82 1825.05C6304.01 1825.23 6304.25 1825.33 6304.51 1825.33H6385.06C6385.31 1825.33 6385.56 1825.43 6385.74 1825.61C6385.92 1825.8 6386.02 1826.04 6386.02 1826.3V1856.27C6386.02 1856.52 6385.92 1856.77 6385.74 1856.95C6385.56 1857.13 6385.31 1857.23 6385.06 1857.23H6270.27C6270.01 1857.23 6269.77 1857.13 6269.59 1856.95C6269.41 1856.77 6269.3 1856.52 6269.3 1856.27V1627.11C6269.3 1626.86 6269.41 1626.61 6269.59 1626.43C6269.77 1626.25 6270.01 1626.15 6270.27 1626.15H6385.06C6385.31 1626.15 6385.56 1626.25 6385.74 1626.43C6385.92 1626.61 6386.02 1626.86 6386.02 1627.11V1657.08C6386.02 1657.34 6385.92 1657.59 6385.74 1657.77C6385.56 1657.95 6385.31 1658.05 6385.06 1658.05H6304.51C6304.25 1658.05 6304.01 1658.15 6303.82 1658.33C6303.64 1658.51 6303.54 1658.76 6303.54 1659.01V1724C6303.54 1724.25 6303.64 1724.5 6303.82 1724.68C6304.01 1724.86 6304.25 1724.96 6304.51 1724.96H6374.94C6375.2 1724.96 6375.44 1725.06 6375.62 1725.24C6375.81 1725.43 6375.91 1725.67 6375.91 1725.93V1755.12C6375.91 1755.38 6375.81 1755.62 6375.62 1755.8C6375.44 1755.98 6375.2 1756.08 6374.94 1756.08H6304.51C6304.25 1756.08 6304.01 1756.19 6303.82 1756.37C6303.64 1756.55 6303.54 1756.79 6303.54 1757.05Z" fill="black"/>
<path d="M3367.11 1945.37L3388.18 1899.93C3388.64 1898.96 3389.39 1898.47 3390.45 1898.47H3425.12C3425.73 1898.47 3426.31 1898.64 3426.82 1898.96C3427.33 1899.28 3427.74 1899.74 3428 1900.29C3428.26 1900.83 3428.36 1901.44 3428.29 1902.05C3428.22 1902.65 3427.99 1903.22 3427.61 1903.7L3393.81 1946.02C3393.44 1946.49 3392.97 1946.87 3392.44 1947.12C3391.91 1947.38 3391.32 1947.52 3390.73 1947.52L3368.48 1947.49C3366.9 1947.49 3366.44 1946.78 3367.11 1945.37Z" fill="black"/>
<path d="M3922.22 2163.91C3941.61 2173.37 3967.04 2167.34 3974.82 2145.36C3978.06 2136.34 3976.87 2126.01 3976.93 2116.42C3976.93 2115.32 3977.48 2114.77 3978.58 2114.77H4009.77C4010.98 2114.77 4011.63 2115.37 4011.73 2116.58C4013.12 2133.76 4011.48 2148.37 4006.81 2160.43C3993.03 2195.91 3952.69 2205.77 3918.48 2197.65C3896.22 2192.38 3881.07 2179.53 3873.04 2159.09C3869.7 2150.6 3868.21 2137.78 3868.56 2120.62C3869.12 2092.9 3869.11 2065.17 3868.53 2037.43C3868.28 2025.25 3869.35 2014.88 3871.73 2006.31C3879.48 1978.42 3904.66 1963.27 3933.2 1961.46C3966.32 1959.38 3996.89 1971.48 4008.03 2004.19C4011.54 2014.44 4012.81 2028.09 4011.86 2045.15C4011.77 2046.44 4011.09 2047.08 4009.8 2047.08H3979.08C3977.46 2047.08 3976.7 2046.27 3976.78 2044.65C3978.09 2022.34 3976.44 2001.52 3951.76 1994.79C3939.99 1991.6 3929.18 1992.98 3919.32 1998.93C3906.69 2006.56 3903.48 2019.57 3903.64 2033.95C3903.99 2063.72 3903.98 2094.02 3903.61 2124.85C3903.39 2142.13 3906.62 2156.29 3922.22 2163.91Z" fill="black"/>
<path d="M4589.63 2133.84C4589.72 2151.26 4582.88 2168.01 4570.63 2180.39C4558.37 2192.78 4541.69 2199.79 4524.27 2199.88L4509.45 2199.96C4492.03 2200.05 4475.28 2193.21 4462.89 2180.96C4450.51 2168.7 4443.5 2152.03 4443.4 2134.6L4442.84 2027.73C4442.75 2010.31 4449.59 1993.56 4461.85 1981.17C4474.1 1968.79 4490.78 1961.78 4508.2 1961.69L4523.02 1961.61C4540.44 1961.52 4557.19 1968.35 4569.58 1980.61C4581.97 1992.87 4588.98 2009.54 4589.07 2026.96L4589.63 2133.84ZM4554.42 2029.41C4554.43 2024.68 4553.51 2020.01 4551.71 2015.64C4549.91 2011.28 4547.27 2007.31 4543.94 2003.97C4540.6 2000.63 4536.65 1997.97 4532.29 1996.16C4527.93 1994.34 4523.26 1993.4 4518.54 1993.4L4514.24 1993.39C4509.52 1993.38 4504.84 1994.3 4500.48 1996.1C4496.11 1997.9 4492.15 2000.54 4488.8 2003.87C4485.46 2007.2 4482.8 2011.16 4480.99 2015.52C4479.18 2019.88 4478.24 2024.55 4478.23 2029.27L4478.05 2132.16C4478.04 2136.88 4478.96 2141.56 4480.76 2145.92C4482.56 2150.29 4485.2 2154.26 4488.53 2157.6C4491.87 2160.94 4495.82 2163.6 4500.18 2165.41C4504.54 2167.23 4509.21 2168.16 4513.94 2168.17L4518.23 2168.18C4522.95 2168.19 4527.63 2167.27 4531.99 2165.47C4536.36 2163.67 4540.32 2161.03 4543.67 2157.7C4547.01 2154.36 4549.67 2150.41 4551.48 2146.05C4553.3 2141.69 4554.23 2137.02 4554.24 2132.3L4554.42 2029.41Z" fill="black"/>
<path d="M5281.25 2015.15C5272.1 1991.06 5242.06 1987.45 5223.23 2000.89C5212.22 2008.74 5210.41 2021.03 5210.32 2035.38C5210.17 2064.34 5210.14 2093.47 5210.22 2122.77C5210.29 2142.53 5213.49 2158.72 5231.86 2165.41C5251.15 2172.44 5274.87 2166.28 5281.69 2145.08C5284.61 2136.09 5283.21 2125.85 5283.4 2116.39C5283.42 2115.31 5283.98 2114.77 5285.08 2114.77H5316.3C5317.58 2114.77 5318.26 2115.41 5318.32 2116.7C5319.03 2129.17 5318.56 2139.78 5316.92 2148.54C5309.2 2189.78 5268.92 2205.71 5230.52 2198.71C5204.29 2193.94 5187.24 2180.27 5179.38 2157.72C5176.16 2148.49 5174.72 2135.34 5175.05 2118.29C5175.55 2091.54 5175.54 2064.66 5175.02 2037.65C5174.77 2024.02 5176.1 2013 5179.01 2004.6C5187.49 1980.09 5205.88 1965.94 5234.16 1962.15C5280.47 1955.92 5320.56 1981.13 5318.51 2030.8C5318.3 2035.51 5318.32 2040.29 5318.57 2045.15C5318.65 2046.44 5318.05 2047.08 5316.76 2047.08H5285.08C5284 2047.08 5283.45 2046.54 5283.43 2045.46C5283.24 2035.56 5284.83 2024.52 5281.25 2015.15Z" fill="black"/>
<path d="M2929.52 2105.43L2969.49 2194.16C2969.56 2194.33 2969.59 2194.51 2969.58 2194.69C2969.57 2194.88 2969.51 2195.05 2969.41 2195.2C2969.32 2195.35 2969.19 2195.48 2969.03 2195.56C2968.88 2195.65 2968.7 2195.69 2968.52 2195.69H2931.17C2929.83 2195.69 2928.91 2195.07 2928.44 2193.82L2895.44 2110.91C2895.26 2110.45 2894.94 2110.05 2894.53 2109.76C2894.11 2109.48 2893.62 2109.33 2893.11 2109.33H2863.48C2862.44 2109.33 2861.92 2109.84 2861.92 2110.88V2194.13C2861.92 2195.17 2861.4 2195.69 2860.37 2195.69H2828.46C2827.42 2195.69 2826.91 2195.17 2826.91 2194.13V1967.06C2826.91 1965.78 2827.55 1965.15 2828.84 1965.17C2846.25 1965.6 2864.97 1965.6 2885.02 1965.17C2904.21 1964.75 2918.73 1966.62 2928.59 1970.77C2948.05 1978.96 2960.08 1993.93 2964.66 2015.68C2971.73 2049.23 2964.07 2087.54 2930.55 2102.7C2929.31 2103.28 2928.96 2104.19 2929.52 2105.43ZM2861.61 1999.12L2861.86 2076.3C2861.86 2076.56 2861.91 2076.82 2862.01 2077.06C2862.11 2077.3 2862.26 2077.52 2862.44 2077.7C2862.63 2077.88 2862.85 2078.03 2863.09 2078.12C2863.33 2078.22 2863.59 2078.27 2863.85 2078.27L2894.88 2078.14C2904.73 2078.1 2914.17 2074.15 2921.1 2067.15C2928.04 2060.15 2931.92 2050.68 2931.89 2040.82V2034.1C2931.87 2029.22 2930.9 2024.38 2929.01 2019.87C2927.13 2015.36 2924.37 2011.27 2920.91 2007.83C2917.44 2004.39 2913.33 2001.66 2908.81 1999.81C2904.29 1997.96 2899.45 1997.01 2894.57 1997.04L2863.54 1997.16C2863.03 1997.17 2862.53 1997.38 2862.17 1997.74C2861.81 1998.11 2861.61 1998.61 2861.61 1999.12Z" fill="black"/>
<path d="M3033.11 2096.28V2162.82C3033.11 2163.08 3033.21 2163.32 3033.39 2163.51C3033.57 2163.69 3033.82 2163.79 3034.07 2163.79H3113.85C3114.1 2163.79 3114.35 2163.89 3114.53 2164.07C3114.71 2164.25 3114.81 2164.5 3114.81 2164.75V2194.72C3114.81 2194.98 3114.71 2195.23 3114.53 2195.41C3114.35 2195.59 3114.1 2195.69 3113.85 2195.69H2999.06C2998.8 2195.69 2998.56 2195.59 2998.38 2195.41C2998.2 2195.23 2998.09 2194.98 2998.09 2194.72V1966.35C2998.09 1966.09 2998.2 1965.85 2998.38 1965.67C2998.56 1965.48 2998.8 1965.38 2999.06 1965.38H3113.85C3114.1 1965.38 3114.35 1965.48 3114.53 1965.67C3114.71 1965.85 3114.81 1966.09 3114.81 1966.35V1996.32C3114.81 1996.57 3114.71 1996.82 3114.53 1997C3114.35 1997.18 3114.1 1997.28 3113.85 1997.28H3034.07C3033.82 1997.28 3033.57 1997.39 3033.39 1997.57C3033.21 1997.75 3033.11 1997.99 3033.11 1998.25V2062.45C3033.11 2062.71 3033.21 2062.95 3033.39 2063.14C3033.57 2063.32 3033.82 2063.42 3034.07 2063.42H3103.73C3103.99 2063.42 3104.23 2063.52 3104.41 2063.7C3104.59 2063.88 3104.7 2064.13 3104.7 2064.38V2094.35C3104.7 2094.61 3104.59 2094.86 3104.41 2095.04C3104.23 2095.22 3103.99 2095.32 3103.73 2095.32H3034.07C3033.82 2095.32 3033.57 2095.42 3033.39 2095.6C3033.21 2095.78 3033.11 2096.03 3033.11 2096.28Z" fill="black"/>
<path d="M3184.84 2119.31V2194.13C3184.84 2195.17 3184.32 2195.69 3183.28 2195.69H3152.16C3151.12 2195.69 3150.6 2195.17 3150.6 2194.13V1967.06C3150.6 1965.94 3151.17 1965.38 3152.31 1965.38C3173.48 1965.36 3194.54 1965.37 3215.5 1965.41C3257.11 1965.51 3282.91 1989.31 3286.93 2029.09C3291.78 2076.89 3270 2115.77 3217.24 2116.98C3207.03 2117.21 3197.03 2117.2 3187.24 2116.95C3185.64 2116.91 3184.84 2117.69 3184.84 2119.31ZM3184.84 1998.65V2083.3C3184.84 2083.67 3184.98 2084.02 3185.24 2084.27C3185.5 2084.53 3185.85 2084.67 3186.21 2084.67H3213.44C3223.79 2084.67 3233.71 2080.5 3241.02 2073.07C3248.33 2065.64 3252.44 2055.56 3252.44 2045.05V2036.9C3252.44 2026.39 3248.33 2016.32 3241.02 2008.89C3233.71 2001.46 3223.79 1997.28 3213.44 1997.28H3186.21C3185.85 1997.28 3185.5 1997.43 3185.24 1997.68C3184.98 1997.94 3184.84 1998.29 3184.84 1998.65Z" fill="black"/>
<path d="M3366.26 2164.47C3383.1 2172.13 3407.16 2167.96 3415.38 2149.63C3417.41 2145.1 3418.43 2139.24 3418.43 2132.04C3418.37 2074.13 3418.27 2019.18 3418.15 1967.19C3418.15 1965.98 3418.75 1965.38 3419.96 1965.38H3451.64C3452.12 1965.38 3452.58 1965.57 3452.92 1965.91C3453.26 1966.25 3453.45 1966.71 3453.45 1967.19C3453.11 2020.99 3453.14 2073.49 3453.54 2124.7C3453.66 2140.41 3452.19 2152.2 3449.12 2160.08C3435.55 2195.04 3397.55 2205.59 3363.46 2198.02C3340.16 2192.86 3324.64 2179.84 3316.9 2158.96C3314.29 2151.93 3313.01 2142.52 3313.07 2130.74C3313.3 2074.34 3313.35 2019.77 3313.23 1967.03C3313.21 1965.93 3313.75 1965.38 3314.85 1965.38H3345.78C3346.88 1965.38 3347.43 1965.93 3347.43 1967.03C3347.46 2024.09 3347.52 2078.76 3347.62 2131.05C3347.66 2147.71 3353.88 2158.85 3366.26 2164.47Z" fill="black"/>
<path d="M3591.23 2078.58C3594.72 2079.98 3598.58 2080.94 3601.85 2082.81C3615.02 2090.3 3623.34 2101.57 3626.81 2116.64C3636.4 2158.37 3614.39 2196.22 3569.42 2195.84C3542.59 2195.62 3517.44 2195.59 3493.97 2195.75C3492.79 2195.77 3492.2 2195.19 3492.2 2194.01V1967.06C3492.2 1965.86 3492.8 1965.27 3494 1965.29C3516.58 1965.54 3539.07 1965.51 3561.48 1965.2C3579.69 1964.95 3596.53 1969.86 3608.94 1983.62C3632.07 2009.27 3629.33 2065.26 3591.3 2076.86C3589.66 2077.36 3589.64 2077.93 3591.23 2078.58ZM3526.28 1997.5L3526.4 2063.48C3526.4 2063.93 3526.58 2064.35 3526.89 2064.67C3527.21 2064.98 3527.64 2065.16 3528.08 2065.16L3554.97 2065.1C3559.39 2065.09 3563.76 2064.21 3567.83 2062.52C3571.91 2060.82 3575.61 2058.34 3578.72 2055.21C3581.84 2052.08 3584.31 2048.37 3585.99 2044.29C3587.67 2040.21 3588.53 2035.84 3588.53 2031.42V2029.31C3588.52 2024.89 3587.64 2020.53 3585.94 2016.45C3584.25 2012.38 3581.76 2008.67 3578.64 2005.56C3575.51 2002.44 3571.8 1999.98 3567.72 1998.29C3563.64 1996.61 3559.26 1995.75 3554.85 1995.76L3527.96 1995.82C3527.51 1995.82 3527.08 1996 3526.77 1996.31C3526.45 1996.63 3526.28 1997.06 3526.28 1997.5ZM3526.37 2094.17L3526.49 2164.26C3526.49 2164.43 3526.53 2164.6 3526.59 2164.76C3526.66 2164.91 3526.76 2165.06 3526.88 2165.18C3527 2165.3 3527.14 2165.4 3527.3 2165.46C3527.46 2165.53 3527.63 2165.56 3527.8 2165.56L3559.99 2165.5C3564.47 2165.49 3568.92 2164.58 3573.06 2162.8C3577.2 2161.03 3580.96 2158.43 3584.13 2155.16C3587.3 2151.89 3589.81 2148 3591.52 2143.73C3593.23 2139.46 3594.11 2134.89 3594.1 2130.27V2127.9C3594.08 2118.58 3590.46 2109.64 3584.04 2103.06C3577.62 2096.47 3568.92 2092.78 3559.86 2092.8L3527.68 2092.86C3527.51 2092.86 3527.34 2092.89 3527.18 2092.96C3527.02 2093.03 3526.87 2093.12 3526.75 2093.24C3526.63 2093.36 3526.54 2093.51 3526.47 2093.67C3526.4 2093.83 3526.37 2094 3526.37 2094.17Z" fill="black"/>
<path d="M3693.17 2163.79H3768.21C3768.47 2163.79 3768.73 2163.89 3768.91 2164.08C3769.1 2164.27 3769.21 2164.52 3769.21 2164.78V2194.69C3769.21 2194.96 3769.1 2195.21 3768.91 2195.4C3768.73 2195.58 3768.47 2195.69 3768.21 2195.69H3658.15C3657.89 2195.69 3657.63 2195.58 3657.45 2195.4C3657.26 2195.21 3657.16 2194.96 3657.16 2194.69V1966.38C3657.16 1966.25 3657.18 1966.12 3657.23 1966C3657.28 1965.88 3657.36 1965.77 3657.45 1965.67C3657.54 1965.58 3657.65 1965.51 3657.77 1965.46C3657.89 1965.41 3658.02 1965.38 3658.15 1965.38H3691.18C3691.31 1965.38 3691.44 1965.41 3691.56 1965.46C3691.68 1965.51 3691.79 1965.58 3691.88 1965.67C3691.97 1965.77 3692.05 1965.88 3692.1 1966C3692.15 1966.12 3692.17 1966.25 3692.17 1966.38V2162.79C3692.17 2163.06 3692.28 2163.31 3692.46 2163.5C3692.65 2163.68 3692.9 2163.79 3693.17 2163.79Z" fill="black"/>
<path d="M3832.93 1965.38H3799.68C3799.19 1965.38 3798.78 1965.79 3798.78 1966.29V2194.79C3798.78 2195.28 3799.19 2195.69 3799.68 2195.69H3832.93C3833.42 2195.69 3833.83 2195.28 3833.83 2194.79V1966.29C3833.83 1965.79 3833.42 1965.38 3832.93 1965.38Z" fill="black"/>
<path d="M4137.07 2142H4075.63C4075.38 2142 4075.13 2142.09 4074.94 2142.25C4074.74 2142.41 4074.6 2142.63 4074.54 2142.87L4063.43 2194.82C4063.38 2195.06 4063.24 2195.29 4063.04 2195.44C4062.84 2195.6 4062.6 2195.69 4062.34 2195.69L4026.92 2195.66C4026.75 2195.66 4026.58 2195.62 4026.43 2195.54C4026.27 2195.47 4026.14 2195.36 4026.03 2195.23C4025.93 2195.09 4025.85 2194.93 4025.82 2194.76C4025.79 2194.6 4025.79 2194.42 4025.83 2194.26L4082.36 1966.22C4082.42 1965.98 4082.56 1965.77 4082.76 1965.62C4082.95 1965.46 4083.2 1965.38 4083.44 1965.38H4130.6C4130.85 1965.38 4131.09 1965.46 4131.29 1965.62C4131.48 1965.77 4131.63 1965.98 4131.69 1966.22L4188.24 2194.35C4188.28 2194.52 4188.29 2194.69 4188.25 2194.86C4188.22 2195.03 4188.15 2195.18 4188.04 2195.32C4187.94 2195.45 4187.8 2195.56 4187.65 2195.64C4187.49 2195.71 4187.32 2195.75 4187.15 2195.75L4150.67 2195.66C4150.42 2195.66 4150.17 2195.57 4149.98 2195.41C4149.78 2195.25 4149.64 2195.03 4149.58 2194.79L4138.16 2142.87C4138.11 2142.63 4137.97 2142.41 4137.77 2142.25C4137.57 2142.09 4137.33 2142 4137.07 2142ZM4082.04 2109.64C4082.01 2109.79 4082 2109.95 4082.04 2110.11C4082.07 2110.27 4082.14 2110.41 4082.24 2110.54C4082.34 2110.66 4082.47 2110.77 4082.61 2110.84C4082.75 2110.91 4082.91 2110.94 4083.07 2110.94L4129.94 2110.85C4130.1 2110.85 4130.26 2110.81 4130.4 2110.74C4130.54 2110.68 4130.66 2110.58 4130.76 2110.45C4130.86 2110.33 4130.93 2110.19 4130.97 2110.04C4131 2109.89 4131 2109.73 4130.97 2109.57L4107.35 2001.89C4107.29 2001.66 4107.16 2001.46 4106.97 2001.31C4106.79 2001.17 4106.56 2001.09 4106.32 2001.09C4106.08 2001.09 4105.86 2001.17 4105.67 2001.31C4105.48 2001.46 4105.35 2001.66 4105.29 2001.89L4082.04 2109.64Z" fill="black"/>
<path d="M4274.98 1966.38C4274.98 1966.07 4275.11 1965.78 4275.32 1965.56C4275.54 1965.35 4275.83 1965.23 4276.14 1965.23H4348.38C4366.12 1965.23 4383.15 1972.26 4395.7 1984.78C4408.24 1997.3 4415.29 2014.28 4415.29 2031.98V2129.09C4415.29 2146.79 4408.24 2163.77 4395.7 2176.29C4383.15 2188.81 4366.12 2195.84 4348.38 2195.84H4276.14C4275.83 2195.84 4275.54 2195.72 4275.32 2195.51C4275.11 2195.29 4274.98 2195 4274.98 2194.69V1966.38ZM4309.19 1998.5V2162.64C4309.19 2162.97 4309.32 2163.28 4309.56 2163.52C4309.79 2163.75 4310.11 2163.88 4310.44 2163.88H4344.61C4354.05 2163.88 4363.11 2160.05 4369.79 2153.23C4376.47 2146.42 4380.22 2137.17 4380.22 2127.53V2033.6C4380.22 2023.96 4376.47 2014.72 4369.79 2007.9C4363.11 2001.08 4354.05 1997.25 4344.61 1997.25H4310.44C4310.11 1997.25 4309.79 1997.38 4309.56 1997.62C4309.32 1997.85 4309.19 1998.17 4309.19 1998.5Z" fill="black"/>
<path d="M4657.45 2022.09C4657.39 2025.85 4658.51 2029.71 4658.54 2033.48C4658.64 2084.48 4658.65 2138 4658.57 2194.04C4658.57 2195.14 4658.02 2195.69 4656.92 2195.69H4625.14C4624.1 2195.69 4623.59 2195.17 4623.59 2194.13V1966.94C4623.59 1965.9 4624.1 1965.38 4625.14 1965.38H4671.05C4671.34 1965.38 4671.62 1965.48 4671.86 1965.65C4672.09 1965.82 4672.27 1966.07 4672.36 1966.35L4713.72 2093.89C4714.66 2096.77 4715.59 2096.77 4716.52 2093.89L4757.2 1967.09C4757.36 1966.6 4757.67 1966.17 4758.09 1965.86C4758.51 1965.55 4759.02 1965.38 4759.54 1965.38H4804.11C4804.63 1965.38 4804.89 1965.64 4804.89 1966.16V2194.13C4804.89 2195.17 4804.37 2195.69 4803.33 2195.69H4771.55C4770.45 2195.69 4769.9 2195.14 4769.9 2194.04C4769.8 2143.7 4769.83 2091.46 4770 2037.31C4770 2032.33 4770.9 2027.22 4771.49 2022.24C4771.57 2021.58 4771.41 2020.98 4770.99 2020.44C4770.29 2019.57 4769.75 2019.66 4769.37 2020.72L4727.95 2141.13C4727.55 2142.25 4726.78 2142.81 4725.61 2142.81L4702.83 2142.78C4701.67 2142.78 4700.89 2142.22 4700.5 2141.1L4659.78 2021.75C4658.33 2017.49 4657.55 2017.61 4657.45 2022.09Z" fill="black"/>
<path d="M4879.37 1965.38H4847.12C4846.57 1965.38 4846.12 1965.83 4846.12 1966.38V2194.69C4846.12 2195.24 4846.57 2195.69 4847.12 2195.69H4879.37C4879.92 2195.69 4880.36 2195.24 4880.36 2194.69V1966.38C4880.36 1965.83 4879.92 1965.38 4879.37 1965.38Z" fill="black"/>
<path d="M5031.1 2129.49C5031.1 2124.11 5029.76 2118.51 5029.76 2112.87C5029.76 2064.57 5029.76 2015.97 5029.76 1967.06C5029.76 1966.62 5029.94 1966.19 5030.26 1965.87C5030.57 1965.56 5031 1965.38 5031.44 1965.38H5063.22C5064.26 1965.38 5064.78 1965.9 5064.78 1966.94V2194.13C5064.78 2195.17 5064.26 2195.69 5063.22 2195.69H5025.03C5023.87 2195.69 5023.08 2195.15 5022.67 2194.07L4957.62 2030.02C4957.39 2029.42 4956.95 2029.21 4956.31 2029.4L4955.5 2029.68C4955.11 2029.81 4954.95 2030.08 4955.03 2030.49C4956.07 2034.79 4956.59 2037.98 4956.59 2040.08C4956.65 2091.41 4956.64 2142.74 4956.56 2194.07C4956.56 2195.15 4956.02 2195.69 4954.94 2195.69H4923.94C4922.9 2195.69 4922.38 2195.17 4922.38 2194.13V1966.94C4922.38 1965.9 4922.9 1965.38 4923.94 1965.38H4961.54C4962.84 1965.38 4963.74 1965.99 4964.21 1967.22L5028.71 2129.96C5030.3 2133.96 5031.1 2133.81 5031.1 2129.49Z" fill="black"/>
<path d="M5139.38 1965.38H5106.89C5106.41 1965.38 5106.02 1965.77 5106.02 1966.25V2194.82C5106.02 2195.3 5106.41 2195.69 5106.89 2195.69H5139.38C5139.86 2195.69 5140.25 2195.3 5140.25 2194.82V1966.25C5140.25 1965.77 5139.86 1965.38 5139.38 1965.38Z" fill="black"/>
<path d="M5381.32 2142.81L5370.11 2194.85C5370.06 2195.08 5369.93 2195.29 5369.75 2195.44C5369.56 2195.59 5369.33 2195.66 5369.09 2195.66L5333.51 2195.69C5333.35 2195.69 5333.2 2195.65 5333.06 2195.58C5332.92 2195.52 5332.8 2195.42 5332.7 2195.29C5332.61 2195.17 5332.54 2195.03 5332.51 2194.87C5332.47 2194.72 5332.48 2194.56 5332.52 2194.41L5389.07 1966.16C5389.12 1965.94 5389.25 1965.74 5389.43 1965.6C5389.61 1965.46 5389.84 1965.38 5390.06 1965.38H5437.37C5437.6 1965.38 5437.83 1965.46 5438.01 1965.6C5438.19 1965.74 5438.31 1965.94 5438.37 1966.16L5494.99 2194.41C5495.02 2194.56 5495.03 2194.72 5494.99 2194.87C5494.96 2195.03 5494.9 2195.17 5494.8 2195.29C5494.7 2195.42 5494.58 2195.52 5494.44 2195.58C5494.3 2195.65 5494.15 2195.69 5493.99 2195.69H5457.36C5457.12 2195.69 5456.89 2195.62 5456.7 2195.47C5456.51 2195.32 5456.38 2195.11 5456.33 2194.88L5444.84 2142.81C5444.79 2142.58 5444.66 2142.37 5444.48 2142.22C5444.29 2142.08 5444.06 2142 5443.82 2142H5382.35C5382.11 2142 5381.87 2142.08 5381.69 2142.22C5381.5 2142.37 5381.37 2142.58 5381.32 2142.81ZM5388.73 2109.67C5388.69 2109.82 5388.7 2109.98 5388.73 2110.13C5388.77 2110.28 5388.84 2110.42 5388.94 2110.54C5389.04 2110.66 5389.16 2110.75 5389.3 2110.82C5389.44 2110.88 5389.6 2110.91 5389.75 2110.91L5436.72 2110.82C5436.87 2110.82 5437.02 2110.78 5437.16 2110.72C5437.3 2110.65 5437.42 2110.55 5437.52 2110.43C5437.61 2110.31 5437.68 2110.17 5437.71 2110.03C5437.75 2109.88 5437.75 2109.72 5437.72 2109.57L5414.03 2001.7C5413.97 2001.48 5413.85 2001.28 5413.67 2001.14C5413.49 2001 5413.26 2000.93 5413.03 2000.93C5412.81 2000.93 5412.58 2001 5412.4 2001.14C5412.22 2001.28 5412.09 2001.48 5412.04 2001.7L5388.73 2109.67Z" fill="black"/>
<path d="M5630.28 2129.27C5630 2123.14 5628.88 2117.1 5628.91 2110.82C5628.93 2065.3 5628.92 2017.38 5628.88 1967.06C5628.88 1965.94 5629.44 1965.38 5630.56 1965.38H5662.37C5663.41 1965.38 5663.93 1965.9 5663.93 1966.94V2194.13C5663.93 2195.17 5663.41 2195.69 5662.37 2195.69H5624.09C5623.07 2195.69 5622.38 2195.21 5622 2194.26C5601.65 2142.82 5580.36 2089.08 5558.13 2033.04C5556.14 2028.04 5555.09 2028.23 5554.99 2033.6C5554.93 2037.03 5556.48 2041.88 5556.48 2045.96C5556.57 2095.61 5556.59 2144.97 5556.55 2194.04C5556.53 2195.14 5555.97 2195.69 5554.87 2195.69H5523.09C5522.05 2195.69 5521.53 2195.17 5521.53 2194.13V1966.94C5521.53 1966.53 5521.7 1966.13 5521.99 1965.84C5522.28 1965.55 5522.67 1965.38 5523.09 1965.38H5561.18C5562.26 1965.38 5563 1965.89 5563.39 1966.91L5627.95 2129.77C5629.71 2134.23 5630.49 2134.07 5630.28 2129.27Z" fill="black"/>
<path d="M5801.81 2142H5740.34C5740.1 2142 5739.87 2142.08 5739.68 2142.22C5739.49 2142.37 5739.36 2142.58 5739.31 2142.81L5728.07 2194.88C5728.02 2195.11 5727.89 2195.32 5727.71 2195.47C5727.52 2195.62 5727.29 2195.69 5727.05 2195.69H5691.5C5691.35 2195.69 5691.19 2195.65 5691.05 2195.58C5690.91 2195.52 5690.79 2195.42 5690.69 2195.29C5690.6 2195.17 5690.53 2195.03 5690.5 2194.87C5690.47 2194.72 5690.47 2194.56 5690.51 2194.41L5747.09 1966.16C5747.15 1965.94 5747.28 1965.74 5747.46 1965.6C5747.64 1965.46 5747.86 1965.38 5748.09 1965.38H5795.4C5795.63 1965.38 5795.85 1965.46 5796.03 1965.6C5796.21 1965.74 5796.34 1965.94 5796.39 1966.16L5852.95 2194.41C5852.99 2194.56 5852.99 2194.72 5852.96 2194.87C5852.92 2195.03 5852.86 2195.17 5852.76 2195.29C5852.66 2195.42 5852.54 2195.52 5852.4 2195.58C5852.26 2195.65 5852.11 2195.69 5851.95 2195.69H5815.32C5815.08 2195.69 5814.86 2195.61 5814.68 2195.46C5814.5 2195.31 5814.37 2195.11 5814.32 2194.88L5802.81 2142.81C5802.76 2142.58 5802.63 2142.38 5802.45 2142.23C5802.27 2142.09 5802.04 2142 5801.81 2142ZM5746.72 2109.67C5746.69 2109.82 5746.69 2109.98 5746.72 2110.13C5746.76 2110.28 5746.83 2110.42 5746.93 2110.54C5747.03 2110.66 5747.15 2110.75 5747.29 2110.82C5747.44 2110.88 5747.59 2110.91 5747.75 2110.91L5794.71 2110.85C5794.87 2110.85 5795.02 2110.81 5795.15 2110.75C5795.29 2110.68 5795.41 2110.58 5795.51 2110.46C5795.6 2110.34 5795.67 2110.21 5795.7 2110.06C5795.74 2109.91 5795.74 2109.75 5795.71 2109.6L5772.02 2001.76C5771.97 2001.54 5771.84 2001.35 5771.66 2001.21C5771.48 2001.07 5771.26 2000.99 5771.03 2000.99C5770.8 2000.99 5770.58 2001.07 5770.4 2001.21C5770.22 2001.35 5770.09 2001.54 5770.03 2001.76L5746.72 2109.67Z" fill="black"/>
</svg>
