<svg width="2000" height="2000" viewBox="0 0 2000 2000" fill="none" xmlns="http://www.w3.org/2000/svg">
<path d="M1016.31 527.231C1016.35 527.229 1016.39 527.235 1016.43 527.249C1016.47 527.263 1016.5 527.285 1016.53 527.312C1016.56 527.34 1016.58 527.373 1016.6 527.411C1016.62 527.448 1016.63 527.488 1016.63 527.529L1016.68 528.355C1016.72 528.988 1016.73 529.617 1016.72 530.204C1016.72 530.791 1016.69 531.326 1016.64 531.778C1016.59 532.23 1016.52 532.589 1016.43 532.836C1016.35 533.083 1016.25 533.212 1016.14 533.217L1015.88 533.23C1015.66 533.244 1015.42 532.751 1015.22 531.86C1015.01 530.969 1014.85 529.752 1014.78 528.477L1014.73 527.651C1014.72 527.609 1014.73 527.566 1014.74 527.526C1014.75 527.486 1014.78 527.449 1014.8 527.418C1014.83 527.386 1014.86 527.36 1014.9 527.342C1014.94 527.324 1014.98 527.314 1015.02 527.312L1016.31 527.231Z" fill="#004987"/>
<path d="M1016.26 534.928C1016.26 534.234 1016.14 533.671 1016 533.672C1015.86 533.672 1015.74 534.236 1015.75 534.93C1015.75 535.625 1015.86 536.187 1016.01 536.187C1016.15 536.186 1016.26 535.623 1016.26 534.928Z" fill="#004987"/>
<path d="M1015.75 542.995C1015.85 542.995 1016.01 543.1 1016.22 543.31C1016.35 543.442 1016.51 543.547 1016.69 543.619C1016.86 543.691 1017.05 543.729 1017.25 543.729H1022.25C1022.39 543.729 1022.52 543.702 1022.64 543.65C1022.76 543.598 1022.87 543.522 1022.96 543.428C1023.04 543.334 1023.11 543.224 1023.14 543.105C1023.18 542.986 1023.18 542.861 1023.16 542.739C1023.03 541.901 1023.13 541.175 1023.47 540.562C1023.53 540.44 1023.65 540.343 1023.78 540.286C1023.92 540.229 1024.07 540.215 1024.21 540.248C1024.36 540.28 1024.49 540.356 1024.58 540.463C1024.67 540.571 1024.73 540.704 1024.73 540.842V543.799C1024.73 544.009 1024.64 544.21 1024.48 544.358C1024.31 544.507 1024.1 544.59 1023.87 544.59H1017.03C1016.92 544.59 1016.81 544.61 1016.71 544.65C1016.61 544.691 1016.51 544.749 1016.44 544.823C1016.16 545.095 1015.93 545.23 1015.76 545.23C1015.57 545.23 1015.34 545.095 1015.06 544.823C1014.99 544.751 1014.9 544.695 1014.79 544.657C1014.69 544.619 1014.58 544.6 1014.47 544.602L1007.63 544.672C1007.52 544.673 1007.41 544.654 1007.31 544.616C1007.2 544.578 1007.11 544.521 1007.02 544.448C1006.94 544.376 1006.88 544.289 1006.83 544.194C1006.79 544.098 1006.77 543.996 1006.76 543.892L1006.73 540.935C1006.73 540.796 1006.77 540.661 1006.87 540.552C1006.96 540.442 1007.09 540.364 1007.23 540.33C1007.38 540.297 1007.53 540.309 1007.67 540.366C1007.81 540.423 1007.92 540.521 1007.99 540.644C1008.33 541.249 1008.44 541.971 1008.32 542.809C1008.29 542.932 1008.3 543.058 1008.34 543.177C1008.37 543.297 1008.44 543.408 1008.53 543.503C1008.61 543.597 1008.72 543.672 1008.85 543.724C1008.97 543.775 1009.1 543.8 1009.24 543.799L1014.24 543.74C1014.43 543.739 1014.62 543.701 1014.8 543.629C1014.97 543.556 1015.13 543.452 1015.25 543.321C1015.46 543.104 1015.63 542.995 1015.75 542.995Z" fill="#004987"/>
<path d="M1016.52 546.346C1016.7 546.702 1016.77 547.22 1016.7 547.899C1016.7 547.966 1016.66 548.032 1016.6 548.086C1016.54 548.141 1016.45 548.183 1016.35 548.208C1016.25 548.232 1016.14 548.237 1016.04 548.222C1015.93 548.208 1015.84 548.175 1015.76 548.126C1015.67 548.067 1015.75 547.483 1016 546.376C1016.01 546.338 1016.04 546.303 1016.08 546.277C1016.12 546.251 1016.18 546.235 1016.24 546.231C1016.3 546.228 1016.36 546.237 1016.41 546.258C1016.46 546.279 1016.5 546.31 1016.52 546.346Z" fill="#004987"/>
<path d="M985.033 583.128C984.952 583.128 984.874 583.096 984.816 583.039C984.759 582.981 984.727 582.903 984.727 582.822V582.656C984.741 574.043 988.056 565.788 993.945 559.707C999.833 553.626 1007.81 550.218 1016.12 550.231H1016.43C1020.55 550.237 1024.62 551.083 1028.42 552.721C1032.22 554.36 1035.68 556.757 1038.58 559.778C1041.49 562.798 1043.79 566.383 1045.36 570.326C1046.93 574.269 1047.73 578.493 1047.73 582.758V582.924C1047.73 583.005 1047.69 583.083 1047.64 583.141C1047.58 583.198 1047.5 583.23 1047.42 583.23L985.033 583.128Z" fill="#004987"/>
<path d="M1057.39 587.23H974.059C973.323 587.23 972.727 587.865 972.727 588.648V591.813C972.727 592.596 973.323 593.23 974.059 593.23H1057.39C1058.13 593.23 1058.73 592.596 1058.73 591.813V588.648C1058.73 587.865 1058.13 587.23 1057.39 587.23Z" fill="#004987"/>
<path d="M999.247 597.23H991.207C989.837 597.23 988.727 598.328 988.727 599.682V642.779C988.727 644.133 989.837 645.23 991.207 645.23H999.247C1000.62 645.23 1001.73 644.133 1001.73 642.779V599.682C1001.73 598.328 1000.62 597.23 999.247 597.23Z" fill="#004987"/>
<path d="M1020.32 597.23H1012.14C1010.81 597.23 1009.73 598.293 1009.73 599.605V642.856C1009.73 644.168 1010.81 645.23 1012.14 645.23H1020.32C1021.65 645.23 1022.73 644.168 1022.73 642.856V599.605C1022.73 598.293 1021.65 597.23 1020.32 597.23Z" fill="#004987"/>
<path d="M1041.23 597.23H1033.23C1031.85 597.23 1030.73 598.34 1030.73 599.708V642.753C1030.73 644.121 1031.85 645.23 1033.23 645.23H1041.23C1042.61 645.23 1043.73 644.121 1043.73 642.753V599.708C1043.73 598.34 1042.61 597.23 1041.23 597.23Z" fill="#004987"/>
<path d="M1057.47 650.23H973.981C973.288 650.23 972.727 650.815 972.727 651.535V654.926C972.727 655.646 973.288 656.23 973.981 656.23H1057.47C1058.16 656.23 1058.73 655.646 1058.73 654.926V651.535C1058.73 650.815 1058.16 650.23 1057.47 650.23Z" fill="#004987"/>
<path d="M1087.85 665.23L1088.56 665.256C1088.62 665.265 1088.68 665.282 1088.74 665.307C1147.47 691.709 1192.51 739.592 1213.36 800.119C1220.65 821.246 1224.77 843.032 1225.73 865.475C1225.73 865.573 1225.71 865.67 1225.68 865.762C1225.64 865.854 1225.59 865.937 1225.52 866.008C1225.45 866.078 1225.37 866.134 1225.28 866.173C1225.19 866.211 1225.09 866.231 1224.99 866.23H1194.59C1194.45 866.231 1194.32 866.18 1194.22 866.088C1194.11 865.995 1194.05 865.868 1194.04 865.731C1192.97 853.698 1191.38 841.879 1189.27 830.273C1185.65 810.264 1179.72 790.708 1171.48 771.604C1162.68 751.193 1152.74 733.328 1141.65 718.007C1126.78 697.46 1108.82 679.945 1087.78 665.461C1087.76 665.445 1087.74 665.422 1087.73 665.397C1087.72 665.371 1087.72 665.344 1087.73 665.318C1087.74 665.293 1087.76 665.27 1087.78 665.255C1087.8 665.239 1087.83 665.23 1087.85 665.23Z" fill="#004987"/>
<path d="M943.598 665.23C943.625 665.23 943.651 665.239 943.673 665.255C943.695 665.27 943.711 665.293 943.72 665.318C943.728 665.344 943.729 665.371 943.721 665.397C943.713 665.423 943.697 665.445 943.675 665.461C922.618 679.959 904.648 697.482 889.766 718.032C878.679 733.35 868.743 751.212 859.958 771.616C851.723 790.712 845.801 810.262 842.195 830.264C840.099 841.864 838.523 853.678 837.467 865.705C837.454 865.842 837.39 865.969 837.288 866.062C837.185 866.154 837.052 866.205 836.913 866.205L806.461 866.23C806.363 866.231 806.265 866.211 806.174 866.172C806.083 866.134 806.001 866.078 805.933 866.007C805.864 865.937 805.811 865.853 805.775 865.762C805.74 865.67 805.724 865.572 805.727 865.474C806.663 843.052 810.768 821.28 818.042 800.158C838.858 739.65 883.918 691.759 942.709 665.307C942.769 665.282 942.83 665.265 942.889 665.256L943.598 665.23Z" fill="#004987"/>
<path d="M1053.79 670.637C1053.75 670.595 1053.73 670.542 1053.73 670.486C1053.72 670.43 1053.74 670.375 1053.77 670.33C1053.81 670.285 1053.86 670.253 1053.91 670.238C1053.96 670.224 1054.02 670.229 1054.07 670.252C1086.79 685.459 1112.76 710.128 1132.13 740.092C1137.47 748.336 1144.44 760.08 1148.96 769.274C1158.83 789.352 1165.79 811.123 1169.83 834.587C1171.92 846.656 1173.22 856.952 1173.73 865.474C1173.73 865.572 1173.72 865.669 1173.68 865.761C1173.65 865.852 1173.6 865.936 1173.53 866.007C1173.46 866.078 1173.38 866.134 1173.29 866.172C1173.2 866.211 1173.1 866.231 1173 866.23H1118.87C1118.74 866.231 1118.61 866.18 1118.52 866.089C1118.42 865.998 1118.37 865.874 1118.37 865.743C1118.31 858.221 1118.12 850.708 1117.8 843.203C1115.75 793.853 1103.14 745.823 1078.05 703.153C1071.01 691.186 1062.92 680.347 1053.79 670.637Z" fill="#004987"/>
<path d="M977.664 670.637C968.598 680.35 960.577 691.191 953.603 703.161C928.722 745.83 916.236 793.846 914.239 843.184C913.931 850.682 913.752 858.189 913.701 865.705C913.698 865.835 913.643 865.959 913.55 866.05C913.457 866.141 913.332 866.192 913.201 866.192L859.444 866.23C859.348 866.231 859.252 866.211 859.164 866.173C859.075 866.136 858.995 866.08 858.928 866.011C858.861 865.942 858.809 865.859 858.774 865.769C858.74 865.679 858.724 865.583 858.727 865.487C859.231 856.962 860.516 846.668 862.581 834.604C866.577 811.143 873.466 789.375 883.249 769.299C887.731 760.104 894.646 748.369 899.935 740.123C919.143 710.151 944.908 685.476 977.382 670.252C977.433 670.229 977.491 670.224 977.545 670.238C977.599 670.252 977.646 670.285 977.679 670.33C977.713 670.375 977.729 670.43 977.726 670.486C977.723 670.542 977.702 670.596 977.664 670.637Z" fill="#004987"/>
<path d="M1005.73 674.758V865.616C1005.73 865.779 1005.66 865.935 1005.55 866.051C1005.43 866.166 1005.27 866.23 1005.11 866.23H935.448C935.265 866.23 935.09 866.159 934.96 866.033C934.83 865.906 934.755 865.733 934.751 865.552C934.296 827.777 940.131 791.465 952.256 756.617C962.989 725.79 980.004 696.627 1004.84 674.361C1004.92 674.295 1005.01 674.251 1005.12 674.236C1005.22 674.221 1005.32 674.236 1005.42 674.277C1005.51 674.319 1005.59 674.387 1005.65 674.472C1005.7 674.558 1005.73 674.657 1005.73 674.758Z" fill="#004987"/>
<path d="M1026.82 674.769C1026.81 674.666 1026.84 674.564 1026.9 674.476C1026.95 674.388 1027.03 674.319 1027.13 674.277C1027.22 674.234 1027.33 674.221 1027.43 674.238C1027.54 674.255 1027.63 674.301 1027.71 674.372C1052.52 696.639 1069.52 725.812 1080.25 756.637C1092.36 791.486 1098.17 827.791 1097.7 865.551C1097.7 865.733 1097.62 865.905 1097.49 866.032C1097.36 866.159 1097.19 866.23 1097 866.23L1027.35 866.205C1027.27 866.205 1027.18 866.189 1027.11 866.158C1027.03 866.127 1026.97 866.082 1026.91 866.025C1026.85 865.968 1026.8 865.9 1026.77 865.825C1026.74 865.751 1026.73 865.671 1026.73 865.59L1026.82 674.769Z" fill="#004987"/>
<path d="M1016.23 873.369C1022.55 873.369 1025.87 873.373 1026.17 873.381C1026.59 873.375 1026.99 873.527 1027.29 873.807C1027.6 874.087 1027.78 874.471 1027.79 874.879L1028.05 881.257C1028.06 881.456 1028.14 881.645 1028.29 881.784C1028.43 881.922 1028.63 882 1028.83 882H1095.6C1095.81 882 1096.01 881.917 1096.16 881.771C1096.3 881.625 1096.39 881.426 1096.39 881.22V874.904C1096.39 874.463 1096.57 874.041 1096.88 873.729C1097.2 873.418 1097.63 873.243 1098.08 873.243H1117.99C1118.48 873.243 1118.96 873.435 1119.31 873.777C1119.65 874.119 1119.85 874.584 1119.85 875.067V881.157C1119.85 881.384 1119.94 881.601 1120.11 881.762C1120.27 881.922 1120.49 882.012 1120.72 882.012H1171.34C1171.56 882.012 1171.78 881.925 1171.94 881.769C1172.1 881.613 1172.19 881.402 1172.19 881.182V875.067C1172.19 874.587 1172.38 874.126 1172.73 873.786C1173.08 873.447 1173.55 873.256 1174.04 873.256H1193.87C1194.35 873.256 1194.81 873.443 1195.16 873.775C1195.5 874.108 1195.69 874.559 1195.69 875.03V881.169C1195.69 881.393 1195.78 881.607 1195.94 881.765C1196.1 881.923 1196.32 882.012 1196.55 882.012H1237.52C1237.68 882.012 1237.83 882.043 1237.98 882.102C1238.13 882.162 1238.26 882.249 1238.37 882.359C1238.48 882.468 1238.57 882.599 1238.63 882.742C1238.7 882.886 1238.73 883.04 1238.73 883.195V886.982C1238.73 887.303 1238.6 887.612 1238.37 887.84C1238.14 888.069 1237.83 888.199 1237.51 888.202C1235.76 888.227 1162 888.236 1016.23 888.227C870.455 888.219 796.693 888.202 794.947 888.177C794.622 888.174 794.312 888.044 794.083 887.815C793.855 887.587 793.726 887.278 793.727 886.957V883.17C793.727 883.014 793.758 882.861 793.819 882.717C793.879 882.574 793.968 882.443 794.08 882.333C794.192 882.224 794.325 882.136 794.472 882.077C794.618 882.018 794.775 881.987 794.934 881.987H835.903C836.131 881.987 836.35 881.898 836.512 881.74C836.673 881.582 836.764 881.368 836.764 881.144V875.004C836.764 874.534 836.956 874.083 837.298 873.75C837.64 873.417 838.104 873.23 838.587 873.23L858.417 873.243C858.66 873.243 858.901 873.29 859.125 873.381C859.349 873.472 859.553 873.605 859.725 873.774C859.897 873.942 860.033 874.142 860.126 874.361C860.219 874.581 860.267 874.817 860.267 875.055V881.169C860.267 881.389 860.356 881.601 860.515 881.756C860.674 881.912 860.889 882 861.114 882H911.729C911.843 882 911.957 881.978 912.063 881.935C912.169 881.892 912.265 881.828 912.346 881.749C912.427 881.67 912.492 881.575 912.536 881.471C912.58 881.368 912.602 881.256 912.602 881.144V875.055C912.602 874.571 912.798 874.107 913.148 873.765C913.497 873.423 913.97 873.23 914.464 873.23H934.371C934.821 873.23 935.252 873.405 935.57 873.717C935.888 874.028 936.066 874.451 936.066 874.891V881.207C936.066 881.414 936.149 881.612 936.296 881.759C936.443 881.905 936.642 881.987 936.85 881.987L1003.62 882C1003.82 882 1004.02 881.922 1004.17 881.784C1004.31 881.645 1004.4 881.456 1004.4 881.257L1004.66 874.879C1004.68 874.471 1004.86 874.087 1005.16 873.807C1005.46 873.527 1005.86 873.375 1006.28 873.381C1006.59 873.373 1009.91 873.369 1016.23 873.369Z" fill="#004987"/>
<path d="M858.041 896.294L838.694 896.395C837.504 896.401 836.544 897.371 836.55 898.562L836.648 917.216C836.654 918.406 837.624 919.366 838.815 919.36L858.162 919.259C859.352 919.252 860.312 918.282 860.306 917.092L860.208 898.438C860.202 897.247 859.232 896.287 858.041 896.294Z" fill="#004987"/>
<path d="M933.949 896.289L914.32 896.392C913.228 896.398 912.348 897.287 912.354 898.378L912.453 917.315C912.459 918.406 913.348 919.286 914.439 919.28L934.069 919.177C935.16 919.171 936.04 918.282 936.034 917.191L935.935 898.255C935.929 897.163 935.04 896.284 933.949 896.289Z" fill="#004987"/>
<path d="M1117.62 896.26L1098.04 896.294C1097.1 896.296 1096.34 897.061 1096.34 898.003L1096.37 917.581C1096.37 918.524 1097.14 919.286 1098.08 919.285L1117.66 919.251C1118.6 919.249 1119.37 918.484 1119.36 917.541L1119.33 897.963C1119.33 897.021 1118.56 896.258 1117.62 896.26Z" fill="#004987"/>
<path d="M1025.82 896.466L1006.14 896.501C1005.12 896.502 1004.29 897.331 1004.29 898.351L1004.33 917.391C1004.33 918.411 1005.16 919.237 1006.18 919.235L1025.86 919.201C1026.88 919.199 1027.7 918.37 1027.7 917.35L1027.67 898.311C1027.67 897.29 1026.84 896.465 1025.82 896.466Z" fill="#004987"/>
<path d="M1193.69 896.443L1173.34 896.515C1172.55 896.517 1171.91 897.163 1171.91 897.956L1171.98 917.637C1171.98 918.431 1172.63 919.072 1173.42 919.069L1193.77 918.998C1194.56 918.995 1195.2 918.35 1195.2 917.556L1195.13 897.875C1195.13 897.082 1194.48 896.441 1193.69 896.443Z" fill="#004987"/>
<path d="M1236.26 925.23H796.192C794.83 925.23 793.727 926.336 793.727 927.701V937.76C793.727 939.125 794.83 940.23 796.192 940.23H1236.26C1237.62 940.23 1238.73 939.125 1238.73 937.76V927.701C1238.73 926.336 1237.62 925.23 1236.26 925.23Z" fill="#004987"/>
<path d="M600.889 1040.73C600.732 1040.73 600.581 1040.67 600.469 1040.56C600.358 1040.44 600.295 1040.29 600.295 1040.14V1035.67C600.295 1035.48 600.37 1035.3 600.503 1035.17C600.636 1035.04 600.817 1034.96 601.005 1034.96H623.926C624.138 1034.96 624.342 1035.05 624.492 1035.2C624.642 1035.35 624.727 1035.56 624.727 1035.77V1057.56C624.726 1057.79 624.674 1058.02 624.574 1058.23C624.473 1058.44 624.327 1058.62 624.145 1058.77C614.624 1066.31 604.148 1068.81 592.715 1066.27C566.425 1060.44 563.377 1023.32 585.368 1010.24C596.331 1003.72 611.878 1005.42 621.912 1013.41C622.027 1013.51 622.121 1013.62 622.188 1013.75C622.256 1013.88 622.294 1014.03 622.301 1014.17C622.309 1014.32 622.285 1014.47 622.231 1014.6C622.177 1014.74 622.095 1014.86 621.989 1014.96L618.761 1018.09C618.571 1018.27 618.319 1018.37 618.056 1018.38C617.792 1018.38 617.537 1018.29 617.34 1018.12C612.253 1013.66 605.822 1011.75 598.048 1012.38C577.878 1014.03 571.422 1040.24 583.302 1053.82C592.096 1063.86 607.462 1063.44 617.844 1056.06C618.028 1055.93 618.178 1055.76 618.281 1055.56C618.384 1055.36 618.438 1055.14 618.438 1054.91V1041.25C618.438 1041.11 618.381 1040.98 618.279 1040.88C618.177 1040.78 618.039 1040.73 617.896 1040.73H600.889Z" fill="#004987"/>
<path d="M681.216 1006.48C689.235 1007.5 696.506 1011.67 701.429 1018.07C706.351 1024.47 708.522 1032.58 707.464 1040.6C706.941 1044.57 705.64 1048.41 703.636 1051.88C701.633 1055.36 698.966 1058.41 695.787 1060.86C692.609 1063.31 688.982 1065.11 685.113 1066.16C681.244 1067.21 677.209 1067.49 673.238 1066.98C665.218 1065.96 657.947 1061.79 653.025 1055.39C648.102 1048.99 645.931 1040.89 646.989 1032.86C647.512 1028.89 648.813 1025.06 650.817 1021.58C652.82 1018.1 655.487 1015.05 658.666 1012.6C661.844 1010.15 665.471 1008.35 669.34 1007.3C673.209 1006.25 677.245 1005.97 681.216 1006.48ZM675.786 1012.32C669.533 1012.68 663.687 1015.59 659.534 1020.42C655.381 1025.24 653.26 1031.59 653.639 1038.06C653.827 1041.26 654.622 1044.4 655.98 1047.29C657.338 1050.18 659.232 1052.77 661.554 1054.91C663.875 1057.05 666.579 1058.7 669.511 1059.77C672.443 1060.83 675.546 1061.29 678.642 1061.11C684.894 1060.76 690.74 1057.85 694.893 1053.02C699.046 1048.19 701.167 1041.85 700.788 1035.38C700.601 1032.18 699.805 1029.04 698.447 1026.15C697.089 1023.25 695.195 1020.66 692.874 1018.52C690.552 1016.38 687.848 1014.73 684.916 1013.67C681.984 1012.61 678.881 1012.15 675.786 1012.32Z" fill="#004987"/>
<path d="M1082.16 1006.47C1086.14 1006.97 1089.97 1008.25 1093.44 1010.23C1096.91 1012.22 1099.95 1014.87 1102.4 1018.03C1104.84 1021.19 1106.63 1024.81 1107.68 1028.67C1108.72 1032.54 1108.99 1036.57 1108.47 1040.55C1107.95 1044.52 1106.66 1048.36 1104.66 1051.84C1102.66 1055.31 1100 1058.37 1096.83 1060.83C1093.65 1063.28 1090.03 1065.09 1086.16 1066.15C1082.3 1067.21 1078.26 1067.49 1074.29 1066.99C1070.32 1066.49 1066.49 1065.21 1063.02 1063.23C1059.54 1061.24 1056.5 1058.59 1054.06 1055.43C1051.61 1052.27 1049.82 1048.65 1048.78 1044.79C1047.74 1040.92 1047.46 1036.89 1047.98 1032.92C1048.5 1028.94 1049.79 1025.11 1051.79 1021.63C1053.79 1018.15 1056.45 1015.09 1059.62 1012.64C1062.8 1010.18 1066.42 1008.37 1070.29 1007.31C1074.16 1006.26 1078.19 1005.97 1082.16 1006.47ZM1076.85 1012.32C1070.6 1012.67 1064.75 1015.57 1060.59 1020.38C1056.43 1025.2 1054.3 1031.55 1054.67 1038.02C1055.03 1044.49 1057.87 1050.55 1062.55 1054.89C1067.23 1059.22 1073.37 1061.46 1079.62 1061.11C1085.88 1060.77 1091.73 1057.87 1095.89 1053.05C1100.05 1048.23 1102.18 1041.89 1101.81 1035.42C1101.45 1028.95 1098.61 1022.88 1093.93 1018.55C1089.25 1014.22 1083.11 1011.98 1076.85 1012.32Z" fill="#004987"/>
<path d="M1432.28 1006.23C1433.17 1006.23 1433.95 1006.28 1434.63 1006.37C1434.85 1006.41 1435.06 1006.5 1435.24 1006.63C1435.42 1006.77 1435.56 1006.95 1435.65 1007.16L1461.68 1065.43C1461.72 1065.52 1461.73 1065.61 1461.72 1065.71C1461.72 1065.8 1461.69 1065.89 1461.64 1065.97C1461.59 1066.05 1461.52 1066.12 1461.43 1066.16C1461.35 1066.21 1461.26 1066.23 1461.17 1066.23H1456.25C1456 1066.23 1455.76 1066.16 1455.55 1066.02C1455.34 1065.89 1455.17 1065.7 1455.07 1065.47L1448.61 1051C1448.52 1050.81 1448.38 1050.64 1448.21 1050.53C1448.04 1050.41 1447.83 1050.35 1447.62 1050.34C1446.56 1050.31 1441.44 1050.29 1432.25 1050.28C1423.06 1050.27 1417.93 1050.28 1416.85 1050.31C1416.65 1050.31 1416.45 1050.38 1416.28 1050.49C1416.1 1050.61 1415.97 1050.77 1415.88 1050.96L1409.38 1065.42C1409.28 1065.65 1409.11 1065.84 1408.91 1065.97C1408.7 1066.11 1408.46 1066.18 1408.21 1066.18L1403.29 1066.17C1403.19 1066.17 1403.1 1066.14 1403.02 1066.1C1402.94 1066.05 1402.87 1065.99 1402.82 1065.91C1402.77 1065.83 1402.74 1065.74 1402.73 1065.64C1402.72 1065.55 1402.74 1065.45 1402.78 1065.37L1428.93 1007.15C1429.02 1006.94 1429.16 1006.77 1429.34 1006.63C1429.51 1006.49 1429.72 1006.41 1429.94 1006.37C1430.63 1006.28 1431.41 1006.23 1432.28 1006.23ZM1419.21 1043.3C1419.16 1043.43 1419.13 1043.56 1419.14 1043.7C1419.15 1043.84 1419.2 1043.97 1419.27 1044.08C1419.35 1044.2 1419.45 1044.29 1419.57 1044.35C1419.68 1044.42 1419.82 1044.45 1419.95 1044.45L1444.32 1044.49C1444.46 1044.49 1444.59 1044.46 1444.7 1044.39C1444.82 1044.33 1444.92 1044.24 1444.99 1044.12C1445.07 1044.01 1445.11 1043.88 1445.12 1043.75C1445.14 1043.61 1445.11 1043.48 1445.06 1043.35L1432.92 1015.75C1432.86 1015.6 1432.76 1015.48 1432.63 1015.39C1432.5 1015.31 1432.35 1015.26 1432.19 1015.26C1432.04 1015.26 1431.89 1015.3 1431.75 1015.39C1431.62 1015.47 1431.52 1015.59 1431.46 1015.73L1419.21 1043.3Z" fill="#004987"/>
<path d="M731.727 1065.31V1007.67C731.727 1007.55 731.772 1007.44 731.852 1007.36C731.933 1007.28 732.042 1007.23 732.156 1007.23C738.75 1007.24 746.956 1007.24 756.774 1007.23C766.26 1007.22 776.113 1011.85 775.481 1022.8C775.17 1028.29 772.559 1032.29 767.65 1034.81C767.506 1034.89 767.386 1035 767.307 1035.15C767.227 1035.29 767.191 1035.46 767.203 1035.62C767.215 1035.78 767.275 1035.94 767.375 1036.07C767.475 1036.19 767.61 1036.29 767.764 1036.33C774.416 1038.51 778.037 1042.53 778.626 1048.4C779.953 1061.55 767.865 1066.19 757.027 1066.22C746.619 1066.24 738.48 1066.23 732.611 1066.21C732.376 1066.21 732.151 1066.11 731.986 1065.94C731.82 1065.78 731.727 1065.55 731.727 1065.31ZM738.244 1013.58L738.345 1032.94C738.345 1033.07 738.396 1033.19 738.486 1033.29C738.576 1033.38 738.698 1033.43 738.825 1033.43L757.242 1033.34C758.788 1033.33 760.317 1033.07 761.743 1032.58C763.169 1032.09 764.463 1031.38 765.552 1030.48C766.64 1029.59 767.502 1028.53 768.087 1027.36C768.672 1026.19 768.97 1024.94 768.964 1023.68V1022.53C768.95 1019.99 767.697 1017.56 765.479 1015.77C763.262 1013.98 760.263 1012.99 757.141 1013.01L738.724 1013.09C738.597 1013.09 738.475 1013.15 738.385 1013.24C738.295 1013.33 738.244 1013.45 738.244 1013.58ZM738.307 1040.01V1059.63C738.307 1059.71 738.323 1059.79 738.355 1059.87C738.386 1059.94 738.431 1060.01 738.489 1060.07C738.546 1060.13 738.614 1060.17 738.69 1060.21C738.765 1060.24 738.845 1060.25 738.926 1060.25H758.846C762.37 1060.25 765.75 1059.26 768.242 1057.49C770.734 1055.72 772.134 1053.32 772.134 1050.82V1048.82C772.134 1046.32 770.734 1043.92 768.242 1042.15C765.75 1040.38 762.37 1039.38 758.846 1039.38H738.926C738.762 1039.38 738.605 1039.45 738.489 1039.57C738.373 1039.68 738.307 1039.84 738.307 1040.01Z" fill="#004987"/>
<path d="M843.354 1039.85V1059.89C843.354 1060.04 843.41 1060.17 843.511 1060.27C843.612 1060.37 843.749 1060.43 843.891 1060.43H879.189C879.332 1060.43 879.468 1060.49 879.569 1060.59C879.67 1060.69 879.727 1060.83 879.727 1060.97V1065.69C879.727 1065.84 879.67 1065.97 879.569 1066.07C879.468 1066.17 879.332 1066.23 879.189 1066.23H837.264C837.121 1066.23 836.985 1066.17 836.884 1066.07C836.783 1065.97 836.727 1065.84 836.727 1065.69V1007.77C836.727 1007.63 836.783 1007.49 836.884 1007.39C836.985 1007.29 837.121 1007.23 837.264 1007.23H878.741C878.884 1007.23 879.021 1007.29 879.121 1007.39C879.222 1007.49 879.279 1007.63 879.279 1007.77V1012.58C879.279 1012.73 879.222 1012.86 879.121 1012.96C879.021 1013.06 878.884 1013.12 878.741 1013.12H843.866C843.723 1013.12 843.586 1013.18 843.486 1013.28C843.385 1013.38 843.328 1013.52 843.328 1013.66V1033.02C843.328 1033.16 843.385 1033.3 843.486 1033.4C843.586 1033.5 843.723 1033.56 843.866 1033.56H874.954C875.025 1033.56 875.095 1033.57 875.16 1033.6C875.225 1033.62 875.284 1033.66 875.334 1033.71C875.384 1033.76 875.424 1033.82 875.451 1033.89C875.478 1033.95 875.492 1034.02 875.492 1034.09V1038.78C875.492 1038.92 875.435 1039.06 875.334 1039.16C875.234 1039.26 875.097 1039.32 874.954 1039.32H843.891C843.749 1039.32 843.612 1039.37 843.511 1039.47C843.41 1039.58 843.354 1039.71 843.354 1039.85Z" fill="#004987"/>
<path d="M951.564 1065.03C951.652 1065.14 951.707 1065.27 951.722 1065.41C951.737 1065.55 951.712 1065.69 951.65 1065.81C951.588 1065.94 951.491 1066.05 951.37 1066.12C951.249 1066.19 951.11 1066.23 950.968 1066.23H945.643C945.32 1066.23 945.001 1066.16 944.709 1066.02C944.417 1065.88 944.161 1065.68 943.958 1065.42L926.426 1043.4C926.345 1043.3 926.243 1043.22 926.126 1043.16C926.009 1043.11 925.882 1043.08 925.752 1043.08H910.1C909.914 1043.08 909.736 1043.15 909.605 1043.28C909.474 1043.41 909.4 1043.59 909.4 1043.77V1065.55C909.4 1065.64 909.382 1065.73 909.348 1065.81C909.313 1065.89 909.262 1065.97 909.199 1066.03C909.135 1066.09 909.059 1066.14 908.976 1066.18C908.893 1066.21 908.803 1066.23 908.713 1066.23H903.413C903.231 1066.23 903.056 1066.16 902.928 1066.04C902.799 1065.91 902.727 1065.74 902.727 1065.56V1007.81C902.727 1007.73 902.741 1007.66 902.769 1007.6C902.797 1007.53 902.838 1007.47 902.89 1007.42C902.942 1007.37 903.003 1007.33 903.071 1007.3C903.138 1007.27 903.211 1007.26 903.284 1007.26C913.227 1007.24 921.71 1007.23 928.733 1007.23C939.656 1007.23 950.152 1012.73 949.945 1024.94C949.798 1033.82 944.697 1039.45 934.641 1041.82C934.502 1041.86 934.373 1041.92 934.267 1042.02C934.161 1042.11 934.081 1042.24 934.035 1042.37C933.988 1042.51 933.977 1042.65 934.001 1042.79C934.026 1042.93 934.086 1043.07 934.175 1043.18L951.564 1065.03ZM909.439 1013.69L909.568 1036.85C909.568 1036.95 909.609 1037.05 909.682 1037.12C909.755 1037.2 909.854 1037.24 909.957 1037.24L929.445 1037.13C931.263 1037.12 933.061 1036.83 934.736 1036.27C936.412 1035.7 937.933 1034.89 939.212 1033.86C940.491 1032.83 941.503 1031.61 942.191 1030.27C942.879 1028.93 943.228 1027.5 943.219 1026.05V1024.13C943.211 1022.68 942.845 1021.26 942.141 1019.92C941.438 1018.59 940.411 1017.38 939.12 1016.37C937.829 1015.36 936.299 1014.55 934.617 1014.01C932.934 1013.47 931.133 1013.19 929.316 1013.2L909.827 1013.3C909.724 1013.3 909.625 1013.34 909.553 1013.42C909.48 1013.49 909.439 1013.59 909.439 1013.69Z" fill="#004987"/>
<path d="M973.727 1065.83V1008.16C973.727 1007.92 973.824 1007.69 973.997 1007.51C974.17 1007.34 974.405 1007.24 974.651 1007.24H978.745C979.096 1007.24 979.443 1007.32 979.759 1007.48C980.075 1007.63 980.351 1007.85 980.567 1008.13L1015.81 1052.75C1015.92 1052.89 1016.07 1052.99 1016.24 1053.04C1016.41 1053.09 1016.59 1053.08 1016.76 1053.02C1016.92 1052.97 1017.07 1052.86 1017.17 1052.72C1017.27 1052.58 1017.33 1052.41 1017.34 1052.23V1007.93C1017.34 1007.75 1017.41 1007.57 1017.54 1007.44C1017.67 1007.3 1017.85 1007.23 1018.04 1007.23H1023.06C1023.24 1007.23 1023.41 1007.3 1023.53 1007.43C1023.66 1007.55 1023.73 1007.72 1023.73 1007.9V1065.11C1023.73 1065.34 1023.65 1065.56 1023.5 1065.73C1023.36 1065.91 1023.15 1066.02 1022.93 1066.06C1021.68 1066.29 1020.43 1066.29 1019.18 1066.05C1018.69 1065.95 1018.24 1065.68 1017.93 1065.28L981.658 1019.35C981.548 1019.21 981.397 1019.1 981.225 1019.05C981.053 1019 980.869 1019 980.7 1019.06C980.53 1019.12 980.382 1019.23 980.278 1019.37C980.174 1019.52 980.118 1019.69 980.118 1019.87V1065.82C980.118 1065.91 980.083 1066 980.02 1066.06C979.957 1066.13 979.873 1066.16 979.784 1066.16H974.047C973.962 1066.16 973.881 1066.13 973.82 1066.07C973.76 1066 973.727 1065.92 973.727 1065.83Z" fill="#004987"/>
<path d="M1167.83 1007.64C1167.83 1007.53 1167.88 1007.43 1167.96 1007.35C1168.04 1007.27 1168.14 1007.23 1168.25 1007.23L1189.31 1007.26C1193.31 1007.26 1197.27 1008.03 1200.97 1009.51C1204.66 1010.99 1208.02 1013.15 1210.84 1015.87C1213.67 1018.6 1215.91 1021.83 1217.43 1025.39C1218.95 1028.95 1219.73 1032.76 1219.73 1036.6V1037.01C1219.71 1044.78 1216.49 1052.22 1210.76 1057.7C1205.04 1063.17 1197.29 1066.24 1189.21 1066.23L1168.15 1066.2C1168.09 1066.2 1168.04 1066.19 1167.98 1066.17C1167.93 1066.15 1167.89 1066.12 1167.85 1066.08C1167.81 1066.04 1167.78 1065.99 1167.76 1065.94C1167.73 1065.88 1167.73 1065.83 1167.73 1065.77L1167.83 1007.64ZM1174.37 1013.86L1174.52 1059.7C1174.52 1059.83 1174.58 1059.95 1174.67 1060.04C1174.76 1060.14 1174.88 1060.19 1175.01 1060.19L1189.51 1060.14C1195.7 1060.11 1201.62 1057.71 1205.98 1053.45C1210.33 1049.2 1212.77 1043.43 1212.75 1037.43V1035.87C1212.74 1032.9 1212.13 1029.96 1210.95 1027.22C1209.77 1024.48 1208.04 1021.99 1205.87 1019.9C1203.7 1017.8 1201.12 1016.14 1198.29 1015.02C1195.46 1013.89 1192.42 1013.31 1189.36 1013.33L1174.86 1013.38C1174.73 1013.38 1174.6 1013.43 1174.51 1013.52C1174.42 1013.61 1174.37 1013.73 1174.37 1013.86Z" fill="#004987"/>
<path d="M1282.47 1033.97L1282.41 1039C1282.4 1039.11 1282.36 1039.2 1282.28 1039.28C1282.21 1039.35 1282.1 1039.39 1282 1039.39L1251.18 1039.25C1251.07 1039.25 1250.96 1039.26 1250.86 1039.3C1250.77 1039.34 1250.68 1039.4 1250.6 1039.48C1250.52 1039.55 1250.46 1039.64 1250.42 1039.74C1250.38 1039.84 1250.36 1039.95 1250.36 1040.05L1250.33 1059.66C1250.33 1059.86 1250.41 1060.06 1250.56 1060.2C1250.7 1060.35 1250.9 1060.43 1251.1 1060.43H1286.13C1286.24 1060.43 1286.35 1060.47 1286.44 1060.56C1286.52 1060.64 1286.57 1060.75 1286.57 1060.86L1286.73 1065.68C1286.73 1065.75 1286.72 1065.82 1286.69 1065.89C1286.66 1065.96 1286.63 1066.02 1286.58 1066.07C1286.53 1066.12 1286.47 1066.16 1286.41 1066.19C1286.34 1066.22 1286.27 1066.23 1286.2 1066.23H1244.53C1244.32 1066.23 1244.11 1066.15 1243.96 1065.99C1243.81 1065.84 1243.73 1065.64 1243.73 1065.42L1243.76 1007.82C1243.76 1007.67 1243.82 1007.53 1243.93 1007.43C1244.03 1007.33 1244.17 1007.27 1244.31 1007.27L1285.83 1007.23C1285.93 1007.23 1286.02 1007.27 1286.09 1007.34C1286.16 1007.41 1286.2 1007.5 1286.2 1007.6L1286.24 1012.79C1286.24 1012.84 1286.23 1012.88 1286.22 1012.92C1286.2 1012.97 1286.18 1013.01 1286.14 1013.04C1286.11 1013.07 1286.07 1013.1 1286.03 1013.12C1285.99 1013.14 1285.94 1013.15 1285.9 1013.15L1250.88 1013.12C1250.74 1013.12 1250.61 1013.18 1250.51 1013.27C1250.41 1013.37 1250.36 1013.5 1250.36 1013.63L1250.33 1032.77C1250.33 1032.87 1250.35 1032.97 1250.39 1033.06C1250.43 1033.16 1250.48 1033.25 1250.56 1033.32C1250.63 1033.39 1250.72 1033.45 1250.81 1033.49C1250.91 1033.53 1251.01 1033.55 1251.11 1033.55L1282.06 1033.56C1282.17 1033.56 1282.27 1033.6 1282.35 1033.68C1282.43 1033.76 1282.47 1033.86 1282.47 1033.97Z" fill="#004987"/>
<path d="M1351.2 1007.83V1059.79C1351.2 1059.95 1351.26 1060.1 1351.38 1060.21C1351.49 1060.33 1351.65 1060.39 1351.81 1060.39H1384.12C1384.28 1060.39 1384.44 1060.45 1384.55 1060.57C1384.66 1060.68 1384.73 1060.83 1384.73 1060.99V1065.63C1384.73 1065.79 1384.66 1065.94 1384.55 1066.05C1384.44 1066.17 1384.28 1066.23 1384.12 1066.23H1345.33C1345.25 1066.23 1345.17 1066.21 1345.1 1066.18C1345.03 1066.15 1344.96 1066.11 1344.9 1066.05C1344.85 1066 1344.8 1065.93 1344.77 1065.86C1344.74 1065.79 1344.73 1065.71 1344.73 1065.63V1007.83C1344.73 1007.67 1344.79 1007.52 1344.9 1007.41C1345.02 1007.29 1345.17 1007.23 1345.33 1007.23H1350.59C1350.75 1007.23 1350.91 1007.29 1351.02 1007.41C1351.14 1007.52 1351.2 1007.67 1351.2 1007.83Z" fill="#004987"/>
<path d="M808.981 1007.23H803.472C803.06 1007.23 802.727 1007.53 802.727 1007.9V1065.56C802.727 1065.93 803.06 1066.23 803.472 1066.23H808.981C809.393 1066.23 809.727 1065.93 809.727 1065.56V1007.9C809.727 1007.53 809.393 1007.23 808.981 1007.23Z" fill="#004987"/>
<path d="M406.437 1096.41C407.268 1097.23 408.256 1098.51 409.403 1100.25C409.673 1100.66 409.78 1101.17 409.701 1101.66C409.622 1102.15 409.364 1102.59 408.979 1102.89L393.472 1114.9C393.135 1115.16 392.717 1115.27 392.304 1115.22C391.628 1115.13 390.896 1114.7 390.109 1113.93C389.321 1113.14 388.868 1112.41 388.748 1111.72C388.681 1111.3 388.773 1110.87 389.005 1110.51L400.019 1094.07C400.292 1093.66 400.709 1093.38 401.185 1093.27C401.66 1093.17 402.158 1093.26 402.573 1093.52C404.311 1094.62 405.599 1095.58 406.437 1096.41Z" fill="#004987"/>
<path d="M792.745 1195.13C792.964 1195.01 793.212 1194.95 793.463 1194.95C793.715 1194.96 793.958 1195.04 794.167 1195.17C795.287 1195.9 795.803 1196.71 795.717 1197.62C795.675 1198.09 795.485 1198.53 795.175 1198.88C789.463 1205.41 779.81 1209.87 771.592 1212.06C771.163 1212.17 770.72 1212.23 770.274 1212.23C740.541 1211.91 716.545 1191.17 722.695 1159.66C726.882 1138.18 739.826 1125.88 761.526 1122.76C770.106 1121.53 785.354 1122.13 793.223 1127.99C793.631 1128.29 793.939 1128.7 794.11 1129.18C794.28 1129.66 794.305 1130.18 794.18 1130.67C793.198 1134.56 792.022 1137.53 790.652 1139.58C790.287 1140.12 789.737 1140.5 789.107 1140.66C788.476 1140.82 787.808 1140.75 787.228 1140.45C778.919 1136.18 773.078 1132.35 763.064 1131.96C740.295 1131.09 732.891 1148.9 735.708 1168.55C738.228 1185.99 750.982 1197.85 768.323 1200.37C775.83 1201.45 786.698 1198.7 792.745 1195.13Z" fill="#004987"/>
<path d="M1131.11 1122.61C1142.81 1124.14 1153.41 1130.32 1160.58 1139.78C1167.75 1149.23 1170.9 1161.19 1169.34 1173.03C1168.56 1178.89 1166.66 1184.54 1163.73 1189.67C1160.8 1194.79 1156.9 1199.28 1152.26 1202.89C1147.61 1206.49 1142.32 1209.14 1136.67 1210.68C1131.02 1212.22 1125.14 1212.62 1119.34 1211.86C1107.65 1210.32 1097.05 1204.14 1089.88 1194.68C1082.71 1185.23 1079.56 1173.27 1081.12 1161.43C1081.89 1155.57 1083.8 1149.92 1086.73 1144.8C1089.66 1139.67 1093.55 1135.18 1098.2 1131.58C1102.84 1127.97 1108.13 1125.32 1113.78 1123.78C1119.43 1122.24 1125.32 1121.84 1131.11 1122.61ZM1112.97 1131.82C1109.39 1133.06 1106.16 1135.2 1103.46 1138.13C1100.77 1141.05 1098.66 1144.7 1097.27 1148.87C1095.87 1153.03 1095.21 1157.63 1095.33 1162.4C1095.45 1167.17 1096.34 1172.02 1097.95 1176.67C1099.57 1181.32 1101.87 1185.68 1104.73 1189.5C1107.59 1193.33 1110.96 1196.54 1114.63 1198.95C1118.31 1201.36 1122.22 1202.93 1126.15 1203.56C1130.08 1204.19 1133.95 1203.88 1137.53 1202.64C1141.12 1201.4 1144.35 1199.26 1147.04 1196.33C1149.74 1193.41 1151.84 1189.76 1153.24 1185.6C1154.63 1181.43 1155.29 1176.83 1155.17 1172.06C1155.05 1167.29 1154.16 1162.44 1152.55 1157.79C1150.94 1153.14 1148.64 1148.78 1145.77 1144.96C1142.91 1141.13 1139.55 1137.93 1135.87 1135.51C1132.2 1133.1 1128.28 1131.53 1124.35 1130.9C1120.43 1130.27 1116.56 1130.58 1112.97 1131.82Z" fill="#004987"/>
<path d="M1638.17 1195.12C1639.29 1195.85 1639.8 1196.66 1639.72 1197.57C1639.68 1198.04 1639.49 1198.48 1639.18 1198.83C1633.48 1205.37 1623.84 1209.85 1615.64 1212.06C1615.21 1212.17 1614.77 1212.23 1614.32 1212.23C1584.61 1211.96 1560.59 1191.27 1566.67 1159.75C1570.82 1138.26 1583.74 1125.93 1605.42 1122.77C1613.99 1121.53 1629.22 1122.1 1637.1 1127.95C1637.5 1128.25 1637.81 1128.66 1637.98 1129.14C1638.15 1129.61 1638.17 1130.12 1638.05 1130.61C1637.08 1134.52 1635.91 1137.49 1634.54 1139.54C1634.18 1140.08 1633.63 1140.46 1633.01 1140.62C1632.38 1140.78 1631.71 1140.71 1631.13 1140.42C1622.82 1136.17 1616.97 1132.35 1606.97 1131.97C1584.22 1131.14 1576.85 1148.97 1579.7 1168.61C1582.24 1186.04 1595.01 1197.89 1612.35 1200.37C1619.85 1201.44 1630.71 1198.66 1636.75 1195.1C1636.97 1194.97 1637.21 1194.9 1637.46 1194.91C1637.71 1194.91 1637.96 1194.99 1638.17 1195.12Z" fill="#004987"/>
<path d="M875.476 1210.23C875.026 1210.24 874.588 1210.09 874.233 1209.81C873.878 1209.54 873.628 1209.15 873.523 1208.71C873.418 1208.28 873.465 1207.82 873.655 1207.42C873.846 1207.01 874.17 1206.68 874.573 1206.48C874.857 1206.34 876.018 1205.9 878.057 1205.17C883.889 1203.08 880.341 1194.62 878.276 1190.28C877.158 1187.92 875.343 1186.73 872.831 1186.72C869.709 1186.71 860.122 1186.71 844.072 1186.72C841.354 1186.72 839.491 1188 838.485 1190.55C836.485 1195.65 832.795 1203.81 840.795 1205.6C842.059 1205.88 843.027 1206.14 843.698 1206.37C844.138 1206.52 844.508 1206.83 844.744 1207.23C844.979 1207.63 845.066 1208.1 844.987 1208.56C844.909 1209.02 844.67 1209.43 844.314 1209.73C843.958 1210.04 843.507 1210.2 843.04 1210.2L817.751 1210.23C817.298 1210.23 816.86 1210.07 816.504 1209.8C816.149 1209.52 815.896 1209.13 815.787 1208.69C815.678 1208.26 815.717 1207.79 815.9 1207.38C816.083 1206.97 816.398 1206.63 816.796 1206.42C817.166 1206.22 817.944 1205.95 819.131 1205.61C822.821 1204.54 825.931 1200.61 827.363 1197.39C840.902 1166.89 849.727 1146.69 853.839 1136.8C855.129 1133.71 855.981 1129.98 856.394 1125.62C856.416 1125.38 856.515 1125.16 856.675 1124.98C856.835 1124.8 857.049 1124.68 857.284 1124.63L863.98 1123.26C864.247 1123.2 864.524 1123.24 864.766 1123.36C865.008 1123.49 865.2 1123.69 865.309 1123.94C867.055 1128.01 876.762 1150.54 894.43 1191.54C897.565 1198.83 899.694 1204.38 907.32 1206.49C907.767 1206.61 908.154 1206.89 908.41 1207.27C908.666 1207.66 908.772 1208.12 908.709 1208.58C908.645 1209.03 908.417 1209.45 908.066 1209.75C907.715 1210.05 907.266 1210.21 906.804 1210.2L875.476 1210.23ZM843.736 1178.82C843.685 1178.94 843.665 1179.07 843.678 1179.2C843.69 1179.33 843.734 1179.46 843.807 1179.56C843.88 1179.67 843.979 1179.76 844.095 1179.83C844.211 1179.89 844.34 1179.92 844.472 1179.92L872.535 1179.97C872.666 1179.97 872.796 1179.94 872.912 1179.88C873.028 1179.81 873.127 1179.73 873.199 1179.62C873.272 1179.51 873.317 1179.38 873.329 1179.25C873.341 1179.12 873.321 1178.99 873.27 1178.87L859.297 1145.61C859.236 1145.46 859.135 1145.34 859.005 1145.25C858.875 1145.16 858.722 1145.12 858.566 1145.12C858.409 1145.12 858.255 1145.16 858.124 1145.24C857.992 1145.33 857.889 1145.45 857.826 1145.59L843.736 1178.82Z" fill="#004987"/>
<path d="M1719.48 1210.22C1719.03 1210.22 1718.59 1210.08 1718.24 1209.8C1717.88 1209.52 1717.63 1209.14 1717.53 1208.7C1717.42 1208.27 1717.47 1207.81 1717.66 1207.4C1717.85 1207 1718.17 1206.67 1718.58 1206.47C1718.86 1206.32 1720.02 1205.88 1722.06 1205.15C1727.89 1203.06 1724.34 1194.6 1722.27 1190.26C1721.15 1187.9 1719.33 1186.72 1716.82 1186.71C1713.7 1186.7 1704.12 1186.7 1688.07 1186.72C1685.35 1186.72 1683.49 1187.99 1682.48 1190.54C1680.48 1195.65 1676.79 1203.81 1684.8 1205.58C1686.07 1205.87 1687.04 1206.12 1687.71 1206.35C1688.15 1206.51 1688.52 1206.82 1688.75 1207.22C1688.99 1207.62 1689.07 1208.09 1689 1208.55C1688.92 1209.01 1688.68 1209.42 1688.32 1209.72C1687.97 1210.02 1687.52 1210.19 1687.05 1210.19L1661.75 1210.23C1661.3 1210.23 1660.86 1210.07 1660.5 1209.8C1660.15 1209.52 1659.9 1209.13 1659.79 1208.69C1659.68 1208.26 1659.72 1207.8 1659.9 1207.38C1660.08 1206.97 1660.4 1206.63 1660.8 1206.42C1661.17 1206.22 1661.94 1205.95 1663.13 1205.61C1666.82 1204.55 1669.93 1200.62 1671.36 1197.4C1684.89 1166.9 1693.71 1146.7 1697.82 1136.81C1699.11 1133.71 1699.96 1129.98 1700.38 1125.62C1700.4 1125.38 1700.49 1125.16 1700.65 1124.98C1700.81 1124.8 1701.02 1124.68 1701.25 1124.63L1707.95 1123.26C1708.22 1123.2 1708.5 1123.24 1708.74 1123.36C1708.99 1123.48 1709.18 1123.69 1709.29 1123.94C1711.04 1128.01 1720.75 1150.54 1738.43 1191.52C1741.57 1198.81 1743.7 1204.35 1751.32 1206.47C1751.77 1206.59 1752.15 1206.87 1752.41 1207.25C1752.67 1207.63 1752.77 1208.1 1752.71 1208.55C1752.65 1209.01 1752.42 1209.42 1752.07 1209.72C1751.72 1210.02 1751.27 1210.19 1750.8 1210.18L1719.48 1210.22ZM1687.72 1178.83C1687.67 1178.95 1687.65 1179.08 1687.66 1179.21C1687.67 1179.34 1687.72 1179.47 1687.79 1179.57C1687.86 1179.68 1687.96 1179.77 1688.08 1179.84C1688.19 1179.9 1688.32 1179.93 1688.45 1179.93L1716.51 1179.98C1716.65 1179.98 1716.78 1179.95 1716.89 1179.89C1717.01 1179.82 1717.11 1179.74 1717.18 1179.63C1717.25 1179.52 1717.3 1179.39 1717.31 1179.26C1717.32 1179.13 1717.3 1179 1717.25 1178.88L1703.28 1145.59C1703.22 1145.44 1703.11 1145.32 1702.98 1145.24C1702.85 1145.15 1702.7 1145.11 1702.54 1145.11C1702.39 1145.11 1702.23 1145.15 1702.1 1145.24C1701.97 1145.32 1701.87 1145.44 1701.81 1145.59L1687.72 1178.83Z" fill="#004987"/>
<path d="M1945.49 1210.22C1945.03 1210.23 1944.59 1210.08 1944.24 1209.81C1943.88 1209.53 1943.63 1209.14 1943.52 1208.71C1943.41 1208.27 1943.46 1207.81 1943.65 1207.41C1943.84 1207 1944.17 1206.67 1944.57 1206.47C1944.85 1206.33 1946.02 1205.89 1948.07 1205.16C1953.9 1203.07 1950.34 1194.61 1948.27 1190.28C1947.15 1187.92 1945.34 1186.73 1942.83 1186.72C1939.71 1186.71 1930.12 1186.71 1914.06 1186.72C1911.35 1186.72 1909.48 1188 1908.48 1190.55C1906.48 1195.65 1902.79 1203.81 1910.8 1205.6C1912.06 1205.88 1913.03 1206.14 1913.7 1206.37C1914.14 1206.52 1914.51 1206.83 1914.75 1207.23C1914.98 1207.63 1915.07 1208.1 1914.99 1208.56C1914.91 1209.02 1914.68 1209.43 1914.32 1209.74C1913.96 1210.04 1913.51 1210.2 1913.04 1210.2L1887.75 1210.23C1887.3 1210.23 1886.86 1210.07 1886.5 1209.8C1886.15 1209.52 1885.9 1209.13 1885.79 1208.69C1885.68 1208.26 1885.72 1207.8 1885.9 1207.38C1886.08 1206.97 1886.4 1206.63 1886.8 1206.42C1887.17 1206.22 1887.94 1205.95 1889.13 1205.61C1892.82 1204.55 1895.93 1200.62 1897.36 1197.4C1910.9 1166.89 1919.72 1146.7 1923.83 1136.81C1925.12 1133.72 1925.97 1129.99 1926.38 1125.62C1926.4 1125.38 1926.5 1125.15 1926.66 1124.98C1926.82 1124.8 1927.04 1124.68 1927.27 1124.63L1933.97 1123.26C1934.23 1123.2 1934.51 1123.24 1934.75 1123.36C1934.99 1123.49 1935.19 1123.69 1935.3 1123.94C1937.04 1128.01 1946.75 1150.54 1964.43 1191.53C1967.57 1198.82 1969.7 1204.37 1977.32 1206.48C1977.77 1206.6 1978.15 1206.88 1978.41 1207.26C1978.67 1207.65 1978.77 1208.11 1978.71 1208.56C1978.65 1209.02 1978.42 1209.44 1978.07 1209.74C1977.72 1210.04 1977.27 1210.2 1976.8 1210.19L1945.49 1210.22ZM1913.74 1178.84C1913.69 1178.96 1913.67 1179.09 1913.69 1179.22C1913.7 1179.34 1913.74 1179.47 1913.82 1179.57C1913.89 1179.68 1913.98 1179.77 1914.1 1179.83C1914.21 1179.89 1914.34 1179.92 1914.46 1179.92L1942.54 1179.97C1942.67 1179.97 1942.8 1179.94 1942.91 1179.88C1943.03 1179.82 1943.12 1179.73 1943.19 1179.62C1943.26 1179.52 1943.31 1179.4 1943.32 1179.27C1943.33 1179.14 1943.32 1179.01 1943.27 1178.89L1929.28 1145.58C1929.22 1145.44 1929.12 1145.32 1928.99 1145.24C1928.87 1145.16 1928.72 1145.11 1928.56 1145.11C1928.41 1145.11 1928.26 1145.16 1928.13 1145.24C1928 1145.32 1927.9 1145.44 1927.84 1145.58L1913.74 1178.84Z" fill="#004987"/>
<path d="M1250.38 1190.32C1250.44 1190.36 1250.5 1190.39 1250.57 1190.4C1250.64 1190.41 1250.71 1190.4 1250.78 1190.39C1250.85 1190.37 1250.91 1190.34 1250.96 1190.29C1251.01 1190.25 1251.06 1190.19 1251.09 1190.13L1283.93 1124.31C1283.98 1124.22 1284.05 1124.13 1284.14 1124.06C1285.35 1123.17 1286.84 1123 1288.63 1123.54C1288.86 1123.61 1289.06 1123.75 1289.21 1123.94C1289.36 1124.12 1289.45 1124.35 1289.47 1124.59C1291.94 1168.94 1293.18 1191.4 1293.2 1191.97C1293.41 1199.4 1294.73 1205.42 1302.73 1206.02C1303 1206.04 1303.25 1206.16 1303.44 1206.36C1303.62 1206.56 1303.73 1206.82 1303.73 1207.09V1209.19C1303.73 1209.46 1303.62 1209.73 1303.42 1209.93C1303.23 1210.12 1302.96 1210.23 1302.69 1210.23H1272.19C1271.69 1210.23 1271.2 1210.06 1270.81 1209.74C1270.42 1209.42 1270.16 1208.98 1270.07 1208.48C1269.97 1207.99 1270.06 1207.47 1270.3 1207.03C1270.55 1206.59 1270.94 1206.25 1271.41 1206.07C1271.89 1205.89 1272.83 1205.53 1274.24 1205.01C1279.07 1203.23 1279.26 1197.07 1278.92 1192.25C1277.91 1178.25 1277.24 1166.46 1276.9 1156.88C1276.89 1156.67 1276.81 1156.46 1276.67 1156.3C1276.53 1156.14 1276.34 1156.03 1276.13 1155.98C1275.93 1155.94 1275.71 1155.96 1275.52 1156.05C1275.32 1156.14 1275.16 1156.29 1275.06 1156.48C1270.69 1165.26 1264.18 1178.57 1255.52 1196.42C1254.04 1199.49 1252.5 1203.8 1251.5 1207.06C1251.37 1207.48 1251.09 1207.83 1250.72 1208.04C1247.21 1210.08 1244.55 1209.37 1242.76 1205.91C1241.65 1203.77 1232.81 1186.93 1216.23 1155.39C1216.14 1155.23 1216.01 1155.11 1215.85 1155.04C1215.69 1154.97 1215.51 1154.95 1215.34 1154.99C1215.17 1155.03 1215.01 1155.12 1214.9 1155.26C1214.79 1155.39 1214.72 1155.56 1214.71 1155.73C1213.99 1173.3 1213.43 1185.38 1213.02 1191.97C1212.56 1199.2 1213.48 1204.99 1221.27 1206.18C1221.45 1206.21 1221.63 1206.28 1221.78 1206.38C1221.93 1206.49 1222.05 1206.63 1222.14 1206.79C1222.23 1206.96 1222.28 1207.14 1222.29 1207.32C1222.29 1207.51 1222.26 1207.69 1222.18 1207.86L1221.46 1209.5C1221.37 1209.71 1221.21 1209.89 1221.01 1210.02C1220.82 1210.15 1220.58 1210.22 1220.35 1210.22H1196.51C1196.04 1210.22 1195.58 1210.03 1195.25 1209.69C1194.91 1209.36 1194.73 1208.9 1194.73 1208.43V1207.59C1194.73 1207.2 1194.87 1206.81 1195.14 1206.52C1195.4 1206.22 1195.76 1206.04 1196.15 1206C1204.76 1205.12 1205.17 1198.17 1205.53 1191.11C1206.12 1179.51 1207.33 1157.49 1209.15 1125.05C1209.18 1124.6 1209.36 1124.18 1209.68 1123.85C1210 1123.53 1210.42 1123.33 1210.87 1123.29C1213.2 1123.1 1214.33 1123.54 1215.51 1125.75C1224.75 1143.1 1236.05 1164.26 1249.41 1189.24C1249.64 1189.68 1249.96 1190.04 1250.38 1190.32Z" fill="#004987"/>
<path d="M75.7229 1172.12C75.7144 1176.78 75.7144 1183.87 75.7229 1193.41C75.7229 1197.01 76.1258 1199.46 76.9316 1200.77C79.3618 1204.72 84.2348 1205.83 88.5862 1206.2C88.8732 1206.21 89.1421 1206.35 89.3383 1206.56C89.5344 1206.78 89.6431 1207.06 89.6422 1207.36V1209.09C89.6422 1209.43 89.5082 1209.76 89.2695 1210C89.0309 1210.24 88.7073 1210.38 88.3699 1210.38H52.8973C52.4204 1210.39 51.9575 1210.22 51.5932 1209.9C51.2288 1209.59 50.9875 1209.16 50.9134 1208.68C50.8392 1208.2 50.9372 1207.71 51.1894 1207.3C51.4416 1206.89 51.8311 1206.58 52.2866 1206.44L55.8492 1205.28C56.1788 1205.17 56.4949 1205.01 56.7907 1204.83C59.9036 1202.9 61.4686 1200.11 61.4856 1196.46C61.6128 1176.06 61.6086 1157.07 61.4728 1139.49C61.422 1131.87 57.2614 1130.59 51.7395 1127.9C51.3714 1127.72 51.075 1127.43 50.8997 1127.05C50.7244 1126.68 50.6806 1126.26 50.7757 1125.85C50.8708 1125.45 51.0991 1125.09 51.4225 1124.84C51.746 1124.58 52.1452 1124.45 52.5538 1124.45C64.4798 1124.7 77.1988 1124.63 90.711 1124.25C104.02 1123.87 119.071 1130.09 119.491 1145.9C119.746 1155.54 115.407 1162.44 106.475 1166.59C104.77 1167.39 102.2 1167.75 100.61 1168.39C100.478 1168.44 100.366 1168.53 100.288 1168.65C100.211 1168.77 100.174 1168.91 100.181 1169.05C100.188 1169.19 100.239 1169.33 100.328 1169.44C100.416 1169.55 100.537 1169.63 100.673 1169.66C104.134 1170.64 107.12 1172.67 109.63 1175.76C113.626 1180.68 119.241 1187.79 126.476 1197.09C130.726 1202.57 133.576 1206.65 139.339 1207.55C139.706 1207.61 140.041 1207.8 140.292 1208.07C140.542 1208.35 140.694 1208.71 140.722 1209.08C140.75 1209.46 140.652 1209.83 140.446 1210.15C140.239 1210.46 139.934 1210.69 139.581 1210.81C129.36 1214.11 121.022 1211.66 114.567 1203.44C106.713 1193.45 101.691 1186.94 99.5027 1183.94C95.2871 1178.13 92.0808 1174.73 89.8839 1173.73C86.0245 1171.97 81.5799 1171.14 76.5499 1171.25C76.3294 1171.26 76.119 1171.35 75.9643 1171.51C75.8096 1171.67 75.7229 1171.89 75.7229 1172.12ZM76.6008 1165.49C84.1669 1166.03 90.9824 1165.34 97.0472 1163.4C97.4896 1163.26 97.9128 1163.07 98.3068 1162.82C102.132 1160.36 104.1 1156.81 104.21 1152.19C104.55 1137.95 98.1753 1130.68 85.0873 1130.36C80.0997 1130.23 76.6772 1132.1 76.1937 1137.38C75.9986 1139.56 75.918 1148.69 75.952 1164.78C75.9515 1164.96 76.0186 1165.14 76.1393 1165.27C76.26 1165.4 76.4252 1165.48 76.6008 1165.49Z" fill="#004987"/>
<path d="M161.765 1209.92C161.287 1209.94 160.82 1209.78 160.451 1209.47C160.081 1209.17 159.833 1208.73 159.754 1208.26C159.675 1207.78 159.769 1207.29 160.02 1206.88C160.27 1206.47 160.66 1206.17 161.116 1206.02C169.969 1203.27 173.047 1201.88 173.06 1191.53C173.077 1173.85 173.064 1156.47 173.022 1139.37C172.996 1132.16 168.913 1130.17 163.266 1128.07C162.845 1127.92 162.493 1127.62 162.273 1127.22C162.052 1126.83 161.977 1126.37 162.061 1125.93C162.145 1125.48 162.383 1125.08 162.732 1124.8C163.081 1124.52 163.518 1124.37 163.965 1124.38C181.765 1124.91 201.404 1124.87 222.884 1124.24C224.656 1124.18 225.653 1124.39 225.873 1124.88C226.229 1125.66 226.267 1126.73 225.988 1128.07C225.055 1132.55 224.041 1136.67 222.947 1140.43C222.836 1140.8 222.61 1141.13 222.304 1141.36C221.998 1141.59 221.628 1141.71 221.246 1141.72C220.864 1141.72 220.492 1141.6 220.182 1141.37C219.873 1141.15 219.643 1140.83 219.526 1140.46C217.94 1135.34 214.285 1132.38 208.561 1131.59C203.236 1130.85 198.377 1130.73 193.984 1131.24C189.693 1131.74 187.523 1134.05 187.472 1138.2C187.344 1148.63 187.327 1156.06 187.421 1160.48C187.497 1163.77 189.939 1163.37 192.941 1163.47C197.639 1163.64 202.426 1163.31 207.302 1162.48C210.652 1161.92 214.137 1160.41 217.758 1157.95C218.08 1157.73 218.542 1157.58 219.144 1157.5C219.323 1157.48 219.505 1157.51 219.671 1157.58C219.837 1157.65 219.981 1157.77 220.088 1157.91C220.196 1158.06 220.263 1158.23 220.282 1158.41C220.302 1158.59 220.274 1158.78 220.2 1158.94L212.835 1175.36C212.662 1175.74 212.347 1176.04 211.959 1176.19C211.571 1176.35 211.141 1176.34 210.762 1176.17C210.075 1175.87 209.261 1175.1 208.32 1173.88C205.101 1169.65 194.62 1168.96 189.672 1169.52C189.05 1169.58 188.475 1169.88 188.057 1170.35C187.639 1170.82 187.408 1171.43 187.408 1172.06C187.425 1178.12 187.412 1185.3 187.37 1193.62C187.357 1198.82 188.833 1202.43 194.2 1203.06C207.595 1204.65 221.268 1202.14 228.875 1190.69C229.106 1190.35 229.433 1190.08 229.814 1189.92C230.196 1189.76 230.614 1189.72 231.019 1189.8C231.423 1189.88 231.795 1190.08 232.087 1190.37C232.38 1190.67 232.581 1191.04 232.666 1191.45C232.767 1191.96 232.742 1192.77 232.589 1193.91C231.762 1199.8 227.031 1210.68 219.691 1210.22C202.884 1209.18 183.575 1209.08 161.765 1209.92Z" fill="#004987"/>
<path d="M294.604 1210.2L258.986 1210.23C258.506 1210.23 258.042 1210.06 257.67 1209.75C257.298 1209.45 257.04 1209.03 256.937 1208.56C256.834 1208.09 256.892 1207.6 257.103 1207.17C257.314 1206.74 257.665 1206.39 258.098 1206.18C259.32 1205.61 261.404 1205.47 262.78 1204.65C265.876 1202.79 267.454 1200.03 267.514 1196.37C267.634 1189.2 267.634 1169.79 267.514 1138.14C267.506 1135.68 266.279 1133.29 263.835 1130.97C262.369 1129.59 260.221 1129.03 257.879 1128.07C257.479 1127.91 257.148 1127.61 256.945 1127.22C256.741 1126.84 256.678 1126.4 256.764 1125.97C256.851 1125.54 257.083 1125.16 257.42 1124.89C257.758 1124.62 258.179 1124.47 258.613 1124.47C269.864 1124.63 282.504 1124.55 296.534 1124.24C303.66 1124.09 310.191 1125.39 316.125 1128.15C332.899 1135.95 333.876 1159.24 320.614 1170.32C310.928 1178.4 295.518 1179.07 282.822 1177.23C282.728 1177.22 282.633 1177.23 282.543 1177.25C282.452 1177.28 282.369 1177.33 282.298 1177.39C282.227 1177.45 282.171 1177.53 282.132 1177.61C282.094 1177.7 282.075 1177.79 282.075 1177.89L282.114 1197.86C282.114 1198.01 282.136 1198.15 282.178 1198.29C284.249 1204.69 289.832 1205.33 295.608 1206.21C295.75 1206.23 295.885 1206.29 296.003 1206.37C296.12 1206.45 296.217 1206.56 296.285 1206.69C296.354 1206.82 296.392 1206.96 296.397 1207.1C296.402 1207.25 296.374 1207.39 296.315 1207.52L295.338 1209.73C295.271 1209.87 295.167 1209.99 295.037 1210.08C294.907 1210.16 294.757 1210.21 294.604 1210.2ZM282.912 1171.35C286.162 1172.07 290.698 1172.24 296.521 1171.84C303.665 1171.35 308.784 1168.52 311.88 1163.34C312.102 1162.97 312.275 1162.58 312.395 1162.17C316.922 1146.84 310.941 1131.85 293.331 1130.38C286.938 1129.85 281.947 1131.83 282.166 1139.21C282.551 1151.92 282.024 1162.84 282.178 1170.46C282.183 1170.67 282.257 1170.87 282.39 1171.03C282.523 1171.2 282.707 1171.31 282.912 1171.35Z" fill="#004987"/>
<path d="M522.562 1162.01C522.435 1162.06 522.326 1162.14 522.249 1162.25C522.171 1162.36 522.13 1162.49 522.13 1162.63C522.13 1162.76 522.171 1162.9 522.249 1163.01C522.326 1163.12 522.435 1163.2 522.562 1163.25C525.327 1164.2 527.696 1164.4 529.949 1165.49C538.732 1169.72 542.987 1176.72 542.714 1186.49C542.305 1201.82 527.005 1209.18 513.753 1210.03C508.239 1210.39 501.539 1210.27 493.652 1209.67C490.298 1209.41 481.92 1209.55 468.52 1210.09C468.176 1210.11 467.838 1210 467.569 1209.79C467.299 1209.58 467.114 1209.28 467.047 1208.95L466.753 1207.49C466.719 1207.33 466.718 1207.16 466.749 1206.99C466.78 1206.83 466.844 1206.67 466.935 1206.53C467.027 1206.39 467.145 1206.27 467.283 1206.18C467.421 1206.09 467.576 1206.02 467.739 1205.99C475.685 1204.39 479.667 1201.04 479.684 1195.95C479.761 1163.08 479.761 1143.92 479.684 1138.46C479.582 1131.66 475.318 1130.13 470.069 1128.1C469.653 1127.93 469.308 1127.63 469.094 1127.23C468.881 1126.84 468.812 1126.38 468.901 1125.94C468.99 1125.5 469.231 1125.11 469.58 1124.83C469.93 1124.55 470.366 1124.41 470.811 1124.43C481.267 1124.83 493.669 1124.77 508.018 1124.25C515.597 1123.98 525.648 1126.44 531.063 1132.17C536.786 1138.21 537.273 1147.58 532.958 1154.42C530.79 1157.84 527.325 1160.37 522.562 1162.01ZM495.317 1161.3C503.545 1161.41 508.619 1161.3 510.54 1160.98C519.668 1159.5 522.011 1151.15 520.398 1143.23C518.388 1133.32 509.874 1129.72 500.643 1130.57C495.547 1131.05 494.51 1134.35 494.446 1139.13C494.369 1144.93 494.374 1152.03 494.459 1160.43C494.459 1160.66 494.549 1160.88 494.709 1161.04C494.87 1161.21 495.088 1161.3 495.317 1161.3ZM494.292 1168.29C494.48 1174.36 494.485 1182.73 494.305 1193.4C494.211 1199.23 496.913 1202.6 502.41 1203.49C511.116 1204.89 524.252 1204.27 526.557 1193.41C527.927 1186.93 526.902 1179.06 522.472 1174.02C515.341 1165.91 505.06 1167.48 495.022 1167.52C494.924 1167.52 494.826 1167.54 494.736 1167.58C494.646 1167.62 494.564 1167.68 494.496 1167.75C494.428 1167.82 494.375 1167.91 494.34 1168C494.305 1168.09 494.289 1168.19 494.292 1168.29Z" fill="#004987"/>
<path d="M968.826 1128.2C968.633 1128.16 968.46 1128.06 968.335 1127.91C968.21 1127.76 968.142 1127.57 968.142 1127.37V1125.48C968.142 1125.35 968.169 1125.22 968.221 1125.09C968.273 1124.97 968.35 1124.86 968.446 1124.76C968.542 1124.67 968.656 1124.6 968.781 1124.55C968.906 1124.5 969.04 1124.48 969.174 1124.48C981.369 1124.83 995.327 1124.75 1011.05 1124.25C1019.19 1123.98 1030.54 1126.81 1037.69 1131.71C1049.67 1139.9 1055.33 1152 1054.68 1168.02C1053.61 1194.04 1032.6 1211.38 1007.18 1210.17C991.586 1209.44 978.273 1209.42 967.239 1210.11C966.991 1210.12 966.744 1210.06 966.534 1209.92C966.323 1209.79 966.159 1209.59 966.065 1209.36C965.368 1207.61 965.639 1206.23 967.897 1205.64C973.947 1204.06 979.004 1201.96 979.017 1194.75C979.051 1179.93 979.094 1162.06 979.146 1141.15C979.163 1133.8 975.723 1129.48 968.826 1128.2ZM1003.05 1130.62C994.536 1131.07 993.646 1134.91 993.646 1142.38C993.646 1161.36 993.637 1177.7 993.62 1191.4C993.611 1194.95 993.925 1197.28 994.561 1198.41C998.651 1205.66 1014.03 1204.25 1021.16 1202.39C1030.97 1199.83 1036.93 1193.23 1039.04 1182.61C1043.81 1158.6 1032.32 1129.08 1003.05 1130.62Z" fill="#004987"/>
<path d="M417.07 1125.23H443.243C443.49 1125.23 443.73 1125.31 443.922 1125.47C444.114 1125.62 444.246 1125.84 444.296 1126.07L444.707 1128.11C444.733 1128.23 444.733 1128.36 444.707 1128.48C444.68 1128.6 444.629 1128.72 444.555 1128.82C444.481 1128.92 444.387 1129 444.278 1129.07C444.169 1129.13 444.049 1129.17 443.924 1129.18C437.594 1129.86 434.446 1133.24 434.48 1139.34C434.591 1161.18 434.506 1175.33 434.223 1181.79C433.837 1190.4 430.672 1197.67 424.728 1203.58C415.888 1212.38 400.238 1213.93 388.392 1210.63C376.957 1207.45 369.44 1200.83 365.843 1190.78C364.558 1187.18 363.941 1182.06 363.993 1175.42C364.044 1168.89 364.07 1158.45 364.07 1144.11C364.07 1135.91 363.363 1130.17 354.613 1129.21C354.369 1129.18 354.143 1129.07 353.98 1128.89C353.816 1128.71 353.726 1128.48 353.727 1128.24V1126.3C353.727 1126.16 353.754 1126.02 353.809 1125.89C353.863 1125.76 353.942 1125.64 354.043 1125.55C354.143 1125.45 354.262 1125.37 354.393 1125.31C354.524 1125.26 354.664 1125.23 354.806 1125.23H388.007C388.266 1125.23 388.514 1125.33 388.697 1125.52C388.88 1125.7 388.983 1125.94 388.983 1126.2V1128.2C388.982 1128.45 388.89 1128.69 388.724 1128.88C388.558 1129.06 388.33 1129.18 388.084 1129.21C382.096 1129.86 379.025 1133.36 378.871 1139.71C378.794 1142.94 378.781 1156.19 378.833 1179.45C378.871 1196.96 391.232 1207.19 408.14 1203.51C415.661 1201.87 420.907 1197.77 423.88 1191.2C425.353 1187.95 426.073 1182.5 426.038 1174.84C425.944 1154.66 425.923 1142.94 425.974 1139.7C426.09 1133.05 422.428 1130.44 416.672 1129.32C416.165 1129.23 415.714 1128.95 415.405 1128.54C415.097 1128.13 414.953 1127.62 415.003 1127.11C415.053 1126.6 415.292 1126.12 415.674 1125.77C416.056 1125.43 416.554 1125.23 417.07 1125.23Z" fill="#004987"/>
<path d="M602.562 1125.23C602.785 1125.23 602.998 1125.32 603.155 1125.48C603.313 1125.63 603.401 1125.85 603.401 1126.07V1128.29C603.402 1128.5 603.326 1128.69 603.187 1128.85C603.049 1129 602.858 1129.1 602.651 1129.12C596.417 1129.83 593.266 1133.36 593.199 1139.72C593.097 1149.5 593.11 1167.85 593.237 1194.76C593.262 1200.08 596.049 1202.96 601.597 1203.42C614.95 1204.53 626.664 1202.02 635.164 1190.62C635.537 1190.12 636.236 1190 637.261 1190.26C637.702 1190.37 638.09 1190.63 638.358 1191C638.625 1191.38 638.754 1191.83 638.722 1192.29C638.226 1198.79 634.923 1206.61 628.799 1209.76C628.438 1209.95 628.045 1210.06 627.643 1210.09C621.951 1210.56 614.861 1209.7 608.42 1209.54C594.156 1209.22 580.756 1209.42 568.22 1210.13C567.466 1210.17 566.945 1210.08 566.657 1209.85C566.334 1209.59 566.077 1209.25 565.915 1208.87C565.754 1208.49 565.694 1208.08 565.743 1207.68C565.792 1207.28 565.947 1206.92 566.191 1206.63C566.436 1206.34 566.76 1206.13 567.127 1206.04C574.865 1203.96 578.969 1202.27 578.943 1193.17C578.901 1178.71 578.901 1160.97 578.943 1139.97C578.952 1133.37 575.547 1129.74 568.728 1129.09C568.682 1129.09 568.638 1129.07 568.604 1129.04C568.569 1129.01 568.546 1128.96 568.538 1128.92C568.394 1127.73 568.461 1126.58 568.741 1125.46C568.76 1125.39 568.799 1125.34 568.851 1125.3C568.904 1125.25 568.968 1125.23 569.033 1125.23H602.562Z" fill="#004987"/>
<path d="M671.55 1167.74C671.533 1153.24 671.477 1143.79 671.383 1139.38C671.271 1133.55 668.252 1130.22 662.325 1129.38C661.843 1129.32 661.407 1129.06 661.11 1128.68C660.814 1128.29 660.681 1127.81 660.74 1127.33L660.766 1127.1C660.832 1126.59 661.081 1126.12 661.465 1125.79C661.85 1125.45 662.344 1125.27 662.853 1125.27C667.827 1125.27 673.105 1125.26 678.688 1125.24C684.271 1125.25 689.549 1125.25 694.522 1125.23C695.034 1125.23 695.529 1125.41 695.914 1125.75C696.299 1126.09 696.547 1126.56 696.61 1127.07L696.635 1127.3C696.695 1127.78 696.562 1128.27 696.265 1128.65C695.969 1129.04 695.533 1129.29 695.051 1129.36C689.133 1130.2 686.118 1133.54 686.006 1139.37C685.929 1143.77 685.894 1153.23 685.903 1167.73C685.92 1182.23 685.972 1191.69 686.058 1196.09C686.178 1201.91 689.201 1205.24 695.128 1206.08C695.61 1206.15 696.046 1206.4 696.343 1206.78C696.639 1207.17 696.772 1207.65 696.713 1208.14L696.687 1208.37C696.624 1208.88 696.376 1209.34 695.992 1209.68C695.607 1210.02 695.111 1210.21 694.6 1210.21C689.626 1210.2 684.348 1210.2 678.765 1210.22C673.182 1210.21 667.904 1210.21 662.931 1210.23C662.421 1210.23 661.927 1210.05 661.543 1209.71C661.158 1209.38 660.909 1208.91 660.843 1208.4L660.818 1208.17C660.758 1207.69 660.889 1207.21 661.183 1206.83C661.477 1206.44 661.91 1206.19 662.389 1206.12C668.316 1205.27 671.331 1201.93 671.434 1196.1C671.52 1191.7 671.559 1182.25 671.55 1167.74Z" fill="#004987"/>
<path d="M1345.71 1125.23C1351.31 1125.25 1356.6 1125.25 1361.57 1125.23C1362.08 1125.23 1362.58 1125.41 1362.97 1125.75C1363.35 1126.09 1363.6 1126.56 1363.66 1127.07L1363.69 1127.3C1363.75 1127.78 1363.61 1128.26 1363.32 1128.65C1363.02 1129.03 1362.58 1129.29 1362.1 1129.36C1356.17 1130.2 1353.15 1133.54 1353.04 1139.37C1352.95 1143.77 1352.91 1153.22 1352.92 1167.73C1352.92 1182.24 1352.97 1191.7 1353.06 1196.11C1353.17 1201.94 1356.2 1205.27 1362.13 1206.11C1362.61 1206.18 1363.05 1206.43 1363.34 1206.81C1363.64 1207.2 1363.77 1207.68 1363.71 1208.16L1363.69 1208.39C1363.62 1208.9 1363.38 1209.37 1362.99 1209.71C1362.61 1210.05 1362.11 1210.23 1361.6 1210.23C1356.61 1210.22 1351.33 1210.22 1345.74 1210.23C1340.15 1210.22 1334.86 1210.22 1329.88 1210.23C1329.37 1210.23 1328.87 1210.05 1328.49 1209.71C1328.11 1209.38 1327.86 1208.91 1327.79 1208.4L1327.76 1208.17C1327.71 1207.69 1327.84 1207.21 1328.13 1206.83C1328.43 1206.44 1328.87 1206.19 1329.35 1206.12C1335.28 1205.28 1338.3 1201.94 1338.41 1196.11C1338.5 1191.7 1338.54 1182.25 1338.54 1167.74C1338.54 1153.23 1338.49 1143.77 1338.4 1139.37C1338.29 1133.54 1335.27 1130.2 1329.34 1129.36C1328.85 1129.29 1328.42 1129.04 1328.12 1128.66C1327.82 1128.27 1327.68 1127.79 1327.74 1127.31L1327.76 1127.08C1327.83 1126.57 1328.08 1126.1 1328.46 1125.76C1328.85 1125.43 1329.34 1125.24 1329.85 1125.24C1334.84 1125.25 1340.13 1125.25 1345.71 1125.23Z" fill="#004987"/>
<path d="M1415.91 1210.12L1388.07 1210.14C1387.86 1210.14 1387.66 1210.07 1387.49 1209.96C1387.32 1209.84 1387.19 1209.67 1387.11 1209.48C1385.97 1206.58 1387.48 1205.98 1389.99 1205.2C1396.5 1203.16 1397.34 1199.06 1397.32 1192.2C1397.3 1176.4 1397.28 1160.67 1397.28 1145.01C1397.29 1138.27 1395.34 1132.51 1391.42 1127.74C1391.16 1127.43 1391 1127.05 1390.95 1126.64C1390.9 1126.24 1390.97 1125.84 1391.14 1125.47C1391.31 1125.1 1391.58 1124.79 1391.92 1124.58C1392.26 1124.36 1392.65 1124.24 1393.06 1124.24L1400.2 1124.23C1401.21 1124.23 1402.2 1124.44 1403.12 1124.83C1404.04 1125.23 1404.87 1125.81 1405.56 1126.54L1460.72 1184.63C1460.81 1184.72 1460.93 1184.78 1461.06 1184.81C1461.18 1184.84 1461.32 1184.83 1461.44 1184.78C1461.56 1184.73 1461.66 1184.65 1461.73 1184.54C1461.8 1184.43 1461.84 1184.3 1461.83 1184.18C1461.83 1182.04 1461.83 1167.5 1461.83 1140.55C1461.83 1132.34 1458.4 1129.94 1450.88 1128.38C1450.38 1128.28 1449.94 1128 1449.64 1127.59C1449.34 1127.18 1449.2 1126.67 1449.25 1126.16C1449.3 1125.66 1449.54 1125.19 1449.92 1124.84C1450.29 1124.5 1450.78 1124.32 1451.29 1124.32L1478.64 1124.31C1479.14 1124.31 1479.62 1124.48 1479.99 1124.8C1480.37 1125.13 1480.62 1125.57 1480.7 1126.06C1480.78 1126.56 1480.68 1127.06 1480.42 1127.48C1480.17 1127.91 1479.77 1128.23 1479.3 1128.38C1470.98 1131.16 1470.06 1133.37 1470.07 1142.44C1470.11 1171.48 1470.15 1189.1 1470.2 1195.32C1470.24 1200.55 1470.67 1205.22 1471.49 1209.34C1471.57 1209.7 1471.5 1210.09 1471.29 1210.4C1471.09 1210.72 1470.77 1210.94 1470.41 1211.01C1468.55 1211.41 1466.92 1211.26 1465.5 1210.58C1465.24 1210.46 1465.01 1210.29 1464.82 1210.09L1406.81 1148.99C1406.7 1148.87 1406.55 1148.79 1406.39 1148.75C1406.23 1148.72 1406.06 1148.73 1405.9 1148.79C1405.75 1148.86 1405.62 1148.96 1405.52 1149.1C1405.43 1149.24 1405.38 1149.41 1405.38 1149.57C1405.39 1175.3 1405.41 1190.54 1405.44 1195.29C1405.51 1202.26 1410.53 1204.72 1416.33 1205.89C1416.84 1206.01 1417.29 1206.31 1417.59 1206.73C1417.9 1207.15 1418.04 1207.68 1417.99 1208.2C1417.93 1208.72 1417.69 1209.2 1417.31 1209.56C1416.93 1209.91 1416.43 1210.11 1415.91 1210.12Z" fill="#004987"/>
<path d="M1515.54 1167.24C1515.53 1152.56 1515.48 1142.99 1515.39 1138.54C1515.28 1132.64 1512.25 1129.27 1506.32 1128.41C1505.84 1128.34 1505.41 1128.09 1505.11 1127.7C1504.81 1127.31 1504.68 1126.82 1504.74 1126.34L1504.77 1126.1C1504.83 1125.59 1505.08 1125.11 1505.46 1124.77C1505.85 1124.43 1506.34 1124.24 1506.85 1124.24C1511.83 1124.25 1517.11 1124.25 1522.7 1124.23C1528.28 1124.24 1533.56 1124.24 1538.54 1124.23C1539.05 1124.22 1539.54 1124.41 1539.93 1124.75C1540.32 1125.09 1540.57 1125.56 1540.64 1126.08L1540.66 1126.31C1540.72 1126.79 1540.59 1127.28 1540.29 1127.67C1540 1128.06 1539.56 1128.32 1539.08 1128.39C1533.15 1129.25 1530.13 1132.63 1530.03 1138.52C1529.94 1142.98 1529.9 1152.55 1529.91 1167.22C1529.92 1181.9 1529.97 1191.47 1530.07 1195.93C1530.18 1201.82 1533.2 1205.2 1539.13 1206.05C1539.61 1206.12 1540.05 1206.37 1540.34 1206.76C1540.64 1207.15 1540.77 1207.64 1540.71 1208.13L1540.69 1208.36C1540.62 1208.87 1540.37 1209.34 1539.99 1209.68C1539.6 1210.02 1539.11 1210.21 1538.6 1210.2C1533.62 1210.2 1528.34 1210.2 1522.75 1210.22C1517.17 1210.21 1511.89 1210.21 1506.92 1210.23C1506.4 1210.24 1505.9 1210.05 1505.52 1209.71C1505.13 1209.36 1504.88 1208.89 1504.82 1208.37L1504.79 1208.14C1504.73 1207.65 1504.87 1207.16 1505.16 1206.78C1505.46 1206.39 1505.89 1206.13 1506.38 1206.06C1512.31 1205.21 1515.32 1201.83 1515.43 1195.93C1515.51 1191.48 1515.55 1181.91 1515.54 1167.24Z" fill="#004987"/>
<path d="M1802.9 1210.12H1775.07C1774.86 1210.12 1774.66 1210.06 1774.49 1209.94C1774.32 1209.83 1774.19 1209.66 1774.11 1209.47C1772.97 1206.57 1774.48 1205.97 1776.99 1205.19C1783.5 1203.15 1784.33 1199.05 1784.32 1192.19C1784.3 1176.4 1784.29 1160.67 1784.29 1145C1784.3 1138.26 1782.35 1132.51 1778.43 1127.74C1778.17 1127.42 1778.01 1127.04 1777.96 1126.64C1777.9 1126.24 1777.97 1125.83 1778.14 1125.46C1778.31 1125.09 1778.59 1124.78 1778.93 1124.56C1779.27 1124.35 1779.66 1124.23 1780.07 1124.23H1787.21C1788.22 1124.23 1789.21 1124.44 1790.13 1124.83C1791.05 1125.23 1791.88 1125.81 1792.57 1126.54L1847.71 1184.63C1847.8 1184.72 1847.92 1184.79 1848.05 1184.82C1848.18 1184.84 1848.31 1184.83 1848.43 1184.78C1848.55 1184.73 1848.65 1184.65 1848.72 1184.54C1848.79 1184.44 1848.83 1184.31 1848.83 1184.18C1848.83 1182.05 1848.83 1167.5 1848.84 1140.54C1848.84 1132.34 1845.41 1129.94 1837.89 1128.38C1837.39 1128.28 1836.95 1128 1836.65 1127.59C1836.35 1127.18 1836.21 1126.67 1836.26 1126.16C1836.31 1125.66 1836.55 1125.19 1836.92 1124.84C1837.3 1124.5 1837.79 1124.32 1838.3 1124.32H1865.64C1866.14 1124.32 1866.62 1124.49 1866.99 1124.82C1867.37 1125.14 1867.62 1125.59 1867.7 1126.08C1867.78 1126.57 1867.68 1127.07 1867.42 1127.5C1867.17 1127.92 1866.77 1128.24 1866.3 1128.4C1857.98 1131.16 1857.06 1133.37 1857.07 1142.45C1857.1 1171.48 1857.14 1189.11 1857.19 1195.32C1857.23 1200.55 1857.66 1205.22 1858.48 1209.34C1858.56 1209.71 1858.49 1210.09 1858.28 1210.4C1858.08 1210.72 1857.76 1210.94 1857.39 1211.01C1855.54 1211.41 1853.91 1211.26 1852.49 1210.58C1852.24 1210.46 1852.01 1210.29 1851.81 1210.09L1793.82 1148.99C1793.71 1148.87 1793.56 1148.78 1793.4 1148.75C1793.23 1148.71 1793.06 1148.73 1792.91 1148.79C1792.76 1148.85 1792.62 1148.96 1792.53 1149.1C1792.44 1149.24 1792.39 1149.4 1792.39 1149.57C1792.39 1175.29 1792.4 1190.53 1792.44 1195.28C1792.5 1202.25 1797.52 1204.71 1803.32 1205.89C1803.83 1206.01 1804.28 1206.31 1804.59 1206.73C1804.89 1207.15 1805.03 1207.68 1804.98 1208.2C1804.93 1208.72 1804.69 1209.2 1804.3 1209.56C1803.92 1209.91 1803.42 1210.11 1802.9 1210.12Z" fill="#004987"/>
<path d="M1235.32 1283.23H795.136C794.91 1283.23 794.727 1283.42 794.727 1283.64V1303.82C794.727 1304.05 794.91 1304.23 795.136 1304.23H1235.32C1235.54 1304.23 1235.73 1304.05 1235.73 1303.82V1283.64C1235.73 1283.42 1235.54 1283.23 1235.32 1283.23Z" fill="#F83E38"/>
<path d="M889.994 1370.64C891.149 1371.72 892.314 1373.25 893.487 1375.21C893.703 1375.58 893.777 1376 893.693 1376.41C893.609 1376.82 893.375 1377.19 893.033 1377.44L876.278 1389.8C876.034 1389.98 875.755 1390.11 875.459 1390.18C875.163 1390.24 874.856 1390.25 874.558 1390.19C873.909 1390.08 873.154 1389.62 872.292 1388.82C871.439 1388.02 870.937 1387.3 870.786 1386.66C870.716 1386.38 870.708 1386.07 870.763 1385.78C870.818 1385.49 870.935 1385.21 871.106 1384.96L882.929 1367.97C883.169 1367.63 883.529 1367.38 883.942 1367.28C884.355 1367.18 884.792 1367.23 885.169 1367.43C887.23 1368.49 888.839 1369.56 889.994 1370.64Z" fill="#F83E38"/>
<path d="M837.396 1482.12C837.426 1482.17 837.447 1482.22 837.455 1482.27C837.464 1482.33 837.461 1482.38 837.447 1482.44C837.432 1482.49 837.406 1482.54 837.371 1482.58C837.336 1482.63 837.292 1482.66 837.242 1482.69C829.873 1486.56 822.192 1489.85 814.201 1492.57C810.977 1493.66 806.077 1493.21 801.496 1492.61C791.773 1491.32 783.53 1488.67 776.766 1484.67C758.189 1473.69 751.856 1452.48 757.997 1432.32C767.235 1401.97 799.974 1393.16 827.775 1400.87C830.299 1401.57 832.517 1402.64 834.428 1404.07C834.911 1404.44 835.272 1404.95 835.466 1405.52C835.66 1406.1 835.677 1406.72 835.515 1407.3C834.79 1409.91 833.754 1412.67 832.406 1415.6C831.204 1418.19 829.361 1418.85 826.879 1417.57C821.113 1414.59 817.766 1412.9 816.836 1412.52C804.746 1407.55 784.877 1406.8 776.101 1418.56C768.373 1428.9 769.896 1449.74 775.307 1461.77C781.679 1475.92 794.908 1485.88 810.81 1484.42C820.226 1483.56 820.201 1475.07 819.561 1467.71C818.883 1459.8 812.563 1456.94 805.718 1456.06C805.435 1456.02 805.166 1455.91 804.938 1455.73C804.71 1455.56 804.532 1455.33 804.419 1455.07C804.307 1454.8 804.265 1454.51 804.298 1454.23C804.33 1453.94 804.436 1453.67 804.605 1453.44L804.669 1453.35C805.166 1452.68 805.81 1452.14 806.552 1451.77C807.294 1451.39 808.113 1451.2 808.942 1451.2C827.442 1451.22 838.283 1451.24 841.464 1451.26C842.624 1451.27 843.217 1451.28 843.243 1451.29C843.648 1451.44 844.002 1451.7 844.263 1452.05C844.524 1452.39 844.682 1452.8 844.719 1453.24C844.755 1453.67 844.668 1454.1 844.468 1454.48C844.267 1454.87 843.962 1455.19 843.588 1455.4C838.406 1458.4 835.694 1458.81 835.042 1465.72C834.504 1471.34 834.338 1477.59 837.396 1482.12Z" fill="#F83E38"/>
<path d="M1662.57 1404.81C1663.06 1405.11 1663.43 1405.58 1663.6 1406.13C1663.77 1406.68 1663.73 1407.28 1663.49 1407.81L1659.66 1416.31C1659.56 1416.56 1659.39 1416.78 1659.18 1416.95C1658.97 1417.12 1658.73 1417.24 1658.47 1417.31C1658.2 1417.37 1657.93 1417.37 1657.66 1417.31C1657.4 1417.25 1657.15 1417.13 1656.94 1416.96C1654.45 1414.98 1651.74 1413.07 1648.82 1411.24C1641.78 1406.83 1626.37 1405.25 1623.4 1415.6C1620.74 1424.87 1628.94 1429.73 1636.57 1434.49C1645.29 1439.9 1651.93 1444.23 1656.49 1447.46C1659.32 1449.46 1661.85 1451.89 1664.07 1454.77C1670.16 1462.63 1668.07 1473.65 1661.99 1481.21C1653.78 1491.39 1638.8 1494.9 1626.2 1492.51C1620.13 1491.35 1615.06 1490.21 1610.13 1486.64C1609.56 1486.22 1609.13 1485.64 1608.91 1484.97C1608.68 1484.31 1608.67 1483.59 1608.87 1482.92L1611.3 1474.87C1611.39 1474.57 1611.55 1474.29 1611.77 1474.06C1611.99 1473.83 1612.26 1473.65 1612.56 1473.54C1612.86 1473.44 1613.19 1473.4 1613.5 1473.43C1613.82 1473.47 1614.13 1473.58 1614.4 1473.75C1615.41 1474.42 1617.08 1475.1 1617.94 1475.88C1624.92 1482.17 1633.01 1485.08 1642.2 1484.63C1652.08 1484.14 1659.02 1476.02 1653.61 1466.67C1652.81 1465.28 1650.11 1463.12 1645.53 1460.2C1644.31 1459.43 1637.09 1454.65 1623.85 1445.88C1615.96 1440.65 1609.22 1434.17 1610.39 1423.75C1611.86 1410.67 1624.03 1401.54 1636.69 1399.69C1646.13 1398.31 1654.76 1400.02 1662.57 1404.81Z" fill="#F83E38"/>
<path d="M1013.73 1489.38V1490.1C1013.73 1490.61 1013.52 1491.1 1013.16 1491.46C1012.8 1491.83 1012.31 1492.03 1011.8 1492.03C997.195 1492.03 977.638 1492.77 975.952 1491.4C975.662 1491.17 975.438 1490.87 975.302 1490.52C975.167 1490.18 975.124 1489.8 975.179 1489.43C975.233 1489.07 975.384 1488.72 975.614 1488.43C975.844 1488.14 976.147 1487.91 976.492 1487.77C978.449 1486.99 981.333 1486.71 982.788 1484.2C984.9 1480.56 981.449 1472.47 979.441 1469.63C979.014 1469.03 978.449 1468.53 977.793 1468.19C977.137 1467.85 976.408 1467.67 975.668 1467.66C964.235 1467.59 954.382 1467.59 946.107 1467.66C943.442 1467.69 941.588 1468.22 940.352 1470.75C938.073 1475.46 934.803 1484.47 941.395 1486.63C942.065 1486.85 943.618 1487.24 946.056 1487.79C946.232 1487.83 946.395 1487.91 946.529 1488.03C946.662 1488.15 946.761 1488.31 946.815 1488.48C946.927 1488.85 946.961 1489.41 946.919 1490.17C946.892 1490.68 946.672 1491.15 946.303 1491.5C945.934 1491.85 945.444 1492.05 944.936 1492.05H917.293C917.037 1492.05 916.785 1491.97 916.568 1491.83C916.351 1491.7 916.178 1491.5 916.07 1491.26C915.718 1490.52 915.637 1489.68 915.825 1488.77C915.884 1488.5 916.018 1488.25 916.212 1488.06C916.406 1487.86 916.652 1487.73 916.92 1487.67C921.941 1486.57 925.585 1483.49 927.851 1478.42C931.421 1470.43 940.318 1449.96 954.54 1417C957.141 1410.99 958.532 1405.91 958.712 1401.77C958.722 1401.5 958.821 1401.25 958.994 1401.05C959.167 1400.85 959.403 1400.71 959.665 1400.66L966.411 1399.26C966.724 1399.19 967.051 1399.24 967.334 1399.39C967.618 1399.54 967.842 1399.78 967.969 1400.07C981.41 1431.18 991.663 1455.09 998.727 1471.78C1001.39 1478.06 1004.69 1486.54 1012.01 1487.45C1012.49 1487.51 1012.92 1487.74 1013.24 1488.1C1013.55 1488.45 1013.73 1488.91 1013.73 1489.38ZM945.786 1458.5C945.714 1458.68 945.686 1458.87 945.706 1459.06C945.725 1459.24 945.79 1459.43 945.895 1459.58C946.001 1459.74 946.144 1459.87 946.311 1459.96C946.478 1460.05 946.664 1460.1 946.854 1460.1L973.737 1460.2C973.928 1460.2 974.117 1460.15 974.285 1460.06C974.454 1459.97 974.598 1459.84 974.703 1459.68C974.809 1459.52 974.874 1459.34 974.892 1459.15C974.91 1458.96 974.88 1458.77 974.806 1458.59L961.48 1426.24C961.392 1426.03 961.243 1425.85 961.053 1425.73C960.863 1425.6 960.64 1425.53 960.411 1425.53C960.183 1425.53 959.96 1425.6 959.77 1425.73C959.58 1425.85 959.431 1426.03 959.343 1426.24L945.786 1458.5Z" fill="#F83E38"/>
<path d="M1310.74 1486.6C1311.02 1486.65 1311.27 1486.79 1311.45 1487C1311.63 1487.22 1311.73 1487.49 1311.73 1487.77V1489.72C1311.73 1490.12 1311.57 1490.5 1311.29 1490.78C1311.01 1491.06 1310.63 1491.22 1310.24 1491.22H1276.14C1275.8 1491.22 1275.47 1491.1 1275.21 1490.89C1274.95 1490.67 1274.77 1490.37 1274.71 1490.04L1274.32 1488.23C1274.24 1487.85 1274.32 1487.46 1274.53 1487.14C1274.74 1486.82 1275.07 1486.59 1275.45 1486.51C1285.35 1484.38 1284.15 1476.76 1283.51 1467.64C1282.81 1457.68 1282.19 1447.29 1281.65 1436.48C1281.64 1436.25 1281.55 1436.04 1281.41 1435.87C1281.26 1435.7 1281.06 1435.58 1280.84 1435.54C1280.62 1435.49 1280.39 1435.52 1280.18 1435.62C1279.98 1435.72 1279.81 1435.89 1279.71 1436.09C1267.65 1460.97 1260.81 1473.78 1255.71 1487.51C1255.56 1487.9 1255.33 1488.24 1255.02 1488.51C1252.48 1490.64 1247.8 1490.45 1246.07 1487.15C1239.81 1475.18 1230.39 1457.43 1217.82 1433.91C1217.74 1433.76 1217.62 1433.65 1217.47 1433.58C1217.32 1433.52 1217.15 1433.5 1217 1433.53C1216.84 1433.57 1216.69 1433.66 1216.59 1433.78C1216.49 1433.91 1216.43 1434.06 1216.42 1434.23C1215.51 1453.4 1214.99 1467.42 1214.84 1476.27C1214.74 1482.43 1217.5 1485.83 1223.12 1486.49C1223.45 1486.52 1223.75 1486.68 1223.97 1486.93C1224.19 1487.18 1224.31 1487.5 1224.31 1487.83V1489.81C1224.31 1490.18 1224.16 1490.54 1223.9 1490.81C1223.63 1491.07 1223.27 1491.22 1222.9 1491.22L1197.29 1491.23C1196.72 1491.23 1196.17 1491.05 1195.72 1490.7C1195.27 1490.35 1194.95 1489.87 1194.81 1489.32C1194.67 1488.77 1194.71 1488.18 1194.94 1487.66C1195.16 1487.14 1195.55 1486.7 1196.05 1486.42C1196.06 1486.42 1196.47 1486.38 1197.29 1486.32C1202.55 1485.9 1205.53 1481.05 1205.84 1475.88C1208.05 1438.16 1209.5 1413.17 1210.18 1400.9C1210.2 1400.65 1210.28 1400.41 1210.42 1400.2C1210.56 1399.99 1210.75 1399.82 1210.97 1399.71C1212.5 1398.94 1214.24 1399.1 1216.18 1400.18C1216.46 1400.34 1216.69 1400.57 1216.84 1400.86L1253.91 1469.25C1254 1469.41 1254.12 1469.53 1254.28 1469.62C1254.43 1469.71 1254.6 1469.75 1254.77 1469.75C1254.95 1469.75 1255.12 1469.7 1255.26 1469.61C1255.41 1469.51 1255.53 1469.38 1255.61 1469.23L1289.97 1400.67C1290.1 1400.42 1290.3 1400.2 1290.54 1400.05C1292.04 1399.13 1293.75 1398.99 1295.65 1399.62C1295.85 1399.68 1296.02 1399.8 1296.15 1399.95C1296.29 1400.11 1296.37 1400.3 1296.41 1400.5C1296.59 1401.67 1296.9 1406.06 1297.33 1413.67C1298.26 1429.98 1299.15 1445.75 1300.01 1460.97C1300.43 1468.51 1300.92 1474.44 1301.48 1478.75C1302.12 1483.67 1305.96 1485.82 1310.74 1486.6Z" fill="#F83E38"/>
<path d="M1591.73 1489.39V1490.11C1591.73 1490.62 1591.52 1491.11 1591.16 1491.47C1590.8 1491.84 1590.31 1492.04 1589.79 1492.04C1575.2 1492.03 1555.64 1492.77 1553.95 1491.4C1553.66 1491.17 1553.44 1490.86 1553.3 1490.52C1553.17 1490.17 1553.12 1489.8 1553.18 1489.43C1553.23 1489.06 1553.38 1488.72 1553.61 1488.43C1553.85 1488.13 1554.15 1487.91 1554.49 1487.77C1556.45 1486.99 1559.34 1486.7 1560.79 1484.19C1562.91 1480.56 1559.45 1472.48 1557.44 1469.63C1557.02 1469.03 1556.46 1468.53 1555.8 1468.19C1555.15 1467.85 1554.42 1467.67 1553.68 1467.66C1542.25 1467.58 1532.39 1467.58 1524.11 1467.65C1521.45 1467.67 1519.59 1468.2 1518.36 1470.74C1516.08 1475.44 1512.8 1484.45 1519.4 1486.61C1520.07 1486.83 1521.62 1487.22 1524.06 1487.77C1524.24 1487.81 1524.4 1487.9 1524.53 1488.02C1524.66 1488.14 1524.76 1488.29 1524.81 1488.47C1524.92 1488.83 1524.96 1489.4 1524.91 1490.15C1524.89 1490.66 1524.67 1491.14 1524.3 1491.49C1523.93 1491.84 1523.44 1492.03 1522.93 1492.03L1495.29 1492.02C1495.04 1492.02 1494.79 1491.95 1494.57 1491.81C1494.35 1491.67 1494.18 1491.47 1494.07 1491.23C1493.72 1490.49 1493.64 1489.65 1493.83 1488.74C1493.88 1488.47 1494.02 1488.22 1494.21 1488.03C1494.41 1487.83 1494.65 1487.7 1494.92 1487.64C1499.95 1486.54 1503.59 1483.46 1505.86 1478.4C1509.43 1470.42 1518.33 1449.95 1532.57 1417C1535.17 1410.99 1536.56 1405.92 1536.75 1401.77C1536.76 1401.51 1536.86 1401.25 1537.04 1401.05C1537.21 1400.85 1537.44 1400.71 1537.71 1400.66L1544.44 1399.26C1544.76 1399.19 1545.08 1399.24 1545.37 1399.39C1545.65 1399.54 1545.88 1399.78 1546 1400.07C1559.44 1431.19 1569.68 1455.1 1576.73 1471.79C1579.4 1478.06 1582.7 1486.55 1590.01 1487.46C1590.49 1487.52 1590.92 1487.75 1591.24 1488.11C1591.55 1488.46 1591.73 1488.92 1591.73 1489.39ZM1523.57 1459.14C1523.53 1459.24 1523.51 1459.36 1523.52 1459.48C1523.53 1459.59 1523.57 1459.7 1523.64 1459.8C1523.7 1459.89 1523.79 1459.97 1523.89 1460.03C1523.99 1460.08 1524.1 1460.11 1524.22 1460.12L1552.48 1460.17C1552.6 1460.17 1552.72 1460.14 1552.82 1460.09C1552.92 1460.03 1553.01 1459.95 1553.07 1459.85C1553.14 1459.76 1553.18 1459.65 1553.19 1459.53C1553.2 1459.41 1553.19 1459.3 1553.14 1459.19L1539.07 1425.23C1539.02 1425.1 1538.93 1424.98 1538.81 1424.9C1538.69 1424.83 1538.56 1424.78 1538.41 1424.78C1538.27 1424.78 1538.14 1424.83 1538.02 1424.9C1537.9 1424.98 1537.81 1425.1 1537.76 1425.23L1523.57 1459.14Z" fill="#F83E38"/>
<path d="M410.367 1437.56L402.525 1455.31C402.416 1455.55 402.247 1455.77 402.032 1455.93C401.817 1456.09 401.565 1456.2 401.298 1456.23C401.031 1456.27 400.759 1456.24 400.507 1456.14C400.255 1456.04 400.032 1455.88 399.859 1455.67C394.695 1449.37 385.892 1447.59 378.242 1448.72C377.543 1448.82 376.902 1449.17 376.431 1449.7C375.96 1450.23 375.689 1450.91 375.666 1451.63C375.564 1455.05 375.521 1461.15 375.538 1469.93C375.551 1479.17 375.628 1484.2 385.469 1485.03C397.655 1486.04 410.687 1482.38 418.581 1472.32C419.452 1471.21 420.089 1470.6 420.49 1470.48C422.605 1469.89 424.001 1471.93 423.681 1473.89C422.553 1480.6 419.777 1485.98 415.352 1490.04C413.301 1491.93 410.687 1492.37 407.779 1492.2C387.242 1491.08 366.854 1491.04 346.617 1492.09C346.374 1492.11 346.134 1492.06 345.913 1491.97C345.693 1491.87 345.5 1491.72 345.348 1491.54C344.707 1490.76 344.562 1489.67 344.912 1488.25C344.959 1488.06 345.054 1487.89 345.186 1487.75C345.319 1487.61 345.485 1487.5 345.668 1487.45C351.268 1485.74 355.881 1484.83 357.714 1479.98C359.085 1476.36 358.649 1472 358.662 1467.08C358.747 1446.43 358.739 1429.38 358.636 1415.94C358.598 1409.26 354.433 1406.43 348.385 1404.57C348.185 1404.51 348.001 1404.4 347.845 1404.26C347.69 1404.11 347.568 1403.94 347.488 1403.74C347.3 1403.28 347.244 1402.66 347.321 1401.87C347.367 1401.44 347.576 1401.04 347.906 1400.76C348.236 1400.48 348.66 1400.34 349.09 1400.37C361.178 1401.15 374.15 1401.33 388.006 1400.9C402.538 1400.46 411.132 1400.23 413.788 1400.23C414.327 1400.22 414.724 1400.27 414.98 1400.36C415.52 1400.54 415.975 1400.92 416.258 1401.41C416.542 1401.91 416.634 1402.49 416.518 1403.05C415.45 1408.12 414.322 1412.78 413.135 1417.05C412.973 1417.65 412.703 1418.11 412.328 1418.44C412.12 1418.62 411.87 1418.75 411.601 1418.81C411.331 1418.87 411.049 1418.86 410.78 1418.79C410.51 1418.71 410.261 1418.57 410.053 1418.38C409.845 1418.18 409.684 1417.94 409.585 1417.67C407.868 1413.02 405.395 1409.9 400.372 1408.86C392.538 1407.25 385.96 1407.1 380.638 1408.41C377.426 1409.19 375.76 1411.72 375.641 1415.98C375.47 1422.08 375.461 1429.49 375.615 1438.22C375.641 1439.55 375.931 1440.51 376.486 1441.08C378.306 1442.97 385.405 1442.11 392.491 1441.6C398.36 1441.2 403.716 1439.34 408.56 1436.02C408.782 1435.87 409.046 1435.8 409.313 1435.82C409.579 1435.83 409.834 1435.93 410.037 1436.11C410.241 1436.28 410.384 1436.52 410.443 1436.78C410.503 1437.04 410.476 1437.32 410.367 1437.56Z" fill="#F83E38"/>
<path d="M619.352 1437.57L611.521 1455.31C611.413 1455.56 611.243 1455.78 611.029 1455.94C610.814 1456.1 610.561 1456.21 610.294 1456.24C610.027 1456.28 609.755 1456.25 609.503 1456.15C609.252 1456.05 609.029 1455.88 608.856 1455.68C603.691 1449.37 594.886 1447.6 587.235 1448.73C586.534 1448.83 585.891 1449.17 585.42 1449.71C584.948 1450.24 584.679 1450.92 584.658 1451.64C584.556 1455.06 584.513 1461.16 584.53 1469.94C584.543 1479.18 584.62 1484.21 594.463 1485.04C606.651 1486.05 619.685 1482.39 627.58 1472.33C628.452 1471.22 629.088 1470.61 629.49 1470.49C631.604 1469.9 633.001 1471.94 632.681 1473.88C631.553 1480.6 628.776 1485.98 624.35 1490.04C622.3 1491.93 619.685 1492.37 616.776 1492.2C596.236 1491.08 575.849 1491.05 555.617 1492.11C555.375 1492.12 555.134 1492.08 554.914 1491.98C554.693 1491.88 554.5 1491.74 554.348 1491.55C553.707 1490.77 553.562 1489.68 553.912 1488.26C553.959 1488.07 554.054 1487.9 554.186 1487.76C554.319 1487.62 554.485 1487.52 554.668 1487.46C560.269 1485.75 564.87 1484.85 566.703 1479.99C568.074 1476.37 567.638 1472.01 567.651 1467.09C567.737 1446.44 567.728 1429.4 567.626 1415.96C567.587 1409.28 563.422 1406.44 557.373 1404.58C557.173 1404.52 556.988 1404.41 556.833 1404.27C556.678 1404.13 556.556 1403.95 556.476 1403.75C556.288 1403.29 556.232 1402.67 556.309 1401.89C556.354 1401.46 556.564 1401.06 556.894 1400.78C557.223 1400.5 557.648 1400.36 558.078 1400.39C570.159 1401.16 583.129 1401.34 596.988 1400.92C611.521 1400.46 620.117 1400.23 622.774 1400.23C623.312 1400.22 623.71 1400.27 623.966 1400.36C624.506 1400.54 624.96 1400.92 625.244 1401.41C625.528 1401.91 625.62 1402.49 625.504 1403.05C624.436 1408.12 623.308 1412.79 622.12 1417.06C621.958 1417.65 621.689 1418.11 621.313 1418.44C621.105 1418.62 620.855 1418.75 620.586 1418.81C620.316 1418.87 620.034 1418.87 619.765 1418.79C619.495 1418.72 619.246 1418.57 619.038 1418.38C618.83 1418.19 618.669 1417.95 618.57 1417.68C616.853 1413.02 614.379 1409.9 609.355 1408.86C601.52 1407.26 594.941 1407.11 589.618 1408.42C586.406 1409.21 584.744 1411.73 584.633 1415.99C584.462 1422.09 584.453 1429.51 584.607 1438.23C584.633 1439.56 584.923 1440.51 585.479 1441.09C587.299 1442.98 594.399 1442.11 601.486 1441.61C607.347 1441.2 612.7 1439.34 617.545 1436.03C617.767 1435.88 618.031 1435.81 618.297 1435.82C618.564 1435.84 618.818 1435.94 619.022 1436.11C619.226 1436.29 619.369 1436.52 619.428 1436.79C619.488 1437.05 619.461 1437.32 619.352 1437.57Z" fill="#F83E38"/>
<path d="M677.223 1450.62C677.188 1452.82 677.167 1458.56 677.158 1467.85C677.158 1474.51 677.326 1478.32 677.66 1479.28C679.333 1484.1 685.29 1486.76 690.643 1486.64C690.829 1486.64 691.014 1486.67 691.188 1486.74C691.361 1486.81 691.518 1486.91 691.651 1487.04C691.784 1487.17 691.89 1487.33 691.962 1487.5C692.034 1487.67 692.071 1487.86 692.071 1488.04V1489.5C692.071 1490.01 691.866 1490.5 691.502 1490.86C691.138 1491.22 690.643 1491.42 690.128 1491.42H651.09C650.639 1491.42 650.201 1491.27 649.849 1490.98C649.498 1490.7 649.255 1490.3 649.16 1489.85L648.813 1488.17C648.778 1488 648.779 1487.83 648.816 1487.66C648.853 1487.49 648.926 1487.33 649.029 1487.19C649.132 1487.04 649.263 1486.93 649.414 1486.84C649.565 1486.75 649.733 1486.7 649.906 1486.68C656.083 1486.04 660.033 1482.89 660.02 1476.15C660.003 1446.47 660.003 1426.88 660.02 1417.38C660.028 1413.72 659.235 1410.85 657.639 1408.77C657.366 1408.42 657.05 1408.11 656.7 1407.86C654.642 1406.37 652.42 1405.28 650.035 1404.58C649.56 1404.44 649.166 1404.1 648.937 1403.62C648.709 1403.15 648.664 1402.58 648.813 1402.04C649.173 1400.74 649.902 1400.14 651 1400.25C666.222 1401.82 682.563 1399.74 696.33 1400.34C711.037 1400.99 725.937 1408.56 724.714 1425.61C723.916 1436.98 715.682 1444.5 704.346 1446.45C704.178 1446.48 704.025 1446.56 703.911 1446.69C703.797 1446.81 703.729 1446.98 703.718 1447.14C703.708 1447.31 703.755 1447.48 703.853 1447.62C703.951 1447.76 704.093 1447.86 704.256 1447.91C708.305 1449.12 711.805 1451.55 714.755 1455.18C729.406 1473.22 736.753 1482.26 736.796 1482.32C739.464 1485.54 742.732 1487.66 746.601 1488.67C746.796 1488.72 746.978 1488.82 747.138 1488.94C747.297 1489.07 747.43 1489.22 747.529 1489.4C747.628 1489.58 747.692 1489.78 747.716 1489.99C747.74 1490.2 747.724 1490.41 747.669 1490.61C747.48 1491.28 746.905 1491.73 745.944 1491.97C738.43 1493.81 732.409 1493.91 725.769 1490.38C722.87 1488.85 719.323 1485.35 715.128 1479.89C708.755 1471.62 704.393 1465.94 702.043 1462.86C694.439 1452.85 690.012 1449.37 678.098 1449.73C677.866 1449.74 677.645 1449.83 677.482 1450C677.319 1450.16 677.226 1450.38 677.223 1450.62ZM678.046 1443.38C685.955 1443.91 693.079 1443.16 699.418 1441.15C699.879 1441 700.32 1440.8 700.73 1440.55C704.719 1437.99 706.761 1434.34 706.855 1429.59C707.147 1414.96 700.452 1407.52 686.77 1407.24C681.559 1407.14 677.982 1409.08 677.506 1414.5C677.309 1416.74 677.261 1426.13 677.364 1442.67C677.367 1442.85 677.439 1443.03 677.566 1443.16C677.692 1443.3 677.864 1443.37 678.046 1443.38Z" fill="#F83E38"/>
<path d="M506.721 1405.09C506.382 1405.02 506.076 1404.85 505.855 1404.58C505.633 1404.32 505.512 1403.98 505.511 1403.64V1401.81C505.511 1401.61 505.55 1401.41 505.627 1401.23C505.703 1401.04 505.815 1400.87 505.956 1400.73C506.097 1400.59 506.264 1400.48 506.449 1400.4C506.633 1400.32 506.83 1400.28 507.03 1400.28C515.044 1400.28 525.014 1400.29 536.941 1400.3C537.73 1400.3 538.133 1400.31 538.15 1400.31C538.622 1400.51 539.023 1400.84 539.304 1401.27C539.585 1401.7 539.732 1402.2 539.726 1402.71C539.721 1403.23 539.563 1403.73 539.273 1404.15C538.983 1404.57 538.574 1404.9 538.099 1405.09L532.5 1407.29C532.229 1407.4 531.988 1407.56 531.792 1407.76C529.665 1410.06 528.601 1412.23 528.601 1414.26C528.566 1447.94 528.545 1466.48 528.536 1469.89C528.502 1477.16 528.961 1484.38 529.913 1491.56C529.961 1491.93 529.862 1492.3 529.637 1492.6C529.413 1492.89 529.082 1493.08 528.716 1493.13C525.636 1493.56 522.946 1492.59 520.647 1490.21C497.626 1466.34 477.793 1446.01 461.147 1429.22C460.987 1429.06 460.783 1428.95 460.56 1428.9C460.338 1428.86 460.107 1428.88 459.898 1428.97C459.688 1429.05 459.509 1429.2 459.383 1429.39C459.257 1429.58 459.19 1429.8 459.191 1430.03C459.268 1442.13 459.272 1457.25 459.204 1475.38C459.186 1480.7 461.516 1484.16 466.192 1485.78C468.878 1486.71 470.766 1487.21 471.855 1487.29C472.161 1487.32 472.446 1487.46 472.654 1487.68C472.861 1487.91 472.976 1488.2 472.975 1488.51V1490.59C472.975 1490.8 472.934 1491 472.855 1491.19C472.776 1491.38 472.661 1491.56 472.515 1491.7C472.369 1491.85 472.196 1491.96 472.006 1492.04C471.815 1492.12 471.611 1492.16 471.405 1492.16H440.542C440.372 1492.16 440.201 1492.13 440.04 1492.06C438.89 1491.57 438.495 1490.42 438.856 1488.6C438.892 1488.4 438.971 1488.2 439.086 1488.03C439.202 1487.86 439.351 1487.72 439.525 1487.62C439.585 1487.57 441.159 1486.93 444.248 1485.69C447.895 1484.23 449.727 1481.45 449.744 1477.35C449.813 1450.88 449.825 1432.54 449.782 1422.32C449.757 1415.39 447.698 1409.29 443.605 1404C443.337 1403.65 443.17 1403.24 443.125 1402.81C443.079 1402.37 443.156 1401.93 443.346 1401.54C443.537 1401.15 443.834 1400.81 444.203 1400.58C444.571 1400.35 444.998 1400.23 445.432 1400.23H453.644C454.702 1400.23 455.749 1400.44 456.722 1400.86C457.695 1401.27 458.574 1401.88 459.307 1402.64L517.815 1463.1C517.926 1463.21 518.068 1463.29 518.222 1463.32C518.376 1463.35 518.536 1463.33 518.682 1463.27C518.827 1463.22 518.952 1463.11 519.041 1462.98C519.13 1462.85 519.178 1462.7 519.18 1462.54C519.257 1440.88 519.231 1425.28 519.102 1415.74C519.012 1408.21 512.989 1406.2 506.721 1405.09Z" fill="#F83E38"/>
<path d="M882.22 1400.23C893.475 1400.23 899.251 1400.24 899.546 1400.27C900.107 1400.31 900.633 1400.56 901.031 1400.96C901.429 1401.36 901.673 1401.9 901.719 1402.46C901.764 1403.03 901.609 1403.6 901.281 1404.06C900.952 1404.52 900.472 1404.85 899.926 1404.99C894.585 1406.31 891.092 1408.13 890.738 1414.54C890.653 1416.07 890.611 1426.47 890.611 1445.73C890.611 1465 890.649 1475.41 890.725 1476.94C891.079 1483.35 894.572 1485.17 899.913 1486.49C900.459 1486.62 900.939 1486.95 901.268 1487.41C901.597 1487.87 901.754 1488.44 901.71 1489C901.666 1489.57 901.424 1490.1 901.027 1490.51C900.631 1490.91 900.106 1491.16 899.546 1491.2C899.251 1491.22 893.475 1491.23 882.22 1491.23C870.965 1491.23 865.194 1491.22 864.907 1491.19C864.354 1491.14 863.837 1490.89 863.446 1490.49C863.056 1490.09 862.817 1489.56 862.772 1489C862.726 1488.44 862.877 1487.88 863.198 1487.42C863.52 1486.96 863.99 1486.63 864.527 1486.49C869.868 1485.17 873.361 1483.35 873.716 1476.94C873.8 1475.41 873.842 1465 873.842 1445.73C873.842 1426.47 873.8 1416.07 873.716 1414.54C873.361 1408.13 869.868 1406.31 864.527 1404.99C863.981 1404.85 863.501 1404.52 863.173 1404.06C862.844 1403.6 862.689 1403.03 862.734 1402.46C862.78 1401.9 863.024 1401.36 863.422 1400.96C863.82 1400.56 864.347 1400.31 864.907 1400.27C865.203 1400.24 870.974 1400.23 882.22 1400.23Z" fill="#F83E38"/>
<path d="M1108.26 1441.1C1108.48 1441.24 1108.75 1441.29 1109.01 1441.23C1109.27 1441.17 1109.5 1441.01 1109.64 1440.78C1117.83 1428.26 1122.99 1420.19 1125.14 1416.59C1126.4 1414.47 1126.71 1411.83 1126.07 1408.68C1125.98 1408.25 1125.77 1407.85 1125.47 1407.54C1124.15 1406.2 1122.55 1405.3 1120.67 1404.83C1119.44 1404.54 1118.73 1404.22 1118.55 1403.89C1118.18 1403.22 1118.15 1402.41 1118.43 1401.46C1118.54 1401.11 1118.76 1400.79 1119.06 1400.57C1119.35 1400.35 1119.72 1400.23 1120.09 1400.23H1146.7C1147.17 1400.23 1147.63 1400.4 1147.99 1400.7C1148.36 1401.01 1148.6 1401.43 1148.69 1401.9C1148.78 1402.37 1148.7 1402.86 1148.47 1403.28C1148.24 1403.7 1147.87 1404.02 1147.43 1404.19C1142.16 1406.25 1137.97 1409.7 1134.85 1414.53C1126.15 1428.03 1118.76 1439.66 1112.67 1449.41C1112.26 1450.07 1112.04 1450.82 1112.04 1451.6C1112 1456.93 1112.01 1464.94 1112.07 1475.62C1112.13 1483.31 1117.31 1485.91 1124.16 1486.46C1124.53 1486.49 1124.87 1486.66 1125.13 1486.93C1125.38 1487.2 1125.52 1487.56 1125.52 1487.93V1489.23C1125.52 1489.76 1125.31 1490.27 1124.94 1490.64C1124.57 1491.02 1124.07 1491.23 1123.55 1491.23H1083.77C1083.32 1491.23 1082.89 1491.07 1082.54 1490.77C1082.2 1490.48 1081.97 1490.07 1081.89 1489.61L1081.6 1487.84C1081.57 1487.68 1081.58 1487.51 1081.63 1487.35C1081.67 1487.19 1081.75 1487.05 1081.86 1486.92C1081.96 1486.8 1082.1 1486.7 1082.25 1486.63C1082.39 1486.56 1082.56 1486.53 1082.72 1486.54C1083.3 1486.55 1084.74 1486.31 1087.03 1485.82C1094.18 1484.31 1095.59 1479.62 1095.35 1472.53C1095.24 1469.16 1095.23 1462.64 1095.34 1452.95C1095.35 1451.51 1094.94 1450.09 1094.14 1448.89C1082.8 1431.78 1076.02 1421.54 1073.8 1418.18C1069.55 1411.77 1065.78 1406.5 1059.18 1404.35C1058.7 1404.2 1058.3 1403.88 1058.04 1403.45C1057.77 1403.02 1057.67 1402.52 1057.75 1402.02C1057.83 1401.52 1058.08 1401.07 1058.46 1400.74C1058.84 1400.41 1059.33 1400.23 1059.82 1400.23H1093.96C1094.43 1400.23 1094.89 1400.38 1095.26 1400.67C1095.64 1400.96 1095.9 1401.37 1096.02 1401.83C1096.14 1402.29 1096.1 1402.78 1095.91 1403.21C1095.72 1403.65 1095.39 1404.01 1094.98 1404.23C1094.22 1404.66 1093.35 1405.09 1092.37 1405.51C1086.93 1407.87 1090.49 1415.2 1092.63 1418.42C1101.05 1431.1 1105.86 1438.32 1107.08 1440.06C1107.33 1440.42 1107.72 1440.77 1108.26 1441.1Z" fill="#F83E38"/>
<path d="M1339.12 1445.72C1339.14 1426.46 1339.1 1416.06 1339.01 1414.53C1338.66 1408.12 1335.08 1406.29 1329.59 1404.97C1329.04 1404.82 1328.56 1404.49 1328.23 1404.03C1327.9 1403.57 1327.74 1403.01 1327.79 1402.45C1327.84 1401.89 1328.08 1401.36 1328.48 1400.96C1328.88 1400.56 1329.41 1400.31 1329.98 1400.26C1330.29 1400.23 1336.21 1400.23 1347.76 1400.23C1359.31 1400.24 1365.23 1400.26 1365.54 1400.29C1366.1 1400.34 1366.63 1400.59 1367.03 1400.99C1367.43 1401.39 1367.67 1401.92 1367.72 1402.48C1367.76 1403.04 1367.61 1403.6 1367.28 1404.06C1366.95 1404.52 1366.46 1404.85 1365.91 1404.99C1360.44 1406.31 1356.86 1408.13 1356.48 1414.55C1356.39 1416.08 1356.34 1426.47 1356.34 1445.74C1356.32 1465 1356.35 1475.4 1356.44 1476.93C1356.79 1483.34 1360.38 1485.17 1365.86 1486.49C1366.41 1486.64 1366.89 1486.97 1367.22 1487.43C1367.55 1487.89 1367.71 1488.45 1367.66 1489.01C1367.62 1489.57 1367.37 1490.1 1366.97 1490.5C1366.57 1490.9 1366.04 1491.15 1365.47 1491.2C1365.17 1491.23 1359.24 1491.24 1347.69 1491.23C1336.15 1491.22 1330.22 1491.2 1329.92 1491.18C1329.35 1491.12 1328.82 1490.87 1328.42 1490.47C1328.02 1490.07 1327.78 1489.54 1327.73 1488.98C1327.69 1488.42 1327.85 1487.86 1328.18 1487.4C1328.51 1486.94 1328.99 1486.61 1329.54 1486.47C1335.01 1485.15 1338.6 1483.33 1338.97 1476.91C1339.06 1475.38 1339.11 1464.99 1339.12 1445.72Z" fill="#F83E38"/>
<path d="M1450.7 1405C1450.36 1404.94 1450.05 1404.76 1449.83 1404.5C1449.61 1404.24 1449.49 1403.91 1449.48 1403.57V1401.76C1449.48 1401.56 1449.52 1401.36 1449.6 1401.18C1449.68 1400.99 1449.79 1400.83 1449.93 1400.69C1450.07 1400.55 1450.24 1400.43 1450.42 1400.36C1450.61 1400.28 1450.81 1400.24 1451.01 1400.24C1459.02 1400.23 1469 1400.23 1480.94 1400.23C1481.73 1400.24 1482.13 1400.24 1482.15 1400.24C1482.62 1400.44 1483.02 1400.77 1483.3 1401.2C1483.58 1401.62 1483.73 1402.12 1483.73 1402.63C1483.72 1403.14 1483.56 1403.63 1483.27 1404.05C1482.98 1404.47 1482.57 1404.79 1482.1 1404.98L1476.5 1407.16C1476.23 1407.27 1475.99 1407.43 1475.79 1407.63C1473.66 1409.91 1472.6 1412.05 1472.6 1414.07C1472.6 1447.4 1472.59 1465.75 1472.58 1469.13C1472.56 1476.32 1473.02 1483.47 1473.98 1490.58C1474.02 1490.94 1473.92 1491.31 1473.7 1491.6C1473.47 1491.89 1473.14 1492.08 1472.78 1492.13C1469.7 1492.56 1467.01 1491.6 1464.71 1489.24C1441.65 1465.64 1421.79 1445.54 1405.12 1428.92C1404.96 1428.76 1404.75 1428.65 1404.53 1428.61C1404.31 1428.56 1404.08 1428.59 1403.87 1428.67C1403.66 1428.76 1403.48 1428.91 1403.35 1429.1C1403.22 1429.28 1403.16 1429.5 1403.16 1429.73C1403.24 1441.71 1403.26 1456.67 1403.21 1474.62C1403.19 1479.88 1405.53 1483.31 1410.21 1484.91C1412.9 1485.83 1414.79 1486.33 1415.88 1486.4C1416.19 1486.42 1416.47 1486.56 1416.68 1486.78C1416.89 1487.01 1417 1487.3 1417 1487.6V1489.67C1417 1490.08 1416.84 1490.47 1416.54 1490.76C1416.25 1491.05 1415.85 1491.22 1415.43 1491.22L1384.54 1491.24C1384.37 1491.24 1384.2 1491.21 1384.04 1491.14C1382.89 1490.66 1382.49 1489.52 1382.86 1487.72C1382.89 1487.51 1382.97 1487.32 1383.09 1487.16C1383.2 1486.99 1383.35 1486.85 1383.53 1486.74C1383.59 1486.7 1385.16 1486.06 1388.26 1484.83C1391.9 1483.39 1393.73 1480.63 1393.75 1476.57C1393.79 1450.37 1393.79 1432.21 1393.73 1422.1C1393.71 1415.25 1391.64 1409.21 1387.53 1403.98C1387.27 1403.63 1387.1 1403.23 1387.05 1402.79C1387.01 1402.36 1387.09 1401.93 1387.28 1401.54C1387.47 1401.15 1387.76 1400.82 1388.13 1400.59C1388.5 1400.36 1388.93 1400.24 1389.37 1400.24L1397.59 1400.23C1398.65 1400.23 1399.69 1400.44 1400.66 1400.85C1401.64 1401.26 1402.52 1401.86 1403.25 1402.62L1461.85 1462.41C1461.96 1462.52 1462.1 1462.6 1462.25 1462.63C1462.41 1462.66 1462.57 1462.65 1462.71 1462.59C1462.86 1462.53 1462.98 1462.43 1463.07 1462.3C1463.16 1462.17 1463.21 1462.02 1463.21 1461.86C1463.27 1440.41 1463.23 1424.97 1463.1 1415.53C1463.01 1408.08 1456.97 1406.09 1450.7 1405Z" fill="#F83E38"/>
</svg>
