<svg width="2819" height="1438" viewBox="0 0 2819 1438" fill="none" xmlns="http://www.w3.org/2000/svg">
<path d="M1713.51 1071.97H1125.72C1122.99 1071.97 1120.77 1074.18 1120.77 1076.92V1098.03C1120.77 1100.77 1122.99 1102.98 1125.72 1102.98H1713.51C1716.25 1102.98 1718.46 1100.77 1718.46 1098.03V1076.92C1718.46 1074.18 1716.25 1071.97 1713.51 1071.97Z" fill="#ED232D"/>
<path d="M1294.66 1320.15C1302.62 1320.72 1299.7 1328.32 1295.81 1330.9C1282.25 1339.92 1271.27 1348 1255.05 1346.54C1231.75 1344.47 1206.87 1332.85 1196.91 1310.14C1191.77 1298.45 1190.03 1286.8 1191.71 1275.2C1195.62 1247.92 1208.57 1227.49 1235.7 1219.47C1253.01 1214.38 1270.24 1214.51 1287.4 1219.87C1302.13 1224.48 1299.13 1237.87 1289.19 1245.25C1288.41 1245.82 1287.49 1246.15 1286.52 1246.19C1285.56 1246.24 1284.6 1246 1283.77 1245.51C1280.09 1243.29 1276.33 1241.21 1272.48 1239.26C1259.38 1232.63 1242.48 1231.2 1229.49 1239.04C1220.81 1244.3 1216.19 1258.28 1215.53 1267.93C1214.25 1286.66 1220.52 1302.02 1234.33 1314.01C1242.25 1320.87 1252.81 1324.64 1265.99 1325.32C1268.23 1325.43 1273.55 1324.75 1281.96 1323.26C1286.34 1322.49 1290.31 1319.84 1294.66 1320.15Z" fill="#ED232D"/>
<path d="M1897 1343.65C1896.53 1343.37 1896.14 1342.99 1895.84 1342.53C1895.55 1342.07 1895.36 1341.55 1895.3 1341.01C1895.23 1340.46 1895.29 1339.91 1895.46 1339.38C1895.64 1338.86 1895.93 1338.38 1896.31 1337.97C1897.68 1336.54 1899.98 1334.35 1903.2 1331.39C1903.77 1330.87 1904.2 1330.22 1904.47 1329.51C1904.75 1328.79 1904.85 1328.02 1904.77 1327.26C1904.36 1323.43 1902.89 1319.24 1900.35 1314.69C1899.96 1313.98 1899.38 1313.39 1898.68 1312.98C1897.99 1312.57 1897.19 1312.35 1896.38 1312.35H1856.06C1855.19 1312.35 1854.33 1312.6 1853.59 1313.07C1852.85 1313.54 1852.26 1314.21 1851.88 1315C1850.03 1318.87 1848.79 1323.61 1848.17 1329.2C1848.13 1329.56 1848.19 1329.93 1848.36 1330.25C1848.52 1330.58 1848.78 1330.85 1849.1 1331.04C1854.61 1334.19 1857.47 1335.87 1857.67 1336.1C1859.1 1337.52 1859.81 1338.42 1859.81 1338.79C1859.82 1339.42 1859.7 1340.05 1859.45 1340.64C1859.21 1341.22 1858.84 1341.75 1858.37 1342.2C1857.9 1342.64 1857.35 1342.99 1856.74 1343.23C1856.13 1343.46 1855.48 1343.58 1854.82 1343.56C1844.35 1343.33 1835.13 1343.52 1827.16 1344.16C1826.58 1344.2 1825.99 1344.13 1825.42 1343.96L1819.12 1341.97C1818.66 1341.83 1818.24 1341.56 1817.93 1341.2C1817.61 1340.83 1817.4 1340.39 1817.32 1339.91C1817.25 1339.43 1817.3 1338.94 1817.49 1338.48C1817.67 1338.03 1817.98 1337.64 1818.37 1337.35C1823.34 1333.71 1828.38 1331.32 1833.21 1323.22C1835.22 1319.88 1838.1 1313.37 1841.88 1303.71C1853.12 1275 1866.2 1251.12 1874.42 1223.67C1875.68 1219.43 1878.4 1216.84 1882.57 1215.89C1883.54 1215.67 1884.55 1215.77 1885.47 1216.16C1886.38 1216.55 1887.14 1217.23 1887.65 1218.08C1889.95 1221.97 1891.69 1225.29 1892.89 1228.04C1901.66 1248.16 1908.15 1262.45 1916.02 1282.22C1922.04 1297.35 1927.63 1310.03 1932.79 1320.28C1936.48 1327.66 1941.34 1333.06 1947.37 1336.49C1948.01 1336.86 1948.53 1337.4 1948.86 1338.06C1949.2 1338.71 1949.34 1339.45 1949.27 1340.18C1949.19 1340.91 1948.9 1341.61 1948.44 1342.18C1947.98 1342.75 1947.36 1343.18 1946.66 1343.41C1945.79 1343.7 1944.4 1343.86 1942.48 1343.89C1919.52 1344.28 1905.22 1344.44 1899.58 1344.38C1898.64 1344.36 1897.78 1344.12 1897 1343.65ZM1859.75 1298.88C1859.7 1298.99 1859.69 1299.11 1859.7 1299.23C1859.72 1299.34 1859.76 1299.46 1859.83 1299.56C1859.89 1299.65 1859.99 1299.73 1860.09 1299.79C1860.2 1299.84 1860.31 1299.87 1860.43 1299.87L1893.37 1299.83C1893.49 1299.83 1893.61 1299.8 1893.72 1299.74C1893.82 1299.68 1893.91 1299.6 1893.98 1299.5C1894.04 1299.4 1894.08 1299.28 1894.09 1299.16C1894.1 1299.04 1894.08 1298.92 1894.04 1298.81L1877.49 1257.93C1877.43 1257.79 1877.34 1257.68 1877.22 1257.6C1877.1 1257.52 1876.96 1257.48 1876.81 1257.48C1876.67 1257.48 1876.53 1257.52 1876.41 1257.6C1876.29 1257.68 1876.2 1257.79 1876.14 1257.93L1859.75 1298.88Z" fill="#ED232D"/>
<path d="M1181.74 1337C1182.05 1337.49 1182.25 1338.03 1182.33 1338.6C1182.42 1339.16 1182.38 1339.73 1182.23 1340.27C1182.08 1340.82 1181.82 1341.32 1181.46 1341.74C1181.1 1342.16 1180.66 1342.5 1180.15 1342.72C1177.34 1343.99 1174.2 1344.56 1170.74 1344.45C1154.42 1343.89 1141.48 1343.75 1131.93 1344.05C1131.46 1344.06 1131.01 1343.91 1130.65 1343.63C1130.29 1343.35 1130.04 1342.95 1129.94 1342.5C1128.72 1336.96 1132.57 1334.33 1137.03 1331.9C1138.01 1331.36 1138.76 1330.48 1139.11 1329.42C1139.47 1328.36 1139.41 1327.2 1138.95 1326.18L1133.54 1314.23C1133.26 1313.62 1132.82 1313.1 1132.25 1312.73C1131.69 1312.37 1131.03 1312.18 1130.36 1312.18H1089C1088.17 1312.18 1087.37 1312.45 1086.72 1312.96C1086.07 1313.47 1085.6 1314.18 1085.4 1314.98L1082.22 1327.81C1082 1328.69 1082.06 1329.62 1082.4 1330.46C1082.74 1331.3 1083.33 1332.01 1084.1 1332.5C1085.27 1333.22 1087.32 1334.29 1090.24 1335.7C1090.85 1336 1091.38 1336.42 1091.81 1336.95C1092.24 1337.48 1092.55 1338.09 1092.72 1338.75C1092.89 1339.41 1092.91 1340.11 1092.79 1340.78C1092.67 1341.46 1092.41 1342.11 1092.03 1342.68C1091.33 1343.74 1089.91 1344.14 1087.74 1343.87C1080.45 1343 1069.66 1342.94 1055.38 1343.67C1054.65 1343.72 1053.93 1343.56 1053.19 1343.19C1052.7 1342.93 1052.29 1342.56 1051.99 1342.09C1051.7 1341.62 1051.53 1341.09 1051.5 1340.53C1051.48 1339.97 1051.6 1339.41 1051.85 1338.9C1052.1 1338.39 1052.48 1337.95 1052.95 1337.62C1062.78 1330.73 1067.57 1323.55 1072.48 1311.51C1078.1 1297.66 1088.34 1273.44 1103.18 1238.87C1106.96 1230.07 1105.64 1217.68 1118.67 1216.69C1119.36 1216.64 1120.06 1216.79 1120.66 1217.14C1121.26 1217.48 1121.74 1217.99 1122.05 1218.61C1141.25 1257.51 1155.21 1299.63 1171.6 1328.57C1172.93 1330.91 1175.57 1333.04 1179.51 1334.97C1180.46 1335.44 1181.2 1336.12 1181.74 1337ZM1093.99 1296.91C1093.86 1297.25 1093.82 1297.61 1093.86 1297.96C1093.9 1298.32 1094.03 1298.66 1094.23 1298.95C1094.43 1299.25 1094.7 1299.49 1095.02 1299.66C1095.34 1299.83 1095.69 1299.92 1096.05 1299.92L1124.37 1299.87C1124.73 1299.87 1125.08 1299.78 1125.4 1299.62C1125.71 1299.45 1125.99 1299.21 1126.19 1298.91C1126.39 1298.62 1126.52 1298.27 1126.56 1297.92C1126.6 1297.56 1126.55 1297.2 1126.43 1296.87L1112.2 1260.73C1112.03 1260.32 1111.75 1259.97 1111.39 1259.72C1111.02 1259.47 1110.59 1259.34 1110.14 1259.34C1109.7 1259.34 1109.27 1259.47 1108.9 1259.72C1108.53 1259.97 1108.25 1260.32 1108.09 1260.73L1093.99 1296.91Z" fill="#ED232D"/>
<path d="M1499.74 1314.67C1501.23 1315.83 1501.43 1318.07 1500.34 1321.39C1497.44 1330.27 1495.97 1334.76 1495.92 1334.88C1495.66 1335.55 1495.28 1336.17 1494.8 1336.69C1489.68 1342.3 1483.53 1344.85 1476.33 1344.34C1453.72 1342.73 1430.62 1342.57 1407.02 1343.85C1402.65 1344.09 1396.79 1343.72 1392.46 1342.61C1391.87 1342.46 1391.33 1342.14 1390.93 1341.68C1390.52 1341.22 1390.26 1340.65 1390.19 1340.04C1390.11 1339.43 1390.22 1338.81 1390.5 1338.27C1390.78 1337.72 1391.22 1337.27 1391.76 1336.98L1406.01 1329.27C1406.98 1328.74 1407.8 1327.96 1408.37 1327C1408.93 1326.05 1409.23 1324.95 1409.23 1323.84V1237.19C1409.23 1236.07 1408.94 1234.97 1408.38 1234C1407.82 1233.03 1407.02 1232.23 1406.05 1231.66L1395.38 1225.5C1395.06 1225.33 1394.8 1225.06 1394.63 1224.73C1394.2 1223.93 1393.97 1223.43 1393.94 1223.23C1393.86 1222.71 1393.88 1222.19 1394.03 1221.68C1394.17 1221.18 1394.43 1220.72 1394.78 1220.32C1395.13 1219.93 1395.57 1219.61 1396.06 1219.4C1396.55 1219.19 1397.08 1219.08 1397.61 1219.1C1417.07 1219.42 1430.58 1219.38 1438.15 1218.99C1453.02 1218.24 1471.33 1220.02 1486.86 1217.9C1487.59 1217.81 1488.32 1217.89 1489 1218.14C1489.69 1218.39 1490.3 1218.81 1490.78 1219.35C1491.27 1219.9 1491.62 1220.55 1491.79 1221.26C1491.97 1221.97 1491.97 1222.72 1491.79 1223.43L1487.06 1242.49C1487.01 1242.72 1486.89 1242.94 1486.73 1243.13C1484.29 1246.1 1480.74 1243.57 1476.08 1235.53C1475.66 1234.8 1475.06 1234.18 1474.34 1233.73C1473.62 1233.28 1472.8 1233.01 1471.95 1232.95L1443.41 1230.91C1442.26 1230.83 1441.13 1231.17 1440.23 1231.89C1439.33 1232.6 1438.73 1233.62 1438.55 1234.76C1436.96 1244.92 1436.53 1256.77 1437.27 1270.32C1437.3 1271.07 1437.6 1271.78 1438.1 1272.34C1438.6 1272.9 1439.28 1273.27 1440.03 1273.39C1453.45 1275.44 1466.56 1273.26 1479.38 1266.85C1479.75 1266.66 1480.17 1266.55 1480.58 1266.53C1481 1266.5 1481.42 1266.56 1481.8 1266.71C1482.19 1266.85 1482.53 1267.08 1482.81 1267.37C1483.09 1267.65 1483.3 1268 1483.42 1268.37C1483.83 1269.64 1483.66 1271.14 1482.91 1272.86C1478.36 1283.17 1475.7 1289.25 1474.93 1291.1C1473.37 1294.86 1469.99 1297.29 1466.58 1294.09C1463.89 1291.55 1461.13 1289.42 1458.3 1287.68C1457.91 1287.43 1457.48 1287.27 1457.04 1287.22L1440.74 1284.99C1440.26 1284.92 1439.78 1285.03 1439.38 1285.3C1438.98 1285.57 1438.7 1285.98 1438.59 1286.44C1436.07 1297.44 1435.32 1317.63 1440.51 1327.79C1440.84 1328.42 1441.3 1328.97 1441.87 1329.39C1442.45 1329.81 1443.11 1330.08 1443.81 1330.2C1454.92 1332.01 1473.79 1331.35 1482.78 1323.46C1487.2 1319.6 1490.69 1316.8 1493.25 1315.05C1494.34 1314.31 1495.55 1313.88 1496.72 1313.81C1497.89 1313.74 1498.95 1314.05 1499.74 1314.67Z" fill="#ED232D"/>
<path d="M1674.21 1222.08C1675.8 1219.53 1678.37 1218.34 1681.92 1218.5C1696.05 1219.12 1711.86 1218.9 1729.36 1217.86C1732.37 1217.67 1738.99 1218.13 1749.22 1219.25C1772.55 1221.77 1790.55 1231.77 1799.61 1253.99C1814.46 1290.42 1795.92 1333.42 1755.69 1341.86C1744.98 1344.1 1736.02 1344.87 1728.8 1344.18C1709.33 1342.3 1692.03 1342.16 1676.91 1343.76C1676.31 1343.82 1675.71 1343.75 1675.15 1343.56C1674.58 1343.37 1674.07 1343.05 1673.64 1342.64C1673.21 1342.22 1672.88 1341.72 1672.66 1341.16C1672.45 1340.6 1672.36 1340 1672.4 1339.41L1672.53 1337.75C1672.63 1336.4 1673.17 1335.11 1674.08 1334.1C1674.99 1333.1 1676.21 1332.42 1677.55 1332.19L1684.99 1330.91C1685.44 1330.83 1685.85 1330.62 1686.18 1330.31C1686.51 1330 1686.74 1329.6 1686.85 1329.16C1688.51 1322.53 1689.35 1319 1689.35 1318.56C1689.51 1304.39 1689.65 1279.22 1689.79 1243.04C1689.81 1231.31 1683.14 1230.1 1674.88 1224.93C1674.64 1224.78 1674.44 1224.6 1674.28 1224.38C1674.12 1224.16 1674.01 1223.91 1673.95 1223.64C1673.89 1223.38 1673.88 1223.1 1673.92 1222.83C1673.97 1222.56 1674.07 1222.31 1674.21 1222.08ZM1721.6 1232.26C1720.6 1232.46 1719.69 1232.96 1718.99 1233.7C1718.29 1234.43 1717.82 1235.36 1717.67 1236.37C1717.11 1239.92 1716.82 1243.06 1716.81 1245.8C1716.75 1252.9 1716.87 1276.26 1717.16 1315.89C1717.22 1322.86 1720.39 1327.42 1726.68 1329.54C1744.49 1335.57 1769.7 1331.85 1774.6 1309.28C1780.3 1283.08 1775.9 1249.25 1750.17 1235.35C1740.45 1230.12 1732.23 1230.16 1721.6 1232.26Z" fill="#ED232D"/>
<path d="M910.257 1231.18C908.77 1229.57 905.876 1228.56 901.575 1228.15C901.051 1228.1 900.547 1227.92 900.107 1227.63C899.667 1227.34 899.305 1226.95 899.052 1226.49C898.799 1226.03 898.664 1225.51 898.657 1224.98C898.65 1224.46 898.772 1223.94 899.012 1223.47L899.1 1223.27C899.698 1222.03 900.629 1220.98 901.788 1220.24C902.948 1219.51 904.29 1219.11 905.662 1219.1L952.586 1218.59C953.119 1218.58 953.633 1218.78 954.024 1219.13C954.415 1219.49 954.651 1219.98 954.685 1220.51C955.127 1226.05 949.184 1229.28 944.766 1231.57C943.706 1232.13 942.819 1232.96 942.199 1233.99C941.58 1235.01 941.253 1236.19 941.253 1237.38V1271.47C941.253 1272.26 941.567 1273.03 942.126 1273.59C942.686 1274.15 943.444 1274.47 944.235 1274.47H988.155C989.101 1274.47 990.008 1274.1 990.678 1273.43C991.349 1272.76 991.728 1271.86 991.734 1270.91C991.801 1260.47 993.237 1245.8 990.939 1233.92C990.829 1233.35 990.591 1232.82 990.243 1232.36C989.895 1231.89 989.445 1231.51 988.929 1231.24C984.51 1228.98 982.139 1227.74 981.815 1227.53C980.753 1226.89 979.958 1225.88 979.577 1224.7C979.196 1223.52 979.253 1222.23 979.738 1221.08C980.312 1219.74 981.395 1219.07 982.986 1219.05C998.907 1219.04 1014.97 1218.88 1031.17 1218.59C1032.2 1218.57 1032.92 1218.7 1033.33 1218.98C1034.02 1219.45 1034.51 1220.19 1034.71 1221.08C1034.91 1221.97 1034.82 1222.95 1034.44 1223.87C1031.04 1232.1 1020.87 1227.55 1020.81 1240.32C1020.56 1290.28 1020.54 1317.13 1020.74 1320.85C1021.38 1331.96 1026.77 1331.68 1034.28 1337.11C1034.67 1337.39 1034.97 1337.76 1035.17 1338.19C1035.38 1338.62 1035.47 1339.09 1035.44 1339.56C1035.41 1340.04 1035.26 1340.5 1035.01 1340.9C1034.76 1341.3 1034.41 1341.63 1034 1341.86C1031.79 1343.08 1029.36 1343.77 1026.71 1343.91C1013.02 1344.65 998.863 1344.67 984.223 1343.98C979.009 1343.74 977.308 1339.76 980.865 1335.65C982.338 1333.93 984.893 1332.42 988.531 1331.13C989.52 1330.77 990.376 1330.12 990.981 1329.26C991.586 1328.39 991.911 1327.37 991.911 1326.31V1292.67C991.911 1291.83 991.578 1291.03 990.986 1290.44C990.393 1289.84 989.59 1289.51 988.752 1289.51H943.285C942.807 1289.51 942.347 1289.7 942.004 1290.03C941.662 1290.36 941.463 1290.81 941.452 1291.28C941.098 1302.6 940.87 1312.11 940.767 1319.79C940.634 1330.42 946.29 1330.93 953.338 1336.1C953.89 1336.5 954.342 1337.03 954.658 1337.64C954.974 1338.24 955.147 1338.92 955.161 1339.61C955.176 1340.29 955.034 1340.97 954.744 1341.6C954.455 1342.22 954.027 1342.77 953.492 1343.21C952.55 1343.97 951.025 1344.35 948.919 1344.33C936.208 1344.25 923.793 1344.26 911.671 1344.38C908.048 1344.4 904.977 1343.67 901.575 1342.74C899.999 1342.3 899.115 1341.71 898.924 1340.98C898.657 1339.92 898.787 1338.79 899.293 1337.77C899.8 1336.76 900.652 1335.91 901.707 1335.39C903.21 1334.65 905.205 1333.84 907.694 1332.96C908.416 1332.7 909.046 1332.23 909.506 1331.61C911.524 1328.89 912.555 1325.68 912.599 1321.98C912.864 1300.06 913.019 1275.77 913.063 1249.11C913.078 1243.55 912.496 1238.24 911.318 1233.19C911.144 1232.43 910.778 1231.74 910.257 1231.18Z" fill="#ED232D"/>
<path d="M1376.08 1222.34C1376.44 1222.62 1376.72 1222.99 1376.9 1223.41C1377.08 1223.83 1377.14 1224.28 1377.09 1224.74C1377.04 1225.19 1376.87 1225.62 1376.61 1225.99C1376.34 1226.36 1375.98 1226.66 1375.57 1226.85C1366.11 1231.24 1362.27 1231 1361.83 1243.06C1361.35 1255.61 1361.39 1281.37 1361.94 1320.35C1362 1324.07 1362.98 1327.36 1364.9 1330.2C1365.28 1330.77 1365.76 1331.25 1366.33 1331.63C1369.38 1333.62 1378.46 1336.65 1375.26 1341.77C1374.87 1342.4 1374.27 1342.88 1373.56 1343.14C1372.07 1343.67 1367.58 1344.06 1360.08 1344.31C1347.58 1344.74 1335.49 1344.54 1323.83 1343.71C1322.87 1343.64 1321.98 1343.22 1321.32 1342.52C1320.67 1341.82 1320.31 1340.91 1320.31 1339.96C1320.31 1334.68 1325.02 1333.84 1330.68 1331.46C1331.04 1331.3 1331.36 1331.06 1331.63 1330.77C1331.9 1330.49 1332.11 1330.15 1332.24 1329.78C1333.36 1326.49 1333.94 1323.16 1333.97 1319.77C1334.09 1308.04 1334.14 1282.65 1334.14 1243.61C1334.14 1240.53 1333.79 1237.37 1333.08 1234.11C1332.9 1233.29 1332.51 1232.54 1331.94 1231.92C1331.38 1231.3 1330.66 1230.83 1329.86 1230.58C1327 1229.68 1324.57 1228.51 1322.57 1227.07C1321.49 1226.29 1320.71 1225.16 1320.39 1223.9C1320.07 1222.64 1320.22 1221.33 1320.82 1220.22C1321.31 1219.31 1322.54 1218.84 1324.51 1218.83C1345.22 1218.78 1359.18 1218.91 1366.4 1219.2C1370.32 1219.35 1373.54 1220.4 1376.08 1222.34Z" fill="#ED232D"/>
<path d="M1518.51 1341.46C1518 1338.61 1518.95 1336.44 1521.33 1334.97C1525.5 1332.38 1528.53 1330.51 1530.41 1329.38C1530.78 1329.16 1531.09 1328.86 1531.32 1328.51C1531.56 1328.16 1531.71 1327.76 1531.76 1327.35C1532.45 1322.44 1532.79 1318.82 1532.78 1316.48C1532.53 1278.68 1532.29 1257.71 1532.07 1253.57C1531.6 1244.44 1530.52 1238.36 1528.82 1235.31C1526.1 1230.4 1524.39 1226.83 1523.7 1224.57C1522.65 1221.16 1523.88 1219.29 1527.39 1218.98C1533.42 1218.45 1545.24 1218.3 1549.85 1223.07C1565.75 1239.42 1581.4 1255.06 1596.82 1270.01C1606.22 1279.09 1614.91 1288.47 1622.89 1298.13C1623 1298.26 1623.14 1298.37 1623.3 1298.45C1623.46 1298.53 1623.63 1298.58 1623.81 1298.59C1623.98 1298.6 1624.16 1298.58 1624.33 1298.51C1624.49 1298.45 1624.64 1298.36 1624.77 1298.24C1625.23 1297.81 1625.45 1297.07 1625.45 1296.03C1625.45 1276.66 1625.67 1261.52 1626.1 1250.59C1626.24 1246.84 1626.13 1243.44 1625.76 1240.39C1624.5 1230.29 1617.28 1230.85 1609.95 1227.2C1609.42 1226.94 1608.96 1226.58 1608.57 1226.15C1608.19 1225.72 1607.89 1225.22 1607.71 1224.69C1607.52 1224.15 1607.45 1223.59 1607.49 1223.04C1607.53 1222.49 1607.69 1221.96 1607.96 1221.48C1608.89 1219.8 1610.49 1218.98 1612.77 1219.03C1624.22 1219.26 1637.27 1219.36 1651.94 1219.32C1653.89 1219.3 1655.08 1219.58 1655.52 1220.15C1655.88 1220.62 1656.14 1221.17 1656.26 1221.75C1656.39 1222.34 1656.39 1222.95 1656.27 1223.55C1656.14 1224.15 1655.89 1224.73 1655.53 1225.26C1655.17 1225.78 1654.71 1226.23 1654.18 1226.58C1649.8 1229.5 1646.95 1231.32 1645.63 1232.06C1645 1232.42 1644.47 1232.93 1644.08 1233.54C1642.86 1235.54 1642.23 1237.79 1642.2 1240.28C1642.05 1263.27 1642.93 1286.24 1642.51 1309.21C1642.41 1315.41 1642.55 1320.99 1642.95 1325.96C1643.57 1333.6 1643.59 1339.28 1643.02 1342.99C1642.94 1343.51 1642.75 1344.02 1642.47 1344.47C1642.18 1344.92 1641.81 1345.31 1641.37 1345.62C1640.93 1345.92 1640.43 1346.13 1639.9 1346.24C1639.38 1346.34 1638.84 1346.34 1638.31 1346.23C1635.41 1345.63 1632.66 1344.11 1630.07 1341.68C1606.3 1319.33 1580.29 1293.63 1552.04 1264.57C1551.67 1264.19 1551.1 1263.78 1550.32 1263.34C1550.08 1263.2 1549.81 1263.13 1549.53 1263.13C1549.26 1263.13 1548.99 1263.2 1548.75 1263.34C1548.51 1263.48 1548.31 1263.67 1548.18 1263.91C1548.04 1264.14 1547.97 1264.41 1547.98 1264.68L1548.62 1324.54C1548.62 1325.56 1548.9 1326.57 1549.42 1327.45C1549.94 1328.34 1550.68 1329.07 1551.58 1329.58C1554.34 1331.15 1568.52 1334.39 1566.07 1340.76C1565.26 1342.88 1563.76 1343.91 1561.56 1343.85C1549.96 1343.54 1536.3 1343.34 1520.6 1343.25C1520.1 1343.24 1519.62 1343.06 1519.24 1342.74C1518.86 1342.41 1518.6 1341.96 1518.51 1341.46Z" fill="#ED232D"/>
<path d="M1420.11 55C1420.27 55 1420.44 55.0095 1420.6 55.0286C1420.77 55.0528 1420.92 55.1357 1421.03 55.2619C1421.14 55.3882 1421.2 55.5492 1421.2 55.7153V76.1866C1421.2 76.4598 1421.31 76.7217 1421.5 76.9149C1421.69 77.1081 1421.96 77.2166 1422.23 77.2166H1429.04C1429.29 77.2166 1429.52 77.1186 1429.7 76.9442C1429.87 76.7699 1429.97 76.5333 1429.97 76.2867V73.583C1429.97 73.3022 1430.08 73.0329 1430.28 72.8344C1430.48 72.6359 1430.75 72.5244 1431.03 72.5244H1431.8C1432.07 72.5244 1432.33 72.6329 1432.53 72.826C1432.72 73.0192 1432.83 73.2812 1432.83 73.5544V77.8174C1432.83 78.0375 1432.74 78.2485 1432.59 78.4041C1432.43 78.5597 1432.22 78.6471 1432 78.6471H1421.77C1421.67 78.6471 1421.57 78.6668 1421.48 78.7049C1421.39 78.743 1421.31 78.7988 1421.24 78.8692C1421.17 78.9396 1421.11 79.0232 1421.07 79.1152C1421.03 79.2072 1421.01 79.3058 1421.01 79.4053V84.7556C1421.01 84.9836 1421.1 85.203 1421.25 85.3681C1421.41 85.5333 1421.62 85.6316 1421.84 85.6426C1445.56 87.1161 1463.06 106.371 1463.27 129.976C1463.27 130.193 1463.19 130.402 1463.03 130.557C1462.88 130.713 1462.67 130.802 1462.46 130.805C1460.1 130.843 1445.99 130.863 1420.11 130.863C1394.25 130.872 1380.14 130.853 1377.78 130.805C1377.57 130.802 1377.36 130.715 1377.21 130.562C1377.06 130.41 1376.97 130.205 1376.97 129.99C1377.17 106.386 1394.66 87.1161 1418.38 85.6426C1418.61 85.6316 1418.82 85.5333 1418.97 85.3681C1419.13 85.203 1419.21 84.9836 1419.21 84.7556V79.4053C1419.21 79.3058 1419.19 79.2072 1419.15 79.1152C1419.12 79.0232 1419.06 78.9396 1418.99 78.8692C1418.92 78.7988 1418.84 78.743 1418.74 78.7049C1418.65 78.6668 1418.55 78.6471 1418.45 78.6471H1408.23C1408.01 78.6471 1407.79 78.5597 1407.64 78.4041C1407.48 78.2485 1407.4 78.0375 1407.4 77.8174V73.5544C1407.4 73.2812 1407.5 73.0192 1407.7 72.826C1407.89 72.6329 1408.15 72.5244 1408.43 72.5244H1409.2C1409.48 72.5244 1409.75 72.6359 1409.95 72.8344C1410.14 73.0329 1410.26 73.3022 1410.26 73.583V76.2867C1410.26 76.5333 1410.35 76.7699 1410.53 76.9442C1410.7 77.1186 1410.94 77.2166 1411.19 77.2166H1418C1418.27 77.2166 1418.53 77.1081 1418.72 76.9149C1418.92 76.7217 1419.03 76.4598 1419.03 76.1866V55.7153C1419.02 55.5492 1419.08 55.3882 1419.19 55.2619C1419.31 55.1357 1419.46 55.0528 1419.63 55.0286C1419.78 55.0095 1419.94 55 1420.11 55Z" fill="#1F3C73"/>
<path d="M1474.45 135.871H1365.47C1363.75 135.871 1362.35 137.267 1362.35 138.99V141.336C1362.35 143.058 1363.75 144.454 1365.47 144.454H1474.45C1476.17 144.454 1477.56 143.058 1477.56 141.336V138.99C1477.56 137.267 1476.17 135.871 1474.45 135.871Z" fill="#1F3C73"/>
<path d="M1397.33 148.703H1386.11C1384.26 148.703 1382.77 150.202 1382.77 152.051V210.103C1382.77 211.952 1384.26 213.45 1386.11 213.45H1397.33C1399.18 213.45 1400.68 211.952 1400.68 210.103V152.051C1400.68 150.202 1399.18 148.703 1397.33 148.703Z" fill="#1F3C73"/>
<path d="M1425.91 148.734H1414.35C1412.7 148.734 1411.36 150.073 1411.36 151.724V210.463C1411.36 212.114 1412.7 213.453 1414.35 213.453H1425.91C1427.56 213.453 1428.9 212.114 1428.9 210.463V151.724C1428.9 150.073 1427.56 148.734 1425.91 148.734Z" fill="#1F3C73"/>
<path d="M1453.79 148.719H1442.64C1440.78 148.719 1439.27 150.224 1439.27 152.081V210.075C1439.27 211.932 1440.78 213.437 1442.64 213.437H1453.79C1455.65 213.437 1457.15 211.932 1457.15 210.075V152.081C1457.15 150.224 1455.65 148.719 1453.79 148.719Z" fill="#1F3C73"/>
<path d="M1474.81 219.93H1365.29C1363.73 219.93 1362.47 221.191 1362.47 222.748V225.323C1362.47 226.879 1363.73 228.141 1365.29 228.141H1474.81C1476.36 228.141 1477.62 226.879 1477.62 225.323V222.748C1477.62 221.191 1476.36 219.93 1474.81 219.93Z" fill="#1F3C73"/>
<path d="M1329.19 237.34C1314.04 246.877 1299.63 258.269 1285.96 271.516C1269.32 287.643 1255.14 304.805 1243.42 323.002C1218.3 362.008 1200.6 403.857 1190.31 448.548C1185.94 467.46 1183.01 490.492 1181.06 510.448C1181.05 510.604 1180.98 510.75 1180.87 510.856C1180.75 510.962 1180.6 511.02 1180.45 511.02H1139.29C1139.1 511.02 1138.92 510.982 1138.74 510.907C1138.57 510.832 1138.41 510.722 1138.28 510.585C1138.15 510.447 1138.04 510.284 1137.98 510.105C1137.91 509.927 1137.88 509.737 1137.89 509.547C1141.83 433.412 1169.22 367.688 1220.06 312.373C1249.88 279.928 1286.21 254.826 1329.05 237.068C1329.08 237.059 1329.12 237.061 1329.15 237.076C1329.19 237.09 1329.21 237.115 1329.23 237.147C1329.25 237.178 1329.25 237.215 1329.25 237.25C1329.24 237.285 1329.22 237.317 1329.19 237.34Z" fill="#1F3C73"/>
<path d="M1511.56 237.068C1554.36 254.797 1590.66 279.861 1620.46 312.258C1671.28 367.506 1698.67 433.16 1702.63 509.218C1702.64 509.408 1702.61 509.598 1702.54 509.776C1702.48 509.955 1702.38 510.118 1702.25 510.255C1702.11 510.393 1701.96 510.503 1701.78 510.578C1701.61 510.653 1701.42 510.691 1701.23 510.691L1660.12 510.705C1659.96 510.706 1659.81 510.647 1659.7 510.541C1659.59 510.435 1659.51 510.29 1659.5 510.133C1657.55 490.205 1654.61 467.188 1650.24 448.304C1639.95 403.661 1622.24 361.856 1597.13 322.887C1585.42 304.719 1571.25 287.581 1554.62 271.473C1540.96 258.245 1526.56 246.867 1511.41 237.34C1511.39 237.317 1511.37 237.285 1511.36 237.25C1511.36 237.215 1511.36 237.178 1511.38 237.147C1511.39 237.115 1511.42 237.09 1511.45 237.076C1511.49 237.061 1511.52 237.059 1511.56 237.068Z" fill="#1F3C73"/>
<path d="M1370.72 246.639C1356.8 261.431 1344.76 277.853 1334.6 295.907C1297.58 361.656 1282.53 435.101 1283.4 510.391C1283.4 510.569 1283.33 510.74 1283.21 510.866C1283.08 510.992 1282.91 511.063 1282.73 511.063H1208.92C1208.84 511.064 1208.77 511.049 1208.71 511.02C1208.64 510.991 1208.58 510.949 1208.53 510.896C1208.48 510.844 1208.45 510.782 1208.42 510.714C1208.4 510.647 1208.39 510.576 1208.4 510.505C1212.52 462.739 1222.49 417.676 1244.12 375.26C1249.2 365.294 1256.35 353.134 1265.56 338.781C1290.77 299.512 1327.26 265.021 1370.32 246.066C1370.4 246.035 1370.48 246.031 1370.56 246.053C1370.64 246.076 1370.7 246.125 1370.75 246.192C1370.8 246.258 1370.82 246.339 1370.81 246.42C1370.81 246.502 1370.78 246.579 1370.72 246.639Z" fill="#1F3C73"/>
<path d="M1469.75 246.525C1469.7 246.465 1469.66 246.388 1469.66 246.307C1469.65 246.226 1469.67 246.145 1469.72 246.078C1469.77 246.012 1469.84 245.963 1469.91 245.94C1469.99 245.917 1470.08 245.922 1470.15 245.953C1513.19 264.879 1549.7 299.342 1574.92 338.582C1584.13 352.926 1591.29 365.076 1596.38 375.033C1618.02 417.42 1628.01 462.468 1632.16 510.22C1632.16 510.291 1632.16 510.362 1632.13 510.429C1632.11 510.497 1632.07 510.559 1632.03 510.611C1631.98 510.664 1631.92 510.706 1631.85 510.735C1631.79 510.764 1631.71 510.779 1631.64 510.778L1557.86 510.807C1557.68 510.807 1557.51 510.736 1557.38 510.61C1557.25 510.484 1557.18 510.313 1557.18 510.135C1558.01 434.873 1542.92 361.456 1505.88 295.751C1495.72 277.716 1483.67 261.308 1469.75 246.525Z" fill="#1F3C73"/>
<path d="M1406.04 251.962V510.535C1406.04 510.68 1405.98 510.818 1405.88 510.92C1405.78 511.022 1405.64 511.079 1405.5 511.079H1310.7C1310.69 511.079 1310.67 511.076 1310.66 511.071C1310.65 511.066 1310.64 511.059 1310.63 511.05C1310.62 511.04 1310.61 511.029 1310.61 511.017C1310.6 511.005 1310.6 510.992 1310.6 510.979C1310.03 464.791 1316.34 420.01 1329.55 376.635C1343.74 330.027 1368.25 283.42 1405.15 251.561C1405.23 251.495 1405.33 251.453 1405.43 251.439C1405.54 251.425 1405.64 251.44 1405.73 251.482C1405.83 251.524 1405.9 251.591 1405.96 251.676C1406.01 251.761 1406.04 251.86 1406.04 251.962Z" fill="#1F3C73"/>
<path d="M1434.6 251.931C1434.6 251.829 1434.63 251.73 1434.68 251.645C1434.74 251.56 1434.82 251.493 1434.91 251.45C1435 251.408 1435.11 251.393 1435.21 251.408C1435.31 251.422 1435.41 251.464 1435.49 251.53C1472.37 283.403 1496.83 329.996 1510.98 376.604C1524.16 419.959 1530.45 464.721 1529.85 510.89C1529.85 510.917 1529.83 510.942 1529.82 510.961C1529.8 510.98 1529.77 510.991 1529.75 510.991L1434.99 510.933C1434.84 510.933 1434.71 510.876 1434.6 510.774C1434.5 510.672 1434.45 510.534 1434.45 510.39L1434.6 251.931Z" fill="#1F3C73"/>
<path d="M1420.14 519.262C1428.83 519.262 1433.38 519.276 1433.78 519.305C1434.44 519.341 1435.06 519.629 1435.51 520.108C1435.97 520.587 1436.22 521.221 1436.22 521.88L1436.26 530.892C1436.26 531.033 1436.32 531.167 1436.42 531.266C1436.51 531.366 1436.64 531.422 1436.78 531.422H1526.33C1526.46 531.422 1526.6 531.395 1526.72 531.343C1526.84 531.291 1526.95 531.214 1527.05 531.118C1527.14 531.022 1527.21 530.908 1527.26 530.783C1527.31 530.659 1527.33 530.525 1527.33 530.392C1527.19 526.429 1525.77 519.19 1530.82 519.219C1540.46 519.276 1548.54 519.281 1555.05 519.233C1558.74 519.205 1559.69 520.12 1559.53 523.668C1559.42 526.386 1559.4 528.661 1559.47 530.492C1559.49 530.742 1559.59 530.979 1559.77 531.152C1559.95 531.325 1560.2 531.422 1560.45 531.422H1628.11C1628.34 531.422 1628.55 531.334 1628.72 531.176C1628.88 531.019 1628.97 530.804 1628.98 530.577C1629.06 528.012 1629.05 525.799 1628.97 523.94C1628.81 520.935 1629.34 519.247 1632.7 519.247C1648.24 519.257 1656.8 519.271 1658.38 519.29C1659.08 519.294 1659.76 519.576 1660.25 520.075C1660.75 520.573 1661.03 521.248 1661.03 521.951V530.606C1661.03 530.819 1661.11 531.022 1661.26 531.173C1661.42 531.323 1661.62 531.407 1661.84 531.407H1715.78C1716.57 531.407 1717.32 531.721 1717.88 532.279C1718.43 532.837 1718.75 533.594 1718.75 534.383L1718.73 538.131C1718.73 538.478 1718.65 538.82 1718.51 539.138C1718.37 539.455 1718.17 539.742 1717.92 539.98C1717.67 540.219 1717.38 540.405 1717.05 540.527C1716.73 540.649 1716.39 540.705 1716.04 540.692C1714.17 540.711 1615.54 540.72 1420.14 540.72C1224.76 540.72 1126.13 540.715 1124.26 540.706C1123.91 540.719 1123.57 540.663 1123.25 540.541C1122.92 540.419 1122.63 540.233 1122.38 539.994C1122.13 539.756 1121.93 539.469 1121.79 539.152C1121.65 538.834 1121.57 538.492 1121.57 538.145L1121.55 534.397C1121.55 534.006 1121.63 533.619 1121.78 533.258C1121.93 532.897 1122.15 532.569 1122.42 532.293C1122.7 532.017 1123.02 531.798 1123.38 531.648C1123.74 531.498 1124.13 531.422 1124.52 531.422H1178.46C1178.68 531.422 1178.88 531.337 1179.04 531.187C1179.19 531.037 1179.28 530.833 1179.28 530.62V521.966C1179.28 521.262 1179.55 520.588 1180.05 520.089C1180.55 519.59 1181.22 519.308 1181.92 519.305C1183.5 519.276 1192.06 519.257 1207.6 519.247C1210.96 519.247 1211.49 520.935 1211.33 523.94C1211.25 525.799 1211.24 528.012 1211.32 530.577C1211.33 530.804 1211.42 531.019 1211.58 531.176C1211.75 531.334 1211.96 531.422 1212.19 531.422H1279.85C1280.1 531.422 1280.35 531.325 1280.53 531.152C1280.71 530.979 1280.82 530.742 1280.83 530.492C1280.9 528.661 1280.88 526.386 1280.77 523.668C1280.61 520.12 1281.56 519.205 1285.25 519.233C1291.76 519.281 1299.84 519.276 1309.48 519.219C1314.53 519.19 1313.11 526.429 1312.97 530.392C1312.97 530.525 1312.99 530.659 1313.04 530.783C1313.09 530.908 1313.16 531.022 1313.25 531.118C1313.35 531.214 1313.46 531.291 1313.58 531.343C1313.7 531.395 1313.84 531.422 1313.97 531.422H1403.52C1403.66 531.422 1403.79 531.366 1403.88 531.266C1403.98 531.167 1404.04 531.033 1404.04 530.892L1404.08 521.88C1404.08 521.221 1404.33 520.587 1404.79 520.108C1405.24 519.629 1405.86 519.341 1406.52 519.305C1406.93 519.276 1411.46 519.262 1420.14 519.262Z" fill="#1F3C73"/>
<path d="M1208.12 550.039L1182.65 549.994C1180.81 549.991 1179.32 551.481 1179.31 553.321L1179.27 578.785C1179.27 580.626 1180.76 582.121 1182.6 582.124L1208.06 582.169C1209.9 582.172 1211.4 580.682 1211.4 578.841L1211.44 553.378C1211.45 551.537 1209.96 550.042 1208.12 550.039Z" fill="#1F3C73"/>
<path d="M1309.62 549.997L1284.19 550.041C1282.33 550.044 1280.83 551.552 1280.83 553.409L1280.88 578.844C1280.88 580.701 1282.39 582.203 1284.25 582.2L1309.68 582.156C1311.54 582.152 1313.04 580.645 1313.04 578.788L1312.99 553.353C1312.99 551.496 1311.48 549.993 1309.62 549.997Z" fill="#1F3C73"/>
<path d="M1433.07 550.054L1407.58 550.01C1405.73 550.007 1404.23 551.503 1404.23 553.351L1404.18 578.844C1404.18 580.693 1405.68 582.194 1407.53 582.197L1433.02 582.242C1434.87 582.245 1436.37 580.749 1436.37 578.9L1436.41 553.408C1436.42 551.559 1434.92 550.057 1433.07 550.054Z" fill="#1F3C73"/>
<path d="M1556.13 550.024L1530.55 550.068C1528.73 550.072 1527.26 551.547 1527.26 553.365L1527.31 578.943C1527.31 580.76 1528.79 582.231 1530.6 582.227L1556.18 582.183C1558 582.18 1559.47 580.704 1559.47 578.887L1559.42 553.308C1559.42 551.491 1557.94 550.021 1556.13 550.024Z" fill="#1F3C73"/>
<path d="M1658.18 550.141L1632.09 550.095C1630.47 550.092 1629.15 551.403 1629.15 553.022L1629.11 579.116C1629.1 580.736 1630.41 582.051 1632.03 582.054L1658.13 582.099C1659.74 582.102 1661.06 580.791 1661.06 579.172L1661.11 553.078C1661.11 551.459 1659.8 550.143 1658.18 550.141Z" fill="#1F3C73"/>
<path d="M1715.72 589.402H1124.89C1123.12 589.402 1121.69 590.837 1121.69 592.607V607.284C1121.69 609.054 1123.12 610.489 1124.89 610.489H1715.72C1717.49 610.489 1718.92 609.054 1718.92 607.284V592.607C1718.92 590.837 1717.49 589.402 1715.72 589.402Z" fill="#1F3C73"/>
<path d="M887.692 711.298C875.289 700.14 855.162 698.209 842.345 709.753C832.474 718.651 828.784 732.8 832.002 745.718C838.654 772.412 866.348 777.719 887.42 763.399C887.671 763.228 887.876 762.999 888.018 762.732C888.16 762.465 888.235 762.169 888.235 761.869V742.699C888.235 742.521 888.166 742.35 888.042 742.224C887.919 742.098 887.752 742.027 887.577 742.027H863.359C863.192 742.027 863.032 741.96 862.914 741.842C862.796 741.724 862.729 741.564 862.729 741.397V734.13C862.729 733.948 862.802 733.773 862.93 733.645C863.059 733.516 863.234 733.443 863.416 733.443H896.146C896.389 733.443 896.621 733.54 896.793 733.712C896.965 733.883 897.061 734.116 897.061 734.359V766.103C897.062 766.38 897 766.652 896.881 766.9C896.762 767.148 896.589 767.364 896.375 767.534C882.279 778.787 866.859 782.168 850.112 777.676C826.008 771.21 815.795 743.343 823.891 720.955C830.472 702.758 846.736 692.486 866.334 693.373C876.834 693.86 885.975 697.446 893.757 704.131C893.844 704.206 893.9 704.312 893.91 704.427C893.921 704.542 893.886 704.657 893.814 704.746L888.35 711.255C888.311 711.301 888.263 711.339 888.208 711.366C888.154 711.393 888.095 711.409 888.034 711.413C887.973 711.417 887.911 711.409 887.852 711.39C887.793 711.37 887.739 711.339 887.692 711.298Z" fill="#1F3C73"/>
<path d="M970.568 693.288C981.844 694.294 992.253 699.808 999.504 708.616C1006.75 717.425 1010.25 728.806 1009.23 740.257C1008.73 745.926 1007.13 751.442 1004.52 756.49C1001.92 761.537 998.361 766.017 994.055 769.674C989.749 773.331 984.778 776.093 979.426 777.802C974.074 779.511 968.445 780.134 962.862 779.636C951.586 778.63 941.177 773.116 933.926 764.307C926.675 755.499 923.176 744.118 924.198 732.667C924.704 726.997 926.305 721.481 928.909 716.434C931.513 711.386 935.069 706.906 939.375 703.25C943.681 699.593 948.652 696.831 954.004 695.122C959.356 693.412 964.985 692.789 970.568 693.288ZM965.011 701.912C956.288 702.339 948.1 706.388 942.249 713.169C936.397 719.95 933.362 728.907 933.81 738.071C934.258 747.234 938.153 755.852 944.638 762.03C951.123 768.207 959.667 771.438 968.39 771.011C977.114 770.585 985.301 766.536 991.153 759.755C997.004 752.974 1000.04 744.016 999.591 734.853C999.143 725.69 995.248 717.072 988.763 710.894C982.278 704.716 973.734 701.486 965.011 701.912Z" fill="#1F3C73"/>
<path d="M1509.95 693.294C1515.53 693.802 1520.96 695.422 1525.92 698.061C1530.88 700.699 1535.27 704.306 1538.86 708.673C1542.44 713.041 1545.14 718.085 1546.8 723.517C1548.46 728.948 1549.05 734.662 1548.53 740.331C1548.01 745.999 1546.4 751.513 1543.79 756.556C1541.18 761.599 1537.61 766.072 1533.3 769.722C1528.99 773.371 1524.01 776.124 1518.66 777.824C1513.3 779.524 1507.67 780.137 1502.09 779.629C1496.51 779.121 1491.08 777.502 1486.12 774.863C1481.16 772.224 1476.77 768.618 1473.18 764.25C1469.6 759.882 1466.9 754.839 1465.24 749.407C1463.58 743.975 1462.99 738.262 1463.51 732.593C1464.03 726.924 1465.64 721.411 1468.25 716.368C1470.86 711.325 1474.43 706.851 1478.74 703.202C1483.05 699.553 1488.03 696.799 1493.38 695.099C1498.74 693.4 1504.37 692.786 1509.95 693.294ZM1504.32 701.912C1495.59 702.339 1487.4 706.388 1481.55 713.169C1475.7 719.95 1472.67 728.907 1473.11 738.07C1473.56 747.233 1477.46 755.852 1483.94 762.029C1490.43 768.207 1498.97 771.438 1507.7 771.011C1516.42 770.585 1524.61 766.535 1530.46 759.754C1536.31 752.973 1539.34 744.016 1538.9 734.853C1538.45 725.69 1534.55 717.072 1528.07 710.894C1521.58 704.716 1513.04 701.485 1504.32 701.912Z" fill="#1F3C73"/>
<path d="M1980.27 694.191C1981.45 694.191 1982.64 694.206 1983.83 694.234C1984.1 694.239 1984.36 694.32 1984.58 694.467C1984.8 694.614 1984.97 694.821 1985.08 695.064L2022.47 777.936C2022.49 777.967 2022.49 778.001 2022.49 778.036C2022.49 778.07 2022.48 778.103 2022.46 778.131C2022.44 778.16 2022.41 778.184 2022.38 778.199C2022.35 778.215 2022.32 778.223 2022.28 778.223H2013.17C2013.06 778.222 2012.95 778.189 2012.85 778.128C2012.76 778.067 2012.69 777.98 2012.64 777.879L2003.06 756.65C2002.97 756.455 2002.82 756.289 2002.64 756.173C2002.46 756.057 2002.26 755.994 2002.04 755.992C2001.15 755.982 1993.87 755.968 1980.2 755.949C1966.53 755.93 1959.25 755.925 1958.36 755.934C1958.14 755.937 1957.93 755.999 1957.76 756.116C1957.58 756.232 1957.43 756.398 1957.34 756.592L1947.7 777.808C1947.66 777.909 1947.58 777.995 1947.49 778.056C1947.4 778.117 1947.28 778.15 1947.17 778.151L1938.06 778.122C1938.02 778.123 1937.99 778.115 1937.96 778.099C1937.93 778.083 1937.9 778.06 1937.88 778.031C1937.87 778.003 1937.85 777.97 1937.85 777.935C1937.85 777.901 1937.86 777.867 1937.87 777.836L1975.46 695.05C1975.57 694.807 1975.74 694.6 1975.97 694.453C1976.19 694.306 1976.44 694.225 1976.71 694.22C1977.9 694.201 1979.09 694.191 1980.27 694.191ZM1961.3 747.022C1961.27 747.096 1961.25 747.177 1961.26 747.258C1961.27 747.34 1961.29 747.418 1961.34 747.486C1961.38 747.554 1961.44 747.611 1961.51 747.649C1961.58 747.688 1961.66 747.709 1961.75 747.709L1998.35 747.78C1998.43 747.78 1998.51 747.76 1998.59 747.721C1998.66 747.682 1998.72 747.626 1998.76 747.558C1998.81 747.489 1998.83 747.411 1998.84 747.33C1998.84 747.249 1998.83 747.168 1998.8 747.094L1980.56 706.137C1980.52 706.051 1980.46 705.979 1980.38 705.928C1980.3 705.877 1980.21 705.85 1980.11 705.85C1980.02 705.85 1979.93 705.877 1979.85 705.928C1979.77 705.979 1979.71 706.051 1979.67 706.137L1961.3 747.022Z" fill="#1F3C73"/>
<path d="M1088.24 734.519C1088.17 734.554 1088.11 734.607 1088.07 734.673C1088.03 734.74 1088.01 734.816 1088.02 734.893C1088.02 734.97 1088.04 735.045 1088.09 735.108C1088.13 735.171 1088.19 735.22 1088.27 735.249C1091.1 736.279 1093.52 737.361 1095.52 738.496C1104.24 743.446 1107.19 752.558 1104.2 762.329C1100.81 773.359 1088.38 777.765 1077.71 778.137C1075.37 778.213 1062.33 778.223 1038.6 778.165C1038.45 778.165 1038.32 778.108 1038.21 778.006C1038.11 777.904 1038.05 777.766 1038.05 777.622V695.279C1038.05 695.173 1038.1 695.071 1038.17 694.996C1038.25 694.92 1038.35 694.878 1038.46 694.878C1052.65 694.764 1065.47 694.783 1076.94 694.935C1088.01 695.079 1099.85 701.788 1100.57 714.162C1101.13 723.823 1097.02 730.609 1088.24 734.519ZM1047.27 703.462V731.472C1047.27 731.597 1047.32 731.717 1047.41 731.806C1047.49 731.894 1047.61 731.944 1047.74 731.944H1073.85C1078.48 731.944 1082.93 730.455 1086.21 727.804C1089.48 725.154 1091.33 721.559 1091.33 717.81V717.123C1091.33 713.375 1089.48 709.78 1086.21 707.129C1082.93 704.479 1078.48 702.99 1073.85 702.99H1047.74C1047.61 702.99 1047.49 703.039 1047.41 703.128C1047.32 703.216 1047.27 703.336 1047.27 703.462ZM1047.3 740.699L1047.24 769.11C1047.24 769.235 1047.29 769.355 1047.38 769.444C1047.47 769.532 1047.59 769.582 1047.71 769.582L1077.14 769.639C1079.59 769.644 1082.02 769.29 1084.29 768.598C1086.56 767.906 1088.62 766.89 1090.36 765.606C1092.1 764.323 1093.47 762.798 1094.42 761.119C1095.36 759.44 1095.84 757.639 1095.85 755.82V754.161C1095.85 750.489 1093.89 746.965 1090.39 744.363C1086.89 741.761 1082.15 740.294 1077.19 740.284L1047.77 740.227C1047.71 740.227 1047.64 740.239 1047.59 740.263C1047.53 740.287 1047.48 740.321 1047.43 740.365C1047.39 740.409 1047.36 740.461 1047.33 740.518C1047.31 740.576 1047.3 740.637 1047.3 740.699Z" fill="#1F3C73"/>
<path d="M1143.58 694.836H1135.08C1134.76 694.836 1134.51 695.092 1134.51 695.408V777.637C1134.51 777.953 1134.76 778.209 1135.08 778.209H1143.58C1143.89 778.209 1144.15 777.953 1144.15 777.637V695.408C1144.15 695.092 1143.89 694.836 1143.58 694.836Z" fill="#1F3C73"/>
<path d="M1187.97 769.61H1238.45C1238.59 769.61 1238.72 769.664 1238.82 769.761C1238.91 769.857 1238.97 769.988 1238.97 770.125V777.678C1238.97 777.815 1238.91 777.946 1238.82 778.042C1238.72 778.139 1238.59 778.193 1238.45 778.193H1178.76C1178.62 778.193 1178.49 778.139 1178.39 778.042C1178.3 777.946 1178.24 777.815 1178.24 777.678V695.335C1178.24 695.199 1178.3 695.068 1178.39 694.971C1178.49 694.875 1178.62 694.82 1178.76 694.82H1238.07C1238.2 694.82 1238.33 694.875 1238.43 694.971C1238.53 695.068 1238.58 695.199 1238.58 695.335V702.889C1238.58 703.025 1238.53 703.156 1238.43 703.253C1238.33 703.349 1238.2 703.404 1238.07 703.404H1187.97C1187.83 703.404 1187.7 703.458 1187.61 703.555C1187.51 703.651 1187.45 703.782 1187.45 703.919V731.257C1187.45 731.393 1187.51 731.524 1187.61 731.621C1187.7 731.717 1187.83 731.772 1187.97 731.772H1232.73C1232.87 731.772 1233 731.826 1233.09 731.923C1233.19 732.019 1233.24 732.15 1233.24 732.287V739.697C1233.24 739.834 1233.19 739.965 1233.09 740.061C1233 740.158 1232.87 740.212 1232.73 740.212H1187.97C1187.83 740.212 1187.7 740.266 1187.61 740.363C1187.51 740.459 1187.45 740.59 1187.45 740.727V769.095C1187.45 769.163 1187.47 769.23 1187.49 769.292C1187.52 769.355 1187.56 769.411 1187.61 769.459C1187.65 769.507 1187.71 769.545 1187.77 769.571C1187.83 769.597 1187.9 769.61 1187.97 769.61Z" fill="#1F3C73"/>
<path d="M1337.2 777.92C1337.21 777.943 1337.22 777.97 1337.22 777.998C1337.22 778.026 1337.22 778.054 1337.2 778.079C1337.19 778.104 1337.17 778.125 1337.15 778.139C1337.12 778.154 1337.09 778.162 1337.07 778.163H1326.22C1326.12 778.163 1326.02 778.14 1325.93 778.095C1325.84 778.05 1325.76 777.985 1325.69 777.905L1301.85 746.318C1301.7 746.123 1301.51 745.964 1301.29 745.855C1301.07 745.746 1300.83 745.689 1300.59 745.689H1278.43C1278.2 745.689 1277.98 745.781 1277.82 745.945C1277.66 746.108 1277.57 746.33 1277.57 746.562V777.505C1277.57 777.683 1277.5 777.854 1277.37 777.98C1277.25 778.106 1277.08 778.177 1276.9 778.177H1269.02C1268.84 778.177 1268.68 778.108 1268.55 777.984C1268.43 777.861 1268.36 777.694 1268.36 777.519V695.534C1268.36 695.445 1268.38 695.358 1268.41 695.276C1268.44 695.195 1268.49 695.121 1268.56 695.058C1268.62 694.996 1268.69 694.946 1268.77 694.912C1268.86 694.879 1268.94 694.861 1269.03 694.861C1286.64 694.775 1299.38 694.795 1307.25 694.918C1317.02 695.09 1328.86 700.326 1332.53 710.111C1338.67 726.448 1329.17 741.168 1312.39 743.929C1312.31 743.942 1312.24 743.975 1312.17 744.025C1312.11 744.076 1312.06 744.142 1312.03 744.218C1312 744.294 1311.99 744.377 1312 744.46C1312.01 744.542 1312.04 744.62 1312.09 744.688L1337.2 777.92ZM1277.46 703.917L1277.69 737.063C1277.69 737.117 1277.7 737.171 1277.72 737.222C1277.74 737.272 1277.77 737.318 1277.81 737.356C1277.85 737.395 1277.89 737.425 1277.94 737.446C1277.99 737.467 1278.05 737.478 1278.1 737.478L1305.24 737.292C1307.82 737.273 1310.37 736.844 1312.75 736.028C1315.13 735.212 1317.29 734.026 1319.1 732.537C1320.92 731.047 1322.35 729.285 1323.33 727.349C1324.3 725.413 1324.79 723.343 1324.78 721.255L1324.76 719.052C1324.73 714.839 1322.63 710.814 1318.93 707.861C1315.23 704.907 1310.22 703.267 1305.01 703.302L1277.87 703.488C1277.82 703.487 1277.76 703.499 1277.71 703.52C1277.66 703.542 1277.61 703.574 1277.57 703.614C1277.53 703.654 1277.5 703.702 1277.48 703.754C1277.46 703.806 1277.46 703.861 1277.46 703.917Z" fill="#1F3C73"/>
<path d="M1372.91 778.179H1364.71C1364.65 778.179 1364.58 778.166 1364.52 778.141C1364.46 778.116 1364.4 778.079 1364.36 778.033C1364.31 777.986 1364.27 777.931 1364.25 777.87C1364.22 777.809 1364.21 777.744 1364.21 777.678V695.321C1364.21 695.255 1364.22 695.19 1364.25 695.13C1364.27 695.069 1364.31 695.014 1364.36 694.967C1364.4 694.921 1364.46 694.884 1364.52 694.859C1364.58 694.833 1364.65 694.82 1364.71 694.82H1372.78C1372.86 694.819 1372.93 694.835 1373 694.867C1373.07 694.899 1373.13 694.947 1373.18 695.006L1424.82 760.698C1424.89 760.783 1424.97 760.845 1425.08 760.876C1425.18 760.907 1425.29 760.905 1425.39 760.87C1425.49 760.835 1425.57 760.769 1425.63 760.681C1425.69 760.594 1425.73 760.489 1425.72 760.383V695.335C1425.72 695.203 1425.78 695.075 1425.87 694.981C1425.96 694.887 1426.09 694.835 1426.22 694.835H1434.05C1434.18 694.835 1434.31 694.887 1434.4 694.981C1434.5 695.075 1434.55 695.203 1434.55 695.335V777.678C1434.55 777.744 1434.54 777.809 1434.51 777.87C1434.49 777.931 1434.45 777.986 1434.4 778.033C1434.36 778.079 1434.3 778.116 1434.24 778.141C1434.18 778.166 1434.11 778.179 1434.05 778.179H1427.44C1427.36 778.181 1427.29 778.165 1427.22 778.133C1427.15 778.1 1427.09 778.053 1427.04 777.993L1374.31 710.943C1374.25 710.858 1374.16 710.795 1374.06 710.764C1373.95 710.733 1373.84 710.735 1373.74 710.77C1373.64 710.805 1373.56 710.871 1373.5 710.959C1373.44 711.047 1373.41 711.151 1373.41 711.258V777.678C1373.41 777.744 1373.4 777.809 1373.37 777.87C1373.35 777.931 1373.31 777.986 1373.26 778.033C1373.22 778.079 1373.16 778.116 1373.1 778.141C1373.04 778.166 1372.97 778.179 1372.91 778.179Z" fill="#1F3C73"/>
<path d="M1624.48 695.361C1624.48 695.221 1624.54 695.086 1624.64 694.987C1624.74 694.888 1624.87 694.832 1625.01 694.832L1654.98 694.789C1660.59 694.779 1666.14 695.817 1671.32 697.845C1676.51 699.872 1681.22 702.848 1685.19 706.603C1689.16 710.359 1692.31 714.82 1694.46 719.732C1696.62 724.644 1697.73 729.91 1697.74 735.231V737.52C1697.76 748.264 1693.28 758.576 1685.29 766.187C1677.3 773.798 1666.45 778.085 1655.13 778.105L1625.16 778.148C1625.02 778.148 1624.88 778.092 1624.78 777.993C1624.68 777.894 1624.63 777.759 1624.63 777.618L1624.48 695.361ZM1633.75 704.031V768.978C1633.75 769.133 1633.82 769.283 1633.93 769.393C1634.04 769.503 1634.18 769.564 1634.34 769.564H1654.95C1663.74 769.564 1672.17 766.16 1678.38 760.099C1684.59 754.039 1688.08 745.819 1688.08 737.248V735.76C1688.08 727.19 1684.59 718.97 1678.38 712.909C1672.17 706.849 1663.74 703.444 1654.95 703.444H1634.34C1634.18 703.444 1634.04 703.506 1633.93 703.616C1633.82 703.726 1633.75 703.875 1633.75 704.031Z" fill="#1F3C73"/>
<path d="M1737.7 740.212C1737.45 740.212 1737.21 740.31 1737.04 740.484C1736.87 740.659 1736.77 740.895 1736.77 741.142L1736.75 768.723C1736.75 768.958 1736.85 769.184 1737.01 769.35C1737.18 769.517 1737.4 769.61 1737.64 769.61H1787.72C1787.87 769.61 1788 769.669 1788.11 769.773C1788.21 769.878 1788.27 770.02 1788.27 770.168L1788.29 777.621C1788.3 777.695 1788.28 777.77 1788.25 777.839C1788.23 777.908 1788.18 777.971 1788.13 778.025C1788.08 778.078 1788.01 778.12 1787.94 778.149C1787.87 778.178 1787.8 778.193 1787.72 778.193H1728.11C1727.96 778.193 1727.82 778.135 1727.72 778.03C1727.61 777.925 1727.55 777.783 1727.55 777.635V695.278C1727.55 695.157 1727.6 695.04 1727.69 694.954C1727.77 694.869 1727.89 694.82 1728.01 694.82H1787.46C1787.57 694.82 1787.67 694.861 1787.75 694.933C1787.82 695.006 1787.86 695.104 1787.86 695.207L1787.92 703.06C1787.92 703.151 1787.89 703.239 1787.82 703.303C1787.76 703.368 1787.67 703.404 1787.58 703.404H1737.4C1737.31 703.404 1737.23 703.42 1737.16 703.452C1737.08 703.483 1737.01 703.53 1736.95 703.588C1736.89 703.646 1736.85 703.716 1736.82 703.792C1736.78 703.869 1736.77 703.95 1736.77 704.033V731.142C1736.77 731.225 1736.78 731.307 1736.82 731.383C1736.85 731.459 1736.89 731.529 1736.95 731.587C1737.01 731.646 1737.08 731.692 1737.16 731.724C1737.23 731.755 1737.31 731.772 1737.4 731.772L1782.2 731.757C1782.29 731.757 1782.38 731.795 1782.44 731.862C1782.51 731.929 1782.54 732.02 1782.54 732.115L1782.56 739.897C1782.56 739.985 1782.52 740.068 1782.46 740.13C1782.4 740.192 1782.32 740.226 1782.23 740.226L1737.7 740.212Z" fill="#1F3C73"/>
<path d="M1918.46 770.168V777.635C1918.46 777.709 1918.45 777.781 1918.42 777.849C1918.39 777.917 1918.35 777.978 1918.3 778.03C1918.25 778.082 1918.19 778.123 1918.12 778.151C1918.05 778.179 1917.98 778.193 1917.91 778.193H1862.59C1862.44 778.193 1862.3 778.135 1862.19 778.03C1862.09 777.925 1862.03 777.783 1862.03 777.635V695.378C1862.03 695.23 1862.09 695.088 1862.19 694.984C1862.3 694.879 1862.44 694.82 1862.59 694.82H1870.69C1870.83 694.82 1870.98 694.879 1871.08 694.984C1871.18 695.088 1871.24 695.23 1871.24 695.378V769.052C1871.24 769.2 1871.3 769.342 1871.41 769.447C1871.51 769.551 1871.65 769.61 1871.8 769.61H1917.91C1917.98 769.61 1918.05 769.624 1918.12 769.652C1918.19 769.68 1918.25 769.722 1918.3 769.773C1918.35 769.825 1918.39 769.887 1918.42 769.954C1918.45 770.022 1918.46 770.095 1918.46 770.168Z" fill="#1F3C73"/>
<path d="M604.747 818.978C606.883 821.029 608.294 823.16 608.981 825.373C609.136 825.865 609.136 826.393 608.98 826.884C608.823 827.376 608.519 827.808 608.108 828.12L587.152 843.927C586.816 844.19 586.398 844.331 585.964 844.328C584.658 844.309 583.389 843.713 582.159 842.54C580.929 841.357 580.28 840.113 580.214 838.806C580.191 838.374 580.312 837.951 580.557 837.604L595.463 816.003C595.755 815.578 596.172 815.253 596.656 815.074C597.14 814.895 597.668 814.869 598.166 815.001C600.408 815.602 602.601 816.928 604.747 818.978Z" fill="#1F3C73"/>
<path d="M1123.97 951.175C1125.45 951.976 1126.37 953.216 1126.73 954.894C1126.79 955.143 1126.78 955.4 1126.72 955.643C1126.65 955.887 1126.53 956.111 1126.36 956.296C1118.85 964.937 1108.85 969.786 1098 973.72C1095.19 974.741 1092.13 975.132 1088.8 974.894C1059.8 972.862 1033.07 957.684 1028.03 927.284C1026.43 917.604 1026.99 907.738 1029.72 897.686C1036.51 872.737 1056.38 856.973 1082.36 854.655C1094.45 853.582 1112.9 854.283 1122.94 861.822C1123.61 862.33 1124.11 863.033 1124.37 863.833C1124.63 864.634 1124.64 865.495 1124.39 866.3C1123 870.749 1121.96 875.699 1118.75 878.76C1118.41 879.095 1117.97 879.31 1117.49 879.375C1115.99 879.594 1114.48 879.294 1112.97 878.474C1101.34 872.108 1093.05 867.559 1078.93 867.902C1054.12 868.517 1044.24 887.916 1045.9 910.89C1047.73 936.268 1063.32 953.349 1087.71 958.07C1098.7 960.202 1112.73 956.439 1122.46 951.175C1122.69 951.051 1122.95 950.986 1123.22 950.986C1123.48 950.986 1123.74 951.051 1123.97 951.175Z" fill="#1F3C73"/>
<path d="M1574.2 854.341C1611.68 857.187 1634.29 888.889 1628.3 925.296C1623.15 956.497 1596.99 977.24 1565.03 974.808C1533.09 972.376 1510.35 947.914 1510 916.284C1509.58 879.39 1536.73 851.494 1574.2 854.341ZM1532.97 926.183C1536.58 937.485 1542.54 947.17 1551.62 954.365C1563.8 964.007 1579.71 966.697 1593.32 958.299C1611.25 947.241 1611.71 919.917 1606.31 902.994C1602.71 891.692 1596.74 882.008 1587.67 874.812C1575.49 865.17 1559.58 862.48 1545.97 870.878C1528.05 881.936 1527.58 909.26 1532.97 926.183Z" fill="#1F3C73"/>
<path d="M2255.44 951.162C2255.67 951.038 2255.93 950.973 2256.2 950.973C2256.46 950.973 2256.72 951.038 2256.95 951.162C2258.43 951.963 2259.35 953.203 2259.72 954.881C2259.77 955.13 2259.76 955.387 2259.7 955.63C2259.63 955.874 2259.51 956.098 2259.34 956.283C2251.83 964.91 2241.83 969.759 2230.99 973.693C2228.19 974.714 2225.12 975.105 2221.79 974.866C2192.81 972.835 2166.07 957.657 2161.05 927.272C2159.45 917.591 2160.01 907.725 2162.74 897.673C2169.54 872.739 2189.41 856.988 2215.37 854.671C2227.46 853.598 2245.9 854.299 2255.94 861.838C2256.61 862.344 2257.11 863.045 2257.37 863.846C2257.63 864.647 2257.63 865.509 2257.38 866.315C2256 870.764 2254.95 875.714 2251.75 878.776C2251.4 879.11 2250.96 879.326 2250.49 879.391C2248.98 879.6 2247.47 879.3 2245.97 878.489C2234.34 872.123 2226.06 867.574 2211.94 867.903C2187.15 868.518 2177.26 887.917 2178.91 910.877C2180.74 936.241 2196.33 953.322 2220.71 958.043C2231.69 960.174 2245.71 956.426 2255.44 951.162Z" fill="#1F3C73"/>
<path d="M1772.24 898.575C1772.23 898.513 1772.2 898.454 1772.16 898.408C1772.12 898.362 1772.06 898.33 1772 898.317C1771.94 898.305 1771.87 898.312 1771.82 898.337C1771.76 898.363 1771.71 898.406 1771.68 898.461C1757.11 928.092 1748.31 946.027 1745.3 952.264C1742.72 957.595 1740.68 962.879 1739.18 968.115C1739.1 968.386 1738.97 968.639 1738.79 968.858C1738.62 969.076 1738.4 969.257 1738.15 969.388C1734.64 971.257 1731.52 971.286 1728.78 969.474C1728.36 969.192 1728.01 968.813 1727.78 968.372L1690.71 898.074C1690.66 897.976 1690.58 897.898 1690.48 897.852C1690.38 897.805 1690.27 897.793 1690.16 897.818C1690.05 897.842 1689.95 897.902 1689.88 897.987C1689.81 898.072 1689.77 898.178 1689.77 898.289C1688.27 933.118 1687.5 951.024 1687.47 952.006C1687.17 960.132 1690.68 964.867 1698.01 966.212C1698.16 966.245 1698.3 966.329 1698.4 966.452C1698.5 966.574 1698.55 966.727 1698.55 966.884V971.348C1698.55 971.628 1698.44 971.898 1698.24 972.096C1698.04 972.295 1697.77 972.406 1697.49 972.406H1664.72C1664.48 972.407 1664.25 972.325 1664.07 972.174C1663.88 972.023 1663.75 971.812 1663.7 971.576L1662.82 967.342C1662.79 967.204 1662.79 967.061 1662.82 966.924C1662.85 966.786 1662.91 966.656 1662.99 966.543C1663.08 966.429 1663.18 966.335 1663.31 966.265C1663.43 966.196 1663.56 966.154 1663.7 966.14C1671.75 965.416 1676 960.595 1676.44 951.677C1676.87 942.999 1678.61 911.684 1681.67 857.733C1681.7 857.222 1681.88 856.731 1682.18 856.32C1682.48 855.908 1682.9 855.594 1683.37 855.415C1685.46 854.643 1687.47 854.991 1689.38 856.459C1689.72 856.714 1690 857.041 1690.2 857.418L1737.02 944.954C1737.07 945.047 1737.14 945.125 1737.23 945.177C1737.32 945.23 1737.43 945.257 1737.53 945.254C1737.64 945.251 1737.74 945.219 1737.84 945.161C1737.93 945.103 1738 945.021 1738.05 944.925L1781.39 857.489C1781.53 857.215 1781.7 856.959 1781.92 856.731C1783.49 855.1 1785.61 854.633 1788.29 855.329C1788.8 855.462 1789.25 855.754 1789.59 856.163C1789.92 856.572 1790.12 857.076 1790.15 857.604C1793.38 916.047 1795.15 947.743 1795.47 952.693C1795.97 960.552 1800.04 965.034 1807.67 966.14C1807.89 966.171 1808.09 966.281 1808.24 966.449C1808.39 966.617 1808.47 966.833 1808.47 967.056V971.061C1808.47 971.414 1808.33 971.753 1808.08 972.002C1807.83 972.252 1807.48 972.392 1807.13 972.392H1765.4C1765.25 972.392 1765.11 972.344 1765 972.256C1764.89 972.167 1764.81 972.043 1764.78 971.905L1763.73 966.827C1763.71 966.75 1763.71 966.671 1763.73 966.594C1763.75 966.517 1763.78 966.445 1763.82 966.381C1763.87 966.317 1763.93 966.263 1763.99 966.221C1764.06 966.18 1764.13 966.152 1764.21 966.14C1769.07 965.444 1772.38 963.303 1774.17 959.717C1775.14 957.762 1775.45 953.747 1775.1 947.672C1773.93 927.491 1772.97 911.126 1772.24 898.575Z" fill="#1F3C73"/>
<path d="M1208.12 858.634C1208.14 858.374 1208.24 858.129 1208.41 857.933C1208.59 857.737 1208.82 857.601 1209.08 857.546L1219.26 855.415C1219.57 855.351 1219.89 855.397 1220.18 855.546C1220.46 855.694 1220.68 855.936 1220.81 856.23C1242.75 907.444 1256.57 939.67 1262.28 952.907C1264.92 959.045 1269.2 965.153 1275.94 966.083C1276.6 966.179 1277.21 966.511 1277.66 967.018C1278.1 967.525 1278.34 968.173 1278.34 968.844V969.702C1278.34 970.416 1278.06 971.1 1277.55 971.604C1277.04 972.108 1276.35 972.392 1275.64 972.392H1233.17C1232.92 972.392 1232.68 972.335 1232.46 972.226C1232.24 972.116 1232.05 971.958 1231.91 971.762C1230.98 970.532 1230.81 969.044 1231.41 967.299C1231.48 967.085 1231.61 966.893 1231.77 966.739C1231.94 966.585 1232.13 966.473 1232.35 966.412C1233.82 965.983 1236.47 965.511 1238.11 964.438C1243.29 961.062 1241.12 955.211 1239.14 949.875C1237.54 945.526 1236.23 941.306 1231.02 941.048C1228.47 940.915 1215.38 940.891 1191.74 940.977C1188.59 940.986 1186.43 942.383 1185.26 945.168C1182.68 951.234 1181.39 955.425 1181.37 957.743C1181.3 964.166 1186.33 965.21 1191.35 966.34C1191.76 966.43 1192.14 966.609 1192.47 966.864C1192.8 967.118 1193.07 967.443 1193.26 967.815C1193.45 968.186 1193.55 968.595 1193.57 969.013C1193.58 969.431 1193.5 969.847 1193.34 970.232C1192.67 971.786 1191.66 972.54 1190.31 972.492C1187.57 972.387 1176.32 972.373 1156.55 972.449C1156.2 972.451 1155.86 972.384 1155.55 972.254C1155.23 972.123 1154.94 971.931 1154.7 971.687C1154.45 971.444 1154.26 971.155 1154.13 970.836C1154 970.518 1153.93 970.176 1153.93 969.831V968.558C1153.93 967.957 1154.15 967.376 1154.54 966.925C1154.94 966.474 1155.48 966.185 1156.08 966.112C1163.84 965.139 1168.06 957.686 1171.01 950.962C1183.18 923.095 1193.69 898.937 1202.55 878.49C1205.81 870.975 1207.67 864.356 1208.12 858.634ZM1211.26 931.277C1221.14 931.306 1226.94 931.287 1228.66 931.22C1228.94 931.211 1229.22 931.132 1229.47 930.991C1229.71 930.85 1229.92 930.651 1230.07 930.412C1230.23 930.172 1230.32 929.899 1230.34 929.616C1230.36 929.333 1230.32 929.049 1230.2 928.788C1225.01 916.237 1218.85 901.398 1211.74 884.269C1211.67 884.098 1211.57 884.012 1211.44 884.012C1211.22 884.002 1211.07 884.088 1210.99 884.269C1203.81 901.36 1197.59 916.175 1192.34 928.717C1192.23 928.978 1192.18 929.262 1192.2 929.545C1192.23 929.828 1192.32 930.101 1192.47 930.34C1192.62 930.58 1192.83 930.779 1193.08 930.92C1193.32 931.06 1193.6 931.139 1193.88 931.149C1195.6 931.215 1201.39 931.258 1211.26 931.277Z" fill="#1F3C73"/>
<path d="M2342.12 857.488L2352.32 855.356C2352.63 855.292 2352.95 855.338 2353.23 855.487C2353.51 855.636 2353.74 855.877 2353.86 856.172C2375.82 907.414 2389.64 939.659 2395.35 952.906C2397.99 959.043 2402.27 965.166 2409.01 966.096C2409.68 966.192 2410.29 966.524 2410.73 967.031C2411.17 967.538 2411.41 968.186 2411.41 968.857V969.715C2411.41 970.428 2411.13 971.113 2410.62 971.617C2410.11 972.121 2409.43 972.405 2408.71 972.405H2366.21C2365.96 972.405 2365.72 972.348 2365.5 972.238C2365.29 972.129 2365.1 971.971 2364.95 971.775C2364.02 970.545 2363.86 969.057 2364.45 967.312C2364.52 967.095 2364.65 966.901 2364.81 966.744C2364.98 966.587 2365.18 966.473 2365.39 966.411C2366.87 965.981 2369.53 965.509 2371.17 964.436C2376.35 961.06 2374.18 955.209 2372.2 949.873C2370.6 945.524 2369.28 941.29 2364.08 941.032C2361.52 940.899 2348.42 940.875 2324.77 940.961C2321.62 940.97 2319.46 942.368 2318.29 945.152C2315.7 951.228 2314.4 955.424 2314.38 957.741C2314.31 964.165 2319.34 965.209 2324.38 966.339C2324.79 966.429 2325.17 966.607 2325.5 966.862C2325.83 967.117 2326.1 967.442 2326.29 967.813C2326.48 968.185 2326.58 968.594 2326.6 969.012C2326.61 969.429 2326.53 969.845 2326.37 970.23C2325.7 971.785 2324.69 972.538 2323.34 972.49C2320.59 972.386 2309.33 972.371 2289.55 972.448C2289.2 972.449 2288.86 972.383 2288.55 972.252C2288.23 972.122 2287.94 971.929 2287.7 971.686C2287.45 971.443 2287.26 971.153 2287.13 970.835C2287 970.516 2286.93 970.175 2286.93 969.83V968.556C2286.93 967.957 2287.15 967.378 2287.54 966.928C2287.94 966.478 2288.48 966.187 2289.08 966.11C2296.84 965.137 2301.08 957.684 2304.02 950.946C2316.2 923.069 2326.73 898.898 2335.6 878.431C2338.86 870.916 2340.71 864.297 2341.16 858.575C2341.18 858.316 2341.28 858.07 2341.46 857.874C2341.63 857.678 2341.86 857.542 2342.12 857.488ZM2344.32 931.29C2354.2 931.3 2360 931.271 2361.72 931.205C2362 931.195 2362.28 931.116 2362.52 930.975C2362.77 930.834 2362.98 930.636 2363.13 930.396C2363.28 930.157 2363.37 929.883 2363.4 929.601C2363.42 929.318 2363.37 929.033 2363.26 928.773C2358.04 916.222 2351.87 901.392 2344.75 884.282C2344.67 884.101 2344.52 884.01 2344.29 884.01C2344.17 884.01 2344.07 884.101 2343.99 884.282C2336.84 901.382 2330.64 916.198 2325.4 928.73C2325.28 928.99 2325.24 929.275 2325.26 929.558C2325.28 929.841 2325.37 930.114 2325.53 930.353C2325.68 930.593 2325.89 930.792 2326.13 930.932C2326.38 931.073 2326.66 931.152 2326.94 931.162C2328.66 931.238 2334.45 931.281 2344.32 931.29Z" fill="#1F3C73"/>
<path d="M2644.54 858.602C2644.56 858.343 2644.66 858.097 2644.83 857.901C2645.01 857.705 2645.24 857.57 2645.49 857.515L2655.69 855.384C2656 855.32 2656.33 855.366 2656.61 855.514C2656.89 855.663 2657.11 855.905 2657.24 856.199C2679.17 907.423 2692.99 939.658 2698.68 952.905C2701.33 959.028 2705.6 965.15 2712.34 966.08C2713.01 966.177 2713.62 966.509 2714.06 967.016C2714.5 967.523 2714.74 968.171 2714.75 968.841V969.7C2714.75 970.413 2714.46 971.097 2713.95 971.601C2713.45 972.106 2712.76 972.389 2712.04 972.389H2669.56C2669.31 972.389 2669.07 972.332 2668.85 972.223C2668.63 972.114 2668.44 971.955 2668.3 971.76C2667.37 970.529 2667.21 969.042 2667.8 967.296C2667.87 967.08 2668 966.885 2668.16 966.728C2668.32 966.571 2668.52 966.457 2668.74 966.395C2670.21 965.966 2672.87 965.494 2674.52 964.421C2679.7 961.045 2677.52 955.194 2675.55 949.858C2673.95 945.523 2672.63 941.289 2667.44 941.031C2664.88 940.898 2651.78 940.869 2628.14 940.945C2625 940.955 2622.84 942.352 2621.66 945.137C2619.08 951.212 2617.78 955.408 2617.76 957.726C2617.69 964.135 2622.72 965.179 2627.76 966.309C2628.16 966.401 2628.54 966.581 2628.87 966.836C2629.2 967.092 2629.46 967.416 2629.65 967.788C2629.84 968.159 2629.95 968.568 2629.96 968.984C2629.97 969.401 2629.89 969.816 2629.73 970.2C2629.06 971.755 2628.06 972.508 2626.71 972.461C2623.97 972.356 2612.71 972.341 2592.94 972.418C2592.59 972.42 2592.25 972.353 2591.94 972.223C2591.62 972.092 2591.33 971.899 2591.09 971.656C2590.84 971.413 2590.65 971.123 2590.52 970.805C2590.39 970.486 2590.32 970.145 2590.32 969.8V968.526C2590.32 967.925 2590.54 967.344 2590.93 966.894C2591.33 966.443 2591.87 966.154 2592.47 966.08C2600.22 965.108 2604.45 957.669 2607.4 950.931C2619.58 923.063 2630.1 898.901 2638.97 878.444C2642.23 870.939 2644.09 864.325 2644.54 858.602ZM2647.68 931.275C2657.55 931.284 2663.35 931.256 2665.06 931.189C2665.35 931.178 2665.62 931.1 2665.87 930.96C2666.11 930.82 2666.32 930.622 2666.47 930.385C2666.62 930.147 2666.71 929.876 2666.74 929.595C2666.76 929.314 2666.72 929.031 2666.61 928.771C2661.4 916.22 2655.24 901.39 2648.11 884.281C2648.04 884.1 2647.88 884.009 2647.65 884.009C2647.53 884.009 2647.43 884.1 2647.35 884.281C2640.2 901.371 2634 916.187 2628.76 928.728C2628.65 928.987 2628.6 929.269 2628.63 929.549C2628.65 929.829 2628.74 930.099 2628.89 930.336C2629.04 930.573 2629.25 930.771 2629.49 930.912C2629.73 931.053 2630.01 931.133 2630.29 931.146C2632.01 931.222 2637.81 931.265 2647.68 931.275Z" fill="#1F3C73"/>
<path d="M191.617 916.858C193.262 917.659 195.208 917.33 197.039 918.331C200.634 920.315 203.49 922.566 205.607 925.083C208.907 929.022 218.544 941.049 234.518 961.162C237.226 964.567 241.084 966.784 246.091 967.814C246.34 967.864 246.564 967.999 246.726 968.197C246.887 968.395 246.976 968.644 246.977 968.902V972.02C246.977 972.289 246.89 972.55 246.73 972.764C246.57 972.978 246.346 973.133 246.091 973.207C236.764 975.897 228.233 975.11 220.499 970.847C217.094 968.978 212.464 964.133 206.609 956.313C205.598 954.958 199.671 947.3 188.828 933.338C184.965 928.369 181.747 925.198 179.172 923.825C173.946 921.03 167.871 919.843 160.947 920.262C160.708 920.274 160.482 920.376 160.317 920.55C160.152 920.723 160.06 920.953 160.06 921.192C160.003 936.146 160.022 946.437 160.117 952.064C160.303 962.45 168.486 965.368 177.527 966.155C177.69 966.166 177.843 966.24 177.955 966.362C178.066 966.484 178.128 966.646 178.127 966.813V971.062C178.127 971.418 177.987 971.76 177.738 972.013C177.488 972.265 177.15 972.406 176.797 972.406H128.632C128.321 972.406 128.02 972.299 127.78 972.103C127.54 971.908 127.376 971.636 127.316 971.333L126.458 967.213C126.427 967.073 126.428 966.928 126.463 966.789C126.497 966.649 126.564 966.52 126.656 966.41C126.749 966.301 126.866 966.214 126.998 966.158C127.13 966.101 127.273 966.076 127.416 966.083C128.084 966.121 129.314 965.859 131.107 965.296C138.817 962.879 140.019 957.686 140.033 949.532C140.062 913.386 140.043 889.181 139.976 876.917C139.919 867.904 134.082 865.014 126.615 862.454C126.435 862.391 126.279 862.275 126.168 862.121C126.058 861.967 125.999 861.783 126 861.595V857.79C126.001 857.61 126.04 857.432 126.114 857.268C126.188 857.104 126.297 856.958 126.432 856.839C126.567 856.72 126.726 856.631 126.898 856.578C127.07 856.525 127.252 856.509 127.431 856.531C143.052 858.448 156.269 857.418 176.139 856.545C196.724 855.644 220.041 863.455 219.426 888.175C219.04 903.868 207.024 915.227 191.732 916.3C191.665 916.305 191.602 916.332 191.551 916.377C191.501 916.421 191.466 916.48 191.453 916.544C191.44 916.609 191.449 916.675 191.478 916.731C191.508 916.788 191.557 916.833 191.617 916.858ZM160.489 911.894C174.122 912.38 197.039 913.41 198.269 894.813C199.084 882.338 194.879 871.094 182.219 866.988C176.411 865.11 171.147 864.943 166.426 866.488C161.348 868.147 160.146 873.126 160.103 877.989C160.036 883.635 160.027 894.794 160.075 911.465C160.074 911.576 160.118 911.683 160.195 911.763C160.273 911.843 160.378 911.89 160.489 911.894Z" fill="#1F3C73"/>
<path d="M277.561 856.614C283.922 857.167 290.764 857.482 298.088 857.558C318.497 857.787 338.524 857.439 358.169 856.514C363.705 856.242 363.348 860.004 362.332 863.924C359.881 873.366 358.608 878.335 358.513 878.831C358.403 879.32 358.123 879.752 357.726 880.047C356.62 880.876 355.394 880.972 354.05 880.333C353.496 880.066 352.872 879.007 352.176 877.157C350.631 872.999 347.984 870.257 344.236 868.931C337.465 866.537 329.516 865.755 320.39 866.585C313.709 867.2 310.162 870.119 310.019 877C309.818 885.659 309.814 895.082 310.004 905.267C310.018 906.011 310.242 906.734 310.65 907.352C311.058 907.97 311.633 908.458 312.308 908.758C313.309 909.216 315.126 909.445 317.758 909.445C324.929 909.473 331.6 908.896 337.77 907.714C342.653 906.788 346.935 904.752 350.616 901.605C350.949 901.328 351.364 901.176 351.789 901.176H353.148C353.438 901.177 353.722 901.251 353.976 901.389C354.23 901.528 354.445 901.727 354.601 901.969C354.758 902.211 354.851 902.487 354.872 902.774C354.893 903.06 354.841 903.347 354.722 903.608C350.044 913.951 344.937 926.568 343.235 927.112C341.9 927.541 340.784 927.207 339.888 926.111C333.422 918.2 322.636 917.284 313.28 918.185C312.408 918.269 311.597 918.668 310.998 919.309C310.4 919.949 310.057 920.786 310.033 921.662C309.814 930.302 309.804 940.163 310.004 951.246C310.128 958.169 313.705 961.96 320.733 962.618C337.599 964.192 354.379 960.816 364.979 946.868C367.096 944.078 369.113 943.32 371.301 945.852C371.634 946.24 371.812 946.734 371.802 947.24C371.545 955.852 366.18 969.743 356.596 972.303C356.074 972.446 355.534 972.508 354.994 972.489C335.806 971.65 313.986 971.402 289.534 971.745C283.831 971.822 278.891 972.113 274.714 972.618C274.29 972.669 273.862 972.558 273.515 972.306C273.168 972.055 272.927 971.681 272.84 971.259L272.211 968.255C272.161 968.019 272.159 967.775 272.205 967.538C272.251 967.302 272.344 967.076 272.479 966.876C272.614 966.676 272.787 966.505 272.99 966.373C273.192 966.242 273.418 966.152 273.655 966.109C284.489 964.154 289.896 959.476 289.877 952.075C289.83 937.665 289.83 913.188 289.877 878.645C289.877 875.478 289.606 873.175 289.062 871.735C287.102 866.571 282.267 863.953 277.074 862.78C276.924 862.747 276.789 862.662 276.693 862.54C276.596 862.417 276.544 862.265 276.545 862.107V857.544C276.544 857.414 276.571 857.286 276.623 857.167C276.675 857.048 276.751 856.942 276.847 856.854C276.943 856.766 277.056 856.7 277.178 856.659C277.301 856.617 277.432 856.602 277.561 856.614Z" fill="#1F3C73"/>
<path d="M404.517 966.209C404.765 966.352 406.214 965.985 408.865 965.108C415.803 962.805 417.205 957.769 417.191 950.588C417.181 932.143 417.162 907.59 417.134 876.928C417.134 868.431 411.183 864.296 403.959 862.465C403.757 862.411 403.579 862.292 403.452 862.127C403.326 861.961 403.257 861.758 403.258 861.55V857.573C403.257 857.423 403.288 857.276 403.348 857.139C403.409 857.003 403.499 856.88 403.611 856.781C403.723 856.681 403.855 856.605 403.999 856.559C404.143 856.513 404.295 856.498 404.445 856.514C413.171 857.515 421.707 857.835 430.051 857.472C441.366 856.986 454.57 855.756 466.801 857.358C485.068 859.747 500.589 869.79 501.133 889.961C502.12 926.197 465.928 932.548 438.191 928.342C438.071 928.324 437.948 928.332 437.831 928.365C437.715 928.398 437.607 928.456 437.514 928.534C437.422 928.613 437.348 928.711 437.297 928.821C437.245 928.931 437.219 929.051 437.218 929.172C437.18 936.039 437.194 943.001 437.261 950.058C437.375 961.975 444.113 965.251 454.799 966.166C454.935 966.177 455.063 966.239 455.156 966.34C455.249 966.441 455.3 966.573 455.299 966.71V971.259C455.299 971.563 455.179 971.854 454.964 972.068C454.75 972.283 454.459 972.404 454.155 972.404H405.833C405.477 972.404 405.133 972.275 404.865 972.04C404.596 971.806 404.422 971.483 404.374 971.13L403.787 966.696C403.774 966.605 403.787 966.512 403.825 966.429C403.862 966.345 403.923 966.274 403.999 966.223C404.075 966.172 404.164 966.144 404.256 966.142C404.347 966.139 404.438 966.163 404.517 966.209ZM437.161 919.087C437.162 919.237 437.215 919.382 437.312 919.497C437.408 919.612 437.542 919.689 437.69 919.716C445.529 921.328 453.354 921.376 461.165 919.859C471.779 917.799 477.796 911.438 479.217 900.776C482.036 879.761 469.004 864.053 447.017 865.641C438.434 866.256 437.232 872.694 437.232 879.761C437.232 893.122 437.208 906.231 437.161 919.087Z" fill="#1F3C73"/>
<path d="M757.252 908.86C757.173 908.883 757.105 908.935 757.061 909.004C757.016 909.074 756.999 909.158 757.011 909.239C757.023 909.321 757.064 909.396 757.127 909.449C757.19 909.503 757.27 909.533 757.353 909.532C772.33 909.246 785.405 920.204 786.835 935.354C789.081 958.986 768.081 971.518 747.268 972.319C740.83 972.558 732.686 972.419 722.835 971.904C711.886 971.332 699.899 971.513 686.872 972.448C686.27 972.492 685.673 972.316 685.192 971.953C684.71 971.59 684.377 971.064 684.254 970.474L683.868 968.614C683.808 968.333 683.805 968.043 683.859 967.761C683.913 967.478 684.023 967.21 684.183 966.97C684.343 966.73 684.549 966.524 684.79 966.364C685.03 966.205 685.3 966.094 685.584 966.039C692.723 964.666 699.503 962.263 701.348 954.366C701.434 953.995 701.477 953.621 701.477 953.25C701.487 906.947 701.501 882.323 701.52 879.376C701.606 868.775 698.158 865.972 688.932 862.781C688.714 862.707 688.526 862.566 688.392 862.379C688.259 862.191 688.187 861.967 688.188 861.737V857.817C688.187 857.655 688.22 857.494 688.286 857.346C688.351 857.197 688.447 857.064 688.567 856.955C688.687 856.845 688.828 856.763 688.982 856.712C689.136 856.661 689.299 856.642 689.461 856.659C706.126 858.289 720.875 857.259 738.67 856.501C742.723 856.32 748.131 857.002 754.892 858.547C765.449 860.965 775.062 867.888 777.237 879.004C780.069 893.467 771.472 904.897 757.252 908.86ZM721.862 906.499C728.528 906.795 734.741 906.752 740.501 906.37C749.361 905.789 754.625 901.626 756.294 893.882C760.142 876.014 747.84 863.983 730.302 865.6C722.734 866.315 721.561 872.123 721.547 878.36C721.499 894.344 721.504 903.619 721.561 906.184C721.561 906.266 721.592 906.344 721.648 906.402C721.704 906.461 721.781 906.496 721.862 906.499ZM722.134 915.168C721.986 915.168 721.844 915.226 721.739 915.328C721.634 915.43 721.576 915.568 721.576 915.712C721.414 930.027 721.452 941.848 721.69 951.176C721.843 957.155 724.647 960.899 730.101 962.406C736.119 964.065 742.661 964.198 749.728 962.806C757.953 961.19 763.289 956.726 764.92 948.543C766.694 939.645 764.519 928.973 758.039 922.507C748.369 912.837 733.835 915.34 722.134 915.168Z" fill="#1F3C73"/>
<path d="M1360.29 856.731C1373.03 857.618 1382.08 857.89 1387.43 857.546C1395.57 857.022 1404.86 856.712 1415.28 856.616C1424.53 856.531 1433.42 858.223 1441.94 861.695C1468.84 872.624 1478.78 899.032 1473.06 926.399C1467.81 951.591 1448.24 969.015 1422.76 971.962C1416.25 972.706 1406.59 972.673 1393.78 971.862C1384.76 971.29 1372.57 971.49 1357.23 972.463C1356.97 972.479 1356.71 972.442 1356.47 972.355C1356.23 972.268 1356.01 972.132 1355.82 971.956C1355.63 971.781 1355.48 971.569 1355.38 971.334C1355.28 971.099 1355.23 970.845 1355.23 970.589V967.842C1355.23 967.401 1355.38 966.973 1355.67 966.633C1355.95 966.293 1356.35 966.063 1356.79 965.983C1362.24 964.967 1369.09 962.85 1371.52 957.314C1372.35 955.416 1372.76 952.02 1372.76 947.128C1372.73 904.898 1372.73 882.91 1372.76 881.165C1372.96 870.765 1370.2 865.142 1359.83 862.668C1359.67 862.632 1359.52 862.541 1359.42 862.411C1359.32 862.281 1359.26 862.119 1359.26 861.952V857.689C1359.26 857.557 1359.29 857.426 1359.34 857.305C1359.39 857.184 1359.47 857.075 1359.57 856.985C1359.66 856.895 1359.78 856.826 1359.9 856.782C1360.03 856.738 1360.16 856.721 1360.29 856.731ZM1408.34 865.743C1400.67 865.772 1392.79 866.888 1392.79 876.544C1392.77 907.349 1392.77 932.441 1392.79 951.82C1392.79 952.228 1392.85 952.633 1392.96 953.022C1394.29 957.628 1396.98 960.527 1401.05 961.72C1407.77 963.703 1415.25 964.09 1423.48 962.878C1440.64 960.341 1450.68 950.38 1453.59 932.994C1458.64 902.852 1444.33 865.672 1408.34 865.743Z" fill="#1F3C73"/>
<path d="M534.118 862.969C534.072 862.966 534.027 862.953 533.987 862.932C533.946 862.911 533.91 862.881 533.882 862.846C533.854 862.811 533.833 862.771 533.822 862.728C533.811 862.685 533.81 862.641 533.818 862.597L534.704 857.276C534.725 857.162 534.783 857.06 534.87 856.987C534.956 856.913 535.065 856.874 535.176 856.875H579.594C579.691 856.876 579.786 856.911 579.862 856.974C579.937 857.036 579.989 857.122 580.008 857.218L581.11 862.468C581.12 862.523 581.119 862.58 581.106 862.634C581.093 862.688 581.069 862.739 581.035 862.784C581.002 862.828 580.959 862.865 580.91 862.892C580.862 862.919 580.808 862.936 580.752 862.941C572.226 863.723 567.925 868.42 567.849 877.032C567.658 896.993 567.649 914.713 567.821 930.191C568.021 949.175 578.263 963.366 598.262 963.38C611.808 963.409 623.267 956.986 628.173 944.211C629.861 939.814 630.581 933.191 630.333 924.34C630.248 921.241 630.267 906.802 630.391 881.023C630.419 874.938 629.733 870.914 628.331 868.949C625.889 865.544 621.96 863.561 616.543 862.998C616.502 862.992 616.462 862.979 616.426 862.959C616.39 862.938 616.358 862.911 616.333 862.88C616.308 862.848 616.289 862.811 616.279 862.773C616.268 862.734 616.266 862.694 616.272 862.654L617.173 857.29C617.193 857.173 617.253 857.067 617.342 856.991C617.431 856.915 617.544 856.874 617.659 856.875H653.994C654.112 856.876 654.227 856.918 654.318 856.993C654.409 857.069 654.472 857.174 654.495 857.29L655.525 862.225C655.543 862.31 655.544 862.397 655.526 862.481C655.507 862.566 655.471 862.645 655.42 862.715C655.368 862.784 655.302 862.841 655.227 862.883C655.151 862.924 655.067 862.949 654.981 862.955C646.589 863.727 642.335 868.62 642.221 877.632C642.049 889.84 642.044 905.476 642.207 924.54C642.283 933.62 641.568 940.587 640.061 945.441C635.188 961.148 624.077 970.676 606.73 974.024C595.916 976.112 582.612 974.624 572.513 970.132C555.785 962.674 547.288 948.884 547.021 928.761C546.954 923.639 546.969 907.913 547.064 881.581C547.083 875.115 546.477 870.904 545.247 868.949C543.073 865.497 539.363 863.503 534.118 862.969Z" fill="#1F3C73"/>
<path d="M821.978 862.984C821.88 862.973 821.789 862.926 821.723 862.852C821.657 862.778 821.62 862.682 821.621 862.583V857.833C821.621 857.579 821.72 857.335 821.897 857.156C822.074 856.976 822.315 856.875 822.565 856.875H867.125C867.254 856.875 867.38 856.919 867.482 856.999C867.583 857.08 867.654 857.192 867.683 857.318L868.684 862.125C868.703 862.215 868.702 862.307 868.683 862.397C868.664 862.486 868.626 862.571 868.572 862.645C868.518 862.719 868.449 862.781 868.37 862.827C868.291 862.873 868.203 862.902 868.112 862.912C863.086 863.503 859.477 865.311 857.283 868.334C855.9 870.222 855.214 874.18 855.223 880.207C855.261 925.156 855.29 949.084 855.309 951.993C855.328 958.039 858.423 961.501 864.593 962.379C881.273 964.768 899.555 960.934 910.126 946.743C912.028 944.168 913.373 943.61 915.977 945.441C916.166 945.572 916.326 945.741 916.447 945.938C916.567 946.135 916.646 946.356 916.678 946.585C917.751 955.312 910.555 969.803 901.657 972.293C901.07 972.463 900.461 972.536 899.855 972.507C879.523 971.582 856.353 971.367 830.347 971.863C825.388 971.959 821.893 972.197 819.861 972.579C819.424 972.663 818.97 972.573 818.598 972.327C818.226 972.081 817.966 971.699 817.873 971.263L817.272 968.387C817.176 967.913 817.265 967.421 817.521 967.013C817.777 966.606 818.18 966.313 818.645 966.198C824.453 964.725 830.447 963.352 833.566 958.001C834.424 956.533 834.858 953.176 834.867 947.93C834.934 911.632 834.905 887.37 834.781 875.143C834.71 867.547 828.816 863.713 821.978 862.984Z" fill="#1F3C73"/>
<path d="M969.048 856.831C976.295 856.831 983.548 856.831 990.805 856.831C991.026 856.832 991.238 856.909 991.408 857.047C991.577 857.185 991.693 857.376 991.735 857.589L992.651 862.024C992.674 862.135 992.674 862.25 992.651 862.361C992.629 862.472 992.584 862.577 992.519 862.67C992.455 862.763 992.372 862.841 992.277 862.899C992.181 862.958 992.075 862.996 991.964 863.011C984.583 864.055 979.304 867.66 979.104 875.814C979.066 877.703 979.042 890.635 979.033 914.611C979.023 938.597 979.042 951.534 979.09 953.422C979.29 961.576 984.554 965.196 991.936 966.24C992.046 966.255 992.153 966.293 992.248 966.351C992.344 966.41 992.426 966.488 992.491 966.581C992.555 966.673 992.6 966.778 992.623 966.89C992.645 967.001 992.645 967.116 992.622 967.227L991.707 971.662C991.661 971.872 991.544 972.06 991.375 972.195C991.206 972.33 990.995 972.405 990.777 972.406C983.519 972.406 976.267 972.401 969.019 972.391C961.781 972.391 954.528 972.391 947.261 972.391C947.043 972.39 946.832 972.316 946.663 972.181C946.494 972.046 946.377 971.857 946.331 971.647L945.416 967.213C945.393 967.101 945.393 966.986 945.415 966.875C945.438 966.764 945.483 966.659 945.547 966.566C945.612 966.474 945.694 966.396 945.79 966.337C945.885 966.278 945.992 966.241 946.102 966.226C953.484 965.181 958.762 961.576 958.963 953.422C959.01 951.534 959.034 938.597 959.034 914.611C959.044 890.625 959.025 877.688 958.977 875.8C958.791 867.646 953.512 864.041 946.131 862.996C946.02 862.981 945.914 862.944 945.818 862.885C945.723 862.826 945.64 862.748 945.576 862.656C945.511 862.563 945.467 862.458 945.444 862.347C945.421 862.236 945.421 862.121 945.444 862.009L946.36 857.575C946.403 857.362 946.518 857.17 946.688 857.032C946.857 856.894 947.07 856.818 947.29 856.816C954.557 856.826 961.809 856.831 969.048 856.831Z" fill="#1F3C73"/>
<path d="M1875.19 914.597C1875.21 938.573 1875.24 951.505 1875.29 953.393C1875.49 961.548 1880.77 965.153 1888.15 966.197C1888.26 966.212 1888.37 966.25 1888.46 966.308C1888.56 966.367 1888.64 966.445 1888.71 966.538C1888.77 966.63 1888.82 966.735 1888.84 966.847C1888.86 966.958 1888.86 967.073 1888.84 967.184L1887.92 971.604C1887.88 971.817 1887.76 972.009 1887.59 972.147C1887.43 972.285 1887.21 972.361 1886.99 972.363C1879.74 972.363 1872.49 972.367 1865.25 972.377C1858 972.386 1850.75 972.396 1843.49 972.406C1843.27 972.404 1843.06 972.328 1842.89 972.19C1842.72 972.052 1842.6 971.86 1842.56 971.647L1841.65 967.213C1841.62 967.101 1841.62 966.986 1841.65 966.875C1841.67 966.764 1841.71 966.659 1841.78 966.566C1841.84 966.474 1841.92 966.396 1842.02 966.337C1842.12 966.278 1842.22 966.241 1842.33 966.226C1849.7 965.181 1854.98 961.576 1855.16 953.422C1855.21 951.534 1855.22 938.601 1855.19 914.625C1855.17 890.649 1855.14 877.717 1855.09 875.829C1854.89 867.674 1849.61 864.069 1842.23 863.025C1842.12 863.01 1842.02 862.972 1841.92 862.915C1841.83 862.857 1841.75 862.78 1841.68 862.689C1841.62 862.598 1841.57 862.495 1841.55 862.385C1841.53 862.276 1841.52 862.163 1841.55 862.052L1842.46 857.618C1842.5 857.405 1842.62 857.213 1842.79 857.075C1842.96 856.937 1843.17 856.861 1843.39 856.859C1850.65 856.859 1857.9 856.854 1865.13 856.845C1872.38 856.835 1879.64 856.826 1886.89 856.816C1887.11 856.818 1887.33 856.894 1887.49 857.032C1887.66 857.17 1887.78 857.362 1887.82 857.575L1888.74 862.009C1888.76 862.121 1888.76 862.236 1888.74 862.347C1888.72 862.458 1888.67 862.563 1888.61 862.656C1888.54 862.748 1888.46 862.826 1888.36 862.885C1888.27 862.944 1888.16 862.981 1888.05 862.996C1880.68 864.041 1875.41 867.66 1875.22 875.8C1875.17 877.688 1875.16 890.62 1875.19 914.597Z" fill="#1F3C73"/>
<path d="M2020.29 938.473C2020.33 938.517 2020.38 938.548 2020.44 938.562C2020.49 938.576 2020.56 938.571 2020.61 938.549C2020.66 938.527 2020.71 938.489 2020.74 938.44C2020.78 938.39 2020.79 938.332 2020.79 938.273C2020.75 902.518 2020.76 883.453 2020.8 881.079C2021.05 868.933 2016.8 864.871 2005.23 862.982C2004.96 862.938 2004.72 862.809 2004.54 862.614C2004.37 862.42 2004.26 862.171 2004.24 861.909C2004.12 860.288 2004.3 858.915 2004.77 857.789C2004.89 857.513 2005.08 857.277 2005.33 857.112C2005.58 856.947 2005.87 856.859 2006.17 856.859H2044.08C2044.48 856.859 2044.87 857.019 2045.15 857.304C2045.43 857.588 2045.59 857.974 2045.59 858.376V862.21C2045.59 862.469 2045.5 862.718 2045.33 862.913C2045.16 863.108 2044.92 863.234 2044.66 863.268C2040.3 863.84 2035.54 866.659 2033.74 870.393C2032.95 872.014 2032.56 875.218 2032.56 880.006C2032.54 925.24 2032.58 949.836 2032.68 953.794C2032.83 960.298 2033.44 966.235 2034.52 971.605C2034.59 971.922 2034.54 972.252 2034.38 972.533C2034.22 972.815 2033.97 973.028 2033.66 973.135C2028.9 974.852 2026.43 973.936 2022.74 970.074C1982.81 928.302 1958.28 902.633 1949.15 893.067C1948.01 891.865 1947.02 890.907 1946.19 890.191C1946.15 890.156 1946.1 890.133 1946.04 890.126C1945.99 890.118 1945.93 890.126 1945.88 890.148C1945.84 890.171 1945.79 890.207 1945.76 890.253C1945.73 890.298 1945.72 890.352 1945.72 890.406C1945.62 901.87 1945.63 922.751 1945.75 953.05C1945.77 961.934 1953.34 964.423 1961.05 966.197C1961.28 966.248 1961.48 966.361 1961.64 966.523C1961.8 966.685 1961.92 966.889 1961.97 967.113C1962.43 969.03 1962.18 970.575 1961.24 971.748C1961.07 971.953 1960.86 972.119 1960.63 972.233C1960.39 972.347 1960.13 972.406 1959.86 972.406H1921.67C1921.42 972.405 1921.17 972.337 1920.96 972.208C1920.75 972.079 1920.58 971.895 1920.47 971.676C1919.75 970.293 1919.52 968.867 1919.75 967.399C1919.8 967.117 1919.93 966.855 1920.12 966.642C1920.31 966.429 1920.55 966.275 1920.83 966.197C1927.55 964.28 1933.77 961.147 1933.8 953.365C1933.93 912.48 1933.92 888.79 1933.76 882.295C1933.57 874.694 1930.84 867.927 1925.58 861.995C1925.25 861.63 1925.03 861.189 1924.95 860.722C1924.69 859.253 1925.33 858.075 1926.86 857.188C1927.2 856.983 1927.59 856.874 1927.99 856.874H1941.41C1941.95 856.874 1942.49 856.986 1942.99 857.202C1943.49 857.419 1943.94 857.735 1944.32 858.133L2020.29 938.473Z" fill="#1F3C73"/>
<path d="M2112.29 914.595C2112.31 938.581 2112.34 951.518 2112.39 953.406C2112.59 961.561 2117.87 965.151 2125.26 966.196C2125.37 966.211 2125.48 966.249 2125.57 966.307C2125.67 966.366 2125.75 966.444 2125.82 966.536C2125.88 966.629 2125.93 966.734 2125.95 966.845C2125.97 966.956 2125.97 967.071 2125.95 967.183L2125.03 971.618C2124.99 971.827 2124.87 972.016 2124.7 972.151C2124.53 972.286 2124.32 972.36 2124.1 972.361C2116.84 972.371 2109.58 972.376 2102.35 972.376C2095.1 972.385 2087.85 972.395 2080.59 972.404C2080.37 972.403 2080.16 972.329 2079.99 972.194C2079.82 972.059 2079.7 971.87 2079.66 971.66L2078.73 967.226C2078.71 967.114 2078.71 966.999 2078.73 966.888C2078.75 966.777 2078.8 966.672 2078.86 966.579C2078.92 966.487 2079.01 966.409 2079.1 966.35C2079.2 966.291 2079.3 966.254 2079.41 966.239C2086.8 965.18 2092.07 961.575 2092.26 953.421C2092.3 951.532 2092.31 938.595 2092.29 914.61C2092.27 890.624 2092.24 877.687 2092.19 875.799C2091.99 867.644 2086.71 864.054 2079.33 863.009C2079.22 862.994 2079.11 862.956 2079.02 862.898C2078.92 862.839 2078.84 862.761 2078.77 862.669C2078.71 862.576 2078.66 862.471 2078.64 862.36C2078.62 862.249 2078.62 862.134 2078.64 862.022L2079.54 857.588C2079.59 857.378 2079.71 857.189 2079.88 857.054C2080.04 856.919 2080.26 856.845 2080.47 856.844C2087.74 856.834 2094.99 856.829 2102.23 856.829C2109.48 856.82 2116.73 856.81 2123.99 856.801C2124.21 856.802 2124.42 856.876 2124.59 857.011C2124.76 857.146 2124.87 857.335 2124.92 857.545L2125.85 861.979C2125.87 862.091 2125.87 862.206 2125.85 862.317C2125.83 862.428 2125.78 862.533 2125.72 862.626C2125.65 862.718 2125.57 862.796 2125.47 862.855C2125.38 862.914 2125.27 862.952 2125.16 862.966C2117.78 864.025 2112.5 867.63 2112.32 875.784C2112.28 877.673 2112.27 890.61 2112.29 914.595Z" fill="#1F3C73"/>
<path d="M2539.9 938.487C2539.94 938.531 2539.99 938.563 2540.05 938.576C2540.1 938.59 2540.16 938.586 2540.22 938.564C2540.27 938.542 2540.32 938.503 2540.35 938.454C2540.39 938.404 2540.4 938.346 2540.4 938.287C2540.37 902.532 2540.38 883.468 2540.43 881.093C2540.67 868.948 2536.42 864.885 2524.86 862.997C2524.6 862.953 2524.36 862.823 2524.18 862.628C2524 862.434 2523.9 862.186 2523.88 861.924C2523.76 860.302 2523.94 858.929 2524.41 857.804C2524.53 857.527 2524.72 857.291 2524.97 857.126C2525.22 856.961 2525.51 856.873 2525.81 856.874L2563.7 856.888C2564.1 856.888 2564.49 857.048 2564.77 857.332C2565.06 857.617 2565.22 858.002 2565.22 858.404V862.238C2565.22 862.497 2565.12 862.747 2564.95 862.942C2564.78 863.136 2564.55 863.262 2564.29 863.297C2559.93 863.869 2555.16 866.673 2553.36 870.407C2552.58 872.028 2552.19 875.233 2552.19 880.02C2552.16 925.254 2552.19 949.851 2552.29 953.808C2552.43 960.313 2553.04 966.25 2554.12 971.619C2554.18 971.934 2554.13 972.261 2553.97 972.539C2553.81 972.817 2553.56 973.029 2553.26 973.135C2548.5 974.852 2546.02 973.936 2542.33 970.074C2502.42 928.302 2477.91 902.633 2468.79 893.067C2467.64 891.865 2466.66 890.907 2465.83 890.191C2465.79 890.156 2465.74 890.133 2465.68 890.126C2465.63 890.118 2465.57 890.126 2465.52 890.148C2465.47 890.171 2465.43 890.207 2465.4 890.253C2465.37 890.298 2465.36 890.352 2465.36 890.406C2465.25 901.86 2465.25 922.737 2465.36 953.036C2465.38 961.92 2472.95 964.409 2480.66 966.183C2480.88 966.234 2481.09 966.347 2481.25 966.509C2481.41 966.671 2481.53 966.875 2481.58 967.098C2482.03 969.015 2481.79 970.56 2480.85 971.733C2480.68 971.939 2480.47 972.105 2480.24 972.219C2480 972.332 2479.74 972.392 2479.47 972.391L2441.28 972.377C2441.03 972.377 2440.78 972.308 2440.57 972.18C2440.36 972.051 2440.19 971.867 2440.08 971.647C2439.36 970.265 2439.12 968.839 2439.36 967.37C2439.41 967.089 2439.53 966.826 2439.72 966.613C2439.91 966.4 2440.16 966.246 2440.44 966.168C2447.16 964.266 2453.38 961.133 2453.41 953.351C2453.56 912.465 2453.56 888.775 2453.4 882.28C2453.21 874.679 2450.48 867.913 2445.21 861.981C2444.89 861.616 2444.67 861.175 2444.58 860.708C2444.33 859.239 2444.97 858.061 2446.5 857.174C2446.84 856.968 2447.23 856.859 2447.63 856.859L2461.05 856.874C2461.59 856.874 2462.13 856.986 2462.63 857.202C2463.13 857.419 2463.58 857.735 2463.95 858.133L2539.9 938.487Z" fill="#1F3C73"/>
</svg>
