<svg width="708" height="364" viewBox="0 0 708 364" fill="none" xmlns="http://www.w3.org/2000/svg">
<path d="M302.296 46.7812H255.636C255.233 46.7812 254.906 47.1081 254.906 47.5112V236.311C254.906 236.714 255.233 237.041 255.636 237.041H302.296C302.699 237.041 303.026 236.714 303.026 236.311V47.5112C303.026 47.1081 302.699 46.7812 302.296 46.7812Z" fill="#F16726"/>
<path d="M376.737 46.75H330.877C330.241 46.75 329.727 47.2649 329.727 47.9V235.88C329.727 236.515 330.241 237.03 330.877 237.03H376.737C377.372 237.03 377.887 236.515 377.887 235.88V47.9C377.887 47.2649 377.372 46.75 376.737 46.75Z" fill="#F16726"/>
<path d="M514.224 135.488C514.171 135.522 514.13 135.569 514.103 135.625C514.077 135.681 514.066 135.744 514.074 135.805C514.081 135.867 514.106 135.925 514.145 135.974C514.183 136.022 514.235 136.058 514.294 136.078C536.004 143.748 543.314 161.208 543.644 182.838C543.914 200.538 536.044 221.388 519.514 230.298C516.614 231.858 512.35 233.158 506.724 234.198C496.024 236.178 487.2 237.158 480.254 237.138C454.694 237.072 429.107 237.058 403.494 237.098C403.321 237.098 403.156 237.03 403.034 236.908C402.912 236.786 402.844 236.621 402.844 236.448V47.2184C402.844 47.1177 402.884 47.021 402.955 46.9497C403.026 46.8785 403.123 46.8384 403.224 46.8384C436.984 46.7518 466.904 46.7518 492.984 46.8384C514.334 46.9084 530.104 60.0084 534.904 80.4884C538.814 97.1684 536.214 116.528 523.674 128.798C520.974 131.438 517.764 133.268 514.224 135.488ZM451.294 86.8384L451.114 120.098C451.114 120.276 451.184 120.447 451.31 120.572C451.436 120.698 451.606 120.768 451.784 120.768L473.894 120.888C475.956 120.899 477.999 120.512 479.908 119.749C481.817 118.986 483.554 117.862 485.019 116.441C486.485 115.02 487.65 113.331 488.449 111.468C489.247 109.606 489.664 107.608 489.674 105.588L489.694 101.748C489.715 97.6697 488.081 93.7495 485.151 90.8502C482.222 87.951 478.237 86.3101 474.074 86.2884L451.964 86.1685C451.786 86.1685 451.616 86.239 451.49 86.3647C451.364 86.4903 451.294 86.6607 451.294 86.8384ZM451.144 158.878L451.264 194.498C451.264 194.584 451.281 194.668 451.313 194.747C451.346 194.826 451.394 194.898 451.454 194.958C451.514 195.018 451.586 195.066 451.665 195.099C451.744 195.132 451.828 195.148 451.914 195.148L478.054 195.048C482.729 195.032 487.207 193.222 490.502 190.017C493.797 186.812 495.639 182.475 495.624 177.958L495.614 175.098C495.598 170.583 493.727 166.259 490.412 163.077C487.097 159.894 482.608 158.115 477.934 158.128L451.794 158.228C451.621 158.228 451.456 158.297 451.334 158.419C451.212 158.541 451.144 158.706 451.144 158.878Z" fill="#F16726"/>
<path d="M561.932 46.7812H608.322C608.542 46.7812 608.753 46.8687 608.909 47.0244C609.064 47.18 609.152 47.3911 609.152 47.6113V236.231C609.152 236.451 609.064 236.662 608.909 236.818C608.753 236.974 608.542 237.061 608.322 237.061H561.932C561.711 237.061 561.5 236.974 561.345 236.818C561.189 236.662 561.102 236.451 561.102 236.231V47.6113C561.102 47.3911 561.189 47.18 561.345 47.0244C561.5 46.8687 561.711 46.7812 561.932 46.7812Z" fill="#F16726"/>
<path d="M183.748 62.9715C179.722 67.0048 174.792 71.8881 168.958 77.6215C168.88 77.699 168.781 77.7521 168.673 77.7743C168.565 77.7965 168.453 77.7869 168.35 77.7467C168.247 77.7065 168.158 77.6373 168.094 77.5477C168.03 77.458 167.993 77.3516 167.988 77.2415L167.808 73.1815C167.787 72.7179 167.861 72.2555 168.026 71.8235C168.191 71.3914 168.444 70.9992 168.768 70.6715C172.582 66.7648 176.335 62.9615 180.028 59.2615C183.722 55.5615 187.518 51.7982 191.418 47.9715C191.746 47.6472 192.138 47.3945 192.57 47.2293C193.002 47.064 193.465 46.9899 193.928 47.0115L197.988 47.1815C198.099 47.1864 198.205 47.2232 198.295 47.2874C198.384 47.3515 198.453 47.4403 198.494 47.543C198.534 47.6457 198.543 47.7578 198.521 47.8658C198.499 47.9738 198.446 48.073 198.368 48.1515C192.648 53.9915 187.775 58.9315 183.748 62.9715Z" fill="#156637"/>
<path d="M167.969 88.4701V83.9C167.969 83.7649 168.023 83.6355 168.119 83.5401L204.369 47.29C204.459 47.1991 204.581 47.1455 204.709 47.1401L209.489 46.93C209.591 46.9262 209.692 46.9533 209.779 47.0078C209.866 47.0623 209.934 47.1417 209.975 47.2356C210.016 47.3295 210.028 47.4335 210.009 47.5342C209.99 47.6349 209.941 47.7275 209.869 47.8001L168.839 88.83C168.767 88.9011 168.677 88.9495 168.578 88.9691C168.479 88.9887 168.377 88.9786 168.284 88.9401C168.191 88.9016 168.111 88.8364 168.055 88.7527C167.999 88.6691 167.969 88.5707 167.969 88.4701Z" fill="#156637"/>
<path d="M195.2 74.0917C177.96 91.3517 169.147 100.195 168.76 100.622C168.721 100.668 168.669 100.703 168.611 100.721C168.553 100.739 168.491 100.741 168.432 100.725C168.373 100.709 168.32 100.677 168.279 100.632C168.238 100.587 168.21 100.532 168.2 100.472C167.51 97.0617 168.17 95.5517 170.83 92.8217C171.01 92.635 178.187 85.445 192.36 71.2517C206.533 57.065 213.713 49.8817 213.9 49.7017C216.63 47.0417 218.14 46.3717 221.55 47.0617C221.61 47.0723 221.665 47.0998 221.71 47.141C221.755 47.1821 221.787 47.2352 221.803 47.294C221.819 47.3527 221.817 47.4148 221.799 47.4728C221.781 47.5309 221.746 47.5825 221.7 47.6217C221.273 48.0083 212.44 56.8317 195.2 74.0917Z" fill="#156637"/>
<path d="M167.867 112.53V109.97C167.867 108.912 168.28 107.896 169.017 107.14C201.031 74.5797 220.574 54.833 227.647 47.8997C228.341 47.2263 229.191 46.963 230.197 47.1097C230.406 47.1389 230.601 47.2342 230.752 47.3817C230.903 47.5293 231.003 47.7212 231.037 47.9297C231.324 49.663 230.894 51.0997 229.747 52.2397C210.781 71.1597 190.591 91.433 169.177 113.06C169.069 113.167 168.932 113.24 168.783 113.27C168.634 113.301 168.48 113.286 168.34 113.23C168.199 113.173 168.08 113.076 167.996 112.952C167.912 112.827 167.867 112.68 167.867 112.53Z" fill="#156637"/>
<path d="M167.844 53.4619V47.9519C167.844 47.745 167.925 47.5466 168.069 47.4003C168.214 47.2541 168.41 47.1719 168.614 47.1719H173.394C173.567 47.1728 173.736 47.2249 173.88 47.3216C174.024 47.4184 174.136 47.5555 174.203 47.7157C174.269 47.876 174.286 48.0522 174.253 48.2223C174.219 48.3924 174.136 48.5488 174.014 48.6719L168.824 53.8619C168.745 53.9438 168.643 54.0002 168.531 54.0237C168.42 54.0472 168.304 54.0367 168.198 53.9937C168.093 53.9506 168.003 53.8769 167.94 53.7821C167.876 53.6873 167.843 53.5758 167.844 53.4619Z" fill="#156637"/>
<path d="M181.471 47.1289H184.941C185.087 47.1282 185.231 47.1709 185.353 47.2515C185.475 47.3322 185.57 47.4472 185.627 47.582C185.683 47.7168 185.699 47.8654 185.671 48.009C185.644 48.1526 185.574 48.2848 185.471 48.3889L174.621 59.2389C174.508 59.3517 174.374 59.4412 174.227 59.5023C174.08 59.5633 173.922 59.5948 173.763 59.5948C173.604 59.5948 173.447 59.5633 173.301 59.5023C173.155 59.4412 173.022 59.3517 172.911 59.2389L171.151 57.4789C171.044 57.3721 170.959 57.245 170.901 57.1052C170.842 56.9653 170.813 56.8154 170.812 56.6639C170.813 56.5124 170.842 56.3625 170.901 56.2226C170.959 56.0828 171.044 55.9558 171.151 55.8489L178.741 48.2589C179.1 47.9005 179.525 47.6162 179.994 47.4224C180.462 47.2285 180.964 47.1288 181.471 47.1289Z" fill="#156637"/>
<path d="M167.992 124.418V119.978C167.992 119.814 168.057 119.656 168.172 119.538L229.982 57.7282C230.07 57.6388 230.182 57.5776 230.304 57.5522C230.427 57.5268 230.554 57.5384 230.67 57.5856C230.786 57.6328 230.885 57.7134 230.955 57.8172C231.025 57.9209 231.062 58.0431 231.062 58.1682V62.5982C231.062 62.7627 230.997 62.9206 230.882 63.0382L169.072 124.858C168.985 124.947 168.873 125.009 168.75 125.034C168.628 125.06 168.5 125.048 168.384 125.001C168.269 124.954 168.169 124.873 168.1 124.769C168.03 124.665 167.992 124.543 167.992 124.418Z" fill="#156637"/>
<path d="M167.69 136.249L168.38 131.849C168.408 131.668 168.492 131.5 168.62 131.369L229.84 70.1389C229.972 70.0081 230.141 69.9222 230.325 69.8934C230.508 69.8647 230.695 69.8946 230.861 69.9789C231.026 70.0632 231.16 70.1975 231.245 70.3628C231.329 70.528 231.359 70.7156 231.33 70.8989L230.64 75.3189C230.612 75.5 230.528 75.6678 230.4 75.7989L169.18 137.009C169.049 137.14 168.879 137.226 168.696 137.254C168.513 137.283 168.325 137.253 168.16 137.169C167.995 137.085 167.86 136.95 167.776 136.785C167.692 136.62 167.662 136.432 167.69 136.249Z" fill="#156637"/>
<path d="M167.883 148.82V144.33C167.882 144.248 167.898 144.167 167.929 144.092C167.96 144.016 168.005 143.948 168.063 143.89L229.953 81.9996C230.04 81.9123 230.15 81.8527 230.271 81.8285C230.392 81.8043 230.517 81.8166 230.631 81.8638C230.744 81.911 230.841 81.9909 230.909 82.0935C230.977 82.196 231.013 82.3165 231.013 82.4396V86.9296C231.013 87.0112 230.998 87.092 230.967 87.1675C230.936 87.2431 230.89 87.3117 230.833 87.3696L168.943 149.26C168.856 149.347 168.745 149.407 168.625 149.431C168.504 149.455 168.379 149.443 168.265 149.395C168.151 149.348 168.054 149.268 167.986 149.166C167.918 149.063 167.882 148.943 167.883 148.82Z" fill="#156637"/>
<path d="M230.913 94.4301V98.9001C230.913 98.9856 230.897 99.0703 230.864 99.1493C230.831 99.2283 230.783 99.3 230.723 99.3601L168.903 161.19C168.812 161.279 168.698 161.34 168.574 161.364C168.449 161.387 168.32 161.374 168.204 161.325C168.087 161.275 167.987 161.193 167.918 161.087C167.848 160.981 167.812 160.857 167.813 160.73V156.26C167.812 156.175 167.828 156.09 167.861 156.011C167.894 155.932 167.942 155.86 168.003 155.8L229.823 93.9701C229.913 93.881 230.027 93.8207 230.152 93.7967C230.276 93.7727 230.405 93.7863 230.521 93.8355C230.638 93.8848 230.738 93.9676 230.807 94.0734C230.877 94.1793 230.914 94.3034 230.913 94.4301Z" fill="#156637"/>
<path d="M226.261 112.52L224.241 110.67C224.147 110.585 224.092 110.466 224.086 110.339C224.081 110.212 224.125 110.086 224.211 109.99L230.181 103.49C230.231 103.435 230.296 103.396 230.368 103.375C230.44 103.355 230.516 103.354 230.588 103.374C230.66 103.393 230.725 103.432 230.777 103.486C230.828 103.54 230.864 103.607 230.881 103.68C231.641 107.393 230.394 110.363 227.141 112.59C227.008 112.681 226.848 112.724 226.688 112.711C226.528 112.698 226.377 112.631 226.261 112.52Z" fill="#156637"/>
<path d="M230.983 122.058L231.103 125.268C231.109 125.406 231.074 125.542 231.003 125.659C230.932 125.777 230.828 125.871 230.704 125.929C230.581 125.987 230.443 126.007 230.309 125.985C230.175 125.964 230.051 125.902 229.953 125.808L219.503 116.139C219.394 116.038 219.306 115.918 219.244 115.783C219.182 115.649 219.147 115.504 219.141 115.356C219.136 115.208 219.16 115.061 219.211 114.922C219.263 114.783 219.342 114.657 219.443 114.548L221.013 112.849C221.108 112.744 221.223 112.66 221.351 112.601C221.479 112.542 221.618 112.509 221.759 112.504C221.901 112.5 222.042 112.523 222.175 112.574C222.308 112.624 222.429 112.701 222.533 112.798L229.843 119.558C230.188 119.879 230.466 120.265 230.662 120.694C230.857 121.123 230.966 121.587 230.983 122.058Z" fill="#156637"/>
<path d="M230.947 115.587C230.867 115.007 230.562 114.57 230.267 114.611C229.972 114.652 229.797 115.155 229.878 115.735C229.958 116.315 230.263 116.752 230.558 116.711C230.854 116.67 231.028 116.167 230.947 115.587Z" fill="#156637"/>
<path d="M212.869 121.221L215.329 118.771C215.424 118.677 215.553 118.623 215.687 118.621C215.821 118.619 215.951 118.669 216.049 118.761L230.779 132.281C230.831 132.328 230.872 132.385 230.902 132.449C230.931 132.512 230.947 132.581 230.949 132.651L231.079 137.481C231.082 137.583 231.055 137.684 231.001 137.771C230.947 137.857 230.869 137.926 230.776 137.969C230.683 138.012 230.58 138.026 230.479 138.01C230.378 137.995 230.284 137.95 230.209 137.881L212.889 121.971C212.837 121.924 212.795 121.867 212.766 121.803C212.737 121.739 212.721 121.67 212.719 121.6C212.717 121.53 212.729 121.46 212.755 121.395C212.781 121.33 212.82 121.271 212.869 121.221Z" fill="#156637"/>
<path d="M190.495 188.836L117.99 122.164C117.685 121.884 117.21 121.903 116.93 122.208L114.967 124.343C114.687 124.648 114.706 125.122 115.011 125.403L187.517 192.075C187.822 192.355 188.296 192.336 188.577 192.031L190.54 189.896C190.82 189.591 190.8 189.117 190.495 188.836Z" fill="#156637"/>
<path d="M206.95 127.229L208.96 125.029C209.027 124.957 209.108 124.899 209.197 124.857C209.287 124.816 209.383 124.793 209.482 124.79C209.58 124.786 209.678 124.802 209.771 124.836C209.863 124.87 209.948 124.922 210.02 124.989L230.33 143.639C230.451 143.75 230.531 143.898 230.56 144.059L231.37 148.849C231.395 149.002 231.372 149.159 231.304 149.299C231.236 149.438 231.126 149.553 230.991 149.628C230.855 149.702 230.699 149.733 230.545 149.715C230.391 149.697 230.246 149.633 230.13 149.529L206.99 128.289C206.918 128.222 206.86 128.142 206.818 128.052C206.777 127.963 206.754 127.866 206.751 127.767C206.747 127.669 206.763 127.571 206.797 127.478C206.831 127.386 206.883 127.301 206.95 127.229Z" fill="#156637"/>
<path d="M184.436 195.135L111.695 128.247C111.484 128.052 111.155 128.066 110.961 128.277L108.686 130.751C108.492 130.962 108.506 131.291 108.717 131.485L181.458 198.374C181.67 198.569 181.998 198.555 182.193 198.343L184.467 195.87C184.662 195.659 184.648 195.33 184.436 195.135Z" fill="#156637"/>
<path d="M200.69 133.671L202.99 131.171C203.041 131.115 203.103 131.069 203.172 131.036C203.241 131.004 203.315 130.985 203.391 130.981C203.468 130.977 203.544 130.989 203.616 131.015C203.687 131.04 203.753 131.08 203.81 131.131L230.75 155.861C230.807 155.913 230.854 155.977 230.886 156.047C230.919 156.117 230.937 156.194 230.94 156.271L231.08 161.021C231.082 161.134 231.051 161.246 230.99 161.342C230.93 161.437 230.843 161.513 230.739 161.56C230.636 161.607 230.522 161.623 230.41 161.605C230.298 161.587 230.194 161.537 230.11 161.461L200.73 134.491C200.673 134.44 200.627 134.378 200.595 134.309C200.562 134.24 200.543 134.166 200.54 134.089C200.536 134.013 200.547 133.937 200.573 133.865C200.599 133.794 200.639 133.728 200.69 133.671Z" fill="#156637"/>
<path d="M178.303 201.37L105.723 134.63C105.484 134.409 105.11 134.425 104.89 134.665L102.71 137.035C102.49 137.275 102.505 137.648 102.745 137.869L175.324 204.609C175.564 204.829 175.937 204.814 176.158 204.574L178.337 202.203C178.558 201.964 178.542 201.59 178.303 201.37Z" fill="#156637"/>
<path d="M194.722 139.789L196.922 137.589C197.046 137.466 197.213 137.395 197.388 137.391C197.563 137.387 197.733 137.451 197.862 137.569L230.802 167.809C230.871 167.873 230.927 167.95 230.965 168.036C231.002 168.122 231.022 168.215 231.022 168.309V172.519C231.022 172.651 230.983 172.78 230.911 172.891C230.839 173.001 230.736 173.088 230.615 173.141C230.494 173.194 230.361 173.211 230.231 173.189C230.1 173.168 229.979 173.109 229.882 173.019L194.742 140.769C194.675 140.707 194.621 140.632 194.583 140.549C194.546 140.465 194.525 140.375 194.524 140.284C194.522 140.192 194.538 140.101 194.572 140.016C194.607 139.931 194.657 139.854 194.722 139.789Z" fill="#156637"/>
<path d="M172.025 207.361L99.595 140.991C99.2448 140.67 98.7008 140.694 98.3799 141.044L96.5693 143.02C96.2485 143.37 96.2722 143.914 96.6224 144.235L169.053 210.605C169.403 210.926 169.947 210.902 170.268 210.552L172.078 208.576C172.399 208.226 172.375 207.682 172.025 207.361Z" fill="#156637"/>
<path d="M188.488 146.071L190.778 143.781C190.891 143.667 191.044 143.602 191.204 143.598C191.365 143.594 191.52 143.653 191.638 143.761L230.818 179.741C230.881 179.799 230.931 179.868 230.965 179.946C230.999 180.023 231.018 180.107 231.018 180.191V184.581C231.019 184.702 230.985 184.82 230.919 184.922C230.853 185.023 230.76 185.103 230.649 185.152C230.539 185.201 230.416 185.217 230.297 185.197C230.178 185.177 230.067 185.123 229.978 185.041L188.508 146.971C188.446 146.915 188.396 146.846 188.361 146.769C188.326 146.693 188.307 146.61 188.305 146.526C188.303 146.441 188.318 146.358 188.35 146.279C188.381 146.201 188.429 146.131 188.488 146.071Z" fill="#156637"/>
<path d="M165.994 213.829L93.4146 147.089C93.1382 146.835 92.708 146.853 92.4538 147.129L90.4096 149.352C90.1554 149.629 90.1734 150.059 90.4499 150.313L163.029 217.053C163.306 217.307 163.736 217.289 163.99 217.013L166.034 214.79C166.288 214.514 166.27 214.083 165.994 213.829Z" fill="#156637"/>
<path d="M182.447 152.219L184.447 150.059C184.577 149.916 184.758 149.831 184.951 149.821C185.144 149.812 185.333 149.879 185.477 150.009L230.297 191.159C230.415 191.271 230.492 191.419 230.517 191.579L231.317 196.309C231.341 196.459 231.319 196.612 231.252 196.748C231.186 196.884 231.079 196.996 230.946 197.069C230.813 197.141 230.661 197.171 230.51 197.153C230.36 197.135 230.219 197.071 230.107 196.969L182.497 153.249C182.354 153.119 182.268 152.938 182.259 152.744C182.249 152.551 182.317 152.362 182.447 152.219Z" fill="#156637"/>
<path d="M159.872 220.083L87.3664 153.41C87.0777 153.145 86.6286 153.164 86.3632 153.452L84.3596 155.631C84.0942 155.92 84.113 156.369 84.4017 156.634L156.907 223.307C157.196 223.572 157.645 223.553 157.91 223.265L159.914 221.086C160.179 220.797 160.161 220.348 159.872 220.083Z" fill="#156637"/>
<path d="M176.289 158.599L178.449 156.259C178.504 156.198 178.57 156.149 178.645 156.114C178.719 156.079 178.799 156.059 178.881 156.055C178.963 156.052 179.044 156.064 179.121 156.092C179.198 156.12 179.269 156.163 179.329 156.219L230.699 203.389C230.82 203.5 230.892 203.655 230.899 203.819L231.109 208.329C231.114 208.451 231.082 208.572 231.018 208.677C230.954 208.782 230.861 208.865 230.749 208.916C230.638 208.967 230.514 208.985 230.393 208.966C230.272 208.946 230.159 208.892 230.069 208.809L176.329 159.479C176.268 159.424 176.219 159.357 176.184 159.283C176.149 159.209 176.129 159.129 176.126 159.047C176.122 158.965 176.134 158.884 176.163 158.807C176.191 158.73 176.234 158.659 176.289 158.599Z" fill="#156637"/>
<path d="M153.76 226.217L81.3146 159.833C80.9726 159.52 80.4412 159.543 80.1278 159.885L78.3037 161.876C77.9903 162.218 78.0135 162.749 78.3555 163.062L150.8 229.446C151.142 229.759 151.674 229.736 151.987 229.394L153.811 227.403C154.125 227.061 154.102 226.53 153.76 226.217Z" fill="#156637"/>
<path d="M170.428 164.799L172.308 162.759C172.457 162.598 172.664 162.502 172.883 162.493C173.102 162.484 173.316 162.561 173.478 162.709L230.208 214.799C230.345 214.923 230.436 215.088 230.468 215.269L231.218 219.719C231.247 219.89 231.222 220.066 231.146 220.221C231.071 220.377 230.948 220.505 230.796 220.588C230.644 220.67 230.47 220.703 230.298 220.682C230.127 220.661 229.966 220.587 229.838 220.469L170.478 165.969C170.317 165.821 170.221 165.614 170.212 165.395C170.202 165.176 170.28 164.961 170.428 164.799Z" fill="#156637"/>
<path d="M147.616 232.545L75.1403 165.9C74.8557 165.638 74.4129 165.656 74.1512 165.941L72.1206 168.149C71.8589 168.434 71.8774 168.877 72.162 169.138L144.638 235.784C144.923 236.045 145.366 236.027 145.627 235.742L147.658 233.534C147.92 233.249 147.901 232.806 147.616 232.545Z" fill="#156637"/>
<path d="M195.133 193.071L196.863 194.661C196.951 194.741 197.021 194.838 197.07 194.946C197.119 195.054 197.146 195.171 197.149 195.29C197.152 195.408 197.13 195.526 197.087 195.636C197.043 195.747 196.977 195.847 196.893 195.931L157.123 235.701C156.993 235.833 156.825 235.92 156.643 235.951L152.653 236.621C152.469 236.652 152.28 236.624 152.112 236.541C151.945 236.458 151.809 236.323 151.723 236.157C151.637 235.992 151.607 235.803 151.635 235.618C151.664 235.434 151.751 235.263 151.883 235.131L193.913 193.101C194.073 192.939 194.29 192.846 194.517 192.84C194.744 192.835 194.965 192.917 195.133 193.071Z" fill="#156637"/>
<path d="M200.998 198.33L203.228 200.56C203.32 200.654 203.371 200.78 203.371 200.91C203.371 201.041 203.32 201.167 203.228 201.26L168.378 236.11C168.289 236.202 168.167 236.256 168.038 236.26L163.458 236.38C163.359 236.383 163.261 236.356 163.177 236.302C163.093 236.249 163.027 236.171 162.987 236.08C162.947 235.989 162.936 235.888 162.954 235.79C162.972 235.692 163.019 235.602 163.088 235.53L200.298 198.33C200.392 198.239 200.518 198.188 200.648 198.188C200.779 198.188 200.905 198.239 200.998 198.33Z" fill="#156637"/>
<path d="M207.313 204.361L209.033 206.081C209.201 206.251 209.296 206.481 209.296 206.721C209.296 206.96 209.201 207.19 209.033 207.361L180.743 235.641C180.609 235.773 180.438 235.86 180.253 235.891L176.153 236.591C175.962 236.624 175.766 236.596 175.592 236.51C175.419 236.424 175.278 236.285 175.188 236.114C175.099 235.942 175.067 235.747 175.097 235.555C175.126 235.364 175.216 235.187 175.353 235.051L206.033 204.361C206.203 204.192 206.433 204.098 206.673 204.098C206.912 204.098 207.142 204.192 207.313 204.361Z" fill="#156637"/>
<path d="M187.586 234.899L211.846 209.959C212.042 209.761 212.306 209.645 212.585 209.634C212.863 209.623 213.135 209.718 213.346 209.899L214.916 211.249C215.031 211.348 215.124 211.469 215.189 211.606C215.255 211.742 215.292 211.89 215.297 212.041C215.303 212.192 215.277 212.343 215.222 212.484C215.167 212.624 215.083 212.752 214.976 212.859L192.376 235.629C192.233 235.772 192.053 235.872 191.856 235.919L188.646 236.739C188.413 236.801 188.165 236.784 187.942 236.691C187.719 236.598 187.533 236.434 187.412 236.225C187.292 236.016 187.244 235.772 187.275 235.533C187.306 235.293 187.416 235.071 187.586 234.899Z" fill="#156637"/>
<path d="M219.366 215.579L221.306 217.519C221.371 217.583 221.422 217.66 221.458 217.744C221.493 217.828 221.511 217.918 221.511 218.009C221.511 218.1 221.493 218.191 221.458 218.275C221.422 218.359 221.371 218.435 221.306 218.499L203.996 235.809C203.894 235.915 203.761 235.985 203.616 236.009L198.936 236.799C198.792 236.823 198.644 236.801 198.513 236.735C198.382 236.669 198.276 236.564 198.209 236.433C198.142 236.303 198.118 236.155 198.141 236.011C198.164 235.866 198.233 235.732 198.336 235.629L218.386 215.579C218.451 215.514 218.527 215.463 218.611 215.428C218.695 215.393 218.785 215.375 218.876 215.375C218.968 215.375 219.058 215.393 219.142 215.428C219.226 215.463 219.302 215.514 219.366 215.579Z" fill="#156637"/>
<path d="M214.087 236.4H211.207C211.082 236.4 210.96 236.362 210.856 236.292C210.752 236.222 210.672 236.123 210.625 236.007C210.577 235.892 210.566 235.764 210.591 235.642C210.617 235.519 210.678 235.407 210.767 235.32L224.807 221.28C224.867 221.22 224.938 221.172 225.016 221.139C225.094 221.107 225.178 221.09 225.262 221.09C225.347 221.09 225.431 221.107 225.509 221.139C225.587 221.172 225.658 221.22 225.717 221.28L227.697 223.25C227.843 223.396 227.924 223.594 227.924 223.8C227.924 224.006 227.843 224.204 227.697 224.35L216.757 235.29C216.406 235.642 215.989 235.921 215.531 236.111C215.072 236.302 214.582 236.4 214.087 236.4Z" fill="#156637"/>
<path d="M230.191 227.298C230.201 227.287 230.214 227.277 230.228 227.27C230.243 227.263 230.258 227.259 230.274 227.258C230.29 227.257 230.305 227.259 230.32 227.265C230.335 227.27 230.349 227.278 230.361 227.288L230.431 227.358C231.196 228.104 231.497 229.264 231.268 230.582C231.039 231.9 230.299 233.269 229.211 234.388L229.111 234.488C228.022 235.606 226.674 236.383 225.364 236.647C224.053 236.912 222.887 236.642 222.121 235.898L222.051 235.838C222.04 235.827 222.031 235.814 222.025 235.799C222.019 235.785 222.016 235.769 222.016 235.753C222.016 235.738 222.019 235.722 222.025 235.707C222.031 235.693 222.04 235.68 222.051 235.668L230.191 227.298Z" fill="#156637"/>
<path d="M571.112 263.388L573.282 259.618C573.409 259.399 573.592 259.217 573.811 259.091C574.031 258.964 574.279 258.898 574.532 258.898H578.172C578.288 258.899 578.402 258.935 578.498 259C578.595 259.066 578.67 259.158 578.714 259.267C578.758 259.375 578.769 259.493 578.745 259.608C578.722 259.722 578.665 259.827 578.582 259.908C576.942 261.468 574.572 264.618 571.442 264.098C571.366 264.087 571.295 264.057 571.234 264.011C571.173 263.965 571.124 263.904 571.092 263.834C571.059 263.764 571.044 263.687 571.047 263.61C571.051 263.532 571.073 263.456 571.112 263.388Z" fill="#156637"/>
<path d="M150.329 272.199C150.33 272.362 150.268 272.517 150.158 272.635C150.049 272.752 149.898 272.822 149.739 272.829L144.269 273.069C144.067 273.079 143.867 273.024 143.696 272.913C143.526 272.802 143.394 272.64 143.319 272.449C142.459 270.136 140.736 269.416 138.149 270.289C137.934 270.363 137.738 270.482 137.574 270.64C137.409 270.798 137.281 270.99 137.198 271.203C137.114 271.417 137.077 271.647 137.09 271.877C137.102 272.108 137.163 272.334 137.269 272.539C137.543 273.066 138.113 273.436 138.979 273.649C143.099 274.629 149.969 275.889 151.089 280.179C152.999 287.479 147.659 291.449 140.879 291.319C134.869 291.199 130.409 290.509 129.149 283.589C129.123 283.447 129.156 283.299 129.241 283.179C129.325 283.059 129.454 282.977 129.599 282.949L135.149 281.999C135.338 281.968 135.532 281.998 135.703 282.084C135.874 282.17 136.012 282.309 136.099 282.479L137.289 284.809C137.322 284.882 137.37 284.947 137.429 284.999C139.169 286.746 141.026 287.006 142.999 285.779C143.467 285.487 143.818 285.041 143.989 284.518C144.161 283.995 144.144 283.429 143.939 282.919C143.673 282.246 143.063 281.763 142.109 281.469C136.689 279.809 126.969 278.089 130.709 269.449C132.479 265.369 139.569 264.659 143.239 265.339C147.299 266.089 150.349 267.769 150.329 272.199Z" fill="#156637"/>
<path d="M294.993 280.293C294.946 283.273 293.717 286.113 291.577 288.188C289.436 290.262 286.559 291.402 283.578 291.355L280.438 291.305C277.458 291.259 274.618 290.03 272.543 287.889C270.469 285.748 269.33 282.871 269.376 279.89L269.431 276.431C269.478 273.45 270.707 270.61 272.847 268.535C274.988 266.461 277.865 265.322 280.846 265.369L283.985 265.418C286.966 265.465 289.806 266.694 291.881 268.834C293.955 270.975 295.094 273.852 295.048 276.833L294.993 280.293ZM282.192 270.922C280.762 270.922 279.392 271.712 278.381 273.118C277.37 274.525 276.802 276.433 276.802 278.422C276.802 280.411 277.37 282.318 278.381 283.725C279.392 285.131 280.762 285.922 282.192 285.922C283.622 285.922 284.992 285.131 286.003 283.725C287.014 282.318 287.582 280.411 287.582 278.422C287.582 276.433 287.014 274.525 286.003 273.118C284.992 271.712 283.622 270.922 282.192 270.922Z" fill="#156637"/>
<path d="M466.164 279.837C466.211 282.826 465.069 285.711 462.989 287.857C460.909 290.004 458.061 291.236 455.073 291.283L451.993 291.331C449.005 291.378 446.12 290.236 443.973 288.156C441.827 286.076 440.595 283.228 440.548 280.24L440.494 276.8C440.447 273.811 441.589 270.927 443.669 268.78C445.749 266.634 448.597 265.401 451.585 265.354L454.665 265.306C457.653 265.259 460.538 266.401 462.685 268.481C464.831 270.561 466.063 273.409 466.11 276.398L466.164 279.837ZM453.214 270.909C451.779 270.922 450.41 271.723 449.407 273.136C448.405 274.55 447.852 276.459 447.869 278.446C447.878 279.429 448.026 280.402 448.306 281.308C448.586 282.215 448.991 283.037 449.5 283.728C450.008 284.419 450.61 284.966 451.269 285.336C451.929 285.707 452.634 285.895 453.344 285.888C454.779 285.876 456.148 285.075 457.151 283.661C458.153 282.248 458.706 280.338 458.689 278.351C458.68 277.368 458.532 276.395 458.252 275.489C457.972 274.583 457.566 273.76 457.058 273.069C456.55 272.378 455.948 271.832 455.289 271.461C454.629 271.09 453.924 270.903 453.214 270.909Z" fill="#156637"/>
<path d="M544.742 282.352C545.019 282.431 545.253 282.616 545.395 282.867C545.538 283.117 545.576 283.413 545.502 283.692C543.642 290.722 538.372 291.722 532.042 291.242C523.612 290.602 521.442 283.462 521.872 276.222C522.192 270.922 525.402 266.452 530.842 265.522C536.712 264.502 543.162 265.812 545.222 272.162C545.268 272.304 545.284 272.455 545.267 272.604C545.249 272.754 545.2 272.897 545.122 273.025C545.044 273.154 544.94 273.264 544.815 273.347C544.691 273.431 544.55 273.487 544.402 273.512L539.902 274.272C539.607 274.321 539.304 274.276 539.034 274.144C538.765 274.011 538.544 273.797 538.402 273.532C537.062 271.042 534.752 270.412 532.242 271.512C528.372 273.192 528.272 282.922 531.802 284.982C534.842 286.752 537.922 284.922 538.902 281.722C538.981 281.463 539.158 281.246 539.395 281.117C539.633 280.988 539.912 280.957 540.172 281.032L544.742 282.352Z" fill="#156637"/>
<path d="M586.682 280.359C586.641 281.843 586.307 283.305 585.701 284.661C585.094 286.017 584.227 287.24 583.148 288.26C582.068 289.281 580.799 290.079 579.411 290.609C578.024 291.139 576.545 291.39 575.061 291.348L572.002 291.263C570.517 291.221 569.055 290.888 567.7 290.281C566.344 289.675 565.121 288.807 564.1 287.728C563.08 286.649 562.282 285.38 561.752 283.992C561.222 282.604 560.971 281.126 561.012 279.642L561.105 276.303C561.147 274.818 561.48 273.356 562.087 272C562.693 270.645 563.561 269.422 564.64 268.401C565.719 267.381 566.989 266.583 568.376 266.053C569.764 265.523 571.242 265.272 572.727 265.313L575.786 265.399C577.27 265.44 578.732 265.773 580.088 266.38C581.444 266.986 582.667 267.854 583.687 268.933C584.708 270.012 585.506 271.282 586.036 272.669C586.566 274.057 586.817 275.535 586.775 277.02L586.682 280.359ZM573.894 270.931C572.462 270.931 571.088 271.718 570.075 273.119C569.063 274.52 568.494 276.42 568.494 278.401C568.494 279.382 568.633 280.353 568.905 281.259C569.176 282.166 569.574 282.989 570.075 283.683C570.577 284.376 571.172 284.927 571.827 285.302C572.482 285.678 573.185 285.871 573.894 285.871C574.603 285.871 575.305 285.678 575.96 285.302C576.615 284.927 577.211 284.376 577.712 283.683C578.214 282.989 578.611 282.166 578.883 281.259C579.154 280.353 579.294 279.382 579.294 278.401C579.294 276.42 578.725 274.52 577.712 273.119C576.699 271.718 575.326 270.931 573.894 270.931Z" fill="#156637"/>
<path d="M96.059 265.789L90.0791 265.81C89.6428 265.811 89.2903 266.166 89.2918 266.602L89.3743 290.242C89.3759 290.679 89.7308 291.031 90.1671 291.03L96.1471 291.009C96.5834 291.007 96.9358 290.652 96.9343 290.216L96.8518 266.576C96.8503 266.14 96.4953 265.787 96.059 265.789Z" fill="#156637"/>
<path d="M116.517 276.569C117.044 277.362 117.594 278.082 118.167 278.729C118.208 278.773 118.261 278.803 118.319 278.817C118.378 278.831 118.439 278.826 118.495 278.805C118.551 278.783 118.599 278.746 118.633 278.696C118.668 278.647 118.686 278.589 118.687 278.529V266.309C118.687 266.171 118.742 266.039 118.839 265.941C118.937 265.844 119.069 265.789 119.207 265.789H125.217C125.376 265.789 125.529 265.852 125.641 265.964C125.754 266.077 125.817 266.23 125.817 266.389V290.519C125.817 290.605 125.8 290.689 125.767 290.768C125.733 290.847 125.684 290.919 125.623 290.979C125.561 291.038 125.488 291.085 125.408 291.116C125.328 291.147 125.243 291.161 125.157 291.159L119.517 290.989C119.248 290.982 118.983 290.911 118.745 290.78C118.507 290.65 118.302 290.464 118.147 290.239C117.367 289.265 115.121 285.935 111.407 280.249C110.887 279.455 110.341 278.732 109.767 278.079C109.726 278.035 109.673 278.004 109.615 277.99C109.557 277.977 109.495 277.981 109.439 278.003C109.383 278.024 109.335 278.062 109.301 278.111C109.267 278.16 109.248 278.219 109.247 278.279L109.237 290.499C109.237 290.637 109.182 290.769 109.085 290.866C108.987 290.964 108.855 291.019 108.717 291.019H102.717C102.558 291.019 102.405 290.956 102.293 290.843C102.18 290.731 102.117 290.578 102.117 290.419V266.289C102.117 266.203 102.134 266.118 102.168 266.039C102.201 265.96 102.25 265.889 102.312 265.829C102.373 265.769 102.446 265.723 102.526 265.692C102.606 265.661 102.691 265.646 102.777 265.649L108.407 265.819C108.678 265.824 108.945 265.894 109.185 266.025C109.425 266.155 109.632 266.342 109.787 266.569C110.567 267.542 112.811 270.875 116.517 276.569Z" fill="#156637"/>
<path d="M164.989 265.819C168.843 265.832 172.523 265.829 176.029 265.809C176.183 265.809 176.331 265.869 176.44 265.976C176.548 266.082 176.609 266.227 176.609 266.379V271.279C176.609 271.44 176.545 271.596 176.431 271.71C176.316 271.824 176.161 271.889 175.999 271.889H169.229C169.176 271.889 169.122 271.899 169.073 271.919C169.023 271.939 168.978 271.969 168.94 272.006C168.901 272.043 168.871 272.087 168.851 272.136C168.83 272.184 168.819 272.236 168.819 272.289V290.589C168.819 290.649 168.808 290.709 168.785 290.765C168.763 290.821 168.73 290.871 168.688 290.914C168.646 290.957 168.596 290.991 168.542 291.014C168.487 291.037 168.429 291.049 168.369 291.049C168.163 291.055 167.043 291.059 165.009 291.059C162.983 291.059 161.863 291.059 161.649 291.059C161.532 291.056 161.42 291.006 161.338 290.92C161.255 290.834 161.209 290.719 161.209 290.599L161.169 272.299C161.169 272.246 161.159 272.194 161.138 272.146C161.118 272.097 161.087 272.053 161.049 272.016C161.011 271.979 160.966 271.949 160.916 271.929C160.867 271.909 160.813 271.899 160.759 271.899L153.989 271.909C153.909 271.91 153.83 271.895 153.755 271.866C153.681 271.837 153.613 271.793 153.555 271.737C153.498 271.681 153.452 271.615 153.42 271.541C153.388 271.468 153.371 271.389 153.369 271.309L153.359 266.409C153.358 266.333 153.372 266.258 153.401 266.187C153.429 266.117 153.472 266.053 153.526 265.999C153.58 265.945 153.644 265.902 153.715 265.873C153.786 265.844 153.862 265.829 153.939 265.829C157.446 265.842 161.129 265.839 164.989 265.819Z" fill="#156637"/>
<path d="M186.988 265.804L180.688 265.815C180.351 265.816 180.079 266.09 180.079 266.426L180.121 290.426C180.122 290.763 180.395 291.036 180.732 291.035L187.032 291.024C187.369 291.024 187.642 290.75 187.641 290.413L187.599 266.413C187.599 266.076 187.325 265.804 186.988 265.804Z" fill="#156637"/>
<path d="M202.559 290.99C200.539 290.99 199.425 290.987 199.219 290.98C199.101 290.98 198.988 290.933 198.904 290.849C198.82 290.765 198.771 290.65 198.769 290.53L198.739 272.3C198.739 272.247 198.728 272.195 198.708 272.147C198.687 272.098 198.657 272.054 198.619 272.017C198.581 271.98 198.535 271.95 198.486 271.93C198.436 271.91 198.383 271.9 198.329 271.9L191.589 271.91C191.427 271.91 191.272 271.846 191.157 271.731C191.043 271.617 190.979 271.462 190.979 271.3L190.969 266.42C190.969 266.269 191.03 266.124 191.139 266.017C191.247 265.91 191.395 265.85 191.549 265.85C195.042 265.863 198.709 265.86 202.549 265.84C206.389 265.853 210.055 265.853 213.549 265.84C213.703 265.84 213.85 265.9 213.959 266.007C214.068 266.114 214.129 266.259 214.129 266.41L214.119 271.29C214.119 271.45 214.056 271.604 213.944 271.718C213.831 271.832 213.679 271.897 213.519 271.9L206.769 271.89C206.715 271.89 206.662 271.9 206.612 271.92C206.562 271.94 206.517 271.97 206.479 272.007C206.441 272.044 206.411 272.088 206.39 272.137C206.369 272.185 206.359 272.237 206.359 272.29L206.349 290.52C206.349 290.64 206.303 290.756 206.221 290.842C206.138 290.928 206.026 290.977 205.909 290.98C205.695 290.987 204.579 290.99 202.559 290.99Z" fill="#156637"/>
<path d="M229.167 285.67C231.697 285.66 233.357 283.79 233.407 281.2C233.494 276.68 233.514 271.737 233.467 266.37C233.466 266.299 233.479 266.227 233.505 266.161C233.532 266.094 233.572 266.033 233.622 265.982C233.672 265.931 233.732 265.89 233.798 265.862C233.864 265.835 233.935 265.82 234.007 265.82H240.437C240.569 265.82 240.696 265.872 240.791 265.966C240.886 266.059 240.942 266.186 240.947 266.32C241.187 272.98 241.161 278.337 240.867 282.39C240.534 286.917 238.157 289.807 233.737 291.06C233.184 291.214 231.664 291.294 229.177 291.3C226.684 291.3 225.161 291.224 224.607 291.07C220.187 289.824 217.807 286.937 217.467 282.41C217.167 278.357 217.131 273 217.357 266.34C217.362 266.206 217.418 266.079 217.514 265.986C217.609 265.892 217.735 265.84 217.867 265.84L224.297 265.83C224.369 265.83 224.44 265.845 224.506 265.872C224.572 265.9 224.632 265.941 224.683 265.992C224.733 266.043 224.773 266.104 224.799 266.171C224.826 266.237 224.839 266.309 224.837 266.38C224.797 271.747 224.827 276.69 224.927 281.21C224.977 283.8 226.647 285.67 229.167 285.67Z" fill="#156637"/>
<path d="M255.607 291.019C253.581 291.025 252.464 291.029 252.258 291.029C252.198 291.029 252.14 291.017 252.085 290.994C252.031 290.971 251.981 290.937 251.939 290.894C251.897 290.851 251.864 290.8 251.842 290.745C251.819 290.689 251.807 290.629 251.807 290.569L251.737 272.309C251.737 272.256 251.727 272.204 251.706 272.156C251.686 272.107 251.656 272.063 251.617 272.026C251.579 271.989 251.534 271.959 251.484 271.939C251.435 271.919 251.381 271.909 251.327 271.909L244.568 271.939C244.406 271.939 244.251 271.874 244.136 271.76C244.022 271.646 243.957 271.49 243.957 271.329L243.938 266.439C243.938 266.287 243.999 266.142 244.107 266.036C244.216 265.929 244.364 265.869 244.517 265.869C248.017 265.875 251.691 265.865 255.538 265.839C259.384 265.845 263.057 265.835 266.557 265.809C266.711 265.809 266.859 265.869 266.968 265.976C267.076 266.082 267.138 266.227 267.138 266.379L267.147 271.269C267.147 271.43 267.083 271.586 266.969 271.7C266.854 271.814 266.699 271.879 266.538 271.879L259.777 271.889C259.671 271.891 259.569 271.934 259.494 272.009C259.419 272.084 259.377 272.184 259.378 272.289L259.408 290.549C259.408 290.609 259.396 290.669 259.373 290.725C259.351 290.781 259.318 290.831 259.276 290.874C259.234 290.917 259.184 290.951 259.13 290.974C259.075 290.997 259.017 291.009 258.957 291.009C258.751 291.015 257.634 291.019 255.607 291.019Z" fill="#156637"/>
<path d="M309.68 266.282C309.68 266.154 309.73 266.032 309.82 265.942C309.91 265.852 310.032 265.802 310.16 265.802L322.09 265.692C324.834 265.669 327.476 266.77 329.434 268.754C331.392 270.738 332.505 273.442 332.53 276.272L332.57 280.232C332.582 281.633 332.326 283.023 331.817 284.323C331.308 285.622 330.556 286.805 329.603 287.804C328.65 288.803 327.516 289.599 326.264 290.146C325.013 290.693 323.669 290.98 322.31 290.992L310.38 291.092C310.254 291.092 310.133 291.043 310.044 290.955C309.954 290.867 309.902 290.747 309.9 290.622L309.68 266.282ZM317.28 271.932L317.32 284.812C317.32 284.955 317.377 285.092 317.478 285.194C317.579 285.295 317.716 285.352 317.86 285.352L320.21 285.342C320.831 285.341 321.446 285.204 322.02 284.938C322.593 284.673 323.114 284.284 323.552 283.795C323.991 283.306 324.338 282.725 324.574 282.086C324.811 281.447 324.931 280.763 324.93 280.072L324.91 276.632C324.906 275.237 324.405 273.901 323.516 272.916C322.628 271.932 321.424 271.38 320.17 271.382L317.82 271.392C317.676 271.392 317.539 271.449 317.438 271.55C317.337 271.651 317.28 271.789 317.28 271.932Z" fill="#156637"/>
<path d="M343.752 271.561V274.511C343.752 274.652 343.808 274.786 343.907 274.886C344.007 274.985 344.142 275.041 344.282 275.041H355.052C355.193 275.041 355.328 275.097 355.427 275.196C355.526 275.296 355.582 275.431 355.582 275.571V279.631C355.582 279.772 355.526 279.906 355.427 280.006C355.328 280.105 355.193 280.161 355.052 280.161H344.252C344.112 280.161 343.977 280.217 343.877 280.316C343.778 280.416 343.722 280.551 343.722 280.691V284.761C343.722 284.902 343.778 285.036 343.877 285.136C343.977 285.235 344.112 285.291 344.252 285.291H356.332C356.473 285.291 356.608 285.347 356.707 285.446C356.806 285.546 356.862 285.681 356.862 285.821V290.521C356.862 290.662 356.806 290.796 356.707 290.896C356.608 290.995 356.473 291.051 356.332 291.051H336.522C336.382 291.051 336.247 290.995 336.147 290.896C336.048 290.796 335.992 290.662 335.992 290.521V266.401C335.992 266.261 336.048 266.126 336.147 266.026C336.247 265.927 336.382 265.871 336.522 265.871H355.922C356.063 265.871 356.198 265.927 356.297 266.026C356.396 266.126 356.452 266.261 356.452 266.401V270.501C356.452 270.642 356.396 270.776 356.297 270.876C356.198 270.975 356.063 271.031 355.922 271.031H344.282C344.142 271.031 344.007 271.087 343.907 271.186C343.808 271.286 343.752 271.421 343.752 271.561Z" fill="#156637"/>
<path d="M378.567 265.836L372.927 265.846C372.402 265.847 371.977 266.273 371.978 266.798L372.019 290.078C372.02 290.602 372.446 291.027 372.971 291.026L378.61 291.016C379.135 291.015 379.56 290.589 379.559 290.064L379.518 266.784C379.517 266.26 379.091 265.835 378.567 265.836Z" fill="#156637"/>
<path d="M399.12 276.56C399.64 277.354 400.187 278.074 400.76 278.72C400.801 278.764 400.854 278.795 400.912 278.809C400.971 278.822 401.032 278.818 401.088 278.797C401.144 278.775 401.192 278.737 401.226 278.688C401.26 278.639 401.279 278.58 401.28 278.52L401.3 266.34C401.3 266.203 401.355 266.07 401.452 265.973C401.55 265.875 401.682 265.82 401.82 265.82L407.8 265.83C407.959 265.83 408.112 265.894 408.224 266.006C408.337 266.119 408.4 266.271 408.4 266.43L408.37 290.48C408.37 290.566 408.353 290.651 408.319 290.73C408.286 290.809 408.237 290.881 408.176 290.94C408.114 291 408.041 291.047 407.961 291.078C407.881 291.109 407.796 291.123 407.71 291.12L402.1 290.94C401.83 290.934 401.565 290.862 401.326 290.732C401.088 290.602 400.884 290.416 400.73 290.19C399.95 289.224 397.713 285.904 394.02 280.23C393.507 279.437 392.963 278.717 392.39 278.07C392.35 278.027 392.298 277.996 392.24 277.982C392.183 277.969 392.122 277.972 392.067 277.992C392.011 278.013 391.963 278.049 391.928 278.097C391.893 278.144 391.873 278.201 391.87 278.26L391.85 290.44C391.85 290.578 391.795 290.711 391.698 290.808C391.6 290.906 391.468 290.96 391.33 290.96L385.35 290.95C385.271 290.95 385.193 290.935 385.12 290.905C385.048 290.875 384.981 290.83 384.926 290.775C384.87 290.719 384.826 290.653 384.796 290.58C384.766 290.507 384.75 290.429 384.75 290.35L384.78 266.3C384.78 266.215 384.797 266.13 384.831 266.051C384.864 265.972 384.913 265.9 384.974 265.841C385.036 265.781 385.109 265.734 385.189 265.703C385.269 265.672 385.354 265.658 385.44 265.66L391.06 265.84C391.329 265.849 391.592 265.921 391.828 266.051C392.065 266.182 392.267 266.366 392.42 266.59C393.2 267.557 395.433 270.88 399.12 276.56Z" fill="#156637"/>
<path d="M427.487 276.56C428.007 277.353 428.554 278.077 429.127 278.73C429.167 278.778 429.221 278.812 429.281 278.828C429.341 278.844 429.405 278.84 429.463 278.818C429.521 278.796 429.571 278.757 429.606 278.705C429.641 278.653 429.658 278.592 429.657 278.53L429.677 266.3C429.677 266.162 429.732 266.03 429.829 265.932C429.927 265.835 430.059 265.78 430.197 265.78L436.207 265.79C436.287 265.79 436.365 265.806 436.439 265.837C436.512 265.867 436.579 265.913 436.635 265.969C436.691 266.026 436.735 266.093 436.764 266.167C436.794 266.241 436.808 266.32 436.807 266.4L436.767 290.54C436.767 290.627 436.749 290.712 436.715 290.792C436.681 290.872 436.632 290.944 436.569 291.004C436.506 291.063 436.432 291.11 436.351 291.14C436.27 291.171 436.183 291.184 436.097 291.18L430.467 291C430.196 290.995 429.929 290.924 429.689 290.794C429.449 290.663 429.242 290.477 429.087 290.25C428.307 289.277 426.067 285.94 422.367 280.24C421.847 279.44 421.3 278.717 420.727 278.07C420.687 278.023 420.635 277.989 420.575 277.973C420.516 277.957 420.453 277.96 420.396 277.98C420.338 278.001 420.288 278.039 420.252 278.089C420.217 278.139 420.197 278.199 420.197 278.26L420.177 290.49C420.177 290.628 420.122 290.76 420.025 290.858C419.927 290.955 419.795 291.01 419.657 291.01L413.647 291C413.488 291 413.335 290.937 413.223 290.824C413.11 290.712 413.047 290.559 413.047 290.4L413.087 266.25C413.087 266.163 413.104 266.078 413.138 265.998C413.172 265.918 413.222 265.846 413.285 265.787C413.347 265.727 413.422 265.68 413.503 265.65C413.584 265.62 413.67 265.606 413.757 265.61L419.387 265.79C419.658 265.795 419.925 265.866 420.165 265.996C420.405 266.127 420.611 266.313 420.767 266.54C421.547 267.52 423.787 270.86 427.487 276.56Z" fill="#156637"/>
<path d="M480.831 282.699C480.997 282.699 481.177 282.399 481.371 281.799C483.071 276.445 484.691 271.202 486.231 266.069C486.254 265.994 486.3 265.928 486.363 265.882C486.426 265.835 486.502 265.809 486.581 265.809H493.801C493.838 265.81 493.876 265.82 493.909 265.838C493.942 265.856 493.971 265.881 493.992 265.913C494.014 265.944 494.027 265.98 494.032 266.017C494.037 266.055 494.033 266.093 494.021 266.129L485.231 290.509C485.181 290.652 485.091 290.777 484.972 290.869C484.853 290.962 484.71 291.017 484.561 291.029C484.441 291.035 483.204 291.042 480.851 291.049C478.491 291.055 477.251 291.055 477.131 291.049C476.981 291.037 476.838 290.982 476.719 290.889C476.601 290.797 476.511 290.672 476.461 290.529L467.561 266.189C467.548 266.153 467.544 266.115 467.549 266.077C467.554 266.04 467.568 266.004 467.589 265.973C467.611 265.941 467.639 265.916 467.672 265.898C467.706 265.88 467.743 265.87 467.781 265.869L475.001 265.839C475.078 265.839 475.153 265.863 475.216 265.908C475.278 265.952 475.326 266.016 475.351 266.089C476.917 271.215 478.564 276.452 480.291 281.799C480.484 282.399 480.664 282.699 480.831 282.699Z" fill="#156637"/>
<path d="M507.193 287.02C505.04 287.014 503.766 287.02 503.373 287.04C503.163 287.05 502.962 287.128 502.802 287.261C502.641 287.395 502.529 287.577 502.483 287.78L501.993 290.05C501.931 290.34 501.771 290.6 501.539 290.786C501.308 290.972 501.02 291.072 500.723 291.07L494.793 291.04C494.669 291.042 494.547 291.013 494.437 290.957C494.326 290.9 494.231 290.817 494.161 290.716C494.09 290.614 494.044 290.497 494.029 290.374C494.014 290.251 494.029 290.126 494.073 290.01L502.693 266.47C502.753 266.301 502.862 266.154 503.006 266.045C503.15 265.937 503.322 265.873 503.503 265.86C503.943 265.834 505.19 265.82 507.243 265.82C509.29 265.827 510.533 265.847 510.973 265.88C511.155 265.894 511.328 265.959 511.473 266.07C511.617 266.18 511.725 266.33 511.783 266.5L520.293 290.07C520.335 290.186 520.348 290.309 520.332 290.431C520.316 290.553 520.271 290.668 520.2 290.769C520.129 290.869 520.035 290.95 519.926 291.006C519.817 291.062 519.696 291.091 519.573 291.09L513.633 291.1C513.338 291.1 513.052 290.999 512.823 290.813C512.594 290.627 512.435 290.369 512.373 290.08L511.893 287.8C511.847 287.597 511.735 287.415 511.574 287.281C511.414 287.148 511.213 287.07 511.003 287.06C510.61 287.034 509.34 287.02 507.193 287.02ZM504.623 280.77C504.606 280.828 504.603 280.889 504.613 280.948C504.624 281.008 504.648 281.064 504.684 281.112C504.72 281.161 504.766 281.2 504.82 281.228C504.873 281.255 504.933 281.27 504.993 281.27H509.293C509.353 281.27 509.413 281.255 509.466 281.228C509.52 281.2 509.567 281.161 509.602 281.112C509.638 281.064 509.662 281.008 509.673 280.948C509.683 280.889 509.68 280.828 509.663 280.77L507.513 273.3C507.487 273.223 507.437 273.155 507.371 273.107C507.305 273.059 507.225 273.034 507.143 273.034C507.061 273.034 506.981 273.059 506.915 273.107C506.849 273.155 506.799 273.223 506.773 273.3L504.623 280.77Z" fill="#156637"/>
<path d="M556.588 265.798L549.848 265.786C549.6 265.786 549.398 265.987 549.398 266.235L549.355 290.575C549.355 290.824 549.556 291.025 549.804 291.026L556.544 291.038C556.793 291.038 556.995 290.837 556.995 290.588L557.038 266.248C557.038 266 556.837 265.798 556.588 265.798Z" fill="#156637"/>
<path d="M599.739 280.252C599.219 279.458 598.672 278.742 598.099 278.102C598.059 278.058 598.006 278.028 597.949 278.014C597.891 278 597.831 278.003 597.776 278.024C597.72 278.044 597.672 278.08 597.637 278.128C597.602 278.176 597.581 278.233 597.579 278.292V290.482C597.579 290.62 597.524 290.752 597.426 290.849C597.329 290.947 597.197 291.002 597.059 291.002H591.069C590.99 291.002 590.912 290.986 590.839 290.956C590.766 290.926 590.7 290.882 590.645 290.826C590.589 290.77 590.545 290.704 590.514 290.631C590.484 290.559 590.469 290.481 590.469 290.402V266.332C590.469 266.246 590.486 266.161 590.519 266.082C590.553 266.003 590.602 265.932 590.663 265.872C590.725 265.812 590.798 265.766 590.878 265.735C590.958 265.704 591.043 265.689 591.129 265.692L596.749 265.862C597.018 265.868 597.283 265.94 597.521 266.07C597.759 266.201 597.964 266.386 598.119 266.612C598.899 267.578 601.139 270.902 604.839 276.582C605.359 277.375 605.905 278.095 606.479 278.742C606.52 278.786 606.573 278.816 606.631 278.83C606.689 278.844 606.751 278.839 606.807 278.818C606.862 278.796 606.911 278.758 606.945 278.709C606.979 278.66 606.998 278.602 606.999 278.542V266.352C606.999 266.214 607.054 266.082 607.151 265.984C607.249 265.886 607.381 265.832 607.519 265.832H613.509C613.668 265.832 613.821 265.895 613.933 266.007C614.046 266.12 614.109 266.273 614.109 266.432V290.502C614.109 290.587 614.092 290.672 614.058 290.751C614.025 290.83 613.976 290.902 613.914 290.961C613.853 291.021 613.78 291.068 613.7 291.099C613.62 291.13 613.535 291.144 613.449 291.142L607.829 290.972C607.559 290.965 607.295 290.894 607.056 290.763C606.818 290.633 606.613 290.447 606.459 290.222C605.679 289.255 603.439 285.932 599.739 280.252Z" fill="#156637"/>
<path d="M382.397 296.891H385.417C385.54 296.893 385.66 296.931 385.762 297C385.863 297.07 385.942 297.167 385.989 297.281C386.036 297.395 386.048 297.52 386.025 297.641C386.002 297.761 385.943 297.873 385.857 297.961C383.417 300.371 381.737 302.851 379.027 301.941C378.944 301.913 378.868 301.866 378.805 301.805C378.741 301.744 378.693 301.669 378.662 301.587C378.631 301.505 378.62 301.416 378.627 301.329C378.635 301.241 378.663 301.156 378.707 301.081L380.487 297.991C380.682 297.656 380.96 297.379 381.295 297.186C381.631 296.992 382.011 296.891 382.397 296.891Z" fill="#156637"/>
<path d="M578.64 310.871L573.17 311.111C572.966 311.119 572.765 311.063 572.595 310.95C572.424 310.837 572.293 310.673 572.22 310.481C571.36 308.167 569.633 307.447 567.04 308.321C566.825 308.394 566.628 308.513 566.464 308.671C566.3 308.829 566.172 309.021 566.088 309.234C566.005 309.448 565.968 309.678 565.98 309.909C565.993 310.139 566.054 310.365 566.16 310.571C566.433 311.097 567.003 311.467 567.87 311.681C572 312.671 578.87 313.931 579.99 318.221C581.89 325.521 576.55 329.491 569.77 329.361C563.76 329.241 559.3 328.551 558.04 321.621C558.014 321.478 558.047 321.33 558.131 321.21C558.216 321.09 558.344 321.008 558.49 320.981L564.04 320.041C564.229 320.009 564.423 320.039 564.593 320.125C564.764 320.212 564.903 320.35 564.99 320.521L566.18 322.851C566.213 322.923 566.26 322.988 566.32 323.041C568.06 324.787 569.917 325.047 571.89 323.821C572.358 323.529 572.708 323.082 572.88 322.559C573.052 322.036 573.034 321.471 572.83 320.961C572.563 320.287 571.953 319.804 571 319.511C565.58 317.851 555.86 316.121 559.6 307.481C561.37 303.401 568.47 302.691 572.14 303.371C576.2 304.121 579.25 305.811 579.23 310.241C579.23 310.403 579.169 310.559 579.059 310.676C578.949 310.793 578.799 310.863 578.64 310.871Z" fill="#156637"/>
<path d="M161.577 318.104C161.587 321.064 160.421 323.907 158.336 326.007C156.25 328.107 153.416 329.293 150.456 329.303L147.196 329.315C145.73 329.32 144.278 329.036 142.922 328.48C141.566 327.924 140.333 327.106 139.293 326.073C138.253 325.041 137.427 323.813 136.861 322.461C136.296 321.109 136.002 319.659 135.997 318.194L135.984 314.574C135.974 311.614 137.14 308.771 139.226 306.671C141.311 304.571 144.146 303.385 147.105 303.375L150.365 303.363C151.831 303.358 153.283 303.642 154.639 304.198C155.995 304.754 157.228 305.572 158.268 306.604C159.308 307.637 160.134 308.865 160.7 310.217C161.265 311.569 161.559 313.019 161.564 314.484L161.577 318.104ZM148.768 308.909C148.056 308.91 147.351 309.104 146.694 309.48C146.038 309.856 145.441 310.407 144.939 311.101C144.437 311.794 144.039 312.617 143.768 313.523C143.497 314.428 143.359 315.399 143.361 316.378C143.364 318.357 143.938 320.253 144.957 321.651C145.976 323.048 147.356 323.831 148.794 323.829C149.505 323.828 150.21 323.634 150.867 323.257C151.524 322.881 152.12 322.331 152.622 321.637C153.124 320.944 153.522 320.121 153.793 319.215C154.064 318.309 154.202 317.339 154.201 316.359C154.197 314.381 153.623 312.484 152.604 311.087C151.585 309.69 150.205 308.906 148.768 308.909Z" fill="#156637"/>
<path d="M236.701 320.309C236.978 320.388 237.213 320.573 237.355 320.824C237.497 321.074 237.535 321.371 237.461 321.649C235.631 328.699 230.361 329.719 224.021 329.269C215.581 328.669 213.371 321.529 213.771 314.279C214.061 308.969 217.261 304.479 222.701 303.519C228.571 302.469 235.041 303.759 237.131 310.099C237.179 310.242 237.196 310.394 237.18 310.544C237.163 310.695 237.115 310.84 237.036 310.969C236.958 311.099 236.853 311.209 236.728 311.294C236.603 311.379 236.46 311.435 236.311 311.459L231.811 312.239C231.517 312.289 231.215 312.246 230.946 312.115C230.677 311.984 230.455 311.772 230.311 311.509C228.951 309.019 226.641 308.399 224.131 309.509C220.261 311.209 220.211 320.959 223.751 322.999C226.801 324.759 229.881 322.919 230.851 319.709C230.93 319.451 231.106 319.233 231.342 319.102C231.577 318.972 231.853 318.938 232.111 319.009L236.701 320.309Z" fill="#156637"/>
<path d="M294.026 318.321C293.958 321.327 292.698 324.184 290.524 326.262C288.349 328.34 285.438 329.469 282.432 329.4L279.512 329.334C276.506 329.266 273.649 328.006 271.571 325.832C269.493 323.657 268.364 320.747 268.433 317.74L268.51 314.341C268.578 311.334 269.838 308.477 272.012 306.399C274.187 304.322 277.097 303.193 280.104 303.261L283.023 303.327C286.03 303.395 288.887 304.655 290.965 306.829C293.042 309.004 294.171 311.915 294.103 314.921L294.026 318.321ZM281.225 308.901C279.793 308.903 278.421 309.695 277.41 311.101C276.4 312.507 275.834 314.413 275.838 316.4C275.84 317.384 275.981 318.357 276.254 319.266C276.527 320.174 276.926 320.999 277.429 321.693C277.931 322.388 278.528 322.939 279.184 323.314C279.839 323.689 280.542 323.882 281.251 323.881C282.683 323.878 284.055 323.087 285.066 321.68C286.076 320.274 286.641 318.368 286.638 316.381C286.636 315.398 286.495 314.424 286.222 313.516C285.949 312.607 285.55 311.782 285.047 311.088C284.544 310.393 283.948 309.842 283.292 309.467C282.636 309.092 281.934 308.899 281.225 308.901Z" fill="#156637"/>
<path d="M345.078 318.304C345.063 319.768 344.759 321.215 344.185 322.562C343.61 323.909 342.776 325.129 341.73 326.154C340.684 327.178 339.446 327.987 338.088 328.533C336.729 329.079 335.276 329.352 333.812 329.337L330.572 329.303C329.108 329.288 327.661 328.984 326.315 328.41C324.968 327.835 323.747 327.001 322.723 325.955C321.698 324.909 320.89 323.671 320.344 322.312C319.798 320.954 319.524 319.501 319.54 318.037L319.578 314.377C319.593 312.913 319.897 311.466 320.471 310.119C321.046 308.772 321.88 307.552 322.926 306.527C323.972 305.503 325.21 304.695 326.569 304.148C327.927 303.602 329.38 303.329 330.844 303.344L334.084 303.378C335.548 303.394 336.995 303.697 338.342 304.272C339.689 304.846 340.909 305.68 341.934 306.726C342.958 307.773 343.766 309.01 344.313 310.369C344.859 311.727 345.132 313.18 345.117 314.644L345.078 318.304ZM332.22 308.911C331.51 308.919 330.808 309.119 330.156 309.501C329.503 309.884 328.913 310.44 328.418 311.139C327.923 311.838 327.533 312.665 327.27 313.575C327.008 314.484 326.878 315.456 326.888 316.437C326.909 318.418 327.499 320.312 328.528 321.703C329.557 323.093 330.942 323.865 332.376 323.85C333.087 323.843 333.788 323.642 334.441 323.26C335.093 322.878 335.684 322.321 336.179 321.622C336.674 320.924 337.064 320.096 337.326 319.187C337.588 318.278 337.718 317.305 337.708 316.324C337.687 314.343 337.097 312.449 336.068 311.059C335.039 309.669 333.655 308.896 332.22 308.911Z" fill="#156637"/>
<path d="M365.207 319.89H361.997C361.82 319.89 361.649 319.82 361.524 319.694C361.398 319.569 361.327 319.398 361.327 319.22V315.53C361.327 315.337 361.404 315.151 361.541 315.014C361.678 314.877 361.864 314.8 362.057 314.8H372.737C372.833 314.8 372.924 314.837 372.992 314.903C373.06 314.969 373.097 315.058 373.097 315.15V324.31C373.098 324.667 373.008 325.018 372.837 325.333C372.666 325.647 372.418 325.914 372.117 326.11C367.151 329.35 361.711 330.23 355.797 328.75C347.877 326.77 346.357 316.32 349.087 310.02C352.007 303.26 358.787 302.66 365.247 303.52C369.047 304.027 371.447 306.07 372.447 309.65C372.474 309.747 372.48 309.848 372.465 309.948C372.45 310.047 372.415 310.142 372.361 310.226C372.308 310.311 372.237 310.384 372.154 310.44C372.07 310.495 371.976 310.533 371.877 310.55L366.117 311.52C365.928 311.554 365.733 311.534 365.553 311.464C365.373 311.393 365.215 311.274 365.097 311.12L364.107 309.79C363.919 309.537 363.659 309.355 363.367 309.27C359.887 308.23 357.547 309.044 356.347 311.71C354.757 315.24 354.767 322.93 359.847 323.83C362.101 324.237 364.157 323.717 366.017 322.27C366.236 322.101 366.396 321.867 366.475 321.602C366.555 321.337 366.549 321.054 366.46 320.792C366.371 320.53 366.202 320.302 365.978 320.141C365.753 319.979 365.484 319.892 365.207 319.89Z" fill="#156637"/>
<path d="M53.8128 304.231L53.8328 308.371C53.8328 308.512 53.778 308.647 53.6805 308.746C53.583 308.846 53.4507 308.901 53.3128 308.901L41.6028 308.931C41.4348 308.934 41.2746 309.003 41.1567 309.122C41.0388 309.242 40.9728 309.403 40.9728 309.571V312.321C40.9728 312.408 40.9896 312.494 41.0223 312.574C41.0549 312.654 41.1028 312.727 41.1632 312.788C41.2235 312.849 41.2952 312.898 41.3741 312.931C41.4529 312.964 41.5374 312.981 41.6228 312.981L52.3928 312.971C52.4677 312.973 52.5415 312.989 52.6102 313.019C52.6789 313.048 52.741 313.092 52.793 313.145C52.845 313.199 52.8858 313.263 52.9133 313.332C52.9407 313.402 52.9541 313.477 52.9528 313.551L52.9028 317.571C52.8976 317.722 52.8342 317.864 52.726 317.969C52.6178 318.073 52.4732 318.131 52.3228 318.131L41.6828 318.161C41.4936 318.161 41.3119 318.236 41.1772 318.369C41.0425 318.502 40.9654 318.682 40.9628 318.871L40.9028 322.621C40.9028 322.805 40.9763 322.982 41.1073 323.113C41.2383 323.244 41.4163 323.319 41.6028 323.321L53.5928 323.341C53.7582 323.344 53.9158 323.412 54.0318 323.529C54.1478 323.647 54.2128 323.806 54.2128 323.971L54.2228 328.471C54.2228 328.558 54.2055 328.644 54.1718 328.724C54.1381 328.804 54.0888 328.877 54.0266 328.938C53.9644 328.999 53.8905 329.048 53.8092 329.081C53.7279 329.114 53.6408 329.131 53.5528 329.131L33.7128 329.161C33.5634 329.161 33.4199 329.104 33.3133 329.001C33.2067 328.898 33.1455 328.758 33.1428 328.611L33.1328 304.321C33.1328 304.154 33.1992 303.994 33.3173 303.876C33.4355 303.758 33.5957 303.691 33.7628 303.691L53.2928 303.701C53.4316 303.704 53.5639 303.761 53.6611 303.86C53.7584 303.959 53.8128 304.093 53.8128 304.231Z" fill="#156637"/>
<path d="M72.6631 314.58C73.1831 315.373 73.7331 316.097 74.3131 316.75C74.3539 316.794 74.4069 316.825 74.4653 316.838C74.5237 316.852 74.5849 316.848 74.6408 316.826C74.6968 316.805 74.7451 316.767 74.7793 316.718C74.8136 316.668 74.8323 316.61 74.8331 316.55L74.8631 304.31C74.8631 304.172 74.9179 304.04 75.0154 303.942C75.113 303.845 75.2452 303.79 75.3831 303.79L81.4031 303.8C81.4828 303.8 81.5616 303.816 81.6351 303.847C81.7085 303.877 81.7751 303.923 81.831 303.979C81.8868 304.036 81.9308 304.103 81.9604 304.177C81.9899 304.251 82.0045 304.33 82.0031 304.41L81.9531 328.58C81.9532 328.667 81.9357 328.752 81.9017 328.832C81.8677 328.912 81.8178 328.984 81.7552 329.044C81.6926 329.103 81.6184 329.15 81.5373 329.18C81.4561 329.211 81.3697 329.224 81.2831 329.22L75.6431 329.04C75.3727 329.032 75.1074 328.959 74.8692 328.827C74.631 328.695 74.4266 328.508 74.2731 328.28C73.4865 327.307 71.2398 323.967 67.5331 318.26C67.0198 317.46 66.4765 316.737 65.9031 316.09C65.8637 316.043 65.8108 316.009 65.7516 315.993C65.6924 315.977 65.6296 315.98 65.5719 316C65.5141 316.021 65.4641 316.059 65.4285 316.109C65.393 316.159 65.3737 316.219 65.3731 316.28L65.3431 328.52C65.3431 328.658 65.2883 328.79 65.1908 328.888C65.0933 328.985 64.961 329.04 64.8231 329.04L58.8131 329.03C58.7335 329.031 58.6544 329.017 58.5804 328.987C58.5065 328.958 58.4392 328.914 58.3824 328.858C58.3256 328.802 58.2805 328.735 58.2497 328.662C58.219 328.589 58.2031 328.51 58.2031 328.43L58.2531 304.26C58.2517 304.173 58.2681 304.086 58.3016 304.005C58.335 303.924 58.3846 303.851 58.4474 303.79C58.5102 303.729 58.5848 303.682 58.6666 303.651C58.7484 303.62 58.8357 303.606 58.9231 303.61L64.5631 303.8C64.8343 303.805 65.1011 303.876 65.3411 304.006C65.5812 304.137 65.7876 304.323 65.9431 304.55C66.7231 305.523 68.9631 308.867 72.6631 314.58Z" fill="#156637"/>
<path d="M116.763 315.941C118.403 316.831 119.753 317.701 120.133 319.841C121.593 328.091 115.583 329.061 108.873 329.071C105.033 329.078 101.453 329.071 98.1334 329.051C98.0371 329.049 97.9456 329.01 97.8784 328.942C97.8111 328.875 97.7735 328.785 97.7734 328.691V304.341C97.7732 304.26 97.7898 304.18 97.8224 304.106C97.855 304.032 97.9028 303.965 97.9628 303.909C98.0229 303.854 98.0939 303.811 98.1714 303.784C98.2489 303.757 98.3313 303.746 98.4134 303.751C98.9401 303.785 103.483 303.785 112.043 303.751C115.503 303.741 118.153 304.831 119.103 308.431C119.803 311.065 119 313.215 116.693 314.881C116.608 314.944 116.54 315.027 116.495 315.123C116.451 315.219 116.431 315.325 116.438 315.431C116.445 315.536 116.478 315.638 116.535 315.728C116.592 315.817 116.671 315.89 116.763 315.941ZM105.183 309.681L105.203 312.821C105.205 312.937 105.229 313.051 105.274 313.157C105.32 313.264 105.386 313.36 105.468 313.441C105.551 313.521 105.649 313.585 105.756 313.628C105.863 313.671 105.978 313.693 106.093 313.691L108.673 313.671C109.092 313.668 109.506 313.617 109.892 313.521C110.278 313.424 110.628 313.285 110.923 313.11C111.217 312.936 111.45 312.729 111.608 312.503C111.766 312.277 111.846 312.035 111.843 311.791L111.823 310.591C111.818 310.102 111.479 309.635 110.881 309.294C110.283 308.953 109.475 308.765 108.633 308.771L106.053 308.791C105.938 308.793 105.824 308.817 105.717 308.862C105.611 308.908 105.515 308.974 105.434 309.056C105.353 309.139 105.29 309.237 105.247 309.344C105.204 309.451 105.182 309.566 105.183 309.681ZM105.103 319.571L105.123 322.531C105.125 322.69 105.157 322.847 105.219 322.994C105.281 323.14 105.372 323.273 105.485 323.384C105.598 323.495 105.732 323.583 105.88 323.643C106.027 323.703 106.185 323.733 106.343 323.731L108.823 323.711C109.355 323.707 109.881 323.64 110.372 323.512C110.862 323.384 111.307 323.199 111.681 322.967C112.056 322.735 112.352 322.46 112.553 322.159C112.754 321.858 112.856 321.536 112.853 321.211V320.771C112.851 320.447 112.743 320.127 112.538 319.828C112.332 319.53 112.031 319.26 111.653 319.034C111.275 318.807 110.827 318.628 110.335 318.508C109.842 318.387 109.315 318.327 108.783 318.331L106.303 318.351C106.145 318.353 105.987 318.385 105.841 318.447C105.695 318.509 105.562 318.6 105.451 318.713C105.339 318.826 105.251 318.96 105.192 319.108C105.132 319.255 105.102 319.412 105.103 319.571Z" fill="#156637"/>
<path d="M131.172 303.844L125.032 303.854C124.656 303.855 124.352 304.16 124.353 304.535L124.394 328.335C124.395 328.711 124.7 329.015 125.075 329.014L131.215 329.004C131.591 329.003 131.895 328.698 131.894 328.322L131.853 304.522C131.852 304.147 131.547 303.843 131.172 303.844Z" fill="#156637"/>
<path d="M175.138 328.941C173.118 328.934 172.002 328.931 171.788 328.931C171.671 328.928 171.559 328.879 171.477 328.793C171.394 328.707 171.348 328.591 171.348 328.471L171.398 310.261C171.398 310.155 171.355 310.053 171.278 309.978C171.201 309.903 171.097 309.861 170.988 309.861L164.258 309.851C164.097 309.851 163.941 309.787 163.827 309.672C163.713 309.558 163.648 309.403 163.648 309.241L163.668 304.361C163.671 304.213 163.732 304.072 163.838 303.968C163.945 303.863 164.088 303.803 164.238 303.801C167.732 303.827 171.395 303.841 175.228 303.841C179.062 303.867 182.725 303.881 186.218 303.881C186.371 303.883 186.515 303.945 186.622 304.051C186.729 304.158 186.788 304.301 186.788 304.451L186.768 309.321C186.768 309.483 186.704 309.638 186.59 309.752C186.475 309.867 186.32 309.931 186.158 309.931L179.418 309.891C179.365 309.891 179.311 309.901 179.262 309.921C179.212 309.941 179.167 309.971 179.128 310.008C179.09 310.045 179.06 310.089 179.04 310.138C179.019 310.186 179.008 310.238 179.008 310.291L178.928 328.501C178.926 328.621 178.877 328.736 178.793 328.82C178.709 328.904 178.596 328.951 178.478 328.951C178.265 328.957 177.152 328.954 175.138 328.941Z" fill="#156637"/>
<path d="M210.277 304.372L210.297 308.452C210.297 308.52 210.284 308.587 210.258 308.651C210.233 308.714 210.195 308.771 210.148 308.819C210.1 308.868 210.044 308.906 209.982 308.932C209.92 308.958 209.854 308.972 209.787 308.972L198.237 309.032C198.072 309.034 197.914 309.102 197.798 309.22C197.682 309.337 197.617 309.496 197.617 309.662V312.372C197.617 312.544 197.685 312.709 197.805 312.831C197.925 312.953 198.087 313.022 198.257 313.022L208.887 312.992C208.962 312.992 209.035 313.006 209.104 313.035C209.172 313.064 209.235 313.106 209.287 313.159C209.339 313.212 209.38 313.275 209.407 313.344C209.435 313.413 209.449 313.487 209.447 313.562L209.397 317.532C209.392 317.679 209.33 317.819 209.223 317.922C209.117 318.024 208.975 318.082 208.827 318.082L198.327 318.132C198.142 318.134 197.966 318.209 197.835 318.339C197.704 318.47 197.63 318.647 197.627 318.832L197.567 322.532C197.566 322.623 197.583 322.714 197.618 322.799C197.652 322.884 197.704 322.961 197.769 323.026C197.834 323.091 197.911 323.143 197.997 323.178C198.083 323.213 198.174 323.232 198.267 323.232L210.087 323.222C210.25 323.222 210.406 323.286 210.522 323.4C210.638 323.514 210.705 323.669 210.707 323.832L210.717 328.282C210.717 328.452 210.649 328.616 210.527 328.738C210.406 328.859 210.241 328.929 210.067 328.932L190.487 329.012C190.339 329.012 190.196 328.954 190.091 328.85C189.986 328.747 189.927 328.607 189.927 328.462L189.867 304.492C189.867 304.41 189.883 304.33 189.914 304.254C189.946 304.179 189.991 304.111 190.049 304.053C190.106 303.996 190.175 303.95 190.25 303.919C190.325 303.888 190.406 303.872 190.487 303.872L209.757 303.852C209.895 303.852 210.027 303.906 210.125 304.004C210.222 304.101 210.277 304.234 210.277 304.372Z" fill="#156637"/>
<path d="M255.468 314.562C255.988 315.355 256.535 316.079 257.108 316.732C257.148 316.78 257.202 316.814 257.262 316.83C257.322 316.845 257.386 316.842 257.444 316.82C257.502 316.798 257.552 316.759 257.587 316.707C257.622 316.655 257.639 316.594 257.638 316.532L257.658 304.292C257.658 304.154 257.713 304.022 257.81 303.924C257.908 303.827 258.04 303.772 258.178 303.772L264.188 303.782C264.268 303.781 264.347 303.795 264.421 303.825C264.495 303.854 264.562 303.898 264.619 303.954C264.675 304.01 264.72 304.076 264.751 304.15C264.782 304.223 264.798 304.302 264.798 304.382L264.758 328.562C264.758 328.648 264.741 328.733 264.707 328.812C264.674 328.89 264.625 328.962 264.563 329.022C264.502 329.081 264.429 329.128 264.349 329.159C264.269 329.19 264.184 329.205 264.098 329.202L258.448 329.022C258.178 329.015 257.914 328.944 257.675 328.813C257.437 328.683 257.232 328.497 257.078 328.272C256.291 327.292 254.045 323.949 250.338 318.242C249.818 317.449 249.271 316.725 248.698 316.072C248.658 316.024 248.604 315.99 248.544 315.974C248.484 315.958 248.42 315.962 248.362 315.984C248.304 316.006 248.254 316.045 248.219 316.097C248.184 316.148 248.166 316.21 248.168 316.272L248.158 328.512C248.159 328.582 248.146 328.651 248.12 328.716C248.094 328.781 248.055 328.84 248.006 328.89C247.956 328.939 247.897 328.978 247.832 329.004C247.767 329.03 247.698 329.043 247.628 329.042L241.618 329.032C241.537 329.033 241.457 329.018 241.383 328.988C241.308 328.958 241.24 328.913 241.184 328.856C241.127 328.799 241.082 328.732 241.052 328.657C241.021 328.582 241.007 328.502 241.008 328.422L241.048 304.252C241.046 304.165 241.063 304.079 241.095 303.999C241.128 303.919 241.177 303.846 241.239 303.786C241.3 303.725 241.374 303.677 241.454 303.646C241.535 303.614 241.621 303.599 241.708 303.602L247.358 303.782C247.628 303.79 247.894 303.863 248.132 303.995C248.37 304.127 248.574 304.314 248.728 304.542C249.515 305.515 251.761 308.855 255.468 314.562Z" fill="#156637"/>
<path d="M305.229 304.25V322.35C305.229 322.483 305.282 322.61 305.375 322.704C305.469 322.797 305.596 322.85 305.729 322.85H316.679C316.812 322.85 316.939 322.903 317.033 322.996C317.126 323.09 317.179 323.217 317.179 323.35V328.53C317.179 328.663 317.126 328.79 317.033 328.884C316.939 328.977 316.812 329.03 316.679 329.03H298.289C298.156 329.03 298.029 328.977 297.935 328.884C297.842 328.79 297.789 328.663 297.789 328.53V304.25C297.789 304.117 297.842 303.99 297.935 303.896C298.029 303.803 298.156 303.75 298.289 303.75H304.729C304.862 303.75 304.989 303.803 305.083 303.896C305.176 303.99 305.229 304.117 305.229 304.25Z" fill="#156637"/>
<path d="M384.538 303.809H378.217C377.925 303.809 377.688 304.046 377.688 304.339V328.499C377.688 328.791 377.925 329.029 378.217 329.029H384.538C384.83 329.029 385.068 328.791 385.068 328.499V304.339C385.068 304.046 384.83 303.809 384.538 303.809Z" fill="#156637"/>
<path d="M401.103 324.981C398.949 324.981 397.676 324.991 397.283 325.011C397.071 325.022 396.87 325.101 396.709 325.236C396.548 325.372 396.437 325.557 396.393 325.761L395.903 328.031C395.841 328.32 395.682 328.578 395.453 328.764C395.224 328.949 394.938 329.051 394.643 329.051L388.703 329.031C388.58 329.03 388.459 329 388.35 328.943C388.241 328.886 388.147 328.804 388.076 328.704C388.006 328.604 387.961 328.489 387.944 328.368C387.928 328.248 387.941 328.125 387.983 328.011L396.563 304.441C396.623 304.272 396.731 304.125 396.875 304.016C397.019 303.908 397.192 303.844 397.373 303.831C397.813 303.798 399.059 303.781 401.113 303.781C403.166 303.781 404.409 303.798 404.843 303.831C405.023 303.844 405.196 303.908 405.34 304.016C405.484 304.125 405.593 304.272 405.653 304.441L414.213 328.021C414.254 328.135 414.267 328.256 414.251 328.376C414.236 328.496 414.191 328.61 414.122 328.71C414.052 328.81 413.96 328.892 413.852 328.949C413.745 329.007 413.625 329.038 413.503 329.041L407.563 329.051C407.266 329.053 406.978 328.953 406.746 328.767C406.515 328.581 406.355 328.321 406.293 328.031L405.813 325.761C405.769 325.557 405.658 325.372 405.497 325.236C405.336 325.101 405.134 325.022 404.923 325.011C404.529 324.998 403.256 324.988 401.103 324.981ZM398.613 318.511C398.594 318.582 398.592 318.656 398.607 318.727C398.622 318.798 398.652 318.865 398.696 318.923C398.741 318.981 398.798 319.028 398.863 319.061C398.928 319.093 399 319.111 399.073 319.111L403.033 319.091C403.108 319.091 403.182 319.074 403.249 319.04C403.316 319.006 403.374 318.958 403.419 318.897C403.464 318.837 403.494 318.767 403.506 318.693C403.519 318.619 403.515 318.543 403.493 318.471L401.463 311.491C401.432 311.392 401.37 311.306 401.287 311.245C401.203 311.184 401.102 311.152 400.999 311.153C400.896 311.154 400.795 311.189 400.713 311.252C400.631 311.314 400.571 311.402 400.543 311.501L398.613 318.511Z" fill="#156637"/>
<path d="M448.064 304.428L448.074 308.508C448.074 308.646 448.02 308.778 447.924 308.876C447.829 308.973 447.699 309.028 447.564 309.028H436.004C435.838 309.031 435.681 309.098 435.565 309.216C435.449 309.334 435.384 309.493 435.384 309.658L435.364 312.368C435.364 312.453 435.38 312.538 435.412 312.617C435.445 312.696 435.492 312.767 435.551 312.828C435.611 312.888 435.681 312.936 435.759 312.969C435.836 313.001 435.92 313.018 436.004 313.018L446.634 313.048C446.708 313.048 446.782 313.063 446.85 313.092C446.919 313.12 446.981 313.163 447.033 313.216C447.085 313.269 447.126 313.332 447.154 313.401C447.182 313.47 447.195 313.544 447.194 313.618L447.124 317.588C447.119 317.736 447.056 317.876 446.95 317.978C446.844 318.081 446.702 318.138 446.554 318.138H436.054C435.869 318.138 435.691 318.21 435.559 318.339C435.426 318.468 435.349 318.643 435.344 318.828L435.264 322.528C435.261 322.62 435.277 322.712 435.311 322.798C435.345 322.884 435.396 322.963 435.462 323.029C435.527 323.095 435.605 323.148 435.691 323.184C435.777 323.22 435.87 323.238 435.964 323.238L447.794 323.288C447.956 323.291 448.112 323.357 448.226 323.473C448.34 323.589 448.404 323.745 448.404 323.908L448.394 328.358C448.391 328.529 448.32 328.692 448.197 328.811C448.073 328.931 447.907 328.998 447.734 328.998L428.144 328.978C427.997 328.976 427.857 328.916 427.754 328.814C427.651 328.711 427.594 328.572 427.594 328.428L427.654 304.448C427.654 304.284 427.719 304.126 427.835 304.01C427.952 303.893 428.109 303.828 428.274 303.828L447.554 303.898C447.622 303.899 447.689 303.914 447.752 303.942C447.815 303.969 447.871 304.008 447.919 304.057C447.966 304.107 448.003 304.165 448.028 304.228C448.053 304.292 448.065 304.36 448.064 304.428Z" fill="#156637"/>
<path d="M470.557 303.801H464.158C463.898 303.801 463.688 304.011 463.688 304.271V328.571C463.688 328.83 463.898 329.041 464.158 329.041H470.557C470.817 329.041 471.027 328.83 471.027 328.571V304.271C471.027 304.011 470.817 303.801 470.557 303.801Z" fill="#156637"/>
<path d="M490.522 314.541C491.042 315.334 491.589 316.058 492.162 316.711C492.202 316.759 492.256 316.793 492.316 316.809C492.377 316.824 492.44 316.821 492.499 316.799C492.557 316.777 492.607 316.738 492.641 316.686C492.676 316.634 492.694 316.573 492.693 316.511L492.713 304.261C492.713 304.123 492.767 303.991 492.865 303.893C492.962 303.796 493.095 303.741 493.232 303.741L499.253 303.751C499.332 303.751 499.411 303.767 499.484 303.798C499.558 303.828 499.625 303.873 499.68 303.93C499.736 303.987 499.78 304.054 499.81 304.128C499.839 304.202 499.854 304.281 499.852 304.361L499.812 328.541C499.813 328.627 499.795 328.712 499.762 328.791C499.729 328.87 499.68 328.941 499.618 329.001C499.556 329.06 499.484 329.107 499.404 329.138C499.324 329.169 499.238 329.184 499.153 329.181L493.503 329.001C493.232 328.994 492.967 328.922 492.729 328.791C492.491 328.661 492.287 328.476 492.133 328.251C491.346 327.271 489.099 323.928 485.393 318.221C484.873 317.421 484.326 316.698 483.753 316.051C483.713 316.004 483.66 315.97 483.601 315.954C483.542 315.938 483.479 315.941 483.421 315.961C483.363 315.982 483.313 316.02 483.278 316.07C483.242 316.12 483.223 316.18 483.223 316.241L483.203 328.491C483.203 328.629 483.148 328.761 483.05 328.859C482.953 328.956 482.82 329.011 482.682 329.011L476.663 329.001C476.503 329.001 476.351 328.938 476.238 328.825C476.126 328.713 476.062 328.56 476.062 328.401L476.103 304.211C476.102 304.124 476.12 304.039 476.154 303.959C476.188 303.879 476.238 303.807 476.3 303.748C476.363 303.688 476.437 303.641 476.518 303.611C476.6 303.581 476.686 303.567 476.772 303.571L482.413 303.751C482.685 303.758 482.953 303.831 483.193 303.963C483.433 304.095 483.638 304.283 483.793 304.511C484.573 305.484 486.816 308.828 490.522 314.541Z" fill="#156637"/>
<path d="M504.703 304.24C504.703 304.112 504.753 303.988 504.843 303.897C504.933 303.805 505.055 303.752 505.183 303.75L517.023 303.68C518.352 303.672 519.668 303.934 520.899 304.449C522.129 304.965 523.248 305.724 524.193 306.685C525.137 307.645 525.888 308.787 526.403 310.046C526.918 311.304 527.186 312.655 527.193 314.02L527.213 318.56C527.227 321.314 526.176 323.961 524.291 325.918C522.407 327.876 519.843 328.984 517.163 329L505.323 329.07C505.258 329.071 505.193 329.059 505.133 329.035C505.072 329.011 505.017 328.976 504.97 328.93C504.924 328.884 504.887 328.83 504.861 328.77C504.836 328.71 504.823 328.645 504.823 328.58L504.703 304.24ZM512.163 310V322.64C512.163 322.831 512.239 323.014 512.374 323.149C512.509 323.284 512.692 323.36 512.883 323.36H514.593C515.97 323.36 517.29 322.779 518.263 321.746C519.236 320.713 519.783 319.311 519.783 317.85V314.79C519.783 313.329 519.236 311.927 518.263 310.894C517.29 309.86 515.97 309.28 514.593 309.28H512.883C512.692 309.28 512.509 309.356 512.374 309.491C512.239 309.626 512.163 309.809 512.163 310Z" fill="#156637"/>
<path d="M542.692 329.312C540.199 329.298 538.676 329.212 538.122 329.052C533.702 327.785 531.336 324.885 531.022 320.352C530.742 316.292 530.732 310.928 530.992 304.262C530.998 304.127 531.054 304 531.149 303.907C531.244 303.814 531.371 303.762 531.502 303.762L537.942 303.782C538.014 303.782 538.085 303.796 538.151 303.824C538.218 303.852 538.278 303.892 538.328 303.943C538.378 303.995 538.418 304.055 538.444 304.122C538.471 304.189 538.484 304.26 538.482 304.332C538.416 309.705 538.419 314.655 538.492 319.182C538.532 321.782 540.192 323.662 542.722 323.672C545.252 323.682 546.922 321.812 546.982 319.222C547.096 314.695 547.142 309.745 547.122 304.372C547.121 304.3 547.134 304.229 547.161 304.162C547.187 304.095 547.227 304.035 547.277 303.983C547.327 303.932 547.387 303.891 547.453 303.864C547.52 303.836 547.591 303.822 547.662 303.822L554.102 303.862C554.234 303.862 554.361 303.914 554.456 304.007C554.551 304.1 554.607 304.227 554.612 304.362C554.819 311.028 554.766 316.392 554.452 320.452C554.092 324.978 551.699 327.858 547.272 329.092C546.712 329.245 545.186 329.318 542.692 329.312Z" fill="#156637"/>
<path d="M593.828 328.978C591.808 328.985 590.691 328.988 590.477 328.988C590.36 328.985 590.248 328.936 590.166 328.85C590.083 328.764 590.037 328.648 590.037 328.528L589.967 310.308C589.965 310.204 589.92 310.105 589.844 310.032C589.767 309.959 589.664 309.918 589.557 309.918L582.818 309.938C582.657 309.938 582.504 309.875 582.39 309.763C582.276 309.651 582.21 309.498 582.208 309.338L582.188 304.458C582.188 304.309 582.247 304.165 582.354 304.059C582.46 303.952 582.605 303.891 582.758 303.888C586.251 303.895 589.918 303.885 593.758 303.858C597.591 303.858 601.254 303.848 604.747 303.828C604.901 303.828 605.049 303.888 605.158 303.995C605.266 304.102 605.328 304.247 605.328 304.398L605.338 309.268C605.338 309.43 605.273 309.585 605.159 309.699C605.044 309.814 604.889 309.878 604.727 309.878L597.987 309.888C597.88 309.891 597.779 309.934 597.704 310.009C597.629 310.083 597.588 310.184 597.588 310.288L597.617 328.508C597.618 328.569 597.606 328.628 597.583 328.684C597.561 328.74 597.528 328.791 597.486 328.833C597.444 328.876 597.394 328.91 597.34 328.933C597.285 328.956 597.227 328.968 597.167 328.968C596.961 328.975 595.848 328.978 593.828 328.978Z" fill="#156637"/>
<path d="M626.442 318.111C629.156 321.031 631.266 324.631 632.772 328.911C632.78 328.929 632.784 328.949 632.782 328.969C632.78 328.989 632.772 329.008 632.76 329.025C632.748 329.042 632.732 329.056 632.714 329.066C632.695 329.075 632.674 329.081 632.652 329.081H624.932C624.834 329.081 624.737 329.055 624.652 329.006C624.566 328.957 624.494 328.887 624.442 328.801L619.092 319.531C618.925 319.237 618.664 319.006 618.352 318.876C618.039 318.745 617.692 318.722 617.364 318.81C617.037 318.898 616.748 319.093 616.544 319.362C616.339 319.632 616.229 319.963 616.232 320.301V328.551C616.232 328.676 616.183 328.796 616.095 328.884C616.006 328.972 615.887 329.021 615.762 329.021H609.432C609.249 329.021 609.074 328.949 608.944 328.819C608.815 328.69 608.742 328.514 608.742 328.331V304.481C608.742 304.307 608.811 304.14 608.934 304.015C609.058 303.889 609.225 303.817 609.402 303.811C612.622 303.705 617.636 303.721 624.442 303.861C627.782 303.931 630.152 305.601 630.842 308.991C631.642 312.885 630.222 315.681 626.582 317.381C626.517 317.412 626.459 317.458 626.415 317.515C626.371 317.573 626.34 317.64 626.327 317.711C626.313 317.782 626.316 317.855 626.336 317.925C626.357 317.995 626.393 318.058 626.442 318.111ZM616.302 309.491L616.322 313.331C616.322 313.407 616.337 313.482 616.367 313.552C616.396 313.622 616.439 313.685 616.493 313.738C616.547 313.791 616.611 313.833 616.681 313.861C616.751 313.889 616.827 313.903 616.902 313.901L620.752 313.871C621.429 313.866 622.076 313.634 622.552 313.227C623.027 312.821 623.294 312.272 623.292 311.701V311.041C623.291 310.757 623.224 310.475 623.094 310.213C622.964 309.95 622.773 309.712 622.533 309.513C622.294 309.313 622.009 309.155 621.697 309.049C621.384 308.942 621.05 308.888 620.712 308.891L616.862 308.921C616.713 308.924 616.57 308.985 616.466 309.092C616.361 309.198 616.302 309.342 616.302 309.491Z" fill="#156637"/>
<path d="M641.941 303.745L636.062 303.776C635.531 303.779 635.104 304.211 635.107 304.741L635.229 328.081C635.232 328.611 635.664 329.039 636.194 329.036L642.074 329.005C642.604 329.002 643.031 328.57 643.029 328.04L642.906 304.7C642.904 304.17 642.472 303.743 641.941 303.745Z" fill="#156637"/>
<path d="M658.917 303.771C660.963 303.778 662.207 303.798 662.647 303.831C662.827 303.844 663 303.908 663.144 304.016C663.288 304.125 663.397 304.272 663.457 304.441L671.947 328.001C671.989 328.116 672.002 328.24 671.986 328.362C671.97 328.483 671.924 328.599 671.854 328.7C671.783 328.8 671.689 328.881 671.58 328.937C671.471 328.993 671.349 329.022 671.227 329.021H665.297C665.002 329.021 664.716 328.919 664.487 328.734C664.257 328.548 664.099 328.29 664.037 328.001L663.557 325.731C663.515 325.528 663.406 325.345 663.247 325.21C663.088 325.074 662.888 324.994 662.677 324.981C662.277 324.961 661.003 324.948 658.857 324.941C656.71 324.935 655.44 324.941 655.047 324.961C654.836 324.971 654.634 325.049 654.473 325.183C654.312 325.317 654.201 325.499 654.157 325.701L653.667 327.971C653.603 328.259 653.442 328.517 653.21 328.701C652.979 328.885 652.692 328.984 652.397 328.981L646.467 328.951C646.345 328.951 646.225 328.921 646.117 328.864C646.009 328.807 645.917 328.725 645.847 328.625C645.778 328.525 645.733 328.41 645.717 328.289C645.702 328.169 645.715 328.046 645.757 327.931L654.377 304.421C654.437 304.252 654.546 304.105 654.689 303.996C654.833 303.888 655.006 303.824 655.187 303.811C655.627 303.778 656.87 303.765 658.917 303.771ZM660.777 319.261C660.888 319.262 660.998 319.235 661.097 319.184C661.196 319.132 661.282 319.058 661.345 318.967C661.409 318.875 661.45 318.77 661.464 318.659C661.478 318.548 661.466 318.436 661.427 318.331L658.937 311.411C658.918 311.353 658.881 311.302 658.831 311.266C658.781 311.231 658.721 311.213 658.659 311.215C658.598 311.217 658.539 311.24 658.491 311.279C658.444 311.318 658.411 311.371 658.397 311.431L656.267 318.801C656.251 318.854 656.248 318.91 656.258 318.965C656.268 319.019 656.29 319.071 656.323 319.115C656.356 319.16 656.399 319.196 656.448 319.221C656.497 319.247 656.551 319.26 656.607 319.261H660.777Z" fill="#156637"/>
</svg>
