<svg width="3748" height="2244" viewBox="0 0 3748 2244" fill="none" xmlns="http://www.w3.org/2000/svg">
<path d="M880.692 425.217C880.692 356.321 852.105 290.245 801.22 241.528C750.335 192.811 681.32 165.441 609.358 165.441C537.395 165.441 468.38 192.811 417.495 241.528C366.61 290.245 338.023 356.321 338.023 425.217C338.023 494.114 366.61 560.189 417.495 608.907C468.38 657.624 537.395 684.993 609.358 684.993C681.32 684.993 750.335 657.624 801.22 608.907C852.105 560.189 880.692 494.114 880.692 425.217Z" stroke="#9497BF" stroke-width="2"/>
<path d="M998.409 1142.94C998.059 1142.9 997.703 1142.97 997.404 1143.16C997.106 1143.35 996.884 1143.64 996.779 1143.98C996.674 1144.32 996.691 1144.68 996.828 1145.01C996.966 1145.33 997.214 1145.6 997.529 1145.76L1910.33 1624.74C1910.8 1624.99 1911.32 1625.12 1911.84 1625.12C1912.37 1625.13 1912.88 1625.01 1913.36 1624.78C1913.83 1624.55 1914.24 1624.21 1914.55 1623.79C1914.87 1623.37 1915.08 1622.89 1915.17 1622.37C1937.99 1495.24 1972.36 1372.86 2018.29 1255.23C2039.17 1201.79 2060.2 1156.82 2081.37 1120.33C2269.91 795.257 2543.54 498.433 2840.12 263.737C2840.38 263.499 2840.57 263.183 2840.64 262.835C2840.71 262.487 2840.67 262.124 2840.53 261.8C2840.38 261.477 2840.13 261.208 2839.82 261.034C2839.51 260.86 2839.15 260.789 2838.8 260.833C2570.9 306.241 2319.97 444.401 2122.63 629.465C2071.72 677.219 2016.06 736.619 1955.64 807.665C1881.1 895.371 1823.88 966.446 1783.99 1020.89C1745.37 1073.78 1699.27 1134.94 1684.05 1193.28C1683.86 1194.07 1683.4 1194.76 1682.75 1195.23C1682.1 1195.7 1681.31 1195.91 1680.53 1195.83L998.409 1142.94Z" stroke="#9497BF" stroke-width="2"/>
<path d="M2404.08 735.944H2762.26C2766.11 735.944 2769.96 736.507 2773.69 737.616C2888.42 771.056 2975.26 859.144 2974.55 983.224C2973.97 1085.6 2931.94 1163.27 2848.48 1216.25C2831.76 1226.81 2817.77 1232.09 2806.51 1232.09C2613.83 1231.79 2443.47 1231.77 2295.43 1232C2294.45 1232 2293.48 1232.28 2292.65 1232.79C2291.81 1233.3 2291.13 1234.03 2290.68 1234.9L2110.93 1610.14C2110.76 1610.46 2110.68 1610.83 2110.7 1611.19C2110.71 1611.56 2110.82 1611.92 2111.02 1612.23C2111.21 1612.54 2111.49 1612.79 2111.81 1612.97C2112.14 1613.14 2112.5 1613.23 2112.87 1613.22H2860.97C2865.58 1613.22 2870.17 1612.56 2874.61 1611.28C3116.47 1543.96 3308.79 1367.26 3361.85 1116.9C3393.52 967.384 3378.83 779.24 3308.53 641.872C3233.92 496.203 3113.89 401.163 2948.42 356.752C2943.52 355.467 2938.49 354.816 2933.47 354.816H2779.76C2777.96 354.817 2776.22 355.545 2774.92 356.84L2401.62 730.136C2401.16 730.621 2400.84 731.232 2400.72 731.892C2400.6 732.553 2400.68 733.234 2400.94 733.853C2401.2 734.471 2401.64 734.999 2402.2 735.371C2402.76 735.742 2403.41 735.942 2404.08 735.944Z" stroke="#9497BF" stroke-width="2"/>
<path d="M2432.59 359.219H1677.98C1677.16 359.219 1676.38 359.543 1675.8 360.121C1675.22 360.698 1674.9 361.482 1674.9 362.299V1066.47C1674.9 1066.93 1675.05 1067.36 1675.33 1067.73C1675.6 1068.09 1675.98 1068.35 1676.41 1068.48C1676.84 1068.6 1677.31 1068.59 1677.73 1068.44C1678.16 1068.28 1678.52 1068 1678.77 1067.62C1743.58 971.288 1814.76 876.013 1892.3 781.795C1981.95 673.027 2086.03 577.547 2196.36 496.235C2272.67 439.973 2351.53 394.829 2432.94 360.803C2433.12 360.74 2433.26 360.62 2433.34 360.463C2433.43 360.306 2433.45 360.12 2433.41 359.937C2433.37 359.754 2433.27 359.583 2433.12 359.453C2432.97 359.322 2432.79 359.24 2432.59 359.219Z" stroke="#9497BF" stroke-width="2"/>
<path d="M907.086 541.291C884.68 603.771 848.872 649.56 799.661 678.659C726.285 722.014 643.319 737.208 550.762 724.243C536.568 722.248 520.174 719.462 501.581 715.883C501.036 715.78 500.475 715.798 499.938 715.935C499.4 716.073 498.9 716.327 498.472 716.68C498.044 717.033 497.698 717.475 497.46 717.976C497.222 718.477 497.097 719.024 497.094 719.579V1631.61C497.094 1632.59 497.483 1633.53 498.176 1634.22C498.869 1634.92 499.809 1635.31 500.789 1635.31H1790.59C1791.01 1635.31 1791.42 1635.17 1791.75 1634.9C1792.08 1634.64 1792.31 1634.27 1792.4 1633.86C1792.49 1633.45 1792.44 1633.03 1792.26 1632.65C1792.07 1632.27 1791.77 1631.97 1791.39 1631.79L911.749 1184.22C910.956 1183.82 910.289 1183.21 909.822 1182.45C909.356 1181.69 909.109 1180.81 909.11 1179.91V541.643C909.095 541.406 909.001 541.181 908.843 541.004C908.684 540.827 908.471 540.709 908.237 540.668C908.003 540.627 907.762 540.667 907.553 540.78C907.345 540.893 907.18 541.073 907.086 541.291Z" stroke="#9497BF" stroke-width="2"/>
<path d="M1078.03 1842.63C1091.93 1842.69 1098.94 1851.55 1099.06 1869.21C1099.53 1926.64 1099.44 1997.98 1098.8 2083.23C1098.78 2083.71 1098.87 2084.19 1099.05 2084.63C1099.22 2085.08 1099.49 2085.49 1099.82 2085.83C1100.16 2086.18 1100.56 2086.45 1101 2086.64C1101.45 2086.83 1101.92 2086.92 1102.4 2086.92H1195.4C1196.74 2086.92 1198.02 2086.4 1198.98 2085.46C1199.93 2084.52 1200.48 2083.24 1200.5 2081.91C1201.91 1949.55 1201.73 1872.61 1199.97 1851.08C1194.52 1783.15 1147.1 1743.72 1078.3 1743.46C1009.5 1743.28 961.81 1782.44 955.915 1850.38C954.038 1871.91 953.451 1948.85 954.155 2081.2C954.178 2082.52 954.713 2083.79 955.649 2084.72C956.585 2085.66 957.847 2086.2 959.17 2086.22L1052.17 2086.75C1053.12 2086.75 1054.04 2086.37 1054.72 2085.69C1055.39 2085.01 1055.77 2084.09 1055.77 2083.14C1055.66 1997.9 1055.98 1926.56 1056.74 1869.12C1056.98 1851.4 1064.07 1842.57 1078.03 1842.63Z" stroke="#9497BF" stroke-width="2"/>
<path d="M2351.83 1923.94H2255.93C2254.6 1923.95 2253.32 1924.44 2252.32 1925.31C2251.32 1926.18 2250.66 1927.38 2250.47 1928.7C2245.19 1967.89 2224.72 1989.92 2189.06 1994.78C2087.71 2008.6 2075.83 1854.16 2168.91 1843.51C2206.8 1839.11 2232.67 1855.48 2246.51 1892.62C2246.99 1893.96 2247.89 1895.11 2249.09 1895.88C2250.28 1896.66 2251.69 1897.03 2253.11 1896.93L2351.56 1890.77C2352.28 1890.71 2352.98 1890.5 2353.62 1890.15C2354.25 1889.79 2354.8 1889.31 2355.22 1888.72C2355.65 1888.14 2355.94 1887.47 2356.09 1886.76C2356.23 1886.05 2356.22 1885.31 2356.05 1884.61C2339.98 1817.67 2302.23 1773.82 2242.82 1753.05C2129.32 1713.18 2007.47 1790.71 2001.05 1908.81C1988.64 2137.61 2333.97 2168.41 2357.11 1929.84C2357.17 1929.09 2357.08 1928.33 2356.84 1927.61C2356.6 1926.9 2356.22 1926.24 2355.72 1925.69C2355.23 1925.13 2354.62 1924.69 2353.95 1924.39C2353.28 1924.09 2352.56 1923.94 2351.83 1923.94Z" stroke="#9497BF" stroke-width="2"/>
<path d="M2524.44 1918.31H2506.85C2505.24 1918.31 2503.7 1917.69 2502.55 1916.57C2501.4 1915.45 2500.73 1913.93 2500.69 1912.33C2500.04 1884.23 2500.98 1865.95 2503.5 1857.51C2508.34 1841.23 2534.82 1835.42 2542.3 1853.81C2544.36 1858.85 2545.38 1865.78 2545.38 1874.58C2545.44 2012.21 2545.44 2081.2 2545.38 2081.55C2545.32 2082.21 2545.4 2082.88 2545.61 2083.51C2545.82 2084.14 2546.16 2084.71 2546.61 2085.2C2547.06 2085.69 2547.6 2086.08 2548.21 2086.35C2548.81 2086.61 2549.47 2086.75 2550.13 2086.75H2641.28C2642.87 2086.75 2644.39 2086.11 2645.51 2084.99C2646.63 2083.87 2647.26 2082.35 2647.26 2080.76C2647.15 2029.13 2647.23 1967.36 2647.53 1895.43C2647.79 1819.23 2638.82 1756.22 2556.29 1745.48C2467.34 1733.95 2399.51 1776.19 2398.45 1870.09C2398.45 1874.25 2398.54 1945.51 2398.72 2083.84C2398.72 2084.61 2399.03 2085.35 2399.59 2085.89C2400.15 2086.44 2400.92 2086.75 2401.71 2086.75H2495.94C2497.24 2086.75 2498.5 2086.23 2499.42 2085.3C2500.34 2084.38 2500.86 2083.12 2500.86 2081.82V2012.21C2500.86 2010.83 2501.41 2009.51 2502.38 2008.54C2503.36 2007.56 2504.68 2007.02 2506.05 2007.02H2524.88C2526.28 2007.02 2527.63 2006.47 2528.62 2005.5C2529.61 2004.52 2530.16 2003.2 2530.16 2001.83V1924.03C2530.16 1922.52 2529.56 1921.06 2528.49 1919.99C2527.41 1918.92 2525.96 1918.31 2524.44 1918.31Z" stroke="#9497BF" stroke-width="2"/>
<path d="M1974.65 1919.51C1974.69 1896.38 1970.08 1873.48 1961.1 1852.1C1952.11 1830.72 1938.92 1811.28 1922.27 1794.9C1905.62 1778.52 1885.85 1765.52 1864.08 1756.63C1842.31 1747.74 1818.97 1743.15 1795.38 1743.11C1771.8 1743.06 1748.44 1747.58 1726.64 1756.39C1704.84 1765.2 1685.02 1778.14 1668.32 1794.46C1651.62 1810.78 1638.36 1830.17 1629.29 1851.52C1620.23 1872.87 1615.55 1895.76 1615.51 1918.88C1615.47 1942 1620.07 1964.91 1629.06 1986.29C1638.05 2007.67 1651.24 2027.1 1667.89 2043.49C1684.53 2059.87 1704.3 2072.87 1726.08 2081.76C1747.85 2090.65 1771.19 2095.24 1794.77 2095.28C1818.35 2095.32 1841.71 2090.81 1863.51 2082C1885.31 2073.19 1905.13 2060.25 1921.84 2043.93C1938.54 2027.61 1951.8 2008.22 1960.86 1986.87C1969.92 1965.52 1974.61 1942.63 1974.65 1919.51Z" stroke="#9497BF" stroke-width="2"/>
<path d="M893.621 1755.25C893.621 1754.8 893.532 1754.35 893.36 1753.94C893.187 1753.52 892.935 1753.14 892.616 1752.82C892.297 1752.5 891.919 1752.25 891.503 1752.08C891.087 1751.91 890.64 1751.82 890.19 1751.82H794.642C794.192 1751.82 793.745 1751.91 793.329 1752.08C792.913 1752.25 792.535 1752.5 792.216 1752.82C791.897 1753.14 791.645 1753.52 791.472 1753.94C791.3 1754.35 791.211 1754.8 791.211 1755.25V2083.31C791.211 2084.22 791.572 2085.1 792.216 2085.74C792.859 2086.38 793.732 2086.74 794.642 2086.74H890.19C891.1 2086.74 891.973 2086.38 892.616 2085.74C893.26 2085.1 893.621 2084.22 893.621 2083.31V1755.25Z" stroke="#9497BF" stroke-width="2"/>
<path d="M1384.74 2087.8C1435.65 2090.15 1474.65 2083.43 1501.75 2067.65C1571.43 2027.17 1599.18 1964.37 1584.98 1879.24C1578.71 1841.81 1559.2 1811.34 1526.47 1787.81C1475 1750.85 1421.6 1751.82 1353.85 1751.82C1298.37 1751.76 1269.42 1751.82 1267.02 1751.99C1265.63 1752.08 1264.33 1752.7 1263.39 1753.71C1262.44 1754.73 1261.91 1756.06 1261.91 1757.45V2082.96C1261.91 2083.97 1262.31 2084.93 1263.02 2085.64C1263.73 2086.35 1264.69 2086.75 1265.7 2086.75H1360.19C1361.15 2086.75 1362.06 2086.37 1362.74 2085.69C1363.42 2085.01 1363.8 2084.1 1363.8 2083.14V1853.46C1363.8 1852.07 1364.34 1850.73 1365.31 1849.72C1366.27 1848.72 1367.59 1848.14 1368.99 1848.09C1403.3 1847.03 1428.93 1849.7 1445.88 1856.1C1497.88 1875.63 1498.41 1957.3 1446.32 1979.65C1429.9 1986.75 1409.28 1989.62 1384.47 1988.27C1383.84 1988.24 1383.2 1988.33 1382.61 1988.55C1382.01 1988.77 1381.46 1989.11 1381 1989.54C1380.54 1989.98 1380.17 1990.51 1379.92 1991.09C1379.67 1991.67 1379.54 1992.3 1379.55 1992.94V2082.35C1379.54 2083.75 1380.08 2085.1 1381.05 2086.11C1382.01 2087.13 1383.34 2087.73 1384.74 2087.8Z" stroke="#9497BF" stroke-width="2"/>
<path d="M2797.98 1751.82H2706.74C2705.22 1751.82 2703.77 1752.41 2702.7 1753.47C2701.62 1754.52 2701.02 1755.95 2701.02 1757.45C2700.96 1812.6 2700.96 1875.84 2701.02 1947.18C2701.11 2046.26 2739.56 2090.44 2841.09 2086.74C2842.49 2086.68 2843.81 2086.07 2844.77 2085.06C2845.74 2084.04 2846.28 2082.69 2846.28 2081.29V1994.08C2846.28 1992.79 2845.79 1991.54 2844.91 1990.59C2844.03 1989.64 2842.82 1989.07 2841.53 1988.98L2825.16 1987.66C2819.25 1987.19 2813.73 1984.51 2809.7 1980.16C2805.67 1975.81 2803.43 1970.09 2803.43 1964.16V1757.18C2803.43 1755.76 2802.86 1754.4 2801.83 1753.39C2800.81 1752.38 2799.42 1751.82 2797.98 1751.82Z" stroke="#9497BF" stroke-width="2"/>
<path d="M1870.66 1919.02C1870.66 1898.94 1862.68 1879.69 1848.49 1865.5C1834.3 1851.31 1815.06 1843.34 1794.99 1843.34C1785.06 1843.34 1775.22 1845.29 1766.04 1849.1C1756.86 1852.9 1748.52 1858.47 1741.49 1865.5C1734.46 1872.53 1728.89 1880.87 1725.09 1890.05C1721.29 1899.24 1719.33 1909.08 1719.33 1919.02C1719.33 1928.95 1721.29 1938.8 1725.09 1947.98C1728.89 1957.16 1734.46 1965.5 1741.49 1972.53C1748.52 1979.56 1756.86 1985.13 1766.04 1988.94C1775.22 1992.74 1785.06 1994.7 1794.99 1994.7C1815.06 1994.7 1834.3 1986.72 1848.49 1972.53C1862.68 1958.34 1870.66 1939.09 1870.66 1919.02Z" stroke="#9497BF" stroke-width="2"/>
<path d="M1874.09 8.44869C2652.84 8.50735 3094.3 8.00869 3198.47 6.95269C3270.73 6.19002 3343.58 10.9127 3417.01 21.1207C3556.29 40.5687 3676.12 100.849 3719.85 244.025C3733.04 286.969 3739.64 334.049 3739.64 382.713C3739.7 765.982 3739.67 1275.68 3739.55 1911.8C3739.55 2030.6 3706.03 2147.29 3592.8 2198.68C3530.51 2227.02 3462.15 2234.58 3384.81 2236.34C3324.46 2237.64 3245.83 2235.99 3148.94 2231.42C3069.11 2227.66 2990.48 2225.9 2913.06 2226.14C2843.32 2226.37 2496.96 2226.46 1874 2226.4C1251.09 2226.4 904.769 2226.28 835.029 2226.05C757.547 2225.81 678.892 2227.57 599.063 2231.33C502.167 2235.9 423.541 2237.55 363.186 2236.26C285.85 2234.5 217.489 2226.93 155.198 2198.59C41.9662 2147.2 8.53329 2030.51 8.53329 1911.71C8.41599 1275.59 8.41599 765.894 8.53329 382.625C8.53329 333.961 15.1319 286.881 28.3291 243.937C72.0557 100.761 191.886 40.4807 331.16 21.0327C404.595 10.8247 477.444 6.10202 549.706 6.86469C653.876 7.92069 1095.34 8.44869 1874.09 8.44869ZM880.691 425.217C880.691 356.32 852.104 290.245 801.219 241.527C750.334 192.81 681.319 165.441 609.357 165.441C537.395 165.441 468.38 192.81 417.495 241.527C366.61 290.245 338.023 356.32 338.023 425.217C338.023 494.114 366.61 560.189 417.495 608.906C468.38 657.623 537.395 684.993 609.357 684.993C681.319 684.993 750.334 657.623 801.219 608.906C852.104 560.189 880.691 494.114 880.691 425.217ZM998.41 1142.94C998.06 1142.9 997.704 1142.97 997.406 1143.16C997.107 1143.35 996.886 1143.64 996.78 1143.98C996.675 1144.32 996.692 1144.68 996.829 1145.01C996.967 1145.33 997.215 1145.6 997.53 1145.76L1910.34 1624.74C1910.8 1624.99 1911.32 1625.12 1911.84 1625.12C1912.37 1625.13 1912.89 1625.01 1913.36 1624.78C1913.83 1624.55 1914.24 1624.21 1914.55 1623.79C1914.87 1623.37 1915.08 1622.89 1915.17 1622.37C1937.99 1495.24 1972.36 1372.86 2018.29 1255.23C2039.17 1201.79 2060.2 1156.82 2081.37 1120.33C2269.91 795.257 2543.54 498.433 2840.12 263.737C2840.39 263.499 2840.57 263.183 2840.64 262.835C2840.71 262.487 2840.67 262.124 2840.53 261.8C2840.38 261.476 2840.13 261.208 2839.82 261.034C2839.51 260.86 2839.15 260.789 2838.8 260.833C2570.9 306.241 2319.98 444.401 2122.63 629.465C2071.72 677.219 2016.06 736.619 1955.65 807.665C1881.1 895.371 1823.88 966.446 1783.99 1020.89C1745.37 1073.78 1699.27 1134.94 1684.05 1193.28C1683.86 1194.07 1683.4 1194.76 1682.75 1195.23C1682.1 1195.7 1681.31 1195.91 1680.53 1195.83L998.41 1142.94ZM2404.09 735.945H2762.26C2766.11 735.945 2769.96 736.508 2773.7 737.617C2888.42 771.057 2975.26 859.145 2974.56 983.225C2973.97 1085.6 2931.94 1163.27 2848.48 1216.25C2831.76 1226.81 2817.77 1232.09 2806.51 1232.09C2613.83 1231.8 2443.47 1231.77 2295.43 1232C2294.45 1232 2293.49 1232.28 2292.65 1232.79C2291.81 1233.3 2291.13 1234.03 2290.68 1234.9L2110.93 1610.14C2110.76 1610.46 2110.68 1610.83 2110.7 1611.19C2110.71 1611.56 2110.83 1611.92 2111.02 1612.23C2111.22 1612.54 2111.49 1612.79 2111.81 1612.97C2112.14 1613.14 2112.5 1613.23 2112.87 1613.22H2860.97C2865.58 1613.22 2870.17 1612.56 2874.61 1611.28C3116.47 1543.96 3308.8 1367.26 3361.85 1116.9C3393.52 967.385 3378.83 779.241 3308.53 641.873C3233.92 496.203 3113.89 401.163 2948.43 356.753C2943.52 355.467 2938.49 354.817 2933.47 354.817H2779.77C2777.97 354.817 2776.22 355.545 2774.93 356.841L2401.62 730.137C2401.16 730.621 2400.85 731.232 2400.72 731.892C2400.6 732.553 2400.68 733.235 2400.94 733.853C2401.2 734.471 2401.64 734.999 2402.2 735.371C2402.76 735.743 2403.41 735.942 2404.09 735.945ZM2432.59 359.217H1677.98C1677.16 359.217 1676.38 359.541 1675.8 360.119C1675.22 360.696 1674.9 361.48 1674.9 362.297V1066.47C1674.9 1066.92 1675.05 1067.36 1675.32 1067.72C1675.6 1068.08 1675.98 1068.35 1676.41 1068.47C1676.84 1068.6 1677.31 1068.59 1677.73 1068.43C1678.16 1068.28 1678.52 1067.99 1678.77 1067.62C1743.58 971.286 1814.76 876.011 1892.3 781.793C1981.95 673.025 2086.03 577.545 2196.36 496.233C2272.67 439.971 2351.53 394.827 2432.94 360.801C2433.12 360.738 2433.26 360.618 2433.34 360.461C2433.43 360.304 2433.45 360.118 2433.41 359.935C2433.37 359.752 2433.27 359.581 2433.12 359.451C2432.97 359.32 2432.78 359.238 2432.59 359.217ZM907.086 541.289C884.68 603.769 848.871 649.558 799.66 678.657C726.284 722.011 643.318 737.206 550.762 724.241C536.567 722.246 520.173 719.459 501.58 715.881C501.035 715.777 500.474 715.795 499.937 715.933C499.4 716.071 498.899 716.325 498.471 716.678C498.043 717.03 497.698 717.473 497.46 717.974C497.221 718.475 497.096 719.022 497.093 719.577V1631.61C497.093 1632.59 497.482 1633.53 498.175 1634.22C498.868 1634.92 499.808 1635.3 500.788 1635.3H1790.59C1791.01 1635.31 1791.42 1635.16 1791.75 1634.9C1792.08 1634.64 1792.31 1634.27 1792.4 1633.86C1792.49 1633.45 1792.44 1633.02 1792.26 1632.64C1792.07 1632.27 1791.77 1631.96 1791.38 1631.78L911.749 1184.22C910.955 1183.82 910.288 1183.21 909.822 1182.45C909.355 1181.69 909.108 1180.81 909.109 1179.9V541.641C909.094 541.404 909 541.178 908.842 541.002C908.684 540.825 908.47 540.706 908.236 540.666C908.002 540.625 907.762 540.664 907.553 540.777C907.344 540.89 907.179 541.07 907.086 541.289ZM1078.03 1842.63C1091.93 1842.69 1098.94 1851.55 1099.06 1869.21C1099.53 1926.64 1099.44 1997.98 1098.8 2083.22C1098.78 2083.71 1098.87 2084.18 1099.05 2084.63C1099.22 2085.08 1099.49 2085.49 1099.82 2085.83C1100.16 2086.18 1100.56 2086.45 1101 2086.64C1101.45 2086.82 1101.92 2086.92 1102.4 2086.92H1195.4C1196.74 2086.92 1198.02 2086.4 1198.98 2085.46C1199.93 2084.52 1200.48 2083.24 1200.5 2081.9C1201.91 1949.55 1201.73 1872.61 1199.97 1851.08C1194.52 1783.14 1147.1 1743.72 1078.3 1743.46C1009.5 1743.28 961.81 1782.44 955.915 1850.38C954.038 1871.91 953.452 1948.85 954.155 2081.2C954.178 2082.52 954.714 2083.79 955.649 2084.72C956.585 2085.66 957.847 2086.19 959.17 2086.22L1052.17 2086.74C1053.12 2086.74 1054.04 2086.36 1054.72 2085.69C1055.39 2085.01 1055.77 2084.09 1055.77 2083.14C1055.66 1997.89 1055.98 1926.56 1056.74 1869.12C1056.98 1851.4 1064.07 1842.57 1078.03 1842.63ZM2351.83 1923.94H2255.93C2254.6 1923.95 2253.32 1924.44 2252.32 1925.31C2251.32 1926.18 2250.66 1927.38 2250.47 1928.7C2245.19 1967.89 2224.72 1989.92 2189.06 1994.78C2087.71 2008.6 2075.83 1854.16 2168.91 1843.51C2206.8 1839.11 2232.67 1855.48 2246.51 1892.62C2246.99 1893.96 2247.89 1895.11 2249.08 1895.88C2250.28 1896.66 2251.69 1897.03 2253.11 1896.93L2351.56 1890.77C2352.28 1890.71 2352.98 1890.5 2353.62 1890.15C2354.25 1889.79 2354.8 1889.31 2355.22 1888.72C2355.65 1888.14 2355.94 1887.47 2356.09 1886.76C2356.23 1886.05 2356.22 1885.31 2356.05 1884.61C2339.98 1817.67 2302.23 1773.82 2242.82 1753.05C2129.32 1713.18 2007.47 1790.71 2001.04 1908.81C1988.64 2137.61 2333.97 2168.41 2357.1 1929.84C2357.17 1929.09 2357.07 1928.33 2356.84 1927.61C2356.6 1926.9 2356.22 1926.24 2355.72 1925.69C2355.23 1925.13 2354.62 1924.69 2353.95 1924.39C2353.28 1924.09 2352.56 1923.94 2351.83 1923.94ZM2524.44 1918.31H2506.85C2505.24 1918.31 2503.7 1917.69 2502.55 1916.57C2501.4 1915.45 2500.74 1913.93 2500.69 1912.33C2500.04 1884.23 2500.98 1865.95 2503.5 1857.5C2508.34 1841.22 2534.83 1835.42 2542.3 1853.81C2544.36 1858.85 2545.38 1865.78 2545.38 1874.58C2545.44 2012.21 2545.44 2081.2 2545.38 2081.55C2545.32 2082.21 2545.4 2082.88 2545.61 2083.51C2545.82 2084.13 2546.16 2084.71 2546.61 2085.2C2547.06 2085.69 2547.6 2086.08 2548.21 2086.35C2548.82 2086.61 2549.47 2086.75 2550.14 2086.74H2641.28C2642.87 2086.74 2644.39 2086.11 2645.51 2084.99C2646.64 2083.87 2647.27 2082.35 2647.27 2080.76C2647.15 2029.13 2647.24 1967.36 2647.53 1895.43C2647.79 1819.22 2638.82 1756.22 2556.29 1745.48C2467.34 1733.95 2399.51 1776.19 2398.46 1870.09C2398.46 1874.25 2398.54 1945.5 2398.72 2083.84C2398.72 2084.61 2399.03 2085.35 2399.6 2085.89C2400.16 2086.44 2400.92 2086.74 2401.71 2086.74H2495.94C2497.25 2086.74 2498.5 2086.23 2499.42 2085.3C2500.35 2084.38 2500.87 2083.12 2500.87 2081.82V2012.21C2500.87 2010.83 2501.41 2009.51 2502.39 2008.54C2503.36 2007.56 2504.68 2007.02 2506.06 2007.02H2524.88C2526.28 2007.02 2527.63 2006.47 2528.62 2005.5C2529.61 2004.52 2530.16 2003.2 2530.16 2001.82V1924.03C2530.16 1922.52 2529.56 1921.06 2528.49 1919.99C2527.42 1918.92 2525.96 1918.31 2524.44 1918.31ZM1974.65 1919.51C1974.69 1896.38 1970.09 1873.48 1961.1 1852.1C1952.11 1830.72 1938.92 1811.28 1922.27 1794.9C1905.63 1778.52 1885.85 1765.52 1864.08 1756.63C1842.31 1747.74 1818.97 1743.15 1795.39 1743.1C1771.81 1743.06 1748.45 1747.58 1726.65 1756.39C1704.84 1765.2 1685.03 1778.14 1668.32 1794.46C1651.62 1810.78 1638.36 1830.17 1629.3 1851.52C1620.24 1872.87 1615.55 1895.75 1615.51 1918.88C1615.47 1942 1620.07 1964.91 1629.06 1986.29C1638.05 2007.67 1651.24 2027.1 1667.89 2043.48C1684.53 2059.86 1704.31 2072.87 1726.08 2081.76C1747.85 2090.64 1771.19 2095.24 1794.77 2095.28C1818.35 2095.32 1841.71 2090.81 1863.51 2082C1885.32 2073.19 1905.13 2060.25 1921.84 2043.93C1938.54 2027.6 1951.8 2008.22 1960.86 1986.87C1969.92 1965.52 1974.61 1942.63 1974.65 1919.51ZM893.624 1755.25C893.624 1754.8 893.536 1754.35 893.363 1753.94C893.191 1753.52 892.938 1753.14 892.619 1752.82C892.301 1752.5 891.923 1752.25 891.506 1752.08C891.09 1751.91 890.644 1751.82 890.193 1751.82H794.646C794.195 1751.82 793.749 1751.91 793.332 1752.08C792.916 1752.25 792.538 1752.5 792.219 1752.82C791.901 1753.14 791.648 1753.52 791.475 1753.94C791.303 1754.35 791.214 1754.8 791.214 1755.25V2083.31C791.214 2084.22 791.576 2085.1 792.219 2085.74C792.863 2086.38 793.736 2086.74 794.646 2086.74H890.193C891.103 2086.74 891.976 2086.38 892.619 2085.74C893.263 2085.1 893.624 2084.22 893.624 2083.31V1755.25ZM1384.74 2087.8C1435.65 2090.15 1474.65 2083.43 1501.75 2067.65C1571.43 2027.17 1599.18 1964.37 1584.98 1879.24C1578.7 1841.81 1559.2 1811.33 1526.47 1787.81C1475 1750.85 1421.6 1751.82 1353.85 1751.82C1298.37 1751.76 1269.42 1751.82 1267.02 1751.99C1265.63 1752.08 1264.33 1752.7 1263.39 1753.71C1262.44 1754.72 1261.91 1756.06 1261.91 1757.45V2082.96C1261.91 2083.96 1262.31 2084.93 1263.02 2085.64C1263.73 2086.35 1264.69 2086.74 1265.7 2086.74H1360.19C1361.15 2086.74 1362.06 2086.36 1362.74 2085.69C1363.42 2085.01 1363.8 2084.09 1363.8 2083.14V1853.46C1363.8 1852.06 1364.34 1850.72 1365.31 1849.72C1366.27 1848.72 1367.59 1848.13 1368.99 1848.09C1403.3 1847.03 1428.93 1849.7 1445.88 1856.1C1497.88 1875.63 1498.41 1957.3 1446.32 1979.65C1429.9 1986.75 1409.28 1989.62 1384.47 1988.27C1383.84 1988.24 1383.2 1988.33 1382.61 1988.55C1382.01 1988.77 1381.46 1989.1 1381 1989.54C1380.54 1989.98 1380.17 1990.5 1379.92 1991.09C1379.67 1991.67 1379.54 1992.3 1379.54 1992.94V2082.34C1379.54 2083.75 1380.08 2085.1 1381.05 2086.11C1382.01 2087.13 1383.34 2087.73 1384.74 2087.8ZM2797.98 1751.82H2706.74C2705.22 1751.82 2703.77 1752.41 2702.7 1753.47C2701.63 1754.52 2701.02 1755.95 2701.02 1757.45C2700.96 1812.6 2700.96 1875.84 2701.02 1947.18C2701.11 2046.26 2739.56 2090.44 2841.09 2086.74C2842.49 2086.68 2843.81 2086.07 2844.78 2085.06C2845.74 2084.04 2846.28 2082.69 2846.28 2081.29V1994.08C2846.28 1992.79 2845.79 1991.54 2844.91 1990.59C2844.03 1989.64 2842.82 1989.07 2841.53 1988.98L2825.16 1987.66C2819.25 1987.19 2813.73 1984.52 2809.7 1980.16C2805.68 1975.81 2803.44 1970.09 2803.43 1964.16V1757.18C2803.43 1755.76 2802.86 1754.4 2801.84 1753.39C2800.81 1752.38 2799.42 1751.82 2797.98 1751.82Z" fill="#292F7E"/>
<path d="M609.358 684.993C759.211 684.993 880.692 568.688 880.692 425.217C880.692 281.747 759.211 165.441 609.358 165.441C459.504 165.441 338.023 281.747 338.023 425.217C338.023 568.688 459.504 684.993 609.358 684.993Z" fill="white"/>
<path d="M998.409 1142.94L1680.53 1195.83C1681.31 1195.91 1682.1 1195.7 1682.75 1195.23C1683.4 1194.76 1683.86 1194.07 1684.05 1193.28C1699.27 1134.94 1745.37 1073.78 1783.99 1020.89C1823.88 966.446 1881.1 895.371 1955.64 807.665C2016.06 736.619 2071.72 677.219 2122.63 629.465C2319.97 444.401 2570.9 306.241 2838.8 260.833C2839.15 260.789 2839.51 260.86 2839.82 261.034C2840.13 261.208 2840.38 261.477 2840.53 261.8C2840.67 262.124 2840.71 262.487 2840.64 262.835C2840.57 263.183 2840.38 263.499 2840.12 263.737C2543.54 498.433 2269.91 795.257 2081.37 1120.33C2060.2 1156.82 2039.17 1201.79 2018.29 1255.23C1972.36 1372.86 1937.99 1495.24 1915.17 1622.37C1915.08 1622.89 1914.87 1623.37 1914.55 1623.79C1914.24 1624.21 1913.83 1624.55 1913.36 1624.78C1912.88 1625.01 1912.37 1625.13 1911.84 1625.12C1911.32 1625.12 1910.8 1624.99 1910.33 1624.74L997.529 1145.76C997.214 1145.6 996.966 1145.33 996.828 1145.01C996.691 1144.68 996.674 1144.32 996.779 1143.98C996.884 1143.64 997.106 1143.35 997.404 1143.16C997.703 1142.97 998.059 1142.9 998.409 1142.94Z" fill="white"/>
<path d="M2404.08 735.944C2403.41 735.942 2402.76 735.742 2402.2 735.371C2401.64 734.999 2401.2 734.471 2400.94 733.853C2400.68 733.234 2400.6 732.553 2400.72 731.892C2400.84 731.232 2401.16 730.621 2401.62 730.136L2774.92 356.84C2776.22 355.545 2777.96 354.817 2779.76 354.816H2933.47C2938.49 354.816 2943.52 355.467 2948.42 356.752C3113.89 401.163 3233.92 496.203 3308.53 641.872C3378.83 779.24 3393.52 967.384 3361.85 1116.9C3308.79 1367.26 3116.47 1543.96 2874.61 1611.28C2870.17 1612.56 2865.58 1613.22 2860.97 1613.22H2112.87C2112.5 1613.23 2112.14 1613.14 2111.81 1612.97C2111.49 1612.79 2111.21 1612.54 2111.02 1612.23C2110.82 1611.92 2110.71 1611.56 2110.7 1611.19C2110.68 1610.83 2110.76 1610.46 2110.93 1610.14L2290.68 1234.9C2291.13 1234.03 2291.81 1233.3 2292.65 1232.79C2293.48 1232.28 2294.45 1232 2295.43 1232C2443.47 1231.77 2613.83 1231.79 2806.51 1232.09C2817.77 1232.09 2831.76 1226.81 2848.48 1216.25C2931.94 1163.27 2973.97 1085.6 2974.55 983.224C2975.26 859.144 2888.42 771.056 2773.69 737.616C2769.96 736.507 2766.11 735.944 2762.26 735.944H2404.08Z" fill="white"/>
<path d="M2432.59 359.215C2432.79 359.236 2432.97 359.318 2433.12 359.449C2433.27 359.579 2433.37 359.75 2433.41 359.933C2433.45 360.117 2433.43 360.302 2433.34 360.459C2433.26 360.616 2433.12 360.736 2432.94 360.799C2351.53 394.826 2272.67 439.97 2196.36 496.231C2086.03 577.543 1981.95 673.023 1892.3 781.791C1814.76 876.009 1743.58 971.284 1678.77 1067.61C1678.52 1067.99 1678.16 1068.28 1677.73 1068.43C1677.31 1068.59 1676.84 1068.6 1676.41 1068.47C1675.98 1068.35 1675.6 1068.08 1675.33 1067.72C1675.05 1067.36 1674.9 1066.92 1674.9 1066.47V362.295C1674.9 361.478 1675.22 360.695 1675.8 360.117C1676.38 359.539 1677.16 359.215 1677.98 359.215H2432.59Z" fill="white"/>
<path d="M909.11 541.639V1179.9C909.109 1180.8 909.356 1181.68 909.822 1182.45C910.289 1183.21 910.956 1183.82 911.749 1184.22L1791.39 1631.78C1791.77 1631.96 1792.07 1632.27 1792.26 1632.64C1792.44 1633.02 1792.49 1633.45 1792.4 1633.86C1792.31 1634.27 1792.08 1634.64 1791.75 1634.9C1791.42 1635.16 1791.01 1635.3 1790.59 1635.3H500.789C499.809 1635.3 498.869 1634.91 498.176 1634.22C497.483 1633.53 497.094 1632.59 497.094 1631.61V719.575C497.097 719.02 497.222 718.473 497.46 717.972C497.698 717.471 498.044 717.029 498.472 716.676C498.9 716.323 499.4 716.069 499.938 715.932C500.475 715.794 501.036 715.776 501.581 715.879C520.174 719.458 536.568 722.244 550.762 724.239C643.319 737.204 726.285 722.01 799.661 678.655C848.872 649.556 884.68 603.767 907.086 541.287C907.18 541.069 907.345 540.889 907.553 540.776C907.762 540.663 908.003 540.623 908.237 540.664C908.471 540.705 908.684 540.823 908.843 541C909.001 541.177 909.095 541.402 909.11 541.639Z" fill="white"/>
<path d="M1078.3 1743.46C1147.1 1743.72 1194.52 1783.15 1199.97 1851.08C1201.73 1872.61 1201.91 1949.55 1200.5 2081.91C1200.48 2083.24 1199.93 2084.52 1198.98 2085.46C1198.02 2086.4 1196.74 2086.92 1195.4 2086.92H1102.4C1101.92 2086.92 1101.45 2086.83 1101 2086.64C1100.56 2086.45 1100.16 2086.18 1099.82 2085.83C1099.49 2085.49 1099.22 2085.08 1099.05 2084.63C1098.87 2084.19 1098.78 2083.71 1098.8 2083.23C1099.44 1997.98 1099.53 1926.64 1099.06 1869.21C1098.94 1851.55 1091.93 1842.69 1078.03 1842.63C1064.07 1842.57 1056.98 1851.4 1056.74 1869.12C1055.98 1926.56 1055.66 1997.9 1055.77 2083.14C1055.77 2084.09 1055.39 2085.01 1054.72 2085.69C1054.04 2086.37 1053.12 2086.75 1052.17 2086.75L959.17 2086.22C957.847 2086.2 956.585 2085.66 955.649 2084.72C954.713 2083.79 954.178 2082.52 954.155 2081.2C953.451 1948.85 954.038 1871.91 955.915 1850.38C961.81 1782.44 1009.5 1743.28 1078.3 1743.46Z" fill="white"/>
<path d="M2357.11 1929.84C2333.97 2168.41 1988.64 2137.61 2001.05 1908.81C2007.47 1790.71 2129.32 1713.18 2242.82 1753.05C2302.23 1773.82 2339.98 1817.67 2356.05 1884.61C2356.22 1885.31 2356.23 1886.05 2356.09 1886.76C2355.94 1887.47 2355.65 1888.14 2355.22 1888.72C2354.8 1889.31 2354.25 1889.79 2353.62 1890.15C2352.98 1890.5 2352.28 1890.71 2351.56 1890.77L2253.11 1896.93C2251.69 1897.03 2250.28 1896.66 2249.09 1895.88C2247.89 1895.11 2246.99 1893.96 2246.51 1892.62C2232.67 1855.48 2206.8 1839.11 2168.91 1843.51C2075.83 1854.16 2087.71 2008.6 2189.06 1994.78C2224.72 1989.92 2245.19 1967.89 2250.47 1928.7C2250.66 1927.38 2251.32 1926.18 2252.32 1925.31C2253.32 1924.44 2254.6 1923.95 2255.93 1923.94H2351.83C2352.56 1923.94 2353.28 1924.09 2353.95 1924.39C2354.62 1924.69 2355.23 1925.13 2355.72 1925.69C2356.22 1926.24 2356.6 1926.9 2356.84 1927.61C2357.08 1928.33 2357.17 1929.09 2357.11 1929.84Z" fill="white"/>
<path d="M2524.44 1918.31C2525.96 1918.31 2527.41 1918.92 2528.49 1919.99C2529.56 1921.06 2530.16 1922.52 2530.16 1924.03V2001.83C2530.16 2003.2 2529.61 2004.52 2528.62 2005.5C2527.63 2006.47 2526.28 2007.02 2524.88 2007.02H2506.05C2504.68 2007.02 2503.36 2007.56 2502.38 2008.54C2501.41 2009.51 2500.86 2010.83 2500.86 2012.21V2081.82C2500.86 2083.12 2500.34 2084.38 2499.42 2085.3C2498.5 2086.23 2497.24 2086.75 2495.94 2086.75H2401.71C2400.92 2086.75 2400.15 2086.44 2399.59 2085.89C2399.03 2085.35 2398.72 2084.61 2398.72 2083.84C2398.54 1945.51 2398.45 1874.25 2398.45 1870.09C2399.51 1776.19 2467.34 1733.95 2556.29 1745.48C2638.82 1756.22 2647.79 1819.23 2647.53 1895.43C2647.23 1967.36 2647.15 2029.13 2647.26 2080.76C2647.26 2082.35 2646.63 2083.87 2645.51 2084.99C2644.39 2086.11 2642.87 2086.75 2641.28 2086.75H2550.13C2549.47 2086.75 2548.81 2086.61 2548.21 2086.35C2547.6 2086.08 2547.06 2085.69 2546.61 2085.2C2546.16 2084.71 2545.82 2084.14 2545.61 2083.51C2545.4 2082.88 2545.32 2082.21 2545.38 2081.55C2545.44 2081.2 2545.44 2012.21 2545.38 1874.58C2545.38 1865.78 2544.36 1858.85 2542.3 1853.81C2534.82 1835.42 2508.34 1841.23 2503.5 1857.51C2500.98 1865.95 2500.04 1884.23 2500.69 1912.33C2500.73 1913.93 2501.4 1915.45 2502.55 1916.57C2503.7 1917.69 2505.24 1918.31 2506.85 1918.31H2524.44Z" fill="white"/>
<path d="M1974.65 1919.51C1974.61 1942.63 1969.92 1965.52 1960.86 1986.87C1951.8 2008.22 1938.54 2027.61 1921.84 2043.93C1905.13 2060.25 1885.31 2073.19 1863.51 2082C1841.71 2090.81 1818.35 2095.32 1794.77 2095.28C1771.19 2095.24 1747.85 2090.65 1726.08 2081.76C1704.3 2072.87 1684.53 2059.87 1667.89 2043.49C1651.24 2027.1 1638.05 2007.67 1629.06 1986.29C1620.07 1964.91 1615.47 1942 1615.51 1918.88C1615.55 1895.76 1620.23 1872.87 1629.29 1851.52C1638.36 1830.17 1651.62 1810.78 1668.32 1794.46C1685.02 1778.14 1704.84 1765.2 1726.64 1756.39C1748.44 1747.58 1771.8 1743.06 1795.38 1743.11C1818.97 1743.15 1842.31 1747.74 1864.08 1756.63C1885.85 1765.52 1905.62 1778.52 1922.27 1794.9C1938.92 1811.28 1952.11 1830.72 1961.1 1852.1C1970.08 1873.48 1974.69 1896.38 1974.65 1919.51ZM1870.65 1919.02C1870.65 1898.95 1862.68 1879.7 1848.49 1865.5C1834.3 1851.31 1815.06 1843.34 1794.99 1843.34C1785.05 1843.34 1775.21 1845.3 1766.03 1849.1C1756.85 1852.9 1748.51 1858.48 1741.49 1865.5C1734.46 1872.53 1728.89 1880.87 1725.09 1890.06C1721.28 1899.24 1719.33 1909.08 1719.33 1919.02C1719.33 1928.96 1721.28 1938.8 1725.09 1947.98C1728.89 1957.16 1734.46 1965.5 1741.49 1972.53C1748.51 1979.56 1756.85 1985.13 1766.03 1988.94C1775.21 1992.74 1785.05 1994.7 1794.99 1994.7C1815.06 1994.7 1834.3 1986.72 1848.49 1972.53C1862.68 1958.34 1870.65 1939.09 1870.65 1919.02Z" fill="white"/>
<path d="M890.198 1751.82H794.65C792.755 1751.82 791.219 1753.35 791.219 1755.25V2083.31C791.219 2085.21 792.755 2086.74 794.65 2086.74H890.198C892.093 2086.74 893.629 2085.21 893.629 2083.31V1755.25C893.629 1753.35 892.093 1751.82 890.198 1751.82Z" fill="white"/>
<path d="M1379.55 2082.34V1992.93C1379.54 1992.3 1379.67 1991.67 1379.92 1991.09C1380.17 1990.5 1380.54 1989.98 1381 1989.54C1381.46 1989.1 1382.01 1988.77 1382.61 1988.55C1383.2 1988.33 1383.84 1988.23 1384.47 1988.27C1409.28 1989.62 1429.9 1986.75 1446.32 1979.65C1498.41 1957.29 1497.88 1875.63 1445.88 1856.09C1428.93 1849.7 1403.3 1847.03 1368.99 1848.09C1367.59 1848.13 1366.27 1848.72 1365.31 1849.72C1364.34 1850.72 1363.8 1852.06 1363.8 1853.45V2083.13C1363.8 2084.09 1363.42 2085.01 1362.74 2085.69C1362.06 2086.36 1361.15 2086.74 1360.19 2086.74H1265.7C1264.69 2086.74 1263.73 2086.34 1263.02 2085.63C1262.31 2084.93 1261.91 2083.96 1261.91 2082.96V1757.45C1261.91 1756.06 1262.44 1754.72 1263.39 1753.71C1264.33 1752.69 1265.63 1752.08 1267.02 1751.99C1269.42 1751.81 1298.37 1751.76 1353.85 1751.81C1421.6 1751.81 1475 1750.85 1526.47 1787.81C1559.2 1811.33 1578.71 1841.81 1584.98 1879.24C1599.18 1964.36 1571.43 2027.17 1501.75 2067.65C1474.65 2083.43 1435.65 2090.15 1384.74 2087.8C1383.34 2087.73 1382.01 2087.13 1381.05 2086.11C1380.08 2085.09 1379.54 2083.75 1379.55 2082.34Z" fill="white"/>
<path d="M2803.43 1757.18V1964.16C2803.43 1970.09 2805.67 1975.81 2809.7 1980.16C2813.73 1984.51 2819.25 1987.19 2825.16 1987.66L2841.53 1988.98C2842.82 1989.07 2844.03 1989.64 2844.91 1990.59C2845.79 1991.54 2846.28 1992.79 2846.28 1994.08V2081.29C2846.28 2082.69 2845.74 2084.04 2844.77 2085.06C2843.81 2086.07 2842.49 2086.68 2841.09 2086.74C2739.56 2090.44 2701.11 2046.26 2701.02 1947.18C2700.96 1875.84 2700.96 1812.6 2701.02 1757.45C2701.02 1755.95 2701.62 1754.52 2702.7 1753.47C2703.77 1752.41 2705.22 1751.82 2706.74 1751.82H2797.98C2799.42 1751.82 2800.81 1752.38 2801.83 1753.39C2802.86 1754.4 2803.43 1755.76 2803.43 1757.18Z" fill="white"/>
<path d="M1794.99 1994.7C1836.78 1994.7 1870.66 1960.81 1870.66 1919.02C1870.66 1877.22 1836.78 1843.34 1794.99 1843.34C1753.2 1843.34 1719.33 1877.22 1719.33 1919.02C1719.33 1960.81 1753.2 1994.7 1794.99 1994.7Z" fill="#292F7E"/>
</svg>
