<svg width="1966" height="1600" viewBox="0 0 1966 1600" fill="none" xmlns="http://www.w3.org/2000/svg">
<path d="M1209.82 920.937C1209.77 920.937 1209.73 920.921 1209.7 920.894C1209.67 920.866 1209.66 920.829 1209.66 920.789C1209.59 881.242 1209.57 831.457 1209.6 771.433C1209.6 765.458 1208.92 761.319 1202.22 761.229C1197.84 761.176 1178.16 761.149 1143.18 761.149C1125.87 761.149 1108.76 755.718 1102.66 737.736C1101.57 734.524 1101.02 729.35 1101.02 722.214C1101.08 581.69 1101.09 490.959 1101.03 450.021C1101.02 444.522 1104.78 443.898 1109.64 443.887C1119.78 443.887 1150.74 443.887 1202.52 443.887C1210.25 443.887 1210.6 439.295 1210.59 432.651C1210.54 377.6 1210.54 333.159 1210.57 299.326C1210.58 292.591 1206.97 291.344 1200.85 291.344C1155.65 291.291 1125.26 291.302 1109.68 291.378C1104.26 291.401 1101.05 290.46 1101.05 284.439C1101.08 209.903 1101.08 145.857 1101.03 92.3039C1101.03 83.0898 1104.4 75.5424 1111.15 69.6618C1117.87 63.8226 1124.61 62.9609 1134.33 62.9609C1256.27 62.9912 1503.05 62.995 1874.64 62.9723C1884.35 62.9647 1890.24 63.2179 1892.31 63.7319C1902.06 66.1243 1910.22 73.8795 1912.98 83.7096C1913.67 86.1662 1914.01 90.2366 1914.01 95.9208C1914 410.054 1914 672.939 1914.02 884.576C1914.02 893.51 1913.46 899.474 1912.33 902.467C1910.14 908.242 1906.17 912.996 1900.41 916.73C1893.56 921.164 1886.85 920.96 1877.36 920.96C1631.41 920.929 1408.89 920.922 1209.82 920.937ZM1502.38 419.816C1502.31 461.155 1533.07 491.257 1574.54 491.325C1616.01 491.405 1646.86 461.393 1646.94 420.065C1647.01 378.727 1616.25 348.624 1574.78 348.556C1533.31 348.488 1502.45 378.489 1502.38 419.816ZM1680.19 419.816C1680.12 461.143 1710.87 491.246 1752.34 491.325C1793.81 491.393 1824.67 461.393 1824.74 420.054C1824.81 378.727 1794.06 348.624 1752.59 348.545C1711.12 348.477 1680.26 378.477 1680.19 419.816ZM1502.38 600.987C1502.31 642.326 1533.07 672.429 1574.54 672.497C1616.01 672.576 1646.86 642.564 1646.94 601.237C1647.01 559.909 1616.25 529.795 1574.78 529.727C1533.31 529.659 1502.45 559.66 1502.38 600.987ZM1680.18 600.999C1680.11 642.326 1710.87 672.44 1752.34 672.508C1793.81 672.576 1824.67 642.575 1824.74 601.237C1824.81 559.909 1794.06 529.795 1752.58 529.727C1711.11 529.659 1680.25 559.66 1680.18 600.999ZM1463.06 551.383C1463.06 548.914 1462.07 546.547 1460.33 544.801C1458.58 543.055 1456.21 542.075 1453.73 542.075H1158.43C1155.96 542.075 1153.59 543.055 1151.84 544.801C1150.09 546.547 1149.11 548.914 1149.11 551.383V647.961C1149.11 650.43 1150.09 652.798 1151.84 654.543C1153.59 656.289 1155.96 657.27 1158.43 657.27H1453.73C1456.21 657.27 1458.58 656.289 1460.33 654.543C1462.07 652.798 1463.06 650.43 1463.06 647.961V551.383ZM1816.76 721.16C1816.76 719.714 1816.47 718.282 1815.92 716.947C1815.36 715.611 1814.55 714.397 1813.53 713.375C1812.5 712.353 1811.29 711.542 1809.95 710.988C1808.61 710.435 1807.18 710.15 1805.73 710.15H1513.88C1512.43 710.15 1511 710.435 1509.66 710.988C1508.33 711.542 1507.11 712.353 1506.09 713.375C1505.06 714.397 1504.25 715.611 1503.7 716.947C1503.14 718.282 1502.86 719.714 1502.86 721.16V814.291C1502.86 817.211 1504.02 820.011 1506.09 822.076C1508.15 824.14 1510.96 825.3 1513.88 825.3H1805.73C1808.65 825.3 1811.46 824.14 1813.53 822.076C1815.59 820.011 1816.76 817.211 1816.76 814.291V721.16Z" fill="#BE301A"/>
<path d="M898.422 448.911C898.592 448.956 898.742 449.056 898.849 449.196C898.955 449.336 899.013 449.507 899.012 449.682C899.02 602.419 899.023 754.453 899.023 905.784C899.023 912.165 898.611 916.032 897.786 917.385C894.62 922.602 890.41 922.931 883.861 922.919C843.157 922.897 790.529 922.901 725.977 922.931C720.877 922.931 717.597 922.504 716.137 921.649C711.677 919.041 710.542 915.594 710.565 910.071C710.58 902.027 710.584 894.917 710.576 888.74C710.569 884.219 708.681 880.968 704.913 878.988C698.978 875.869 695.641 878.194 690.773 882.605C655.671 914.392 608.38 932.173 561.532 936.017C529.816 938.618 497.994 935.843 466.066 927.694C421.049 916.21 382.925 893.839 351.693 860.582C311.484 817.773 288.628 760.709 282.079 702.126C280.521 688.185 279.859 668.922 280.093 644.336C280.229 630.222 280.214 610.637 280.048 585.583C279.881 560.793 280.566 541.473 282.102 527.623C290.931 448.231 330.187 372.354 399.335 330.281C443.357 303.507 494.393 291.974 545.769 292.972C596.021 293.936 644.935 310.413 684.292 341.916C691.306 347.53 701.134 342.427 701.18 333.718C701.225 324.766 701.229 240.169 701.191 79.9243C701.191 74.7305 701.709 71.404 702.746 69.9449C705.833 65.5789 709.01 64.9666 714.912 64.9666C828.816 64.9817 886.071 64.9817 886.676 64.9666C891.647 64.8532 895.214 66.4521 897.378 69.7635C898.482 71.4569 899.031 75.2672 899.023 81.1944C899.023 153.394 899.016 224.239 899.001 293.732C899.001 293.987 898.95 294.239 898.853 294.474C898.755 294.709 898.612 294.923 898.432 295.103C898.252 295.283 898.038 295.426 897.803 295.524C897.567 295.621 897.315 295.671 897.06 295.671C841.073 295.701 808.388 295.705 799.006 295.683C793.627 295.671 788.883 296.465 788.872 302.6C788.849 338.874 788.838 384.752 788.838 440.236C788.838 447.936 793.196 448.174 800.13 448.231C806.228 448.276 836.491 448.276 890.92 448.231C894.257 448.231 896.757 448.457 898.422 448.911ZM477.903 615.079C477.903 615.472 477.933 629.296 477.994 656.55C478.096 704.802 496.322 751.478 545.553 767.729C566.798 774.737 589.254 776.363 612.92 772.605C624.049 770.836 634.929 767.173 645.559 761.617C682.556 742.27 700.748 703.544 701.18 663.07C701.255 656.599 701.267 640.462 701.214 614.659C701.168 588.856 701.1 572.719 701.009 566.248C700.419 525.775 682.079 487.116 645.014 467.906C634.362 462.387 623.467 458.766 612.33 457.042C588.649 453.375 566.201 455.084 544.986 462.168C495.811 478.6 477.755 525.344 477.835 573.596C477.873 600.851 477.895 614.678 477.903 615.079Z" fill="#182859"/>
<path d="M162.035 65.9609C210.451 65.9723 253.236 87.8988 267.669 136.265C270.572 146.002 272.023 156.74 272.023 168.478C272.023 180.209 270.572 190.943 267.669 200.68C253.225 249.046 210.428 270.972 162.012 270.961C113.596 270.961 70.8109 249.034 56.3783 200.657C53.4751 190.92 52.0234 180.186 52.0234 168.455C52.0234 156.725 53.4751 145.991 56.3783 136.253C70.8223 87.8875 113.618 65.9609 162.035 65.9609Z" fill="#182859"/>
<path d="M250.665 294.961H73.3823C67.6613 294.961 63.0234 299.592 63.0234 305.304V914.618C63.0234 920.33 67.6613 924.961 73.3823 924.961H250.665C256.386 924.961 261.023 920.33 261.023 914.618V305.304C261.023 299.592 256.386 294.961 250.665 294.961Z" fill="#182859"/>
<path d="M109.303 984.962C139.152 984.825 160.899 1006.28 161.023 1036.23C161.158 1066.18 139.604 1087.82 109.755 1087.96C79.9058 1088.1 58.1595 1066.65 58.0241 1036.69C57.8887 1006.74 79.4431 985.098 109.303 984.962Z" fill="#182859"/>
<path d="M780.41 1396.79C780.404 1396.71 780.374 1396.63 780.323 1396.57C780.273 1396.5 780.204 1396.45 780.125 1396.42C780.047 1396.4 779.961 1396.39 779.879 1396.41C779.797 1396.43 779.722 1396.47 779.662 1396.53C761.283 1415.1 736.852 1425.84 711.074 1428.76C668.445 1433.59 623.709 1423.95 589.398 1397.49C541.025 1360.16 525.558 1297.65 532.662 1239.36C539.574 1182.71 568.934 1136.73 622.429 1115.26C639.879 1108.25 658.406 1104.76 677.703 1103.49C689.336 1102.73 700.373 1103.32 710.813 1105.27C734.62 1109.71 758.212 1119.15 777.135 1134.81C777.182 1134.85 777.24 1134.87 777.302 1134.88C777.364 1134.89 777.427 1134.88 777.483 1134.85C777.54 1134.82 777.589 1134.78 777.623 1134.72C777.658 1134.67 777.677 1134.61 777.679 1134.54V987.746C777.679 987.538 777.761 987.338 777.908 987.191C778.055 987.044 778.253 986.961 778.461 986.961H867.468C867.541 986.961 867.613 986.976 867.681 987.004C867.748 987.033 867.809 987.075 867.861 987.128C867.912 987.18 867.953 987.243 867.981 987.312C868.009 987.381 868.023 987.455 868.023 987.53V1422.7C868.023 1422.87 867.954 1423.04 867.831 1423.16C867.708 1423.28 867.541 1423.35 867.366 1423.35H783.923C783.731 1423.35 783.546 1423.28 783.404 1423.15C783.261 1423.02 783.172 1422.85 783.152 1422.65L780.41 1396.79ZM621.806 1273.48C625.024 1309.9 648.763 1339.38 685.827 1344.08C696.879 1345.48 707.908 1344.55 718.915 1341.28C755.243 1330.51 775.877 1297.52 772.58 1260.08C769.271 1222.63 743.175 1193.8 705.544 1189.6C694.13 1188.33 683.108 1189.36 672.479 1192.7C636.808 1203.86 618.599 1237.07 621.806 1273.48Z" fill="#182859"/>
<path d="M1913.63 986.961H1824.42C1824.2 986.961 1824.02 987.139 1824.02 987.359V1426.56C1824.02 1426.78 1824.2 1426.96 1824.42 1426.96H1913.63C1913.85 1426.96 1914.02 1426.78 1914.02 1426.56V987.359C1914.02 987.139 1913.85 986.961 1913.63 986.961Z" fill="#182859"/>
<path d="M1265.65 1111.59C1265.77 1111.59 1265.88 1111.55 1265.97 1111.47C1266.05 1111.39 1266.1 1111.28 1266.1 1111.16V1037.2C1266.1 1037.02 1266.16 1036.85 1266.28 1036.71C1266.41 1036.58 1266.57 1036.5 1266.75 1036.48L1356.33 1026.96C1356.39 1026.96 1356.44 1026.96 1356.49 1026.98C1356.54 1026.99 1356.59 1027.02 1356.63 1027.06C1356.67 1027.09 1356.7 1027.13 1356.72 1027.18C1356.74 1027.23 1356.76 1027.28 1356.75 1027.34V1110.81C1356.75 1111.02 1356.84 1111.22 1356.98 1111.37C1357.13 1111.52 1357.33 1111.6 1357.54 1111.6H1437.79C1437.9 1111.6 1438.01 1111.65 1438.09 1111.73C1438.18 1111.81 1438.22 1111.92 1438.22 1112.04V1191.3C1438.22 1191.45 1438.16 1191.6 1438.05 1191.71C1437.94 1191.82 1437.79 1191.89 1437.63 1191.89H1356.89C1356.79 1191.89 1356.69 1191.91 1356.59 1191.95C1356.5 1191.98 1356.41 1192.04 1356.34 1192.11C1356.26 1192.19 1356.21 1192.27 1356.17 1192.37C1356.13 1192.46 1356.11 1192.57 1356.11 1192.67C1356.11 1243.47 1356.1 1281.61 1356.1 1307.12C1356.1 1321.64 1358.19 1335.28 1373.18 1341.42C1382.19 1345.12 1394.99 1343.38 1404.18 1340.5C1411.49 1338.2 1418.54 1335.08 1425.33 1331.14C1425.43 1331.08 1425.54 1331.05 1425.66 1331.04C1425.77 1331.03 1425.89 1331.04 1426 1331.08C1426.11 1331.13 1426.21 1331.19 1426.29 1331.28C1426.38 1331.36 1426.44 1331.46 1426.47 1331.58L1451.99 1409.83C1452.04 1409.99 1452.03 1410.16 1451.97 1410.31C1451.9 1410.46 1451.78 1410.58 1451.63 1410.65C1426.28 1422.21 1399.51 1427.62 1371.34 1426.9C1336.85 1426 1304.97 1413.3 1285.74 1384.4C1274.72 1367.82 1268.94 1348.1 1266.94 1327.91C1266.35 1322.04 1266.07 1313.87 1266.07 1303.38C1266.08 1278.76 1266.09 1241.73 1266.1 1192.29C1266.1 1192.19 1266.05 1192.08 1265.98 1192.01C1265.9 1191.93 1265.8 1191.89 1265.7 1191.89H1211.61C1211.46 1191.89 1211.31 1191.82 1211.2 1191.71C1211.09 1191.6 1211.02 1191.45 1211.02 1191.3V1112.1C1211.02 1112.04 1211.04 1111.97 1211.06 1111.91C1211.09 1111.85 1211.13 1111.79 1211.17 1111.74C1211.22 1111.69 1211.28 1111.66 1211.34 1111.63C1211.4 1111.61 1211.47 1111.59 1211.53 1111.59H1265.65Z" fill="#182859"/>
<path d="M1557.35 1301.92C1557.3 1301.92 1557.24 1301.93 1557.2 1301.96C1557.15 1301.98 1557.11 1302.01 1557.08 1302.05C1557.05 1302.1 1557.03 1302.15 1557.02 1302.2C1557.01 1302.25 1557.01 1302.3 1557.03 1302.35C1565.01 1326.14 1585.4 1339.93 1609.4 1344.62C1638.42 1350.31 1670.36 1345.71 1696.16 1330.06C1702.39 1326.27 1707.39 1321.33 1711.89 1316.16C1711.96 1316.08 1712.05 1316.02 1712.14 1315.97C1712.24 1315.92 1712.35 1315.9 1712.45 1315.89C1712.56 1315.89 1712.67 1315.91 1712.77 1315.94C1712.87 1315.98 1712.96 1316.04 1713.03 1316.12L1770.96 1374.17C1771.01 1374.22 1771.04 1374.28 1771.04 1374.35C1771.04 1374.42 1771.02 1374.49 1770.97 1374.54C1746.13 1402.49 1710.97 1419.7 1674.77 1426.74C1616.39 1438.1 1547.3 1427.6 1504.66 1382.31C1482.59 1358.88 1469.99 1330.71 1464.76 1298.91C1454.19 1234.65 1473.88 1166.15 1530.06 1129.15C1550.03 1115.99 1572.72 1107.64 1598.13 1104.08C1637.49 1098.58 1681.02 1103.39 1715.91 1123.3C1778.9 1159.29 1792.14 1235.06 1783.76 1301.06C1783.73 1301.3 1783.61 1301.51 1783.44 1301.67C1783.26 1301.83 1783.03 1301.92 1782.79 1301.92H1557.35ZM1560.34 1223.88H1694.56C1694.63 1223.88 1694.7 1223.87 1694.76 1223.84C1694.82 1223.81 1694.88 1223.76 1694.92 1223.71C1694.96 1223.65 1694.99 1223.59 1695 1223.52C1695.01 1223.45 1695.01 1223.38 1694.99 1223.31C1690.63 1208.59 1681.41 1197.99 1667.34 1191.5C1650.09 1183.56 1628.11 1182.46 1609.81 1186.04C1586.85 1190.51 1570.25 1202.93 1559.99 1223.3C1559.96 1223.36 1559.94 1223.43 1559.94 1223.5C1559.95 1223.57 1559.96 1223.63 1560 1223.69C1560.04 1223.75 1560.08 1223.8 1560.14 1223.83C1560.2 1223.86 1560.27 1223.88 1560.34 1223.88Z" fill="#182859"/>
<path d="M982.1 1411.24C871.994 1352.62 874.118 1175.38 987.965 1120.94C1004.59 1112.99 1022.34 1108.03 1041.2 1106.04C1108.11 1099 1171.76 1126.39 1204.16 1186.32C1216.61 1209.35 1223.21 1234.73 1223.95 1262.45C1225.13 1306.44 1211.57 1348.87 1181.82 1381.22C1159.44 1405.54 1129 1421.24 1096.66 1426.91C1058.05 1433.68 1016.38 1429.49 982.1 1411.24ZM1069.51 1189.34C1011.25 1183.32 982.699 1238.97 993.773 1289.18C1002.69 1329.58 1036.35 1351.35 1076.86 1344.09C1133.54 1333.93 1147.48 1261.62 1118.91 1219.78C1106.51 1201.61 1090.04 1191.46 1069.51 1189.34Z" fill="#182859"/>
<path d="M275.467 1140.13C275.476 1140.21 275.506 1140.28 275.555 1140.35C275.603 1140.41 275.668 1140.46 275.742 1140.49C275.815 1140.52 275.896 1140.53 275.973 1140.52C276.051 1140.51 276.124 1140.47 276.184 1140.42C290.731 1128.09 307.633 1117.81 325.673 1112.1C359.512 1101.39 398.298 1104.73 429.873 1121.81C473.641 1145.5 495.775 1192.52 499.301 1240.32C499.825 1247.43 500.063 1256.22 500.018 1266.69C499.965 1278.12 499.957 1329.74 499.995 1421.56C499.995 1421.67 499.953 1421.77 499.879 1421.84C499.804 1421.92 499.703 1421.96 499.597 1421.96H409.615C409.519 1421.96 409.426 1421.92 409.358 1421.85C409.29 1421.79 409.251 1421.69 409.251 1421.6C409.244 1330.6 409.24 1276.51 409.24 1259.34C409.24 1245.21 406.499 1232.53 401.016 1221.33C390.825 1200.51 372.569 1190.75 349.707 1189.69C329.119 1188.75 309.738 1197.66 297.055 1213.32C285.833 1227.18 280.218 1243.75 280.21 1263.04C280.21 1349.26 280.191 1402.09 280.153 1421.51C280.153 1421.57 280.141 1421.63 280.119 1421.68C280.096 1421.74 280.062 1421.79 280.02 1421.83C279.978 1421.87 279.928 1421.9 279.872 1421.93C279.817 1421.95 279.758 1421.96 279.698 1421.96H190.569C190.425 1421.96 190.286 1421.9 190.183 1421.8C190.081 1421.7 190.023 1421.56 190.023 1421.42V1110.66C190.023 1110.53 190.074 1110.41 190.163 1110.32C190.253 1110.23 190.374 1110.18 190.501 1110.18H271.725C271.874 1110.18 272.017 1110.23 272.129 1110.33C272.24 1110.43 272.311 1110.57 272.328 1110.71L275.467 1140.13Z" fill="#182859"/>
<path d="M154.453 1109.96H64.594C64.2789 1109.96 64.0234 1110.21 64.0234 1110.53V1421.4C64.0234 1421.71 64.2789 1421.96 64.594 1421.96H154.453C154.768 1421.96 155.023 1421.71 155.023 1421.4V1110.53C155.023 1110.21 154.768 1109.96 154.453 1109.96Z" fill="#182859"/>
<path d="M216.523 1488.96C219.561 1488.96 222.023 1486.05 222.023 1482.46C222.023 1478.87 219.561 1475.96 216.523 1475.96C213.486 1475.96 211.023 1478.87 211.023 1482.46C211.023 1486.05 213.486 1488.96 216.523 1488.96Z" fill="#252122"/>
<path d="M602.023 1488.96C605.337 1488.96 608.023 1486.05 608.023 1482.46C608.023 1478.87 605.337 1475.96 602.023 1475.96C598.71 1475.96 596.023 1478.87 596.023 1482.46C596.023 1486.05 598.71 1488.96 602.023 1488.96Z" fill="#252122"/>
<path d="M671.023 1488.96C674.337 1488.96 677.023 1486.05 677.023 1482.46C677.023 1478.87 674.337 1475.96 671.023 1475.96C667.71 1475.96 665.023 1478.87 665.023 1482.46C665.023 1486.05 667.71 1488.96 671.023 1488.96Z" fill="#252122"/>
<path d="M1564.52 1488.96C1568.11 1488.96 1571.02 1486.05 1571.02 1482.46C1571.02 1478.87 1568.11 1475.96 1564.52 1475.96C1560.93 1475.96 1558.02 1478.87 1558.02 1482.46C1558.02 1486.05 1560.93 1488.96 1564.52 1488.96Z" fill="#252122"/>
<path d="M1716.02 1488.96C1719.34 1488.96 1722.02 1486.05 1722.02 1482.46C1722.02 1478.87 1719.34 1475.96 1716.02 1475.96C1712.71 1475.96 1710.02 1478.87 1710.02 1482.46C1710.02 1486.05 1712.71 1488.96 1716.02 1488.96Z" fill="#252122"/>
<path d="M76.4517 1476.96H66.5952C66.2794 1476.96 66.0234 1477.22 66.0234 1477.53V1535.39C66.0234 1535.71 66.2794 1535.96 66.5952 1535.96H76.4517C76.7675 1535.96 77.0234 1535.71 77.0234 1535.39V1477.53C77.0234 1477.22 76.7675 1476.96 76.4517 1476.96Z" fill="#252122"/>
<path d="M413.023 1477.53C413.023 1477.38 413.084 1477.23 413.191 1477.13C413.298 1477.02 413.444 1476.96 413.596 1476.96H437.692C445.206 1476.96 452.412 1479.93 457.725 1485.22C463.039 1490.51 466.023 1497.68 466.023 1505.15V1507.77C466.023 1515.25 463.039 1522.42 457.725 1527.7C452.412 1532.99 445.206 1535.96 437.692 1535.96H413.596C413.444 1535.96 413.298 1535.9 413.191 1535.79C413.084 1535.69 413.023 1535.54 413.023 1535.39V1477.53ZM424.139 1488.12V1524.71C424.139 1524.86 424.195 1524.99 424.296 1525.09C424.397 1525.19 424.534 1525.25 424.677 1525.25H437.291C441.951 1525.25 446.421 1523.41 449.716 1520.15C453.011 1516.88 454.863 1512.45 454.863 1507.83V1505.01C454.863 1502.72 454.408 1500.45 453.525 1498.34C452.642 1496.22 451.348 1494.3 449.716 1492.69C448.084 1491.07 446.147 1489.78 444.015 1488.91C441.884 1488.03 439.599 1487.58 437.291 1487.58H424.677C424.534 1487.58 424.397 1487.64 424.296 1487.74C424.195 1487.84 424.139 1487.98 424.139 1488.12Z" fill="#252122"/>
<path d="M924.119 1498.84C924.171 1498.9 924.239 1498.94 924.315 1498.96C924.392 1498.98 924.473 1498.98 924.547 1498.95C924.622 1498.92 924.686 1498.87 924.731 1498.81C924.776 1498.74 924.8 1498.67 924.8 1498.59V1477.35C924.8 1477.3 924.81 1477.25 924.83 1477.2C924.85 1477.16 924.88 1477.11 924.917 1477.08C924.953 1477.04 924.997 1477.01 925.045 1476.99C925.094 1476.97 925.145 1476.96 925.197 1476.96H934.694C934.782 1476.96 934.865 1477 934.927 1477.06C934.989 1477.12 935.023 1477.2 935.023 1477.29V1533.98C935.023 1534.28 934.903 1534.56 934.688 1534.78C934.473 1534.99 934.181 1535.1 933.877 1535.1H926.434C926.082 1535.1 925.744 1534.97 925.495 1534.72C925.246 1534.47 925.107 1534.14 925.107 1533.79V1530.48C925.105 1530.36 925.068 1530.26 925.002 1530.17C924.935 1530.08 924.842 1530.01 924.735 1529.98C924.628 1529.95 924.513 1529.95 924.407 1529.98C924.301 1530.02 924.208 1530.08 924.142 1530.17C922.168 1532.94 919.456 1534.69 916.007 1535.44C906.646 1537.48 895.753 1533.49 891.998 1524.33C888.06 1514.75 889.694 1501.35 899.793 1495.87C907.61 1491.61 918.004 1491.93 924.119 1498.84ZM911.149 1502.52C907.976 1502.78 905.042 1504.31 902.99 1506.75C900.938 1509.2 899.938 1512.37 900.209 1515.57C900.48 1518.77 902.001 1521.73 904.436 1523.81C906.871 1525.88 910.022 1526.9 913.194 1526.64C916.367 1526.37 919.302 1524.85 921.353 1522.4C923.405 1519.95 924.405 1516.78 924.134 1513.58C923.863 1510.38 922.342 1507.42 919.907 1505.35C917.472 1503.27 914.322 1502.26 911.149 1502.52Z" fill="#252122"/>
<path d="M1020.49 1476.96H1011.56C1011.26 1476.96 1011.02 1477.21 1011.02 1477.51V1535.41C1011.02 1535.72 1011.26 1535.96 1011.56 1535.96H1020.49C1020.78 1535.96 1021.02 1535.72 1021.02 1535.41V1477.51C1021.02 1477.21 1020.78 1476.96 1020.49 1476.96Z" fill="#252122"/>
<path d="M1160.02 1476.96C1168.06 1476.97 1175.92 1476.98 1183.62 1476.98C1183.73 1476.98 1183.83 1477.03 1183.9 1477.1C1183.98 1477.18 1184.02 1477.29 1184.02 1477.39V1486.71C1184.02 1486.82 1183.98 1486.92 1183.91 1486.99C1183.83 1487.07 1183.73 1487.11 1183.63 1487.11H1165.87C1165.78 1487.11 1165.69 1487.15 1165.63 1487.21C1165.57 1487.27 1165.53 1487.36 1165.53 1487.45L1165.51 1535.51C1165.51 1535.6 1165.47 1535.7 1165.4 1535.77C1165.34 1535.85 1165.25 1535.89 1165.15 1535.9C1164.83 1535.94 1163.12 1535.96 1160.02 1535.96C1156.92 1535.96 1155.21 1535.94 1154.9 1535.9C1154.8 1535.89 1154.71 1535.85 1154.64 1535.77C1154.58 1535.7 1154.54 1535.6 1154.54 1535.51L1154.52 1487.45C1154.52 1487.36 1154.48 1487.27 1154.42 1487.21C1154.35 1487.15 1154.27 1487.11 1154.18 1487.11H1136.42C1136.37 1487.11 1136.31 1487.1 1136.27 1487.08C1136.22 1487.06 1136.18 1487.03 1136.14 1486.99C1136.1 1486.96 1136.07 1486.91 1136.05 1486.86C1136.03 1486.81 1136.02 1486.76 1136.02 1486.71V1477.39C1136.02 1477.34 1136.03 1477.29 1136.05 1477.24C1136.07 1477.19 1136.1 1477.14 1136.14 1477.1C1136.18 1477.07 1136.22 1477.04 1136.27 1477.01C1136.32 1476.99 1136.38 1476.98 1136.43 1476.98C1144.12 1476.98 1151.98 1476.97 1160.02 1476.96Z" fill="#252122"/>
<path d="M1238.37 1476.96H1228.68C1228.32 1476.96 1228.02 1477.23 1228.02 1477.57V1535.36C1228.02 1535.69 1228.32 1535.96 1228.68 1535.96H1238.37C1238.73 1535.96 1239.02 1535.69 1239.02 1535.36V1477.57C1239.02 1477.23 1238.73 1476.96 1238.37 1476.96Z" fill="#252122"/>
<path d="M174.423 1502.67C174.317 1502.67 174.216 1502.63 174.141 1502.55C174.066 1502.47 174.023 1502.37 174.023 1502.26V1494.2C174.023 1494.14 174.035 1494.08 174.057 1494.03C174.08 1493.97 174.113 1493.92 174.154 1493.88C174.195 1493.84 174.244 1493.81 174.299 1493.78C174.353 1493.76 174.411 1493.75 174.469 1493.75H181.062C181.265 1493.75 181.46 1493.67 181.603 1493.53C181.747 1493.38 181.828 1493.19 181.828 1492.98V1483.33C181.827 1483.24 181.859 1483.16 181.916 1483.1C181.973 1483.03 182.051 1482.99 182.136 1482.98L191.757 1481.96C191.803 1481.96 191.849 1481.96 191.894 1481.97C191.938 1481.99 191.979 1482.01 192.014 1482.04C192.048 1482.07 192.076 1482.11 192.095 1482.15C192.114 1482.19 192.123 1482.24 192.123 1482.29V1493.02C192.123 1493.22 192.204 1493.42 192.347 1493.56C192.491 1493.7 192.685 1493.79 192.888 1493.79H203.127C203.263 1493.79 203.394 1493.84 203.49 1493.94C203.587 1494.03 203.641 1494.16 203.641 1494.3V1502.16C203.641 1502.29 203.587 1502.42 203.49 1502.52C203.394 1502.62 203.263 1502.67 203.127 1502.67H192.557C192.412 1502.67 192.272 1502.73 192.169 1502.83C192.066 1502.94 192.009 1503.08 192.009 1503.22C192.024 1506.62 192.031 1512.13 192.031 1519.76C192.031 1523.11 192.66 1526.03 196.156 1526.51C198.175 1526.79 199.737 1526.63 200.841 1526.04C201.035 1525.93 201.248 1525.87 201.468 1525.86C201.687 1525.85 201.907 1525.88 202.111 1525.97C202.315 1526.05 202.498 1526.17 202.648 1526.33C202.798 1526.5 202.911 1526.69 202.978 1526.9L204.943 1532.93C205.013 1533.14 205.038 1533.37 205.015 1533.59C204.992 1533.82 204.923 1534.03 204.811 1534.23C204.699 1534.43 204.548 1534.6 204.366 1534.73C204.184 1534.87 203.976 1534.96 203.755 1535.02C191.792 1537.79 182.262 1534.81 181.919 1521.33C181.698 1512.57 181.691 1506.53 181.896 1503.2C181.901 1503.13 181.891 1503.06 181.868 1503C181.845 1502.94 181.809 1502.88 181.762 1502.83C181.715 1502.78 181.658 1502.74 181.594 1502.71C181.531 1502.69 181.463 1502.67 181.393 1502.67H174.423Z" fill="#252122"/>
<path d="M227.434 1502.69C227.328 1502.69 227.227 1502.65 227.152 1502.57C227.077 1502.49 227.035 1502.39 227.035 1502.28L227.023 1494.22C227.023 1494.1 227.07 1493.99 227.154 1493.9C227.237 1493.82 227.35 1493.77 227.468 1493.77L234.052 1493.76C234.255 1493.76 234.449 1493.68 234.592 1493.54C234.736 1493.39 234.816 1493.2 234.816 1492.99L234.805 1483.34C234.804 1483.26 234.836 1483.17 234.893 1483.11C234.95 1483.05 235.028 1483.01 235.113 1483L244.72 1481.97C244.766 1481.96 244.814 1481.96 244.86 1481.97C244.905 1481.98 244.948 1482.01 244.984 1482.04C245.02 1482.07 245.048 1482.11 245.068 1482.15C245.087 1482.19 245.097 1482.24 245.096 1482.29V1493.02C245.096 1493.22 245.177 1493.42 245.32 1493.56C245.464 1493.7 245.658 1493.79 245.861 1493.79H256.095C256.229 1493.79 256.358 1493.84 256.454 1493.93C256.55 1494.03 256.606 1494.15 256.609 1494.29V1502.15C256.609 1502.29 256.554 1502.42 256.458 1502.52C256.362 1502.62 256.231 1502.67 256.095 1502.67L245.541 1502.68C245.396 1502.68 245.257 1502.74 245.154 1502.84C245.051 1502.95 244.994 1503.09 244.994 1503.23C245.016 1506.63 245.032 1512.14 245.039 1519.76C245.039 1523.12 245.667 1526.03 249.158 1526.51C251.174 1526.79 252.733 1526.63 253.836 1526.03C254.029 1525.93 254.243 1525.87 254.462 1525.85C254.681 1525.84 254.9 1525.88 255.104 1525.96C255.307 1526.04 255.49 1526.17 255.64 1526.33C255.79 1526.49 255.902 1526.68 255.97 1526.89L257.943 1532.92C258.014 1533.14 258.038 1533.36 258.015 1533.58C257.992 1533.81 257.923 1534.03 257.811 1534.22C257.7 1534.42 257.548 1534.59 257.367 1534.72C257.185 1534.86 256.978 1534.96 256.757 1535.01C244.811 1537.79 235.295 1534.83 234.942 1521.34C234.714 1512.59 234.698 1506.55 234.896 1503.21C234.901 1503.14 234.891 1503.07 234.868 1503.01C234.845 1502.95 234.809 1502.89 234.762 1502.84C234.715 1502.79 234.658 1502.75 234.594 1502.72C234.531 1502.69 234.463 1502.68 234.394 1502.68L227.434 1502.69Z" fill="#252122"/>
<path d="M311.411 1502.67C311.308 1502.67 311.21 1502.63 311.137 1502.55C311.064 1502.47 311.023 1502.37 311.023 1502.26V1494.19C311.023 1494.07 311.069 1493.96 311.15 1493.88C311.231 1493.79 311.341 1493.74 311.455 1493.74H317.843C318.039 1493.74 318.228 1493.66 318.367 1493.52C318.506 1493.38 318.584 1493.18 318.584 1492.98V1483.33C318.584 1483.24 318.614 1483.16 318.67 1483.1C318.725 1483.03 318.801 1482.99 318.883 1482.99L328.204 1481.96C328.248 1481.96 328.294 1481.96 328.336 1481.97C328.379 1481.99 328.419 1482.01 328.453 1482.04C328.486 1482.07 328.513 1482.11 328.531 1482.15C328.55 1482.19 328.559 1482.24 328.558 1482.29L328.547 1493.02C328.547 1493.23 328.625 1493.42 328.765 1493.57C328.904 1493.71 329.092 1493.79 329.289 1493.79H339.208C339.34 1493.79 339.467 1493.85 339.56 1493.94C339.654 1494.04 339.706 1494.17 339.706 1494.31L339.695 1502.16C339.695 1502.23 339.682 1502.3 339.657 1502.36C339.632 1502.42 339.595 1502.48 339.549 1502.53C339.503 1502.58 339.448 1502.62 339.387 1502.64C339.327 1502.67 339.262 1502.68 339.197 1502.68L328.968 1502.67C328.827 1502.67 328.692 1502.73 328.592 1502.83C328.493 1502.93 328.437 1503.07 328.437 1503.22C328.451 1506.62 328.455 1512.13 328.448 1519.75C328.448 1523.11 329.057 1526.02 332.444 1526.51C334.4 1526.79 335.913 1526.63 336.983 1526.04C337.171 1525.93 337.379 1525.87 337.592 1525.86C337.805 1525.85 338.018 1525.88 338.216 1525.97C338.413 1526.05 338.591 1526.18 338.736 1526.34C338.88 1526.5 338.989 1526.7 339.053 1526.91L340.946 1532.93C341.014 1533.14 341.037 1533.37 341.015 1533.59C340.993 1533.82 340.926 1534.03 340.818 1534.23C340.709 1534.43 340.563 1534.6 340.386 1534.73C340.21 1534.87 340.009 1534.97 339.795 1535.02C328.215 1537.79 318.983 1534.8 318.662 1521.32C318.448 1512.57 318.44 1506.53 318.64 1503.2C318.644 1503.13 318.635 1503.06 318.614 1503C318.592 1502.94 318.558 1502.88 318.513 1502.83C318.469 1502.78 318.415 1502.74 318.355 1502.71C318.295 1502.69 318.23 1502.67 318.164 1502.67H311.411Z" fill="#252122"/>
<path d="M140.765 1523.21C143.532 1525.55 147.11 1527.08 151.498 1527.81C154.994 1528.39 160.244 1527.77 161.065 1523.48C161.964 1518.69 152.752 1518.74 150.432 1518.44C142.974 1517.48 135.593 1513.54 136.303 1504.86C137.025 1495.97 146.758 1492.81 154.328 1492.97C159.818 1493.08 164.48 1494.66 168.312 1497.7C168.422 1497.79 168.514 1497.89 168.582 1498.02C168.65 1498.14 168.693 1498.27 168.708 1498.41C168.724 1498.55 168.712 1498.69 168.672 1498.83C168.633 1498.96 168.567 1499.09 168.479 1499.2L164.295 1504.33C164.123 1504.54 163.875 1504.68 163.604 1504.72C163.332 1504.75 163.059 1504.68 162.841 1504.51C159.393 1501.89 155.227 1500.99 150.343 1501.8C144.705 1502.75 144.627 1508.41 150.199 1509.63C153.784 1510.42 160.022 1510.32 164.705 1512.65C169.533 1515.05 171.487 1519.44 170.932 1524.77C169.689 1536.76 155.06 1538.22 146.27 1536.21C142.26 1535.31 138.667 1533.36 135.493 1530.37C135.218 1530.11 135.051 1529.75 135.027 1529.37C135.002 1528.99 135.121 1528.61 135.36 1528.32L139.411 1523.33C139.575 1523.14 139.809 1523.01 140.063 1522.99C140.316 1522.96 140.569 1523.04 140.765 1523.21Z" fill="#252122"/>
<path d="M683.033 1515.52C682.839 1507.92 685.485 1500.78 692.175 1496.62C700.663 1491.34 712.416 1491.58 720.056 1498.6C720.145 1498.68 720.198 1498.79 720.205 1498.91C720.211 1499.03 720.17 1499.14 720.091 1499.23L714.386 1505.46C714.283 1505.56 714.145 1505.63 713.997 1505.64C713.85 1505.66 713.703 1505.62 713.584 1505.53C704.924 1499.31 693.068 1503.92 693.366 1515.26C693.664 1526.6 705.737 1530.59 714.065 1523.93C714.181 1523.84 714.328 1523.79 714.478 1523.8C714.628 1523.81 714.77 1523.87 714.879 1523.98L720.892 1529.9C720.976 1529.98 721.023 1530.1 721.023 1530.21C721.023 1530.33 720.976 1530.45 720.892 1530.53C713.63 1537.93 701.9 1538.77 693.148 1533.93C686.252 1530.11 683.24 1523.13 683.033 1515.52Z" fill="#252122"/>
<path d="M768.884 1514.89C768.869 1521.69 768.915 1528.2 769.023 1534.43C769.026 1534.62 768.992 1534.8 768.922 1534.98C768.851 1535.15 768.747 1535.31 768.614 1535.44C768.482 1535.58 768.324 1535.68 768.149 1535.76C767.975 1535.83 767.788 1535.86 767.599 1535.86H760.025C759.69 1535.86 759.369 1535.73 759.132 1535.5C758.896 1535.27 758.762 1534.95 758.762 1534.63V1531.11C758.762 1531.03 758.739 1530.96 758.696 1530.9C758.653 1530.84 758.592 1530.79 758.522 1530.76C758.452 1530.74 758.375 1530.73 758.302 1530.75C758.229 1530.77 758.164 1530.81 758.114 1530.87C754.864 1534.63 750.911 1536.64 746.255 1536.91C732.103 1537.73 723.058 1528.78 723.024 1515.02C722.989 1501.27 731.976 1492.26 746.128 1493C750.783 1493.25 754.748 1495.24 758.021 1498.98C758.071 1499.03 758.137 1499.07 758.21 1499.09C758.282 1499.11 758.359 1499.1 758.429 1499.08C758.5 1499.05 758.56 1499.01 758.603 1498.94C758.646 1498.88 758.669 1498.81 758.67 1498.74L758.647 1495.22C758.645 1495.05 758.677 1494.89 758.739 1494.74C758.802 1494.59 758.895 1494.45 759.012 1494.33C759.13 1494.22 759.269 1494.13 759.423 1494.06C759.577 1494 759.742 1493.97 759.909 1493.97L767.483 1493.93C767.671 1493.93 767.857 1493.97 768.031 1494.04C768.204 1494.11 768.362 1494.22 768.494 1494.35C768.627 1494.48 768.731 1494.64 768.802 1494.81C768.873 1494.98 768.909 1495.17 768.907 1495.35C768.838 1501.58 768.83 1508.1 768.884 1514.89ZM746.021 1502.04C744.371 1502.03 742.734 1502.34 741.204 1502.97C739.673 1503.61 738.28 1504.54 737.103 1505.72C735.925 1506.9 734.988 1508.3 734.342 1509.85C733.697 1511.4 733.358 1513.07 733.343 1514.75C733.328 1516.43 733.638 1518.1 734.256 1519.66C734.874 1521.22 735.787 1522.65 736.943 1523.85C738.099 1525.05 739.476 1526 740.995 1526.66C742.514 1527.32 744.145 1527.66 745.795 1527.68C747.445 1527.69 749.081 1527.37 750.612 1526.74C752.142 1526.11 753.535 1525.18 754.712 1524C755.89 1522.82 756.828 1521.41 757.473 1519.86C758.118 1518.31 758.458 1516.65 758.473 1514.97C758.487 1513.28 758.177 1511.61 757.559 1510.05C756.942 1508.49 756.029 1507.07 754.872 1505.87C753.716 1504.67 752.339 1503.71 750.82 1503.06C749.302 1502.4 747.671 1502.05 746.021 1502.04Z" fill="#252122"/>
<path d="M985.042 1518.72H954.602C954.247 1518.72 953.899 1518.82 953.604 1519.02C953.309 1519.21 953.079 1519.49 952.944 1519.82C952.809 1520.14 952.774 1520.5 952.845 1520.84C952.915 1521.19 953.088 1521.5 953.34 1521.75L955.876 1524.24C957.513 1525.85 959.646 1526.89 961.943 1527.18C967.585 1527.9 972.167 1527.01 975.686 1524.51C975.99 1524.29 976.362 1524.19 976.735 1524.22C977.109 1524.24 977.459 1524.4 977.724 1524.66L982.68 1529.54C982.799 1529.65 982.891 1529.8 982.949 1529.95C983.007 1530.11 983.029 1530.28 983.015 1530.44C983 1530.61 982.95 1530.76 982.866 1530.91C982.782 1531.05 982.667 1531.17 982.529 1531.27C966.98 1542.01 943.325 1537.86 942.075 1516.16C941.55 1507.02 945.05 1500.26 952.576 1495.89C958.215 1492.6 966.69 1492.15 972.722 1494.19C983.386 1497.78 986.848 1507.58 985.864 1517.99C985.843 1518.19 985.748 1518.38 985.596 1518.51C985.444 1518.65 985.246 1518.72 985.042 1518.72ZM953.537 1510.32L975.617 1510.16C975.651 1510.16 975.683 1510.15 975.707 1510.13C975.731 1510.1 975.744 1510.07 975.744 1510.04V1509.92C975.728 1507.85 974.554 1505.86 972.481 1504.4C970.408 1502.95 967.605 1502.14 964.687 1502.16H964.363C962.916 1502.17 961.484 1502.38 960.149 1502.78C958.815 1503.19 957.603 1503.77 956.585 1504.51C955.567 1505.25 954.761 1506.12 954.214 1507.07C953.667 1508.03 953.39 1509.05 953.398 1510.08V1510.2C953.398 1510.21 953.402 1510.23 953.409 1510.25C953.416 1510.26 953.426 1510.28 953.44 1510.29C953.453 1510.3 953.468 1510.31 953.485 1510.32C953.502 1510.32 953.52 1510.32 953.537 1510.32Z" fill="#252122"/>
<path d="M1027.02 1515.01C1026.99 1501.26 1035.98 1492.25 1050.14 1493.01C1054.8 1493.25 1058.77 1495.25 1062.04 1498.99C1062.09 1499.05 1062.16 1499.09 1062.23 1499.11C1062.31 1499.13 1062.38 1499.12 1062.45 1499.09C1062.53 1499.07 1062.59 1499.02 1062.63 1498.95C1062.67 1498.89 1062.69 1498.82 1062.69 1498.74L1062.67 1495.23C1062.66 1495.06 1062.7 1494.9 1062.76 1494.75C1062.82 1494.6 1062.91 1494.46 1063.03 1494.34C1063.15 1494.23 1063.29 1494.14 1063.44 1494.07C1063.6 1494.01 1063.76 1493.98 1063.93 1493.98L1071.51 1493.94C1071.7 1493.94 1071.88 1493.98 1072.05 1494.05C1072.23 1494.12 1072.39 1494.23 1072.52 1494.36C1072.65 1494.49 1072.75 1494.65 1072.83 1494.82C1072.9 1494.99 1072.93 1495.18 1072.93 1495.36C1072.85 1501.6 1072.84 1508.11 1072.9 1514.9C1072.88 1521.69 1072.92 1528.21 1073.02 1534.44C1073.03 1534.62 1072.99 1534.81 1072.92 1534.98C1072.85 1535.16 1072.75 1535.31 1072.61 1535.45C1072.48 1535.58 1072.32 1535.69 1072.15 1535.76C1071.98 1535.83 1071.79 1535.87 1071.6 1535.87H1064.03C1063.7 1535.87 1063.38 1535.74 1063.14 1535.51C1062.9 1535.27 1062.77 1534.96 1062.77 1534.63V1531.1C1062.77 1531.03 1062.75 1530.96 1062.7 1530.9C1062.66 1530.84 1062.6 1530.79 1062.53 1530.76C1062.46 1530.74 1062.38 1530.73 1062.31 1530.75C1062.24 1530.77 1062.17 1530.81 1062.12 1530.86C1058.87 1534.63 1054.91 1536.64 1050.25 1536.91C1036.1 1537.72 1027.06 1528.77 1027.02 1515.01ZM1050.2 1502.05C1046.86 1501.98 1043.63 1503.26 1041.22 1505.6C1038.8 1507.95 1037.4 1511.18 1037.33 1514.57C1037.29 1516.25 1037.57 1517.92 1038.17 1519.49C1038.77 1521.06 1039.66 1522.49 1040.8 1523.71C1041.94 1524.92 1043.31 1525.89 1044.82 1526.57C1046.33 1527.25 1047.96 1527.62 1049.61 1527.65C1052.94 1527.73 1056.17 1526.45 1058.59 1524.1C1061 1521.76 1062.4 1518.53 1062.48 1515.14C1062.52 1513.46 1062.23 1511.78 1061.63 1510.22C1061.04 1508.65 1060.14 1507.22 1059 1506C1057.86 1504.79 1056.5 1503.81 1054.99 1503.14C1053.47 1502.46 1051.85 1502.09 1050.2 1502.05Z" fill="#252122"/>
<path d="M1083.54 1523.34C1083.71 1523.14 1083.94 1523.02 1084.2 1523C1084.46 1522.98 1084.72 1523.05 1084.92 1523.22C1087.76 1525.56 1091.44 1527.09 1095.96 1527.81C1099.55 1528.38 1104.95 1527.77 1105.78 1523.48C1106.71 1518.68 1097.25 1518.74 1094.86 1518.44C1087.19 1517.48 1079.6 1513.55 1080.33 1504.87C1081.06 1495.98 1091.06 1492.81 1098.84 1492.97C1104.49 1493.07 1109.28 1494.65 1113.22 1497.69C1113.34 1497.78 1113.43 1497.88 1113.5 1498.01C1113.57 1498.13 1113.62 1498.26 1113.63 1498.4C1113.65 1498.54 1113.63 1498.69 1113.59 1498.82C1113.55 1498.96 1113.49 1499.08 1113.4 1499.19L1109.09 1504.32C1108.92 1504.54 1108.66 1504.68 1108.38 1504.71C1108.1 1504.75 1107.82 1504.67 1107.6 1504.5C1104.05 1501.88 1099.77 1500.98 1094.76 1501.81C1088.96 1502.76 1088.88 1508.41 1094.61 1509.63C1098.3 1510.42 1104.71 1510.32 1109.53 1512.64C1114.49 1515.04 1116.5 1519.43 1115.93 1524.76C1114.66 1536.75 1099.63 1538.22 1090.59 1536.21C1086.47 1535.32 1082.77 1533.37 1079.51 1530.38C1079.22 1530.12 1079.05 1529.76 1079.03 1529.38C1079 1528.99 1079.12 1528.62 1079.37 1528.33L1083.54 1523.34Z" fill="#252122"/>
<path d="M1220.86 1518C1220.84 1518.19 1220.75 1518.38 1220.61 1518.51C1220.46 1518.65 1220.27 1518.72 1220.07 1518.72H1190.32C1189.97 1518.73 1189.63 1518.83 1189.35 1519.02C1189.06 1519.22 1188.84 1519.49 1188.71 1519.82C1188.57 1520.14 1188.54 1520.49 1188.61 1520.84C1188.67 1521.18 1188.84 1521.49 1189.08 1521.74L1191.56 1524.24C1193.16 1525.85 1195.24 1526.88 1197.49 1527.18C1203.01 1527.9 1207.48 1527.01 1210.92 1524.5C1211.22 1524.28 1211.58 1524.18 1211.95 1524.21C1212.31 1524.24 1212.65 1524.4 1212.91 1524.66L1217.76 1529.54C1217.88 1529.66 1217.97 1529.8 1218.02 1529.95C1218.08 1530.11 1218.1 1530.28 1218.09 1530.44C1218.07 1530.61 1218.02 1530.77 1217.94 1530.91C1217.86 1531.05 1217.75 1531.18 1217.61 1531.27C1202.41 1542.01 1179.3 1537.85 1178.07 1516.16C1177.57 1507.02 1180.99 1500.25 1188.35 1495.88C1193.85 1492.6 1202.14 1492.15 1208.03 1494.19C1218.45 1497.78 1221.84 1507.58 1220.86 1518ZM1189.39 1510.32L1210.64 1510.13C1210.69 1510.13 1210.74 1510.11 1210.77 1510.08C1210.81 1510.04 1210.83 1509.99 1210.83 1509.94V1509.8C1210.82 1508.79 1210.53 1507.78 1209.99 1506.85C1209.44 1505.91 1208.65 1505.07 1207.65 1504.36C1206.65 1503.65 1205.46 1503.09 1204.16 1502.71C1202.86 1502.33 1201.46 1502.15 1200.06 1502.16H1199.83C1196.99 1502.18 1194.28 1503.02 1192.28 1504.49C1190.29 1505.96 1189.18 1507.93 1189.19 1509.99V1510.12C1189.19 1510.17 1189.22 1510.22 1189.25 1510.26C1189.29 1510.3 1189.34 1510.32 1189.39 1510.32Z" fill="#252122"/>
<path d="M1288.87 1517.98C1288.85 1518.18 1288.75 1518.36 1288.6 1518.5C1288.45 1518.63 1288.25 1518.71 1288.04 1518.71L1257.61 1518.73C1257.25 1518.73 1256.9 1518.83 1256.61 1519.03C1256.31 1519.22 1256.08 1519.5 1255.95 1519.82C1255.81 1520.15 1255.78 1520.5 1255.85 1520.85C1255.92 1521.19 1256.09 1521.51 1256.35 1521.76L1258.88 1524.25C1260.52 1525.86 1262.65 1526.89 1264.95 1527.18C1270.59 1527.9 1275.18 1527.01 1278.7 1524.49C1279 1524.28 1279.37 1524.18 1279.74 1524.21C1280.11 1524.24 1280.46 1524.39 1280.73 1524.65L1285.69 1529.53C1285.81 1529.64 1285.91 1529.79 1285.96 1529.94C1286.02 1530.1 1286.04 1530.27 1286.03 1530.43C1286.01 1530.6 1285.96 1530.76 1285.88 1530.9C1285.8 1531.04 1285.68 1531.16 1285.54 1531.26C1270 1542.01 1246.35 1537.87 1245.08 1516.18C1244.54 1507.04 1248.04 1500.28 1255.56 1495.9C1261.2 1492.61 1269.68 1492.15 1275.7 1494.19C1286.37 1497.76 1289.84 1507.56 1288.87 1517.98ZM1256.62 1510.33L1278.54 1510.1C1278.59 1510.09 1278.64 1510.07 1278.68 1510.03C1278.71 1510 1278.73 1509.95 1278.73 1509.89V1509.74C1278.72 1508.73 1278.43 1507.73 1277.86 1506.8C1277.29 1505.87 1276.47 1505.03 1275.43 1504.33C1274.39 1503.62 1273.16 1503.07 1271.82 1502.69C1270.47 1502.32 1269.02 1502.13 1267.57 1502.15H1267.41C1265.95 1502.16 1264.51 1502.38 1263.17 1502.78C1261.83 1503.18 1260.61 1503.76 1259.59 1504.49C1258.57 1505.21 1257.76 1506.07 1257.22 1507.01C1256.67 1507.95 1256.39 1508.96 1256.4 1509.97L1256.41 1510.12C1256.41 1510.15 1256.42 1510.17 1256.43 1510.2C1256.44 1510.22 1256.46 1510.25 1256.48 1510.27C1256.5 1510.28 1256.52 1510.3 1256.54 1510.31C1256.57 1510.32 1256.6 1510.33 1256.62 1510.33Z" fill="#252122"/>
<path d="M1305.1 1515.23C1305.36 1526.57 1317.13 1530.59 1325.25 1523.95C1325.37 1523.86 1325.51 1523.81 1325.66 1523.82C1325.8 1523.83 1325.94 1523.89 1326.05 1524L1331.9 1529.94C1331.98 1530.02 1332.02 1530.13 1332.02 1530.25C1332.02 1530.37 1331.98 1530.49 1331.9 1530.57C1324.8 1537.96 1313.36 1538.76 1304.85 1533.9C1298.12 1530.07 1295.2 1523.08 1295.03 1515.47C1294.85 1507.86 1297.45 1500.75 1303.99 1496.6C1312.27 1491.33 1323.72 1491.59 1331.16 1498.64C1331.25 1498.72 1331.3 1498.83 1331.3 1498.95C1331.31 1499.07 1331.27 1499.19 1331.19 1499.27L1325.62 1505.48C1325.52 1505.59 1325.38 1505.66 1325.24 1505.68C1325.09 1505.69 1324.95 1505.65 1324.83 1505.56C1316.4 1499.32 1304.83 1503.9 1305.1 1515.23Z" fill="#252122"/>
<path d="M1576.03 1515.53C1575.84 1507.93 1578.48 1500.79 1585.17 1496.63C1593.66 1491.34 1605.41 1491.58 1613.04 1498.59C1613.13 1498.67 1613.19 1498.78 1613.19 1498.9C1613.2 1499.02 1613.16 1499.14 1613.08 1499.23L1607.38 1505.46C1607.28 1505.56 1607.14 1505.63 1606.99 1505.65C1606.84 1505.66 1606.7 1505.62 1606.58 1505.54C1597.91 1499.32 1586.07 1503.93 1586.36 1515.26C1586.66 1526.61 1598.74 1530.59 1607.06 1523.93C1607.17 1523.84 1607.32 1523.79 1607.47 1523.8C1607.62 1523.81 1607.76 1523.87 1607.87 1523.97L1613.89 1529.9C1613.98 1529.98 1614.02 1530.1 1614.02 1530.22C1614.02 1530.33 1613.98 1530.45 1613.89 1530.53C1606.63 1537.93 1594.91 1538.77 1586.16 1533.94C1579.26 1530.12 1576.24 1523.14 1576.03 1515.53Z" fill="#252122"/>
<path d="M1617.02 1515.02C1616.99 1501.27 1625.78 1492.25 1639.63 1493.01C1644.19 1493.24 1648.07 1495.23 1651.27 1498.98C1651.31 1499.03 1651.38 1499.07 1651.45 1499.09C1651.52 1499.11 1651.6 1499.1 1651.66 1499.08C1651.73 1499.05 1651.79 1499 1651.83 1498.94C1651.88 1498.88 1651.9 1498.81 1651.9 1498.74L1651.88 1495.22C1651.88 1495.05 1651.91 1494.89 1651.97 1494.74C1652.03 1494.59 1652.12 1494.45 1652.23 1494.34C1652.34 1494.22 1652.48 1494.13 1652.63 1494.07C1652.78 1494 1652.94 1493.97 1653.1 1493.97L1660.52 1493.92C1660.7 1493.92 1660.89 1493.96 1661.06 1494.03C1661.23 1494.1 1661.38 1494.21 1661.51 1494.34C1661.64 1494.48 1661.74 1494.63 1661.81 1494.81C1661.88 1494.98 1661.91 1495.17 1661.91 1495.35C1661.84 1501.58 1661.83 1508.09 1661.89 1514.88C1661.87 1521.67 1661.92 1528.19 1662.02 1534.42C1662.03 1534.61 1661.99 1534.79 1661.92 1534.97C1661.86 1535.14 1661.75 1535.3 1661.62 1535.43C1661.49 1535.57 1661.34 1535.67 1661.17 1535.74C1661 1535.82 1660.82 1535.85 1660.63 1535.85H1653.22C1652.9 1535.85 1652.58 1535.72 1652.35 1535.49C1652.12 1535.26 1651.99 1534.94 1651.99 1534.62V1531.1C1651.99 1531.02 1651.97 1530.95 1651.93 1530.89C1651.88 1530.83 1651.82 1530.78 1651.76 1530.76C1651.69 1530.73 1651.61 1530.73 1651.54 1530.74C1651.47 1530.76 1651.41 1530.8 1651.36 1530.86C1648.18 1534.62 1644.31 1536.63 1639.75 1536.91C1625.91 1537.73 1617.07 1528.77 1617.02 1515.02ZM1639.56 1502.05C1637.95 1502.02 1636.35 1502.32 1634.85 1502.94C1633.36 1503.56 1631.99 1504.48 1630.83 1505.65C1629.67 1506.82 1628.74 1508.21 1628.1 1509.76C1627.46 1511.3 1627.11 1512.96 1627.08 1514.64C1627.05 1516.32 1627.34 1518 1627.93 1519.56C1628.52 1521.13 1629.4 1522.55 1630.52 1523.76C1631.63 1524.97 1632.97 1525.94 1634.45 1526.61C1635.92 1527.28 1637.51 1527.64 1639.12 1527.67C1640.73 1527.7 1642.33 1527.39 1643.83 1526.78C1645.33 1526.16 1646.7 1525.24 1647.86 1524.07C1649.02 1522.9 1649.94 1521.51 1650.59 1519.96C1651.23 1518.42 1651.57 1516.76 1651.6 1515.08C1651.63 1513.39 1651.34 1511.72 1650.76 1510.16C1650.17 1508.59 1649.29 1507.16 1648.17 1505.95C1647.05 1504.74 1645.72 1503.78 1644.24 1503.11C1642.76 1502.44 1641.17 1502.08 1639.56 1502.05Z" fill="#252122"/>
<path d="M1669.03 1515.47C1668.85 1507.86 1671.46 1500.75 1677.99 1496.59C1686.28 1491.33 1697.73 1491.6 1705.16 1498.63C1705.25 1498.71 1705.3 1498.83 1705.31 1498.94C1705.31 1499.06 1705.27 1499.18 1705.2 1499.27L1699.63 1505.48C1699.53 1505.59 1699.39 1505.66 1699.24 1505.67C1699.1 1505.69 1698.95 1505.65 1698.83 1505.56C1690.4 1499.31 1678.84 1503.89 1679.11 1515.23C1679.36 1526.57 1691.12 1530.59 1699.26 1523.96C1699.37 1523.87 1699.51 1523.82 1699.66 1523.82C1699.81 1523.83 1699.95 1523.89 1700.05 1523.99L1705.9 1529.94C1705.98 1530.03 1706.02 1530.14 1706.02 1530.25C1706.02 1530.37 1705.98 1530.48 1705.9 1530.57C1698.8 1537.96 1687.36 1538.76 1678.85 1533.9C1672.13 1530.07 1669.21 1523.07 1669.03 1515.47Z" fill="#252122"/>
<path d="M1870.87 1517.99C1870.85 1518.19 1870.75 1518.37 1870.61 1518.51C1870.46 1518.64 1870.26 1518.72 1870.06 1518.72H1840.32C1839.98 1518.72 1839.64 1518.82 1839.35 1519.01C1839.06 1519.21 1838.84 1519.48 1838.7 1519.81C1838.57 1520.13 1838.54 1520.49 1838.61 1520.83C1838.68 1521.18 1838.84 1521.5 1839.09 1521.74L1841.57 1524.24C1843.17 1525.84 1845.25 1526.88 1847.5 1527.17C1853.01 1527.9 1857.49 1527.01 1860.92 1524.5C1861.22 1524.28 1861.58 1524.18 1861.95 1524.21C1862.31 1524.24 1862.66 1524.4 1862.91 1524.66L1867.76 1529.54C1867.87 1529.66 1867.96 1529.8 1868.02 1529.96C1868.08 1530.11 1868.1 1530.28 1868.08 1530.44C1868.07 1530.61 1868.02 1530.77 1867.94 1530.91C1867.86 1531.05 1867.74 1531.18 1867.61 1531.27C1852.42 1542.01 1829.3 1537.86 1828.07 1516.16C1827.56 1507.01 1830.98 1500.26 1838.35 1495.89C1843.85 1492.6 1852.13 1492.15 1858.03 1494.19C1868.45 1497.78 1871.83 1507.57 1870.87 1517.99ZM1839.37 1510.32L1860.78 1510.16C1860.82 1510.16 1860.87 1510.14 1860.9 1510.1C1860.94 1510.07 1860.96 1510.02 1860.96 1509.98V1509.85C1860.94 1507.8 1859.8 1505.84 1857.77 1504.4C1855.75 1502.96 1853.01 1502.16 1850.17 1502.18H1849.89C1848.48 1502.19 1847.08 1502.4 1845.78 1502.8C1844.48 1503.2 1843.3 1503.78 1842.3 1504.5C1841.31 1505.23 1840.52 1506.09 1839.99 1507.04C1839.46 1507.98 1839.19 1508.99 1839.19 1510.01V1510.14C1839.19 1510.18 1839.21 1510.23 1839.25 1510.26C1839.28 1510.3 1839.33 1510.32 1839.37 1510.32Z" fill="#252122"/>
<path d="M1880.55 1523.32C1880.72 1523.12 1880.96 1523 1881.22 1522.97C1881.48 1522.95 1881.74 1523.03 1881.94 1523.2C1884.78 1525.54 1888.45 1527.08 1892.96 1527.8C1896.55 1528.38 1901.95 1527.78 1902.79 1523.49C1903.72 1518.69 1894.26 1518.74 1891.88 1518.44C1884.21 1517.47 1876.63 1513.52 1877.36 1504.84C1878.12 1495.95 1888.12 1492.8 1895.89 1492.97C1901.54 1493.08 1906.33 1494.66 1910.27 1497.72C1910.38 1497.8 1910.47 1497.91 1910.54 1498.03C1910.61 1498.15 1910.65 1498.29 1910.67 1498.43C1910.68 1498.57 1910.67 1498.71 1910.63 1498.85C1910.59 1498.98 1910.52 1499.1 1910.43 1499.21L1906.13 1504.33C1905.95 1504.55 1905.69 1504.69 1905.42 1504.72C1905.14 1504.76 1904.86 1504.68 1904.63 1504.52C1901.09 1501.89 1896.82 1500.99 1891.8 1501.8C1886 1502.75 1885.92 1508.39 1891.64 1509.63C1895.32 1510.42 1901.73 1510.33 1906.55 1512.66C1911.5 1515.07 1913.51 1519.45 1912.93 1524.79C1911.65 1536.77 1896.61 1538.22 1887.58 1536.21C1883.46 1535.3 1879.77 1533.34 1876.51 1530.35C1876.22 1530.09 1876.05 1529.73 1876.03 1529.35C1876 1528.97 1876.12 1528.59 1876.37 1528.3L1880.55 1523.32Z" fill="#252122"/>
<path d="M390.023 1514.96C390.023 1520.8 387.706 1526.39 383.58 1530.52C379.454 1534.64 373.858 1536.96 368.023 1536.96C362.189 1536.96 356.593 1534.64 352.467 1530.52C348.341 1526.39 346.023 1520.8 346.023 1514.96C346.023 1509.13 348.341 1503.53 352.467 1499.4C356.593 1495.28 362.189 1492.96 368.023 1492.96C373.858 1492.96 379.454 1495.28 383.58 1499.4C387.706 1503.53 390.023 1509.13 390.023 1514.96ZM367.708 1502.43C366.204 1502.47 364.722 1502.83 363.349 1503.49C361.976 1504.16 360.737 1505.11 359.704 1506.3C358.67 1507.48 357.862 1508.88 357.326 1510.41C356.79 1511.94 356.537 1513.57 356.58 1515.21C356.622 1516.85 356.961 1518.47 357.577 1519.97C358.192 1521.47 359.072 1522.83 360.166 1523.96C361.26 1525.09 362.547 1525.98 363.953 1526.57C365.36 1527.16 366.858 1527.44 368.362 1527.4C369.866 1527.36 371.347 1527 372.721 1526.34C374.094 1525.67 375.333 1524.72 376.366 1523.53C377.4 1522.35 378.207 1520.95 378.743 1519.42C379.279 1517.89 379.533 1516.26 379.49 1514.62C379.447 1512.98 379.109 1511.36 378.493 1509.86C377.878 1508.36 376.998 1507 375.904 1505.87C374.81 1504.74 373.523 1503.85 372.117 1503.26C370.71 1502.67 369.212 1502.39 367.708 1502.43Z" fill="#252122"/>
<path d="M515.023 1514.96C515.023 1520.8 512.706 1526.39 508.58 1530.52C504.454 1534.64 498.858 1536.96 493.023 1536.96C490.134 1536.96 487.274 1536.39 484.604 1535.29C481.935 1534.18 479.51 1532.56 477.467 1530.52C475.424 1528.47 473.804 1526.05 472.698 1523.38C471.592 1520.71 471.023 1517.85 471.023 1514.96C471.023 1512.07 471.592 1509.21 472.698 1506.54C473.804 1503.87 475.424 1501.45 477.467 1499.4C479.51 1497.36 481.935 1495.74 484.604 1494.64C487.274 1493.53 490.134 1492.96 493.023 1492.96C498.858 1492.96 504.454 1495.28 508.58 1499.4C512.706 1503.53 515.023 1509.13 515.023 1514.96ZM492.411 1502.44C489.37 1502.58 486.514 1504.03 484.47 1506.46C482.426 1508.9 481.362 1512.13 481.513 1515.44C481.663 1518.74 483.015 1521.86 485.271 1524.1C487.527 1526.35 490.503 1527.53 493.544 1527.39C496.585 1527.25 499.441 1525.81 501.485 1523.37C503.529 1520.93 504.593 1517.7 504.442 1514.39C504.292 1511.09 502.94 1507.97 500.684 1505.73C498.428 1503.48 495.452 1502.3 492.411 1502.44Z" fill="#252122"/>
<path d="M867.023 1514.96C867.023 1517.85 866.467 1520.71 865.387 1523.38C864.306 1526.05 862.723 1528.47 860.726 1530.52C858.73 1532.56 856.36 1534.18 853.751 1535.29C851.143 1536.39 848.347 1536.96 845.523 1536.96C842.7 1536.96 839.904 1536.39 837.296 1535.29C834.687 1534.18 832.317 1532.56 830.321 1530.52C828.324 1528.47 826.74 1526.05 825.66 1523.38C824.58 1520.71 824.023 1517.85 824.023 1514.96C824.023 1509.13 826.289 1503.53 830.321 1499.4C834.353 1495.28 839.821 1492.96 845.523 1492.96C851.226 1492.96 856.694 1495.28 860.726 1499.4C864.758 1503.53 867.023 1509.13 867.023 1514.96ZM845.051 1502.42C842.078 1502.52 839.27 1503.94 837.244 1506.35C835.217 1508.76 834.139 1511.97 834.246 1515.28C834.354 1518.59 835.638 1521.73 837.816 1524C839.994 1526.27 842.888 1527.49 845.861 1527.38C848.834 1527.28 851.642 1525.87 853.669 1523.46C855.695 1521.05 856.773 1517.83 856.666 1514.52C856.559 1511.21 855.275 1508.08 853.096 1505.81C850.918 1503.54 848.024 1502.32 845.051 1502.42Z" fill="#252122"/>
<path d="M1379.02 1514.96C1379.02 1520.8 1376.71 1526.39 1372.58 1530.52C1368.45 1534.64 1362.86 1536.96 1357.02 1536.96C1354.13 1536.96 1351.27 1536.39 1348.6 1535.29C1345.94 1534.18 1343.51 1532.56 1341.47 1530.52C1339.42 1528.47 1337.8 1526.05 1336.7 1523.38C1335.59 1520.71 1335.02 1517.85 1335.02 1514.96C1335.02 1512.07 1335.59 1509.21 1336.7 1506.54C1337.8 1503.87 1339.42 1501.45 1341.47 1499.4C1343.51 1497.36 1345.94 1495.74 1348.6 1494.64C1351.27 1493.53 1354.13 1492.96 1357.02 1492.96C1362.86 1492.96 1368.45 1495.28 1372.58 1499.4C1376.71 1503.53 1379.02 1509.13 1379.02 1514.96ZM1356.66 1502.46C1355.16 1502.51 1353.67 1502.87 1352.3 1503.53C1350.92 1504.2 1349.68 1505.15 1348.65 1506.34C1347.62 1507.53 1346.81 1508.92 1346.28 1510.45C1345.74 1511.98 1345.49 1513.61 1345.53 1515.25C1345.58 1516.88 1345.92 1518.5 1346.54 1519.99C1347.16 1521.49 1348.04 1522.84 1349.14 1523.97C1350.24 1525.09 1351.53 1525.98 1352.94 1526.56C1354.35 1527.15 1355.85 1527.43 1357.36 1527.39C1358.87 1527.35 1360.35 1526.98 1361.73 1526.32C1363.1 1525.65 1364.34 1524.7 1365.37 1523.51C1366.41 1522.33 1367.21 1520.93 1367.75 1519.4C1368.28 1517.87 1368.54 1516.24 1368.49 1514.61C1368.44 1512.97 1368.1 1511.36 1367.48 1509.86C1366.86 1508.36 1365.98 1507.01 1364.88 1505.89C1363.78 1504.76 1362.49 1503.88 1361.08 1503.29C1359.67 1502.7 1358.17 1502.42 1356.66 1502.46Z" fill="#252122"/>
<path d="M1774.02 1514.96C1774.02 1520.8 1771.71 1526.39 1767.58 1530.52C1763.45 1534.64 1757.86 1536.96 1752.02 1536.96C1746.19 1536.96 1740.59 1534.64 1736.47 1530.52C1732.34 1526.39 1730.02 1520.8 1730.02 1514.96C1730.02 1509.13 1732.34 1503.53 1736.47 1499.4C1740.59 1495.28 1746.19 1492.96 1752.02 1492.96C1757.86 1492.96 1763.45 1495.28 1767.58 1499.4C1771.71 1503.53 1774.02 1509.13 1774.02 1514.96ZM1751.62 1502.45C1748.58 1502.55 1745.71 1503.96 1743.64 1506.37C1741.57 1508.78 1740.47 1511.99 1740.58 1515.29C1740.69 1518.6 1742 1521.73 1744.23 1524C1746.45 1526.26 1749.41 1527.48 1752.45 1527.38C1755.49 1527.28 1758.36 1525.87 1760.43 1523.46C1762.5 1521.05 1763.6 1517.84 1763.49 1514.54C1763.38 1511.23 1762.07 1508.1 1759.84 1505.83C1757.62 1503.57 1754.66 1502.35 1751.62 1502.45Z" fill="#252122"/>
<path d="M95.6732 1498.54C95.6756 1498.61 95.6956 1498.68 95.7314 1498.75C95.7671 1498.81 95.8174 1498.86 95.8774 1498.9C95.9374 1498.93 96.0053 1498.95 96.0746 1498.96C96.1438 1498.96 96.2123 1498.94 96.2734 1498.91C97.5419 1498.31 99.5806 1495.87 101.665 1494.92C115.743 1488.44 126.91 1498.92 126.967 1513.4C127.005 1521.96 127.023 1529.22 127.023 1535.19C127.023 1535.39 126.943 1535.58 126.801 1535.73C126.659 1535.87 126.466 1535.95 126.265 1535.95L117.464 1535.96C117.361 1535.96 117.259 1535.94 117.164 1535.9C117.069 1535.86 116.983 1535.8 116.911 1535.73C116.84 1535.65 116.783 1535.56 116.746 1535.47C116.709 1535.37 116.691 1535.27 116.694 1535.16C116.83 1525.06 116.807 1517.46 116.626 1512.36C116.207 1501.45 103.16 1499.07 97.8704 1507.7C96.6623 1509.68 96.0884 1513.01 96.1489 1517.72C96.2395 1525.43 96.2546 1531.29 96.1942 1535.3C96.1912 1535.47 96.1219 1535.63 96.0011 1535.75C95.8804 1535.87 95.7179 1535.94 95.5486 1535.94H86.6917C86.5204 1535.94 86.3562 1535.87 86.2352 1535.74C86.1141 1535.62 86.0461 1535.45 86.0461 1535.28L86.0234 1495.09C86.0234 1494.69 86.1798 1494.3 86.458 1494.02C86.7363 1493.74 87.1136 1493.58 87.5071 1493.58H93.8837C94.3325 1493.58 94.7636 1493.76 95.0852 1494.08C95.4068 1494.4 95.5934 1494.83 95.6052 1495.29L95.6732 1498.54Z" fill="#252122"/>
<path d="M532.008 1497.98C536.998 1490.85 550.027 1491.39 554.081 1499.13C554.374 1499.7 554.586 1500.03 554.716 1500.13C554.794 1500.18 554.881 1500.22 554.973 1500.24C555.066 1500.27 555.162 1500.27 555.255 1500.25C555.349 1500.24 555.438 1500.2 555.518 1500.15C555.598 1500.1 555.667 1500.03 555.721 1499.95C559.618 1494.32 565.497 1492.18 573.359 1493.52C582.911 1495.16 586.816 1502.97 586.966 1512.2C586.996 1514.48 587.016 1522.12 587.023 1535.13C587.023 1535.35 586.937 1535.55 586.783 1535.71C586.629 1535.86 586.421 1535.95 586.203 1535.95H577.379C577.267 1535.95 577.156 1535.93 577.053 1535.88C576.95 1535.84 576.857 1535.78 576.778 1535.7C576.7 1535.62 576.638 1535.53 576.596 1535.43C576.555 1535.32 576.534 1535.22 576.535 1535.1C576.651 1526.03 576.643 1518.3 576.512 1511.92C576.432 1508.1 574.503 1503.7 570.379 1503.01C563.633 1501.89 559.51 1507.24 559.487 1513.65C559.464 1521.04 559.491 1528.16 559.568 1535.01C559.569 1535.14 559.546 1535.26 559.5 1535.37C559.453 1535.49 559.385 1535.59 559.298 1535.68C559.211 1535.77 559.107 1535.84 558.993 1535.89C558.879 1535.94 558.756 1535.96 558.632 1535.96H549.911C549.795 1535.96 549.68 1535.94 549.573 1535.89C549.466 1535.85 549.368 1535.78 549.287 1535.7C549.205 1535.61 549.141 1535.51 549.097 1535.4C549.054 1535.29 549.032 1535.18 549.034 1535.06C549.057 1527.28 549.076 1520.66 549.091 1515.19C549.103 1509.52 547.936 1503.87 541.942 1502.88C536.189 1501.93 531.904 1506.3 531.627 1511.62C531.419 1515.57 531.377 1523.4 531.5 1535.13C531.501 1535.23 531.482 1535.33 531.443 1535.43C531.405 1535.52 531.347 1535.61 531.274 1535.68C531.201 1535.76 531.114 1535.81 531.018 1535.85C530.922 1535.89 530.819 1535.91 530.714 1535.91H521.763C521.666 1535.91 521.569 1535.9 521.48 1535.86C521.39 1535.82 521.309 1535.77 521.24 1535.7C521.171 1535.63 521.117 1535.55 521.08 1535.46C521.043 1535.38 521.023 1535.28 521.023 1535.19V1494.52C521.023 1494.28 521.118 1494.05 521.287 1493.89C521.456 1493.72 521.685 1493.63 521.924 1493.63H530.01C530.286 1493.63 530.55 1493.74 530.745 1493.93C530.94 1494.13 531.049 1494.4 531.049 1494.68V1497.68C531.052 1497.79 531.09 1497.89 531.157 1497.98C531.224 1498.07 531.316 1498.13 531.422 1498.17C531.527 1498.2 531.64 1498.2 531.746 1498.17C531.851 1498.13 531.942 1498.07 532.008 1497.98Z" fill="#252122"/>
<path d="M625.673 1498.56C625.676 1498.63 625.697 1498.7 625.732 1498.76C625.767 1498.82 625.816 1498.88 625.874 1498.91C625.933 1498.95 625.999 1498.97 626.066 1498.97C626.134 1498.98 626.201 1498.96 626.262 1498.93C627.531 1498.33 629.558 1495.89 631.642 1494.94C645.675 1488.43 656.842 1498.89 656.922 1513.36C656.974 1521.92 657.008 1529.17 657.023 1535.13C657.023 1535.33 656.943 1535.52 656.801 1535.67C656.659 1535.81 656.466 1535.89 656.265 1535.89L647.487 1535.91C647.385 1535.91 647.284 1535.89 647.19 1535.85C647.095 1535.81 647.01 1535.76 646.938 1535.68C646.867 1535.61 646.81 1535.52 646.772 1535.43C646.734 1535.33 646.715 1535.23 646.717 1535.13C646.838 1525.03 646.8 1517.43 646.604 1512.33C646.173 1501.43 633.137 1499.08 627.882 1507.72C626.674 1509.69 626.104 1513.03 626.171 1517.73C626.285 1525.44 626.311 1531.29 626.251 1535.3C626.248 1535.47 626.178 1535.63 626.058 1535.75C625.937 1535.87 625.774 1535.94 625.605 1535.94L616.771 1535.96C616.6 1535.96 616.435 1535.89 616.314 1535.77C616.193 1535.64 616.125 1535.48 616.125 1535.3L616.023 1495.13C616.023 1494.73 616.178 1494.35 616.454 1494.06C616.73 1493.78 617.104 1493.62 617.496 1493.62L623.872 1493.6C624.319 1493.6 624.749 1493.78 625.07 1494.1C625.391 1494.42 625.579 1494.85 625.594 1495.31L625.673 1498.56Z" fill="#252122"/>
<path d="M785.95 1498.52C785.954 1498.59 785.974 1498.66 786.01 1498.72C786.046 1498.78 786.096 1498.84 786.156 1498.87C786.216 1498.91 786.284 1498.93 786.354 1498.93C786.423 1498.94 786.492 1498.92 786.555 1498.89C787.857 1498.29 789.949 1495.86 792.088 1494.91C806.524 1488.45 817.951 1498.94 817.997 1513.43C818.021 1521.98 818.028 1529.24 818.021 1535.2C818.021 1535.4 817.938 1535.59 817.792 1535.74C817.646 1535.88 817.448 1535.96 817.242 1535.96L808.233 1535.95C808.128 1535.95 808.025 1535.93 807.928 1535.89C807.831 1535.85 807.744 1535.79 807.67 1535.72C807.597 1535.64 807.539 1535.56 807.5 1535.46C807.461 1535.37 807.441 1535.26 807.443 1535.16C807.598 1525.06 807.582 1517.46 807.396 1512.36C806.989 1501.46 793.61 1499.07 788.182 1507.68C786.942 1509.65 786.349 1512.99 786.404 1517.7C786.489 1525.4 786.493 1531.26 786.415 1535.27C786.412 1535.44 786.341 1535.6 786.217 1535.72C786.093 1535.84 785.926 1535.9 785.753 1535.9H776.686C776.599 1535.9 776.513 1535.89 776.432 1535.85C776.352 1535.82 776.279 1535.77 776.217 1535.71C776.156 1535.65 776.107 1535.58 776.074 1535.5C776.041 1535.42 776.023 1535.33 776.023 1535.24L776.047 1495.06C776.047 1494.66 776.207 1494.27 776.493 1493.99C776.778 1493.7 777.166 1493.54 777.569 1493.54L784.114 1493.55C784.574 1493.55 785.017 1493.73 785.347 1494.05C785.677 1494.37 785.868 1494.81 785.88 1495.27L785.95 1498.52Z" fill="#252122"/>
<path d="M1395.9 1497.68C1395.9 1497.79 1395.94 1497.9 1396 1497.98C1396.07 1498.07 1396.16 1498.14 1396.26 1498.17C1396.36 1498.2 1396.48 1498.2 1396.58 1498.17C1396.68 1498.14 1396.77 1498.07 1396.84 1497.98C1401.76 1490.85 1414.58 1491.39 1418.58 1499.14C1418.87 1499.7 1419.08 1500.03 1419.2 1500.13C1419.28 1500.18 1419.37 1500.22 1419.46 1500.25C1419.55 1500.27 1419.64 1500.27 1419.73 1500.25C1419.83 1500.24 1419.91 1500.2 1419.99 1500.15C1420.07 1500.1 1420.14 1500.03 1420.19 1499.96C1424.03 1494.32 1429.81 1492.17 1437.55 1493.51C1446.96 1495.15 1450.81 1502.96 1450.96 1512.19C1450.99 1514.47 1451.02 1522.11 1451.02 1535.12C1451.02 1535.33 1450.94 1535.54 1450.79 1535.7C1450.64 1535.85 1450.43 1535.94 1450.22 1535.94H1441.53C1441.42 1535.94 1441.31 1535.92 1441.21 1535.87C1441.11 1535.83 1441.01 1535.77 1440.94 1535.69C1440.86 1535.61 1440.8 1535.52 1440.76 1535.42C1440.72 1535.31 1440.7 1535.2 1440.7 1535.09C1440.81 1526.02 1440.8 1518.29 1440.66 1511.91C1440.58 1508.09 1438.69 1503.69 1434.62 1503C1427.99 1501.87 1423.92 1507.24 1423.91 1513.65C1423.89 1521.04 1423.92 1528.16 1424 1535.01C1424 1535.14 1423.98 1535.26 1423.93 1535.37C1423.89 1535.49 1423.82 1535.59 1423.73 1535.68C1423.65 1535.77 1423.55 1535.84 1423.43 1535.89C1423.32 1535.94 1423.2 1535.96 1423.08 1535.96H1414.49C1414.38 1535.96 1414.26 1535.94 1414.16 1535.89C1414.05 1535.85 1413.96 1535.78 1413.88 1535.7C1413.8 1535.61 1413.73 1535.51 1413.69 1535.4C1413.65 1535.29 1413.63 1535.18 1413.63 1535.06C1413.64 1527.28 1413.66 1520.66 1413.67 1515.19C1413.68 1509.53 1412.53 1503.86 1406.63 1502.88C1400.96 1501.94 1396.75 1506.3 1396.47 1511.63C1396.27 1515.58 1396.23 1523.41 1396.36 1535.14C1396.36 1535.24 1396.34 1535.34 1396.31 1535.44C1396.27 1535.54 1396.21 1535.62 1396.14 1535.7C1396.07 1535.77 1395.98 1535.83 1395.89 1535.87C1395.79 1535.91 1395.69 1535.93 1395.59 1535.93L1386.77 1535.94C1386.58 1535.94 1386.4 1535.86 1386.26 1535.72C1386.12 1535.59 1386.05 1535.4 1386.05 1535.21L1386.02 1494.52C1386.02 1494.41 1386.05 1494.29 1386.09 1494.18C1386.14 1494.08 1386.2 1493.98 1386.28 1493.89C1386.37 1493.81 1386.46 1493.75 1386.57 1493.7C1386.68 1493.66 1386.79 1493.63 1386.91 1493.63H1394.87C1395.14 1493.63 1395.4 1493.74 1395.6 1493.94C1395.79 1494.14 1395.9 1494.41 1395.9 1494.69V1497.68Z" fill="#252122"/>
<path d="M1519.68 1498.54C1519.68 1498.61 1519.7 1498.68 1519.73 1498.75C1519.77 1498.81 1519.82 1498.86 1519.88 1498.89C1519.93 1498.93 1520 1498.95 1520.07 1498.96C1520.14 1498.96 1520.2 1498.95 1520.26 1498.91C1521.54 1498.31 1523.58 1495.88 1525.65 1494.93C1539.72 1488.43 1550.89 1498.91 1550.96 1513.4C1550.99 1521.96 1551.02 1529.22 1551.02 1535.18C1551.02 1535.39 1550.94 1535.58 1550.8 1535.73C1550.66 1535.87 1550.47 1535.95 1550.26 1535.95L1541.47 1535.96C1541.37 1535.96 1541.27 1535.94 1541.18 1535.9C1541.08 1535.86 1541 1535.8 1540.92 1535.73C1540.85 1535.66 1540.8 1535.57 1540.76 1535.47C1540.72 1535.38 1540.7 1535.28 1540.7 1535.17C1540.84 1525.07 1540.81 1517.46 1540.62 1512.35C1540.2 1501.45 1527.16 1499.08 1521.88 1507.72C1520.67 1509.69 1520.1 1513.03 1520.16 1517.73C1520.26 1525.45 1520.28 1531.31 1520.21 1535.31C1520.21 1535.48 1520.14 1535.64 1520.02 1535.76C1519.9 1535.88 1519.74 1535.95 1519.57 1535.95L1510.73 1535.96C1510.56 1535.96 1510.39 1535.89 1510.27 1535.77C1510.15 1535.64 1510.08 1535.48 1510.08 1535.3L1510.02 1495.11C1510.02 1494.71 1510.18 1494.32 1510.46 1494.04C1510.74 1493.75 1511.12 1493.59 1511.51 1493.59L1517.88 1493.58C1518.33 1493.58 1518.76 1493.76 1519.09 1494.08C1519.41 1494.4 1519.6 1494.84 1519.61 1495.3L1519.68 1498.54Z" fill="#252122"/>
<path d="M1789.69 1498.54C1789.69 1498.62 1789.71 1498.68 1789.75 1498.75C1789.78 1498.81 1789.83 1498.86 1789.89 1498.9C1789.95 1498.93 1790.01 1498.95 1790.08 1498.96C1790.15 1498.96 1790.22 1498.95 1790.28 1498.92C1791.55 1498.3 1793.59 1495.88 1795.67 1494.92C1809.74 1488.44 1820.91 1498.93 1820.97 1513.41C1821 1521.97 1821.02 1529.23 1821.02 1535.2C1821.02 1535.3 1821 1535.4 1820.97 1535.49C1820.93 1535.58 1820.87 1535.67 1820.8 1535.74C1820.73 1535.81 1820.65 1535.86 1820.55 1535.9C1820.46 1535.94 1820.36 1535.96 1820.26 1535.96H1811.47C1811.37 1535.96 1811.27 1535.94 1811.18 1535.9C1811.08 1535.86 1811 1535.8 1810.92 1535.73C1810.85 1535.66 1810.8 1535.57 1810.76 1535.47C1810.72 1535.38 1810.7 1535.28 1810.7 1535.17C1810.84 1525.07 1810.82 1517.47 1810.63 1512.37C1810.21 1501.45 1797.17 1499.08 1791.88 1507.71C1790.67 1509.68 1790.1 1513.02 1790.15 1517.72C1790.25 1525.44 1790.26 1531.3 1790.2 1535.3C1790.19 1535.47 1790.12 1535.63 1790 1535.75C1789.88 1535.87 1789.72 1535.94 1789.55 1535.94L1780.7 1535.95C1780.53 1535.95 1780.37 1535.88 1780.25 1535.76C1780.13 1535.63 1780.06 1535.46 1780.06 1535.29L1780.02 1495.09C1780.02 1494.69 1780.18 1494.3 1780.46 1494.02C1780.74 1493.73 1781.12 1493.57 1781.51 1493.57H1787.89C1788.34 1493.57 1788.78 1493.75 1789.1 1494.07C1789.42 1494.39 1789.61 1494.83 1789.62 1495.29L1789.69 1498.54Z" fill="#252122"/>
<path d="M220.526 1493.96H212.521C212.246 1493.96 212.023 1494.22 212.023 1494.53V1535.39C212.023 1535.7 212.246 1535.96 212.521 1535.96H220.526C220.801 1535.96 221.023 1535.7 221.023 1535.39V1494.53C221.023 1494.22 220.801 1493.96 220.526 1493.96Z" fill="#252122"/>
<path d="M606.28 1493.96H596.767C596.357 1493.96 596.023 1494.27 596.023 1494.66V1535.26C596.023 1535.65 596.357 1535.96 596.767 1535.96H606.28C606.69 1535.96 607.023 1535.65 607.023 1535.26V1494.66C607.023 1494.27 606.69 1493.96 606.28 1493.96Z" fill="#252122"/>
<path d="M676.307 1493.96H666.74C666.344 1493.96 666.023 1494.26 666.023 1494.64V1535.28C666.023 1535.66 666.344 1535.96 666.74 1535.96H676.307C676.703 1535.96 677.023 1535.66 677.023 1535.28V1494.64C677.023 1494.26 676.703 1493.96 676.307 1493.96Z" fill="#252122"/>
<path d="M1569.43 1493.96H1559.62C1559.29 1493.96 1559.02 1494.21 1559.02 1494.52V1535.4C1559.02 1535.71 1559.29 1535.96 1559.62 1535.96H1569.43C1569.76 1535.96 1570.02 1535.71 1570.02 1535.4V1494.52C1570.02 1494.21 1569.76 1493.96 1569.43 1493.96Z" fill="#252122"/>
<path d="M296.129 1530.5C296.125 1530.43 296.105 1530.37 296.069 1530.31C296.033 1530.25 295.983 1530.2 295.923 1530.16C295.863 1530.12 295.796 1530.1 295.727 1530.1C295.657 1530.1 295.588 1530.11 295.526 1530.14C294.229 1530.73 292.143 1533.11 290.011 1534.04C275.621 1540.39 264.174 1530.15 264.105 1516.01C264.058 1507.65 264.031 1500.56 264.023 1494.74C264.023 1494.54 264.105 1494.35 264.251 1494.21C264.396 1494.07 264.594 1493.99 264.8 1493.99L273.802 1493.98C273.907 1493.98 274.01 1494 274.106 1494.04C274.203 1494.08 274.29 1494.14 274.363 1494.21C274.437 1494.28 274.495 1494.37 274.533 1494.46C274.572 1494.55 274.592 1494.65 274.59 1494.75C274.459 1504.62 274.49 1512.04 274.683 1517.03C275.123 1527.68 288.47 1529.98 293.881 1521.54C295.109 1519.62 295.692 1516.36 295.631 1511.76C295.53 1504.23 295.511 1498.51 295.573 1494.6C295.573 1494.52 295.59 1494.44 295.623 1494.36C295.656 1494.29 295.705 1494.22 295.766 1494.16C295.827 1494.1 295.9 1494.05 295.98 1494.02C296.06 1493.99 296.146 1493.97 296.233 1493.97L305.282 1493.96C305.37 1493.96 305.457 1493.97 305.538 1494.01C305.62 1494.04 305.694 1494.09 305.756 1494.15C305.819 1494.21 305.869 1494.28 305.903 1494.36C305.936 1494.43 305.954 1494.52 305.954 1494.6L306.023 1533.86C306.023 1534.05 305.984 1534.24 305.908 1534.42C305.832 1534.6 305.72 1534.77 305.579 1534.9C305.438 1535.04 305.271 1535.15 305.086 1535.22C304.902 1535.3 304.705 1535.34 304.506 1535.34L297.971 1535.35C297.512 1535.35 297.071 1535.17 296.742 1534.86C296.413 1534.55 296.222 1534.12 296.21 1533.68L296.129 1530.5Z" fill="#252122"/>
<path d="M1490.02 1530.16C1488.78 1530.75 1486.79 1533.13 1484.75 1534.05C1471.01 1540.37 1460.11 1530.13 1460.07 1515.98C1460.04 1507.62 1460.02 1500.53 1460.02 1494.71C1460.02 1494.51 1460.1 1494.32 1460.24 1494.18C1460.38 1494.04 1460.57 1493.96 1460.76 1493.96H1469.35C1469.45 1493.96 1469.55 1493.98 1469.64 1494.02C1469.73 1494.06 1469.82 1494.12 1469.89 1494.19C1469.96 1494.26 1470.01 1494.34 1470.05 1494.44C1470.09 1494.53 1470.11 1494.63 1470.1 1494.73C1469.96 1504.6 1469.98 1512.03 1470.16 1517.01C1470.56 1527.66 1483.29 1529.99 1488.46 1521.57C1489.64 1519.64 1490.21 1516.38 1490.15 1511.78C1490.07 1504.25 1490.05 1498.53 1490.12 1494.62C1490.12 1494.45 1490.19 1494.29 1490.31 1494.18C1490.43 1494.06 1490.59 1493.99 1490.75 1493.99H1499.39C1499.56 1493.99 1499.72 1494.06 1499.84 1494.18C1499.96 1494.3 1500.02 1494.47 1500.02 1494.64V1533.89C1500.02 1534.09 1499.99 1534.28 1499.91 1534.46C1499.84 1534.64 1499.73 1534.8 1499.6 1534.94C1499.46 1535.08 1499.3 1535.19 1499.13 1535.26C1498.95 1535.34 1498.76 1535.38 1498.57 1535.38H1492.34C1491.91 1535.38 1491.48 1535.2 1491.17 1534.89C1490.86 1534.58 1490.67 1534.15 1490.66 1533.7L1490.6 1530.52C1490.59 1530.45 1490.57 1530.39 1490.54 1530.33C1490.5 1530.27 1490.46 1530.22 1490.4 1530.18C1490.34 1530.15 1490.28 1530.13 1490.21 1530.12C1490.15 1530.12 1490.08 1530.13 1490.02 1530.16Z" fill="#252122"/>
<path d="M1720.59 1493.96H1711.46C1711.22 1493.96 1711.02 1494.16 1711.02 1494.41V1535.51C1711.02 1535.76 1711.22 1535.96 1711.46 1535.96H1720.59C1720.83 1535.96 1721.02 1535.76 1721.02 1535.51V1494.41C1721.02 1494.16 1720.83 1493.96 1720.59 1493.96Z" fill="#252122"/>
</svg>
