<svg width="3629" height="2030" viewBox="0 0 3629 2030" fill="none" xmlns="http://www.w3.org/2000/svg">
<path d="M1302.37 457.025C1302.73 457.055 1303.08 457.156 1303.4 457.322C1303.72 457.488 1304.01 457.716 1304.24 457.992C1304.48 458.269 1304.65 458.59 1304.76 458.935C1304.87 459.28 1304.91 459.643 1304.88 460.004V460.239C1304.84 460.669 1304.64 461.068 1304.32 461.358C1304 461.648 1303.58 461.808 1303.15 461.806L1138 461.963C1137.48 461.955 1136.97 461.814 1136.52 461.553C1136.07 461.292 1135.69 460.92 1135.43 460.473C1135.16 460.025 1135.01 459.516 1135 458.995C1134.98 458.474 1135.1 457.958 1135.34 457.496L1165.52 401.142C1165.63 400.916 1165.67 400.663 1165.63 400.414C1165.6 400.166 1165.49 399.933 1165.32 399.748C1165.15 399.562 1164.93 399.431 1164.68 399.372C1164.44 399.313 1164.18 399.329 1163.95 399.417C1089.96 429.253 1016.8 460.657 944.484 493.628C927.398 501.466 907.28 518.004 884.132 543.242C855.601 574.279 829.84 613.26 806.849 660.182C795.249 683.905 786.104 700.834 779.416 710.971C762.59 736.627 743.047 756.953 720.787 771.95C713.995 776.548 703.047 777.488 687.946 774.771C685.538 774.36 683.284 773.274 681.441 771.636C658.815 751.937 644.968 740.494 639.899 737.306C619.259 724.505 594.987 720.22 567.084 724.452C556.79 726.02 538.345 734.25 511.748 749.142C488.495 762.205 463.622 770.931 437.13 775.32C436.642 775.387 436.143 775.325 435.687 775.14C435.231 774.955 434.833 774.654 434.536 774.269C434.239 773.884 434.054 773.429 434 772.951C433.946 772.474 434.025 771.993 434.23 771.558C445.673 746.372 458.815 722.153 473.655 698.901C489.749 673.768 484.576 655.114 458.136 642.939C431.486 630.712 406.065 618.197 381.872 605.396C379.802 604.31 377.565 603.644 375.288 603.436C329.044 599.752 329.906 645.369 309.919 666.531C309.606 666.843 309.317 667.212 309.057 667.628L236.555 798.755C235.41 800.805 234.829 803.124 234.87 805.478C234.912 807.831 235.574 810.136 236.79 812.158C248.861 832.301 263.988 833.79 282.956 843.666C302.969 854.064 313.681 859.629 315.092 860.36C331.813 868.93 345.634 872.64 356.555 871.49C389.945 867.885 402.172 830.028 419.651 794.523C420.881 792.01 422.956 790.008 425.518 788.863C428.08 787.718 430.968 787.502 433.681 788.252C436.816 789.141 449.88 792.302 472.871 797.736C483.949 800.349 491.238 802.752 494.739 804.947C495.471 805.417 502.525 808.605 515.902 814.509C523.531 817.801 529.88 822.321 534.948 828.069C541.375 835.384 546.496 839.878 550.311 841.55C551.392 842.039 552.353 842.764 553.125 843.672C553.897 844.579 554.462 845.648 554.778 846.801L563.949 881.523C564.189 882.404 564.224 883.329 564.049 884.227C563.875 885.124 563.497 885.968 562.944 886.696C562.39 887.423 561.677 888.014 560.86 888.421C560.042 888.829 559.141 889.043 558.227 889.047H117.26C115.561 889.048 113.894 888.645 112.401 887.871C108.586 886.042 103.962 885.206 98.5276 885.363C98.0102 885.384 97.4939 885.301 97.0097 885.117C96.5255 884.934 96.0834 884.654 95.71 884.295C95.3366 883.937 95.0396 883.506 94.8368 883.03C94.6341 882.553 94.5298 882.041 94.5302 881.523V868.59C94.5351 867.304 94.9979 866.065 95.8334 865.1C96.6688 864.134 97.8206 863.509 99.0763 863.339C113.864 861.458 124.602 855.214 131.291 844.606C143.753 824.777 116.085 810.355 99.9385 806.279C98.7233 805.966 97.6475 805.256 96.8809 804.262C96.1144 803.269 95.7009 802.048 95.7059 800.793V783.863C95.7006 782.581 96.1788 781.342 97.0477 780.386C97.9166 779.43 99.1144 778.826 100.409 778.69C110.859 777.645 120.761 772.08 130.115 761.996C131.91 759.995 133.128 757.558 133.642 754.942C135.157 746.633 131.839 738.848 123.688 731.585C122.755 730.755 121.719 730.118 120.631 729.704L103.622 723.198C100.636 722.063 98.0369 720.098 96.1297 717.535C94.2225 714.972 93.0868 711.918 92.8562 708.732C92.6257 705.545 93.3099 702.36 94.8284 699.549C96.3468 696.738 98.6363 694.42 101.428 692.866C101.741 692.709 104.929 691.69 110.99 689.809C117.57 687.789 123.341 684.113 127.459 679.318C131.576 674.523 133.826 668.862 133.877 663.161C134.034 648.033 116.398 641.842 99.3898 638.158C98.0178 637.87 96.7863 637.114 95.9016 636.015C95.017 634.916 94.5328 633.542 94.5302 632.123V613.39C94.5333 612.135 94.9609 610.917 95.7435 609.935C96.5262 608.953 97.6178 608.265 98.8411 607.982C107.097 606.153 113.968 603.88 119.455 601.163C124.116 598.855 127.994 595.384 130.581 591.203C133.168 587.022 134.344 582.325 133.955 577.728C132.701 562.993 115.379 555.625 99.1547 552.177C97.827 551.891 96.6369 551.16 95.7816 550.105C94.9263 549.05 94.4572 547.735 94.4518 546.377V529.604C94.4518 528.322 94.8588 527.068 95.6169 526.015C96.3749 524.962 97.4467 524.162 98.6844 523.725L118.985 516.593C120.594 516.023 122.104 515.174 123.452 514.085C148.613 492.688 125.02 470.271 101.271 468.939C99.448 468.839 97.7329 468.043 96.4789 466.716C95.2249 465.389 94.5275 463.632 94.5302 461.806V443.701C94.5278 442.361 95.0379 441.071 95.9559 440.094C96.8739 439.118 98.1304 438.53 99.4682 438.45C114.282 437.666 136.62 424.812 133.799 406.079C133.44 403.513 132.412 401.104 130.82 399.104C121.624 387.451 111.068 382.174 99.1547 383.271C98.5668 383.326 97.974 383.257 97.4143 383.069C96.8547 382.881 96.3406 382.578 95.9051 382.179C95.4696 381.781 95.1223 381.295 94.8855 380.754C94.6487 380.214 94.5277 379.629 94.5302 379.039V359.052C94.5328 357.722 94.9473 356.424 95.7181 355.331C96.4888 354.238 97.5787 353.403 98.8411 352.939L120.082 345.65C122.035 344.981 123.765 343.818 125.098 342.279C137.744 328.015 136.255 315.579 120.631 304.971C112.688 299.642 105.582 296.951 99.3114 296.898C98.0434 296.898 96.8272 296.403 95.9306 295.521C95.034 294.639 94.5302 293.443 94.5302 292.196V271.66C94.5266 271.06 94.6509 270.465 94.8951 269.915C95.1392 269.364 95.4979 268.87 95.9481 268.465C96.3983 268.059 96.93 267.75 97.5092 267.558C98.0884 267.366 98.7022 267.295 99.3114 267.35C109.187 268.29 118.227 264.528 126.431 256.063C149.161 232.785 118.515 214.288 98.606 211.466C97.405 211.295 96.3064 210.709 95.5138 209.815C94.7212 208.922 94.2882 207.782 94.2951 206.606V188.579C94.2932 186.845 94.9602 185.176 96.1573 183.921C97.3544 182.665 98.9894 181.92 100.722 181.839C115.51 181.055 125.856 174.706 131.761 162.793C141.715 142.571 112.401 127.993 98.8411 124.623C97.626 124.309 96.5501 123.599 95.7836 122.606C95.0171 121.612 94.6036 120.391 94.6086 119.136V103.147C94.6086 101.921 95.0958 100.744 95.9631 99.8771C96.8303 99.0099 98.0066 98.5226 99.233 98.5226H168.991C170.25 98.5242 171.474 98.9194 172.488 99.6517C173.502 100.384 174.253 101.415 174.635 102.598C182.525 126.582 200.134 134.159 227.463 125.328C237.705 122.036 243.766 114.512 245.647 102.755C245.85 101.553 246.465 100.461 247.383 99.6723C248.3 98.8836 249.462 98.4487 250.663 98.4443H272.923C274.091 98.4427 275.227 98.8544 276.14 99.6106C277.054 100.367 277.689 101.422 277.94 102.598C285.072 137.085 338.998 138.574 349.266 103.696C349.722 102.157 350.662 100.808 351.948 99.8472C353.233 98.8869 354.794 98.3673 356.398 98.3659H376.699C378.148 98.3653 379.553 98.8548 380.68 99.7532C381.806 100.651 382.586 101.904 382.891 103.304C385.347 114.015 389.422 120.651 395.118 123.212C422.917 135.543 443.243 128.646 456.098 102.52C456.711 101.276 457.66 100.227 458.837 99.4935C460.014 98.7595 461.373 98.369 462.76 98.3659H478.358C479.789 98.3697 481.179 98.8291 482.323 99.6761C483.466 100.523 484.302 101.713 484.707 103.069C495.053 136.223 548.351 138.966 557.208 103.696C557.593 102.148 558.474 100.774 559.71 99.7939C560.947 98.8135 562.466 98.2832 564.027 98.2875H581.192C582.63 98.2884 584.039 98.6929 585.259 99.455C586.478 100.217 587.459 101.306 588.09 102.598C594.308 115.4 599.769 122.637 604.471 124.309C633.681 134.76 652.597 127.915 661.219 103.774C661.77 102.197 662.798 100.829 664.16 99.8604C665.521 98.8918 667.15 98.3696 668.821 98.3659H687.633C689.006 98.3692 690.341 98.8235 691.431 99.659C692.522 100.494 693.307 101.665 693.668 102.99C696.699 114.642 701.48 121.644 708.012 123.996C736.855 134.498 755.823 127.653 764.915 103.46C765.464 101.962 766.465 100.67 767.783 99.7581C769.102 98.8465 770.673 98.3604 772.283 98.3659H791.486C792.817 98.3605 794.112 98.8248 795.154 99.681C796.195 100.537 796.921 101.733 797.208 103.069C799.246 112.474 802.277 118.248 806.3 120.39C835.98 136.275 856.542 130.919 867.985 104.323C868.776 102.528 870.071 101.002 871.713 99.9308C873.355 98.8593 875.273 98.2884 877.234 98.2875H893.537C895.049 98.2823 896.525 98.7472 897.761 99.6179C898.996 100.489 899.931 101.722 900.435 103.147C904.301 114.277 908.612 120.86 913.367 122.898C943.204 135.7 963.087 128.881 973.015 102.442C973.599 100.847 974.733 99.5127 976.213 98.6793C977.693 97.846 979.421 97.5681 981.088 97.8956C986.209 98.8884 990.964 98.9145 995.353 97.974C997.126 97.5906 998.977 97.8744 1000.55 98.771C1002.13 99.6676 1003.32 101.114 1003.9 102.833C1009.96 120.913 1022.66 129.508 1041.99 128.62C1060.91 127.679 1072.37 119.241 1076.4 103.304C1076.76 101.916 1077.57 100.687 1078.71 99.8077C1079.84 98.9288 1081.23 98.4495 1082.67 98.4443H1102.81C1104.32 98.445 1105.79 98.9596 1106.96 99.9015C1108.13 100.843 1108.93 102.155 1109.24 103.617C1113.42 123.055 1127.76 130.971 1152.27 127.366C1168.26 125.015 1176.7 118.222 1177.59 106.988C1177.69 105.581 1178.32 104.264 1179.35 103.304C1180.38 102.343 1181.74 101.811 1183.15 101.815H1206.9C1208.19 101.815 1209.45 102.236 1210.48 103.014C1211.51 103.791 1212.27 104.883 1212.62 106.125C1215.76 116.419 1222.76 123.055 1233.63 126.033C1257.98 132.722 1274.91 126.086 1284.42 106.125C1285.63 103.604 1287.7 101.646 1290.22 100.639C1294.77 98.7578 1298.81 98.0001 1302.37 98.3659C1304.04 98.5225 1305.6 99.3013 1306.73 100.549C1307.87 101.796 1308.49 103.422 1308.48 105.106V140.847C1308.49 141.777 1308.29 142.698 1307.92 143.55C1307.54 144.402 1306.99 145.167 1306.29 145.794C1305.6 146.422 1304.78 146.899 1303.89 147.194C1303 147.489 1302.05 147.597 1301.11 147.509C1291.13 146.621 1281.78 150.958 1273.05 160.52C1271.46 162.26 1270.4 164.407 1270 166.712C1265.4 192.106 1277.57 205.326 1306.52 206.371C1307.01 206.392 1307.46 206.59 1307.8 206.926C1308.14 207.262 1308.32 207.709 1308.32 208.174V227.925C1308.32 228.473 1308.1 229 1307.71 229.395C1307.31 229.789 1306.78 230.021 1306.21 230.042C1278.46 231.296 1256.28 253.555 1279.25 279.498C1280.99 281.402 1283.18 282.83 1285.59 283.652L1304.56 290.001C1305.71 290.393 1306.7 291.133 1307.4 292.116C1308.1 293.1 1308.48 294.279 1308.48 295.488V308.263C1308.48 308.904 1308.35 309.539 1308.1 310.13C1307.85 310.72 1307.49 311.255 1307.03 311.701C1306.57 312.147 1306.02 312.496 1305.42 312.726C1304.82 312.957 1304.18 313.065 1303.54 313.044C1286.61 312.469 1275.61 317.93 1270.55 329.425C1264.07 344.004 1267.44 356.544 1280.66 367.047C1282.04 368.125 1283.67 368.802 1285.36 369.006L1304.95 371.044C1305.93 371.16 1306.83 371.623 1307.48 372.346C1308.13 373.069 1308.49 374 1308.48 374.963L1308.4 393.304C1308.4 393.77 1308.29 394.229 1308.1 394.65C1307.9 395.071 1307.62 395.443 1307.27 395.741C1306.92 396.04 1306.51 396.256 1306.07 396.377C1305.63 396.497 1305.17 396.518 1304.72 396.439C1285.28 393.199 1271.41 401.011 1263.1 419.874C1253.85 440.879 1284.03 455.379 1302.37 457.025Z" fill="#002B7E"/>
<path d="M1303.46 538.538C1298.97 538.12 1294.95 539.113 1291.39 541.517C1289.06 543.092 1286.27 543.837 1283.48 543.633C1280.45 543.424 1260.88 544.417 1224.77 546.611C1209.98 547.5 1190.41 546.977 1166.06 545.044C1148.77 543.737 1125.15 543.633 1095.21 544.73C1094.08 544.77 1092.95 544.51 1091.96 543.977C1090.96 543.444 1090.12 542.656 1089.52 541.693C1088.92 540.731 1088.59 539.627 1088.56 538.495C1088.52 537.363 1088.79 536.242 1089.33 535.246L1115.9 485.476C1117.68 482.182 1120.31 479.43 1123.51 477.512C1126.71 475.594 1130.37 474.582 1134.09 474.582H1191.07C1193.93 474.581 1196.77 474.924 1199.53 475.6C1215.68 479.415 1229.92 479.284 1242.25 475.209C1243.08 474.948 1243.95 474.79 1244.84 474.738L1271.64 474.111C1273.07 474.052 1274.48 474.443 1275.67 475.227C1276.86 476.012 1277.78 477.151 1278.29 478.485C1278.8 479.818 1278.88 481.278 1278.52 482.659C1278.16 484.04 1277.37 485.272 1276.27 486.182C1275.22 487.018 1271.36 491.616 1264.67 499.976C1261.58 503.895 1261.58 509.068 1264.67 515.495C1272.14 531.014 1285.12 537.519 1303.62 535.011C1303.84 534.979 1304.07 534.995 1304.29 535.058C1304.5 535.12 1304.7 535.228 1304.88 535.375C1305.06 535.521 1305.2 535.704 1305.31 535.911C1305.42 536.118 1305.48 536.345 1305.5 536.579C1305.53 536.842 1305.49 537.107 1305.4 537.355C1305.31 537.604 1305.16 537.829 1304.96 538.016C1304.77 538.203 1304.53 538.347 1304.27 538.437C1304.02 538.527 1303.74 538.562 1303.46 538.538Z" fill="#002B7E"/>
<path d="M1455.6 734.799H1406.45C1406.05 734.795 1405.65 734.702 1405.29 734.526C1404.92 734.351 1404.6 734.096 1404.35 733.781C1404.09 733.467 1403.91 733.1 1403.81 732.706C1403.72 732.313 1403.71 731.903 1403.79 731.507L1456.3 480.304C1456.43 479.688 1456.76 479.134 1457.25 478.735C1457.73 478.335 1458.34 478.115 1458.97 478.109H1508.04C1508.44 478.113 1508.84 478.206 1509.2 478.382C1509.57 478.557 1509.89 478.812 1510.14 479.126C1510.4 479.441 1510.58 479.808 1510.68 480.202C1510.77 480.595 1510.78 481.005 1510.7 481.401L1458.26 732.604C1458.14 733.22 1457.81 733.774 1457.32 734.173C1456.83 734.572 1456.23 734.793 1455.6 734.799Z" fill="#002B7E"/>
<path d="M2093.14 478.11H2139.15C2139.6 478.112 2140.05 478.215 2140.46 478.411C2140.87 478.607 2141.23 478.892 2141.51 479.245C2141.8 479.598 2142 480.009 2142.11 480.45C2142.22 480.891 2142.22 481.35 2142.13 481.794L2133.59 522.707C2133.44 523.392 2133.07 524.007 2132.53 524.449C2131.98 524.891 2131.31 525.134 2130.61 525.137H2084.52C2084.07 525.135 2083.62 525.032 2083.21 524.836C2082.8 524.64 2082.44 524.355 2082.16 524.002C2081.87 523.65 2081.67 523.238 2081.56 522.797C2081.46 522.356 2081.45 521.897 2081.54 521.453L2090.09 480.54C2090.23 479.842 2090.62 479.217 2091.17 478.773C2091.73 478.33 2092.43 478.095 2093.14 478.11Z" fill="#002B7E"/>
<path d="M1975.26 514.87L2025.18 486.105C2025.54 485.898 2025.95 485.799 2026.36 485.819C2026.77 485.839 2027.16 485.978 2027.49 486.219C2027.83 486.46 2028.08 486.792 2028.23 487.176C2028.37 487.559 2028.41 487.976 2028.32 488.378L2016.56 544.81C2016.47 545.254 2016.48 545.713 2016.58 546.154C2016.69 546.595 2016.89 547.006 2017.18 547.359C2017.46 547.712 2017.82 547.996 2018.23 548.193C2018.64 548.389 2019.09 548.492 2019.54 548.494H2040.86C2041.52 548.49 2042.17 548.635 2042.76 548.917C2043.36 549.199 2043.88 549.611 2044.3 550.123C2044.71 550.635 2045 551.233 2045.16 551.874C2045.31 552.514 2045.31 553.181 2045.17 553.824L2039.29 582.04C2038.97 583.654 2038.09 585.106 2036.8 586.149C2035.52 587.191 2033.9 587.761 2032.24 587.761H2012.25C2010.91 587.755 2009.61 588.221 2008.56 589.078C2007.52 589.936 2006.8 591.132 2006.53 592.464L1987.25 684.637C1986.99 685.824 1986.99 687.028 1987.25 688.164C1989.55 697.361 2000.23 700.443 2019.31 697.413C2019.48 697.382 2019.67 697.396 2019.84 697.454C2020.01 697.511 2020.17 697.61 2020.29 697.742C2020.42 697.874 2020.5 698.035 2020.55 698.21C2020.6 698.385 2020.6 698.569 2020.56 698.745L2013.11 734.094C2012.98 734.805 2012.63 735.457 2012.11 735.962C2011.59 736.467 2010.93 736.8 2010.21 736.915C1976.98 742.637 1926.43 740.913 1934.81 691.848C1942.7 645.448 1949.26 612.555 1954.49 593.17C1954.67 592.528 1954.7 591.853 1954.57 591.197C1954.45 590.541 1954.18 589.923 1953.78 589.392C1953.37 588.86 1952.85 588.429 1952.25 588.132C1951.66 587.836 1951 587.682 1950.33 587.683H1935.99C1935.38 587.683 1934.78 587.548 1934.23 587.29C1933.67 587.031 1933.19 586.655 1932.81 586.188C1932.42 585.722 1932.15 585.178 1932.01 584.595C1931.87 584.013 1931.86 583.408 1931.99 582.824L1938.26 553.04C1938.53 551.729 1939.24 550.552 1940.27 549.709C1941.3 548.866 1942.58 548.409 1943.9 548.415H1959.89C1960.91 548.421 1961.89 548.08 1962.68 547.451C1963.47 546.822 1964.01 545.944 1964.2 544.967L1968.52 524.197C1968.93 522.269 1969.75 520.447 1970.91 518.842C1972.07 517.237 1973.55 515.885 1975.26 514.87Z" fill="#002B7E"/>
<path d="M2192.37 515.104L2242.22 486.339C2242.58 486.132 2242.98 486.033 2243.39 486.053C2243.8 486.074 2244.2 486.213 2244.53 486.454C2244.86 486.695 2245.12 487.027 2245.27 487.41C2245.41 487.793 2245.44 488.211 2245.36 488.612L2233.68 545.044C2233.59 545.488 2233.59 545.947 2233.7 546.388C2233.81 546.829 2234.01 547.241 2234.29 547.593C2234.58 547.946 2234.94 548.231 2235.35 548.427C2235.76 548.623 2236.2 548.726 2236.66 548.728H2257.9C2258.56 548.725 2259.21 548.869 2259.8 549.151C2260.4 549.433 2260.92 549.845 2261.34 550.357C2261.75 550.869 2262.04 551.467 2262.19 552.108C2262.35 552.749 2262.35 553.415 2262.21 554.058L2256.33 582.196C2256.01 583.81 2255.13 585.262 2253.84 586.304C2252.55 587.347 2250.94 587.917 2249.28 587.917H2229.37C2228.03 587.911 2226.72 588.377 2225.68 589.234C2224.64 590.092 2223.92 591.288 2223.65 592.62L2204.37 684.793C2204.11 685.98 2204.11 687.184 2204.37 688.32C2206.66 697.464 2217.35 700.521 2236.42 697.49C2236.6 697.46 2236.79 697.474 2236.96 697.531C2237.13 697.589 2237.28 697.688 2237.41 697.82C2237.53 697.952 2237.62 698.112 2237.67 698.287C2237.72 698.462 2237.72 698.646 2237.68 698.823L2230.23 734.171C2230.1 734.882 2229.74 735.535 2229.23 736.039C2228.71 736.544 2228.05 736.877 2227.33 736.993C2194.1 742.715 2143.54 740.99 2151.93 692.004C2159.82 645.604 2166.38 612.711 2171.6 593.325C2171.78 592.684 2171.82 592.009 2171.69 591.353C2171.57 590.697 2171.29 590.079 2170.89 589.548C2170.49 589.016 2169.97 588.585 2169.37 588.288C2168.77 587.992 2168.12 587.838 2167.45 587.839H2153.11C2152.5 587.839 2151.89 587.704 2151.34 587.446C2150.79 587.187 2150.31 586.811 2149.92 586.344C2149.54 585.878 2149.27 585.334 2149.13 584.751C2148.99 584.169 2148.98 583.564 2149.11 582.98L2155.38 553.274C2155.65 551.963 2156.36 550.786 2157.39 549.943C2158.42 549.101 2159.7 548.644 2161.02 548.65H2177.01C2178.03 548.655 2179.01 548.314 2179.8 547.686C2180.58 547.057 2181.12 546.179 2181.32 545.201L2185.63 524.431C2186.05 522.504 2186.87 520.681 2188.02 519.077C2189.18 517.472 2190.66 516.12 2192.37 515.104Z" fill="#002B7E"/>
<path d="M2527.91 515.182L2577.76 486.495C2578.12 486.289 2578.52 486.189 2578.93 486.21C2579.34 486.23 2579.74 486.369 2580.07 486.61C2580.4 486.851 2580.66 487.183 2580.8 487.566C2580.95 487.949 2580.98 488.367 2580.9 488.768L2569.14 545.122C2569.06 545.561 2569.08 546.011 2569.19 546.442C2569.3 546.873 2569.51 547.274 2569.79 547.618C2570.07 547.961 2570.43 548.239 2570.83 548.43C2571.23 548.622 2571.67 548.724 2572.12 548.728H2593.36C2594.02 548.724 2594.67 548.869 2595.26 549.151C2595.86 549.433 2596.38 549.845 2596.8 550.357C2597.21 550.868 2597.5 551.467 2597.66 552.107C2597.81 552.748 2597.81 553.414 2597.67 554.057L2591.79 582.274C2591.45 583.86 2590.58 585.284 2589.31 586.31C2588.04 587.336 2586.46 587.903 2584.82 587.917H2564.83C2563.48 587.911 2562.17 588.377 2561.12 589.236C2560.08 590.095 2559.36 591.292 2559.11 592.62L2539.9 684.636C2539.65 685.822 2539.65 687.027 2539.9 688.163C2542.2 697.359 2552.86 700.442 2571.88 697.411C2572.06 697.381 2572.25 697.395 2572.42 697.452C2572.59 697.51 2572.74 697.609 2572.87 697.741C2572.99 697.873 2573.08 698.034 2573.13 698.209C2573.18 698.384 2573.18 698.568 2573.14 698.744L2565.69 734.014C2565.56 734.725 2565.21 735.377 2564.69 735.882C2564.17 736.387 2563.51 736.72 2562.79 736.836C2529.64 742.557 2479.16 740.833 2487.55 691.847C2495.44 645.551 2501.99 612.711 2507.22 593.325C2507.39 592.688 2507.41 592.022 2507.28 591.376C2507.15 590.731 2506.87 590.124 2506.47 589.602C2506.07 589.08 2505.55 588.656 2504.96 588.364C2504.37 588.072 2503.72 587.919 2503.07 587.917H2488.72C2488.11 587.917 2487.51 587.782 2486.96 587.524C2486.41 587.265 2485.92 586.889 2485.54 586.422C2485.16 585.956 2484.88 585.412 2484.74 584.829C2484.6 584.247 2484.6 583.641 2484.73 583.057L2491 553.274C2491.28 551.977 2492 550.818 2493.03 549.991C2494.05 549.163 2495.33 548.718 2496.64 548.728H2512.55C2513.57 548.733 2514.55 548.392 2515.34 547.763C2516.12 547.134 2516.66 546.257 2516.86 545.279L2521.17 524.509C2521.59 522.577 2522.4 520.752 2523.56 519.147C2524.72 517.542 2526.2 516.192 2527.91 515.182Z" fill="#002B7E"/>
<path d="M1589.86 562.679C1589.76 563.127 1589.8 563.594 1589.97 564.02C1590.14 564.445 1590.44 564.809 1590.82 565.063C1591.2 565.317 1591.65 565.45 1592.11 565.445C1592.57 565.439 1593.01 565.295 1593.39 565.031C1602.06 559.283 1607.57 555.861 1609.92 554.763C1653.58 534.542 1709.39 542.144 1701.24 602.025C1698.89 619.321 1690.13 662.429 1674.98 731.35C1674.75 732.361 1674.17 733.262 1673.34 733.904C1672.52 734.545 1671.49 734.889 1670.43 734.877H1626.23C1625.76 734.872 1625.3 734.767 1624.88 734.567C1624.46 734.367 1624.09 734.078 1623.79 733.721C1623.49 733.363 1623.28 732.944 1623.15 732.494C1623.03 732.044 1623.01 731.574 1623.09 731.115C1632.66 685.551 1640.73 646.988 1647.31 615.428C1650.37 600.771 1649.98 588.858 1634.61 583.685C1608.98 574.985 1583.9 611.431 1578.96 631.652C1570.87 664.937 1563.71 698.561 1557.49 732.525C1557.36 733.175 1557.01 733.759 1556.49 734.175C1555.97 734.59 1555.33 734.811 1554.67 734.798H1506.78C1506.52 734.803 1506.27 734.75 1506.04 734.645C1505.8 734.539 1505.6 734.383 1505.43 734.188C1505.27 733.993 1505.15 733.764 1505.08 733.517C1505.02 733.27 1505.01 733.012 1505.05 732.76L1542.67 552.333C1542.96 551.121 1543.64 550.041 1544.61 549.271C1545.58 548.502 1546.78 548.089 1548 548.101H1588.45C1588.98 548.105 1589.51 548.225 1589.99 548.453C1590.48 548.681 1590.91 549.011 1591.25 549.421C1591.59 549.832 1591.84 550.312 1591.98 550.828C1592.12 551.344 1592.15 551.885 1592.05 552.412L1589.86 562.679Z" fill="#002B7E"/>
<path d="M1901.43 595.128L1861.3 601.79C1859.9 602.023 1858.46 601.844 1857.15 601.274C1855.84 600.704 1854.72 599.768 1853.93 598.576C1842.49 581.281 1825.42 576.212 1802.75 583.371C1800.3 584.152 1798.2 585.757 1796.79 587.917C1794.75 590.948 1793.65 592.907 1793.5 593.795C1792.72 597.187 1793.34 600.761 1795.23 603.77C1797.11 606.779 1800.12 608.99 1803.61 609.941C1827.33 616.577 1847.14 623.475 1863.02 630.633C1894.84 644.976 1900.33 679.071 1882.38 706.425C1859.02 742.009 1807.14 744.125 1768.89 735.033C1741.82 728.554 1723.77 711.494 1714.73 683.852C1714.63 683.608 1714.59 683.345 1714.62 683.083C1714.64 682.82 1714.72 682.565 1714.85 682.333C1714.99 682.102 1715.17 681.901 1715.39 681.744C1715.61 681.586 1715.87 681.477 1716.14 681.422L1762.15 673.898C1762.78 673.812 1763.43 673.924 1763.99 674.22C1764.56 674.515 1765.01 674.979 1765.28 675.544C1777.82 700.834 1798.49 708.019 1827.28 697.098C1832.98 694.956 1836.45 690.985 1837.7 685.185C1838.41 682.071 1837.95 678.811 1836.42 676.032C1834.88 673.254 1832.38 671.154 1829.4 670.136C1790.05 656.812 1727.66 643.879 1744.67 589.171C1759.01 543.241 1823.6 538.147 1862.32 548.179C1882.96 553.509 1897.14 567.225 1904.88 589.328C1905.09 589.935 1905.17 590.582 1905.11 591.223C1905.04 591.864 1904.84 592.483 1904.51 593.036C1904.18 593.59 1903.73 594.064 1903.2 594.426C1902.67 594.787 1902.06 595.027 1901.43 595.128Z" fill="#002B7E"/>
<path d="M2763.77 564.594C2772.86 572.842 2780.07 583 2784.97 594.486C2789.86 605.973 2792.36 618.564 2792.32 631.54C2792.27 644.517 2789.68 657.624 2784.7 670.115C2779.72 682.605 2772.44 694.234 2763.28 704.337C2754.12 714.44 2743.25 722.82 2731.31 728.997C2719.36 735.175 2706.57 739.029 2693.66 740.341C2680.75 741.653 2667.97 740.395 2656.06 736.641C2644.15 732.887 2633.34 726.71 2624.25 718.462C2615.15 710.213 2607.95 700.056 2603.05 688.569C2598.15 677.083 2595.65 664.492 2595.7 651.515C2595.74 638.539 2598.33 625.431 2603.31 612.941C2608.29 600.45 2615.57 588.822 2624.74 578.718C2633.9 568.615 2644.76 560.236 2656.7 554.058C2668.65 547.881 2681.44 544.026 2694.35 542.714C2707.26 541.403 2720.04 542.66 2731.95 546.414C2743.86 550.168 2754.67 556.346 2763.77 564.594ZM2715.15 585.002C2704.54 581.097 2692.19 583.25 2680.82 590.987C2669.46 598.724 2660 611.41 2654.54 626.257C2649.08 641.103 2648.05 656.892 2651.7 670.15C2655.34 683.409 2663.35 693.051 2673.96 696.956C2684.57 700.861 2696.92 698.708 2708.29 690.971C2719.65 683.235 2729.11 670.548 2734.57 655.702C2740.03 640.856 2741.06 625.067 2737.41 611.808C2733.77 598.549 2725.76 588.907 2715.15 585.002Z" fill="#002B7E"/>
<path d="M2078.25 548.648H2124.73C2125.14 548.652 2125.55 548.747 2125.93 548.927C2126.3 549.107 2126.63 549.367 2126.89 549.689C2127.15 550.011 2127.34 550.386 2127.44 550.789C2127.54 551.192 2127.55 551.612 2127.47 552.019L2089.69 732.524C2089.57 733.161 2089.22 733.734 2088.72 734.148C2088.22 734.562 2087.6 734.791 2086.95 734.797H2040.55C2040.13 734.793 2039.72 734.698 2039.35 734.519C2038.98 734.339 2038.65 734.079 2038.38 733.757C2038.12 733.435 2037.93 733.059 2037.83 732.657C2037.73 732.254 2037.72 731.834 2037.8 731.427L2075.5 550.921C2075.63 550.285 2075.97 549.711 2076.47 549.297C2076.97 548.883 2077.6 548.654 2078.25 548.648Z" fill="#002B7E"/>
<path d="M2377.82 720.613C2377.92 720.165 2377.88 719.698 2377.71 719.272C2377.54 718.847 2377.24 718.483 2376.86 718.229C2376.48 717.974 2376.03 717.841 2375.57 717.847C2375.11 717.853 2374.67 717.997 2374.29 718.261C2365.62 724.009 2360.11 727.431 2357.75 728.529C2314.17 748.829 2258.29 741.461 2266.36 681.502C2268.66 664.206 2277.31 621.098 2292.31 552.177C2292.52 551.152 2293.09 550.232 2293.92 549.575C2294.75 548.918 2295.79 548.564 2296.85 548.572L2340.98 548.415C2341.45 548.418 2341.92 548.525 2342.35 548.729C2342.78 548.933 2343.15 549.229 2343.45 549.597C2343.75 549.964 2343.97 550.392 2344.08 550.852C2344.2 551.312 2344.21 551.791 2344.12 552.256C2334.71 597.82 2326.74 636.382 2320.21 667.942C2317.23 682.677 2317.62 694.591 2332.99 699.685C2358.62 708.307 2383.62 671.783 2388.48 651.561C2396.53 618.276 2403.63 584.652 2409.8 550.688C2409.91 550.024 2410.26 549.422 2410.77 548.991C2411.29 548.559 2411.95 548.327 2412.62 548.337L2460.51 548.258C2460.77 548.251 2461.04 548.305 2461.28 548.415C2461.51 548.525 2461.73 548.689 2461.89 548.893C2462.06 549.097 2462.18 549.337 2462.24 549.594C2462.3 549.851 2462.29 550.118 2462.23 550.375L2425 730.802C2424.74 732.029 2424.06 733.127 2423.09 733.912C2422.12 734.696 2420.91 735.12 2419.67 735.112L2379.23 735.191C2378.69 735.189 2378.15 735.068 2377.66 734.835C2377.17 734.603 2376.74 734.265 2376.39 733.845C2376.05 733.426 2375.8 732.936 2375.67 732.41C2375.54 731.883 2375.52 731.334 2375.62 730.802L2377.82 720.613Z" fill="#002B7E"/>
<path d="M1302.37 621.307C1302.75 621.286 1303.13 621.343 1303.49 621.475C1303.85 621.607 1304.18 621.812 1304.46 622.076C1304.74 622.34 1304.96 622.659 1305.12 623.012C1305.27 623.364 1305.34 623.745 1305.34 624.129V626.167C1305.34 626.333 1305.28 626.492 1305.16 626.61C1305.04 626.728 1304.88 626.794 1304.72 626.794H1040.81C1040.34 626.792 1039.88 626.67 1039.47 626.439C1039.06 626.208 1038.72 625.876 1038.48 625.475C1038.23 625.074 1038.1 624.617 1038.08 624.148C1038.06 623.679 1038.17 623.214 1038.38 622.796L1069.42 564.796C1070.35 563.061 1071.72 561.607 1073.41 560.587C1075.09 559.566 1077.01 559.017 1078.98 558.996L1301.11 556.41C1302.53 556.361 1303.92 556.805 1305.03 557.664L1305.81 558.291C1306.04 558.615 1306.17 558.993 1306.2 559.387C1306.23 559.781 1306.15 560.175 1305.98 560.528C1305.8 560.881 1305.53 561.18 1305.2 561.393C1304.87 561.606 1304.48 561.726 1304.09 561.74C1278.49 562.941 1264.04 570.962 1260.75 585.802C1255.65 608.767 1282.14 622.326 1302.37 621.307Z" fill="#002B7E"/>
<path d="M1306.83 708.62C1307.07 708.807 1307.25 709.065 1307.34 709.357C1307.43 709.65 1307.43 709.963 1307.33 710.255C1307.24 710.546 1307.06 710.801 1306.81 710.985C1306.57 711.17 1306.27 711.274 1305.97 711.284H993.465C992.685 711.28 991.918 711.075 991.24 710.688C990.562 710.301 989.995 709.747 989.593 709.077C989.192 708.408 988.969 707.647 988.947 706.866C988.925 706.086 989.105 705.313 989.468 704.622L1019.57 648.347C1020.44 646.737 1021.73 645.393 1023.3 644.455C1024.87 643.518 1026.67 643.021 1028.5 643.017H1278.61C1278.88 643.005 1279.15 643.071 1279.38 643.206C1279.61 643.341 1279.8 643.539 1279.93 643.778C1280.05 644.017 1280.1 644.286 1280.08 644.554C1280.05 644.822 1279.95 645.077 1279.79 645.29L1262.7 667.941C1262.03 668.814 1261.6 669.812 1261.45 670.841C1256.51 698.038 1295.23 699.606 1306.83 708.62Z" fill="#002B7E"/>
<path d="M1303.78 784.488C1304.12 784.443 1304.47 784.47 1304.81 784.568C1305.14 784.665 1305.44 784.832 1305.71 785.055C1305.97 785.278 1306.17 785.552 1306.31 785.86C1306.45 786.168 1306.52 786.502 1306.52 786.839V788.877C1306.52 789.051 1306.44 789.22 1306.31 789.35C1306.18 789.48 1306.01 789.563 1305.81 789.583C1300.17 790.21 1295.49 791.516 1291.78 793.501C1289.83 794.48 1287.68 794.99 1285.51 794.991H943.07C942.389 794.993 941.719 794.817 941.127 794.481C940.534 794.145 940.039 793.66 939.691 793.075C939.343 792.489 939.153 791.823 939.141 791.142C939.129 790.461 939.295 789.788 939.622 789.191L971.366 729.78C972.082 728.473 973.13 727.382 974.398 726.624C975.667 725.865 977.111 725.466 978.577 725.469H1272.66C1273.75 725.459 1274.82 725.777 1275.72 726.384C1276.63 726.99 1277.34 727.858 1277.75 728.875C1278.16 729.893 1278.26 731.014 1278.04 732.097C1277.82 733.179 1277.28 734.173 1276.5 734.953C1264.9 746.501 1262.26 758.466 1268.58 770.85C1269.87 773.377 1271.7 775.55 1273.91 777.199C1282.48 783.626 1292.44 786.055 1303.78 784.488Z" fill="#002B7E"/>
<path d="M584.488 759.545C583.624 750.887 576.498 744.51 568.573 745.301C560.647 746.092 554.923 753.752 555.787 762.41C556.651 771.067 563.777 777.445 571.702 776.654C579.628 775.863 585.352 768.203 584.488 759.545Z" fill="#002B7E"/>
<path d="M1279.95 807.926C1281.27 807.908 1282.56 808.302 1283.64 809.054C1284.73 809.805 1285.55 810.876 1286 812.118C1286.45 813.36 1286.5 814.71 1286.15 815.982C1285.79 817.254 1285.05 818.383 1284.02 819.212C1271.11 829.767 1269.42 842.386 1278.93 857.069C1280.06 858.761 1281.63 860.115 1283.47 860.988L1305.73 871.648C1306.81 872.144 1307.72 872.939 1308.36 873.94C1309 874.94 1309.34 876.104 1309.34 877.291V879.877C1309.33 880.794 1309.12 881.699 1308.73 882.526C1308.34 883.353 1307.77 884.082 1307.06 884.659C1306.36 885.237 1305.53 885.649 1304.65 885.865C1303.77 886.082 1302.86 886.098 1301.97 885.913C1295.7 884.711 1289.61 885.338 1283.71 887.794C1281.84 888.57 1279.82 888.97 1277.75 888.969C1213.95 889.126 1137.92 889.126 1049.66 888.969C1017.14 888.891 987.195 895.24 954.119 886.069C953.077 885.757 952.051 885.309 951.062 884.737L903.956 857.304C903.009 856.752 902.312 855.853 902.006 854.79C901.701 853.727 901.809 852.58 902.31 851.583L923.394 812.315C924.106 810.967 925.168 809.839 926.466 809.052C927.765 808.264 929.25 807.848 930.762 807.848L1279.95 807.926Z" fill="#002B7E"/>
<path d="M1464.53 905.114C1517.41 905.27 1547.85 905.296 1555.84 905.192C1605.07 904.408 1648.33 918.046 1642.14 977.849C1632.66 1070.57 1557.1 1064.54 1484.75 1063.91C1483.49 1063.91 1482.26 1064.35 1481.29 1065.13C1480.32 1065.92 1479.66 1067.01 1479.42 1068.22L1460.22 1160.08C1460.11 1160.61 1459.82 1161.08 1459.39 1161.42C1458.96 1161.77 1458.43 1161.96 1457.87 1161.96H1407.47C1407.17 1161.95 1406.88 1161.88 1406.62 1161.76C1406.35 1161.63 1406.12 1161.44 1405.94 1161.22C1405.76 1160.99 1405.63 1160.73 1405.57 1160.45C1405.51 1160.17 1405.52 1159.88 1405.59 1159.61L1457.55 910.757C1457.88 909.153 1458.76 907.713 1460.03 906.683C1461.3 905.654 1462.89 905.099 1464.53 905.114ZM1491.81 1020.96C1514.01 1021.43 1534.37 1019.96 1552.86 1016.57C1583.04 1011.08 1603.26 970.873 1572.3 950.808C1571.23 950.139 1570.01 949.761 1568.78 949.711L1507.8 947.83C1506.9 947.779 1506.02 948.061 1505.32 948.624C1504.61 949.186 1504.13 949.99 1503.96 950.887L1489.85 1018.45C1489.78 1018.75 1489.77 1019.06 1489.84 1019.35C1489.9 1019.65 1490.04 1019.93 1490.22 1020.17C1490.41 1020.41 1490.65 1020.61 1490.93 1020.75C1491.2 1020.88 1491.5 1020.95 1491.81 1020.96Z" fill="#002B7E"/>
<path d="M2428.61 905.27H2475.25C2475.64 905.273 2476.03 905.364 2476.39 905.536C2476.74 905.708 2477.05 905.957 2477.3 906.264C2477.55 906.572 2477.73 906.93 2477.82 907.314C2477.91 907.698 2477.92 908.097 2477.83 908.484L2425.4 1159.76C2425.27 1160.37 2424.93 1160.92 2424.45 1161.3C2423.96 1161.69 2423.35 1161.89 2422.73 1161.88H2376.1C2375.7 1161.88 2375.31 1161.79 2374.96 1161.62C2374.6 1161.44 2374.29 1161.19 2374.04 1160.89C2373.79 1160.58 2373.62 1160.22 2373.53 1159.84C2373.43 1159.45 2373.43 1159.05 2373.51 1158.67L2425.95 907.386C2426.07 906.778 2426.41 906.234 2426.9 905.847C2427.38 905.461 2427.99 905.257 2428.61 905.27Z" fill="#002B7E"/>
<path d="M2113.52 942.03L2163.37 913.187C2163.73 912.98 2164.13 912.881 2164.54 912.901C2164.95 912.921 2165.35 913.06 2165.68 913.301C2166.01 913.542 2166.27 913.874 2166.41 914.258C2166.56 914.641 2166.59 915.059 2166.51 915.46L2154.83 971.892C2154.74 972.336 2154.74 972.795 2154.85 973.236C2154.95 973.677 2155.16 974.088 2155.44 974.441C2155.73 974.794 2156.09 975.078 2156.5 975.275C2156.91 975.471 2157.35 975.574 2157.81 975.576H2179.13C2179.78 975.575 2180.42 975.718 2181.01 975.996C2181.59 976.273 2182.11 976.678 2182.53 977.18C2182.94 977.683 2183.23 978.27 2183.39 978.901C2183.55 979.532 2183.56 980.19 2183.44 980.827L2177.56 1009.04C2177.23 1010.66 2176.35 1012.11 2175.07 1013.15C2173.78 1014.19 2172.17 1014.76 2170.5 1014.77L2150.52 1014.84C2149.18 1014.84 2147.87 1015.3 2146.83 1016.16C2145.79 1017.02 2145.07 1018.21 2144.8 1019.55L2125.67 1111.64C2125.41 1112.83 2125.41 1114.03 2125.67 1115.17C2127.97 1124.36 2138.66 1127.45 2157.73 1124.42C2157.91 1124.39 2158.09 1124.4 2158.26 1124.46C2158.43 1124.51 2158.59 1124.61 2158.71 1124.75C2158.84 1124.88 2158.93 1125.04 2158.97 1125.21C2159.02 1125.39 2159.02 1125.57 2158.98 1125.75L2151.54 1161.1C2151.4 1161.81 2151.05 1162.46 2150.53 1162.97C2150.01 1163.47 2149.35 1163.8 2148.64 1163.92C2115.4 1169.64 2064.93 1167.99 2073.23 1118.93C2081.07 1072.53 2087.6 1039.64 2092.83 1020.25C2093.01 1019.61 2093.04 1018.93 2092.92 1018.28C2092.8 1017.62 2092.52 1017.01 2092.12 1016.47C2091.72 1015.94 2091.2 1015.51 2090.6 1015.21C2090 1014.92 2089.34 1014.76 2088.68 1014.77L2074.33 1014.84C2073.72 1014.84 2073.12 1014.71 2072.57 1014.45C2072.02 1014.19 2071.53 1013.82 2071.15 1013.35C2070.77 1012.88 2070.49 1012.34 2070.35 1011.76C2070.21 1011.17 2070.21 1010.57 2070.33 1009.98L2076.53 980.2C2076.8 978.889 2077.51 977.712 2078.54 976.869C2079.56 976.027 2080.85 975.57 2082.17 975.576H2098.16C2099.17 975.581 2100.16 975.24 2100.95 974.612C2101.73 973.983 2102.27 973.105 2102.47 972.127L2106.78 951.357C2107.2 949.43 2108.01 947.607 2109.17 946.003C2110.33 944.398 2111.81 943.046 2113.52 942.03Z" fill="#002B7E"/>
<path d="M601.236 928.785C609.458 934.228 616.334 941.53 621.47 950.277C626.605 959.023 629.901 969.041 631.168 979.76C632.435 990.479 631.648 1001.69 628.854 1012.75C626.059 1023.81 621.31 1034.5 614.879 1044.21C601.891 1063.84 582.838 1078.29 561.912 1084.39C540.986 1090.49 519.9 1087.75 503.293 1076.76C495.071 1071.31 488.195 1064.01 483.059 1055.27C477.923 1046.52 474.628 1036.5 473.361 1025.78C472.094 1015.06 472.88 1003.86 475.675 992.796C478.47 981.737 483.219 971.044 489.65 961.328C502.638 941.706 521.691 927.254 542.617 921.151C563.543 915.048 584.629 917.794 601.236 928.785ZM574.31 950.719C569.34 948.599 563.844 947.846 558.136 948.503C552.428 949.16 546.62 951.215 541.043 954.549C535.467 957.883 530.231 962.432 525.635 967.936C521.039 973.44 517.173 979.791 514.257 986.627C511.341 993.463 509.433 1000.65 508.642 1007.78C507.85 1014.9 508.191 1021.83 509.644 1028.16C511.097 1034.49 513.634 1040.11 517.11 1044.68C520.587 1049.26 524.934 1052.7 529.905 1054.82C534.876 1056.94 540.372 1057.7 546.08 1057.04C551.788 1056.38 557.596 1054.33 563.172 1050.99C568.749 1047.66 573.984 1043.11 578.58 1037.61C583.176 1032.1 587.043 1025.75 589.958 1018.92C592.874 1012.08 594.782 1004.89 595.574 997.767C596.365 990.641 596.025 983.713 594.572 977.381C593.119 971.048 590.582 965.434 587.105 960.86C583.629 956.285 579.281 952.839 574.31 950.719Z" fill="#B01B24"/>
<path d="M641.62 1034.05C641.599 1033.38 641.715 1032.71 641.961 1032.08C642.208 1031.45 642.58 1030.88 643.055 1030.4C643.53 1029.92 644.099 1029.53 644.728 1029.27C645.356 1029.01 646.032 1028.87 646.714 1028.87H671.091C672.317 1028.87 673.493 1029.36 674.36 1030.23C675.228 1031.1 675.715 1032.27 675.715 1033.5C675.637 1063.91 726.976 1062.97 732.932 1042.67C733.937 1039.29 733.692 1035.66 732.243 1032.41C730.793 1029.17 728.233 1026.53 725.016 1024.95C699.83 1012.73 687.002 1006.48 686.531 1006.22C665.29 994.23 655.728 972.52 663.88 950.025C674.696 920.084 712.318 914.912 740.3 921.652C763.605 927.243 776.93 941.926 780.274 965.701C780.353 966.249 780.313 966.808 780.156 967.339C779.998 967.871 779.728 968.362 779.363 968.779C778.998 969.196 778.548 969.529 778.042 969.755C777.536 969.981 776.987 970.096 776.433 970.09H749.392C748.324 970.093 747.284 969.761 746.424 969.141C745.564 968.52 744.929 967.645 744.611 966.641C739.281 949.45 726.531 943.781 706.362 949.633C699.36 951.671 696.042 956.191 696.407 963.193C696.825 971.187 701.554 977.013 710.594 980.671C739.83 992.506 780.274 1007.87 768.439 1046.2C756.76 1084.37 719.138 1090.56 683.866 1083.97C656.538 1078.85 642.456 1062.21 641.62 1034.05Z" fill="#B01B24"/>
<path d="M1084.67 929.174C1092.87 934.665 1099.72 942.006 1104.82 950.778C1109.92 959.549 1113.18 969.58 1114.41 980.297C1115.63 991.014 1114.8 1002.21 1111.96 1013.24C1109.12 1024.27 1104.33 1034.92 1097.86 1044.59C1084.79 1064.11 1065.68 1078.42 1044.73 1084.38C1023.77 1090.34 1002.69 1087.46 986.129 1076.37C977.926 1070.88 971.078 1063.54 965.976 1054.77C960.874 1045.99 957.617 1035.96 956.392 1025.25C955.168 1014.53 955.998 1003.34 958.837 992.305C961.676 981.275 966.467 970.623 972.937 960.958C986.005 941.439 1005.12 927.124 1026.07 921.163C1047.03 915.203 1068.1 918.084 1084.67 929.174ZM1057.63 950.903C1052.66 948.774 1047.17 948.007 1041.46 948.647C1035.76 949.287 1029.95 951.321 1024.38 954.632C1018.8 957.943 1013.56 962.467 1008.96 967.946C1004.37 973.424 1000.5 979.75 997.577 986.562C994.658 993.373 992.745 1000.54 991.948 1007.64C991.152 1014.75 991.487 1021.66 992.935 1027.99C994.382 1034.31 996.914 1039.92 1000.39 1044.49C1003.86 1049.06 1008.2 1052.51 1013.17 1054.64C1018.13 1056.77 1023.63 1057.54 1029.33 1056.9C1035.04 1056.26 1040.85 1054.22 1046.42 1050.91C1052 1047.6 1057.24 1043.08 1061.84 1037.6C1066.43 1032.12 1070.3 1025.79 1073.22 1018.98C1076.14 1012.17 1078.05 1005.01 1078.85 997.899C1079.65 990.791 1079.31 983.879 1077.86 977.557C1076.42 971.235 1073.88 965.628 1070.41 961.054C1066.94 956.481 1062.6 953.031 1057.63 950.903Z" fill="#002B7E"/>
<path d="M125.098 922.906H155.588C155.934 922.911 156.275 922.992 156.586 923.143C156.897 923.295 157.171 923.513 157.389 923.782C157.606 924.052 157.761 924.366 157.842 924.702C157.924 925.039 157.93 925.389 157.861 925.728L125.333 1081.7C125.226 1082.23 124.942 1082.7 124.529 1083.04C124.115 1083.38 123.597 1083.57 123.06 1083.58H92.5706C92.2245 1083.58 91.8837 1083.5 91.5725 1083.35C91.2613 1083.19 90.9874 1082.98 90.7702 1082.71C90.5531 1082.44 90.3982 1082.12 90.3165 1081.79C90.2348 1081.45 90.2283 1081.1 90.2975 1080.76L122.825 924.787C122.933 924.261 123.217 923.788 123.63 923.446C124.044 923.104 124.562 922.913 125.098 922.906Z" fill="#B01B24"/>
<path d="M250.742 997.363C253.616 1004.31 256.829 1010.98 260.382 1017.35C260.571 1017.74 260.878 1018.06 261.259 1018.26C261.64 1018.46 262.076 1018.54 262.503 1018.47C262.93 1018.41 263.326 1018.22 263.635 1017.92C263.944 1017.62 264.15 1017.23 264.223 1016.8L283.426 924.628C283.533 924.141 283.809 923.705 284.208 923.392C284.606 923.078 285.105 922.906 285.621 922.904H315.013C315.21 922.898 315.406 922.939 315.585 923.023C315.764 923.107 315.923 923.232 316.051 923.39C316.178 923.547 316.271 923.733 316.322 923.933C316.373 924.134 316.381 924.344 316.346 924.55L284.053 1079.03C283.783 1080.32 283.081 1081.48 282.067 1082.31C281.053 1083.14 279.789 1083.59 278.488 1083.58H255.836C254.283 1083.58 252.759 1083.12 251.451 1082.26C250.143 1081.4 249.106 1080.17 248.469 1078.72C247.371 1076.21 237.835 1052.91 219.86 1008.81C217.038 1001.86 213.825 995.195 210.219 988.82C210.03 988.432 209.723 988.115 209.342 987.912C208.961 987.71 208.526 987.634 208.099 987.695C207.672 987.756 207.275 987.951 206.966 988.252C206.657 988.553 206.451 988.944 206.379 989.369L187.175 1081.54C187.069 1082.03 186.793 1082.46 186.394 1082.78C185.995 1083.09 185.497 1083.26 184.981 1083.27H155.588C155.391 1083.27 155.196 1083.23 155.017 1083.15C154.837 1083.06 154.678 1082.94 154.551 1082.78C154.423 1082.62 154.331 1082.44 154.28 1082.24C154.229 1082.04 154.221 1081.83 154.256 1081.62L186.548 927.136C186.819 925.846 187.521 924.689 188.535 923.861C189.549 923.032 190.813 922.584 192.113 922.59H214.765C216.332 922.573 217.872 923.024 219.196 923.888C220.52 924.752 221.568 925.99 222.211 927.45C223.256 929.958 232.767 953.262 250.742 997.363Z" fill="#B01B24"/>
<path d="M314.776 1079.98L346.52 927.688C346.807 926.318 347.555 925.089 348.639 924.204C349.723 923.32 351.078 922.834 352.477 922.828H431.797C434.01 922.828 436.188 923.366 438.146 924.396C463.306 937.798 470.125 959.352 460.171 984.512C442.3 1029.66 406.951 1020.1 366.115 1022.76C364.92 1022.82 363.779 1023.28 362.871 1024.06C361.963 1024.84 361.34 1025.9 361.099 1027.07L350.047 1079.98C349.83 1081.02 349.259 1081.96 348.431 1082.63C347.602 1083.3 346.567 1083.66 345.501 1083.66H317.754C317.301 1083.66 316.854 1083.56 316.445 1083.36C316.036 1083.16 315.676 1082.88 315.391 1082.53C315.106 1082.17 314.902 1081.76 314.796 1081.32C314.69 1080.88 314.683 1080.42 314.776 1079.98ZM370.426 994.074L403.424 992.977C404.765 992.977 406.077 992.682 407.264 992.115C419.91 986.367 426.886 977.928 428.192 966.798C428.423 964.921 428.234 963.014 427.637 961.188C427.04 959.363 426.046 957.657 424.716 956.173C423.385 954.689 421.744 953.456 419.891 952.548C418.037 951.64 416.009 951.075 413.927 950.888C405.566 950.156 393.888 949.999 378.891 950.417C378.378 950.442 377.89 950.633 377.505 950.961C377.121 951.288 376.864 951.732 376.775 952.22L368.466 991.801C368.407 992.078 368.413 992.364 368.485 992.638C368.556 992.913 368.691 993.169 368.88 993.387C369.068 993.605 369.305 993.781 369.572 993.9C369.84 994.018 370.132 994.078 370.426 994.074Z" fill="#B01B24"/>
<path d="M786.78 1078.02L818.132 927.845C818.416 926.488 819.153 925.269 820.221 924.386C821.289 923.503 822.625 923.009 824.011 922.985C863.122 922.28 899.569 916.637 921.751 938.818C947.538 964.682 943.619 1011.24 926.61 1042.2C912.188 1068.53 889.354 1082.2 858.106 1083.19C834.017 1083.97 811.627 1084.03 790.934 1083.35C790.286 1083.31 789.653 1083.14 789.078 1082.85C788.503 1082.55 788.001 1082.13 787.605 1081.62C787.21 1081.12 786.931 1080.53 786.789 1079.91C786.646 1079.29 786.643 1078.64 786.78 1078.02ZM832.006 1055.99C868.217 1060.07 891.156 1046.14 900.823 1014.22C912.815 974.558 899.883 942.345 852.541 951.201C851.287 951.438 850.127 952.047 849.208 952.953C848.288 953.859 847.648 955.022 847.368 956.296L827.773 1050.11C827.637 1050.79 827.641 1051.48 827.784 1052.15C827.928 1052.82 828.207 1053.46 828.606 1054.01C829.004 1054.56 829.512 1055.03 830.098 1055.37C830.683 1055.71 831.333 1055.92 832.006 1055.99Z" fill="#002B7E"/>
<path d="M1267.88 969.855L1215.99 1079.19C1215.33 1080.53 1214.31 1081.66 1213.05 1082.45C1211.79 1083.24 1210.34 1083.66 1208.85 1083.66H1185.11C1183.61 1083.66 1182.17 1083.07 1181.12 1082.01C1180.06 1080.95 1179.46 1079.51 1179.46 1078.02C1179.62 1038.2 1177.84 1002.59 1174.13 971.188C1174.11 971.139 1174.07 971.098 1174.02 971.069C1173.97 971.041 1173.91 971.026 1173.86 971.026C1173.8 971.026 1173.75 971.041 1173.7 971.069C1173.65 971.098 1173.61 971.139 1173.58 971.188L1150.78 1080.6C1150.6 1081.47 1150.12 1082.24 1149.44 1082.8C1148.75 1083.36 1147.9 1083.66 1147.01 1083.66H1123.73C1123.21 1083.66 1122.7 1083.54 1122.23 1083.32C1121.76 1083.1 1121.35 1082.78 1121.02 1082.38C1120.7 1081.98 1120.47 1081.51 1120.36 1081.01C1120.24 1080.52 1120.25 1080 1120.36 1079.51L1152.11 927.217C1152.38 925.998 1153.06 924.906 1154.04 924.122C1155.02 923.338 1156.25 922.91 1157.52 922.907H1197.96C1199.64 922.907 1201.26 923.575 1202.45 924.766C1203.64 925.957 1204.31 927.571 1204.31 929.255V1019.23C1204.32 1020.14 1204.64 1021.01 1205.21 1021.72C1205.78 1022.42 1206.57 1022.91 1207.44 1023.11C1208.32 1023.31 1209.23 1023.21 1210.03 1022.82C1210.82 1022.43 1211.46 1021.77 1211.83 1020.96L1256.35 927.217C1256.97 925.905 1257.94 924.794 1259.16 924.017C1260.38 923.239 1261.8 922.827 1263.25 922.828H1304.79C1305.29 922.829 1305.79 922.941 1306.24 923.158C1306.7 923.375 1307.09 923.69 1307.41 924.081C1307.73 924.471 1307.95 924.928 1308.07 925.416C1308.18 925.904 1308.19 926.413 1308.08 926.904L1275.95 1080.92C1275.79 1081.65 1275.38 1082.31 1274.8 1082.78C1274.21 1083.25 1273.48 1083.5 1272.73 1083.5H1246.71C1246.48 1083.51 1246.24 1083.46 1246.03 1083.36C1245.82 1083.26 1245.63 1083.11 1245.48 1082.92C1245.33 1082.74 1245.22 1082.51 1245.16 1082.28C1245.1 1082.04 1245.1 1081.79 1245.14 1081.54L1268.42 970.012C1268.41 969.952 1268.39 969.897 1268.35 969.852C1268.31 969.806 1268.26 969.774 1268.2 969.757C1268.14 969.741 1268.08 969.741 1268.02 969.758C1267.97 969.776 1267.91 969.809 1267.88 969.855Z" fill="#002B7E"/>
<path d="M2040 1022.05L1999.87 1028.56C1998.47 1028.79 1997.03 1028.61 1995.72 1028.04C1994.41 1027.47 1993.3 1026.54 1992.5 1025.35C1981.11 1008.05 1964.07 1002.96 1941.4 1010.06C1938.96 1010.82 1936.86 1012.4 1935.44 1014.53C1933.4 1017.56 1932.3 1019.52 1932.15 1020.41C1931.37 1023.79 1931.98 1027.35 1933.85 1030.36C1935.72 1033.37 1938.7 1035.59 1942.18 1036.55C1965.9 1043.24 1985.68 1050.19 2001.51 1057.4C2033.26 1071.82 2038.67 1105.92 2020.64 1133.2C1997.2 1168.7 1945.39 1170.66 1907.22 1161.49C1880.16 1154.96 1862.15 1137.85 1853.22 1110.15C1853.14 1109.9 1853.11 1109.64 1853.14 1109.38C1853.16 1109.12 1853.25 1108.87 1853.38 1108.65C1853.52 1108.43 1853.7 1108.24 1853.91 1108.09C1854.13 1107.94 1854.37 1107.84 1854.63 1107.8L1900.64 1100.35C1901.28 1100.27 1901.92 1100.38 1902.49 1100.68C1903.05 1100.97 1903.5 1101.44 1903.77 1102C1916.21 1127.34 1936.82 1134.58 1965.62 1123.71C1971.31 1121.57 1974.81 1117.62 1976.12 1111.88C1976.82 1108.76 1976.36 1105.5 1974.83 1102.72C1973.3 1099.95 1970.8 1097.85 1967.81 1096.83C1928.54 1083.35 1866.23 1070.26 1883.39 1015.71C1897.82 969.776 1962.4 964.917 2001.04 975.028C2021.63 980.41 2035.77 994.152 2043.45 1016.25C2043.66 1016.86 2043.74 1017.51 2043.68 1018.15C2043.61 1018.79 2043.41 1019.41 2043.08 1019.96C2042.75 1020.52 2042.31 1020.99 2041.77 1021.35C2041.24 1021.71 2040.63 1021.95 2040 1022.05Z" fill="#002B7E"/>
<path d="M1817.21 992.549C1826.18 1000.97 1833.22 1011.26 1837.94 1022.84C1842.66 1034.42 1844.95 1047.05 1844.7 1060.03C1844.45 1073 1841.65 1086.05 1836.47 1098.45C1831.29 1110.84 1823.83 1122.33 1814.51 1132.26C1805.18 1142.18 1794.19 1150.35 1782.14 1156.3C1770.1 1162.25 1757.25 1165.86 1744.31 1166.93C1731.38 1167.99 1718.63 1166.49 1706.77 1162.51C1694.92 1158.53 1684.21 1152.15 1675.24 1143.73C1666.28 1135.31 1659.23 1125.02 1654.52 1113.44C1649.8 1101.86 1647.5 1089.23 1647.75 1076.25C1648 1063.28 1650.8 1050.22 1655.98 1037.83C1661.16 1025.44 1668.63 1013.95 1677.95 1004.02C1687.27 994.097 1698.27 985.926 1710.31 979.977C1722.36 974.028 1735.21 970.418 1748.14 969.352C1761.07 968.287 1773.83 969.787 1785.68 973.767C1797.53 977.747 1808.25 984.129 1817.21 992.549ZM1767.08 1011.43C1761.83 1009.53 1756.11 1009.1 1750.25 1010.16C1744.38 1011.23 1738.48 1013.76 1732.89 1017.63C1727.29 1021.5 1722.11 1026.61 1717.64 1032.69C1713.17 1038.77 1709.5 1045.69 1706.83 1053.05C1704.16 1060.42 1702.56 1068.08 1702.1 1075.62C1701.65 1083.15 1702.35 1090.4 1704.17 1096.95C1706 1103.5 1708.91 1109.22 1712.73 1113.79C1716.56 1118.37 1721.23 1121.7 1726.47 1123.6C1731.72 1125.5 1737.44 1125.93 1743.31 1124.86C1749.17 1123.8 1755.07 1121.26 1760.67 1117.4C1766.26 1113.53 1771.44 1108.41 1775.91 1102.33C1780.38 1096.26 1784.06 1089.34 1786.72 1081.97C1789.39 1074.61 1791 1066.94 1791.45 1059.41C1791.91 1051.88 1791.2 1044.63 1789.38 1038.08C1787.55 1031.53 1784.65 1025.8 1780.82 1021.23C1776.99 1016.66 1772.32 1013.33 1767.08 1011.43Z" fill="#002B7E"/>
<path d="M2286.35 1149.89C2286.34 1149.18 2286.14 1148.49 2285.77 1147.89C2285.39 1147.29 2284.86 1146.81 2284.23 1146.49C2283.59 1146.18 2282.89 1146.04 2282.18 1146.1C2281.48 1146.16 2280.81 1146.41 2280.24 1146.83C2259.6 1162.04 2240.86 1168.33 2224.04 1165.72C2186.81 1159.92 2170.82 1128.18 2179.75 1092.67C2185.34 1070.67 2201.75 1057.3 2228.97 1052.54C2249.35 1048.94 2269.81 1046.4 2290.35 1044.94C2293.47 1044.71 2296.4 1043.37 2298.62 1041.17C2300.83 1038.97 2302.18 1036.05 2302.42 1032.95C2304.3 1008.02 2282.82 1006.3 2264.4 1011C2257.27 1012.73 2255 1020.49 2250.69 1025.82C2250.24 1026.36 2249.68 1026.79 2249.05 1027.09C2248.41 1027.39 2247.71 1027.54 2247 1027.54L2202.17 1027.38C2201.46 1027.39 2200.76 1027.23 2200.14 1026.91C2199.51 1026.58 2198.97 1026.11 2198.57 1025.53C2198.16 1024.95 2197.91 1024.28 2197.83 1023.58C2197.74 1022.87 2197.84 1022.16 2198.09 1021.5C2214.63 978.397 2253.98 968.051 2296.54 971.735C2342.99 975.758 2360.76 1001.49 2349.84 1048.94C2341.69 1084.44 2328.75 1125.98 2337.37 1157.1C2337.54 1157.72 2337.57 1158.36 2337.45 1158.99C2337.32 1159.61 2337.06 1160.2 2336.67 1160.71C2336.29 1161.22 2335.79 1161.63 2335.22 1161.92C2334.65 1162.2 2334.02 1162.35 2333.38 1162.35L2291.13 1162.19C2289.84 1162.19 2288.61 1161.68 2287.69 1160.77C2286.78 1159.86 2286.27 1158.62 2286.27 1157.33L2286.35 1149.89ZM2287.13 1077.23C2270.36 1079.19 2240.81 1081.7 2231.64 1097.22C2210.71 1132.33 2285.49 1139.78 2291.52 1081.54C2291.59 1080.95 2291.52 1080.36 2291.32 1079.8C2291.12 1079.24 2290.79 1078.74 2290.37 1078.32C2289.95 1077.91 2289.44 1077.6 2288.88 1077.41C2288.32 1077.22 2287.72 1077.16 2287.13 1077.23Z" fill="#002B7E"/>
<path d="M1280.65 1489.89C1281.34 1489.91 1282.01 1490.14 1282.56 1490.54C1283.12 1490.94 1283.55 1491.5 1283.78 1492.14C1284.01 1492.78 1284.03 1493.48 1283.85 1494.12C1283.67 1494.77 1283.3 1495.35 1282.77 1495.77C1255.96 1517.8 1275.72 1545.54 1304.79 1546.87C1305.79 1546.92 1306.72 1547.34 1307.41 1548.05C1308.1 1548.77 1308.48 1549.72 1308.48 1550.72V1571.33C1308.47 1572.28 1308.14 1573.19 1307.54 1573.91C1306.94 1574.62 1306.1 1575.1 1305.19 1575.25C1278.22 1579.48 1253.22 1605.03 1282.3 1628.39C1283.33 1629.22 1284.53 1629.85 1285.83 1630.27L1305.81 1636.46C1306.61 1636.71 1307.31 1637.21 1307.8 1637.89C1308.3 1638.57 1308.56 1639.39 1308.56 1640.22V1657.55C1308.56 1658.6 1308.24 1659.64 1307.63 1660.5C1307.03 1661.37 1306.18 1662.04 1305.19 1662.4L1286.53 1669.22C1285.08 1669.74 1283.68 1670.51 1282.38 1671.5C1266.07 1683.93 1265.16 1698.09 1279.63 1713.98C1280.77 1715.21 1282.14 1716.15 1283.63 1716.72L1305.97 1725.42C1306.71 1725.72 1307.35 1726.24 1307.79 1726.91C1308.24 1727.58 1308.48 1728.37 1308.48 1729.18V1746.19C1308.48 1747.53 1307.97 1748.82 1307.05 1749.8C1306.13 1750.77 1304.88 1751.36 1303.54 1751.44C1291.63 1752.12 1282.69 1756.9 1276.73 1765.79C1275.09 1768.21 1274.04 1771 1273.68 1773.94C1270.7 1797.03 1280.6 1809.55 1303.38 1811.48C1304.78 1811.62 1306.08 1812.26 1307.02 1813.29C1307.96 1814.32 1308.48 1815.66 1308.48 1817.05V1834.13C1308.48 1835.37 1308.03 1836.57 1307.23 1837.52C1306.43 1838.47 1305.31 1839.1 1304.09 1839.3L1291.31 1841.42C1288.82 1841.78 1286.53 1842.94 1284.81 1844.71C1268.45 1861.02 1268.58 1877.95 1285.2 1895.5C1285.89 1896.25 1286.73 1896.84 1287.66 1897.24C1288.59 1897.65 1289.59 1897.85 1290.61 1897.85H1301.74C1303.5 1897.85 1305.2 1898.56 1306.45 1899.8C1307.7 1901.05 1308.4 1902.75 1308.4 1904.52V1922.15C1308.4 1923.58 1307.83 1924.96 1306.82 1925.97C1305.8 1926.99 1304.43 1927.56 1302.99 1927.56H1236.53C1235.18 1927.56 1233.87 1927.16 1232.75 1926.42C1231.63 1925.68 1230.77 1924.63 1230.25 1923.4C1221.42 1901.77 1206.04 1892.81 1184.09 1896.52C1169.14 1899.08 1160.6 1908.25 1158.46 1924.03C1158.33 1925.02 1157.83 1925.94 1157.07 1926.6C1156.31 1927.26 1155.32 1927.63 1154.3 1927.64H1128.83C1127.7 1927.64 1126.61 1927.24 1125.74 1926.51C1124.86 1925.78 1124.27 1924.76 1124.05 1923.64C1120.55 1905.93 1109.6 1896.7 1091.21 1895.97C1071.4 1895.19 1059.39 1904.25 1055.15 1923.17C1054.87 1924.44 1054.15 1925.57 1053.13 1926.38C1052.1 1927.19 1050.83 1927.64 1049.51 1927.64H1026.62C1025.37 1927.64 1024.15 1927.22 1023.17 1926.45C1022.19 1925.68 1021.5 1924.61 1021.22 1923.4C1012.75 1886.8 961.098 1885.7 950.908 1923.09C950.548 1924.38 949.771 1925.51 948.695 1926.32C947.619 1927.13 946.304 1927.56 944.951 1927.56H923.24C922.133 1927.56 921.058 1927.18 920.201 1926.48C919.343 1925.78 918.755 1924.8 918.537 1923.72C916.029 1911.44 909.445 1903.39 898.785 1899.58C873.338 1890.54 855.284 1898.61 844.625 1923.8C844.132 1924.96 843.305 1925.95 842.246 1926.64C841.187 1927.34 839.943 1927.71 838.668 1927.72H819.386C817.952 1927.71 816.559 1927.25 815.425 1926.38C814.291 1925.52 813.479 1924.3 813.116 1922.93C806.323 1897.54 788.661 1889.94 760.131 1900.13C752.293 1902.9 746.78 1910.42 743.593 1922.7C743.228 1924.11 742.399 1925.36 741.235 1926.26C740.072 1927.15 738.641 1927.64 737.165 1927.64H715.533C713.997 1927.64 712.506 1927.11 711.318 1926.12C710.13 1925.13 709.319 1923.76 709.027 1922.23C706.467 1908.59 699.491 1900.41 688.1 1897.7C662.339 1891.58 646.297 1900.07 639.974 1923.17C639.645 1924.44 638.897 1925.57 637.848 1926.38C636.799 1927.19 635.507 1927.63 634.174 1927.64H610.738C609.556 1927.64 608.416 1927.2 607.544 1926.4C606.673 1925.6 606.134 1924.5 606.036 1923.33C602.744 1888.68 546.545 1885.7 537.374 1918.86C534.71 1928.42 525.199 1931.03 508.844 1926.7C507.748 1926.38 506.738 1925.81 505.895 1925.04C505.052 1924.26 504.398 1923.3 503.985 1922.23C491.522 1888.53 441.672 1883.75 434.305 1923.33C434.068 1924.54 433.422 1925.64 432.478 1926.42C431.535 1927.21 430.351 1927.64 429.132 1927.64H406.166C404.776 1927.63 403.424 1927.19 402.31 1926.37C401.195 1925.56 400.377 1924.41 399.974 1923.09C388.374 1884.53 339.386 1887.04 327.943 1923.4C327.557 1924.66 326.785 1925.75 325.741 1926.53C324.697 1927.3 323.436 1927.72 322.143 1927.72H300.667C299.387 1927.72 298.142 1927.28 297.143 1926.47C296.143 1925.65 295.45 1924.52 295.18 1923.25C290.582 1901.41 275.846 1892.71 250.974 1897.15C237.44 1899.6 229.079 1908.36 225.892 1923.4C225.625 1924.6 224.961 1925.67 224.007 1926.44C223.053 1927.21 221.866 1927.63 220.64 1927.64H198.459C197.01 1927.64 195.602 1927.14 194.464 1926.23C193.326 1925.32 192.524 1924.05 192.188 1922.62C187.851 1903.24 174.684 1894.48 152.685 1896.36C134.919 1897.88 124.912 1906.97 122.665 1923.64C122.513 1924.73 121.976 1925.73 121.154 1926.45C120.332 1927.17 119.281 1927.57 118.198 1927.56H102.678C101.577 1927.56 100.52 1927.13 99.7409 1926.36C98.9618 1925.6 98.5241 1924.56 98.5241 1923.48V1883.12C98.5285 1881.9 98.934 1880.7 99.6815 1879.72C100.429 1878.73 101.479 1878 102.678 1877.63C110.281 1875.44 117.571 1874.89 124.311 1870.42C152.763 1851.3 132.463 1818.3 102.992 1817.83C101.82 1817.81 100.704 1817.32 99.8828 1816.47C99.0618 1815.62 98.602 1814.48 98.6025 1813.28V1795.96C98.5945 1794.82 99.0057 1793.72 99.7575 1792.87C100.509 1792.02 101.549 1791.47 102.678 1791.34C127.864 1788.15 137.975 1775.06 133.011 1752.07C132.497 1749.8 131.448 1747.71 129.955 1745.96C121.071 1735.82 112.136 1731.09 103.149 1731.77C101.998 1731.86 100.845 1731.64 99.8059 1731.14C98.7665 1730.64 97.8769 1729.87 97.2261 1728.91C96.5753 1727.95 96.1861 1726.83 96.0976 1725.67C96.009 1724.51 96.2241 1723.34 96.7214 1722.29L104.403 1705.98C104.99 1704.73 105.968 1703.69 107.195 1703.03C108.421 1702.37 109.832 1702.11 111.222 1702.3C123.501 1703.76 133.299 1696.81 140.614 1681.45C141.309 1679.96 141.694 1678.35 141.748 1676.71C141.802 1675.06 141.523 1673.43 140.928 1671.89C134.605 1655.53 121.829 1646.78 102.6 1645.63C101.449 1645.55 100.372 1645.04 99.5862 1644.19C98.8003 1643.35 98.3646 1642.24 98.3674 1641.09V1623.69C98.3641 1623.03 98.4987 1622.39 98.7626 1621.79C99.0266 1621.19 99.4141 1620.66 99.9005 1620.21C100.387 1619.77 100.962 1619.43 101.588 1619.22C102.215 1619.01 102.88 1618.93 103.54 1618.98C156.134 1624.23 153.469 1556.28 103.07 1559.73C102.479 1559.77 101.885 1559.69 101.325 1559.49C100.766 1559.29 100.253 1558.97 99.8191 1558.56C99.3851 1558.15 99.0391 1557.65 98.8028 1557.1C98.5665 1556.54 98.4449 1555.94 98.4458 1555.34V1537.47C98.4449 1536.85 98.5698 1536.24 98.8129 1535.67C99.0559 1535.11 99.4119 1534.59 99.8593 1534.17C100.307 1533.74 100.836 1533.41 101.415 1533.2C101.994 1532.99 102.61 1532.89 103.227 1532.92C122.587 1533.71 146.806 1520.93 141.085 1498.83C136.617 1481.59 115.219 1474.85 102.286 1472.73C101.08 1472.54 99.9848 1471.91 99.2056 1470.96C98.4264 1470 98.0169 1468.8 98.0539 1467.56L98.8377 1450.7C98.8806 1449.98 99.0925 1449.27 99.4565 1448.64C99.8205 1448 100.327 1447.46 100.935 1447.06C101.543 1446.66 102.237 1446.4 102.961 1446.31C103.686 1446.22 104.421 1446.31 105.108 1446.55C105.892 1446.81 107.329 1447.67 109.419 1449.14C111.091 1450.34 112.711 1450.65 114.279 1450.08C126.088 1446.11 134.501 1440.91 139.517 1434.48C141.366 1432.07 142.555 1429.2 142.966 1426.17C145.474 1406.37 136.277 1393.57 115.376 1387.77C112.188 1386.88 109.654 1387.11 107.773 1388.47C106.31 1389.52 104.742 1390.09 103.07 1390.2C102.464 1390.23 101.858 1390.13 101.289 1389.92C100.72 1389.71 100.199 1389.38 99.7594 1388.95C99.3193 1388.53 98.969 1388.01 98.7297 1387.45C98.4903 1386.88 98.3671 1386.27 98.3674 1385.65V1369.19C98.3611 1368.06 98.7464 1366.97 99.4592 1366.08C100.172 1365.2 101.17 1364.58 102.286 1364.33L122.744 1359.71C124.401 1359.34 125.994 1358.68 127.446 1357.75C139.83 1350.01 144.403 1338.1 141.163 1322.01C140.891 1320.64 140.35 1319.34 139.569 1318.19C138.789 1317.03 137.785 1316.04 136.617 1315.27C125.696 1308.16 115.663 1303.61 106.519 1301.63C103.588 1300.95 100.995 1299.24 99.2019 1296.83C97.4092 1294.41 96.5337 1291.43 96.7314 1288.43C96.9291 1285.43 98.1872 1282.59 100.281 1280.43C102.375 1278.27 105.169 1276.92 108.165 1276.63C155.898 1272.63 150.412 1218.63 104.089 1218.39C102.585 1218.37 101.15 1217.76 100.094 1216.69C99.0377 1215.62 98.4456 1214.17 98.4458 1212.67V1198.33C98.4489 1197.02 98.8305 1195.75 99.5422 1194.68C100.254 1193.6 101.264 1192.77 102.443 1192.29C125.722 1182.89 149.314 1164.7 121.176 1139.86C117.623 1136.67 113.024 1134.89 107.381 1134.53C105.269 1134.4 103.264 1133.56 101.697 1132.15C100.13 1130.74 99.0944 1128.84 98.7593 1126.77L97.7403 1120.65C97.5802 1119.73 97.6243 1118.78 97.8697 1117.87C98.1151 1116.97 98.5559 1116.13 99.1609 1115.41C99.766 1114.69 100.521 1114.12 101.372 1113.72C102.223 1113.33 103.151 1113.13 104.089 1113.13H478.903C479.339 1113.13 479.768 1113.24 480.151 1113.45C480.534 1113.65 480.858 1113.96 481.092 1114.32C481.327 1114.69 481.465 1115.11 481.493 1115.55C481.522 1115.98 481.439 1116.42 481.254 1116.81C478.433 1122.56 474.958 1126.35 470.83 1128.18C468.803 1129.04 467.141 1130.56 466.127 1132.49L275.271 1489.11C275.06 1489.52 274.963 1489.98 274.988 1490.44C275.014 1490.9 275.163 1491.35 275.419 1491.73C275.675 1492.11 276.028 1492.42 276.443 1492.62C276.859 1492.82 277.32 1492.91 277.779 1492.87C290.947 1491.93 304.324 1489.84 317.91 1486.6C318.431 1486.5 318.956 1486.44 319.478 1486.45L1280.65 1489.89Z" fill="#B01B24"/>
<path d="M1303.77 1195.03C1304.23 1195.03 1304.67 1195.22 1304.99 1195.54C1305.32 1195.86 1305.5 1196.3 1305.5 1196.76V1199.19C1305.5 1199.76 1305.28 1200.3 1304.88 1200.71C1304.49 1201.12 1303.95 1201.36 1303.38 1201.38C1262.62 1202.69 1220.06 1203 1175.7 1202.32C1171.05 1202.27 1164.6 1203.08 1156.34 1204.75C1154.83 1205.01 1153.28 1205.17 1151.72 1205.22C1111.85 1205.28 1054.53 1205.25 979.751 1205.15C974.421 1205.15 967.732 1204.36 959.685 1202.79C958.799 1202.64 957.907 1202.56 957.02 1202.56H728.307C727.766 1202.56 727.234 1202.41 726.764 1202.14C726.295 1201.88 725.903 1201.49 725.626 1201.02C725.35 1200.56 725.199 1200.03 725.188 1199.49C725.177 1198.95 725.307 1198.41 725.564 1197.93L769.143 1116.42C769.709 1115.38 770.547 1114.5 771.568 1113.9C772.589 1113.29 773.755 1112.97 774.943 1112.97H1306.6C1307.07 1112.97 1307.53 1113.16 1307.87 1113.5C1308.21 1113.84 1308.4 1114.3 1308.4 1114.78V1132.96C1308.4 1133.59 1308.17 1134.19 1307.75 1134.65C1307.33 1135.12 1306.75 1135.41 1306.13 1135.47C1284.81 1137.45 1273.91 1147.41 1273.44 1165.33C1272.87 1185.76 1282.98 1195.66 1303.77 1195.03Z" fill="#B01B24"/>
<path d="M658.315 1291.91C658.094 1291.92 657.879 1291.86 657.691 1291.75C657.504 1291.64 657.353 1291.47 657.256 1291.26C657.158 1291.06 657.117 1290.83 657.138 1290.6C657.159 1290.37 657.241 1290.14 657.374 1289.95L709.262 1221.21C709.677 1220.66 710.219 1220.2 710.845 1219.89C711.47 1219.58 712.163 1219.41 712.867 1219.41C909.184 1219.26 1095.05 1219.26 1270.46 1219.41C1278.38 1219.41 1301.82 1215.02 1302.6 1215.34C1303.2 1215.51 1303.74 1215.85 1304.14 1216.33C1304.55 1216.81 1304.79 1217.4 1304.85 1218.02C1304.91 1218.63 1304.78 1219.25 1304.48 1219.78C1304.17 1220.31 1303.71 1220.73 1303.15 1220.98L1284.18 1230.07C1281.46 1231.36 1279.13 1233.33 1277.44 1235.79C1268.45 1248.44 1269.52 1261.19 1280.65 1274.04C1287 1281.41 1298.45 1282.58 1303.78 1287.68C1304.15 1288.01 1304.41 1288.45 1304.52 1288.94C1304.63 1289.43 1304.59 1289.94 1304.4 1290.4C1304.21 1290.86 1303.88 1291.26 1303.46 1291.53C1303.04 1291.8 1302.55 1291.93 1302.05 1291.91H658.315Z" fill="#B01B24"/>
<path d="M568.415 1378.91C567.84 1378.92 567.279 1378.74 566.805 1378.42C566.331 1378.09 565.967 1377.63 565.763 1377.1C565.558 1376.56 565.523 1375.97 565.66 1375.41C565.798 1374.86 566.103 1374.35 566.533 1373.97L634.724 1313.23C636.438 1311.72 638.668 1310.88 640.995 1310.88H1270.07C1271.14 1310.88 1272.2 1310.66 1273.2 1310.23C1274.2 1309.79 1275.1 1309.16 1275.87 1308.37C1281.62 1302.47 1291.31 1300.74 1304.95 1303.2C1305.66 1303.35 1306.3 1303.72 1306.78 1304.27C1307.26 1304.81 1307.55 1305.49 1307.61 1306.21C1307.67 1306.93 1307.5 1307.65 1307.12 1308.27C1306.74 1308.88 1306.17 1309.36 1305.5 1309.63C1293.38 1314.12 1285.54 1317.88 1281.99 1320.91C1252.28 1345.84 1282.07 1367.31 1305.27 1375.15C1305.67 1375.32 1306.01 1375.62 1306.22 1376.01C1306.44 1376.4 1306.51 1376.84 1306.44 1377.28C1306.37 1377.72 1306.15 1378.11 1305.82 1378.41C1305.5 1378.71 1305.08 1378.88 1304.64 1378.91H568.415Z" fill="#B01B24"/>
<path d="M1407.24 1582.93L1458.58 1337.37C1458.89 1335.94 1459.68 1334.66 1460.83 1333.75C1461.98 1332.85 1463.4 1332.38 1464.85 1332.43C1478.27 1332.85 1500.27 1332.69 1530.84 1331.96C1561.1 1331.28 1582.86 1333.76 1596.13 1339.41C1627.8 1352.99 1645.59 1380.14 1649.51 1420.84C1657.5 1504.63 1613.06 1582.54 1522.46 1587.79C1496.22 1589.3 1459.46 1589.75 1412.17 1589.12C1411.42 1589.11 1410.68 1588.94 1410.01 1588.61C1409.33 1588.28 1408.74 1587.8 1408.26 1587.21C1407.79 1586.62 1407.45 1585.93 1407.28 1585.19C1407.1 1584.45 1407.09 1583.68 1407.24 1582.93ZM1475.66 1546.09C1518.69 1546.4 1549.42 1547.11 1573.32 1512.31C1589.78 1488.27 1597.33 1461.76 1595.98 1432.76C1593.15 1372.48 1558.12 1375.7 1510.23 1375.54C1508.84 1375.51 1507.49 1375.97 1506.4 1376.85C1505.32 1377.72 1504.56 1378.95 1504.27 1380.32L1470.88 1540.06C1470.73 1540.78 1470.74 1541.53 1470.91 1542.26C1471.08 1542.98 1471.4 1543.65 1471.86 1544.23C1472.32 1544.8 1472.9 1545.27 1473.55 1545.59C1474.21 1545.92 1474.93 1546.09 1475.66 1546.09Z" fill="#002B7E"/>
<path d="M2250.6 1332.43H2297.4C2297.79 1332.43 2298.18 1332.51 2298.53 1332.67C2298.89 1332.83 2299.2 1333.07 2299.45 1333.37C2299.7 1333.68 2299.88 1334.03 2299.97 1334.41C2300.06 1334.79 2300.07 1335.19 2299.98 1335.57L2291.2 1377.42C2291.08 1378 2290.76 1378.51 2290.31 1378.88C2289.85 1379.25 2289.28 1379.46 2288.7 1379.46H2241.83C2241.43 1379.47 2241.05 1379.39 2240.69 1379.23C2240.33 1379.06 2240.02 1378.82 2239.77 1378.52C2239.52 1378.22 2239.34 1377.87 2239.25 1377.48C2239.16 1377.1 2239.16 1376.71 2239.24 1376.33L2248.02 1334.47C2248.14 1333.88 2248.47 1333.36 2248.94 1332.99C2249.42 1332.62 2250 1332.42 2250.6 1332.43Z" fill="#002B7E"/>
<path d="M2604.89 1379.46H2557.62C2557.27 1379.46 2556.92 1379.37 2556.6 1379.22C2556.28 1379.06 2555.99 1378.84 2555.77 1378.56C2555.54 1378.28 2555.38 1377.96 2555.3 1377.62C2555.21 1377.27 2555.2 1376.91 2555.27 1376.56L2564.05 1334.39C2564.16 1333.85 2564.45 1333.35 2564.88 1333C2565.31 1332.64 2565.85 1332.44 2566.4 1332.43H2613.67C2614.02 1332.44 2614.37 1332.52 2614.69 1332.68C2615.01 1332.83 2615.3 1333.06 2615.52 1333.33C2615.75 1333.61 2615.91 1333.93 2615.99 1334.28C2616.08 1334.62 2616.09 1334.98 2616.02 1335.33L2607.24 1377.5C2607.13 1378.05 2606.84 1378.54 2606.41 1378.9C2605.98 1379.25 2605.44 1379.45 2604.89 1379.46Z" fill="#002B7E"/>
<path d="M1305.5 1463.25C1303.56 1466.28 1301.11 1467.97 1298.13 1468.34C1266.51 1471.84 1231.03 1472.89 1191.69 1471.48C1146.85 1469.8 1111.37 1468.97 1085.25 1468.97C856.221 1469.02 647.442 1469.05 458.912 1469.05C439.944 1469.05 428.814 1465.83 410.551 1464.89C409.846 1464.89 409.165 1464.64 408.629 1464.18C408.093 1463.72 407.737 1463.09 407.624 1462.39C407.511 1461.69 407.649 1460.98 408.013 1460.38C408.377 1459.77 408.943 1459.32 409.611 1459.09C450.943 1443.73 490.369 1423.64 527.887 1398.82C530.086 1397.39 532.646 1396.62 535.254 1396.62C774.941 1395.32 959.839 1395.24 1089.95 1396.39C1197.54 1397.33 1257.11 1397.59 1268.66 1397.17C1282.22 1396.7 1289.35 1390.67 1304.01 1391.84C1304.77 1391.94 1305.47 1392.31 1305.98 1392.88C1306.49 1393.45 1306.78 1394.18 1306.8 1394.95C1306.82 1395.72 1306.57 1396.46 1306.08 1397.06C1305.6 1397.65 1304.92 1398.06 1304.16 1398.19C1290.79 1399.97 1279.79 1407.83 1271.17 1421.78C1269.64 1424.22 1269.01 1427.07 1269.36 1429.86C1271.71 1448.3 1282.95 1457.94 1303.07 1458.78C1303.59 1458.8 1304.09 1458.96 1304.54 1459.24C1304.98 1459.51 1305.34 1459.89 1305.59 1460.35C1305.83 1460.8 1305.95 1461.3 1305.94 1461.81C1305.92 1462.32 1305.77 1462.82 1305.5 1463.25Z" fill="#B01B24"/>
<path d="M1836.28 1418.31C1845.33 1426.64 1852.48 1436.86 1857.31 1448.39C1862.14 1459.92 1864.56 1472.54 1864.44 1485.53C1864.31 1498.51 1861.64 1511.61 1856.58 1524.07C1851.51 1536.53 1844.16 1548.11 1834.93 1558.15C1825.69 1568.19 1814.77 1576.49 1802.78 1582.58C1790.78 1588.67 1777.95 1592.43 1765.03 1593.64C1752.1 1594.85 1739.32 1593.49 1727.42 1589.64C1715.52 1585.79 1704.74 1579.52 1695.68 1571.2C1686.63 1562.87 1679.48 1552.65 1674.65 1541.12C1669.82 1529.59 1667.39 1516.97 1667.52 1503.98C1667.65 1490.99 1670.32 1477.9 1675.38 1465.44C1680.44 1452.98 1687.8 1441.4 1697.03 1431.36C1706.26 1421.32 1717.19 1413.02 1729.18 1406.93C1741.18 1400.84 1754 1397.08 1766.93 1395.87C1779.86 1394.66 1792.64 1396.02 1804.54 1399.87C1816.44 1403.72 1827.22 1409.98 1836.28 1418.31ZM1786.78 1438.13C1781.53 1436.23 1775.81 1435.8 1769.95 1436.87C1764.08 1437.94 1758.18 1440.48 1752.58 1444.35C1746.98 1448.22 1741.8 1453.35 1737.32 1459.43C1732.85 1465.52 1729.17 1472.45 1726.5 1479.82C1723.83 1487.2 1722.22 1494.88 1721.77 1502.42C1721.31 1509.96 1722.01 1517.21 1723.83 1523.77C1725.65 1530.33 1728.56 1536.06 1732.38 1540.63C1736.21 1545.21 1740.87 1548.54 1746.12 1550.44C1751.37 1552.34 1757.09 1552.77 1762.95 1551.7C1768.82 1550.63 1774.72 1548.09 1780.32 1544.22C1785.92 1540.35 1791.1 1535.22 1795.58 1529.13C1800.05 1523.05 1803.73 1516.12 1806.4 1508.74C1809.07 1501.37 1810.68 1493.69 1811.13 1486.15C1811.59 1478.61 1810.89 1471.36 1809.07 1464.8C1807.25 1458.24 1804.34 1452.51 1800.52 1447.93C1796.69 1443.36 1792.03 1440.03 1786.78 1438.13Z" fill="#002B7E"/>
<path d="M1967.42 1416.37C1989.73 1398.14 2014.1 1392.86 2040.55 1400.54C2043.55 1401.42 2046.37 1402.89 2048.85 1404.85C2053.71 1408.61 2058.23 1414.47 2062.41 1422.41C2062.66 1422.88 2063.01 1423.29 2063.45 1423.6C2063.88 1423.91 2064.38 1424.11 2064.91 1424.2C2065.44 1424.28 2065.99 1424.24 2066.51 1424.08C2067.03 1423.92 2067.5 1423.64 2067.9 1423.27C2095.49 1396.94 2152.32 1381.42 2171.99 1421.31C2177 1431.34 2176.22 1451.85 2169.64 1482.84C2157.88 1538.44 2150.56 1572.82 2147.69 1585.99C2147.46 1586.93 2146.93 1587.77 2146.17 1588.36C2145.42 1588.96 2144.49 1589.28 2143.54 1589.28H2098.23C2097.85 1589.27 2097.47 1589.19 2097.12 1589.02C2096.78 1588.85 2096.47 1588.61 2096.23 1588.31C2095.99 1588.01 2095.82 1587.66 2095.73 1587.28C2095.65 1586.91 2095.64 1586.52 2095.72 1586.14C2109.52 1519.52 2118.12 1478.5 2121.51 1463.09C2124.41 1449.76 2123 1436.83 2106.31 1435.89C2080.44 1434.48 2064.76 1466.22 2059.83 1487.7C2053.4 1515.6 2046.55 1547.89 2039.29 1584.57C2039.02 1585.89 2038.31 1587.06 2037.28 1587.9C2036.25 1588.75 2034.97 1589.2 2033.65 1589.2H1990.46C1989.91 1589.2 1989.37 1589.07 1988.87 1588.84C1988.37 1588.61 1987.93 1588.27 1987.59 1587.84C1987.24 1587.42 1987 1586.93 1986.87 1586.41C1986.74 1585.88 1986.74 1585.34 1986.85 1584.81L2013.97 1454.94C2014.18 1453.86 2014.13 1452.75 2013.82 1451.72C2009.9 1439.44 2002.17 1434.51 1990.62 1436.91C1966.87 1441.85 1955.27 1465.83 1949.7 1492.01C1940.77 1533.92 1934.16 1565.69 1929.87 1587.32C1929.78 1587.82 1929.51 1588.27 1929.11 1588.6C1928.71 1588.93 1928.2 1589.11 1927.68 1589.12H1879.16C1878.92 1589.12 1878.67 1589.07 1878.45 1588.97C1878.23 1588.87 1878.03 1588.72 1877.87 1588.53C1877.71 1588.35 1877.6 1588.12 1877.54 1587.89C1877.48 1587.65 1877.47 1587.4 1877.51 1587.16L1915.45 1405.48C1915.72 1404.22 1916.42 1403.09 1917.43 1402.27C1918.44 1401.46 1919.71 1401.02 1921.02 1401.01H1960.36C1961 1401.01 1961.63 1401.15 1962.21 1401.43C1962.79 1401.7 1963.3 1402.1 1963.71 1402.59C1964.11 1403.09 1964.4 1403.67 1964.56 1404.29C1964.71 1404.91 1964.72 1405.56 1964.59 1406.19L1963.03 1413.79C1962.91 1414.33 1962.96 1414.89 1963.19 1415.39C1963.41 1415.9 1963.78 1416.32 1964.26 1416.6C1964.75 1416.89 1965.31 1417.02 1965.87 1416.98C1966.44 1416.93 1966.98 1416.72 1967.42 1416.37Z" fill="#002B7E"/>
<path d="M2383.3 1418.49C2392.03 1412.74 2397.57 1409.32 2399.92 1408.22C2443.73 1387.92 2499.78 1395.53 2491.55 1455.64C2489.19 1472.99 2480.42 1516.25 2465.21 1585.44C2464.99 1586.45 2464.43 1587.36 2463.6 1588.02C2462.77 1588.68 2461.74 1589.04 2460.66 1589.04H2416.3C2415.83 1589.04 2415.36 1588.93 2414.93 1588.73C2414.5 1588.52 2414.13 1588.23 2413.83 1587.86C2413.53 1587.49 2413.31 1587.07 2413.2 1586.61C2413.08 1586.15 2413.07 1585.67 2413.17 1585.2C2422.73 1539.48 2430.83 1500.79 2437.46 1469.12C2440.52 1454.39 2440.13 1442.4 2424.69 1437.22C2398.98 1428.52 2373.82 1465.13 2368.88 1485.43C2360.73 1518.82 2353.52 1552.54 2347.25 1586.61C2347.14 1587.27 2346.79 1587.86 2346.28 1588.29C2345.76 1588.72 2345.11 1588.96 2344.43 1588.96H2296.38C2296.12 1588.97 2295.85 1588.92 2295.61 1588.81C2295.37 1588.7 2295.16 1588.53 2295 1588.33C2294.83 1588.12 2294.71 1587.89 2294.65 1587.63C2294.59 1587.37 2294.59 1587.1 2294.65 1586.85L2332.43 1405.79C2332.7 1404.58 2333.37 1403.49 2334.34 1402.7C2335.31 1401.92 2336.52 1401.49 2337.76 1401.48H2378.36C2378.91 1401.48 2379.44 1401.61 2379.93 1401.84C2380.42 1402.07 2380.86 1402.41 2381.2 1402.83C2381.55 1403.25 2381.79 1403.74 2381.93 1404.26C2382.06 1404.79 2382.07 1405.34 2381.97 1405.87L2379.78 1416.14C2379.68 1416.57 2379.73 1417.02 2379.9 1417.43C2380.07 1417.84 2380.35 1418.19 2380.73 1418.44C2381.1 1418.69 2381.55 1418.83 2382 1418.84C2382.46 1418.85 2382.91 1418.73 2383.3 1418.49Z" fill="#002B7E"/>
<path d="M2737.27 1515.68L2785.08 1525.71C2785.25 1525.75 2785.4 1525.81 2785.54 1525.92C2785.68 1526.02 2785.79 1526.15 2785.86 1526.3C2785.94 1526.45 2785.98 1526.62 2785.98 1526.79C2785.98 1526.96 2785.94 1527.13 2785.86 1527.28C2762.56 1580.47 2724.13 1601.17 2670.57 1589.36C2639.79 1582.56 2622.36 1560.93 2618.29 1524.46C2610.37 1453.84 2659.59 1390.67 2734.6 1397.88C2770.08 1401.33 2791.4 1420.48 2798.56 1455.33C2798.68 1455.91 2798.69 1456.5 2798.57 1457.08C2798.46 1457.66 2798.22 1458.21 2797.89 1458.7C2797.55 1459.19 2797.12 1459.61 2796.61 1459.93C2796.11 1460.26 2795.55 1460.48 2794.96 1460.58L2755.37 1467.01C2753.92 1467.25 2752.44 1466.93 2751.22 1466.11C2749.99 1465.3 2749.13 1464.05 2748.79 1462.62C2742.94 1437.96 2727.86 1430.75 2703.56 1440.99C2679.42 1451.1 2670.96 1488.95 2668.84 1514.51C2666.96 1537.31 2682.48 1559.57 2707.88 1548.68C2720.83 1543.04 2729.66 1532.64 2734.37 1517.48C2734.53 1516.87 2734.93 1516.35 2735.46 1516.01C2736 1515.68 2736.65 1515.56 2737.27 1515.68Z" fill="#002B7E"/>
<path d="M2912.53 1573.68C2891.89 1588.94 2873.15 1595.29 2856.33 1592.73C2819.02 1587 2802.87 1555.26 2811.81 1519.68C2817.35 1497.63 2833.73 1484.17 2860.95 1479.31C2881.38 1475.65 2901.87 1473.07 2922.4 1471.55C2925.53 1471.32 2928.46 1469.98 2930.67 1467.78C2932.89 1465.58 2934.24 1462.66 2934.47 1459.56C2936.35 1434.56 2914.8 1432.91 2896.38 1437.61C2889.25 1439.42 2886.98 1447.18 2882.66 1452.51C2882.22 1453.05 2881.66 1453.48 2881.02 1453.78C2880.39 1454.08 2879.69 1454.23 2878.98 1454.23H2834.07C2833.36 1454.22 2832.66 1454.05 2832.03 1453.72C2831.41 1453.38 2830.87 1452.91 2830.47 1452.33C2830.07 1451.75 2829.82 1451.09 2829.73 1450.4C2829.65 1449.7 2829.74 1449 2829.99 1448.35C2846.45 1405.09 2885.8 1394.66 2928.44 1398.27C2975 1402.19 2992.87 1427.92 2982.05 1475.47C2973.98 1511.06 2961.12 1552.67 2969.82 1583.79C2969.99 1584.41 2970.02 1585.05 2969.89 1585.68C2969.77 1586.31 2969.51 1586.9 2969.12 1587.4C2968.74 1587.91 2968.24 1588.32 2967.67 1588.61C2967.09 1588.89 2966.46 1589.04 2965.83 1589.04H2923.5C2922.21 1589.04 2920.98 1588.53 2920.06 1587.62C2919.15 1586.71 2918.64 1585.47 2918.64 1584.18V1576.74C2918.63 1576.03 2918.43 1575.34 2918.06 1574.74C2917.68 1574.14 2917.15 1573.66 2916.52 1573.34C2915.89 1573.02 2915.18 1572.89 2914.47 1572.95C2913.77 1573.01 2913.1 1573.26 2912.53 1573.68ZM2919.11 1503.69C2902.34 1505.73 2872.79 1508.31 2863.62 1523.91C2842.85 1559.18 2917.78 1566.31 2923.5 1508C2923.56 1507.42 2923.49 1506.83 2923.29 1506.28C2923.1 1505.73 2922.78 1505.23 2922.35 1504.82C2921.93 1504.4 2921.42 1504.09 2920.86 1503.89C2920.3 1503.7 2919.7 1503.63 2919.11 1503.69Z" fill="#002B7E"/>
<path d="M3091.39 1416.14C3091.3 1416.58 3091.34 1417.03 3091.51 1417.44C3091.68 1417.84 3091.97 1418.2 3092.35 1418.45C3092.72 1418.7 3093.16 1418.83 3093.62 1418.84C3094.08 1418.85 3094.53 1418.73 3094.92 1418.49C3103.59 1412.74 3109.11 1409.32 3111.46 1408.22C3155.27 1388 3211.31 1395.61 3203.01 1455.72C3200.65 1473.02 3191.88 1516.23 3176.67 1585.36C3176.46 1586.38 3175.89 1587.29 3175.06 1587.94C3174.23 1588.6 3173.2 1588.96 3172.12 1588.96H3127.76C3127.29 1588.96 3126.82 1588.86 3126.39 1588.65C3125.97 1588.45 3125.59 1588.15 3125.29 1587.78C3124.99 1587.42 3124.77 1586.99 3124.66 1586.53C3124.55 1586.07 3124.53 1585.59 3124.63 1585.12C3134.19 1539.46 3142.31 1500.79 3149 1469.12C3152.06 1454.39 3151.67 1442.4 3136.23 1437.22C3110.52 1428.52 3085.36 1465.13 3080.42 1485.35C3072.27 1518.74 3065.03 1552.47 3058.71 1586.54C3058.58 1587.17 3058.23 1587.75 3057.72 1588.16C3057.2 1588.58 3056.56 1588.81 3055.89 1588.81H3007.92C3007.65 1588.82 3007.39 1588.76 3007.15 1588.65C3006.91 1588.54 3006.7 1588.38 3006.54 1588.17C3006.37 1587.97 3006.25 1587.73 3006.19 1587.47C3006.13 1587.22 3006.13 1586.95 3006.19 1586.69L3044.05 1405.79C3044.32 1404.57 3045 1403.47 3045.97 1402.68C3046.94 1401.9 3048.14 1401.48 3049.38 1401.48H3089.98C3090.52 1401.49 3091.06 1401.61 3091.55 1401.84C3092.04 1402.07 3092.47 1402.41 3092.82 1402.83C3093.16 1403.25 3093.41 1403.74 3093.54 1404.27C3093.68 1404.79 3093.69 1405.34 3093.59 1405.87L3091.39 1416.14Z" fill="#002B7E"/>
<path d="M3396.82 1418.13C3405.87 1426.42 3413.02 1436.62 3417.86 1448.14C3422.69 1459.65 3425.12 1472.26 3425 1485.24C3424.89 1498.22 3422.22 1511.32 3417.17 1523.79C3412.11 1536.26 3404.77 1547.86 3395.55 1557.92C3376.92 1578.25 3351.8 1591.08 3325.7 1593.6C3299.61 1596.13 3274.67 1588.13 3256.39 1571.38C3247.34 1563.08 3240.19 1552.89 3235.35 1541.37C3230.52 1529.86 3228.09 1517.25 3228.21 1504.27C3228.33 1491.29 3230.99 1478.18 3236.04 1465.71C3241.1 1453.24 3248.44 1441.64 3257.66 1431.58C3276.29 1411.26 3301.41 1398.43 3327.51 1395.9C3353.6 1393.38 3378.54 1401.37 3396.82 1418.13ZM3347.56 1438.12C3342.3 1436.22 3336.56 1435.78 3330.67 1436.85C3324.79 1437.91 3318.87 1440.44 3313.26 1444.31C3307.65 1448.18 3302.45 1453.3 3297.97 1459.38C3293.49 1465.47 3289.81 1472.39 3287.14 1479.77C3284.47 1487.14 3282.86 1494.82 3282.41 1502.37C3281.96 1509.91 3282.67 1517.17 3284.51 1523.73C3286.34 1530.29 3289.26 1536.03 3293.11 1540.61C3296.95 1545.2 3301.64 1548.54 3306.9 1550.44C3312.17 1552.35 3317.91 1552.78 3323.79 1551.72C3329.68 1550.66 3335.6 1548.12 3341.21 1544.26C3346.82 1540.39 3352.01 1535.27 3356.49 1529.18C3360.98 1523.1 3364.66 1516.17 3367.33 1508.8C3370 1501.42 3371.6 1493.74 3372.05 1486.2C3372.51 1478.66 3371.79 1471.4 3369.96 1464.84C3368.12 1458.27 3365.2 1452.54 3361.36 1447.95C3357.52 1443.37 3352.83 1440.03 3347.56 1438.12Z" fill="#002B7E"/>
<path d="M2237.05 1401.09H2282.04C2282.56 1401.09 2283.08 1401.21 2283.55 1401.44C2284.02 1401.66 2284.44 1401.99 2284.77 1402.39C2285.1 1402.8 2285.33 1403.27 2285.46 1403.78C2285.58 1404.29 2285.59 1404.81 2285.49 1405.33L2247.55 1586.46C2247.39 1587.25 2246.96 1587.97 2246.33 1588.48C2245.7 1589 2244.92 1589.28 2244.1 1589.28H2199.11C2198.59 1589.28 2198.08 1589.16 2197.6 1588.94C2197.13 1588.71 2196.72 1588.39 2196.39 1587.98C2196.06 1587.58 2195.82 1587.1 2195.7 1586.6C2195.57 1586.09 2195.56 1585.56 2195.66 1585.05L2233.6 1403.92C2233.76 1403.12 2234.19 1402.41 2234.82 1401.89C2235.45 1401.38 2236.24 1401.1 2237.05 1401.09Z" fill="#002B7E"/>
<path d="M2560.29 1589.12H2514.98C2514.48 1589.12 2513.99 1589.01 2513.53 1588.79C2513.08 1588.57 2512.68 1588.26 2512.37 1587.87C2512.05 1587.48 2511.83 1587.02 2511.71 1586.53C2511.59 1586.04 2511.59 1585.54 2511.69 1585.04L2549.63 1403.6C2549.79 1402.84 2550.2 1402.17 2550.8 1401.68C2551.4 1401.2 2552.15 1400.93 2552.92 1400.93H2598.22C2598.73 1400.93 2599.22 1401.05 2599.67 1401.26C2600.13 1401.48 2600.53 1401.8 2600.84 1402.19C2601.16 1402.58 2601.38 1403.03 2601.5 1403.52C2601.61 1404.01 2601.62 1404.52 2601.52 1405.01L2563.58 1586.46C2563.42 1587.21 2563 1587.88 2562.4 1588.37C2561.81 1588.85 2561.06 1589.12 2560.29 1589.12Z" fill="#002B7E"/>
</svg>
