<svg width="1100" height="1100" viewBox="0 0 1100 1100" fill="none" xmlns="http://www.w3.org/2000/svg">
<path d="M523.063 7.01543L513.016 7.52439C512.856 7.53249 512.733 7.66873 512.741 7.82869L516.482 81.674C516.49 81.834 516.626 81.9571 516.786 81.949L526.833 81.44C526.993 81.4319 527.117 81.2956 527.108 81.1357L523.368 7.29038C523.36 7.13042 523.223 7.00732 523.063 7.01543Z" fill="white"/>
<path d="M622.786 22.242L613.486 86.132C613.48 86.1755 613.465 86.2174 613.443 86.2552C613.42 86.293 613.391 86.3259 613.355 86.3519C613.32 86.378 613.279 86.3968 613.237 86.4071C613.194 86.4174 613.15 86.4191 613.106 86.412L603.336 84.972C603.293 84.9659 603.251 84.9512 603.213 84.9286C603.175 84.9061 603.142 84.8763 603.116 84.8409C603.09 84.8055 603.071 84.7652 603.061 84.7225C603.051 84.6797 603.049 84.6354 603.056 84.592L612.356 20.742C612.363 20.6986 612.362 20.6542 612.351 20.6114C612.341 20.5687 612.322 20.5284 612.296 20.493C612.27 20.4576 612.237 20.4278 612.199 20.4053C612.162 20.3828 612.12 20.3681 612.076 20.362L587.456 16.752C587.413 16.7459 587.371 16.7312 587.333 16.7086C587.295 16.6861 587.262 16.6563 587.236 16.6209C587.21 16.5855 587.191 16.5452 587.181 16.5025C587.171 16.4597 587.169 16.4154 587.176 16.372L588.406 7.88197C588.412 7.83842 588.427 7.79652 588.45 7.75875C588.472 7.72097 588.502 7.68807 588.537 7.66199C588.573 7.6359 588.613 7.61716 588.656 7.60685C588.698 7.59654 588.743 7.59488 588.786 7.60197L649.106 16.382C649.15 16.3881 649.192 16.4028 649.229 16.4253C649.267 16.4478 649.3 16.4776 649.326 16.513C649.352 16.5484 649.371 16.5887 649.381 16.6314C649.392 16.6742 649.393 16.7186 649.386 16.762L648.166 25.272C648.16 25.3155 648.145 25.3574 648.123 25.3952C648.1 25.433 648.071 25.4659 648.035 25.4919C648 25.518 647.959 25.5368 647.917 25.5471C647.874 25.5574 647.83 25.5591 647.786 25.552L623.166 21.962C623.123 21.9549 623.078 21.9565 623.036 21.9668C622.993 21.9772 622.953 21.9959 622.917 22.022C622.882 22.0481 622.852 22.081 622.83 22.1187C622.807 22.1565 622.792 22.1984 622.786 22.242Z" fill="white"/>
<path d="M425.275 30.4729L441.255 93.0429C441.276 93.1278 441.263 93.2176 441.218 93.2926C441.173 93.3676 441.1 93.4217 441.015 93.4429L431.445 95.8829C431.36 95.9041 431.27 95.8907 431.195 95.8457C431.12 95.8007 431.066 95.7278 431.045 95.6429L415.075 33.1229C415.054 33.0381 415 32.9652 414.925 32.9202C414.85 32.8752 414.76 32.8618 414.675 32.8829L390.535 39.0129C390.45 39.0341 390.36 39.0207 390.285 38.9757C390.21 38.9307 390.156 38.8578 390.135 38.7729L388.045 30.4329C388.024 30.3481 388.037 30.2583 388.082 30.1833C388.127 30.1083 388.2 30.0542 388.285 30.0329L447.325 14.9629C447.41 14.9418 447.5 14.9551 447.575 15.0002C447.65 15.0452 447.704 15.1181 447.725 15.2029L449.865 23.5629C449.886 23.6478 449.873 23.7376 449.828 23.8126C449.783 23.8876 449.71 23.9417 449.625 23.9629L425.515 30.0729C425.43 30.0942 425.357 30.1483 425.312 30.2233C425.267 30.2983 425.254 30.3881 425.275 30.4729Z" fill="white"/>
<path d="M745.736 92.9723C751.166 80.1523 756.436 67.4423 761.816 54.6623C761.843 54.5961 761.894 54.5432 761.96 54.5151C762.026 54.487 762.1 54.486 762.166 54.5123L771.096 58.2223C771.146 58.2427 771.192 58.2731 771.231 58.3119C771.269 58.3508 771.3 58.3971 771.32 58.4483C771.341 58.4995 771.351 58.5546 771.35 58.6102C771.349 58.6658 771.338 58.7209 771.316 58.7723C766.836 69.2589 762.343 80.0223 757.836 91.0623C755.743 96.2023 753.679 100.549 751.646 104.102C745.116 115.522 733.726 121.062 720.456 118.012C699.536 113.212 687.506 96.3823 696.216 75.1123C701.323 62.6523 706.949 49.1756 713.096 34.6823C713.276 34.2623 713.573 34.139 713.986 34.3123L722.576 37.8823C722.996 38.0623 723.119 38.3589 722.946 38.7723C717.153 52.3923 711.659 65.5356 706.466 78.2023C705.306 81.0423 704.546 84.0756 704.186 87.3023C702.906 98.8123 711.276 105.962 721.536 108.482C734.016 111.562 741.366 103.302 745.736 92.9723Z" fill="white"/>
<path d="M341.595 100.283C338.748 100.043 335.912 100.256 333.085 100.923C327.878 102.156 322.785 103.323 317.805 104.423C307.105 106.793 297.455 105.063 292.685 94.9531C288.595 86.3131 291.155 77.0731 297.985 70.8131C307.518 62.0798 318.752 57.7764 331.685 57.9031C332.252 57.9098 332.558 58.1931 332.605 58.7531L333.325 66.5531C333.372 67.0798 333.132 67.3298 332.605 67.3031C322.598 66.8031 313.885 69.5231 306.465 75.4631C304.552 76.9964 303.065 78.7998 302.005 80.8731C298.905 86.9631 302.245 94.7431 309.535 95.0531C313.502 95.2198 317.612 94.7031 321.865 93.5031C328.078 91.7498 333.755 90.6231 338.895 90.1231C347.808 89.2564 354.105 92.4698 357.785 99.7631C362.255 108.633 359.355 117.823 352.475 124.313C342.355 133.873 326.975 139.363 312.915 136.933C312.789 136.91 312.675 136.845 312.592 136.749C312.508 136.653 312.46 136.531 312.455 136.403L312.095 128.043C312.082 127.796 312.198 127.693 312.445 127.733C323.952 129.56 334.382 126.963 343.735 119.943C346.125 118.143 348.515 115.423 349.425 112.553C351.225 106.903 347.805 100.813 341.595 100.283Z" fill="white"/>
<path d="M852.055 121.253L813.055 172.683C813.002 172.752 812.924 172.796 812.838 172.807C812.752 172.819 812.664 172.796 812.595 172.743L804.705 166.783C804.637 166.73 804.592 166.651 804.581 166.565C804.57 166.479 804.593 166.392 804.645 166.323L843.655 114.893C843.708 114.824 843.731 114.737 843.72 114.651C843.709 114.565 843.664 114.486 843.595 114.433L823.785 99.393C823.717 99.3397 823.672 99.2615 823.661 99.1753C823.65 99.0892 823.673 99.0022 823.725 98.933L828.915 92.053C828.969 91.9845 829.047 91.9398 829.133 91.9286C829.219 91.9173 829.306 91.9405 829.375 91.993L877.945 128.853C878.014 128.906 878.059 128.985 878.07 129.071C878.081 129.157 878.058 129.244 878.005 129.313L872.785 136.173C872.732 136.242 872.654 136.286 872.568 136.297C872.481 136.309 872.394 136.286 872.325 136.233L852.515 121.193C852.446 121.14 852.359 121.117 852.273 121.129C852.187 121.14 852.109 121.185 852.055 121.253Z" fill="white"/>
<path d="M196.163 170.592L232.953 210.592C232.981 210.622 233.003 210.658 233.017 210.696C233.031 210.735 233.037 210.776 233.035 210.816C233.033 210.857 233.023 210.897 233.006 210.935C232.988 210.972 232.964 211.005 232.933 211.032L225.553 217.862C225.523 217.89 225.488 217.912 225.449 217.926C225.411 217.94 225.37 217.946 225.329 217.944C225.288 217.942 225.248 217.932 225.211 217.915C225.174 217.897 225.141 217.873 225.113 217.842L175.113 163.432C175.086 163.402 175.064 163.367 175.05 163.328C175.036 163.29 175.03 163.249 175.032 163.208C175.033 163.167 175.043 163.127 175.061 163.09C175.078 163.053 175.103 163.02 175.133 162.992L181.223 157.402C181.258 157.37 181.299 157.346 181.344 157.332C181.389 157.318 181.437 157.315 181.483 157.322L250.973 167.852C251.037 167.862 251.102 167.851 251.16 167.822C251.217 167.792 251.264 167.746 251.293 167.688C251.323 167.631 251.334 167.566 251.325 167.502C251.316 167.439 251.288 167.379 251.243 167.332L214.453 127.312C214.426 127.282 214.404 127.247 214.39 127.208C214.376 127.17 214.37 127.129 214.372 127.088C214.373 127.047 214.383 127.007 214.401 126.97C214.418 126.933 214.443 126.9 214.473 126.872L221.853 120.072C221.883 120.045 221.919 120.023 221.957 120.009C221.996 119.995 222.037 119.989 222.077 119.991C222.118 119.992 222.159 120.002 222.196 120.02C222.233 120.037 222.266 120.062 222.293 120.092L272.263 174.482C272.291 174.512 272.313 174.548 272.327 174.586C272.341 174.625 272.347 174.666 272.345 174.706C272.343 174.747 272.333 174.787 272.316 174.825C272.298 174.862 272.274 174.895 272.243 174.922L266.143 180.522C266.109 180.555 266.068 180.578 266.023 180.592C265.977 180.606 265.93 180.61 265.883 180.602L196.433 170.072C196.37 170.063 196.304 170.074 196.247 170.103C196.19 170.132 196.143 170.179 196.113 170.236C196.083 170.293 196.072 170.358 196.081 170.422C196.09 170.486 196.119 170.546 196.163 170.592Z" fill="white"/>
<path d="M469.124 149.483C613.174 121.783 758.254 172.052 853.244 283.322C903.391 342.062 934.088 409.956 945.334 487.003C951.221 527.329 950.674 569.036 943.694 612.123C943.628 612.549 943.381 612.726 942.954 612.652L929.854 610.413C929.468 610.346 929.304 610.119 929.364 609.733C935.451 572.313 936.508 536.202 932.534 501.402C923.634 423.409 894.028 354.423 843.714 294.443C817.874 263.653 786.284 236.013 751.334 214.443C691.154 177.289 625.194 157.983 553.454 156.523C546.808 156.389 540.131 156.459 533.424 156.733C460.711 159.646 394.484 180.689 334.744 219.863C242.164 280.563 178.644 379.383 163.414 489.553C157.841 529.919 158.421 569.996 165.154 609.783C165.169 609.87 165.149 609.96 165.098 610.032C165.048 610.105 164.971 610.156 164.884 610.173L151.544 612.433C151.448 612.448 151.349 612.444 151.254 612.422C151.159 612.399 151.069 612.358 150.99 612.3C150.911 612.242 150.844 612.17 150.793 612.086C150.743 612.002 150.709 611.909 150.694 611.813C142.061 557.966 143.451 505.916 154.864 455.663C171.411 382.823 205.551 319.476 257.284 265.623C314.134 206.433 387.844 165.113 469.124 149.483Z" fill="white"/>
<path d="M882.044 209.203C885.264 202.076 890.06 196.479 896.434 192.413C908.574 184.679 921.107 184.009 934.034 190.403C944.274 195.473 952.714 206.033 955.824 217.533C962.674 242.883 941.264 267.033 915.614 264.793C890.234 262.573 871.344 232.853 882.044 209.203ZM932.734 250.599C939.304 246.744 944.056 240.408 945.944 232.983C947.833 225.559 946.704 217.655 942.805 211.009C940.875 207.719 938.322 204.837 935.294 202.527C932.265 200.218 928.82 198.526 925.155 197.549C921.49 196.572 917.676 196.328 913.932 196.832C910.188 197.336 906.586 198.578 903.333 200.487C896.764 204.341 892.012 210.678 890.123 218.102C888.234 225.526 889.363 233.431 893.262 240.076C895.193 243.366 897.745 246.249 900.773 248.558C903.802 250.868 907.247 252.559 910.912 253.537C914.578 254.514 918.391 254.757 922.135 254.253C925.879 253.749 929.481 252.507 932.734 250.599Z" fill="white"/>
<path d="M187.231 265.763L126.615 223.947C126.424 223.816 126.163 223.864 126.031 224.055L120.455 232.138C120.323 232.329 120.371 232.59 120.562 232.722L181.178 274.538C181.369 274.67 181.63 274.622 181.762 274.431L187.338 266.348C187.47 266.157 187.422 265.895 187.231 265.763Z" fill="white"/>
<path d="M524.943 289.982L545.303 227.222C545.328 227.153 545.372 227.094 545.431 227.053C545.49 227.011 545.561 226.988 545.633 226.988C545.706 226.988 545.776 227.011 545.836 227.053C545.895 227.094 545.939 227.153 545.963 227.222L566.323 289.962C566.346 290.031 566.391 290.092 566.45 290.135C566.509 290.178 566.58 290.201 566.653 290.202L632.573 290.152C632.647 290.152 632.719 290.175 632.778 290.218C632.838 290.261 632.882 290.321 632.905 290.391C632.929 290.461 632.929 290.536 632.908 290.606C632.886 290.676 632.842 290.738 632.783 290.782L579.433 329.542C579.373 329.585 579.329 329.646 579.305 329.716C579.282 329.786 579.281 329.861 579.303 329.932L599.703 392.632C599.73 392.703 599.732 392.78 599.711 392.853C599.689 392.926 599.644 392.989 599.583 393.034C599.523 393.079 599.449 393.103 599.373 393.103C599.297 393.102 599.224 393.077 599.163 393.032L545.843 354.242C545.783 354.196 545.709 354.172 545.633 354.172C545.558 354.172 545.484 354.196 545.423 354.242L492.123 393.012C492.063 393.057 491.99 393.082 491.914 393.083C491.838 393.083 491.764 393.059 491.703 393.014C491.643 392.969 491.598 392.905 491.576 392.833C491.555 392.76 491.557 392.683 491.583 392.612L511.943 329.912C511.966 329.841 511.965 329.766 511.942 329.696C511.918 329.626 511.873 329.565 511.813 329.522L458.413 290.742C458.355 290.698 458.311 290.636 458.289 290.566C458.267 290.496 458.268 290.421 458.291 290.351C458.315 290.281 458.359 290.221 458.419 290.178C458.478 290.135 458.55 290.112 458.623 290.112L524.613 290.222C524.687 290.221 524.758 290.198 524.817 290.155C524.876 290.112 524.92 290.051 524.943 289.982Z" fill="white"/>
<path d="M1020.89 285.062C1046.28 325.382 1064.66 369.332 1075.85 415.972C1087.53 464.692 1091.65 515.082 1091.45 566.142C1091.35 591.769 1089.48 616.785 1085.86 641.192C1085.8 641.612 1085.56 641.792 1085.14 641.732L1055.83 637.482C1055.43 637.428 1055.27 637.205 1055.33 636.812C1058.5 615.485 1060.24 593.778 1060.55 571.692C1061.2 524.362 1057.73 476.772 1047.57 430.812C1038.4 389.345 1023.49 350.722 1002.85 314.942C1000.33 310.582 997.675 306.145 994.895 301.632C994.682 301.285 994.749 301.002 995.095 300.782L1020.33 284.932C1020.37 284.903 1020.42 284.884 1020.47 284.875C1020.52 284.866 1020.58 284.867 1020.63 284.88C1020.68 284.892 1020.73 284.914 1020.77 284.945C1020.82 284.977 1020.86 285.016 1020.89 285.062Z" fill="white"/>
<path d="M20.5159 439.702C31.2059 386.592 50.4059 337.052 78.1659 291.322C78.3659 290.989 78.6326 290.922 78.9659 291.122L104.336 306.592C104.404 306.634 104.464 306.689 104.511 306.754C104.558 306.819 104.592 306.893 104.61 306.971C104.629 307.049 104.632 307.13 104.619 307.209C104.606 307.288 104.578 307.364 104.536 307.432C83.4359 341.832 67.6559 378.492 57.1959 417.412C45.8759 459.552 41.2959 502.822 40.1059 546.832C39.2392 578.732 41.1192 610.262 45.7459 641.422C45.7926 641.736 45.6592 641.922 45.3459 641.982L16.1159 647.002C15.7092 647.069 15.4726 646.902 15.4059 646.502C8.0859 600.692 7.54588 553.962 11.2359 507.082C13.0826 483.702 16.1759 461.242 20.5159 439.702Z" fill="white"/>
<path d="M355.363 349.793L395.133 349.353C395.288 349.349 395.44 349.395 395.566 349.484C395.692 349.573 395.787 349.701 395.835 349.848C395.883 349.995 395.883 350.153 395.834 350.3C395.785 350.447 395.69 350.574 395.563 350.663L363.133 373.683C363.008 373.771 362.914 373.898 362.865 374.043C362.817 374.189 362.816 374.347 362.863 374.493L375.573 412.183C375.625 412.329 375.629 412.489 375.582 412.638C375.536 412.786 375.443 412.916 375.317 413.007C375.191 413.099 375.038 413.147 374.882 413.144C374.727 413.141 374.576 413.088 374.453 412.993L342.543 389.263C342.419 389.17 342.268 389.12 342.113 389.12C341.958 389.12 341.807 389.17 341.683 389.263L309.773 412.993C309.65 413.088 309.499 413.141 309.344 413.144C309.188 413.147 309.036 413.099 308.909 413.007C308.783 412.916 308.69 412.786 308.644 412.638C308.598 412.489 308.601 412.329 308.653 412.183L321.363 374.493C321.41 374.347 321.41 374.189 321.361 374.043C321.313 373.898 321.219 373.771 321.093 373.683L288.663 350.663C288.536 350.574 288.441 350.447 288.392 350.3C288.344 350.153 288.343 349.995 288.391 349.848C288.44 349.701 288.534 349.573 288.66 349.484C288.787 349.395 288.938 349.349 289.093 349.353L328.863 349.793C329.018 349.793 329.168 349.744 329.292 349.652C329.417 349.56 329.508 349.43 329.553 349.283L341.423 311.333C341.467 311.184 341.558 311.054 341.683 310.961C341.807 310.868 341.958 310.818 342.113 310.818C342.268 310.818 342.419 310.868 342.543 310.961C342.668 311.054 342.759 311.184 342.803 311.333L354.673 349.283C354.718 349.43 354.81 349.56 354.934 349.652C355.058 349.744 355.209 349.793 355.363 349.793Z" fill="white"/>
<path d="M762.413 349.792L802.153 349.342C802.31 349.341 802.464 349.389 802.591 349.481C802.719 349.572 802.814 349.702 802.863 349.851C802.912 350 802.912 350.161 802.864 350.311C802.815 350.46 802.72 350.59 802.593 350.682L770.173 373.672C770.044 373.764 769.948 373.896 769.899 374.047C769.851 374.199 769.852 374.362 769.903 374.512L782.613 412.162C782.663 412.311 782.663 412.472 782.616 412.621C782.568 412.771 782.473 412.901 782.346 412.994C782.219 413.086 782.066 413.136 781.91 413.135C781.753 413.135 781.6 413.085 781.473 412.992L749.593 389.262C749.466 389.168 749.312 389.117 749.153 389.117C748.995 389.117 748.84 389.168 748.713 389.262L716.833 412.992C716.707 413.085 716.554 413.135 716.397 413.135C716.24 413.136 716.087 413.086 715.96 412.994C715.833 412.901 715.739 412.771 715.691 412.621C715.643 412.472 715.644 412.311 715.693 412.162L728.403 374.512C728.454 374.362 728.456 374.199 728.407 374.047C728.358 373.896 728.262 373.764 728.133 373.672L695.713 350.682C695.586 350.59 695.491 350.46 695.442 350.311C695.394 350.161 695.394 350 695.443 349.851C695.492 349.702 695.587 349.572 695.715 349.481C695.843 349.389 695.996 349.341 696.153 349.342L735.893 349.792C736.05 349.793 736.204 349.745 736.331 349.653C736.459 349.561 736.554 349.431 736.603 349.282L748.443 311.342C748.488 311.189 748.582 311.054 748.71 310.958C748.838 310.862 748.993 310.811 749.153 310.811C749.313 310.811 749.469 310.862 749.597 310.958C749.725 311.054 749.818 311.189 749.863 311.342L761.703 349.282C761.752 349.431 761.847 349.561 761.975 349.653C762.102 349.745 762.256 349.793 762.413 349.792Z" fill="white"/>
<path d="M984.225 485.361C975.759 429.501 957.345 377.221 928.985 328.521C928.938 328.439 928.925 328.341 928.95 328.25C928.974 328.158 929.034 328.08 929.115 328.031L955.145 312.781C955.187 312.756 955.234 312.74 955.282 312.732C955.331 312.725 955.38 312.728 955.428 312.74C955.475 312.752 955.52 312.773 955.559 312.803C955.598 312.832 955.631 312.869 955.655 312.911C990.982 373.965 1011.8 439.295 1018.1 508.901C1020.41 534.375 1020.71 560.275 1019 586.601C1018.2 598.828 1016.7 611.231 1014.49 623.811C1014.48 623.867 1014.46 623.92 1014.43 623.968C1014.4 624.015 1014.36 624.057 1014.32 624.089C1014.27 624.122 1014.22 624.145 1014.17 624.158C1014.11 624.17 1014.06 624.171 1014.01 624.161L984.405 619.072C984.358 619.064 984.313 619.047 984.272 619.023C984.231 618.998 984.195 618.965 984.167 618.927C984.139 618.889 984.119 618.846 984.109 618.8C984.098 618.755 984.097 618.707 984.105 618.661C987.325 599.908 989.005 580.858 989.145 561.512C989.325 536.022 988.115 511.041 984.225 485.361Z" fill="white"/>
<path d="M107.036 378.663C113.99 360.67 122.133 343.183 131.466 326.203C131.482 326.174 131.503 326.149 131.529 326.128C131.555 326.107 131.584 326.092 131.616 326.082C131.647 326.073 131.68 326.07 131.713 326.074C131.746 326.077 131.777 326.087 131.806 326.103L158.316 340.503C158.359 340.525 158.397 340.555 158.428 340.592C158.459 340.629 158.482 340.672 158.496 340.719C158.51 340.765 158.514 340.814 158.509 340.863C158.504 340.912 158.49 340.96 158.466 341.003C111.466 428.093 95.1564 528.203 111.566 625.913C111.633 626.306 111.47 626.536 111.076 626.603L81.7764 631.633C81.4097 631.693 81.1964 631.54 81.1364 631.173C66.843 544.533 75.4764 460.363 107.036 378.663Z" fill="white"/>
<path d="M778.065 487.593C809.225 497.913 838.405 511.733 866.215 529.703C874.582 535.116 882.859 540.713 891.045 546.493C891.492 546.806 891.442 546.963 890.895 546.963C885.635 546.913 880.605 546.963 875.395 546.343C832.349 541.256 788.815 542.303 744.795 549.483C636.245 567.193 532.435 618.343 456.115 697.953C438.109 716.74 420.625 736.41 403.665 756.963C371.512 795.93 344.162 837.973 321.615 883.093C321.069 884.18 320.972 884.143 321.325 882.983C341.352 816.083 371.835 754.35 412.775 697.783C466.595 623.423 536.885 559.053 617.425 516.003C653.365 496.796 690.489 482.706 728.795 473.733C729.615 473.543 730.395 473.483 731.205 473.703C747.512 478.01 763.132 482.64 778.065 487.593Z" fill="white"/>
<path d="M570.186 501.212C508.016 530.422 450.866 568.652 402.736 616.422C340.809 677.889 296.349 750.472 269.356 834.172C269.216 834.605 268.983 834.662 268.656 834.342C216.829 783.942 180.939 724.249 160.986 655.262C160.932 655.081 160.927 654.888 160.973 654.703C161.018 654.518 161.113 654.349 161.246 654.212C199.673 614.725 242.453 582.545 289.586 557.672C369.453 515.525 455.156 495.979 546.696 499.032C554.683 499.299 562.489 499.879 570.116 500.772C570.649 500.839 570.673 500.985 570.186 501.212Z" fill="white"/>
<path d="M931.754 654.502C904.894 748.952 844.914 829.632 762.494 882.882C762.453 882.909 762.407 882.929 762.358 882.938C762.309 882.948 762.259 882.947 762.211 882.937C762.162 882.927 762.116 882.907 762.075 882.878C762.035 882.85 762 882.814 761.974 882.772C739.454 847.905 710.007 820.808 673.634 801.482C639.794 783.502 602.164 774.652 563.034 774.702C536.741 774.742 509.967 774.748 482.714 774.722C482.67 774.721 482.628 774.708 482.591 774.684C482.555 774.66 482.526 774.626 482.508 774.586C482.491 774.546 482.484 774.502 482.491 774.459C482.497 774.415 482.515 774.375 482.544 774.342C538.204 711.302 607.634 662.532 686.094 633.002C744.724 610.932 807.464 599.672 869.984 600.502C870.324 600.508 870.634 600.612 870.914 600.812C892.607 616.172 912.801 633.715 931.494 653.442C931.781 653.748 931.867 654.102 931.754 654.502Z" fill="white"/>
<path d="M51.9143 716.141C51.8716 716.027 51.7856 715.935 51.675 715.885C51.5645 715.834 51.4384 715.829 51.3243 715.871L29.4343 723.991C29.3153 724.036 29.1833 724.03 29.0671 723.976C28.9509 723.921 28.86 723.823 28.8143 723.701L21.1643 703.131C21.1415 703.069 21.1309 703.004 21.1331 702.938C21.1353 702.872 21.1504 702.808 21.1773 702.748C21.2043 702.689 21.2426 702.635 21.2902 702.591C21.3377 702.547 21.3935 702.513 21.4543 702.491L103.084 672.171C103.135 672.152 103.19 672.154 103.241 672.176C103.291 672.199 103.332 672.24 103.354 672.291C108.174 685.158 113.001 698.218 117.834 711.471C119.094 714.918 119.814 719.175 119.994 724.241C120.504 738.611 111.324 748.801 97.9743 752.821C77.9143 758.871 64.2543 748.791 57.3143 730.551C55.4276 725.605 53.6277 720.801 51.9143 716.141ZM93.7243 700.101L69.2643 709.201C69.214 709.219 69.1678 709.247 69.1283 709.283C69.0889 709.319 69.0571 709.362 69.0347 709.411C69.0123 709.459 68.9999 709.512 68.9981 709.565C68.9963 709.618 69.0052 709.671 69.0243 709.721L74.4643 724.331C75.6796 727.6 78.0595 730.283 81.0807 731.791C84.1018 733.299 87.5168 733.507 90.5743 732.371L92.7343 731.571C94.2486 731.008 95.6294 730.131 96.7978 728.991C97.9662 727.85 98.8994 726.469 99.5438 724.926C100.188 723.382 100.532 721.707 100.554 719.995C100.576 718.284 100.277 716.57 99.6743 714.951L94.2443 700.341C94.2265 700.291 94.1988 700.245 94.1628 700.205C94.1269 700.166 94.0834 700.134 94.0349 700.112C93.9864 700.089 93.934 700.077 93.8807 700.075C93.8273 700.073 93.7742 700.082 93.7243 700.101Z" fill="white"/>
<path d="M1051.41 703.872L1038.95 739.222C1038.93 739.281 1038.92 739.346 1038.94 739.406C1038.95 739.467 1038.99 739.521 1039.04 739.562L1051.32 750.232C1051.36 750.273 1051.4 750.328 1051.41 750.388C1051.43 750.449 1051.43 750.513 1051.41 750.572L1043.8 772.132C1043.78 772.182 1043.75 772.226 1043.71 772.261C1043.67 772.296 1043.63 772.321 1043.57 772.333C1043.52 772.345 1043.47 772.344 1043.42 772.33C1043.37 772.315 1043.32 772.289 1043.29 772.252L973.567 707.982C973.523 707.941 973.492 707.888 973.477 707.829C973.463 707.771 973.466 707.709 973.487 707.652L981.177 685.822C981.198 685.765 981.236 685.715 981.286 685.68C981.336 685.644 981.395 685.624 981.457 685.622L1075.78 680.172C1075.83 680.17 1075.88 680.179 1075.92 680.201C1075.97 680.222 1076.01 680.254 1076.04 680.295C1076.07 680.335 1076.09 680.383 1076.1 680.433C1076.11 680.483 1076.1 680.534 1076.09 680.582L1068.21 702.952C1068.19 703.011 1068.15 703.063 1068.1 703.101C1068.05 703.138 1067.99 703.16 1067.93 703.162L1051.69 703.662C1051.62 703.665 1051.56 703.687 1051.51 703.724C1051.46 703.761 1051.43 703.813 1051.41 703.872ZM1024.25 726.752C1024.29 726.788 1024.34 726.812 1024.39 726.824C1024.45 726.836 1024.5 726.834 1024.56 726.819C1024.61 726.805 1024.66 726.777 1024.7 726.739C1024.74 726.702 1024.77 726.654 1024.79 726.602L1032.57 704.632C1032.58 704.58 1032.59 704.525 1032.58 704.471C1032.57 704.417 1032.55 704.365 1032.52 704.321C1032.49 704.277 1032.44 704.241 1032.39 704.217C1032.35 704.193 1032.29 704.181 1032.24 704.182L1000.09 705.162C1000.02 705.166 999.956 705.19 999.902 705.23C999.849 705.27 999.809 705.325 999.786 705.388C999.764 705.451 999.76 705.519 999.776 705.584C999.793 705.649 999.827 705.707 999.877 705.752L1024.25 726.752Z" fill="white"/>
<path d="M986.524 800.842L942.984 773.293C942.947 773.269 942.915 773.239 942.89 773.203C942.865 773.167 942.847 773.126 942.837 773.083C942.828 773.041 942.828 772.996 942.835 772.953C942.843 772.91 942.86 772.869 942.884 772.833L953.924 755.383C953.947 755.345 953.978 755.313 954.014 755.288C954.05 755.263 954.09 755.245 954.133 755.236C954.176 755.227 954.22 755.226 954.263 755.234C954.306 755.242 954.347 755.258 954.384 755.282L1027.96 801.912C1028 801.936 1028.03 801.966 1028.06 802.002C1028.08 802.038 1028.1 802.079 1028.11 802.122C1028.12 802.164 1028.12 802.209 1028.11 802.252C1028.1 802.295 1028.09 802.336 1028.06 802.373L1017.59 818.893C1017.57 818.935 1017.53 818.971 1017.49 818.997C1017.44 819.023 1017.39 819.038 1017.34 819.042L952.764 824.412C952.694 824.417 952.628 824.444 952.575 824.489C952.521 824.534 952.484 824.595 952.467 824.663C952.45 824.731 952.455 824.802 952.482 824.867C952.508 824.931 952.555 824.986 952.614 825.023L995.944 852.453C995.981 852.476 996.013 852.506 996.038 852.542C996.063 852.578 996.081 852.619 996.09 852.662C996.1 852.704 996.1 852.749 996.092 852.792C996.084 852.835 996.068 852.876 996.044 852.912L984.924 870.453C984.901 870.49 984.87 870.522 984.834 870.547C984.798 870.572 984.758 870.59 984.715 870.599C984.672 870.608 984.628 870.609 984.585 870.601C984.542 870.593 984.501 870.577 984.464 870.553L910.904 823.943C910.867 823.919 910.835 823.889 910.81 823.853C910.785 823.817 910.767 823.776 910.757 823.733C910.748 823.691 910.748 823.646 910.756 823.603C910.764 823.56 910.78 823.519 910.804 823.483L921.324 806.852C921.351 806.81 921.388 806.774 921.431 806.748C921.475 806.722 921.524 806.707 921.574 806.703L986.374 801.453C986.444 801.448 986.51 801.421 986.563 801.376C986.617 801.331 986.654 801.27 986.671 801.202C986.688 801.134 986.682 801.063 986.656 800.998C986.63 800.934 986.583 800.879 986.524 800.842Z" fill="white"/>
<path d="M118.774 840.112L104.864 869.552C104.835 869.612 104.791 869.663 104.735 869.7C104.68 869.737 104.615 869.758 104.548 869.761C104.482 869.764 104.416 869.749 104.357 869.718C104.298 869.686 104.249 869.639 104.214 869.582L91.0045 848.582C90.9319 848.465 90.8927 848.33 90.8909 848.192C90.8891 848.055 90.9249 847.92 90.9945 847.802L104.284 824.882C104.451 824.602 104.448 824.322 104.274 824.042L95.7044 810.392C95.6438 810.296 95.5466 810.228 95.4342 810.204C95.3217 810.18 95.2032 810.201 95.1045 810.262L75.2945 822.752C75.0411 822.906 74.8344 822.859 74.6744 822.612L62.9145 803.922C62.8831 803.875 62.8615 803.821 62.851 803.765C62.8406 803.709 62.8414 803.651 62.8535 803.595C62.8656 803.539 62.8887 803.486 62.9215 803.439C62.9543 803.393 62.9961 803.353 63.0445 803.322L136.674 757.022C136.765 756.967 136.873 756.949 136.976 756.974C137.079 756.998 137.169 757.062 137.224 757.152C144.004 767.939 150.894 778.896 157.894 790.022C166.394 803.552 170.384 820.602 157.474 832.802C147.254 842.442 132.744 846.922 119.814 839.772C119.348 839.519 119.001 839.632 118.774 840.112ZM133.394 786.142L111.264 800.132C111.222 800.16 111.186 800.195 111.157 800.237C111.129 800.278 111.109 800.325 111.099 800.374C111.088 800.424 111.088 800.475 111.098 800.524C111.107 800.573 111.127 800.62 111.154 800.662L120.574 815.562C122.453 818.532 125.341 820.692 128.604 821.568C131.868 822.443 135.238 821.963 137.974 820.232L140.104 818.892C141.461 818.036 142.62 816.897 143.517 815.542C144.414 814.187 145.03 812.643 145.331 810.996C145.632 809.349 145.611 807.634 145.27 805.946C144.93 804.259 144.275 802.633 143.344 801.162L133.924 786.262C133.898 786.219 133.863 786.182 133.822 786.152C133.781 786.123 133.734 786.102 133.685 786.091C133.635 786.08 133.584 786.078 133.534 786.087C133.485 786.096 133.437 786.115 133.394 786.142Z" fill="white"/>
<path d="M204.734 855.942C220.094 863.182 232.244 878.492 234.254 895.872C237.444 923.422 213.854 946.612 186.664 944.322C166.644 942.642 148.144 926.422 143.114 907.082C133.574 870.412 170.354 839.722 204.734 855.942ZM170.918 916.448C173.214 918.589 175.93 920.233 178.912 921.286C181.895 922.34 185.085 922.783 188.3 922.589C191.515 922.395 194.693 921.569 197.651 920.157C200.61 918.746 203.292 916.777 205.543 914.362C207.795 911.947 209.572 909.135 210.774 906.085C211.976 903.035 212.578 899.808 212.547 896.587C212.516 893.366 211.852 890.215 210.593 887.313C209.334 884.412 207.505 881.816 205.209 879.676C202.914 877.535 200.197 875.891 197.215 874.838C194.233 873.784 191.043 873.342 187.828 873.535C184.612 873.729 181.435 874.555 178.476 875.967C175.518 877.379 172.836 879.348 170.584 881.762C168.333 884.177 166.555 886.989 165.354 890.039C164.152 893.089 163.549 896.317 163.58 899.538C163.611 902.758 164.275 905.91 165.534 908.811C166.793 911.713 168.623 914.308 170.918 916.448Z" fill="white"/>
<path d="M905.314 934.623L911.734 949.533C911.76 949.591 911.768 949.655 911.757 949.717C911.746 949.779 911.718 949.837 911.674 949.883L895.464 966.023C895.426 966.059 895.38 966.086 895.33 966.101C895.279 966.115 895.226 966.117 895.175 966.106C895.123 966.096 895.075 966.072 895.035 966.038C894.995 966.005 894.964 965.962 894.944 965.913L860.044 877.723C860.02 877.664 860.013 877.599 860.026 877.537C860.038 877.475 860.069 877.418 860.114 877.373L876.514 861.083C876.559 861.038 876.616 861.007 876.678 860.994C876.741 860.982 876.805 860.988 876.864 861.013L964.194 897.043C964.242 897.063 964.284 897.096 964.317 897.136C964.35 897.177 964.372 897.225 964.382 897.276C964.392 897.328 964.389 897.381 964.374 897.431C964.358 897.48 964.331 897.526 964.294 897.563L947.464 914.293C947.417 914.338 947.358 914.368 947.294 914.379C947.229 914.39 947.163 914.381 947.104 914.353L932.314 907.763C932.255 907.735 932.189 907.726 932.125 907.736C932.06 907.747 932.001 907.777 931.954 907.823L905.374 934.273C905.331 934.319 905.302 934.376 905.291 934.439C905.28 934.501 905.288 934.565 905.314 934.623ZM897.554 916.703C897.574 916.748 897.604 916.788 897.643 916.818C897.681 916.849 897.727 916.87 897.775 916.878C897.824 916.887 897.873 916.884 897.92 916.869C897.967 916.854 898.01 916.828 898.044 916.793L914.684 900.323C914.717 900.288 914.742 900.247 914.755 900.201C914.769 900.155 914.771 900.107 914.763 900.06C914.754 900.013 914.734 899.969 914.705 899.931C914.675 899.893 914.637 899.863 914.594 899.843L885.084 886.653C885.028 886.626 884.965 886.617 884.904 886.628C884.843 886.638 884.787 886.668 884.743 886.711C884.699 886.755 884.67 886.812 884.659 886.873C884.649 886.934 884.657 886.997 884.684 887.053L897.554 916.703Z" fill="white"/>
<path d="M266.226 910.942C266.268 910.874 266.334 910.826 266.411 910.807C266.487 910.789 266.569 910.801 266.636 910.842L300.486 932.242C305.386 935.339 309.653 939.331 313.043 943.99C316.433 948.649 318.881 953.884 320.246 959.395C321.611 964.906 321.867 970.586 320.999 976.11C320.13 981.635 318.155 986.895 315.186 991.592L313.536 994.192C310.568 998.889 306.663 1002.93 302.045 1006.08C297.427 1009.24 292.186 1011.44 286.622 1012.57C281.058 1013.71 275.279 1013.74 269.616 1012.68C263.953 1011.61 258.516 1009.47 253.616 1006.37L219.776 984.972C219.711 984.929 219.664 984.862 219.648 984.785C219.631 984.708 219.645 984.628 219.686 984.562L266.226 910.942ZM275.586 939.142L248.896 981.192C248.867 981.238 248.847 981.29 248.837 981.345C248.828 981.399 248.829 981.455 248.841 981.509C248.853 981.562 248.876 981.613 248.907 981.659C248.939 981.704 248.98 981.742 249.026 981.772L261.346 989.592C266.512 992.869 272.803 993.906 278.836 992.473C284.869 991.04 290.15 987.256 293.516 981.952L295.266 979.202C296.934 976.574 298.081 973.653 298.643 970.604C299.204 967.555 299.168 964.439 298.538 961.433C297.907 958.427 296.694 955.59 294.968 953.085C293.241 950.579 291.035 948.455 288.476 946.832L276.166 939.012C276.12 938.982 276.068 938.962 276.013 938.952C275.959 938.943 275.903 938.944 275.849 938.956C275.795 938.969 275.744 938.991 275.699 939.023C275.654 939.055 275.616 939.095 275.586 939.142Z" fill="white"/>
<path d="M803.427 947.053C788.627 964.893 807.317 992.443 829.397 986.493C839.717 983.713 846.277 973.803 848.477 963.633C848.491 963.565 848.518 963.5 848.558 963.442C848.598 963.385 848.65 963.336 848.709 963.299C848.769 963.262 848.836 963.236 848.906 963.225C848.976 963.214 849.048 963.216 849.117 963.233L867.337 967.853C867.435 967.877 867.521 967.938 867.575 968.024C867.629 968.11 867.648 968.214 867.627 968.313C864.017 985.963 852.097 1000.84 834.957 1006.74C801.707 1018.18 769.827 988.913 776.737 955.583C779.977 939.973 792.737 926.673 807.567 921.183C816.687 917.81 826.067 917.1 835.707 919.053C835.811 919.075 835.903 919.135 835.964 919.22C836.025 919.306 836.051 919.41 836.037 919.513L833.647 939.233C833.6 939.606 833.397 939.74 833.037 939.633C822.117 936.403 810.867 938.093 803.427 947.053Z" fill="white"/>
<path d="M741.005 959.062L720.544 968.129C720.407 968.189 720.346 968.349 720.406 968.485L755.751 1048.24C755.811 1048.38 755.971 1048.44 756.107 1048.38L776.568 1039.32C776.704 1039.25 776.766 1039.1 776.706 1038.96L741.361 959.199C741.301 959.063 741.141 959.001 741.005 959.062Z" fill="white"/>
<path d="M343.486 984.351C376.086 954.531 435.816 986.291 422.196 1031.57C416.746 1049.67 401.636 1061.76 382.726 1063.13C353.956 1065.22 326.536 1042.55 329.736 1012.12C330.816 1001.83 335.856 991.331 343.486 984.351ZM368.982 1041.93C375.005 1043.9 381.604 1043.26 387.327 1040.17C393.051 1037.08 397.431 1031.78 399.503 1025.44C400.53 1022.3 400.958 1019 400.765 1015.73C400.572 1012.46 399.761 1009.28 398.377 1006.37C396.994 1003.46 395.067 1000.88 392.704 998.776C390.342 996.674 387.591 995.091 384.609 994.116C378.587 992.148 371.988 992.778 366.264 995.87C360.54 998.961 356.16 1004.26 354.088 1010.6C353.062 1013.74 352.633 1017.04 352.826 1020.31C353.019 1023.59 353.831 1026.77 355.214 1029.68C356.597 1032.59 358.525 1035.17 360.887 1037.27C363.249 1039.37 366 1040.95 368.982 1041.93Z" fill="white"/>
<path d="M661.685 1078.46L641.545 1083.63C641.505 1083.64 641.462 1083.64 641.421 1083.64C641.379 1083.63 641.339 1083.62 641.303 1083.6C641.266 1083.58 641.235 1083.55 641.209 1083.51C641.184 1083.48 641.166 1083.44 641.155 1083.4L619.545 998.932C619.535 998.891 619.532 998.849 619.538 998.807C619.544 998.766 619.558 998.725 619.579 998.689C619.601 998.653 619.629 998.621 619.663 998.596C619.696 998.571 619.735 998.552 619.775 998.542L638.845 993.642C638.892 993.631 638.94 993.631 638.987 993.641C639.034 993.652 639.078 993.672 639.115 993.702L689.965 1034.38C690.018 1034.42 690.082 1034.45 690.149 1034.45C690.216 1034.46 690.283 1034.44 690.339 1034.4C690.396 1034.36 690.439 1034.31 690.464 1034.25C690.488 1034.19 690.492 1034.12 690.475 1034.05L677.655 984.052C677.645 984.011 677.642 983.969 677.648 983.927C677.654 983.885 677.668 983.845 677.69 983.809C677.711 983.773 677.739 983.741 677.773 983.716C677.806 983.691 677.845 983.672 677.885 983.662L697.895 978.522C697.936 978.511 697.978 978.509 698.02 978.515C698.062 978.521 698.102 978.535 698.138 978.556C698.174 978.577 698.206 978.606 698.231 978.639C698.256 978.673 698.275 978.711 698.285 978.752L719.915 1063.23C719.926 1063.27 719.928 1063.31 719.922 1063.36C719.917 1063.4 719.903 1063.44 719.881 1063.47C719.86 1063.51 719.832 1063.54 719.798 1063.57C719.764 1063.59 719.726 1063.61 719.685 1063.62L700.715 1068.48C700.669 1068.49 700.62 1068.49 700.574 1068.48C700.527 1068.47 700.483 1068.45 700.445 1068.42L649.675 1027.99C649.623 1027.95 649.559 1027.93 649.491 1027.92C649.424 1027.92 649.358 1027.94 649.301 1027.97C649.245 1028.01 649.201 1028.06 649.177 1028.13C649.152 1028.19 649.148 1028.26 649.165 1028.32L661.915 1078.07C661.926 1078.11 661.928 1078.15 661.922 1078.2C661.917 1078.24 661.903 1078.28 661.881 1078.31C661.86 1078.35 661.832 1078.38 661.798 1078.41C661.764 1078.43 661.726 1078.45 661.685 1078.46Z" fill="white"/>
<path d="M469.155 1031.78L464.065 1084.73C464.025 1085.14 463.799 1085.33 463.385 1085.29L444.195 1083.46C443.842 1083.43 443.682 1083.23 443.715 1082.88L452.055 996.501C452.089 996.168 452.272 996.018 452.605 996.051L476.385 998.341C476.582 998.359 476.769 998.434 476.925 998.556C477.081 998.679 477.199 998.844 477.265 999.031L495.155 1051.18C495.168 1051.22 495.192 1051.25 495.223 1051.28C495.254 1051.3 495.292 1051.32 495.332 1051.32C495.372 1051.33 495.413 1051.32 495.449 1051.3C495.485 1051.28 495.515 1051.26 495.535 1051.22L523.165 1003.28C523.319 1003.01 523.549 1002.9 523.855 1002.93L547.885 1005.24C548.192 1005.27 548.329 1005.43 548.295 1005.74L539.965 1092.2C539.939 1092.51 539.769 1092.66 539.455 1092.63L520.115 1090.78C520.064 1090.78 520.014 1090.76 519.969 1090.74C519.923 1090.71 519.883 1090.68 519.851 1090.64C519.818 1090.6 519.794 1090.55 519.779 1090.5C519.764 1090.45 519.76 1090.4 519.765 1090.35L524.785 1036.74C524.865 1035.87 524.692 1035.82 524.265 1036.59L500.395 1079.55C500.215 1079.88 499.939 1080.02 499.565 1079.99L485.835 1078.66C485.382 1078.61 485.082 1078.37 484.935 1077.94L469.885 1031.7C469.512 1030.56 469.269 1030.59 469.155 1031.78Z" fill="white"/>
<path d="M594.849 1000.31L572.564 1002.15C572.41 1002.16 572.295 1002.29 572.308 1002.45L579.456 1089.39C579.469 1089.55 579.604 1089.66 579.758 1089.65L602.043 1087.82C602.197 1087.8 602.312 1087.67 602.299 1087.52L595.151 1000.57C595.138 1000.41 595.003 1000.3 594.849 1000.31Z" fill="white"/>
</svg>
