<svg width="2000" height="2000" viewBox="0 0 2000 2000" fill="none" xmlns="http://www.w3.org/2000/svg">
<path d="M1052.99 214H1026.01C1025.45 214 1025 214.454 1025 215.014V263.986C1025 264.546 1025.45 265 1026.01 265H1052.99C1053.55 265 1054 264.546 1054 263.986V215.014C1054 214.454 1053.55 214 1052.99 214Z" fill="#DF5F34"/>
<path d="M624.153 884.089C624.153 884.209 624.113 884.325 624.04 884.42C623.967 884.515 623.865 884.583 623.75 884.614C623.634 884.645 623.512 884.637 623.401 884.592C623.291 884.546 623.198 884.465 623.138 884.362C559.74 777.885 544.677 653.104 578.766 534.036C606.613 436.848 670.63 351.161 753.254 294.855C801.746 261.805 854.672 239.527 912.034 228.019C912.149 227.993 912.268 227.994 912.383 228.022C912.498 228.049 912.606 228.103 912.699 228.18C912.791 228.256 912.866 228.352 912.918 228.462C912.97 228.571 912.998 228.692 913 228.813L912.975 1088.52C912.976 1088.59 912.962 1088.66 912.934 1088.72C912.906 1088.78 912.864 1088.84 912.812 1088.89C912.76 1088.93 912.699 1088.96 912.633 1088.98C912.567 1089 912.498 1089 912.43 1088.99C883.378 1083.07 855.796 1074.78 829.683 1064.13C829.295 1063.97 828.963 1063.7 828.729 1063.36C828.496 1063.01 828.371 1062.61 828.37 1062.19C828.535 981.723 828.519 930.997 828.321 910.018C828.056 880.545 829.171 858.507 831.665 843.902C837.182 811.614 848.066 780.303 864.318 749.969C867.266 744.43 866.771 739.785 866.795 733.626C866.961 633.102 866.919 543.325 866.672 464.293C866.666 464.261 866.654 464.23 866.635 464.203C866.617 464.176 866.593 464.154 866.566 464.139C866.539 464.124 866.509 464.117 866.48 464.118C866.451 464.119 866.423 464.128 866.399 464.144C808.212 498.254 759.026 543.068 718.842 598.587C657.616 683.215 626.053 778.382 624.153 884.089Z" fill="#DF5F34"/>
<path d="M1350.22 394.291C1350.3 394.391 1350.35 394.511 1350.36 394.637C1350.37 394.764 1350.35 394.892 1350.29 395.006C1350.23 395.121 1350.14 395.217 1350.03 395.284C1349.91 395.351 1349.78 395.386 1349.65 395.385H1211.07C1210.85 395.385 1210.65 395.472 1210.49 395.625C1210.34 395.779 1210.25 395.988 1210.25 396.205V599.103C1210.25 599.42 1210.38 599.723 1210.6 599.947C1210.82 600.171 1211.13 600.297 1211.44 600.297H1432.49C1432.9 600.299 1433.3 600.451 1433.61 600.726C1433.92 601 1434.12 601.377 1434.18 601.788C1442.63 666.28 1437.07 730.375 1417.5 794.073C1416.87 796.078 1416.32 798.091 1415.86 800.113C1415.3 802.582 1414.74 804.587 1414.2 806.128C1371.35 925.311 1282.62 1017.55 1165.52 1066.91C1165.35 1066.98 1165.17 1067.01 1164.99 1066.99C1164.81 1066.98 1164.63 1066.91 1164.48 1066.81C1164.33 1066.71 1164.21 1066.58 1164.13 1066.42C1164.04 1066.26 1164 1066.08 1164 1065.9V252.489C1164 252.407 1164.02 252.327 1164.06 252.255C1164.1 252.184 1164.16 252.123 1164.23 252.079C1164.3 252.035 1164.38 252.008 1164.46 252.002C1164.54 251.995 1164.62 252.009 1164.7 252.042C1195.22 265.215 1228.69 282.043 1252.82 299.889C1289.36 326.858 1323.06 358.002 1350.22 394.291Z" fill="#DF5F34"/>
<path d="M1053.02 378H1025.98C1025.44 378 1025 378.443 1025 378.99V489.01C1025 489.557 1025.44 490 1025.98 490H1053.02C1053.56 490 1054 489.557 1054 489.01V378.99C1054 378.443 1053.56 378 1053.02 378Z" fill="#DF5F34"/>
<path d="M1052.69 602H1026.31C1025.59 602 1025 602.587 1025 603.312V712.688C1025 713.413 1025.59 714 1026.31 714H1052.69C1053.41 714 1054 713.413 1054 712.688V603.312C1054 602.587 1053.41 602 1052.69 602Z" fill="#DF5F34"/>
<path d="M1052.89 827H1026.11C1025.5 827 1025 827.499 1025 828.114V937.886C1025 938.501 1025.5 939 1026.11 939H1052.89C1053.5 939 1054 938.501 1054 937.886V828.114C1054 827.499 1053.5 827 1052.89 827Z" fill="#DF5F34"/>
<path d="M1052.94 1050H1026.06C1025.47 1050 1025 1050.49 1025 1051.11V1101.89C1025 1102.51 1025.47 1103 1026.06 1103H1052.94C1053.53 1103 1054 1102.51 1054 1101.89V1051.11C1054 1050.49 1053.53 1050 1052.94 1050Z" fill="#DF5F34"/>
<path d="M97.1768 1234H31.8232C31.3686 1234 31 1234.37 31 1234.82V1531.18C31 1531.63 31.3686 1532 31.8232 1532H97.1768C97.6314 1532 98 1531.63 98 1531.18V1234.82C98 1234.37 97.6314 1234 97.1768 1234Z" fill="#245168"/>
<path d="M379.941 1233H445.13C445.244 1233 445.357 1233.02 445.463 1233.07C445.568 1233.11 445.664 1233.17 445.745 1233.26C445.826 1233.34 445.89 1233.43 445.934 1233.54C445.978 1233.64 446 1233.76 446 1233.87V1531.1C446 1531.22 445.978 1531.33 445.934 1531.44C445.89 1531.54 445.826 1531.64 445.745 1531.72C445.664 1531.8 445.568 1531.86 445.463 1531.91C445.357 1531.95 445.244 1531.98 445.13 1531.98H379.692C379.557 1531.98 379.424 1531.94 379.303 1531.88C379.182 1531.82 379.077 1531.73 378.996 1531.63L237.875 1346.91C237.765 1346.77 237.612 1346.66 237.438 1346.6C237.263 1346.55 237.076 1346.55 236.903 1346.61C236.729 1346.67 236.579 1346.78 236.472 1346.93C236.365 1347.07 236.308 1347.25 236.308 1347.44V1531.13C236.308 1531.36 236.216 1531.58 236.053 1531.74C235.889 1531.91 235.668 1532 235.437 1532H170.87C170.64 1532 170.418 1531.91 170.255 1531.74C170.092 1531.58 170 1531.36 170 1531.13V1233.9C170 1233.78 170.022 1233.67 170.066 1233.56C170.11 1233.46 170.174 1233.36 170.255 1233.28C170.336 1233.2 170.432 1233.14 170.537 1233.09C170.643 1233.05 170.756 1233.02 170.87 1233.02H231.607C231.742 1233.02 231.875 1233.06 231.996 1233.12C232.117 1233.18 232.222 1233.27 232.303 1233.37L377.504 1423.44C377.613 1423.59 377.766 1423.7 377.94 1423.75C378.115 1423.81 378.302 1423.81 378.475 1423.75C378.649 1423.69 378.799 1423.58 378.906 1423.43C379.013 1423.28 379.071 1423.1 379.071 1422.92V1233.87C379.071 1233.64 379.162 1233.42 379.325 1233.26C379.489 1233.09 379.71 1233 379.941 1233Z" fill="#245168"/>
<path d="M612.988 1532C592.997 1532 582.231 1531.97 580.688 1531.9C580.49 1531.89 580.302 1531.81 580.164 1531.66C580.026 1531.51 579.949 1531.31 579.95 1531.1V1293.08C579.95 1292.68 579.791 1292.29 579.51 1292.01C579.228 1291.72 578.846 1291.56 578.448 1291.56H497.576C497.158 1291.56 496.757 1291.39 496.461 1291.09C496.166 1290.78 496 1290.37 496 1289.94V1235.91C496 1235.43 496.186 1234.97 496.517 1234.62C496.849 1234.28 497.3 1234.08 497.773 1234.07C499.348 1234.02 537.761 1234 613.012 1234C688.247 1234.02 726.652 1234.04 728.228 1234.07C728.7 1234.08 729.151 1234.28 729.483 1234.62C729.814 1234.97 730 1235.43 730 1235.91V1289.94C730 1290.37 729.834 1290.78 729.539 1291.09C729.243 1291.39 728.842 1291.56 728.425 1291.56H647.552C647.154 1291.56 646.772 1291.72 646.49 1292.01C646.209 1292.29 646.051 1292.68 646.051 1293.08L646.026 1531.1C646.026 1531.31 645.949 1531.51 645.811 1531.66C645.674 1531.81 645.486 1531.89 645.287 1531.9C643.745 1531.97 632.978 1532 612.988 1532Z" fill="#245168"/>
<path d="M1039.04 1532H960.47C960.179 1532 959.892 1531.93 959.633 1531.79C959.374 1531.65 959.15 1531.45 958.982 1531.2L892.71 1437.8C892.518 1437.52 892.265 1437.3 891.972 1437.14C891.678 1436.99 891.353 1436.9 891.024 1436.9H848.132C847.737 1436.9 847.359 1437.06 847.08 1437.35C846.801 1437.63 846.644 1438.02 846.644 1438.42V1530.46C846.644 1530.87 846.482 1531.26 846.194 1531.55C845.906 1531.84 845.515 1532 845.107 1532H781.612C781.184 1532 780.774 1531.83 780.472 1531.53C780.17 1531.22 780 1530.81 780 1530.38V1234.83C780 1234.73 780.02 1234.63 780.059 1234.54C780.097 1234.44 780.154 1234.36 780.225 1234.29C780.297 1234.21 780.381 1234.16 780.475 1234.12C780.568 1234.08 780.668 1234.06 780.769 1234.06C836.024 1233.96 874.008 1233.99 894.718 1234.13C928.114 1234.38 975.37 1237.74 999.816 1264.29C1009.19 1274.48 1015.39 1286.43 1018.44 1300.12C1027.83 1342.68 1020.99 1400.13 976.238 1420.42C973.974 1421.43 970.808 1423.01 966.742 1425.15C966.593 1425.22 966.463 1425.33 966.359 1425.46C966.255 1425.59 966.181 1425.74 966.141 1425.91C966.101 1426.07 966.096 1426.24 966.127 1426.4C966.158 1426.57 966.224 1426.72 966.321 1426.86L1039.81 1530.48C1039.92 1530.62 1039.98 1530.79 1040 1530.97C1040.01 1531.15 1039.98 1531.32 1039.9 1531.48C1039.82 1531.64 1039.69 1531.77 1039.54 1531.87C1039.39 1531.96 1039.22 1532 1039.04 1532ZM846.619 1292.96V1378.53C846.619 1378.69 846.684 1378.84 846.8 1378.96C846.915 1379.08 847.073 1379.14 847.239 1379.15C869.817 1379.85 891.032 1379.63 910.883 1378.5C921.776 1377.88 930.503 1375.58 937.065 1371.62C953.825 1361.5 956.23 1338.68 953.18 1321.05C950.751 1306.93 943.561 1298.82 929.974 1295C926.9 1294.13 922.065 1292.66 918.693 1292.46C895.586 1291.07 872.057 1290.72 848.107 1291.42C847.708 1291.43 847.33 1291.6 847.052 1291.88C846.774 1292.17 846.619 1292.56 846.619 1292.96Z" fill="#245168"/>
<path d="M1212.51 1234C1227.82 1234 1238.18 1234.12 1243.61 1234.35C1244.04 1234.37 1244.46 1234.51 1244.82 1234.76C1245.17 1235 1245.45 1235.34 1245.62 1235.74L1373.94 1531.06C1373.99 1531.16 1374.01 1531.27 1374 1531.38C1373.99 1531.5 1373.95 1531.6 1373.89 1531.7C1373.83 1531.79 1373.74 1531.87 1373.64 1531.92C1373.54 1531.97 1373.43 1532 1373.32 1532H1304.53C1304.15 1532 1303.77 1531.88 1303.45 1531.67C1303.12 1531.45 1302.87 1531.14 1302.71 1530.78L1275.95 1469.17C1275.76 1468.73 1275.44 1468.36 1275.04 1468.1C1274.64 1467.83 1274.17 1467.69 1273.68 1467.68C1270.61 1467.68 1250.22 1467.68 1212.51 1467.68C1174.8 1467.68 1154.4 1467.68 1151.32 1467.68C1150.83 1467.69 1150.36 1467.83 1149.96 1468.1C1149.56 1468.36 1149.24 1468.73 1149.05 1469.17L1122.29 1530.78C1122.13 1531.14 1121.88 1531.45 1121.55 1531.67C1121.23 1531.88 1120.85 1532 1120.47 1532H1051.68C1051.57 1532 1051.46 1531.97 1051.36 1531.92C1051.26 1531.87 1051.17 1531.79 1051.11 1531.7C1051.05 1531.6 1051.01 1531.5 1051 1531.38C1050.99 1531.27 1051.01 1531.16 1051.06 1531.06L1179.4 1235.74C1179.57 1235.35 1179.85 1235.01 1180.2 1234.76C1180.55 1234.52 1180.96 1234.37 1181.39 1234.35C1186.84 1234.12 1197.21 1234 1212.51 1234ZM1175.47 1408.14C1175.42 1408.25 1175.4 1408.37 1175.41 1408.49C1175.42 1408.62 1175.46 1408.73 1175.52 1408.84C1175.59 1408.94 1175.68 1409.03 1175.79 1409.09C1175.9 1409.15 1176.02 1409.18 1176.14 1409.18L1248.94 1409.3C1249.06 1409.3 1249.18 1409.27 1249.29 1409.21C1249.39 1409.15 1249.49 1409.07 1249.55 1408.96C1249.62 1408.86 1249.66 1408.74 1249.67 1408.62C1249.68 1408.5 1249.66 1408.37 1249.61 1408.26L1213.36 1324.28C1213.3 1324.14 1213.21 1324.03 1213.08 1323.95C1212.96 1323.87 1212.82 1323.83 1212.67 1323.83C1212.53 1323.83 1212.39 1323.87 1212.27 1323.95C1212.14 1324.03 1212.05 1324.14 1211.99 1324.28L1175.47 1408.14Z" fill="#245168"/>
<path d="M1616.29 1424.51C1616.37 1424.6 1616.47 1424.67 1616.58 1424.71C1616.69 1424.74 1616.81 1424.74 1616.92 1424.7C1617.04 1424.66 1617.13 1424.59 1617.2 1424.49C1617.27 1424.4 1617.31 1424.28 1617.31 1424.16L1617.34 1235.52C1617.34 1235.12 1617.49 1234.74 1617.76 1234.46C1618.04 1234.18 1618.41 1234.02 1618.8 1234.02H1683.26C1683.45 1234.02 1683.64 1234.11 1683.78 1234.25C1683.92 1234.4 1684 1234.59 1684 1234.8L1683.98 1531.13C1683.98 1531.36 1683.88 1531.58 1683.72 1531.74C1683.56 1531.91 1683.34 1532 1683.11 1532H1618.83C1618.35 1532 1617.89 1531.89 1617.47 1531.68C1617.04 1531.47 1616.68 1531.16 1616.39 1530.78L1476.04 1346.52C1475.97 1346.42 1475.88 1346.36 1475.77 1346.32C1475.67 1346.29 1475.55 1346.29 1475.45 1346.33C1475.34 1346.36 1475.25 1346.43 1475.19 1346.52C1475.12 1346.62 1475.09 1346.73 1475.09 1346.84V1530.53C1475.09 1530.72 1475.05 1530.92 1474.98 1531.09C1474.9 1531.27 1474.8 1531.43 1474.66 1531.57C1474.52 1531.71 1474.35 1531.81 1474.17 1531.89C1473.99 1531.96 1473.8 1532 1473.6 1532L1409.72 1531.95C1409.63 1531.95 1409.53 1531.93 1409.44 1531.9C1409.36 1531.86 1409.28 1531.81 1409.21 1531.75C1409.14 1531.68 1409.09 1531.6 1409.05 1531.52C1409.02 1531.44 1409 1531.34 1409 1531.25L1409.05 1234.97C1409.05 1234.72 1409.15 1234.48 1409.33 1234.3C1409.5 1234.12 1409.74 1234.02 1409.99 1234.02L1469.61 1234C1469.98 1234 1470.36 1234.09 1470.7 1234.25C1471.04 1234.42 1471.34 1234.67 1471.57 1234.97L1616.29 1424.51Z" fill="#245168"/>
<path d="M1850.5 1234C1926.71 1234 1965.61 1234.02 1967.2 1234.07C1967.68 1234.08 1968.14 1234.28 1968.48 1234.62C1968.81 1234.97 1969 1235.43 1969 1235.91V1289.94C1969 1290.15 1968.96 1290.36 1968.88 1290.56C1968.8 1290.75 1968.68 1290.93 1968.53 1291.08C1968.38 1291.23 1968.21 1291.35 1968.02 1291.43C1967.82 1291.51 1967.61 1291.56 1967.4 1291.56H1885.5C1885.1 1291.56 1884.71 1291.72 1884.43 1292C1884.14 1292.28 1883.98 1292.67 1883.98 1293.07V1531.08C1883.98 1531.29 1883.91 1531.49 1883.77 1531.63C1883.63 1531.78 1883.44 1531.87 1883.24 1531.88C1881.67 1531.96 1870.77 1532 1850.52 1532C1830.26 1532 1819.35 1531.96 1817.79 1531.88C1817.59 1531.87 1817.4 1531.78 1817.26 1531.63C1817.12 1531.49 1817.04 1531.29 1817.04 1531.08L1817.02 1293.07C1817.02 1292.67 1816.86 1292.28 1816.57 1292C1816.29 1291.72 1815.9 1291.56 1815.5 1291.56H1733.6C1733.17 1291.56 1732.77 1291.39 1732.47 1291.08C1732.17 1290.78 1732 1290.37 1732 1289.94V1235.91C1732 1235.43 1732.19 1234.97 1732.52 1234.62C1732.86 1234.28 1733.32 1234.08 1733.8 1234.07C1735.39 1234.04 1774.29 1234.02 1850.5 1234Z" fill="#245168"/>
<path d="M1607.49 1576.06L1622.47 1581.74C1622.61 1581.79 1622.73 1581.87 1622.82 1581.98C1622.91 1582.08 1622.97 1582.21 1622.99 1582.34C1623.01 1582.47 1622.99 1582.61 1622.94 1582.73C1622.88 1582.85 1622.79 1582.96 1622.67 1583.04L1608.53 1592.84C1608.38 1592.94 1608.2 1593 1608.02 1593H1594.83C1594.68 1593 1594.53 1592.96 1594.4 1592.89C1594.27 1592.82 1594.16 1592.72 1594.09 1592.59C1594.02 1592.47 1593.99 1592.33 1594 1592.2C1594.01 1592.06 1594.06 1591.93 1594.15 1591.81L1606.51 1576.31C1606.62 1576.17 1606.77 1576.07 1606.95 1576.03C1607.13 1575.98 1607.32 1575.99 1607.49 1576.06Z" fill="#1D4E5C"/>
<path d="M150.251 1652.13C156.62 1658.16 169.709 1665.02 178.31 1660.03C179.068 1659.59 179.727 1659 180.242 1658.29C180.758 1657.59 181.119 1656.79 181.302 1655.95C181.484 1655.11 181.484 1654.24 181.301 1653.41C181.118 1652.58 180.757 1651.81 180.24 1651.13C178.819 1649.27 176.471 1647.88 173.194 1646.97C162.939 1644.1 150.501 1641.61 145.537 1633.71C141.475 1627.26 141.048 1620.44 144.258 1613.24C152.884 1593.97 181.845 1598.76 196.188 1608.56C196.364 1608.68 196.515 1608.83 196.631 1609.01C196.746 1609.19 196.825 1609.39 196.863 1609.59C196.9 1609.8 196.895 1610.02 196.848 1610.22C196.801 1610.43 196.713 1610.63 196.589 1610.8L189.518 1620.55C189.406 1620.7 189.263 1620.83 189.097 1620.93C188.932 1621.03 188.748 1621.09 188.556 1621.12C188.364 1621.14 188.168 1621.13 187.98 1621.08C187.792 1621.03 187.616 1620.94 187.462 1620.82C182.472 1616.88 162.889 1609.08 159.93 1619.75C158.776 1624.01 162.563 1627.55 166.499 1628.35C171.13 1629.3 177.181 1631.24 184.654 1634.18C207.346 1643.13 201.755 1672.67 177.457 1675.59C163.248 1677.3 150.936 1673.69 140.522 1664.77C140.24 1664.53 140.058 1664.2 140.012 1663.83C139.965 1663.47 140.058 1663.1 140.271 1662.8L147.894 1652.33C148.023 1652.15 148.191 1652 148.385 1651.89C148.579 1651.78 148.794 1651.72 149.018 1651.7C149.241 1651.68 149.467 1651.71 149.68 1651.78C149.892 1651.86 150.087 1651.97 150.251 1652.13Z" fill="#1D4E5C"/>
<path d="M591 1638C591 1648.08 586.891 1657.74 579.577 1664.87C572.263 1672 562.344 1676 552 1676C546.879 1676 541.807 1675.02 537.075 1673.11C532.344 1671.2 528.044 1668.4 524.423 1664.87C520.801 1661.34 517.929 1657.15 515.969 1652.54C514.009 1647.93 513 1642.99 513 1638C513 1633.01 514.009 1628.07 515.969 1623.46C517.929 1618.85 520.801 1614.66 524.423 1611.13C528.044 1607.6 532.344 1604.8 537.075 1602.89C541.807 1600.98 546.879 1600 552 1600C562.344 1600 572.263 1604 579.577 1611.13C586.891 1618.26 591 1627.92 591 1638ZM552.049 1614.33C546.216 1614.33 540.621 1616.82 536.496 1621.24C532.371 1625.66 530.053 1631.65 530.053 1637.9C530.053 1644.15 532.371 1650.15 536.496 1654.57C540.621 1658.99 546.216 1661.47 552.049 1661.47C557.883 1661.47 563.478 1658.99 567.603 1654.57C571.728 1650.15 574.046 1644.15 574.046 1637.9C574.046 1631.65 571.728 1625.66 567.603 1621.24C563.478 1616.82 557.883 1614.33 552.049 1614.33Z" fill="#1D4E5C"/>
<path d="M811.047 1637.86C810.923 1656.41 826.856 1663.8 843.111 1658.42C846.013 1657.48 848.446 1655.73 850.409 1653.2C850.688 1652.83 851.049 1652.53 851.462 1652.33C851.876 1652.12 852.331 1652.02 852.793 1652.02C853.255 1652.02 853.71 1652.13 854.125 1652.34C854.54 1652.55 854.902 1652.85 855.184 1653.22L861.072 1660.94C861.518 1661.53 861.728 1662.27 861.659 1663.01C861.591 1663.75 861.248 1664.43 860.701 1664.92C835.886 1687.7 793.754 1673.76 794.001 1637.74C794.248 1601.72 836.554 1588.35 861.072 1611.48C861.609 1611.98 861.937 1612.67 861.992 1613.4C862.047 1614.14 861.824 1614.87 861.369 1615.46L855.382 1623.1C855.094 1623.47 854.728 1623.76 854.31 1623.96C853.892 1624.17 853.434 1624.27 852.972 1624.26C852.511 1624.26 852.057 1624.15 851.647 1623.94C851.236 1623.73 850.881 1623.42 850.607 1623.05C848.677 1620.48 846.277 1618.7 843.407 1617.72C827.203 1612.12 811.171 1619.29 811.047 1637.86Z" fill="#1D4E5C"/>
<path d="M984.999 1637.8C985.053 1647.87 980.943 1657.56 973.573 1664.73C966.203 1671.89 956.177 1675.95 945.701 1676C940.514 1676.03 935.373 1675.07 930.57 1673.19C925.768 1671.3 921.399 1668.52 917.712 1665.01C914.025 1661.5 911.094 1657.33 909.084 1652.73C907.075 1648.13 906.027 1643.19 906.001 1638.2C905.947 1628.13 910.058 1618.44 917.427 1611.27C924.797 1604.11 934.823 1600.05 945.299 1600C950.486 1599.97 955.627 1600.93 960.43 1602.81C965.232 1604.7 969.601 1607.48 973.288 1610.99C976.975 1614.5 979.906 1618.67 981.916 1623.27C983.925 1627.87 984.973 1632.81 984.999 1637.8ZM945.55 1614.33C939.641 1614.33 933.975 1616.82 929.797 1621.24C925.619 1625.66 923.272 1631.65 923.272 1637.9C923.272 1644.15 925.619 1650.15 929.797 1654.57C933.975 1658.99 939.641 1661.47 945.55 1661.47C951.459 1661.47 957.125 1658.99 961.303 1654.57C965.481 1650.15 967.828 1644.15 967.828 1637.9C967.828 1631.65 965.481 1625.66 961.303 1621.24C957.125 1616.82 951.459 1614.33 945.55 1614.33Z" fill="#1D4E5C"/>
<path d="M1732.28 1662.78L1740.03 1652.31C1740.16 1652.13 1740.33 1651.98 1740.53 1651.87C1740.73 1651.76 1740.94 1651.69 1741.17 1651.68C1741.4 1651.66 1741.63 1651.69 1741.85 1651.76C1742.06 1651.84 1742.26 1651.95 1742.43 1652.11C1748.9 1658.17 1762.22 1665.02 1770.97 1660.04C1771.74 1659.59 1772.41 1659 1772.93 1658.3C1773.46 1657.59 1773.82 1656.79 1774.01 1655.95C1774.19 1655.11 1774.19 1654.25 1774.01 1653.42C1773.82 1652.59 1773.45 1651.81 1772.93 1651.14C1771.48 1649.28 1769.1 1647.89 1765.76 1646.97C1755.33 1644.11 1742.68 1641.61 1737.63 1633.71C1733.52 1627.24 1733.09 1620.42 1736.36 1613.24C1745.13 1593.97 1774.59 1598.76 1789.15 1608.58C1789.33 1608.7 1789.48 1608.85 1789.6 1609.03C1789.72 1609.21 1789.8 1609.41 1789.84 1609.62C1789.87 1609.83 1789.87 1610.04 1789.82 1610.25C1789.77 1610.45 1789.68 1610.65 1789.56 1610.82L1782.37 1620.55C1782.25 1620.7 1782.11 1620.83 1781.94 1620.93C1781.77 1621.03 1781.58 1621.09 1781.39 1621.12C1781.19 1621.14 1780.99 1621.13 1780.8 1621.08C1780.61 1621.03 1780.43 1620.94 1780.27 1620.82C1775.2 1616.88 1755.31 1609.08 1752.27 1619.75C1751.1 1624.01 1754.95 1627.55 1758.95 1628.35C1763.66 1629.3 1769.82 1631.24 1777.42 1634.18C1800.5 1643.16 1794.79 1672.68 1770.07 1675.59C1755.64 1677.29 1743.12 1673.67 1732.53 1664.75C1732.24 1664.51 1732.06 1664.18 1732.01 1663.81C1731.96 1663.45 1732.06 1663.08 1732.28 1662.78Z" fill="#1D4E5C"/>
<path d="M1898 1637.86C1898.04 1627.79 1902.18 1618.13 1909.52 1611.03C1916.86 1603.93 1926.79 1599.96 1937.13 1600C1942.25 1600.02 1947.32 1601.02 1952.05 1602.95C1956.77 1604.87 1961.06 1607.69 1964.67 1611.23C1968.28 1614.77 1971.14 1618.97 1973.08 1623.58C1975.03 1628.2 1976.02 1633.15 1976 1638.14C1975.96 1648.21 1971.82 1657.87 1964.48 1664.97C1957.14 1672.07 1947.21 1676.04 1936.87 1676C1931.75 1675.98 1926.68 1674.98 1921.95 1673.05C1917.23 1671.13 1912.94 1668.31 1909.33 1664.77C1905.72 1661.23 1902.86 1657.03 1900.92 1652.42C1898.97 1647.8 1897.98 1642.85 1898 1637.86ZM1937.01 1614.32C1934.12 1614.32 1931.26 1614.94 1928.59 1616.13C1925.93 1617.32 1923.51 1619.06 1921.47 1621.25C1919.43 1623.45 1917.81 1626.05 1916.71 1628.91C1915.61 1631.77 1915.05 1634.84 1915.05 1637.94C1915.06 1641.04 1915.63 1644.1 1916.74 1646.96C1917.85 1649.82 1919.48 1652.42 1921.52 1654.6C1923.57 1656.79 1926 1658.52 1928.67 1659.7C1931.34 1660.88 1934.2 1661.49 1937.09 1661.48C1939.98 1661.48 1942.84 1660.86 1945.5 1659.67C1948.17 1658.48 1950.59 1656.74 1952.63 1654.55C1954.67 1652.36 1956.29 1649.75 1957.39 1646.89C1958.49 1644.03 1959.05 1640.96 1959.05 1637.86C1959.04 1634.77 1958.47 1631.7 1957.36 1628.84C1956.24 1625.98 1954.62 1623.38 1952.57 1621.2C1950.53 1619.01 1948.1 1617.28 1945.43 1616.1C1942.76 1614.92 1939.9 1614.31 1937.01 1614.32Z" fill="#1D4E5C"/>
<path d="M39.1138 1602H24.8862C24.3968 1602 24 1602.41 24 1602.91V1674.09C24 1674.59 24.3968 1675 24.8862 1675H39.1138C39.6032 1675 40 1674.59 40 1674.09V1602.91C40 1602.41 39.6032 1602 39.1138 1602Z" fill="#1D4E5C"/>
<path d="M98.8546 1634.23C104.175 1641.15 107.678 1645.71 109.362 1647.9C109.433 1647.98 109.528 1648.05 109.635 1648.08C109.742 1648.11 109.856 1648.11 109.962 1648.07C110.068 1648.04 110.16 1647.97 110.228 1647.88C110.295 1647.79 110.333 1647.69 110.338 1647.57V1602.87C110.338 1602.64 110.428 1602.42 110.587 1602.26C110.747 1602.09 110.963 1602 111.189 1602H126.174C126.283 1602 126.39 1602.02 126.49 1602.06C126.591 1602.11 126.682 1602.17 126.758 1602.25C126.835 1602.33 126.896 1602.42 126.937 1602.52C126.979 1602.63 127 1602.74 127 1602.85V1674.51C127 1674.9 126.842 1675.27 126.56 1675.54C126.279 1675.82 125.897 1675.98 125.499 1675.98L112.49 1675.93C111.965 1675.93 111.445 1675.81 110.966 1675.59C110.487 1675.37 110.06 1675.05 109.712 1674.66C109.562 1674.49 101.665 1664.23 86.0203 1643.87C80.7831 1636.88 77.3223 1632.29 75.6378 1630.1C75.5671 1630.02 75.4719 1629.95 75.3648 1629.92C75.2577 1629.89 75.1437 1629.89 75.0379 1629.93C74.9321 1629.96 74.8395 1630.03 74.7724 1630.12C74.7053 1630.21 74.6668 1630.31 74.662 1630.43V1675.13C74.662 1675.24 74.64 1675.36 74.5973 1675.46C74.5545 1675.57 74.4919 1675.66 74.4129 1675.74C74.3339 1675.83 74.2402 1675.89 74.137 1675.93C74.0338 1675.98 73.9231 1676 73.8114 1676H58.8256C58.6066 1676 58.3966 1675.91 58.2418 1675.75C58.087 1675.59 58 1675.38 58 1675.15V1603.49C58 1603.1 58.1581 1602.73 58.4396 1602.46C58.7211 1602.18 59.1029 1602.02 59.501 1602.02L72.5105 1602.07C73.037 1602.08 73.5576 1602.19 74.0369 1602.42C74.5161 1602.64 74.9427 1602.97 75.2875 1603.37C75.4376 1603.53 83.2933 1613.82 98.8546 1634.23Z" fill="#1D4E5C"/>
<path d="M234.988 1602.01C244.658 1602 253.969 1602 262.92 1602.01C263.206 1602.01 263.481 1602.13 263.684 1602.34C263.886 1602.54 264 1602.82 264 1603.12V1615.12C264 1615.26 263.973 1615.39 263.921 1615.51C263.87 1615.64 263.794 1615.75 263.698 1615.85C263.602 1615.94 263.489 1616.02 263.364 1616.07C263.239 1616.12 263.105 1616.15 262.969 1616.15H244.609C244.232 1616.15 243.87 1616.3 243.603 1616.57C243.336 1616.83 243.186 1617.2 243.186 1617.57V1674.03C243.187 1674.17 243.159 1674.31 243.102 1674.44C243.045 1674.56 242.961 1674.67 242.855 1674.77C242.75 1674.86 242.627 1674.92 242.493 1674.96C242.359 1675 242.219 1675.01 242.081 1674.99C242.016 1674.97 239.651 1674.96 234.988 1674.96C230.341 1674.96 227.984 1674.97 227.919 1674.99C227.781 1675.01 227.641 1675 227.507 1674.96C227.373 1674.92 227.25 1674.86 227.144 1674.77C227.039 1674.67 226.955 1674.56 226.898 1674.44C226.841 1674.31 226.813 1674.17 226.814 1674.03V1617.57C226.814 1617.2 226.664 1616.83 226.397 1616.57C226.13 1616.3 225.768 1616.15 225.391 1616.15H207.031C206.757 1616.15 206.495 1616.04 206.302 1615.85C206.109 1615.66 206 1615.39 206 1615.12V1603.12C206 1602.82 206.114 1602.54 206.316 1602.34C206.519 1602.13 206.794 1602.01 207.08 1602.01C216.031 1602 225.333 1602 234.988 1602.01Z" fill="#1D4E5C"/>
<path d="M291.277 1602H276.723C276.324 1602 276 1602.33 276 1602.74V1674.26C276 1674.67 276.324 1675 276.723 1675H291.277C291.676 1675 292 1674.67 292 1674.26V1602.74C292 1602.33 291.676 1602 291.277 1602Z" fill="#1D4E5C"/>
<path d="M333.488 1674.96C328.76 1674.96 326.363 1674.97 326.297 1674.99C326.157 1675.01 326.014 1675 325.878 1674.96C325.742 1674.92 325.616 1674.86 325.509 1674.77C325.402 1674.67 325.317 1674.56 325.259 1674.43C325.201 1674.31 325.171 1674.17 325.173 1674.03V1617.57C325.173 1617.19 325.021 1616.83 324.749 1616.56C324.477 1616.3 324.109 1616.15 323.725 1616.15H305.049C304.771 1616.15 304.504 1616.04 304.307 1615.84C304.111 1615.65 304 1615.39 304 1615.11V1603.11C304 1602.96 304.029 1602.81 304.086 1602.68C304.143 1602.54 304.226 1602.42 304.331 1602.32C304.435 1602.21 304.559 1602.13 304.696 1602.08C304.832 1602.02 304.977 1602 305.124 1602C314.229 1602 323.692 1602 333.512 1602C343.333 1602 352.796 1602.01 361.901 1602.02C362.189 1602.02 362.464 1602.14 362.67 1602.34C362.875 1602.54 362.994 1602.82 363 1603.11V1615.11C363 1615.39 362.89 1615.65 362.693 1615.84C362.496 1616.04 362.229 1616.15 361.951 1616.15H343.275C342.891 1616.15 342.523 1616.3 342.251 1616.56C341.979 1616.83 341.827 1617.19 341.827 1617.57V1674.03C341.829 1674.17 341.799 1674.31 341.741 1674.43C341.683 1674.56 341.598 1674.67 341.491 1674.77C341.384 1674.86 341.258 1674.92 341.122 1674.96C340.986 1675 340.843 1675.01 340.703 1674.99C340.637 1674.97 338.231 1674.96 333.488 1674.96Z" fill="#1D4E5C"/>
<path d="M405.511 1661.38C415.016 1661.38 420.199 1654.22 420.881 1645.23C421.016 1643.36 421.041 1629.29 420.957 1603.04C420.954 1602.9 420.978 1602.77 421.029 1602.64C421.079 1602.52 421.155 1602.4 421.252 1602.31C421.348 1602.21 421.464 1602.13 421.591 1602.08C421.719 1602.03 421.856 1602 421.994 1602H436.758C437.046 1602 437.322 1602.11 437.526 1602.31C437.73 1602.51 437.845 1602.78 437.845 1603.06C437.693 1616.2 437.735 1628.01 437.971 1638.49C438.207 1648.29 437.002 1655.46 434.356 1660C427.985 1670.96 418.404 1675.98 405.511 1676C392.643 1676 383.036 1670.99 376.665 1660.02C374.019 1655.5 372.806 1648.34 373.025 1638.54C373.244 1628.06 373.269 1616.25 373.101 1603.11C373.101 1602.83 373.216 1602.56 373.419 1602.36C373.623 1602.16 373.9 1602.05 374.188 1602.05L388.952 1602.02C389.09 1602.02 389.227 1602.05 389.354 1602.1C389.482 1602.16 389.597 1602.23 389.694 1602.33C389.791 1602.43 389.866 1602.54 389.917 1602.67C389.968 1602.79 389.992 1602.93 389.988 1603.06C389.938 1629.32 389.98 1643.37 390.115 1645.23C390.823 1654.25 396.005 1661.38 405.511 1661.38Z" fill="#1D4E5C"/>
<path d="M477.488 1674.96C472.76 1674.96 470.363 1674.97 470.297 1674.99C470.157 1675.01 470.014 1675 469.878 1674.96C469.742 1674.92 469.616 1674.86 469.509 1674.77C469.402 1674.67 469.317 1674.56 469.259 1674.44C469.201 1674.31 469.171 1674.17 469.173 1674.03V1617.57C469.173 1617.2 469.021 1616.83 468.749 1616.57C468.477 1616.3 468.109 1616.15 467.725 1616.15H449.049C448.771 1616.15 448.504 1616.04 448.307 1615.85C448.11 1615.66 448 1615.39 448 1615.12V1603.12C448 1602.82 448.116 1602.54 448.322 1602.34C448.528 1602.13 448.807 1602.01 449.099 1602.01C458.22 1602 467.692 1602 477.512 1602.01C487.333 1602 496.796 1602 505.901 1602.01C506.193 1602.01 506.472 1602.13 506.678 1602.34C506.884 1602.54 507 1602.82 507 1603.12V1615.12C507 1615.39 506.889 1615.66 506.693 1615.85C506.496 1616.04 506.229 1616.15 505.951 1616.15H487.275C486.891 1616.15 486.523 1616.3 486.251 1616.57C485.979 1616.83 485.827 1617.2 485.827 1617.57V1674.03C485.829 1674.17 485.799 1674.31 485.741 1674.44C485.683 1674.56 485.598 1674.67 485.491 1674.77C485.384 1674.86 485.258 1674.92 485.122 1674.96C484.986 1675 484.843 1675.01 484.703 1674.99C484.637 1674.97 482.231 1674.96 477.488 1674.96Z" fill="#1D4E5C"/>
<path d="M661.041 1643.86C655.8 1636.88 652.328 1632.3 650.626 1630.11C650.555 1630.03 650.46 1629.96 650.352 1629.93C650.245 1629.9 650.131 1629.9 650.025 1629.94C649.919 1629.97 649.827 1630.04 649.76 1630.13C649.693 1630.22 649.654 1630.32 649.649 1630.43V1675.13C649.649 1675.36 649.563 1675.57 649.409 1675.74C649.255 1675.9 649.044 1675.99 648.823 1676H633.826C633.607 1676 633.397 1675.91 633.242 1675.75C633.087 1675.59 633 1675.38 633 1675.15V1603.52C633 1603.13 633.158 1602.76 633.44 1602.48C633.722 1602.2 634.104 1602.05 634.502 1602.05L647.521 1602.1C648.046 1602.1 648.566 1602.21 649.045 1602.43C649.525 1602.65 649.953 1602.97 650.3 1603.37C650.434 1603.54 658.287 1613.83 673.859 1634.24C679.167 1641.15 682.672 1645.7 684.375 1647.89C684.445 1647.97 684.541 1648.04 684.648 1648.07C684.755 1648.1 684.869 1648.1 684.975 1648.06C685.081 1648.03 685.173 1647.96 685.24 1647.87C685.308 1647.78 685.346 1647.68 685.351 1647.57V1602.87C685.351 1602.64 685.441 1602.42 685.6 1602.26C685.76 1602.09 685.976 1602 686.202 1602H701.174C701.393 1602 701.603 1602.09 701.758 1602.25C701.913 1602.41 702 1602.62 702 1602.85V1674.48C702 1674.87 701.842 1675.24 701.56 1675.52C701.278 1675.8 700.896 1675.95 700.498 1675.95L687.504 1675.9C686.979 1675.9 686.459 1675.79 685.98 1675.57C685.5 1675.35 685.072 1675.03 684.725 1674.63C684.575 1674.46 676.68 1664.21 661.041 1643.86Z" fill="#1D4E5C"/>
<path d="M749.5 1602C751.753 1602 753.972 1602.07 756.159 1602.2C756.593 1602.23 757.011 1602.37 757.368 1602.62C757.724 1602.88 758.006 1603.22 758.181 1603.62L788.959 1674.31C788.991 1674.39 789.005 1674.47 788.998 1674.55C788.992 1674.63 788.966 1674.71 788.922 1674.77C788.878 1674.84 788.818 1674.9 788.747 1674.94C788.676 1674.98 788.596 1675 788.515 1675H772.386C772.202 1675 772.023 1674.95 771.869 1674.85C771.716 1674.75 771.595 1674.6 771.523 1674.43L765.629 1660.92C765.448 1660.5 765.151 1660.14 764.772 1659.88C764.392 1659.62 763.946 1659.47 763.483 1659.45C762.48 1659.4 757.819 1659.37 749.5 1659.37C741.181 1659.37 736.511 1659.4 735.492 1659.45C735.034 1659.47 734.593 1659.62 734.218 1659.88C733.843 1660.15 733.55 1660.5 733.371 1660.92L727.477 1674.43C727.405 1674.6 727.284 1674.75 727.131 1674.85C726.977 1674.95 726.798 1675 726.614 1675H710.485C710.404 1675 710.324 1674.98 710.253 1674.94C710.182 1674.9 710.122 1674.84 710.078 1674.77C710.034 1674.71 710.008 1674.63 710.002 1674.55C709.995 1674.47 710.009 1674.39 710.041 1674.31L740.819 1603.62C740.994 1603.22 741.276 1602.88 741.633 1602.62C741.989 1602.37 742.407 1602.23 742.841 1602.2C745.028 1602.07 747.248 1602 749.5 1602ZM740.794 1643.82C740.742 1643.94 740.72 1644.08 740.732 1644.21C740.743 1644.34 740.788 1644.47 740.861 1644.58C740.934 1644.69 741.034 1644.79 741.151 1644.85C741.269 1644.91 741.4 1644.95 741.534 1644.95L757.49 1645C757.624 1645 757.756 1644.96 757.874 1644.9C757.991 1644.84 758.091 1644.74 758.164 1644.63C758.237 1644.52 758.281 1644.39 758.293 1644.26C758.305 1644.13 758.283 1643.99 758.23 1643.87L750.289 1625.47C750.224 1625.32 750.12 1625.2 749.989 1625.12C749.858 1625.04 749.705 1624.99 749.549 1624.99C749.393 1624.99 749.241 1625.04 749.11 1625.12C748.979 1625.2 748.874 1625.32 748.809 1625.47L740.794 1643.82Z" fill="#1D4E5C"/>
<path d="M891.132 1602H875.868C875.389 1602 875 1602.37 875 1602.84V1674.16C875 1674.63 875.389 1675 875.868 1675H891.132C891.611 1675 892 1674.63 892 1674.16V1602.84C892 1602.37 891.611 1602 891.132 1602Z" fill="#1D4E5C"/>
<path d="M1026.63 1643.84C1021.47 1636.87 1018.06 1632.29 1016.39 1630.1C1016.33 1630.01 1016.23 1629.95 1016.13 1629.92C1016.02 1629.89 1015.91 1629.89 1015.8 1629.92C1015.7 1629.96 1015.61 1630.02 1015.54 1630.11C1015.48 1630.2 1015.44 1630.31 1015.43 1630.42V1675.13C1015.43 1675.36 1015.34 1675.58 1015.19 1675.74C1015.03 1675.91 1014.82 1676 1014.59 1676H999.814C999.598 1676 999.391 1675.91 999.239 1675.75C999.086 1675.59 999 1675.38 999 1675.15V1603.49C999 1603.1 999.156 1602.73 999.434 1602.46C999.711 1602.18 1000.09 1602.02 1000.48 1602.02L1013.31 1602.07C1013.83 1602.07 1014.34 1602.19 1014.81 1602.41C1015.29 1602.63 1015.71 1602.95 1016.05 1603.34C1016.18 1603.53 1023.92 1613.82 1039.27 1634.23C1044.5 1641.15 1047.95 1645.71 1049.63 1647.9C1049.7 1647.99 1049.8 1648.05 1049.9 1648.08C1050.01 1648.11 1050.13 1648.11 1050.23 1648.07C1050.34 1648.03 1050.43 1647.96 1050.49 1647.87C1050.56 1647.78 1050.59 1647.67 1050.59 1647.56V1602.87C1050.59 1602.64 1050.68 1602.42 1050.84 1602.26C1051 1602.09 1051.21 1602 1051.43 1602H1066.19C1066.4 1602 1066.61 1602.09 1066.76 1602.25C1066.91 1602.41 1067 1602.62 1067 1602.85V1674.51C1067 1674.9 1066.84 1675.27 1066.57 1675.54C1066.29 1675.82 1065.91 1675.98 1065.52 1675.98L1052.71 1675.93C1052.2 1675.93 1051.68 1675.81 1051.21 1675.59C1050.74 1675.37 1050.32 1675.05 1049.98 1674.65C1049.83 1674.47 1042.05 1664.2 1026.63 1643.84Z" fill="#1D4E5C"/>
<path d="M1115.51 1659.37C1107.17 1659.37 1102.5 1659.39 1101.5 1659.44C1101.04 1659.47 1100.6 1659.62 1100.23 1659.88C1099.85 1660.14 1099.56 1660.5 1099.38 1660.92L1093.48 1674.43C1093.41 1674.6 1093.29 1674.75 1093.14 1674.85C1092.98 1674.95 1092.8 1675 1092.62 1675H1076.49C1076.4 1675 1076.32 1674.98 1076.25 1674.94C1076.18 1674.9 1076.12 1674.84 1076.08 1674.77C1076.03 1674.71 1076.01 1674.63 1076 1674.55C1076 1674.47 1076.01 1674.39 1076.04 1674.31L1106.83 1603.62C1107 1603.22 1107.29 1602.88 1107.64 1602.62C1108 1602.37 1108.42 1602.23 1108.85 1602.2C1111.04 1602.07 1113.25 1602 1115.49 1602C1117.74 1602 1119.96 1602.07 1122.15 1602.2C1122.58 1602.23 1123 1602.37 1123.36 1602.62C1123.71 1602.88 1124 1603.22 1124.17 1603.62L1154.96 1674.31C1154.99 1674.39 1155 1674.47 1155 1674.55C1154.99 1674.63 1154.97 1674.71 1154.92 1674.77C1154.88 1674.84 1154.82 1674.9 1154.75 1674.94C1154.68 1674.98 1154.6 1675 1154.51 1675H1138.41C1138.22 1675 1138.04 1674.95 1137.89 1674.85C1137.74 1674.75 1137.61 1674.6 1137.54 1674.43L1131.65 1660.92C1131.47 1660.5 1131.17 1660.13 1130.79 1659.87C1130.41 1659.61 1129.96 1659.46 1129.5 1659.44C1128.5 1659.39 1123.83 1659.37 1115.51 1659.37ZM1115.54 1644.96C1119.76 1644.96 1122.33 1644.9 1123.23 1644.77C1123.4 1644.74 1123.55 1644.68 1123.68 1644.59C1123.82 1644.5 1123.93 1644.37 1124.01 1644.23C1124.09 1644.09 1124.13 1643.93 1124.14 1643.77C1124.15 1643.6 1124.11 1643.44 1124.05 1643.29L1115.88 1624.56C1115.88 1624.55 1115.85 1624.54 1115.8 1624.52C1115.75 1624.51 1115.68 1624.5 1115.61 1624.49C1115.58 1624.49 1115.55 1624.49 1115.51 1624.49C1115.53 1624.49 1115.52 1624.49 1115.49 1624.49C1115.41 1624.5 1115.35 1624.51 1115.3 1624.52C1115.24 1624.54 1115.22 1624.55 1115.22 1624.56L1107.03 1643.27C1106.96 1643.42 1106.93 1643.58 1106.93 1643.74C1106.94 1643.9 1106.98 1644.06 1107.06 1644.2C1107.13 1644.34 1107.24 1644.46 1107.37 1644.56C1107.5 1644.65 1107.66 1644.72 1107.82 1644.74C1108.72 1644.89 1111.29 1644.96 1115.54 1644.96Z" fill="#1D4E5C"/>
<path d="M1181.4 1660.48H1211.08C1211.33 1660.48 1211.56 1660.58 1211.73 1660.75C1211.9 1660.92 1212 1661.15 1212 1661.39V1674.09C1212 1674.33 1211.9 1674.56 1211.73 1674.73C1211.56 1674.9 1211.33 1675 1211.08 1675H1164.92C1164.67 1675 1164.44 1674.9 1164.27 1674.73C1164.1 1674.56 1164 1674.33 1164 1674.09V1602.91C1164 1602.67 1164.1 1602.44 1164.27 1602.27C1164.44 1602.1 1164.67 1602 1164.92 1602H1179.57C1179.81 1602 1180.05 1602.1 1180.22 1602.27C1180.39 1602.44 1180.49 1602.67 1180.49 1602.91V1659.57C1180.49 1659.82 1180.58 1660.05 1180.76 1660.22C1180.93 1660.39 1181.16 1660.48 1181.4 1660.48Z" fill="#1D4E5C"/>
<path d="M1252.25 1602.64C1252.25 1602.47 1252.32 1602.31 1252.44 1602.19C1252.56 1602.07 1252.73 1602 1252.9 1602L1283.36 1602.12C1293.11 1602.16 1302.45 1605.8 1309.32 1612.25C1316.19 1618.7 1320.03 1627.43 1320 1636.52V1640.85C1319.98 1645.35 1319.02 1649.81 1317.16 1653.96C1315.29 1658.11 1312.57 1661.88 1309.15 1665.05C1305.72 1668.22 1301.66 1670.73 1297.19 1672.44C1292.72 1674.15 1287.94 1675.02 1283.11 1675L1252.65 1674.88C1252.48 1674.88 1252.31 1674.81 1252.19 1674.69C1252.07 1674.57 1252 1674.41 1252 1674.24L1252.25 1602.64ZM1268.74 1617.21L1268.84 1659.97C1268.84 1660.06 1268.86 1660.16 1268.9 1660.25C1268.94 1660.34 1268.99 1660.42 1269.06 1660.49C1269.13 1660.56 1269.22 1660.61 1269.31 1660.65C1269.4 1660.69 1269.5 1660.7 1269.59 1660.7L1281.41 1660.68C1287.18 1660.67 1292.71 1658.54 1296.78 1654.77C1300.85 1650.99 1303.14 1645.88 1303.13 1640.55V1636.52C1303.13 1633.88 1302.56 1631.26 1301.46 1628.82C1300.36 1626.38 1298.76 1624.17 1296.73 1622.3C1294.7 1620.44 1292.3 1618.96 1289.65 1617.96C1287 1616.95 1284.17 1616.44 1281.31 1616.44L1269.49 1616.47C1269.3 1616.47 1269.1 1616.54 1268.96 1616.68C1268.82 1616.82 1268.74 1617.01 1268.74 1617.21Z" fill="#1D4E5C"/>
<path d="M1384.48 1638.01C1384.5 1640.42 1384.47 1642.31 1384.41 1643.66C1384.39 1644.08 1384.21 1644.48 1383.9 1644.77C1383.6 1645.06 1383.19 1645.22 1382.77 1645.22H1352.1C1351.76 1645.22 1351.44 1645.35 1351.2 1645.58C1350.96 1645.82 1350.82 1646.13 1350.82 1646.46V1659.19C1350.82 1659.53 1350.96 1659.85 1351.2 1660.09C1351.45 1660.32 1351.78 1660.46 1352.13 1660.46H1387.95C1388.23 1660.46 1388.49 1660.57 1388.69 1660.76C1388.89 1660.96 1389 1661.22 1389 1661.5V1673.84C1389 1674.14 1388.88 1674.44 1388.65 1674.66C1388.43 1674.88 1388.13 1675 1387.82 1675H1336.06C1335.64 1675 1335.24 1674.84 1334.94 1674.55C1334.64 1674.25 1334.47 1673.86 1334.45 1673.44C1334.42 1672 1334.33 1660.29 1334.18 1638.31C1334.04 1616.34 1333.99 1604.64 1334 1603.2C1334.01 1602.78 1334.18 1602.38 1334.48 1602.08C1334.78 1601.79 1335.19 1601.62 1335.61 1601.62L1387.37 1601C1387.68 1601 1387.97 1601.12 1388.19 1601.33C1388.41 1601.55 1388.54 1601.84 1388.55 1602.14L1388.7 1614.48C1388.7 1614.61 1388.68 1614.75 1388.63 1614.88C1388.58 1615 1388.5 1615.12 1388.41 1615.22C1388.31 1615.32 1388.2 1615.4 1388.07 1615.45C1387.94 1615.51 1387.81 1615.54 1387.67 1615.54L1351.85 1615.96C1351.68 1615.97 1351.51 1616 1351.35 1616.07C1351.2 1616.14 1351.05 1616.23 1350.93 1616.35C1350.82 1616.47 1350.72 1616.61 1350.66 1616.77C1350.6 1616.92 1350.57 1617.09 1350.57 1617.25L1350.72 1629.99C1350.72 1630.15 1350.76 1630.31 1350.83 1630.46C1350.89 1630.61 1350.99 1630.74 1351.11 1630.85C1351.23 1630.97 1351.38 1631.06 1351.53 1631.11C1351.69 1631.17 1351.86 1631.2 1352.03 1631.2L1382.67 1630.83C1383.1 1630.81 1383.52 1630.97 1383.83 1631.26C1384.15 1631.56 1384.34 1631.96 1384.36 1632.39C1384.42 1633.73 1384.47 1635.6 1384.48 1638.01Z" fill="#1D4E5C"/>
<path d="M1453.01 1674.96C1448.34 1674.96 1445.98 1674.97 1445.91 1674.99C1445.78 1675.01 1445.64 1674.99 1445.51 1674.95C1445.38 1674.91 1445.26 1674.85 1445.15 1674.76C1445.05 1674.66 1444.97 1674.55 1444.91 1674.43C1444.86 1674.3 1444.83 1674.17 1444.83 1674.03V1617.58C1444.83 1617.2 1444.68 1616.84 1444.41 1616.57C1444.15 1616.31 1443.78 1616.16 1443.41 1616.16H1425.03C1424.76 1616.16 1424.5 1616.05 1424.3 1615.85C1424.11 1615.66 1424 1615.4 1424 1615.12V1603.11C1424 1602.96 1424.03 1602.81 1424.08 1602.68C1424.14 1602.54 1424.22 1602.42 1424.33 1602.32C1424.43 1602.21 1424.55 1602.13 1424.68 1602.08C1424.82 1602.02 1424.96 1602 1425.11 1602C1434.05 1602 1443.35 1602 1453.01 1602C1462.66 1602 1471.96 1602 1480.92 1602C1481.21 1602 1481.48 1602.12 1481.68 1602.32C1481.89 1602.53 1482 1602.81 1482 1603.11V1615.12C1482 1615.4 1481.89 1615.66 1481.7 1615.85C1481.5 1616.05 1481.24 1616.16 1480.97 1616.16H1462.62C1462.24 1616.16 1461.88 1616.31 1461.61 1616.57C1461.34 1616.84 1461.19 1617.2 1461.19 1617.58V1674.03C1461.19 1674.17 1461.17 1674.31 1461.11 1674.43C1461.05 1674.56 1460.97 1674.67 1460.86 1674.77C1460.76 1674.86 1460.63 1674.92 1460.5 1674.96C1460.37 1675 1460.23 1675.01 1460.09 1674.99C1460.02 1674.97 1457.66 1674.96 1453.01 1674.96Z" fill="#1D4E5C"/>
<path d="M1558.97 1674.58C1558.99 1674.62 1559 1674.66 1559 1674.7C1559 1674.74 1558.99 1674.78 1558.97 1674.82C1558.95 1674.86 1558.92 1674.89 1558.89 1674.91C1558.85 1674.93 1558.81 1674.95 1558.77 1674.95H1539.52C1539.39 1674.95 1539.26 1674.92 1539.14 1674.86C1539.03 1674.8 1538.93 1674.71 1538.85 1674.61L1523.54 1653.12C1523.29 1652.77 1522.96 1652.48 1522.58 1652.28C1522.19 1652.09 1521.76 1651.98 1521.33 1651.98H1512.94C1512.56 1651.98 1512.19 1652.14 1511.92 1652.41C1511.64 1652.68 1511.49 1653.05 1511.49 1653.44V1674.21C1511.49 1674.42 1511.41 1674.62 1511.26 1674.77C1511.11 1674.92 1510.91 1675 1510.7 1675H1495.84C1495.62 1675 1495.4 1674.91 1495.25 1674.76C1495.09 1674.6 1495 1674.39 1495 1674.16V1603.74C1495 1603.35 1495.15 1602.98 1495.42 1602.7C1495.69 1602.42 1496.06 1602.25 1496.45 1602.24C1516.54 1601.65 1530.35 1602.15 1537.89 1603.74C1546.58 1605.59 1551.88 1610.33 1553.79 1617.95C1557.34 1632.13 1553.54 1642.38 1542.4 1648.69C1542.23 1648.78 1542.08 1648.91 1541.96 1649.07C1541.85 1649.23 1541.77 1649.41 1541.72 1649.6C1541.68 1649.79 1541.68 1649.99 1541.72 1650.18C1541.76 1650.37 1541.84 1650.55 1541.96 1650.71L1558.97 1674.58ZM1511.39 1617.07L1511.44 1636.64C1511.44 1636.77 1511.47 1636.89 1511.52 1637C1511.56 1637.12 1511.63 1637.22 1511.72 1637.31C1511.81 1637.4 1511.92 1637.47 1512.04 1637.51C1512.15 1637.56 1512.28 1637.58 1512.4 1637.57L1527.59 1637.53C1530.39 1637.51 1533.06 1636.45 1535.03 1634.58C1537 1632.71 1538.1 1630.18 1538.09 1627.54V1625.97C1538.08 1624.66 1537.8 1623.37 1537.27 1622.17C1536.73 1620.97 1535.95 1619.88 1534.96 1618.96C1533.98 1618.04 1532.81 1617.31 1531.53 1616.82C1530.25 1616.33 1528.87 1616.08 1527.49 1616.08L1512.3 1616.13C1512.06 1616.14 1511.83 1616.24 1511.66 1616.41C1511.49 1616.59 1511.39 1616.82 1511.39 1617.07Z" fill="#1D4E5C"/>
<path d="M1602.01 1659.36C1593.58 1659.36 1588.86 1659.38 1587.84 1659.43C1587.37 1659.45 1586.92 1659.6 1586.53 1659.86C1586.15 1660.12 1585.85 1660.49 1585.66 1660.91L1579.71 1674.43C1579.64 1674.6 1579.52 1674.75 1579.36 1674.85C1579.21 1674.95 1579.03 1675 1578.84 1675H1562.49C1562.41 1675 1562.33 1674.98 1562.26 1674.94C1562.18 1674.9 1562.12 1674.84 1562.08 1674.77C1562.03 1674.71 1562.01 1674.63 1562 1674.55C1562 1674.47 1562.01 1674.39 1562.04 1674.31L1593.19 1603.62C1593.37 1603.22 1593.65 1602.87 1594.01 1602.62C1594.38 1602.37 1594.8 1602.22 1595.24 1602.2C1597.45 1602.07 1599.7 1602 1601.99 1602C1604.27 1602 1606.52 1602.07 1608.74 1602.2C1609.18 1602.22 1609.6 1602.37 1609.96 1602.62C1610.32 1602.87 1610.61 1603.22 1610.79 1603.62L1641.96 1674.29C1641.99 1674.36 1642 1674.44 1642 1674.52C1641.99 1674.6 1641.97 1674.68 1641.92 1674.75C1641.88 1674.82 1641.82 1674.87 1641.74 1674.91C1641.67 1674.95 1641.59 1674.97 1641.51 1674.98H1625.18C1625 1674.98 1624.82 1674.92 1624.66 1674.82C1624.51 1674.72 1624.38 1674.58 1624.31 1674.41L1618.34 1660.91C1618.15 1660.49 1617.86 1660.13 1617.48 1659.87C1617.1 1659.61 1616.65 1659.46 1616.19 1659.43C1615.15 1659.38 1610.43 1659.36 1602.01 1659.36ZM1593.14 1643.89C1593.08 1644 1593.06 1644.13 1593.07 1644.26C1593.08 1644.38 1593.12 1644.51 1593.19 1644.62C1593.26 1644.72 1593.35 1644.81 1593.47 1644.87C1593.58 1644.94 1593.71 1644.97 1593.84 1644.97L1610.21 1644.99C1610.34 1644.99 1610.46 1644.96 1610.57 1644.9C1610.68 1644.84 1610.78 1644.75 1610.85 1644.65C1610.92 1644.54 1610.96 1644.42 1610.97 1644.3C1610.98 1644.18 1610.96 1644.05 1610.91 1643.94L1602.76 1625.39C1602.7 1625.25 1602.6 1625.14 1602.48 1625.05C1602.35 1624.97 1602.2 1624.93 1602.05 1624.93C1601.9 1624.93 1601.75 1624.97 1601.62 1625.05C1601.5 1625.14 1601.4 1625.25 1601.34 1625.39L1593.14 1643.89Z" fill="#1D4E5C"/>
<path d="M1678.62 1643.86C1673.46 1636.88 1670.05 1632.29 1668.39 1630.09C1668.32 1630 1668.22 1629.94 1668.11 1629.91C1668.01 1629.88 1667.89 1629.88 1667.79 1629.92C1667.68 1629.96 1667.59 1630.03 1667.53 1630.12C1667.46 1630.21 1667.43 1630.32 1667.43 1630.43V1675.13C1667.43 1675.36 1667.34 1675.58 1667.18 1675.74C1667.02 1675.91 1666.81 1676 1666.59 1676H1651.81C1651.6 1676 1651.39 1675.91 1651.24 1675.75C1651.09 1675.59 1651 1675.38 1651 1675.15V1603.49C1651 1603.1 1651.16 1602.73 1651.43 1602.46C1651.71 1602.18 1652.09 1602.02 1652.48 1602.02L1665.31 1602.1C1665.82 1602.1 1666.33 1602.21 1666.81 1602.43C1667.28 1602.65 1667.7 1602.97 1668.04 1603.37C1668.19 1603.54 1675.93 1613.83 1691.25 1634.24C1696.5 1641.15 1699.95 1645.7 1701.61 1647.89C1701.68 1647.97 1701.78 1648.04 1701.88 1648.07C1701.99 1648.1 1702.1 1648.1 1702.2 1648.06C1702.31 1648.03 1702.4 1647.96 1702.46 1647.87C1702.53 1647.78 1702.57 1647.68 1702.57 1647.57V1602.87C1702.57 1602.64 1702.66 1602.42 1702.82 1602.26C1702.98 1602.09 1703.19 1602 1703.41 1602H1718.19C1718.4 1602 1718.61 1602.09 1718.76 1602.25C1718.91 1602.41 1719 1602.62 1719 1602.85V1674.48C1719 1674.87 1718.84 1675.24 1718.57 1675.52C1718.29 1675.8 1717.91 1675.95 1717.52 1675.95L1704.69 1675.9C1704.18 1675.9 1703.67 1675.79 1703.19 1675.57C1702.72 1675.35 1702.3 1675.03 1701.96 1674.63C1701.81 1674.46 1694.03 1664.21 1678.62 1643.86Z" fill="#1D4E5C"/>
<path d="M1821.18 1602H1805.82C1805.37 1602 1805 1602.35 1805 1602.79V1674.21C1805 1674.65 1805.37 1675 1805.82 1675H1821.18C1821.63 1675 1822 1674.65 1822 1674.21V1602.79C1822 1602.35 1821.63 1602 1821.18 1602Z" fill="#1D4E5C"/>
<path d="M1862.51 1674.99C1857.76 1674.99 1855.36 1674.99 1855.29 1674.99C1855.15 1675.01 1855.01 1675 1854.88 1674.96C1854.74 1674.93 1854.62 1674.86 1854.51 1674.77C1854.4 1674.69 1854.32 1674.58 1854.26 1674.45C1854.2 1674.33 1854.17 1674.19 1854.17 1674.05V1617.58C1854.17 1617.2 1854.01 1616.84 1853.74 1616.57C1853.47 1616.31 1853.1 1616.16 1852.72 1616.16H1834.05C1833.77 1616.16 1833.5 1616.05 1833.31 1615.85C1833.11 1615.66 1833 1615.4 1833 1615.12V1603.11C1833 1602.81 1833.12 1602.53 1833.32 1602.32C1833.53 1602.12 1833.81 1602 1834.1 1602C1843.21 1602 1852.67 1602 1862.49 1602C1872.32 1602 1881.79 1602 1890.9 1602C1891.19 1602 1891.47 1602.12 1891.68 1602.32C1891.88 1602.53 1892 1602.81 1892 1603.11V1615.12C1892 1615.4 1891.89 1615.66 1891.69 1615.85C1891.5 1616.05 1891.23 1616.16 1890.95 1616.16H1872.28C1871.9 1616.16 1871.53 1616.31 1871.26 1616.57C1870.99 1616.84 1870.83 1617.2 1870.83 1617.58V1674.05C1870.83 1674.19 1870.8 1674.33 1870.74 1674.45C1870.68 1674.58 1870.59 1674.69 1870.49 1674.77C1870.38 1674.86 1870.26 1674.93 1870.12 1674.96C1869.99 1675 1869.85 1675.01 1869.71 1674.99C1869.64 1674.99 1867.24 1674.99 1862.51 1674.99Z" fill="#1D4E5C"/>
<path d="M652.271 1771.97L659.911 1761.64C660.041 1761.46 660.207 1761.32 660.399 1761.21C660.592 1761.11 660.805 1761.04 661.026 1761.03C661.247 1761.01 661.469 1761.03 661.68 1761.11C661.891 1761.18 662.084 1761.29 662.248 1761.44C668.631 1767.41 681.723 1774.16 690.317 1769.26C691.078 1768.82 691.739 1768.24 692.257 1767.54C692.775 1766.85 693.137 1766.06 693.32 1765.23C693.503 1764.39 693.502 1763.54 693.318 1762.72C693.134 1761.89 692.771 1761.12 692.252 1760.45C690.828 1758.63 688.474 1757.27 685.191 1756.36C674.938 1753.53 662.499 1751.06 657.549 1743.27C653.478 1736.91 653.05 1730.18 656.267 1723.08C664.886 1704.05 693.86 1708.78 708.184 1718.44C708.36 1718.56 708.511 1718.71 708.627 1718.89C708.743 1719.07 708.822 1719.26 708.86 1719.47C708.897 1719.68 708.892 1719.89 708.845 1720.09C708.798 1720.3 708.71 1720.49 708.586 1720.66L701.525 1730.28C701.412 1730.43 701.269 1730.56 701.103 1730.66C700.937 1730.75 700.753 1730.82 700.561 1730.84C700.368 1730.87 700.172 1730.85 699.984 1730.8C699.795 1730.75 699.618 1730.67 699.464 1730.55C694.488 1726.65 674.888 1718.96 671.922 1729.49C670.792 1733.7 674.561 1737.18 678.506 1737.97C683.13 1738.91 689.178 1740.83 696.649 1743.74C719.341 1752.57 713.762 1781.71 689.463 1784.59C675.256 1786.28 662.943 1782.73 652.523 1773.92C652.241 1773.68 652.058 1773.35 652.012 1772.99C651.965 1772.63 652.058 1772.26 652.271 1771.97Z" fill="#1D4E5C"/>
<path d="M870 1748.14C869.965 1758.22 865.822 1767.87 858.484 1774.97C851.145 1782.07 841.212 1786.04 830.868 1786C825.747 1785.98 820.679 1784.98 815.954 1783.05C811.229 1781.13 806.939 1778.31 803.33 1774.77C799.721 1771.23 796.863 1767.03 794.919 1762.42C792.975 1757.8 791.983 1752.85 792 1747.86C792.035 1737.78 796.178 1728.13 803.516 1721.03C810.855 1713.93 820.788 1709.96 831.132 1710C836.253 1710.02 841.321 1711.02 846.046 1712.95C850.771 1714.87 855.061 1717.69 858.67 1721.23C862.279 1724.77 865.138 1728.97 867.082 1733.58C869.025 1738.2 870.017 1743.15 870 1748.14ZM831.025 1724.36C825.198 1724.36 819.611 1726.86 815.491 1731.29C811.371 1735.73 809.056 1741.75 809.056 1748.02C809.056 1754.3 811.371 1760.32 815.491 1764.75C819.611 1769.19 825.198 1771.68 831.025 1771.68C836.851 1771.68 842.439 1769.19 846.559 1764.75C850.678 1760.32 852.993 1754.3 852.993 1748.02C852.993 1741.75 850.678 1735.73 846.559 1731.29C842.439 1726.86 836.851 1724.36 831.025 1724.36Z" fill="#1D4E5C"/>
<path d="M1474.27 1771.97L1481.91 1761.64C1482.04 1761.46 1482.21 1761.32 1482.4 1761.22C1482.59 1761.11 1482.81 1761.05 1483.03 1761.03C1483.25 1761.01 1483.47 1761.04 1483.68 1761.11C1483.89 1761.18 1484.08 1761.29 1484.25 1761.44C1490.63 1767.38 1503.72 1774.16 1512.32 1769.23C1513.07 1768.8 1513.73 1768.21 1514.25 1767.52C1514.76 1766.83 1515.12 1766.04 1515.31 1765.21C1515.49 1764.38 1515.49 1763.53 1515.31 1762.71C1515.13 1761.89 1514.77 1761.12 1514.25 1760.46C1512.83 1758.61 1510.47 1757.24 1507.19 1756.34C1496.94 1753.53 1484.5 1751.06 1479.55 1743.25C1475.48 1736.89 1475.05 1730.16 1478.27 1723.06C1486.89 1704.05 1515.86 1708.78 1530.21 1718.45C1530.38 1718.57 1530.53 1718.72 1530.65 1718.9C1530.76 1719.07 1530.84 1719.27 1530.87 1719.48C1530.91 1719.69 1530.9 1719.9 1530.85 1720.1C1530.8 1720.3 1530.71 1720.5 1530.59 1720.67L1523.52 1730.28C1523.41 1730.43 1523.27 1730.56 1523.1 1730.66C1522.94 1730.76 1522.75 1730.82 1522.56 1730.84C1522.37 1730.87 1522.17 1730.86 1521.98 1730.81C1521.8 1730.76 1521.62 1730.67 1521.46 1730.55C1516.49 1726.66 1496.89 1718.96 1493.95 1729.49C1492.79 1733.68 1496.56 1737.18 1500.51 1737.97C1505.13 1738.91 1511.18 1740.83 1518.65 1743.74C1541.34 1752.57 1535.76 1781.71 1511.46 1784.59C1497.26 1786.28 1484.94 1782.73 1474.52 1773.92C1474.24 1773.68 1474.06 1773.35 1474.01 1772.99C1473.97 1772.63 1474.06 1772.27 1474.27 1771.97Z" fill="#1D4E5C"/>
<path d="M280.013 1737.89C280.096 1737.89 280.188 1737.87 280.288 1737.84C280.46 1737.79 280.622 1737.66 280.737 1737.46L295.761 1711.6C295.866 1711.42 296.019 1711.27 296.203 1711.16C296.387 1711.06 296.597 1711 296.811 1711H313.685C313.739 1711 313.792 1711.01 313.84 1711.03C313.888 1711.06 313.928 1711.1 313.956 1711.14C313.984 1711.19 313.999 1711.24 314 1711.3C314.001 1711.35 313.987 1711.4 313.96 1711.45L289.087 1754.63C288.579 1755.51 288.312 1756.53 288.312 1757.56V1783.7C288.312 1784.02 288.184 1784.34 287.955 1784.57C287.726 1784.81 287.414 1784.94 287.087 1784.95C283.521 1784.98 281.154 1785 279.988 1785C278.838 1785 276.479 1784.98 272.913 1784.95C272.586 1784.94 272.274 1784.81 272.045 1784.57C271.816 1784.34 271.688 1784.02 271.688 1783.7V1757.56C271.688 1756.53 271.421 1755.51 270.913 1754.63L246.04 1711.45C246.013 1711.4 245.999 1711.35 246 1711.3C246.001 1711.24 246.016 1711.19 246.044 1711.14C246.072 1711.1 246.112 1711.06 246.16 1711.03C246.208 1711.01 246.261 1711 246.315 1711H263.189C263.403 1711 263.613 1711.06 263.797 1711.16C263.981 1711.27 264.134 1711.42 264.239 1711.6L279.263 1737.46C279.378 1737.66 279.54 1737.79 279.712 1737.84C279.812 1737.87 279.913 1737.89 280.013 1737.89Z" fill="#1D4E5C"/>
<path d="M373.488 1784.99C368.91 1784.99 366.588 1784.99 366.524 1784.99C366.39 1785.01 366.253 1785 366.122 1784.96C365.992 1784.93 365.871 1784.86 365.767 1784.77C365.664 1784.68 365.58 1784.57 365.522 1784.44C365.464 1784.31 365.434 1784.18 365.432 1784.04V1726.8C365.432 1726.42 365.287 1726.05 365.028 1725.78C364.769 1725.51 364.418 1725.35 364.049 1725.35H345.995C345.729 1725.34 345.476 1725.23 345.29 1725.03C345.104 1724.83 345 1724.57 345 1724.3V1712.13C345.006 1711.83 345.122 1711.55 345.321 1711.35C345.521 1711.14 345.789 1711.02 346.068 1711.02C354.868 1711.01 364.008 1711 373.488 1711C382.984 1711 392.132 1711.01 400.932 1711.02C401.215 1711.02 401.487 1711.14 401.687 1711.36C401.887 1711.57 402 1711.85 402 1712.15V1724.32C401.994 1724.59 401.883 1724.86 401.693 1725.05C401.503 1725.24 401.247 1725.35 400.981 1725.35H382.927C382.558 1725.35 382.206 1725.51 381.948 1725.78C381.689 1726.05 381.544 1726.42 381.544 1726.8L381.52 1784.04C381.518 1784.17 381.487 1784.31 381.431 1784.43C381.374 1784.56 381.293 1784.67 381.192 1784.76C381.091 1784.85 380.973 1784.92 380.846 1784.96C380.718 1784.99 380.584 1785.01 380.452 1784.99C380.387 1784.99 378.066 1784.99 373.488 1784.99Z" fill="#1D4E5C"/>
<path d="M477.968 1784.6C477.988 1784.64 477.999 1784.68 478 1784.72C478.001 1784.76 477.991 1784.81 477.972 1784.84C477.953 1784.88 477.925 1784.91 477.89 1784.94C477.856 1784.96 477.817 1784.97 477.776 1784.97H459.116C458.989 1784.98 458.865 1784.94 458.752 1784.88C458.639 1784.82 458.542 1784.73 458.469 1784.62L443.666 1762.82C443.422 1762.46 443.099 1762.17 442.724 1761.97C442.349 1761.77 441.933 1761.67 441.511 1761.67H433.39C433.015 1761.67 432.656 1761.82 432.391 1762.1C432.126 1762.38 431.977 1762.75 431.977 1763.14V1784.2C431.977 1784.41 431.896 1784.62 431.753 1784.77C431.609 1784.92 431.414 1785 431.211 1785H416.814C416.598 1785 416.391 1784.91 416.239 1784.75C416.086 1784.59 416 1784.38 416 1784.15L416.024 1712.76C416.024 1712.36 416.171 1711.98 416.435 1711.7C416.699 1711.41 417.058 1711.25 417.437 1711.23C436.888 1710.65 450.269 1711.17 457.583 1712.78C465.999 1714.67 471.125 1719.48 472.961 1727.21C476.395 1741.58 472.714 1751.96 461.919 1758.34C461.753 1758.44 461.608 1758.57 461.494 1758.73C461.381 1758.89 461.301 1759.07 461.26 1759.27C461.22 1759.46 461.219 1759.66 461.258 1759.86C461.297 1760.05 461.375 1760.23 461.488 1760.39L477.968 1784.6ZM431.953 1726.36L432.001 1746.27C432.001 1746.52 432.097 1746.76 432.268 1746.94C432.438 1747.12 432.67 1747.22 432.911 1747.22L447.403 1747.19C450.166 1747.18 452.814 1746.16 454.763 1744.34C456.713 1742.52 457.805 1740.05 457.799 1737.49V1735.04C457.796 1733.77 457.523 1732.51 456.997 1731.34C456.47 1730.16 455.7 1729.1 454.731 1728.2C453.761 1727.31 452.61 1726.6 451.345 1726.11C450.079 1725.63 448.724 1725.38 447.355 1725.39L432.863 1725.41C432.622 1725.41 432.39 1725.51 432.22 1725.69C432.049 1725.87 431.953 1726.11 431.953 1726.36Z" fill="#1D4E5C"/>
<path d="M522.025 1769.12C513.597 1769.12 508.873 1769.14 507.853 1769.19C507.384 1769.22 506.934 1769.38 506.553 1769.64C506.171 1769.91 505.874 1770.27 505.696 1770.7L499.701 1784.37C499.627 1784.55 499.505 1784.69 499.348 1784.79C499.192 1784.9 499.01 1784.95 498.823 1784.95H482.493C482.411 1784.95 482.33 1784.93 482.258 1784.89C482.186 1784.85 482.124 1784.79 482.08 1784.72C482.035 1784.65 482.008 1784.57 482.002 1784.49C481.995 1784.41 482.009 1784.33 482.042 1784.25L513.271 1712.65C513.45 1712.24 513.737 1711.89 514.1 1711.63C514.463 1711.38 514.888 1711.23 515.328 1711.2C517.535 1711.07 519.776 1711 522.05 1711C524.341 1711 526.59 1711.07 528.798 1711.22C529.235 1711.25 529.658 1711.39 530.021 1711.65C530.383 1711.9 530.672 1712.24 530.854 1712.65L561.958 1784.3C561.991 1784.38 562.005 1784.46 561.998 1784.54C561.992 1784.62 561.965 1784.7 561.92 1784.77C561.876 1784.84 561.815 1784.9 561.742 1784.94C561.67 1784.98 561.589 1785 561.507 1785L545.177 1784.97C544.99 1784.98 544.808 1784.92 544.652 1784.82C544.496 1784.72 544.373 1784.57 544.299 1784.4L538.354 1770.72C538.176 1770.3 537.879 1769.93 537.498 1769.67C537.116 1769.4 536.666 1769.25 536.197 1769.22C535.177 1769.17 530.453 1769.14 522.025 1769.12ZM522.075 1754.74C526.373 1754.76 528.982 1754.69 529.901 1754.54C530.066 1754.52 530.222 1754.45 530.359 1754.36C530.496 1754.26 530.608 1754.14 530.689 1753.99C530.769 1753.85 530.814 1753.69 530.821 1753.52C530.828 1753.36 530.797 1753.19 530.729 1753.04L522.426 1733.98C522.425 1733.97 522.396 1733.96 522.345 1733.94C522.294 1733.93 522.225 1733.92 522.151 1733.91C522.117 1733.91 522.084 1733.91 522.05 1733.91C522.067 1733.91 522.059 1733.91 522.025 1733.91C521.95 1733.92 521.88 1733.93 521.829 1733.94C521.778 1733.96 521.75 1733.97 521.749 1733.98L513.396 1753.01C513.329 1753.17 513.297 1753.33 513.304 1753.5C513.311 1753.66 513.357 1753.82 513.437 1753.97C513.517 1754.11 513.63 1754.24 513.766 1754.33C513.903 1754.43 514.06 1754.49 514.224 1754.51C515.144 1754.66 517.761 1754.74 522.075 1754.74Z" fill="#1D4E5C"/>
<path d="M598.026 1752.83C592.8 1745.87 589.335 1741.3 587.632 1739.11C587.561 1739.02 587.466 1738.96 587.359 1738.93C587.251 1738.89 587.137 1738.9 587.031 1738.93C586.926 1738.97 586.833 1739.03 586.766 1739.12C586.699 1739.21 586.66 1739.32 586.655 1739.43L586.68 1784.13C586.68 1784.24 586.658 1784.36 586.615 1784.46C586.573 1784.57 586.51 1784.66 586.431 1784.74C586.352 1784.83 586.258 1784.89 586.155 1784.93C586.051 1784.98 585.941 1785 585.829 1785H570.852C570.743 1785 570.636 1784.98 570.535 1784.94C570.435 1784.89 570.344 1784.83 570.267 1784.75C570.19 1784.67 570.13 1784.58 570.088 1784.48C570.047 1784.37 570.025 1784.26 570.025 1784.15L570 1712.52C570 1712.13 570.158 1711.76 570.44 1711.48C570.722 1711.2 571.104 1711.05 571.503 1711.05L584.501 1711.1C585.027 1711.1 585.547 1711.21 586.026 1711.43C586.506 1711.65 586.934 1711.97 587.281 1712.37C587.432 1712.54 595.287 1722.83 610.849 1743.24C616.159 1750.15 619.665 1754.7 621.368 1756.89C621.44 1756.98 621.538 1757.05 621.647 1757.08C621.757 1757.11 621.873 1757.1 621.98 1757.06C622.087 1757.02 622.179 1756.95 622.245 1756.86C622.31 1756.77 622.345 1756.66 622.345 1756.55L622.32 1711.87C622.32 1711.64 622.409 1711.42 622.569 1711.26C622.729 1711.09 622.945 1711 623.171 1711H638.149C638.368 1711 638.578 1711.09 638.733 1711.25C638.888 1711.41 638.975 1711.62 638.975 1711.85L639 1783.46C639 1783.85 638.842 1784.22 638.56 1784.49C638.278 1784.77 637.896 1784.93 637.497 1784.93L624.499 1784.88C623.974 1784.88 623.454 1784.76 622.974 1784.54C622.494 1784.32 622.066 1784 621.719 1783.6C621.569 1783.44 613.671 1773.18 598.026 1752.83Z" fill="#1D4E5C"/>
<path d="M724 1784.25L724.025 1712.65C724.025 1712.24 724.186 1711.85 724.473 1711.56C724.76 1711.27 725.15 1711.1 725.559 1711.09C737.627 1710.89 747.608 1711.01 755.503 1711.45C770.261 1712.25 780.142 1717.31 783.259 1731.76C786.503 1746.71 778.985 1761.03 762.869 1763.31C754.086 1764.56 747.248 1765.01 742.353 1764.66C742.152 1764.65 741.949 1764.67 741.757 1764.74C741.565 1764.8 741.389 1764.91 741.24 1765.04C741.091 1765.18 740.972 1765.35 740.891 1765.53C740.81 1765.72 740.769 1765.92 740.77 1766.12V1784.35C740.77 1784.52 740.701 1784.69 740.578 1784.81C740.456 1784.93 740.289 1785 740.116 1785H724.754C724.554 1785 724.362 1784.92 724.221 1784.78C724.08 1784.64 724 1784.45 724 1784.25ZM740.82 1726.3L740.719 1749.39C740.716 1749.5 740.735 1749.62 740.777 1749.72C740.818 1749.83 740.88 1749.93 740.959 1750.01C741.039 1750.1 741.134 1750.17 741.239 1750.21C741.345 1750.26 741.459 1750.29 741.574 1750.29L754.195 1750.34C755.797 1750.35 757.385 1750.08 758.869 1749.53C760.352 1748.99 761.702 1748.19 762.842 1747.18C763.981 1746.17 764.887 1744.97 765.509 1743.64C766.131 1742.31 766.455 1740.89 766.465 1739.44V1736.54C766.483 1733.63 765.217 1730.83 762.945 1728.76C760.672 1726.69 757.579 1725.52 754.346 1725.5L741.725 1725.45C741.609 1725.44 741.494 1725.46 741.386 1725.5C741.278 1725.54 741.179 1725.6 741.095 1725.68C741.011 1725.76 740.944 1725.86 740.896 1725.96C740.849 1726.07 740.823 1726.18 740.82 1726.3Z" fill="#1D4E5C"/>
<path d="M947.967 1784.62C947.988 1784.66 947.999 1784.7 948 1784.75C948.001 1784.79 947.991 1784.83 947.971 1784.87C947.951 1784.91 947.922 1784.94 947.887 1784.96C947.851 1784.98 947.811 1785 947.769 1785L928.517 1784.97C928.386 1784.98 928.257 1784.94 928.14 1784.88C928.024 1784.82 927.924 1784.73 927.849 1784.62L912.556 1762.82C912.306 1762.47 911.976 1762.18 911.594 1761.98C911.211 1761.78 910.786 1761.67 910.354 1761.67H901.965C901.578 1761.67 901.207 1761.83 900.933 1762.1C900.659 1762.38 900.505 1762.76 900.505 1763.15V1784.2C900.505 1784.41 900.422 1784.62 900.273 1784.77C900.125 1784.92 899.923 1785 899.713 1785L884.841 1784.97C884.618 1784.97 884.404 1784.89 884.246 1784.73C884.089 1784.57 884 1784.35 884 1784.12L884.074 1712.73C884.08 1712.34 884.236 1711.97 884.507 1711.69C884.779 1711.41 885.147 1711.25 885.534 1711.23C905.611 1710.65 919.419 1711.17 926.958 1712.78C935.652 1714.67 940.947 1719.48 942.844 1727.2C946.375 1741.59 942.564 1751.98 931.412 1758.37C931.244 1758.46 931.098 1758.59 930.983 1758.75C930.868 1758.91 930.787 1759.09 930.745 1759.28C930.703 1759.47 930.701 1759.67 930.739 1759.86C930.777 1760.05 930.855 1760.23 930.967 1760.39L947.967 1784.62ZM900.48 1726.28L900.579 1746.5C900.579 1746.71 900.663 1746.92 900.811 1747.07C900.96 1747.22 901.161 1747.3 901.371 1747.3L916.416 1747.2C919.29 1747.19 922.04 1746.16 924.063 1744.34C926.086 1742.53 927.216 1740.07 927.205 1737.52V1734.96C927.2 1733.7 926.914 1732.44 926.364 1731.28C925.813 1730.11 925.01 1729.05 923.999 1728.16C922.987 1727.27 921.789 1726.57 920.471 1726.09C919.153 1725.61 917.741 1725.37 916.317 1725.37L901.272 1725.48C901.062 1725.48 900.861 1725.56 900.712 1725.71C900.564 1725.86 900.48 1726.06 900.48 1726.28Z" fill="#1D4E5C"/>
<path d="M982.988 1784.97C978.333 1784.97 975.973 1784.97 975.907 1784.97C975.771 1784.99 975.632 1784.98 975.5 1784.94C975.367 1784.9 975.244 1784.84 975.138 1784.75C975.033 1784.66 974.948 1784.55 974.889 1784.42C974.831 1784.29 974.799 1784.16 974.797 1784.02L974.822 1726.79C974.822 1726.41 974.671 1726.04 974.403 1725.77C974.134 1725.5 973.77 1725.34 973.391 1725.34H955.036C954.761 1725.34 954.498 1725.23 954.304 1725.04C954.109 1724.84 954 1724.57 954 1724.29V1712.11C954.006 1711.82 954.124 1711.54 954.326 1711.33C954.529 1711.13 954.802 1711.01 955.086 1711.01C964.049 1711 973.358 1711 983.012 1711.01C992.667 1711 1001.97 1711 1010.91 1711.01C1011.2 1711.01 1011.48 1711.13 1011.68 1711.34C1011.89 1711.55 1012 1711.84 1012 1712.14V1724.29C1012 1724.57 1011.89 1724.83 1011.71 1725.03C1011.52 1725.22 1011.26 1725.34 1010.99 1725.34H992.609C992.234 1725.35 991.876 1725.51 991.613 1725.78C991.35 1726.05 991.203 1726.41 991.203 1726.79L991.178 1784.02C991.179 1784.16 991.151 1784.29 991.095 1784.42C991.039 1784.55 990.957 1784.66 990.854 1784.75C990.751 1784.85 990.63 1784.92 990.499 1784.96C990.368 1785 990.229 1785.01 990.093 1784.99C990.01 1784.98 987.642 1784.97 982.988 1784.97Z" fill="#1D4E5C"/>
<path d="M1025.18 1748.32C1025.04 1726.36 1024.99 1714.66 1025 1713.21C1025 1712.8 1025.17 1712.4 1025.46 1712.1C1025.75 1711.8 1026.15 1711.63 1026.56 1711.62L1077.39 1711C1077.69 1711 1077.99 1711.12 1078.2 1711.33C1078.42 1711.55 1078.55 1711.84 1078.55 1712.14L1078.73 1724.49C1078.73 1724.62 1078.7 1724.76 1078.65 1724.89C1078.6 1725.01 1078.52 1725.13 1078.42 1725.23C1078.33 1725.32 1078.21 1725.4 1078.09 1725.45C1077.96 1725.5 1077.82 1725.53 1077.69 1725.53L1042.51 1725.98C1042.18 1725.99 1041.86 1726.12 1041.62 1726.36C1041.38 1726.6 1041.25 1726.92 1041.25 1727.25L1041.4 1739.99C1041.4 1740.15 1041.44 1740.31 1041.51 1740.46C1041.57 1740.61 1041.67 1740.75 1041.79 1740.86C1041.91 1740.97 1042.05 1741.06 1042.2 1741.12C1042.36 1741.18 1042.52 1741.21 1042.69 1741.21L1072.81 1740.83C1073.23 1740.83 1073.63 1740.98 1073.94 1741.27C1074.24 1741.56 1074.42 1741.96 1074.44 1742.38C1074.51 1743.72 1074.55 1745.59 1074.57 1748C1074.58 1750.42 1074.57 1752.3 1074.52 1753.65C1074.5 1754.07 1074.33 1754.48 1074.02 1754.77C1073.71 1755.06 1073.3 1755.22 1072.88 1755.22H1042.76C1042.43 1755.22 1042.11 1755.35 1041.87 1755.58C1041.63 1755.81 1041.5 1756.13 1041.5 1756.46V1769.17C1041.5 1769.51 1041.63 1769.83 1041.88 1770.07C1042.12 1770.31 1042.45 1770.44 1042.79 1770.44H1077.98C1078.26 1770.45 1078.51 1770.56 1078.7 1770.76C1078.89 1770.95 1079 1771.22 1079 1771.49V1783.83C1078.99 1784.13 1078.87 1784.42 1078.66 1784.63C1078.45 1784.85 1078.16 1784.97 1077.86 1784.98L1027.01 1785C1026.59 1785 1026.19 1784.84 1025.9 1784.54C1025.6 1784.25 1025.43 1783.85 1025.42 1783.43C1025.39 1781.99 1025.31 1770.29 1025.18 1748.32Z" fill="#1D4E5C"/>
<path d="M1144.49 1784.99C1139.75 1784.99 1137.35 1784.99 1137.28 1784.99C1137.14 1785.01 1137 1784.99 1136.87 1784.96C1136.74 1784.92 1136.62 1784.85 1136.51 1784.76C1136.41 1784.67 1136.32 1784.56 1136.27 1784.43C1136.21 1784.31 1136.18 1784.17 1136.17 1784.04V1726.8C1136.17 1726.41 1136.02 1726.04 1135.75 1725.77C1135.47 1725.5 1135.1 1725.35 1134.72 1725.35H1116.03C1115.75 1725.34 1115.49 1725.23 1115.3 1725.03C1115.11 1724.83 1115 1724.57 1115 1724.3V1712.13C1115.01 1711.83 1115.13 1711.55 1115.33 1711.35C1115.54 1711.14 1115.82 1711.02 1116.11 1711.02C1125.21 1711.01 1134.68 1711 1144.49 1711C1154.32 1711 1163.79 1711.01 1172.89 1711.02C1173.18 1711.02 1173.46 1711.14 1173.67 1711.35C1173.87 1711.55 1173.99 1711.83 1174 1712.13V1724.3C1174 1724.57 1173.89 1724.84 1173.69 1725.04C1173.49 1725.24 1173.22 1725.35 1172.94 1725.35H1154.28C1153.9 1725.35 1153.53 1725.5 1153.25 1725.77C1152.98 1726.04 1152.83 1726.41 1152.83 1726.8V1784.04C1152.82 1784.18 1152.79 1784.31 1152.73 1784.44C1152.67 1784.57 1152.59 1784.68 1152.48 1784.77C1152.37 1784.86 1152.25 1784.93 1152.11 1784.96C1151.98 1785 1151.83 1785.01 1151.7 1784.99C1151.63 1784.99 1149.23 1784.99 1144.49 1784.99Z" fill="#1D4E5C"/>
<path d="M1186.13 1748.27C1186.03 1726.31 1185.99 1714.61 1186 1713.16C1186 1712.75 1186.17 1712.35 1186.47 1712.05C1186.77 1711.75 1187.17 1711.58 1187.59 1711.57L1239.43 1711C1239.74 1711 1240.04 1711.12 1240.26 1711.33C1240.49 1711.55 1240.61 1711.84 1240.62 1712.14L1240.75 1724.49C1240.75 1724.76 1240.64 1725.02 1240.45 1725.22C1240.25 1725.41 1239.99 1725.52 1239.71 1725.53L1203.86 1725.93C1203.68 1725.93 1203.51 1725.96 1203.35 1726.03C1203.19 1726.09 1203.04 1726.19 1202.92 1726.31C1202.8 1726.43 1202.7 1726.57 1202.64 1726.73C1202.57 1726.89 1202.54 1727.05 1202.54 1727.22L1202.69 1739.94C1202.69 1740.1 1202.73 1740.27 1202.79 1740.42C1202.86 1740.57 1202.96 1740.71 1203.08 1740.83C1203.2 1740.94 1203.35 1741.03 1203.51 1741.09C1203.67 1741.16 1203.84 1741.19 1204.01 1741.18L1234.71 1740.83C1235.14 1740.83 1235.55 1740.98 1235.86 1741.27C1236.17 1741.56 1236.36 1741.96 1236.38 1742.38C1236.45 1743.72 1236.49 1745.6 1236.51 1748.02C1236.51 1750.43 1236.48 1752.3 1236.43 1753.65C1236.42 1754.07 1236.24 1754.47 1235.93 1754.76C1235.62 1755.05 1235.21 1755.22 1234.79 1755.22L1204.08 1755.19C1203.91 1755.19 1203.75 1755.22 1203.59 1755.29C1203.43 1755.35 1203.29 1755.44 1203.17 1755.56C1203.05 1755.67 1202.96 1755.81 1202.89 1755.96C1202.83 1756.11 1202.8 1756.27 1202.8 1756.44L1202.77 1769.15C1202.77 1769.49 1202.91 1769.81 1203.15 1770.05C1203.4 1770.29 1203.74 1770.42 1204.08 1770.42L1239.96 1770.44C1240.24 1770.45 1240.5 1770.56 1240.7 1770.76C1240.89 1770.95 1241 1771.22 1241 1771.49V1783.83C1241 1784.14 1240.87 1784.44 1240.65 1784.66C1240.43 1784.88 1240.13 1785 1239.81 1785L1187.97 1784.95C1187.55 1784.95 1187.14 1784.79 1186.84 1784.49C1186.54 1784.2 1186.36 1783.8 1186.36 1783.38C1186.32 1781.94 1186.25 1770.24 1186.13 1748.27Z" fill="#1D4E5C"/>
<path d="M1319.97 1784.62C1319.99 1784.66 1320 1784.7 1320 1784.75C1320 1784.79 1319.99 1784.83 1319.97 1784.87C1319.95 1784.91 1319.92 1784.94 1319.89 1784.96C1319.85 1784.98 1319.81 1785 1319.77 1785L1300.51 1784.97C1300.38 1784.98 1300.25 1784.94 1300.13 1784.88C1300.02 1784.82 1299.92 1784.73 1299.84 1784.62L1284.57 1762.82C1284.31 1762.47 1283.98 1762.19 1283.6 1761.99C1283.22 1761.8 1282.79 1761.69 1282.36 1761.69L1273.97 1761.67C1273.58 1761.67 1273.21 1761.82 1272.94 1762.1C1272.67 1762.38 1272.51 1762.75 1272.51 1763.14L1272.49 1784.2C1272.49 1784.41 1272.4 1784.62 1272.25 1784.77C1272.11 1784.92 1271.9 1785 1271.69 1785L1256.84 1784.97C1256.62 1784.97 1256.4 1784.89 1256.25 1784.73C1256.09 1784.57 1256 1784.35 1256 1784.12L1256.1 1712.75C1256.1 1712.35 1256.25 1711.97 1256.52 1711.69C1256.8 1711.4 1257.17 1711.23 1257.56 1711.22C1277.63 1710.65 1291.43 1711.18 1298.97 1712.8C1307.67 1714.68 1312.97 1719.49 1314.87 1727.22C1318.38 1741.61 1314.57 1751.99 1303.43 1758.36C1303.26 1758.46 1303.11 1758.59 1302.99 1758.75C1302.87 1758.91 1302.79 1759.09 1302.75 1759.29C1302.71 1759.48 1302.71 1759.68 1302.75 1759.88C1302.79 1760.07 1302.87 1760.25 1302.98 1760.42L1319.97 1784.62ZM1272.44 1726.42L1272.59 1746.4C1272.59 1746.65 1272.68 1746.89 1272.86 1747.07C1273.04 1747.25 1273.28 1747.35 1273.53 1747.35L1288.58 1747.22C1291.44 1747.2 1294.18 1746.12 1296.19 1744.22C1298.2 1742.32 1299.31 1739.75 1299.3 1737.08V1735.33C1299.29 1734.01 1299 1732.7 1298.45 1731.48C1297.9 1730.27 1297.09 1729.16 1296.08 1728.23C1295.08 1727.31 1293.88 1726.57 1292.57 1726.08C1291.25 1725.58 1289.85 1725.33 1288.43 1725.34L1273.38 1725.47C1273.13 1725.47 1272.89 1725.57 1272.71 1725.74C1272.54 1725.92 1272.44 1726.17 1272.44 1726.42Z" fill="#1D4E5C"/>
<path d="M1396.97 1784.62C1396.99 1784.66 1397 1784.7 1397 1784.75C1397 1784.79 1396.99 1784.83 1396.97 1784.87C1396.95 1784.91 1396.92 1784.94 1396.89 1784.96C1396.85 1784.98 1396.81 1785 1396.77 1785L1377.52 1784.97C1377.39 1784.98 1377.26 1784.94 1377.14 1784.88C1377.02 1784.82 1376.92 1784.73 1376.85 1784.62L1361.58 1762.83C1361.33 1762.47 1360.99 1762.18 1360.61 1761.98C1360.22 1761.78 1359.79 1761.67 1359.35 1761.67H1350.99C1350.61 1761.67 1350.24 1761.83 1349.97 1762.1C1349.69 1762.37 1349.54 1762.74 1349.53 1763.13L1349.51 1784.2C1349.51 1784.41 1349.42 1784.62 1349.27 1784.77C1349.12 1784.92 1348.92 1785 1348.71 1785L1333.84 1784.97C1333.73 1784.97 1333.62 1784.95 1333.52 1784.91C1333.42 1784.87 1333.32 1784.8 1333.25 1784.73C1333.17 1784.65 1333.11 1784.55 1333.06 1784.45C1333.02 1784.35 1333 1784.24 1333 1784.12L1333.1 1712.75C1333.1 1712.35 1333.25 1711.97 1333.52 1711.69C1333.8 1711.4 1334.17 1711.23 1334.56 1711.22C1354.64 1710.65 1368.44 1711.18 1375.98 1712.8C1384.68 1714.68 1389.97 1719.5 1391.87 1727.24C1395.4 1741.6 1391.59 1751.98 1380.44 1758.37C1380.27 1758.47 1380.12 1758.6 1380.01 1758.76C1379.89 1758.91 1379.81 1759.09 1379.77 1759.29C1379.73 1759.48 1379.73 1759.67 1379.76 1759.87C1379.8 1760.06 1379.88 1760.24 1379.99 1760.4L1396.97 1784.62ZM1349.43 1726.31L1349.63 1746.53C1349.64 1746.74 1349.72 1746.94 1349.87 1747.08C1350.02 1747.23 1350.21 1747.31 1350.42 1747.31L1365.56 1747.18C1368.41 1747.16 1371.13 1746.11 1373.13 1744.29C1375.12 1742.46 1376.23 1740 1376.21 1737.45V1734.9C1376.19 1733.63 1375.9 1732.38 1375.35 1731.21C1374.8 1730.05 1374 1728.99 1372.99 1728.11C1371.99 1727.22 1370.8 1726.52 1369.49 1726.05C1368.18 1725.58 1366.78 1725.35 1365.37 1725.36L1350.22 1725.49C1350.12 1725.49 1350.01 1725.51 1349.91 1725.55C1349.82 1725.59 1349.73 1725.65 1349.65 1725.73C1349.58 1725.81 1349.52 1725.9 1349.48 1726C1349.45 1726.1 1349.43 1726.2 1349.43 1726.31Z" fill="#1D4E5C"/>
<path d="M1409.14 1748.28C1409.02 1726.31 1408.98 1714.61 1409.01 1713.18C1409.01 1712.76 1409.18 1712.36 1409.47 1712.06C1409.76 1711.76 1410.16 1711.59 1410.59 1711.58L1462.43 1711C1462.74 1711 1463.04 1711.12 1463.26 1711.34C1463.48 1711.55 1463.61 1711.84 1463.62 1712.15L1463.75 1724.48C1463.75 1724.76 1463.64 1725.02 1463.44 1725.22C1463.25 1725.41 1462.98 1725.53 1462.71 1725.53L1426.86 1725.94C1426.69 1725.94 1426.52 1725.97 1426.36 1726.03C1426.2 1726.1 1426.05 1726.19 1425.93 1726.31C1425.81 1726.43 1425.72 1726.57 1425.65 1726.72C1425.59 1726.88 1425.56 1727.04 1425.56 1727.21L1425.69 1739.94C1425.69 1740.11 1425.73 1740.28 1425.8 1740.43C1425.87 1740.58 1425.97 1740.72 1426.09 1740.83C1426.21 1740.95 1426.36 1741.03 1426.52 1741.09C1426.67 1741.15 1426.84 1741.18 1427.01 1741.17L1457.7 1740.82C1458.13 1740.81 1458.55 1740.97 1458.86 1741.26C1459.17 1741.55 1459.36 1741.95 1459.38 1742.37C1459.45 1743.72 1459.49 1745.61 1459.51 1748.02C1459.51 1750.43 1459.48 1752.3 1459.43 1753.65C1459.41 1754.07 1459.23 1754.47 1458.92 1754.76C1458.61 1755.04 1458.21 1755.21 1457.78 1755.2L1427.06 1755.18C1426.72 1755.18 1426.4 1755.31 1426.16 1755.55C1425.93 1755.78 1425.79 1756.1 1425.79 1756.43L1425.77 1769.16C1425.77 1769.33 1425.8 1769.5 1425.87 1769.65C1425.93 1769.8 1426.03 1769.94 1426.16 1770.06C1426.28 1770.17 1426.42 1770.27 1426.58 1770.33C1426.74 1770.39 1426.91 1770.42 1427.09 1770.42L1462.96 1770.47C1463.23 1770.47 1463.49 1770.58 1463.69 1770.77C1463.88 1770.96 1463.99 1771.22 1464 1771.49V1783.82C1464 1784.14 1463.87 1784.44 1463.65 1784.66C1463.43 1784.88 1463.12 1785 1462.81 1785L1410.99 1784.95C1410.56 1784.95 1410.16 1784.78 1409.85 1784.49C1409.55 1784.19 1409.37 1783.79 1409.37 1783.37C1409.33 1781.94 1409.26 1770.24 1409.14 1748.28Z" fill="#1D4E5C"/>
<path d="M1568.49 1784.99C1563.91 1784.99 1561.59 1784.99 1561.52 1784.99C1561.39 1785.01 1561.26 1784.99 1561.13 1784.96C1561 1784.92 1560.88 1784.85 1560.78 1784.76C1560.68 1784.67 1560.6 1784.56 1560.55 1784.43C1560.49 1784.31 1560.46 1784.17 1560.46 1784.04V1726.8C1560.46 1726.41 1560.31 1726.04 1560.04 1725.77C1559.78 1725.5 1559.42 1725.35 1559.05 1725.35H1541.02C1540.89 1725.35 1540.75 1725.32 1540.63 1725.27C1540.51 1725.21 1540.39 1725.14 1540.3 1725.04C1540.2 1724.94 1540.13 1724.83 1540.08 1724.7C1540.03 1724.57 1540 1724.43 1540 1724.3V1712.13C1540 1711.83 1540.11 1711.54 1540.31 1711.33C1540.51 1711.12 1540.78 1711 1541.07 1711C1549.87 1711 1559.01 1711 1568.49 1711C1577.98 1711 1587.13 1711.01 1595.93 1711.02C1596.21 1711.02 1596.48 1711.14 1596.68 1711.35C1596.88 1711.55 1596.99 1711.83 1597 1712.13V1724.3C1597 1724.43 1596.97 1724.57 1596.92 1724.7C1596.87 1724.83 1596.8 1724.94 1596.7 1725.04C1596.61 1725.14 1596.49 1725.21 1596.37 1725.27C1596.25 1725.32 1596.11 1725.35 1595.98 1725.35H1577.95C1577.58 1725.35 1577.22 1725.5 1576.96 1725.77C1576.69 1726.04 1576.54 1726.41 1576.54 1726.8V1784.04C1576.54 1784.18 1576.51 1784.31 1576.45 1784.44C1576.4 1784.57 1576.31 1784.68 1576.21 1784.77C1576.1 1784.86 1575.98 1784.93 1575.85 1784.96C1575.72 1785 1575.59 1785.01 1575.45 1784.99C1575.39 1784.99 1573.07 1784.99 1568.49 1784.99Z" fill="#1D4E5C"/>
<path d="M1673.97 1784.62C1673.99 1784.66 1674 1784.7 1674 1784.75C1674 1784.79 1673.99 1784.83 1673.97 1784.87C1673.95 1784.91 1673.92 1784.94 1673.88 1784.96C1673.85 1784.98 1673.81 1785 1673.76 1785L1654.2 1784.97C1654.08 1784.97 1653.95 1784.94 1653.84 1784.88C1653.72 1784.82 1653.63 1784.73 1653.55 1784.62L1638.01 1762.82C1637.76 1762.47 1637.42 1762.18 1637.04 1761.98C1636.65 1761.78 1636.22 1761.67 1635.78 1761.67H1627.25C1627.06 1761.67 1626.87 1761.71 1626.69 1761.78C1626.51 1761.86 1626.34 1761.97 1626.2 1762.1C1626.07 1762.24 1625.96 1762.4 1625.88 1762.58C1625.81 1762.76 1625.77 1762.95 1625.77 1763.15L1625.74 1784.2C1625.74 1784.41 1625.66 1784.62 1625.51 1784.77C1625.36 1784.92 1625.15 1785 1624.94 1785L1609.85 1784.97C1609.63 1784.98 1609.42 1784.89 1609.26 1784.73C1609.1 1784.58 1609.01 1784.37 1609 1784.15L1609.08 1712.73C1609.08 1712.34 1609.24 1711.97 1609.52 1711.69C1609.79 1711.41 1610.17 1711.25 1610.56 1711.23C1630.96 1710.65 1644.99 1711.17 1652.65 1712.78C1661.46 1714.67 1666.83 1719.48 1668.76 1727.2C1672.37 1741.59 1668.5 1751.98 1657.17 1758.37C1657 1758.46 1656.85 1758.59 1656.74 1758.75C1656.62 1758.91 1656.54 1759.09 1656.49 1759.28C1656.45 1759.47 1656.45 1759.67 1656.49 1759.86C1656.53 1760.05 1656.61 1760.23 1656.72 1760.39L1673.97 1784.62ZM1625.74 1726.25L1625.79 1746.48C1625.79 1746.58 1625.82 1746.69 1625.86 1746.79C1625.9 1746.89 1625.96 1746.98 1626.04 1747.05C1626.12 1747.13 1626.21 1747.19 1626.31 1747.22C1626.41 1747.26 1626.52 1747.28 1626.62 1747.28L1641.91 1747.23C1644.83 1747.21 1647.63 1746.19 1649.68 1744.37C1651.74 1742.55 1652.88 1740.1 1652.87 1737.54V1734.99C1652.87 1733.72 1652.57 1732.47 1652.02 1731.3C1651.46 1730.14 1650.64 1729.08 1649.61 1728.19C1648.59 1727.3 1647.37 1726.59 1646.03 1726.11C1644.69 1725.64 1643.26 1725.39 1641.81 1725.4L1626.52 1725.45C1626.31 1725.46 1626.12 1725.54 1625.97 1725.69C1625.83 1725.84 1625.74 1726.04 1625.74 1726.25Z" fill="#1D4E5C"/>
<path d="M1686.13 1748.26C1686.03 1726.29 1685.99 1714.58 1686 1713.14C1686.01 1712.73 1686.18 1712.33 1686.47 1712.04C1686.76 1711.75 1687.15 1711.58 1687.57 1711.57L1738.46 1711C1738.77 1711 1739.06 1711.12 1739.28 1711.33C1739.5 1711.55 1739.62 1711.84 1739.63 1712.15L1739.78 1724.47C1739.78 1724.6 1739.76 1724.74 1739.71 1724.87C1739.66 1725 1739.58 1725.11 1739.49 1725.21C1739.39 1725.31 1739.28 1725.39 1739.16 1725.45C1739.03 1725.5 1738.9 1725.53 1738.76 1725.54L1703.54 1725.93C1703.2 1725.93 1702.87 1726.07 1702.63 1726.31C1702.39 1726.54 1702.25 1726.87 1702.25 1727.2L1702.4 1739.92C1702.4 1740.09 1702.43 1740.25 1702.49 1740.4C1702.56 1740.55 1702.65 1740.69 1702.77 1740.8C1702.89 1740.92 1703.03 1741.01 1703.18 1741.07C1703.33 1741.14 1703.5 1741.17 1703.66 1741.17L1733.82 1740.82C1734.24 1740.81 1734.65 1740.97 1734.95 1741.26C1735.26 1741.55 1735.44 1741.94 1735.46 1742.36C1735.53 1743.71 1735.57 1745.59 1735.58 1748.01C1735.6 1750.42 1735.58 1752.29 1735.51 1753.64C1735.5 1754.06 1735.32 1754.46 1735.02 1754.75C1734.72 1755.04 1734.32 1755.21 1733.9 1755.21L1703.74 1755.18C1703.57 1755.18 1703.41 1755.21 1703.25 1755.28C1703.1 1755.34 1702.96 1755.43 1702.84 1755.55C1702.73 1755.66 1702.63 1755.8 1702.57 1755.95C1702.51 1756.1 1702.47 1756.26 1702.47 1756.43V1769.14C1702.47 1769.48 1702.61 1769.8 1702.85 1770.04C1703.09 1770.28 1703.42 1770.41 1703.76 1770.41L1738.98 1770.44C1739.25 1770.45 1739.51 1770.56 1739.7 1770.75C1739.89 1770.95 1740 1771.21 1740 1771.48V1783.83C1740 1784.14 1739.88 1784.44 1739.66 1784.66C1739.44 1784.88 1739.14 1785 1738.83 1785L1687.94 1784.93C1687.52 1784.93 1687.12 1784.76 1686.82 1784.47C1686.53 1784.17 1686.36 1783.78 1686.35 1783.36C1686.32 1781.93 1686.24 1770.23 1686.13 1748.26Z" fill="#1D4E5C"/>
</svg>
