<svg width="1920" height="802" viewBox="0 0 1920 802" fill="none" xmlns="http://www.w3.org/2000/svg">
<path d="M350.83 112.61H278.07C277.402 112.61 276.86 113.152 276.86 113.82V116.61C276.86 117.278 277.402 117.82 278.07 117.82H350.83C351.498 117.82 352.04 117.278 352.04 116.61V113.82C352.04 113.152 351.498 112.61 350.83 112.61Z" fill="white"/>
<path d="M336.47 120.91H329.39C328.186 120.91 327.21 121.886 327.21 123.09V160.91C327.21 162.114 328.186 163.09 329.39 163.09H336.47C337.674 163.09 338.65 162.114 338.65 160.91V123.09C338.65 121.886 337.674 120.91 336.47 120.91Z" fill="white"/>
<path d="M299.57 120.91H292.48C291.276 120.91 290.3 121.886 290.3 123.09V160.91C290.3 162.114 291.276 163.09 292.48 163.09H299.57C300.774 163.09 301.75 162.114 301.75 160.91V123.09C301.75 121.886 300.774 120.91 299.57 120.91Z" fill="white"/>
<path d="M318.08 120.91H310.99C309.786 120.91 308.81 121.886 308.81 123.09V160.91C308.81 162.114 309.786 163.09 310.99 163.09H318.08C319.284 163.09 320.26 162.114 320.26 160.91V123.09C320.26 121.886 319.284 120.91 318.08 120.91Z" fill="white"/>
<path d="M383.82 185.06C386.2 186.81 388.93 188.9 391.93 191.38C398.308 196.733 404.343 202.481 410 208.59C427.27 226.83 436.85 244.14 446.26 262.59C450.76 271.741 454.625 281.19 457.83 290.87C461.279 300.568 464.055 310.491 466.14 320.57C469.65 338.12 471.43 357.79 471.43 357.79H498.36L498.31 357.36L499.36 357.75C499.364 357.683 499.364 357.617 499.36 357.55C497.927 318.774 485.307 281.24 463.023 249.475C440.74 217.709 409.743 193.067 373.77 178.52L373.49 178.41C375.535 179.517 377.521 180.728 379.44 182.04C380.77 183 382.27 184 383.82 185.06Z" fill="white"/>
<path d="M453.25 357.29C453.08 355.29 452.78 353.29 452.56 351.29C451.04 333.89 447.09 309.51 437.12 285C434.479 278.389 431.433 271.947 428 265.71C427 263.96 426 262.32 425 260.64C405.89 225.37 378.66 198.37 346.95 184.64L346.83 184.56L347.06 184.86C353.533 191.39 359.301 198.583 364.27 206.32C384.27 237.54 397.92 274.05 402.59 319.17C404.53 337.92 404.42 352.72 404.29 348.98C404.38 351.63 404.48 355.98 404.52 357.42L404.41 357.96H410.01L453.01 357.83H453.24C453.24 357.83 453.27 357.44 453.25 357.29Z" fill="white"/>
<path d="M342.68 108.77C342.55 92.83 330.25 80 315 79.69V74.93H322.64V74.11V71.27C322.64 71.2011 322.613 71.1349 322.564 71.0862C322.515 71.0374 322.449 71.01 322.38 71.01H321.25C321.216 71.01 321.182 71.0167 321.151 71.0298C321.119 71.0429 321.09 71.062 321.066 71.0862C321.042 71.1103 321.023 71.139 321.01 71.1705C320.997 71.2021 320.99 71.2359 320.99 71.27V74H314.99V63.17H315.15C315.193 63.17 315.235 63.1614 315.275 63.1447C315.314 63.128 315.35 63.1036 315.38 63.0728C315.41 63.042 315.433 63.0055 315.449 62.9655C315.464 62.9256 315.471 62.8829 315.47 62.84V59.84C315.471 59.7972 315.464 59.7545 315.449 59.7145C315.433 59.6745 315.41 59.638 315.38 59.6072C315.35 59.5765 315.314 59.552 315.275 59.5353C315.235 59.5186 315.193 59.51 315.15 59.51H313.82C313.733 59.51 313.649 59.5448 313.587 59.6067C313.525 59.6686 313.49 59.7525 313.49 59.84V62.84C313.49 62.9275 313.525 63.0115 313.587 63.0734C313.649 63.1352 313.733 63.17 313.82 63.17H314V74H307.91V71.27C307.91 71.2359 307.903 71.2021 307.89 71.1705C307.877 71.139 307.858 71.1103 307.834 71.0862C307.81 71.062 307.781 71.0429 307.75 71.0298C307.718 71.0167 307.684 71.01 307.65 71.01H306.51C306.476 71.01 306.442 71.0167 306.411 71.0298C306.379 71.0429 306.35 71.062 306.326 71.0862C306.302 71.1103 306.283 71.139 306.27 71.1705C306.257 71.2021 306.25 71.2359 306.25 71.27V74.09V74.92H314V79.68C298.73 79.97 286.42 92.89 286.35 108.88V109H342.65L342.68 108.77Z" fill="white"/>
<path d="M350.83 167.54H278.07C277.402 167.54 276.86 168.082 276.86 168.75V171.54C276.86 172.208 277.402 172.75 278.07 172.75H350.83C351.498 172.75 352.04 172.208 352.04 171.54V168.75C352.04 168.082 351.498 167.54 350.83 167.54Z" fill="white"/>
<path d="M324.81 188.59L324.04 187.93V357.81L386.35 358.03C386.35 358.03 386.35 356.27 386.35 355.39C386.35 283 361.4 220.07 324.81 188.59Z" fill="white"/>
<path d="M507.97 409.57H121.29C120.086 409.57 119.11 410.546 119.11 411.75V420.9C119.11 422.104 120.086 423.08 121.29 423.08H507.97C509.174 423.08 510.15 422.104 510.15 420.9V411.75C510.15 410.546 509.174 409.57 507.97 409.57Z" fill="white"/>
<path d="M403.53 383.85H387.06C385.856 383.85 384.88 384.826 384.88 386.03V402.49C384.88 403.694 385.856 404.67 387.06 404.67H403.53C404.734 404.67 405.71 403.694 405.71 402.49V386.03C405.71 384.826 404.734 383.85 403.53 383.85Z" fill="white"/>
<path d="M265 206.34C269.965 198.601 275.734 191.408 282.21 184.88L282.44 184.58L282.32 184.65C250.61 198.43 223.37 225.45 204.26 260.74C203.26 262.41 202.26 264.05 201.26 265.74C197.827 271.985 194.778 278.433 192.13 285.05C182.13 309.57 178.21 333.96 176.69 351.36C176.47 353.36 176.18 355.36 176 357.36C176 357.52 176 357.82 176 357.82H176.23L217.85 357.94H224.85L224.74 357.39C224.74 355.93 224.88 351.61 224.97 348.96C224.84 352.69 224.73 337.89 226.67 319.14C231.33 274.09 245 237.57 265 206.34Z" fill="white"/>
<path d="M322.82 383.83H306.34C305.136 383.83 304.16 384.806 304.16 386.01V402.49C304.16 403.694 305.136 404.67 306.34 404.67H322.82C324.024 404.67 325 403.694 325 402.49V386.01C325 384.806 324.024 383.83 322.82 383.83Z" fill="white"/>
<path d="M508.94 371.67H472.28V365.47C472.281 365.23 472.235 364.992 472.144 364.77C472.053 364.548 471.92 364.347 471.75 364.177C471.581 364.007 471.38 363.872 471.159 363.779C470.937 363.687 470.7 363.64 470.46 363.64H453.28C452.795 363.64 452.329 363.833 451.986 364.176C451.643 364.519 451.45 364.985 451.45 365.47V371.67H405.72V365.47C405.72 364.986 405.528 364.522 405.187 364.18C404.846 363.837 404.383 363.643 403.9 363.64H386.72C386.235 363.64 385.769 363.833 385.426 364.176C385.083 364.519 384.89 364.985 384.89 365.47V371.67H325V365.44C325.001 365.2 324.955 364.962 324.864 364.74C324.773 364.518 324.639 364.317 324.47 364.147C324.301 363.977 324.1 363.842 323.879 363.749C323.657 363.657 323.42 363.61 323.18 363.61H306C305.76 363.61 305.523 363.657 305.301 363.749C305.08 363.842 304.878 363.977 304.709 364.147C304.54 364.317 304.406 364.518 304.316 364.74C304.225 364.962 304.179 365.2 304.18 365.44V371.67H244.27V365.44C244.27 365.2 244.223 364.962 244.131 364.74C244.039 364.518 243.904 364.316 243.734 364.146C243.564 363.976 243.362 363.841 243.14 363.749C242.918 363.657 242.68 363.61 242.44 363.61H225.26C224.775 363.61 224.309 363.803 223.966 364.146C223.623 364.489 223.43 364.955 223.43 365.44V371.67H177.69V365.44C177.69 364.955 177.497 364.489 177.154 364.146C176.811 363.803 176.345 363.61 175.86 363.61H158.68C158.44 363.61 158.202 363.657 157.98 363.749C157.758 363.841 157.556 363.976 157.386 364.146C157.216 364.316 157.081 364.518 156.989 364.74C156.897 364.962 156.85 365.2 156.85 365.44V371.67H120.32C119.999 371.67 119.691 371.797 119.464 372.024C119.237 372.251 119.11 372.559 119.11 372.88V376.16C119.11 376.481 119.237 376.789 119.464 377.016C119.691 377.243 119.999 377.37 120.32 377.37H508.94C509.261 377.37 509.569 377.243 509.795 377.016C510.022 376.789 510.15 376.481 510.15 376.16V372.88C510.15 372.559 510.022 372.251 509.795 372.024C509.569 371.797 509.261 371.67 508.94 371.67Z" fill="white"/>
<path d="M470.09 383.85H453.62C452.416 383.85 451.44 384.826 451.44 386.03V402.49C451.44 403.694 452.416 404.67 453.62 404.67H470.09C471.294 404.67 472.27 403.694 472.27 402.49V386.03C472.27 384.826 471.294 383.85 470.09 383.85Z" fill="white"/>
<path d="M242.11 383.83H225.63C224.426 383.83 223.45 384.806 223.45 386.01V402.49C223.45 403.694 224.426 404.67 225.63 404.67H242.11C243.314 404.67 244.29 403.694 244.29 402.49V386.01C244.29 384.806 243.314 383.83 242.11 383.83Z" fill="white"/>
<path d="M130.9 357.92H141H150.49H157.8C157.8 357.92 159.58 338.24 163.09 320.68C165.173 310.599 167.953 300.676 171.41 290.98C174.615 281.293 178.488 271.841 183 262.69C192.4 244.2 202 226.89 219.25 208.64C224.91 202.53 230.945 196.779 237.32 191.42C240.32 188.95 243.03 186.87 245.41 185.12C246.97 184.03 248.48 182.99 249.81 182.12C251.746 180.807 253.749 179.595 255.81 178.49L255.53 178.6C219.553 193.159 188.554 217.813 166.272 249.591C143.99 281.37 131.376 318.915 129.95 357.7C129.95 357.77 129.95 357.91 129.95 357.91H130.95L130.9 357.92Z" fill="white"/>
<path d="M305.23 357.91V188C305.23 188 304.71 188.43 304.46 188.66C267.87 220.15 242.92 283.04 242.92 355.5C242.92 356.38 242.92 358.14 242.92 358.14L305.23 357.91Z" fill="white"/>
<path d="M175.53 383.83H159.05C157.846 383.83 156.87 384.806 156.87 386.01V402.49C156.87 403.694 157.846 404.67 159.05 404.67H175.53C176.734 404.67 177.71 403.694 177.71 402.49V386.01C177.71 384.806 176.734 383.83 175.53 383.83Z" fill="white"/>
<path d="M191.43 660.45C184.66 662.71 175.3 662.39 168.84 654.1L152.28 632.81C147.65 626.81 142.17 625.92 134.64 625.81V646.68C134.64 654.21 139.8 655.5 146.64 656.37C147.4 656.47 146.86 660.02 146 660.02H113.45C112.59 660.02 111.94 656.47 112.8 656.37C118.29 655.61 121.73 653.46 121.73 646.68V598.68C121.73 591.59 117.97 589.54 112.8 588.14C111.94 587.93 112.48 584.38 113.45 584.48C117.556 584.952 121.687 585.169 125.82 585.13C133.82 585.13 141.2 584.48 146.37 584.48C162.61 584.48 173.47 591.16 173.47 604.39C173.47 616.86 163.36 623 154.33 623.54V624.07C158.63 624.07 161.75 625.9 166.48 631.82L182.48 651.94C185.81 656.13 189.04 657.31 191.4 657.31C192.3 657.33 192.08 660.23 191.43 660.45ZM159.92 607.31C159.92 595.8 152.6 590.1 143.03 590.1C136.68 590.1 134.64 592.68 134.64 598.7V620.86H137.76C153.79 620.86 159.92 618.07 159.92 607.31Z" fill="white"/>
<path d="M208.8 656.37C215.04 654.75 219.88 653.78 219.88 645.82V598.06C219.88 591.18 215.47 589.34 210.88 588.16C210.02 587.95 210.56 584.4 211.42 584.5C219.27 585.37 232.83 585.15 239.42 585.15C249.21 585.15 256.31 584.72 265.12 584.5C267.71 584.5 267.71 586.23 267.17 588.7L264.59 598.92C264.27 600.43 261.59 600.43 261.15 598.92C259.53 593.65 256.31 590.64 242.86 590.64C235.33 590.64 232.86 592.57 232.86 598.17V615.7C232.86 618.5 234.26 619.04 236.41 619.04H238.77C247.49 619.04 255.02 618.18 259.43 614.2C260.5 613.2 262.87 613.44 261.9 615.6L255.77 629.15C254.91 631.08 253.29 630.87 252.11 629.25C249.64 625.81 244.11 624.42 237.91 624.42H236.41C234.26 624.42 232.86 624.95 232.86 627.75V645.82C232.86 651.96 235.44 654.21 244.37 654.21C260.61 654.21 267.06 646.79 269.65 642.7C270.4 641.52 273.3 642.05 273.3 643.88C273.3 649.37 268.68 660.23 261.9 660.23C255.9 659.91 249.96 659.59 240.9 659.59C231.01 659.59 219.28 659.26 209.49 660.23C208.37 660.35 207.94 656.58 208.8 656.37Z" fill="white"/>
<path d="M316.19 631.19V646.68C316.19 654.21 321.35 655.5 328.24 656.37C328.99 656.47 328.46 660.02 327.59 660.02H295C294.14 660.02 293.5 656.47 294.35 656.37C299.84 655.61 303.28 653.46 303.28 646.68V598.68C303.28 591.59 299.52 589.54 294.35 588.14C293.5 587.93 294.03 584.38 295 584.48C299.106 584.952 303.237 585.169 307.37 585.13C315.37 585.13 322 584.48 327.49 584.48C344.16 584.48 357.93 590.62 357.93 607.48C357.93 626.67 340 634.74 316.19 631.19ZM316.19 598.7V625.92C334.48 628.5 344.05 624.09 344.05 610C344.05 597.2 335.88 590.1 324.79 590.1C318 590.1 316.19 592.47 316.19 598.7Z" fill="white"/>
<path d="M388.3 631.84V598.06C388.3 591.28 384.86 589.06 379.59 588.38C378.73 588.27 379.37 584.72 380.24 584.72H409.6C410.46 584.72 411.1 588.27 410.25 588.38C405.94 588.91 401.64 590.53 401.64 598.06V632.38C401.64 647.38 410.35 654.38 421.75 654.38C433.48 654.38 442.84 647.38 442.84 632.38V598.06C442.84 591.06 438.84 589.13 433.59 588.38C432.84 588.27 433.37 584.72 434.23 584.72H458.44C459.19 584.72 459.83 588.27 458.98 588.38C454.67 588.91 450.37 590.53 450.37 598.06V631.73C450.37 651.52 437.57 661.73 420.46 661.73C405.3 661.74 388.3 653.67 388.3 631.84ZM419.92 557.93C421.86 555.14 430.92 563.42 428.31 565.35L414.23 576C412.83 577.07 409.06 573.63 410.13 572.12L419.92 557.93Z" fill="white"/>
<path d="M545.18 638.29C545.18 651.63 533.03 660.23 515.06 660.23C509.9 660.23 503.87 659.59 495.91 659.59C490.276 659.502 484.641 659.715 479.03 660.23C478.03 660.35 477.52 656.58 478.38 656.37C484.62 654.75 489.46 653.78 489.46 645.82V598.06C489.46 591.18 485.05 589.34 480.46 588.16C479.59 587.95 480.13 584.4 480.99 584.5C485.307 584.967 489.648 585.184 493.99 585.15C502.59 585.15 508.94 584.5 513.67 584.5C527.55 584.5 538.95 590.31 539.06 602.15C539.17 610.86 533.06 616.88 525.5 618.39V619C535.5 619 545.18 626.24 545.18 638.29ZM502.37 598.06V617.21H513.45C521.2 617.21 525.71 613.33 525.71 605.05C525.71 594.83 518.83 590.1 510.01 590.1C504.3 590.1 502.37 592 502.37 598.06ZM531.3 640.66C531.3 628.83 523.45 622.59 513.45 622.59H502.37V645.82C502.37 651.74 505.37 654.64 514.74 654.64C524.11 654.64 531.3 651.84 531.3 640.66Z" fill="white"/>
<path d="M565.77 656.37C572.01 654.75 576.85 653.78 576.85 645.82V598.06C576.85 590.53 572.44 589.06 567.85 588.38C566.99 588.27 567.64 584.72 568.39 584.72H598C598.75 584.72 599.29 588.27 598.54 588.38C594.02 588.91 589.72 590.53 589.72 598.06V645.82C589.72 651.96 592.3 654.21 601.22 654.21C617.47 654.21 623.92 646.79 626.51 642.7C627.26 641.52 630.16 642.05 630.16 643.88C630.16 649.37 625.54 660.23 618.76 660.23C612.76 659.91 606.82 659.59 597.76 659.59C587.87 659.59 576.14 659.26 566.35 660.23C565.33 660.35 564.9 656.58 565.77 656.37Z" fill="white"/>
<path d="M649.17 656.37C654.66 655.61 658.1 653.46 658.1 646.68V598.06C658.1 591.28 654.66 589.13 649.17 588.38C648.31 588.27 648.96 584.72 649.82 584.72H679.29C680.15 584.72 680.8 588.27 679.94 588.38C675.32 589.03 671.01 590.53 671.01 598.06V646.68C671.01 654.21 675.32 655.68 679.94 656.37C680.8 656.47 680.15 660.02 679.29 660.02H649.82C649 660 648.31 656.47 649.17 656.37Z" fill="white"/>
<path d="M702.65 623.77C702.65 605.16 714.06 583 744.18 583C756.66 583 767.41 586.87 766.12 590.64L764.72 594.83C760.85 606.34 756.66 591.61 737.51 591.61C722.13 591.61 714.6 601.61 714.6 617.1C714.6 641.3 732.99 651.42 747.73 651.42C749.67 651.42 759.46 649.91 765.05 646.36C765.91 645.82 768.16 648.29 767.52 649.26C762.9 656.04 748.52 661.74 745.15 661.74C727.08 661.74 702.65 651.2 702.65 623.77Z" fill="white"/>
<path d="M865.77 660H837.37C835.97 660 835.87 656.56 837.05 656.35C841.05 655.59 845.33 654.19 841.35 644.94L840.17 642.25C839.09 639.67 837.27 639.45 834.04 639.45H812.1C808.87 639.45 807.04 639.67 805.96 642.25L804.89 645C801.12 654.25 805.21 655.65 810.37 656.41C811.77 656.62 811.45 660.06 810.05 660.06H786.81C785.52 660.06 785.2 656.62 786.49 656.41C790.9 655.65 793.49 654.14 797.49 645L815.67 603.27C819.86 593.8 821.15 589.38 821.15 585.27C821.15 584.63 828.68 582.9 829 583.66L855.25 644.86C859.12 654.01 861.7 655.73 866.01 656.38C867.49 656.58 867.06 660 865.77 660ZM835.77 631.71L823.18 601.59L810.49 631.71C809.85 633.22 811.49 633.43 812.96 633.43H833.3C834.79 633.45 836.41 633.24 835.76 631.73L835.77 631.71Z" fill="white"/>
<path d="M917.89 656.37C924.13 654.75 928.98 653.78 928.98 645.82V598.06C928.98 591.18 924.56 589.34 919.98 588.16C919.11 587.95 919.66 584.4 920.51 584.5C924.976 584.993 929.468 585.211 933.96 585.15C942.35 585.15 949.88 584.5 955.37 584.5C981.37 584.5 995.49 600 995.49 620.76C995.49 641.52 981.4 660.23 955.26 660.23C950.09 660.23 943.43 659.59 935.47 659.59C929.833 659.504 924.195 659.718 918.58 660.23C917.46 660.35 917 656.58 917.89 656.37ZM982.54 626.89C982.54 606.34 971.36 590.21 951.99 590.21C944.36 590.21 941.88 592.57 941.88 598.06V645.82C941.88 651.63 945.88 654.54 956.29 654.54C973.83 654.54 982.54 645.07 982.54 626.89Z" fill="white"/>
<path d="M1018.83 622.8C1018.83 601.07 1034.33 583 1057.88 583C1080.36 583 1096.71 599.46 1096.71 621.83C1096.71 643.67 1081.33 661.74 1057.71 661.74C1035.29 661.74 1018.83 645.18 1018.83 622.8ZM1083.91 627.86C1083.91 606.12 1069.17 590.31 1053.69 590.31C1044.22 590.31 1031.69 596.55 1031.69 616.78C1031.69 638.72 1046.43 654.43 1061.81 654.43C1071.33 654.43 1083.91 648.19 1083.91 627.86Z" fill="white"/>
<path d="M1213.81 660H1185.73C1184.98 660 1184.44 656.45 1185.08 656.35C1189.6 655.59 1192.94 653.44 1192.61 646.66L1190.61 610.52L1173.14 646C1171.34 649.54 1169.9 653.252 1168.84 657.08C1168.63 658.37 1166.37 659.01 1164.65 659.01C1163.96 659.066 1163.28 658.911 1162.68 658.566C1162.08 658.222 1161.6 657.703 1161.31 657.08L1136.46 610L1134.85 646.68C1134.52 654.21 1138.93 655.94 1142.38 656.37C1143.24 656.47 1142.59 660.02 1141.84 660.02H1119.57C1118.71 660.02 1118.07 656.47 1118.93 656.37C1123.55 655.82 1127.43 654.21 1127.86 646.68L1131.3 584.93C1131.41 583.11 1135.49 583 1136.57 584.93L1167.77 643.24L1196.7 584.93C1197.7 583 1201.97 583.11 1202.08 584.93L1205.52 646.68C1205.96 654.21 1209.82 655.82 1214.35 656.37C1215.2 656.47 1214.56 660 1213.81 660Z" fill="white"/>
<path d="M1235.91 656.37C1241.39 655.61 1244.84 653.46 1244.84 646.68V598.06C1244.84 591.28 1241.39 589.13 1235.91 588.38C1235.05 588.27 1235.69 584.72 1236.55 584.72H1266C1266.86 584.72 1267.5 588.27 1266.64 588.38C1262.02 589.03 1257.71 590.53 1257.71 598.06V646.68C1257.71 654.21 1262.02 655.68 1266.64 656.37C1267.5 656.47 1266.86 660.02 1266 660.02H1236.52C1235.69 660 1235.05 656.47 1235.91 656.37Z" fill="white"/>
<path d="M1355.11 659.05L1303.91 605.48V646.36C1303.91 653.67 1308.21 654.85 1314.34 656.36C1315.21 656.57 1314.77 660.01 1313.69 660.01H1288.2C1287.34 660.01 1286.7 656.67 1287.67 656.36C1292.18 654.84 1296.48 653.99 1296.48 646.36V604.62C1296.48 596.99 1295.3 593.32 1292.48 589.56C1291.48 588.27 1290.55 587.41 1290.55 587.09C1290.54 586.793 1290.58 586.496 1290.68 586.216C1290.78 585.937 1290.93 585.679 1291.13 585.459C1291.33 585.239 1291.57 585.06 1291.84 584.933C1292.11 584.807 1292.4 584.734 1292.7 584.72H1300.7C1301.18 584.66 1301.67 584.721 1302.12 584.895C1302.57 585.07 1302.97 585.353 1303.28 585.72L1353.41 638.72V598.27C1353.41 590.64 1348.57 589.78 1342.98 588.38C1342.11 588.16 1342.55 584.72 1343.62 584.72H1369.11C1369.98 584.72 1370.51 588.16 1369.65 588.38C1364.92 589.78 1360.83 590.64 1360.83 598.27V640.12C1360.83 647.22 1361.05 655.12 1362.12 659.05C1362.56 660.66 1360.83 661.1 1359.12 661.1C1357.41 661.1 1356.29 660.35 1355.11 659.05Z" fill="white"/>
<path d="M1391.2 656.37C1396.69 655.61 1400.13 653.46 1400.13 646.68V598.06C1400.13 591.28 1396.69 589.13 1391.2 588.38C1390.34 588.27 1390.98 584.72 1391.84 584.72H1421.32C1422.18 584.72 1422.82 588.27 1421.96 588.38C1417.34 589.03 1413.04 590.53 1413.04 598.06V646.68C1413.04 654.21 1417.34 655.68 1421.96 656.37C1422.82 656.47 1422.18 660.02 1421.32 660.02H1391.84C1391 660 1390.34 656.47 1391.2 656.37Z" fill="white"/>
<path d="M1444.68 623.77C1444.68 605.16 1456.08 583 1486.2 583C1498.68 583 1509.44 586.87 1508.2 590.64L1506.8 594.83C1502.92 606.34 1498.73 591.61 1479.58 591.61C1464.2 591.61 1456.67 601.61 1456.67 617.1C1456.67 641.3 1475.07 651.42 1489.8 651.42C1491.74 651.42 1501.53 649.91 1507.12 646.36C1507.98 645.82 1510.24 648.29 1509.59 649.26C1504.97 656.04 1490.59 661.74 1487.22 661.74C1469.1 661.74 1444.68 651.2 1444.68 623.77Z" fill="white"/>
<path d="M1607.79 660H1579.39C1577.99 660 1577.89 656.56 1579.07 656.35C1583.07 655.59 1587.35 654.19 1583.37 644.94L1582.18 642.25C1581.11 639.67 1579.28 639.45 1576.06 639.45H1554.06C1550.84 639.45 1549 639.67 1547.93 642.25L1546.86 644.94C1543.09 654.19 1547.17 655.59 1552.34 656.35C1553.74 656.56 1553.42 660 1552.02 660H1528.78C1527.49 660 1527.17 656.56 1528.46 656.35C1532.87 655.59 1535.46 654.08 1539.46 644.94L1557.64 603.21C1561.84 593.74 1563.13 589.32 1563.13 585.21C1563.13 584.57 1570.66 582.84 1570.98 583.6L1597.23 644.8C1601.1 653.95 1603.68 655.67 1607.98 656.32C1609.51 656.58 1609.08 660 1607.79 660ZM1577.79 631.71L1565.21 601.59L1552.52 631.71C1551.87 633.22 1553.52 633.43 1554.99 633.43H1575.32C1576.81 633.45 1578.42 633.24 1577.77 631.73L1577.79 631.71Z" fill="white"/>
<path d="M1695.39 659.05L1644.19 605.48V646.36C1644.19 653.67 1648.49 654.85 1654.62 656.36C1655.49 656.57 1655.06 660.01 1653.97 660.01H1628.49C1627.62 660.01 1626.98 656.67 1627.95 656.36C1632.47 654.84 1636.76 653.99 1636.76 646.36V604.62C1636.76 596.99 1635.58 593.32 1632.76 589.56C1631.76 588.27 1630.83 587.41 1630.83 587.09C1630.82 586.793 1630.86 586.496 1630.96 586.216C1631.06 585.937 1631.21 585.679 1631.41 585.459C1631.61 585.239 1631.85 585.06 1632.12 584.933C1632.39 584.807 1632.68 584.734 1632.98 584.72H1640.98C1641.46 584.66 1641.95 584.721 1642.4 584.895C1642.85 585.07 1643.25 585.353 1643.56 585.72L1693.69 638.72V598.27C1693.69 590.64 1688.85 589.78 1683.26 588.38C1682.39 588.16 1682.83 584.72 1683.9 584.72H1709.4C1710.26 584.72 1710.8 588.16 1709.93 588.38C1705.2 589.78 1701.11 590.64 1701.11 598.27V640.12C1701.11 647.22 1701.33 655.12 1702.4 659.05C1702.84 660.66 1701.11 661.1 1699.4 661.1C1697.69 661.1 1696.57 660.35 1695.39 659.05Z" fill="white"/>
<path d="M1806.46 660H1778.06C1776.66 660 1776.56 656.56 1777.74 656.35C1781.74 655.59 1786.02 654.19 1782.04 644.94L1780.85 642.25C1779.78 639.67 1777.95 639.45 1774.73 639.45H1752.73C1749.51 639.45 1747.67 639.67 1746.6 642.25L1745.53 644.94C1741.76 654.19 1745.84 655.59 1751.01 656.35C1752.41 656.56 1752.09 660 1750.69 660H1727.5C1726.21 660 1725.89 656.56 1727.18 656.35C1731.59 655.59 1734.18 654.08 1738.18 644.94L1756.36 603.21C1760.56 593.74 1761.85 589.32 1761.85 585.21C1761.85 584.57 1769.38 582.84 1769.7 583.6L1795.95 644.8C1799.82 653.95 1802.4 655.67 1806.7 656.32C1808.18 656.58 1807.75 660 1806.46 660ZM1776.46 631.71L1763.88 601.59L1751.19 631.71C1750.54 633.22 1752.19 633.43 1753.66 633.43H1774C1775.48 633.45 1777.09 633.24 1776.44 631.73L1776.46 631.71Z" fill="white"/>
<path d="M510.72 724.09H121.8V742.5H510.72V724.09Z" fill="white"/>
<path d="M114.88 506.86V506.71C114.88 492.32 125.45 479.56 141.2 479.56C150.06 479.56 155.53 482.11 160.79 486.56L157 491C152.672 486.96 146.917 484.802 141 485C129.37 485 121 494.83 121 506.53V506.67C121 519.2 129 528.5 141.77 528.5C147.286 528.513 152.647 526.679 157 523.29V510.29H141V504.96H162.67V525.89C156.858 531.044 149.358 533.89 141.59 533.89C125.09 533.89 114.89 521.89 114.89 506.89" fill="white"/>
<path d="M229.65 506.86V506.71C229.65 494.78 220.94 485.04 208.95 485.04C196.96 485.04 188.39 494.64 188.39 506.57V506.71C188.39 518.64 197.1 528.4 209.09 528.4C221.08 528.4 229.65 518.79 229.65 506.86ZM182.24 506.86V506.71C182.24 492.24 193.11 479.56 209.09 479.56C225.07 479.56 235.8 492.09 235.8 506.56C235.88 506.64 235.88 506.64 235.8 506.7C235.8 521.18 224.93 533.87 208.95 533.87C192.97 533.87 182.24 521.33 182.24 506.87" fill="white"/>
<path d="M280.35 527.64C288.35 527.64 293.26 524.12 293.26 518.27V518.12C293.26 512.42 288.46 509.12 279.31 509.12H262.73V527.64H280.35ZM278.25 503.86C285.38 503.86 290.33 500.65 290.33 494.49V494.34C290.33 489.16 286.21 485.79 278.71 485.79H262.71V503.86H278.25ZM256.87 480.46H279.23C285.23 480.46 289.95 482.18 292.96 485.11C294.055 486.216 294.917 487.53 295.498 488.974C296.078 490.418 296.364 491.964 296.34 493.52V493.67C296.34 500.5 292.14 504.02 288.01 505.81C294.24 507.7 299.27 511.29 299.27 518.5V518.65C299.27 527.65 291.69 532.98 280.21 532.98H256.87V480.46Z" fill="white"/>
<path d="M326.06 480.46H320.12V532.98H326.06V480.46Z" fill="white"/>
<path d="M349.96 480.46H387.92V485.86H355.89V503.79H384.55V509.2H355.89V527.57H388.3V532.98H349.96V480.46Z" fill="white"/>
<path d="M430.83 507.25C438.71 507.25 444.34 503.2 444.34 496.44V496.28C444.34 489.84 439.39 485.94 430.91 485.94H414.7V507.25H430.83ZM408.78 480.46H431.36C437.81 480.46 442.98 482.46 446.29 485.71C448.943 488.497 450.382 492.223 450.29 496.07V496.21C450.29 504.92 444.29 510.02 436.03 511.52L452.21 533H444.93L429.71 512.58H414.71V533H408.79L408.78 480.46Z" fill="white"/>
<path d="M471.56 480.46H477.12L510.2 522.54V480.46H515.97V532.98H511.25L477.33 489.91V532.98H471.56V480.46Z" fill="white"/>
<path d="M584.46 506.86V506.71C584.46 494.78 575.75 485.04 563.75 485.04C551.75 485.04 543.2 494.64 543.2 506.57V506.71C543.2 518.64 551.89 528.4 563.9 528.4C575.91 528.4 584.46 518.79 584.46 506.86ZM537.05 506.86V506.71C537.05 492.24 547.92 479.56 563.9 479.56C579.88 479.56 590.61 492.09 590.61 506.56C590.69 506.64 590.69 506.64 590.61 506.7C590.61 521.18 579.73 533.87 563.75 533.87C547.77 533.87 537.05 521.33 537.05 506.87" fill="white"/>
<path d="M661 527.5C674.27 527.5 682.75 518.5 682.75 506.87V506.72C682.75 495.09 674.27 485.94 661 485.94H648.66V527.5H661ZM642.77 480.5H661C677.5 480.5 688.9 491.82 688.9 506.6V506.76C688.9 521.54 677.5 533.02 661 533.02H642.74L642.77 480.5Z" fill="white"/>
<path d="M709.95 480.46H747.9V485.86H715.87V503.79H744.53V509.2H715.87V527.57H748.28V532.98H709.95V480.46Z" fill="white"/>
<path d="M799.81 480.46H805.73V527.5H835.29V532.98H799.81V480.46Z" fill="white"/>
<path d="M888.85 513.76L876.92 487L864.92 513.77L888.85 513.76ZM874.23 480.09H879.77L903.71 533H897.33L891.18 519.13H862.59L856.37 533H850.3L874.23 480.09Z" fill="white"/>
</svg>
