<svg width="2039" height="802" viewBox="0 0 2039 802" fill="none" xmlns="http://www.w3.org/2000/svg">
<path d="M372.574 112.61H295.305C294.595 112.61 294.02 113.152 294.02 113.82V116.61C294.02 117.278 294.595 117.82 295.305 117.82H372.574C373.284 117.82 373.859 117.278 373.859 116.61V113.82C373.859 113.152 373.284 112.61 372.574 112.61Z" fill="#003876"/>
<path d="M357.324 120.91H349.805C348.527 120.91 347.49 121.886 347.49 123.09V160.91C347.49 162.114 348.527 163.09 349.805 163.09H357.324C358.603 163.09 359.639 162.114 359.639 160.91V123.09C359.639 121.886 358.603 120.91 357.324 120.91Z" fill="#003876"/>
<path d="M318.138 120.91H310.608C309.33 120.91 308.293 121.886 308.293 123.09V160.91C308.293 162.114 309.33 163.09 310.608 163.09H318.138C319.416 163.09 320.453 162.114 320.453 160.91V123.09C320.453 121.886 319.416 120.91 318.138 120.91Z" fill="#003876"/>
<path d="M337.795 120.91H330.265C328.987 120.91 327.95 121.886 327.95 123.09V160.91C327.95 162.114 328.987 163.09 330.265 163.09H337.795C339.073 163.09 340.11 162.114 340.11 160.91V123.09C340.11 121.886 339.073 120.91 337.795 120.91Z" fill="#003876"/>
<path d="M407.609 185.06C410.136 186.81 413.036 188.9 416.222 191.38C422.994 196.733 429.404 202.481 435.412 208.59C453.752 226.83 463.926 244.14 473.919 262.59C478.697 271.741 482.803 281.19 486.206 290.87C489.868 300.568 492.817 310.491 495.031 320.57C498.759 338.12 500.649 357.79 500.649 357.79H529.248L529.195 357.36L530.31 357.75C530.314 357.683 530.314 357.617 530.31 357.55C528.788 318.774 515.386 281.24 491.721 249.475C468.056 217.709 435.138 193.067 396.936 178.52L396.639 178.41C398.81 179.517 400.919 180.728 402.957 182.04C404.37 183 405.963 184 407.609 185.06Z" fill="#003876"/>
<path d="M481.342 357.29C481.161 355.29 480.843 353.29 480.609 351.29C478.995 333.89 474.8 309.51 464.212 285C461.408 278.389 458.173 271.947 454.527 265.71C453.465 263.96 452.403 262.32 451.341 260.64C431.047 225.37 402.129 198.37 368.454 184.64L368.326 184.56L368.57 184.86C375.445 191.39 381.57 198.583 386.847 206.32C408.087 237.54 422.583 274.05 427.542 319.17C429.602 337.92 429.486 352.72 429.348 348.98C429.443 351.63 429.549 355.98 429.592 357.42L429.475 357.96H435.422L481.087 357.83H481.331C481.331 357.83 481.363 357.44 481.342 357.29Z" fill="#003876"/>
<path d="M363.919 108.77C363.781 92.83 350.719 80 334.523 79.69V74.93H342.637V74.11V71.27C342.637 71.2011 342.608 71.1349 342.556 71.0862C342.504 71.0374 342.434 71.01 342.361 71.01H341.161C341.124 71.01 341.089 71.0167 341.055 71.0298C341.022 71.0429 340.991 71.062 340.965 71.0862C340.94 71.1103 340.92 71.139 340.906 71.1705C340.892 71.2021 340.885 71.2359 340.885 71.27V74H334.513V63.17H334.683C334.728 63.17 334.773 63.1614 334.815 63.1447C334.857 63.128 334.895 63.1036 334.927 63.0728C334.958 63.042 334.983 63.0055 335 62.9655C335.016 62.9256 335.024 62.8829 335.022 62.84V59.84C335.024 59.7972 335.016 59.7545 335 59.7145C334.983 59.6745 334.958 59.638 334.927 59.6072C334.895 59.5765 334.857 59.552 334.815 59.5353C334.773 59.5186 334.728 59.51 334.683 59.51H333.27C333.177 59.51 333.088 59.5448 333.022 59.6067C332.957 59.6686 332.92 59.7525 332.92 59.84V62.84C332.92 62.9275 332.957 63.0115 333.022 63.0734C333.088 63.1352 333.177 63.17 333.27 63.17H333.461V74H326.994V71.27C326.994 71.2359 326.987 71.2021 326.973 71.1705C326.959 71.139 326.939 71.1103 326.913 71.0862C326.887 71.062 326.857 71.0429 326.823 71.0298C326.79 71.0167 326.754 71.01 326.718 71.01H325.507C325.471 71.01 325.435 71.0167 325.401 71.0298C325.368 71.0429 325.338 71.062 325.312 71.0862C325.286 71.1103 325.266 71.139 325.252 71.1705C325.238 71.2021 325.231 71.2359 325.231 71.27V74.09V74.92H333.461V79.68C317.245 79.97 304.172 92.89 304.098 108.88V109H363.887L363.919 108.77Z" fill="#003876"/>
<path d="M372.574 167.54H295.305C294.595 167.54 294.02 168.082 294.02 168.75V171.54C294.02 172.208 294.595 172.75 295.305 172.75H372.574C373.284 172.75 373.859 172.208 373.859 171.54V168.75C373.859 168.082 373.284 167.54 372.574 167.54Z" fill="#003876"/>
<path d="M344.942 188.59L344.124 187.93V357.81L410.296 358.03C410.296 358.03 410.296 356.27 410.296 355.39C410.296 283 383.8 220.07 344.942 188.59Z" fill="#003876"/>
<path d="M539.453 409.57H128.807C127.529 409.57 126.492 410.546 126.492 411.75V420.9C126.492 422.104 127.529 423.08 128.807 423.08H539.453C540.732 423.08 541.768 422.104 541.768 420.9V411.75C541.768 410.546 540.732 409.57 539.453 409.57Z" fill="#003876"/>
<path d="M428.54 383.85H411.049C409.771 383.85 408.734 384.826 408.734 386.03V402.49C408.734 403.694 409.771 404.67 411.049 404.67H428.54C429.819 404.67 430.855 403.694 430.855 402.49V386.03C430.855 384.826 429.819 383.85 428.54 383.85Z" fill="#003876"/>
<path d="M281.424 206.34C286.698 198.601 292.824 191.408 299.701 184.88L299.945 184.58L299.818 184.65C266.142 198.43 237.214 225.45 216.92 260.74C215.858 262.41 214.796 264.05 213.734 265.74C210.088 271.985 206.85 278.433 204.038 285.05C193.418 309.57 189.255 333.96 187.641 351.36C187.407 353.36 187.099 355.36 186.908 357.36C186.908 357.52 186.908 357.82 186.908 357.82H187.152L231.352 357.94H238.786L238.669 357.39C238.669 355.93 238.818 351.61 238.913 348.96C238.775 352.69 238.658 337.89 240.719 319.14C245.668 274.09 260.185 237.57 281.424 206.34Z" fill="#003876"/>
<path d="M342.828 383.83H325.327C324.048 383.83 323.012 384.806 323.012 386.01V402.49C323.012 403.694 324.048 404.67 325.327 404.67H342.828C344.107 404.67 345.143 403.694 345.143 402.49V386.01C345.143 384.806 344.107 383.83 342.828 383.83Z" fill="#003876"/>
<path d="M540.484 371.67H501.551V365.47C501.553 365.23 501.504 364.992 501.407 364.77C501.311 364.548 501.169 364.347 500.989 364.177C500.809 364.007 500.596 363.872 500.361 363.779C500.126 363.687 499.873 363.64 499.619 363.64H481.374C480.858 363.64 480.364 363.833 480 364.176C479.635 364.519 479.43 364.985 479.43 365.47V371.67H430.866V365.47C430.866 364.986 430.663 364.522 430.301 364.18C429.938 363.837 429.447 363.643 428.933 363.64H410.688C410.173 363.64 409.679 363.833 409.314 364.176C408.95 364.519 408.745 364.985 408.745 365.47V371.67H345.143V365.44C345.144 365.2 345.096 364.962 344.999 364.74C344.903 364.518 344.76 364.317 344.581 364.147C344.401 363.977 344.188 363.842 343.952 363.749C343.717 363.657 343.465 363.61 343.21 363.61H324.965C324.711 363.61 324.459 363.657 324.223 363.749C323.988 363.842 323.775 363.977 323.595 364.147C323.415 364.317 323.273 364.518 323.177 364.74C323.08 364.962 323.031 365.2 323.033 365.44V371.67H259.41V365.44C259.41 365.2 259.359 364.962 259.262 364.74C259.164 364.518 259.021 364.316 258.84 364.146C258.66 363.976 258.446 363.841 258.21 363.749C257.974 363.657 257.721 363.61 257.466 363.61H239.221C238.706 363.61 238.212 363.803 237.847 364.146C237.483 364.489 237.278 364.955 237.278 365.44V371.67H188.703V365.44C188.703 364.955 188.498 364.489 188.134 364.146C187.769 363.803 187.275 363.61 186.76 363.61H168.515C168.259 363.61 168.007 363.657 167.771 363.749C167.535 363.841 167.321 363.976 167.141 364.146C166.96 364.316 166.817 364.518 166.719 364.74C166.622 364.962 166.571 365.2 166.571 365.44V371.67H127.777C127.436 371.67 127.11 371.797 126.869 372.024C126.628 372.251 126.492 372.559 126.492 372.88V376.16C126.492 376.481 126.628 376.789 126.869 377.016C127.11 377.243 127.436 377.37 127.777 377.37H540.484C540.824 377.37 541.151 377.243 541.392 377.016C541.633 376.789 541.769 376.481 541.769 376.16V372.88C541.769 372.559 541.633 372.251 541.392 372.024C541.151 371.797 540.824 371.67 540.484 371.67Z" fill="#003876"/>
<path d="M499.226 383.85H481.735C480.456 383.85 479.42 384.826 479.42 386.03V402.49C479.42 403.694 480.456 404.67 481.735 404.67H499.226C500.504 404.67 501.541 403.694 501.541 402.49V386.03C501.541 384.826 500.504 383.85 499.226 383.85Z" fill="#003876"/>
<path d="M257.115 383.83H239.614C238.335 383.83 237.299 384.806 237.299 386.01V402.49C237.299 403.694 238.335 404.67 239.614 404.67H257.115C258.394 404.67 259.43 403.694 259.43 402.49V386.01C259.43 384.806 258.394 383.83 257.115 383.83Z" fill="#003876"/>
<path d="M139.013 357.92H149.739H159.817H167.58C167.58 357.92 169.47 338.24 173.198 320.68C175.41 310.599 178.362 300.676 182.034 290.98C185.437 281.293 189.55 271.841 194.342 262.69C204.325 244.2 214.52 226.89 232.839 208.64C238.849 202.53 245.258 196.779 252.029 191.42C255.215 188.95 258.093 186.87 260.62 185.12C262.277 184.03 263.88 182.99 265.293 182.12C267.348 180.807 269.475 179.595 271.665 178.49L271.367 178.6C233.16 193.159 200.24 217.813 176.577 249.591C152.914 281.37 139.518 318.915 138.004 357.7C138.004 357.77 138.004 357.91 138.004 357.91H139.066L139.013 357.92Z" fill="#003876"/>
<path d="M324.148 357.91V188C324.148 188 323.595 188.43 323.33 188.66C284.472 220.15 257.976 283.04 257.976 355.5C257.976 356.38 257.976 358.14 257.976 358.14L324.148 357.91Z" fill="#003876"/>
<path d="M186.409 383.83H168.908C167.629 383.83 166.593 384.806 166.593 386.01V402.49C166.593 403.694 167.629 404.67 168.908 404.67H186.409C187.688 404.67 188.724 403.694 188.724 402.49V386.01C188.724 384.806 187.688 383.83 186.409 383.83Z" fill="#003876"/>
<path d="M203.295 660.45C196.106 662.71 186.165 662.39 179.305 654.1L161.719 632.81C156.802 626.81 150.982 625.92 142.985 625.81V646.68C142.985 654.21 148.465 655.5 155.729 656.37C156.536 656.47 155.963 660.02 155.049 660.02H120.482C119.569 660.02 118.878 656.47 119.792 656.37C125.622 655.61 129.275 653.46 129.275 646.68V598.68C129.275 591.59 125.282 589.54 119.792 588.14C118.878 587.93 119.452 584.38 120.482 584.48C124.842 584.952 129.23 585.169 133.619 585.13C142.115 585.13 149.952 584.48 155.442 584.48C172.689 584.48 184.222 591.16 184.222 604.39C184.222 616.86 173.485 623 163.896 623.54V624.07C168.462 624.07 171.776 625.9 176.799 631.82L193.79 651.94C197.327 656.13 200.757 657.31 203.263 657.31C204.219 657.33 203.985 660.23 203.295 660.45ZM169.832 607.31C169.832 595.8 162.058 590.1 151.895 590.1C145.152 590.1 142.985 592.68 142.985 598.7V620.86H146.299C163.322 620.86 169.832 618.07 169.832 607.31Z" fill="#003876"/>
<path d="M221.741 656.37C228.368 654.75 233.508 653.78 233.508 645.82V598.06C233.508 591.18 228.825 589.34 223.95 588.16C223.037 587.95 223.61 584.4 224.524 584.5C232.86 585.37 247.261 585.15 254.259 585.15C264.656 585.15 272.196 584.72 281.552 584.5C284.303 584.5 284.303 586.23 283.729 588.7L280.989 598.92C280.649 600.43 277.803 600.43 277.336 598.92C275.616 593.65 272.196 590.64 257.912 590.64C249.916 590.64 247.293 592.57 247.293 598.17V615.7C247.293 618.5 248.779 619.04 251.063 619.04H253.569C262.829 619.04 270.826 618.18 275.509 614.2C276.646 613.2 279.163 613.44 278.132 615.6L271.622 629.15C270.709 631.08 268.989 630.87 267.736 629.25C265.113 625.81 259.24 624.42 252.656 624.42H251.063C248.779 624.42 247.293 624.95 247.293 627.75V645.82C247.293 651.96 250.032 654.21 259.516 654.21C276.762 654.21 283.612 646.79 286.363 642.7C287.159 641.52 290.239 642.05 290.239 643.88C290.239 649.37 285.333 660.23 278.132 660.23C271.761 659.91 265.452 659.59 255.831 659.59C245.328 659.59 232.871 659.26 222.474 660.23C221.285 660.35 220.828 656.58 221.741 656.37Z" fill="#003876"/>
<path d="M335.787 631.19V646.68C335.787 654.21 341.267 655.5 348.584 656.37C349.381 656.47 348.818 660.02 347.894 660.02H313.284C312.371 660.02 311.691 656.47 312.594 656.37C318.424 655.61 322.077 653.46 322.077 646.68V598.68C322.077 591.59 318.084 589.54 312.594 588.14C311.691 587.93 312.254 584.38 313.284 584.48C317.644 584.952 322.032 585.169 326.421 585.13C334.916 585.13 341.957 584.48 347.788 584.48C365.491 584.48 380.114 590.62 380.114 607.48C380.114 626.67 361.073 634.74 335.787 631.19ZM335.787 598.7V625.92C355.211 628.5 365.374 624.09 365.374 610C365.374 597.2 356.698 590.1 344.92 590.1C337.709 590.1 335.787 592.47 335.787 598.7Z" fill="#003876"/>
<path d="M412.367 631.84V598.06C412.367 591.28 408.713 589.06 403.117 588.38C402.204 588.27 402.883 584.72 403.807 584.72H434.987C435.9 584.72 436.58 588.27 435.677 588.38C431.1 588.91 426.533 590.53 426.533 598.06V632.38C426.533 647.38 435.783 654.38 447.89 654.38C460.347 654.38 470.287 647.38 470.287 632.38V598.06C470.287 591.06 466.039 589.13 460.464 588.38C459.667 588.27 460.23 584.72 461.143 584.72H486.854C487.65 584.72 488.33 588.27 487.427 588.38C482.85 588.91 478.284 590.53 478.284 598.06V631.73C478.284 651.52 464.69 661.73 446.52 661.73C430.42 661.74 412.367 653.67 412.367 631.84ZM445.946 557.93C448.007 555.14 457.628 563.42 454.856 565.35L439.904 576C438.417 577.07 434.413 573.63 435.55 572.12L445.946 557.93Z" fill="#003876"/>
<path d="M578.97 638.29C578.97 651.63 566.067 660.23 546.983 660.23C541.503 660.23 535.1 659.59 526.646 659.59C520.663 659.502 514.679 659.715 508.72 660.23C507.658 660.35 507.117 656.58 508.03 656.37C514.657 654.75 519.797 653.78 519.797 645.82V598.06C519.797 591.18 515.113 589.34 510.239 588.16C509.315 587.95 509.888 584.4 510.802 584.5C515.386 584.967 519.996 585.184 524.607 585.15C533.74 585.15 540.484 584.5 545.507 584.5C560.247 584.5 572.354 590.31 572.471 602.15C572.588 610.86 566.099 616.88 558.07 618.39V619C568.69 619 578.97 626.24 578.97 638.29ZM533.507 598.06V617.21H545.273C553.504 617.21 558.293 613.33 558.293 605.05C558.293 594.83 550.987 590.1 541.62 590.1C535.556 590.1 533.507 592 533.507 598.06ZM564.23 640.66C564.23 628.83 555.893 622.59 545.273 622.59H533.507V645.82C533.507 651.74 536.693 654.64 546.643 654.64C556.594 654.64 564.23 651.84 564.23 640.66Z" fill="#003876"/>
<path d="M600.836 656.37C607.462 654.75 612.602 653.78 612.602 645.82V598.06C612.602 590.53 607.919 589.06 603.045 588.38C602.131 588.27 602.822 584.72 603.618 584.72H635.063C635.86 584.72 636.433 588.27 635.637 588.38C630.837 588.91 626.27 590.53 626.27 598.06V645.82C626.27 651.96 629.01 654.21 638.483 654.21C655.74 654.21 662.59 646.79 665.34 642.7C666.137 641.52 669.216 642.05 669.216 643.88C669.216 649.37 664.31 660.23 657.11 660.23C650.738 659.91 644.43 659.59 634.808 659.59C624.305 659.59 611.848 659.26 601.452 660.23C600.368 660.35 599.912 656.58 600.836 656.37Z" fill="#003876"/>
<path d="M689.405 656.37C695.235 655.61 698.888 653.46 698.888 646.68V598.06C698.888 591.28 695.235 589.13 689.405 588.38C688.491 588.27 689.182 584.72 690.095 584.72H721.391C722.305 584.72 722.995 588.27 722.082 588.38C717.175 589.03 712.598 590.53 712.598 598.06V646.68C712.598 654.21 717.175 655.68 722.082 656.37C722.995 656.47 722.305 660.02 721.391 660.02H690.095C689.224 660 688.491 656.47 689.405 656.37Z" fill="#003876"/>
<path d="M746.199 623.77C746.199 605.16 758.316 583 790.303 583C803.557 583 814.973 586.87 813.603 590.64L812.116 594.83C808.006 606.34 803.557 591.61 783.22 591.61C766.887 591.61 758.89 601.61 758.89 617.1C758.89 641.3 778.42 651.42 794.073 651.42C796.133 651.42 806.53 649.91 812.467 646.36C813.38 645.82 815.769 648.29 815.09 649.26C810.183 656.04 794.912 661.74 791.333 661.74C772.143 661.74 746.199 651.2 746.199 623.77Z" fill="#003876"/>
<path d="M919.43 660H889.27C887.783 660 887.677 656.56 888.93 656.35C893.178 655.59 897.723 654.19 893.497 644.94L892.244 642.25C891.097 639.67 889.164 639.45 885.734 639.45H862.434C859.004 639.45 857.06 639.67 855.913 642.25L854.777 645C850.773 654.25 855.117 655.65 860.597 656.41C862.083 656.62 861.743 660.06 860.257 660.06H835.576C834.206 660.06 833.867 656.62 835.236 656.41C839.92 655.65 842.67 654.14 846.918 645L866.225 603.27C870.675 593.8 872.045 589.38 872.045 585.27C872.045 584.63 880.041 582.9 880.381 583.66L908.258 644.86C912.368 654.01 915.108 655.73 919.685 656.38C921.257 656.58 920.8 660 919.43 660ZM887.571 631.71L874.2 601.59L860.724 631.71C860.044 633.22 861.786 633.43 863.347 633.43H884.948C886.53 633.45 888.25 633.24 887.56 631.73L887.571 631.71Z" fill="#003876"/>
<path d="M974.78 656.37C981.407 654.75 986.557 653.78 986.557 645.82V598.06C986.557 591.18 981.863 589.34 976.999 588.16C976.075 587.95 976.66 584.4 977.562 584.5C982.305 584.993 987.075 585.211 991.846 585.15C1000.76 585.15 1008.75 584.5 1014.58 584.5C1042.19 584.5 1057.19 600 1057.19 620.76C1057.19 641.52 1042.23 660.23 1014.47 660.23C1008.98 660.23 1001.9 659.59 993.449 659.59C987.463 659.504 981.475 659.718 975.513 660.23C974.323 660.35 973.835 656.58 974.78 656.37ZM1043.44 626.89C1043.44 606.34 1031.56 590.21 1010.99 590.21C1002.89 590.21 1000.26 592.57 1000.26 598.06V645.82C1000.26 651.63 1004.5 654.54 1015.56 654.54C1034.19 654.54 1043.44 645.07 1043.44 626.89Z" fill="#003876"/>
<path d="M1081.98 622.8C1081.98 601.07 1098.44 583 1123.45 583C1147.32 583 1164.68 599.46 1164.68 621.83C1164.68 643.67 1148.35 661.74 1123.27 661.74C1099.46 661.74 1081.98 645.18 1081.98 622.8ZM1151.09 627.86C1151.09 606.12 1135.44 590.31 1119 590.31C1108.94 590.31 1095.63 596.55 1095.63 616.78C1095.63 638.72 1111.29 654.43 1127.62 654.43C1137.73 654.43 1151.09 648.19 1151.09 627.86Z" fill="#003876"/>
<path d="M1289.04 660H1259.22C1258.42 660 1257.85 656.45 1258.53 656.35C1263.33 655.59 1266.88 653.44 1266.53 646.66L1264.4 610.52L1245.85 646C1243.94 649.54 1242.41 653.252 1241.28 657.08C1241.06 658.37 1238.66 659.01 1236.83 659.01C1236.1 659.066 1235.37 658.911 1234.74 658.566C1234.11 658.222 1233.6 657.703 1233.29 657.08L1206.9 610L1205.19 646.68C1204.84 654.21 1209.52 655.94 1213.18 656.37C1214.1 656.47 1213.41 660.02 1212.61 660.02H1188.96C1188.05 660.02 1187.37 656.47 1188.28 656.37C1193.19 655.82 1197.31 654.21 1197.76 646.68L1201.42 584.93C1201.53 583.11 1205.87 583 1207.01 584.93L1240.15 643.24L1270.87 584.93C1271.93 583 1276.47 583.11 1276.58 584.93L1280.24 646.68C1280.7 654.21 1284.8 655.82 1289.61 656.37C1290.52 656.47 1289.84 660 1289.04 660Z" fill="#003876"/>
<path d="M1312.51 656.37C1318.33 655.61 1321.99 653.46 1321.99 646.68V598.06C1321.99 591.28 1318.33 589.13 1312.51 588.38C1311.6 588.27 1312.28 584.72 1313.19 584.72H1344.47C1345.38 584.72 1346.06 588.27 1345.15 588.38C1340.24 589.03 1335.66 590.53 1335.66 598.06V646.68C1335.66 654.21 1340.24 655.68 1345.15 656.37C1346.06 656.47 1345.38 660.02 1344.47 660.02H1313.16C1312.28 660 1311.6 656.47 1312.51 656.37Z" fill="#003876"/>
<path d="M1439.1 659.05L1384.73 605.48V646.36C1384.73 653.67 1389.29 654.85 1395.8 656.36C1396.73 656.57 1396.26 660.01 1395.11 660.01H1368.04C1367.13 660.01 1366.45 656.67 1367.48 656.36C1372.27 654.84 1376.83 653.99 1376.83 646.36V604.62C1376.83 596.99 1375.58 593.32 1372.59 589.56C1371.52 588.27 1370.54 587.41 1370.54 587.09C1370.52 586.793 1370.57 586.496 1370.67 586.216C1370.78 585.937 1370.94 585.679 1371.16 585.459C1371.37 585.239 1371.62 585.06 1371.91 584.933C1372.2 584.807 1372.5 584.734 1372.82 584.72H1381.32C1381.83 584.66 1382.34 584.721 1382.82 584.895C1383.3 585.07 1383.72 585.353 1384.06 585.72L1437.29 638.72V598.27C1437.29 590.64 1432.15 589.78 1426.22 588.38C1425.29 588.16 1425.76 584.72 1426.9 584.72H1453.97C1454.89 584.72 1455.45 588.16 1454.54 588.38C1449.52 589.78 1445.17 590.64 1445.17 598.27V640.12C1445.17 647.22 1445.41 655.12 1446.54 659.05C1447.01 660.66 1445.17 661.1 1443.36 661.1C1441.54 661.1 1440.35 660.35 1439.1 659.05Z" fill="#003876"/>
<path d="M1477.43 656.37C1483.26 655.61 1486.91 653.46 1486.91 646.68V598.06C1486.91 591.28 1483.26 589.13 1477.43 588.38C1476.51 588.27 1477.19 584.72 1478.11 584.72H1509.41C1510.33 584.72 1511.01 588.27 1510.09 588.38C1505.19 589.03 1500.62 590.53 1500.62 598.06V646.68C1500.62 654.21 1505.19 655.68 1510.09 656.37C1511.01 656.47 1510.33 660.02 1509.41 660.02H1478.11C1477.21 660 1476.51 656.47 1477.43 656.37Z" fill="#003876"/>
<path d="M1534.22 623.77C1534.22 605.16 1546.33 583 1578.31 583C1591.57 583 1602.99 586.87 1601.68 590.64L1600.19 594.83C1596.07 606.34 1591.62 591.61 1571.28 591.61C1554.95 591.61 1546.95 601.61 1546.95 617.1C1546.95 641.3 1566.49 651.42 1582.14 651.42C1584.2 651.42 1594.59 649.91 1600.53 646.36C1601.44 645.82 1603.84 648.29 1603.15 649.26C1598.25 656.04 1582.98 661.74 1579.4 661.74C1560.15 661.74 1534.22 651.2 1534.22 623.77Z" fill="#003876"/>
<path d="M1707.44 660H1677.28C1675.79 660 1675.69 656.56 1676.94 656.35C1681.19 655.59 1685.73 654.19 1681.51 644.94L1680.24 642.25C1679.11 639.67 1677.16 639.45 1673.74 639.45H1650.38C1646.96 639.45 1645.01 639.67 1643.87 642.25L1642.73 644.94C1638.73 654.19 1643.06 655.59 1648.55 656.35C1650.04 656.56 1649.7 660 1648.21 660H1623.53C1622.16 660 1621.82 656.56 1623.19 656.35C1627.88 655.59 1630.63 654.08 1634.87 644.94L1654.18 603.21C1658.64 593.74 1660.01 589.32 1660.01 585.21C1660.01 584.57 1668.01 582.84 1668.35 583.6L1696.22 644.8C1700.33 653.95 1703.07 655.67 1707.64 656.32C1709.27 656.58 1708.81 660 1707.44 660ZM1675.58 631.71L1662.22 601.59L1648.74 631.71C1648.05 633.22 1649.81 633.43 1651.37 633.43H1672.96C1674.54 633.45 1676.25 633.24 1675.56 631.73L1675.58 631.71Z" fill="#003876"/>
<path d="M1800.47 659.05L1746.1 605.48V646.36C1746.1 653.67 1750.66 654.85 1757.17 656.36C1758.1 656.57 1757.64 660.01 1756.48 660.01H1729.42C1728.5 660.01 1727.82 656.67 1728.85 656.36C1733.65 654.84 1738.21 653.99 1738.21 646.36V604.62C1738.21 596.99 1736.95 593.32 1733.96 589.56C1732.9 588.27 1731.91 587.41 1731.91 587.09C1731.89 586.793 1731.94 586.496 1732.05 586.216C1732.15 585.937 1732.32 585.679 1732.53 585.459C1732.74 585.239 1733 585.06 1733.28 584.933C1733.57 584.807 1733.88 584.734 1734.19 584.72H1742.69C1743.2 584.66 1743.71 584.721 1744.19 584.895C1744.67 585.07 1745.09 585.353 1745.43 585.72L1798.66 638.72V598.27C1798.66 590.64 1793.52 589.78 1787.59 588.38C1786.66 588.16 1787.13 584.72 1788.27 584.72H1815.35C1816.26 584.72 1816.83 588.16 1815.91 588.38C1810.89 589.78 1806.54 590.64 1806.54 598.27V640.12C1806.54 647.22 1806.78 655.12 1807.91 659.05C1808.38 660.66 1806.54 661.1 1804.73 661.1C1802.91 661.1 1801.72 660.35 1800.47 659.05Z" fill="#003876"/>
<path d="M1918.42 660H1888.26C1886.78 660 1886.67 656.56 1887.92 656.35C1892.17 655.59 1896.72 654.19 1892.49 644.94L1891.23 642.25C1890.09 639.67 1888.15 639.45 1884.73 639.45H1861.36C1857.94 639.45 1855.99 639.67 1854.85 642.25L1853.72 644.94C1849.71 654.19 1854.05 655.59 1859.54 656.35C1861.02 656.56 1860.68 660 1859.2 660H1834.57C1833.2 660 1832.86 656.56 1834.23 656.35C1838.91 655.59 1841.66 654.08 1845.91 644.94L1865.22 603.21C1869.68 593.74 1871.05 589.32 1871.05 585.21C1871.05 584.57 1879.04 582.84 1879.38 583.6L1907.26 644.8C1911.37 653.95 1914.11 655.67 1918.68 656.32C1920.25 656.58 1919.79 660 1918.42 660ZM1886.56 631.71L1873.2 601.59L1859.73 631.71C1859.04 633.22 1860.79 633.43 1862.35 633.43H1883.95C1885.52 633.45 1887.23 633.24 1886.54 631.73L1886.56 631.71Z" fill="#003876"/>
<path d="M542.374 724.09H129.349V742.5H542.374V724.09Z" fill="#ED232A"/>
<path d="M122 506.86V506.71C122 492.32 133.225 479.56 149.951 479.56C159.36 479.56 165.169 482.11 170.755 486.56L166.731 491C162.134 486.96 156.023 484.802 149.739 485C137.388 485 128.499 494.83 128.499 506.53V506.67C128.499 519.2 136.995 528.5 150.557 528.5C156.415 528.513 162.108 526.679 166.731 523.29V510.29H149.739V504.96H172.752V525.89C166.579 531.044 158.615 533.89 150.365 533.89C132.843 533.89 122.011 521.89 122.011 506.89" fill="#203C72"/>
<path d="M243.884 506.86V506.71C243.884 494.78 234.634 485.04 221.901 485.04C209.167 485.04 200.066 494.64 200.066 506.57V506.71C200.066 518.64 209.316 528.4 222.049 528.4C234.782 528.4 243.884 518.79 243.884 506.86ZM193.535 506.86V506.71C193.535 492.24 205.079 479.56 222.049 479.56C239.02 479.56 250.415 492.09 250.415 506.56C250.5 506.64 250.5 506.64 250.415 506.7C250.415 521.18 238.871 533.87 221.901 533.87C204.93 533.87 193.535 521.33 193.535 506.87" fill="#203C72"/>
<path d="M297.726 527.64C306.222 527.64 311.436 524.12 311.436 518.27V518.12C311.436 512.42 306.339 509.12 296.622 509.12H279.014V527.64H297.726ZM295.496 503.86C303.068 503.86 308.325 500.65 308.325 494.49V494.34C308.325 489.16 303.949 485.79 295.985 485.79H278.993V503.86H295.496ZM272.791 480.46H296.537C302.909 480.46 307.921 482.18 311.118 485.11C312.28 486.216 313.196 487.53 313.813 488.974C314.429 490.418 314.733 491.964 314.707 493.52V493.67C314.707 500.5 310.247 504.02 305.861 505.81C312.477 507.7 317.819 511.29 317.819 518.5V518.65C317.819 527.65 309.769 532.98 297.578 532.98H272.791V480.46Z" fill="#203C72"/>
<path d="M346.269 480.46H339.961V532.98H346.269V480.46Z" fill="#203C72"/>
<path d="M371.65 480.46H411.963V485.86H377.948V503.79H408.384V509.2H377.948V527.57H412.367V532.98H371.65V480.46Z" fill="#203C72"/>
<path d="M457.533 507.25C465.901 507.25 471.88 503.2 471.88 496.44V496.28C471.88 489.84 466.623 485.94 457.618 485.94H440.403V507.25H457.533ZM434.116 480.46H458.096C464.945 480.46 470.436 482.46 473.951 485.71C476.769 488.497 478.297 492.223 478.199 496.07V496.21C478.199 504.92 471.827 510.02 463.055 511.52L480.238 533H472.507L456.343 512.58H440.414V533H434.127L434.116 480.46Z" fill="#203C72"/>
<path d="M500.787 480.46H506.692L541.822 522.54V480.46H547.95V532.98H542.937L506.915 489.91V532.98H500.787V480.46Z" fill="#203C72"/>
<path d="M620.684 506.86V506.71C620.684 494.78 611.435 485.04 598.691 485.04C585.947 485.04 576.867 494.64 576.867 506.57V506.71C576.867 518.64 586.096 528.4 598.85 528.4C611.604 528.4 620.684 518.79 620.684 506.86ZM570.336 506.86V506.71C570.336 492.24 581.88 479.56 598.85 479.56C615.821 479.56 627.216 492.09 627.216 506.56C627.3 506.64 627.3 506.64 627.216 506.7C627.216 521.18 615.661 533.87 598.691 533.87C581.72 533.87 570.336 521.33 570.336 506.87" fill="#203C72"/>
<path d="M701.968 527.5C716.06 527.5 725.066 518.5 725.066 506.87V506.72C725.066 495.09 716.06 485.94 701.968 485.94H688.863V527.5H701.968ZM682.608 480.5H701.968C719.491 480.5 731.597 491.82 731.597 506.6V506.76C731.597 521.54 719.491 533.02 701.968 533.02H682.576L682.608 480.5Z" fill="#203C72"/>
<path d="M753.952 480.46H794.254V485.86H760.239V503.79H790.675V509.2H760.239V527.57H794.658V532.98H753.952V480.46Z" fill="#203C72"/>
<path d="M849.382 480.46H855.669V527.5H887.061V532.98H849.382V480.46Z" fill="#203C72"/>
<path d="M943.94 513.76L931.271 487L918.527 513.77L943.94 513.76ZM928.414 480.09H934.298L959.721 533H952.946L946.415 519.13H916.053L909.447 533H903.001L928.414 480.09Z" fill="#203C72"/>
</svg>
