<svg width="4310" height="2384" viewBox="0 0 4310 2384" fill="none" xmlns="http://www.w3.org/2000/svg">
<path d="M109.95 2195.09C125.841 2190.83 138.128 2188.37 138.128 2167.73V2046.01C138.128 2029.3 126.988 2024.88 115.193 2021.44C112.899 2020.94 114.701 2010.62 116.339 2010.79C136.489 2013.9 180.229 2012.43 191.369 2012.43C216.761 2012.43 234.29 2011.28 258.536 2010.79C265.58 2010.79 265.744 2015.21 264.433 2021.93L258.044 2048.63C257.225 2052.89 250.017 2052.89 248.87 2048.63C244.119 2034.21 236.584 2028.32 202.673 2028.32C185.308 2028.32 179.246 2033.4 179.246 2046.5V2090.57C179.246 2097.78 182.85 2099.25 188.42 2099.25H195.628C214.795 2099.25 235.765 2096.14 245.758 2088.11C248.87 2085.66 255.259 2086.15 252.474 2092.21L237.403 2127.27C234.945 2132.84 230.195 2132.35 227.082 2127.76C220.857 2118.58 207.26 2114.65 193.663 2114.65H188.42C182.85 2114.65 179.246 2115.96 179.246 2123.34V2167.73C179.246 2183.3 184.816 2190.01 206.604 2190.01C243.628 2190.01 264.269 2169.04 270.494 2160.2C272.133 2157.9 281.143 2160.2 281.143 2164.29C281.143 2176.25 268.365 2207.54 249.853 2206.89C230.85 2206.07 219.546 2205.25 196.939 2205.25C171.547 2205.25 136.817 2204.43 111.916 2206.89C108.804 2207.38 107.657 2195.75 109.95 2195.09Z" fill="#ED232A"/>
<path d="M311.123 2195.09C327.013 2190.83 339.3 2188.37 339.3 2167.73V2046.01C339.3 2029.3 328.16 2024.55 316.365 2021.44C314.071 2020.94 315.873 2010.62 317.512 2010.79C328.979 2012.1 340.61 2012.43 356.009 2012.43C381.074 2012.43 400.569 2010.79 414.493 2010.79C479.366 2010.79 518.519 2051.25 518.519 2104.5C518.519 2156.26 481.496 2207.05 414.329 2207.05C400.896 2207.05 383.695 2205.41 359.941 2205.41C338.972 2205.41 325.375 2205.74 312.761 2207.05C309.976 2207.38 308.829 2195.75 311.123 2195.09ZM477.564 2124.32C477.564 2068.29 449.715 2027.33 404.336 2027.33C387.299 2027.33 380.419 2032.9 380.419 2046.01V2167.73C380.419 2182.15 393.852 2190.67 420.555 2190.67C461.018 2190.67 477.564 2168.39 477.564 2124.32Z" fill="#ED232A"/>
<path d="M576.348 2133V2047.48C576.348 2030.77 568.812 2024.05 554.396 2022.41C552.103 2022.09 553.905 2011.6 556.034 2011.6H639.091C641.385 2011.6 643.023 2022.25 640.729 2022.41C629.262 2023.72 618.122 2027.98 618.122 2047.48V2134.47C618.122 2172.64 640.074 2188.86 666.613 2188.86C694.463 2188.86 717.561 2172.64 717.561 2134.47V2047.48C717.561 2029.95 707.568 2024.38 693.807 2022.41C691.841 2022.09 693.316 2011.6 695.446 2011.6H761.301C762.94 2011.6 764.578 2022.25 762.448 2022.41C751.8 2023.72 740.66 2027.98 740.66 2047.48V2132.5C740.66 2184.27 707.241 2211.14 661.862 2211.14C621.562 2210.98 576.348 2189.84 576.348 2133Z" fill="#ED232A"/>
<path d="M799.797 2113.17C799.797 2065.5 828.302 2007.02 908.574 2007.02C941.502 2007.02 969.023 2017.34 965.747 2027L961.651 2038.96C949.365 2074.35 941.829 2032.24 889.243 2032.24C850.581 2032.24 835.51 2057.97 835.51 2094.17C835.51 2157.41 883.673 2180.34 917.42 2180.34C922.99 2180.34 952.314 2176.41 961.979 2169.69C964.273 2168.38 971.153 2176.08 969.515 2178.54C957.556 2196.4 918.73 2210.82 909.065 2210.82C862.049 2210.98 799.797 2183.95 799.797 2113.17Z" fill="#ED232A"/>
<path d="M1202.47 2206.56H1121.87C1117.94 2206.56 1118.26 2196.56 1121.05 2195.91C1130.88 2193.94 1142.84 2190.83 1132.52 2167.4L1131.21 2164.94C1128.42 2157.74 1125.64 2156.92 1118.1 2156.92H1063.38C1055.03 2156.92 1052.24 2157.74 1049.13 2164.94L1048.31 2167.4C1039.14 2190.01 1049.62 2194.11 1062.57 2195.91C1066.5 2196.4 1065.35 2206.56 1061.75 2206.56H999.003C995.89 2206.56 995.071 2196.56 998.184 2195.91C1009.32 2193.94 1016.04 2190.66 1026.03 2167.4L1073.21 2057.8C1084.03 2033.56 1087.47 2023.23 1087.47 2012.59C1087.47 2010.95 1106.63 2006.52 1107.62 2008.33L1175.6 2166.91C1185.27 2189.52 1191.98 2193.94 1203.12 2195.58C1206.73 2196.56 1205.91 2206.56 1202.47 2206.56ZM1118.26 2134.31L1090.41 2066.81L1062.24 2134.31C1060.6 2138.24 1064.2 2139.06 1067.81 2139.06H1113.02C1116.3 2139.06 1120.07 2138.24 1118.26 2134.31Z" fill="#ED232A"/>
<path d="M1223.59 2113.17C1223.59 2065.5 1252.1 2007.02 1332.37 2007.02C1365.3 2007.02 1392.82 2017.34 1389.54 2027L1385.45 2038.96C1373.16 2074.35 1365.63 2032.24 1313.04 2032.24C1274.38 2032.24 1259.31 2057.97 1259.31 2094.17C1259.31 2157.41 1307.47 2180.34 1341.22 2180.34C1346.79 2180.34 1376.11 2176.41 1385.78 2169.69C1388.07 2168.38 1394.95 2176.08 1393.31 2178.54C1381.35 2196.4 1342.53 2210.82 1332.86 2210.82C1285.68 2210.98 1223.59 2183.95 1223.59 2113.17Z" fill="#ED232A"/>
<path d="M1430.67 2195.74C1445.74 2193.78 1453.27 2187.39 1453.27 2170.68V2047.48C1453.27 2030.77 1445.74 2024.38 1430.67 2022.41C1428.37 2022.09 1430.18 2011.6 1432.31 2011.6H1515.36C1517.66 2011.6 1519.29 2022.25 1517 2022.41C1505.37 2024.05 1494.23 2027.98 1494.23 2047.48V2170.68C1494.23 2190.17 1505.37 2194.1 1517 2195.74C1519.29 2196.07 1517.49 2206.55 1515.36 2206.55H1432.31C1430.01 2206.55 1428.37 2195.91 1430.67 2195.74Z" fill="#ED232A"/>
<path d="M1555.66 2110.39C1555.66 2053.87 1596.62 2007.02 1657.72 2007.02C1716.04 2007.02 1759.13 2048.79 1759.13 2107.28C1759.13 2164.13 1718.67 2210.98 1657.07 2210.98C1599.4 2210.98 1555.66 2168.71 1555.66 2110.39ZM1718.83 2124.64C1718.83 2070.58 1682.95 2028.97 1645.77 2028.97C1623.16 2028.97 1596.46 2044.86 1596.46 2093.03C1596.46 2147.58 1632.66 2188.86 1669.19 2188.86C1691.8 2189.03 1718.83 2173.14 1718.83 2124.64ZM1658.05 1941C1663.13 1933.79 1688.19 1957.38 1681.48 1962.13L1645.77 1988.83C1642.16 1991.62 1631.02 1980.97 1633.81 1977.2L1658.05 1941Z" fill="#ED232A"/>
<path d="M1972.09 2204.1L1841.36 2074.51V2169.2C1841.36 2188.7 1852.83 2191.15 1871.18 2195.74C1873.47 2196.23 1872.33 2206.55 1869.54 2206.55H1797.62C1795.66 2206.55 1793.69 2196.56 1796.48 2195.74C1805.98 2191.32 1818.76 2190.99 1818.76 2169.2V2065.01C1818.76 2042.07 1814 2036.01 1809.91 2027.16C1806.31 2021.92 1803.52 2019.14 1803.52 2018.48C1803.52 2015.7 1804.83 2011.6 1810.24 2011.6H1832.52C1834.97 2011.6 1836.94 2011.93 1838.91 2014.06L1966.52 2142.01V2048.3C1966.52 2028.31 1953.42 2026.51 1936.71 2022.41C1934.41 2021.92 1935.56 2011.6 1938.34 2011.6H2010.26C2012.23 2011.6 2013.37 2021.92 2011.41 2022.41C1999.45 2026.51 1989.13 2028.31 1989.13 2048.3V2153.15C1989.13 2173.13 1989.95 2193.78 1992.41 2204.42C1993.22 2208.36 1989.62 2209.5 1983.56 2209.5C1978.15 2209.34 1975.37 2207.7 1972.09 2204.1Z" fill="#ED232A"/>
<path d="M816.663 892.015L844.676 746.702L768.336 567.148L682.985 478.027C682.985 478.027 677.416 473.767 678.071 473.931C815.025 533.4 917.412 694.933 934.45 890.541C934.45 890.868 934.614 891.688 934.614 891.688L816.663 892.015ZM773.087 892.179L622.7 891.688V481.959C622.7 481.959 624.01 482.942 624.501 483.597C712.801 559.449 772.923 711.151 772.923 885.954C773.087 887.92 773.087 892.179 773.087 892.179ZM933.958 891.524L816.991 891.852C816.991 891.852 816.663 877.926 816.335 870.226C816.663 879.237 816.991 843.523 812.24 798.307C800.936 689.526 768.008 601.388 719.845 526.028C700.35 495.556 678.235 474.259 678.235 474.259L677.743 473.604C677.743 473.604 689.211 480.484 695.6 484.58C704.937 490.642 714.275 496.703 722.958 502.929C754.411 525.373 781.114 550.766 795.366 565.346C796.841 566.821 801.755 571.899 807.161 577.961C812.567 584.022 818.465 590.903 822.888 596.146C840.745 617.607 858.109 641.853 873.509 669.54C882.027 684.939 889.235 700.503 895.461 716.066C921.508 780.122 930.682 844.014 933.631 886.117L933.958 891.524ZM933.631 886.117C933.631 886.281 933.631 886.281 933.631 886.117ZM992.115 871.209L934.286 636.938L812.895 507.188C812.895 507.188 777.018 481.631 756.377 467.706C748.514 462.3 741.961 459.023 741.961 459.023C741.961 459.023 742.452 459.187 742.616 459.351C915.119 529.141 1038.48 695.26 1045.52 891.196C1045.52 891.36 1045.52 891.688 1045.52 891.688L992.115 871.209ZM978.354 891.688C978.354 891.688 974.094 844.178 965.576 801.911C958.368 765.705 946.9 734.087 945.59 730.319C938.382 709.841 930.191 686.905 917.74 662.167C894.969 617.607 871.87 575.831 830.26 531.762C817.482 518.328 803.393 504.075 786.684 490.314C775.544 481.14 765.715 473.931 758.67 469.017C762.93 471.474 768.172 474.75 774.889 478.518C787.175 485.563 801.919 494.41 817.646 504.894C824.69 509.645 831.243 514.724 838.615 520.294C840.253 521.441 862.369 538.643 884.321 559.285C902.505 576.486 919.706 596.309 931.501 610.89C952.798 637.43 973.111 668.229 990.64 702.96C1011.12 743.425 1024.71 784.545 1032.74 820.751C1038.97 847.946 1043.55 891.688 1043.55 891.688H978.354ZM933.958 891.524L816.991 891.852C816.991 891.852 816.663 877.926 816.335 870.226C816.663 879.237 816.991 843.523 812.24 798.307C800.936 689.526 768.008 601.388 719.845 526.028C700.35 495.556 678.235 474.259 678.235 474.259L677.743 473.604C677.743 473.604 689.211 480.484 695.6 484.58C704.937 490.642 714.275 496.703 722.958 502.929C754.411 525.373 781.114 550.766 795.366 565.346C796.841 566.821 801.755 571.899 807.161 577.961C812.567 584.022 818.465 590.903 822.888 596.146C840.745 617.607 858.109 641.853 873.509 669.54C882.027 684.939 889.235 700.503 895.461 716.066C921.508 780.122 930.682 844.014 933.631 886.117L933.958 891.524ZM933.631 886.117C933.631 886.281 933.631 886.281 933.631 886.117ZM517.199 478.027L431.849 567.312L355.344 746.865L383.358 892.179L265.407 891.688C265.407 891.688 265.407 890.868 265.571 890.541C282.608 694.933 385.16 533.4 521.95 473.767C522.605 473.604 517.199 478.027 517.199 478.027ZM427.098 892.343C427.098 892.343 427.098 888.083 427.098 885.954C427.098 711.151 487.22 559.448 575.519 483.433C576.174 482.942 577.321 481.795 577.321 481.795V891.688L427.098 892.343ZM521.786 474.423C521.786 474.423 499.834 495.72 480.176 526.192C432.012 601.552 399.085 689.69 387.781 798.471C383.03 843.687 383.358 879.401 383.685 870.39C383.358 878.09 383.03 892.015 383.03 892.015L266.062 891.688C266.062 891.688 266.39 886.937 266.39 886.281C269.339 844.014 278.513 780.122 304.56 716.066C310.949 700.503 317.993 684.775 326.512 669.54C341.911 641.853 359.276 617.607 377.133 596.146C381.392 590.903 387.453 584.022 392.859 577.961C398.265 571.899 403.18 566.821 404.654 565.346C418.907 550.766 445.61 525.373 477.063 502.929C485.746 496.703 495.083 490.642 504.421 484.58C510.81 480.484 522.278 473.604 522.278 473.604L521.786 474.423ZM443.808 467.706C423.33 481.631 387.289 507.188 387.289 507.188L265.899 637.102L204.138 892.015L154.501 891.852C154.501 891.852 154.501 891.524 154.501 891.36C161.709 695.424 284.902 529.141 457.405 459.351C457.568 459.187 458.06 459.023 458.06 459.023C458.06 459.023 451.671 462.463 443.808 467.706ZM370.088 531.762C328.478 575.831 305.379 617.607 282.608 662.167C269.994 686.905 261.967 709.841 254.759 730.319C253.448 734.251 241.981 765.869 234.773 801.911C226.254 844.178 221.995 891.688 221.995 891.688H156.958C156.958 891.688 161.545 847.946 167.77 820.587C175.961 784.382 189.394 743.261 209.872 702.796C227.401 668.065 247.714 637.266 269.011 610.562C280.642 595.982 298.007 576.159 316.191 558.957C337.98 538.315 360.259 521.113 361.897 519.966C369.269 514.396 375.822 509.318 382.866 504.567C398.593 493.918 413.337 485.235 425.623 478.191C432.176 474.423 437.582 471.146 441.842 468.689C434.634 473.604 424.968 480.812 413.828 489.986C396.791 504.075 382.702 518.328 370.088 531.762ZM521.786 474.423C521.786 474.423 499.834 495.72 480.176 526.192C432.012 601.552 399.085 689.69 387.781 798.471C383.03 843.687 383.358 879.401 383.685 870.39C383.358 878.09 383.03 892.015 383.03 892.015L266.062 891.688C266.062 891.688 266.39 886.937 266.39 886.281C269.339 844.014 278.513 780.122 304.56 716.066C310.949 700.503 317.993 684.775 326.512 669.54C341.911 641.853 359.276 617.607 377.133 596.146C381.392 590.903 387.453 584.022 392.859 577.961C398.265 571.899 403.18 566.821 404.654 565.346C418.907 550.766 445.61 525.373 477.063 502.929C485.746 496.703 495.083 490.642 504.421 484.58C510.81 480.484 522.278 473.604 522.278 473.604L521.786 474.423ZM687.409 312.727H511.957C510.319 312.727 509.008 311.416 509.008 309.778V303.061C509.008 301.423 510.319 300.112 511.957 300.112H687.409C689.047 300.112 690.357 301.423 690.357 303.061V309.778C690.357 311.416 689.047 312.727 687.409 312.727ZM687.409 445.262H511.957C510.319 445.262 509.008 443.951 509.008 442.313V435.596C509.008 433.958 510.319 432.647 511.957 432.647H687.409C689.047 432.647 690.357 433.958 690.357 435.596V442.313C690.357 443.951 689.047 445.262 687.409 445.262ZM1068.78 938.869H131.402C129.764 938.869 128.453 937.559 128.453 935.921V928.057C128.453 926.419 129.764 925.108 131.402 925.108H1068.78C1070.42 925.108 1071.73 926.419 1071.73 928.057V935.921C1071.73 937.559 1070.42 938.869 1068.78 938.869ZM583.383 207.878H580.598C580.27 207.878 579.942 207.55 579.942 207.223V200.506C579.942 200.178 580.27 199.85 580.598 199.85H583.383C583.71 199.85 584.038 200.178 584.038 200.506V207.223C583.874 207.55 583.71 207.878 583.383 207.878ZM618.932 207.878H616.147C615.819 207.878 615.491 207.55 615.491 207.223V200.506C615.491 200.178 615.819 199.85 616.147 199.85H618.932C619.259 199.85 619.587 200.178 619.587 200.506V207.223C619.423 207.55 619.259 207.878 618.932 207.878ZM579.942 209.352V207.223H619.423V209.352H579.942ZM601.403 180.847H598.126C597.635 180.847 597.307 180.519 597.307 180.027V172.819C597.307 172.328 597.635 172 598.126 172H601.403C601.894 172 602.222 172.328 602.222 172.819V180.027C602.222 180.519 601.73 180.847 601.403 180.847ZM598.618 226.718V180.847H600.911V226.718H598.618ZM531.943 291.593C531.943 291.593 531.943 291.429 531.943 291.265C532.107 252.275 562.414 220.656 599.765 220.656C637.116 220.656 667.422 252.111 667.586 290.938C667.586 291.102 667.586 291.593 667.586 291.593H531.943ZM684.951 312.071H514.414C511.465 312.071 509.172 309.778 509.172 306.829V305.354C509.172 302.405 511.465 300.112 514.414 300.112H684.951C687.9 300.112 690.194 302.405 690.194 305.354V306.829C690.194 309.778 687.9 312.071 684.951 312.071ZM684.951 445.098H514.414C511.465 445.098 509.172 442.804 509.172 439.856V438.381C509.172 435.432 511.465 433.139 514.414 433.139H684.951C687.9 433.139 690.194 435.432 690.194 438.381V439.856C690.194 442.804 687.9 445.098 684.951 445.098ZM608.447 421.998H591.41C588.461 421.998 586.167 419.705 586.167 416.756V325.505C586.167 322.556 588.461 320.263 591.41 320.263H608.447C611.396 320.263 613.689 322.556 613.689 325.505V416.756C613.689 419.541 611.232 421.998 608.447 421.998ZM652.842 421.998H635.805C632.856 421.998 630.563 419.705 630.563 416.756V325.505C630.563 322.556 632.856 320.263 635.805 320.263H652.842C655.791 320.263 658.085 322.556 658.085 325.505V416.756C658.085 419.541 655.627 421.998 652.842 421.998ZM563.724 421.998H546.687C543.738 421.998 541.445 419.705 541.445 416.756V325.505C541.445 322.556 543.738 320.263 546.687 320.263H563.724C566.673 320.263 568.966 322.556 568.966 325.505V416.756C568.966 419.541 566.673 421.998 563.724 421.998ZM769.483 930.842V910.036C769.483 907.579 771.449 905.613 773.906 905.613H815.352C817.81 905.613 819.775 907.579 819.775 910.036V929.368L769.483 930.842ZM814.533 1004.73H774.889C771.94 1004.73 769.646 1002.43 769.646 999.485V959.839C769.646 956.89 771.94 954.597 774.889 954.597H814.533C817.482 954.597 819.775 956.89 819.775 959.839V999.485C819.775 1002.27 817.482 1004.73 814.533 1004.73ZM930.027 930.842V910.036C930.027 907.579 931.993 905.613 934.45 905.613H975.896C978.354 905.613 980.32 907.579 980.32 910.036V929.368L930.027 930.842ZM975.077 1004.73H935.433C932.484 1004.73 930.191 1002.43 930.191 999.485V959.839C930.191 956.89 932.484 954.597 935.433 954.597H975.077C978.026 954.597 980.32 956.89 980.32 959.839V999.485C980.32 1002.27 978.026 1004.73 975.077 1004.73ZM380.081 929.368V910.036C380.081 907.579 382.047 905.613 384.505 905.613H425.951C428.408 905.613 430.374 907.579 430.374 910.036V930.842L380.081 929.368ZM425.132 1004.73H385.324C382.375 1004.73 380.081 1002.43 380.081 999.485V959.675C380.081 956.727 382.375 954.433 385.324 954.433H425.132C428.081 954.433 430.374 956.727 430.374 959.675V999.485C430.374 1002.27 428.081 1004.73 425.132 1004.73ZM219.537 929.368V910.036C219.537 907.579 221.503 905.613 223.96 905.613H265.407C267.864 905.613 269.83 907.579 269.83 910.036V930.842L219.537 929.368ZM264.588 1004.73H224.78C221.831 1004.73 219.537 1002.43 219.537 999.485V959.675C219.537 956.727 221.831 954.433 224.78 954.433H264.588C267.537 954.433 269.83 956.727 269.83 959.675V999.485C269.83 1002.27 267.373 1004.73 264.588 1004.73ZM574.864 929.368V910.036C574.864 907.579 576.83 905.613 579.287 905.613H620.734C623.191 905.613 625.157 907.579 625.157 910.036V930.842L574.864 929.368ZM619.751 1004.73H580.106C577.157 1004.73 574.864 1002.43 574.864 999.485V959.675C574.864 956.727 577.157 954.433 580.106 954.433H619.915C622.863 954.433 625.157 956.727 625.157 959.675V999.485C625.157 1002.27 622.7 1004.73 619.751 1004.73ZM1066.49 938.706H133.859C130.91 938.706 128.617 936.412 128.617 933.463V930.351C128.617 927.402 130.91 925.108 133.859 925.108H1066.49C1069.44 925.108 1071.73 927.402 1071.73 930.351V933.463C1071.73 936.412 1069.27 938.706 1066.49 938.706ZM1066.49 1049.12H133.859C130.91 1049.12 128.617 1046.83 128.617 1043.88V1021.77C128.617 1018.82 130.91 1016.52 133.859 1016.52H1066.49C1069.44 1016.52 1071.73 1018.82 1071.73 1021.77V1043.88C1071.73 1046.67 1069.27 1049.12 1066.49 1049.12Z" fill="#003876"/>
<path d="M132.555 1252.43V1252.11C132.555 1217.54 157.947 1187.07 195.626 1187.07C216.758 1187.07 230.028 1193.13 242.478 1203.78L233.304 1214.59C223.639 1206.07 212.827 1200.17 194.97 1200.17C167.121 1200.17 147.135 1223.76 147.135 1251.78V1252.11C147.135 1282.09 166.302 1304.37 196.936 1304.37C211.352 1304.37 224.622 1298.8 233.304 1291.75V1260.46H195.134V1247.68H247.065V1297.81C235.434 1308.3 217.741 1316.98 196.608 1316.98C156.964 1317.14 132.555 1288.47 132.555 1252.43Z" fill="#003876"/>
<path d="M293.922 1252.43V1252.11C293.922 1217.37 319.969 1187.07 358.303 1187.07C396.637 1187.07 422.357 1217.05 422.357 1251.78C422.521 1251.94 422.521 1251.94 422.357 1252.11C422.357 1286.84 396.31 1317.14 357.976 1317.14C319.642 1317.14 293.922 1287.16 293.922 1252.43ZM407.449 1252.43V1252.11C407.449 1223.6 386.644 1200.17 357.812 1200.17C329.143 1200.17 308.502 1223.11 308.502 1251.78V1252.11C308.502 1280.61 329.307 1304.04 358.139 1304.04C386.972 1304.04 407.449 1281.1 407.449 1252.43Z" fill="#003876"/>
<path d="M472.648 1189.2H526.218C540.634 1189.2 551.938 1193.29 559.146 1200.34C564.388 1205.74 567.173 1212.46 567.173 1220.49V1220.81C567.173 1237.2 557.18 1245.55 547.187 1249.97C562.094 1254.4 574.217 1263.08 574.217 1280.28V1280.61C574.217 1302.24 556.033 1315.01 528.511 1315.01H472.648V1189.2ZM523.924 1245.39C540.962 1245.39 552.92 1237.69 552.92 1222.94V1222.62C552.92 1210.17 543.091 1202.14 525.071 1202.14H486.737V1245.39H523.924ZM529.003 1302.24C548.006 1302.24 559.965 1293.72 559.965 1279.79V1279.46C559.965 1265.87 548.497 1257.84 526.545 1257.84H486.737V1302.24H529.003Z" fill="#003876"/>
<path d="M624.18 1189.2H638.432V1315.01H624.18V1189.2Z" fill="#003876"/>
<path d="M695.773 1189.2H786.694V1202.14H710.026V1245.06H778.667V1258H710.026V1302.07H787.677V1315.01H695.773V1189.2Z" fill="#003876"/>
<path d="M836.656 1189.2H890.717C906.116 1189.2 918.567 1193.95 926.43 1201.81C932.491 1207.87 936.095 1216.72 936.095 1226.55V1226.88C936.095 1247.68 921.679 1259.97 902.021 1263.57L940.682 1315.01H923.317L886.785 1266.19H886.458H850.909V1315.01H836.656V1189.2ZM889.406 1253.42C908.246 1253.42 921.843 1243.75 921.843 1227.53V1227.2C921.843 1211.8 910.048 1202.47 889.734 1202.47H850.909V1253.58H889.406V1253.42Z" fill="#003876"/>
<path d="M987.047 1189.2H1000.32L1079.61 1289.95V1189.2H1093.37V1315.01H1082.06L1000.81 1211.8V1315.01H986.883V1189.2H987.047Z" fill="#003876"/>
<path d="M1143.99 1252.43V1252.11C1143.99 1217.37 1170.04 1187.07 1208.37 1187.07C1246.71 1187.07 1272.43 1217.05 1272.43 1251.78C1272.59 1251.94 1272.59 1251.94 1272.43 1252.11C1272.43 1286.84 1246.38 1317.14 1208.05 1317.14C1169.71 1317.14 1143.99 1287.16 1143.99 1252.43ZM1257.52 1252.43V1252.11C1257.52 1223.6 1236.71 1200.17 1207.88 1200.17C1179.21 1200.17 1158.57 1223.11 1158.57 1251.78V1252.11C1158.57 1280.61 1179.38 1304.04 1208.21 1304.04C1237.04 1304.04 1257.52 1281.1 1257.52 1252.43Z" fill="#003876"/>
<path d="M1397.09 1189.2H1440.83C1480.31 1189.2 1507.66 1216.39 1507.66 1251.78V1252.1C1507.66 1287.49 1480.31 1315.01 1440.83 1315.01H1397.09V1189.2ZM1440.83 1301.91C1472.61 1301.91 1492.92 1280.28 1492.92 1252.43V1252.1C1492.92 1224.25 1472.61 1202.3 1440.83 1202.3H1411.34V1301.91H1440.83Z" fill="#003876"/>
<path d="M1558.12 1189.2H1649.05V1202.14H1572.38V1245.06H1641.02V1258H1572.38V1302.07H1650.03V1315.01H1558.12V1189.2Z" fill="#003876"/>
<path d="M1773.38 1189.2H1787.64V1301.91H1858.41V1315.01H1773.38V1189.2Z" fill="#003876"/>
<path d="M1951.79 1188.38H1965.06L2022.4 1315.01H2007.16L1992.42 1281.76H1923.94L1909.03 1315.01H1894.45L1951.79 1188.38ZM1986.85 1268.98L1958.18 1204.76L1929.51 1268.98H1986.85Z" fill="#003876"/>
<path d="M302.93 1621.69C286.548 1627.1 263.94 1626.45 248.377 1606.46L208.405 1555.02C197.265 1540.44 183.996 1538.47 165.812 1538.14V1588.44C165.812 1606.62 178.262 1609.74 194.808 1611.87C196.61 1612.19 195.3 1620.71 193.17 1620.71H114.536C112.406 1620.71 110.932 1612.19 113.062 1611.87C126.331 1610.06 134.522 1604.82 134.522 1588.44V1472.78C134.522 1455.74 125.512 1450.66 113.062 1447.38C110.932 1446.89 112.243 1438.37 114.536 1438.54C124.693 1439.85 135.997 1440.18 144.351 1440.18C163.518 1440.18 181.539 1438.54 193.989 1438.54C233.142 1438.54 259.353 1454.59 259.353 1486.54C259.353 1516.68 234.944 1531.43 213.156 1532.74V1534.05C223.477 1534.05 231.012 1538.47 242.48 1552.72L281.142 1601.22C289.169 1611.37 297.032 1614.16 302.602 1614.16C305.059 1614.16 304.568 1621.2 302.93 1621.69ZM226.917 1493.42C226.917 1465.57 209.224 1451.97 186.126 1451.97C170.89 1451.97 165.812 1458.2 165.812 1472.78V1526.18H173.348C212.173 1526.18 226.917 1519.47 226.917 1493.42Z" fill="#003876"/>
<path d="M344.863 1611.87C359.934 1607.93 371.565 1605.64 371.565 1586.47V1471.3C371.565 1454.76 360.917 1450.33 349.777 1447.38C347.647 1446.89 348.958 1438.37 351.088 1438.54C370.091 1440.67 402.691 1440.18 418.582 1440.18C442.172 1440.18 459.373 1439.19 480.67 1438.54C486.895 1438.54 486.895 1442.63 485.584 1448.69L479.359 1473.27C478.54 1476.87 472.151 1476.87 471.004 1473.27C467.073 1460.49 459.373 1453.28 426.937 1453.28C408.752 1453.28 402.855 1458.03 402.855 1471.47V1513.73C402.855 1520.45 406.295 1521.76 411.374 1521.76H417.107C438.076 1521.76 456.26 1519.63 466.909 1510.13C469.53 1507.84 475.264 1508.33 472.806 1513.57L458.062 1546.34C455.933 1551.09 452.165 1550.43 449.216 1546.66C443.319 1538.31 430.049 1535.03 414.978 1535.03H411.374C406.131 1535.03 402.855 1536.34 402.855 1543.06V1586.64C402.855 1601.38 409.08 1606.95 430.704 1606.95C469.858 1606.95 485.42 1589.09 491.646 1579.26C493.448 1576.48 500.492 1577.63 500.492 1582.05C500.492 1595.32 489.352 1621.53 472.97 1621.53C458.39 1620.71 444.138 1620.06 422.35 1620.06C398.432 1620.06 370.255 1619.24 346.665 1621.53C343.716 1621.37 342.733 1612.36 344.863 1611.87Z" fill="#003876"/>
<path d="M603.867 1551.09V1588.44C603.867 1606.62 616.317 1609.74 632.863 1611.87C634.665 1612.19 633.354 1620.71 631.225 1620.71H552.591C550.461 1620.71 548.987 1612.19 551.116 1611.87C564.386 1610.06 572.577 1604.82 572.577 1588.44V1472.78C572.577 1455.74 563.567 1450.66 551.116 1447.38C548.987 1446.89 550.297 1438.37 552.591 1438.54C562.748 1439.85 574.051 1440.18 582.406 1440.18C601.573 1440.18 617.628 1438.54 630.897 1438.54C671.197 1438.54 704.289 1453.28 704.289 1494.07C704.452 1540.11 661.204 1559.6 603.867 1551.09ZM603.867 1472.78V1538.47C647.934 1544.7 671.033 1534.05 671.033 1500.14C671.033 1469.34 651.375 1452.14 624.672 1452.14C608.29 1451.97 603.867 1457.71 603.867 1472.78Z" fill="#003876"/>
<path d="M777.845 1552.56V1471.14C777.845 1454.76 769.49 1449.35 756.876 1447.71C754.746 1447.39 756.385 1438.87 758.351 1438.87H829.121C831.251 1438.87 832.725 1447.39 830.595 1447.71C820.275 1449.02 809.79 1452.96 809.79 1471.14V1553.87C809.79 1590.24 830.759 1607.12 858.281 1607.12C886.622 1607.12 909.065 1590.24 909.065 1553.87V1471.14C909.065 1454.27 899.4 1449.68 886.786 1447.71C884.984 1447.39 886.294 1438.87 888.26 1438.87H946.58C948.382 1438.87 950.02 1447.39 947.891 1447.71C937.57 1449.02 927.086 1452.96 927.086 1471.14V1552.4C927.086 1600.24 896.287 1624.81 855.005 1624.81C818.8 1624.81 777.845 1605.31 777.845 1552.56ZM854.022 1374.32C858.772 1367.6 880.561 1387.59 874.335 1392.18L840.261 1417.9C836.821 1420.52 827.81 1412.16 830.432 1408.56L854.022 1374.32Z" fill="#003876"/>
<path d="M1156.27 1568.29C1156.27 1600.4 1126.95 1621.2 1083.7 1621.2C1071.25 1621.2 1056.67 1619.73 1037.5 1619.73C1021.12 1619.73 1008.67 1620.06 996.708 1621.2C994.415 1621.53 993.104 1612.36 995.234 1611.87C1010.31 1607.93 1021.94 1605.64 1021.94 1586.47V1471.3C1021.94 1454.76 1011.29 1450.33 1000.15 1447.38C998.019 1446.89 999.329 1438.37 1001.46 1438.54C1012.11 1439.85 1024.56 1440.18 1032.91 1440.18C1053.72 1440.18 1068.95 1438.54 1080.42 1438.54C1113.84 1438.54 1141.36 1452.63 1141.69 1481.13C1142.02 1502.1 1127.11 1516.68 1108.93 1520.29V1521.92C1132.84 1521.76 1156.27 1539.13 1156.27 1568.29ZM1052.9 1471.14V1517.34H1079.6C1098.28 1517.34 1109.25 1508 1109.25 1488.01C1109.25 1463.44 1092.71 1451.97 1071.41 1451.97C1057.65 1451.97 1052.9 1456.56 1052.9 1471.14ZM1122.69 1573.86C1122.69 1545.35 1103.68 1530.28 1079.6 1530.28H1052.9V1586.31C1052.9 1600.56 1060.11 1607.61 1082.71 1607.61C1105.65 1607.61 1122.69 1600.89 1122.69 1573.86Z" fill="#003876"/>
<path d="M1205.91 1611.87C1220.98 1607.94 1232.61 1605.64 1232.61 1586.47V1471.3C1232.61 1453.12 1221.96 1449.52 1210.82 1447.88C1208.69 1447.55 1210.33 1439.03 1212.13 1439.03H1283.72C1285.53 1439.03 1286.84 1447.55 1285.04 1447.88C1274.06 1449.19 1263.74 1453.12 1263.74 1471.3V1586.47C1263.74 1601.22 1269.96 1606.79 1291.59 1606.79C1330.74 1606.79 1346.3 1588.93 1352.53 1579.1C1354.33 1576.32 1361.38 1577.46 1361.38 1581.89C1361.38 1595.16 1350.24 1621.37 1333.85 1621.37C1319.27 1620.55 1305.02 1619.9 1283.23 1619.9C1259.32 1619.9 1231.14 1619.08 1207.55 1621.37C1204.76 1621.37 1203.78 1612.36 1205.91 1611.87Z" fill="#003876"/>
<path d="M1407.08 1611.87C1420.35 1610.07 1428.54 1604.82 1428.54 1588.44V1471.14C1428.54 1454.76 1420.18 1449.68 1407.08 1447.71C1404.95 1447.39 1406.59 1438.87 1408.55 1438.87H1479.65C1481.78 1438.87 1483.26 1447.39 1481.13 1447.71C1469.99 1449.35 1459.67 1452.96 1459.67 1471.14V1588.44C1459.67 1606.63 1469.99 1610.23 1481.13 1611.87C1483.26 1612.2 1481.62 1620.71 1479.65 1620.71H1408.55C1406.59 1620.55 1404.95 1612.03 1407.08 1611.87Z" fill="#003876"/>
<path d="M1536 1533.23C1536 1488.34 1563.52 1434.94 1636.09 1434.94C1666.24 1434.94 1692.12 1444.28 1689.01 1453.29L1685.57 1463.44C1676.23 1491.29 1666.07 1455.74 1619.88 1455.74C1582.69 1455.74 1564.67 1479.83 1564.67 1517.18C1564.67 1575.5 1609.06 1599.91 1644.61 1599.91C1649.36 1599.91 1672.95 1596.31 1686.39 1587.62C1688.52 1586.31 1693.92 1592.37 1692.28 1594.67C1681.14 1611.05 1646.41 1624.81 1638.39 1624.81C1594.98 1624.81 1536 1599.42 1536 1533.23Z" fill="#003876"/>
<path d="M1929.5 1620.55H1861.03C1857.59 1620.55 1857.42 1612.19 1860.21 1611.7C1869.87 1609.9 1880.19 1606.46 1870.53 1584.18L1867.74 1577.63C1865.12 1571.4 1860.7 1570.91 1853 1570.91H1800.08C1792.22 1570.91 1787.96 1571.4 1785.34 1577.63L1782.72 1584.18C1773.71 1606.46 1783.54 1609.9 1795.99 1611.7C1799.43 1612.19 1798.61 1620.55 1795.17 1620.55H1739.14C1736.03 1620.55 1735.21 1612.19 1738.32 1611.7C1748.97 1609.9 1755.2 1606.3 1764.86 1584.18L1808.77 1483.59C1818.92 1460.82 1822.04 1450.17 1822.04 1440.18C1822.04 1438.7 1840.22 1434.44 1841.04 1436.25L1904.44 1583.85C1913.78 1605.97 1920 1610.06 1930.32 1611.7C1933.6 1612.36 1932.62 1620.55 1929.5 1620.55ZM1857.09 1552.4L1826.79 1479.82L1796.15 1552.4C1794.51 1556 1798.45 1556.49 1802.05 1556.49H1851.03C1854.8 1556.49 1858.57 1556 1857.09 1552.4Z" fill="#003876"/>
<path d="M2055.15 1611.87C2070.22 1607.93 2081.85 1605.64 2081.85 1586.47V1471.3C2081.85 1454.76 2071.2 1450.33 2060.06 1447.38C2057.93 1446.89 2059.24 1438.37 2061.37 1438.54C2072.02 1439.85 2082.83 1440.18 2093.81 1440.18C2114.12 1440.18 2132.14 1438.54 2145.41 1438.54C2208.16 1438.54 2242.23 1475.89 2242.23 1526.02C2242.23 1575.82 2208.16 1621.2 2145.25 1621.2C2132.8 1621.2 2116.74 1619.73 2097.41 1619.73C2081.36 1619.73 2068.58 1620.06 2056.62 1621.2C2054.16 1621.37 2053.18 1612.36 2055.15 1611.87ZM2211.1 1540.76C2211.1 1491.13 2184.07 1452.3 2137.39 1452.3C2119.04 1452.3 2112.98 1458.03 2112.98 1471.3V1586.47C2112.98 1600.56 2122.64 1607.44 2147.71 1607.44C2190.14 1607.44 2211.1 1584.51 2211.1 1540.76Z" fill="#003876"/>
<path d="M2298.76 1530.77C2298.76 1478.35 2336.11 1434.77 2392.95 1434.77C2447.18 1434.77 2486.66 1474.42 2486.66 1528.48C2486.66 1581.23 2449.64 1624.81 2392.46 1624.81C2338.4 1624.81 2298.76 1584.83 2298.76 1530.77ZM2455.7 1543.06C2455.7 1490.63 2420.15 1452.46 2382.8 1452.46C2360.03 1452.46 2329.88 1467.53 2329.88 1516.35C2329.88 1569.27 2365.43 1607.11 2402.62 1607.11C2425.39 1607.11 2455.7 1592.04 2455.7 1543.06Z" fill="#003876"/>
<path d="M2768.91 1620.55H2701.25C2699.45 1620.55 2698.14 1612.03 2699.78 1611.7C2710.76 1609.9 2718.78 1604.66 2717.96 1588.28L2713.05 1501.12L2670.95 1586.8C2665.54 1597.94 2661.28 1609.41 2660.63 1613.51C2660.13 1616.62 2654.73 1618.26 2650.47 1618.26C2646.54 1618.26 2643.92 1616.78 2642.44 1613.51L2582.48 1499.81L2578.55 1588.28C2577.73 1606.46 2588.38 1610.56 2596.74 1611.7C2598.87 1612.03 2597.23 1620.55 2595.43 1620.55H2541.69C2539.56 1620.55 2538.09 1612.03 2540.22 1611.7C2551.36 1610.39 2560.7 1606.46 2561.68 1588.28L2570.03 1439.36C2570.36 1434.94 2580.19 1434.61 2582.81 1439.36L2658.01 1579.92L2727.79 1439.36C2730.09 1434.61 2740.57 1434.94 2740.73 1439.36L2749.09 1588.28C2750.07 1606.46 2759.41 1610.39 2770.39 1611.7C2772.35 1612.03 2770.71 1620.55 2768.91 1620.55Z" fill="#003876"/>
<path d="M2822.32 1611.87C2835.59 1610.07 2843.78 1604.82 2843.78 1588.44V1471.14C2843.78 1454.76 2835.43 1449.68 2822.32 1447.71C2820.19 1447.39 2821.83 1438.87 2823.8 1438.87H2894.89C2897.02 1438.87 2898.5 1447.39 2896.37 1447.71C2885.23 1449.35 2874.91 1452.96 2874.91 1471.14V1588.44C2874.91 1606.63 2885.23 1610.23 2896.37 1611.87C2898.5 1612.2 2896.86 1620.71 2894.89 1620.71H2823.8C2821.83 1620.55 2820.19 1612.03 2822.32 1611.87Z" fill="#003876"/>
<path d="M3109.83 1618.26L2986.31 1489V1587.62C2986.31 1605.31 2996.63 1608.1 3011.54 1611.7C3013.67 1612.19 3012.52 1620.55 3009.9 1620.55H2948.47C2946.34 1620.55 2944.86 1612.52 2947.16 1611.7C2958.13 1608.1 2968.45 1605.97 2968.45 1587.62V1486.87C2968.45 1468.52 2965.67 1459.67 2958.79 1450.5C2956.5 1447.39 2954.04 1445.26 2954.04 1444.6C2954.04 1442.31 2955.68 1438.87 2959.28 1438.87H2978.45C2981.07 1438.87 2982.87 1439.19 2984.67 1441.16L3105.57 1569.11V1471.47C3105.57 1453.12 3093.94 1450.99 3080.34 1447.55C3078.21 1447.06 3079.36 1438.7 3081.82 1438.7H3143.25C3145.38 1438.7 3146.69 1447.06 3144.56 1447.55C3133.09 1450.99 3123.26 1452.96 3123.26 1471.47V1572.55C3123.26 1589.59 3123.76 1608.59 3126.38 1618.26C3127.36 1622.19 3123.26 1623.17 3119.17 1623.17C3115.07 1623.17 3112.62 1621.37 3109.83 1618.26Z" fill="#003876"/>
<path d="M3196.81 1611.87C3210.08 1610.07 3218.27 1604.82 3218.27 1588.44V1471.14C3218.27 1454.76 3209.92 1449.68 3196.81 1447.71C3194.68 1447.39 3196.32 1438.87 3198.29 1438.87H3269.39C3271.52 1438.87 3272.99 1447.39 3270.86 1447.71C3259.72 1449.35 3249.4 1452.96 3249.4 1471.14V1588.44C3249.4 1606.63 3259.72 1610.23 3270.86 1611.87C3272.99 1612.2 3271.35 1620.71 3269.39 1620.71H3198.29C3196.32 1620.55 3194.85 1612.03 3196.81 1611.87Z" fill="#003876"/>
<path d="M3325.91 1533.23C3325.91 1488.34 3353.43 1434.94 3426 1434.94C3456.14 1434.94 3482.03 1444.28 3478.91 1453.29L3475.47 1463.44C3466.14 1491.29 3455.98 1455.74 3409.78 1455.74C3372.76 1455.74 3354.57 1479.83 3354.57 1517.18C3354.57 1575.5 3398.97 1599.91 3434.52 1599.91C3439.27 1599.91 3462.86 1596.31 3476.29 1587.62C3478.42 1586.31 3483.83 1592.37 3482.19 1594.67C3471.05 1611.05 3436.32 1624.81 3428.29 1624.81C3384.72 1624.81 3325.91 1599.42 3325.91 1533.23Z" fill="#003876"/>
<path d="M3719.24 1620.55H3650.77C3647.33 1620.55 3647.16 1612.19 3649.95 1611.7C3659.61 1609.9 3669.94 1606.46 3660.27 1584.18L3657.48 1577.63C3654.86 1571.4 3650.44 1570.91 3642.74 1570.91H3589.83C3582.13 1570.91 3577.7 1571.4 3575.08 1577.63L3572.46 1584.18C3563.45 1606.46 3573.28 1609.9 3585.73 1611.7C3589.17 1612.19 3588.35 1620.55 3584.91 1620.55H3528.89C3525.77 1620.55 3524.95 1612.19 3528.07 1611.7C3538.71 1609.9 3544.94 1606.3 3554.61 1584.18L3598.51 1483.59C3608.67 1460.82 3611.78 1450.17 3611.78 1440.18C3611.78 1438.7 3629.96 1434.44 3630.78 1436.25L3694.02 1583.85C3703.35 1605.97 3709.58 1610.06 3719.9 1611.7C3723.5 1612.36 3722.36 1620.55 3719.24 1620.55ZM3646.84 1552.4L3616.53 1479.82L3585.9 1552.4C3584.42 1556 3588.19 1556.49 3591.79 1556.49H3640.77C3644.54 1556.49 3648.47 1556 3646.84 1552.4Z" fill="#003876"/>
<path d="M3930.57 1618.26L3807.04 1489V1587.62C3807.04 1605.31 3817.37 1608.1 3832.27 1611.7C3834.4 1612.19 3833.26 1620.55 3830.63 1620.55H3769.2C3767.07 1620.55 3765.6 1612.52 3767.89 1611.7C3778.87 1608.1 3789.19 1605.97 3789.19 1587.62V1486.87C3789.19 1468.52 3786.4 1459.67 3779.52 1450.5C3777.23 1447.39 3774.77 1445.26 3774.77 1444.6C3774.77 1442.31 3776.41 1438.87 3780.01 1438.87H3799.18C3801.8 1438.87 3803.6 1439.19 3805.41 1441.16L3926.31 1569.11V1471.47C3926.31 1453.12 3914.67 1450.99 3901.08 1447.55C3898.95 1447.06 3900.09 1438.7 3902.55 1438.7H3963.98C3966.11 1438.7 3967.43 1447.06 3965.3 1447.55C3953.83 1450.99 3944 1452.96 3944 1471.47V1572.55C3944 1589.59 3944.49 1608.59 3947.11 1618.26C3948.09 1622.19 3944 1623.17 3939.9 1623.17C3935.81 1623.17 3933.51 1621.37 3930.57 1618.26Z" fill="#003876"/>
<path d="M4198.41 1620.55H4129.93C4126.49 1620.55 4126.33 1612.19 4129.11 1611.7C4138.78 1609.9 4149.1 1606.46 4139.43 1584.18L4136.65 1577.63C4134.03 1571.4 4129.6 1570.91 4121.9 1570.91H4068.99C4061.29 1570.91 4056.87 1571.4 4054.25 1577.63L4051.63 1584.18C4042.62 1606.46 4052.44 1609.9 4064.9 1611.7C4068.34 1612.19 4067.52 1620.55 4064.08 1620.55H4008.05C4004.94 1620.55 4004.12 1612.19 4007.23 1611.7C4017.88 1609.9 4024.1 1606.3 4033.77 1584.18L4077.67 1483.59C4087.83 1460.82 4090.94 1450.17 4090.94 1440.18C4090.94 1438.7 4109.13 1434.44 4109.95 1436.25L4173.18 1583.85C4182.52 1605.97 4188.74 1610.06 4199.06 1611.7C4202.67 1612.36 4201.69 1620.55 4198.41 1620.55ZM4126.16 1552.4L4095.86 1479.82L4065.22 1552.4C4063.75 1556 4067.52 1556.49 4071.12 1556.49H4120.1C4123.71 1556.49 4127.64 1556 4126.16 1552.4Z" fill="#003876"/>
<path d="M1072.72 1775.2H134.68V1819.6H1072.72V1775.2Z" fill="#ED232A"/>
</svg>
