<svg width="3806" height="2765" viewBox="0 0 3806 2765" fill="none" xmlns="http://www.w3.org/2000/svg">
<path d="M1910.87 305.775L1897.52 305.867C1896.85 305.879 1896.52 305.547 1896.52 304.871L1896.48 298.913C1896.48 298.114 1896.88 297.739 1897.68 297.788L1898.44 297.825C1899.32 297.886 1899.77 298.36 1899.77 299.245V302.731C1899.77 303.494 1900.15 303.875 1900.91 303.875L1911 303.893C1911.75 303.906 1912.12 303.537 1912.09 302.787L1911.04 275.764C1911.03 275.573 1911.09 275.386 1911.2 275.229C1911.31 275.073 1911.47 274.957 1911.65 274.897C1913.81 274.208 1914.95 274.866 1915.06 276.871C1915.16 278.346 1915.04 279.779 1914.69 281.168C1913.09 287.588 1914.12 295.796 1913.99 302.51C1913.98 303.42 1914.43 303.875 1915.34 303.875L1924.89 303.912C1925.05 303.912 1925.2 303.882 1925.34 303.823C1925.48 303.765 1925.6 303.679 1925.71 303.57C1925.82 303.462 1925.9 303.334 1925.96 303.193C1926.01 303.052 1926.04 302.902 1926.04 302.75L1926.02 299.098C1926.02 298.323 1926.4 297.911 1927.16 297.862L1928.05 297.806C1928.89 297.757 1929.31 298.151 1929.32 298.987L1929.38 304.558C1929.39 305.394 1928.98 305.812 1928.16 305.812L1914.91 305.793C1914.29 305.793 1913.97 306.107 1913.97 306.734L1914.05 314.407C1914.06 315.022 1914.38 315.342 1915.01 315.367C1946.63 316.621 1967.66 341.818 1969.58 372.788C1969.63 373.661 1969.22 374.098 1968.34 374.098H1857.13C1857.03 374.098 1856.93 374.077 1856.83 374.037C1856.74 373.996 1856.65 373.937 1856.58 373.863C1856.51 373.789 1856.46 373.701 1856.42 373.605C1856.39 373.509 1856.37 373.407 1856.38 373.304C1857.78 342.224 1879.38 316.529 1910.98 315.311C1911.53 315.287 1911.8 315.004 1911.8 314.463V306.697C1911.8 306.453 1911.7 306.218 1911.53 306.045C1911.35 305.872 1911.12 305.775 1910.87 305.775Z" fill="#001DA1"/>
<path d="M1985.96 381.254H1839.74C1838.46 381.254 1837.43 382.286 1837.43 383.56V389.536C1837.43 390.809 1838.46 391.842 1839.74 391.842H1985.96C1987.24 391.842 1988.27 390.809 1988.27 389.536V383.56C1988.27 382.286 1987.24 381.254 1985.96 381.254Z" fill="#001DA1"/>
<path d="M1883.07 397.836H1868.61C1866.21 397.836 1864.27 399.777 1864.27 402.171V478.167C1864.27 480.561 1866.21 482.501 1868.61 482.501H1883.07C1885.47 482.501 1887.41 480.561 1887.41 478.167V402.171C1887.41 399.777 1885.47 397.836 1883.07 397.836Z" fill="#001DA1"/>
<path d="M1920.3 397.836H1905.8C1903.42 397.836 1901.48 399.768 1901.48 402.152V478.185C1901.48 480.569 1903.42 482.501 1905.8 482.501H1920.3C1922.69 482.501 1924.62 480.569 1924.62 478.185V402.152C1924.62 399.768 1922.69 397.836 1920.3 397.836Z" fill="#001DA1"/>
<path d="M1957.08 397.836H1942.54C1940.14 397.836 1938.2 399.777 1938.2 402.171V478.167C1938.2 480.561 1940.14 482.501 1942.54 482.501H1957.08C1959.47 482.501 1961.41 480.561 1961.41 478.167V402.171C1961.41 399.777 1959.47 397.836 1957.08 397.836Z" fill="#001DA1"/>
<path d="M1985.72 491.723H1839.98C1838.56 491.723 1837.41 492.871 1837.41 494.287V499.931C1837.41 501.347 1838.56 502.495 1839.98 502.495H1985.72C1987.14 502.495 1988.29 501.347 1988.29 499.931V494.287C1988.29 492.871 1987.14 491.723 1985.72 491.723Z" fill="#001DA1"/>
<path d="M2181.46 684.831C2174.87 670.357 2166.41 654.267 2156.08 636.559C2129.62 591.183 2095.08 552.428 2052.45 520.296C2046.52 515.82 2040.24 511.719 2033.6 507.993C2033.38 507.857 2033.32 507.673 2033.43 507.439H2033.45C2033.5 507.341 2033.57 507.31 2033.67 507.347C2179.56 567.332 2277.01 706.431 2283.45 864.123C2283.5 865.352 2282.91 865.967 2281.68 865.967L2228.27 866.022C2227.73 866.022 2227.43 865.752 2227.36 865.211C2223.53 830.066 2219.67 803.934 2215.78 786.817C2207.71 751.278 2196.27 717.283 2181.46 684.831Z" fill="#001DA1"/>
<path d="M1648.62 677.158C1631.45 712.869 1618.58 750.393 1610.01 789.732C1604.79 813.693 1601.62 840.513 1598.98 865.506C1598.93 865.986 1598.66 866.226 1598.19 866.226L1543.72 866.17C1543.58 866.171 1543.44 866.142 1543.31 866.086C1543.18 866.03 1543.07 865.948 1542.97 865.844C1542.87 865.741 1542.79 865.619 1542.74 865.485C1542.69 865.35 1542.67 865.207 1542.67 865.064C1547.42 768.925 1581.18 684.905 1643.94 613.004C1651.18 604.704 1659.66 595.997 1669.36 586.885C1705.39 553.056 1746.3 526.636 1792.1 507.624C1792.21 507.575 1792.3 507.606 1792.36 507.716V507.735C1792.45 507.895 1792.41 508.024 1792.25 508.122C1760.63 528.08 1733.49 552.982 1709.32 581.351C1684.77 610.145 1664.66 643.808 1648.62 677.158Z" fill="#001DA1"/>
<path d="M1819.68 553.701C1764.08 634.585 1738.36 730.557 1734.06 828.079C1733.55 839.614 1733.27 852.003 1733.23 865.247C1733.23 866.071 1732.82 866.483 1732 866.483L1635.84 866.077C1635.75 866.078 1635.67 866.06 1635.59 866.024C1635.51 865.988 1635.44 865.936 1635.38 865.87C1635.32 865.804 1635.27 865.726 1635.24 865.641C1635.22 865.556 1635.21 865.466 1635.21 865.377C1636.36 853.534 1637.68 841.828 1639.18 830.256C1645.35 782.433 1658.04 738.477 1677.24 698.388C1684.31 683.607 1694.21 666.065 1706.94 645.763C1741.04 591.367 1788.38 546.083 1846.19 519.558C1848.64 518.427 1848.91 518.814 1847.01 520.72C1837.14 530.57 1828.03 541.563 1819.68 553.701Z" fill="#001DA1"/>
<path d="M2038.81 608.63C2022.31 575.225 2003.68 546.007 1978.83 520.017C1977.76 518.886 1977.94 518.622 1979.36 519.224C1982.99 520.749 1986.6 522.421 1990.19 524.241C2043.31 551.264 2087.12 594.298 2118.87 644.71C2125.85 655.802 2133.03 667.994 2140.42 681.288C2167.71 730.408 2183.02 787.276 2188.78 843.406C2189.54 850.834 2190.33 858.027 2191.16 864.988C2191.17 865.109 2191.16 865.232 2191.12 865.348C2191.08 865.465 2191.02 865.571 2190.94 865.662C2190.86 865.753 2190.76 865.825 2190.66 865.874C2190.55 865.923 2190.43 865.948 2190.31 865.947L2093.89 866.187C2093.66 866.187 2093.43 866.091 2093.27 865.922C2093.1 865.752 2093.01 865.522 2093.01 865.283C2094 776.283 2078.14 688.352 2038.81 608.63Z" fill="#001DA1"/>
<path d="M1783.69 729.597C1800.52 654.855 1834.69 576.793 1893.7 525.902C1893.76 525.854 1893.83 525.823 1893.91 525.812C1893.98 525.802 1894.06 525.813 1894.13 525.844C1894.2 525.874 1894.26 525.924 1894.3 525.986C1894.34 526.048 1894.36 526.121 1894.37 526.197V865.523C1894.37 865.709 1894.29 865.887 1894.16 866.018C1894.03 866.15 1893.85 866.224 1893.67 866.224L1770.56 866.574C1769.75 866.574 1769.34 866.174 1769.34 865.375C1768.97 819.101 1773.76 773.842 1783.69 729.597Z" fill="#001DA1"/>
<path d="M1933 526.013C1983.86 570.615 2016.18 634.178 2034.74 698.793C2050.08 752.15 2057.49 807.782 2056.97 865.689C2056.97 866.218 2056.71 866.483 2056.18 866.483L1932.89 865.948C1932.26 865.948 1931.95 865.634 1931.95 865.007V526.493C1931.94 526.369 1931.98 526.248 1932.04 526.143C1932.11 526.039 1932.2 525.955 1932.31 525.904C1932.42 525.853 1932.55 525.836 1932.67 525.855C1932.79 525.875 1932.91 525.93 1933 526.013Z" fill="#001DA1"/>
<path d="M1891.95 892.455L1891.97 881.166C1891.97 880.173 1892.36 879.221 1893.06 878.519C1893.76 877.816 1894.71 877.422 1895.7 877.422L1930.68 877.44C1931.56 877.44 1932.41 877.792 1933.03 878.417C1933.66 879.043 1934.01 879.892 1934.02 880.779L1934.05 892.308C1934.05 892.635 1934.18 892.95 1934.41 893.181C1934.65 893.413 1934.96 893.543 1935.29 893.543H2052.53C2053.42 893.543 2053.86 893.101 2053.86 892.215L2053.84 881.185C2053.84 880.192 2054.23 879.239 2054.93 878.537C2055.63 877.835 2056.58 877.44 2057.57 877.44H2091.59C2094.39 877.44 2095.79 878.842 2095.79 881.646V892.234C2095.79 893.107 2096.23 893.543 2097.1 893.543L2186.78 893.562C2187.09 893.562 2187.24 893.408 2187.24 893.101L2187.26 881.443C2187.28 878.762 2188.62 877.428 2191.28 877.44L2225.86 877.459C2226.74 877.459 2227.59 877.809 2228.22 878.431C2228.85 879.054 2229.2 879.898 2229.2 880.779L2229.22 892.308C2229.22 893.131 2229.63 893.543 2230.47 893.543L2302.83 893.562C2304.4 893.562 2305.19 894.355 2305.21 895.941V902.416C2305.22 904.26 2304.3 905.183 2302.46 905.183L1523.9 905.201C1522.08 905.201 1521.17 904.291 1521.17 902.471L1521.15 896.144C1521.15 894.41 1522.01 893.543 1523.73 893.543L1595.68 893.562C1596.41 893.562 1596.77 893.193 1596.77 892.455L1596.79 880.927C1596.79 880.002 1597.16 879.115 1597.82 878.461C1598.47 877.808 1599.36 877.44 1600.29 877.44H1635.46C1636.33 877.44 1637.16 877.788 1637.78 878.407C1638.4 879.027 1638.74 879.866 1638.74 880.742V892.713C1638.74 892.933 1638.83 893.145 1638.99 893.3C1639.15 893.456 1639.36 893.543 1639.59 893.543L1729.51 893.562C1729.7 893.562 1729.87 893.488 1730.01 893.357C1730.14 893.225 1730.21 893.047 1730.21 892.861L1730.3 880.576C1730.31 879.743 1730.64 878.945 1731.24 878.358C1731.83 877.77 1732.64 877.44 1733.48 877.44H1768.46C1768.97 877.44 1769.48 877.542 1769.96 877.74C1770.43 877.937 1770.86 878.227 1771.23 878.592C1771.59 878.957 1771.88 879.391 1772.07 879.867C1772.27 880.344 1772.37 880.854 1772.37 881.369L1772.35 892.4C1772.35 893.162 1772.73 893.543 1773.49 893.543L1890.86 893.562C1891.59 893.562 1891.95 893.193 1891.95 892.455Z" fill="#001DA1"/>
<path d="M1634.27 917.816H1601.29C1598.81 917.816 1596.8 919.823 1596.8 922.299V955.464C1596.8 957.939 1598.81 959.946 1601.29 959.946H1634.27C1636.75 959.946 1638.76 957.939 1638.76 955.464V922.299C1638.76 919.823 1636.75 917.816 1634.27 917.816Z" fill="#001DA1"/>
<path d="M1767.81 917.79L1734.86 917.848C1732.37 917.852 1730.36 919.871 1730.37 922.356L1730.43 955.484C1730.43 957.97 1732.45 959.982 1734.93 959.977L1767.88 959.92C1770.37 959.916 1772.38 957.897 1772.38 955.411L1772.32 922.283C1772.32 919.797 1770.3 917.786 1767.81 917.79Z" fill="#001DA1"/>
<path d="M1929.55 917.816H1896.56C1894.09 917.816 1892.08 919.823 1892.08 922.299V955.501C1892.08 957.976 1894.09 959.983 1896.56 959.983H1929.55C1932.02 959.983 1934.03 957.976 1934.03 955.501V922.299C1934.03 919.823 1932.02 917.816 1929.55 917.816Z" fill="#001DA1"/>
<path d="M2091.36 918.004H2058.26C2055.82 918.004 2053.84 919.986 2053.84 922.431V955.522C2053.84 957.967 2055.82 959.949 2058.26 959.949H2091.36C2093.81 959.949 2095.79 957.967 2095.79 955.522V922.431C2095.79 919.986 2093.81 918.004 2091.36 918.004Z" fill="#001DA1"/>
<path d="M2224.92 918.004H2191.6C2189.21 918.004 2187.28 919.936 2187.28 922.32V955.633C2187.28 958.017 2189.21 959.949 2191.6 959.949H2224.92C2227.3 959.949 2229.23 958.017 2229.23 955.633V922.32C2229.23 919.936 2227.3 918.004 2224.92 918.004Z" fill="#001DA1"/>
<path d="M2300.82 969.445H1525.56C1523.12 969.445 1521.15 971.419 1521.15 973.854V992.447C1521.15 994.882 1523.12 996.855 1525.56 996.855H2300.82C2303.25 996.855 2305.23 994.882 2305.23 992.447V973.854C2305.23 971.419 2303.25 969.445 2300.82 969.445Z" fill="#001DA1"/>
<path d="M1214.84 1178.75L1184.47 1178.79C1184.33 1178.79 1184.19 1178.73 1184.09 1178.64C1183.99 1178.54 1183.94 1178.41 1183.94 1178.27L1183.96 1168.53C1183.96 1168.21 1184.11 1168.05 1184.42 1168.05L1226.83 1168.03C1227.45 1168.03 1227.75 1168.35 1227.75 1168.97V1209.19C1227.75 1209.55 1227.67 1209.91 1227.52 1210.24C1227.36 1210.57 1227.13 1210.86 1226.85 1211.09C1214.67 1220.98 1201.32 1226.06 1186.8 1226.32C1156.61 1226.87 1134.62 1207.89 1131.65 1177.64C1129.86 1159.42 1136.76 1140.6 1150.77 1128.91C1170.91 1112.11 1203.27 1112.83 1223.47 1130.64C1223.55 1130.71 1223.61 1130.78 1223.65 1130.87C1223.69 1130.95 1223.72 1131.05 1223.72 1131.14C1223.73 1131.24 1223.72 1131.33 1223.69 1131.42C1223.66 1131.51 1223.61 1131.59 1223.55 1131.66L1216.65 1139.79C1216.59 1139.86 1216.52 1139.91 1216.45 1139.95C1216.37 1139.99 1216.29 1140.02 1216.2 1140.02C1216.12 1140.03 1216.03 1140.02 1215.95 1139.99C1215.87 1139.97 1215.79 1139.92 1215.72 1139.87C1189.27 1116.64 1149.88 1128.89 1144.55 1164.4C1138.11 1207.25 1181.94 1230.45 1215.39 1205.53C1215.9 1205.15 1216.15 1204.65 1216.15 1204.04L1216.13 1180.04C1216.13 1179.18 1215.7 1178.75 1214.84 1178.75Z" fill="#001DA1"/>
<path d="M1310.08 1226.06C1303.04 1225.02 1296.28 1222.59 1290.18 1218.89C1284.08 1215.2 1278.76 1210.32 1274.53 1204.53C1270.3 1198.74 1267.24 1192.16 1265.52 1185.16C1263.8 1178.16 1263.46 1170.88 1264.51 1163.73C1266.64 1149.3 1274.34 1136.3 1285.9 1127.57C1297.46 1118.85 1311.94 1115.13 1326.15 1117.23C1333.19 1118.27 1339.95 1120.71 1346.05 1124.4C1352.15 1128.1 1357.47 1132.98 1361.7 1138.77C1365.93 1144.55 1369 1151.14 1370.71 1158.14C1372.43 1165.14 1372.77 1172.42 1371.72 1179.56C1369.59 1193.99 1361.9 1207 1350.34 1215.72C1338.78 1224.44 1324.3 1228.16 1310.08 1226.06ZM1320.17 1215.26C1331.19 1214.74 1341.53 1209.65 1348.93 1201.1C1356.33 1192.55 1360.18 1181.24 1359.64 1169.67C1359.37 1163.94 1358.02 1158.32 1355.69 1153.12C1353.35 1147.93 1350.07 1143.26 1346.02 1139.39C1341.97 1135.52 1337.24 1132.53 1332.1 1130.57C1326.96 1128.62 1321.51 1127.74 1316.06 1128C1305.05 1128.52 1294.7 1133.61 1287.3 1142.16C1279.9 1150.71 1276.05 1162.02 1276.6 1173.59C1276.87 1179.32 1278.21 1184.94 1280.55 1190.13C1282.88 1195.33 1286.17 1200 1290.21 1203.87C1294.26 1207.73 1298.99 1210.73 1304.13 1212.69C1309.27 1214.64 1314.72 1215.52 1320.17 1215.26Z" fill="#001DA1"/>
<path d="M2007.21 1226.08C2000.17 1225.05 1993.41 1222.63 1987.3 1218.94C1981.2 1215.26 1975.88 1210.39 1971.64 1204.61C1967.4 1198.83 1964.32 1192.25 1962.59 1185.25C1960.86 1178.26 1960.51 1170.98 1961.55 1163.83C1962.6 1156.68 1965.02 1149.81 1968.67 1143.6C1972.33 1137.39 1977.15 1131.96 1982.87 1127.63C1988.58 1123.3 1995.08 1120.16 2001.98 1118.37C2008.88 1116.58 2016.06 1116.19 2023.09 1117.22C2030.13 1118.25 2036.9 1120.67 2043 1124.35C2049.1 1128.04 2054.43 1132.91 2058.67 1138.69C2062.91 1144.47 2065.98 1151.04 2067.71 1158.04C2069.44 1165.04 2069.79 1172.32 2068.75 1179.47C2067.71 1186.61 2065.29 1193.49 2061.63 1199.7C2057.97 1205.91 2053.15 1211.33 2047.44 1215.66C2041.72 1219.99 2035.23 1223.14 2028.33 1224.92C2021.42 1226.71 2014.25 1227.1 2007.21 1226.08ZM2017.13 1215.26C2028.15 1214.76 2038.5 1209.69 2045.91 1201.15C2053.33 1192.61 2057.2 1181.32 2056.67 1169.74C2056.41 1164.01 2055.08 1158.39 2052.76 1153.19C2050.43 1147.99 2047.15 1143.32 2043.11 1139.44C2039.07 1135.57 2034.35 1132.56 2029.21 1130.59C2024.07 1128.63 2018.62 1127.75 2013.17 1127.99C2002.16 1128.49 1991.81 1133.57 1984.39 1142.11C1976.97 1150.64 1973.1 1161.94 1973.63 1173.51C1973.89 1179.24 1975.22 1184.87 1977.55 1190.07C1979.88 1195.27 1983.15 1199.94 1987.19 1203.82C1991.23 1207.69 1995.96 1210.7 2001.09 1212.66C2006.23 1214.63 2011.68 1215.51 2017.13 1215.26Z" fill="#001DA1"/>
<path d="M2656.47 1196.64H2599.87C2599.76 1196.64 2599.66 1196.67 2599.57 1196.73C2599.47 1196.79 2599.4 1196.88 2599.36 1196.97L2587.09 1224.29C2587.04 1224.39 2586.97 1224.47 2586.88 1224.53C2586.79 1224.59 2586.68 1224.62 2586.57 1224.62L2575.34 1224.59C2575.24 1224.59 2575.15 1224.56 2575.06 1224.52C2574.98 1224.47 2574.91 1224.4 2574.86 1224.32C2574.8 1224.24 2574.77 1224.15 2574.77 1224.05C2574.76 1223.96 2574.78 1223.86 2574.82 1223.78L2622.55 1118.32C2622.59 1118.22 2622.66 1118.14 2622.76 1118.08C2622.85 1118.02 2622.95 1117.99 2623.06 1117.99L2633.69 1117.95C2633.8 1117.95 2633.9 1117.99 2634 1118.04C2634.09 1118.1 2634.16 1118.19 2634.21 1118.29L2681.99 1223.81C2682.03 1223.9 2682.05 1224 2682.04 1224.09C2682.03 1224.19 2682 1224.28 2681.95 1224.36C2681.9 1224.44 2681.83 1224.51 2681.75 1224.55C2681.66 1224.6 2681.57 1224.62 2681.47 1224.62L2669.59 1224.59C2669.48 1224.59 2669.38 1224.56 2669.28 1224.5C2669.19 1224.44 2669.12 1224.35 2669.07 1224.26L2656.99 1196.97C2656.94 1196.88 2656.87 1196.79 2656.78 1196.73C2656.69 1196.67 2656.58 1196.64 2656.47 1196.64ZM2604.63 1185.17C2604.6 1185.25 2604.58 1185.34 2604.59 1185.43C2604.59 1185.53 2604.62 1185.61 2604.67 1185.69C2604.72 1185.77 2604.79 1185.83 2604.87 1185.87C2604.95 1185.92 2605.04 1185.94 2605.13 1185.94H2651.29C2651.38 1185.94 2651.47 1185.92 2651.55 1185.87C2651.63 1185.83 2651.7 1185.77 2651.75 1185.69C2651.79 1185.61 2651.82 1185.53 2651.83 1185.43C2651.84 1185.34 2651.82 1185.25 2651.79 1185.17L2628.71 1133.45C2628.66 1133.35 2628.59 1133.27 2628.5 1133.22C2628.42 1133.16 2628.31 1133.14 2628.21 1133.14C2628.11 1133.14 2628 1133.16 2627.92 1133.22C2627.83 1133.27 2627.76 1133.35 2627.71 1133.45L2604.63 1185.17Z" fill="#001DA1"/>
<path d="M1475.98 1170.48C1491.79 1175.06 1500.32 1187.75 1495.63 1203.94C1490.78 1220.73 1471.37 1224.66 1456.48 1224.6C1441.23 1224.55 1426.47 1224.57 1412.2 1224.64C1412.11 1224.64 1412.02 1224.62 1411.94 1224.59C1411.85 1224.55 1411.77 1224.5 1411.71 1224.44C1411.64 1224.38 1411.59 1224.3 1411.56 1224.22C1411.52 1224.14 1411.5 1224.05 1411.5 1223.96L1411.48 1119.33C1411.48 1119.26 1411.5 1119.18 1411.53 1119.11C1411.56 1119.04 1411.6 1118.97 1411.66 1118.92C1411.71 1118.86 1411.78 1118.82 1411.85 1118.79C1411.92 1118.76 1412 1118.74 1412.07 1118.74C1428 1118.66 1443.53 1118.67 1458.66 1118.78C1470.71 1118.87 1485.11 1124.19 1489.41 1136.47C1494.02 1149.64 1488.58 1162.87 1475.85 1169.12C1474.72 1169.68 1474.76 1170.14 1475.98 1170.48ZM1423.59 1130.31V1164.91C1423.59 1165.15 1423.68 1165.38 1423.85 1165.55C1424.02 1165.72 1424.25 1165.82 1424.49 1165.82H1457.07C1462.81 1165.82 1468.32 1164.04 1472.37 1160.88C1476.43 1157.72 1478.71 1153.43 1478.71 1148.96V1146.26C1478.71 1141.79 1476.43 1137.51 1472.37 1134.34C1468.32 1131.18 1462.81 1129.41 1457.07 1129.41H1424.49C1424.25 1129.41 1424.02 1129.5 1423.85 1129.67C1423.68 1129.84 1423.59 1130.07 1423.59 1130.31ZM1423.7 1176.98L1423.62 1213.24C1423.62 1213.37 1423.67 1213.49 1423.76 1213.58C1423.85 1213.67 1423.98 1213.72 1424.1 1213.72L1461.17 1213.79C1464.25 1213.8 1467.3 1213.36 1470.15 1212.5C1472.99 1211.63 1475.58 1210.36 1477.76 1208.76C1479.94 1207.16 1481.67 1205.26 1482.86 1203.16C1484.04 1201.07 1484.65 1198.82 1484.65 1196.55V1193.89C1484.66 1189.31 1482.2 1184.91 1477.81 1181.66C1473.42 1178.41 1467.46 1176.58 1461.24 1176.57L1424.18 1176.5C1424.05 1176.5 1423.93 1176.55 1423.84 1176.64C1423.75 1176.73 1423.7 1176.85 1423.7 1176.98Z" fill="#001DA1"/>
<path d="M1547.38 1118.69H1536.45C1536.14 1118.69 1535.88 1118.95 1535.88 1119.26V1224.03C1535.88 1224.35 1536.14 1224.61 1536.45 1224.61H1547.38C1547.69 1224.61 1547.95 1224.35 1547.95 1224.03V1119.26C1547.95 1118.95 1547.69 1118.69 1547.38 1118.69Z" fill="#001DA1"/>
<path d="M1605.33 1177.35V1212.84C1605.33 1212.91 1605.34 1212.99 1605.37 1213.06C1605.4 1213.13 1605.44 1213.19 1605.5 1213.24C1605.55 1213.3 1605.61 1213.34 1605.68 1213.37C1605.75 1213.4 1605.83 1213.41 1605.9 1213.41L1669.95 1213.45C1670.11 1213.45 1670.25 1213.51 1670.36 1213.62C1670.47 1213.72 1670.53 1213.87 1670.53 1214.02L1670.49 1224.02C1670.49 1224.17 1670.43 1224.31 1670.32 1224.42C1670.21 1224.53 1670.07 1224.59 1669.92 1224.59L1593.67 1224.61C1593.52 1224.61 1593.37 1224.55 1593.26 1224.44C1593.16 1224.33 1593.1 1224.19 1593.1 1224.04L1593.08 1119.28C1593.08 1119.13 1593.14 1118.99 1593.25 1118.88C1593.35 1118.77 1593.5 1118.71 1593.65 1118.71H1669.16C1669.31 1118.71 1669.46 1118.77 1669.57 1118.88C1669.67 1118.99 1669.73 1119.13 1669.73 1119.28L1669.7 1129.21C1669.7 1129.28 1669.68 1129.36 1669.65 1129.43C1669.62 1129.49 1669.58 1129.56 1669.53 1129.61C1669.48 1129.66 1669.41 1129.71 1669.34 1129.73C1669.27 1129.76 1669.2 1129.78 1669.12 1129.78H1605.9C1605.83 1129.78 1605.75 1129.79 1605.68 1129.82C1605.61 1129.85 1605.55 1129.89 1605.5 1129.95C1605.44 1130 1605.4 1130.06 1605.37 1130.13C1605.34 1130.2 1605.33 1130.28 1605.33 1130.35L1605.31 1165.1C1605.31 1165.18 1605.32 1165.25 1605.35 1165.32C1605.38 1165.39 1605.42 1165.45 1605.48 1165.51C1605.53 1165.56 1605.59 1165.6 1605.66 1165.63C1605.73 1165.66 1605.81 1165.67 1605.88 1165.67H1662.46C1662.62 1165.67 1662.76 1165.73 1662.87 1165.84C1662.98 1165.95 1663.04 1166.09 1663.04 1166.25L1662.96 1176.19C1662.96 1176.34 1662.9 1176.48 1662.79 1176.59C1662.69 1176.7 1662.54 1176.76 1662.39 1176.76L1605.9 1176.78C1605.83 1176.78 1605.75 1176.79 1605.68 1176.82C1605.61 1176.85 1605.55 1176.89 1605.5 1176.95C1605.44 1177 1605.4 1177.06 1605.37 1177.13C1605.34 1177.2 1605.33 1177.27 1605.33 1177.35Z" fill="#001DA1"/>
<path d="M1764.98 1182.77L1796.12 1224.18C1796.14 1224.21 1796.16 1224.24 1796.16 1224.28C1796.16 1224.31 1796.15 1224.35 1796.14 1224.38C1796.12 1224.41 1796.1 1224.44 1796.07 1224.46C1796.04 1224.48 1796.01 1224.49 1795.98 1224.5C1790.59 1224.67 1785.79 1224.64 1781.57 1224.42C1781.42 1224.42 1781.3 1224.36 1781.22 1224.24L1751.74 1184.74C1751.47 1184.4 1751.13 1184.11 1750.74 1183.92C1750.35 1183.72 1749.92 1183.62 1749.49 1183.62H1721.79C1721.13 1183.62 1720.8 1183.95 1720.8 1184.62L1720.78 1224.16C1720.78 1224.47 1720.63 1224.62 1720.32 1224.62L1709.36 1224.61C1708.93 1224.61 1708.71 1224.38 1708.71 1223.94L1708.7 1119.72C1708.7 1119.07 1709.02 1118.74 1709.67 1118.73C1726.95 1118.62 1742.67 1118.64 1756.81 1118.8C1776.73 1119 1793.5 1131.36 1792.4 1152.85C1791.59 1168.09 1780.09 1178.23 1765.7 1180.91C1764.46 1181.14 1764.22 1181.76 1764.98 1182.77ZM1720.69 1130.99L1720.76 1171.8C1720.76 1172.08 1720.87 1172.34 1721.07 1172.54C1721.27 1172.74 1721.53 1172.85 1721.81 1172.85L1755.35 1172.79C1758.64 1172.79 1761.9 1172.26 1764.93 1171.23C1767.97 1170.21 1770.73 1168.71 1773.05 1166.82C1775.37 1164.94 1777.21 1162.7 1778.46 1160.24C1779.72 1157.78 1780.36 1155.14 1780.35 1152.48V1150.09C1780.34 1144.72 1777.69 1139.57 1772.99 1135.78C1768.29 1132 1761.92 1129.88 1755.28 1129.89L1721.74 1129.94C1721.46 1129.94 1721.19 1130.05 1721 1130.25C1720.8 1130.45 1720.69 1130.72 1720.69 1130.99Z" fill="#001DA1"/>
<path d="M1843.97 1139.68L1844.02 1224.02C1844.02 1224.17 1843.96 1224.31 1843.85 1224.42C1843.75 1224.53 1843.6 1224.59 1843.45 1224.59L1832.71 1224.63C1832.56 1224.63 1832.42 1224.57 1832.31 1224.46C1832.2 1224.35 1832.14 1224.21 1832.14 1224.05V1119.3C1832.14 1119.15 1832.2 1119 1832.31 1118.9C1832.42 1118.79 1832.56 1118.73 1832.71 1118.73L1843.28 1118.71C1843.37 1118.71 1843.45 1118.73 1843.53 1118.77C1843.61 1118.81 1843.67 1118.86 1843.73 1118.93L1908.96 1201.92C1909.04 1202.01 1909.14 1202.08 1909.25 1202.11C1909.36 1202.14 1909.48 1202.14 1909.59 1202.1C1909.7 1202.06 1909.8 1201.99 1909.87 1201.89C1909.94 1201.8 1909.97 1201.69 1909.98 1201.57L1909.94 1119.28C1909.94 1119.13 1910 1118.99 1910.11 1118.88C1910.21 1118.77 1910.36 1118.71 1910.51 1118.71H1921.23C1921.38 1118.71 1921.53 1118.77 1921.63 1118.88C1921.74 1118.99 1921.8 1119.13 1921.8 1119.28V1224.07C1921.8 1224.22 1921.74 1224.37 1921.63 1224.48C1921.53 1224.58 1921.38 1224.64 1921.23 1224.64L1912.32 1224.55C1912.23 1224.55 1912.15 1224.53 1912.07 1224.49C1912 1224.45 1911.93 1224.4 1911.88 1224.33L1844.98 1139.31C1844.91 1139.22 1844.8 1139.16 1844.69 1139.13C1844.58 1139.09 1844.45 1139.1 1844.34 1139.14C1844.23 1139.18 1844.14 1139.25 1844.07 1139.35C1844 1139.45 1843.96 1139.57 1843.97 1139.68Z" fill="#001DA1"/>
<path d="M2168.16 1119.15C2168.16 1119.02 2168.21 1118.9 2168.3 1118.81C2168.39 1118.72 2168.52 1118.67 2168.64 1118.67H2207.04C2214.15 1118.67 2221.2 1120.01 2227.77 1122.61C2234.35 1125.22 2240.32 1129.03 2245.35 1133.84C2250.38 1138.64 2254.37 1144.35 2257.1 1150.63C2259.82 1156.92 2261.22 1163.65 2261.22 1170.45V1172.77C2261.22 1179.57 2259.82 1186.31 2257.1 1192.59C2254.37 1198.87 2250.38 1204.58 2245.35 1209.38C2240.32 1214.19 2234.35 1218.01 2227.77 1220.61C2221.2 1223.21 2214.15 1224.55 2207.04 1224.55H2168.64C2168.52 1224.55 2168.39 1224.5 2168.3 1224.41C2168.21 1224.32 2168.16 1224.2 2168.16 1224.07V1119.15ZM2180.38 1130.46L2180.23 1212.8C2180.23 1212.93 2180.28 1213.06 2180.38 1213.15C2180.47 1213.25 2180.6 1213.3 2180.73 1213.3L2206.93 1213.33C2212.38 1213.34 2217.79 1212.31 2222.84 1210.29C2227.88 1208.27 2232.47 1205.31 2236.34 1201.57C2240.21 1197.83 2243.28 1193.38 2245.37 1188.49C2247.47 1183.6 2248.55 1178.35 2248.56 1173.05V1170.43C2248.58 1159.73 2244.22 1149.45 2236.44 1141.87C2228.66 1134.29 2218.1 1130.02 2207.07 1130L2180.88 1129.96C2180.74 1129.96 2180.62 1130.01 2180.52 1130.11C2180.43 1130.2 2180.38 1130.33 2180.38 1130.46Z" fill="#001DA1"/>
<path d="M2312.71 1130.46V1164.97C2312.71 1165.16 2312.79 1165.34 2312.92 1165.47C2313.05 1165.6 2313.23 1165.67 2313.41 1165.67H2369.61C2369.79 1165.67 2369.97 1165.75 2370.1 1165.88C2370.24 1166.01 2370.31 1166.19 2370.31 1166.37L2370.27 1176.06C2370.27 1176.24 2370.2 1176.42 2370.07 1176.55C2369.94 1176.68 2369.76 1176.76 2369.57 1176.76L2313.41 1176.78C2313.23 1176.78 2313.05 1176.85 2312.92 1176.98C2312.79 1177.11 2312.71 1177.29 2312.71 1177.48V1212.73C2312.71 1212.91 2312.79 1213.09 2312.92 1213.22C2313.05 1213.35 2313.23 1213.43 2313.41 1213.43H2377.28C2377.47 1213.43 2377.65 1213.5 2377.78 1213.63C2377.91 1213.76 2377.98 1213.94 2377.98 1214.13L2377.97 1223.87C2377.97 1223.96 2377.95 1224.05 2377.91 1224.14C2377.88 1224.22 2377.83 1224.3 2377.76 1224.36C2377.7 1224.43 2377.62 1224.48 2377.53 1224.52C2377.45 1224.55 2377.36 1224.57 2377.26 1224.57L2301.33 1224.61C2301.14 1224.61 2300.96 1224.53 2300.83 1224.4C2300.7 1224.27 2300.63 1224.09 2300.63 1223.91L2300.61 1119.39C2300.61 1119.21 2300.68 1119.03 2300.81 1118.9C2300.95 1118.77 2301.12 1118.69 2301.31 1118.69L2376.45 1118.71C2376.64 1118.71 2376.82 1118.78 2376.95 1118.92C2377.08 1119.05 2377.15 1119.22 2377.15 1119.41L2377.17 1129.08C2377.17 1129.26 2377.1 1129.44 2376.97 1129.57C2376.84 1129.7 2376.66 1129.78 2376.47 1129.78L2313.41 1129.76C2313.23 1129.76 2313.05 1129.83 2312.92 1129.96C2312.79 1130.1 2312.71 1130.27 2312.71 1130.46Z" fill="#001DA1"/>
<path d="M2488.44 1213.28L2546.77 1213.3C2546.93 1213.3 2547.08 1213.36 2547.19 1213.47C2547.3 1213.58 2547.36 1213.73 2547.36 1213.89L2547.33 1224C2547.33 1224.15 2547.26 1224.3 2547.15 1224.41C2547.04 1224.53 2546.89 1224.59 2546.74 1224.59L2476.43 1224.61C2476.27 1224.61 2476.12 1224.54 2476.01 1224.43C2475.9 1224.32 2475.84 1224.17 2475.84 1224.02V1119.3C2475.84 1119.14 2475.9 1118.99 2476.01 1118.88C2476.12 1118.77 2476.27 1118.71 2476.43 1118.71L2487.26 1118.69C2487.41 1118.69 2487.56 1118.75 2487.67 1118.86C2487.78 1118.98 2487.85 1119.13 2487.85 1119.28V1212.69C2487.85 1212.85 2487.91 1213 2488.02 1213.11C2488.13 1213.22 2488.28 1213.28 2488.44 1213.28Z" fill="#001DA1"/>
<path d="M1767.96 1261.15C1773.8 1263.47 1778.18 1267.41 1781.09 1272.97C1781.96 1274.64 1781.65 1276.05 1780.15 1277.19L1753.07 1297.65C1752.23 1298.28 1751.33 1298.42 1750.36 1298.09C1747.6 1297.18 1745.58 1295.31 1744.3 1292.48C1744.13 1292.09 1744.06 1291.66 1744.1 1291.23C1744.13 1290.81 1744.28 1290.4 1744.53 1290.05L1763.53 1262.49C1764 1261.8 1764.7 1261.29 1765.51 1261.04C1766.31 1260.8 1767.17 1260.83 1767.96 1261.15Z" fill="#001DA1"/>
<path d="M2400.12 1466.83C2342.91 1462.46 2307.51 1419.45 2326.44 1362.69C2341.25 1318.24 2387.01 1304.47 2429.55 1314.47C2434.42 1315.62 2448.86 1319.82 2446.78 1327.02C2445.46 1331.57 2443.93 1335.72 2442.17 1339.48C2440.05 1344.02 2436.64 1344.93 2431.95 1342.2C2413.92 1331.74 2397.65 1325.45 2376.32 1330.46C2356.66 1335.08 2347.17 1352.01 2345.59 1371.51C2343.47 1397.66 2352.51 1422.82 2375.36 1436.42C2398.22 1450.01 2421.76 1448.48 2444.49 1436.62C2445.16 1436.28 2445.81 1436.29 2446.45 1436.67C2448.03 1437.65 2449.14 1438.95 2449.77 1440.59C2450.01 1441.2 2449.95 1441.78 2449.57 1442.34C2442.35 1452.67 2427.41 1460.03 2414.83 1464.71C2409.99 1466.51 2405.09 1467.21 2400.12 1466.83Z" fill="#001DA1"/>
<path d="M2525.67 1428.21C2520.98 1438.26 2514.31 1453.99 2532.74 1455.77C2535 1455.97 2536.05 1457.21 2535.89 1459.47L2535.82 1460.52C2535.68 1462.6 2534.57 1463.64 2532.48 1463.64L2487.92 1463.62C2487.53 1463.62 2487.14 1463.52 2486.8 1463.32C2486.47 1463.12 2486.19 1462.83 2486.01 1462.48C2485.23 1461.04 2485.04 1459.52 2485.43 1457.92C2485.65 1457.05 2486.2 1456.52 2487.08 1456.32C2495.35 1454.4 2501.27 1449.46 2504.84 1441.49C2520.15 1407.25 2535.15 1372.87 2549.82 1338.34C2552.86 1331.18 2554.65 1323.95 2555.21 1316.65C2555.27 1315.85 2555.68 1315.33 2556.44 1315.08C2560.77 1313.64 2565.21 1312.73 2569.74 1312.33C2570 1312.31 2570.25 1312.37 2570.47 1312.5C2570.69 1312.63 2570.86 1312.82 2570.96 1313.05C2588.21 1353.07 2605.58 1393.57 2623.1 1434.55C2627.07 1443.81 2631.88 1454.07 2642.95 1455.97C2644.86 1456.3 2645.77 1457.43 2645.68 1459.36L2645.62 1460.69C2645.53 1462.66 2644.5 1463.64 2642.54 1463.64L2587.86 1463.62C2587.26 1463.62 2586.68 1463.42 2586.2 1463.06C2585.73 1462.69 2585.39 1462.17 2585.24 1461.59C2584.63 1459.23 2584.91 1456.06 2587.97 1455.75C2604.76 1453.96 2596.62 1435.44 2591.96 1427.18C2590.48 1424.54 2588.12 1423.21 2584.87 1423.17C2567.9 1422.98 2550.8 1422.98 2533.58 1423.19C2529.85 1423.23 2527.21 1424.9 2525.67 1428.21ZM2558.99 1349.41L2534.3 1407.9C2534.16 1408.23 2534.11 1408.6 2534.14 1408.96C2534.18 1409.32 2534.3 1409.66 2534.5 1409.97C2534.7 1410.27 2534.98 1410.51 2535.3 1410.68C2535.61 1410.85 2535.97 1410.94 2536.33 1410.94L2581.85 1410.98C2582.24 1410.98 2582.63 1410.89 2582.97 1410.71C2583.32 1410.52 2583.61 1410.26 2583.83 1409.93C2584.05 1409.61 2584.18 1409.23 2584.22 1408.84C2584.26 1408.45 2584.2 1408.06 2584.04 1407.7L2559.69 1349.41C2559.66 1349.34 2559.61 1349.29 2559.55 1349.25C2559.49 1349.21 2559.41 1349.19 2559.34 1349.19C2559.27 1349.19 2559.19 1349.21 2559.13 1349.25C2559.07 1349.29 2559.02 1349.34 2558.99 1349.41Z" fill="#001DA1"/>
<path d="M1242.84 1391.17C1239.18 1391.45 1239.15 1391.91 1242.77 1392.55C1249.56 1393.75 1255.4 1397.34 1260.3 1403.34C1272.88 1418.78 1285.02 1433.9 1296.73 1448.72C1300.95 1454.06 1306.38 1457.19 1313.02 1458.13C1313.71 1458.23 1314.14 1458.61 1314.31 1459.29C1314.66 1460.72 1314.5 1462.11 1313.85 1463.46C1313.56 1464.05 1313.09 1464.44 1312.45 1464.62C1300.24 1468.28 1289.12 1467.23 1279.11 1461.47C1274.64 1458.88 1268.68 1452.61 1261.24 1442.65C1252.91 1431.51 1243.83 1419.9 1233.99 1407.83C1225.98 1397.99 1214.21 1396.37 1202.18 1396.08C1201.59 1396.06 1201.3 1396.35 1201.3 1396.94C1201.26 1410.11 1201.27 1423.88 1201.31 1438.24C1201.37 1451.39 1212.73 1455.07 1223.86 1455.84C1225.35 1455.95 1225.97 1456.74 1225.74 1458.2L1225.22 1461.65C1225.01 1462.98 1224.24 1463.64 1222.9 1463.64L1159.97 1463.62C1159.44 1463.62 1158.92 1463.44 1158.51 1463.1C1158.1 1462.76 1157.83 1462.28 1157.74 1461.76L1157.13 1458.31C1156.87 1456.87 1157.46 1456.07 1158.9 1455.91C1169.99 1454.65 1175.55 1448.64 1175.58 1437.89C1175.64 1405.77 1175.66 1373.89 1175.63 1342.23C1175.61 1329.14 1169.19 1325.78 1158.46 1321.94C1157.62 1321.64 1157.19 1321.03 1157.17 1320.14C1157.12 1318.67 1157.33 1317.26 1157.79 1315.91C1158.13 1314.92 1158.81 1314.47 1159.86 1314.56C1181.56 1316.56 1202.97 1315.04 1224.54 1314.45C1252.64 1313.7 1280.92 1326.17 1277.4 1359.52C1275.55 1377.02 1259.7 1389.88 1242.84 1391.17ZM1250.52 1365.2C1253.47 1340.22 1238.34 1323.55 1213.32 1325.98C1206 1326.68 1201.57 1331.55 1201.46 1338.88C1201.23 1353.41 1201.19 1368.83 1201.35 1385.14C1201.35 1385.84 1201.71 1386.19 1202.42 1386.19C1208.83 1386.2 1215.4 1385.98 1222.14 1385.53C1235.48 1384.66 1248.69 1380.62 1250.52 1365.2Z" fill="#001DA1"/>
<path d="M1347.98 1455.95C1359.22 1453.52 1369.13 1450.03 1369.18 1436.58C1369.28 1403.91 1369.27 1371.88 1369.16 1340.48C1369.13 1329.4 1361.71 1324.29 1351.78 1321.96C1351 1321.78 1350.58 1321.28 1350.53 1320.47C1350.44 1318.84 1350.63 1317.35 1351.1 1315.99C1351.41 1315.1 1352.02 1314.68 1352.95 1314.71C1386.65 1316.11 1421.68 1316.01 1458.05 1314.4C1462.08 1314.21 1463.72 1316.13 1462.96 1320.14C1461.75 1326.47 1459.89 1334.12 1457.37 1343.1C1457.14 1343.89 1456.66 1344.47 1455.93 1344.85C1454.46 1345.59 1453.02 1345.47 1451.59 1344.48C1450.99 1344.08 1450.58 1343.52 1450.37 1342.81C1448.2 1335.34 1443.24 1330.7 1435.5 1328.88C1426.44 1326.75 1416.7 1326.23 1406.3 1327.33C1399.47 1328.05 1395.05 1332.51 1394.95 1339.47C1394.77 1351.87 1394.74 1364.18 1394.88 1376.38C1394.93 1380.42 1397 1382.48 1401.1 1382.54C1417.13 1382.78 1434.62 1382.72 1447.5 1372.85C1448.34 1372.21 1449.39 1371.88 1450.47 1371.93C1451.77 1371.98 1452.43 1372.64 1452.44 1373.9C1452.44 1374.75 1452.27 1375.55 1451.94 1376.3C1448.26 1384.59 1444.18 1393.62 1439.67 1403.4C1438.33 1406.31 1435.14 1405.82 1433.42 1403.64C1425.87 1394.07 1412.06 1392.92 1400.32 1393.49C1396.74 1393.67 1394.93 1395.55 1394.88 1399.14C1394.73 1411.56 1394.76 1424.3 1394.97 1437.36C1395.14 1447.24 1401.3 1450.69 1410.04 1451.47C1431.61 1453.37 1454.32 1448.41 1466.87 1429.78C1468.56 1427.23 1472 1427.64 1473.9 1429.54C1474.18 1429.81 1474.4 1430.15 1474.53 1430.52C1474.66 1430.9 1474.71 1431.3 1474.67 1431.69C1473.58 1443.84 1469.12 1453.42 1461.31 1460.41C1457.64 1463.72 1453.45 1464.1 1448.77 1463.86C1415.47 1462.19 1382.14 1462.15 1348.76 1463.73C1347.64 1463.78 1347 1463.25 1346.86 1462.13L1346.36 1458.27C1346.19 1457 1346.73 1456.22 1347.98 1455.95Z" fill="#001DA1"/>
<path d="M1559.39 1408.16C1559.42 1417.73 1559.42 1427.47 1559.39 1437.39C1559.33 1451.27 1570.46 1455.08 1582.01 1455.86C1583.52 1455.96 1584.16 1456.75 1583.92 1458.24L1583.41 1461.52C1583.17 1462.94 1582.34 1463.64 1580.92 1463.64L1518.34 1463.62C1516.88 1463.62 1516.03 1462.9 1515.79 1461.45L1515.26 1458.07C1515.22 1457.84 1515.23 1457.61 1515.28 1457.38C1515.33 1457.16 1515.43 1456.94 1515.56 1456.75C1515.7 1456.56 1515.87 1456.4 1516.07 1456.28C1516.27 1456.16 1516.49 1456.08 1516.72 1456.04C1528.58 1454.14 1533.74 1448.78 1533.73 1436.79C1533.66 1402.35 1533.65 1370.62 1533.67 1341.57C1533.67 1329.95 1526.77 1324.54 1516.73 1322.05C1515.44 1321.72 1514.91 1320.9 1515.15 1319.6L1515.79 1316.11C1515.88 1315.62 1516.16 1315.19 1516.56 1314.89C1516.96 1314.59 1517.46 1314.46 1517.95 1314.51C1538.56 1316.78 1559.54 1315.38 1580.42 1314.51C1606.69 1313.4 1638.22 1323.01 1641.28 1353.54C1646.28 1402.99 1597.61 1412.2 1560.88 1406.85C1559.89 1406.71 1559.39 1407.15 1559.39 1408.16ZM1611.17 1348.21C1605.09 1331.24 1587.1 1323.31 1569.98 1326.3C1563.15 1327.49 1559.68 1331.63 1559.57 1338.73C1559.36 1353.44 1559.32 1372.18 1559.44 1394.97C1559.44 1395.72 1559.82 1396.15 1560.57 1396.26C1577.84 1398.77 1605.42 1399.62 1612.11 1378.2C1615.16 1368.44 1614.85 1358.44 1611.17 1348.21Z" fill="#001DA1"/>
<path d="M1972.57 1382.04C1972.55 1382.11 1972.55 1382.18 1972.57 1382.25C1972.58 1382.32 1972.61 1382.38 1972.65 1382.44C1972.69 1382.5 1972.75 1382.54 1972.81 1382.57C1972.87 1382.61 1972.94 1382.63 1973.01 1382.63C1992.88 1383.05 2009.17 1396.83 2010.85 1417.07C2013.65 1450.69 1979.28 1464.81 1951.57 1463.92C1928.27 1463.16 1904.77 1461.85 1881.01 1463.9C1879.73 1464.01 1878.98 1463.44 1878.78 1462.19L1878.15 1458.63C1877.9 1457.17 1878.49 1456.29 1879.92 1455.97C1892.21 1453.15 1900.95 1449.96 1900.97 1435.13C1901.01 1403.62 1901.01 1372.35 1900.97 1341.31C1900.95 1329.52 1894.01 1324.49 1883.87 1322.05C1882.6 1321.76 1882.05 1320.96 1882.23 1319.66L1882.65 1316.47C1882.73 1315.9 1883.02 1315.38 1883.47 1315.03C1883.92 1314.67 1884.49 1314.5 1885.07 1314.55C1907.22 1316.59 1928.51 1315.03 1949.78 1314.6C1969.4 1314.2 1993.64 1321.65 1998.18 1342.77C2002.09 1360.94 1991.46 1376.49 1973.45 1381.15C1973.27 1381.2 1973.11 1381.28 1972.98 1381.39C1972.77 1381.57 1972.63 1381.78 1972.57 1382.04ZM1972.11 1359.72C1975.06 1336.57 1958.95 1323.92 1937.24 1325.95C1930.58 1326.57 1926.93 1331.11 1926.82 1337.59C1926.59 1351.42 1926.55 1364.82 1926.69 1377.8C1926.7 1378.55 1927.09 1378.92 1927.85 1378.9C1934.92 1378.78 1941.86 1378.74 1948.66 1378.77C1962.67 1378.85 1970.48 1372.5 1972.11 1359.72ZM1979.03 1406.44C1969.36 1387.09 1945.8 1389.42 1927.76 1389.75C1927.04 1389.76 1926.68 1390.13 1926.67 1390.86C1926.62 1407.19 1926.61 1422.39 1926.63 1436.45C1926.65 1455.38 1950.97 1453.89 1964.14 1451.45C1986.04 1447.41 1986.87 1422.16 1979.03 1406.44Z" fill="#001DA1"/>
<path d="M1840.64 1322.4C1830.57 1323.36 1824.18 1329.36 1824.16 1339.12C1824.13 1361.18 1824.09 1384.14 1824.05 1408.01C1824.02 1438.52 1808.08 1460.32 1777.86 1465.8C1747.31 1471.37 1713.32 1458.35 1704.03 1427.05C1702.06 1420.39 1701.15 1411.44 1701.3 1400.19C1701.58 1379.08 1701.55 1358.83 1701.22 1339.45C1701.02 1327.42 1694.41 1324.43 1684.56 1322.2C1683.85 1322.04 1683.47 1321.6 1683.44 1320.87C1683.34 1318.93 1683.73 1317.18 1684.62 1315.62C1684.74 1315.4 1684.92 1315.22 1685.14 1315.09C1685.36 1314.96 1685.6 1314.9 1685.85 1314.9L1742.58 1314.88C1744.1 1314.88 1744.99 1315.62 1745.26 1317.11L1745.74 1319.8C1746.03 1321.49 1745.33 1322.42 1743.62 1322.59C1733.25 1323.59 1728.03 1329.7 1727.95 1340.92C1727.81 1363.24 1727.8 1385.81 1727.94 1408.64C1728.06 1432.97 1740.19 1451.84 1766.44 1452.24C1784.37 1452.52 1799.39 1444.85 1805.94 1427.71C1808.11 1422 1809.15 1413.05 1809.05 1400.85C1808.87 1378.07 1808.79 1357.75 1808.82 1339.89C1808.83 1328.73 1801.88 1324.05 1791.6 1322.42C1790.32 1322.23 1789.79 1321.49 1790 1320.21L1790.57 1316.71C1790.66 1316.2 1790.92 1315.73 1791.32 1315.4C1791.71 1315.06 1792.21 1314.88 1792.73 1314.88L1839.29 1314.9C1840.22 1314.9 1840.83 1315.33 1841.14 1316.19C1841.75 1317.96 1841.89 1319.75 1841.56 1321.56C1841.53 1321.78 1841.42 1321.98 1841.25 1322.14C1841.08 1322.29 1840.87 1322.38 1840.64 1322.4Z" fill="#001DA1"/>
<path d="M2073.27 1340.13C2073.23 1329.14 2066.7 1323.66 2056.7 1322.53C2055.06 1322.35 2054.39 1321.44 2054.67 1319.8L2055.19 1316.93C2055.42 1315.57 2056.22 1314.9 2057.6 1314.9L2114.66 1314.88C2115.78 1314.88 2116.42 1315.43 2116.58 1316.54L2117.14 1320.23C2117.33 1321.63 2116.73 1322.38 2115.33 1322.48C2105.44 1323.2 2099.09 1329.58 2099.08 1339.84C2099.03 1371.29 2099.03 1403.61 2099.08 1436.8C2099.09 1444.86 2102.83 1449.54 2110.29 1450.84C2131.8 1454.6 2158.09 1449.14 2170.95 1429.83C2172.28 1427.84 2174.49 1427.6 2176.62 1428.47C2177.31 1428.76 2177.89 1429.26 2178.28 1429.9C2178.67 1430.55 2178.84 1431.3 2178.77 1432.05C2177.79 1443.26 2173.63 1452.5 2166.3 1459.77C2162.48 1463.55 2157.74 1464.14 2152.58 1463.88C2119.11 1462.17 2086 1462.12 2053.25 1463.72C2051.86 1463.79 2051.08 1463.14 2050.92 1461.76L2050.52 1458.29C2050.36 1456.93 2050.95 1456.12 2052.31 1455.86C2066.22 1453.24 2073.2 1447.22 2073.27 1437.8C2073.44 1407.61 2073.44 1375.05 2073.27 1340.13Z" fill="#001DA1"/>
<path d="M2233.66 1344.54C2233.64 1331.65 2230.89 1324.64 2217.08 1322.46C2215.54 1322.21 2214.91 1321.32 2215.18 1319.79L2215.64 1317.15C2215.91 1315.64 2216.81 1314.88 2218.35 1314.88L2275.1 1314.9C2275.45 1314.9 2275.8 1315 2276.1 1315.2C2276.4 1315.4 2276.63 1315.68 2276.78 1316C2277.45 1317.58 2277.74 1319.24 2277.63 1321C2277.59 1321.78 2277.18 1322.21 2276.41 1322.29C2266.17 1323.46 2259.34 1328.93 2259.36 1339.96C2259.45 1371.48 2259.45 1403.47 2259.38 1435.92C2259.34 1449.29 2263.75 1453.53 2276.32 1456.08C2277.18 1456.25 2277.63 1456.77 2277.66 1457.65C2277.74 1459.59 2277.36 1461.31 2276.54 1462.79C2276.22 1463.36 2275.74 1463.64 2275.1 1463.64L2217.96 1463.62C2217.43 1463.62 2216.93 1463.44 2216.52 1463.1C2216.12 1462.77 2215.84 1462.3 2215.75 1461.78L2215.12 1458.18C2215.08 1457.94 2215.09 1457.7 2215.14 1457.46C2215.2 1457.22 2215.3 1457 2215.44 1456.8C2215.59 1456.6 2215.77 1456.44 2215.98 1456.31C2216.19 1456.18 2216.43 1456.1 2216.67 1456.06C2227.95 1454.39 2233.6 1448.46 2233.62 1438.26C2233.71 1407.43 2233.72 1376.19 2233.66 1344.54Z" fill="#001DA1"/>
<path d="M1373.5 1644.48C1354.14 1729.61 1227.9 1721.33 1222.03 1633.42C1219.32 1592.76 1242.99 1557.95 1283.61 1549.97C1302.01 1546.35 1323.37 1549.53 1339.57 1559.26C1369.07 1577.03 1381.04 1611.28 1373.5 1644.48ZM1346.54 1612.17C1339.57 1587.47 1318.37 1563.16 1290.57 1563.27C1269.7 1563.34 1253.54 1577.53 1249.37 1597.85C1244.75 1620.48 1248.46 1641.65 1260.5 1661.36C1273.34 1682.37 1300.03 1696.32 1323.89 1685.76C1351.54 1673.54 1353.92 1638.3 1346.54 1612.17Z" fill="#001DA1"/>
<path d="M2086.95 1601.12C2081.99 1629.54 2090.53 1658.8 2115.95 1673.72C2127.66 1680.58 2139.49 1683.75 2151.43 1683.24C2161.72 1682.79 2172.9 1679.61 2184.97 1673.68C2185.52 1673.41 2186.07 1673.42 2186.61 1673.72C2188.42 1674.7 2189.54 1676.12 2189.97 1677.96C2190.13 1678.65 2190 1679.28 2189.58 1679.84C2182.04 1690.17 2166.63 1697.7 2154.12 1702.11C2149.49 1703.74 2144.58 1704.34 2139.4 1703.91C2093.59 1700.06 2058.13 1670.99 2062.17 1621.63C2067.14 1560.63 2123.48 1536.61 2177.04 1553.77C2180.91 1555.02 2188.64 1558.97 2187.11 1564.02C2185.85 1568.17 2184.46 1572.05 2182.92 1575.66C2180.62 1581.1 2176.88 1582.23 2171.7 1579.07C2165.53 1575.31 2159.86 1572.43 2154.69 1570.42C2126.25 1559.32 2092.87 1567.07 2086.95 1601.12Z" fill="#001DA1"/>
<path d="M1454.84 1603.94C1454.28 1602.88 1453.98 1602.95 1453.91 1604.14C1452.96 1624.94 1452.01 1646.22 1451.09 1668C1450.59 1679.51 1450.32 1691.26 1465.11 1693.14C1465.35 1693.17 1465.57 1693.25 1465.77 1693.37C1465.97 1693.49 1466.15 1693.65 1466.29 1693.84C1466.42 1694.03 1466.52 1694.25 1466.57 1694.48C1466.63 1694.7 1466.63 1694.94 1466.59 1695.17L1465.91 1698.73C1465.66 1700.01 1464.89 1700.65 1463.58 1700.65L1421.35 1700.63C1420.76 1700.63 1420.18 1700.42 1419.72 1700.03C1419.27 1699.65 1418.97 1699.11 1418.88 1698.53L1418.4 1695.61C1418.15 1694.02 1418.84 1693.12 1420.45 1692.94C1430.68 1691.85 1436.09 1686.1 1436.68 1675.71C1439.04 1634.48 1441.33 1593.67 1443.55 1553.27C1443.67 1551.15 1444.78 1549.97 1446.87 1549.71C1450.3 1549.29 1453.05 1550.23 1454.71 1553.36C1475.19 1591.61 1495.34 1629.27 1515.18 1666.36C1515.22 1666.44 1515.28 1666.5 1515.36 1666.55C1515.43 1666.59 1515.52 1666.62 1515.61 1666.62C1515.69 1666.62 1515.78 1666.59 1515.86 1666.55C1515.93 1666.5 1515.99 1666.44 1516.03 1666.36C1534.52 1629.19 1553.34 1591.29 1572.49 1552.66C1574.18 1549.23 1579.03 1549.17 1582.12 1550.41C1582.39 1550.52 1582.64 1550.7 1582.83 1550.94C1583.02 1551.17 1583.15 1551.44 1583.2 1551.74C1583.39 1552.73 1583.51 1553.8 1583.57 1554.93C1585.59 1591.53 1587.85 1631.81 1590.34 1675.79C1590.91 1685.91 1596.36 1691.69 1606.69 1693.12C1608.13 1693.33 1608.72 1694.15 1608.46 1695.58L1607.89 1698.75C1607.65 1700.02 1606.89 1700.65 1605.6 1700.65L1551.64 1700.63C1550.51 1700.63 1549.86 1700.07 1549.7 1698.95L1549.13 1695.15C1549.06 1694.66 1549.18 1694.16 1549.48 1693.76C1549.77 1693.36 1550.21 1693.1 1550.7 1693.01C1560.54 1691.39 1565.14 1685.08 1564.52 1674.09C1563.22 1651.3 1561.94 1628.55 1560.66 1605.82C1560.56 1604.15 1560.15 1604.07 1559.42 1605.58C1549.41 1626.18 1538.57 1648.28 1526.9 1671.87C1523.06 1679.65 1519.93 1687.54 1517.51 1695.54C1517.21 1696.5 1516.53 1697.16 1515.46 1697.53C1510.59 1699.17 1505.46 1699.89 1502.66 1694.6C1486.53 1664.09 1470.59 1633.87 1454.84 1603.94Z" fill="#001DA1"/>
<path d="M2331.95 1663.76C2330.4 1660.99 2326.55 1660.16 2323.69 1660.16C2307.38 1660.12 2291.37 1660.1 2275.66 1660.09C2271.42 1660.09 2267.81 1661.21 2265.94 1665.23C2263.2 1671.16 2261.51 1676.48 2260.89 1681.21C2259.76 1689.67 2266.72 1692.13 2273.43 1693.07C2275.36 1693.34 2276.27 1694.44 2276.16 1696.39L2276.09 1697.75C2275.99 1699.67 2274.98 1700.63 2273.06 1700.63H2228.55C2226.7 1700.63 2225.74 1699.71 2225.65 1697.86L2225.56 1696C2225.53 1695.31 2225.75 1694.64 2226.18 1694.1C2226.61 1693.56 2227.22 1693.2 2227.9 1693.09C2239.8 1691.11 2244.82 1680.16 2249.19 1670.01C2261.77 1640.8 2274.49 1611.59 2287.34 1582.36C2291.96 1571.88 2294.72 1562.36 2295.65 1553.78C2295.74 1552.87 2296.22 1552.28 2297.08 1552C2301.22 1550.68 2305.35 1549.84 2309.48 1549.47C2310.47 1549.38 2311.15 1549.79 2311.55 1550.7C2326.98 1586.64 2343.67 1625.63 2361.62 1667.69C2366.34 1678.77 2370.9 1690.96 2383.65 1693.2C2385.29 1693.48 2386.08 1694.45 2385.99 1696.11L2385.9 1697.75C2385.8 1699.68 2384.78 1700.65 2382.85 1700.65L2327.76 1700.63C2326.94 1700.63 2326.34 1700.26 2325.98 1699.52C2325.3 1698.18 2325.13 1696.68 2325.48 1695C2325.67 1694.07 2326.23 1693.49 2327.16 1693.25C2330.13 1692.48 2332.97 1691.98 2335.4 1689.93C2342.27 1684.2 2335.55 1670.08 2331.95 1663.76ZM2299.24 1586.53L2274.48 1645.2C2273.97 1646.44 2274.36 1647.22 2275.66 1647.53C2276.97 1647.84 2278.27 1648.01 2279.58 1648.02C2295.13 1648.21 2309.5 1648.17 2322.67 1647.91C2322.92 1647.91 2323.16 1647.85 2323.38 1647.75C2323.61 1647.64 2323.81 1647.49 2323.98 1647.3C2324.6 1646.59 2324.77 1645.91 2324.5 1645.27C2316.28 1625.59 2308.11 1606 2299.98 1586.53C2299.95 1586.45 2299.9 1586.39 2299.83 1586.35C2299.77 1586.31 2299.69 1586.29 2299.61 1586.29C2299.53 1586.29 2299.46 1586.31 2299.39 1586.35C2299.33 1586.39 2299.28 1586.45 2299.24 1586.53Z" fill="#001DA1"/>
<path d="M2719.22 1693.22C2723.37 1692.33 2728.18 1690.95 2729.73 1686.49C2731.91 1680.23 2727.28 1670.16 2724.27 1664.42C2722.57 1661.2 2719.01 1660.14 2715.56 1660.14C2698.44 1660.08 2681.94 1660.1 2666.05 1660.18C2662.02 1660.2 2659.09 1662.14 2657.5 1665.79C2655.38 1670.71 2653.86 1675.29 2652.97 1679.53C2650.88 1689.38 2658 1692 2665.95 1693.24C2666.44 1693.31 2666.88 1693.53 2667.24 1693.86C2667.6 1694.2 2667.85 1694.62 2667.96 1695.1C2668.35 1696.76 2668.09 1698.27 2667.21 1699.64C2666.77 1700.31 2666.14 1700.65 2665.33 1700.65L2619.85 1700.63C2619.03 1700.63 2618.44 1700.26 2618.08 1699.51C2617.32 1697.92 2617.19 1696.31 2617.69 1694.68C2617.97 1693.78 2618.58 1693.26 2619.52 1693.13C2628.69 1691.83 2634.41 1684.75 2638.13 1676.32C2656.35 1635.11 2671.22 1600.84 2682.74 1573.51C2685.28 1567.5 2686.83 1560.78 2687.39 1553.34C2687.42 1553.01 2687.55 1552.69 2687.78 1552.43C2688 1552.18 2688.3 1552 2688.63 1551.92L2701.14 1549.25C2702.16 1549.03 2702.87 1549.4 2703.28 1550.36C2721.04 1591.86 2739.04 1633.8 2757.28 1676.19C2760.58 1683.87 2766.15 1691.85 2775.34 1693.05C2777.17 1693.3 2778.03 1694.34 2777.92 1696.19L2777.83 1697.81C2777.7 1699.69 2776.7 1700.63 2774.82 1700.63H2719.73C2718.7 1700.63 2717.99 1700.16 2717.61 1699.21C2717.11 1697.97 2717 1696.62 2717.3 1695.15C2717.52 1694.1 2718.16 1693.45 2719.22 1693.22ZM2690.84 1587.17L2666.47 1645.02C2665.89 1646.38 2666.32 1647.24 2667.76 1647.58C2669.08 1647.89 2670.42 1648.05 2671.78 1648.06C2687.18 1648.17 2701.3 1648.14 2714.14 1647.97C2714.44 1647.96 2714.74 1647.9 2715.02 1647.77C2715.29 1647.64 2715.54 1647.46 2715.74 1647.23C2715.94 1647 2716.09 1646.74 2716.18 1646.45C2716.27 1646.16 2716.3 1645.86 2716.26 1645.55C2716.2 1645.05 2716.07 1644.56 2715.88 1644.1C2707.93 1625.01 2700 1606.04 2692.1 1587.17C2691.68 1586.18 2691.26 1586.18 2690.84 1587.17Z" fill="#001DA1"/>
<path d="M1044.52 1578.34C1044.5 1566.14 1037.36 1561.74 1027.12 1559.08C1026.35 1558.88 1025.94 1558.38 1025.89 1557.59C1025.78 1556.15 1025.93 1554.64 1026.35 1553.07C1026.45 1552.67 1026.69 1552.31 1027.03 1552.07C1027.36 1551.83 1027.78 1551.71 1028.19 1551.74C1047.86 1553.08 1067.59 1553.07 1087.38 1551.72C1123.37 1549.28 1158.87 1561.57 1171.43 1596.89C1176.15 1610.2 1177.12 1624.2 1174.33 1638.91C1169.44 1664.55 1155.59 1682.8 1132.76 1693.66C1118.33 1700.54 1101.51 1701.77 1085.09 1700.76C1063.77 1699.46 1043.49 1699.53 1024.23 1700.98C1023.75 1701.02 1023.28 1700.88 1022.91 1700.58C1022.54 1700.28 1022.3 1699.85 1022.23 1699.38L1021.7 1695.34C1021.63 1694.82 1021.76 1694.3 1022.06 1693.87C1022.36 1693.44 1022.81 1693.14 1023.32 1693.03C1034.43 1690.63 1044.48 1687.24 1044.5 1673.41C1044.55 1641.26 1044.56 1609.57 1044.52 1578.34ZM1149.05 1649.26C1155.34 1606.72 1133.61 1557.66 1082.78 1563.52C1068.76 1565.15 1069.94 1576.75 1070.02 1587.17C1070.21 1615.27 1070.19 1642.55 1069.94 1669C1069.91 1672.86 1070.43 1676.24 1071.51 1679.14C1076.23 1691.76 1101.56 1690.38 1112.01 1688.49C1133.41 1684.61 1145.76 1671.53 1149.05 1649.26Z" fill="#001DA1"/>
<path d="M1667.71 1580.9C1667.74 1568.76 1664.09 1561.14 1651.14 1559.67C1649.64 1559.5 1648.99 1558.67 1649.18 1557.18L1649.63 1554.02C1649.71 1553.42 1650 1552.87 1650.46 1552.47C1650.92 1552.07 1651.51 1551.85 1652.12 1551.85L1708.44 1551.87C1709.97 1551.87 1710.87 1552.62 1711.15 1554.12L1711.67 1556.75C1712 1558.5 1711.29 1559.48 1709.53 1559.69C1696.08 1561.25 1693 1569.44 1693.07 1581.4C1693.22 1612.05 1693.23 1642.19 1693.11 1671.8C1693.07 1684.91 1696.98 1691.15 1710.32 1693.22C1711.16 1693.34 1711.6 1693.82 1711.63 1694.67C1711.69 1696.46 1711.37 1698.08 1710.67 1699.56C1710.32 1700.29 1709.74 1700.65 1708.94 1700.65L1652.08 1700.63C1650.58 1700.62 1649.74 1699.87 1649.55 1698.4L1649.2 1695.59C1649.02 1694.13 1649.66 1693.28 1651.12 1693.05C1662.72 1691.2 1667.71 1685.26 1667.69 1673.63C1667.65 1644.03 1667.66 1613.12 1667.71 1580.9Z" fill="#001DA1"/>
<path d="M1784.26 1594.86C1784.32 1620.33 1784.3 1646.23 1784.2 1672.56C1784.13 1687.31 1791.95 1689.95 1804.52 1693.22C1804.83 1693.3 1805.11 1693.47 1805.32 1693.71C1805.53 1693.95 1805.66 1694.25 1805.7 1694.56C1805.96 1696.62 1805.61 1698.39 1804.65 1699.89C1804.33 1700.4 1803.87 1700.65 1803.28 1700.65L1753.71 1700.61C1752.86 1700.61 1752.26 1700.23 1751.9 1699.45C1751.34 1698.18 1751.06 1696.75 1751.07 1695.15C1751.08 1694.72 1751.21 1694.3 1751.46 1693.94C1751.71 1693.59 1752.07 1693.31 1752.47 1693.16C1759.83 1690.38 1766.36 1688.96 1768.67 1680.71C1769.13 1679.12 1769.37 1674.59 1769.39 1667.1C1769.46 1639.38 1769.42 1612.3 1769.26 1585.86C1769.2 1575.02 1765.58 1565.66 1758.39 1557.81C1757.98 1557.34 1757.8 1556.79 1757.86 1556.17C1758.13 1553.35 1759.8 1551.92 1762.88 1551.89C1768.41 1551.8 1773.74 1551.82 1778.85 1551.96C1779.61 1551.98 1780.36 1552.14 1781.06 1552.45C1781.75 1552.76 1782.37 1553.2 1782.89 1553.75L1880.62 1657.1C1881.37 1657.91 1881.75 1657.76 1881.76 1656.66C1881.81 1630.89 1881.81 1604.68 1881.74 1578.01C1881.71 1564.72 1872.48 1562.16 1861.54 1559.47C1860.77 1559.27 1860.34 1558.77 1860.27 1557.97C1860.17 1556.58 1860.32 1555.19 1860.71 1553.8C1861.08 1552.51 1861.94 1551.87 1863.3 1551.87H1912.24C1913.04 1551.87 1913.61 1552.23 1913.96 1552.96C1914.68 1554.55 1914.95 1556.24 1914.75 1558.01C1914.71 1558.34 1914.57 1558.66 1914.35 1558.91C1914.13 1559.17 1913.84 1559.36 1913.51 1559.45C1902.24 1562.66 1896.48 1566.14 1896.48 1578.98C1896.45 1610.64 1896.52 1642.29 1896.71 1673.96C1896.76 1681.68 1897.52 1689.88 1899.01 1698.57C1899.39 1700.8 1898.46 1702.12 1896.23 1702.51C1891.93 1703.26 1888.38 1702.16 1885.56 1699.21C1850.71 1662.73 1817.31 1627.8 1785.37 1594.42C1784.62 1593.63 1784.25 1593.78 1784.26 1594.86Z" fill="#001DA1"/>
<path d="M1973.93 1580.64C1973.92 1568.39 1970.19 1560.96 1957.2 1559.61C1956.93 1559.58 1956.67 1559.5 1956.43 1559.37C1956.2 1559.23 1955.99 1559.05 1955.83 1558.84C1955.66 1558.62 1955.55 1558.38 1955.48 1558.11C1955.42 1557.85 1955.4 1557.58 1955.45 1557.31L1956.02 1553.91C1956.25 1552.54 1957.07 1551.85 1958.46 1551.85L2014.95 1551.87C2016.14 1551.87 2016.92 1552.43 2017.29 1553.56C2017.77 1555.04 2017.98 1556.55 2017.93 1558.08C2017.92 1558.41 2017.8 1558.72 2017.58 1558.96C2017.36 1559.2 2017.06 1559.35 2016.74 1559.39C2005.32 1560.86 1999.6 1566.72 1999.58 1576.99C1999.49 1608.94 1999.49 1641.73 1999.56 1675.36C1999.58 1687.39 2006.31 1691.2 2016.59 1693.22C2017.41 1693.37 2017.85 1693.88 2017.92 1694.73C2018.04 1696.63 2017.68 1698.34 2016.83 1699.84C2016.52 1700.38 2016.06 1700.65 2015.44 1700.65L1958.33 1700.63C1957.7 1700.63 1957.1 1700.4 1956.64 1699.98C1956.17 1699.56 1955.88 1698.98 1955.82 1698.36L1955.5 1695.24C1955.46 1694.76 1955.6 1694.27 1955.9 1693.88C1956.2 1693.49 1956.63 1693.24 1957.11 1693.16C1968.23 1691.4 1973.81 1685.64 1973.84 1675.88C1973.97 1644.17 1974 1612.43 1973.93 1580.64Z" fill="#001DA1"/>
<path d="M2552.88 1656.62C2552.94 1628.52 2552.92 1601.9 2552.82 1576.77C2552.79 1565.06 2543.06 1561.68 2532.9 1559.52C2532.21 1559.37 2531.8 1558.96 2531.66 1558.27C2531.26 1556.29 2531.53 1554.51 2532.47 1552.92C2532.9 1552.21 2533.53 1551.85 2534.36 1551.85L2583.32 1551.87C2583.68 1551.87 2584.03 1551.96 2584.34 1552.14C2584.65 1552.33 2584.91 1552.59 2585.09 1552.9C2586.01 1554.54 2586.28 1556.26 2585.88 1558.08C2585.8 1558.51 2585.58 1558.9 2585.27 1559.21C2584.96 1559.51 2584.56 1559.72 2584.13 1559.8C2575.04 1561.57 2567.9 1566.35 2567.86 1576.49C2567.75 1605.7 2567.7 1635.27 2567.71 1665.2C2567.72 1677.14 2568.6 1688.67 2570.35 1699.78C2570.42 1700.21 2570.33 1700.65 2570.12 1701.02C2569.9 1701.39 2569.57 1701.67 2569.17 1701.81C2564.25 1703.61 2560.02 1702.65 2556.49 1698.95C2522.38 1663.18 2489.01 1628.26 2456.39 1594.2C2455.84 1593.62 2455.56 1593.73 2455.56 1594.53C2455.52 1617.33 2455.54 1644.07 2455.6 1674.75C2455.63 1687.48 2465.32 1690.97 2475.6 1693.11C2476.43 1693.28 2476.9 1693.79 2477 1694.64C2477.23 1696.65 2476.84 1698.39 2475.82 1699.86C2475.46 1700.39 2474.96 1700.65 2474.32 1700.65L2425.12 1700.63C2424.28 1700.63 2423.66 1700.26 2423.24 1699.52C2422.45 1698.16 2422.19 1696.61 2422.46 1694.88C2422.59 1694.05 2423.04 1693.48 2423.81 1693.16C2430.45 1690.41 2436.24 1689.67 2439.25 1682.43C2440.15 1680.25 2440.61 1676.12 2440.64 1670.05C2440.77 1639.6 2440.73 1611.39 2440.52 1585.4C2440.45 1575.43 2437.17 1566.7 2430.69 1559.23C2427.57 1555.63 2429.62 1551.89 2434.12 1551.87C2439.21 1551.83 2444.21 1551.83 2449.1 1551.87C2451.29 1551.89 2453.17 1552.73 2454.75 1554.39C2485.99 1587.44 2518.34 1621.65 2551.81 1657.04C2552.52 1657.81 2552.88 1657.67 2552.88 1656.62Z" fill="#001DA1"/>
<path d="M2296.97 1875.7H1526.53C1526.43 1875.7 1526.33 1875.68 1526.24 1875.64C1526.15 1875.6 1526.07 1875.55 1525.99 1875.48C1525.92 1875.41 1525.87 1875.33 1525.83 1875.23C1525.79 1875.14 1525.77 1875.04 1525.77 1874.94V1832.87C1525.77 1832.77 1525.79 1832.67 1525.83 1832.58C1525.87 1832.49 1525.92 1832.4 1525.99 1832.33C1526.07 1832.26 1526.15 1832.21 1526.24 1832.17C1526.33 1832.13 1526.43 1832.11 1526.53 1832.11H2296.99C2297.19 1832.11 2297.38 1832.19 2297.53 1832.33C2297.67 1832.48 2297.75 1832.67 2297.75 1832.87L2297.73 1874.94C2297.73 1875.14 2297.65 1875.34 2297.51 1875.48C2297.37 1875.62 2297.17 1875.7 2296.97 1875.7Z" fill="#FB0512"/>
<path d="M2444.36 2203.29C2461.13 2165.24 2477.85 2126.56 2494.19 2088.03C2497.6 2080 2499.61 2071.94 2500.21 2063.86C2500.23 2063.58 2500.34 2063.31 2500.51 2063.08C2500.68 2062.85 2500.92 2062.68 2501.19 2062.59C2506.18 2060.92 2511.29 2059.87 2516.52 2059.44C2516.87 2059.4 2517.22 2059.48 2517.51 2059.66C2517.81 2059.84 2518.05 2060.11 2518.18 2060.43C2537.19 2104.89 2557.7 2152.65 2579.71 2203.74C2583.67 2212.98 2589.67 2221.59 2600.18 2223.16C2602.37 2223.48 2603.4 2224.74 2603.26 2226.94L2603.14 2229.06C2603.08 2229.95 2602.69 2230.78 2602.04 2231.39C2601.4 2231.99 2600.55 2232.33 2599.67 2232.33C2578.54 2232.27 2557.09 2232.33 2535.34 2232.53C2531.81 2232.55 2530.37 2230.4 2531.04 2226.06C2531.3 2224.38 2532.26 2223.4 2533.93 2223.1C2552.94 2219.77 2545.41 2202.5 2539.28 2191.67C2537.59 2188.65 2534.25 2187.5 2530.96 2187.45C2508.87 2187.07 2490.2 2187.11 2474.93 2187.58C2471.58 2187.67 2468.59 2189.68 2467.19 2192.76C2461.52 2205.1 2455.56 2221.04 2476.17 2223.12C2478.88 2223.39 2479.97 2224.86 2479.45 2227.53L2479.14 2229.19C2478.75 2231.28 2477.48 2232.33 2475.34 2232.33H2423.61C2421.73 2232.33 2420.72 2231.38 2420.58 2229.49L2420.4 2226.85C2420.24 2224.67 2421.24 2223.41 2423.41 2223.07C2434.38 2221.3 2440.03 2213.13 2444.36 2203.29ZM2503.25 2107.1L2477.28 2169.21C2477.12 2169.58 2477.06 2169.98 2477.1 2170.39C2477.14 2170.79 2477.28 2171.17 2477.5 2171.51C2477.73 2171.85 2478.03 2172.12 2478.39 2172.31C2478.74 2172.5 2479.14 2172.6 2479.55 2172.6L2527.94 2172.58C2528.32 2172.58 2528.7 2172.49 2529.04 2172.31C2529.37 2172.13 2529.66 2171.87 2529.88 2171.55C2530.09 2171.24 2530.22 2170.87 2530.26 2170.49C2530.3 2170.11 2530.24 2169.73 2530.1 2169.37L2504.34 2107.1C2504.3 2106.99 2504.22 2106.9 2504.12 2106.84C2504.03 2106.77 2503.91 2106.74 2503.8 2106.74C2503.68 2106.74 2503.57 2106.77 2503.47 2106.84C2503.37 2106.9 2503.3 2106.99 2503.25 2107.1Z" fill="#FB0512"/>
<path d="M1889.01 2133.09C1889.03 2136.3 1891.34 2138.84 1894.62 2139.05C1905.64 2139.71 1917.06 2138.99 1927.89 2137.07C1935.81 2135.67 1942.88 2132.65 1949.1 2128.02C1949.54 2127.69 1950.05 2127.49 1950.59 2127.44C1951.13 2127.38 1951.67 2127.47 1952.16 2127.7C1953.95 2128.54 1954.53 2129.68 1953.9 2131.13C1948.94 2142.64 1944.1 2153.59 1939.36 2163.98C1937.85 2167.27 1933.99 2166.88 1932.05 2164.26C1923.81 2153.1 1909.34 2152.01 1895.99 2152.23C1888.09 2152.35 1888.98 2158.41 1888.92 2163.76C1888.82 2178.03 1888.9 2191.12 1889.16 2203.05C1889.35 2211.59 1895.21 2216.78 1903.33 2217.77C1927.96 2220.78 1954.49 2214.01 1969.21 2193.48C1972.42 2189 1979.51 2192.08 1978.67 2197.74C1976.72 2210.85 1967.29 2233.52 1951.15 2232.68C1912.82 2230.66 1873.55 2230.57 1833.33 2232.42C1831.93 2232.48 1831.16 2231.81 1831.01 2230.41L1830.48 2225.3C1830.41 2224.62 1830.6 2223.95 1831.01 2223.41C1831.42 2222.87 1832.02 2222.51 1832.69 2222.4C1848.41 2219.83 1856.27 2212.75 1856.29 2201.17C1856.32 2164.25 1856.33 2127.82 1856.3 2091.88C1856.29 2079.67 1848.32 2073.69 1837.14 2071.09C1835.6 2070.74 1834.92 2069.77 1835.11 2068.2L1835.62 2064.06C1835.79 2062.59 1836.62 2061.91 1838.09 2062.02C1851.65 2063.07 1868.4 2063.54 1888.35 2063.42C1912.86 2063.26 1936.29 2062.72 1958.62 2061.8C1964.27 2061.56 1966.41 2064.18 1965.04 2069.65L1958.9 2094.46C1958.73 2095.14 1958.38 2095.75 1957.88 2096.23C1957.39 2096.72 1956.77 2097.05 1956.09 2097.19C1953.44 2097.78 1951.32 2096.36 1950.56 2093.85C1947.85 2085.01 1941.25 2079.74 1930.76 2078.05C1919.46 2076.21 1909.2 2076.03 1899.99 2077.49C1891.36 2078.88 1888.88 2085.48 1888.9 2093.25C1888.9 2107.84 1888.94 2121.12 1889.01 2133.09Z" fill="#FB0512"/>
<path d="M2391.2 2107.99C2398.91 2125.52 2400.67 2143.99 2396.47 2163.4C2390.47 2191.14 2375.16 2211.17 2350.53 2223.49C2333.08 2232.22 2313.6 2233.62 2293.6 2232.35C2269.9 2230.82 2246.33 2230.9 2222.9 2232.57C2221.34 2232.68 2220.48 2231.96 2220.32 2230.41L2219.77 2225.23C2219.63 2223.85 2220.24 2223.01 2221.59 2222.7C2234.31 2219.8 2245.49 2216.15 2245.56 2200.44C2245.71 2166.74 2245.72 2130.4 2245.6 2091.42C2245.56 2079.65 2237.35 2073.4 2226.48 2071.1C2224.88 2070.75 2224.19 2069.77 2224.4 2068.14L2224.92 2064.1C2225.11 2062.58 2225.97 2061.89 2227.5 2062.02C2253.95 2064.22 2280.15 2062.61 2306.57 2061.89C2341.03 2060.95 2376.82 2075.28 2391.2 2107.99ZM2323.32 2079.91C2313.26 2075.99 2302.88 2074.73 2292.18 2076.13C2277.49 2078.05 2278.03 2089.19 2278.07 2100.63C2278.2 2133.5 2278.2 2165.2 2278.07 2195.73C2278.03 2206.38 2281.48 2213.64 2292.94 2216.67C2304.34 2219.66 2316.26 2219.85 2328.71 2217.24C2350.64 2212.65 2361.94 2196.82 2364.94 2175.72C2369.89 2140.88 2359.94 2094.19 2323.32 2079.91Z" fill="#FB0512"/>
<path d="M1310.81 2188.32C1311.08 2188.96 1311.35 2188.96 1311.62 2188.32C1324.44 2157.45 1337.35 2126.41 1350.36 2095.19C1352.11 2090.98 1353.01 2086.98 1353.06 2083.18C1353.19 2074.16 1345.92 2072.44 1338.69 2071.06C1336.42 2070.63 1335.4 2069.26 1335.6 2066.96C1335.9 2063.7 1337.31 2062.08 1339.85 2062.09C1356.56 2062.18 1373.77 2062.25 1391.47 2062.3C1392.35 2062.3 1393.04 2062.67 1393.52 2063.42C1394.52 2064.98 1394.77 2066.89 1394.25 2069.14C1394.03 2070.07 1393.45 2070.65 1392.5 2070.86C1386.32 2072.18 1381.12 2074.49 1377.3 2079.76C1374.19 2084.09 1371.45 2088.99 1369.09 2094.47C1354.02 2129.4 1338.59 2165.27 1322.8 2202.06C1318.13 2212.94 1315.45 2222.79 1314.76 2231.61C1314.7 2232.37 1314.31 2232.88 1313.59 2233.14C1308.66 2234.91 1303.68 2235.96 1298.65 2236.28C1297.84 2236.32 1297.27 2235.97 1296.95 2235.22C1277.09 2188.32 1257.41 2141.84 1237.92 2095.78C1233.27 2084.76 1227.6 2073.22 1214.6 2071.13C1212.31 2070.76 1211.33 2069.43 1211.66 2067.13L1211.94 2065.32C1212.24 2063.29 1213.41 2062.28 1215.45 2062.28H1280.44C1281.18 2062.28 1281.89 2062.52 1282.48 2062.96C1283.06 2063.41 1283.48 2064.03 1283.67 2064.73C1284.15 2066.49 1284.13 2068.13 1283.6 2069.66C1283.5 2069.95 1283.32 2070.21 1283.08 2070.41C1282.85 2070.61 1282.56 2070.74 1282.25 2070.8C1269.08 2073.07 1266.72 2081.3 1271.49 2093.08C1284.51 2125.21 1297.61 2156.96 1310.81 2188.32Z" fill="#FB0512"/>
<path d="M1441.65 2091.18C1441.61 2079.14 1433.83 2072.64 1422.74 2071.67C1421.36 2071.54 1420.76 2070.8 1420.93 2069.43L1421.43 2065.08C1421.65 2063.2 1422.71 2062.26 1424.6 2062.26L1491.64 2062.28C1492.36 2062.27 1493.05 2062.53 1493.6 2062.99C1494.15 2063.45 1494.53 2064.09 1494.65 2064.8L1495.3 2068.62C1495.62 2070.43 1494.87 2071.44 1493.05 2071.67C1479.41 2073.27 1474.38 2081.26 1474.39 2094.3C1474.46 2131.69 1474.49 2167.95 1474.49 2203.07C1474.49 2214.56 1480.75 2221.17 1493.29 2222.92C1494.93 2223.15 1495.62 2224.09 1495.33 2225.72L1494.58 2229.93C1494.31 2231.51 1493.37 2232.31 1491.75 2232.31H1424.23C1422.76 2232.31 1421.9 2231.58 1421.65 2230.13L1420.89 2225.61C1420.62 2223.96 1421.32 2223.04 1422.98 2222.83C1437.72 2221.06 1441.85 2212.79 1441.85 2199.57C1441.81 2151.04 1441.75 2114.91 1441.65 2091.18Z" fill="#FB0512"/>
<path d="M1620.55 2188.17C1620.93 2189.1 1621.31 2189.1 1621.69 2188.17C1634.66 2156.89 1647.64 2125.67 1660.62 2094.52C1661.67 2091.96 1662.41 2089.31 1662.81 2086.57C1664.6 2074.45 1657.07 2072.75 1647.43 2070.78C1647.14 2070.72 1646.87 2070.59 1646.64 2070.4C1646.42 2070.21 1646.24 2069.97 1646.13 2069.69C1645.51 2068.08 1645.54 2066.35 1646.23 2064.49C1646.77 2063.02 1647.82 2062.28 1649.4 2062.28L1700.87 2062.26C1702.93 2062.26 1704.06 2063.29 1704.28 2065.34L1704.52 2067.59C1704.73 2069.64 1703.82 2070.82 1701.78 2071.13C1690.21 2072.88 1684.38 2082.49 1680.12 2092.27C1663.09 2131.23 1646.74 2169.29 1631.04 2206.45C1627.64 2214.49 1625.54 2222.88 1624.75 2231.63C1624.72 2231.94 1624.61 2232.25 1624.41 2232.5C1624.22 2232.75 1623.96 2232.95 1623.66 2233.07C1618.65 2234.95 1613.61 2236 1608.55 2236.24C1607.77 2236.28 1607.23 2235.94 1606.93 2235.22C1586.72 2187.34 1566.53 2139.69 1546.34 2092.29C1544.23 2087.33 1541.52 2082.83 1538.23 2078.77C1534.28 2073.88 1529.59 2072.11 1523.71 2070.8C1522.78 2070.6 1522.21 2070.04 1521.97 2069.1C1521.46 2066.91 1521.73 2065.02 1522.78 2063.42C1523.29 2062.67 1523.99 2062.3 1524.89 2062.3C1547.3 2062.26 1568.94 2062.21 1589.81 2062.15C1592.66 2062.14 1594.09 2063.94 1594.09 2067.55C1594.09 2069.57 1593.09 2070.74 1591.1 2071.08C1576.73 2073.49 1577.8 2084.91 1582.17 2095.42C1595.16 2126.61 1607.95 2157.52 1620.55 2188.17Z" fill="#FB0512"/>
<path d="M1751.81 2094.41C1751.89 2081.16 1746.83 2073.34 1733.09 2071.68C1731.28 2071.47 1730.54 2070.47 1730.87 2068.68L1731.59 2064.8C1731.9 2063.11 1732.92 2062.26 1734.64 2062.26L1802.03 2062.28C1803.09 2062.28 1803.81 2062.77 1804.21 2063.75C1804.97 2065.65 1805.31 2067.66 1805.22 2069.8C1805.19 2070.76 1804.7 2071.32 1803.77 2071.48C1790.72 2073.73 1784.43 2079.34 1784.43 2092.93C1784.46 2130.66 1784.48 2167.46 1784.51 2203.33C1784.51 2215.69 1792.16 2221.31 1803.67 2223.01C1804.5 2223.12 1804.96 2223.59 1805.08 2224.41C1805.43 2226.82 1805.04 2229.1 1803.89 2231.24C1803.51 2231.95 1802.92 2232.31 1802.11 2232.31H1734.12C1733.24 2232.31 1732.6 2231.91 1732.2 2231.13C1731.28 2229.22 1730.87 2227.06 1730.97 2224.65C1731 2223.78 1731.45 2223.26 1732.31 2223.1C1747.94 2220.28 1751.89 2213.77 1751.81 2198.42C1751.62 2162.84 1751.62 2128.16 1751.81 2094.41Z" fill="#FB0512"/>
<path d="M2045.29 2114.86C2045.51 2142.62 2045.56 2171.34 2045.44 2201.02C2045.38 2217.55 2056.86 2219.63 2069.7 2223.08C2070.44 2223.28 2070.87 2223.75 2070.99 2224.5C2071.41 2227.1 2071.02 2229.39 2069.81 2231.37C2069.64 2231.66 2069.39 2231.9 2069.1 2232.07C2068.8 2232.24 2068.47 2232.32 2068.13 2232.33H2009.17C2008.27 2232.33 2007.65 2231.91 2007.31 2231.07C2006.42 2228.93 2006.13 2226.82 2006.44 2224.73C2006.51 2224.23 2006.72 2223.77 2007.06 2223.4C2007.39 2223.03 2007.82 2222.77 2008.3 2222.64C2019.5 2219.73 2026.86 2214.93 2026.97 2201.72C2027.32 2160.44 2027.25 2126.75 2026.77 2100.66C2026.56 2089.1 2022.42 2078.61 2014.35 2069.17C2013.95 2068.69 2013.76 2068.14 2013.8 2067.51C2014.05 2064.11 2016.01 2062.37 2019.69 2062.31C2026.29 2062.21 2032.45 2062.23 2038.15 2062.37C2040.54 2062.42 2042.6 2063.34 2044.33 2065.13C2079.26 2101.18 2116.09 2139.11 2154.8 2178.93C2155.38 2179.53 2155.67 2179.41 2155.67 2178.57C2155.71 2148.09 2155.68 2119.45 2155.58 2092.66C2155.54 2077.51 2143.94 2074.12 2131.39 2071.65C2130.69 2071.51 2130.27 2071.09 2130.12 2070.39C2129.65 2067.97 2129.93 2065.63 2130.95 2063.38C2131.11 2063.05 2131.36 2062.76 2131.67 2062.56C2131.98 2062.36 2132.35 2062.26 2132.72 2062.26L2191.8 2062.28C2192.15 2062.28 2192.5 2062.38 2192.8 2062.57C2193.1 2062.77 2193.33 2063.04 2193.47 2063.36C2194.35 2065.32 2194.67 2067.51 2194.45 2069.93C2194.38 2070.77 2193.94 2071.31 2193.14 2071.57C2179.07 2075.98 2173.57 2079.54 2173.64 2095.44C2173.76 2128.56 2173.8 2160.55 2173.73 2191.43C2173.71 2204.79 2174.67 2217.97 2176.63 2230.98C2176.73 2231.63 2176.59 2232.29 2176.24 2232.84C2175.88 2233.39 2175.34 2233.79 2174.71 2233.97C2165.14 2236.73 2161.59 2231.9 2154.51 2224.67C2118.45 2187.93 2082.38 2151.18 2046.31 2114.44C2045.62 2113.75 2045.28 2113.89 2045.29 2114.86Z" fill="#FB0512"/>
<path d="M1848.91 2351.84C1828.89 2339.57 1810.65 2331.66 1786.48 2336.64C1755.58 2343.04 1748.16 2374.58 1751.52 2402.27C1755.59 2435.98 1777.59 2459.28 1810.37 2465.7C1827.08 2468.97 1848.1 2464.28 1862.52 2456.99C1863.13 2456.67 1863.73 2456.67 1864.33 2456.99C1866.56 2458.17 1868.05 2459.94 1868.82 2462.29C1869.05 2463.01 1868.94 2463.68 1868.48 2464.28C1859.04 2476.62 1842.12 2484.61 1827.21 2489.83C1822.24 2491.56 1817.2 2492.27 1812.07 2491.97C1778.32 2489.94 1744.38 2474.46 1729.42 2442.79C1713.97 2410.11 1722.48 2363.99 1748.55 2339C1775.52 2313.12 1818.1 2309.02 1852.19 2319.65C1857.28 2321.23 1867.71 2325.51 1865.29 2332.6C1863.35 2338.33 1859.3 2358.18 1848.91 2351.84Z" fill="#FB0512"/>
<path d="M2217.24 2351.52C2200.1 2341.23 2185.47 2333.98 2164.75 2335.33C2142.4 2336.77 2128.36 2347.88 2122.61 2368.66C2119.16 2381.17 2118.75 2394.32 2121.38 2408.13C2126.4 2434.45 2141.45 2452.45 2166.54 2462.12C2188.03 2470.41 2211.06 2466.61 2231.44 2457.07C2232.23 2456.7 2232.99 2456.74 2233.73 2457.2C2235.64 2458.36 2236.97 2460 2237.72 2462.14C2237.99 2462.89 2237.89 2463.59 2237.42 2464.23C2227.61 2477.6 2205.91 2487.41 2191.19 2491.12C2187.46 2492.07 2182.75 2492.26 2177.04 2491.71C2116.51 2485.86 2078.17 2441.06 2094.33 2379.69C2102.78 2347.63 2125.9 2324.45 2158.29 2317.33C2179.41 2312.7 2200.25 2313.44 2220.82 2319.54C2225.36 2320.89 2236.28 2325.41 2234.41 2331.7C2233.16 2335.89 2231.68 2340.3 2229.99 2344.92C2227.85 2350.69 2223.97 2355.58 2217.24 2351.52Z" fill="#FB0512"/>
<path d="M2457.74 2314.69C2494.67 2312.2 2528.86 2329.46 2544.49 2363.27C2558.03 2392.56 2554.87 2429.77 2536.11 2456.37C2515.06 2486.21 2477.78 2497.46 2442.98 2489.72C2410.07 2482.39 2385.48 2457.55 2378.48 2424.7C2366.99 2370.72 2400.82 2318.52 2457.74 2314.69ZM2450.73 2468.19C2480.78 2483.56 2512.98 2467.95 2518.88 2434.18C2523.36 2408.64 2518.93 2385.14 2505.6 2363.68C2492.24 2342.21 2466.24 2325.99 2440.62 2334.64C2421.58 2341.08 2411.64 2358.31 2409.48 2377.53C2405.62 2412.1 2418.52 2451.75 2450.73 2468.19Z" fill="#FB0512"/>
<path d="M3028.07 2491.97C3016.43 2491.93 2984.03 2488.04 2979.64 2474.96C2979.47 2474.47 2979.45 2473.94 2979.57 2473.43C2980.62 2468.84 2982.37 2458.38 2985.95 2454.95C2986.77 2454.16 2987.85 2453.69 2988.98 2453.63C2990.12 2453.57 2991.24 2453.92 2992.13 2454.61C3010.06 2468.54 3026.67 2479.17 3049.67 2473.45C3061.49 2470.5 3066.98 2462.6 3066.13 2449.74C3065.63 2442.29 3058.31 2436.67 3052.5 2432.83C3038.97 2423.91 3025.88 2415.24 3013.24 2406.8C2992.92 2393.25 2975.99 2379.56 2984.57 2351.93C2988.02 2340.73 2996.3 2331.14 3006.24 2324.94C3024.03 2313.86 3043.84 2311.54 3065.67 2317.99C3070.76 2319.48 3084.14 2323.93 3081.81 2331.43C3080.35 2336.14 3078.73 2340.63 3076.96 2344.88C3074.72 2350.24 3071.39 2351.05 3066.96 2347.3C3052.44 2334.96 3036.67 2327.43 3018.38 2334.29C3012.27 2336.58 3008.62 2341.24 3007.42 2348.28C3005.19 2361.63 3014.32 2369.06 3024.43 2375.57C3037.96 2384.28 3050.93 2392.69 3063.32 2400.79C3085.83 2415.47 3097.86 2433.96 3085.09 2460.55C3075.35 2480.83 3050.5 2492.04 3028.07 2491.97Z" fill="#FB0512"/>
<path d="M1954.78 2370.12C1959.68 2358.83 1964.19 2347.81 1968.31 2337.06C1970.18 2332.17 1971.3 2326.48 1971.68 2320.02C1971.73 2319.33 1972.08 2318.87 1972.73 2318.65C1977.92 2316.84 1983.07 2315.75 1988.16 2315.37C1988.9 2315.32 1989.41 2315.63 1989.71 2316.31C2009.51 2362.48 2029.54 2409.18 2049.81 2456.39C2054.15 2466.51 2059.74 2477.41 2071.8 2479.13C2072.28 2479.19 2072.73 2479.35 2073.14 2479.59C2073.55 2479.84 2073.91 2480.16 2074.19 2480.54C2074.48 2480.92 2074.68 2481.36 2074.8 2481.82C2074.91 2482.29 2074.94 2482.77 2074.87 2483.24L2074.63 2484.85C2074.28 2487.12 2072.96 2488.26 2070.66 2488.26H2006.27C2003.83 2488.26 2002.6 2487.04 2002.6 2484.59L2002.58 2482.74C2002.58 2480.54 2003.67 2479.28 2005.85 2478.94C2024.32 2476.07 2016.77 2458.91 2011.5 2448.58C2009.28 2444.23 2005.76 2443.45 2001.42 2443.42C1981.88 2443.28 1963.74 2443.31 1947.02 2443.49C1943.22 2443.54 1940.52 2445.21 1938.92 2448.51C1936.52 2453.43 1934.74 2458.73 1933.59 2464.43C1931.28 2475.96 1940.36 2477.56 1948.86 2479.41C1949.82 2479.61 1950.43 2480.2 1950.69 2481.16C1951.35 2483.59 1951.01 2485.65 1949.67 2487.34C1949.45 2487.61 1949.17 2487.84 1948.85 2487.99C1948.53 2488.14 1948.18 2488.22 1947.83 2488.22L1895.6 2488.26C1893.4 2488.26 1892.22 2487.16 1892.06 2484.98L1891.89 2482.82C1891.73 2480.64 1892.73 2479.38 1894.88 2479.04C1905.14 2477.41 1911.23 2469.87 1915.1 2461.07C1928.43 2430.73 1941.66 2400.42 1954.78 2370.12ZM1974.69 2363.36L1948.9 2425.1C1948.21 2426.75 1948.73 2427.78 1950.47 2428.18C1951.8 2428.49 1953.07 2428.64 1954.29 2428.64C1968.22 2428.59 1982.68 2428.59 1997.68 2428.64C1998.88 2428.64 2000 2428.36 2001.04 2427.79C2001.41 2427.58 2001.7 2427.24 2001.84 2426.83C2001.98 2426.43 2001.97 2425.98 2001.81 2425.58L1976.04 2363.36C1975.58 2362.28 1975.13 2362.28 1974.69 2363.36Z" fill="#FB0512"/>
<path d="M1034.73 2395.05C1052.4 2395.9 1074.23 2394.92 1088.78 2384C1089.12 2383.75 1089.52 2383.56 1089.93 2383.47C1090.35 2383.38 1090.78 2383.38 1091.2 2383.47C1092.87 2383.84 1093.7 2384.68 1093.67 2385.98C1093.65 2386.86 1093.46 2387.71 1093.12 2388.51C1088.89 2398.17 1084.21 2408.68 1079.08 2420.03C1077.55 2423.4 1073.65 2422.7 1071.75 2420.16C1063.53 2409.05 1048.95 2407.93 1035.59 2408.17C1028.08 2408.3 1028.86 2413.68 1028.82 2419.97C1028.74 2433.55 1028.78 2446.49 1028.95 2458.8C1029.1 2468.76 1036.22 2473.24 1045.32 2474.06C1069.93 2476.23 1095.11 2469.11 1109.54 2448.71C1109.99 2448.08 1110.66 2447.64 1111.42 2447.48C1115.66 2446.59 1119.19 2449.41 1118.47 2454.08C1116.47 2466.99 1107.1 2489.29 1090.87 2488.55C1060.36 2487.19 1028.5 2486.8 995.264 2487.37C987.134 2487.52 979.786 2487.95 973.218 2488.65C971.804 2488.81 971.016 2488.18 970.856 2486.77L970.266 2481.58C970.069 2479.91 970.789 2478.89 972.425 2478.52C985.191 2475.57 996.058 2471.9 996.113 2455.96C996.199 2421.07 996.211 2385.32 996.15 2348.7C996.138 2338.05 990.874 2331.17 980.358 2328.06C978.869 2327.62 977.387 2327.11 975.911 2326.53C975.149 2326.23 974.811 2325.68 974.897 2324.87L975.469 2319.63C975.579 2318.6 976.151 2318.1 977.184 2318.15C1013.44 2319.86 1054.08 2319.7 1099.09 2317.66C1105.33 2317.38 1105.5 2322.16 1104.43 2326.92C1102.5 2335.41 1100.5 2343.36 1098.45 2350.75C1098.27 2351.37 1097.92 2351.93 1097.44 2352.36C1096.96 2352.79 1096.37 2353.08 1095.74 2353.18C1092.8 2353.64 1091 2352 1090.17 2349.38C1086.22 2336.95 1075.2 2334.02 1063.43 2332.98C1055.5 2332.31 1048.4 2332.31 1042.14 2333C1033.21 2334 1028.76 2338.87 1028.79 2347.63C1028.82 2360.75 1028.8 2374.17 1028.73 2387.88C1028.71 2391.75 1030.41 2394.85 1034.73 2395.05Z" fill="#FB0512"/>
<path d="M1169.53 2348.09C1169.49 2335.01 1161.21 2329.55 1149.86 2326.82C1149.08 2326.64 1148.63 2326.15 1148.53 2325.35C1148.28 2323.31 1148.5 2321.22 1149.2 2319.08C1149.45 2318.28 1149.99 2317.91 1150.82 2317.99C1168.95 2319.53 1194.98 2319.46 1228.9 2317.8C1238.38 2317.35 1248.68 2318.38 1259.78 2320.88C1346.93 2340.6 1340.13 2462.77 1259.87 2484.92C1250.02 2487.64 1240.72 2488.87 1231.96 2488.61C1203.42 2487.78 1175.49 2486.36 1147.13 2488.56C1145.31 2488.69 1144.31 2487.85 1144.13 2486.03L1143.7 2481.73C1143.54 2480.06 1144.27 2479 1145.88 2478.56C1158.76 2475.05 1169.51 2472.12 1169.55 2456.24C1169.61 2418.9 1169.6 2382.86 1169.53 2348.09ZM1237.86 2474.94C1265.89 2474.04 1284.32 2461.14 1288.69 2432.74C1295.72 2386.85 1276.5 2329.39 1219.97 2331.6C1208.64 2332.06 1202.09 2336.77 1202.15 2348.81C1202.29 2384.1 1202.26 2419.21 1202.06 2454.14C1201.93 2473.56 1223.9 2475.38 1237.86 2474.94Z" fill="#FB0512"/>
<path d="M1513.81 2397.43C1532.48 2398.13 1553.3 2397.54 1568.08 2386.64C1569.29 2385.76 1570.54 2385.62 1571.85 2386.24C1572.47 2386.52 1572.95 2387.05 1573.19 2387.69C1573.43 2388.33 1573.41 2389.04 1573.14 2389.67C1568.5 2400.33 1563.74 2411.12 1558.86 2422.06C1557.57 2424.95 1554.23 2425.67 1551.98 2423.24C1549.98 2421.06 1548.05 2418.42 1545.48 2416.8C1536.35 2411.01 1524.04 2409.94 1513.57 2410.8C1512.16 2410.93 1510.84 2411.57 1509.88 2412.61C1508.91 2413.64 1508.37 2415 1508.34 2416.41C1508.21 2429.71 1508.23 2443.5 1508.42 2457.79C1508.52 2465.14 1511.83 2470.22 1518.34 2473.04C1523.42 2475.23 1529.99 2477.06 1538.03 2478.54C1539.96 2478.88 1540.77 2480.03 1540.45 2481.97L1539.67 2486.71C1539.44 2488.12 1538.61 2488.78 1537.18 2488.68C1509.14 2486.8 1481.04 2486.74 1452.89 2488.5C1451.36 2488.6 1450.51 2487.9 1450.34 2486.4L1449.77 2481.49C1449.69 2480.83 1449.86 2480.16 1450.24 2479.61C1450.63 2479.07 1451.2 2478.68 1451.85 2478.54C1468.02 2474.89 1475.91 2470.57 1475.76 2452.49C1475.52 2423.09 1475.54 2391.34 1475.84 2357.24C1475.89 2350.03 1475.46 2344.68 1474.55 2341.19C1472.15 2332.06 1464.6 2329.81 1455.84 2326.67C1455.09 2326.4 1454.68 2325.88 1454.62 2325.09C1454.44 2322.89 1454.71 2320.8 1455.43 2318.82C1455.69 2318.12 1456.2 2317.8 1456.95 2317.88C1465.64 2318.66 1474.3 2319.1 1482.92 2319.19C1517.26 2319.52 1549.04 2319.03 1578.27 2317.73C1579.91 2317.65 1581.45 2318 1582.88 2318.78C1583.42 2319.09 1583.79 2319.53 1583.98 2320.11C1584.58 2321.93 1584.67 2323.76 1584.26 2325.6C1582.44 2333.67 1580.38 2342.03 1578.08 2350.67C1577.91 2351.33 1577.54 2351.93 1577.02 2352.38C1576.51 2352.83 1575.87 2353.11 1575.18 2353.2C1572.66 2353.55 1570.63 2352.2 1569.89 2349.81C1567.29 2341.28 1561.19 2336.12 1551.57 2334.33C1543.7 2332.85 1535.77 2332.25 1527.77 2332.52C1518.14 2332.85 1508.4 2334.68 1508.33 2346.8C1508.25 2361.48 1508.25 2376.25 1508.31 2391.11C1508.31 2394.39 1510.26 2397.3 1513.81 2397.43Z" fill="#FB0512"/>
<path d="M2800.94 2488.65C2799.24 2488.82 2798.29 2488.06 2798.06 2486.36L2797.46 2481.8C2797.22 2480.01 2797.98 2478.91 2799.72 2478.5C2813.34 2475.29 2823.45 2471.4 2823.34 2455.32C2823.09 2418.93 2823.09 2383.75 2823.32 2349.77C2823.41 2334.89 2816.48 2331.03 2803.47 2326.7C2802.77 2326.46 2802.38 2325.98 2802.29 2325.24C2801.97 2322.88 2802.31 2320.7 2803.3 2318.71C2803.64 2318.03 2804.18 2317.74 2804.95 2317.82C2809.71 2318.43 2814.37 2318.78 2818.95 2318.89C2856.13 2319.72 2892.26 2319.3 2927.35 2317.66C2928.4 2317.61 2929.44 2317.94 2930.27 2318.58C2931.1 2319.23 2931.67 2320.15 2931.89 2321.18C2932.25 2322.91 2932.22 2324.64 2931.82 2326.34C2929.97 2334.1 2927.99 2342.13 2925.88 2350.42C2925.7 2351.07 2925.36 2351.67 2924.87 2352.15C2924.38 2352.62 2923.77 2352.95 2923.11 2353.11C2920.18 2353.81 2918.2 2352.04 2917.39 2349.42C2912.1 2332.3 2891.34 2332.41 2876.12 2332.45C2866.23 2332.49 2856.23 2334.61 2856.03 2346.58C2855.8 2360.51 2855.78 2374.46 2855.98 2388.41C2856.04 2392.73 2858.2 2394.96 2862.47 2395.11C2880.11 2395.72 2901.45 2394.91 2915.86 2384.15C2916.39 2383.76 2917.01 2383.53 2917.66 2383.48C2918.32 2383.43 2918.97 2383.57 2919.55 2383.88C2921.01 2384.66 2921.39 2385.89 2920.69 2387.55C2916.17 2398.12 2911.32 2408.99 2906.16 2420.14C2904.55 2423.59 2900.7 2422.39 2898.89 2419.94C2890.71 2408.89 2874.57 2407.49 2861.49 2408.32C2855.29 2408.72 2855.74 2415.18 2855.81 2419.61C2855.96 2429.35 2855.96 2439.31 2855.81 2449.49C2855.61 2462.51 2856.49 2472.36 2872.01 2473.95C2896.29 2476.42 2922.1 2469.37 2936.47 2449.05C2939.27 2445.08 2946.34 2448.09 2945.71 2453.16C2944.12 2466.29 2934.46 2489.39 2918.04 2488.59C2889.66 2487.24 2858.29 2486.83 2823.93 2487.38C2815.62 2487.51 2807.95 2487.93 2800.94 2488.65Z" fill="#FB0512"/>
<path d="M814.366 2395.52C814.405 2395.57 814.456 2395.62 814.517 2395.65C814.577 2395.68 814.645 2395.69 814.713 2395.69C814.781 2395.69 814.847 2395.67 814.906 2395.64C814.964 2395.6 815.014 2395.56 815.049 2395.5C823.843 2381.92 833.239 2367.42 843.239 2351.98C850.139 2341.32 850.508 2329.85 834.918 2327.25C833.024 2326.93 832.065 2325.81 832.04 2323.89C832.003 2321.81 832.612 2318.19 835.343 2318.19C854.628 2318.2 871.988 2318.22 887.424 2318.23C888.162 2318.23 888.721 2318.55 889.103 2319.19C890.32 2321.18 890.542 2323.41 889.767 2325.86C889.533 2326.58 889.053 2327.01 888.328 2327.16C877.277 2329.48 869.159 2338.28 863.219 2347.41C849.677 2368.24 835.945 2389.65 822.023 2411.64C821.654 2412.2 821.475 2412.82 821.488 2413.5C821.549 2426.36 821.531 2440.3 821.432 2455.32C821.34 2471.94 829.144 2477.43 844.733 2478.82C846.443 2478.96 847.174 2479.89 846.929 2481.58L846.338 2485.71C846.104 2487.41 845.133 2488.26 843.423 2488.26L766.971 2488.22C766.364 2488.22 765.775 2488.02 765.294 2487.65C764.814 2487.28 764.469 2486.76 764.315 2486.18C763.933 2484.74 763.693 2483.12 763.595 2481.32C763.509 2479.86 764.192 2479.04 765.643 2478.87C781.361 2477.03 789.386 2472.49 789.239 2455.57C789.104 2441.24 789.079 2427.44 789.165 2414.18C789.178 2413.47 788.971 2412.78 788.575 2412.19C774.812 2391.27 760.84 2370.36 746.659 2349.44C739.907 2339.51 732.804 2329.57 720.72 2327.05C720.4 2326.98 720.1 2326.83 719.844 2326.63C719.588 2326.42 719.382 2326.15 719.244 2325.85C718.432 2324.06 718.783 2322.12 719.244 2320.28C719.564 2318.92 720.375 2318.25 721.679 2318.25C744.162 2318.2 766.399 2318.19 788.39 2318.23C789.202 2318.23 789.842 2318.56 790.309 2319.22C791.404 2320.84 791.68 2322.85 791.139 2325.27C790.979 2325.96 790.573 2326.45 789.922 2326.73C788.79 2327.21 787.603 2327.62 786.361 2327.97C775.255 2331.07 779.627 2343.76 783.926 2350.21C794.319 2365.85 804.465 2380.96 814.366 2395.52Z" fill="#FB0512"/>
<path d="M1371.08 2349.94C1371.06 2335.9 1365.4 2329.3 1351.77 2327.53C1351.51 2327.49 1351.27 2327.41 1351.05 2327.29C1350.83 2327.16 1350.64 2326.99 1350.49 2326.78C1350.34 2326.58 1350.23 2326.35 1350.17 2326.1C1350.11 2325.86 1350.1 2325.6 1350.14 2325.35L1350.95 2320.37C1351.19 2318.93 1352.04 2318.21 1353.5 2318.21H1420.67C1422.57 2318.22 1423.67 2319.16 1423.99 2321.01L1424.57 2324.54C1424.89 2326.44 1424.09 2327.5 1422.17 2327.71C1419.4 2328.01 1416.72 2328.72 1414.14 2329.85C1403.48 2334.48 1403.7 2344.37 1403.68 2356.65C1403.62 2390.3 1403.68 2424.65 1403.85 2459.71C1403.9 2471.75 1411.89 2477.58 1423 2478.98C1423.74 2479.08 1424.18 2479.49 1424.34 2480.22C1424.82 2482.3 1424.25 2485 1423.33 2486.93C1422.91 2487.82 1422.15 2488.26 1421.04 2488.26C1397.19 2488.19 1374.75 2488.19 1353.72 2488.28C1352 2488.28 1351.03 2487.43 1350.81 2485.73L1350.25 2481.53C1350.04 2479.88 1350.76 2478.97 1352.41 2478.8C1363.96 2477.53 1371.08 2470.85 1371.1 2458.38C1371.13 2422.2 1371.12 2386.05 1371.08 2349.94Z" fill="#FB0512"/>
<path d="M1616.18 2479.02C1629.41 2477.3 1635.7 2470.83 1635.7 2457.42C1635.72 2422.5 1635.75 2386.87 1635.79 2350.55C1635.81 2335.73 1630.81 2330.46 1616.64 2327.47C1615.2 2327.16 1614.6 2326.25 1614.85 2324.72C1614.86 2324.66 1615.09 2323.31 1615.53 2320.66C1615.82 2319.03 1616.79 2318.21 1618.45 2318.21H1686.19C1686.97 2318.21 1687.53 2318.56 1687.87 2319.24C1688.87 2321.19 1689.26 2323.47 1689.03 2326.09C1688.97 2326.84 1688.57 2327.28 1687.83 2327.42C1672.54 2330.16 1668.08 2336.75 1668.17 2351.87C1668.38 2386.56 1668.41 2421.91 1668.26 2457.92C1668.2 2470.98 1675.2 2477.12 1687.26 2478.93C1688.76 2479.16 1689.41 2480.03 1689.2 2481.53L1688.61 2485.7C1688.36 2487.41 1687.37 2488.26 1685.64 2488.26H1618.19C1616.54 2488.26 1615.63 2487.44 1615.44 2485.81L1614.87 2480.68C1614.76 2479.7 1615.2 2479.14 1616.18 2479.02Z" fill="#FB0512"/>
<path d="M2290.2 2350.79C2290.22 2336.42 2285.2 2329.55 2270.94 2327.53C2270.65 2327.49 2270.38 2327.39 2270.13 2327.24C2269.88 2327.09 2269.66 2326.89 2269.49 2326.65C2269.32 2326.41 2269.2 2326.15 2269.14 2325.86C2269.08 2325.58 2269.08 2325.28 2269.13 2325L2270.09 2320.06C2270.34 2318.83 2271.09 2318.21 2272.34 2318.21H2339.63C2341.67 2318.21 2342.84 2319.22 2343.13 2321.24L2343.61 2324.52C2343.89 2326.46 2343.05 2327.55 2341.08 2327.78C2328.91 2329.2 2322.81 2336.18 2322.8 2348.72C2322.76 2383.85 2322.76 2420.35 2322.8 2458.21C2322.81 2470.34 2329.09 2477.24 2341.64 2478.91C2343.04 2479.09 2343.72 2479.89 2343.67 2481.29C2343.62 2483.29 2343.24 2485.11 2342.54 2486.75C2342.12 2487.76 2341.37 2488.26 2340.29 2488.26L2272.53 2488.22C2271.1 2488.22 2270.27 2487.52 2270.04 2486.12L2269.17 2481.12C2269.13 2480.87 2269.14 2480.62 2269.2 2480.38C2269.25 2480.13 2269.36 2479.9 2269.51 2479.7C2269.66 2479.5 2269.85 2479.33 2270.07 2479.2C2270.29 2479.08 2270.53 2479 2270.77 2478.96C2283.66 2477.34 2290.11 2470.61 2290.11 2458.77C2290.12 2422.5 2290.15 2386.51 2290.2 2350.79Z" fill="#FB0512"/>
<path d="M2622.97 2370.69C2623.13 2396.64 2623.11 2423.54 2622.91 2451.41C2622.77 2472.01 2629.39 2474.15 2647.49 2479.11C2648.19 2479.31 2648.6 2479.77 2648.71 2480.5C2649.09 2483.05 2648.71 2485.28 2647.56 2487.17C2647.13 2487.9 2646.49 2488.26 2645.64 2488.26H2586.96C2585.9 2488.26 2585.19 2487.77 2584.82 2486.79C2584.07 2484.71 2583.87 2482.6 2584.23 2480.46C2584.29 2480.05 2584.48 2479.66 2584.76 2479.35C2585.04 2479.04 2585.41 2478.82 2585.81 2478.71C2598.56 2475.24 2604.59 2470.44 2604.67 2455.58C2604.79 2429.99 2604.8 2403.89 2604.69 2377.29C2604.58 2354.16 2605.33 2340.55 2592.22 2325.24C2591.76 2324.72 2591.51 2324.05 2591.51 2323.38C2591.5 2319.58 2594.61 2318.27 2597.93 2318.23C2604.2 2318.13 2610.47 2318.15 2616.75 2318.29C2618.37 2318.32 2619.91 2318.99 2621.03 2320.15L2732.33 2434.75C2733.01 2435.45 2733.35 2435.32 2733.35 2434.35C2733.2 2407.32 2733.19 2379.69 2733.31 2351.47C2733.39 2333.87 2724.18 2330.72 2709.14 2327.58C2708.84 2327.52 2708.56 2327.37 2708.33 2327.16C2708.11 2326.94 2707.95 2326.67 2707.87 2326.36C2707.28 2323.94 2707.56 2321.59 2708.72 2319.3C2708.88 2318.97 2709.13 2318.7 2709.44 2318.51C2709.76 2318.31 2710.12 2318.21 2710.49 2318.21H2769.21C2769.71 2318.21 2770.2 2318.37 2770.6 2318.67C2771 2318.96 2771.3 2319.38 2771.45 2319.85C2772.15 2322.1 2772.34 2324.22 2772.02 2326.22C2771.91 2326.91 2771.51 2327.34 2770.84 2327.53C2760.03 2330.42 2751.63 2334.39 2751.54 2347.63C2751.21 2390.05 2751.27 2427.46 2751.72 2459.87C2751.85 2468.63 2752.75 2477.51 2754.42 2486.51C2754.55 2487.21 2754.42 2487.94 2754.06 2488.55C2753.69 2489.16 2753.12 2489.62 2752.44 2489.85C2745.3 2492.21 2741.13 2489.72 2735.9 2484.37C2698.57 2446.36 2661.23 2408.34 2623.87 2370.3C2623.8 2370.23 2623.7 2370.18 2623.6 2370.16C2623.5 2370.14 2623.39 2370.16 2623.29 2370.2C2623.2 2370.24 2623.12 2370.31 2623.06 2370.39C2623 2370.48 2622.97 2370.58 2622.97 2370.69Z" fill="#FB0512"/>
</svg>
