<svg width="900" height="900" viewBox="0 0 900 900" fill="none" xmlns="http://www.w3.org/2000/svg">
<path d="M449.086 121.666C449.06 120.745 448.672 120.009 448.219 120.021C447.766 120.034 447.42 120.791 447.446 121.712C447.471 122.632 447.859 123.369 448.312 123.356C448.765 123.343 449.112 122.587 449.086 121.666Z" fill="#24356D"/>
<path d="M448.718 128.842C448.701 127.2 448.566 125.871 448.418 125.872C448.269 125.874 448.163 127.206 448.18 128.848C448.197 130.489 448.331 131.819 448.48 131.817C448.629 131.816 448.735 130.484 448.718 128.842Z" fill="#24356D"/>
<path d="M448.5 132.429C448.667 132.429 448.853 132.486 449.058 132.6C449.29 132.743 449.453 132.814 449.546 132.814C450.717 132.9 452.059 132.914 453.574 132.857C454.123 132.828 454.532 132.605 454.801 132.186C454.903 132.024 454.954 131.529 454.954 130.7C454.954 130.415 455.024 130.22 455.164 130.115C455.312 130.02 455.535 130.034 455.833 130.158C455.881 130.181 455.922 130.217 455.951 130.262C455.981 130.308 455.998 130.361 456 130.415V132.514C456 132.758 455.915 132.993 455.761 133.176C455.608 133.36 455.395 133.48 455.164 133.514C452.905 133.847 450.679 134.009 448.486 134C446.302 133.99 444.081 133.809 441.822 133.457C441.593 133.419 441.384 133.298 441.233 133.115C441.083 132.932 441 132.698 441 132.457L441.014 130.358C441.013 130.302 441.028 130.248 441.058 130.202C441.088 130.156 441.131 130.121 441.181 130.101C441.479 129.977 441.702 129.967 441.85 130.072C441.99 130.177 442.055 130.372 442.046 130.658C442.046 131.486 442.097 131.981 442.199 132.143C442.459 132.562 442.863 132.786 443.412 132.814C444.927 132.89 446.27 132.886 447.441 132.8C447.533 132.809 447.701 132.743 447.942 132.6C448.138 132.476 448.323 132.419 448.5 132.429Z" fill="#24356D"/>
<path d="M448.799 135.684C448.828 135.083 448.696 134.588 448.503 134.579C448.31 134.569 448.129 135.049 448.1 135.65C448.071 136.251 448.203 136.746 448.396 136.755C448.589 136.765 448.769 136.285 448.799 135.684Z" fill="#24356D"/>
<path d="M423.362 164C423.266 164 423.174 163.962 423.106 163.894C423.038 163.826 423 163.734 423 163.639V163.424C423 156.681 425.628 150.215 430.307 145.447C434.985 140.679 441.33 138 447.946 138H448.054C454.67 138 461.015 140.679 465.693 145.447C470.372 150.215 473 156.681 473 163.424V163.639C473 163.734 472.962 163.826 472.894 163.894C472.826 163.962 472.734 164 472.638 164H423.362Z" fill="#24356D"/>
<path d="M481.013 168H415.987C415.442 168 415 168.397 415 168.886V171.114C415 171.603 415.442 172 415.987 172H481.013C481.558 172 482 171.603 482 171.114V168.886C482 168.397 481.558 168 481.013 168Z" fill="#24356D"/>
<path d="M435.145 175H428.855C427.83 175 427 175.831 427 176.857V211.143C427 212.169 427.83 213 428.855 213H435.145C436.17 213 437 212.169 437 211.143V176.857C437 175.831 436.17 175 435.145 175Z" fill="#24356D"/>
<path d="M451.164 175H444.836C443.822 175 443 175.827 443 176.846V211.154C443 212.173 443.822 213 444.836 213H451.164C452.178 213 453 212.173 453 211.154V176.846C453 175.827 452.178 175 451.164 175Z" fill="#24356D"/>
<path d="M468.272 175.299L462.085 175.289C460.985 175.287 460.092 176.177 460.09 177.276L460.031 211.229C460.029 212.328 460.919 213.221 462.018 213.223L468.206 213.234C469.306 213.236 470.199 212.346 470.201 211.246L470.26 177.294C470.262 176.194 469.372 175.301 468.272 175.299Z" fill="#24356D"/>
<path d="M481.28 217H415.72C415.322 217 415 217.364 415 217.813V221.187C415 221.636 415.322 222 415.72 222H481.28C481.678 222 482 221.636 482 221.187V217.813C482 217.364 481.678 217 481.28 217Z" fill="#24356D"/>
<path d="M504.088 228C516.419 232.973 527.931 239.343 538.622 247.112C584.06 280.146 613.527 331.002 615 387.543C615.002 387.602 614.991 387.662 614.97 387.717C614.948 387.772 614.916 387.823 614.874 387.865C614.832 387.908 614.783 387.942 614.728 387.965C614.673 387.988 614.614 388 614.554 388H590.856C590.653 388.001 590.456 387.926 590.304 387.79C590.152 387.653 590.055 387.465 590.032 387.261C588.401 372.871 587.199 363.759 586.424 359.924C579.894 327.427 567.684 298.335 549.796 272.647C538.213 256.009 522.954 241.171 504.021 228.135C504.01 228.123 504.003 228.108 504.001 228.092C503.999 228.075 504.001 228.059 504.009 228.045C504.016 228.03 504.027 228.018 504.042 228.01C504.056 228.002 504.072 227.999 504.088 228Z" fill="#24356D"/>
<path d="M391.979 228.136C373.188 241.27 358.054 256.209 346.578 272.952C328.854 298.798 316.777 328.058 310.349 360.732C309.587 364.584 308.408 373.745 306.812 388.215C306.789 388.421 306.692 388.61 306.541 388.748C306.389 388.885 306.194 388.96 305.992 388.959L282.444 389C282.385 389 282.326 388.988 282.271 388.965C282.216 388.941 282.167 388.907 282.125 388.864C282.084 388.822 282.052 388.771 282.03 388.715C282.009 388.659 281.998 388.6 282 388.54C283.358 331.72 312.554 280.557 357.633 247.269C368.239 239.448 379.665 233.025 391.912 228C391.928 227.999 391.944 228.002 391.959 228.01C391.973 228.018 391.984 228.03 391.991 228.045C391.999 228.06 392.001 228.076 391.999 228.092C391.997 228.108 391.99 228.124 391.979 228.136Z" fill="#24356D"/>
<path d="M417.913 233.598C408.019 244.439 399.479 257.078 392.293 271.514C374.316 307.673 366.942 346.958 367.532 387.182C367.532 387.289 367.511 387.395 367.47 387.495C367.429 387.594 367.368 387.684 367.293 387.76C367.217 387.836 367.126 387.897 367.027 387.938C366.928 387.979 366.822 388 366.714 388H324.779C324.673 388 324.567 387.979 324.469 387.936C324.371 387.894 324.283 387.832 324.21 387.753C324.137 387.675 324.081 387.583 324.045 387.482C324.009 387.382 323.994 387.275 324.002 387.168C325.316 369.333 328.448 352.418 333.4 336.425C338.869 318.822 346.819 303.608 357.745 286.716C372.993 263.129 392.906 245.235 417.484 233.035C417.559 232.999 417.644 232.991 417.724 233.01C417.804 233.03 417.876 233.077 417.926 233.143C417.976 233.209 418.002 233.29 418 233.373C417.997 233.456 417.967 233.535 417.913 233.598Z" fill="#24356D"/>
<path d="M479.087 233.598C479.033 233.535 479.003 233.456 479 233.373C478.998 233.29 479.024 233.209 479.074 233.143C479.124 233.077 479.195 233.03 479.276 233.01C479.356 232.991 479.441 232.999 479.516 233.035C504.093 245.225 524.006 263.117 539.256 286.711C550.177 303.601 558.124 318.815 563.591 336.416C568.549 352.408 571.685 369.325 572.998 387.168C573.006 387.275 572.991 387.382 572.955 387.483C572.919 387.583 572.863 387.675 572.79 387.753C572.717 387.832 572.629 387.894 572.531 387.936C572.433 387.979 572.328 388 572.221 388H530.291C530.183 388 530.077 387.979 529.978 387.938C529.879 387.897 529.788 387.836 529.713 387.76C529.637 387.684 529.576 387.594 529.535 387.495C529.494 387.396 529.473 387.289 529.473 387.182C530.063 346.961 522.692 307.666 504.709 271.511C497.526 257.076 488.986 244.438 479.087 233.598Z" fill="#24356D"/>
<path d="M439.96 236.372L440 388.23C440 388.427 439.924 388.616 439.787 388.755C439.651 388.895 439.467 388.973 439.274 388.973L384.43 389C384.316 389 384.207 388.954 384.126 388.873C384.045 388.792 384 388.682 384 388.568C384.108 335.374 398.128 273.023 439.341 236.089C439.396 236.043 439.462 236.013 439.533 236.003C439.603 235.994 439.675 236.004 439.74 236.034C439.804 236.064 439.859 236.111 439.898 236.171C439.937 236.231 439.959 236.301 439.96 236.372Z" fill="#24356D"/>
<path d="M457 236.37C457.001 236.299 457.022 236.229 457.061 236.17C457.1 236.111 457.155 236.063 457.22 236.034C457.285 236.004 457.356 235.994 457.427 236.003C457.497 236.013 457.563 236.042 457.618 236.088C498.842 272.775 512.879 334.726 513 387.571C513 387.685 512.955 387.794 512.874 387.874C512.793 387.955 512.684 388 512.57 388H457.725C457.533 388 457.348 387.922 457.212 387.784C457.076 387.646 457 387.458 457 387.263V236.37Z" fill="#24356D"/>
<path d="M448.507 394.013C453.495 394.013 456.173 394.018 456.541 394.027C456.886 394.03 457.215 394.167 457.457 394.408C457.7 394.648 457.836 394.973 457.836 395.311V400.207C457.836 400.346 457.863 400.484 457.917 400.612C457.97 400.74 458.049 400.857 458.147 400.955C458.246 401.053 458.364 401.131 458.493 401.184C458.622 401.237 458.761 401.264 458.901 401.264H511.153C511.392 401.264 511.622 401.168 511.792 400.998C511.961 400.827 512.056 400.596 512.056 400.355V395.552C512.056 395.147 512.218 394.759 512.506 394.473C512.795 394.187 513.185 394.027 513.593 394.027H529.298C529.677 394.027 530.041 394.176 530.309 394.442C530.577 394.708 530.727 395.069 530.727 395.445V400.328C530.727 400.576 530.827 400.814 531.004 400.99C531.181 401.166 531.421 401.264 531.671 401.264H571.669C571.823 401.264 571.97 401.205 572.079 401.1C572.188 400.994 572.249 400.851 572.249 400.702V395.097C572.249 394.81 572.364 394.534 572.569 394.331C572.773 394.128 573.051 394.013 573.341 394.013H589.208C589.598 394.013 589.971 394.167 590.247 394.44C590.523 394.714 590.677 395.085 590.677 395.472V400.301C590.677 400.429 590.703 400.556 590.752 400.675C590.802 400.793 590.874 400.901 590.966 400.992C591.057 401.082 591.165 401.154 591.285 401.203C591.404 401.252 591.532 401.278 591.661 401.278H624.178C624.396 401.278 624.605 401.364 624.759 401.517C624.913 401.67 625 401.877 625 402.094V405.117C625 405.351 624.906 405.576 624.739 405.741C624.573 405.907 624.346 406 624.11 406C507.077 405.955 448.543 405.933 448.507 405.933C448.462 405.933 389.923 405.951 272.89 405.987C272.654 405.987 272.427 405.894 272.261 405.728C272.094 405.562 272 405.338 272 405.104V402.08C272 401.864 272.087 401.656 272.241 401.503C272.395 401.35 272.604 401.264 272.822 401.264H305.338C305.599 401.264 305.85 401.161 306.034 400.978C306.219 400.795 306.323 400.547 306.323 400.288V395.458C306.323 395.071 306.477 394.701 306.753 394.427C307.029 394.154 307.402 394 307.792 394H323.659C323.949 394 324.227 394.114 324.431 394.317C324.636 394.521 324.751 394.796 324.751 395.084V400.689C324.751 400.838 324.812 400.981 324.921 401.086C325.03 401.192 325.177 401.251 325.331 401.251L365.329 401.264C365.579 401.264 365.819 401.166 365.996 400.99C366.173 400.814 366.273 400.576 366.273 400.328V395.445C366.273 395.069 366.423 394.708 366.691 394.442C366.959 394.176 367.323 394.027 367.702 394.027H383.407C383.815 394.027 384.205 394.187 384.494 394.473C384.782 394.759 384.944 395.147 384.944 395.552V400.355C384.944 400.596 385.039 400.827 385.208 400.998C385.378 401.168 385.607 401.264 385.847 401.264H438.099C438.239 401.264 438.378 401.237 438.507 401.184C438.636 401.131 438.754 401.053 438.852 400.955C438.951 400.857 439.03 400.74 439.083 400.612C439.137 400.484 439.164 400.346 439.164 400.207V395.311C439.163 395.142 439.195 394.975 439.259 394.819C439.323 394.662 439.418 394.519 439.538 394.399C439.658 394.278 439.801 394.182 439.959 394.116C440.117 394.05 440.287 394.015 440.459 394.013C440.827 394.013 443.51 394.013 448.507 394.013Z" fill="#24356D"/>
<path d="M323.648 412.116L308.152 412.089C307.334 412.087 306.671 412.748 306.669 413.566L306.642 429.062C306.641 429.879 307.302 430.543 308.119 430.544L323.616 430.572C324.433 430.573 325.097 429.912 325.098 429.094L325.125 413.598C325.127 412.781 324.465 412.117 323.648 412.116Z" fill="#24356D"/>
<path d="M383.305 412.072L368.212 412.046C367.253 412.044 366.475 412.82 366.474 413.778L366.447 428.871C366.446 429.83 367.221 430.608 368.179 430.61L383.272 430.636C384.231 430.638 385.009 429.862 385.011 428.904L385.037 413.811C385.039 412.852 384.263 412.074 383.305 412.072Z" fill="#24356D"/>
<path d="M455.944 412.033L440.986 412.007C439.975 412.005 439.155 412.823 439.153 413.833L439.127 428.792C439.125 429.802 439.943 430.623 440.953 430.624L455.912 430.651C456.922 430.652 457.743 429.835 457.744 428.824L457.77 413.866C457.772 412.855 456.955 412.035 455.944 412.033Z" fill="#24356D"/>
<path d="M528.686 412.102L513.674 412.049C512.693 412.046 511.896 412.838 511.892 413.819L511.84 428.831C511.836 429.811 512.629 430.609 513.609 430.613L528.621 430.665C529.602 430.668 530.4 429.876 530.403 428.896L530.456 413.883C530.459 412.903 529.667 412.105 528.686 412.102Z" fill="#24356D"/>
<path d="M589.055 412.143L573.316 412.116C572.581 412.114 571.983 412.71 571.982 413.445L571.955 429.184C571.953 429.919 572.548 430.516 573.284 430.518L589.023 430.545C589.758 430.547 590.355 429.951 590.357 429.216L590.384 413.477C590.385 412.742 589.79 412.144 589.055 412.143Z" fill="#24356D"/>
<path d="M622.668 435H274.332C273.044 435 272 436.019 272 437.276V444.724C272 445.981 273.044 447 274.332 447H622.668C623.956 447 625 445.981 625 444.724V437.276C625 436.019 623.956 435 622.668 435Z" fill="#24356D"/>
<path d="M450.276 496.003C723.993 495.994 864.889 496.003 872.964 496.03C873.238 496.03 873.502 496.14 873.696 496.334C873.891 496.529 874 496.792 874 497.068V679.506C874 680.223 873.859 680.932 873.584 681.594C873.309 682.255 872.906 682.855 872.398 683.359L775.431 778.936C774.765 779.6 773.865 779.973 772.927 779.973C770.657 779.982 662.923 779.991 449.724 780C176.007 780 35.1113 779.991 27.0363 779.973C26.7615 779.973 26.4979 779.864 26.3035 779.669C26.1092 779.475 26 779.211 26 778.936V596.497C25.9998 595.78 26.1412 595.071 26.4161 594.41C26.6909 593.748 27.0939 593.149 27.6016 592.645L124.569 497.068C124.898 496.736 125.288 496.473 125.717 496.293C126.147 496.112 126.607 496.019 127.073 496.017C129.343 496.008 237.077 496.003 450.276 496.003ZM219.209 670.076C219.259 670.138 219.323 670.188 219.395 670.222C219.467 670.257 219.546 670.275 219.626 670.275C219.706 670.275 219.785 670.257 219.857 670.222C219.929 670.188 219.993 670.138 220.043 670.076L283.567 589.775C283.637 589.689 283.732 589.627 283.838 589.597C283.945 589.567 284.058 589.571 284.163 589.608C284.267 589.644 284.358 589.713 284.422 589.803C284.487 589.893 284.522 590.001 284.522 590.112V686.026C284.522 686.097 284.536 686.167 284.563 686.232C284.59 686.298 284.63 686.357 284.68 686.407C284.73 686.457 284.789 686.497 284.855 686.524C284.92 686.551 284.99 686.565 285.061 686.565H320.981C321.124 686.565 321.261 686.508 321.362 686.407C321.463 686.306 321.519 686.169 321.519 686.026V531.567C321.519 531.424 321.463 531.287 321.362 531.186C321.261 531.085 321.124 531.028 320.981 531.028H283.298C283.217 531.029 283.138 531.047 283.066 531.082C282.994 531.117 282.93 531.167 282.88 531.23L220.097 610.615C220.046 610.677 219.983 610.727 219.911 610.761C219.839 610.796 219.76 610.813 219.68 610.813C219.6 610.813 219.521 610.796 219.449 610.761C219.377 610.727 219.313 610.677 219.263 610.615L169.305 547.53C169.258 547.469 169.199 547.419 169.132 547.383C169.064 547.347 168.99 547.325 168.913 547.32C168.837 547.315 168.76 547.326 168.689 547.353C168.617 547.38 168.552 547.422 168.497 547.476L117.961 597.306C117.909 597.357 117.868 597.417 117.841 597.484C117.813 597.552 117.799 597.624 117.8 597.696V686.026C117.8 686.169 117.856 686.306 117.957 686.407C118.058 686.508 118.195 686.565 118.338 686.565H154.38C154.522 686.565 154.659 686.508 154.76 686.407C154.861 686.306 154.918 686.169 154.918 686.026V590.435C154.919 590.324 154.954 590.217 155.018 590.126C155.082 590.036 155.173 589.968 155.277 589.931C155.382 589.894 155.495 589.89 155.602 589.92C155.709 589.95 155.803 590.013 155.874 590.099L219.209 670.076ZM335.772 560.759C335.414 561.108 335.13 561.526 334.936 561.986C334.742 562.446 334.642 562.94 334.641 563.439C334.614 573.866 334.619 605.617 334.655 658.693C334.668 670.696 342.286 681.082 353.241 685.137C355.968 686.143 361.262 686.637 369.122 686.619C406.222 686.529 436.293 686.533 459.333 686.632C465.955 686.668 470.638 686.192 473.384 685.204C484.756 681.136 492.158 670.965 492.158 658.491C492.158 597.827 492.172 565.128 492.199 560.395C492.32 543.906 481.028 531.297 464.394 531.163C431.34 530.902 398.986 530.889 367.332 531.122C366.365 531.123 365.437 531.505 364.748 532.187L335.772 560.759ZM506.088 686.565H541.228C541.51 686.565 541.78 686.453 541.979 686.253C542.179 686.053 542.291 685.783 542.291 685.501V627.737C542.291 627.597 542.345 627.464 542.441 627.365C542.537 627.267 542.667 627.211 542.802 627.211C551.281 627.184 580.329 627.184 629.945 627.211C646.378 627.225 658.329 614.198 658.073 597.804C657.984 591.697 657.966 579.847 658.02 562.254C658.038 556.03 657.499 551.643 656.405 549.093C651.219 537.086 641.843 531.068 628.277 531.042C573.429 530.925 543.255 530.965 537.755 531.163C535.871 531.226 534.256 531.944 532.91 533.318C528.46 537.844 519.582 546.623 506.276 559.654C505.965 559.962 505.718 560.328 505.549 560.733C505.38 561.138 505.293 561.572 505.294 562.012V685.77C505.294 685.981 505.377 686.183 505.526 686.332C505.675 686.481 505.877 686.565 506.088 686.565ZM788.458 649.829H708.744C708.602 649.829 708.465 649.771 708.364 649.667C708.263 649.564 708.206 649.423 708.206 649.277V568.37C708.206 568.227 708.261 568.09 708.36 567.989C708.458 567.888 708.592 567.831 708.731 567.831H795.134C795.351 567.831 795.56 567.918 795.714 568.072C795.868 568.226 795.955 568.435 795.955 568.653V580.669C795.955 580.775 795.976 580.88 796.016 580.978C796.057 581.076 796.116 581.165 796.191 581.24C796.266 581.315 796.355 581.375 796.453 581.416C796.551 581.456 796.656 581.477 796.762 581.477H832.185C832.393 581.477 832.593 581.395 832.742 581.249C832.89 581.103 832.975 580.904 832.979 580.696C833.104 571.967 833.095 564.302 832.952 557.701C832.683 545.55 824.648 535.514 813.141 532.173C810.539 531.419 805.918 531.037 799.279 531.028C777.396 531.001 748.316 530.983 712.042 530.974C709.494 530.974 706.416 531.082 702.809 531.297C701.933 531.35 701.106 531.713 700.481 532.321L672.084 560.328C671.743 560.664 671.472 561.065 671.287 561.507C671.102 561.949 671.007 562.422 671.007 562.901C670.935 619.201 670.926 651.257 670.98 659.07C671.061 671.679 679.795 682.604 691.787 685.824C693.788 686.363 699.467 686.632 708.825 686.632C734.513 686.623 748.393 686.605 750.465 686.578C751.364 686.562 752.216 686.205 752.847 685.581L788.647 650.287C788.684 650.25 788.709 650.202 788.719 650.15C788.729 650.098 788.724 650.045 788.703 649.996C788.683 649.947 788.65 649.905 788.606 649.876C788.562 649.846 788.511 649.83 788.458 649.829Z" fill="#EB7A02"/>
<path d="M219.549 670.462L156.126 590.246C156.056 590.16 155.961 590.098 155.854 590.068C155.748 590.038 155.634 590.041 155.529 590.078C155.425 590.115 155.334 590.184 155.27 590.274C155.205 590.365 155.17 590.473 155.169 590.584V686.46C155.169 686.603 155.113 686.74 155.011 686.842C154.91 686.943 154.773 687 154.63 687H118.539C118.396 687 118.259 686.943 118.158 686.842C118.057 686.74 118 686.603 118 686.46V597.867C117.999 597.794 118.013 597.722 118.041 597.654C118.069 597.587 118.11 597.526 118.162 597.475L168.768 547.497C168.822 547.443 168.887 547.401 168.959 547.374C169.031 547.347 169.108 547.335 169.184 547.341C169.261 547.346 169.335 547.367 169.403 547.403C169.47 547.44 169.53 547.49 169.576 547.551L219.602 610.824C219.653 610.886 219.717 610.936 219.789 610.971C219.861 611.005 219.94 611.023 220.02 611.023C220.1 611.023 220.179 611.005 220.251 610.971C220.324 610.936 220.387 610.886 220.438 610.824L283.308 531.203C283.358 531.14 283.422 531.089 283.494 531.054C283.566 531.019 283.645 531 283.726 531H321.461C321.604 531 321.741 531.057 321.842 531.158C321.943 531.26 322 531.397 322 531.54V686.46C322 686.603 321.943 686.74 321.842 686.842C321.741 686.943 321.604 687 321.461 687H285.491C285.42 687 285.35 686.986 285.285 686.959C285.219 686.932 285.16 686.892 285.11 686.842C285.06 686.792 285.02 686.732 284.993 686.666C284.966 686.601 284.952 686.531 284.952 686.46V590.26C284.951 590.149 284.916 590.04 284.852 589.95C284.787 589.859 284.697 589.791 284.592 589.754C284.487 589.717 284.374 589.713 284.267 589.743C284.16 589.774 284.065 589.836 283.995 589.922L220.384 670.462C220.334 670.524 220.27 670.575 220.198 670.609C220.125 670.643 220.046 670.661 219.966 670.661C219.886 670.661 219.807 670.643 219.735 670.609C219.663 670.575 219.599 670.524 219.549 670.462Z" fill="white"/>
<path d="M336.144 560.864L365.014 532.232C365.701 531.55 366.625 531.166 367.588 531.166C399.127 530.932 431.363 530.945 464.296 531.206C480.869 531.341 492.12 543.976 491.999 560.499C491.972 565.242 491.959 598.008 491.959 658.799C491.959 671.299 484.584 681.491 473.253 685.567C470.517 686.557 465.851 687.034 459.254 686.998C436.297 686.899 406.336 686.895 369.372 686.985C361.541 687.003 356.266 686.508 353.549 685.5C342.634 681.436 335.044 671.029 335.031 659.001C334.995 605.815 334.99 573.998 335.017 563.55C335.018 563.05 335.117 562.555 335.311 562.093C335.504 561.632 335.787 561.214 336.144 560.864ZM454.882 568.693C454.882 568.496 454.805 568.307 454.666 568.168C454.528 568.029 454.34 567.951 454.145 567.951H372.724C372.528 567.951 372.341 568.029 372.203 568.168C372.064 568.307 371.986 568.496 371.986 568.693V649.363C371.986 649.56 372.064 649.749 372.203 649.888C372.341 650.027 372.528 650.105 372.724 650.105H454.145C454.34 650.105 454.528 650.027 454.666 649.888C454.805 649.749 454.882 649.56 454.882 649.363V568.693Z" fill="white"/>
<path d="M505.795 687C505.584 687 505.382 686.916 505.233 686.767C505.084 686.617 505 686.415 505 686.203V562.117C505 561.677 505.087 561.241 505.255 560.835C505.424 560.43 505.672 560.062 505.984 559.753C519.309 546.688 528.199 537.886 532.656 533.348C534.003 531.97 535.621 531.25 537.508 531.187C543.015 530.989 573.232 530.948 628.157 531.065C641.742 531.092 651.131 537.125 656.325 549.164C657.421 551.721 657.96 556.12 657.942 562.36C657.888 580 657.906 591.881 657.996 598.004C658.252 614.442 646.284 627.503 629.828 627.49C580.141 627.462 551.052 627.462 542.562 627.49C542.426 627.49 542.296 627.545 542.2 627.644C542.103 627.743 542.049 627.877 542.049 628.016V685.933C542.049 686.216 541.937 686.487 541.738 686.687C541.538 686.888 541.267 687 540.985 687H505.795ZM620.812 568.708C620.812 568.508 620.732 568.315 620.591 568.174C620.449 568.032 620.257 567.952 620.057 567.952H542.858C542.759 567.952 542.661 567.972 542.569 568.01C542.478 568.048 542.395 568.103 542.324 568.174C542.254 568.244 542.199 568.327 542.161 568.419C542.123 568.511 542.103 568.609 542.103 568.708V589.806C542.103 589.905 542.123 590.004 542.161 590.095C542.199 590.187 542.254 590.27 542.324 590.341C542.395 590.411 542.478 590.467 542.569 590.505C542.661 590.543 542.759 590.562 542.858 590.562H620.057C620.257 590.562 620.449 590.483 620.591 590.341C620.732 590.199 620.812 590.006 620.812 589.806V568.708Z" fill="white"/>
<path d="M788.425 650.116C788.478 650.117 788.529 650.133 788.573 650.163C788.616 650.193 788.65 650.235 788.67 650.283C788.69 650.332 788.695 650.386 788.685 650.438C788.675 650.49 788.65 650.537 788.613 650.575L752.841 685.947C752.21 686.572 751.358 686.929 750.46 686.946C748.389 686.973 734.52 686.991 708.851 687C699.5 687 693.825 686.73 691.826 686.19C679.843 682.963 671.115 672.014 671.035 659.378C670.981 651.547 670.99 619.42 671.061 562.997C671.062 562.517 671.157 562.043 671.341 561.6C671.526 561.157 671.797 560.755 672.137 560.418L700.513 532.35C701.138 531.741 701.964 531.377 702.84 531.324C706.444 531.108 709.519 531 712.065 531C748.313 531.009 777.371 531.027 799.238 531.054C805.872 531.063 810.489 531.445 813.089 532.202C824.588 535.55 832.616 545.608 832.885 557.785C833.029 564.401 833.038 572.082 832.912 580.831C832.909 581.04 832.823 581.239 832.675 581.385C832.527 581.532 832.327 581.614 832.119 581.614H796.723C796.617 581.614 796.512 581.593 796.414 581.552C796.316 581.512 796.227 581.452 796.152 581.377C796.077 581.301 796.018 581.212 795.977 581.114C795.937 581.016 795.916 580.91 795.916 580.804V568.761C795.916 568.543 795.829 568.333 795.675 568.179C795.522 568.025 795.313 567.938 795.095 567.938H708.757C708.618 567.938 708.485 567.995 708.386 568.096C708.288 568.197 708.233 568.335 708.233 568.478V649.563C708.233 649.709 708.289 649.85 708.39 649.954C708.491 650.058 708.628 650.116 708.771 650.116H788.425Z" fill="white"/>
<path d="M454.262 568H372.738C372.331 568 372 568.332 372 568.741V649.259C372 649.668 372.331 650 372.738 650H454.262C454.669 650 455 649.668 455 649.259V568.741C455 568.332 454.669 568 454.262 568Z" fill="#EB7A02"/>
<path d="M620.242 568H542.758C542.339 568 542 568.344 542 568.769V590.231C542 590.656 542.339 591 542.758 591H620.242C620.661 591 621 590.656 621 590.231V568.769C621 568.344 620.661 568 620.242 568Z" fill="#EB7A02"/>
</svg>
