<svg width="2713" height="1159" viewBox="0 0 2713 1159" fill="none" xmlns="http://www.w3.org/2000/svg">
<path d="M2401.1 136L2400.73 135.88C2400.51 135.813 2400.33 135.883 2400.21 136.09L2286.12 333.58C2286.01 333.78 2285.85 333.947 2285.65 334.08C2285.57 334.133 2285.48 334.2 2285.38 334.28" stroke="#008BCC" stroke-width="2"/>
<path d="M2607.73 498.668C2607.44 498.841 2607.13 498.928 2606.82 498.928" stroke="#809266" stroke-width="2"/>
<path d="M2606.82 498.93C2605.91 498.603 2605.44 498.3 2605.43 498.02" stroke="#80B866" stroke-width="2"/>
<path d="M2605.43 498.019L2287.42 335.609C2287.13 335.456 2286.89 335.246 2286.7 334.979C2286.4 334.559 2286.06 334.486 2285.67 334.759" stroke="#45C672" stroke-width="2"/>
<path d="M2605.43 498.02C2603.45 498.633 2602.06 498.94 2601.25 498.94C2526.22 498.933 2451.19 498.933 2376.16 498.94C2375.98 498.94 2375.54 498.906 2374.84 498.84C2374.25 498.78 2373.8 498.84 2373.5 499.02" stroke="#C5CE0D" stroke-width="2"/>
<path d="M2606.82 498.93C2606.54 499.31 2605.71 499.856 2604.31 500.57C2498.85 554.423 2393.4 608.306 2287.97 662.22C2287.4 662.513 2286.88 662.43 2286.42 661.97" stroke="#FF9A00" stroke-width="2"/>
<path d="M2400.64 862.731L2285.64 663.391" stroke="#F83A00" stroke-width="2"/>
<path d="M2401.1 136L2400.73 135.88C2400.5 135.814 2400.33 135.884 2400.21 136.09L2286.12 333.58C2286.01 333.78 2285.85 333.947 2285.65 334.08C2285.57 334.134 2285.48 334.2 2285.38 334.28L2170.93 135.99C2170.9 135.939 2170.88 135.881 2170.88 135.822C2170.88 135.762 2170.9 135.704 2170.93 135.652C2170.96 135.601 2171 135.558 2171.05 135.528C2171.1 135.498 2171.16 135.481 2171.22 135.48C2247.65 135.487 2324.08 135.487 2400.5 135.48C2400.96 135.48 2401.16 135.654 2401.1 136Z" fill="#0066CC"/>
<path d="M2401.1 136L2607.73 498.67C2607.44 498.843 2607.14 498.93 2606.82 498.93C2605.91 498.603 2605.45 498.3 2605.43 498.02L2287.42 335.61C2287.13 335.457 2286.89 335.247 2286.7 334.98C2286.4 334.56 2286.06 334.487 2285.67 334.76C2285.54 334.26 2285.44 334.1 2285.38 334.28C2285.48 334.2 2285.57 334.133 2285.65 334.08C2285.85 333.947 2286.01 333.78 2286.12 333.58L2400.21 136.09C2400.33 135.883 2400.51 135.813 2400.73 135.88L2401.1 136Z" fill="#00B0CB"/>
<path d="M1585.81 248.07H1475.47C1475.23 248.07 1475.05 248.258 1475.05 248.49V358.81C1475.05 359.042 1475.23 359.23 1475.47 359.23H1585.81C1586.04 359.23 1586.23 359.042 1586.23 358.81V248.49C1586.23 248.258 1586.04 248.07 1585.81 248.07Z" fill="black"/>
<path d="M1162.74 511.211H1103.94C1103.43 511.211 1103.18 510.954 1103.18 510.441L1103.32 415.701C1103.32 415.439 1103.42 415.187 1103.61 415.001C1103.79 414.815 1104.04 414.711 1104.3 414.711L1162.28 414.691C1163.09 414.691 1163.49 414.288 1163.49 413.481L1163.48 304.451C1163.48 304.231 1163.59 304.121 1163.82 304.121H1274.98C1275.08 304.121 1275.17 304.159 1275.23 304.227C1275.3 304.294 1275.34 304.386 1275.34 304.481L1275.32 413.761C1275.32 414.01 1275.42 414.249 1275.59 414.426C1275.77 414.602 1276.01 414.701 1276.26 414.701H1373.01C1373.16 414.701 1373.3 414.76 1373.41 414.865C1373.51 414.97 1373.57 415.113 1373.57 415.261L1373.55 510.461C1373.55 510.607 1373.49 510.747 1373.39 510.85C1373.29 510.953 1373.15 511.011 1373 511.011L1275.83 511.131C1275.73 511.131 1275.63 511.172 1275.55 511.245C1275.48 511.318 1275.44 511.418 1275.44 511.521C1275.33 534.621 1275.31 559.864 1275.4 587.251C1275.55 634.098 1275.59 680.181 1275.52 725.501C1275.51 732.161 1276.65 738.438 1278.94 744.331C1282.12 752.501 1288.18 758.401 1296.43 761.281C1303.04 763.581 1309.23 764.774 1315.02 764.861C1332.77 765.121 1352.15 765.144 1373.17 764.931C1373.56 764.924 1373.76 765.118 1373.76 765.511V858.051C1373.76 858.471 1373.55 858.681 1373.13 858.681C1343.38 858.768 1318.46 858.754 1298.37 858.641C1271.05 858.491 1242.44 853.351 1219.08 840.001C1184.66 820.331 1169.05 786.071 1164.85 747.231C1164.09 740.218 1163.71 734.304 1163.71 729.491C1163.72 662.758 1163.66 599.178 1163.55 538.751C1163.54 529.931 1163.48 520.968 1163.39 511.861C1163.39 511.428 1163.17 511.211 1162.74 511.211Z" fill="black"/>
<path d="M2605.43 498.019C2603.45 498.633 2602.06 498.939 2601.25 498.939C2526.23 498.933 2451.2 498.933 2376.16 498.939C2375.98 498.939 2375.54 498.906 2374.84 498.839C2374.25 498.779 2373.8 498.839 2373.5 499.019L2285.67 334.759C2286.06 334.486 2286.4 334.559 2286.7 334.979C2286.89 335.246 2287.13 335.456 2287.42 335.609L2605.43 498.019Z" fill="#8ADB19"/>
<path d="M912.922 479.231L912.942 413.711C912.942 413.552 913.005 413.399 913.118 413.286C913.23 413.174 913.383 413.111 913.542 413.111H1024.14C1024.3 413.111 1024.46 413.175 1024.57 413.289C1024.69 413.404 1024.75 413.559 1024.75 413.721C1024.77 559.687 1024.76 704.771 1024.74 848.971C1024.74 875.197 1021.16 902.827 1014 931.861C1005.72 965.454 989.275 993.971 964.682 1017.41C930.262 1050.21 886.182 1067.84 838.842 1072.29C815.602 1074.47 792.175 1074.29 768.562 1071.75C717.812 1066.3 667.672 1047.48 631.902 1010.87C612.955 991.471 599.868 968.787 592.642 942.821C589.782 932.554 587.805 922.154 586.712 911.621C586.706 911.576 586.71 911.53 586.724 911.486C586.738 911.443 586.762 911.403 586.793 911.369C586.824 911.335 586.863 911.307 586.905 911.289C586.948 911.27 586.995 911.261 587.042 911.261H696.472C696.845 911.261 697.082 911.437 697.182 911.791C703.442 933.251 718.082 949.851 737.442 960.831C760.562 973.951 787.562 978.281 813.982 976.651C840.342 975.031 864.682 965.881 883.482 947.441C890.772 940.281 896.012 930.431 899.872 920.741C909.932 895.491 913.002 867.901 912.952 840.971C912.925 825.824 912.912 810.314 912.912 794.441C912.912 793.361 912.592 793.254 911.952 794.121C902.065 807.574 890.338 819.341 876.772 829.421C849.005 850.054 818.028 861.537 783.842 863.871C769.388 864.857 755.622 864.527 742.542 862.881C688.992 856.121 641.512 826.801 610.502 782.691C586.192 748.101 572.692 707.771 568.942 665.671C566.482 638.051 567.352 608.921 572.542 581.641C582.242 530.701 608.422 481.511 649.922 450.071C682.095 425.684 718.928 412.774 760.422 411.341C778.202 410.727 795.228 412.107 811.502 415.481C850.892 423.631 888.222 446.231 912.112 479.491C912.652 480.251 912.922 480.164 912.922 479.231ZM684.922 600.471C680.302 621.371 679.828 642.947 683.502 665.201C693.962 728.521 749.832 776.151 815.182 765.251C848.412 759.701 876.022 741.321 893.732 712.701C912.012 683.151 915.792 646.451 911.062 612.311C905.532 572.401 882.962 537.631 846.562 520.211C802.392 499.091 747.202 507.631 713.852 544.711C699.172 561.031 689.528 579.617 684.922 600.471Z" fill="black"/>
<path d="M2107.74 563.131C2108.13 564.511 2108.45 565.884 2108.68 567.251C2108.73 567.604 2108.58 567.781 2108.23 567.781L1986.06 568.071C1985.79 568.071 1985.54 567.986 1985.32 567.829C1985.11 567.672 1984.96 567.452 1984.89 567.201C1983.87 563.754 1982.48 560.294 1980.73 556.821C1965.37 526.301 1938.71 510.171 1905.28 507.421C1879.46 505.291 1853.13 510.431 1832.42 526.531C1808.17 545.381 1795.51 573.621 1791 604.041C1787.37 628.481 1787.52 652.664 1791.46 676.591C1797.17 711.211 1814.54 743.311 1846.5 759.801C1860.5 767.041 1876.46 770.211 1892.71 770.451C1927.64 770.951 1959.47 759.411 1977.3 727.861C1980.38 722.414 1982.95 716.741 1985.02 710.841C1985.09 710.645 1985.21 710.475 1985.38 710.354C1985.55 710.234 1985.75 710.17 1985.96 710.171H2108.26C2108.35 710.171 2108.44 710.191 2108.52 710.231C2108.59 710.27 2108.66 710.327 2108.72 710.398C2108.77 710.468 2108.81 710.55 2108.83 710.637C2108.84 710.725 2108.84 710.815 2108.82 710.901C2100.27 742.901 2086.27 770.361 2066.82 793.281C2045.21 818.761 2017.57 838.481 1986.14 850.391C1967.35 857.517 1947.34 862.121 1926.11 864.201C1905.35 866.227 1885.01 866.211 1865.09 864.151C1816.3 859.101 1769.26 838.851 1734.51 804.181C1702.49 772.251 1682.08 730.551 1674.99 685.711C1669.79 652.857 1670.06 620.197 1675.8 587.731C1679.3 567.891 1685.96 547.001 1695.26 528.641C1719.47 480.807 1756.67 447.197 1806.86 427.811C1841.34 414.491 1879.24 410.781 1917.36 413.221C1939.95 414.671 1963.4 418.821 1984.63 426.631C2038.3 446.371 2076.2 482.691 2098.35 535.591C2101.58 543.304 2104.71 552.484 2107.74 563.131Z" fill="black"/>
<path d="M503.891 568.262C512.781 599.012 515.171 632.452 512.391 664.212C508.471 708.818 493.361 748.018 467.061 781.812C432.591 826.122 382.421 854.032 327.251 862.832C302.078 866.845 276.851 867.302 251.571 864.202C194.501 857.222 141.801 829.212 107.191 783.532C87.8776 758.052 74.8176 729.655 68.0109 698.342C60.8842 665.535 59.8876 631.945 65.0209 597.572C70.5809 560.345 84.6076 526.925 107.101 497.312C142.091 451.252 194.531 423.142 252.061 415.332C329.681 404.792 410.451 428.412 461.431 488.902C481.231 512.395 495.384 538.848 503.891 568.262ZM207.301 542.722C188.131 562.482 178.531 588.982 175.691 616.872C173.578 637.678 174.288 657.715 177.821 676.982C183.161 706.052 196.891 731.192 220.311 748.832C257.531 776.872 311.981 775.482 349.711 749.262C375.751 731.152 391.851 701.542 396.831 669.902C400.158 648.775 399.984 627.282 396.311 605.422C395.051 597.922 393.041 590.265 390.281 582.452C382.688 560.972 369.378 543.402 350.351 529.742C325.241 511.702 293.141 506.102 262.821 512.042C241.608 516.202 223.101 526.428 207.301 542.722Z" fill="black"/>
<path d="M1585.68 414.48H1475.64C1475.34 414.48 1475.1 414.722 1475.1 415.02V858.18C1475.1 858.479 1475.34 858.72 1475.64 858.72H1585.68C1585.98 858.72 1586.22 858.479 1586.22 858.18V415.02C1586.22 414.722 1585.98 414.48 1585.68 414.48Z" fill="black"/>
<path d="M2605.43 498.02C2605.45 498.3 2605.91 498.603 2606.82 498.93C2606.54 499.31 2605.71 499.856 2604.31 500.57C2498.85 554.423 2393.4 608.306 2287.97 662.22C2287.4 662.513 2286.88 662.43 2286.42 661.97L2373.5 499.02C2373.8 498.84 2374.25 498.78 2374.84 498.84C2375.54 498.906 2375.98 498.94 2376.16 498.94C2451.2 498.933 2526.23 498.933 2601.25 498.94C2602.06 498.94 2603.45 498.633 2605.43 498.02Z" fill="#FFC000"/>
<path d="M2607.73 498.672C2607.73 498.872 2607.72 499.055 2607.7 499.222C2607.69 499.395 2607.63 499.569 2607.53 499.742C2539.15 619.795 2470.8 739.862 2402.47 859.942C2401.87 860.995 2401.26 861.925 2400.64 862.732L2285.64 663.392L2286.42 661.972C2286.88 662.432 2287.4 662.515 2287.97 662.222C2393.4 608.308 2498.84 554.425 2604.31 500.572C2605.7 499.859 2606.54 499.312 2606.82 498.932C2607.13 498.932 2607.44 498.845 2607.73 498.672Z" fill="#FF7300"/>
<path d="M2285.64 663.391L2400.64 862.731L2171.33 862.741C2170.83 862.741 2170.71 862.524 2170.96 862.091L2285.64 663.391Z" fill="#F10000"/>
<path d="M2511.61 929.06L2495.54 936.92C2495.46 936.957 2495.38 936.975 2495.3 936.972C2495.21 936.968 2495.13 936.943 2495.06 936.899C2494.99 936.854 2494.93 936.793 2494.89 936.719C2494.85 936.646 2494.83 936.564 2494.83 936.48L2494.84 930.9C2494.84 930.812 2494.86 930.726 2494.9 930.651C2494.95 930.575 2495.01 930.513 2495.09 930.47L2511.24 921.52C2511.31 921.478 2511.4 921.456 2511.48 921.457C2511.57 921.458 2511.65 921.481 2511.73 921.525C2511.8 921.568 2511.86 921.631 2511.9 921.705C2511.95 921.78 2511.97 921.864 2511.97 921.95L2511.88 928.63C2511.88 928.719 2511.85 928.807 2511.8 928.883C2511.76 928.958 2511.69 929.02 2511.61 929.06Z" fill="black"/>
<path d="M1175.05 940.258L1181.5 940.228C1182.02 940.222 1182.28 940.478 1182.28 940.998L1182.26 946.788C1182.26 947.322 1181.99 947.585 1181.46 947.578L1175.08 947.498C1174.99 947.497 1174.91 947.513 1174.83 947.544C1174.75 947.576 1174.68 947.623 1174.62 947.682C1174.56 947.742 1174.51 947.813 1174.48 947.891C1174.44 947.969 1174.43 948.054 1174.43 948.138L1174.46 981.768C1174.46 982.255 1174.21 982.498 1173.73 982.498L1166.26 982.478C1166.16 982.478 1166.07 982.46 1165.98 982.423C1165.89 982.387 1165.81 982.334 1165.74 982.267C1165.68 982.2 1165.62 982.12 1165.59 982.033C1165.55 981.946 1165.54 981.852 1165.54 981.758L1165.57 948.268C1165.57 948.165 1165.55 948.063 1165.51 947.968C1165.47 947.872 1165.41 947.786 1165.33 947.713C1165.26 947.641 1165.17 947.583 1165.07 947.545C1164.98 947.506 1164.87 947.487 1164.77 947.488L1161.56 947.548C1160.88 947.562 1160.55 947.232 1160.55 946.558V941.198C1160.54 940.525 1160.87 940.192 1161.55 940.198L1164.91 940.248C1165.02 940.25 1165.13 940.229 1165.23 940.185C1165.33 940.141 1165.43 940.076 1165.5 939.993C1165.58 939.911 1165.64 939.814 1165.67 939.708C1165.71 939.602 1165.72 939.49 1165.71 939.378C1164.62 928.732 1169.71 923.442 1180.98 923.508C1181.35 923.508 1181.54 923.695 1181.54 924.068L1181.49 930.458C1181.49 930.812 1181.31 930.985 1180.96 930.978C1174.84 930.948 1174.15 934.688 1174.45 939.688C1174.47 940.068 1174.67 940.258 1175.05 940.258Z" fill="black"/>
<path d="M1194.18 934.949C1197.31 934.949 1199.85 932.411 1199.85 929.279C1199.85 926.148 1197.31 923.609 1194.18 923.609C1191.05 923.609 1188.51 926.148 1188.51 929.279C1188.51 932.411 1191.05 934.949 1194.18 934.949Z" fill="black"/>
<path d="M1259.89 934.958C1263.04 934.958 1265.58 932.411 1265.58 929.268C1265.58 926.126 1263.04 923.578 1259.89 923.578C1256.75 923.578 1254.2 926.126 1254.2 929.268C1254.2 932.411 1256.75 934.958 1259.89 934.958Z" fill="black"/>
<path d="M2059.28 944.781L2059.29 926.081C2059.29 925.821 2059.41 925.691 2059.67 925.691L2067.77 925.621C2068.03 925.621 2068.17 925.758 2068.17 926.031L2068.15 981.211C2068.15 981.784 2067.86 982.074 2067.29 982.081H2060.01C2059.9 982.081 2059.8 982.06 2059.7 982.018C2059.6 981.977 2059.51 981.916 2059.44 981.84C2059.37 981.763 2059.31 981.673 2059.27 981.573C2059.23 981.474 2059.21 981.368 2059.22 981.261L2059.35 977.251C2059.37 976.531 2059.14 976.434 2058.66 976.961C2054.86 981.021 2050.14 982.998 2044.52 982.891C2023.85 982.501 2018.01 953.101 2033.94 942.621C2041.76 937.471 2052.14 938.421 2058.63 945.051C2059.06 945.491 2059.28 945.401 2059.28 944.781ZM2046.83 975.11C2048.49 975.09 2050.14 974.706 2051.67 973.981C2053.2 973.257 2054.58 972.205 2055.74 970.886C2056.9 969.567 2057.82 968.007 2058.44 966.294C2059.05 964.582 2059.36 962.751 2059.34 960.906C2059.31 959.061 2058.96 957.238 2058.3 955.542C2057.65 953.845 2056.69 952.308 2055.5 951.017C2054.31 949.727 2052.9 948.709 2051.35 948.022C2049.8 947.335 2048.15 946.992 2046.48 947.012C2044.82 947.032 2043.18 947.416 2041.65 948.141C2040.12 948.866 2038.73 949.917 2037.57 951.236C2036.41 952.555 2035.49 954.116 2034.88 955.828C2034.26 957.54 2033.95 959.371 2033.98 961.216C2034 963.061 2034.35 964.884 2035.01 966.581C2035.67 968.277 2036.62 969.815 2037.81 971.105C2039.01 972.395 2040.42 973.413 2041.96 974.1C2043.51 974.787 2045.16 975.13 2046.83 975.11Z" fill="black"/>
<path d="M2387.81 925.641H2379.85C2379.54 925.641 2379.3 925.887 2379.3 926.191V981.531C2379.3 981.834 2379.54 982.081 2379.85 982.081H2387.81C2388.11 982.081 2388.36 981.834 2388.36 981.531V926.191C2388.36 925.887 2388.11 925.641 2387.81 925.641Z" fill="black"/>
<path d="M1513.27 977.93L1513.26 981.37C1513.26 981.601 1513.17 981.824 1513 981.988C1512.84 982.153 1512.61 982.247 1512.38 982.25L1505.15 982.3C1504.55 982.306 1504.25 982.006 1504.25 981.4V926.51C1504.25 926.01 1504.5 925.763 1504.99 925.77L1512.19 925.85C1512.75 925.856 1513.03 926.136 1513.03 926.69L1513.12 944.96C1513.13 945.766 1513.4 945.87 1513.94 945.27C1521.13 937.27 1534.15 937.84 1541.4 945.01C1547.06 950.62 1548.44 959.26 1546.85 966.86C1544.63 977.5 1535.33 984.52 1524.4 982.83C1520.41 982.21 1516.97 980.463 1514.1 977.59C1513.55 977.03 1513.27 977.143 1513.27 977.93ZM1525.45 975.255C1527.12 975.296 1528.78 974.973 1530.34 974.305C1531.89 973.637 1533.32 972.637 1534.53 971.361C1535.74 970.086 1536.72 968.56 1537.4 966.872C1538.08 965.183 1538.45 963.365 1538.5 961.52C1538.59 957.795 1537.34 954.19 1535.02 951.497C1532.7 948.805 1529.5 947.246 1526.13 947.164C1524.46 947.123 1522.8 947.446 1521.24 948.114C1519.69 948.782 1518.26 949.783 1517.05 951.058C1515.84 952.334 1514.86 953.859 1514.18 955.548C1513.5 957.236 1513.13 959.055 1513.08 960.899C1512.99 964.624 1514.24 968.23 1516.56 970.922C1518.88 973.614 1522.08 975.173 1525.45 975.255Z" fill="black"/>
<path d="M1996.53 925.691H1988.31C1988.06 925.691 1987.87 925.888 1987.87 926.131V981.751C1987.87 981.994 1988.06 982.191 1988.31 982.191H1996.53C1996.77 982.191 1996.97 981.994 1996.97 981.751V926.131C1996.97 925.888 1996.77 925.691 1996.53 925.691Z" fill="black"/>
<path d="M1437.07 960.909C1437.09 960.828 1437.09 960.743 1437.07 960.661C1437.05 960.58 1437.02 960.503 1436.97 960.437C1436.91 960.372 1436.85 960.319 1436.77 960.283C1436.7 960.247 1436.61 960.228 1436.53 960.229L1418.09 960.199C1417.98 960.199 1417.86 960.177 1417.76 960.133C1417.66 960.089 1417.56 960.024 1417.48 959.943C1417.4 959.862 1417.34 959.766 1417.3 959.661C1417.26 959.555 1417.24 959.443 1417.24 959.329L1417.36 953.859C1417.37 953.353 1417.63 953.099 1418.14 953.099L1445.78 953.109C1446.39 953.116 1446.7 953.423 1446.73 954.029C1447.3 966.316 1442.27 975.099 1431.62 980.379C1427.03 982.653 1422.06 983.386 1416.69 982.579C1401.86 980.339 1392.46 968.899 1393.32 953.849C1394.27 937.349 1408.43 926.679 1424.53 928.829C1433.88 930.069 1441.53 935.549 1445.03 944.489C1445.08 944.616 1445.03 944.679 1444.9 944.679L1434.69 944.659C1434.54 944.659 1434.44 944.599 1434.37 944.479C1431.46 939.553 1427.17 936.993 1421.52 936.799C1394.93 935.909 1396.53 977.329 1422.61 974.669C1430.39 973.869 1435.33 968.679 1437.07 960.909Z" fill="black"/>
<path d="M1156.37 955.81C1156.37 963.053 1153.49 969.999 1148.37 975.121C1143.25 980.243 1136.3 983.12 1129.06 983.12C1121.82 983.12 1114.87 980.243 1109.75 975.121C1104.63 969.999 1101.75 963.053 1101.75 955.81C1101.75 948.567 1104.63 941.621 1109.75 936.499C1114.87 931.377 1121.82 928.5 1129.06 928.5C1136.3 928.5 1143.25 931.377 1148.37 936.499C1153.49 941.621 1156.37 948.567 1156.37 955.81ZM1140.38 940.31C1134.79 935.72 1125.91 935.25 1119.68 938.96C1114.99 941.747 1112.22 946.073 1111.38 951.94C1106.92 982.99 1151.03 982.72 1146.76 952.21C1146.06 947.19 1143.93 943.223 1140.38 940.31Z" fill="black"/>
<path d="M2166.53 936.671C2166.41 936.858 2166.35 937.064 2166.35 937.291C2166.43 951.824 2166.43 966.568 2166.36 981.521C2166.36 981.599 2166.35 981.677 2166.32 981.749C2166.29 981.821 2166.24 981.887 2166.19 981.942C2166.13 981.997 2166.06 982.04 2165.99 982.069C2165.92 982.098 2165.84 982.112 2165.76 982.111L2158.02 982.031C2157.69 982.031 2157.52 981.861 2157.52 981.521V937.111C2157.52 936.936 2157.45 936.768 2157.33 936.644C2157.2 936.521 2157.04 936.451 2156.86 936.451L2144.09 936.431C2143.98 936.43 2143.88 936.407 2143.78 936.364C2143.68 936.321 2143.59 936.258 2143.51 936.18C2143.44 936.102 2143.38 936.01 2143.34 935.909C2143.3 935.808 2143.28 935.7 2143.28 935.591L2143.42 929.731C2143.43 929.344 2143.63 929.151 2144.02 929.151L2179.72 929.121C2180.13 929.121 2180.33 929.321 2180.33 929.721L2180.41 935.731C2180.41 935.831 2180.39 935.931 2180.36 936.023C2180.32 936.116 2180.26 936.201 2180.19 936.271C2180.12 936.342 2180.04 936.398 2179.94 936.436C2179.85 936.474 2179.75 936.492 2179.65 936.491L2167.07 936.391C2166.96 936.388 2166.86 936.413 2166.76 936.462C2166.67 936.511 2166.59 936.583 2166.53 936.671Z" fill="black"/>
<path d="M1918.49 948.032L1918.5 971.132C1918.5 972.094 1918.88 973.016 1919.56 973.696C1920.24 974.376 1921.16 974.759 1922.13 974.762L1928.46 974.792C1928.59 974.792 1928.66 974.859 1928.66 974.992L1928.64 981.962C1928.64 982.04 1928.61 982.115 1928.55 982.171C1928.5 982.227 1928.42 982.259 1928.35 982.262C1919.46 982.562 1909.7 982.782 1909.53 971.252C1909.42 964.232 1909.4 956.539 1909.46 948.172C1909.46 947.525 1909.14 947.219 1908.49 947.252L1905.41 947.422C1904.9 947.449 1904.65 947.212 1904.66 946.712L1904.75 941.002C1904.75 940.335 1905.09 940.012 1905.75 940.032L1908.53 940.092C1908.64 940.096 1908.76 940.076 1908.87 940.035C1908.98 939.993 1909.08 939.93 1909.16 939.849C1909.25 939.767 1909.32 939.67 1909.36 939.563C1909.41 939.455 1909.44 939.339 1909.44 939.222L1909.49 930.342C1909.49 930.164 1909.56 929.994 1909.68 929.868C1909.81 929.742 1909.98 929.672 1910.16 929.672H1917.83C1918.27 929.672 1918.5 929.892 1918.5 930.332V939.282C1918.5 939.486 1918.58 939.682 1918.72 939.826C1918.87 939.971 1919.07 940.052 1919.28 940.052L1928.07 939.992C1928.22 939.992 1928.36 940.053 1928.47 940.161C1928.58 940.27 1928.64 940.417 1928.65 940.572L1928.71 946.692C1928.71 946.784 1928.69 946.876 1928.66 946.961C1928.62 947.047 1928.57 947.125 1928.5 947.19C1928.44 947.255 1928.36 947.307 1928.28 947.341C1928.19 947.376 1928.1 947.393 1928.01 947.392L1919.22 947.302C1919.12 947.301 1919.03 947.318 1918.94 947.355C1918.85 947.391 1918.77 947.444 1918.7 947.512C1918.63 947.58 1918.58 947.661 1918.54 947.75C1918.51 947.839 1918.49 947.935 1918.49 948.032Z" fill="black"/>
<path d="M2085.72 965.301C2087.37 972.241 2091.7 975.557 2098.71 975.251C2102.46 975.091 2105.28 973.224 2107.17 969.651C2107.2 969.595 2107.24 969.549 2107.29 969.515C2107.34 969.482 2107.39 969.463 2107.45 969.461C2110.3 969.301 2113.47 969.307 2116.97 969.481C2116.98 969.482 2116.99 969.485 2117 969.49C2117 969.494 2117.01 969.5 2117.01 969.507C2117.02 969.513 2117.02 969.521 2117.02 969.528C2117.02 969.536 2117.02 969.544 2117.02 969.551C2114.72 975.797 2110.61 979.887 2104.7 981.821C2101.24 982.947 2097.53 983.181 2093.58 982.521C2084 980.911 2077.66 973.731 2076.7 964.051C2075.67 953.671 2079.81 943.761 2090.01 940.491C2094.2 939.144 2098.29 938.901 2102.27 939.761C2114.03 942.301 2119.17 952.301 2117.94 963.741C2117.9 964.081 2117.71 964.267 2117.37 964.301C2116.18 964.427 2114.97 964.491 2113.74 964.491C2104.17 964.477 2095.05 964.467 2086.38 964.461C2085.81 964.461 2085.59 964.741 2085.72 965.301ZM2086.11 957.451L2108.61 957.051C2108.66 957.051 2108.7 957.033 2108.73 957.001C2108.76 956.969 2108.78 956.926 2108.78 956.881L2108.77 956.831C2108.72 954.143 2107.48 951.586 2105.33 949.722C2103.17 947.858 2100.27 946.839 2097.27 946.891H2097.09C2095.6 946.917 2094.13 947.205 2092.77 947.739C2091.4 948.272 2090.17 949.041 2089.13 950.002C2088.1 950.962 2087.28 952.094 2086.73 953.335C2086.19 954.575 2085.92 955.899 2085.94 957.231V957.281C2085.94 957.326 2085.96 957.369 2085.99 957.401C2086.02 957.433 2086.06 957.451 2086.11 957.451Z" fill="black"/>
<path d="M2195.3 965.041C2196.52 971.034 2200 974.421 2205.72 975.201C2209.11 975.661 2212.05 974.798 2214.55 972.611C2215.53 971.751 2216.03 970.461 2217.06 969.691C2217.34 969.478 2217.65 969.371 2218.01 969.371L2225.77 969.381C2225.87 969.382 2225.96 969.407 2226.05 969.454C2226.14 969.502 2226.21 969.57 2226.27 969.653C2226.33 969.736 2226.36 969.831 2226.37 969.93C2226.38 970.029 2226.37 970.129 2226.33 970.221C2223.52 977.114 2218.56 981.201 2211.45 982.481C2200.9 984.381 2189.99 978.981 2187.07 968.321C2183.75 956.161 2188.55 942.571 2202.08 939.771C2218.05 936.471 2229.19 947.851 2227.37 963.671C2227.3 964.211 2227 964.481 2226.46 964.481L2195.77 964.471C2195.7 964.471 2195.63 964.487 2195.56 964.518C2195.5 964.548 2195.44 964.592 2195.39 964.647C2195.35 964.701 2195.32 964.765 2195.3 964.833C2195.28 964.902 2195.28 964.973 2195.3 965.041ZM2195.75 957.161L2218.19 957.121C2218.22 957.121 2218.25 957.108 2218.27 957.086C2218.29 957.063 2218.31 957.033 2218.31 957.001V956.921C2218.31 955.597 2218.01 954.287 2217.45 953.065C2216.88 951.843 2216.05 950.733 2215.01 949.799C2213.96 948.864 2212.73 948.124 2211.36 947.62C2210 947.116 2208.54 946.858 2207.07 946.861H2206.83C2203.85 946.867 2201 947.934 2198.9 949.828C2196.8 951.722 2195.62 954.288 2195.63 956.961V957.041C2195.63 957.073 2195.64 957.103 2195.66 957.126C2195.69 957.148 2195.72 957.161 2195.75 957.161Z" fill="black"/>
<path d="M2248.4 948.112C2241.8 950.862 2241.35 961.302 2242.95 966.982C2244.31 971.832 2248.16 975.032 2253.3 975.282C2257.96 975.508 2261.36 973.395 2263.52 968.942C2263.56 968.857 2263.62 968.785 2263.7 968.734C2263.77 968.683 2263.86 968.654 2263.96 968.652C2268.59 968.605 2271.64 968.645 2273.12 968.772C2273.16 968.778 2273.18 968.802 2273.17 968.842C2271.25 974.902 2267.61 979.025 2262.27 981.212C2253.03 985.002 2241.51 982.372 2236.12 973.312C2233.34 968.632 2232.43 963.018 2233.4 956.471C2234.83 946.811 2241.89 940.122 2251.73 939.372C2261.78 938.602 2269.83 942.732 2273.01 952.762C2273.16 953.255 2272.98 953.502 2272.46 953.502H2264.48C2264.02 953.502 2263.68 953.302 2263.46 952.902C2260.07 946.935 2255.05 945.338 2248.4 948.112Z" fill="black"/>
<path d="M2291.45 943.52C2294.95 940.16 2300.22 938.78 2304.97 939.34C2316.72 940.73 2320.27 949.04 2320.09 959.76C2319.97 967.133 2319.96 974.416 2320.07 981.61C2320.07 981.983 2319.88 982.17 2319.51 982.17L2311.75 982.11C2311.35 982.11 2311.14 981.91 2311.14 981.51C2311.06 974.53 2311.07 967.473 2311.19 960.34C2311.25 956.52 2310.8 953.743 2309.86 952.01C2308.06 948.71 2305.14 947.067 2301.12 947.08C2291.62 947.11 2290.1 954.46 2290.24 962.11C2290.36 968.563 2290.47 974.976 2290.57 981.35C2290.57 981.454 2290.55 981.557 2290.51 981.654C2290.47 981.75 2290.41 981.838 2290.34 981.911C2290.26 981.985 2290.18 982.043 2290.08 982.082C2289.98 982.122 2289.88 982.141 2289.78 982.14L2282.25 982.02C2281.73 982.013 2281.48 981.757 2281.48 981.25L2281.49 940.76C2281.49 940.561 2281.57 940.37 2281.71 940.23C2281.85 940.089 2282.04 940.01 2282.24 940.01L2289.62 940.02C2290.02 940.02 2290.23 940.22 2290.24 940.62L2290.29 943.04C2290.31 944.08 2290.69 944.24 2291.45 943.52Z" fill="black"/>
<path d="M2345.08 982.532C2342.28 981.958 2339.63 980.833 2337.27 979.22C2334.91 977.608 2332.89 975.539 2331.32 973.133C2329.75 970.727 2328.67 968.031 2328.14 965.198C2327.61 962.365 2327.63 959.451 2328.21 956.622C2328.79 953.793 2329.92 951.105 2331.52 948.711C2333.13 946.317 2335.19 944.264 2337.57 942.67C2339.96 941.075 2342.63 939.97 2345.44 939.418C2348.24 938.866 2351.12 938.877 2353.92 939.45C2356.72 940.024 2359.37 941.15 2361.73 942.762C2364.09 944.375 2366.11 946.443 2367.68 948.849C2369.24 951.255 2370.32 953.952 2370.86 956.785C2371.39 959.618 2371.37 962.532 2370.78 965.361C2370.2 968.189 2369.08 970.878 2367.47 973.271C2365.87 975.665 2363.81 977.718 2361.42 979.313C2359.04 980.907 2356.36 982.012 2353.56 982.565C2350.75 983.117 2347.87 983.106 2345.08 982.532ZM2349.04 975.126C2352.38 975.219 2355.61 973.82 2358.04 971.237C2360.47 968.654 2361.9 965.098 2362 961.352C2362.06 959.497 2361.78 957.652 2361.2 955.92C2360.61 954.189 2359.73 952.606 2358.6 951.262C2357.47 949.918 2356.12 948.839 2354.61 948.086C2353.11 947.334 2351.48 946.923 2349.83 946.877C2346.5 946.784 2343.26 948.183 2340.83 950.766C2338.4 953.349 2336.98 956.904 2336.87 960.65C2336.82 962.505 2337.1 964.351 2337.68 966.082C2338.26 967.814 2339.14 969.397 2340.27 970.741C2341.4 972.085 2342.76 973.164 2344.27 973.916C2345.77 974.669 2347.39 975.08 2349.04 975.126Z" fill="black"/>
<path d="M2413.75 982.535C2408.1 981.397 2403.15 978.034 2399.97 973.184C2396.8 968.335 2395.66 962.398 2396.81 956.678C2397.39 953.846 2398.5 951.153 2400.1 948.752C2401.7 946.351 2403.74 944.29 2406.12 942.685C2408.5 941.081 2411.17 939.966 2413.97 939.403C2416.77 938.84 2419.65 938.84 2422.44 939.403C2428.09 940.541 2433.04 943.905 2436.22 948.754C2439.4 953.603 2440.53 959.541 2439.38 965.26C2438.81 968.092 2437.69 970.786 2436.09 973.187C2434.5 975.588 2432.45 977.649 2430.07 979.253C2427.69 980.857 2425.02 981.973 2422.22 982.536C2419.42 983.099 2416.54 983.099 2413.75 982.535ZM2417.55 975.111C2420.88 975.222 2424.12 973.84 2426.57 971.27C2429.01 968.7 2430.46 965.152 2430.58 961.406C2430.64 959.552 2430.38 957.704 2429.8 955.97C2429.23 954.236 2428.35 952.648 2427.23 951.298C2426.11 949.948 2424.76 948.862 2423.26 948.102C2421.76 947.341 2420.13 946.922 2418.48 946.867C2415.15 946.757 2411.91 948.138 2409.46 950.709C2407.02 953.279 2405.58 956.827 2405.45 960.572C2405.39 962.427 2405.66 964.274 2406.23 966.009C2406.8 967.743 2407.68 969.33 2408.8 970.68C2409.92 972.031 2411.28 973.117 2412.78 973.877C2414.28 974.637 2415.9 975.057 2417.55 975.111Z" fill="black"/>
<path d="M2478.84 976.72C2471 985.08 2457.36 984.72 2450.13 975.76C2446.41 971.153 2444.76 965.633 2445.19 959.2C2445.77 950.407 2449.64 944.327 2456.8 940.96C2464.03 937.57 2473.26 938.97 2478.81 945.06C2479.34 945.633 2479.59 945.53 2479.56 944.75L2479.44 940.73C2479.44 940.613 2479.46 940.497 2479.5 940.388C2479.54 940.279 2479.6 940.179 2479.68 940.095C2479.77 940.011 2479.86 939.945 2479.97 939.899C2480.08 939.853 2480.19 939.83 2480.31 939.83L2487.51 939.8C2488.08 939.793 2488.37 940.08 2488.36 940.66C2488.23 951.867 2488.24 964.957 2488.38 979.93C2488.43 984.637 2487.94 988.26 2486.92 990.8C2483.91 998.32 2477.87 1002.3 2468.78 1002.73C2459.28 1003.18 2449.04 998.94 2447.21 988.64C2447.19 988.519 2447.2 988.395 2447.23 988.276C2447.26 988.158 2447.32 988.047 2447.39 987.953C2447.47 987.859 2447.57 987.783 2447.68 987.731C2447.79 987.679 2447.91 987.651 2448.03 987.65L2454.78 987.57C2455.23 987.57 2455.57 987.757 2455.81 988.13C2459.72 994.23 2465.08 996.283 2471.89 994.29C2479.56 992.04 2479.9 983.79 2479.44 976.93C2479.41 976.403 2479.21 976.333 2478.84 976.72ZM2467.18 974.995C2468.84 974.952 2470.48 974.545 2472.01 973.799C2473.53 973.053 2474.9 971.982 2476.04 970.647C2477.19 969.312 2478.08 967.739 2478.67 966.018C2479.26 964.297 2479.54 962.462 2479.5 960.618C2479.45 958.773 2479.07 956.956 2478.39 955.268C2477.71 953.581 2476.73 952.057 2475.52 950.784C2474.31 949.51 2472.88 948.512 2471.33 947.847C2469.77 947.181 2468.11 946.861 2466.44 946.905C2464.78 946.948 2463.14 947.355 2461.62 948.101C2460.1 948.847 2458.72 949.918 2457.58 951.253C2456.44 952.589 2455.54 954.161 2454.95 955.882C2454.36 957.603 2454.08 959.438 2454.13 961.282C2454.17 963.127 2454.55 964.945 2455.23 966.632C2455.91 968.319 2456.89 969.843 2458.1 971.116C2459.31 972.39 2460.74 973.388 2462.3 974.053C2463.85 974.719 2465.51 975.039 2467.18 974.995Z" fill="black"/>
<path d="M2550.44 976.739C2545.05 982.253 2538.56 983.966 2530.97 981.879C2526.56 980.666 2523.03 978.009 2520.4 973.909C2513.37 962.979 2516.26 946.759 2528.37 940.979C2535.59 937.529 2545.06 938.889 2550.41 945.179C2550.78 945.619 2550.98 945.553 2550.99 944.979L2551.07 940.979C2551.08 940.186 2551.48 939.793 2552.27 939.799L2558.62 939.859C2559.46 939.866 2559.88 940.286 2559.88 941.119L2560.13 980.829C2560.14 981.636 2559.73 982.046 2558.92 982.059L2552.19 982.139C2551.46 982.146 2551.09 981.786 2551.08 981.059L2551 976.959C2550.99 976.439 2550.81 976.366 2550.44 976.739ZM2538.75 975.006C2542.11 974.936 2545.3 973.386 2547.62 970.698C2549.94 968.011 2551.2 964.405 2551.12 960.674C2551.08 958.827 2550.71 957.004 2550.04 955.311C2549.37 953.618 2548.4 952.087 2547.2 950.805C2546 949.523 2544.58 948.516 2543.03 947.842C2541.47 947.167 2539.82 946.838 2538.16 946.872C2534.8 946.943 2531.61 948.492 2529.29 951.18C2526.97 953.868 2525.71 957.474 2525.78 961.205C2525.82 963.052 2526.19 964.874 2526.86 966.568C2527.53 968.261 2528.5 969.792 2529.7 971.074C2530.91 972.355 2532.32 973.362 2533.88 974.037C2535.43 974.712 2537.08 975.041 2538.75 975.006Z" fill="black"/>
<path d="M2579.58 948.849C2576.67 951.739 2579.89 954.859 2582.81 955.829C2587.34 957.339 2592.16 958.309 2596.37 960.409C2601.29 962.879 2603.77 967.669 2602.27 973.179C2598.31 987.679 2570.11 985.109 2568.97 969.749C2568.94 969.263 2569.17 969.019 2569.65 969.019L2577.11 968.999C2577.57 968.993 2577.89 969.199 2578.07 969.619C2578.75 971.119 2579.38 972.669 2580.85 973.549C2584.47 975.696 2588.05 975.826 2591.59 973.939C2594.1 972.609 2595.04 969.109 2592.27 967.299C2591.3 966.666 2590.33 966.193 2589.35 965.879C2581.34 963.279 2567.67 961.589 2569.81 949.389C2571.41 940.259 2582.92 938.219 2590.25 939.619C2597.17 940.933 2601.12 945.003 2602.12 951.829C2602.24 952.569 2601.92 952.939 2601.16 952.939L2594.25 952.959C2593.65 952.959 2593.28 952.666 2593.14 952.079C2591.7 945.959 2583.26 945.209 2579.58 948.849Z" fill="black"/>
<path d="M1230.04 947.37C1218.39 945.35 1214.79 956.25 1216.37 965.49C1217.3 970.9 1220.87 975.06 1226.52 975.49C1231.7 975.883 1235.3 973.813 1237.33 969.28C1237.41 969.093 1237.56 969 1237.76 969C1240.74 968.973 1243.78 968.993 1246.86 969.06C1246.88 969.06 1246.89 969.065 1246.91 969.072C1246.92 969.08 1246.93 969.09 1246.94 969.103C1246.95 969.115 1246.95 969.13 1246.96 969.145C1246.96 969.16 1246.96 969.175 1246.95 969.19C1245.1 975.063 1241.74 979.066 1236.86 981.2C1232.3 983.186 1227.68 983.673 1223.02 982.66C1214.38 980.773 1209.13 975.303 1207.29 966.25C1204.97 954.88 1210.59 942.11 1223.08 939.98C1233.75 938.15 1243.34 942.06 1246.83 952.93C1246.86 953.022 1246.87 953.119 1246.85 953.215C1246.84 953.31 1246.8 953.401 1246.74 953.479C1246.69 953.558 1246.61 953.623 1246.52 953.668C1246.44 953.713 1246.34 953.738 1246.24 953.74L1238.25 953.75C1238.03 953.75 1237.8 953.687 1237.61 953.569C1237.42 953.45 1237.26 953.281 1237.16 953.08C1235.58 949.82 1233.2 947.916 1230.04 947.37Z" fill="black"/>
<path d="M1285.42 943.882C1287.06 942.082 1289.18 940.865 1291.79 940.232C1300.21 938.192 1308.79 940.872 1312.46 949.052C1313.37 951.085 1313.89 953.888 1314 957.462C1314.25 965.502 1314.26 973.588 1314.05 981.722C1314.04 982.082 1313.86 982.262 1313.5 982.262L1305.78 982.252C1305.4 982.252 1305.21 982.062 1305.22 981.682C1305.34 973.402 1305.32 965.445 1305.15 957.812C1305.01 950.912 1300.11 946.542 1293.17 947.442C1285.58 948.432 1284.16 954.752 1284.29 961.522C1284.44 969.168 1284.43 975.992 1284.26 981.992C1284.25 982.325 1284.08 982.488 1283.75 982.482L1276.11 982.472C1275.7 982.472 1275.5 982.268 1275.5 981.862L1275.52 940.992C1275.52 940.498 1275.77 940.252 1276.26 940.252H1283.7C1284.17 940.252 1284.4 940.485 1284.39 940.952L1284.36 943.462C1284.34 944.535 1284.69 944.675 1285.42 943.882Z" fill="black"/>
<path d="M1355.6 977.031C1348.23 985.891 1334.23 984.571 1327.2 976.431C1319.63 967.661 1319.97 951.731 1329.23 944.061C1336.83 937.761 1348.67 937.751 1355.62 945.481C1356.04 945.954 1356.26 945.874 1356.26 945.241L1356.3 941.221C1356.31 940.574 1356.64 940.251 1357.28 940.251L1364.23 940.261C1364.89 940.261 1365.21 940.584 1365.21 941.231L1365.14 981.201C1365.14 981.921 1364.78 982.281 1364.05 982.281L1357.25 982.261C1357.12 982.261 1356.99 982.235 1356.87 982.184C1356.75 982.133 1356.64 982.058 1356.55 981.964C1356.46 981.87 1356.38 981.759 1356.34 981.636C1356.29 981.514 1356.26 981.383 1356.26 981.251L1356.28 977.281C1356.28 976.567 1356.06 976.484 1355.6 977.031ZM1343.84 975.299C1347.2 975.252 1350.41 973.729 1352.75 971.065C1355.09 968.401 1356.37 964.814 1356.32 961.094C1356.3 959.251 1355.94 957.432 1355.28 955.739C1354.62 954.045 1353.66 952.512 1352.47 951.226C1351.27 949.94 1349.86 948.926 1348.31 948.242C1346.77 947.559 1345.11 947.219 1343.45 947.242C1340.08 947.289 1336.88 948.812 1334.54 951.476C1332.2 954.14 1330.91 957.727 1330.96 961.448C1330.99 963.29 1331.34 965.11 1332 966.803C1332.66 968.496 1333.62 970.029 1334.82 971.316C1336.01 972.602 1337.42 973.616 1338.97 974.299C1340.52 974.983 1342.17 975.323 1343.84 975.299Z" fill="black"/>
<path d="M1562.23 965.53C1562.79 968.73 1564.27 971.247 1566.68 973.08C1571.67 976.88 1579.44 976.3 1582.94 970.92C1583.54 970 1584.39 969.54 1585.48 969.54L1592.26 969.56C1593.13 969.56 1593.4 969.964 1593.05 970.77C1590.26 977.21 1585.61 981.11 1579.1 982.47C1565.78 985.25 1554.24 977.48 1553.08 963.53C1550.34 930.72 1598.7 931.86 1594.22 964.04C1594.16 964.46 1593.92 964.667 1593.5 964.66L1562.97 964.65C1562.86 964.65 1562.75 964.674 1562.65 964.72C1562.55 964.766 1562.47 964.834 1562.4 964.918C1562.33 965.002 1562.27 965.1 1562.25 965.206C1562.22 965.312 1562.21 965.422 1562.23 965.53ZM1562.62 957.31L1585.06 957.27C1585.08 957.27 1585.1 957.267 1585.11 957.26C1585.13 957.254 1585.14 957.244 1585.15 957.232C1585.17 957.22 1585.17 957.206 1585.18 957.19C1585.19 957.174 1585.19 957.157 1585.19 957.14V957.09C1585.19 955.772 1584.9 954.467 1584.33 953.249C1583.76 952.032 1582.93 950.927 1581.88 949.996C1580.84 949.066 1579.59 948.328 1578.23 947.826C1576.86 947.324 1575.4 947.067 1573.92 947.07H1573.72C1570.74 947.076 1567.88 948.139 1565.77 950.026C1563.67 951.912 1562.49 954.468 1562.49 957.13V957.18C1562.49 957.215 1562.5 957.248 1562.53 957.272C1562.55 957.297 1562.59 957.31 1562.62 957.31Z" fill="black"/>
<path d="M1612.35 945.15C1612.68 944.71 1613.01 944.07 1613.38 943.69C1615.87 941.103 1619.06 939.69 1622.93 939.45C1623.77 939.397 1624.19 939.793 1624.19 940.64V947.83C1624.19 947.961 1624.17 948.091 1624.11 948.212C1624.06 948.332 1623.98 948.44 1623.89 948.529C1623.79 948.617 1623.67 948.684 1623.55 948.726C1623.42 948.768 1623.29 948.783 1623.16 948.77C1617.01 948.21 1611.99 950.88 1611.83 957.82C1611.68 964.58 1611.65 972.477 1611.74 981.51C1611.74 981.612 1611.72 981.712 1611.69 981.806C1611.65 981.9 1611.59 981.986 1611.52 982.058C1611.45 982.129 1611.36 982.186 1611.27 982.224C1611.17 982.262 1611.07 982.281 1610.97 982.28L1603.55 982.25C1603.08 982.25 1602.85 982.017 1602.85 981.55V941.3C1602.85 940.573 1603.22 940.213 1603.95 940.22L1610.74 940.26C1611.56 940.267 1611.9 940.673 1611.77 941.48C1611.61 942.413 1611.62 943.59 1611.8 945.01C1611.86 945.51 1612.04 945.557 1612.35 945.15Z" fill="black"/>
<path d="M1641.59 944.071C1645.5 940.071 1650.79 938.661 1657.44 939.841C1667.15 941.571 1670.6 949.861 1670.61 958.751C1670.62 966.557 1670.62 974.121 1670.61 981.441C1670.61 982.034 1670.31 982.327 1669.72 982.321L1662.48 982.231C1662.01 982.224 1661.78 981.991 1661.78 981.531C1661.71 974.531 1661.72 967.861 1661.81 961.521C1661.91 953.941 1660.1 947.221 1651.08 947.231C1644.67 947.241 1640.93 951.881 1640.87 958.001C1640.79 965.427 1640.79 973.421 1640.86 981.981C1640.86 982.081 1640.82 982.178 1640.75 982.249C1640.68 982.321 1640.58 982.361 1640.48 982.361L1632.28 982.221C1632.07 982.221 1631.97 982.117 1631.97 981.911L1631.96 941.151C1631.96 940.557 1632.26 940.261 1632.85 940.261L1639.9 940.241C1640.5 940.241 1640.81 940.544 1640.82 941.151L1640.88 943.791C1640.89 944.444 1641.13 944.537 1641.59 944.071Z" fill="black"/>
<path d="M1712.16 976.969C1706.36 982.849 1699.51 984.452 1691.6 981.779C1678.03 977.179 1674.69 957.979 1682.59 947.299C1689.17 938.399 1703.8 936.109 1711.7 944.929C1712.44 945.749 1712.8 945.609 1712.79 944.509L1712.78 940.989C1712.78 940.342 1713.11 940.016 1713.76 940.009H1720.56C1720.84 940.009 1721.11 940.12 1721.3 940.317C1721.5 940.514 1721.61 940.781 1721.61 941.059L1721.62 980.959C1721.62 981.852 1721.18 982.296 1720.29 982.289L1713.8 982.279C1713.15 982.279 1712.82 981.952 1712.81 981.299L1712.77 977.219C1712.77 976.646 1712.56 976.562 1712.16 976.969ZM1700.52 975.204C1702.18 975.161 1703.82 974.755 1705.34 974.009C1706.86 973.263 1708.23 972.193 1709.38 970.859C1710.52 969.525 1711.41 967.953 1712 966.234C1712.6 964.514 1712.88 962.68 1712.83 960.837C1712.78 958.994 1712.4 957.178 1711.72 955.491C1711.04 953.805 1710.07 952.283 1708.86 951.01C1707.64 949.738 1706.22 948.74 1704.66 948.075C1703.11 947.41 1701.45 947.09 1699.78 947.134C1698.12 947.178 1696.48 947.584 1694.96 948.329C1693.44 949.075 1692.07 950.145 1690.93 951.479C1689.79 952.814 1688.89 954.385 1688.3 956.105C1687.71 957.824 1687.43 959.658 1687.48 961.501C1687.52 963.344 1687.9 965.161 1688.58 966.847C1689.26 968.533 1690.24 970.056 1691.45 971.328C1692.66 972.601 1694.08 973.598 1695.64 974.263C1697.2 974.928 1698.85 975.248 1700.52 975.204Z" fill="black"/>
<path d="M1742.49 943.889C1745.31 941.309 1748.48 939.859 1752.01 939.539C1759.46 938.873 1765.05 941.363 1768.78 947.009C1768.99 947.329 1769.2 947.326 1769.41 946.999C1772.6 942.019 1777.33 939.513 1783.6 939.479C1795.47 939.419 1801.18 947.359 1801.14 958.319C1801.11 966.493 1801.1 974.269 1801.11 981.649C1801.11 982.076 1800.9 982.289 1800.48 982.289L1792.81 982.309C1792.47 982.316 1792.3 982.146 1792.29 981.799C1792.18 974.726 1792.18 967.789 1792.31 960.989C1792.45 953.339 1790.1 946.919 1781.45 947.199C1774.3 947.439 1771.38 952.699 1771.31 959.179C1771.24 967.359 1771.3 974.813 1771.51 981.539C1771.52 982.039 1771.28 982.289 1770.79 982.289H1763.28C1762.87 982.289 1762.67 982.086 1762.67 981.679C1762.76 973.333 1762.74 965.533 1762.62 958.279C1762.48 949.759 1755.81 945.099 1748 947.959C1742.46 949.979 1741.78 955.049 1741.78 960.839C1741.77 968.079 1741.79 975.029 1741.83 981.689C1741.83 982.089 1741.63 982.289 1741.24 982.289L1733.52 982.309C1733.15 982.309 1732.97 982.126 1732.97 981.759V941.269C1732.97 940.423 1733.39 940.003 1734.23 940.009H1740.57C1741.44 940.016 1741.85 940.453 1741.82 941.319L1741.73 943.529C1741.7 944.256 1741.95 944.376 1742.49 943.889Z" fill="black"/>
<path d="M1818.88 967.96C1819.33 968.667 1819.81 969.437 1820.33 970.27C1821.99 972.924 1824.36 974.54 1827.43 975.12C1832.72 976.12 1836.72 974.514 1839.43 970.3C1839.58 970.067 1839.78 969.875 1840.03 969.742C1840.27 969.61 1840.54 969.54 1840.81 969.54H1848.71C1848.81 969.541 1848.9 969.566 1848.98 969.611C1849.07 969.656 1849.14 969.721 1849.19 969.8C1849.24 969.879 1849.27 969.969 1849.28 970.064C1849.29 970.158 1849.28 970.253 1849.24 970.34C1846.48 977.034 1841.72 981.07 1834.97 982.45C1819.19 985.67 1807.37 973.99 1809.18 958.26C1810.46 947.16 1816.57 940.927 1827.53 939.56C1842.15 937.74 1852.73 949.58 1850.19 963.99C1850.15 964.284 1849.97 964.43 1849.67 964.43C1839.78 964.544 1830.19 964.524 1820.91 964.37C1818.03 964.324 1817.36 965.52 1818.88 967.96ZM1818.66 957.33L1841.08 957.25C1841.12 957.25 1841.15 957.237 1841.18 957.212C1841.2 957.188 1841.21 957.155 1841.21 957.12V957.03C1841.21 955.712 1840.91 954.407 1840.35 953.19C1839.78 951.974 1838.95 950.87 1837.9 949.941C1836.86 949.013 1835.62 948.278 1834.26 947.778C1832.89 947.279 1831.44 947.025 1829.96 947.03H1829.7C1826.73 947.042 1823.88 948.11 1821.79 950C1819.69 951.891 1818.52 954.448 1818.53 957.11V957.2C1818.53 957.235 1818.55 957.268 1818.57 957.292C1818.6 957.317 1818.63 957.33 1818.66 957.33Z" fill="black"/>
<path d="M1868.2 944.199C1870.77 941.493 1873.92 939.959 1877.65 939.599C1886.12 938.773 1892.06 941.653 1895.47 948.239C1897.51 952.159 1897.29 956.439 1897.33 961.049C1897.38 968.109 1897.38 974.936 1897.31 981.529C1897.31 982.023 1897.06 982.269 1896.57 982.269L1889.27 982.259C1889.08 982.259 1888.9 982.185 1888.76 982.052C1888.63 981.919 1888.55 981.738 1888.55 981.549C1888.45 974.589 1888.46 967.466 1888.59 960.179C1888.7 954.259 1887.05 948.699 1880.67 947.419C1873.4 945.979 1867.81 950.359 1867.7 957.859C1867.61 964.333 1867.6 972.259 1867.67 981.639C1867.67 981.724 1867.65 981.808 1867.62 981.887C1867.59 981.966 1867.54 982.038 1867.49 982.098C1867.43 982.159 1867.35 982.207 1867.28 982.24C1867.2 982.272 1867.11 982.289 1867.03 982.289L1859.43 982.309C1859 982.309 1858.79 982.096 1858.79 981.669V940.729C1858.79 940.249 1859.03 940.009 1859.52 940.009L1866.71 939.999C1867.35 939.999 1867.67 940.319 1867.67 940.959L1867.65 943.979C1867.65 944.506 1867.83 944.579 1868.2 944.199Z" fill="black"/>
<path d="M1967.78 944.978L1967.77 941.368C1967.77 940.455 1968.22 939.998 1969.13 939.998L1975.5 939.968C1976.36 939.968 1976.79 940.395 1976.79 941.248L1976.78 981.198C1976.78 981.998 1976.38 982.355 1975.59 982.268C1973.34 982.035 1971.16 982.062 1969.05 982.348C1968.22 982.462 1967.8 982.098 1967.79 981.258L1967.78 977.288C1967.78 976.788 1967.6 976.708 1967.23 977.048C1960.64 983.242 1953.31 984.588 1945.26 981.088C1935.81 976.978 1932.26 965.848 1934.06 955.838C1936.05 944.798 1945.39 938.158 1956.67 939.628C1960.74 940.162 1964.26 942.022 1967.21 945.208C1967.59 945.615 1967.78 945.538 1967.78 944.978ZM1955.61 975.164C1958.97 975.082 1962.16 973.521 1964.47 970.826C1966.78 968.13 1968.03 964.519 1967.94 960.789C1967.85 957.058 1966.42 953.513 1963.98 950.934C1961.54 948.354 1958.29 946.951 1954.93 947.033C1951.57 947.115 1948.38 948.675 1946.07 951.371C1943.76 954.067 1942.51 957.678 1942.6 961.408C1942.7 965.139 1944.12 968.684 1946.56 971.263C1949 973.843 1952.26 975.246 1955.61 975.164Z" fill="black"/>
<path d="M2507.86 939.801H2500.24C2499.89 939.801 2499.61 940.083 2499.61 940.431V981.471C2499.61 981.819 2499.89 982.101 2500.24 982.101H2507.86C2508.21 982.101 2508.49 981.819 2508.49 981.471V940.431C2508.49 940.083 2508.21 939.801 2507.86 939.801Z" fill="black"/>
<path d="M1198.01 940.25H1190.35C1190.02 940.25 1189.75 940.519 1189.75 940.85V981.89C1189.75 982.221 1190.02 982.49 1190.35 982.49H1198.01C1198.34 982.49 1198.61 982.221 1198.61 981.89V940.85C1198.61 940.519 1198.34 940.25 1198.01 940.25Z" fill="black"/>
<path d="M1263.71 940.262H1255.89C1255.6 940.262 1255.37 940.495 1255.37 940.782V981.962C1255.37 982.249 1255.6 982.482 1255.89 982.482H1263.71C1263.99 982.482 1264.23 982.249 1264.23 981.962V940.782C1264.23 940.495 1263.99 940.262 1263.71 940.262Z" fill="black"/>
<path d="M1484.24 978.151C1484.24 978.107 1484.23 978.064 1484.21 978.028C1484.18 977.991 1484.15 977.963 1484.1 977.947C1484.06 977.931 1484.02 977.928 1483.98 977.937C1483.93 977.947 1483.89 977.969 1483.86 978.001C1475.6 986.581 1460.59 983.801 1455.92 972.991C1454.86 970.544 1454.37 966.728 1454.45 961.541C1454.57 954.048 1454.58 947.201 1454.47 941.001C1454.47 940.474 1454.73 940.211 1455.25 940.211L1462.71 940.261C1462.81 940.261 1462.9 940.28 1462.99 940.316C1463.07 940.352 1463.15 940.405 1463.22 940.472C1463.29 940.539 1463.34 940.619 1463.37 940.706C1463.41 940.793 1463.43 940.887 1463.42 940.981C1463.34 949.621 1463.35 957.564 1463.44 964.811C1463.52 971.211 1468.23 975.781 1474.68 975.091C1480.99 974.424 1484.17 970.638 1484.21 963.731C1484.27 956.091 1484.28 948.361 1484.26 940.541C1484.26 940.341 1484.36 940.241 1484.56 940.241L1492.75 940.271C1493.08 940.271 1493.24 940.431 1493.24 940.751L1493.2 981.281C1493.2 981.948 1492.87 982.281 1492.21 982.281L1485.02 982.261C1484.83 982.261 1484.64 982.183 1484.5 982.045C1484.37 981.906 1484.29 981.718 1484.28 981.521L1484.24 978.151Z" fill="black"/>
<path d="M2404.77 1018.13L2388.65 1026.03C2388.59 1026.06 2388.52 1026.08 2388.45 1026.07C2388.38 1026.07 2388.31 1026.05 2388.25 1026.01C2388.2 1025.97 2388.15 1025.92 2388.11 1025.86C2388.08 1025.8 2388.06 1025.73 2388.06 1025.66L2388.07 1019.9C2388.07 1019.83 2388.09 1019.76 2388.13 1019.69C2388.17 1019.63 2388.22 1019.58 2388.28 1019.54L2404.5 1010.54C2404.57 1010.51 2404.64 1010.49 2404.71 1010.49C2404.78 1010.49 2404.85 1010.51 2404.92 1010.55C2404.98 1010.59 2405.03 1010.64 2405.06 1010.7C2405.1 1010.77 2405.11 1010.84 2405.11 1010.91L2405 1017.77C2405 1017.85 2404.98 1017.92 2404.94 1017.98C2404.9 1018.05 2404.84 1018.1 2404.77 1018.13Z" fill="black"/>
<path d="M1732.24 1018.36L1716.31 1026.17C1716.24 1026.21 1716.16 1026.22 1716.08 1026.22C1716 1026.21 1715.92 1026.19 1715.85 1026.15C1715.78 1026.1 1715.73 1026.04 1715.69 1025.97C1715.65 1025.9 1715.63 1025.82 1715.63 1025.74L1715.72 1020.04C1715.72 1019.96 1715.75 1019.88 1715.79 1019.81C1715.83 1019.74 1715.89 1019.68 1715.96 1019.64L1731.87 1010.83C1731.95 1010.79 1732.03 1010.77 1732.11 1010.77C1732.19 1010.77 1732.27 1010.79 1732.34 1010.84C1732.42 1010.88 1732.47 1010.94 1732.51 1011.01C1732.55 1011.09 1732.57 1011.17 1732.57 1011.25L1732.5 1017.94C1732.5 1018.03 1732.48 1018.11 1732.43 1018.19C1732.39 1018.26 1732.32 1018.32 1732.24 1018.36Z" fill="black"/>
<path d="M2361.37 1024.38C2364.5 1024.38 2367.05 1021.84 2367.05 1018.7C2367.05 1015.56 2364.5 1013.02 2361.37 1013.02C2358.23 1013.02 2355.69 1015.56 2355.69 1018.7C2355.69 1021.84 2358.23 1024.38 2361.37 1024.38Z" fill="black"/>
<path d="M1406.93 1030.01L1413.44 1030.09C1413.82 1030.1 1414.01 1030.29 1414 1030.68L1413.89 1036.64C1413.89 1036.78 1413.83 1036.91 1413.73 1037.01C1413.64 1037.1 1413.5 1037.16 1413.36 1037.16L1406.89 1037.18C1406.45 1037.18 1406.22 1037.4 1406.22 1037.85L1406.21 1071.34C1406.21 1071.87 1405.95 1072.14 1405.41 1072.13L1397.96 1072.11C1397.36 1072.1 1397.06 1071.8 1397.06 1071.21L1397.13 1038C1397.13 1037.56 1396.91 1037.34 1396.47 1037.34H1393.29C1392.69 1037.34 1392.38 1037.04 1392.38 1036.43V1031.08C1392.38 1030.38 1392.73 1030.03 1393.42 1030.03H1396.7C1397.08 1030.03 1397.26 1029.84 1397.22 1029.46C1396.24 1018.26 1401.9 1013.03 1412.75 1013.2C1413.15 1013.21 1413.34 1013.41 1413.34 1013.81L1413.31 1020.04C1413.31 1020.12 1413.29 1020.21 1413.26 1020.29C1413.23 1020.37 1413.18 1020.44 1413.12 1020.5C1413.05 1020.56 1412.98 1020.6 1412.9 1020.63C1412.82 1020.67 1412.74 1020.68 1412.65 1020.68C1406.64 1020.59 1405.75 1024.34 1406.24 1029.37C1406.28 1029.79 1406.51 1030 1406.93 1030.01Z" fill="black"/>
<path d="M1688.92 1024.59C1692.06 1024.59 1694.61 1022.04 1694.61 1018.9C1694.61 1015.76 1692.06 1013.21 1688.92 1013.21C1685.77 1013.21 1683.23 1015.76 1683.23 1018.9C1683.23 1022.04 1685.77 1024.59 1688.92 1024.59Z" fill="black"/>
<path d="M2192.38 1024.45C2195.52 1024.45 2198.07 1021.9 2198.07 1018.76C2198.07 1015.62 2195.52 1013.07 2192.38 1013.07C2189.23 1013.07 2186.69 1015.62 2186.69 1018.76C2186.69 1021.9 2189.23 1024.45 2192.38 1024.45Z" fill="black"/>
<path d="M1136.2 1034.8L1136.24 1016.35C1136.24 1016.26 1136.26 1016.18 1136.29 1016.09C1136.32 1016.01 1136.37 1015.94 1136.43 1015.88C1136.5 1015.82 1136.57 1015.77 1136.65 1015.73C1136.73 1015.7 1136.81 1015.68 1136.9 1015.68L1144.36 1015.62C1144.95 1015.61 1145.24 1015.9 1145.24 1016.49L1145.25 1070.92C1145.25 1071.7 1144.86 1072.09 1144.08 1072.09L1137.57 1072.07C1136.74 1072.06 1136.32 1071.65 1136.31 1070.82L1136.25 1067.25C1136.24 1066.66 1136.04 1066.58 1135.63 1067.01C1128.73 1074.34 1117.08 1074.85 1109.53 1068.42C1100.57 1060.78 1099.37 1045.27 1106.97 1036.28C1114.2 1027.72 1127.68 1026.89 1135.72 1034.99C1136.04 1035.32 1136.2 1035.25 1136.2 1034.8ZM1124 1065.13C1127.37 1065.06 1130.56 1063.51 1132.88 1060.83C1135.21 1058.14 1136.47 1054.54 1136.39 1050.82C1136.31 1047.09 1134.9 1043.55 1132.47 1040.96C1130.03 1038.38 1126.78 1036.96 1123.42 1037.03C1120.05 1037.1 1116.86 1038.65 1114.54 1041.34C1112.22 1044.02 1110.96 1047.62 1111.03 1051.35C1111.11 1055.07 1112.52 1058.62 1114.95 1061.2C1117.39 1063.79 1120.64 1065.2 1124 1065.13Z" fill="black"/>
<path d="M1236.08 1015.61H1228.24C1227.97 1015.61 1227.75 1015.83 1227.75 1016.1V1071.66C1227.75 1071.93 1227.97 1072.15 1228.24 1072.15H1236.08C1236.35 1072.15 1236.57 1071.93 1236.57 1071.66V1016.1C1236.57 1015.83 1236.35 1015.61 1236.08 1015.61Z" fill="black"/>
<path d="M1933.37 1033.94C1926.41 1021.6 1908.26 1024.32 1903.18 1036.6C1900.77 1042.43 1900.93 1050.66 1904.27 1056.18C1908.03 1062.4 1913.87 1065.16 1921.8 1064.46C1926.65 1064.04 1931.33 1061.18 1933.33 1056.65C1933.4 1056.49 1933.51 1056.41 1933.68 1056.4C1937 1056.27 1940.48 1056.27 1944.13 1056.41C1944.2 1056.42 1944.23 1056.45 1944.2 1056.51C1941.07 1064.24 1935.51 1069.2 1927.52 1071.37C1916.77 1074.31 1905.32 1071.24 1898.2 1062.46C1888.92 1051.02 1890.86 1032.98 1902.46 1023.91C1915.91 1013.39 1937.9 1017.46 1944.15 1034.1C1944.16 1034.12 1944.16 1034.14 1944.16 1034.16C1944.15 1034.18 1944.14 1034.2 1944.13 1034.21C1944.12 1034.23 1944.11 1034.24 1944.09 1034.25C1944.07 1034.26 1944.05 1034.27 1944.03 1034.27C1937.43 1034.31 1933.91 1034.23 1933.48 1034.04C1933.43 1034.02 1933.4 1033.98 1933.37 1033.94Z" fill="black"/>
<path d="M1332.14 1019.04H1324.08C1323.88 1019.04 1323.71 1019.2 1323.71 1019.41V1071.75C1323.71 1071.95 1323.88 1072.12 1324.08 1072.12H1332.14C1332.35 1072.12 1332.51 1071.95 1332.51 1071.75V1019.41C1332.51 1019.2 1332.35 1019.04 1332.14 1019.04Z" fill="black"/>
<path d="M1970.07 1072.43C1967.27 1071.89 1964.6 1070.8 1962.23 1069.22C1959.85 1067.63 1957.8 1065.59 1956.21 1063.2C1954.61 1060.82 1953.5 1058.13 1952.93 1055.31C1952.37 1052.48 1952.36 1049.57 1952.9 1046.73C1954 1041.01 1957.31 1035.95 1962.09 1032.67C1966.87 1029.39 1972.73 1028.16 1978.39 1029.25C1981.19 1029.79 1983.85 1030.88 1986.23 1032.46C1988.61 1034.05 1990.66 1036.09 1992.25 1038.48C1993.85 1040.86 1994.96 1043.54 1995.53 1046.37C1996.09 1049.2 1996.1 1052.11 1995.56 1054.95C1994.45 1060.67 1991.15 1065.73 1986.37 1069.01C1981.59 1072.29 1975.73 1073.52 1970.07 1072.43ZM1973.78 1064.96C1975.43 1065.01 1977.07 1064.69 1978.61 1064.02C1980.16 1063.36 1981.57 1062.36 1982.78 1061.08C1983.98 1059.8 1984.95 1058.27 1985.63 1056.58C1986.31 1054.88 1986.68 1053.05 1986.73 1051.2C1986.84 1047.46 1985.62 1043.83 1983.33 1041.12C1981.05 1038.4 1977.9 1036.83 1974.56 1036.74C1972.91 1036.69 1971.27 1037.01 1969.73 1037.68C1968.18 1038.34 1966.77 1039.34 1965.56 1040.62C1964.36 1041.9 1963.39 1043.43 1962.71 1045.12C1962.03 1046.82 1961.66 1048.65 1961.6 1050.5C1961.5 1054.24 1962.72 1057.87 1965.01 1060.58C1967.29 1063.29 1970.44 1064.87 1973.78 1064.96Z" fill="black"/>
<path d="M2015.38 1033.5C2018 1030.89 2021.8 1029.35 2025.45 1029.14C2032.56 1028.73 2037.9 1031.18 2041.47 1036.49C2041.76 1036.91 2042.05 1036.91 2042.34 1036.5C2043.08 1035.43 2043.71 1034.2 2044.73 1033.39C2049.76 1029.41 2055.22 1028.15 2061.13 1029.61C2069.35 1031.64 2073.59 1037.36 2073.86 1046.79C2074.04 1053.16 2074.07 1061.28 2073.94 1071.14C2073.94 1071.35 2073.85 1071.54 2073.7 1071.69C2073.56 1071.84 2073.36 1071.92 2073.15 1071.92L2065.76 1071.96C2065.28 1071.97 2065.04 1071.73 2065.03 1071.25C2064.97 1064.64 2064.98 1057.59 2065.05 1050.08C2065.08 1046.43 2064.64 1043.74 2063.73 1042.03C2061.71 1038.22 2058.41 1036.52 2053.84 1036.93C2047.53 1037.5 2044.34 1041.16 2044.26 1047.92C2044.17 1055.27 2044.14 1063.06 2044.17 1071.31C2044.18 1071.73 2043.97 1071.94 2043.55 1071.94L2035.94 1071.98C2035.52 1071.99 2035.31 1071.78 2035.31 1071.36C2035.33 1062.87 2035.3 1054.5 2035.23 1046.25C2035.22 1044.46 2034.57 1042.64 2033.28 1040.77C2030.47 1036.67 2024.48 1035.92 2020.28 1037.81C2015.91 1039.78 2014.58 1043.87 2014.61 1048.4C2014.66 1056.21 2014.65 1063.81 2014.58 1071.18C2014.57 1071.7 2014.31 1071.96 2013.78 1071.96L2006.38 1071.94C2006.16 1071.94 2005.94 1071.85 2005.78 1071.69C2005.63 1071.53 2005.54 1071.32 2005.54 1071.1V1030.77C2005.54 1030.14 2005.85 1029.83 2006.48 1029.83L2013.71 1029.82C2014.3 1029.82 2014.59 1030.12 2014.6 1030.71L2014.63 1033.19C2014.64 1033.88 2014.89 1033.99 2015.38 1033.5Z" fill="black"/>
<path d="M2146.47 1033.74C2150.9 1029.55 2156.38 1028.15 2162.92 1029.56C2170.18 1031.13 2175.21 1037.29 2175.44 1044.48C2175.61 1050.15 2175.65 1059.11 2175.57 1071.38C2175.57 1071.75 2175.38 1071.94 2175.01 1071.94L2167.26 1071.95C2166.92 1071.95 2166.75 1071.78 2166.75 1071.44C2166.74 1062.75 2166.72 1054.64 2166.69 1047.1C2166.66 1041.88 2163.46 1037.67 2158.19 1036.94C2150.66 1035.9 2145.99 1040.74 2145.89 1048.28C2145.81 1054.93 2145.78 1062.68 2145.82 1071.53C2145.82 1071.6 2145.8 1071.67 2145.78 1071.73C2145.75 1071.79 2145.71 1071.85 2145.66 1071.9C2145.62 1071.94 2145.56 1071.98 2145.5 1072.01C2145.43 1072.03 2145.37 1072.04 2145.3 1072.04L2137.55 1071.93C2137.14 1071.92 2136.94 1071.71 2136.94 1071.3L2136.96 1030.77C2136.96 1030.14 2137.27 1029.83 2137.89 1029.83L2144.92 1029.8C2145.5 1029.8 2145.79 1030.09 2145.81 1030.67L2145.86 1033.49C2145.86 1034.04 2146.07 1034.12 2146.47 1033.74Z" fill="black"/>
<path d="M2225.65 1064.88C2231.2 1065.53 2234.95 1063.52 2236.92 1058.83C2237.01 1058.61 2237.18 1058.5 2237.41 1058.49C2240.68 1058.4 2243.8 1058.43 2246.76 1058.59C2246.77 1058.59 2246.78 1058.59 2246.78 1058.59C2246.79 1058.6 2246.8 1058.6 2246.8 1058.61C2246.8 1058.61 2246.81 1058.62 2246.81 1058.63C2246.81 1058.64 2246.81 1058.64 2246.8 1058.65C2243.39 1068.29 2236.54 1072.91 2226.25 1072.51C2214.81 1072.06 2207.36 1063.85 2206.68 1052.63C2206.03 1042.03 2210.99 1032.27 2221.58 1029.73C2232.56 1027.1 2243.34 1031.24 2246.7 1042.91C2246.71 1042.92 2246.71 1042.94 2246.7 1042.95C2246.7 1042.96 2246.7 1042.98 2246.69 1042.99C2246.68 1043 2246.67 1043.01 2246.65 1043.02C2246.64 1043.02 2246.63 1043.03 2246.61 1043.03C2243.56 1043.12 2240.43 1043.12 2237.23 1043.02C2237.11 1043.01 2237.02 1042.96 2236.97 1042.85C2235.34 1039.14 2232.74 1037.1 2229.15 1036.72C2222.8 1036.03 2218.63 1038.7 2216.64 1044.71C2214.27 1051.85 2216.09 1063.75 2225.65 1064.88Z" fill="black"/>
<path d="M2287.73 1034.87C2287.97 1035.1 2288.08 1035.05 2288.07 1034.72L2287.93 1030.51C2287.91 1029.96 2288.18 1029.68 2288.74 1029.67L2295.83 1029.65C2296.62 1029.64 2297.01 1030.04 2297.01 1030.83V1070.71C2297.01 1071.52 2296.6 1071.93 2295.79 1071.94L2289.23 1071.98C2288.38 1071.99 2287.97 1071.57 2287.98 1070.72L2288.03 1067.29C2288.04 1066.38 2287.74 1066.26 2287.12 1066.91C2283.91 1070.26 2280 1072.1 2275.37 1072.44C2259.6 1073.62 2251.38 1058.78 2254.41 1044.8C2255.73 1038.71 2260.04 1032.85 2265.84 1030.6C2274.02 1027.42 2281.32 1028.84 2287.73 1034.87ZM2275.8 1064.82C2279.16 1064.74 2282.35 1063.19 2284.67 1060.5C2286.99 1057.81 2288.24 1054.2 2288.16 1050.47C2288.07 1046.75 2286.66 1043.2 2284.22 1040.62C2281.78 1038.04 2278.52 1036.63 2275.16 1036.7C2271.8 1036.78 2268.61 1038.33 2266.29 1041.02C2263.97 1043.71 2262.72 1047.32 2262.8 1051.05C2262.89 1054.78 2264.31 1058.32 2266.74 1060.9C2269.18 1063.49 2272.44 1064.89 2275.8 1064.82Z" fill="black"/>
<path d="M2330.92 1064.51C2333.85 1063.86 2335.95 1061.91 2337.23 1058.68C2337.25 1058.62 2337.29 1058.57 2337.34 1058.53C2337.4 1058.5 2337.46 1058.48 2337.52 1058.48L2346.73 1058.47C2346.76 1058.47 2346.79 1058.48 2346.82 1058.49C2346.85 1058.51 2346.88 1058.53 2346.89 1058.55C2346.91 1058.58 2346.92 1058.61 2346.93 1058.64C2346.93 1058.68 2346.93 1058.71 2346.92 1058.74C2343.86 1067.55 2337.81 1072.12 2328.78 1072.46C2313.26 1073.04 2305.2 1060.95 2307.17 1046.58C2308.54 1036.5 2315.81 1029.66 2326.21 1029.05C2335.91 1028.48 2343.92 1032.82 2346.76 1042.39C2346.9 1042.85 2346.72 1043.08 2346.24 1043.08L2338.17 1043.09C2337.64 1043.09 2337.27 1042.85 2337.05 1042.37C2332.57 1032.92 2318.39 1035.39 2316.51 1045.83C2314.72 1055.83 2318.2 1067.33 2330.92 1064.51Z" fill="black"/>
<path d="M2393.22 1072.35C2387.56 1071.33 2382.53 1068.08 2379.26 1063.3C2375.98 1058.52 2374.72 1052.61 2375.75 1046.88C2376.78 1041.14 2380.02 1036.04 2384.76 1032.71C2389.5 1029.37 2395.34 1028.07 2401.01 1029.09C2406.68 1030.11 2411.7 1033.37 2414.98 1038.14C2418.26 1042.92 2419.52 1048.83 2418.48 1054.57C2417.45 1060.3 2414.21 1065.4 2409.47 1068.74C2404.74 1072.07 2398.89 1073.37 2393.22 1072.35ZM2396.64 1064.86C2399.97 1064.95 2403.21 1063.55 2405.64 1060.96C2408.06 1058.38 2409.49 1054.82 2409.59 1051.07C2409.64 1049.22 2409.37 1047.37 2408.79 1045.64C2408.2 1043.9 2407.32 1042.32 2406.19 1040.98C2405.06 1039.63 2403.71 1038.55 2402.21 1037.8C2400.7 1037.04 2399.08 1036.63 2397.43 1036.59C2394.1 1036.49 2390.87 1037.89 2388.44 1040.48C2386.01 1043.06 2384.59 1046.62 2384.48 1050.37C2384.43 1052.23 2384.7 1054.07 2385.29 1055.81C2385.87 1057.54 2386.75 1059.12 2387.88 1060.47C2389.01 1061.81 2390.36 1062.89 2391.87 1063.65C2393.37 1064.4 2394.99 1064.81 2396.64 1064.86Z" fill="black"/>
<path d="M2438.1 1033.53C2440.87 1030.9 2443.97 1029.44 2447.4 1029.16C2456.73 1028.4 2462.88 1031.81 2465.85 1039.38C2466.86 1041.96 2467.31 1046.12 2467.2 1051.85C2467.07 1058.12 2467.06 1064.35 2467.16 1070.55C2467.16 1070.7 2467.14 1070.85 2467.08 1070.99C2467.03 1071.13 2466.94 1071.25 2466.84 1071.36C2466.73 1071.47 2466.61 1071.55 2466.47 1071.61C2466.33 1071.67 2466.18 1071.7 2466.03 1071.7H2459.01C2458.5 1071.71 2458.24 1071.45 2458.24 1070.94C2458.17 1064.36 2458.18 1057.36 2458.27 1049.93C2458.37 1042.23 2455.51 1036.15 2446.9 1036.81C2439.35 1037.38 2437.3 1043.02 2437.42 1049.89C2437.54 1056.92 2437.54 1063.9 2437.43 1070.85C2437.42 1071.44 2437.13 1071.73 2436.54 1071.73H2429.47C2428.8 1071.73 2428.47 1071.39 2428.47 1070.72L2428.46 1030.72C2428.46 1030.01 2428.82 1029.66 2429.53 1029.65L2436.55 1029.63C2436.67 1029.63 2436.79 1029.65 2436.9 1029.7C2437.01 1029.74 2437.12 1029.81 2437.2 1029.89C2437.29 1029.98 2437.35 1030.08 2437.4 1030.19C2437.45 1030.31 2437.47 1030.43 2437.47 1030.55L2437.49 1033.28C2437.5 1033.83 2437.7 1033.91 2438.1 1033.53Z" fill="black"/>
<path d="M1165.19 1054.45C1164.47 1054.45 1164.19 1054.8 1164.36 1055.5C1165.65 1061.05 1168.89 1064.27 1174.09 1065.15C1179.24 1066.03 1183.19 1064.17 1185.95 1059.59C1186.02 1059.47 1186.13 1059.41 1186.27 1059.4C1189.48 1059.38 1192.54 1059.37 1195.46 1059.38C1195.48 1059.38 1195.51 1059.39 1195.53 1059.4C1195.55 1059.41 1195.56 1059.42 1195.58 1059.44C1195.59 1059.46 1195.6 1059.48 1195.6 1059.5C1195.6 1059.52 1195.6 1059.54 1195.59 1059.56C1192.67 1067.16 1187.45 1071.5 1179.94 1072.56C1166.82 1074.42 1156.25 1066.67 1155.2 1053.53C1154.37 1043.08 1158.74 1033.33 1169.31 1030.31C1185.52 1025.69 1198.55 1037.02 1196.38 1053.72C1196.35 1053.93 1196.25 1054.12 1196.09 1054.26C1195.93 1054.4 1195.72 1054.48 1195.51 1054.48L1165.19 1054.45ZM1164.73 1047.3L1187.19 1047.26C1187.22 1047.26 1187.25 1047.25 1187.28 1047.23C1187.3 1047.2 1187.31 1047.17 1187.31 1047.14V1047.09C1187.31 1045.75 1187.02 1044.43 1186.45 1043.19C1185.89 1041.96 1185.06 1040.84 1184.02 1039.89C1182.98 1038.95 1181.75 1038.2 1180.39 1037.69C1179.03 1037.18 1177.58 1036.92 1176.11 1036.92H1175.77C1172.81 1036.93 1169.96 1038.01 1167.87 1039.92C1165.78 1041.84 1164.61 1044.43 1164.61 1047.13V1047.18C1164.61 1047.21 1164.62 1047.24 1164.65 1047.27C1164.67 1047.29 1164.7 1047.3 1164.73 1047.3Z" fill="black"/>
<path d="M1280.7 1034.89L1280.75 1031.13C1280.75 1030.4 1281.13 1030.03 1281.87 1030.03H1288.51C1289.33 1030.03 1289.74 1030.44 1289.74 1031.26L1289.78 1071.02C1289.78 1071.72 1289.43 1072.07 1288.73 1072.08L1281.81 1072.11C1281.1 1072.12 1280.74 1071.77 1280.74 1071.06L1280.72 1066.99C1280.72 1066.93 1280.7 1066.87 1280.66 1066.81C1280.63 1066.76 1280.58 1066.72 1280.52 1066.7C1280.46 1066.68 1280.4 1066.67 1280.34 1066.69C1280.27 1066.7 1280.22 1066.73 1280.18 1066.78C1275.25 1071.96 1269.22 1073.82 1262.08 1072.36C1246.06 1069.1 1241.82 1047.28 1251.49 1036.01C1258.68 1027.62 1272.42 1026.75 1280.03 1035.14C1280.47 1035.63 1280.69 1035.54 1280.7 1034.89ZM1268.5 1065.08C1270.17 1065.03 1271.81 1064.63 1273.33 1063.88C1274.85 1063.13 1276.22 1062.06 1277.36 1060.73C1278.5 1059.4 1279.4 1057.82 1279.99 1056.1C1280.58 1054.38 1280.86 1052.55 1280.81 1050.71C1280.76 1048.86 1280.39 1047.05 1279.71 1045.36C1279.03 1043.68 1278.05 1042.15 1276.84 1040.88C1275.63 1039.61 1274.2 1038.61 1272.65 1037.95C1271.09 1037.28 1269.43 1036.96 1267.77 1037C1266.1 1037.05 1264.47 1037.45 1262.95 1038.2C1261.43 1038.95 1260.06 1040.02 1258.91 1041.35C1257.77 1042.68 1256.88 1044.26 1256.29 1045.98C1255.69 1047.7 1255.41 1049.53 1255.46 1051.37C1255.51 1053.22 1255.88 1055.03 1256.57 1056.72C1257.25 1058.4 1258.22 1059.93 1259.43 1061.2C1260.64 1062.47 1262.07 1063.47 1263.63 1064.13C1265.18 1064.8 1266.84 1065.12 1268.5 1065.08Z" fill="black"/>
<path d="M1354.75 1033.87C1355.71 1033.19 1356.53 1032.2 1357.56 1031.66C1366.44 1026.96 1378.3 1029.16 1382.43 1039.19C1383.39 1041.52 1383.85 1044.5 1383.81 1048.15C1383.72 1056.58 1383.71 1064.42 1383.77 1071.68C1383.77 1072.03 1383.6 1072.2 1383.25 1072.19L1375.46 1072.03C1375.13 1072.02 1374.97 1071.86 1374.97 1071.53C1375.13 1062.41 1375.1 1054.19 1374.88 1046.88C1374.78 1043.2 1373.18 1040.4 1370.08 1038.49C1365.3 1035.52 1357.48 1037.05 1355.19 1042.85C1354.51 1044.6 1354.17 1046.58 1354.19 1048.8C1354.24 1055.99 1354.25 1063.6 1354.21 1071.64C1354.21 1071.93 1354.07 1072.07 1353.78 1072.07L1345.73 1072.08C1345.45 1072.08 1345.31 1071.94 1345.31 1071.66L1345.39 1030.94C1345.39 1030.33 1345.7 1030.02 1346.31 1030.02L1353.48 1030.06C1354.06 1030.07 1354.34 1030.36 1354.3 1030.93L1354.16 1033.54C1354.16 1033.61 1354.18 1033.68 1354.21 1033.74C1354.25 1033.8 1354.3 1033.85 1354.36 1033.88C1354.42 1033.92 1354.49 1033.93 1354.56 1033.93C1354.63 1033.93 1354.69 1033.91 1354.75 1033.87Z" fill="black"/>
<path d="M1437.26 1072.57C1431.62 1071.45 1426.65 1068.11 1423.46 1063.27C1420.26 1058.44 1419.1 1052.51 1420.24 1046.79C1420.8 1043.96 1421.9 1041.27 1423.49 1038.86C1425.08 1036.46 1427.12 1034.39 1429.49 1032.78C1431.87 1031.17 1434.53 1030.05 1437.33 1029.48C1440.13 1028.9 1443.01 1028.89 1445.8 1029.45C1451.45 1030.57 1456.42 1033.91 1459.61 1038.74C1462.8 1043.58 1463.96 1049.51 1462.83 1055.23C1462.27 1058.06 1461.16 1060.75 1459.57 1063.16C1457.99 1065.56 1455.95 1067.63 1453.57 1069.24C1451.2 1070.85 1448.54 1071.97 1445.74 1072.54C1442.94 1073.11 1440.06 1073.12 1437.26 1072.57ZM1441.14 1065.13C1442.79 1065.17 1444.43 1064.85 1445.97 1064.18C1447.51 1063.5 1448.93 1062.5 1450.12 1061.21C1451.32 1059.93 1452.29 1058.39 1452.96 1056.69C1453.63 1054.99 1454 1053.16 1454.05 1051.31C1454.14 1047.56 1452.9 1043.93 1450.61 1041.22C1448.32 1038.51 1445.16 1036.94 1441.83 1036.86C1440.18 1036.82 1438.54 1037.15 1436.99 1037.82C1435.45 1038.49 1434.04 1039.5 1432.84 1040.79C1431.64 1042.07 1430.68 1043.61 1430.01 1045.31C1429.33 1047.01 1428.96 1048.84 1428.92 1050.69C1428.82 1054.44 1430.06 1058.07 1432.35 1060.78C1434.64 1063.49 1437.8 1065.05 1441.14 1065.13Z" fill="black"/>
<path d="M1482.32 1035.13C1484.7 1031.58 1488.34 1029.6 1493.26 1029.2C1494.05 1029.13 1494.45 1029.5 1494.45 1030.29L1494.49 1037.53C1494.49 1037.68 1494.46 1037.83 1494.4 1037.97C1494.33 1038.11 1494.25 1038.23 1494.13 1038.33C1494.02 1038.43 1493.89 1038.51 1493.74 1038.55C1493.6 1038.6 1493.45 1038.62 1493.3 1038.6C1485.51 1037.63 1481.81 1042.28 1481.79 1049.44C1481.77 1057.41 1481.76 1064.8 1481.78 1071.59C1481.78 1071.96 1481.59 1072.15 1481.22 1072.15L1473.49 1072.1C1473.08 1072.1 1472.88 1071.9 1472.88 1071.49L1472.87 1031.33C1472.87 1030.46 1473.3 1030.03 1474.17 1030.03H1480.77C1481.43 1030.03 1481.77 1030.36 1481.77 1031.03L1481.79 1034.97C1481.79 1035.6 1481.96 1035.66 1482.32 1035.13Z" fill="black"/>
<path d="M1513.2 1033.96C1518.68 1028.32 1527.02 1028.05 1533.81 1031.34C1536.17 1032.49 1538.03 1034.25 1539.39 1036.63C1539.44 1036.71 1539.51 1036.79 1539.59 1036.83C1539.67 1036.88 1539.77 1036.91 1539.86 1036.91C1539.96 1036.91 1540.06 1036.89 1540.14 1036.84C1540.23 1036.79 1540.3 1036.72 1540.35 1036.64C1542.05 1033.83 1544.53 1031.78 1547.81 1030.49C1556.45 1027.1 1566.68 1030.31 1570.39 1038.98C1571.31 1041.12 1571.79 1043.98 1571.83 1047.56C1571.95 1055.79 1572.02 1063.84 1572.04 1071.7C1572.04 1071.94 1571.93 1072.06 1571.69 1072.06L1563.52 1072.05C1563.2 1072.05 1563.04 1071.89 1563.04 1071.56C1563.18 1063.72 1563.18 1055.87 1563.03 1048.02C1562.94 1043.05 1561.12 1039.74 1557.57 1038.07C1550.01 1034.5 1542.33 1039.23 1542.27 1047.87C1542.23 1055.78 1542.22 1063.69 1542.26 1071.6C1542.26 1071.92 1542.1 1072.08 1541.78 1072.08L1533.79 1072.06C1533.53 1072.06 1533.39 1071.92 1533.39 1071.65C1533.38 1064.83 1533.38 1057.78 1533.39 1050.5C1533.4 1047.36 1533.32 1043.89 1531.54 1041.23C1529.7 1038.47 1526.96 1037.07 1523.33 1037.02C1514.47 1036.91 1512.37 1043.49 1512.46 1051.02C1512.55 1058.03 1512.55 1064.88 1512.46 1071.59C1512.46 1071.66 1512.45 1071.73 1512.42 1071.8C1512.39 1071.86 1512.35 1071.92 1512.3 1071.97C1512.25 1072.02 1512.19 1072.06 1512.13 1072.08C1512.06 1072.11 1511.99 1072.12 1511.92 1072.12L1504.2 1072.02C1503.82 1072.01 1503.63 1071.82 1503.63 1071.45V1030.85C1503.63 1030.17 1503.97 1029.83 1504.65 1029.83L1511.54 1029.82C1512.18 1029.82 1512.51 1030.14 1512.51 1030.79L1512.52 1033.69C1512.52 1034.33 1512.75 1034.42 1513.2 1033.96Z" fill="black"/>
<path d="M1615.7 1034.87L1615.67 1030.91C1615.67 1030.2 1616.02 1029.83 1616.72 1029.83L1623.3 1029.81C1624.13 1029.8 1624.54 1030.22 1624.54 1031.05V1070.93C1624.54 1071.74 1624.14 1072.14 1623.33 1072.13L1616.68 1072.03C1615.95 1072.02 1615.6 1071.65 1615.63 1070.92L1615.78 1067.71C1615.84 1066.61 1615.46 1066.44 1614.65 1067.19C1608.51 1072.89 1601.56 1074.26 1593.8 1071.28C1583.51 1067.32 1579.66 1055.13 1581.96 1044.92C1583.36 1038.73 1586.75 1034.22 1592.15 1031.38C1599.33 1027.59 1609.36 1028.61 1614.99 1035.14C1615.05 1035.2 1615.12 1035.25 1615.2 1035.27C1615.28 1035.29 1615.36 1035.28 1615.44 1035.25C1615.51 1035.22 1615.58 1035.17 1615.63 1035.1C1615.68 1035.03 1615.7 1034.95 1615.7 1034.87ZM1603.34 1064.97C1606.7 1064.9 1609.88 1063.35 1612.2 1060.66C1614.51 1057.97 1615.76 1054.37 1615.68 1050.64C1615.64 1048.8 1615.27 1046.98 1614.59 1045.29C1613.92 1043.6 1612.95 1042.07 1611.75 1040.79C1610.54 1039.52 1609.12 1038.51 1607.57 1037.84C1606.02 1037.17 1604.37 1036.84 1602.7 1036.88C1599.35 1036.96 1596.16 1038.51 1593.85 1041.2C1591.53 1043.89 1590.28 1047.49 1590.37 1051.22C1590.41 1053.06 1590.78 1054.88 1591.45 1056.57C1592.13 1058.26 1593.09 1059.79 1594.3 1061.06C1595.5 1062.34 1596.92 1063.34 1598.47 1064.02C1600.03 1064.69 1601.68 1065.01 1603.34 1064.97Z" fill="black"/>
<path d="M1656.27 1036.77C1644.81 1035.71 1641.72 1048.36 1644.31 1056.68C1646.35 1063.25 1650.8 1066 1657.67 1064.93C1660.67 1064.47 1662.93 1062.69 1664.44 1059.58C1664.75 1058.97 1665.24 1058.66 1665.92 1058.65L1673.5 1058.61C1674.28 1058.61 1674.53 1058.97 1674.25 1059.69C1670.89 1068.44 1664.41 1072.78 1654.81 1072.71C1643.22 1072.63 1635.38 1064.65 1634.51 1053.17C1633.71 1042.69 1638.4 1032.75 1648.83 1030.04C1653.68 1028.78 1658.46 1028.94 1663.19 1030.5C1668.86 1032.38 1672.6 1036.56 1674.43 1043.03C1674.44 1043.05 1674.44 1043.08 1674.43 1043.1C1674.43 1043.12 1674.42 1043.15 1674.4 1043.16C1674.39 1043.18 1674.37 1043.2 1674.35 1043.21C1674.33 1043.22 1674.3 1043.22 1674.28 1043.22L1665.05 1043.28C1664.99 1043.28 1664.93 1043.26 1664.88 1043.23C1664.83 1043.2 1664.79 1043.15 1664.77 1043.09C1663.25 1039.26 1660.42 1037.16 1656.27 1036.77Z" fill="black"/>
<path d="M1720.86 1072.58C1718.05 1072.09 1715.37 1071.05 1712.96 1069.51C1710.56 1067.96 1708.48 1065.96 1706.85 1063.6C1705.21 1061.24 1704.05 1058.58 1703.43 1055.77C1702.82 1052.95 1702.76 1050.04 1703.25 1047.2C1704.26 1041.45 1707.47 1036.34 1712.19 1032.98C1716.91 1029.62 1722.75 1028.29 1728.42 1029.28C1731.23 1029.77 1733.91 1030.81 1736.32 1032.35C1738.72 1033.89 1740.8 1035.9 1742.43 1038.26C1744.07 1040.61 1745.23 1043.28 1745.84 1046.09C1746.46 1048.91 1746.52 1051.82 1746.03 1054.66C1745.02 1060.4 1741.81 1065.52 1737.09 1068.88C1732.37 1072.24 1726.53 1073.57 1720.86 1072.58ZM1724.19 1065.05C1727.52 1065.15 1730.76 1063.75 1733.19 1061.17C1735.63 1058.58 1737.05 1055.03 1737.16 1051.28C1737.21 1049.43 1736.93 1047.58 1736.35 1045.85C1735.76 1044.12 1734.88 1042.53 1733.75 1041.19C1732.62 1039.85 1731.26 1038.77 1729.76 1038.01C1728.25 1037.26 1726.63 1036.85 1724.97 1036.8C1721.64 1036.71 1718.4 1038.11 1715.97 1040.69C1713.53 1043.28 1712.11 1046.83 1712 1050.58C1711.95 1052.43 1712.23 1054.28 1712.81 1056.01C1713.4 1057.74 1714.28 1059.32 1715.41 1060.67C1716.54 1062.01 1717.9 1063.09 1719.4 1063.84C1720.91 1064.6 1722.53 1065.01 1724.19 1065.05Z" fill="black"/>
<path d="M1765.65 1033.63C1773.78 1026.35 1788.1 1027.87 1793.03 1038.55C1794.15 1040.99 1794.67 1044.85 1794.58 1050.13C1794.45 1057.11 1794.44 1064.02 1794.54 1070.86C1794.55 1071.58 1794.2 1071.94 1793.48 1071.94L1786.7 1071.96C1786.49 1071.96 1786.29 1071.88 1786.14 1071.73C1786 1071.59 1785.92 1071.39 1785.92 1071.19C1785.92 1063.72 1785.91 1056.29 1785.9 1048.9C1785.89 1045.83 1785.24 1043.25 1783.95 1041.16C1781.29 1036.84 1775.12 1035.97 1770.77 1037.87C1766.32 1039.81 1764.91 1044.12 1764.96 1048.7C1765.05 1056.21 1765.05 1063.7 1764.97 1071.17C1764.96 1071.63 1764.73 1071.86 1764.27 1071.87L1756.86 1072.04C1756.39 1072.05 1756.16 1071.82 1756.16 1071.36V1030.83C1756.16 1030.16 1756.49 1029.82 1757.17 1029.82L1763.95 1029.83C1764.7 1029.83 1765.06 1030.2 1765.04 1030.95L1764.95 1033.3C1764.92 1033.96 1765.15 1034.07 1765.65 1033.63Z" fill="black"/>
<path d="M2196.33 1029.64H2188.43C2188.1 1029.64 2187.83 1029.91 2187.83 1030.24V1071.36C2187.83 1071.69 2188.1 1071.96 2188.43 1071.96H2196.33C2196.66 1071.96 2196.93 1071.69 2196.93 1071.36V1030.24C2196.93 1029.91 2196.66 1029.64 2196.33 1029.64Z" fill="black"/>
<path d="M1692.64 1029.82H1685C1684.67 1029.82 1684.41 1030.08 1684.41 1030.41V1071.49C1684.41 1071.82 1684.67 1072.08 1685 1072.08H1692.64C1692.96 1072.08 1693.23 1071.82 1693.23 1071.49V1030.41C1693.23 1030.08 1692.96 1029.82 1692.64 1029.82Z" fill="black"/>
<path d="M1857.17 1029.86L1865.78 1029.83C1865.83 1029.83 1865.88 1029.84 1865.93 1029.86C1865.97 1029.89 1866.01 1029.92 1866.04 1029.96C1866.07 1030.01 1866.09 1030.06 1866.09 1030.11C1866.1 1030.16 1866.09 1030.21 1866.07 1030.26L1840.54 1091.45C1840.52 1091.5 1840.48 1091.55 1840.43 1091.58C1840.38 1091.62 1840.32 1091.64 1840.26 1091.64L1831.65 1091.73C1831.6 1091.73 1831.55 1091.72 1831.5 1091.69C1831.46 1091.67 1831.42 1091.63 1831.39 1091.59C1831.36 1091.55 1831.34 1091.5 1831.34 1091.45C1831.33 1091.4 1831.34 1091.35 1831.36 1091.3L1839.69 1071.33C1839.71 1071.29 1839.72 1071.25 1839.72 1071.21C1839.72 1071.17 1839.71 1071.13 1839.69 1071.09L1823.39 1030.27C1823.37 1030.22 1823.36 1030.17 1823.37 1030.12C1823.37 1030.07 1823.39 1030.02 1823.42 1029.97C1823.45 1029.93 1823.49 1029.9 1823.53 1029.87C1823.58 1029.85 1823.63 1029.84 1823.68 1029.84L1832.94 1029.85C1833 1029.85 1833.07 1029.87 1833.12 1029.9C1833.17 1029.94 1833.21 1029.99 1833.23 1030.05L1844.55 1060.77C1844.57 1060.83 1844.61 1060.88 1844.67 1060.91C1844.72 1060.95 1844.78 1060.97 1844.84 1060.97C1844.9 1060.97 1844.97 1060.95 1845.02 1060.91C1845.07 1060.88 1845.11 1060.83 1845.13 1060.77L1856.88 1030.06C1856.9 1030 1856.94 1029.95 1857 1029.91C1857.05 1029.88 1857.11 1029.86 1857.17 1029.86Z" fill="black"/>
<path d="M2115.5 1067.99C2115.5 1067.93 2115.48 1067.87 2115.44 1067.81C2115.41 1067.76 2115.35 1067.72 2115.3 1067.7C2115.24 1067.67 2115.17 1067.67 2115.11 1067.68C2115.05 1067.69 2114.99 1067.73 2114.95 1067.77C2110.83 1071.88 2105.29 1073.21 2099.66 1072.23C2093.54 1071.16 2089.4 1067.96 2087.23 1062.62C2086.09 1059.82 2085.58 1055.35 2085.7 1049.2C2085.82 1042.68 2085.84 1036.41 2085.74 1030.4C2085.74 1030.32 2085.75 1030.25 2085.78 1030.18C2085.81 1030.1 2085.85 1030.04 2085.9 1029.98C2085.96 1029.93 2086.02 1029.89 2086.09 1029.86C2086.16 1029.83 2086.24 1029.81 2086.32 1029.81L2094.11 1029.83C2094.18 1029.83 2094.25 1029.84 2094.31 1029.87C2094.38 1029.9 2094.44 1029.94 2094.49 1029.99C2094.53 1030.04 2094.57 1030.1 2094.6 1030.16C2094.63 1030.23 2094.64 1030.3 2094.64 1030.37C2094.58 1038.87 2094.59 1046.78 2094.67 1054.11C2094.75 1061.71 2100.64 1066.16 2107.89 1064.39C2114.74 1062.72 2115.68 1056.44 2115.57 1050.15C2115.44 1043.26 2115.43 1036.64 2115.55 1030.29C2115.55 1029.96 2115.72 1029.8 2116.04 1029.8H2123.76C2123.91 1029.8 2124.06 1029.86 2124.17 1029.97C2124.28 1030.08 2124.34 1030.23 2124.34 1030.38L2124.32 1070.94C2124.32 1071.61 2123.98 1071.95 2123.31 1071.95H2116.47C2115.82 1071.95 2115.5 1071.62 2115.5 1070.97V1067.99Z" fill="black"/>
<path d="M2365.08 1029.66H2357.56C2357.2 1029.66 2356.91 1029.95 2356.91 1030.31V1071.31C2356.91 1071.67 2357.2 1071.96 2357.56 1071.96H2365.08C2365.44 1071.96 2365.73 1071.67 2365.73 1071.31V1030.31C2365.73 1029.95 2365.44 1029.66 2365.08 1029.66Z" fill="black"/>
</svg>
