<svg width="2720" height="1117" viewBox="0 0 2720 1117" fill="none" xmlns="http://www.w3.org/2000/svg">
<path d="M2573.39 309.291C2546.57 360.882 2594.54 414.248 2648.55 403.888C2650.59 403.493 2651.43 404.325 2651.09 406.383L2641.03 468.715C2641 468.898 2640.93 469.071 2640.82 469.219C2640.7 469.367 2640.56 469.484 2640.39 469.56C2640.22 469.635 2640.03 469.668 2639.85 469.653C2639.67 469.638 2639.49 469.578 2639.33 469.476C2609.89 450.404 2571.57 454.887 2549.32 481.739C2523.56 512.863 2533.12 557.307 2564 581.2C2564.3 581.441 2564.55 581.749 2564.72 582.101C2564.89 582.453 2564.98 582.839 2564.98 583.23C2564.98 583.621 2564.89 584.007 2564.72 584.358C2564.55 584.71 2564.3 585.018 2564 585.259C2549.5 596.564 2534.37 606.572 2518.61 615.284C2516.8 616.299 2515.6 615.805 2515.01 613.804C2501.01 566.357 2442.93 550.457 2406.59 581.58C2386.91 598.411 2379.34 620.767 2383.88 648.649C2383.9 648.766 2383.89 648.887 2383.86 649.001C2383.82 649.115 2383.76 649.22 2383.68 649.306C2383.6 649.393 2383.49 649.459 2383.38 649.499C2383.27 649.539 2383.15 649.552 2383.03 649.537C2359.23 647.028 2336.95 643.137 2316.2 637.865C2314.9 637.527 2314.56 636.78 2315.18 635.624C2332.04 604.359 2329.05 576.323 2306.21 551.514C2277.07 519.883 2227.91 526.015 2201.94 560.479C2201.8 560.67 2201.61 560.826 2201.4 560.936C2201.19 561.046 2200.95 561.108 2200.71 561.116C2200.47 561.124 2200.24 561.079 2200.02 560.983C2199.8 560.887 2199.6 560.744 2199.44 560.563C2184.55 543.479 2171.68 523.646 2160.82 501.065C2159.86 499.063 2160.47 497.837 2162.64 497.386C2191.28 491.635 2215.31 471.76 2218.48 441.313C2219.72 429.275 2218.24 418.153 2214.04 407.948C2201.6 377.67 2178.25 362.841 2143.99 363.461C2143.74 363.464 2143.49 363.412 2143.26 363.31C2143.03 363.207 2142.83 363.056 2142.66 362.867C2142.5 362.678 2142.37 362.456 2142.3 362.215C2142.23 361.975 2142.22 361.722 2142.25 361.474L2151.05 304.724C2151.11 304.323 2151.28 303.946 2151.53 303.626C2151.77 303.307 2152.1 303.057 2152.48 302.9C2152.85 302.743 2153.26 302.684 2153.66 302.73C2154.06 302.775 2154.45 302.923 2154.77 303.159C2172.75 315.761 2197.79 318.086 2217.8 309.46C2265.26 289.162 2275.59 225.857 2233.33 193.127C2233.1 192.95 2232.92 192.723 2232.8 192.465C2232.67 192.206 2232.61 191.923 2232.62 191.636C2232.62 191.35 2232.69 191.068 2232.82 190.813C2232.95 190.558 2233.14 190.337 2233.37 190.166C2248.09 179.595 2263.95 170.221 2280.96 162.045C2281.31 161.871 2281.7 161.78 2282.09 161.781C2282.48 161.782 2282.87 161.873 2283.23 162.048C2283.58 162.224 2283.89 162.478 2284.14 162.793C2284.38 163.108 2284.55 163.474 2284.64 163.864C2290.81 192.704 2315.35 215.285 2340.86 219.387C2359.58 222.404 2376.6 217.09 2391.91 203.445C2411.06 186.417 2418.24 164.23 2413.45 136.884C2413.14 135.164 2413.84 134.488 2415.56 134.854L2472.71 146.991C2475.36 147.555 2476.07 149.049 2474.82 151.473C2463.37 173.97 2462.84 196.087 2473.22 217.823C2495.85 265.269 2559.47 264.635 2588.7 224.377C2588.84 224.186 2589.02 224.03 2589.23 223.921C2589.44 223.812 2589.68 223.753 2589.91 223.749C2590.15 223.745 2590.38 223.796 2590.58 223.897C2590.79 223.999 2590.97 224.149 2591.11 224.335C2601.26 237.613 2610.55 253.048 2618.99 270.64C2619.1 270.869 2619.16 271.121 2619.17 271.377C2619.17 271.634 2619.12 271.889 2619.02 272.126C2618.91 272.363 2618.76 272.576 2618.56 272.75C2618.37 272.924 2618.14 273.055 2617.89 273.135C2597.47 279.393 2582.64 291.445 2573.39 309.291ZM2534.13 392.174C2534.13 355.197 2519.44 319.735 2493.28 293.588C2467.13 267.441 2431.65 252.752 2394.66 252.752C2357.68 252.752 2322.2 267.441 2296.05 293.588C2269.89 319.735 2255.2 355.197 2255.2 392.174C2255.2 429.151 2269.89 464.614 2296.05 490.761C2322.2 516.907 2357.68 531.597 2394.66 531.597C2431.65 531.597 2467.13 516.907 2493.28 490.761C2519.44 464.614 2534.13 429.151 2534.13 392.174Z" fill="#AFB0B1"/>
<path d="M2371.32 406.561L2385.03 490.459C2385.07 490.675 2385.06 490.898 2385.02 491.114C2384.97 491.33 2384.88 491.534 2384.75 491.716C2384.62 491.897 2384.45 492.051 2384.26 492.17C2384.07 492.288 2383.85 492.368 2383.63 492.404L2339.21 499.339C2337.44 499.593 2336.41 498.846 2336.13 497.098L2305.67 301.603C2305.63 301.358 2305.64 301.108 2305.7 300.868C2305.76 300.628 2305.87 300.403 2306.01 300.206C2306.16 300.009 2306.34 299.844 2306.55 299.721C2306.76 299.598 2306.99 299.519 2307.23 299.488C2340.85 294.583 2375.65 289.353 2411.63 283.8C2418.43 282.756 2425.38 283.504 2432.49 286.041C2484.39 304.521 2484.81 371.969 2434.43 392.732C2434.21 392.825 2434 392.969 2433.84 393.153C2433.68 393.337 2433.56 393.556 2433.49 393.793C2433.43 394.029 2433.42 394.278 2433.46 394.52C2433.51 394.761 2433.61 394.989 2433.76 395.185L2488.54 468.512C2488.58 468.583 2488.61 468.664 2488.62 468.748C2488.63 468.832 2488.62 468.915 2488.59 468.991C2488.56 469.067 2488.51 469.132 2488.45 469.182C2488.39 469.231 2488.32 469.262 2488.24 469.273L2447.04 478.238C2446.02 478.463 2445.21 478.167 2444.59 477.35L2387.78 403.347C2386.68 401.909 2385.22 401.317 2383.42 401.571L2373.9 403.008C2371.84 403.318 2370.98 404.503 2371.32 406.561ZM2354.87 324.523L2362.73 376.536C2362.78 376.856 2362.89 377.163 2363.05 377.44C2363.22 377.718 2363.44 377.96 2363.7 378.152C2363.96 378.345 2364.25 378.484 2364.57 378.562C2364.88 378.641 2365.21 378.656 2365.53 378.608L2406.73 372.35C2414.01 371.24 2420.56 367.357 2424.95 361.553C2429.34 355.749 2431.19 348.499 2430.12 341.395L2429.65 338.139C2429.12 334.619 2427.88 331.242 2426 328.2C2424.13 325.158 2421.65 322.511 2418.72 320.411C2415.79 318.31 2412.46 316.796 2408.92 315.956C2405.38 315.116 2401.71 314.966 2398.1 315.515L2356.9 321.732C2356.26 321.836 2355.69 322.187 2355.31 322.71C2354.93 323.232 2354.77 323.884 2354.87 324.523Z" fill="#AFB0B1"/>
<path d="M1002.58 777.083V425.378C1002.58 425.12 1002.69 424.872 1002.87 424.69C1003.05 424.507 1003.3 424.405 1003.56 424.405H1109.23C1109.55 424.405 1109.86 424.534 1110.09 424.764C1110.32 424.994 1110.45 425.306 1110.45 425.631V971.649C1110.45 973.227 1109.66 973.988 1108.08 973.932C1088.24 973.044 1066.92 974.355 1050.68 960.992C1007.93 925.781 972.043 889.272 943.024 851.467C880.644 770.191 819.251 688.139 758.845 605.311C757.492 603.451 756.815 603.676 756.815 605.988C756.617 719.065 756.589 828.209 756.73 933.421C756.758 943.09 756.223 952.337 755.123 961.161C754.954 962.599 754.136 963.332 752.669 963.36L651.358 964.164C649.328 964.192 648.312 963.191 648.312 961.161V387.488C648.312 385.966 649.074 385.19 650.597 385.162C665.43 384.739 677.472 387.065 686.722 392.14C729.446 415.525 760.537 451.68 792.432 495.279C860.932 588.819 930.334 682.965 1000.64 777.718C1001.94 779.437 1002.58 779.226 1002.58 777.083Z" fill="#1F315E"/>
<path d="M1444 752.513L1378.94 573.129C1378.07 570.648 1377.22 570.648 1376.4 573.129L1248.23 962.048C1247.81 963.345 1246.92 963.993 1245.56 963.993L1139.18 963.951C1139 963.948 1138.83 963.903 1138.67 963.82C1138.52 963.737 1138.39 963.618 1138.29 963.473C1138.19 963.328 1138.12 963.162 1138.1 962.987C1138.08 962.813 1138.1 962.636 1138.16 962.471L1341.42 411.463C1341.93 410.11 1342.9 409.434 1344.34 409.434H1422.43C1424.23 409.434 1425.44 410.279 1426.06 411.971L1626.91 962.132C1626.98 962.337 1627.01 962.556 1626.98 962.772C1626.95 962.988 1626.87 963.193 1626.75 963.372C1626.62 963.55 1626.46 963.696 1626.26 963.797C1626.07 963.898 1625.86 963.95 1625.64 963.951L1514.05 963.993C1513.64 963.995 1513.23 963.864 1512.9 963.621C1512.56 963.378 1512.31 963.034 1512.19 962.64L1472.38 841.824C1471.72 839.818 1470.45 838.072 1468.74 836.834C1421.03 802.158 1356.39 815.268 1305.21 835.058C1303.04 835.904 1302.42 835.256 1303.35 833.113C1318.49 798.014 1343.11 770.866 1382.54 763.042C1406.39 758.306 1426.23 755.741 1442.05 755.346C1444.03 755.29 1444.68 754.345 1444 752.513Z" fill="#1F315E"/>
<path d="M361.552 518.538C320.097 511.772 281.758 521.837 246.536 548.732C241.149 552.848 240.529 552.227 244.674 546.871C292.686 485.216 370.52 459.589 447.466 465.51C517.982 470.922 568.109 527.207 588.413 590.681C615.458 675.312 610.494 755.476 573.523 831.17C538.371 903.102 470.435 960.021 390.571 976.682C271.62 1001.46 158.634 941.964 103.473 836.372C68.73 769.867 60.1711 699.219 77.7966 624.426C111.849 479.93 250.3 381.696 399.793 417.978C411.496 420.826 422.79 424.66 433.676 429.481C439.626 432.102 439.344 433.441 432.83 433.498C285.114 435.02 187.991 529.66 180.8 677.709C179.502 704.547 182.28 728.369 189.133 749.175C213.668 823.685 280.08 877.517 359.987 864.662C420.012 855.02 468.616 807.109 485.452 749.978C504.375 685.87 494.237 627.711 455.038 575.5C433.591 546.913 397.762 524.458 361.552 518.538Z" fill="#1F315E"/>
<path d="M1758.89 517.433V962.256C1758.89 962.704 1758.71 963.135 1758.39 963.452C1758.07 963.769 1757.64 963.947 1757.19 963.947L1653.39 963.99C1653.19 963.99 1653 963.951 1652.82 963.877C1652.64 963.803 1652.48 963.693 1652.34 963.556C1652.2 963.419 1652.09 963.255 1652.02 963.076C1651.94 962.896 1651.91 962.704 1651.91 962.509V426.303C1651.91 425.742 1652.13 425.204 1652.54 424.808C1652.94 424.411 1653.49 424.188 1654.06 424.188C1710.27 424.64 1769.43 424.583 1831.56 424.019C1850.11 423.85 1865.46 425.556 1877.58 429.136C1959.82 453.282 1986.42 533.967 1986.68 611.353C1987.02 715.423 1889.51 755.469 1801.27 761.812C1799.47 761.953 1799.35 761.587 1800.93 760.713C1860.75 728.363 1878.77 662.521 1878.17 597.737C1877.75 552.362 1846.45 511.808 1797.59 514.388C1785.8 515.008 1773.96 515.022 1762.06 514.43C1759.94 514.317 1758.89 515.318 1758.89 517.433Z" fill="#1F315E"/>
<path d="M2135.23 424.395H2022.54C2021.68 424.395 2020.98 425.095 2020.98 425.959V962.419C2020.98 963.284 2021.68 963.984 2022.54 963.984H2135.23C2136.1 963.984 2136.8 963.284 2136.8 962.419V425.959C2136.8 425.095 2136.1 424.395 2135.23 424.395Z" fill="#1F315E"/>
</svg>
