<svg width="2480" height="1260" viewBox="0 0 2480 1260" fill="none" xmlns="http://www.w3.org/2000/svg">
<path d="M2413.62 632.003L2001.84 631.969C2001.64 631.971 2001.45 632.016 2001.27 632.1C2001.09 632.185 2000.93 632.308 2000.81 632.46C2000.68 632.612 2000.59 632.789 2000.54 632.98C2000.49 633.171 2000.48 633.371 2000.51 633.565L2008.8 682.403" stroke="#001832" stroke-width="2"/>
<path d="M2401.46 785.208C2399.38 787.857 2395.13 794.298 2388.72 804.532C2375.31 825.906 2357.8 846.521 2336.2 866.377C2292.24 906.759 2236.05 924.181 2177.99 930.838C2122.27 937.223 2069.74 936.159 2020.39 927.645C1966.13 918.272 1917.93 895.958 1879.91 855.408C1789.51 759.023 1766.85 624.158 1782.41 494.592C1786.83 457.913 1795.22 423.826 1807.58 392.332" stroke="#001832" stroke-width="2"/>
<path d="M1668.57 936.034L1470.95 935.797C1469.82 935.797 1469.25 935.231 1469.25 934.099C1468.8 799.721 1468.72 666.782 1469.01 535.28C1469.15 488.446 1461.13 419.774 1399.47 415.257C1351.91 411.759 1322.52 446.129 1311.62 489.397" stroke="#001832" stroke-width="2"/>
<path d="M1276.73 936.068L1079.31 935.83C1078.68 935.83 1078.36 935.513 1078.36 934.879L1078.26 264.227" stroke="#001832" stroke-width="2"/>
<path d="M85.5469 1207.7C88.2194 1203.33 91.4128 1199.83 95.1271 1197.2" stroke="#5D0A12" stroke-width="2"/>
<path d="M95.1259 1197.2C121.726 1210.92 149.108 1199 162.595 1174.62C177.815 1147.07 172.651 1108.93 147.919 1089.51C134.851 1079.25 121.783 1075.82 108.715 1079.22C94.1973 1083 83.2921 1090.72 75.9993 1102.38C62.5008 1123.96 61.1419 1147.14 71.9226 1171.93" stroke="#808080" stroke-width="2"/>
<path d="M71.9203 1171.93C70.9237 1179.54 65.6013 1187.95 55.9531 1197.17" stroke="#00293E" stroke-width="2"/>
<path d="M95.1266 1197.2L87.9923 1192.52C86.9732 1191.86 86.0899 1192.01 85.3425 1192.96L73.7578 1207.36" stroke="#DC8A91" stroke-width="2"/>
<path d="M62.745 1207.49C62.2693 1206.43 62.3599 1205.52 63.0167 1204.78C68.3391 1198.59 73.5143 1192.2 78.5422 1185.59C79.2443 1184.68 79.2896 1183.74 78.6781 1182.77L71.9176 1171.93" stroke="#80A8BD" stroke-width="2"/>
<path d="M197.926 719.863L77.6634 862.776C76.4403 864.225 75.8175 865.901 75.7949 867.803L75.625 929.75C75.625 930.092 75.761 930.421 76.0031 930.663C76.2452 930.905 76.5736 931.041 76.916 931.041L115.407 931.176" stroke="#00293E" stroke-width="2"/>
<path d="M115.406 931.178C115.769 931.11 116.12 931.053 116.459 931.008" stroke="#808080" stroke-width="2"/>
<path d="M116.461 931.007L282.519 931.245C283.651 931.245 284.591 930.815 285.339 929.954L344.859 859.992" stroke="#5D0A12" stroke-width="2"/>
<path d="M344.857 859.992C368.706 872.603 389.509 881.524 407.265 886.754C491.948 911.705 573.538 907.822 652.038 875.105C784.225 820.018 870.787 691.878 890.254 552.735C908.769 420.52 866.167 284.501 772.98 190.629C669.33 86.1955 515.264 50.0256 378.083 107.829C235.126 168.078 144.691 309.192 135.077 462.735C129.301 555.203 150.251 640.912 197.926 719.863" stroke="#808080" stroke-width="2"/>
<path d="M344.859 859.993L290.299 824.604C289.348 823.97 288.498 824.095 287.751 824.978L201.868 926.593C200.719 927.965 199.281 929.068 197.655 929.825C196.029 930.582 194.255 930.975 192.458 930.974L116.461 931.008" stroke="#DC8A91" stroke-width="2"/>
<path d="M115.402 931.176L111.869 930.701C111.666 930.674 111.474 930.593 111.313 930.468C111.151 930.342 111.026 930.175 110.95 929.985C110.874 929.795 110.85 929.588 110.88 929.386C110.91 929.183 110.994 928.993 111.122 928.833L239.029 777.226C239.275 776.937 239.411 776.569 239.411 776.19C239.411 775.81 239.275 775.443 239.029 775.154C223.99 758.037 210.288 739.607 197.922 719.863" stroke="#80A8BD" stroke-width="2"/>
<path d="M323.688 564.759C331.026 586.744 342.565 608.741 358.306 630.748C359.415 632.288 360.57 632.333 361.771 630.884L629.407 313.439C629.464 313.367 629.507 313.285 629.533 313.198C629.559 313.111 629.567 313.02 629.558 312.931C629.548 312.842 629.521 312.757 629.478 312.681C629.434 312.605 629.375 312.539 629.305 312.488C610.054 297.318 588.662 286.608 565.131 280.359" stroke="#80A8BD" stroke-width="2"/>
<path d="M565.133 280.357C460.531 251.659 357.152 315.915 324.539 417.632C317.11 440.863 313.011 462.395 312.241 482.229C311.244 508.357 315.06 535.866 323.689 564.757" stroke="#808080" stroke-width="2"/>
<path d="M565.131 280.359C566.354 282.488 565.538 284.865 562.685 287.491C560.737 289.257 558.925 291.125 557.249 293.095C480.992 383.186 404.656 473.571 328.24 564.25C327.742 564.839 327.119 565.144 326.371 565.167C325.624 565.212 324.729 565.076 323.688 564.759" stroke="#00293E" stroke-width="2"/>
<path d="M474.359 705.768C533.811 717.157 585.722 705.429 630.09 670.583C672.193 637.527 699.031 594.712 710.605 542.138C718.736 505.051 717.762 467.399 707.683 429.18" stroke="#808080" stroke-width="2"/>
<path d="M707.686 429.182C701.821 406.948 691.991 385.269 678.198 364.144C678.064 363.94 677.884 363.77 677.674 363.646C677.464 363.523 677.229 363.45 676.987 363.433C676.746 363.417 676.506 363.457 676.285 363.551C676.065 363.645 675.871 363.79 675.718 363.974L410.834 678.227C410.77 678.297 410.722 678.38 410.693 678.471C410.665 678.562 410.657 678.658 410.67 678.752C410.683 678.846 410.717 678.936 410.769 679.015C410.82 679.095 410.889 679.162 410.97 679.212C430.765 692.322 451.895 701.174 474.363 705.771" stroke="#DC8A91" stroke-width="2"/>
<path d="M707.683 429.18L474.359 705.768" stroke="#5D0A12" stroke-width="2"/>
<path d="M2184.13 502.471L2215.15 502.335C2215.36 502.335 2215.58 502.292 2215.77 502.207C2215.97 502.122 2216.15 501.998 2216.29 501.842C2216.44 501.686 2216.55 501.501 2216.62 501.3C2216.7 501.098 2216.73 500.884 2216.71 500.671C2212.43 443.886 2196.13 369.712 2128.55 357.35C2091.15 350.523 2057.79 363.837 2034.86 394.674C2023.96 409.301 2016.17 424.844 2011.48 441.305" stroke="#001832" stroke-width="2"/>
<path d="M112.995 1107.92C94.1513 1114.91 86.8812 1129.5 91.1844 1151.66" stroke="#808080" stroke-width="2"/>
<path d="M91.18 1151.66C91.1573 1153.7 92.5615 1156.73 95.3926 1160.76C95.5202 1160.94 95.689 1161.09 95.8856 1161.19C96.0823 1161.3 96.3014 1161.35 96.5255 1161.36C96.7497 1161.36 96.9728 1161.31 97.1771 1161.21C97.3814 1161.12 97.5614 1160.97 97.7027 1160.79L133.612 1114.78C134.087 1114.14 134.031 1113.56 133.442 1113.04C127.802 1108.04 120.985 1106.33 112.99 1107.92" stroke="#80A8BD" stroke-width="2"/>
<path d="M91.1797 1151.66L122.91 1112.57C123.657 1111.64 123.578 1110.77 122.672 1109.95C120.634 1108.14 117.407 1107.46 112.99 1107.92" stroke="#00293E" stroke-width="2"/>
<path d="M112.211 1173.02C118.303 1174.56 123.082 1174.4 126.547 1172.55C142.764 1163.9 148.799 1150.07 144.655 1131.08" stroke="#808080" stroke-width="2"/>
<path d="M144.658 1131.08C144.431 1128.54 143.616 1125.96 142.212 1123.33C142.072 1123.07 141.869 1122.85 141.622 1122.69C141.375 1122.53 141.092 1122.44 140.799 1122.41C140.505 1122.39 140.21 1122.44 139.94 1122.56C139.671 1122.68 139.436 1122.86 139.256 1123.1L104.536 1167.52C103.925 1168.29 103.959 1169.02 104.638 1169.73C106.767 1171.97 109.292 1173.07 112.214 1173.02" stroke="#DC8A91" stroke-width="2"/>
<path d="M144.655 1131.08L112.211 1173.02" stroke="#5D0A12" stroke-width="2"/>
<path d="M937.475 937.529L937.781 985.008C937.781 985.213 937.74 985.416 937.662 985.606C937.583 985.796 937.468 985.968 937.323 986.113C937.178 986.258 937.006 986.373 936.816 986.452C936.627 986.53 936.423 986.57 936.218 986.57L46.7815 986.604C46.367 986.604 45.9695 986.44 45.6765 986.147C45.3834 985.854 45.2188 985.456 45.2188 985.042V94.3818C45.2187 94.1766 45.2592 93.9734 45.3377 93.7839C45.4162 93.5944 45.5314 93.4221 45.6765 93.2771C45.8216 93.132 45.9939 93.0169 46.1835 92.9384C46.3731 92.8599 46.5763 92.8195 46.7815 92.8195L68.8977 92.8874C69.3121 92.8874 69.7096 92.7228 70.0027 92.4298C70.2957 92.1369 70.4604 91.7395 70.4604 91.3251L70.3924 43.9478C70.3924 43.5334 70.5571 43.1361 70.8502 42.8431C71.1432 42.5501 71.5407 42.3855 71.9552 42.3855L961.324 42.3516C961.738 42.3516 962.136 42.5162 962.429 42.8091C962.722 43.1021 962.887 43.4995 962.887 43.9138V934.506C962.887 934.921 962.722 935.318 962.429 935.611C962.136 935.904 961.738 936.069 961.324 936.069L939.072 935.933C938.861 935.928 938.651 935.966 938.455 936.045C938.26 936.123 938.082 936.241 937.933 936.39C937.783 936.539 937.666 936.717 937.587 936.913C937.509 937.108 937.471 937.318 937.475 937.529ZM197.926 719.865L77.6626 862.778C76.4396 864.227 75.8167 865.903 75.7941 867.804L75.6242 929.752C75.6242 930.094 75.7602 930.422 76.0023 930.664C76.2444 930.906 76.5728 931.042 76.9152 931.042L115.406 931.178C115.769 931.11 116.12 931.053 116.459 931.008L282.517 931.246C283.65 931.246 284.59 930.816 285.337 929.955L344.857 859.993C368.706 872.604 389.508 881.525 407.265 886.755C491.947 911.706 573.538 907.823 652.037 875.106C784.225 820.02 870.787 691.88 890.253 552.736C908.768 420.521 866.167 284.503 772.98 190.631C669.329 86.1968 515.264 50.027 378.082 107.831C235.126 168.08 144.691 309.193 135.076 462.736C129.301 555.204 150.251 640.914 197.926 719.865Z" fill="black"/>
<path d="M344.853 859.992L290.293 824.603C289.342 823.969 288.493 824.094 287.745 824.977L201.863 926.592C200.714 927.964 199.276 929.067 197.65 929.824C196.024 930.581 194.25 930.973 192.452 930.973L116.456 931.007C116.116 931.052 115.765 931.109 115.402 931.177L111.869 930.701C111.666 930.674 111.474 930.593 111.313 930.468C111.151 930.342 111.026 930.175 110.95 929.985C110.874 929.795 110.85 929.588 110.88 929.386C110.91 929.184 110.994 928.993 111.122 928.833L239.029 777.226C239.275 776.937 239.411 776.569 239.411 776.19C239.411 775.81 239.275 775.443 239.029 775.154C223.99 758.037 210.288 739.607 197.922 719.863C150.247 640.912 129.297 555.203 135.073 462.735C144.687 309.192 235.122 168.078 378.079 107.829C515.26 50.0256 669.326 86.1955 772.976 190.629C866.163 284.501 908.765 420.52 890.25 552.735C870.783 691.878 784.221 820.018 652.034 875.105C573.534 907.822 491.943 911.705 407.261 886.754C389.505 881.524 368.702 872.603 344.853 859.992ZM323.688 564.758C331.027 586.743 342.566 608.739 358.307 630.746C359.416 632.286 360.571 632.331 361.772 630.882L629.408 313.437C629.465 313.365 629.508 313.283 629.534 313.196C629.56 313.109 629.568 313.018 629.559 312.929C629.549 312.84 629.522 312.755 629.479 312.679C629.435 312.603 629.376 312.537 629.306 312.486C610.055 297.316 588.664 286.607 565.132 280.358C460.53 251.66 357.152 315.916 324.538 417.633C317.109 440.863 313.01 462.395 312.24 482.229C311.243 508.358 315.059 535.867 323.688 564.758ZM474.357 705.769C533.809 717.158 585.719 705.429 630.087 670.584C672.191 637.528 699.029 594.712 710.602 542.139C718.733 505.052 717.759 467.399 707.681 429.18C701.815 406.946 691.986 385.267 678.193 364.143C678.058 363.939 677.879 363.768 677.668 363.645C677.458 363.521 677.223 363.448 676.982 363.432C676.741 363.415 676.5 363.456 676.28 363.55C676.059 363.644 675.865 363.788 675.713 363.973L410.828 678.226C410.764 678.296 410.716 678.379 410.688 678.47C410.659 678.56 410.651 678.656 410.664 678.75C410.677 678.844 410.711 678.934 410.763 679.014C410.815 679.093 410.883 679.161 410.964 679.211C430.759 692.32 451.89 701.173 474.357 705.769Z" fill="white"/>
<path d="M2413.62 632.003L2001.84 631.969C2001.64 631.971 2001.45 632.016 2001.27 632.101C2001.09 632.186 2000.93 632.308 2000.81 632.46C2000.68 632.612 2000.59 632.79 2000.54 632.981C2000.49 633.172 2000.48 633.371 2000.51 633.566L2008.8 682.403C2017.87 723.192 2046.31 762.86 2088.16 772.437C2123.12 780.452 2161.44 769.381 2185.63 744.486C2194.19 735.701 2202.39 725.15 2210.23 712.833C2210.95 711.679 2211.99 711.181 2213.35 711.339L2426.19 735.554C2426.32 735.569 2426.44 735.614 2426.55 735.686C2426.66 735.757 2426.75 735.854 2426.81 735.966C2426.87 736.079 2426.91 736.205 2426.91 736.334C2426.92 736.463 2426.89 736.592 2426.84 736.709L2401.46 785.207C2399.38 787.856 2395.13 794.298 2388.72 804.532C2375.31 825.905 2357.8 846.52 2336.2 866.377C2292.24 906.758 2236.05 924.181 2177.99 930.837C2122.27 937.222 2069.74 936.158 2020.39 927.645C1966.13 918.271 1917.93 895.958 1879.91 855.407C1789.51 759.022 1766.85 624.158 1782.41 494.592C1786.83 457.913 1795.22 423.826 1807.58 392.332C1821.49 357.441 1839.77 326.286 1862.42 298.867C1914.46 235.969 1986.48 201.837 2067.68 196.132C2129.85 191.784 2199.32 196.981 2256.46 221.128C2342.99 257.705 2397.11 337.449 2420.14 428.094C2436.86 493.845 2440.05 561.09 2439.27 629.932C2439.25 631.132 2438.64 631.732 2437.44 631.732L2413.62 632.003ZM2011.49 441.305C2005.73 460.437 2002.19 480.532 2000.85 501.588C2000.81 502.267 2001.13 502.607 2001.81 502.607L2184.14 502.471L2215.15 502.335C2215.37 502.336 2215.58 502.292 2215.78 502.207C2215.97 502.123 2216.15 501.998 2216.3 501.842C2216.44 501.686 2216.56 501.502 2216.63 501.3C2216.7 501.099 2216.73 500.885 2216.72 500.671C2212.44 443.886 2196.13 369.713 2128.56 357.35C2091.15 350.524 2057.79 363.837 2034.86 394.675C2023.97 409.301 2016.18 424.845 2011.49 441.305Z" fill="#003063"/>
<path d="M1668.57 936.035L1470.95 935.797C1469.81 935.797 1469.25 935.231 1469.25 934.099C1468.8 799.722 1468.72 666.782 1469.01 535.28C1469.15 488.446 1461.13 419.775 1399.47 415.258C1351.91 411.76 1322.52 446.129 1311.62 489.397C1305.18 516.884 1301.96 547.62 1301.93 581.605C1301.91 698.979 1301.91 816.386 1301.93 933.828C1301.93 934.982 1301.36 935.571 1300.2 935.594L1276.73 936.069L1079.31 935.831C1078.68 935.831 1078.36 935.514 1078.36 934.88L1078.26 264.228L1078.39 216.307C1078.39 214.971 1079.06 214.303 1080.4 214.303L1284.06 214.269C1285.49 214.269 1286.2 214.982 1286.2 216.409L1286.1 328.416C1286.1 331.45 1286.91 331.677 1288.51 329.095C1311.58 292.043 1342.43 254.956 1377.11 231.08C1396.91 217.428 1419.52 207.997 1444.96 202.79C1487.9 193.994 1538.42 195.59 1577.89 214.303C1676.72 261.069 1693.84 379.869 1693.74 477.171C1693.56 621.556 1693.54 774.092 1693.67 934.779C1693.67 935.121 1693.54 935.449 1693.3 935.691C1693.07 935.933 1692.75 936.069 1692.41 936.069L1668.57 936.035Z" fill="#003063"/>
<path d="M1078.26 264.227L1078.36 934.879C1078.36 935.513 1078.68 935.83 1079.31 935.83L1276.73 936.068V983.887C1276.73 985.698 1275.82 986.604 1274.01 986.604H1053.83C1053.53 986.604 1053.25 986.486 1053.04 986.276C1052.83 986.065 1052.71 985.78 1052.71 985.483V266.57C1052.71 265.483 1053.25 264.928 1054.34 264.906L1078.26 264.227Z" fill="black"/>
<path d="M565.133 280.357C566.356 282.485 565.54 284.863 562.687 287.489C560.739 289.255 558.927 291.123 557.251 293.093C480.994 383.183 404.657 473.568 328.242 564.247C327.744 564.836 327.121 565.142 326.373 565.164C325.626 565.21 324.731 565.074 323.689 564.757C315.06 535.866 311.244 508.357 312.241 482.229C313.011 462.395 317.11 440.863 324.539 417.632C357.152 315.915 460.531 251.659 565.133 280.357Z" fill="black"/>
<path d="M565.131 280.359C588.662 286.608 610.054 297.318 629.305 312.488C629.375 312.539 629.434 312.605 629.478 312.681C629.521 312.757 629.548 312.842 629.558 312.931C629.567 313.02 629.559 313.111 629.533 313.198C629.507 313.285 629.464 313.367 629.407 313.439L361.771 630.884C360.57 632.333 359.415 632.288 358.306 630.748C342.565 608.741 331.026 586.744 323.688 564.759C324.729 565.076 325.624 565.212 326.371 565.167C327.119 565.144 327.742 564.839 328.24 564.25C404.656 473.571 480.992 383.186 557.249 293.095C558.925 291.125 560.737 289.257 562.685 287.491C565.538 284.865 566.354 282.488 565.131 280.359Z" fill="#00517B"/>
<path d="M2184.13 502.471C2172.55 445.312 2137.22 400.142 2073.96 406.833C2047.97 409.55 2028.27 421.912 2011.48 441.305C2016.17 424.844 2023.96 409.301 2034.86 394.674C2057.79 363.837 2091.15 350.523 2128.55 357.35C2196.13 369.712 2212.43 443.886 2216.71 500.671C2216.73 500.884 2216.7 501.098 2216.62 501.3C2216.55 501.501 2216.44 501.686 2216.29 501.842C2216.15 501.998 2215.97 502.122 2215.77 502.207C2215.58 502.292 2215.36 502.335 2215.15 502.335L2184.13 502.471Z" fill="black"/>
<path d="M707.686 429.182L474.363 705.771C451.895 701.174 430.765 692.322 410.97 679.212C410.889 679.162 410.82 679.095 410.769 679.015C410.717 678.936 410.683 678.846 410.67 678.752C410.657 678.658 410.665 678.562 410.693 678.471C410.722 678.38 410.77 678.297 410.834 678.227L675.718 363.974C675.871 363.79 676.065 363.645 676.285 363.551C676.506 363.457 676.746 363.417 676.987 363.433C677.229 363.45 677.464 363.523 677.674 363.646C677.884 363.77 678.064 363.94 678.198 364.144C691.991 385.269 701.821 406.948 707.686 429.182Z" fill="#B91423"/>
<path d="M1807.58 392.332C1795.22 423.826 1786.82 457.913 1782.41 494.592C1766.85 624.158 1789.51 759.023 1879.91 855.408C1917.92 895.958 1966.13 918.272 2020.39 927.645C2069.74 936.159 2122.27 937.223 2177.99 930.838C2236.04 924.181 2292.23 906.759 2336.2 866.377C2357.8 846.521 2375.31 825.906 2388.72 804.532C2395.13 794.298 2399.37 787.857 2401.46 785.208C2392.53 806.536 2380.11 829.438 2364.19 853.913C2346.25 881.468 2325.29 905.117 2301.31 924.86C2264.89 954.849 2219.87 970.743 2173.64 978.113C2108.51 988.472 2036.15 988.913 1971.02 972.917C1904.34 956.547 1855.45 917.321 1818.25 859.857C1790.12 816.453 1771.71 769.483 1761.99 718.268C1748.02 644.66 1749.27 570.815 1765.76 496.732C1774.03 459.577 1787.97 424.777 1807.58 392.332Z" fill="black"/>
<path d="M1668.57 936.034V984.6C1668.57 985.936 1667.9 986.604 1666.56 986.604H1444.62C1444.34 986.604 1444.07 986.493 1443.88 986.296C1443.68 986.098 1443.57 985.831 1443.57 985.551C1443.77 849.272 1443.75 713.366 1443.5 577.834C1443.45 548.831 1438.89 524.276 1429.81 504.17C1418.87 479.989 1396.82 466.404 1370.12 465.249C1348.01 464.276 1328.51 472.325 1311.62 489.397C1322.52 446.129 1351.91 411.759 1399.47 415.257C1461.13 419.774 1469.15 488.446 1469.01 535.28C1468.72 666.782 1468.8 799.721 1469.25 934.099C1469.25 935.231 1469.82 935.797 1470.95 935.797L1668.57 936.034Z" fill="black"/>
<path d="M707.683 429.18C717.762 467.399 718.736 505.051 710.605 542.138C699.031 594.712 672.193 637.527 630.09 670.583C585.722 705.429 533.811 717.157 474.359 705.768L707.683 429.18Z" fill="black"/>
<path d="M2413.62 632.003L2413.38 680.501C2413.38 681.656 2412.8 682.233 2411.65 682.233L2008.8 682.403L2000.51 633.565C2000.48 633.371 2000.49 633.171 2000.54 632.98C2000.59 632.789 2000.68 632.612 2000.81 632.46C2000.93 632.308 2001.09 632.185 2001.27 632.1C2001.45 632.016 2001.64 631.971 2001.84 631.969L2413.62 632.003Z" fill="black"/>
<path d="M197.926 719.863C210.292 739.607 223.995 758.037 239.033 775.154C239.28 775.443 239.415 775.81 239.415 776.19C239.415 776.569 239.28 776.937 239.033 777.226L111.126 928.833C110.998 928.993 110.915 929.183 110.884 929.386C110.854 929.588 110.878 929.795 110.954 929.985C111.03 930.175 111.156 930.342 111.317 930.468C111.479 930.593 111.671 930.674 111.874 930.701L115.407 931.176L76.916 931.041C76.5736 931.041 76.2452 930.905 76.0031 930.663C75.761 930.421 75.625 930.092 75.625 929.75L75.7949 867.803C75.8175 865.901 76.4403 864.225 77.6634 862.776L197.926 719.863Z" fill="#00517B"/>
<path d="M344.859 859.993L285.339 929.955C284.591 930.816 283.651 931.246 282.519 931.246L116.461 931.008L192.458 930.974C194.255 930.975 196.029 930.582 197.655 929.825C199.281 929.068 200.719 927.965 201.868 926.593L287.751 824.978C288.498 824.095 289.348 823.97 290.299 824.604L344.859 859.993Z" fill="#B91423"/>
<path d="M85.5433 1207.7C88.2158 1203.33 91.4092 1199.83 95.1235 1197.2C121.724 1210.93 149.106 1199 162.593 1174.62C177.813 1147.08 172.649 1108.94 147.917 1089.51C134.849 1079.25 121.781 1075.82 108.713 1079.22C94.195 1083 83.2898 1090.72 75.997 1102.38C62.4985 1123.96 61.1396 1147.14 71.9203 1171.94C70.9237 1179.54 65.6013 1187.96 55.9531 1197.17L56.157 1074.09C56.157 1072.94 56.7345 1072.36 57.8896 1072.36L178.356 1072.39C180.055 1072.39 180.904 1073.23 180.904 1074.91L180.972 1206.48C180.972 1207.27 180.576 1207.67 179.783 1207.67L85.5433 1207.7Z" fill="black"/>
<path d="M95.1208 1197.21L87.9866 1192.52C86.9674 1191.86 86.0841 1192.01 85.3367 1192.96L73.7521 1207.36L62.745 1207.5C62.2693 1206.43 62.3599 1205.53 63.0167 1204.78C68.3391 1198.6 73.5143 1192.2 78.5422 1185.59C79.2443 1184.68 79.2896 1183.74 78.6781 1182.77L71.9176 1171.94C61.1369 1147.14 62.4958 1123.96 75.9943 1102.38C83.2871 1090.72 94.1923 1083 108.71 1079.22C121.778 1075.82 134.846 1079.25 147.914 1089.51C172.646 1108.94 177.81 1147.08 162.59 1174.62C149.103 1199.01 121.721 1210.93 95.1208 1197.21ZM112.99 1107.92C94.147 1114.91 86.8768 1129.5 91.18 1151.66C91.1574 1153.7 92.5616 1156.73 95.3926 1160.76C95.5202 1160.95 95.689 1161.09 95.8857 1161.2C96.0823 1161.3 96.3014 1161.35 96.5256 1161.36C96.7498 1161.36 96.9729 1161.31 97.1772 1161.22C97.3815 1161.12 97.5614 1160.98 97.7028 1160.8L133.612 1114.78C134.087 1114.14 134.031 1113.57 133.442 1113.05C127.802 1108.04 120.985 1106.33 112.99 1107.92ZM112.209 1173.02C118.301 1174.56 123.08 1174.41 126.545 1172.55C142.762 1163.9 148.798 1150.08 144.653 1131.08C144.426 1128.54 143.611 1125.96 142.207 1123.34C142.067 1123.08 141.864 1122.86 141.618 1122.7C141.371 1122.54 141.087 1122.44 140.794 1122.42C140.5 1122.39 140.205 1122.44 139.935 1122.56C139.666 1122.68 139.431 1122.87 139.251 1123.1L104.531 1167.52C103.92 1168.29 103.954 1169.03 104.633 1169.73C106.762 1171.97 109.287 1173.07 112.209 1173.02Z" fill="white"/>
<path d="M2042.33 1091.72L2022.59 1114.47C2022.49 1114.59 2022.36 1114.69 2022.21 1114.75C2022.07 1114.82 2021.91 1114.85 2021.75 1114.85L2010.64 1114.91C2010.45 1114.92 2010.27 1114.88 2010.11 1114.79C2009.95 1114.71 2009.81 1114.58 2009.71 1114.43C2009.6 1114.28 2009.54 1114.1 2009.53 1113.92C2009.51 1113.74 2009.54 1113.55 2009.62 1113.39L2019.44 1090.73C2019.52 1090.54 2019.66 1090.38 2019.83 1090.27C2020.01 1090.15 2020.21 1090.09 2020.42 1090.09L2041.48 1089.92C2041.69 1089.91 2041.9 1089.97 2042.08 1090.08C2042.26 1090.19 2042.41 1090.35 2042.5 1090.54C2042.59 1090.73 2042.62 1090.94 2042.59 1091.15C2042.56 1091.36 2042.47 1091.56 2042.33 1091.72Z" fill="black"/>
<path d="M220.483 1143.75L212.941 1143.51C212.479 1143.49 212.041 1143.29 211.724 1142.96C211.406 1142.62 211.233 1142.17 211.243 1141.71L211.548 1127.85C211.594 1126.45 212.318 1125.76 213.723 1125.78L220.109 1125.92C220.455 1125.93 220.8 1125.86 221.12 1125.73C221.441 1125.6 221.731 1125.4 221.971 1125.15C222.211 1124.89 222.396 1124.59 222.514 1124.26C222.632 1123.93 222.681 1123.58 222.657 1123.23C220.347 1094.67 237.571 1085.81 263.424 1092.63C265.078 1093.09 265.78 1094.16 265.531 1095.86L263.866 1107.1C263.813 1107.48 263.679 1107.85 263.472 1108.17C263.266 1108.49 262.993 1108.77 262.671 1108.98C262.349 1109.19 261.985 1109.33 261.606 1109.38C261.226 1109.44 260.838 1109.41 260.469 1109.31C248.556 1106 243.086 1110.38 244.06 1122.45C244.129 1123.39 244.556 1124.26 245.251 1124.9C245.946 1125.53 246.858 1125.87 247.797 1125.85L258.397 1125.75C259.755 1125.72 260.435 1126.39 260.435 1127.75L260.401 1140.52C260.401 1143.3 259.019 1144.62 256.256 1144.46L246.438 1143.92C244.898 1143.83 244.139 1144.54 244.162 1146.06L244.366 1210.82C244.366 1212.41 243.573 1213.2 241.988 1213.2H224.933C223.484 1213.2 222.748 1212.46 222.725 1210.99L222.589 1145.89C222.589 1144.48 221.887 1143.77 220.483 1143.75Z" fill="black"/>
<path d="M290.97 1092.71L274.731 1092.76C273.193 1092.77 271.95 1094.02 271.955 1095.56L272.011 1111.45C272.016 1112.99 273.267 1114.23 274.806 1114.23L291.045 1114.17C292.583 1114.17 293.826 1112.91 293.821 1111.38L293.765 1095.48C293.76 1093.94 292.508 1092.7 290.97 1092.71Z" fill="black"/>
<path d="M421.205 1092.79L404.354 1092.82C403.097 1092.82 402.08 1093.84 402.082 1095.1L402.112 1111.94C402.114 1113.2 403.135 1114.22 404.392 1114.22L421.242 1114.19C422.499 1114.18 423.516 1113.16 423.514 1111.91L423.485 1095.06C423.483 1093.81 422.462 1092.79 421.205 1092.79Z" fill="black"/>
<path d="M970.915 1092.69L953.046 1092.78C951.976 1092.79 951.114 1093.66 951.12 1094.73L951.212 1112.39C951.218 1113.46 952.089 1114.32 953.159 1114.31L971.028 1114.22C972.097 1114.22 972.96 1113.34 972.954 1112.28L972.862 1094.61C972.856 1093.55 971.985 1092.68 970.915 1092.69Z" fill="black"/>
<path d="M1290.96 1092.8H1273.23C1272.25 1092.8 1271.46 1093.6 1271.46 1094.57V1211.54C1271.46 1212.51 1272.25 1213.3 1273.23 1213.3H1290.96C1291.94 1213.3 1292.73 1212.51 1292.73 1211.54V1094.57C1292.73 1093.6 1291.94 1092.8 1290.96 1092.8Z" fill="black"/>
<path d="M1408.06 1202.94C1404.08 1206.17 1401.2 1210.28 1396.37 1212.38C1384.32 1217.66 1373.38 1215.76 1363.55 1206.68C1347.76 1192.14 1347.76 1163.07 1354.65 1145.21C1362.94 1123.78 1389.44 1115.62 1405.88 1134.2C1407.4 1135.92 1408.16 1135.63 1408.16 1133.32L1408.06 1094.5C1408.05 1094.27 1408.1 1094.05 1408.18 1093.84C1408.27 1093.63 1408.39 1093.44 1408.55 1093.28C1408.72 1093.12 1408.91 1092.99 1409.12 1092.9C1409.33 1092.81 1409.56 1092.77 1409.79 1092.77L1427.63 1092.73C1427.85 1092.73 1428.06 1092.78 1428.26 1092.86C1428.47 1092.94 1428.65 1093.06 1428.8 1093.21C1428.96 1093.36 1429.08 1093.54 1429.16 1093.74C1429.25 1093.94 1429.29 1094.15 1429.29 1094.36V1210.79C1429.29 1212.46 1428.46 1213.29 1426.81 1213.27L1411.49 1213.23C1409.77 1213.23 1409.01 1212.37 1409.21 1210.65L1410.06 1204.1C1410.31 1202.04 1409.64 1201.65 1408.06 1202.94ZM1390.09 1197.68C1392.49 1197.69 1394.87 1196.97 1397.09 1195.56C1399.31 1194.15 1401.34 1192.08 1403.04 1189.47C1404.75 1186.85 1406.11 1183.75 1407.04 1180.34C1407.97 1176.92 1408.45 1173.25 1408.47 1169.55C1408.49 1162.08 1406.59 1154.9 1403.18 1149.6C1399.77 1144.3 1395.14 1141.32 1390.29 1141.3C1387.89 1141.29 1385.51 1142.01 1383.29 1143.42C1381.06 1144.83 1379.04 1146.9 1377.33 1149.51C1375.63 1152.12 1374.27 1155.23 1373.34 1158.64C1372.41 1162.06 1371.92 1165.72 1371.91 1169.43C1371.89 1176.9 1373.79 1184.08 1377.2 1189.38C1380.6 1194.67 1385.24 1197.66 1390.09 1197.68Z" fill="black"/>
<path d="M1970.62 1133.73L1970.14 1094.2C1970.14 1093.84 1970.29 1093.49 1970.54 1093.24C1970.8 1092.98 1971.14 1092.84 1971.5 1092.84L1990.87 1092.7C1991.5 1092.7 1991.82 1093.02 1991.82 1093.65V1210.65C1991.82 1212.4 1990.95 1213.27 1989.2 1213.27L1975.1 1213.3C1973.11 1213.3 1972.11 1212.32 1972.11 1210.35V1203.28C1972.11 1200.97 1971.41 1200.75 1970.01 1202.61C1962.22 1212.95 1952.45 1216.95 1940.72 1214.59C1924.42 1211.33 1915.35 1195.37 1913.51 1179.58C1911.03 1158.45 1915.04 1132.74 1937.6 1125.44C1949.22 1121.66 1959.63 1124.67 1968.85 1134.48C1970.05 1135.77 1970.64 1135.52 1970.62 1133.73ZM1952.53 1197.68C1954.93 1197.68 1957.31 1196.96 1959.53 1195.55C1961.75 1194.13 1963.77 1192.06 1965.47 1189.45C1967.17 1186.83 1968.52 1183.73 1969.45 1180.31C1970.37 1176.89 1970.85 1173.23 1970.86 1169.52C1970.86 1165.82 1970.4 1162.16 1969.48 1158.73C1968.57 1155.31 1967.23 1152.2 1965.54 1149.58C1963.85 1146.96 1961.83 1144.88 1959.62 1143.46C1957.4 1142.04 1955.03 1141.31 1952.63 1141.3C1950.23 1141.3 1947.85 1142.02 1945.63 1143.44C1943.41 1144.85 1941.39 1146.92 1939.69 1149.54C1937.99 1152.15 1936.64 1155.26 1935.71 1158.67C1934.79 1162.09 1934.31 1165.76 1934.3 1169.46C1934.3 1173.16 1934.76 1176.83 1935.67 1180.25C1936.59 1183.67 1937.93 1186.78 1939.62 1189.4C1941.31 1192.02 1943.32 1194.1 1945.54 1195.52C1947.75 1196.94 1950.13 1197.68 1952.53 1197.68Z" fill="black"/>
<path d="M2214.03 1092.8H2196.23C2195.2 1092.8 2194.36 1093.64 2194.36 1094.67V1112.33C2194.36 1113.36 2195.2 1114.2 2196.23 1114.2H2214.03C2215.06 1114.2 2215.9 1113.36 2215.9 1112.33V1094.67C2215.9 1093.64 2215.06 1092.8 2214.03 1092.8Z" fill="black"/>
<path d="M1780.16 1123.61L1779.69 1111.92C1779.65 1110.97 1779.87 1110.03 1780.31 1109.19C1780.75 1108.35 1781.4 1107.64 1782.2 1107.14L1799.02 1096.4C1800.69 1095.34 1801.52 1095.8 1801.5 1097.8L1801.4 1123.34C1801.4 1123.68 1801.46 1124.01 1801.6 1124.33C1801.73 1124.64 1801.92 1124.92 1802.17 1125.16C1802.41 1125.4 1802.7 1125.58 1803.02 1125.71C1803.33 1125.83 1803.67 1125.89 1804.01 1125.88L1813.22 1125.68C1815.03 1125.66 1815.94 1126.55 1815.94 1128.36L1815.97 1142.05C1815.97 1143.88 1815.05 1144.73 1813.22 1144.6L1803.74 1143.95C1803.46 1143.93 1803.18 1143.96 1802.92 1144.05C1802.65 1144.15 1802.41 1144.29 1802.2 1144.48C1801.99 1144.67 1801.83 1144.91 1801.71 1145.16C1801.6 1145.42 1801.54 1145.7 1801.53 1145.99C1801.42 1160.18 1801.41 1174.8 1801.5 1189.83C1801.53 1195.37 1806.73 1197.88 1811.35 1195.4C1812.1 1195 1812.89 1194.7 1813.73 1194.52C1815.09 1194.25 1815.86 1194.79 1816.04 1196.15L1817.74 1209.77C1817.82 1210.41 1817.69 1211.06 1817.34 1211.6C1817 1212.15 1816.48 1212.56 1815.87 1212.76C1805.81 1216.15 1787.47 1217.61 1782.74 1205.59C1780.73 1200.48 1779.72 1194.4 1779.72 1187.35C1779.72 1172.5 1779.83 1158.91 1780.06 1146.57C1780.07 1146.25 1780.01 1145.94 1779.89 1145.65C1779.77 1145.36 1779.59 1145.1 1779.36 1144.88C1779.13 1144.67 1778.86 1144.5 1778.57 1144.39C1778.28 1144.28 1777.96 1144.24 1777.65 1144.26L1772.62 1144.49C1770.95 1144.56 1770.11 1143.76 1770.11 1142.08L1770.04 1127.99C1770.04 1126.61 1770.72 1125.91 1772.08 1125.88L1778.16 1125.75C1779.54 1125.7 1780.21 1124.99 1780.16 1123.61Z" fill="black"/>
<path d="M2143.03 1123.98L2143.53 1113.96C2143.74 1110.11 2145.46 1107.15 2148.7 1105.06L2160.52 1097.46C2164.12 1095.12 2165.85 1096.1 2165.72 1100.38L2165.11 1121.98C2165.09 1122.46 2165.18 1122.94 2165.35 1123.38C2165.52 1123.83 2165.78 1124.24 2166.11 1124.59C2166.44 1124.94 2166.84 1125.21 2167.28 1125.41C2167.72 1125.6 2168.19 1125.7 2168.67 1125.71L2176.9 1125.92C2178.57 1125.96 2179.41 1126.82 2179.41 1128.5L2179.31 1142.12C2179.31 1142.45 2179.24 1142.78 2179.11 1143.09C2178.97 1143.4 2178.77 1143.67 2178.52 1143.9C2178.27 1144.13 2177.98 1144.3 2177.66 1144.41C2177.34 1144.52 2177 1144.56 2176.66 1144.53L2167.89 1143.82C2167.5 1143.78 2167.11 1143.83 2166.74 1143.96C2166.37 1144.08 2166.03 1144.29 2165.74 1144.55C2165.46 1144.82 2165.23 1145.14 2165.07 1145.5C2164.91 1145.86 2164.83 1146.24 2164.84 1146.63L2164.97 1190.55C2164.98 1191.4 2165.17 1192.23 2165.54 1193C2165.91 1193.76 2166.45 1194.44 2167.11 1194.97C2167.77 1195.5 2168.54 1195.87 2169.36 1196.07C2170.19 1196.26 2171.04 1196.27 2171.87 1196.08L2177.2 1194.89C2177.48 1194.84 2177.76 1194.83 2178.03 1194.89C2178.31 1194.95 2178.56 1195.06 2178.79 1195.23C2179.02 1195.39 2179.21 1195.6 2179.35 1195.84C2179.49 1196.08 2179.58 1196.35 2179.61 1196.63L2181.18 1209.94C2181.24 1210.52 2181.11 1211.11 2180.81 1211.62C2180.5 1212.12 2180.03 1212.51 2179.48 1212.72C2164.26 1218.43 2144.38 1216.29 2143.77 1195.3C2143.27 1177.98 2143.18 1161.75 2143.5 1146.6C2143.52 1145.01 2142.74 1144.25 2141.16 1144.29L2136.47 1144.43C2136.09 1144.44 2135.71 1144.37 2135.36 1144.23C2135 1144.09 2134.68 1143.88 2134.41 1143.62C2134.13 1143.35 2133.92 1143.03 2133.77 1142.68C2133.62 1142.33 2133.55 1141.95 2133.55 1141.57L2133.58 1128.29C2133.58 1127.18 2134.11 1126.49 2135.18 1126.22C2137.03 1125.77 2138.97 1125.61 2140.99 1125.75C2142.28 1125.86 2142.96 1125.27 2143.03 1123.98Z" fill="black"/>
<path d="M694.567 1119.97C700.252 1110.39 706.911 1104.6 714.543 1102.58C739.445 1096.1 750.384 1116.64 750.894 1138.38C751.437 1161.18 751.573 1186.5 751.302 1214.35C751.302 1215.3 750.837 1215.78 749.909 1215.78H720.76C719.628 1215.78 719.062 1215.21 719.062 1214.08C719.084 1193.46 719.062 1172 718.994 1149.72C718.971 1145.1 717.601 1141.21 714.883 1138.04C709.753 1132.1 700.512 1135.87 698.066 1142.39C695.734 1148.66 694.647 1156.26 694.805 1165.18C695.122 1181.98 695.134 1198.33 694.839 1214.25C694.816 1215.32 694.284 1215.85 693.242 1215.85L664.977 1215.78C664.759 1215.78 664.542 1215.74 664.34 1215.65C664.138 1215.57 663.955 1215.45 663.8 1215.29C663.646 1215.14 663.523 1214.95 663.439 1214.75C663.356 1214.55 663.312 1214.33 663.312 1214.12V1107.95C663.312 1105.05 664.751 1103.6 667.627 1103.6H688.282C692.382 1103.6 694.012 1105.61 693.174 1109.61C692.495 1112.99 692.257 1116.27 692.461 1119.46C692.62 1121.91 693.322 1122.08 694.567 1119.97Z" fill="#003063"/>
<path d="M1606.02 1173.84C1607.25 1184.84 1615.13 1198.84 1628.24 1192.08C1631.67 1190.34 1633.17 1187.63 1635.58 1184.88C1635.88 1184.53 1636.27 1184.27 1636.7 1184.11C1637.13 1183.95 1637.6 1183.9 1638.06 1183.96L1665.48 1187.49C1666.09 1187.56 1666.28 1187.89 1666.05 1188.48C1657.74 1210.19 1640.94 1219.99 1615.64 1217.89C1597.94 1216.39 1585.34 1206.41 1579.8 1190.38C1571.44 1166.06 1572.8 1144.27 1583.87 1125C1591.39 1111.94 1603.22 1105.2 1619.34 1104.79C1659.5 1103.74 1669.28 1137.3 1668.26 1170.1C1668.24 1170.6 1668.03 1171.08 1667.66 1171.43C1667.29 1171.78 1666.8 1171.97 1666.29 1171.97L1607.82 1171.84C1606.49 1171.84 1605.89 1172.5 1606.02 1173.84ZM1607.21 1151.97L1635.82 1152.04C1636 1152.04 1636.18 1151.96 1636.31 1151.84C1636.44 1151.71 1636.52 1151.54 1636.53 1151.36V1150.3C1636.54 1147.56 1636.18 1144.85 1635.45 1142.31C1634.73 1139.78 1633.66 1137.47 1632.31 1135.53C1630.96 1133.59 1629.35 1132.04 1627.58 1130.99C1625.81 1129.93 1623.91 1129.39 1621.99 1129.38H1621.18C1617.3 1129.37 1613.58 1131.55 1610.83 1135.45C1608.08 1139.35 1606.52 1144.64 1606.5 1150.17V1151.22C1606.5 1151.32 1606.51 1151.41 1606.54 1151.5C1606.58 1151.59 1606.63 1151.68 1606.7 1151.75C1606.76 1151.82 1606.84 1151.87 1606.93 1151.91C1607.02 1151.95 1607.12 1151.97 1607.21 1151.97Z" fill="#003063"/>
<path d="M91.18 1151.66L122.91 1112.57C123.658 1111.64 123.578 1110.77 122.673 1109.95C120.634 1108.14 117.407 1107.46 112.99 1107.92C120.985 1106.33 127.802 1108.04 133.442 1113.04C134.031 1113.56 134.087 1114.14 133.612 1114.78L97.7027 1160.79C97.5614 1160.97 97.3814 1161.12 97.1771 1161.21C96.9728 1161.31 96.7497 1161.36 96.5255 1161.36C96.3014 1161.35 96.0823 1161.3 95.8856 1161.19C95.689 1161.09 95.5202 1160.94 95.3926 1160.76C92.5615 1156.73 91.1573 1153.7 91.18 1151.66Z" fill="#00517B"/>
<path d="M112.995 1107.92C117.411 1107.46 120.639 1108.14 122.677 1109.95C123.583 1110.77 123.662 1111.64 122.915 1112.57L91.1844 1151.66C86.8812 1129.49 94.1513 1114.91 112.995 1107.92Z" fill="black"/>
<path d="M144.658 1131.08L112.214 1173.02C109.292 1173.07 106.767 1171.97 104.638 1169.73C103.959 1169.02 103.925 1168.29 104.536 1167.52L139.256 1123.1C139.436 1122.86 139.671 1122.68 139.94 1122.56C140.21 1122.44 140.505 1122.39 140.799 1122.41C141.092 1122.44 141.375 1122.53 141.622 1122.69C141.869 1122.85 142.072 1123.07 142.212 1123.33C143.616 1125.96 144.431 1128.54 144.658 1131.08Z" fill="#B91423"/>
<path d="M333.949 1180.8C336.769 1198.87 360.821 1203.69 364.864 1183.82C365.453 1180.88 367.219 1179.7 370.164 1180.29L382.462 1182.81C385.632 1183.44 386.765 1185.31 385.859 1188.41C381.397 1203.56 372.009 1212.28 357.696 1214.59C318.321 1221.01 303.407 1182.33 313.463 1150.98C319.76 1131.33 333.745 1122.42 355.42 1124.25C369.733 1125.45 379.506 1133.47 384.738 1148.3C385.553 1150.61 384.761 1152 382.36 1152.48L368.771 1155.13C365.985 1155.67 364.23 1154.57 363.505 1151.83C359.258 1135.36 335.851 1141.95 333.745 1157.47C332.658 1165.33 332.726 1173.1 333.949 1180.8Z" fill="black"/>
<path d="M466.445 1136.75C483.261 1115.15 517.811 1120.96 518.457 1151.15C518.819 1168.95 518.887 1188.97 518.661 1211.23C518.638 1212.61 517.936 1213.3 516.554 1213.3H499.296C498.096 1213.3 497.496 1212.69 497.496 1211.47C497.609 1194.17 497.575 1176.34 497.394 1157.98C497.19 1137.57 475.312 1137.19 468.042 1153.02C466.954 1155.42 466.411 1161.36 466.411 1170.85C466.411 1184.43 466.411 1198.26 466.411 1212.32C466.411 1212.97 466.082 1213.3 465.426 1213.3L445.79 1213.27C445.555 1213.27 445.331 1213.18 445.165 1213.01C444.999 1212.84 444.906 1212.62 444.906 1212.39V1128.43C444.906 1126.66 445.79 1125.78 447.556 1125.78L462.776 1125.82C464.814 1125.82 465.584 1126.8 465.086 1128.77C464.452 1131.24 464.271 1133.72 464.542 1136.21C464.746 1137.95 465.38 1138.13 466.445 1136.75Z" fill="black"/>
<path d="M587.118 1205.69C587 1205.45 586.824 1205.24 586.606 1205.08C586.388 1204.92 586.134 1204.81 585.866 1204.77C585.599 1204.73 585.325 1204.76 585.07 1204.85C584.814 1204.94 584.584 1205.09 584.4 1205.29C573.359 1217.28 551.99 1219.79 540.541 1206.27C530.927 1194.89 533.475 1176.25 545.841 1168.64C556.644 1161.98 571.219 1161.31 583.449 1156.92C584.604 1156.52 585.193 1155.71 585.215 1154.51C585.374 1146.63 581.365 1142.41 573.189 1141.85C564.198 1141.21 558.739 1144.51 556.814 1151.73C556.746 1151.93 556.61 1152.06 556.406 1152.1C554.413 1152.58 548.151 1151.49 537.62 1148.84C537.189 1148.73 537.031 1148.46 537.144 1148.03C541.289 1132.79 551.639 1124.75 568.195 1123.91C585.963 1123.03 605.259 1127.21 605.701 1148.77C605.972 1161.63 605.939 1174.97 605.599 1188.78C605.418 1197 606.867 1204.57 609.947 1211.5C610.491 1212.7 610.095 1213.3 608.758 1213.3L591.126 1213.27C590.472 1213.27 589.84 1213.03 589.356 1212.59C588.872 1212.15 588.57 1211.54 588.511 1210.89C588.352 1209.08 587.888 1207.35 587.118 1205.69ZM570.675 1198.83C585.419 1195.3 583.856 1186.3 585.215 1174.14C585.419 1172.33 584.649 1171.7 582.905 1172.24C577.651 1173.85 572.124 1175.24 566.326 1176.42C548.899 1179.98 556.169 1202.3 570.675 1198.83Z" fill="black"/>
<path d="M825.062 1206.03C824.981 1205.73 824.819 1205.45 824.593 1205.23C824.368 1205.01 824.088 1204.85 823.783 1204.78C823.478 1204.7 823.161 1204.71 822.866 1204.81C822.57 1204.91 822.308 1205.08 822.107 1205.32C806.649 1222.71 773.084 1217.31 772.609 1190.34C772.065 1162.15 802.573 1163.58 821.156 1156.96C822.356 1156.53 822.956 1155.68 822.956 1154.41C823.024 1145.72 818.155 1141.49 808.348 1141.74C800.874 1141.95 796.174 1145.38 794.249 1152.03C794.068 1152.6 793.683 1152.82 793.094 1152.71L775.496 1149.01C774.976 1148.9 774.783 1148.58 774.919 1148.06C778.611 1134.41 787.149 1126.57 800.534 1124.56C819.831 1121.67 843.238 1125.34 843.51 1149.96C843.645 1163.5 843.589 1176.62 843.34 1189.32C843.181 1197.41 844.619 1204.83 847.654 1211.6C848.175 1212.73 847.813 1213.3 846.567 1213.3H828.46C827.395 1213.3 826.738 1212.78 826.489 1211.74L825.062 1206.03ZM822.752 1174.35C822.594 1172.51 821.62 1171.87 819.831 1172.41C814.644 1173.99 809.288 1175.38 803.762 1176.55C783.888 1180.76 796.695 1208 814.905 1196.29C821.065 1192.32 823.681 1185.01 822.752 1174.35Z" fill="black"/>
<path d="M903.332 1142.86C878.159 1139.09 879.755 1172.48 885.157 1186.81C887.297 1192.55 893.65 1196.69 899.663 1196.59C908.202 1196.46 913.32 1191.16 915.019 1180.7C915.087 1180.31 915.313 1180.14 915.698 1180.19C925.12 1181 931.745 1182.34 935.572 1184.2C935.686 1184.24 935.731 1184.33 935.708 1184.47C932.583 1202.04 922.889 1212.04 906.628 1214.49C871.772 1219.69 858.353 1193.13 860.425 1163.38C861.682 1145.04 871.466 1128.8 890.049 1124.9C909.889 1120.72 926.502 1127.92 934.179 1148.23C935.04 1150.52 934.27 1151.9 931.869 1152.37L917.635 1155.23C914.985 1155.75 913.433 1154.68 912.98 1152.03C912.199 1147.48 907.817 1143.51 903.332 1142.86Z" fill="black"/>
<path d="M1030.37 1215.77C1019.2 1215.58 1008.58 1210.53 1000.84 1201.75C993.102 1192.96 988.872 1181.15 989.086 1168.92C989.299 1156.69 993.938 1145.04 1001.98 1136.53C1010.03 1128.02 1020.81 1123.35 1031.98 1123.54C1043.14 1123.74 1053.76 1128.78 1061.5 1137.57C1069.24 1146.36 1073.47 1158.16 1073.26 1170.39C1073.04 1182.62 1068.4 1194.27 1060.36 1202.78C1052.32 1211.3 1041.53 1215.97 1030.37 1215.77ZM1031.34 1196.83C1033.97 1196.83 1036.57 1196.13 1039 1194.77C1041.43 1193.41 1043.63 1191.41 1045.49 1188.9C1047.35 1186.39 1048.82 1183.4 1049.83 1180.12C1050.83 1176.83 1051.35 1173.31 1051.35 1169.76C1051.35 1162.58 1049.24 1155.7 1045.49 1150.62C1041.74 1145.54 1036.65 1142.69 1031.34 1142.69C1026.03 1142.69 1020.94 1145.54 1017.19 1150.62C1013.44 1155.7 1011.33 1162.58 1011.33 1169.76C1011.33 1176.94 1013.44 1183.82 1017.19 1188.9C1020.94 1193.98 1026.03 1196.83 1031.34 1196.83Z" fill="black"/>
<path d="M1108.96 1136.04C1108.92 1138.51 1109.66 1138.77 1111.17 1136.82C1120.21 1125.25 1131.64 1121.46 1145.45 1125.44C1158.16 1129.11 1163.29 1141.03 1163.25 1153.77C1163.21 1173.67 1163.22 1193.04 1163.29 1211.88C1163.29 1212.06 1163.26 1212.25 1163.19 1212.42C1163.12 1212.59 1163.01 1212.75 1162.88 1212.88C1162.75 1213.01 1162.59 1213.12 1162.41 1213.19C1162.24 1213.26 1162.05 1213.3 1161.86 1213.3L1143.24 1213.23C1142.18 1213.23 1141.66 1212.69 1141.68 1211.6C1142.29 1193.97 1142.11 1175 1141.14 1154.72C1140.19 1134.75 1112.63 1139.88 1111.68 1158.01C1110.53 1179.25 1110.29 1197.01 1110.97 1211.3C1111.04 1212.57 1110.44 1213.21 1109.17 1213.23L1090.79 1213.3C1090.41 1213.3 1090.05 1213.15 1089.78 1212.88C1089.51 1212.62 1089.36 1212.25 1089.36 1211.88L1089.33 1128.53C1089.33 1126.7 1090.25 1125.78 1092.08 1125.78H1106.65C1106.99 1125.78 1107.33 1125.85 1107.65 1125.98C1107.96 1126.11 1108.24 1126.31 1108.48 1126.55C1108.72 1126.79 1108.9 1127.08 1109.03 1127.4C1109.15 1127.72 1109.21 1128.06 1109.2 1128.4L1108.96 1136.04Z" fill="black"/>
<path d="M1229.06 1205.15C1216.56 1218.43 1191.59 1219.96 1182.28 1202.26C1174.33 1187.22 1181.33 1169.52 1198.28 1164.87C1206.73 1162.56 1215.74 1160.32 1225.32 1158.15C1226.51 1157.88 1227.57 1157.21 1228.32 1156.25C1229.07 1155.29 1229.46 1154.1 1229.43 1152.88C1229.27 1147.04 1226.4 1143.54 1220.8 1142.39C1210.54 1140.26 1203.82 1143.39 1200.62 1151.79C1200.38 1152.45 1199.91 1152.71 1199.23 1152.58L1182.21 1149.08C1181.67 1148.96 1181.46 1148.64 1181.6 1148.09C1185.27 1134.55 1193.61 1126.76 1206.64 1124.73C1224.95 1121.84 1249.38 1124.69 1249.92 1148.43C1250.19 1161.79 1250.27 1176.34 1250.16 1192.07C1250.11 1198.57 1251.48 1204.87 1254.27 1210.96C1254.95 1212.5 1254.46 1213.26 1252.81 1213.23L1235.38 1213.2C1234 1213.2 1233.16 1212.53 1232.86 1211.19L1231.68 1205.86C1231.27 1203.98 1230.4 1203.75 1229.06 1205.15ZM1211.53 1198.97C1226.75 1198.93 1230.49 1186.64 1229.13 1173.8C1228.97 1172.19 1228.13 1171.67 1226.61 1172.24C1221.99 1173.89 1217.07 1175.17 1211.84 1176.08C1202.05 1177.78 1196.68 1186.37 1203.24 1194.93C1204.21 1196.19 1205.47 1197.22 1206.9 1197.92C1208.34 1198.62 1209.93 1198.98 1211.53 1198.97Z" fill="black"/>
<path d="M1467.07 1184.47C1468.11 1186.33 1469.14 1188.18 1470.16 1190.04C1473.35 1195.77 1478.22 1198.38 1484.77 1197.88C1490.66 1197.43 1494.42 1194.14 1496.05 1188C1496.48 1186.42 1497.5 1185.76 1499.11 1186.03L1515.28 1188.61C1515.68 1188.68 1516.07 1188.85 1516.4 1189.09C1516.74 1189.32 1517.02 1189.63 1517.22 1189.99C1517.42 1190.35 1517.53 1190.75 1517.55 1191.16C1517.58 1191.57 1517.51 1191.97 1517.35 1192.35C1512.23 1204.64 1504.03 1211.92 1492.75 1214.19C1451.61 1222.47 1436.66 1183.38 1447.03 1150.1C1457.83 1115.49 1504.24 1115.08 1515.75 1148.98C1518.56 1157.17 1519.81 1165.71 1519.49 1174.59C1519.44 1175.88 1518.79 1176.52 1517.52 1176.52H1471.76C1465.69 1176.52 1464.13 1179.17 1467.07 1184.47ZM1467.65 1162.33L1496.86 1162.26C1497.19 1162.25 1497.5 1162.11 1497.73 1161.88C1497.96 1161.64 1498.09 1161.33 1498.09 1161V1160.29C1498.08 1155.43 1496.45 1150.76 1493.56 1147.33C1490.68 1143.9 1486.77 1141.97 1482.7 1141.98H1481.68C1479.66 1141.99 1477.66 1142.46 1475.8 1143.39C1473.94 1144.32 1472.25 1145.67 1470.83 1147.38C1469.41 1149.08 1468.28 1151.11 1467.51 1153.33C1466.74 1155.56 1466.35 1157.95 1466.36 1160.36V1161.07C1466.36 1161.24 1466.39 1161.4 1466.45 1161.56C1466.52 1161.71 1466.62 1161.85 1466.74 1161.97C1466.86 1162.09 1467 1162.18 1467.16 1162.24C1467.31 1162.3 1467.48 1162.33 1467.65 1162.33Z" fill="black"/>
<path d="M1734.98 1183.28C1726.17 1180.92 1716.92 1178.31 1707.22 1175.43C1692.68 1171.15 1683.68 1157.5 1689.15 1142.63C1695.54 1125.3 1713.13 1122.52 1729.85 1124.29C1743.6 1125.73 1752.55 1132.52 1756.72 1144.63C1757.33 1146.44 1756.7 1147.53 1754.82 1147.89L1740.28 1150.57C1738.85 1150.84 1737.76 1150.36 1737.02 1149.11C1731.88 1140.53 1723.19 1138.44 1710.96 1142.83C1709.9 1143.2 1708.99 1143.9 1708.35 1144.81C1707.71 1145.73 1707.37 1146.82 1707.38 1147.94C1707.39 1149.06 1707.75 1150.15 1708.41 1151.05C1709.07 1151.96 1710 1152.63 1711.06 1152.98C1722.61 1156.89 1734.94 1159.1 1745.88 1163.99C1763.75 1172.04 1764.81 1194.15 1751.18 1206.47C1740.18 1216.49 1720.98 1217.07 1707.7 1213.1C1696.35 1209.7 1688.79 1201.88 1685 1189.63C1684.96 1189.5 1684.95 1189.36 1684.97 1189.23C1684.98 1189.09 1685.03 1188.96 1685.1 1188.85C1685.17 1188.73 1685.27 1188.63 1685.38 1188.56C1685.49 1188.48 1685.62 1188.43 1685.75 1188.41L1704.74 1185.21C1705.42 1185.12 1705.88 1185.4 1706.1 1186.03C1710.07 1197.3 1718.61 1201.12 1731.75 1197.47C1737.71 1195.82 1739.8 1192.07 1738.04 1186.23C1737.83 1185.52 1737.44 1184.87 1736.9 1184.35C1736.37 1183.84 1735.7 1183.47 1734.98 1183.28Z" fill="black"/>
<path d="M1875.09 1205.25C1866.64 1213.97 1856.55 1217.02 1844.82 1214.39C1819.64 1208.79 1818.32 1172.11 1843.93 1165.08C1852.7 1162.68 1862.24 1160.25 1872.57 1157.81C1873.56 1157.58 1874.43 1157.01 1875.04 1156.2C1875.65 1155.4 1875.95 1154.4 1875.9 1153.39C1875.56 1146.83 1872.22 1143.05 1865.88 1142.05C1856.07 1140.56 1849.72 1143.98 1846.82 1152.31C1846.71 1152.65 1846.48 1152.77 1846.14 1152.68L1828.58 1149.01C1827.94 1148.9 1827.72 1148.53 1827.9 1147.89C1831.68 1134.22 1840.22 1126.45 1853.51 1124.59C1873.86 1121.74 1897.37 1125.68 1896.56 1152.17C1896.22 1164.15 1896.33 1179.6 1896.9 1198.53C1897.03 1203.28 1899.07 1206.95 1900.46 1211.33C1900.89 1212.65 1900.42 1213.3 1899.04 1213.3L1882.63 1213.27C1881.76 1213.27 1880.91 1212.97 1880.23 1212.43C1879.55 1211.89 1879.06 1211.13 1878.86 1210.28L1877.77 1205.97C1877.32 1204.11 1876.42 1203.87 1875.09 1205.25ZM1873.25 1172.24C1866 1174.08 1859.32 1175.97 1853.21 1177.91C1848.79 1179.3 1846.63 1182.4 1846.72 1187.22C1847.06 1203.96 1870.57 1201.38 1874.2 1188.27C1875.31 1184.2 1875.86 1179.52 1875.83 1174.25C1875.83 1173.93 1875.76 1173.62 1875.62 1173.34C1875.48 1173.06 1875.28 1172.81 1875.03 1172.61C1874.78 1172.42 1874.49 1172.29 1874.18 1172.22C1873.88 1172.16 1873.56 1172.17 1873.25 1172.24Z" fill="black"/>
<path d="M2071.24 1146.43C2070.45 1150.1 2072.23 1152.57 2076.58 1153.84C2088.67 1157.37 2105.55 1160.63 2114.35 1167.05C2128.66 1177.54 2126.01 1197.85 2112.89 1208.04C2101.48 1216.94 2081.03 1216.97 2068.86 1212.32C2058.42 1208.29 2051.64 1200.62 2048.51 1189.33C2048.48 1189.22 2048.48 1189.11 2048.49 1189.01C2048.51 1188.9 2048.55 1188.8 2048.6 1188.71C2048.66 1188.62 2048.74 1188.54 2048.83 1188.49C2048.92 1188.43 2049.02 1188.39 2049.13 1188.37L2068.83 1185.15C2069.42 1185.06 2069.78 1185.31 2069.92 1185.9C2072.59 1196.17 2080.22 1200.3 2092.82 1198.26C2096.85 1197.6 2099.75 1195.71 2101.51 1192.59C2102.01 1191.69 2102.3 1190.69 2102.35 1189.67C2102.4 1188.65 2102.22 1187.63 2101.81 1186.69C2101.4 1185.75 2100.78 1184.91 2100 1184.25C2099.22 1183.59 2098.29 1183.12 2097.3 1182.87C2087.97 1180.54 2078.77 1177.94 2069.71 1175.06C2057.76 1171.29 2049.4 1160.56 2051.47 1147.82C2054.9 1127.04 2073.25 1122.59 2091.86 1124.15C2106.54 1125.37 2116.07 1132.34 2120.47 1145.04C2120.57 1145.32 2120.6 1145.63 2120.57 1145.93C2120.54 1146.23 2120.45 1146.52 2120.3 1146.78C2120.15 1147.04 2119.94 1147.26 2119.7 1147.44C2119.45 1147.61 2119.17 1147.73 2118.87 1147.79L2103.72 1150.61C2103.11 1150.73 2102.47 1150.65 2101.9 1150.39C2101.33 1150.13 2100.85 1149.69 2100.53 1149.15C2095.41 1140.54 2086.68 1138.46 2074.33 1142.9C2072.66 1143.51 2071.63 1144.69 2071.24 1146.43Z" fill="black"/>
<path d="M2272.02 1196.56C2280.87 1196.65 2286.18 1191.32 2287.95 1180.56C2288.04 1179.97 2288.38 1179.73 2288.97 1179.85L2308.2 1183.52C2308.83 1183.63 2309.07 1184 2308.91 1184.64C2304.27 1204.4 2292.76 1214.57 2274.39 1215.13C2239.23 1216.19 2229.38 1185.93 2234.17 1156.75C2237.4 1137.19 2251.67 1124.05 2271.95 1123.91C2289.52 1123.8 2301.2 1131.87 2306.97 1148.13C2307.81 1150.46 2307.02 1151.86 2304.6 1152.34L2290.43 1155.16C2288.03 1155.63 2286.53 1154.68 2285.95 1152.3C2281.77 1135.39 2258.46 1141.5 2255.91 1157.3C2253.88 1170 2253.54 1196.35 2272.02 1196.56Z" fill="black"/>
<path d="M2371.46 1205.73C2371.4 1205.47 2371.28 1205.23 2371.1 1205.03C2370.92 1204.84 2370.69 1204.7 2370.43 1204.62C2370.18 1204.55 2369.91 1204.55 2369.65 1204.62C2369.39 1204.69 2369.16 1204.82 2368.98 1205.01C2353.38 1220.91 2321.25 1219.01 2318.9 1192.45C2316.29 1162.97 2348.08 1163.51 2367.07 1157.19C2368.43 1156.74 2369.11 1155.8 2369.11 1154.38C2369.23 1146.13 2364.87 1141.92 2356.03 1141.74C2348.31 1141.58 2343.45 1144.35 2341.46 1150.03C2340.78 1151.98 2339.43 1152.73 2337.42 1152.3L2323.62 1149.48C2321.86 1149.12 2321.23 1148.08 2321.76 1146.36C2325.88 1132.82 2335.24 1125.41 2349.85 1124.12C2369.45 1122.42 2390.24 1126.97 2389.9 1151.15C2389.68 1166.93 2389.71 1181.74 2390.01 1195.57C2390.1 1200.6 2391.34 1205.85 2393.74 1211.33C2394.31 1212.64 2393.88 1213.3 2392.45 1213.3L2375.5 1213.27C2374.82 1213.27 2374.16 1213.03 2373.63 1212.61C2373.1 1212.18 2372.73 1211.59 2372.58 1210.92L2371.46 1205.73ZM2351.21 1198.93C2366.74 1198.66 2370.03 1186.37 2368.91 1173.5C2368.8 1172.12 2368.09 1171.66 2366.8 1172.14C2361.93 1173.84 2356.8 1175.16 2351.41 1176.11C2341.46 1177.88 2335.68 1186.91 2343.57 1195.64C2344.53 1196.7 2345.7 1197.54 2347.02 1198.1C2348.34 1198.67 2349.77 1198.95 2351.21 1198.93Z" fill="black"/>
<path d="M421.33 1125.48H404.275C403.131 1125.48 402.203 1126.4 402.203 1127.55V1211.23C402.203 1212.38 403.131 1213.3 404.275 1213.3H421.33C422.474 1213.3 423.402 1212.38 423.402 1211.23V1127.55C423.402 1126.4 422.474 1125.48 421.33 1125.48Z" fill="black"/>
<path d="M970.972 1125.44H953.171C952.101 1125.44 951.234 1126.31 951.234 1127.38V1211.33C951.234 1212.4 952.101 1213.27 953.171 1213.27H970.972C972.042 1213.27 972.909 1212.4 972.909 1211.33V1127.38C972.909 1126.31 972.042 1125.44 970.972 1125.44Z" fill="black"/>
<path d="M291.73 1125.63L274.268 1125.6C273.123 1125.6 272.194 1126.52 272.192 1127.67L272.046 1211.21C272.044 1212.36 272.97 1213.29 274.115 1213.29L291.576 1213.32C292.721 1213.32 293.65 1212.39 293.652 1211.25L293.798 1127.7C293.8 1126.56 292.874 1125.63 291.73 1125.63Z" fill="black"/>
<path d="M2032.68 1125.78H2014.13C2013.42 1125.78 2012.84 1126.36 2012.84 1127.07V1211.98C2012.84 1212.69 2013.42 1213.27 2014.13 1213.27H2032.68C2033.4 1213.27 2033.97 1212.69 2033.97 1211.98V1127.07C2033.97 1126.36 2033.4 1125.78 2032.68 1125.78Z" fill="black"/>
<path d="M2214.48 1125.59L2195.86 1125.56C2195.04 1125.56 2194.37 1126.23 2194.36 1127.05L2194.22 1211.75C2194.22 1212.58 2194.88 1213.25 2195.71 1213.25L2214.33 1213.28C2215.15 1213.29 2215.82 1212.62 2215.82 1211.79L2215.97 1127.09C2215.97 1126.27 2215.3 1125.6 2214.48 1125.59Z" fill="black"/>
<path d="M144.655 1131.08C148.799 1150.07 142.764 1163.9 126.547 1172.55C123.082 1174.4 118.303 1174.56 112.211 1173.02L144.655 1131.08Z" fill="black"/>
<path d="M71.9203 1171.94L78.6808 1182.77C79.2923 1183.75 79.247 1184.68 78.5449 1185.59C73.517 1192.2 68.3418 1198.6 63.0194 1204.78C62.3626 1205.53 62.272 1206.43 62.7476 1207.5C61.0037 1208.02 59.373 1208.12 57.8556 1207.8C56.6779 1207.53 56.089 1206.79 56.089 1205.59L55.9531 1197.17C65.6013 1187.96 70.9237 1179.55 71.9203 1171.94Z" fill="#00517B"/>
<path d="M95.1266 1197.2C91.4122 1199.83 88.2188 1203.33 85.5463 1207.7L73.7578 1207.36L85.3425 1192.96C86.0899 1192.01 86.9732 1191.86 87.9923 1192.52L95.1266 1197.2Z" fill="#B91423"/>
</svg>
