<svg width="923" height="573" viewBox="0 0 923 573" fill="none" xmlns="http://www.w3.org/2000/svg">
<path d="M146.88 218.663C155.104 213.562 160.923 210.305 164.337 208.893C184.7 200.42 206.74 192.637 228.952 187.569C251.835 182.339 282.176 176.492 296.706 173.593C314.915 169.955 333.5 165.516 348.934 161.492C360.322 158.519 372.322 153.675 384.935 146.959C394.988 141.607 403.92 135.942 411.73 129.962L423.68 125.017C423.733 124.996 423.792 124.994 423.845 125.014C423.899 125.033 423.944 125.071 423.971 125.121C423.999 125.171 424.007 125.229 423.994 125.284C423.982 125.34 423.949 125.389 423.903 125.422C401.244 142.074 376.288 157.408 349.27 164.583C332.209 169.113 312.232 173.786 292.571 177.606C272.34 181.539 252.241 185.502 230.771 190.326C222.073 192.285 214.455 194.302 207.918 196.376C191.125 201.707 177.476 206.596 166.969 211.041C162.925 212.751 158.288 215.139 153.058 218.207C148.296 220.997 144.357 224.578 141.241 228.95C141.233 228.962 141.223 228.973 141.21 228.981C141.198 228.989 141.184 228.995 141.169 228.998C141.154 229.001 141.138 229.001 141.122 228.998C141.107 228.995 141.092 228.989 141.078 228.98C141.061 228.97 141.046 228.956 141.034 228.941C141.021 228.926 141.012 228.909 141.006 228.891C141.001 228.873 140.999 228.855 141.001 228.837C141.003 228.819 141.008 228.802 141.017 228.788L146.88 218.663Z" fill="#22397C"/>
<path d="M412 130C404.185 136 395.248 141.684 385.19 147.054C372.569 153.792 360.562 158.653 349.169 161.636C333.725 165.673 315.13 170.127 296.911 173.778C282.372 176.686 252.014 182.554 229.118 187.801C206.893 192.886 184.841 200.696 164.467 209.197C161.051 210.614 155.228 213.882 147 219C154.361 205.475 161.667 192.269 168.92 179.381C170.12 177.235 175.996 173.798 178.873 172.476C186.756 168.856 195.533 165.88 205.205 163.548C216.098 160.924 227.403 158.653 239.122 156.735C264.851 152.518 300.628 148.447 346.454 144.521C367.113 142.752 388.962 137.912 412 130Z" fill="#174D99"/>
<path d="M118.019 279.883C124.126 275.257 128.98 271.837 132.58 269.623C145.554 261.642 160.39 255.041 178.255 246.978C185.685 243.633 194.111 240.377 203.534 237.209C213.783 233.762 228.541 228.479 247.806 221.36C259.062 217.201 274.081 212.285 286.994 208.178C317.214 198.562 345.614 185.972 370.587 165.719C372.16 164.438 373.052 163.229 373.262 162.091L381.589 158.024C381.651 157.997 381.72 157.993 381.785 158.011C381.849 158.029 381.906 158.069 381.945 158.124C381.984 158.178 382.003 158.245 382 158.312C381.996 158.379 381.97 158.444 381.925 158.494C375.139 165.729 367.703 172.122 359.616 177.674C343.889 188.459 326.586 197.38 307.707 204.437C300.264 207.224 291.075 210.351 280.141 213.818C267.756 217.749 254.476 222.317 240.302 227.522C229.157 231.616 220.897 234.596 215.522 236.463C200.91 241.542 193.691 243.739 182.556 248.583C164.386 256.492 146.439 264.677 128.97 275.407C122.72 279.242 117.504 284.079 113.321 289.918C113.297 289.957 113.258 289.985 113.213 289.995C113.168 290.006 113.121 289.998 113.082 289.974C113.043 289.949 113.015 289.91 113.005 289.865C112.994 289.82 113.002 289.773 113.026 289.734L118.019 279.883Z" fill="#22397C"/>
<path d="M374 162C373.789 163.14 372.895 164.351 371.318 165.634C346.271 185.923 317.786 198.535 287.477 208.168C274.525 212.283 259.462 217.207 248.172 221.374C228.85 228.505 214.048 233.798 203.768 237.251C194.318 240.424 185.867 243.687 178.415 247.037C160.497 255.114 145.617 261.727 132.604 269.722C128.994 271.94 124.126 275.366 118 280C123.813 267.852 129.541 255.902 135.184 244.151C136.775 240.827 138.108 238.67 139.182 237.681C144.863 232.45 153.276 228.028 160.262 225.038C175.499 218.541 191.874 212.792 209.388 207.789C229.723 201.988 249.369 196.826 268.324 192.301C269.079 192.117 285.594 188.21 317.868 180.58C337.095 176.035 355.806 169.841 374 162Z" fill="#174D99"/>
<path d="M92.0245 348.002C95.2017 345.922 100.1 342.362 106.719 337.322C113.012 332.539 122.276 326.378 134.51 318.838C163.573 300.913 192.256 284.488 220.559 269.564C229.609 264.795 237.358 260.913 243.808 257.919C264.918 248.113 284.959 238.673 304.542 225.32C314.752 218.363 324.094 210.095 332.566 200.516C333.931 199.148 335.937 197.982 338.585 197.02C338.648 196.996 338.717 196.993 338.781 197.013C338.846 197.032 338.903 197.072 338.942 197.126C338.982 197.181 339.002 197.247 339 197.314C338.998 197.381 338.974 197.446 338.931 197.498C319.552 221.164 293.88 237.809 266.395 250.765C256.279 255.534 248.625 259.111 243.431 261.496C237.776 264.097 230.23 267.898 220.793 272.897C190.956 288.722 162.806 304.811 136.343 321.165C124.075 328.745 113.267 336.001 103.919 342.931C98.7251 346.786 93.8677 350.789 89.3462 354.942C89.312 354.975 89.267 354.996 89.2191 354.999C89.1713 355.003 89.1237 354.99 89.0848 354.962C89.0459 354.934 89.018 354.893 89.0062 354.847C88.9945 354.8 88.9995 354.751 89.0204 354.708L92.0245 348.002Z" fill="#22397C"/>
<path d="M332 200C323.547 209.612 314.226 217.909 304.038 224.891C284.5 238.29 264.504 247.763 243.441 257.603C237.007 260.608 229.274 264.503 220.245 269.289C192.006 284.265 163.387 300.747 134.389 318.734C122.183 326.301 112.941 332.483 106.662 337.283C100.057 342.341 95.1701 345.913 92 348C97.6695 333.269 103.244 319.17 108.724 305.703C109.605 303.527 110.55 301.93 111.559 300.91C118.844 293.558 127.623 288.296 137.112 282.973C148.37 276.644 160.695 270.564 174.086 264.731C211.036 248.633 248.942 233.477 287.802 219.262C301.166 214.374 310.778 210.449 316.637 207.485C324.745 203.385 329.866 200.891 332 200Z" fill="#174D99"/>
<path d="M488 314.397C488.026 321.955 484.943 329.215 479.43 334.579C473.916 339.944 466.423 342.972 458.599 343C450.775 343.027 443.262 340.051 437.711 334.725C432.16 329.4 429.026 322.162 429 314.603C428.974 307.045 432.057 299.785 437.57 294.421C443.084 289.056 450.577 286.028 458.401 286C466.225 285.973 473.738 288.949 479.289 294.275C484.84 299.6 487.974 306.838 488 314.397ZM473.352 314.418C473.352 312.466 472.968 310.533 472.223 308.729C471.477 306.926 470.385 305.287 469.008 303.906C467.63 302.526 465.995 301.431 464.196 300.684C462.397 299.937 460.468 299.552 458.52 299.552C454.587 299.552 450.814 301.118 448.033 303.906C445.252 306.694 443.689 310.476 443.689 314.418C443.689 318.361 445.252 322.143 448.033 324.931C450.814 327.719 454.587 329.285 458.52 329.285C460.468 329.285 462.397 328.9 464.196 328.153C465.995 327.406 467.63 326.311 469.008 324.931C470.385 323.55 471.477 321.911 472.223 320.108C472.968 318.304 473.352 316.371 473.352 314.418Z" fill="#174D99"/>
<path d="M397.532 313.995C397.521 328.503 413.938 333.005 423.495 323.377C423.535 323.339 423.585 323.312 423.64 323.302C423.695 323.292 423.751 323.298 423.802 323.32C423.853 323.342 423.896 323.379 423.926 323.426C423.956 323.472 423.971 323.527 423.969 323.582V338.723C423.97 338.907 423.914 339.087 423.809 339.239C423.705 339.392 423.556 339.511 423.382 339.58C412.767 343.651 403.079 342.586 394.319 336.385C386.718 331.014 383 323.081 383 313.984C383.01 304.887 386.738 296.965 394.339 291.594C403.107 285.407 412.798 284.352 423.413 288.429C423.587 288.499 423.736 288.617 423.84 288.77C423.945 288.923 424 289.103 424 289.287L423.979 304.428C423.981 304.483 423.966 304.538 423.936 304.584C423.907 304.631 423.863 304.667 423.812 304.689C423.761 304.711 423.705 304.718 423.65 304.707C423.595 304.697 423.545 304.671 423.506 304.632C413.959 294.994 397.542 299.476 397.532 313.995Z" fill="#174D99"/>
<path d="M783 314.003C783 304.901 786.732 296.974 794.34 291.601C803.11 285.411 812.8 284.352 823.412 288.424C823.586 288.493 823.735 288.612 823.839 288.765C823.944 288.918 824 289.098 823.999 289.282V304.421C824.003 304.478 823.989 304.535 823.959 304.584C823.929 304.634 823.884 304.672 823.831 304.694C823.777 304.717 823.718 304.722 823.661 304.71C823.605 304.698 823.554 304.668 823.515 304.625C813.968 294.992 797.536 299.487 797.536 314.003C797.536 328.508 813.968 333.003 823.515 323.38C823.553 323.338 823.603 323.309 823.659 323.296C823.714 323.284 823.773 323.288 823.825 323.31C823.878 323.331 823.923 323.367 823.954 323.415C823.985 323.462 824.001 323.518 823.999 323.574V338.723C823.998 338.905 823.941 339.083 823.836 339.234C823.732 339.385 823.584 339.502 823.412 339.571C812.8 343.65 803.11 342.591 794.34 336.394C786.732 331.021 783 323.104 783 314.003Z" fill="#174D99"/>
<path d="M379 314.5C379 321.793 376.103 328.788 370.945 333.945C365.788 339.103 358.793 342 351.5 342C344.207 342 337.212 339.103 332.055 333.945C326.897 328.788 324 321.793 324 314.5C324 307.207 326.897 300.212 332.055 295.055C337.212 289.897 344.207 287 351.5 287C358.793 287 365.788 289.897 370.945 295.055C376.103 300.212 379 307.207 379 314.5ZM351.548 292.662C348.716 292.657 345.911 293.216 343.293 294.307C340.675 295.398 338.295 296.999 336.289 299.02C334.283 301.04 332.691 303.441 331.602 306.083C330.514 308.726 329.951 311.559 329.946 314.422C329.941 317.284 330.494 320.12 331.573 322.766C332.652 325.412 334.237 327.818 336.235 329.846C338.234 331.873 340.609 333.483 343.223 334.583C345.837 335.683 348.64 336.252 351.472 336.256C354.304 336.261 357.109 335.702 359.727 334.612C362.345 333.521 364.725 331.919 366.731 329.899C368.737 327.878 370.33 325.478 371.418 322.836C372.506 320.193 373.069 317.359 373.074 314.497C373.079 311.635 372.526 308.799 371.447 306.153C370.368 303.506 368.784 301.101 366.785 299.073C364.786 297.046 362.412 295.436 359.797 294.336C357.183 293.236 354.38 292.667 351.548 292.662Z" fill="#174D99"/>
<path d="M845.43 287H832.57C832.255 287 832 287.26 832 287.581V340.419C832 340.74 832.255 341 832.57 341H845.43C845.745 341 846 340.74 846 340.419V287.581C846 287.26 845.745 287 845.43 287Z" fill="#174D99"/>
<path d="M253.512 288.024C253.628 288.064 256.685 288.077 262.684 288.064C269.717 288.054 275.603 289.093 278.982 295.178C283.588 303.481 280.169 314.272 270.157 316.55C266.861 317.299 263.288 317.489 259.511 317.459C259.342 317.459 259.181 317.523 259.062 317.637C258.943 317.752 258.876 317.907 258.876 318.068V339.141C258.876 339.369 258.783 339.587 258.618 339.748C258.453 339.909 258.229 340 257.996 340H253.942C253.7 340 253.468 339.906 253.298 339.74C253.127 339.573 253.031 339.347 253.031 339.111L253 288.363C253.001 288.304 253.017 288.246 253.045 288.194C253.074 288.142 253.116 288.097 253.166 288.064C253.216 288.031 253.274 288.01 253.334 288.003C253.394 287.996 253.455 288.003 253.512 288.024ZM258.886 294.039L258.927 311.284C258.927 311.395 258.973 311.502 259.053 311.581C259.134 311.66 259.243 311.704 259.357 311.704L265.469 311.694C267.972 311.688 270.372 310.829 272.139 309.306C273.907 307.783 274.899 305.72 274.897 303.571V301.712C274.896 300.646 274.65 299.59 274.174 298.605C273.697 297.621 272.999 296.727 272.12 295.974C271.24 295.222 270.197 294.625 269.048 294.219C267.9 293.814 266.67 293.606 265.428 293.609L259.316 293.619C259.202 293.619 259.093 293.663 259.012 293.742C258.932 293.82 258.886 293.927 258.886 294.039Z" fill="#174D99"/>
<path d="M294.299 340.684C294.299 340.726 294.291 340.767 294.275 340.805C294.26 340.843 294.237 340.878 294.209 340.908C294.18 340.937 294.146 340.96 294.109 340.976C294.072 340.992 294.032 341 293.992 341H288.317C288.233 341 288.152 340.966 288.093 340.905C288.033 340.843 288 340.761 288 340.674V288.311C288 288.238 288.029 288.168 288.081 288.116C288.133 288.065 288.203 288.036 288.276 288.036C299.411 287.995 316.497 286.732 315.362 303.609C314.837 311.432 310.628 316.008 302.734 317.339C302.686 317.347 302.641 317.368 302.603 317.398C302.565 317.428 302.536 317.468 302.517 317.512C302.499 317.557 302.492 317.606 302.498 317.654C302.504 317.702 302.522 317.748 302.55 317.787L318.982 340.857C318.992 340.869 318.998 340.883 318.999 340.898C319.001 340.914 318.999 340.929 318.992 340.942C318.986 340.956 318.976 340.968 318.963 340.976C318.951 340.985 318.936 340.989 318.921 340.99H311.916C311.822 340.99 311.728 340.966 311.645 340.922C311.561 340.877 311.489 340.813 311.436 340.735C304.452 330.631 296.548 318.378 295.239 317.91C295.134 317.87 295.02 317.857 294.908 317.87C294.796 317.884 294.689 317.925 294.597 317.989C294.504 318.053 294.429 318.139 294.377 318.239C294.325 318.338 294.298 318.449 294.299 318.562V340.684ZM294.237 294.004L294.36 312.033C294.36 312.108 294.39 312.181 294.444 312.234C294.498 312.288 294.57 312.318 294.646 312.318L300.014 312.277C301.243 312.269 302.459 312.053 303.591 311.64C304.724 311.227 305.751 310.626 306.616 309.871C307.48 309.117 308.163 308.223 308.627 307.241C309.091 306.259 309.326 305.209 309.319 304.149L309.299 301.684C309.285 299.545 308.286 297.5 306.522 295.998C304.758 294.497 302.373 293.663 299.892 293.679L294.524 293.719C294.486 293.719 294.449 293.727 294.414 293.741C294.379 293.755 294.348 293.776 294.321 293.803C294.295 293.829 294.273 293.861 294.259 293.895C294.245 293.93 294.237 293.967 294.237 294.004Z" fill="#174D99"/>
<path d="M524.644 314.96C524.822 314.96 524.942 314.888 525.004 314.743C531.62 298.071 535.165 289.102 535.638 287.836C535.702 287.671 535.813 287.53 535.956 287.431C536.099 287.331 536.268 287.278 536.44 287.279H549.151C549.327 287.279 549.496 287.342 549.628 287.455C549.76 287.569 549.847 287.726 549.871 287.898L557.996 340.618C558.003 340.666 558.001 340.714 557.987 340.76C557.974 340.807 557.951 340.849 557.92 340.886C557.888 340.922 557.85 340.951 557.806 340.971C557.762 340.991 557.715 341.001 557.667 341H544.482C544.372 341.001 544.265 340.962 544.183 340.892C544.102 340.821 544.05 340.723 544.04 340.618L540.214 311.11C540.21 311.045 540.183 310.983 540.138 310.936C540.093 310.889 540.033 310.859 539.968 310.851C539.903 310.842 539.835 310.856 539.777 310.89C539.72 310.924 539.674 310.976 539.649 311.038L527.637 340.174C527.573 340.331 527.478 340.473 527.36 340.59C527.241 340.707 527.101 340.798 526.948 340.855C526.92 340.862 526.104 340.862 524.5 340.855C522.896 340.842 522.08 340.831 522.052 340.825C521.901 340.765 521.762 340.675 521.646 340.557C521.529 340.44 521.436 340.299 521.374 340.143L509.691 310.862C509.665 310.801 509.62 310.748 509.562 310.714C509.504 310.68 509.437 310.666 509.371 310.675C509.306 310.683 509.246 310.713 509.201 310.76C509.157 310.808 509.13 310.869 509.125 310.935L504.96 340.391C504.95 340.496 504.899 340.594 504.817 340.665C504.735 340.735 504.628 340.774 504.518 340.773L491.333 340.618C491.285 340.619 491.238 340.609 491.194 340.589C491.15 340.569 491.112 340.54 491.08 340.504C491.049 340.468 491.026 340.425 491.013 340.378C490.999 340.332 490.997 340.284 491.004 340.236L499.735 287.609C499.762 287.439 499.85 287.284 499.982 287.173C500.114 287.061 500.282 287 500.455 287L513.167 287.144C513.34 287.145 513.51 287.199 513.653 287.301C513.796 287.402 513.906 287.546 513.969 287.712C514.428 288.985 517.87 297.992 524.294 314.733C524.356 314.884 524.473 314.96 524.644 314.96Z" fill="#174D99"/>
<path d="M576.399 341H563.579C563.425 341 563.278 340.94 563.17 340.833C563.061 340.726 563 340.581 563 340.43V288.561C563 288.485 563.016 288.409 563.046 288.339C563.077 288.269 563.121 288.206 563.177 288.154C563.234 288.101 563.3 288.061 563.373 288.034C563.445 288.008 563.522 287.997 563.6 288.001C568.583 288.215 579.728 287.858 587.679 288.123C590.436 288.211 593.241 289.009 596.095 290.517C602.639 293.96 604.356 300.357 603.942 307.243C603.322 317.47 597.801 322.824 587.379 323.306C582.63 323.531 579.373 323.585 577.609 323.469C577.532 323.464 577.455 323.474 577.382 323.498C577.31 323.523 577.243 323.562 577.187 323.612C577.13 323.663 577.086 323.725 577.055 323.793C577.025 323.861 577.009 323.935 577.009 324.009V340.399C577.009 340.558 576.945 340.711 576.831 340.824C576.716 340.937 576.561 341 576.399 341ZM577.03 299.603L576.989 311.867C576.989 311.91 576.997 311.952 577.014 311.992C577.03 312.032 577.055 312.067 577.085 312.098C577.116 312.128 577.153 312.152 577.193 312.168C577.233 312.185 577.276 312.193 577.319 312.193L583.078 312.214C583.886 312.216 584.687 312.074 585.434 311.793C586.182 311.512 586.861 311.1 587.435 310.579C588.008 310.057 588.463 309.438 588.775 308.755C589.086 308.073 589.248 307.341 589.25 306.601V304.951C589.256 303.457 588.613 302.022 587.463 300.962C586.313 299.902 584.751 299.303 583.12 299.297L577.361 299.277C577.273 299.277 577.189 299.311 577.127 299.373C577.065 299.434 577.03 299.517 577.03 299.603Z" fill="#174D99"/>
<path d="M610.008 314.52C609.995 297.43 609.998 288.8 610.018 288.631C610.031 288.469 610.104 288.317 610.223 288.206C610.342 288.095 610.499 288.032 610.662 288.031L639.376 288C639.454 288 639.532 288.016 639.604 288.046C639.675 288.076 639.741 288.12 639.796 288.176C639.851 288.232 639.895 288.298 639.925 288.371C639.955 288.443 639.97 288.521 639.97 288.6L639.98 299.19C639.98 299.273 639.964 299.355 639.932 299.431C639.901 299.508 639.855 299.577 639.797 299.636C639.739 299.695 639.671 299.741 639.595 299.773C639.519 299.804 639.438 299.821 639.356 299.821L624.099 299.831C624.04 299.83 623.982 299.84 623.928 299.861C623.873 299.883 623.824 299.915 623.783 299.956C623.741 299.997 623.709 300.046 623.687 300.099C623.665 300.153 623.655 300.211 623.656 300.268L623.666 308.295C623.666 308.408 623.712 308.517 623.793 308.597C623.874 308.677 623.984 308.722 624.099 308.722L638.29 308.712C638.461 308.712 638.627 308.773 638.758 308.885C638.888 308.996 638.976 309.151 639.004 309.322C639.071 309.763 639.108 311.489 639.115 314.5C639.115 317.511 639.078 319.237 639.004 319.678C638.978 319.849 638.893 320.005 638.764 320.118C638.636 320.232 638.471 320.296 638.3 320.298H624.109C624.051 320.298 623.994 320.31 623.941 320.332C623.888 320.354 623.84 320.386 623.799 320.427C623.759 320.468 623.727 320.516 623.706 320.569C623.685 320.622 623.675 320.679 623.676 320.736V328.762C623.676 328.818 623.688 328.874 623.709 328.926C623.731 328.978 623.763 329.025 623.803 329.064C623.843 329.104 623.891 329.135 623.943 329.157C623.996 329.178 624.052 329.189 624.109 329.189L639.366 329.179C639.532 329.179 639.69 329.246 639.807 329.364C639.924 329.482 639.99 329.643 639.99 329.81L640 340.4C640 340.479 639.985 340.557 639.955 340.63C639.925 340.702 639.881 340.768 639.826 340.824C639.771 340.88 639.706 340.924 639.634 340.954C639.562 340.984 639.484 341 639.407 341H610.692C610.529 341.001 610.371 340.941 610.25 340.832C610.129 340.722 610.053 340.572 610.038 340.41C610.025 340.24 610.015 331.611 610.008 314.52Z" fill="#174D99"/>
<path d="M662.479 288.036C674.306 288.002 680.264 287.992 680.353 288.006C680.523 288.034 680.679 288.121 680.791 288.252C680.904 288.382 680.967 288.547 680.969 288.719L681 299.177C681 299.334 680.937 299.484 680.826 299.595C680.714 299.705 680.562 299.768 680.404 299.768H670.122C669.975 299.768 669.834 299.826 669.73 299.929C669.626 300.032 669.567 300.172 669.567 300.317V340.369C669.567 340.522 669.507 340.669 669.4 340.779C669.293 340.889 669.146 340.954 668.992 340.959C668.595 340.973 666.472 340.983 662.623 340.99C658.782 341.003 656.662 341.003 656.265 340.99C656.11 340.987 655.963 340.925 655.854 340.817C655.745 340.709 655.682 340.562 655.679 340.409L655.464 300.358C655.464 300.212 655.405 300.073 655.301 299.969C655.197 299.866 655.056 299.808 654.909 299.808L644.627 299.859C644.548 299.861 644.471 299.847 644.398 299.818C644.325 299.79 644.259 299.747 644.202 299.693C644.146 299.64 644.101 299.575 644.07 299.504C644.039 299.433 644.022 299.356 644.021 299.279L644 288.821C644.002 288.65 644.063 288.486 644.174 288.356C644.285 288.226 644.437 288.138 644.606 288.108C644.695 288.094 650.653 288.07 662.479 288.036Z" fill="#174D99"/>
<path d="M715.093 314C715.093 316.956 715.058 318.65 714.989 319.084C714.959 319.252 714.868 319.404 714.733 319.514C714.597 319.624 714.426 319.684 714.248 319.684H699.579C699.46 319.684 699.346 319.729 699.262 319.807C699.177 319.886 699.13 319.993 699.13 320.105V327.981C699.13 328.092 699.177 328.199 699.262 328.278C699.346 328.357 699.46 328.401 699.579 328.401H715.354C715.525 328.401 715.689 328.466 715.811 328.583C715.932 328.699 716 328.857 716 329.022V339.41C716 339.566 715.935 339.716 715.82 339.827C715.704 339.938 715.548 340 715.385 340L685.701 339.99C685.534 339.988 685.373 339.928 685.249 339.821C685.126 339.714 685.049 339.567 685.034 339.41C685.013 339.243 685.003 330.773 685.003 314C684.996 297.234 685.003 288.767 685.023 288.6C685.039 288.443 685.116 288.296 685.239 288.189C685.362 288.082 685.523 288.022 685.691 288.02L715.374 288C715.538 288 715.694 288.062 715.809 288.173C715.925 288.284 715.99 288.434 715.99 288.59V298.978C715.99 299.143 715.921 299.301 715.8 299.417C715.679 299.534 715.515 299.599 715.343 299.599H699.568C699.449 299.599 699.335 299.643 699.251 299.722C699.167 299.801 699.12 299.908 699.12 300.019L699.13 307.895C699.13 308.007 699.177 308.114 699.262 308.193C699.346 308.271 699.46 308.316 699.579 308.316H714.248C714.424 308.318 714.593 308.379 714.727 308.489C714.86 308.599 714.949 308.75 714.978 308.916C715.055 309.35 715.093 311.044 715.093 314Z" fill="#174D99"/>
<path d="M755.55 310.633C759.002 315.062 761.383 318.095 762.693 319.733C762.725 319.769 762.767 319.795 762.814 319.808C762.861 319.821 762.91 319.819 762.955 319.803C763 319.788 763.038 319.759 763.065 319.721C763.091 319.682 763.104 319.637 763.103 319.59V288.601C763.103 288.442 763.166 288.289 763.28 288.176C763.393 288.063 763.546 288 763.707 288H776.468C776.609 288 776.744 288.056 776.844 288.155C776.944 288.255 777 288.389 777 288.53V340.46C777 340.603 776.944 340.741 776.844 340.842C776.744 340.943 776.609 341 776.468 341H763.829C763.626 341 763.425 340.954 763.242 340.866C763.06 340.778 762.9 340.649 762.775 340.49C756.969 333.133 751.191 325.759 745.439 318.367C741.994 313.931 739.617 310.898 738.307 309.267C738.275 309.231 738.233 309.205 738.186 309.192C738.139 309.179 738.09 309.181 738.045 309.197C738 309.212 737.962 309.241 737.935 309.279C737.909 309.318 737.896 309.363 737.897 309.41V340.399C737.897 340.558 737.834 340.711 737.72 340.824C737.607 340.937 737.454 341 737.293 341H724.532C724.391 341 724.256 340.944 724.156 340.845C724.056 340.745 724 340.611 724 340.47V288.54C724 288.397 724.056 288.259 724.156 288.158C724.256 288.057 724.391 288 724.532 288H737.171C737.374 288 737.575 288.046 737.758 288.134C737.94 288.222 738.1 288.351 738.225 288.51C744.031 295.86 749.806 303.235 755.55 310.633Z" fill="#174D99"/>
<path d="M877.596 288.001C881.67 288.008 884.017 288.045 884.639 288.113C884.812 288.13 884.977 288.195 885.114 288.302C885.252 288.408 885.358 288.551 885.419 288.714L904.987 340.715C904.999 340.747 905.003 340.783 904.998 340.817C904.994 340.851 904.982 340.884 904.963 340.912C904.944 340.94 904.919 340.963 904.89 340.978C904.86 340.994 904.827 341.001 904.794 341H890.912C890.754 341 890.6 340.953 890.47 340.864C890.34 340.775 890.239 340.648 890.182 340.501L887.142 332.425C887.076 332.249 886.958 332.097 886.805 331.989C886.651 331.882 886.468 331.824 886.281 331.824C885.733 331.817 882.812 331.807 877.515 331.793C872.219 331.787 869.294 331.783 868.74 331.783C868.553 331.786 868.371 331.846 868.219 331.956C868.067 332.065 867.952 332.218 867.888 332.394L864.818 340.45C864.76 340.599 864.658 340.727 864.526 340.816C864.394 340.905 864.238 340.952 864.078 340.949L850.195 340.898C850.163 340.897 850.132 340.889 850.104 340.873C850.076 340.857 850.052 340.834 850.034 340.806C850.016 340.778 850.005 340.746 850.001 340.713C849.998 340.679 850.002 340.645 850.013 340.613L869.763 288.683C869.826 288.522 869.932 288.381 870.07 288.277C870.208 288.173 870.372 288.109 870.543 288.093C871.165 288.025 873.516 287.994 877.596 288.001ZM872.226 320.54C872.21 320.59 872.206 320.643 872.214 320.695C872.222 320.746 872.242 320.796 872.273 320.838C872.304 320.881 872.344 320.915 872.39 320.94C872.436 320.964 872.487 320.977 872.54 320.978H882.633C882.685 320.977 882.736 320.964 882.782 320.94C882.829 320.915 882.869 320.881 882.899 320.838C882.93 320.796 882.95 320.746 882.958 320.695C882.967 320.643 882.963 320.59 882.947 320.54L877.9 305.365C877.877 305.3 877.834 305.244 877.778 305.205C877.722 305.165 877.655 305.144 877.586 305.144C877.518 305.144 877.451 305.165 877.394 305.205C877.338 305.244 877.296 305.3 877.272 305.365L872.226 320.54Z" fill="#174D99"/>
<path d="M209.981 295.563C207.076 305.738 204.178 315.872 201.287 325.966C199.997 330.497 192.41 335.679 188.52 338.337C182.012 342.783 174.391 347.188 165.657 351.553C145.113 361.823 122.419 372.086 97.5756 382.342C81.3518 389.042 66.3705 397.238 52.6318 406.932C52.5557 406.982 52.4648 407.006 52.3737 406.999C52.2826 406.991 52.1966 406.953 52.1296 406.891C52.0627 406.829 52.0187 406.745 52.0047 406.655C51.9908 406.564 52.0078 406.472 52.0529 406.392C60.3916 392.545 82.381 370.399 82.381 370.399C82.381 370.399 112.455 348.956 129.661 338.632C148.295 327.445 172.885 313.985 203.43 298.251C205.122 297.375 207.093 296.309 209.341 295.054C209.419 295.012 209.507 294.994 209.596 295.002C209.684 295.01 209.767 295.043 209.836 295.097C209.904 295.152 209.955 295.225 209.981 295.308C210.006 295.391 210.006 295.48 209.981 295.563Z" fill="#E30613"/>
<path d="M19.4616 447.958C19.4005 447.994 19.3284 448.007 19.2579 447.996C19.1874 447.986 19.1229 447.951 19.0758 447.899C19.0286 447.847 19.0019 447.781 19.0001 447.712C18.9983 447.643 19.0217 447.575 19.0661 447.521C36.0505 425.935 58.7537 409.053 84.1136 397.239C93.8817 392.688 107.03 386.989 123.558 380.143C130.264 377.36 136.368 374.763 141.87 372.352C155.918 366.209 169.39 358.869 182.288 350.329C189.923 345.281 194.862 341.268 198.836 334.036C198.849 334.019 198.866 334.008 198.886 334.003C198.906 333.998 198.927 333.999 198.945 334.008C198.964 334.016 198.979 334.03 198.989 334.048C198.999 334.066 199.002 334.087 198.999 334.107C193.476 351.633 188.805 366.237 184.985 377.918C184.367 379.828 179.753 383.668 177.563 385.11C163.915 394.12 146.261 400.601 131.153 405.772C113.178 411.914 93.4558 418.063 71.9863 424.219C69.4986 424.93 62.928 427.33 52.2743 431.421C40.9379 435.775 30.0003 441.288 19.4616 447.958Z" fill="#E30613"/>
</svg>
