<svg width="1373" height="523" viewBox="0 0 1373 523" fill="none" xmlns="http://www.w3.org/2000/svg">
<path d="M512.303 357.199L514.503 359.499C513.803 360.199 513.003 360.899 512.103 361.499C511.203 362.099 510.303 362.699 509.303 363.099C508.303 363.599 507.303 363.899 506.103 364.199C505.003 364.399 503.803 364.599 502.603 364.599C500.303 364.599 498.203 364.199 496.203 363.399C494.203 362.599 492.503 361.399 491.003 359.999C489.503 358.599 488.303 356.899 487.503 354.899C486.603 352.999 486.203 350.899 486.203 348.699C486.203 346.499 486.603 344.399 487.503 342.399C488.403 340.499 489.503 338.799 491.003 337.299C492.503 335.899 494.203 334.699 496.203 333.899C498.203 333.099 500.303 332.699 502.603 332.699C504.903 332.699 504.903 332.799 506.103 333.099C507.203 333.299 508.303 333.699 509.303 334.099C510.303 334.499 511.203 335.099 512.103 335.699C513.003 336.299 513.803 336.999 514.503 337.799L512.303 340.099C511.103 338.799 509.703 337.699 508.003 336.999C506.303 336.199 504.603 335.899 502.703 335.899C500.803 335.899 499.303 336.199 497.703 336.899C496.103 337.599 494.803 338.499 493.603 339.599C492.403 340.799 491.503 342.099 490.803 343.699C490.103 345.299 489.803 346.999 489.803 348.799C489.803 350.599 490.103 352.299 490.803 353.899C491.503 355.499 492.403 356.799 493.603 357.999C494.803 359.199 496.103 360.099 497.703 360.699C499.303 361.399 500.903 361.699 502.703 361.699C504.503 361.699 506.403 361.299 508.103 360.599C509.803 359.799 511.203 358.799 512.403 357.499" fill="white"/>
<path d="M520.898 364.001V333.301H541.198V336.401H524.499V347.201H538.999V350.401H524.499V360.901H541.398V364.001H520.898Z" fill="white"/>
<path d="M573.397 333.301V364.001H570.397L550.897 339.601V364.001H547.297V333.301H550.297L569.897 357.801V333.301H573.397Z" fill="white"/>
<path d="M588.697 364.001V336.401H578.797V333.301H602.197V336.401H592.297V364.001H588.697Z" fill="white"/>
<path d="M631.3 363.999H627.2L620.2 352.399H611.1V363.999H607.5V333.199H620.5C622 333.199 623.3 333.399 624.6 333.899C625.8 334.399 626.9 334.999 627.8 335.799C628.7 336.599 629.4 337.599 629.9 338.799C630.4 339.999 630.6 341.299 630.6 342.699C630.6 344.099 630.4 344.899 630.1 345.899C629.8 346.899 629.3 347.799 628.7 348.599C628.1 349.399 627.4 350.099 626.6 350.599C625.8 351.099 624.8 351.599 623.8 351.899L631.2 363.999H631.3ZM611.1 349.299H620.5C621.4 349.299 622.3 349.099 623.1 348.799C623.9 348.499 624.6 348.099 625.2 347.499C625.8 346.899 626.2 346.299 626.6 345.499C626.9 344.699 627.1 343.799 627.1 342.899C627.1 341.999 626.9 341.099 626.6 340.299C626.3 339.499 625.8 338.799 625.2 338.299C624.6 337.699 623.9 337.299 623.1 336.999C622.3 336.699 621.4 336.499 620.5 336.499H611.2V349.399L611.1 349.299Z" fill="white"/>
<path d="M635.102 348.602C635.102 346.402 635.502 344.302 636.402 342.302C637.302 340.402 638.402 338.702 639.902 337.202C641.402 335.802 643.102 334.602 645.102 333.802C647.102 333.002 649.202 332.602 651.502 332.602C653.802 332.602 655.902 333.002 657.902 333.802C659.902 334.602 661.602 335.802 663.102 337.202C664.602 338.602 665.802 340.302 666.602 342.302C667.502 344.202 667.902 346.302 667.902 348.602C667.902 350.902 667.502 352.902 666.602 354.802C665.702 356.702 664.602 358.402 663.102 359.902C661.602 361.302 659.902 362.502 657.902 363.302C655.902 364.102 653.802 364.502 651.502 364.502C649.202 364.502 647.102 364.102 645.102 363.302C643.102 362.502 641.402 361.302 639.902 359.902C638.402 358.502 637.202 356.802 636.402 354.802C635.502 352.902 635.102 350.802 635.102 348.602ZM638.602 348.602C638.602 350.402 638.902 352.102 639.602 353.702C640.302 355.302 641.202 356.602 642.402 357.802C643.602 359.002 644.902 359.902 646.502 360.502C648.102 361.202 649.702 361.502 651.502 361.502C653.302 361.502 655.002 361.202 656.502 360.502C658.102 359.802 659.402 358.902 660.602 357.802C661.802 356.602 662.702 355.302 663.402 353.702C664.102 352.102 664.402 350.402 664.402 348.602C664.402 346.802 664.102 345.102 663.402 343.502C662.702 341.902 661.802 340.602 660.602 339.402C659.402 338.202 658.102 337.302 656.502 336.702C654.902 336.002 653.302 335.702 651.502 335.702C649.702 335.702 648.102 336.002 646.502 336.702C644.902 337.402 643.602 338.302 642.402 339.402C641.202 340.602 640.302 341.902 639.602 343.502C638.902 345.102 638.602 346.802 638.602 348.602Z" fill="white"/>
<path d="M684.702 363.999V333.199H695.902C698.202 333.199 700.402 333.499 702.302 334.199C704.302 334.899 706.002 335.899 707.402 337.199C708.802 338.499 709.902 340.099 710.702 341.999C711.502 343.899 711.902 346.099 711.902 348.499C711.902 350.899 711.502 352.899 710.802 354.799C710.102 356.699 709.102 358.299 707.702 359.699C706.302 360.999 704.702 362.099 702.702 362.799C700.702 363.499 698.402 363.899 695.902 363.899H684.602L684.702 363.999ZM688.302 360.899H695.902C697.902 360.899 699.702 360.599 701.302 360.099C702.902 359.499 704.202 358.699 705.202 357.699C706.302 356.599 707.102 355.399 707.602 353.899C708.102 352.399 708.402 350.699 708.402 348.799C708.402 346.899 708.102 345.399 707.602 343.799C707.102 342.299 706.302 340.999 705.302 339.899C704.302 338.799 703.002 337.999 701.402 337.299C699.802 336.699 698.002 336.399 695.902 336.399H688.302V360.899Z" fill="white"/>
<path d="M718.5 364.001V333.301H738.8V336.401H722V347.201H736.6V350.401H722V360.901H739V364.001H718.5Z" fill="white"/>
<path d="M765.398 364.001V333.301H785.698V336.401H768.999V347.201H783.499V350.401H768.999V360.901H785.898V364.001H765.398Z" fill="white"/>
<path d="M793.602 333.301L802.702 345.701L811.802 333.301H816.002L804.902 348.101L816.802 364.001H812.502L802.702 350.501L792.902 364.001H788.602L800.502 348.101L789.402 333.301H793.602Z" fill="white"/>
<path d="M834.397 353.201H825.397V364.101H821.797V333.301H834.297C835.797 333.301 837.097 333.501 838.397 334.001C839.597 334.501 840.697 335.201 841.597 336.101C842.497 337.001 843.197 338.001 843.697 339.301C844.197 340.501 844.397 341.801 844.397 343.301C844.397 344.801 844.197 346.101 843.697 347.301C843.197 348.501 842.497 349.601 841.597 350.401C840.697 351.301 839.697 352.001 838.397 352.501C837.197 353.001 835.797 353.201 834.397 353.201ZM825.297 350.101H834.197C835.197 350.101 835.997 349.901 836.797 349.601C837.597 349.301 838.297 348.801 838.897 348.201C839.497 347.601 839.897 346.901 840.297 346.001C840.597 345.201 840.797 344.301 840.797 343.301C840.797 342.301 840.597 341.501 840.297 340.601C839.997 339.801 839.497 339.001 838.897 338.401C838.297 337.801 837.597 337.301 836.797 336.901C835.997 336.501 835.097 336.401 834.197 336.401H825.397V350.101H825.297Z" fill="white"/>
<path d="M848.203 348.602C848.203 346.402 848.603 344.302 849.503 342.302C850.403 340.402 851.503 338.702 853.003 337.202C854.503 335.802 856.203 334.602 858.203 333.802C860.203 333.002 862.303 332.602 864.603 332.602C866.903 332.602 869.003 333.002 871.003 333.802C873.003 334.602 874.703 335.802 876.203 337.202C877.703 338.602 878.903 340.302 879.703 342.302C880.603 344.202 881.003 346.302 881.003 348.602C881.003 350.902 880.603 352.902 879.703 354.802C878.803 356.702 877.703 358.402 876.203 359.902C874.703 361.302 873.003 362.502 871.003 363.302C869.003 364.102 866.903 364.502 864.603 364.502C862.303 364.502 860.203 364.102 858.203 363.302C856.203 362.502 854.503 361.302 853.003 359.902C851.503 358.502 850.303 356.802 849.503 354.802C848.603 352.902 848.203 350.802 848.203 348.602ZM851.703 348.602C851.703 350.402 852.003 352.102 852.703 353.702C853.403 355.302 854.303 356.602 855.503 357.802C856.703 359.002 858.003 359.902 859.603 360.502C861.203 361.202 862.803 361.502 864.603 361.502C866.403 361.502 868.103 361.202 869.603 360.502C871.203 359.802 872.503 358.902 873.703 357.802C874.903 356.602 875.803 355.302 876.503 353.702C877.203 352.102 877.503 350.402 877.503 348.602C877.503 346.802 877.203 345.102 876.503 343.502C875.803 341.902 874.903 340.602 873.703 339.402C872.503 338.202 871.203 337.302 869.603 336.702C868.003 336.002 866.403 335.702 864.603 335.702C862.803 335.702 861.203 336.002 859.603 336.702C858.003 337.402 856.703 338.302 855.503 339.402C854.303 340.602 853.403 341.902 852.703 343.502C852.003 345.102 851.703 346.802 851.703 348.602Z" fill="white"/>
<path d="M911.3 363.999H907.2L900.2 352.399H891.1V363.999H887.5V333.199H900.5C902 333.199 903.3 333.399 904.6 333.899C905.8 334.399 906.9 334.999 907.8 335.799C908.7 336.599 909.4 337.599 909.9 338.799C910.4 339.999 910.6 341.299 910.6 342.699C910.6 344.099 910.4 344.899 910.1 345.899C909.8 346.899 909.3 347.799 908.7 348.599C908.1 349.399 907.4 350.099 906.6 350.599C905.8 351.099 904.8 351.599 903.8 351.899L911.2 363.999H911.3ZM891.1 349.299H900.5C901.4 349.299 902.3 349.099 903.1 348.799C903.9 348.499 904.6 348.099 905.2 347.499C905.8 346.899 906.2 346.299 906.6 345.499C906.9 344.699 907.1 343.799 907.1 342.899C907.1 341.999 906.9 341.099 906.6 340.299C906.3 339.499 905.8 338.799 905.2 338.299C904.6 337.699 903.9 337.299 903.1 336.999C902.3 336.699 901.4 336.499 900.5 336.499H891.2V349.399L891.1 349.299Z" fill="white"/>
<path d="M923.9 364.001V336.401H914V333.301H937.4V336.401H927.5V364.001H923.9Z" fill="white"/>
<path d="M964.903 363.999H961.103L958.003 356.799H942.103L939.003 363.999H935.203L948.303 333.199H951.803L964.903 363.999ZM950.103 337.899V338.399C950.003 338.399 943.403 353.799 943.403 353.799H956.703L950.203 338.399V337.899H950.103Z" fill="white"/>
<path d="M992.897 357.199L995.097 359.499C994.397 360.199 993.597 360.899 992.697 361.499C991.797 362.099 990.897 362.699 989.897 363.099C988.897 363.599 987.797 363.899 986.697 364.199C985.597 364.399 984.397 364.599 983.197 364.599C980.897 364.599 978.797 364.199 976.797 363.399C974.797 362.599 973.097 361.399 971.597 359.999C970.097 358.599 968.897 356.899 968.097 354.899C967.197 352.999 966.797 350.899 966.797 348.699C966.797 346.499 967.197 344.399 968.097 342.399C968.997 340.499 970.097 338.799 971.597 337.299C973.097 335.899 974.797 334.699 976.797 333.899C978.797 333.099 980.897 332.699 983.197 332.699C985.497 332.699 985.497 332.799 986.697 333.099C987.797 333.299 988.897 333.699 989.897 334.099C990.897 334.499 991.797 335.099 992.697 335.699C993.597 336.299 994.397 336.999 995.097 337.799L992.897 340.099C991.697 338.799 990.297 337.699 988.597 336.999C986.897 336.199 985.197 335.899 983.297 335.899C981.397 335.899 979.897 336.199 978.297 336.899C976.697 337.599 975.397 338.499 974.197 339.599C972.997 340.799 972.097 342.099 971.397 343.699C970.697 345.299 970.397 346.999 970.397 348.799C970.397 350.599 970.697 352.299 971.397 353.899C972.097 355.499 972.997 356.799 974.197 357.999C975.397 359.199 976.697 360.099 978.297 360.699C979.897 361.399 981.497 361.699 983.297 361.699C985.097 361.699 986.997 361.299 988.697 360.599C990.397 359.799 991.797 358.799 992.997 357.499" fill="white"/>
<path d="M1005.2 333.301H1001.6V364.101H1005.2V333.301Z" fill="white"/>
<path d="M1011.7 348.602C1011.7 346.402 1012.1 344.302 1013 342.302C1013.9 340.402 1015 338.702 1016.5 337.202C1018 335.802 1019.7 334.602 1021.7 333.802C1023.7 333.002 1025.8 332.602 1028.1 332.602C1030.4 332.602 1032.5 333.002 1034.5 333.802C1036.5 334.602 1038.2 335.802 1039.7 337.202C1041.2 338.602 1042.4 340.302 1043.2 342.302C1044.1 344.202 1044.5 346.302 1044.5 348.602C1044.5 350.902 1044.1 352.902 1043.2 354.802C1042.3 356.702 1041.2 358.402 1039.7 359.902C1038.2 361.302 1036.5 362.502 1034.5 363.302C1032.5 364.102 1030.4 364.502 1028.1 364.502C1025.8 364.502 1023.7 364.102 1021.7 363.302C1019.7 362.502 1018 361.302 1016.5 359.902C1015 358.502 1013.8 356.802 1013 354.802C1012.1 352.902 1011.7 350.802 1011.7 348.602ZM1015.2 348.602C1015.2 350.402 1015.5 352.102 1016.2 353.702C1016.9 355.302 1017.8 356.602 1019 357.802C1020.2 359.002 1021.5 359.902 1023.1 360.502C1024.7 361.202 1026.3 361.502 1028.1 361.502C1029.9 361.502 1031.6 361.202 1033.1 360.502C1034.7 359.802 1036 358.902 1037.2 357.802C1038.4 356.602 1039.3 355.302 1040 353.702C1040.7 352.102 1041 350.402 1041 348.602C1041 346.802 1040.7 345.102 1040 343.502C1039.3 341.902 1038.4 340.602 1037.2 339.402C1036 338.202 1034.7 337.302 1033.1 336.702C1031.5 336.002 1029.9 335.702 1028.1 335.702C1026.3 335.702 1024.7 336.002 1023.1 336.702C1021.5 337.402 1020.2 338.302 1019 339.402C1017.8 340.602 1016.9 341.902 1016.2 343.502C1015.5 345.102 1015.2 346.802 1015.2 348.602ZM1030.1 322.602L1032.8 323.502L1028.8 328.902H1026.2L1030.1 322.602Z" fill="white"/>
<path d="M1077.2 333.301V364.001H1074.2L1054.6 339.601V364.001H1051.1V333.301H1054L1073.6 357.801V333.301H1077.2Z" fill="white"/>
<path d="M1095.5 364.001V333.301H1115.8V336.401H1099.1V347.201H1113.6V350.401H1099.1V360.901H1116V364.001H1095.5Z" fill="white"/>
<path d="M1135.8 333.301H1132.2V364.101H1135.8V333.301Z" fill="white"/>
<path d="M1170 333.301V364.001H1167L1147.5 339.601V364.001H1143.9V333.301H1146.8L1166.4 357.801V333.301H1170Z" fill="white"/>
<path d="M1189.4 359.401L1200.4 333.301H1204.2L1191.1 364.001H1187.7L1174.6 333.301H1178.4L1189.4 359.401Z" fill="white"/>
<path d="M1208.9 364.001V333.301H1229.2V336.401H1212.4V347.201H1227V350.401H1212.4V360.901H1229.4V364.001H1208.9Z" fill="white"/>
<path d="M1259 363.999H1254.9L1247.9 352.399H1238.8V363.999H1235.2V333.199H1248.2C1249.7 333.199 1251 333.399 1252.3 333.899C1253.5 334.399 1254.6 334.999 1255.5 335.799C1256.4 336.599 1257.1 337.599 1257.6 338.799C1258.1 339.999 1258.3 341.299 1258.3 342.699C1258.3 344.099 1258.1 344.899 1257.8 345.899C1257.5 346.899 1257 347.799 1256.4 348.599C1255.8 349.399 1255.1 350.099 1254.3 350.599C1253.5 351.099 1252.5 351.599 1251.5 351.899L1258.9 363.999H1259ZM1238.8 349.299H1248.2C1249.1 349.299 1250 349.099 1250.8 348.799C1251.6 348.499 1252.3 348.099 1252.9 347.499C1253.5 346.899 1253.9 346.299 1254.3 345.499C1254.6 344.699 1254.8 343.799 1254.8 342.899C1254.8 341.999 1254.6 341.099 1254.3 340.299C1254 339.499 1253.5 338.799 1252.9 338.299C1252.3 337.699 1251.6 337.299 1250.8 336.999C1250 336.699 1249.1 336.499 1248.2 336.499H1238.9V349.399L1238.8 349.299Z" fill="white"/>
<path d="M1261.8 361.602L1263.1 358.602C1263.6 358.902 1264.3 359.202 1265 359.502C1265.7 359.802 1266.6 360.202 1267.5 360.402C1268.4 360.702 1269.4 360.902 1270.4 361.102C1271.4 361.302 1272.5 361.402 1273.6 361.402C1276.5 361.402 1278.8 360.902 1280.2 359.902C1281.7 358.902 1282.4 357.402 1282.4 355.402C1282.4 353.402 1282.2 353.602 1281.7 352.902C1281.2 352.202 1280.6 351.602 1279.8 351.202C1279 350.702 1278.1 350.402 1277 350.102C1275.9 349.802 1274.8 349.602 1273.5 349.402C1272.8 349.302 1272 349.202 1271.2 349.002C1270.4 348.902 1269.6 348.702 1268.8 348.402C1268 348.202 1267.2 347.902 1266.5 347.502C1265.8 347.102 1265.1 346.702 1264.6 346.202C1264 345.702 1263.6 345.002 1263.3 344.302C1263 343.602 1262.8 342.702 1262.8 341.702C1262.8 340.702 1263 339.302 1263.4 338.202C1263.8 337.102 1264.5 336.102 1265.4 335.302C1266.3 334.502 1267.5 333.802 1268.9 333.302C1270.4 332.802 1272.2 332.602 1274.3 332.602C1276.4 332.602 1276.5 332.602 1277.5 332.902C1278.5 333.102 1279.5 333.302 1280.4 333.602C1281.3 333.902 1282.2 334.202 1283 334.602C1283.8 335.002 1284.5 335.302 1285.2 335.602L1284.1 338.602C1283.6 338.302 1283.1 338.102 1282.3 337.702C1281.6 337.402 1280.7 337.102 1279.8 336.802C1278.9 336.502 1277.9 336.202 1276.9 336.002C1275.9 335.802 1274.9 335.702 1273.9 335.702C1272.4 335.702 1271.2 335.902 1270.2 336.202C1269.2 336.502 1268.4 337.002 1267.8 337.502C1267.2 338.002 1266.8 338.602 1266.6 339.302C1266.4 340.002 1266.2 340.702 1266.2 341.302C1266.2 341.902 1266.4 342.902 1266.8 343.502C1267.2 344.102 1267.8 344.602 1268.6 345.002C1269.4 345.402 1270.3 345.702 1271.4 345.902C1272.5 346.102 1273.6 346.302 1274.9 346.502C1276.2 346.702 1277.4 347.002 1278.7 347.302C1280 347.602 1281.2 348.102 1282.2 348.802C1283.2 349.502 1284.1 350.302 1284.8 351.402C1285.5 352.502 1285.8 353.802 1285.8 355.502C1285.8 357.202 1285.5 358.202 1284.9 359.302C1284.3 360.402 1283.5 361.402 1282.4 362.202C1281.3 363.002 1280 363.602 1278.4 364.002C1276.8 364.402 1275.1 364.602 1273.1 364.602C1271.1 364.602 1270.8 364.602 1269.7 364.402C1268.6 364.202 1267.6 364.002 1266.6 363.702C1265.6 363.402 1264.7 363.102 1263.8 362.702C1262.9 362.302 1262.2 361.902 1261.5 361.502" fill="white"/>
<path d="M1296.5 333.301H1292.9V364.101H1296.5V333.301Z" fill="white"/>
<path d="M1303 348.602C1303 346.402 1303.4 344.302 1304.3 342.302C1305.2 340.402 1306.3 338.702 1307.8 337.202C1309.3 335.802 1311 334.602 1313 333.802C1315 333.002 1317.1 332.602 1319.4 332.602C1321.7 332.602 1323.8 333.002 1325.8 333.802C1327.8 334.602 1329.5 335.802 1331 337.202C1332.5 338.602 1333.7 340.302 1334.5 342.302C1335.4 344.202 1335.8 346.302 1335.8 348.602C1335.8 350.902 1335.4 352.902 1334.5 354.802C1333.6 356.702 1332.5 358.402 1331 359.902C1329.5 361.302 1327.8 362.502 1325.8 363.302C1323.8 364.102 1321.7 364.502 1319.4 364.502C1317.1 364.502 1315 364.102 1313 363.302C1311 362.502 1309.3 361.302 1307.8 359.902C1306.3 358.502 1305.1 356.802 1304.3 354.802C1303.4 352.902 1303 350.802 1303 348.602ZM1306.6 348.602C1306.6 350.402 1306.9 352.102 1307.6 353.702C1308.3 355.302 1309.2 356.602 1310.4 357.802C1311.6 359.002 1312.9 359.902 1314.5 360.502C1316.1 361.202 1317.7 361.502 1319.5 361.502C1321.3 361.502 1323 361.202 1324.5 360.502C1326.1 359.802 1327.4 358.902 1328.6 357.802C1329.8 356.602 1330.7 355.302 1331.4 353.702C1332.1 352.102 1332.4 350.402 1332.4 348.602C1332.4 346.802 1332.1 345.102 1331.4 343.502C1330.7 341.902 1329.8 340.602 1328.6 339.402C1327.4 338.202 1326.1 337.302 1324.5 336.702C1322.9 336.002 1321.3 335.702 1319.5 335.702C1317.7 335.702 1316.1 336.002 1314.5 336.702C1312.9 337.402 1311.6 338.302 1310.4 339.402C1309.2 340.602 1308.3 341.902 1307.6 343.502C1306.9 345.102 1306.6 346.802 1306.6 348.602ZM1321.4 322.602L1324.1 323.502L1320.1 328.902H1317.5L1321.4 322.602Z" fill="white"/>
<path d="M1368.5 333.301V364.001H1365.5L1346 339.601V364.001H1342.4V333.301H1345.4L1364.9 357.801V333.301H1368.5Z" fill="white"/>
<path d="M487.803 419.601V388.801H499.003C501.303 388.801 503.503 389.101 505.403 389.801C507.403 390.501 509.103 391.501 510.503 392.801C511.903 394.101 513.003 395.701 513.803 397.601C514.603 399.501 515.003 401.701 515.003 404.101C515.003 406.501 514.603 408.501 513.903 410.401C513.203 412.301 512.203 413.901 510.803 415.301C509.403 416.601 507.803 417.701 505.803 418.401C503.803 419.101 501.503 419.501 499.003 419.501H487.703L487.803 419.601ZM491.403 416.501H499.003C501.003 416.501 502.803 416.201 504.403 415.701C506.003 415.101 507.303 414.301 508.303 413.301C509.403 412.201 510.203 411.001 510.703 409.501C511.203 408.001 511.503 406.301 511.503 404.401C511.503 402.501 511.203 401.001 510.703 399.401C510.203 397.901 509.403 396.601 508.403 395.501C507.403 394.401 506.103 393.601 504.503 392.901C502.903 392.301 501.103 392.001 499.003 392.001H491.403V416.501Z" fill="white"/>
<path d="M521.602 419.598V388.898H541.802V391.998H525.102V402.798H539.702V405.998H525.102V416.498H542.002V419.598H521.602Z" fill="white"/>
<path d="M558.203 419.598V388.898H561.803V416.498H577.003V419.598H558.203Z" fill="white"/>
<path d="M609.098 419.601H605.298L602.198 412.401H586.298L583.198 419.601H579.398L592.499 388.801H595.999L609.098 419.601ZM594.298 393.401V393.901C594.198 393.901 587.598 409.301 587.598 409.301H600.898L594.398 393.901V393.401H594.298Z" fill="white"/>
<path d="M647.698 419.601H643.598L636.598 408.001H627.499V419.601H623.898V388.801H636.898C638.398 388.801 639.699 389.001 640.999 389.501C642.199 390.001 643.298 390.601 644.198 391.401C645.098 392.201 645.798 393.201 646.298 394.401C646.798 395.601 646.999 396.901 646.999 398.301C646.999 399.701 646.799 400.501 646.499 401.501C646.199 402.501 645.698 403.401 645.098 404.201C644.498 405.001 643.799 405.701 642.999 406.201C642.199 406.701 641.198 407.201 640.198 407.501L647.598 419.601H647.698ZM627.499 404.901H636.898C637.798 404.901 638.699 404.701 639.499 404.401C640.299 404.101 640.998 403.701 641.598 403.101C642.198 402.501 642.599 401.901 642.999 401.101C643.299 400.301 643.499 399.401 643.499 398.501C643.499 397.601 643.299 396.701 642.999 395.901C642.699 395.101 642.198 394.401 641.598 393.901C640.998 393.301 640.299 392.901 639.499 392.601C638.699 392.301 637.798 392.101 636.898 392.101H627.598V405.001L627.499 404.901Z" fill="white"/>
<path d="M653.102 419.598V388.898H673.402V391.998H656.702V402.798H671.202V405.998H656.702V416.498H673.602V419.598H653.102Z" fill="white"/>
<path d="M692.1 408.798H683.1V419.698H679.5V388.898H692C693.5 388.898 694.8 389.098 696.1 389.598C697.3 390.098 698.4 390.798 699.3 391.698C700.2 392.598 700.9 393.598 701.4 394.898C701.9 396.098 702.1 397.398 702.1 398.898C702.1 400.398 701.9 401.698 701.4 402.898C700.9 404.098 700.2 405.198 699.3 405.998C698.4 406.898 697.4 407.598 696.1 408.098C694.9 408.598 693.5 408.798 692.1 408.798ZM683.1 405.598H692C692.9 405.598 693.8 405.398 694.6 405.098C695.4 404.798 696.1 404.298 696.7 403.698C697.3 403.098 697.7 402.398 698.1 401.498C698.4 400.698 698.6 399.798 698.6 398.798C698.6 397.798 698.4 396.998 698.1 396.098C697.8 395.298 697.3 394.498 696.7 393.898C696.1 393.298 695.4 392.798 694.6 392.398C693.8 391.998 692.9 391.898 692 391.898H683.2V405.598H683.1Z" fill="white"/>
<path d="M728.497 407.699V388.799H732.097V407.699C732.097 409.599 731.797 411.299 731.197 412.799C730.597 414.299 729.697 415.699 728.597 416.799C727.497 417.899 726.197 418.799 724.597 419.399C723.097 419.999 721.397 420.299 719.497 420.299C717.597 420.299 716.097 419.999 714.497 419.399C712.997 418.799 711.597 417.999 710.497 416.899C709.397 415.799 708.497 414.499 707.797 412.899C707.197 411.399 706.797 409.599 706.797 407.699V388.799H710.297V407.599C710.297 408.899 710.497 410.099 710.897 411.199C711.297 412.299 711.897 413.299 712.697 414.199C713.497 415.099 714.397 415.699 715.597 416.199C716.697 416.699 717.997 416.899 719.497 416.899C720.997 416.899 722.197 416.699 723.297 416.199C724.397 415.699 725.397 414.999 726.197 414.199C726.997 413.399 727.597 412.399 727.997 411.199C728.397 410.099 728.597 408.899 728.597 407.599M721.897 378.199L724.597 379.099L720.597 384.499H717.997L721.897 378.199Z" fill="white"/>
<path d="M753.902 419.601H739.602V388.801H752.702C754.002 388.801 755.102 389.001 756.202 389.401C757.302 389.801 758.202 390.301 758.902 391.101C759.702 391.801 760.302 392.701 760.702 393.601C761.102 394.601 761.302 395.701 761.302 396.901C761.302 398.101 761.202 398.301 761.002 399.001C760.802 399.701 760.502 400.301 760.102 400.801C759.702 401.401 759.302 401.901 758.802 402.301C758.302 402.701 757.702 403.101 757.202 403.301C758.002 403.501 758.802 403.901 759.502 404.401C760.202 404.901 760.902 405.501 761.402 406.101C761.902 406.801 762.402 407.501 762.702 408.301C763.002 409.101 763.202 410.001 763.202 410.901C763.202 412.301 762.902 413.501 762.402 414.501C761.902 415.601 761.202 416.501 760.402 417.201C759.602 417.901 758.602 418.501 757.502 418.901C756.402 419.301 755.302 419.501 754.102 419.501M752.402 391.901H743.102V402.301H752.402C753.102 402.301 753.702 402.201 754.402 401.901C755.002 401.601 755.602 401.301 756.002 400.801C756.502 400.301 756.902 399.801 757.102 399.101C757.402 398.501 757.502 397.801 757.502 397.001C757.502 396.201 757.402 395.601 757.102 395.001C756.802 394.401 756.402 393.801 756.002 393.301C755.502 392.801 755.002 392.501 754.402 392.201C753.802 391.901 753.102 391.801 752.402 391.801M743.102 405.201V416.601H753.602C754.302 416.601 755.102 416.501 755.702 416.201C756.402 415.901 757.002 415.501 757.502 415.001C758.002 414.501 758.502 413.901 758.802 413.201C759.102 412.501 759.302 411.701 759.302 410.901C759.302 410.101 759.202 409.401 758.902 408.701C758.602 408.001 758.202 407.401 757.702 406.901C757.202 406.401 756.602 406.001 755.902 405.701C755.202 405.401 754.502 405.301 753.702 405.301H743.202L743.102 405.201Z" fill="white"/>
<path d="M769 419.598V388.898H772.6V416.498H787.8V419.598H769Z" fill="white"/>
<path d="M796.6 388.898H793V419.698H796.6V388.898Z" fill="white"/>
<path d="M829.202 412.801L831.402 415.101C830.702 415.801 829.902 416.501 829.002 417.101C828.102 417.701 827.202 418.301 826.202 418.701C825.202 419.201 824.202 419.501 823.002 419.801C821.902 420.001 820.702 420.201 819.502 420.201C817.202 420.201 815.102 419.801 813.102 419.001C811.102 418.201 809.402 417.001 807.902 415.601C806.402 414.201 805.202 412.501 804.402 410.501C803.502 408.601 803.102 406.501 803.102 404.301C803.102 402.101 803.502 400.001 804.402 398.001C805.302 396.101 806.402 394.401 807.902 392.901C809.402 391.501 811.102 390.301 813.102 389.501C815.102 388.701 817.202 388.301 819.502 388.301C821.802 388.301 821.802 388.401 823.002 388.701C824.102 388.901 825.202 389.301 826.202 389.701C827.202 390.101 828.102 390.701 829.002 391.301C829.902 391.901 830.702 392.601 831.402 393.401L829.202 395.701C828.002 394.401 826.602 393.301 824.902 392.601C823.202 391.801 821.502 391.501 819.602 391.501C817.702 391.501 816.202 391.801 814.602 392.501C813.002 393.201 811.702 394.101 810.502 395.201C809.302 396.401 808.402 397.701 807.702 399.301C807.002 400.901 806.702 402.601 806.702 404.401C806.702 406.201 807.002 407.901 807.702 409.501C808.402 411.101 809.302 412.401 810.502 413.601C811.702 414.801 813.002 415.701 814.602 416.301C816.202 417.001 817.802 417.301 819.602 417.301C821.402 417.301 823.302 416.901 824.902 416.201C826.602 415.401 828.002 414.401 829.202 413.101" fill="white"/>
<path d="M863.2 419.601H859.4L856.3 412.401H840.4L837.3 419.601H833.5L846.6 388.801H850.1L863.2 419.601ZM848.4 393.401V393.901C848.3 393.901 841.7 409.301 841.7 409.301H855L848.5 393.901V393.401H848.4Z" fill="white"/>
<path d="M878.1 419.601V388.801H889.3C891.6 388.801 893.8 389.101 895.7 389.801C897.7 390.501 899.4 391.501 900.8 392.801C902.2 394.101 903.3 395.701 904.1 397.601C904.9 399.501 905.3 401.701 905.3 404.101C905.3 406.501 904.9 408.501 904.2 410.401C903.5 412.301 902.5 413.901 901.1 415.301C899.7 416.601 898.1 417.701 896.1 418.401C894.1 419.101 891.8 419.501 889.3 419.501H878L878.1 419.601ZM881.6 416.501H889.2C891.2 416.501 893 416.201 894.6 415.701C896.2 415.101 897.5 414.301 898.5 413.301C899.6 412.201 900.4 411.001 900.9 409.501C901.5 408.001 901.7 406.301 901.7 404.401C901.7 402.501 901.4 401.001 900.9 399.401C900.4 397.901 899.6 396.601 898.6 395.501C897.6 394.401 896.3 393.601 894.7 392.901C893.1 392.301 891.3 392.001 889.2 392.001H881.6V416.501Z" fill="white"/>
<path d="M910.203 404.199C910.203 401.999 910.603 399.899 911.503 397.899C912.403 395.999 913.503 394.299 915.003 392.799C916.503 391.399 918.203 390.199 920.203 389.399C922.203 388.599 924.303 388.199 926.603 388.199C928.903 388.199 931.003 388.599 933.003 389.399C935.003 390.199 936.703 391.399 938.203 392.799C939.703 394.199 940.903 395.899 941.703 397.899C942.603 399.799 943.003 401.899 943.003 404.199C943.003 406.499 942.603 408.499 941.703 410.399C940.803 412.299 939.703 413.999 938.203 415.499C936.703 416.899 935.003 418.099 933.003 418.899C931.003 419.699 928.903 420.099 926.603 420.099C924.303 420.099 922.203 419.699 920.203 418.899C918.203 418.099 916.503 416.899 915.003 415.499C913.503 414.099 912.303 412.399 911.503 410.399C910.603 408.499 910.203 406.399 910.203 404.199ZM913.703 404.199C913.703 405.999 914.003 407.699 914.703 409.299C915.403 410.899 916.303 412.199 917.503 413.399C918.703 414.599 920.003 415.499 921.603 416.099C923.203 416.799 924.803 417.099 926.603 417.099C928.403 417.099 930.103 416.799 931.603 416.099C933.203 415.399 934.503 414.499 935.703 413.399C936.903 412.199 937.803 410.899 938.503 409.299C939.203 407.699 939.503 405.999 939.503 404.199C939.503 402.399 939.203 400.699 938.503 399.099C937.803 397.499 936.903 396.199 935.703 394.999C934.503 393.799 933.203 392.899 931.603 392.299C930.003 391.599 928.403 391.299 926.603 391.299C924.803 391.299 923.203 391.599 921.603 392.299C920.003 392.999 918.703 393.899 917.503 394.999C916.303 396.199 915.403 397.499 914.703 399.099C914.003 400.699 913.703 402.399 913.703 404.199Z" fill="white"/>
<path d="M965.202 409.298H964.102L953.102 394.698V419.598H949.602V388.898H952.602L964.602 404.598L976.602 388.898H979.702V419.598H976.202V394.798L965.202 409.298Z" fill="white"/>
<path d="M991.499 388.898H987.898V419.698H991.499V388.898Z" fill="white"/>
<path d="M1025.6 388.898V419.598H1022.6L1003.1 395.098V419.598H999.602V388.898H1002.5L1022.1 413.398V388.898H1025.6Z" fill="white"/>
<path d="M1037.4 388.898H1033.8V419.698H1037.4V388.898Z" fill="white"/>
<path d="M1069.9 412.801L1072.1 415.101C1071.4 415.801 1070.6 416.501 1069.7 417.101C1068.8 417.701 1067.9 418.301 1066.9 418.701C1065.9 419.201 1064.8 419.501 1063.7 419.801C1062.6 420.001 1061.4 420.201 1060.2 420.201C1057.9 420.201 1055.8 419.801 1053.8 419.001C1051.8 418.201 1050.1 417.001 1048.6 415.601C1047.1 414.201 1045.9 412.501 1045.1 410.501C1044.2 408.601 1043.8 406.501 1043.8 404.301C1043.8 402.101 1044.2 400.001 1045.1 398.001C1046 396.101 1047.1 394.401 1048.6 392.901C1050.1 391.501 1051.8 390.301 1053.8 389.501C1055.8 388.701 1057.9 388.301 1060.2 388.301C1062.5 388.301 1062.5 388.401 1063.7 388.701C1064.8 388.901 1065.9 389.301 1066.9 389.701C1067.9 390.101 1068.8 390.701 1069.7 391.301C1070.6 391.901 1071.4 392.601 1072.1 393.401L1069.9 395.701C1068.7 394.401 1067.3 393.301 1065.6 392.601C1063.9 391.801 1062.2 391.501 1060.3 391.501C1058.4 391.501 1056.9 391.801 1055.3 392.501C1053.7 393.201 1052.4 394.101 1051.2 395.201C1050 396.401 1049.1 397.701 1048.4 399.301C1047.7 400.901 1047.4 402.601 1047.4 404.401C1047.4 406.201 1047.7 407.901 1048.4 409.501C1049.1 411.101 1050 412.401 1051.2 413.601C1052.4 414.801 1053.7 415.701 1055.3 416.301C1056.9 417.001 1058.5 417.301 1060.3 417.301C1062.1 417.301 1064 416.901 1065.7 416.201C1067.4 415.401 1068.8 414.401 1070 413.101" fill="white"/>
<path d="M1103.9 419.601H1100.1L1097 412.401H1081.1L1078 419.601H1074.2L1087.3 388.801H1090.8L1103.9 419.601ZM1089.1 393.401V393.901C1089 393.901 1082.4 409.301 1082.4 409.301H1095.7L1089.2 393.901V393.401H1089.1Z" fill="white"/>
<path d="M1134.6 388.898V419.598H1131.6L1112.1 395.098V419.598H1108.5V388.898H1111.4L1131 413.398V388.898H1134.6Z" fill="white"/>
<path d="M1168.7 419.601H1164.9L1161.8 412.401H1145.9L1142.8 419.601H1139L1152.1 388.801H1155.6L1168.7 419.601ZM1153.9 393.401V393.901C1153.8 393.901 1147.2 409.301 1147.2 409.301H1160.5L1154 393.901V393.401H1153.9Z" fill="white"/>
<path d="M1172.6 417.8C1172.6 417.2 1172.8 416.6 1173.3 416.2C1173.7 415.7 1174.3 415.5 1175 415.5C1175.7 415.5 1175.7 415.5 1175.9 415.7C1176.2 415.8 1176.4 416 1176.6 416.2C1176.8 416.4 1177 416.7 1177.1 416.9C1177.2 417.2 1177.3 417.5 1177.3 417.8C1177.3 418.4 1177.1 419 1176.6 419.4C1176.2 419.8 1175.6 420.1 1174.9 420.1C1174.2 420.1 1173.6 419.9 1173.2 419.4C1172.8 419 1172.5 418.4 1172.5 417.8" fill="white"/>
<path d="M220.1 14.6008C218.9 14.5008 217.6 14.4008 216.4 14.3008C215.6 14.3008 214.9 14.2008 214.1 14.1008C210.3 13.9008 206.5 13.8008 202.7 13.8008C90.9001 13.8008 0 104.701 0 216.501C0 401.601 202.7 522.901 202.7 522.901V420.101C60.1001 340.401 37 100.001 220.1 14.6008Z" fill="#0F4D95"/>
<path d="M339.3 54.3008C338.6 54.3008 337.9 54.3008 337.2 54.3008C276.5 54.3008 222 81.2008 184.8 123.701H217.5C217.5 123.701 217.5 123.701 217.6 123.701C217.6 123.701 217.7 123.701 217.8 123.701C269 123.701 310.6 165.301 310.6 216.501C310.6 267.701 269 309.301 217.8 309.301C166.6 309.301 217.6 309.301 217.6 309.301C217.6 309.301 217.6 309.301 217.5 309.301H141.5C153 352.101 178.1 389.401 211.9 416.101C213.4 417.101 214.9 418.101 216.3 419.101C216.8 419.101 217.3 419.101 217.8 419.101C329.6 419.101 420.5 328.201 420.5 216.401C420.5 104.601 380.8 83.2008 339.3 54.3008Z" fill="#DF1E39"/>
<path d="M343.004 26.3C322.604 12.2 306.904 6.4 283.304 0H282.904H282.504C237.704 10.1 192.904 41 159.704 84.8C125.104 130.4 107.004 184.5 108.404 237.6C108.404 239 108.404 240.4 108.504 241.7L111.604 241.5C111.604 240.5 111.604 239.5 111.504 238.5C111.204 213.1 126.104 147.9 175.804 95.5C218.704 50.3 274.604 27.9 342.204 29H347.304L343.104 26.2L343.004 26.3Z" fill="#17B1E7"/>
<path d="M483.797 300.498V197.898H508.997C521.397 197.898 531.997 199.098 540.797 201.398C549.997 203.598 557.497 208.398 563.297 215.798C569.297 223.098 572.297 233.798 572.297 247.998C572.297 268.198 566.497 281.998 554.897 289.498C543.397 296.898 528.597 300.598 510.397 300.598H483.797V300.498ZM505.497 282.598H508.397C522.397 282.598 532.897 279.898 539.797 274.498C546.697 269.098 550.097 260.198 550.097 247.898C550.097 235.598 546.697 226.698 539.897 222.198C533.097 217.798 522.597 215.498 508.497 215.498H505.597V282.498L505.497 282.598Z" fill="white"/>
<path d="M578.898 249.199C578.898 233.499 583.798 220.699 593.598 210.899C603.398 201.099 616.299 196.199 632.499 196.199C648.699 196.199 660.898 201.099 670.598 210.899C680.298 220.699 685.098 233.299 685.098 248.799C685.098 264.299 680.198 276.899 670.298 286.999C660.398 296.999 647.498 301.999 631.598 301.999C615.698 301.999 602.998 297.099 593.398 287.299C583.798 277.499 578.999 264.799 578.999 249.099M662.698 249.199C662.698 239.299 659.698 231.299 653.798 225.199C647.898 219.099 640.598 216.099 631.898 216.099C623.198 216.099 615.698 219.099 609.898 225.199C604.098 231.299 601.198 239.199 601.198 248.899C601.198 258.599 604.098 266.999 609.898 273.099C615.698 279.199 623.098 282.199 632.098 282.199C641.098 282.199 648.199 279.199 653.999 273.099C659.799 266.999 662.698 259.099 662.698 249.299" fill="white"/>
<path d="M748.398 302.101L719.898 252.201L711.198 300.501H689.398L710.098 196.301H711.698L749.098 262.401L786.499 196.301H787.999L808.798 300.501H787.398L778.198 252.401L749.999 302.101H748.398Z" fill="white"/>
<path d="M818.102 290.798V197.898H840.002V300.498H827.902C822.502 300.498 818.102 296.098 818.102 290.698" fill="white"/>
<path d="M941.803 302.101L876.403 241.601V300.501H855.203V196.301H856.803L922.203 256.701V197.901H943.403V302.101H941.803Z" fill="white"/>
<path d="M958.602 290.798V197.898H980.502V300.498H968.402C963.002 300.498 958.602 296.098 958.602 290.698" fill="white"/>
<path d="M991.398 249.401C991.398 233.901 996.398 221.201 1006.3 211.201C1016.2 201.301 1029.2 196.301 1045.3 196.301C1061.4 196.301 1066.8 198.601 1074.1 203.301V224.701C1065.6 219.001 1056.4 216.101 1046.4 216.101C1036.4 216.101 1028.9 219.201 1022.9 225.301C1016.8 231.401 1013.8 239.301 1013.8 249.101C1013.8 258.901 1016.9 267.301 1023.1 273.301C1029.3 279.301 1037.3 282.201 1047.3 282.201C1057.3 282.201 1067.2 279.301 1075.8 273.601V295.301C1072.7 297.201 1068.5 298.801 1063 300.101C1057.6 301.401 1051.8 302.101 1045.8 302.101C1029.1 302.101 1015.9 297.201 1006.1 287.301C996.298 277.401 991.398 264.801 991.398 249.401Z" fill="white"/>
<path d="M1079.3 300.501L1126.7 196.301H1128.3L1175.5 300.501H1152.2L1145.5 284.701H1108.6L1101.8 300.501H1079.3ZM1115.1 267.801H1139.2L1127.2 239.301L1115.2 267.801H1115.1Z" fill="white"/>
<path d="M1268.5 302.101L1203 241.601V300.501H1181.8V196.301H1183.4L1248.8 256.701V197.901H1270V302.101H1268.5Z" fill="white"/>
<path d="M1276.4 300.501L1323.8 196.301H1325.4L1372.6 300.501H1349.3L1342.6 284.701H1305.7L1298.9 300.501H1276.4ZM1312.2 267.801H1336.3L1324.3 239.301L1312.3 267.801H1312.2Z" fill="white"/>
<path d="M541.003 67.6016C534.503 65.9016 527.003 65.1016 518.903 65.1016H483.703V173.802H508.803V139.402H516.903C525.903 139.402 533.703 138.502 540.003 136.702C546.403 134.902 552.003 131.402 556.603 126.302C561.703 120.702 564.303 112.402 564.303 101.502C564.303 83.0016 556.403 71.6016 540.903 67.5016M508.803 85.6016H515.903C519.803 85.7016 522.903 86.0016 525.303 86.3016C527.603 86.7016 529.903 87.4016 532.203 88.4016C534.403 89.4016 535.903 90.9016 537.003 93.1016C538.103 95.3016 538.703 98.3016 538.803 101.702C538.803 108.102 537.003 112.402 533.203 114.902C529.303 117.402 523.503 118.702 515.903 118.702H508.703V85.5016L508.803 85.6016Z" fill="#17B1E7"/>
<path d="M649.698 101.102C649.698 87.2016 645.599 77.5016 637.499 72.5016C629.599 67.6016 618.998 65.1016 606.198 65.1016H570.898V173.802H595.999V137.502H604.598L627.598 173.802H657.798L630.698 133.902C643.398 129.302 649.898 118.302 649.898 101.102M595.798 85.7016H602.499C610.199 85.7016 615.799 86.6016 618.999 88.5016C621.999 90.2016 623.699 94.5016 623.999 101.202C623.999 107.502 622.198 111.702 618.798 113.702C615.098 115.802 608.999 116.902 600.499 116.902H595.798V85.7016Z" fill="#17B1E7"/>
<path d="M752.002 79C741.802 68.7 728.202 63.5 711.702 63.5C695.202 63.5 680.902 68.7 670.602 79C660.302 89.3 655.102 102.9 655.102 119.5C655.102 136.1 660.202 149.5 670.402 159.9C680.502 170.3 694.102 175.5 710.802 175.5C727.502 175.5 741.402 170.1 751.802 159.6C762.202 149 767.502 135.4 767.502 119.2C767.502 103 762.302 89.4 752.102 79.1M733.102 143.3C727.402 149.3 720.002 152.4 711.302 152.4C702.602 152.4 695.002 149.4 689.202 143.3C683.402 137.3 680.502 129.1 680.502 119.1C680.502 109.1 683.402 101.4 689.202 95.4C694.902 89.4 702.302 86.3 711.102 86.3C719.902 86.3 727.002 89.4 732.902 95.4C738.802 101.4 741.702 109.5 741.702 119.4C741.702 129.3 738.802 137.2 733.002 143.2" fill="#17B1E7"/>
</svg>
