<svg width="1657" height="446" viewBox="0 0 1657 446" fill="none" xmlns="http://www.w3.org/2000/svg">
<g clip-path="url(#clip0_973_58)">
<path d="M140.09 92.83C120.2 117.11 105.9 146.46 98.58 176.94C96.2267 186.753 95.0567 196.423 95.07 205.95C95.07 206.143 94.9733 206.243 94.78 206.25L92.76 206.27C92.698 206.27 92.6385 206.246 92.5937 206.203C92.549 206.16 92.5226 206.102 92.52 206.04C92.24 198.38 92.2733 191.93 92.62 186.69C94.3467 160.95 100.65 136.51 111.53 113.37C133.12 67.46 170.24 27.58 217.27 7.77C224.777 4.61 232.463 2.16333 240.33 0.429998C240.803 0.329998 241.277 0.339998 241.75 0.459998C248.81 2.26 255.647 4.38333 262.26 6.83C273.353 10.93 284.277 16.8933 295.03 24.72C295.457 25.0333 295.407 25.1867 294.88 25.18C281.173 24.96 269.09 25.53 258.63 26.89C210.49 33.1367 170.977 55.1167 140.09 92.83Z" fill="white"/>
<path d="M172.87 363.3C172.877 389.64 172.88 416.777 172.88 444.71C172.879 444.832 172.846 444.952 172.784 445.058C172.722 445.163 172.634 445.251 172.527 445.311C172.421 445.372 172.301 445.404 172.178 445.404C172.056 445.403 171.936 445.371 171.83 445.31C169.797 444.137 167.69 442.813 165.51 441.34C126.857 415.24 93.3701 384.83 65.0501 350.11C28.7501 305.6 2.85005 251.62 0.390051 193.84C-1.03662 160.28 6.15338 129.293 21.9601 100.88C35.1801 77.1099 54.3401 56.1099 77.3201 40.9199C109.793 19.4666 145.89 9.95988 185.61 12.3999C187.457 12.5132 187.54 12.9532 185.86 13.7199C171.18 20.4332 157.29 29.1332 144.19 39.8199C115.897 62.9066 96.2167 91.8532 85.1501 126.66C81.3167 138.727 78.7501 150.933 77.4501 163.28C73.6701 199.14 78.8134 233.773 92.8801 267.18C108.94 305.3 136.45 337.64 172.24 358.04C172.54 358.213 172.7 358.47 172.72 358.81C172.82 360.297 172.87 361.793 172.87 363.3Z" fill="white"/>
<path d="M178.14 353.01C150.45 330.14 130.1 299.25 120.75 264.48C120.65 264.113 120.79 263.927 121.17 263.92C139.463 263.813 158.837 263.823 179.29 263.95C186.93 263.997 193.147 263.633 197.94 262.86C238.44 256.28 267.27 220.09 264.39 179.24C263.03 160.047 255.377 143.297 241.43 128.99C230.323 117.597 216.373 110.253 199.58 106.96C195.093 106.073 188.483 105.643 179.75 105.67C173.07 105.69 165.923 105.717 158.31 105.75C157.663 105.757 157.557 105.517 157.99 105.03C191.29 67.63 237.73 46.61 287.83 46.49C288.657 46.49 289.4 46.7333 290.06 47.22C300.907 55.22 310.467 64.41 318.74 74.79C347.45 110.84 362.08 156.52 357.3 202.51C352.2 251.47 326.59 295.69 286.72 324.69C257.74 345.77 224.493 356.757 186.98 357.65C183.59 357.73 180.96 355.34 178.14 353.01Z" fill="white"/>
<path d="M710.9 202.05C685.67 196.8 666.5 179.28 657.96 155.32C652.96 141.293 651.89 125.613 654.75 108.28C659.45 79.8899 679.99 57.8899 707.51 50.4099C722.52 46.3399 740.81 46.2599 755.6 50.0599C784.45 57.4699 804.65 80.6499 809.22 109.9C812.85 133.12 808.54 157.27 793.89 175.63C782.8 189.53 768.03 198.62 750.72 202.14C737.453 204.84 724.18 204.81 710.9 202.05ZM711.21 166.72C725.33 174.25 744.74 173.53 757.64 163.33C772.86 151.29 777.21 131.69 773.29 113.43C768.23 89.8599 747.06 75.8899 722.99 80.2999C704.33 83.7099 691.9 99.07 689.51 117.73C687.08 136.68 693.36 157.2 711.21 166.72Z" fill="white"/>
<path d="M448.88 199.52C448.84 200.86 448.097 201.453 446.65 201.3C445.517 201.173 444.91 201.11 444.83 201.11C434.477 200.943 424.117 201.093 413.75 201.56L413.78 50.0999C413.78 49.7666 413.947 49.5999 414.28 49.5999C431.68 49.5199 448.9 49.5433 465.94 49.6699C477.29 49.7499 490.4 51.1799 500.76 55.3999C515.23 61.2799 523.61 73.5099 525.76 88.8499C527.84 103.69 526.88 122.75 516.57 134.56C509.437 142.733 500.703 148.05 490.37 150.51C477.01 153.68 463.67 153.84 449.52 153.44C449.446 153.437 449.372 153.45 449.303 153.477C449.234 153.504 449.171 153.544 449.118 153.597C449.065 153.649 449.023 153.712 448.994 153.781C448.965 153.85 448.95 153.925 448.95 154L448.88 199.52ZM448.89 78.7299L448.97 124.21C448.97 124.266 448.992 124.319 449.031 124.358C449.071 124.398 449.124 124.42 449.18 124.42L467.36 124.38C470.44 124.375 473.489 123.857 476.332 122.854C479.176 121.852 481.759 120.386 483.934 118.539C486.109 116.692 487.833 114.5 489.007 112.09C490.182 109.679 490.784 107.097 490.78 104.49L490.76 98.2899C490.751 93.0259 488.272 87.9816 483.869 84.2666C479.466 80.5516 473.499 78.4701 467.28 78.4799L449.1 78.5199C449.044 78.5199 448.991 78.542 448.952 78.5814C448.912 78.6208 448.89 78.6742 448.89 78.7299Z" fill="white"/>
<path d="M653.06 201.69C651.207 201.317 649.687 201.127 648.5 201.12C639.573 201.087 628.28 201.243 614.62 201.59L583.12 151.75C582.82 151.27 582.387 151.03 581.82 151.03L571.25 151.04C571.064 151.04 570.886 151.113 570.755 151.242C570.624 151.372 570.55 151.547 570.55 151.73L570.44 199.02C570.527 200.553 570.13 201.307 569.25 201.28C558.377 201 547.493 201.02 536.6 201.34C536.253 201.353 536.007 201.2 535.86 200.88C535.613 200.333 535.553 199.63 535.68 198.77L535.56 50.1601C535.56 49.7734 535.75 49.5801 536.13 49.5801C549.857 49.5601 566.117 49.5668 584.91 49.6001C598.48 49.6201 611.35 51.4601 623.47 57.0201C635.97 62.7601 642.31 72.4701 644.73 85.9601C646.457 95.5868 646.397 105.207 644.55 114.82C641.55 130.42 633.19 140.76 619.47 145.84C619.31 145.9 619.28 146 619.38 146.14L656.65 201.09C656.857 201.397 656.773 201.557 656.4 201.57L653.06 201.69ZM570.44 78.9401V121.52C570.44 121.594 570.47 121.666 570.522 121.718C570.575 121.771 570.646 121.8 570.72 121.8H589.21C594.666 121.8 599.898 119.942 603.755 116.633C607.613 113.325 609.78 108.839 609.78 104.16V96.3001C609.78 91.6217 607.613 87.1349 603.755 83.8267C599.898 80.5186 594.666 78.6601 589.21 78.6601H570.72C570.646 78.6601 570.575 78.6896 570.522 78.7421C570.47 78.7946 570.44 78.8658 570.44 78.9401Z" fill="white"/>
<path d="M825.75 312.95C825.603 312.203 825.353 312.14 825 312.76L786.47 380.71C786.326 380.962 786.119 381.171 785.868 381.317C785.618 381.463 785.333 381.541 785.043 381.542C784.753 381.543 784.468 381.467 784.216 381.323C783.965 381.179 783.756 380.971 783.61 380.72C771.543 359.773 759.613 338.93 747.82 318.19C746.793 316.39 745.83 314.51 744.93 312.55C744.895 312.474 744.84 312.408 744.771 312.361C744.702 312.313 744.621 312.285 744.538 312.278C744.454 312.272 744.37 312.289 744.295 312.326C744.22 312.363 744.156 312.42 744.11 312.49C743.803 312.957 743.597 313.493 743.49 314.1C740.91 329.373 737.07 350.85 731.97 378.53C731.897 378.93 731.66 379.13 731.26 379.13H701.67C701.61 379.13 701.55 379.116 701.495 379.09C701.441 379.064 701.393 379.026 701.355 378.979C701.316 378.932 701.289 378.878 701.274 378.819C701.26 378.76 701.258 378.699 701.27 378.64L729.7 236.01C730.48 232.097 731.853 231.877 733.82 235.35L784.31 324.61C784.359 324.7 784.431 324.775 784.519 324.827C784.607 324.879 784.708 324.906 784.81 324.906C784.912 324.906 785.013 324.879 785.101 324.827C785.189 324.775 785.261 324.7 785.31 324.61C802.123 294.81 818.973 265.063 835.86 235.37C836.58 234.103 837.447 233.35 838.46 233.11C838.987 232.99 839.303 233.193 839.41 233.72L868.31 378.46C868.403 378.907 868.223 379.13 867.77 379.13H839C838.826 379.13 838.657 379.069 838.522 378.955C838.387 378.842 838.295 378.685 838.26 378.51L825.75 312.95Z" fill="white"/>
<path d="M1202.78 233.23C1205.92 233.517 1209.05 233.79 1212.17 234.05C1221.64 234.857 1230.51 237.69 1238.76 242.55C1239.11 242.757 1239.29 243.063 1239.29 243.47V272.48C1239.29 272.519 1239.28 272.558 1239.26 272.592C1239.24 272.626 1239.21 272.653 1239.18 272.672C1239.15 272.691 1239.11 272.7 1239.07 272.698C1239.03 272.695 1238.99 272.682 1238.96 272.66C1226.05 264.08 1211.94 260.223 1196.63 261.09C1173.57 262.38 1156.74 279.52 1155.12 302.51C1154.45 312.11 1155.79 322.76 1160.5 330.99C1169.35 346.48 1184.51 353.47 1202 353.32C1216.16 353.2 1229.15 349.333 1240.96 341.72C1241 341.695 1241.05 341.68 1241.1 341.679C1241.15 341.677 1241.19 341.688 1241.24 341.711C1241.28 341.733 1241.31 341.766 1241.34 341.807C1241.36 341.847 1241.37 341.893 1241.37 341.94L1241.39 371.27C1241.39 371.426 1241.35 371.579 1241.28 371.716C1241.2 371.852 1241.09 371.967 1240.96 372.05C1238.71 373.51 1236.46 374.62 1234.23 375.38C1213.49 382.46 1193.13 383.237 1173.15 377.71C1150.13 371.34 1132.12 352.01 1126.33 329.15C1120.36 305.64 1123.83 279.07 1139.36 259.73C1150.75 245.55 1165.8 237.037 1184.51 234.19C1188.43 233.6 1192.44 233.65 1196.41 233.24C1198.45 233.033 1200.57 233.03 1202.78 233.23Z" fill="white"/>
<path d="M1313.03 233.68C1313.13 233.488 1313.28 233.327 1313.46 233.214C1313.64 233.101 1313.85 233.04 1314.07 233.038C1314.28 233.036 1314.5 233.093 1314.68 233.202C1314.87 233.312 1315.02 233.47 1315.12 233.66C1316.51 236.293 1317.93 239.2 1319.36 242.38C1339.94 288.053 1360.42 333.333 1380.79 378.22C1380.84 378.317 1380.85 378.424 1380.85 378.531C1380.84 378.638 1380.8 378.742 1380.75 378.832C1380.69 378.923 1380.61 378.997 1380.51 379.049C1380.42 379.101 1380.31 379.129 1380.2 379.13L1349.14 379.12C1348.71 379.12 1348.42 378.923 1348.26 378.53L1339.47 357.5C1339.33 357.167 1339.08 357 1338.72 357H1288.45C1288.2 357 1287.95 357.074 1287.74 357.213C1287.53 357.351 1287.36 357.548 1287.26 357.78L1278.31 378.56C1278.15 378.94 1277.86 379.13 1277.45 379.13H1247.2C1247.13 379.129 1247.06 379.111 1247 379.077C1246.94 379.043 1246.88 378.994 1246.84 378.934C1246.81 378.875 1246.78 378.807 1246.78 378.737C1246.77 378.666 1246.78 378.595 1246.81 378.53C1268.33 331.17 1289.87 283.713 1311.44 236.16C1311.86 235.25 1312.57 234.56 1313.03 233.68ZM1297.08 332.34C1297.05 332.411 1297.04 332.488 1297.05 332.565C1297.05 332.642 1297.08 332.715 1297.12 332.779C1297.16 332.844 1297.22 332.896 1297.29 332.933C1297.36 332.97 1297.43 332.989 1297.51 332.99H1329.53C1329.61 332.989 1329.68 332.97 1329.75 332.933C1329.82 332.896 1329.88 332.844 1329.92 332.779C1329.96 332.715 1329.99 332.642 1329.99 332.565C1330 332.488 1329.99 332.411 1329.96 332.34L1313.95 294.44C1313.91 294.357 1313.85 294.286 1313.78 294.236C1313.7 294.186 1313.61 294.16 1313.52 294.16C1313.43 294.16 1313.34 294.186 1313.26 294.236C1313.19 294.286 1313.13 294.357 1313.09 294.44L1297.08 332.34Z" fill="white"/>
<path d="M1419.48 297.23C1419.29 297.403 1419.2 297.66 1419.19 298C1418.98 324.94 1419.06 351.967 1419.41 379.08L1390.33 379.09C1390.1 379.09 1389.98 378.973 1389.98 378.74V234.05C1389.98 233.802 1390.05 233.559 1390.19 233.351C1390.32 233.143 1390.52 232.979 1390.74 232.88C1390.97 232.781 1391.22 232.751 1391.47 232.794C1391.71 232.837 1391.94 232.95 1392.12 233.12L1482.5 316.5C1483.23 317.173 1483.59 317.013 1483.59 316.02L1483.7 236.97C1483.7 236.684 1483.82 236.411 1484.02 236.209C1484.22 236.007 1484.49 235.893 1484.78 235.89L1512.71 235.65C1512.78 235.649 1512.86 235.662 1512.93 235.69C1513 235.717 1513.06 235.758 1513.11 235.81C1513.17 235.863 1513.21 235.925 1513.24 235.993C1513.27 236.062 1513.28 236.136 1513.28 236.21L1513.29 380.29C1513.29 380.528 1513.22 380.76 1513.09 380.96C1512.96 381.16 1512.78 381.318 1512.56 381.415C1512.35 381.513 1512.11 381.545 1511.87 381.509C1511.64 381.472 1511.42 381.368 1511.24 381.21C1509.88 379.99 1508.62 378.847 1507.46 377.78C1490.33 362.033 1473.47 346.47 1456.9 331.09C1451.97 326.517 1447.25 322.153 1442.73 318C1438.67 314.273 1434.72 310.537 1430.87 306.79C1427.52 303.54 1423.75 300.93 1420.6 297.37C1420.51 297.272 1420.41 297.192 1420.29 297.136C1420.17 297.079 1420.05 297.046 1419.92 297.04C1419.69 297.02 1419.54 297.083 1419.48 297.23Z" fill="white"/>
<path d="M1656.03 379.13L1624.53 379.12C1624.2 379.12 1623.98 378.97 1623.85 378.67L1615.28 358.01C1615.16 357.711 1614.94 357.456 1614.67 357.276C1614.4 357.096 1614.09 357 1613.76 357H1564.52C1563.6 357 1562.96 357.423 1562.59 358.27L1553.79 378.72C1553.74 378.842 1553.65 378.946 1553.54 379.019C1553.43 379.092 1553.3 379.131 1553.17 379.13L1522.76 379.12C1522.29 379.12 1522.16 378.907 1522.35 378.48L1587.99 233.98C1588.09 233.77 1588.23 233.585 1588.41 233.442C1588.6 233.3 1588.81 233.203 1589.04 233.16C1590.03 232.96 1590.71 233.28 1591.09 234.12C1614.24 285.213 1636.02 333.333 1656.45 378.48C1656.64 378.913 1656.5 379.13 1656.03 379.13ZM1572.56 332.51C1572.54 332.563 1572.53 332.62 1572.53 332.678C1572.54 332.735 1572.55 332.791 1572.59 332.839C1572.62 332.887 1572.66 332.926 1572.71 332.952C1572.77 332.979 1572.82 332.992 1572.88 332.99H1605.28C1605.34 332.992 1605.39 332.979 1605.45 332.952C1605.5 332.926 1605.54 332.887 1605.57 332.839C1605.61 332.791 1605.62 332.735 1605.63 332.678C1605.63 332.62 1605.62 332.563 1605.6 332.51L1589.39 294.17C1589.36 294.11 1589.32 294.06 1589.26 294.024C1589.21 293.989 1589.15 293.97 1589.08 293.97C1589.01 293.97 1588.95 293.989 1588.9 294.024C1588.84 294.06 1588.8 294.11 1588.77 294.17L1572.56 332.51Z" fill="white"/>
<path d="M598.59 235.98C603.283 234.727 607.86 233.987 612.32 233.76C616.45 233.54 620.66 233.04 624.85 233.42C628.57 233.75 632.28 233.67 635.99 234.24C669.61 239.35 692.73 265.37 695.02 298.97C695.687 308.723 695.183 317.477 693.51 325.23C688.42 348.77 672.48 367.52 650.18 376.24C641.933 379.46 632.39 381.12 621.55 381.22C607.25 381.34 593.77 378.9 581.5 371.87C563.61 361.62 551.5 343.61 548.25 323.55C544.43 300.05 548.07 275.78 563.89 257.31C572.83 246.87 584.397 239.76 598.59 235.98ZM663.01 318.31C667.02 295.72 659.57 273.62 637.65 264.07C634.497 262.697 631.127 261.8 627.54 261.38C614.827 259.88 603.99 262.56 595.03 269.42C579.8 281.08 575.84 300.65 579.28 318.69C582.56 335.84 595.45 349.68 613.01 352.62C627.44 355.05 641.29 351.36 651.52 340.8C657.633 334.493 661.463 326.997 663.01 318.31Z" fill="white"/>
<path d="M937.69 235.24L1026.33 316.81C1026.38 316.853 1026.43 316.882 1026.5 316.893C1026.56 316.904 1026.62 316.896 1026.68 316.87C1026.74 316.844 1026.79 316.802 1026.82 316.749C1026.85 316.695 1026.87 316.633 1026.87 316.57L1026.88 235.62L1055.48 235.74C1055.67 235.74 1055.86 235.817 1056 235.954C1056.13 236.091 1056.21 236.276 1056.21 236.47L1056.42 381.05C1055.49 381.43 1054.33 381.34 1053.63 380.61C1052.22 379.143 1050.54 377.527 1048.61 375.76C1020.46 349.967 992.173 323.833 963.76 297.36C963.696 297.3 963.616 297.261 963.53 297.246C963.444 297.232 963.355 297.244 963.275 297.28C963.194 297.316 963.125 297.375 963.076 297.449C963.028 297.524 963.001 297.611 963 297.7V378.49C963 378.837 962.83 379.01 962.49 379.01L933.96 379.05C933.94 378.99 933.92 378.94 933.9 378.9C933.84 378.78 933.81 378.657 933.81 378.53C933.817 330.37 933.817 282.177 933.81 233.95C933.811 233.839 933.842 233.729 933.899 233.634C933.956 233.538 934.038 233.459 934.135 233.405C934.233 233.351 934.343 233.324 934.455 233.327C934.566 233.329 934.675 233.362 934.77 233.42L937.69 235.24Z" fill="white"/>
<path d="M416.95 235.81L421.81 235.8C433.61 235.74 445.423 235.743 457.25 235.81C465.503 235.857 473.5 236.473 481.24 237.66C490.63 239.1 501.27 241.61 509.28 246.53C520.84 253.623 528.823 263.11 533.23 274.99C536.19 282.97 537.613 292.157 537.5 302.55L537.49 308.22C537.55 316.08 536.55 324.167 534.49 332.48C530.617 348.147 521.663 359.613 507.63 366.88C496.27 372.76 484.22 376.393 471.48 377.78C464.92 378.5 458.14 379.09 451.49 379.1C438.59 379.133 426.213 379.143 414.36 379.13C413.947 379.13 413.74 378.92 413.74 378.5V236.26C413.74 235.927 413.907 235.763 414.24 235.77L416.95 235.81ZM480.65 264.31C469.38 260.94 456.83 260.12 444.72 260.25C444.36 260.25 444.18 260.433 444.18 260.8V353.24C444.18 353.62 444.367 353.817 444.74 353.83C456.26 354.3 468.64 353.19 479.68 349.29C493.687 344.33 502.103 334.547 504.93 319.94C506.583 311.42 506.773 302.647 505.5 293.62C503.33 278.21 495.47 268.73 480.65 264.31Z" fill="white"/>
<path d="M912.01 235.62L911.99 378.77C911.99 378.858 911.955 378.941 911.893 379.003C911.831 379.065 911.747 379.1 911.66 379.1C906.14 379.16 900.593 379.15 895.02 379.07C887.913 378.963 883.423 375.273 881.55 368L881.83 236.81C881.83 236.562 881.928 236.325 882.102 236.149C882.276 235.973 882.512 235.873 882.76 235.87L912.01 235.62Z" fill="white"/>
<path d="M1085.3 377.58C1080.98 375.24 1077.81 370.49 1077.8 365.36C1077.74 322.46 1077.73 279.493 1077.77 236.46C1077.77 236.279 1077.84 236.105 1077.97 235.976C1078.1 235.846 1078.28 235.773 1078.46 235.77L1107.77 235.68C1108.17 235.68 1108.37 235.877 1108.37 236.27L1108.38 378.75C1108.38 378.803 1108.37 378.856 1108.35 378.905C1108.33 378.955 1108.3 378.999 1108.26 379.036C1108.22 379.074 1108.18 379.103 1108.13 379.122C1108.08 379.142 1108.02 379.151 1107.97 379.15C1103.64 379.07 1099.26 379.08 1094.85 379.18C1090.62 379.273 1087.43 378.74 1085.3 377.58Z" fill="white"/>
</g>
<defs>
<clipPath id="clip0_973_58">
<rect width="1657" height="446" fill="white"/>
</clipPath>
</defs>
</svg>
