<svg width="4740" height="1644" viewBox="0 0 4740 1644" fill="none" xmlns="http://www.w3.org/2000/svg">
<path d="M883.128 1605.15H858.939C820.758 1602.75 781.798 1595.98 742.059 1584.81C706.787 1574.91 676.543 1564.66 651.327 1554.06C650.824 1553.86 650.266 1553.82 649.73 1553.95L470.985 1600.08C470.56 1600.19 470.115 1600.18 469.693 1600.07C469.271 1599.95 468.887 1599.73 468.581 1599.42L253.823 1379.27C253.58 1379.02 253.435 1378.69 253.414 1378.34C253.393 1377.99 253.497 1377.64 253.708 1377.36L328.45 1279.63C328.631 1279.4 328.747 1279.12 328.788 1278.82C328.828 1278.53 328.791 1278.23 328.681 1277.95L262.106 1112.42C262.025 1112.21 261.892 1112.03 261.719 1111.88C261.547 1111.74 261.34 1111.64 261.118 1111.59L113.445 1080.58C113.316 1080.56 113.199 1080.48 113.115 1080.38C113.031 1080.27 112.985 1080.14 112.984 1080.01V712.872C112.985 712.651 113.058 712.437 113.192 712.264C113.327 712.091 113.514 711.968 113.725 711.917L252.292 677.265C252.583 677.194 252.852 677.054 253.079 676.856C253.305 676.658 253.481 676.409 253.593 676.129L305.413 549.414C305.501 549.203 305.541 548.975 305.529 548.747C305.518 548.519 305.456 548.297 305.347 548.096L224.348 397.649C224.209 397.387 224.158 397.088 224.203 396.797C224.247 396.506 224.385 396.238 224.595 396.035L451.522 174.901C451.57 174.858 451.631 174.83 451.695 174.821C451.76 174.812 451.825 174.823 451.884 174.851L592.278 255.93C592.363 255.981 592.46 256.009 592.558 256.012C592.656 256.015 592.753 255.992 592.838 255.946L743.178 180.764C743.403 180.654 743.603 180.5 743.767 180.31C743.931 180.121 744.056 179.9 744.133 179.66L790.355 40.9554C790.437 40.7204 790.588 40.5165 790.789 40.372C790.99 40.2274 791.229 40.1493 791.475 40.1484H1099.75C1099.96 40.1487 1100.18 40.2154 1100.35 40.3392C1100.53 40.4631 1100.66 40.6381 1100.73 40.8402L1146.87 167.769C1147.12 168.422 1147.61 168.955 1148.26 169.252L1315.16 244.072C1315.54 244.244 1315.95 244.318 1316.36 244.286C1316.77 244.254 1317.17 244.118 1317.52 243.891L1432.7 169.021C1432.87 168.915 1433.06 168.868 1433.25 168.889C1433.45 168.91 1433.62 168.998 1433.76 169.136L1666.77 407.975C1666.91 408.113 1666.99 408.29 1667.01 408.48C1667.04 408.67 1667 408.862 1666.91 409.029L1591.52 542.447C1591.45 542.577 1591.41 542.725 1591.41 542.875C1591.41 543.026 1591.45 543.173 1591.52 543.304L1690.9 708.639C1690.95 708.731 1690.98 708.835 1690.98 708.942C1690.99 709.049 1690.96 709.154 1690.91 709.247C1690.86 709.341 1690.78 709.419 1690.69 709.474C1690.6 709.529 1690.49 709.559 1690.39 709.562L1520.25 711.209C1519.95 711.213 1519.65 711.125 1519.39 710.954C1519.14 710.784 1518.94 710.54 1518.82 710.253C1455.71 552.691 1333.42 424.115 1176.43 357.925C1102.84 326.896 1025.83 312.431 945.421 314.528C833.459 317.459 730.395 348.301 636.228 407.053C465.946 513.296 359.44 700.339 362.19 902.335C362.948 957.672 371.433 1011.31 387.648 1063.24C390.864 1073.55 393.46 1081.67 395.436 1087.6C436.85 1212.17 518.705 1318.2 616.566 1404.5C679.754 1460.2 749.776 1509.71 826.631 1553.02C857.248 1570.28 888.084 1585.92 919.14 1599.93C919.211 1599.96 919.27 1600.01 919.309 1600.08C919.348 1600.15 919.365 1600.23 919.358 1600.3C919.351 1600.38 919.319 1600.45 919.268 1600.5C919.217 1600.56 919.149 1600.59 919.075 1600.6C907.317 1602.9 895.335 1604.41 883.128 1605.15Z" fill="#1C2E5D"/>
<path d="M930.21 1411.55C930.276 1411.59 930.329 1411.64 930.358 1411.71C930.388 1411.77 930.394 1411.85 930.375 1411.92C930.355 1411.99 930.311 1412.05 930.251 1412.09C930.191 1412.13 930.119 1412.15 930.046 1412.15C809.088 1405.34 694.34 1356.09 605.499 1273.27C493.88 1169.18 432.956 1020.89 440.632 867.502C444.793 784.383 467.127 707.165 507.633 635.851C606.833 461.177 797.444 358.85 998.348 373.543C1200.87 388.352 1376.09 519.374 1447.94 710.092C1447.98 710.206 1447.99 710.329 1447.98 710.45C1447.96 710.571 1447.92 710.687 1447.85 710.787C1447.78 710.887 1447.69 710.969 1447.58 711.026C1447.47 711.083 1447.35 711.113 1447.23 711.113H1322.68C1322.46 711.113 1322.24 711.052 1322.05 710.939C1321.86 710.826 1321.71 710.664 1321.61 710.471C1241.83 553.702 1070.95 464.784 895.392 493.249C725.468 520.807 585.339 652.389 559.563 825.646C553.678 865.213 554.425 907.701 561.803 953.11C574.436 1030.84 606.043 1103.44 650.957 1168.11C669.195 1194.35 688.35 1218.28 708.422 1239.89C773.084 1309.52 847.014 1366.74 930.21 1411.55Z" fill="#A7A7A7"/>
<path d="M3137.53 1092.15C3137.38 1092.15 3137.25 1092.09 3137.14 1091.99C3137.04 1091.89 3136.98 1091.75 3136.98 1091.6V973.689C3136.98 973.435 3137.09 973.192 3137.26 973.013C3137.44 972.834 3137.69 972.733 3137.94 972.733H3150.47C3150.77 972.735 3151.05 972.837 3151.28 973.023C3151.51 973.208 3151.67 973.467 3151.73 973.755C3156.82 998.576 3165.63 1023.94 3181.32 1043.23C3201.49 1068.02 3230.28 1078.84 3261.46 1074.43C3274.44 1072.58 3285.32 1067.8 3293.86 1056.88C3310.93 1035.03 3310.95 1002.36 3287.63 984.955C3281.35 980.266 3273.85 975.66 3265.12 971.136C3257.52 967.194 3240.9 958.689 3215.26 945.622C3198.91 937.277 3184.03 927.438 3170.62 916.106C3150.09 898.745 3140.17 875.818 3140.22 848.641C3140.25 825.559 3147.96 804.202 3163.35 784.568C3176.25 768.108 3193.66 757.984 3215.59 754.196C3240.34 749.913 3266.56 751.84 3290.68 759.549C3299.58 762.404 3306.79 764.666 3312.32 766.335C3320.84 768.921 3328.56 768.772 3332.17 760.043C3333.7 756.353 3334.49 754.003 3334.56 752.993C3334.64 752.488 3334.9 752.028 3335.3 751.696C3335.69 751.364 3336.19 751.182 3336.7 751.181L3347.9 751.148C3348.38 751.148 3348.84 751.338 3349.18 751.674C3349.52 752.011 3349.71 752.468 3349.71 752.944V855.229C3349.71 855.487 3349.61 855.734 3349.43 855.916C3349.25 856.098 3349 856.201 3348.74 856.201H3336.79C3336.55 856.2 3336.32 856.12 3336.14 855.974C3335.95 855.827 3335.82 855.623 3335.76 855.394C3323.94 809.159 3287.25 758.544 3232.38 768.624C3201.79 774.257 3186.83 802.769 3197.06 832.038C3200.5 841.937 3207.67 848.015 3217.06 854.175C3225.39 859.654 3235.62 865.578 3247.74 871.947C3257 876.801 3274.99 885.882 3301.71 899.19C3325.84 911.198 3347.72 929.876 3357.6 955.571C3363.81 971.712 3365.49 988.661 3362.64 1006.42C3359.56 1025.64 3349.96 1042.97 3337.28 1057.97C3315.98 1083.14 3285.21 1090.32 3253.78 1091.93C3235.44 1092.88 3217.05 1090.66 3198.59 1085.26C3189.6 1082.64 3178.39 1076.9 3168.48 1075.56C3156.99 1074.03 3154.69 1081.51 3151.58 1091.23C3151.49 1091.49 3151.32 1091.73 3151.09 1091.89C3150.86 1092.06 3150.59 1092.15 3150.31 1092.15H3137.53Z" fill="#1C2E5D"/>
<path d="M1812.98 924.223C1812.95 963.215 1802.65 1000.87 1778.2 1031.76C1740.58 1079.3 1686.07 1099.46 1624.98 1094.39C1584.8 1091.06 1551.06 1076.39 1523.76 1050.39C1487.88 1016.2 1471.97 972.98 1471.98 924.059C1472.02 875.154 1487.98 831.946 1523.89 797.795C1551.22 771.812 1584.97 757.179 1625.14 753.896C1686.23 748.874 1740.72 769.078 1778.3 816.649C1802.73 847.573 1813 885.248 1812.98 924.223ZM1557.26 924.75C1557.47 979.402 1565.9 1078.87 1642.78 1078.58C1719.66 1078.3 1727.33 978.76 1727.12 924.108C1726.92 869.457 1718.5 769.984 1641.61 770.264C1564.73 770.56 1557.06 870.099 1557.26 924.75Z" fill="#B11F24"/>
<path d="M4348.37 1072.66C4348.61 1072.67 4348.85 1072.77 4349.02 1072.95C4349.19 1073.12 4349.29 1073.36 4349.29 1073.6V1084.33C4349.29 1084.54 4349.21 1084.75 4349.05 1084.91C4348.9 1085.06 4348.7 1085.15 4348.48 1085.15H4251.41C4251.3 1085.15 4251.19 1085.1 4251.11 1085.02C4251.03 1084.94 4250.98 1084.83 4250.98 1084.72V1073.14C4250.98 1073 4251.04 1072.87 4251.13 1072.76C4251.23 1072.66 4251.35 1072.6 4251.49 1072.58C4267.39 1071.46 4277.69 1061.48 4284.58 1047.57C4288.97 1038.7 4292.65 1030.6 4295.62 1023.27C4342.2 908.659 4378.56 819.131 4404.69 754.691C4404.75 754.531 4404.86 754.394 4405 754.297C4405.15 754.201 4405.32 754.149 4405.49 754.148H4417.83C4418.11 754.148 4418.38 754.23 4418.61 754.385C4418.84 754.541 4419.02 754.761 4419.13 755.02C4485.23 910.852 4523.28 1000.3 4533.3 1023.36C4538.33 1034.96 4543.09 1044.72 4547.56 1052.63C4554.6 1065.12 4562.27 1072.99 4577.61 1072.78C4577.65 1072.78 4577.7 1072.79 4577.75 1072.8C4577.8 1072.82 4577.84 1072.85 4577.87 1072.88C4577.91 1072.91 4577.94 1072.95 4577.96 1073C4577.97 1073.04 4577.98 1073.09 4577.98 1073.14V1084.77C4577.98 1084.87 4577.94 1084.97 4577.87 1085.04C4577.8 1085.11 4577.71 1085.15 4577.61 1085.15H4422.52C4422.41 1085.15 4422.3 1085.1 4422.22 1085.02C4422.14 1084.94 4422.09 1084.83 4422.09 1084.72V1073.13C4422.09 1073 4422.15 1072.87 4422.24 1072.78C4422.33 1072.69 4422.46 1072.64 4422.59 1072.63C4427.86 1072.51 4434.67 1071.98 4443.02 1071.04C4447.96 1070.48 4451.96 1069.3 4455.03 1067.5C4460.86 1064.1 4461.04 1053.5 4459.74 1047.48C4458.37 1041.16 4455.94 1033.72 4452.45 1025.18C4450.28 1019.86 4445.6 1008.7 4438.41 991.695C4438.33 991.486 4438.18 991.307 4437.99 991.181C4437.81 991.055 4437.59 990.988 4437.36 990.988H4331.88C4331.62 990.988 4331.36 991.068 4331.14 991.218C4330.92 991.368 4330.76 991.581 4330.67 991.827C4323.36 1011.02 4317.78 1026.63 4313.93 1038.67C4312.9 1041.86 4311.95 1046.51 4311.09 1052.63C4309.57 1063.37 4319.51 1069.16 4328.64 1070.86C4334.61 1071.96 4341.18 1072.57 4348.37 1072.66ZM4430.2 971.663C4430.29 971.664 4430.37 971.645 4430.44 971.606C4430.52 971.568 4430.58 971.512 4430.62 971.443C4430.67 971.374 4430.7 971.295 4430.71 971.213C4430.71 971.13 4430.7 971.048 4430.67 970.972L4385.11 861.384C4385.07 861.295 4385 861.219 4384.92 861.166C4384.84 861.114 4384.74 861.087 4384.65 861.088H4381.72C4381.62 861.088 4381.52 861.118 4381.44 861.173C4381.36 861.229 4381.29 861.308 4381.26 861.401L4338.5 970.988C4338.47 971.063 4338.46 971.144 4338.47 971.224C4338.47 971.304 4338.5 971.381 4338.55 971.448C4338.59 971.514 4338.65 971.569 4338.73 971.606C4338.8 971.644 4338.88 971.663 4338.96 971.663H4430.2Z" fill="#1C2E5D"/>
<path d="M983.532 1085.15H824.395C824.346 1085.15 824.296 1085.14 824.251 1085.12C824.205 1085.1 824.163 1085.07 824.128 1085.04C824.093 1085 824.065 1084.96 824.046 1084.91C824.027 1084.87 824.017 1084.82 824.017 1084.77V1073.02C824.017 1072.9 824.061 1072.79 824.141 1072.7C824.221 1072.62 824.33 1072.57 824.445 1072.56C830.866 1072.33 837.65 1071.14 844.795 1068.99C856.4 1065.49 860.477 1057.73 862.449 1046.35C863.359 1041.05 863.825 1034.36 863.847 1026.26C863.901 1007.01 863.901 936.988 863.847 816.199C863.847 808.631 863.069 801.184 861.512 793.858C859.781 785.697 854.921 780.271 846.932 777.58C839.316 775.032 831.814 773.461 824.428 772.868C824.308 772.86 824.195 772.808 824.113 772.722C824.03 772.636 823.984 772.524 823.984 772.407V760.577C823.984 760.468 824.028 760.363 824.105 760.286C824.182 760.209 824.286 760.165 824.395 760.165C884.12 760.198 934.026 760.193 974.113 760.149C1000.83 760.116 1023.38 761.829 1046.52 768.683C1074.3 776.905 1094.13 792.952 1101.13 822.938C1105.82 842.983 1104.73 862.15 1097.86 880.438C1082.87 920.391 1036.23 936.933 997.291 938.383C973.499 939.262 957.111 939.646 948.125 939.536C947.675 939.525 945.905 939.635 942.815 939.866C942.578 939.882 942.356 939.989 942.195 940.163C942.033 940.337 941.943 940.567 941.944 940.805C941.977 973.954 941.977 1004.04 941.944 1031.08C941.927 1043.35 943.259 1062.07 956.919 1067.57C965.127 1070.86 973.993 1072.52 983.516 1072.53C983.607 1072.53 983.695 1072.56 983.76 1072.63C983.825 1072.69 983.861 1072.78 983.861 1072.87V1084.82C983.861 1084.91 983.826 1084.99 983.765 1085.05C983.703 1085.11 983.619 1085.15 983.532 1085.15ZM942.486 922.484C953.752 922.363 964.546 921.55 974.869 920.046C982.464 918.936 988.88 917.245 994.118 914.971C1015.06 905.926 1020.02 879.103 1021.06 858.904C1021.85 843.296 1020.65 829.094 1017.48 816.298C1013.37 799.789 1006.15 785.884 989.318 780.266C980.135 777.201 969.428 776.416 957.198 777.91C946.777 779.178 941.944 783.413 941.944 794.221C941.966 827.842 941.971 870.421 941.96 921.957C941.96 922.097 942.016 922.231 942.114 922.329C942.213 922.428 942.347 922.484 942.486 922.484Z" fill="#B11F24"/>
<path d="M1238.21 936.214C1238.16 936.161 1238.1 936.122 1238.03 936.104C1237.96 936.086 1237.89 936.088 1237.83 936.112C1237.76 936.135 1237.7 936.178 1237.66 936.234C1237.62 936.291 1237.6 936.358 1237.6 936.428C1237.56 980.862 1237.59 1013.99 1237.66 1035.81C1237.67 1038.47 1238.37 1043.31 1239.75 1050.32C1243.41 1068.87 1262.5 1072.41 1278.5 1072.46C1278.84 1072.47 1279.17 1072.61 1279.42 1072.86C1279.66 1073.1 1279.8 1073.44 1279.8 1073.78V1084.09C1279.8 1084.37 1279.69 1084.64 1279.49 1084.84C1279.29 1085.04 1279.02 1085.15 1278.74 1085.15H1118.05C1117.77 1085.15 1117.51 1085.04 1117.31 1084.84C1117.11 1084.65 1117 1084.39 1117 1084.11V1073.81C1117 1073.47 1117.14 1073.13 1117.38 1072.88C1117.63 1072.63 1117.97 1072.49 1118.32 1072.48C1127.44 1072.32 1135.81 1070.76 1143.43 1067.82C1156.62 1062.74 1159.25 1046.7 1159.28 1034.05C1159.51 909.149 1159.48 835.096 1159.19 811.891C1159.08 802.995 1157.62 795.236 1154.81 788.614C1151.15 780.015 1144.65 777.248 1135.27 775.271C1128.9 773.931 1122.94 773.129 1117.4 772.866C1117.28 772.857 1117.18 772.807 1117.1 772.724C1117.03 772.642 1116.98 772.533 1116.98 772.421V760.511C1116.98 760.428 1117.02 760.348 1117.08 760.29C1117.13 760.231 1117.21 760.198 1117.3 760.198C1217.77 760.132 1271.99 760.132 1279.95 760.198C1317.92 760.544 1367.05 766.425 1392.72 798.3C1408.52 817.92 1411.09 846.139 1403.72 869.596C1393.76 901.274 1360.4 920.96 1329.8 927.104C1329.69 927.125 1329.59 927.174 1329.51 927.246C1329.42 927.318 1329.36 927.411 1329.32 927.516C1329.28 927.621 1329.26 927.735 1329.28 927.847C1329.3 927.96 1329.34 928.067 1329.41 928.159C1359.7 968.782 1393.27 1013.78 1430.1 1063.14C1434.89 1069.55 1440.22 1073.17 1448.44 1073.11C1448.85 1073.11 1449.24 1073.27 1449.53 1073.56C1449.82 1073.85 1449.98 1074.24 1449.98 1074.66V1083.75C1449.98 1084.12 1449.84 1084.47 1449.58 1084.73C1449.32 1084.99 1448.97 1085.13 1448.6 1085.13H1350.34C1350.01 1085.13 1349.69 1085.05 1349.4 1084.91C1349.11 1084.76 1348.86 1084.54 1348.66 1084.28L1238.21 936.214ZM1238.04 919.098C1258.22 919.197 1282 917.105 1300.39 908.292C1313.19 902.147 1319.58 889.842 1322.18 876.565C1325.2 861.245 1325.7 845.222 1323.69 828.496C1320.76 804.033 1309.56 783.722 1283.99 778.335C1272.81 775.985 1261.73 776.007 1250.73 778.401C1238.81 780.987 1237.53 789.965 1237.55 801.397C1237.6 827.568 1237.6 866.642 1237.55 918.621C1237.55 918.747 1237.6 918.869 1237.69 918.959C1237.78 919.048 1237.91 919.098 1238.04 919.098Z" fill="#B11F24"/>
<path d="M1987.04 922.657C1987.04 998.69 1987.04 1038.15 1987.04 1041.04C1987.04 1055.46 1993.43 1066.46 2008.15 1069.91C2015.96 1071.73 2023.74 1072.61 2031.51 1072.54C2031.63 1072.54 2031.75 1072.59 2031.83 1072.68C2031.92 1072.77 2031.97 1072.88 2031.97 1073.01V1084.77C2031.97 1084.82 2031.96 1084.87 2031.94 1084.91C2031.92 1084.96 2031.9 1085 2031.86 1085.04C2031.83 1085.07 2031.79 1085.1 2031.74 1085.12C2031.7 1085.14 2031.65 1085.15 2031.61 1085.15H1865C1864.87 1085.15 1864.74 1085.12 1864.61 1085.07C1864.49 1085.02 1864.38 1084.94 1864.28 1084.85C1864.19 1084.75 1864.11 1084.64 1864.06 1084.52C1864.01 1084.39 1863.98 1084.26 1863.98 1084.13V1073.57C1863.98 1073.28 1864.1 1073 1864.3 1072.8C1864.51 1072.59 1864.78 1072.48 1865.07 1072.48C1880.2 1072.26 1898.32 1070.71 1905.22 1054.78C1906.84 1051.01 1907.67 1042.45 1907.72 1029.1C1907.74 1019.97 1907.75 984.488 1907.75 922.657C1907.75 860.815 1907.74 825.335 1907.72 816.218C1907.68 802.85 1906.86 794.282 1905.24 790.515C1898.34 774.582 1880.22 773.033 1865.09 772.819C1864.8 772.819 1864.52 772.704 1864.32 772.5C1864.12 772.296 1864 772.02 1864 771.731V761.17C1864 761.036 1864.03 760.903 1864.08 760.779C1864.13 760.655 1864.2 760.543 1864.3 760.448C1864.39 760.353 1864.51 760.278 1864.63 760.226C1864.75 760.175 1864.89 760.148 1865.02 760.148L2031.62 760.165C2031.72 760.165 2031.81 760.205 2031.88 760.276C2031.95 760.347 2031.98 760.443 2031.98 760.544V772.308C2031.98 772.43 2031.94 772.548 2031.85 772.634C2031.76 772.721 2031.65 772.769 2031.52 772.769C2023.76 772.704 2015.97 773.582 2008.16 775.406C1993.44 778.849 1987.05 789.856 1987.05 804.256C1987.05 807.156 1987.05 846.623 1987.04 922.657Z" fill="#2A9A47"/>
<path d="M2416.51 760.148C2416.63 760.148 2416.75 760.199 2416.84 760.288C2416.93 760.378 2416.98 760.499 2416.98 760.626V772.255C2416.99 772.382 2416.94 772.505 2416.86 772.602C2416.78 772.698 2416.66 772.763 2416.54 772.782C2409.54 773.771 2402.25 775.594 2394.66 778.251C2386.7 781.029 2381.97 786.597 2380.47 794.953C2379.55 800.126 2379.09 804.035 2379.09 806.681C2378.93 966.931 2378.94 1062.32 2379.12 1092.85C2379.12 1093.19 2378.98 1093.52 2378.74 1093.77C2378.49 1094.01 2378.16 1094.15 2377.82 1094.15H2366.2C2365.93 1094.15 2365.66 1094.09 2365.41 1093.97C2365.16 1093.85 2364.94 1093.68 2364.77 1093.47C2225.04 923.923 2154.91 838.84 2154.4 838.225C2153.93 837.676 2153.29 837.259 2152.47 836.973C2152.24 836.894 2152 836.87 2151.77 836.903C2151.53 836.935 2151.31 837.024 2151.11 837.161C2150.92 837.298 2150.76 837.48 2150.65 837.691C2150.54 837.902 2150.49 838.136 2150.49 838.373C2150.52 941.355 2150.54 1002.58 2150.54 1022.05C2150.54 1028.93 2151.02 1035.85 2151.99 1042.82C2155.11 1065.34 2175.2 1072.13 2195.02 1072.39C2195.37 1072.39 2195.7 1072.53 2195.95 1072.78C2196.2 1073.03 2196.34 1073.36 2196.34 1073.71V1083.97C2196.34 1084.26 2196.22 1084.53 2196.02 1084.74C2195.81 1084.94 2195.54 1085.06 2195.25 1085.06H2087.81C2087.59 1085.06 2087.38 1084.97 2087.23 1084.81C2087.07 1084.66 2086.98 1084.45 2086.98 1084.23V1073.43C2086.98 1073.17 2087.09 1072.92 2087.27 1072.74C2087.45 1072.56 2087.7 1072.45 2087.96 1072.45C2095.74 1072.36 2102.99 1071.34 2109.69 1069.41C2125.41 1064.86 2129.09 1049.69 2129.09 1035.29C2129.07 967.222 2129.06 891.495 2129.07 808.114C2129.07 807.183 2128.71 806.287 2128.07 805.611L2102.38 778.515C2101.94 778.055 2101.44 777.656 2100.89 777.329C2096.72 774.77 2092.79 773.326 2089.08 772.996C2088.74 772.971 2088.42 772.816 2088.19 772.563C2087.95 772.309 2087.82 771.975 2087.83 771.629V761.565C2087.83 761.194 2087.97 760.838 2088.24 760.575C2088.5 760.312 2088.86 760.165 2089.23 760.165H2189.26C2189.57 760.164 2189.87 760.232 2190.15 760.363C2190.43 760.494 2190.68 760.685 2190.87 760.923C2225.66 803.167 2280.23 869.384 2354.59 959.573C2355.04 960.111 2355.64 960.529 2356.4 960.825C2356.53 960.873 2356.67 960.89 2356.8 960.873C2356.94 960.856 2357.07 960.807 2357.18 960.729C2357.29 960.651 2357.38 960.547 2357.45 960.426C2357.51 960.305 2357.54 960.171 2357.54 960.034C2357.62 910.114 2357.62 862.565 2357.56 817.388C2357.56 812.403 2356.85 806.517 2355.43 799.73C2352.79 787.135 2345.08 779.195 2332.3 775.912C2324.87 774.012 2318.58 772.986 2313.42 772.832C2313.31 772.832 2313.21 772.788 2313.13 772.711C2313.06 772.634 2313.01 772.529 2313.01 772.42V760.56C2313.01 760.451 2313.06 760.346 2313.13 760.269C2313.21 760.192 2313.31 760.148 2313.42 760.148H2416.51Z" fill="#1C2E5D"/>
<path d="M2434.27 1085.11C2434.12 1085.12 2433.96 1085.09 2433.82 1085.03C2433.68 1084.97 2433.55 1084.89 2433.44 1084.78C2433.33 1084.67 2433.24 1084.54 2433.18 1084.4C2433.12 1084.25 2433.09 1084.1 2433.08 1083.94L2432.98 1073.81C2432.98 1073.45 2433.12 1073.11 2433.37 1072.85C2433.62 1072.59 2433.96 1072.44 2434.32 1072.43C2443.82 1072.02 2457.34 1070.37 2464.14 1064.19C2470.24 1058.67 2473.33 1051.48 2473.41 1042.63C2473.45 1037.7 2473.48 961.322 2473.49 813.498C2473.49 801.857 2472.65 794.17 2470.96 790.436C2464.5 776.155 2447.78 773.618 2433.51 772.794C2433.41 772.79 2433.31 772.745 2433.24 772.669C2433.16 772.592 2433.12 772.49 2433.12 772.382L2433 760.571C2433 760.524 2433.01 760.477 2433.03 760.433C2433.05 760.389 2433.07 760.349 2433.11 760.315C2433.14 760.282 2433.18 760.255 2433.22 760.237C2433.27 760.218 2433.32 760.209 2433.36 760.209C2508.55 760.11 2559.98 760.132 2587.64 760.275C2610.31 760.385 2632.26 763.696 2653.49 770.208C2731.93 794.241 2765.7 865.189 2757.89 942.988C2755.08 970.772 2745.82 995.558 2730.11 1017.35C2702.47 1055.68 2663.54 1076.63 2617.29 1083.25C2608.17 1084.56 2595.23 1085.19 2578.49 1085.15C2540.7 1085.07 2492.63 1085.06 2434.27 1085.11ZM2673.74 954.98C2675.46 930.623 2675.12 907.918 2672.74 886.866C2666.57 832.309 2640.4 773.222 2574.68 776.912C2564.19 777.489 2553.97 780.635 2552.37 792.528C2551.84 796.482 2551.57 799.425 2551.56 801.357C2551.3 828.526 2551.26 907.732 2551.44 1038.97C2551.45 1045.94 2552.52 1052.14 2554.63 1057.59C2557.63 1065.4 2564.29 1067.85 2572.31 1068.36C2591.31 1069.57 2608.88 1065.64 2625.01 1056.58C2637.58 1049.52 2647.85 1039.56 2655.84 1026.7C2667.63 1007.73 2672.11 978.157 2673.74 954.98Z" fill="#1C2E5D"/>
<path d="M3110.52 760.148C3110.64 760.148 3110.76 760.199 3110.85 760.288C3110.94 760.378 3110.98 760.5 3110.98 760.627V772.266C3110.98 772.405 3110.93 772.539 3110.85 772.644C3110.76 772.75 3110.64 772.82 3110.51 772.843C3106.01 773.569 3100.6 774.904 3094.27 776.85C3082.94 780.328 3076.49 784.582 3074.36 796.914C3073.48 802.025 3073.04 806.394 3073.04 810.021C3073.07 916.405 3073.01 972.581 3072.86 978.55C3072.1 1006.74 3063.77 1037.75 3044.91 1060.11C3016.8 1093.45 2968.67 1097.62 2928.22 1094.14C2887.91 1090.68 2849.22 1074.65 2831.58 1036.15C2825.17 1022.16 2821.59 1007.06 2820.83 990.832C2820.61 986.183 2820.47 982.105 2820.42 978.599C2820.34 974.258 2820.21 917.669 2820.04 808.834C2820.03 801.096 2818.92 794.199 2816.72 788.143C2812.45 776.355 2791.61 773.585 2781.43 772.876C2781.31 772.872 2781.2 772.821 2781.11 772.735C2781.03 772.649 2780.98 772.534 2780.98 772.415V760.528C2780.98 760.427 2781.02 760.331 2781.1 760.259C2781.17 760.188 2781.26 760.148 2781.36 760.148H2943.58C2943.67 760.148 2943.76 760.183 2943.82 760.245C2943.89 760.307 2943.92 760.391 2943.92 760.478V772.514C2943.92 772.632 2943.87 772.745 2943.79 772.828C2943.7 772.912 2943.58 772.959 2943.46 772.959C2933.86 772.783 2924.35 774.102 2914.95 776.916C2899.18 781.631 2897.33 798.596 2897.33 812.478C2897.28 922.06 2897.3 980.863 2897.4 988.887C2897.52 998.284 2898.7 1008.11 2900.94 1018.35C2910.23 1060.9 2940.67 1075.11 2981.59 1070.32C3037.72 1063.74 3051.56 1018.09 3051.56 968.707C3051.56 931.963 3051.56 882.091 3051.57 819.089C3051.57 804.366 3049.36 785.983 3034.18 779.224C3025.58 775.377 3015.98 773.277 3005.38 772.926C3005.26 772.921 3005.15 772.873 3005.07 772.79C3004.99 772.707 3004.95 772.596 3004.95 772.481V760.561C3004.95 760.451 3004.99 760.346 3005.08 760.269C3005.16 760.192 3005.26 760.148 3005.38 760.148H3110.52Z" fill="#1C2E5D"/>
<path d="M3583.41 777.185C3583.42 788.84 3583.43 872.409 3583.43 1027.89C3583.43 1037.05 3584.44 1045.35 3586.47 1052.77C3590.54 1067.63 3604.01 1071.13 3617.58 1072.02C3626.48 1072.61 3631.01 1072.91 3631.15 1072.91C3631.2 1072.9 3631.26 1072.91 3631.31 1072.93C3631.36 1072.94 3631.41 1072.97 3631.45 1073.01C3631.49 1073.05 3631.52 1073.09 3631.54 1073.14C3631.56 1073.19 3631.58 1073.25 3631.58 1073.3L3631.56 1084.75C3631.56 1084.86 3631.52 1084.96 3631.45 1085.03C3631.38 1085.11 3631.28 1085.15 3631.18 1085.15H3460.3C3460.2 1085.15 3460.1 1085.11 3460.02 1085.03C3459.95 1084.95 3459.91 1084.85 3459.91 1084.74V1073.29C3459.91 1073.15 3459.96 1073.02 3460.06 1072.92C3460.15 1072.82 3460.28 1072.76 3460.42 1072.76C3475.64 1072.41 3486.29 1070.56 3492.36 1067.22C3505.36 1060.07 3506.46 1042.34 3506.44 1029.42C3506.42 1016.17 3506.42 931.971 3506.43 776.839C3506.43 776.751 3506.41 776.664 3506.38 776.583C3506.34 776.502 3506.29 776.429 3506.23 776.367C3506.17 776.306 3506.09 776.258 3506.01 776.225C3505.93 776.193 3505.84 776.178 3505.75 776.18C3495.65 776.224 3485.51 777.268 3475.32 779.311C3435.24 787.351 3416.67 818.657 3414.18 856.948C3414.17 857.056 3414.12 857.157 3414.04 857.23C3413.96 857.303 3413.86 857.344 3413.75 857.344H3400.33C3400.28 857.344 3400.24 857.335 3400.2 857.317C3400.16 857.3 3400.12 857.274 3400.09 857.242C3400.05 857.21 3400.03 857.172 3400.01 857.13C3399.99 857.088 3399.98 857.043 3399.98 856.998V760.939C3399.98 760.73 3400.07 760.528 3400.22 760.38C3400.36 760.232 3400.57 760.148 3400.77 760.148H3689.05C3689.29 760.148 3689.53 760.249 3689.71 760.428C3689.89 760.608 3689.98 760.851 3689.98 761.104V857.179C3689.98 857.223 3689.97 857.264 3689.94 857.295C3689.91 857.326 3689.86 857.344 3689.82 857.344H3676.43C3676.3 857.344 3676.18 857.295 3676.08 857.206C3675.99 857.117 3675.93 856.995 3675.92 856.866C3675.77 853.834 3674.58 847.677 3672.35 838.396C3666.52 814.06 3651.78 791.157 3627.56 782.837C3614.51 778.355 3600.09 776.164 3584.32 776.263C3584.07 776.267 3583.84 776.366 3583.67 776.539C3583.5 776.711 3583.41 776.943 3583.41 777.185Z" fill="#1C2E5D"/>
<path d="M3837.24 936.193C3837.2 936.139 3837.14 936.101 3837.07 936.083C3837 936.064 3836.93 936.067 3836.86 936.09C3836.8 936.114 3836.74 936.156 3836.7 936.213C3836.66 936.269 3836.64 936.337 3836.63 936.407C3836.58 980.83 3836.59 1013.95 3836.67 1035.77C3836.68 1038.42 3837.37 1043.26 3838.74 1050.28C3842.4 1068.84 3861.48 1072.38 3877.49 1072.43C3877.83 1072.43 3878.16 1072.57 3878.41 1072.82C3878.65 1073.07 3878.79 1073.4 3878.79 1073.75V1084.06C3878.79 1084.34 3878.68 1084.61 3878.48 1084.81C3878.28 1085 3878.01 1085.12 3877.73 1085.12L3717.04 1085.07C3716.76 1085.07 3716.49 1084.96 3716.29 1084.76C3716.1 1084.57 3715.98 1084.3 3715.98 1084.03V1073.73C3715.98 1073.38 3716.12 1073.05 3716.37 1072.8C3716.61 1072.55 3716.95 1072.4 3717.3 1072.39C3726.42 1072.23 3734.79 1070.68 3742.41 1067.75C3755.6 1062.67 3758.24 1046.64 3758.29 1033.99C3758.55 909.11 3758.54 835.066 3758.25 811.855C3758.14 802.968 3756.68 795.212 3753.87 788.588C3750.23 779.987 3743.73 777.219 3734.34 775.242C3727.97 773.902 3722.01 773.1 3716.48 772.836C3716.37 772.828 3716.26 772.777 3716.18 772.695C3716.11 772.612 3716.07 772.504 3716.07 772.391V760.478C3716.07 760.395 3716.1 760.315 3716.16 760.257C3716.22 760.198 3716.3 760.165 3716.38 760.165C3816.86 760.132 3871.08 760.148 3879.03 760.214C3917.01 760.577 3966.14 766.459 3991.8 798.343C4007.6 817.968 4010.16 846.177 4002.78 869.624C3992.8 901.31 3959.44 920.968 3928.83 927.114C3928.72 927.135 3928.62 927.184 3928.53 927.255C3928.45 927.327 3928.38 927.42 3928.35 927.525C3928.31 927.631 3928.29 927.745 3928.31 927.857C3928.32 927.969 3928.37 928.076 3928.43 928.168C3958.72 968.791 3992.27 1013.78 4029.09 1063.15C4033.88 1069.56 4039.22 1073.19 4047.44 1073.12C4047.85 1073.12 4048.24 1073.28 4048.53 1073.57C4048.82 1073.86 4048.98 1074.26 4048.98 1074.67V1083.76C4048.98 1083.95 4048.95 1084.13 4048.88 1084.29C4048.81 1084.46 4048.71 1084.61 4048.58 1084.74C4048.45 1084.87 4048.3 1084.97 4048.13 1085.04C4047.96 1085.11 4047.78 1085.15 4047.6 1085.15L3949.33 1085.12C3949 1085.12 3948.68 1085.04 3948.39 1084.89C3948.1 1084.74 3947.84 1084.52 3947.65 1084.26L3837.24 936.193ZM3837.11 919.056C3857.28 919.139 3881.08 917.03 3899.45 908.214C3912.25 902.068 3918.64 889.76 3921.22 876.479C3924.23 861.166 3924.73 845.15 3922.72 828.431C3919.77 803.962 3908.56 783.662 3882.99 778.29C3871.81 775.95 3860.72 775.978 3849.72 778.372C3837.82 780.976 3836.53 789.94 3836.55 801.375C3836.63 827.541 3836.65 866.609 3836.62 918.578C3836.62 918.705 3836.67 918.827 3836.76 918.916C3836.85 919.006 3836.98 919.056 3837.11 919.056Z" fill="#1C2E5D"/>
<path d="M4106.75 922.657C4106.75 860.816 4106.74 825.338 4106.72 816.223C4106.68 802.858 4105.85 794.292 4104.22 790.525C4097.33 774.595 4079.21 773.047 4064.07 772.833C4063.78 772.833 4063.51 772.718 4063.3 772.514C4063.1 772.31 4062.98 772.034 4062.98 771.746V761.186C4062.98 760.915 4063.09 760.656 4063.28 760.464C4063.47 760.273 4063.73 760.165 4064 760.165L4230.59 760.148C4230.69 760.148 4230.78 760.188 4230.85 760.259C4230.91 760.33 4230.95 760.427 4230.95 760.527V772.306C4230.95 772.428 4230.9 772.545 4230.82 772.632C4230.73 772.718 4230.61 772.767 4230.49 772.767C4222.73 772.701 4214.94 773.58 4207.14 775.403C4192.42 778.846 4186.03 789.85 4186.03 804.264C4186.03 807.152 4186.04 846.611 4186.05 922.64C4186.05 998.681 4186.05 1038.14 4186.05 1041.03C4186.05 1055.45 4192.45 1066.45 4207.17 1069.89C4214.98 1071.71 4222.76 1072.58 4230.52 1072.51C4230.65 1072.51 4230.76 1072.56 4230.85 1072.65C4230.94 1072.74 4230.98 1072.85 4230.98 1072.97V1084.74C4230.99 1084.79 4230.98 1084.84 4230.96 1084.89C4230.94 1084.93 4230.92 1084.98 4230.88 1085.02C4230.85 1085.05 4230.81 1085.08 4230.76 1085.1C4230.72 1085.12 4230.67 1085.13 4230.62 1085.13L4064.05 1085.15C4063.92 1085.15 4063.79 1085.12 4063.66 1085.07C4063.54 1085.02 4063.43 1084.94 4063.33 1084.85C4063.24 1084.75 4063.16 1084.64 4063.11 1084.52C4063.06 1084.39 4063.03 1084.26 4063.03 1084.13L4063.02 1073.57C4063.02 1073.28 4063.13 1073 4063.33 1072.8C4063.54 1072.6 4063.81 1072.48 4064.1 1072.48C4079.24 1072.27 4097.36 1070.72 4104.26 1054.77C4105.88 1051 4106.7 1042.44 4106.74 1029.09C4106.76 1019.96 4106.77 984.486 4106.75 922.657Z" fill="#1C2E5D"/>
<path d="M4593.29 1136.15H855.676C855.294 1136.15 854.984 1136.47 854.984 1136.87V1141.43C854.984 1141.83 855.294 1142.15 855.676 1142.15H4593.29C4593.67 1142.15 4593.98 1141.83 4593.98 1141.43V1136.87C4593.98 1136.47 4593.67 1136.15 4593.29 1136.15Z" fill="black"/>
<path d="M872.98 1235.7C873.013 1266.23 910.517 1279.81 931.16 1258.79C931.252 1258.7 931.363 1258.62 931.487 1258.57C931.611 1258.52 931.744 1258.49 931.879 1258.49C932.015 1258.49 932.149 1258.52 932.274 1258.57C932.4 1258.62 932.514 1258.7 932.609 1258.79L939.757 1266.07C939.899 1266.21 939.981 1266.4 939.984 1266.6C939.987 1266.8 939.912 1266.99 939.773 1267.13C932.398 1274.73 923.268 1278.99 912.383 1279.89C891.235 1281.65 875.696 1274.38 865.766 1258.08C861.923 1251.77 859.996 1244.31 859.985 1235.71C859.962 1227.13 861.867 1219.67 865.699 1213.34C875.574 1197.01 891.09 1189.69 912.25 1191.39C923.135 1192.26 932.276 1196.49 939.673 1204.07C939.812 1204.21 939.887 1204.4 939.884 1204.6C939.881 1204.79 939.799 1204.99 939.657 1205.13L932.543 1212.42C932.448 1212.52 932.334 1212.6 932.207 1212.65C932.081 1212.71 931.945 1212.74 931.808 1212.74C931.671 1212.74 931.535 1212.72 931.409 1212.66C931.283 1212.61 931.17 1212.53 931.076 1212.43C910.384 1191.49 872.93 1205.18 872.98 1235.7Z" fill="black"/>
<path d="M1389.98 1235.74C1390.09 1247.67 1385.29 1259.16 1376.64 1267.68C1367.99 1276.19 1356.21 1281.04 1343.88 1281.15C1337.77 1281.2 1331.71 1280.09 1326.05 1277.88C1320.39 1275.67 1315.24 1272.4 1310.88 1268.26C1306.53 1264.11 1303.06 1259.18 1300.68 1253.75C1298.29 1248.31 1297.04 1242.47 1296.99 1236.56C1296.88 1224.62 1301.68 1213.13 1310.33 1204.62C1318.98 1196.1 1330.76 1191.26 1343.09 1191.15C1349.2 1191.1 1355.26 1192.21 1360.92 1194.42C1366.58 1196.63 1371.73 1199.9 1376.09 1204.04C1380.44 1208.18 1383.91 1213.11 1386.29 1218.55C1388.68 1223.99 1389.93 1229.83 1389.98 1235.74ZM1376.83 1236.15C1376.83 1227.25 1373.32 1218.72 1367.06 1212.44C1360.8 1206.15 1352.32 1202.61 1343.47 1202.61C1334.62 1202.61 1326.13 1206.15 1319.88 1212.44C1313.62 1218.72 1310.1 1227.25 1310.1 1236.15C1310.1 1245.04 1313.62 1253.57 1319.88 1259.86C1326.13 1266.15 1334.62 1269.68 1343.47 1269.68C1352.32 1269.68 1360.8 1266.15 1367.06 1259.86C1373.32 1253.57 1376.83 1245.04 1376.83 1236.15Z" fill="black"/>
<path d="M1840.11 1268.36L1843.82 1260.05C1843.88 1259.91 1843.98 1259.79 1844.09 1259.7C1844.2 1259.61 1844.34 1259.54 1844.48 1259.51C1844.62 1259.48 1844.77 1259.48 1844.91 1259.51C1845.05 1259.54 1845.18 1259.61 1845.29 1259.7C1850.68 1264.07 1857.26 1266.99 1865.02 1268.46C1873.51 1270.08 1890.3 1269.88 1893.79 1259.7C1896.79 1250.88 1888.9 1245.79 1881.38 1243.83C1863.67 1239.21 1836.49 1235.85 1842.68 1210.01C1845.57 1197.99 1857.32 1192.56 1868.67 1191.47C1881.18 1190.26 1892.38 1192.43 1902.3 1197.97C1902.63 1198.16 1902.89 1198.46 1903.02 1198.83C1903.15 1199.19 1903.15 1199.59 1903.01 1199.95L1899.85 1208.04C1899.79 1208.2 1899.69 1208.34 1899.57 1208.46C1899.44 1208.58 1899.29 1208.67 1899.13 1208.73C1898.97 1208.79 1898.79 1208.81 1898.62 1208.79C1898.45 1208.77 1898.28 1208.72 1898.13 1208.63C1887.38 1202.29 1876.36 1200.56 1865.05 1203.42C1858.73 1205.02 1853.64 1210.21 1854.6 1217.17C1855.37 1222.93 1862.1 1226.51 1867.29 1227.78C1870.46 1228.56 1877.3 1230.4 1887.81 1233.29C1901.19 1236.99 1909.63 1246.42 1906.23 1260.97C1903.47 1272.72 1892.14 1278.47 1880.87 1279.71C1866.18 1281.33 1852.12 1278.56 1840.55 1270.04C1840.3 1269.86 1840.11 1269.59 1840.03 1269.28C1839.95 1268.97 1839.98 1268.65 1840.11 1268.36Z" fill="black"/>
<path d="M2282.98 1236.15C2282.98 1248.08 2278.03 1259.53 2269.22 1267.97C2260.4 1276.41 2248.45 1281.15 2235.98 1281.15C2223.52 1281.15 2211.56 1276.41 2202.75 1267.97C2193.94 1259.53 2188.98 1248.08 2188.98 1236.15C2188.98 1224.21 2193.94 1212.77 2202.75 1204.33C2211.56 1195.89 2223.52 1191.15 2235.98 1191.15C2248.45 1191.15 2260.4 1195.89 2269.22 1204.33C2278.03 1212.77 2282.98 1224.21 2282.98 1236.15ZM2269.86 1236.21C2269.87 1231.83 2269 1227.49 2267.3 1223.43C2265.61 1219.38 2263.12 1215.7 2259.98 1212.6C2256.83 1209.49 2253.1 1207.03 2248.99 1205.35C2244.88 1203.66 2240.48 1202.79 2236.03 1202.78C2231.58 1202.78 2227.17 1203.63 2223.05 1205.3C2218.94 1206.97 2215.19 1209.42 2212.04 1212.51C2208.89 1215.61 2206.39 1219.28 2204.68 1223.33C2202.97 1227.37 2202.08 1231.71 2202.07 1236.09C2202.07 1240.47 2202.93 1244.81 2204.63 1248.86C2206.33 1252.91 2208.82 1256.6 2211.96 1259.7C2215.1 1262.8 2218.83 1265.27 2222.94 1266.95C2227.05 1268.64 2231.46 1269.51 2235.91 1269.51C2240.36 1269.52 2244.77 1268.67 2248.88 1267C2253 1265.33 2256.74 1262.88 2259.89 1259.78C2263.05 1256.69 2265.55 1253.02 2267.26 1248.97C2268.97 1244.93 2269.85 1240.59 2269.86 1236.21Z" fill="black"/>
<path d="M2439.98 1236.07C2439.99 1230.16 2441.21 1224.31 2443.55 1218.85C2445.9 1213.4 2449.33 1208.44 2453.66 1204.27C2457.98 1200.1 2463.12 1196.79 2468.76 1194.54C2474.41 1192.29 2480.46 1191.14 2486.56 1191.15C2492.67 1191.16 2498.71 1192.33 2504.35 1194.61C2509.99 1196.88 2515.11 1200.2 2519.42 1204.39C2523.73 1208.57 2527.15 1213.54 2529.47 1219C2531.8 1224.47 2532.99 1230.32 2532.98 1236.23C2532.97 1242.14 2531.76 1247.99 2529.41 1253.44C2527.07 1258.9 2523.63 1263.85 2519.31 1268.03C2514.98 1272.2 2509.85 1275.5 2504.21 1277.75C2498.56 1280.01 2492.51 1281.16 2486.41 1281.15C2480.3 1281.14 2474.26 1279.96 2468.62 1277.69C2462.98 1275.42 2457.86 1272.1 2453.55 1267.91C2449.24 1263.72 2445.82 1258.76 2443.49 1253.29C2441.17 1247.83 2439.97 1241.98 2439.98 1236.07ZM2453.05 1235.09C2452.92 1239.48 2453.65 1243.85 2455.2 1247.96C2456.75 1252.07 2459.1 1255.83 2462.11 1259.03C2465.11 1262.23 2468.72 1264.81 2472.73 1266.62C2476.73 1268.43 2481.05 1269.43 2485.44 1269.57C2494.31 1269.85 2502.92 1266.6 2509.38 1260.53C2515.85 1254.46 2519.64 1246.07 2519.91 1237.2C2520.05 1232.82 2519.32 1228.44 2517.77 1224.34C2516.22 1220.23 2513.87 1216.47 2510.86 1213.26C2507.85 1210.06 2504.25 1207.48 2500.24 1205.68C2496.24 1203.87 2491.92 1202.87 2487.53 1202.73C2478.66 1202.45 2470.05 1205.7 2463.58 1211.77C2457.12 1217.84 2453.33 1226.23 2453.05 1235.09Z" fill="black"/>
<path d="M2691.98 1235.66C2691.98 1227.06 2693.87 1219.6 2697.65 1213.28C2707.44 1196.96 2722.79 1189.67 2743.69 1191.4C2754.45 1192.29 2763.48 1196.53 2770.77 1204.12C2770.91 1204.25 2770.98 1204.44 2770.98 1204.64C2770.98 1204.84 2770.91 1205.03 2770.77 1205.17L2763.7 1212.47C2763.61 1212.57 2763.5 1212.64 2763.37 1212.69C2763.25 1212.75 2763.12 1212.77 2762.98 1212.77C2762.85 1212.77 2762.72 1212.75 2762.59 1212.69C2762.47 1212.64 2762.36 1212.57 2762.27 1212.47C2741.85 1191.48 2704.81 1205.13 2704.81 1235.66C2704.81 1266.17 2741.85 1279.82 2762.27 1258.83C2762.36 1258.73 2762.47 1258.66 2762.6 1258.61C2762.72 1258.56 2762.85 1258.53 2762.98 1258.53C2763.12 1258.53 2763.25 1258.56 2763.37 1258.62C2763.5 1258.67 2763.61 1258.75 2763.7 1258.84L2770.77 1266.12C2770.91 1266.27 2770.98 1266.46 2770.98 1266.66C2770.98 1266.85 2770.91 1267.04 2770.77 1267.18C2763.48 1274.78 2754.45 1279.02 2743.69 1279.9C2722.79 1281.63 2707.44 1274.34 2697.65 1258.02C2693.87 1251.7 2691.98 1244.25 2691.98 1235.66Z" fill="black"/>
<path d="M2779.98 1236.07C2779.99 1230.16 2781.21 1224.31 2783.55 1218.85C2785.9 1213.4 2789.33 1208.44 2793.66 1204.27C2797.98 1200.1 2803.12 1196.79 2808.76 1194.54C2814.41 1192.29 2820.46 1191.14 2826.56 1191.15C2832.67 1191.16 2838.71 1192.33 2844.35 1194.61C2849.99 1196.88 2855.11 1200.2 2859.42 1204.39C2863.73 1208.57 2867.15 1213.54 2869.47 1219C2871.8 1224.47 2872.99 1230.32 2872.98 1236.23C2872.97 1242.14 2871.76 1247.99 2869.41 1253.44C2867.07 1258.9 2863.63 1263.85 2859.31 1268.03C2854.98 1272.2 2849.85 1275.5 2844.21 1277.75C2838.56 1280.01 2832.51 1281.16 2826.41 1281.15C2820.3 1281.14 2814.26 1279.96 2808.62 1277.69C2802.98 1275.42 2797.86 1272.1 2793.55 1267.91C2789.24 1263.72 2785.82 1258.76 2783.49 1253.29C2781.17 1247.83 2779.97 1241.98 2779.98 1236.07ZM2860.02 1236.15C2860.02 1227.3 2856.49 1218.82 2850.2 1212.56C2843.91 1206.31 2835.38 1202.8 2826.48 1202.8C2817.59 1202.8 2809.06 1206.31 2802.77 1212.56C2796.48 1218.82 2792.95 1227.3 2792.95 1236.15C2792.95 1244.99 2796.48 1253.48 2802.77 1259.73C2809.06 1265.99 2817.59 1269.5 2826.48 1269.5C2835.38 1269.5 2843.91 1265.99 2850.2 1259.73C2856.49 1253.48 2860.02 1244.99 2860.02 1236.15Z" fill="black"/>
<path d="M4196.29 1259.7C4201.68 1264.07 4208.25 1266.99 4216.02 1268.46C4224.51 1270.08 4241.31 1269.88 4244.79 1259.7C4247.8 1250.88 4239.9 1245.8 4232.37 1243.84C4214.66 1239.22 4187.49 1235.86 4193.68 1210.03C4196.57 1197.99 4208.32 1192.56 4219.67 1191.47C4232.18 1190.26 4243.39 1192.44 4253.3 1197.99C4253.63 1198.18 4253.89 1198.48 4254.02 1198.84C4254.15 1199.2 4254.15 1199.6 4254.01 1199.97L4250.85 1208.05C4250.79 1208.21 4250.69 1208.36 4250.57 1208.48C4250.45 1208.6 4250.3 1208.69 4250.13 1208.74C4249.97 1208.8 4249.79 1208.82 4249.62 1208.8C4249.45 1208.79 4249.28 1208.73 4249.14 1208.64C4238.38 1202.31 4227.35 1200.57 4216.05 1203.43C4209.72 1205.03 4204.63 1210.23 4205.59 1217.19C4206.37 1222.94 4213.09 1226.52 4218.28 1227.79C4221.45 1228.57 4228.29 1230.41 4238.81 1233.3C4252.19 1236.99 4260.63 1246.43 4257.23 1260.97C4254.47 1272.72 4243.14 1278.47 4231.86 1279.71C4217.17 1281.33 4203.11 1278.56 4191.55 1270.05C4191.3 1269.86 4191.11 1269.59 4191.03 1269.28C4190.95 1268.98 4190.98 1268.65 4191.1 1268.36L4194.82 1260.05C4194.88 1259.92 4194.97 1259.8 4195.09 1259.71C4195.2 1259.61 4195.34 1259.55 4195.48 1259.51C4195.62 1259.48 4195.77 1259.48 4195.91 1259.51C4196.05 1259.55 4196.18 1259.61 4196.29 1259.7Z" fill="black"/>
<path d="M3435.98 1279.15C3434.17 1279.15 3432.37 1279.11 3430.59 1279.03C3430.29 1279.02 3430 1278.92 3429.75 1278.75C3429.5 1278.58 3429.31 1278.34 3429.18 1278.06L3392.01 1192.48C3391.99 1192.44 3391.98 1192.4 3391.98 1192.36C3391.99 1192.32 3392 1192.29 3392.02 1192.25C3392.04 1192.22 3392.07 1192.19 3392.11 1192.18C3392.14 1192.16 3392.18 1192.15 3392.22 1192.15H3404.74C3404.88 1192.15 3405.01 1192.19 3405.12 1192.26C3405.24 1192.33 3405.32 1192.44 3405.38 1192.56C3420.66 1227.72 3430.72 1250.81 3435.55 1261.83C3435.61 1261.97 3435.75 1262.03 3435.98 1262.03C3436.2 1262.03 3436.35 1261.97 3436.4 1261.83C3441.23 1250.81 3451.3 1227.72 3466.59 1192.56C3466.64 1192.44 3466.73 1192.33 3466.85 1192.26C3466.96 1192.19 3467.09 1192.15 3467.23 1192.15L3479.75 1192.17C3479.79 1192.16 3479.83 1192.17 3479.86 1192.19C3479.9 1192.21 3479.93 1192.24 3479.95 1192.27C3479.97 1192.3 3479.98 1192.34 3479.98 1192.38C3479.99 1192.42 3479.98 1192.46 3479.96 1192.49L3442.77 1278.06C3442.65 1278.34 3442.45 1278.58 3442.2 1278.75C3441.95 1278.92 3441.66 1279.02 3441.36 1279.03C3439.57 1279.11 3437.77 1279.15 3435.98 1279.15Z" fill="black"/>
<path d="M1018.42 1192.18C1018.64 1192.18 1018.85 1192.27 1019.01 1192.42C1019.16 1192.58 1019.25 1192.79 1019.25 1193.01L1019.28 1202.46C1019.28 1202.69 1019.19 1202.92 1019.03 1203.08C1018.87 1203.24 1018.65 1203.34 1018.42 1203.34L970.931 1203.29C970.799 1203.29 970.669 1203.31 970.548 1203.36C970.427 1203.41 970.317 1203.49 970.224 1203.58C970.131 1203.67 970.057 1203.78 970.007 1203.9C969.957 1204.02 969.931 1204.15 969.931 1204.28L969.898 1228.63C969.898 1228.91 970.007 1229.17 970.2 1229.36C970.394 1229.55 970.657 1229.66 970.931 1229.66L1012.95 1229.69C1013.22 1229.69 1013.47 1229.8 1013.66 1229.98C1013.85 1230.17 1013.95 1230.42 1013.95 1230.68L1013.92 1239.46C1013.92 1239.71 1013.82 1239.95 1013.64 1240.13C1013.46 1240.31 1013.21 1240.41 1012.95 1240.42L971.014 1240.37C970.722 1240.37 970.443 1240.48 970.236 1240.69C970.03 1240.89 969.914 1241.17 969.914 1241.46L969.898 1267.23C969.898 1267.43 969.974 1267.61 970.111 1267.75C970.248 1267.89 970.435 1267.97 970.631 1267.98L1020.12 1268.01C1020.34 1268.01 1020.56 1268.1 1020.72 1268.25C1020.88 1268.41 1020.97 1268.62 1020.97 1268.83L1020.98 1278.27C1020.98 1278.51 1020.89 1278.73 1020.73 1278.89C1020.57 1279.06 1020.35 1279.15 1020.12 1279.15L957.551 1279.1C957.476 1279.1 957.403 1279.08 957.334 1279.05C957.265 1279.03 957.203 1278.98 957.15 1278.93C957.098 1278.88 957.056 1278.81 957.027 1278.74C956.999 1278.67 956.984 1278.6 956.984 1278.52L957.034 1192.84C957.034 1192.66 957.108 1192.48 957.239 1192.35C957.371 1192.22 957.548 1192.15 957.734 1192.15L1018.42 1192.18Z" fill="black"/>
<path d="M1083.47 1231.77C1087.77 1237.13 1094.12 1244.96 1102.52 1255.25C1102.56 1255.3 1102.61 1255.33 1102.67 1255.35C1102.73 1255.36 1102.79 1255.36 1102.85 1255.34C1102.91 1255.32 1102.96 1255.29 1102.99 1255.24C1103.03 1255.19 1103.06 1255.13 1103.06 1255.07V1192.72C1103.06 1192.65 1103.08 1192.57 1103.11 1192.5C1103.14 1192.43 1103.18 1192.37 1103.23 1192.32C1103.29 1192.26 1103.36 1192.22 1103.43 1192.19C1103.5 1192.16 1103.58 1192.15 1103.65 1192.15H1115.42C1115.57 1192.15 1115.71 1192.21 1115.82 1192.31C1115.93 1192.42 1115.98 1192.56 1115.98 1192.71V1278.11C1115.98 1278.39 1115.87 1278.65 1115.68 1278.84C1115.48 1279.04 1115.22 1279.15 1114.94 1279.15H1106.64C1106.3 1279.15 1105.96 1279.07 1105.65 1278.93C1105.34 1278.78 1105.06 1278.57 1104.84 1278.31C1099.52 1271.89 1089.07 1258.96 1073.5 1239.54C1069.2 1234.17 1062.85 1226.34 1054.45 1216.04C1054.41 1216 1054.36 1215.97 1054.3 1215.95C1054.24 1215.94 1054.18 1215.94 1054.12 1215.96C1054.06 1215.98 1054.01 1216.01 1053.97 1216.06C1053.94 1216.11 1053.91 1216.16 1053.91 1216.22V1278.57C1053.91 1278.72 1053.85 1278.87 1053.73 1278.98C1053.62 1279.09 1053.47 1279.15 1053.31 1279.15H1041.55C1041.4 1279.15 1041.25 1279.09 1041.15 1278.98C1041.04 1278.88 1040.98 1278.74 1040.98 1278.59V1193.19C1040.98 1192.91 1041.09 1192.65 1041.29 1192.45C1041.48 1192.26 1041.75 1192.15 1042.02 1192.15H1050.33C1050.67 1192.15 1051 1192.23 1051.31 1192.37C1051.62 1192.52 1051.89 1192.73 1052.11 1192.99C1057.45 1199.42 1067.9 1212.35 1083.47 1231.77Z" fill="black"/>
<path d="M1164.98 1192.15C1176.95 1192.15 1188.67 1192.15 1200.13 1192.15C1200.36 1192.15 1200.57 1192.24 1200.73 1192.39C1200.89 1192.55 1200.98 1192.77 1200.98 1192.99V1202.45C1200.98 1202.68 1200.9 1202.89 1200.74 1203.05C1200.58 1203.2 1200.37 1203.29 1200.14 1203.29H1172.19C1171.96 1203.29 1171.73 1203.38 1171.57 1203.54C1171.41 1203.71 1171.31 1203.92 1171.31 1204.15V1278.03C1171.32 1278.31 1171.2 1278.59 1171 1278.8C1170.8 1279 1170.53 1279.12 1170.24 1279.13C1169.69 1279.14 1167.93 1279.15 1164.98 1279.15C1162.03 1279.15 1160.28 1279.14 1159.72 1279.13C1159.44 1279.12 1159.16 1279 1158.97 1278.8C1158.77 1278.59 1158.65 1278.31 1158.65 1278.03V1204.15C1158.65 1203.92 1158.56 1203.71 1158.4 1203.54C1158.23 1203.38 1158.01 1203.29 1157.78 1203.29H1129.82C1129.6 1203.29 1129.39 1203.2 1129.23 1203.05C1129.07 1202.89 1128.98 1202.68 1128.98 1202.45V1192.99C1128.98 1192.77 1129.07 1192.55 1129.24 1192.39C1129.4 1192.24 1129.61 1192.15 1129.84 1192.15C1141.3 1192.15 1153.01 1192.15 1164.98 1192.15Z" fill="black"/>
<path d="M1285.95 1278.87C1285.97 1278.9 1285.98 1278.93 1285.98 1278.96C1285.99 1278.99 1285.98 1279.02 1285.96 1279.05C1285.95 1279.08 1285.93 1279.1 1285.9 1279.12C1285.87 1279.14 1285.84 1279.15 1285.81 1279.15H1272.39C1272.27 1279.15 1272.15 1279.12 1272.04 1279.06C1271.93 1279.01 1271.84 1278.93 1271.78 1278.84L1253.72 1253.37C1253.59 1253.19 1253.42 1253.04 1253.23 1252.94C1253.03 1252.84 1252.81 1252.79 1252.58 1252.79H1227.45C1227.28 1252.79 1227.12 1252.86 1226.99 1252.98C1226.87 1253.1 1226.81 1253.26 1226.81 1253.43V1278.69C1226.81 1278.81 1226.76 1278.93 1226.67 1279.01C1226.58 1279.1 1226.45 1279.15 1226.33 1279.15H1214.43C1214.31 1279.15 1214.2 1279.1 1214.12 1279.02C1214.03 1278.94 1213.98 1278.83 1213.98 1278.72L1214 1192.7C1214 1192.57 1214.05 1192.44 1214.15 1192.34C1214.25 1192.25 1214.38 1192.19 1214.51 1192.19C1224.67 1192.12 1236.75 1192.14 1250.76 1192.24C1270.89 1192.35 1285.54 1204.49 1284.32 1225.44C1283.65 1236.75 1277.63 1244.93 1266.26 1249.99C1266.19 1250.02 1266.13 1250.07 1266.08 1250.13C1266.02 1250.18 1265.99 1250.25 1265.97 1250.33C1265.95 1250.4 1265.94 1250.48 1265.96 1250.55C1265.97 1250.63 1266 1250.7 1266.05 1250.76L1285.95 1278.87ZM1226.71 1204.05L1226.9 1241.46C1226.9 1241.62 1226.97 1241.77 1227.08 1241.88C1227.19 1241.99 1227.34 1242.05 1227.5 1242.05L1250.75 1241.94C1253.48 1241.92 1256.19 1241.45 1258.71 1240.55C1261.23 1239.65 1263.52 1238.33 1265.45 1236.68C1267.38 1235.03 1268.9 1233.07 1269.93 1230.92C1270.97 1228.78 1271.49 1226.47 1271.48 1224.15L1271.47 1220.89C1271.44 1216.21 1269.22 1211.73 1265.3 1208.44C1261.38 1205.15 1256.07 1203.31 1250.55 1203.34L1227.3 1203.45C1227.14 1203.45 1226.99 1203.52 1226.88 1203.63C1226.77 1203.74 1226.71 1203.89 1226.71 1204.05Z" fill="black"/>
<path d="M1443.15 1192.73C1443.15 1192.57 1443.21 1192.43 1443.31 1192.32C1443.42 1192.21 1443.57 1192.15 1443.72 1192.15L1482.7 1192.21C1494.2 1192.24 1505.21 1196.64 1513.33 1204.46C1521.45 1212.28 1526 1222.87 1525.98 1233.9V1237.59C1525.98 1243.06 1524.85 1248.47 1522.66 1253.52C1520.47 1258.57 1517.27 1263.15 1513.23 1267.01C1509.2 1270.87 1504.41 1273.93 1499.14 1276.01C1493.87 1278.09 1488.23 1279.16 1482.53 1279.15L1443.56 1279.08C1443.4 1279.08 1443.26 1279.02 1443.15 1278.91C1443.04 1278.8 1442.98 1278.66 1442.98 1278.5L1443.15 1192.73ZM1455.85 1203.81L1455.62 1267.39C1455.62 1267.52 1455.67 1267.65 1455.77 1267.75C1455.86 1267.84 1455.99 1267.9 1456.12 1267.9L1480.89 1267.98C1485.12 1268 1489.32 1267.22 1493.24 1265.69C1497.16 1264.17 1500.72 1261.92 1503.73 1259.09C1506.73 1256.25 1509.12 1252.88 1510.76 1249.17C1512.39 1245.45 1513.24 1241.47 1513.25 1237.45V1234.15C1513.28 1226.02 1509.91 1218.21 1503.88 1212.44C1497.86 1206.67 1489.67 1203.41 1481.11 1203.38L1456.35 1203.3C1456.22 1203.3 1456.09 1203.35 1455.99 1203.45C1455.9 1203.55 1455.85 1203.68 1455.85 1203.81Z" fill="black"/>
<path d="M1606.49 1203.29H1558.66C1558.56 1203.29 1558.46 1203.31 1558.37 1203.35C1558.28 1203.39 1558.19 1203.44 1558.12 1203.51C1558.05 1203.58 1557.99 1203.67 1557.96 1203.76C1557.92 1203.85 1557.9 1203.95 1557.9 1204.05V1228.92C1557.9 1229.12 1557.98 1229.32 1558.12 1229.46C1558.27 1229.6 1558.46 1229.68 1558.66 1229.68H1601.16C1601.37 1229.68 1601.56 1229.76 1601.7 1229.9C1601.85 1230.05 1601.93 1230.24 1601.93 1230.44V1239.64C1601.93 1239.84 1601.85 1240.03 1601.7 1240.17C1601.56 1240.32 1601.37 1240.4 1601.16 1240.4H1558.66C1558.46 1240.4 1558.27 1240.48 1558.12 1240.62C1557.98 1240.76 1557.9 1240.95 1557.9 1241.15V1267.25C1557.9 1267.45 1557.98 1267.64 1558.12 1267.78C1558.27 1267.93 1558.46 1268.01 1558.66 1268.01H1608.22C1608.32 1268.01 1608.42 1268.03 1608.51 1268.06C1608.6 1268.1 1608.69 1268.16 1608.76 1268.23C1608.83 1268.3 1608.89 1268.38 1608.93 1268.47C1608.96 1268.57 1608.98 1268.66 1608.98 1268.76V1278.39C1608.98 1278.59 1608.9 1278.78 1608.76 1278.93C1608.62 1279.07 1608.42 1279.15 1608.22 1279.15H1545.75C1545.55 1279.15 1545.35 1279.07 1545.21 1278.93C1545.06 1278.78 1544.98 1278.59 1544.98 1278.39V1192.91C1544.98 1192.81 1545 1192.71 1545.04 1192.62C1545.08 1192.52 1545.14 1192.44 1545.21 1192.37C1545.28 1192.3 1545.36 1192.24 1545.46 1192.21C1545.55 1192.17 1545.65 1192.15 1545.75 1192.15H1606.49C1606.69 1192.15 1606.89 1192.23 1607.03 1192.37C1607.17 1192.51 1607.25 1192.71 1607.25 1192.91V1202.53C1607.25 1202.73 1607.17 1202.93 1607.03 1203.07C1606.89 1203.21 1606.69 1203.29 1606.49 1203.29Z" fill="black"/>
<path d="M1662.15 1192.74C1662.15 1192.58 1662.21 1192.43 1662.32 1192.32C1662.44 1192.21 1662.59 1192.15 1662.74 1192.15L1702.29 1192.21C1713.9 1192.24 1725.02 1196.59 1733.21 1204.32C1741.41 1212.05 1746 1222.53 1745.98 1233.44V1238.06C1745.98 1243.46 1744.84 1248.82 1742.63 1253.81C1740.42 1258.8 1737.18 1263.33 1733.11 1267.15C1729.04 1270.96 1724.21 1273.99 1718.89 1276.05C1713.57 1278.11 1707.88 1279.16 1702.12 1279.15L1662.58 1279.08C1662.42 1279.08 1662.27 1279.02 1662.16 1278.91C1662.05 1278.8 1661.98 1278.65 1661.98 1278.49L1662.15 1192.74ZM1674.83 1203.9L1674.93 1267.46C1674.93 1267.6 1674.98 1267.74 1675.08 1267.84C1675.18 1267.94 1675.32 1267.99 1675.46 1267.99L1700.82 1267.94C1709.42 1267.93 1717.66 1264.67 1723.74 1258.89C1729.81 1253.11 1733.22 1245.28 1733.2 1237.12V1234.05C1733.2 1230.01 1732.35 1226 1730.72 1222.27C1729.08 1218.54 1726.69 1215.15 1723.67 1212.3C1720.65 1209.45 1717.07 1207.18 1713.14 1205.64C1709.2 1204.1 1704.98 1203.31 1700.72 1203.32L1675.36 1203.37C1675.22 1203.37 1675.08 1203.43 1674.98 1203.52C1674.89 1203.62 1674.83 1203.76 1674.83 1203.9Z" fill="black"/>
<path d="M1825.37 1192.15C1825.58 1192.15 1825.79 1192.24 1825.95 1192.39C1826.1 1192.54 1826.18 1192.75 1826.18 1192.97L1826.22 1202.43C1826.22 1202.66 1826.13 1202.88 1825.97 1203.04C1825.82 1203.2 1825.61 1203.3 1825.38 1203.3H1778.66C1778.53 1203.3 1778.4 1203.33 1778.28 1203.38C1778.16 1203.43 1778.05 1203.5 1777.96 1203.6C1777.87 1203.69 1777.8 1203.8 1777.75 1203.92C1777.7 1204.04 1777.68 1204.18 1777.68 1204.31V1228.67C1777.68 1228.94 1777.79 1229.2 1777.98 1229.39C1778.17 1229.59 1778.42 1229.69 1778.69 1229.69L1820.03 1229.68C1820.29 1229.68 1820.54 1229.78 1820.73 1229.97C1820.91 1230.15 1821.02 1230.4 1821.02 1230.67L1821 1239.45C1821 1239.57 1820.97 1239.7 1820.93 1239.81C1820.88 1239.93 1820.81 1240.03 1820.72 1240.12C1820.63 1240.21 1820.52 1240.28 1820.4 1240.33C1820.29 1240.38 1820.16 1240.4 1820.03 1240.4H1778.79C1778.51 1240.4 1778.23 1240.52 1778.03 1240.72C1777.83 1240.92 1777.71 1241.2 1777.71 1241.49V1267.29C1777.71 1267.48 1777.79 1267.67 1777.93 1267.81C1778.07 1267.95 1778.25 1268.03 1778.45 1268.03L1827.13 1268C1827.35 1268 1827.57 1268.08 1827.72 1268.24C1827.88 1268.39 1827.97 1268.6 1827.97 1268.82L1827.98 1278.26C1827.98 1278.49 1827.89 1278.71 1827.74 1278.88C1827.58 1279.04 1827.36 1279.13 1827.13 1279.13L1765.57 1279.15C1765.5 1279.15 1765.43 1279.13 1765.36 1279.1C1765.29 1279.08 1765.23 1279.03 1765.18 1278.98C1765.13 1278.93 1765.09 1278.86 1765.06 1278.79C1765.03 1278.72 1765.02 1278.65 1765.02 1278.57L1764.98 1192.87C1764.98 1192.69 1765.06 1192.51 1765.19 1192.38C1765.31 1192.25 1765.49 1192.18 1765.67 1192.18L1825.37 1192.15Z" fill="black"/>
<path d="M1957.48 1257.72C1943.93 1257.71 1936.65 1257.7 1935.63 1257.7C1935.39 1257.7 1935.16 1257.77 1934.96 1257.9C1934.76 1258.03 1934.61 1258.21 1934.51 1258.43L1925.3 1278.75C1925.25 1278.86 1925.18 1278.95 1925.08 1279.02C1924.99 1279.08 1924.87 1279.11 1924.75 1279.12H1912.22C1912.18 1279.12 1912.14 1279.11 1912.11 1279.09C1912.07 1279.07 1912.04 1279.04 1912.02 1279.01C1912 1278.98 1911.99 1278.94 1911.98 1278.9C1911.98 1278.86 1911.99 1278.82 1912.01 1278.79L1950.72 1193.3C1950.85 1193.02 1951.06 1192.77 1951.32 1192.59C1951.58 1192.41 1951.88 1192.31 1952.19 1192.3C1953.95 1192.2 1955.73 1192.15 1957.52 1192.15C1959.3 1192.15 1961.09 1192.2 1962.86 1192.3C1963.18 1192.31 1963.48 1192.42 1963.74 1192.6C1964 1192.78 1964.2 1193.03 1964.33 1193.32L2002.96 1278.82C2002.98 1278.85 2002.99 1278.89 2002.98 1278.93C2002.98 1278.97 2002.97 1279.01 2002.95 1279.04C2002.93 1279.08 2002.9 1279.1 2002.86 1279.12C2002.83 1279.14 2002.79 1279.15 2002.75 1279.15H1990.22C1990.1 1279.15 1989.98 1279.11 1989.89 1279.05C1989.79 1278.98 1989.72 1278.89 1989.67 1278.79L1980.48 1258.45C1980.38 1258.23 1980.22 1258.05 1980.02 1257.93C1979.82 1257.8 1979.59 1257.73 1979.36 1257.74C1978.34 1257.73 1971.05 1257.72 1957.48 1257.72ZM1939.42 1246.72C1939.39 1246.8 1939.38 1246.88 1939.39 1246.97C1939.4 1247.05 1939.42 1247.13 1939.47 1247.2C1939.52 1247.27 1939.58 1247.33 1939.66 1247.37C1939.73 1247.41 1939.82 1247.43 1939.9 1247.43H1974.94C1975.02 1247.43 1975.1 1247.41 1975.18 1247.37C1975.25 1247.33 1975.32 1247.27 1975.36 1247.2C1975.41 1247.13 1975.44 1247.05 1975.45 1246.97C1975.46 1246.88 1975.45 1246.8 1975.41 1246.72L1957.88 1206.76C1957.84 1206.68 1957.77 1206.6 1957.69 1206.55C1957.61 1206.5 1957.52 1206.47 1957.42 1206.47C1957.32 1206.47 1957.23 1206.5 1957.15 1206.55C1957.06 1206.6 1957 1206.68 1956.96 1206.76L1939.42 1246.72Z" fill="black"/>
<path d="M2087.95 1278.85C2087.97 1278.88 2087.98 1278.91 2087.98 1278.94C2087.99 1278.97 2087.98 1279.01 2087.96 1279.04C2087.95 1279.06 2087.93 1279.09 2087.9 1279.11C2087.87 1279.12 2087.84 1279.13 2087.81 1279.13H2074.38C2074.25 1279.13 2074.13 1279.1 2074.03 1279.05C2073.92 1278.99 2073.83 1278.91 2073.77 1278.82L2055.71 1253.36C2055.58 1253.18 2055.41 1253.03 2055.22 1252.93C2055.02 1252.83 2054.8 1252.78 2054.57 1252.78H2029.45C2029.28 1252.78 2029.11 1252.85 2028.99 1252.97C2028.87 1253.09 2028.8 1253.25 2028.8 1253.42V1278.69C2028.8 1278.81 2028.75 1278.93 2028.66 1279.01C2028.57 1279.1 2028.45 1279.15 2028.32 1279.15H2016.43C2016.31 1279.15 2016.2 1279.1 2016.12 1279.02C2016.03 1278.94 2015.98 1278.83 2015.98 1278.72V1192.7C2015.98 1192.57 2016.04 1192.44 2016.13 1192.35C2016.23 1192.25 2016.36 1192.2 2016.5 1192.19C2026.65 1192.12 2038.73 1192.14 2052.74 1192.22C2072.87 1192.34 2087.53 1204.48 2086.3 1225.42C2085.63 1236.73 2079.61 1244.92 2068.25 1249.98C2068.18 1250.01 2068.11 1250.06 2068.06 1250.12C2068.01 1250.17 2067.98 1250.24 2067.96 1250.32C2067.93 1250.39 2067.93 1250.47 2067.94 1250.54C2067.96 1250.62 2067.99 1250.69 2068.03 1250.75L2087.95 1278.85ZM2028.75 1203.95L2028.82 1241.42C2028.82 1241.56 2028.88 1241.7 2028.98 1241.8C2029.08 1241.9 2029.22 1241.96 2029.36 1241.96L2052.77 1241.93C2058.26 1241.92 2063.53 1240.05 2067.41 1236.74C2071.28 1233.44 2073.46 1228.95 2073.45 1224.28V1220.95C2073.45 1218.64 2072.91 1216.35 2071.86 1214.21C2070.82 1212.08 2069.29 1210.14 2067.36 1208.51C2065.44 1206.87 2063.15 1205.58 2060.64 1204.7C2058.12 1203.82 2055.43 1203.37 2052.7 1203.37L2029.3 1203.4C2029.15 1203.4 2029.01 1203.46 2028.91 1203.56C2028.81 1203.67 2028.75 1203.8 2028.75 1203.95Z" fill="black"/>
<path d="M2177.95 1278.84C2177.97 1278.86 2177.98 1278.89 2177.98 1278.93C2177.99 1278.96 2177.98 1278.99 2177.96 1279.02C2177.95 1279.05 2177.93 1279.07 2177.9 1279.09C2177.87 1279.11 2177.84 1279.11 2177.81 1279.12H2164.39C2164.27 1279.12 2164.15 1279.09 2164.04 1279.03C2163.93 1278.98 2163.84 1278.9 2163.78 1278.8L2145.71 1253.35C2145.58 1253.17 2145.41 1253.02 2145.21 1252.92C2145.02 1252.82 2144.79 1252.77 2144.57 1252.77H2119.45C2119.28 1252.77 2119.12 1252.84 2119 1252.96C2118.88 1253.08 2118.81 1253.24 2118.81 1253.41V1278.67C2118.81 1278.79 2118.76 1278.91 2118.67 1279C2118.58 1279.08 2118.46 1279.13 2118.33 1279.13L2106.45 1279.15C2106.33 1279.15 2106.22 1279.1 2106.13 1279.02C2106.05 1278.94 2106 1278.83 2106 1278.72L2105.98 1192.7C2105.98 1192.57 2106.04 1192.44 2106.13 1192.35C2106.23 1192.25 2106.36 1192.2 2106.5 1192.19C2116.64 1192.12 2128.71 1192.14 2142.72 1192.22C2162.85 1192.34 2177.51 1204.47 2176.3 1225.41C2175.63 1236.72 2169.62 1244.9 2158.25 1249.95C2158.18 1249.99 2158.12 1250.03 2158.07 1250.09C2158.01 1250.15 2157.98 1250.22 2157.96 1250.3C2157.94 1250.37 2157.93 1250.45 2157.95 1250.52C2157.96 1250.6 2157.99 1250.67 2158.04 1250.73L2177.95 1278.84ZM2118.77 1203.95V1241.39C2118.77 1241.54 2118.83 1241.68 2118.94 1241.78C2119.04 1241.89 2119.19 1241.95 2119.34 1241.95H2142.64C2148.22 1241.95 2153.58 1240.04 2157.53 1236.64C2161.48 1233.24 2163.7 1228.63 2163.7 1223.82V1221.52C2163.7 1216.71 2161.48 1212.1 2157.53 1208.7C2153.58 1205.3 2148.22 1203.39 2142.64 1203.39H2119.34C2119.26 1203.39 2119.19 1203.41 2119.12 1203.44C2119.05 1203.46 2118.99 1203.51 2118.94 1203.56C2118.89 1203.61 2118.85 1203.67 2118.82 1203.74C2118.79 1203.81 2118.77 1203.88 2118.77 1203.95Z" fill="black"/>
<path d="M2301.68 1192.15L2313.36 1192.16C2313.52 1192.16 2313.68 1192.23 2313.79 1192.34C2313.91 1192.46 2313.97 1192.61 2313.97 1192.78L2313.87 1267.27C2313.87 1267.45 2313.94 1267.62 2314.07 1267.74C2314.2 1267.87 2314.37 1267.94 2314.55 1267.95L2360.17 1268.01C2360.39 1268.02 2360.59 1268.11 2360.74 1268.26C2360.89 1268.41 2360.98 1268.62 2360.98 1268.84V1278.34C2360.98 1278.55 2360.9 1278.76 2360.74 1278.91C2360.59 1279.06 2360.37 1279.15 2360.15 1279.15L2301.57 1279.07C2301.41 1279.07 2301.26 1279.01 2301.15 1278.9C2301.05 1278.79 2300.98 1278.64 2300.98 1278.49L2301.1 1192.74C2301.1 1192.59 2301.16 1192.44 2301.27 1192.33C2301.38 1192.22 2301.53 1192.15 2301.68 1192.15Z" fill="black"/>
<path d="M2388.56 1267.99H2434.27C2434.46 1267.99 2434.64 1268.07 2434.78 1268.2C2434.91 1268.33 2434.98 1268.51 2434.98 1268.7V1278.44C2434.98 1278.63 2434.91 1278.81 2434.78 1278.94C2434.64 1279.07 2434.46 1279.15 2434.27 1279.15H2375.7C2375.51 1279.15 2375.33 1279.07 2375.19 1278.94C2375.06 1278.81 2374.98 1278.63 2374.98 1278.44V1192.86C2374.98 1192.67 2375.06 1192.49 2375.19 1192.36C2375.33 1192.22 2375.51 1192.15 2375.7 1192.15H2387.13C2387.22 1192.15 2387.32 1192.17 2387.4 1192.2C2387.49 1192.24 2387.57 1192.29 2387.63 1192.36C2387.7 1192.42 2387.75 1192.5 2387.79 1192.59C2387.82 1192.67 2387.84 1192.76 2387.84 1192.86V1267.28C2387.84 1267.38 2387.86 1267.47 2387.9 1267.56C2387.93 1267.64 2387.99 1267.72 2388.05 1267.79C2388.12 1267.85 2388.2 1267.9 2388.28 1267.94C2388.37 1267.97 2388.46 1267.99 2388.56 1267.99Z" fill="black"/>
<path d="M2618.63 1249.54V1278.59C2618.63 1278.74 2618.57 1278.88 2618.47 1278.98C2618.36 1279.09 2618.22 1279.15 2618.07 1279.15H2606.39C2606.24 1279.15 2606.09 1279.09 2605.99 1278.98C2605.88 1278.88 2605.82 1278.74 2605.82 1278.59V1249.28C2605.82 1249.18 2605.79 1249.08 2605.74 1249L2572.07 1193.02C2572.02 1192.94 2571.99 1192.84 2571.98 1192.74C2571.98 1192.64 2572.01 1192.54 2572.06 1192.45C2572.1 1192.36 2572.18 1192.29 2572.26 1192.24C2572.35 1192.19 2572.45 1192.16 2572.55 1192.16H2585.06C2585.16 1192.16 2585.25 1192.19 2585.33 1192.23C2585.42 1192.28 2585.49 1192.35 2585.54 1192.43L2612.28 1236.88C2612.33 1236.96 2612.4 1237.03 2612.48 1237.07C2612.57 1237.12 2612.66 1237.15 2612.76 1237.15C2612.85 1237.15 2612.95 1237.12 2613.03 1237.07C2613.11 1237.03 2613.19 1236.96 2613.24 1236.88L2640.26 1192.41C2640.31 1192.33 2640.38 1192.26 2640.46 1192.22C2640.54 1192.17 2640.64 1192.15 2640.73 1192.15H2652.42C2652.52 1192.15 2652.62 1192.17 2652.71 1192.23C2652.79 1192.28 2652.86 1192.35 2652.91 1192.44C2652.96 1192.52 2652.99 1192.62 2652.98 1192.72C2652.98 1192.82 2652.95 1192.92 2652.9 1193.01L2618.72 1249.25C2618.66 1249.34 2618.63 1249.44 2618.63 1249.54Z" fill="black"/>
<path d="M2937.99 1252.14C2938.07 1252.14 2938.12 1252.14 2938.16 1252.13C2938.22 1252.11 2938.28 1252.09 2938.33 1252.06C2938.38 1252.03 2938.41 1252 2938.44 1251.96L2973.08 1192.94C2973.22 1192.7 2973.43 1192.5 2973.67 1192.36C2973.92 1192.22 2974.19 1192.15 2974.48 1192.15H2982.87C2983.16 1192.15 2983.45 1192.26 2983.66 1192.47C2983.87 1192.68 2983.98 1192.96 2983.98 1193.25V1278.6C2983.98 1278.74 2983.93 1278.88 2983.83 1278.98C2983.73 1279.08 2983.6 1279.13 2983.46 1279.13H2972.21C2972.06 1279.13 2971.92 1279.07 2971.82 1278.97C2971.71 1278.86 2971.65 1278.72 2971.65 1278.57V1218.54C2971.66 1218.46 2971.63 1218.38 2971.59 1218.32C2971.54 1218.25 2971.47 1218.2 2971.39 1218.18C2971.32 1218.16 2971.23 1218.16 2971.16 1218.19C2971.08 1218.22 2971.02 1218.28 2970.98 1218.35L2941.49 1267.92C2941.36 1268.15 2941.18 1268.34 2940.98 1268.5C2940.77 1268.65 2940.53 1268.77 2940.27 1268.83C2940.15 1268.86 2939.39 1268.88 2937.99 1268.88C2936.6 1268.88 2935.84 1268.86 2935.71 1268.83C2935.46 1268.76 2935.22 1268.65 2935.02 1268.5C2934.81 1268.34 2934.64 1268.14 2934.51 1267.92L2905.01 1218.36C2904.96 1218.29 2904.9 1218.24 2904.83 1218.21C2904.75 1218.18 2904.67 1218.17 2904.59 1218.2C2904.51 1218.22 2904.45 1218.27 2904.4 1218.33C2904.35 1218.4 2904.33 1218.48 2904.33 1218.56L2904.35 1278.59C2904.35 1278.74 2904.29 1278.88 2904.18 1278.98C2904.08 1279.09 2903.94 1279.15 2903.79 1279.15H2892.54C2892.4 1279.15 2892.27 1279.09 2892.17 1278.99C2892.07 1278.89 2892.02 1278.76 2892.02 1278.62L2891.98 1193.27C2891.98 1192.98 2892.1 1192.7 2892.31 1192.49C2892.52 1192.28 2892.8 1192.16 2893.1 1192.16H2901.49C2901.78 1192.16 2902.05 1192.24 2902.3 1192.38C2902.54 1192.51 2902.75 1192.71 2902.89 1192.96L2937.55 1251.96C2937.57 1252 2937.61 1252.03 2937.66 1252.06C2937.7 1252.09 2937.76 1252.11 2937.83 1252.13C2937.86 1252.14 2937.92 1252.14 2937.99 1252.14Z" fill="black"/>
<path d="M3023.35 1253.22C3023.17 1253.22 3023 1253.29 3022.88 1253.42C3022.75 1253.55 3022.68 1253.72 3022.68 1253.9V1278.69C3022.68 1278.81 3022.63 1278.93 3022.55 1279.01C3022.46 1279.1 3022.34 1279.15 3022.22 1279.15H3010.43C3010.31 1279.15 3010.2 1279.1 3010.11 1279.02C3010.03 1278.93 3009.98 1278.82 3009.98 1278.7V1192.84C3009.98 1192.66 3010.06 1192.49 3010.18 1192.36C3010.31 1192.23 3010.48 1192.16 3010.66 1192.16C3025.12 1192.14 3036.77 1192.15 3045.62 1192.18C3062.2 1192.23 3078.56 1200.8 3079.86 1219.03C3081.08 1236.03 3073.49 1246.88 3057.08 1251.57C3053.55 1252.58 3047.94 1253.11 3040.28 1253.14C3031.53 1253.18 3025.89 1253.21 3023.35 1253.22ZM3022.76 1203.89L3022.63 1241.06C3022.63 1241.2 3022.69 1241.34 3022.79 1241.44C3022.88 1241.54 3023.02 1241.59 3023.16 1241.59L3046.6 1241.68C3052.07 1241.7 3057.32 1239.85 3061.2 1236.54C3065.08 1233.24 3067.27 1228.74 3067.29 1224.04V1221.24C3067.3 1218.91 3066.78 1216.61 3065.75 1214.45C3064.72 1212.3 3063.21 1210.34 3061.3 1208.69C3059.39 1207.03 3057.12 1205.72 3054.62 1204.82C3052.12 1203.92 3049.44 1203.45 3046.73 1203.44L3023.29 1203.36C3023.15 1203.36 3023.01 1203.42 3022.92 1203.52C3022.82 1203.61 3022.76 1203.75 3022.76 1203.89Z" fill="black"/>
<path d="M3159.28 1192.15C3159.5 1192.15 3159.71 1192.24 3159.86 1192.39C3160.02 1192.54 3160.11 1192.75 3160.11 1192.97L3160.16 1202.42C3160.16 1202.53 3160.13 1202.65 3160.09 1202.75C3160.05 1202.86 3159.98 1202.95 3159.9 1203.04C3159.82 1203.12 3159.73 1203.18 3159.62 1203.22C3159.52 1203.27 3159.41 1203.29 3159.29 1203.29L3111.88 1203.32C3111.61 1203.32 3111.36 1203.43 3111.17 1203.61C3110.99 1203.8 3110.88 1204.05 3110.88 1204.31L3110.9 1228.68C3110.9 1228.95 3111.01 1229.21 3111.2 1229.4C3111.39 1229.59 3111.65 1229.7 3111.93 1229.7L3153.87 1229.66C3154.14 1229.66 3154.39 1229.77 3154.58 1229.95C3154.77 1230.14 3154.87 1230.39 3154.87 1230.65V1239.42C3154.87 1239.68 3154.77 1239.92 3154.58 1240.1C3154.4 1240.28 3154.15 1240.38 3153.89 1240.38L3112.03 1240.41C3111.74 1240.41 3111.46 1240.53 3111.25 1240.73C3111.05 1240.93 3110.93 1241.21 3110.93 1241.5L3110.95 1267.28C3110.95 1267.38 3110.97 1267.47 3111 1267.56C3111.04 1267.65 3111.1 1267.74 3111.17 1267.8C3111.24 1267.87 3111.32 1267.93 3111.41 1267.97C3111.5 1268 3111.6 1268.02 3111.7 1268.02L3161.1 1267.97C3161.21 1267.97 3161.33 1267.99 3161.43 1268.04C3161.53 1268.08 3161.62 1268.14 3161.7 1268.21C3161.78 1268.29 3161.84 1268.38 3161.89 1268.48C3161.93 1268.58 3161.95 1268.69 3161.95 1268.8L3161.98 1278.24C3161.98 1278.36 3161.96 1278.47 3161.92 1278.58C3161.88 1278.68 3161.81 1278.78 3161.73 1278.86C3161.65 1278.94 3161.56 1279.01 3161.45 1279.05C3161.35 1279.09 3161.23 1279.12 3161.12 1279.12L3098.63 1279.15C3098.48 1279.15 3098.34 1279.09 3098.23 1278.98C3098.13 1278.87 3098.07 1278.72 3098.07 1278.57L3097.98 1192.89C3097.98 1192.71 3098.06 1192.53 3098.19 1192.4C3098.32 1192.27 3098.5 1192.2 3098.68 1192.2L3159.28 1192.15Z" fill="black"/>
<path d="M3204.98 1279.15C3202.04 1279.15 3200.28 1279.14 3199.71 1279.13C3199.42 1279.12 3199.15 1279 3198.95 1278.8C3198.75 1278.59 3198.64 1278.31 3198.64 1278.03L3198.66 1204.15C3198.66 1203.92 3198.56 1203.7 3198.4 1203.54C3198.24 1203.38 3198.02 1203.29 3197.78 1203.29H3169.82C3169.6 1203.29 3169.39 1203.2 3169.23 1203.04C3169.07 1202.89 3168.98 1202.67 3168.98 1202.45V1192.99C3168.98 1192.77 3169.07 1192.55 3169.24 1192.39C3169.4 1192.24 3169.61 1192.15 3169.84 1192.15C3181.31 1192.15 3193.02 1192.15 3204.99 1192.15C3216.95 1192.15 3228.66 1192.15 3240.13 1192.15C3240.36 1192.15 3240.57 1192.24 3240.73 1192.39C3240.89 1192.55 3240.98 1192.77 3240.98 1192.99V1202.45C3240.98 1202.67 3240.9 1202.89 3240.74 1203.04C3240.58 1203.2 3240.37 1203.29 3240.15 1203.29H3212.18C3211.95 1203.29 3211.73 1203.38 3211.57 1203.54C3211.4 1203.7 3211.31 1203.92 3211.31 1204.15V1278.03C3211.31 1278.31 3211.2 1278.59 3211 1278.8C3210.8 1279 3210.53 1279.12 3210.24 1279.13C3209.67 1279.14 3207.92 1279.15 3204.98 1279.15Z" fill="black"/>
<path d="M3267.3 1192.15H3255.67C3255.29 1192.15 3254.98 1192.45 3254.98 1192.82V1278.47C3254.98 1278.85 3255.29 1279.15 3255.67 1279.15H3267.3C3267.68 1279.15 3267.98 1278.85 3267.98 1278.47V1192.82C3267.98 1192.45 3267.68 1192.15 3267.3 1192.15Z" fill="black"/>
<path d="M3317.02 1279.14C3314.07 1279.15 3312.32 1279.15 3311.76 1279.13C3311.47 1279.12 3311.2 1279 3311 1278.8C3310.8 1278.59 3310.69 1278.32 3310.68 1278.04L3310.65 1204.17C3310.65 1203.94 3310.56 1203.73 3310.4 1203.57C3310.24 1203.41 3310.02 1203.31 3309.79 1203.31L3281.83 1203.33C3281.61 1203.32 3281.4 1203.23 3281.24 1203.07C3281.09 1202.92 3281 1202.7 3281 1202.48L3280.98 1193.02C3280.98 1192.8 3281.07 1192.59 3281.24 1192.43C3281.4 1192.27 3281.61 1192.18 3281.84 1192.18C3293.31 1192.18 3305.02 1192.18 3316.98 1192.16C3328.96 1192.16 3340.67 1192.16 3352.13 1192.15C3352.24 1192.15 3352.35 1192.17 3352.46 1192.21C3352.56 1192.26 3352.66 1192.32 3352.74 1192.4C3352.82 1192.48 3352.88 1192.58 3352.92 1192.68C3352.97 1192.78 3352.99 1192.9 3352.98 1193.01V1202.47C3352.98 1202.69 3352.9 1202.91 3352.74 1203.06C3352.58 1203.22 3352.37 1203.31 3352.14 1203.31H3324.19C3323.96 1203.31 3323.74 1203.4 3323.57 1203.56C3323.41 1203.72 3323.32 1203.94 3323.32 1204.17L3323.35 1278.02C3323.35 1278.31 3323.24 1278.58 3323.04 1278.79C3322.84 1279 3322.57 1279.12 3322.28 1279.13C3321.72 1279.14 3319.96 1279.14 3317.02 1279.14Z" fill="black"/>
<path d="M3378.32 1192.15H3367.65C3367.28 1192.15 3366.98 1192.47 3366.98 1192.86V1278.44C3366.98 1278.83 3367.28 1279.15 3367.65 1279.15H3378.32C3378.69 1279.15 3378.98 1278.83 3378.98 1278.44V1192.86C3378.98 1192.47 3378.69 1192.15 3378.32 1192.15Z" fill="black"/>
<path d="M3503.26 1192.15H3491.7C3491.31 1192.15 3490.98 1192.47 3490.98 1192.86V1278.44C3490.98 1278.83 3491.31 1279.15 3491.7 1279.15H3503.26C3503.66 1279.15 3503.98 1278.83 3503.98 1278.44V1192.86C3503.98 1192.47 3503.66 1192.15 3503.26 1192.15Z" fill="black"/>
<path d="M3529.98 1192.69C3529.98 1192.55 3530.04 1192.41 3530.14 1192.31C3530.25 1192.21 3530.39 1192.15 3530.53 1192.15H3569.96C3581.64 1192.15 3592.84 1196.57 3601.09 1204.43C3609.35 1212.29 3613.98 1222.96 3613.98 1234.08V1237.22C3613.98 1248.34 3609.35 1259 3601.09 1266.87C3592.84 1274.73 3581.64 1279.15 3569.96 1279.15H3530.53C3530.39 1279.15 3530.25 1279.09 3530.14 1278.99C3530.04 1278.89 3529.98 1278.75 3529.98 1278.6V1192.69ZM3542.77 1203.89L3542.87 1267.51C3542.87 1267.65 3542.93 1267.78 3543.02 1267.88C3543.12 1267.98 3543.26 1268.04 3543.4 1268.04L3568.46 1267.99C3577.15 1267.97 3585.48 1264.63 3591.62 1258.69C3597.75 1252.75 3601.19 1244.7 3601.18 1236.31V1234.89C3601.18 1230.74 3600.32 1226.62 3598.67 1222.79C3597.02 1218.95 3594.6 1215.47 3591.55 1212.54C3588.5 1209.6 3584.88 1207.28 3580.9 1205.7C3576.93 1204.11 3572.66 1203.3 3568.36 1203.31L3543.3 1203.36C3543.16 1203.36 3543.02 1203.41 3542.93 1203.51C3542.83 1203.61 3542.77 1203.75 3542.77 1203.89Z" fill="black"/>
<path d="M3663.48 1192.15C3665.27 1192.15 3667.05 1192.2 3668.83 1192.3C3669.14 1192.31 3669.44 1192.41 3669.7 1192.59C3669.96 1192.77 3670.16 1193.02 3670.29 1193.3L3708.96 1278.82C3708.98 1278.85 3708.99 1278.89 3708.98 1278.93C3708.98 1278.97 3708.97 1279.01 3708.95 1279.04C3708.93 1279.08 3708.9 1279.1 3708.86 1279.12C3708.83 1279.14 3708.79 1279.15 3708.75 1279.15H3696.22C3696.1 1279.15 3695.99 1279.11 3695.89 1279.05C3695.79 1278.98 3695.72 1278.89 3695.68 1278.79L3686.47 1258.45C3686.37 1258.23 3686.21 1258.05 3686.02 1257.92C3685.82 1257.79 3685.59 1257.72 3685.35 1257.72C3684.33 1257.72 3677.04 1257.72 3663.48 1257.72C3649.93 1257.72 3642.64 1257.72 3641.62 1257.72C3641.38 1257.72 3641.15 1257.79 3640.95 1257.92C3640.75 1258.05 3640.6 1258.23 3640.5 1258.45L3631.29 1278.79C3631.25 1278.89 3631.17 1278.98 3631.08 1279.05C3630.98 1279.11 3630.87 1279.15 3630.75 1279.15H3618.22C3618.18 1279.15 3618.14 1279.14 3618.11 1279.12C3618.07 1279.1 3618.04 1279.08 3618.02 1279.04C3618 1279.01 3617.99 1278.97 3617.98 1278.93C3617.98 1278.89 3617.99 1278.85 3618.01 1278.82L3656.69 1193.3C3656.82 1193.02 3657.03 1192.77 3657.29 1192.59C3657.54 1192.41 3657.85 1192.31 3658.16 1192.3C3659.92 1192.2 3661.7 1192.15 3663.48 1192.15ZM3645.43 1246.67C3645.4 1246.75 3645.38 1246.84 3645.39 1246.93C3645.39 1247.02 3645.42 1247.1 3645.47 1247.17C3645.52 1247.25 3645.58 1247.31 3645.66 1247.35C3645.73 1247.39 3645.82 1247.42 3645.91 1247.42H3680.9C3680.98 1247.42 3681.07 1247.39 3681.15 1247.35C3681.22 1247.31 3681.29 1247.25 3681.33 1247.17C3681.38 1247.1 3681.41 1247.02 3681.42 1246.93C3681.42 1246.84 3681.41 1246.75 3681.37 1246.67L3663.88 1206.81C3663.84 1206.72 3663.77 1206.64 3663.68 1206.59C3663.6 1206.53 3663.5 1206.51 3663.4 1206.51C3663.3 1206.51 3663.2 1206.53 3663.12 1206.59C3663.04 1206.64 3662.97 1206.72 3662.93 1206.81L3645.43 1246.67Z" fill="black"/>
<path d="M3722.28 1192.74C3722.28 1192.58 3722.35 1192.43 3722.46 1192.32C3722.57 1192.21 3722.72 1192.15 3722.88 1192.15L3762.06 1192.3C3773.75 1192.34 3784.94 1196.8 3793.18 1204.7C3801.42 1212.6 3806.02 1223.29 3805.98 1234.42V1237.32C3805.97 1242.83 3804.81 1248.29 3802.57 1253.37C3800.34 1258.46 3797.08 1263.08 3792.97 1266.96C3788.87 1270.85 3783.99 1273.92 3778.64 1276.01C3773.28 1278.1 3767.55 1279.17 3761.76 1279.15L3722.58 1279C3722.42 1279 3722.27 1278.94 3722.16 1278.83C3722.05 1278.71 3721.98 1278.56 3721.98 1278.41L3722.28 1192.74ZM3735.09 1203.85L3734.86 1267.36C3734.86 1267.51 3734.92 1267.66 3735.02 1267.76C3735.13 1267.87 3735.27 1267.93 3735.42 1267.93L3760.19 1268.01C3764.51 1268.02 3768.79 1267.22 3772.79 1265.65C3776.79 1264.07 3780.43 1261.76 3783.49 1258.83C3786.56 1255.91 3789 1252.43 3790.66 1248.6C3792.33 1244.77 3793.2 1240.66 3793.21 1236.51V1235.1C3793.24 1226.71 3789.8 1218.66 3783.65 1212.71C3777.5 1206.76 3769.15 1203.4 3760.42 1203.37L3735.65 1203.29C3735.5 1203.29 3735.36 1203.35 3735.25 1203.45C3735.15 1203.56 3735.09 1203.7 3735.09 1203.85Z" fill="black"/>
<path d="M3870.32 1192.15H3859.65C3859.28 1192.15 3858.98 1192.47 3858.98 1192.86V1278.44C3858.98 1278.83 3859.28 1279.15 3859.65 1279.15H3870.32C3870.69 1279.15 3870.98 1278.83 3870.98 1278.44V1192.86C3870.98 1192.47 3870.69 1192.15 3870.32 1192.15Z" fill="black"/>
<path d="M3929.49 1239.53C3925.2 1234.17 3918.86 1226.34 3910.48 1216.04C3910.44 1215.99 3910.38 1215.95 3910.32 1215.94C3910.26 1215.92 3910.19 1215.92 3910.14 1215.94C3910.08 1215.96 3910.02 1216 3909.99 1216.05C3909.95 1216.1 3909.94 1216.16 3909.94 1216.22L3909.89 1278.54C3909.89 1278.69 3909.83 1278.83 3909.72 1278.94C3909.61 1279.05 3909.46 1279.11 3909.31 1279.12H3897.55C3897.47 1279.12 3897.4 1279.1 3897.33 1279.07C3897.26 1279.04 3897.2 1279 3897.15 1278.95C3897.1 1278.9 3897.06 1278.84 3897.03 1278.77C3897 1278.7 3896.98 1278.63 3896.98 1278.55L3897.03 1193.17C3897.04 1192.9 3897.15 1192.64 3897.34 1192.45C3897.53 1192.26 3897.79 1192.15 3898.06 1192.15H3906.36C3906.7 1192.15 3907.04 1192.22 3907.35 1192.37C3907.66 1192.52 3907.93 1192.73 3908.15 1192.99C3913.48 1199.42 3923.91 1212.34 3939.46 1231.77C3943.76 1237.13 3950.11 1244.96 3958.49 1255.26C3958.53 1255.31 3958.58 1255.34 3958.65 1255.36C3958.71 1255.38 3958.77 1255.38 3958.83 1255.36C3958.89 1255.34 3958.94 1255.3 3958.98 1255.25C3959.02 1255.2 3959.03 1255.14 3959.03 1255.08L3959.07 1192.76C3959.07 1192.68 3959.08 1192.61 3959.11 1192.54C3959.14 1192.47 3959.18 1192.4 3959.24 1192.35C3959.3 1192.3 3959.36 1192.25 3959.43 1192.23C3959.5 1192.2 3959.58 1192.18 3959.66 1192.18H3971.42C3971.57 1192.18 3971.71 1192.24 3971.82 1192.35C3971.93 1192.45 3971.98 1192.59 3971.98 1192.74L3971.93 1278.11C3971.93 1278.24 3971.91 1278.38 3971.86 1278.51C3971.8 1278.63 3971.73 1278.75 3971.63 1278.84C3971.53 1278.94 3971.42 1279.02 3971.29 1279.07C3971.16 1279.12 3971.03 1279.15 3970.89 1279.15H3962.61C3962.26 1279.15 3961.92 1279.08 3961.61 1278.93C3961.3 1278.78 3961.02 1278.57 3960.8 1278.31C3955.49 1271.88 3945.05 1258.95 3929.49 1239.53Z" fill="black"/>
<path d="M3997.98 1192.92C3997.98 1192.76 3998.05 1192.6 3998.17 1192.48C3998.28 1192.36 3998.44 1192.3 3998.61 1192.3L4037.66 1192.15C4043.33 1192.13 4048.95 1193.18 4054.19 1195.23C4059.44 1197.29 4064.21 1200.31 4068.24 1204.13C4072.26 1207.95 4075.46 1212.48 4077.64 1217.48C4079.83 1222.48 4080.97 1227.85 4080.98 1233.27V1237.59C4081.02 1248.53 4076.51 1259.04 4068.44 1266.81C4060.37 1274.57 4049.4 1278.96 4037.95 1279L3998.9 1279.15C3998.74 1279.15 3998.58 1279.08 3998.46 1278.96C3998.35 1278.85 3998.28 1278.69 3998.28 1278.52L3997.98 1192.92ZM4010.84 1203.94V1267.27C4010.84 1267.44 4010.91 1267.61 4011.03 1267.73C4011.15 1267.85 4011.31 1267.92 4011.48 1267.92H4036.06C4044.62 1267.92 4052.82 1264.67 4058.86 1258.89C4064.91 1253.11 4068.31 1245.27 4068.31 1237.09V1234.12C4068.31 1225.95 4064.91 1218.11 4058.86 1212.33C4052.82 1206.55 4044.62 1203.3 4036.06 1203.3H4011.48C4011.4 1203.3 4011.31 1203.31 4011.24 1203.35C4011.16 1203.38 4011.09 1203.43 4011.03 1203.49C4010.97 1203.55 4010.92 1203.62 4010.89 1203.7C4010.86 1203.77 4010.84 1203.86 4010.84 1203.94Z" fill="black"/>
<path d="M4136.51 1268.69C4150.46 1268.67 4159.32 1260.48 4160.22 1246.22C4160.55 1240.86 4160.6 1223.14 4160.38 1193.07C4160.38 1192.95 4160.4 1192.83 4160.45 1192.72C4160.49 1192.61 4160.56 1192.5 4160.64 1192.42C4160.72 1192.33 4160.82 1192.27 4160.93 1192.22C4161.04 1192.17 4161.16 1192.15 4161.28 1192.15H4172.07C4172.31 1192.15 4172.53 1192.24 4172.7 1192.41C4172.86 1192.58 4172.96 1192.8 4172.96 1193.04C4173.01 1226.15 4172.98 1243.81 4172.88 1246.02C4172.04 1263.41 4162.45 1276.73 4145.02 1279.28C4141 1279.86 4138.16 1280.15 4136.51 1280.15C4134.86 1280.15 4132.02 1279.86 4128 1279.28C4110.57 1276.74 4100.96 1263.44 4100.11 1246.06C4100 1243.84 4099.96 1226.18 4100 1193.07C4100 1192.83 4100.09 1192.61 4100.26 1192.44C4100.42 1192.27 4100.65 1192.18 4100.88 1192.18L4111.67 1192.16C4111.79 1192.16 4111.91 1192.19 4112.02 1192.24C4112.13 1192.28 4112.23 1192.35 4112.31 1192.44C4112.4 1192.52 4112.46 1192.62 4112.51 1192.73C4112.55 1192.85 4112.57 1192.97 4112.57 1193.09C4112.37 1223.16 4112.44 1240.88 4112.77 1246.24C4113.67 1260.5 4122.54 1268.69 4136.51 1268.69Z" fill="black"/>
<path d="M4297.97 1279.15C4295.03 1279.15 4293.28 1279.14 4292.72 1279.13C4292.43 1279.12 4292.16 1279 4291.96 1278.8C4291.76 1278.59 4291.65 1278.31 4291.65 1278.03V1204.16C4291.65 1203.94 4291.56 1203.72 4291.39 1203.56C4291.23 1203.4 4291.01 1203.31 4290.77 1203.31H4262.82C4262.6 1203.31 4262.39 1203.22 4262.23 1203.06C4262.07 1202.9 4261.98 1202.69 4261.98 1202.47V1193.01C4261.98 1192.89 4262 1192.78 4262.04 1192.68C4262.09 1192.57 4262.15 1192.48 4262.23 1192.4C4262.31 1192.32 4262.4 1192.26 4262.51 1192.21C4262.61 1192.17 4262.73 1192.15 4262.84 1192.15C4274.3 1192.16 4286.01 1192.16 4297.98 1192.16C4309.96 1192.16 4321.67 1192.16 4333.13 1192.16C4333.36 1192.16 4333.57 1192.25 4333.73 1192.41C4333.89 1192.57 4333.98 1192.78 4333.98 1193.01V1202.47C4333.98 1202.69 4333.9 1202.9 4333.74 1203.06C4333.58 1203.22 4333.37 1203.31 4333.14 1203.31H4305.18C4304.95 1203.31 4304.72 1203.4 4304.56 1203.56C4304.4 1203.72 4304.31 1203.94 4304.31 1204.16V1278.03C4304.31 1278.31 4304.19 1278.59 4303.99 1278.8C4303.79 1279 4303.52 1279.12 4303.24 1279.13C4302.66 1279.14 4300.91 1279.15 4297.97 1279.15Z" fill="black"/>
<path d="M4419.96 1278.87C4419.97 1278.9 4419.98 1278.93 4419.98 1278.96C4419.99 1278.99 4419.98 1279.02 4419.96 1279.05C4419.95 1279.08 4419.93 1279.1 4419.9 1279.12C4419.87 1279.14 4419.84 1279.15 4419.81 1279.15L4406.38 1279.13C4406.26 1279.13 4406.14 1279.1 4406.03 1279.05C4405.93 1278.99 4405.84 1278.91 4405.77 1278.82L4387.74 1253.35C4387.61 1253.17 4387.44 1253.02 4387.24 1252.92C4387.05 1252.82 4386.82 1252.77 4386.6 1252.77L4361.47 1252.75C4361.39 1252.75 4361.3 1252.77 4361.23 1252.8C4361.15 1252.84 4361.08 1252.88 4361.02 1252.94C4360.96 1253 4360.91 1253.07 4360.88 1253.15C4360.84 1253.23 4360.83 1253.31 4360.83 1253.4L4360.81 1278.65C4360.81 1278.78 4360.76 1278.89 4360.67 1278.98C4360.58 1279.07 4360.46 1279.12 4360.33 1279.12L4348.43 1279.1C4348.31 1279.1 4348.2 1279.05 4348.12 1278.97C4348.03 1278.89 4347.98 1278.78 4347.98 1278.67L4348.05 1192.69C4348.05 1192.56 4348.1 1192.43 4348.2 1192.33C4348.3 1192.24 4348.43 1192.18 4348.56 1192.18C4358.72 1192.12 4370.81 1192.14 4384.81 1192.24C4404.95 1192.38 4419.59 1204.52 4418.35 1225.45C4417.67 1236.76 4411.64 1244.93 4400.27 1249.98C4400.2 1250.02 4400.13 1250.06 4400.08 1250.12C4400.03 1250.18 4400 1250.25 4399.97 1250.32C4399.95 1250.4 4399.95 1250.48 4399.96 1250.55C4399.98 1250.63 4400.01 1250.7 4400.05 1250.76L4419.96 1278.87ZM4360.88 1203.94L4360.81 1241.32C4360.81 1241.48 4360.87 1241.63 4360.99 1241.74C4361.1 1241.85 4361.25 1241.92 4361.41 1241.92L4384.58 1241.95C4387.33 1241.95 4390.04 1241.5 4392.58 1240.62C4395.12 1239.73 4397.42 1238.44 4399.37 1236.8C4401.31 1235.16 4402.85 1233.22 4403.91 1231.07C4404.96 1228.93 4405.5 1226.63 4405.51 1224.31V1221.08C4405.52 1216.4 4403.32 1211.9 4399.41 1208.58C4395.5 1205.26 4390.19 1203.39 4384.65 1203.38L4361.47 1203.35C4361.31 1203.35 4361.16 1203.41 4361.05 1203.52C4360.94 1203.63 4360.88 1203.78 4360.88 1203.94Z" fill="black"/>
<path d="M4450.26 1192.15H4438.7C4438.31 1192.15 4437.98 1192.47 4437.98 1192.86V1278.44C4437.98 1278.83 4438.31 1279.15 4438.7 1279.15H4450.26C4450.66 1279.15 4450.98 1278.83 4450.98 1278.44V1192.86C4450.98 1192.47 4450.66 1192.15 4450.26 1192.15Z" fill="black"/>
<path d="M4509.49 1257.72C4495.92 1257.72 4488.63 1257.72 4487.61 1257.72C4487.38 1257.71 4487.15 1257.78 4486.95 1257.91C4486.75 1258.04 4486.59 1258.22 4486.49 1258.44L4477.29 1278.77C4477.24 1278.88 4477.17 1278.97 4477.07 1279.03C4476.98 1279.1 4476.86 1279.13 4476.75 1279.13H4464.22C4464.18 1279.13 4464.14 1279.12 4464.11 1279.11C4464.07 1279.09 4464.04 1279.06 4464.02 1279.03C4464 1278.99 4463.99 1278.96 4463.98 1278.92C4463.98 1278.88 4463.99 1278.84 4464.01 1278.8L4502.68 1193.3C4502.81 1193.02 4503.02 1192.77 4503.28 1192.59C4503.53 1192.41 4503.83 1192.31 4504.15 1192.3C4505.92 1192.2 4507.7 1192.15 4509.49 1192.15C4511.27 1192.15 4513.05 1192.2 4514.83 1192.3C4515.14 1192.31 4515.44 1192.41 4515.7 1192.59C4515.96 1192.77 4516.16 1193.02 4516.29 1193.3L4554.95 1278.8C4554.97 1278.84 4554.98 1278.88 4554.98 1278.92C4554.98 1278.96 4554.97 1279 4554.95 1279.04C4554.93 1279.07 4554.9 1279.1 4554.86 1279.12C4554.82 1279.14 4554.78 1279.15 4554.74 1279.15L4542.21 1279.13C4542.1 1279.13 4541.98 1279.1 4541.89 1279.03C4541.79 1278.97 4541.71 1278.88 4541.67 1278.77L4532.47 1258.44C4532.37 1258.22 4532.21 1258.04 4532.01 1257.91C4531.81 1257.78 4531.58 1257.71 4531.35 1257.72C4530.33 1257.72 4523.04 1257.72 4509.49 1257.72ZM4491.46 1246.6C4491.42 1246.69 4491.4 1246.79 4491.41 1246.88C4491.42 1246.98 4491.45 1247.07 4491.5 1247.15C4491.55 1247.22 4491.63 1247.29 4491.71 1247.33C4491.79 1247.38 4491.89 1247.4 4491.98 1247.39H4526.83C4526.92 1247.4 4527.02 1247.38 4527.1 1247.33C4527.19 1247.29 4527.26 1247.22 4527.31 1247.15C4527.36 1247.07 4527.4 1246.98 4527.4 1246.88C4527.41 1246.79 4527.39 1246.69 4527.36 1246.6L4509.92 1206.82C4509.87 1206.72 4509.8 1206.64 4509.71 1206.58C4509.62 1206.52 4509.51 1206.49 4509.41 1206.49C4509.3 1206.49 4509.19 1206.52 4509.1 1206.58C4509.01 1206.64 4508.94 1206.72 4508.9 1206.82L4491.46 1246.6Z" fill="black"/>
<path d="M4568.55 1192.16L4580.02 1192.15C4580.18 1192.15 4580.33 1192.21 4580.44 1192.33C4580.55 1192.44 4580.62 1192.6 4580.62 1192.76L4580.67 1267.32C4580.67 1267.5 4580.74 1267.67 4580.87 1267.8C4581 1267.92 4581.17 1267.99 4581.35 1267.99L4626.15 1267.94C4626.37 1267.94 4626.57 1268.03 4626.72 1268.18C4626.88 1268.34 4626.96 1268.55 4626.97 1268.77L4626.98 1278.28C4626.99 1278.38 4626.97 1278.49 4626.93 1278.59C4626.89 1278.69 4626.83 1278.78 4626.75 1278.86C4626.68 1278.93 4626.59 1278.99 4626.49 1279.04C4626.39 1279.08 4626.28 1279.1 4626.17 1279.1L4568.62 1279.15C4568.47 1279.15 4568.32 1279.09 4568.22 1278.98C4568.11 1278.87 4568.05 1278.72 4568.05 1278.57L4567.98 1192.76C4567.98 1192.6 4568.04 1192.46 4568.15 1192.34C4568.26 1192.23 4568.4 1192.17 4568.55 1192.16Z" fill="black"/>
</svg>
