<svg width="2765" height="1379" viewBox="0 0 2765 1379" fill="none" xmlns="http://www.w3.org/2000/svg">
<path d="M1382.69 61C1382.85 61 1383.02 61.0098 1383.19 61.0293C1383.36 61.0541 1383.52 61.139 1383.63 61.2683C1383.74 61.3976 1383.8 61.5626 1383.8 61.7327V82.7035C1383.8 82.9833 1383.91 83.2517 1384.11 83.4496C1384.31 83.6475 1384.58 83.7586 1384.86 83.7586H1391.83C1392.09 83.7586 1392.33 83.6583 1392.51 83.4796C1392.68 83.301 1392.79 83.0587 1392.79 82.8061V80.0364C1392.79 79.7487 1392.9 79.4729 1393.1 79.2695C1393.31 79.0662 1393.58 78.9519 1393.87 78.9519H1394.66C1394.94 78.9519 1395.21 79.0631 1395.41 79.2609C1395.6 79.4588 1395.72 79.7272 1395.72 80.007V84.3741C1395.72 84.5995 1395.63 84.8157 1395.47 84.9751C1395.31 85.1345 1395.09 85.2241 1394.87 85.2241H1384.39C1384.29 85.2241 1384.19 85.2442 1384.09 85.2832C1384 85.3222 1383.91 85.3795 1383.84 85.4516C1383.77 85.5237 1383.71 85.6093 1383.67 85.7036C1383.63 85.7978 1383.61 85.8988 1383.61 86.0008V91.4816C1383.61 91.7152 1383.7 91.9398 1383.86 92.109C1384.02 92.2782 1384.23 92.3789 1384.46 92.3902C1408.76 93.8996 1426.68 113.625 1426.9 137.805C1426.9 138.028 1426.81 138.242 1426.66 138.401C1426.5 138.56 1426.29 138.651 1426.06 138.655C1423.65 138.694 1409.19 138.713 1382.69 138.713C1356.19 138.723 1341.74 138.704 1339.33 138.655C1339.11 138.651 1338.9 138.562 1338.74 138.406C1338.59 138.25 1338.5 138.04 1338.49 137.82C1338.7 113.639 1356.62 93.8996 1380.92 92.3902C1381.15 92.3789 1381.36 92.2782 1381.52 92.109C1381.68 91.9398 1381.77 91.7152 1381.77 91.4816V86.0008C1381.77 85.8988 1381.75 85.7978 1381.71 85.7036C1381.67 85.6093 1381.61 85.5237 1381.54 85.4516C1381.47 85.3795 1381.38 85.3222 1381.29 85.2832C1381.19 85.2442 1381.09 85.2241 1380.99 85.2241H1370.51C1370.29 85.2241 1370.07 85.1345 1369.91 84.9751C1369.75 84.8157 1369.66 84.5995 1369.66 84.3741V80.007C1369.66 79.7272 1369.77 79.4588 1369.97 79.2609C1370.17 79.0631 1370.44 78.9519 1370.72 78.9519H1371.51C1371.8 78.9519 1372.07 79.0662 1372.27 79.2695C1372.48 79.4729 1372.59 79.7487 1372.59 80.0364V82.8061C1372.59 83.0587 1372.69 83.301 1372.87 83.4796C1373.05 83.6583 1373.29 83.7586 1373.54 83.7586H1380.52C1380.8 83.7586 1381.07 83.6475 1381.27 83.4496C1381.46 83.2517 1381.57 82.9833 1381.57 82.7035V61.7327C1381.57 61.5626 1381.64 61.3976 1381.75 61.2683C1381.86 61.139 1382.02 61.0541 1382.19 61.0293C1382.35 61.0098 1382.51 61 1382.69 61Z" fill="#1F3C73"/>
<path d="M1438.34 143.844H1326.71C1324.95 143.844 1323.52 145.274 1323.52 147.038V149.442C1323.52 151.206 1324.95 152.637 1326.71 152.637H1438.34C1440.11 152.637 1441.54 151.206 1441.54 149.442V147.038C1441.54 145.274 1440.11 143.844 1438.34 143.844Z" fill="#1F3C73"/>
<path d="M1359.35 156.988H1347.86C1345.96 156.988 1344.43 158.524 1344.43 160.417V219.886C1344.43 221.78 1345.96 223.315 1347.86 223.315H1359.35C1361.24 223.315 1362.78 221.78 1362.78 219.886V160.417C1362.78 158.524 1361.24 156.988 1359.35 156.988Z" fill="#1F3C73"/>
<path d="M1388.62 157.02H1376.78C1375.09 157.02 1373.72 158.391 1373.72 160.082V220.254C1373.72 221.946 1375.09 223.317 1376.78 223.317H1388.62C1390.31 223.317 1391.68 221.946 1391.68 220.254V160.082C1391.68 158.391 1390.31 157.02 1388.62 157.02Z" fill="#1F3C73"/>
<path d="M1417.19 157.004H1405.76C1403.85 157.004 1402.31 158.546 1402.31 160.448V219.858C1402.31 221.76 1403.85 223.301 1405.76 223.301H1417.19C1419.09 223.301 1420.63 221.76 1420.63 219.858V160.448C1420.63 158.546 1419.09 157.004 1417.19 157.004Z" fill="#1F3C73"/>
<path d="M1438.71 229.953H1326.52C1324.93 229.953 1323.63 231.246 1323.63 232.84V235.478C1323.63 237.072 1324.93 238.365 1326.52 238.365H1438.71C1440.31 238.365 1441.6 237.072 1441.6 235.478V232.84C1441.6 231.246 1440.31 229.953 1438.71 229.953Z" fill="#1F3C73"/>
<path d="M1289.55 247.788C1274.02 257.558 1259.26 269.228 1245.26 282.798C1228.22 299.319 1213.69 316.899 1201.68 335.54C1175.95 375.498 1157.81 418.368 1147.27 464.149C1142.8 483.522 1139.8 507.116 1137.81 527.559C1137.79 527.72 1137.72 527.869 1137.6 527.977C1137.49 528.086 1137.33 528.146 1137.18 528.146H1095.02C1094.82 528.146 1094.63 528.106 1094.45 528.03C1094.27 527.953 1094.11 527.841 1093.97 527.699C1093.84 527.558 1093.74 527.391 1093.67 527.208C1093.6 527.025 1093.57 526.831 1093.58 526.636C1097.61 448.644 1125.67 381.316 1177.75 324.651C1208.3 291.415 1245.52 265.701 1289.4 247.51C1289.44 247.5 1289.47 247.503 1289.51 247.517C1289.54 247.532 1289.57 247.558 1289.59 247.59C1289.6 247.622 1289.61 247.66 1289.6 247.696C1289.6 247.732 1289.58 247.764 1289.55 247.788Z" fill="#1F3C73"/>
<path d="M1476.36 247.51C1520.2 265.671 1557.39 291.346 1587.92 324.534C1639.98 381.13 1668.04 448.385 1672.09 526.299C1672.1 526.494 1672.07 526.688 1672.01 526.871C1671.94 527.054 1671.83 527.221 1671.7 527.362C1671.57 527.503 1671.4 527.616 1671.22 527.693C1671.05 527.769 1670.85 527.809 1670.66 527.809L1628.54 527.823C1628.38 527.823 1628.23 527.763 1628.12 527.655C1628 527.546 1627.93 527.397 1627.91 527.237C1625.92 506.823 1622.9 483.244 1618.43 463.9C1607.88 418.167 1589.74 375.342 1564.02 335.423C1552.02 316.811 1537.51 299.255 1520.47 282.754C1506.48 269.203 1491.73 257.548 1476.21 247.788C1476.19 247.764 1476.17 247.732 1476.16 247.696C1476.15 247.66 1476.16 247.622 1476.17 247.59C1476.19 247.558 1476.22 247.532 1476.25 247.517C1476.29 247.503 1476.32 247.5 1476.36 247.51Z" fill="#1F3C73"/>
<path d="M1332.09 257.313C1317.82 272.466 1305.49 289.29 1295.09 307.784C1257.16 375.137 1241.75 450.373 1242.64 527.501C1242.64 527.683 1242.57 527.859 1242.44 527.988C1242.31 528.117 1242.13 528.189 1241.95 528.189H1166.34C1166.26 528.19 1166.19 528.175 1166.12 528.145C1166.05 528.116 1165.99 528.073 1165.94 528.019C1165.89 527.965 1165.85 527.901 1165.83 527.832C1165.81 527.763 1165.8 527.69 1165.81 527.618C1170.03 478.686 1180.24 432.524 1202.4 389.073C1207.61 378.864 1214.93 366.407 1224.37 351.704C1250.19 311.477 1287.57 276.145 1331.68 256.727C1331.75 256.695 1331.84 256.69 1331.92 256.714C1332 256.737 1332.07 256.787 1332.12 256.855C1332.17 256.924 1332.19 257.007 1332.18 257.09C1332.18 257.173 1332.14 257.252 1332.09 257.313Z" fill="#1F3C73"/>
<path d="M1433.53 257.196C1433.48 257.135 1433.44 257.056 1433.44 256.973C1433.43 256.889 1433.46 256.807 1433.5 256.738C1433.55 256.67 1433.62 256.62 1433.7 256.597C1433.78 256.573 1433.87 256.578 1433.94 256.61C1478.04 275.998 1515.44 311.301 1541.27 351.499C1550.71 366.192 1558.03 378.639 1563.25 388.839C1585.42 432.26 1595.65 478.408 1599.9 527.325C1599.91 527.397 1599.9 527.47 1599.88 527.539C1599.86 527.608 1599.82 527.672 1599.77 527.726C1599.72 527.779 1599.66 527.823 1599.59 527.852C1599.52 527.882 1599.45 527.897 1599.37 527.896L1523.79 527.926C1523.61 527.926 1523.43 527.853 1523.3 527.724C1523.17 527.595 1523.1 527.42 1523.1 527.237C1523.95 450.139 1508.49 374.931 1470.55 307.623C1460.14 289.148 1447.8 272.339 1433.53 257.196Z" fill="#1F3C73"/>
<path d="M1368.27 262.768V527.65C1368.27 527.798 1368.21 527.939 1368.11 528.044C1368 528.148 1367.86 528.207 1367.71 528.207H1270.6C1270.59 528.207 1270.57 528.204 1270.56 528.199C1270.55 528.194 1270.54 528.186 1270.53 528.177C1270.52 528.167 1270.51 528.156 1270.51 528.143C1270.5 528.131 1270.5 528.118 1270.5 528.104C1269.91 480.789 1276.38 434.915 1289.91 390.483C1304.45 342.738 1329.55 294.993 1367.36 262.357C1367.44 262.29 1367.54 262.246 1367.65 262.232C1367.75 262.217 1367.86 262.233 1367.95 262.276C1368.05 262.319 1368.13 262.388 1368.19 262.475C1368.24 262.562 1368.27 262.664 1368.27 262.768Z" fill="#1F3C73"/>
<path d="M1397.53 262.736C1397.53 262.633 1397.56 262.531 1397.61 262.444C1397.67 262.357 1397.75 262.288 1397.84 262.245C1397.94 262.201 1398.05 262.186 1398.15 262.201C1398.26 262.215 1398.36 262.259 1398.44 262.326C1436.21 294.977 1461.27 342.707 1475.77 390.451C1489.27 434.865 1495.71 480.719 1495.09 528.014C1495.09 528.042 1495.08 528.068 1495.06 528.087C1495.05 528.106 1495.02 528.117 1494.99 528.117L1397.92 528.058C1397.78 528.058 1397.63 528 1397.53 527.895C1397.43 527.791 1397.37 527.649 1397.37 527.501L1397.53 262.736Z" fill="#1F3C73"/>
<path d="M1382.72 536.587C1391.62 536.587 1396.27 536.602 1396.68 536.631C1397.36 536.668 1398 536.963 1398.46 537.454C1398.93 537.944 1399.19 538.594 1399.19 539.269L1399.23 548.501C1399.23 548.645 1399.29 548.783 1399.39 548.885C1399.49 548.986 1399.62 549.043 1399.76 549.043H1491.49C1491.63 549.044 1491.77 549.016 1491.89 548.963C1492.02 548.909 1492.13 548.831 1492.23 548.733C1492.33 548.634 1492.4 548.518 1492.45 548.39C1492.5 548.262 1492.52 548.125 1492.52 547.988C1492.37 543.929 1490.92 536.514 1496.1 536.543C1505.97 536.602 1514.25 536.607 1520.92 536.558C1524.7 536.528 1525.67 537.466 1525.51 541.101C1525.39 543.885 1525.37 546.215 1525.45 548.091C1525.46 548.348 1525.57 548.59 1525.75 548.767C1525.94 548.945 1526.19 549.044 1526.44 549.043H1595.76C1595.99 549.044 1596.21 548.953 1596.38 548.792C1596.55 548.631 1596.64 548.411 1596.65 548.179C1596.73 545.551 1596.72 543.284 1596.64 541.379C1596.48 538.302 1597.02 536.572 1600.46 536.572C1616.38 536.582 1625.14 536.597 1626.77 536.616C1627.49 536.62 1628.18 536.909 1628.68 537.42C1629.19 537.931 1629.48 538.622 1629.48 539.342V548.208C1629.48 548.426 1629.56 548.635 1629.72 548.788C1629.88 548.942 1630.09 549.029 1630.31 549.029H1685.57C1686.38 549.029 1687.15 549.35 1687.72 549.922C1688.29 550.493 1688.61 551.269 1688.61 552.077L1688.59 555.916C1688.58 556.272 1688.51 556.622 1688.37 556.948C1688.22 557.273 1688.02 557.567 1687.76 557.811C1687.51 558.055 1687.2 558.246 1686.87 558.371C1686.54 558.496 1686.19 558.553 1685.84 558.54C1683.92 558.559 1582.88 558.569 1382.72 558.569C1182.56 558.569 1081.53 558.564 1079.61 558.554C1079.26 558.568 1078.91 558.511 1078.58 558.385C1078.25 558.26 1077.94 558.07 1077.69 557.826C1077.43 557.581 1077.22 557.288 1077.08 556.962C1076.94 556.637 1076.86 556.286 1076.86 555.931L1076.84 552.092C1076.84 551.691 1076.92 551.295 1077.07 550.925C1077.23 550.555 1077.45 550.219 1077.73 549.936C1078.01 549.653 1078.35 549.429 1078.72 549.275C1079.08 549.122 1079.48 549.043 1079.88 549.043H1135.14C1135.36 549.043 1135.57 548.957 1135.73 548.803C1135.88 548.649 1135.97 548.44 1135.97 548.223V539.357C1135.97 538.636 1136.26 537.945 1136.77 537.435C1137.27 536.924 1137.96 536.635 1138.68 536.631C1140.31 536.602 1149.07 536.582 1164.99 536.572C1168.43 536.572 1168.97 538.302 1168.81 541.379C1168.72 543.284 1168.72 545.551 1168.8 548.179C1168.81 548.411 1168.9 548.631 1169.07 548.792C1169.24 548.953 1169.46 549.044 1169.69 549.043H1239.01C1239.26 549.044 1239.51 548.945 1239.69 548.767C1239.88 548.59 1239.99 548.348 1240 548.091C1240.08 546.215 1240.06 543.885 1239.94 541.101C1239.78 537.466 1240.75 536.528 1244.53 536.558C1251.2 536.607 1259.48 536.602 1269.35 536.543C1274.53 536.514 1273.08 543.929 1272.93 547.988C1272.93 548.125 1272.95 548.262 1273 548.39C1273.05 548.518 1273.12 548.634 1273.22 548.733C1273.31 548.831 1273.43 548.909 1273.56 548.963C1273.68 549.016 1273.82 549.044 1273.95 549.043H1365.69C1365.83 549.043 1365.96 548.986 1366.06 548.885C1366.16 548.783 1366.22 548.645 1366.22 548.501L1366.26 539.269C1366.26 538.594 1366.52 537.944 1366.99 537.454C1367.45 536.963 1368.09 536.668 1368.77 536.631C1369.18 536.602 1373.83 536.587 1382.72 536.587Z" fill="#1F3C73"/>
<path d="M1165.51 568.118L1139.43 568.072C1137.54 568.069 1136.01 569.595 1136.01 571.481L1135.96 597.566C1135.96 599.452 1137.49 600.983 1139.37 600.987L1165.46 601.032C1167.34 601.035 1168.87 599.509 1168.88 597.624L1168.92 571.538C1168.93 569.653 1167.4 568.121 1165.51 568.118Z" fill="#1F3C73"/>
<path d="M1269.5 568.074L1243.44 568.119C1241.54 568.122 1240 569.667 1240.01 571.569L1240.05 597.625C1240.05 599.527 1241.6 601.066 1243.5 601.063L1269.56 601.017C1271.46 601.014 1273 599.469 1272.99 597.567L1272.95 571.511C1272.94 569.609 1271.4 568.07 1269.5 568.074Z" fill="#1F3C73"/>
<path d="M1395.96 568.134L1369.85 568.088C1367.96 568.085 1366.42 569.617 1366.42 571.511L1366.37 597.626C1366.37 599.52 1367.9 601.058 1369.79 601.061L1395.91 601.106C1397.8 601.11 1399.34 599.577 1399.34 597.683L1399.39 571.569C1399.39 569.675 1397.86 568.137 1395.96 568.134Z" fill="#1F3C73"/>
<path d="M1522.02 568.101L1495.82 568.146C1493.95 568.15 1492.45 569.661 1492.45 571.523L1492.5 597.725C1492.5 599.587 1494.01 601.093 1495.87 601.09L1522.07 601.044C1523.94 601.041 1525.44 599.529 1525.44 597.668L1525.39 571.465C1525.39 569.604 1523.88 568.097 1522.02 568.101Z" fill="#1F3C73"/>
<path d="M1626.56 568.22L1599.83 568.173C1598.17 568.17 1596.83 569.513 1596.82 571.172L1596.78 597.902C1596.77 599.561 1598.12 600.909 1599.78 600.912L1626.5 600.958C1628.16 600.961 1629.51 599.618 1629.51 597.959L1629.56 571.229C1629.56 569.57 1628.22 568.223 1626.56 568.22Z" fill="#1F3C73"/>
<path d="M1685.5 608.441H1080.26C1078.45 608.441 1076.98 609.911 1076.98 611.724V626.76C1076.98 628.573 1078.45 630.042 1080.26 630.042H1685.5C1687.31 630.042 1688.78 628.573 1688.78 626.76V611.724C1688.78 609.911 1687.31 608.441 1685.5 608.441Z" fill="#1F3C73"/>
<path d="M837.276 733.311C824.571 721.881 803.953 719.902 790.823 731.728C780.711 740.844 776.931 755.337 780.228 768.57C787.042 795.916 815.412 801.353 836.997 786.683C837.255 786.507 837.465 786.273 837.611 786C837.756 785.726 837.832 785.423 837.833 785.115V765.478C837.833 765.295 837.762 765.12 837.635 764.991C837.509 764.862 837.337 764.789 837.159 764.789H812.349C812.178 764.789 812.014 764.721 811.893 764.6C811.772 764.48 811.704 764.316 811.704 764.145V756.7C811.704 756.513 811.779 756.334 811.911 756.203C812.042 756.071 812.221 755.997 812.408 755.997H845.936C846.185 755.997 846.424 756.095 846.599 756.271C846.775 756.447 846.874 756.686 846.874 756.934V789.453C846.875 789.736 846.811 790.015 846.69 790.269C846.568 790.523 846.39 790.745 846.171 790.918C831.732 802.447 815.935 805.91 798.78 801.309C774.088 794.685 763.625 766.138 771.919 743.203C778.66 724.562 795.321 714.04 815.397 714.949C826.153 715.447 835.517 719.121 843.489 725.969C843.579 726.046 843.635 726.155 843.646 726.272C843.657 726.39 843.622 726.507 843.548 726.599L837.95 733.267C837.91 733.314 837.861 733.353 837.805 733.381C837.75 733.409 837.689 733.425 837.626 733.429C837.564 733.433 837.5 733.425 837.44 733.405C837.38 733.384 837.324 733.353 837.276 733.311Z" fill="#1F3C73"/>
<path d="M922.172 714.862C933.724 715.893 944.386 721.541 951.814 730.565C959.242 739.588 962.827 751.247 961.78 762.977C961.262 768.785 959.622 774.436 956.954 779.606C954.286 784.777 950.643 789.366 946.232 793.112C941.821 796.858 936.729 799.687 931.246 801.438C925.764 803.189 919.998 803.828 914.278 803.317C902.727 802.286 892.065 796.638 884.637 787.615C877.209 778.591 873.624 766.932 874.671 755.202C875.189 749.394 876.829 743.744 879.497 738.573C882.164 733.402 885.808 728.813 890.219 725.067C894.63 721.321 899.722 718.492 905.204 716.741C910.687 714.99 916.453 714.351 922.172 714.862ZM916.48 723.697C907.544 724.134 899.156 728.282 893.162 735.229C887.168 742.175 884.058 751.351 884.517 760.737C884.976 770.124 888.967 778.953 895.61 785.281C902.253 791.61 911.006 794.919 919.942 794.482C928.878 794.045 937.265 789.897 943.259 782.951C949.253 776.004 952.363 766.828 951.904 757.442C951.445 748.055 947.455 739.226 940.811 732.898C934.168 726.57 925.416 723.26 916.48 723.697Z" fill="#1F3C73"/>
<path d="M1474.71 714.869C1480.43 715.389 1485.99 717.048 1491.07 719.751C1496.15 722.455 1500.65 726.149 1504.32 730.623C1507.99 735.097 1510.76 740.264 1512.46 745.829C1514.16 751.393 1514.76 757.246 1514.23 763.053C1513.71 768.86 1512.06 774.508 1509.38 779.674C1506.7 784.84 1503.05 789.422 1498.63 793.161C1494.22 796.899 1489.12 799.719 1483.63 801.461C1478.15 803.202 1472.38 803.831 1466.66 803.31C1460.94 802.79 1455.38 801.131 1450.3 798.427C1445.22 795.724 1440.72 792.03 1437.05 787.556C1433.38 783.081 1430.61 777.915 1428.91 772.35C1427.21 766.786 1426.61 760.933 1427.14 755.126C1427.67 749.319 1429.32 743.671 1431.99 738.505C1434.67 733.339 1438.32 728.756 1442.74 725.018C1447.16 721.28 1452.25 718.46 1457.74 716.718C1463.22 714.977 1468.99 714.348 1474.71 714.869ZM1468.94 723.697C1460 724.134 1451.62 728.282 1445.62 735.228C1439.63 742.175 1436.52 751.351 1436.98 760.737C1437.44 770.124 1441.43 778.953 1448.07 785.281C1454.71 791.609 1463.47 794.919 1472.4 794.482C1481.34 794.045 1489.73 789.897 1495.72 782.95C1501.71 776.004 1504.82 766.828 1504.36 757.442C1503.91 748.055 1499.92 739.226 1493.27 732.898C1486.63 726.57 1477.88 723.26 1468.94 723.697Z" fill="#1F3C73"/>
<path d="M1956.51 715.785C1957.72 715.785 1958.94 715.8 1960.16 715.829C1960.43 715.834 1960.69 715.917 1960.92 716.068C1961.15 716.218 1961.32 716.43 1961.43 716.679L1999.74 801.573C1999.75 801.605 1999.76 801.64 1999.76 801.675C1999.76 801.71 1999.74 801.744 1999.73 801.773C1999.71 801.803 1999.68 801.826 1999.65 801.843C1999.62 801.859 1999.58 801.867 1999.55 801.866H1990.21C1990.1 801.866 1989.98 801.832 1989.89 801.769C1989.79 801.707 1989.71 801.618 1989.67 801.515L1979.85 779.767C1979.76 779.568 1979.61 779.398 1979.43 779.279C1979.24 779.16 1979.03 779.095 1978.81 779.093C1977.89 779.083 1970.44 779.069 1956.44 779.049C1942.44 779.03 1934.98 779.025 1934.06 779.035C1933.84 779.037 1933.63 779.101 1933.44 779.22C1933.26 779.34 1933.11 779.509 1933.02 779.709L1923.14 801.441C1923.1 801.545 1923.02 801.634 1922.93 801.696C1922.83 801.759 1922.72 801.792 1922.6 801.793L1913.27 801.764C1913.23 801.765 1913.2 801.757 1913.16 801.74C1913.13 801.724 1913.11 801.7 1913.09 801.671C1913.07 801.641 1913.06 801.607 1913.06 801.572C1913.05 801.537 1913.06 801.502 1913.07 801.471L1951.59 716.664C1951.69 716.416 1951.87 716.204 1952.1 716.053C1952.32 715.902 1952.59 715.82 1952.86 715.814C1954.08 715.795 1955.3 715.785 1956.51 715.785ZM1937.08 769.905C1937.04 769.981 1937.03 770.064 1937.03 770.147C1937.04 770.23 1937.07 770.31 1937.11 770.38C1937.16 770.45 1937.22 770.508 1937.29 770.547C1937.37 770.587 1937.45 770.608 1937.53 770.608L1975.03 770.681C1975.12 770.681 1975.2 770.661 1975.27 770.621C1975.34 770.581 1975.41 770.523 1975.45 770.453C1975.5 770.383 1975.52 770.303 1975.53 770.22C1975.54 770.137 1975.52 770.054 1975.49 769.978L1956.8 728.022C1956.76 727.934 1956.7 727.86 1956.62 727.808C1956.54 727.756 1956.44 727.728 1956.35 727.728C1956.25 727.728 1956.16 727.756 1956.08 727.808C1956 727.86 1955.93 727.934 1955.89 728.022L1937.08 769.905Z" fill="#1F3C73"/>
<path d="M1042.71 757.097C1042.64 757.133 1042.58 757.188 1042.54 757.256C1042.5 757.324 1042.48 757.402 1042.48 757.481C1042.49 757.559 1042.51 757.636 1042.56 757.7C1042.6 757.765 1042.67 757.815 1042.74 757.845C1045.64 758.9 1048.12 760.009 1050.17 761.171C1059.11 766.242 1062.13 775.577 1059.06 785.586C1055.59 796.885 1042.86 801.398 1031.93 801.779C1029.53 801.858 1016.18 801.867 991.861 801.809C991.714 801.809 991.572 801.75 991.468 801.646C991.363 801.541 991.305 801.399 991.305 801.252V716.9C991.305 716.791 991.348 716.687 991.425 716.61C991.502 716.533 991.606 716.489 991.715 716.489C1006.25 716.372 1019.39 716.392 1031.13 716.548C1042.48 716.695 1054.61 723.568 1055.34 736.244C1055.92 746.141 1051.71 753.092 1042.71 757.097ZM1000.74 725.282V753.976C1000.74 754.104 1000.79 754.227 1000.88 754.318C1000.97 754.409 1001.1 754.46 1001.23 754.46H1027.97C1032.72 754.46 1037.27 752.934 1040.63 750.219C1043.99 747.504 1045.88 743.821 1045.88 739.981V739.277C1045.88 735.437 1043.99 731.755 1040.63 729.039C1037.27 726.324 1032.72 724.799 1027.97 724.799H1001.23C1001.1 724.799 1000.97 724.85 1000.88 724.94C1000.79 725.031 1000.74 725.154 1000.74 725.282ZM1000.77 763.428L1000.71 792.532C1000.71 792.661 1000.76 792.784 1000.85 792.874C1000.94 792.965 1001.07 793.016 1001.2 793.016L1031.34 793.075C1033.85 793.079 1036.34 792.717 1038.67 792.008C1040.99 791.299 1043.1 790.258 1044.88 788.943C1046.66 787.628 1048.08 786.066 1049.04 784.346C1050.01 782.626 1050.5 780.782 1050.51 778.918V777.218C1050.51 773.457 1048.5 769.847 1044.92 767.181C1041.34 764.516 1036.47 763.013 1031.4 763.003L1001.25 762.945C1001.19 762.945 1001.13 762.957 1001.07 762.981C1001.01 763.006 1000.96 763.041 1000.91 763.086C1000.87 763.131 1000.83 763.184 1000.81 763.243C1000.78 763.302 1000.77 763.365 1000.77 763.428Z" fill="#1F3C73"/>
<path d="M1099.41 716.445H1090.7C1090.38 716.445 1090.12 716.708 1090.12 717.031V801.266C1090.12 801.59 1090.38 801.852 1090.7 801.852H1099.41C1099.73 801.852 1099.99 801.59 1099.99 801.266V717.031C1099.99 716.708 1099.73 716.445 1099.41 716.445Z" fill="#1F3C73"/>
<path d="M1144.88 793.044H1196.59C1196.73 793.044 1196.87 793.1 1196.97 793.199C1197.06 793.298 1197.12 793.432 1197.12 793.572V801.309C1197.12 801.449 1197.06 801.583 1196.97 801.682C1196.87 801.781 1196.73 801.837 1196.59 801.837H1135.44C1135.3 801.837 1135.17 801.781 1135.07 801.682C1134.97 801.583 1134.91 801.449 1134.91 801.309V716.957C1134.91 716.817 1134.97 716.683 1135.07 716.584C1135.17 716.485 1135.3 716.43 1135.44 716.43H1196.2C1196.34 716.43 1196.47 716.485 1196.57 716.584C1196.67 716.683 1196.72 716.817 1196.72 716.957V724.695C1196.72 724.835 1196.67 724.969 1196.57 725.068C1196.47 725.167 1196.34 725.222 1196.2 725.222H1144.88C1144.74 725.222 1144.6 725.278 1144.51 725.377C1144.41 725.476 1144.35 725.61 1144.35 725.75V753.755C1144.35 753.895 1144.41 754.029 1144.51 754.128C1144.6 754.227 1144.74 754.283 1144.88 754.283H1190.73C1190.87 754.283 1191.01 754.338 1191.1 754.437C1191.2 754.536 1191.26 754.67 1191.26 754.81V762.401C1191.26 762.541 1191.2 762.675 1191.1 762.774C1191.01 762.873 1190.87 762.929 1190.73 762.929H1144.88C1144.74 762.929 1144.6 762.984 1144.51 763.083C1144.41 763.182 1144.35 763.316 1144.35 763.456V792.517C1144.35 792.586 1144.36 792.654 1144.39 792.718C1144.42 792.782 1144.46 792.841 1144.51 792.889C1144.55 792.938 1144.61 792.977 1144.68 793.004C1144.74 793.03 1144.81 793.044 1144.88 793.044Z" fill="#1F3C73"/>
<path d="M1297.75 801.557C1297.77 801.581 1297.77 801.609 1297.78 801.637C1297.78 801.666 1297.77 801.695 1297.76 801.72C1297.74 801.745 1297.72 801.767 1297.7 801.782C1297.67 801.797 1297.65 801.805 1297.62 801.806H1286.51C1286.41 801.806 1286.3 801.782 1286.21 801.736C1286.11 801.691 1286.03 801.624 1285.97 801.542L1261.54 769.185C1261.39 768.984 1261.19 768.822 1260.97 768.71C1260.75 768.598 1260.5 768.54 1260.25 768.54H1237.55C1237.32 768.54 1237.09 768.634 1236.93 768.802C1236.76 768.969 1236.67 769.197 1236.67 769.434V801.132C1236.67 801.314 1236.6 801.49 1236.47 801.619C1236.34 801.748 1236.17 801.82 1235.98 801.82H1227.91C1227.73 801.82 1227.56 801.749 1227.43 801.623C1227.31 801.497 1227.23 801.325 1227.23 801.146V717.161C1227.23 717.07 1227.25 716.981 1227.29 716.897C1227.32 716.814 1227.37 716.738 1227.44 716.674C1227.5 716.61 1227.58 716.559 1227.66 716.524C1227.74 716.49 1227.83 716.472 1227.92 716.472C1245.96 716.384 1259.01 716.404 1267.08 716.531C1277.09 716.706 1289.21 722.07 1292.97 732.094C1299.26 748.829 1289.53 763.909 1272.34 766.737C1272.26 766.75 1272.18 766.784 1272.12 766.836C1272.05 766.887 1272 766.955 1271.97 767.033C1271.94 767.111 1271.93 767.196 1271.94 767.28C1271.95 767.364 1271.98 767.445 1272.03 767.514L1297.75 801.557ZM1236.55 725.748L1236.79 759.703C1236.79 759.759 1236.8 759.814 1236.82 759.866C1236.84 759.917 1236.87 759.964 1236.91 760.004C1236.95 760.043 1237 760.074 1237.05 760.096C1237.1 760.117 1237.16 760.128 1237.21 760.128L1265.01 759.938C1267.66 759.919 1270.27 759.479 1272.71 758.643C1275.15 757.807 1277.36 756.592 1279.22 755.066C1281.08 753.541 1282.55 751.735 1283.54 749.752C1284.54 747.769 1285.05 745.648 1285.03 743.51L1285.02 741.253C1284.98 736.937 1282.83 732.814 1279.04 729.788C1275.24 726.763 1270.11 725.083 1264.78 725.118L1236.98 725.309C1236.92 725.309 1236.87 725.32 1236.81 725.342C1236.76 725.365 1236.71 725.397 1236.67 725.438C1236.63 725.479 1236.6 725.528 1236.58 725.581C1236.56 725.634 1236.55 725.691 1236.55 725.748Z" fill="#1F3C73"/>
<path d="M1334.33 801.822H1325.93C1325.87 801.822 1325.8 801.809 1325.74 801.783C1325.68 801.758 1325.62 801.72 1325.57 801.672C1325.52 801.624 1325.49 801.568 1325.46 801.506C1325.44 801.443 1325.42 801.377 1325.42 801.309V716.943C1325.42 716.875 1325.44 716.809 1325.46 716.746C1325.49 716.684 1325.52 716.628 1325.57 716.58C1325.62 716.532 1325.68 716.495 1325.74 716.469C1325.8 716.443 1325.87 716.43 1325.93 716.43H1334.2C1334.28 716.428 1334.36 716.444 1334.43 716.477C1334.5 716.51 1334.56 716.559 1334.61 716.62L1387.51 783.914C1387.58 784.002 1387.67 784.066 1387.77 784.097C1387.88 784.129 1387.99 784.127 1388.09 784.091C1388.19 784.055 1388.28 783.987 1388.34 783.898C1388.41 783.808 1388.44 783.701 1388.43 783.592V716.957C1388.43 716.821 1388.49 716.691 1388.58 716.595C1388.68 716.499 1388.81 716.444 1388.95 716.444H1396.96C1397.1 716.444 1397.23 716.499 1397.33 716.595C1397.42 716.691 1397.48 716.821 1397.48 716.957V801.309C1397.48 801.377 1397.46 801.443 1397.44 801.506C1397.41 801.568 1397.37 801.624 1397.33 801.672C1397.28 801.72 1397.22 801.758 1397.16 801.783C1397.1 801.809 1397.03 801.822 1396.96 801.822H1390.19C1390.11 801.824 1390.04 801.808 1389.97 801.775C1389.89 801.742 1389.83 801.693 1389.78 801.632L1335.77 732.946C1335.7 732.858 1335.61 732.794 1335.51 732.762C1335.4 732.731 1335.29 732.733 1335.19 732.769C1335.09 732.805 1335 732.872 1334.93 732.962C1334.87 733.052 1334.84 733.159 1334.84 733.268V801.309C1334.84 801.377 1334.83 801.443 1334.81 801.506C1334.78 801.568 1334.74 801.624 1334.69 801.672C1334.65 801.72 1334.59 801.758 1334.53 801.783C1334.47 801.809 1334.4 801.822 1334.33 801.822Z" fill="#1F3C73"/>
<path d="M1592.05 716.985C1592.05 716.841 1592.1 716.703 1592.21 716.601C1592.31 716.5 1592.45 716.442 1592.59 716.442L1623.29 716.399C1629.03 716.388 1634.72 717.452 1640.03 719.528C1645.34 721.605 1650.16 724.654 1654.23 728.501C1658.3 732.348 1661.53 736.918 1663.73 741.95C1665.94 746.982 1667.08 752.377 1667.09 757.827V760.172C1667.11 771.178 1662.52 781.742 1654.33 789.538C1646.15 797.335 1635.03 801.727 1623.44 801.747L1592.74 801.791C1592.59 801.791 1592.45 801.734 1592.35 801.632C1592.25 801.53 1592.19 801.393 1592.19 801.249L1592.05 716.985ZM1601.54 725.865V792.397C1601.54 792.557 1601.61 792.71 1601.72 792.822C1601.83 792.935 1601.98 792.998 1602.14 792.998H1623.26C1632.26 792.998 1640.89 789.51 1647.26 783.302C1653.62 777.094 1657.2 768.673 1657.2 759.893V758.369C1657.2 749.589 1653.62 741.169 1647.26 734.961C1640.89 728.752 1632.26 725.265 1623.26 725.265H1602.14C1601.98 725.265 1601.83 725.328 1601.72 725.441C1601.61 725.553 1601.54 725.706 1601.54 725.865Z" fill="#1F3C73"/>
<path d="M1708.02 762.929C1707.77 762.929 1707.53 763.029 1707.35 763.208C1707.17 763.386 1707.07 763.629 1707.07 763.881L1707.06 792.135C1707.06 792.376 1707.15 792.608 1707.32 792.778C1707.49 792.948 1707.72 793.044 1707.96 793.044H1759.27C1759.42 793.044 1759.56 793.104 1759.66 793.211C1759.77 793.319 1759.82 793.464 1759.82 793.616L1759.85 801.251C1759.86 801.327 1759.84 801.403 1759.81 801.474C1759.78 801.545 1759.74 801.609 1759.69 801.664C1759.63 801.719 1759.57 801.762 1759.5 801.792C1759.42 801.821 1759.35 801.837 1759.27 801.837H1698.2C1698.05 801.837 1697.91 801.777 1697.8 801.669C1697.69 801.562 1697.63 801.417 1697.63 801.265V716.899C1697.63 716.774 1697.68 716.655 1697.77 716.567C1697.86 716.479 1697.98 716.43 1698.1 716.43H1759C1759.11 716.43 1759.22 716.471 1759.29 716.546C1759.37 716.62 1759.41 716.72 1759.41 716.825L1759.47 724.871C1759.47 724.964 1759.44 725.054 1759.37 725.119C1759.3 725.185 1759.21 725.222 1759.12 725.222H1707.71C1707.63 725.222 1707.55 725.239 1707.47 725.272C1707.39 725.304 1707.32 725.351 1707.26 725.411C1707.2 725.471 1707.15 725.542 1707.12 725.62C1707.09 725.699 1707.07 725.783 1707.07 725.867V753.638C1707.07 753.722 1707.09 753.806 1707.12 753.885C1707.15 753.963 1707.2 754.034 1707.26 754.094C1707.32 754.154 1707.39 754.201 1707.47 754.233C1707.55 754.266 1707.63 754.283 1707.71 754.283L1753.61 754.268C1753.7 754.268 1753.79 754.307 1753.86 754.375C1753.93 754.444 1753.96 754.537 1753.96 754.634L1753.98 762.606C1753.98 762.696 1753.94 762.782 1753.88 762.845C1753.82 762.908 1753.73 762.943 1753.64 762.943L1708.02 762.929Z" fill="#1F3C73"/>
<path d="M1893.19 793.616V801.265C1893.19 801.34 1893.18 801.415 1893.15 801.484C1893.12 801.553 1893.08 801.616 1893.03 801.669C1892.97 801.722 1892.91 801.765 1892.84 801.793C1892.77 801.822 1892.7 801.837 1892.62 801.837H1835.95C1835.8 801.837 1835.66 801.777 1835.55 801.669C1835.44 801.562 1835.38 801.417 1835.38 801.265V717.001C1835.38 716.85 1835.44 716.704 1835.55 716.597C1835.66 716.49 1835.8 716.43 1835.95 716.43H1844.25C1844.4 716.43 1844.55 716.49 1844.65 716.597C1844.76 716.704 1844.82 716.85 1844.82 717.001V792.473C1844.82 792.624 1844.88 792.769 1844.99 792.877C1845.09 792.984 1845.24 793.044 1845.39 793.044H1892.62C1892.7 793.044 1892.77 793.059 1892.84 793.088C1892.91 793.116 1892.97 793.158 1893.03 793.211C1893.08 793.265 1893.12 793.328 1893.15 793.397C1893.18 793.466 1893.19 793.541 1893.19 793.616Z" fill="#1F3C73"/>
<path d="M547.423 843.617C549.612 845.717 551.058 847.901 551.761 850.167C551.92 850.671 551.92 851.212 551.76 851.716C551.6 852.219 551.288 852.661 550.867 852.981L529.399 869.174C529.056 869.443 528.627 869.588 528.183 869.585C526.844 869.565 525.545 868.954 524.285 867.753C523.025 866.541 522.36 865.266 522.292 863.928C522.268 863.485 522.392 863.052 522.644 862.697L537.913 840.568C538.213 840.133 538.64 839.8 539.135 839.617C539.631 839.433 540.172 839.407 540.683 839.543C542.978 840.158 545.225 841.516 547.423 843.617Z" fill="#1F3C73"/>
<path d="M1079.32 979.039C1080.83 979.86 1081.78 981.13 1082.15 982.85C1082.2 983.104 1082.2 983.367 1082.13 983.617C1082.06 983.867 1081.94 984.096 1081.77 984.286C1074.07 993.137 1063.83 998.105 1052.71 1002.14C1049.84 1003.18 1046.7 1003.58 1043.29 1003.34C1013.58 1001.26 986.194 985.707 981.036 954.566C979.395 944.65 979.971 934.543 982.765 924.246C989.726 898.688 1010.08 882.539 1036.69 880.165C1049.07 879.066 1067.98 879.784 1078.27 887.507C1078.95 888.027 1079.46 888.747 1079.73 889.567C1079.99 890.387 1080 891.27 1079.75 892.094C1078.32 896.651 1077.25 901.722 1073.97 904.858C1073.62 905.201 1073.17 905.422 1072.68 905.488C1071.14 905.713 1069.6 905.405 1068.05 904.565C1056.14 898.043 1047.64 893.383 1033.17 893.735C1007.76 894.365 997.639 914.237 999.339 937.772C1001.21 963.769 1017.19 981.267 1042.17 986.103C1053.43 988.286 1067.8 984.432 1077.77 979.039C1078.01 978.912 1078.27 978.846 1078.54 978.846C1078.81 978.846 1079.08 978.912 1079.32 979.039Z" fill="#1F3C73"/>
<path d="M1540.53 879.842C1578.92 882.758 1602.09 915.232 1595.95 952.529C1590.68 984.49 1563.87 1005.74 1531.14 1003.25C1498.41 1000.76 1475.13 975.697 1474.76 943.296C1474.34 905.502 1502.15 876.925 1540.53 879.842ZM1498.3 953.437C1501.99 965.014 1508.1 974.935 1517.41 982.307C1529.88 992.184 1546.17 994.939 1560.12 986.337C1578.48 975.009 1578.95 947.018 1573.43 929.682C1569.74 918.105 1563.62 908.184 1554.33 900.812C1541.85 890.935 1525.55 888.18 1511.62 896.782C1493.26 908.11 1492.77 936.101 1498.3 953.437Z" fill="#1F3C73"/>
<path d="M2238.4 979.026C2238.63 978.899 2238.9 978.832 2239.17 978.832C2239.44 978.832 2239.71 978.899 2239.95 979.026C2241.46 979.846 2242.41 981.116 2242.78 982.836C2242.83 983.09 2242.83 983.353 2242.76 983.603C2242.69 983.853 2242.57 984.082 2242.4 984.272C2234.7 993.109 2224.46 998.077 2213.35 1002.11C2210.48 1003.15 2207.34 1003.55 2203.93 1003.31C2174.24 1001.23 2146.85 985.679 2141.71 954.553C2140.07 944.636 2140.64 934.529 2143.44 924.232C2150.4 898.689 2170.75 882.554 2197.35 880.18C2209.73 879.081 2228.62 879.799 2238.91 887.522C2239.6 888.041 2240.11 888.759 2240.37 889.58C2240.64 890.4 2240.64 891.283 2240.39 892.109C2238.97 896.667 2237.9 901.737 2234.61 904.873C2234.26 905.216 2233.81 905.437 2233.32 905.503C2231.78 905.718 2230.24 905.411 2228.69 904.58C2216.78 898.059 2208.3 893.399 2193.83 893.736C2168.44 894.366 2158.31 914.238 2160 937.758C2161.87 963.741 2177.84 981.239 2202.82 986.075C2214.07 988.258 2228.43 984.419 2238.4 979.026Z" fill="#1F3C73"/>
<path d="M1743.4 925.157C1743.39 925.093 1743.36 925.033 1743.32 924.986C1743.28 924.939 1743.22 924.906 1743.16 924.893C1743.09 924.88 1743.03 924.888 1742.97 924.914C1742.91 924.94 1742.86 924.984 1742.83 925.04C1727.9 955.395 1718.89 973.767 1715.81 980.156C1713.16 985.617 1711.07 991.03 1709.53 996.393C1709.45 996.672 1709.32 996.93 1709.14 997.155C1708.96 997.379 1708.73 997.564 1708.48 997.698C1704.88 999.613 1701.68 999.642 1698.88 997.786C1698.45 997.497 1698.1 997.109 1697.85 996.657L1659.89 924.644C1659.83 924.544 1659.75 924.464 1659.65 924.416C1659.54 924.369 1659.43 924.357 1659.32 924.382C1659.21 924.407 1659.11 924.468 1659.04 924.555C1658.96 924.642 1658.92 924.751 1658.92 924.864C1657.39 960.543 1656.6 978.886 1656.56 979.892C1656.26 988.216 1659.86 993.067 1667.36 994.444C1667.52 994.478 1667.66 994.565 1667.76 994.69C1667.86 994.815 1667.92 994.972 1667.92 995.133V999.705C1667.92 999.993 1667.8 1000.27 1667.6 1000.47C1667.4 1000.68 1667.12 1000.79 1666.83 1000.79H1633.26C1633.02 1000.79 1632.78 1000.71 1632.59 1000.55C1632.4 1000.4 1632.27 1000.18 1632.22 999.94L1631.31 995.602C1631.28 995.461 1631.28 995.315 1631.31 995.174C1631.34 995.033 1631.4 994.899 1631.49 994.783C1631.58 994.667 1631.68 994.57 1631.81 994.499C1631.94 994.428 1632.08 994.385 1632.22 994.371C1640.46 993.629 1644.81 988.69 1645.26 979.555C1645.7 970.665 1647.49 938.586 1650.62 883.318C1650.66 882.795 1650.84 882.292 1651.15 881.871C1651.46 881.45 1651.88 881.128 1652.37 880.944C1654.51 880.153 1656.56 880.51 1658.52 882.014C1658.87 882.275 1659.16 882.61 1659.36 882.996L1707.32 972.668C1707.37 972.763 1707.45 972.843 1707.54 972.897C1707.63 972.951 1707.74 972.978 1707.85 972.975C1707.96 972.972 1708.07 972.939 1708.16 972.88C1708.25 972.82 1708.33 972.737 1708.38 972.638L1752.78 883.069C1752.91 882.788 1753.1 882.526 1753.32 882.293C1754.92 880.622 1757.1 880.143 1759.84 880.856C1760.36 880.992 1760.83 881.292 1761.17 881.71C1761.52 882.129 1761.72 882.646 1761.75 883.186C1765.06 943.056 1766.88 975.525 1767.2 980.596C1767.72 988.646 1771.88 993.238 1779.7 994.371C1779.92 994.403 1780.13 994.515 1780.28 994.687C1780.43 994.859 1780.52 995.08 1780.52 995.309V999.412C1780.52 999.774 1780.37 1000.12 1780.11 1000.38C1779.86 1000.63 1779.51 1000.78 1779.14 1000.78H1736.39C1736.25 1000.78 1736.1 1000.73 1735.99 1000.64C1735.87 1000.54 1735.79 1000.42 1735.76 1000.28L1734.68 995.075C1734.67 994.995 1734.67 994.914 1734.68 994.836C1734.7 994.757 1734.73 994.683 1734.78 994.618C1734.83 994.552 1734.89 994.496 1734.95 994.454C1735.02 994.412 1735.1 994.383 1735.18 994.371C1740.15 993.658 1743.55 991.465 1745.38 987.791C1746.37 985.788 1746.69 981.675 1746.33 975.452C1745.13 954.779 1744.15 938.014 1743.4 925.157Z" fill="#1F3C73"/>
<path d="M1165.52 884.24C1165.54 883.975 1165.64 883.723 1165.82 883.522C1166 883.321 1166.24 883.182 1166.5 883.126L1176.93 880.943C1177.25 880.877 1177.58 880.925 1177.87 881.077C1178.16 881.229 1178.39 881.477 1178.52 881.778C1200.99 934.242 1215.16 967.254 1221 980.814C1223.71 987.101 1228.09 993.359 1234.99 994.311C1235.68 994.41 1236.3 994.75 1236.75 995.269C1237.2 995.789 1237.45 996.453 1237.45 997.139V998.019C1237.45 998.749 1237.16 999.45 1236.64 999.967C1236.12 1000.48 1235.42 1000.77 1234.68 1000.77H1191.18C1190.93 1000.77 1190.68 1000.72 1190.46 1000.6C1190.23 1000.49 1190.04 1000.33 1189.89 1000.13C1188.94 998.869 1188.77 997.345 1189.37 995.557C1189.45 995.338 1189.58 995.141 1189.75 994.983C1189.92 994.825 1190.12 994.71 1190.34 994.648C1191.85 994.208 1194.56 993.725 1196.25 992.626C1201.55 989.167 1199.32 983.174 1197.3 977.707C1195.66 973.252 1194.31 968.929 1188.98 968.665C1186.37 968.529 1172.96 968.504 1148.74 968.592C1145.51 968.602 1143.3 970.033 1142.1 972.886C1139.46 979.099 1138.13 983.393 1138.11 985.767C1138.04 992.347 1143.2 993.417 1148.34 994.575C1148.76 994.667 1149.15 994.85 1149.49 995.111C1149.82 995.372 1150.1 995.704 1150.29 996.085C1150.49 996.465 1150.6 996.885 1150.61 997.313C1150.63 997.741 1150.55 998.167 1150.38 998.561C1149.7 1000.15 1148.66 1000.93 1147.27 1000.88C1144.47 1000.77 1132.94 1000.75 1112.69 1000.83C1112.34 1000.83 1111.99 1000.77 1111.66 1000.63C1111.34 1000.5 1111.04 1000.3 1110.79 1000.05C1110.54 999.803 1110.35 999.507 1110.21 999.18C1110.08 998.854 1110.01 998.504 1110.01 998.151V996.846C1110.01 996.23 1110.23 995.635 1110.63 995.174C1111.04 994.712 1111.6 994.416 1112.21 994.34C1120.16 993.344 1124.49 985.709 1127.5 978.821C1139.97 950.274 1150.74 925.527 1159.82 904.581C1163.16 896.882 1165.06 890.102 1165.52 884.24ZM1168.74 958.656C1178.86 958.686 1184.8 958.666 1186.56 958.598C1186.85 958.588 1187.13 958.507 1187.39 958.363C1187.64 958.219 1187.85 958.015 1188.01 957.77C1188.16 957.524 1188.26 957.244 1188.28 956.955C1188.31 956.665 1188.26 956.374 1188.14 956.106C1182.82 943.249 1176.51 928.048 1169.22 910.501C1169.16 910.325 1169.05 910.237 1168.92 910.237C1168.69 910.228 1168.54 910.316 1168.46 910.501C1161.11 928.009 1154.74 943.186 1149.35 956.033C1149.24 956.3 1149.19 956.592 1149.22 956.881C1149.24 957.171 1149.33 957.451 1149.49 957.696C1149.64 957.942 1149.86 958.145 1150.11 958.29C1150.36 958.434 1150.65 958.515 1150.94 958.524C1152.69 958.593 1158.63 958.637 1168.74 958.656Z" fill="#1F3C73"/>
<path d="M2327.18 883.068L2337.63 880.884C2337.95 880.819 2338.28 880.866 2338.57 881.018C2338.86 881.17 2339.09 881.418 2339.21 881.72C2361.7 934.212 2375.87 967.244 2381.71 980.814C2384.42 987.101 2388.8 993.373 2395.71 994.326C2396.39 994.424 2397.01 994.764 2397.47 995.284C2397.92 995.803 2398.17 996.467 2398.17 997.154V998.033C2398.17 998.764 2397.88 999.465 2397.36 999.981C2396.84 1000.5 2396.13 1000.79 2395.4 1000.79H2351.86C2351.61 1000.79 2351.36 1000.73 2351.14 1000.62C2350.92 1000.51 2350.72 1000.34 2350.57 1000.14C2349.62 998.883 2349.45 997.359 2350.06 995.571C2350.14 995.35 2350.26 995.15 2350.43 994.989C2350.6 994.829 2350.8 994.712 2351.03 994.648C2352.54 994.208 2355.26 993.725 2356.95 992.626C2362.25 989.167 2360.02 983.174 2358 977.707C2356.36 973.252 2355.01 968.915 2349.68 968.651C2347.06 968.514 2333.64 968.49 2309.41 968.578C2306.18 968.587 2303.97 970.019 2302.77 972.871C2300.12 979.095 2298.79 983.393 2298.77 985.767C2298.7 992.347 2303.85 993.417 2309.01 994.575C2309.43 994.667 2309.82 994.85 2310.16 995.111C2310.49 995.372 2310.77 995.704 2310.96 996.085C2311.16 996.466 2311.27 996.885 2311.28 997.313C2311.3 997.741 2311.22 998.167 2311.05 998.561C2310.37 1000.15 2309.33 1000.93 2307.94 1000.88C2305.13 1000.77 2293.59 1000.75 2273.33 1000.83C2272.98 1000.83 2272.63 1000.77 2272.3 1000.63C2271.98 1000.5 2271.68 1000.3 2271.43 1000.05C2271.19 999.803 2270.99 999.507 2270.85 999.18C2270.72 998.854 2270.65 998.504 2270.65 998.151V996.846C2270.65 996.233 2270.87 995.639 2271.27 995.178C2271.68 994.717 2272.24 994.419 2272.85 994.34C2280.8 993.344 2285.14 985.709 2288.16 978.806C2300.64 950.249 2311.42 925.488 2320.5 904.522C2323.84 896.824 2325.74 890.043 2326.2 884.182C2326.22 883.916 2326.33 883.664 2326.51 883.463C2326.68 883.263 2326.92 883.124 2327.18 883.068ZM2329.44 958.671C2339.56 958.681 2345.5 958.651 2347.26 958.583C2347.55 958.573 2347.83 958.493 2348.09 958.348C2348.34 958.204 2348.55 958 2348.71 957.755C2348.86 957.51 2348.96 957.23 2348.98 956.94C2349 956.65 2348.96 956.359 2348.84 956.092C2343.5 943.235 2337.18 928.043 2329.88 910.516C2329.8 910.33 2329.65 910.237 2329.41 910.237C2329.28 910.237 2329.18 910.33 2329.1 910.516C2321.78 928.033 2315.43 943.21 2310.05 956.048C2309.94 956.315 2309.89 956.606 2309.91 956.896C2309.94 957.186 2310.03 957.466 2310.19 957.711C2310.34 957.956 2310.56 958.16 2310.81 958.304C2311.06 958.449 2311.35 958.529 2311.64 958.539C2313.39 958.617 2319.33 958.661 2329.44 958.671Z" fill="#1F3C73"/>
<path d="M2636.98 884.209C2637 883.943 2637.11 883.691 2637.29 883.491C2637.46 883.29 2637.7 883.151 2637.97 883.095L2648.41 880.912C2648.73 880.846 2649.06 880.893 2649.35 881.046C2649.64 881.198 2649.87 881.446 2650 881.747C2672.47 934.22 2686.62 967.242 2692.45 980.812C2695.16 987.084 2699.54 993.357 2706.44 994.309C2707.13 994.408 2707.75 994.748 2708.2 995.267C2708.66 995.787 2708.91 996.451 2708.91 997.137V998.017C2708.91 998.747 2708.61 999.448 2708.09 999.965C2707.58 1000.48 2706.87 1000.77 2706.14 1000.77H2662.61C2662.36 1000.77 2662.12 1000.71 2661.89 1000.6C2661.67 1000.49 2661.47 1000.33 2661.32 1000.13C2660.38 998.867 2660.21 997.343 2660.81 995.555C2660.89 995.333 2661.02 995.133 2661.18 994.973C2661.35 994.812 2661.56 994.695 2661.78 994.631C2663.29 994.192 2666.01 993.708 2667.7 992.609C2673 989.151 2670.78 983.157 2668.75 977.691C2667.11 973.25 2665.76 968.913 2660.45 968.649C2657.83 968.512 2644.41 968.483 2620.19 968.561C2616.97 968.571 2614.75 970.002 2613.55 972.855C2610.9 979.078 2609.57 983.377 2609.55 985.751C2609.48 992.316 2614.64 993.386 2619.79 994.544C2620.21 994.637 2620.6 994.822 2620.93 995.083C2621.27 995.345 2621.54 995.678 2621.74 996.058C2621.93 996.439 2622.04 996.857 2622.05 997.284C2622.06 997.711 2621.98 998.136 2621.82 998.53C2621.13 1000.12 2620.1 1000.89 2618.73 1000.84C2615.91 1000.74 2604.38 1000.72 2584.13 1000.8C2583.78 1000.8 2583.43 1000.74 2583.1 1000.6C2582.78 1000.47 2582.48 1000.27 2582.23 1000.02C2581.98 999.772 2581.78 999.475 2581.65 999.149C2581.51 998.823 2581.45 998.473 2581.45 998.119V996.815C2581.44 996.199 2581.67 995.604 2582.07 995.142C2582.48 994.681 2583.04 994.384 2583.64 994.309C2591.59 993.313 2595.92 985.692 2598.94 978.79C2611.42 950.243 2622.2 925.491 2631.28 904.535C2634.62 896.846 2636.52 890.071 2636.98 884.209ZM2640.21 958.654C2650.32 958.664 2656.25 958.635 2658.01 958.566C2658.3 958.556 2658.58 958.475 2658.83 958.332C2659.08 958.188 2659.3 957.986 2659.45 957.743C2659.61 957.499 2659.7 957.222 2659.73 956.934C2659.75 956.646 2659.71 956.356 2659.6 956.09C2654.26 943.233 2647.95 928.041 2640.65 910.514C2640.57 910.328 2640.41 910.235 2640.18 910.235C2640.05 910.235 2639.95 910.328 2639.87 910.514C2632.54 928.021 2626.19 943.199 2620.82 956.046C2620.71 956.311 2620.66 956.6 2620.69 956.886C2620.71 957.173 2620.81 957.45 2620.96 957.693C2621.11 957.936 2621.32 958.138 2621.57 958.283C2621.82 958.427 2622.1 958.509 2622.39 958.522C2624.16 958.601 2630.1 958.645 2640.21 958.654Z" fill="#1F3C73"/>
<path d="M124.218 943.886C125.903 944.706 127.896 944.369 129.772 945.395C133.455 947.427 136.381 949.733 138.55 952.312C141.93 956.347 151.802 968.667 168.165 989.271C170.94 992.759 174.892 995.03 180.021 996.085C180.276 996.136 180.506 996.275 180.671 996.478C180.837 996.681 180.928 996.936 180.929 997.199V1000.39C180.928 1000.67 180.839 1000.94 180.675 1001.16C180.512 1001.37 180.282 1001.53 180.021 1001.61C170.466 1004.37 161.727 1003.56 153.804 999.192C150.317 997.277 145.574 992.314 139.575 984.303C138.54 982.916 132.468 975.071 121.36 960.768C117.404 955.678 114.107 952.429 111.469 951.022C106.115 948.16 99.8923 946.944 92.7998 947.373C92.5549 947.385 92.3237 947.49 92.1545 947.668C91.9853 947.845 91.891 948.081 91.8912 948.326C91.8326 963.645 91.8522 974.186 91.9499 979.951C92.1404 990.59 100.522 993.579 109.784 994.385C109.951 994.397 110.108 994.473 110.222 994.598C110.337 994.723 110.4 994.888 110.399 995.06V999.412C110.399 999.777 110.256 1000.13 110 1000.39C109.745 1000.64 109.398 1000.79 109.036 1000.79H59.6964C59.3775 1000.79 59.0688 1000.68 58.8229 1000.48C58.5771 1000.28 58.4093 1000 58.3482 999.69L57.4689 995.47C57.437 995.326 57.4388 995.177 57.4741 995.035C57.5094 994.892 57.5773 994.759 57.6723 994.647C57.7674 994.535 57.8872 994.446 58.0222 994.388C58.1573 994.33 58.304 994.304 58.4508 994.312C59.1346 994.351 60.3949 994.083 62.2315 993.506C70.13 991.029 71.361 985.71 71.3756 977.357C71.4049 940.329 71.3854 915.534 71.317 902.97C71.2584 893.738 65.2795 890.777 57.6301 888.154C57.4455 888.09 57.2856 887.971 57.1726 887.813C57.0596 887.656 56.9993 887.467 57 887.275V883.377C57.0007 883.192 57.0405 883.01 57.1168 882.842C57.1931 882.674 57.3041 882.524 57.4426 882.402C57.5811 882.28 57.7439 882.189 57.9202 882.135C58.0965 882.081 58.2823 882.064 58.4654 882.087C74.4676 884.051 88.0079 882.996 108.362 882.102C129.45 881.179 153.336 889.18 152.705 914.503C152.31 930.579 140 942.215 124.335 943.314C124.267 943.32 124.202 943.347 124.15 943.393C124.099 943.438 124.063 943.499 124.05 943.565C124.036 943.631 124.045 943.698 124.076 943.756C124.106 943.814 124.156 943.86 124.218 943.886ZM92.3309 938.8C106.296 939.299 129.772 940.354 131.032 921.303C131.867 908.524 127.559 897.005 114.59 892.8C108.641 890.875 103.248 890.704 98.4123 892.287C93.2101 893.987 91.9792 899.086 91.9352 904.069C91.8668 909.853 91.857 921.283 91.9059 938.361C91.9058 938.475 91.9501 938.585 92.0294 938.667C92.1087 938.749 92.2168 938.797 92.3309 938.8Z" fill="#1F3C73"/>
<path d="M212.255 882.172C218.771 882.738 225.78 883.061 233.283 883.139C254.19 883.373 274.705 883.017 294.83 882.069C300.501 881.79 300.135 885.645 299.094 889.66C296.584 899.332 295.279 904.422 295.182 904.93C295.069 905.431 294.783 905.873 294.376 906.176C293.243 907.026 291.987 907.123 290.61 906.469C290.043 906.195 289.403 905.111 288.69 903.216C287.107 898.956 284.396 896.147 280.557 894.789C273.621 892.337 265.478 891.536 256.129 892.386C249.285 893.016 245.651 896.005 245.505 903.054C245.299 911.925 245.295 921.578 245.49 932.012C245.504 932.773 245.733 933.514 246.151 934.147C246.569 934.781 247.158 935.281 247.849 935.588C248.875 936.057 250.736 936.291 253.432 936.291C260.779 936.32 267.613 935.729 273.933 934.518C278.935 933.57 283.322 931.484 287.093 928.26C287.434 927.976 287.859 927.82 288.294 927.821H289.687C289.983 927.822 290.274 927.897 290.534 928.039C290.794 928.181 291.014 928.385 291.175 928.633C291.335 928.881 291.43 929.164 291.452 929.457C291.474 929.751 291.421 930.045 291.298 930.312C286.507 940.907 281.275 953.833 279.531 954.389C278.164 954.829 277.021 954.487 276.102 953.364C269.479 945.26 258.429 944.322 248.846 945.245C247.952 945.33 247.121 945.74 246.508 946.396C245.896 947.051 245.544 947.909 245.519 948.806C245.295 957.657 245.285 967.759 245.49 979.112C245.617 986.205 249.281 990.088 256.481 990.762C273.758 992.374 290.947 988.916 301.805 974.627C303.974 971.77 306.04 970.993 308.282 973.587C308.623 973.984 308.805 974.49 308.795 975.009C308.532 983.831 303.036 998.06 293.218 1000.68C292.684 1000.83 292.131 1000.89 291.577 1000.87C271.921 1000.01 249.569 999.76 224.52 1000.11C218.678 1000.19 213.617 1000.49 209.339 1001.01C208.904 1001.06 208.466 1000.94 208.11 1000.69C207.755 1000.43 207.508 1000.05 207.419 999.614L206.774 996.536C206.723 996.294 206.721 996.045 206.768 995.802C206.816 995.56 206.911 995.329 207.049 995.124C207.187 994.919 207.365 994.744 207.572 994.609C207.779 994.474 208.011 994.382 208.254 994.338C219.352 992.335 224.891 987.543 224.872 979.962C224.823 965.2 224.823 940.126 224.872 904.74C224.872 901.496 224.593 899.137 224.037 897.661C222.029 892.371 217.076 889.689 211.756 888.488C211.602 888.454 211.464 888.367 211.365 888.242C211.267 888.116 211.213 887.96 211.214 887.799V883.124C211.214 882.991 211.241 882.86 211.294 882.738C211.347 882.616 211.426 882.507 211.524 882.417C211.622 882.328 211.737 882.259 211.863 882.217C211.989 882.175 212.122 882.159 212.255 882.172Z" fill="#1F3C73"/>
<path d="M342.313 994.441C342.567 994.587 344.052 994.211 346.768 993.312C353.875 990.953 355.311 985.794 355.297 978.438C355.287 959.543 355.267 934.391 355.238 902.981C355.238 894.276 349.142 890.041 341.742 888.165C341.535 888.11 341.353 887.988 341.223 887.819C341.093 887.649 341.023 887.441 341.023 887.227V883.153C341.022 883 341.054 882.849 341.116 882.709C341.179 882.569 341.27 882.444 341.385 882.342C341.5 882.239 341.635 882.162 341.783 882.115C341.93 882.068 342.086 882.052 342.24 882.069C351.179 883.095 359.922 883.422 368.47 883.051C380.062 882.552 393.587 881.292 406.117 882.934C424.83 885.381 440.729 895.668 441.286 916.331C442.297 953.452 405.223 959.958 376.809 955.65C376.686 955.631 376.56 955.639 376.441 955.672C376.321 955.706 376.21 955.766 376.116 955.846C376.021 955.927 375.945 956.027 375.893 956.14C375.84 956.253 375.813 956.375 375.812 956.5C375.773 963.534 375.788 970.666 375.856 977.895C375.973 990.103 382.875 993.459 393.822 994.397C393.962 994.408 394.092 994.471 394.188 994.574C394.283 994.678 394.335 994.813 394.335 994.953V999.614C394.335 999.925 394.211 1000.22 393.991 1000.44C393.772 1000.66 393.473 1000.79 393.163 1000.79H343.661C343.297 1000.79 342.944 1000.65 342.669 1000.41C342.395 1000.17 342.216 999.843 342.166 999.482L341.566 994.939C341.553 994.846 341.566 994.751 341.604 994.665C341.643 994.58 341.705 994.507 341.783 994.455C341.861 994.402 341.952 994.374 342.046 994.371C342.14 994.369 342.232 994.393 342.313 994.441ZM375.754 946.168C375.754 946.322 375.809 946.471 375.908 946.588C376.007 946.706 376.144 946.786 376.296 946.813C384.326 948.464 392.342 948.513 400.343 946.96C411.216 944.849 417.381 938.333 418.836 927.41C421.723 905.883 408.373 889.792 385.85 891.419C377.058 892.049 375.827 898.643 375.827 905.883C375.827 919.57 375.802 932.999 375.754 946.168Z" fill="#1F3C73"/>
<path d="M703.653 935.693C703.572 935.717 703.503 935.769 703.457 935.841C703.412 935.912 703.393 935.998 703.406 936.081C703.418 936.165 703.461 936.242 703.525 936.297C703.589 936.352 703.671 936.382 703.756 936.381C719.099 936.088 732.492 947.314 733.958 962.833C736.259 987.042 714.746 999.88 693.425 1000.7C686.831 1000.94 678.488 1000.8 668.396 1000.28C657.181 999.689 644.901 999.875 631.556 1000.83C630.939 1000.88 630.328 1000.7 629.835 1000.33C629.341 999.953 629 999.415 628.874 998.81L628.478 996.905C628.417 996.617 628.414 996.32 628.469 996.031C628.525 995.741 628.637 995.466 628.801 995.22C628.965 994.975 629.176 994.764 629.423 994.6C629.669 994.437 629.946 994.323 630.237 994.267C637.549 992.86 644.495 990.398 646.385 982.309C646.473 981.929 646.517 981.546 646.517 981.166C646.527 933.734 646.542 908.508 646.561 905.489C646.649 894.63 643.118 891.758 633.666 888.49C633.443 888.413 633.25 888.269 633.113 888.077C632.976 887.886 632.903 887.656 632.904 887.42V883.405C632.903 883.239 632.937 883.074 633.004 882.922C633.071 882.77 633.169 882.633 633.292 882.521C633.415 882.409 633.56 882.324 633.718 882.272C633.875 882.22 634.043 882.201 634.208 882.218C651.28 883.888 666.388 882.833 684.618 882.057C688.77 881.871 694.309 882.569 701.235 884.152C712.05 886.629 721.898 893.722 724.125 905.108C727.027 919.924 718.219 931.633 703.653 935.693ZM667.399 933.274C674.228 933.577 680.593 933.533 686.493 933.143C695.569 932.547 700.962 928.282 702.672 920.349C706.613 902.045 694.011 889.721 676.045 891.377C668.293 892.11 667.092 898.059 667.077 904.449C667.028 920.823 667.033 930.324 667.092 932.952C667.091 933.035 667.123 933.115 667.181 933.175C667.238 933.235 667.316 933.271 667.399 933.274ZM667.678 942.155C667.526 942.155 667.381 942.214 667.274 942.318C667.166 942.423 667.106 942.564 667.106 942.712C666.94 957.376 666.979 969.486 667.223 979.041C667.38 985.166 670.252 989.001 675.84 990.545C682.004 992.245 688.706 992.381 695.945 990.955C704.371 989.299 709.837 984.727 711.508 976.344C713.325 967.229 711.098 956.297 704.459 949.673C694.553 939.766 679.665 942.331 667.678 942.155Z" fill="#1F3C73"/>
<path d="M1321.41 882.292C1334.46 883.201 1343.72 883.479 1349.2 883.128C1357.55 882.59 1367.06 882.273 1377.74 882.175C1387.21 882.087 1396.32 883.821 1405.05 887.377C1432.6 898.574 1442.79 925.626 1436.92 953.66C1431.55 979.467 1411.5 997.316 1385.4 1000.34C1378.73 1001.1 1368.83 1001.06 1355.71 1000.23C1346.47 999.647 1333.99 999.852 1318.27 1000.85C1318.01 1000.86 1317.74 1000.83 1317.49 1000.74C1317.25 1000.65 1317.02 1000.51 1316.83 1000.33C1316.63 1000.15 1316.48 999.932 1316.38 999.691C1316.27 999.45 1316.22 999.191 1316.22 998.928V996.115C1316.22 995.662 1316.38 995.224 1316.67 994.876C1316.96 994.528 1317.37 994.292 1317.82 994.21C1323.4 993.169 1330.42 991 1332.91 985.329C1333.76 983.385 1334.18 979.907 1334.18 974.895C1334.15 931.634 1334.15 909.11 1334.18 907.322C1334.39 896.668 1331.56 890.909 1320.94 888.374C1320.77 888.337 1320.62 888.244 1320.51 888.111C1320.41 887.978 1320.35 887.812 1320.35 887.641V883.274C1320.35 883.139 1320.38 883.005 1320.43 882.881C1320.49 882.757 1320.57 882.645 1320.66 882.553C1320.76 882.46 1320.88 882.39 1321.01 882.345C1321.14 882.3 1321.27 882.282 1321.41 882.292ZM1370.63 891.525C1362.77 891.554 1354.7 892.697 1354.7 902.589C1354.68 934.145 1354.68 959.849 1354.7 979.702C1354.7 980.12 1354.76 980.534 1354.88 980.933C1356.23 985.651 1358.99 988.621 1363.16 989.843C1370.04 991.875 1377.7 992.27 1386.13 991.03C1403.72 988.431 1414 978.226 1416.98 960.416C1422.15 929.539 1407.5 891.451 1370.63 891.525Z" fill="#1F3C73"/>
<path d="M475.078 888.68C475.031 888.677 474.986 888.664 474.944 888.642C474.902 888.62 474.866 888.59 474.837 888.555C474.808 888.519 474.787 888.477 474.776 888.433C474.764 888.389 474.763 888.344 474.771 888.299L475.679 882.848C475.7 882.732 475.76 882.627 475.849 882.552C475.937 882.477 476.048 882.436 476.163 882.438H521.664C521.764 882.439 521.861 882.474 521.938 882.538C522.015 882.602 522.069 882.691 522.089 882.789L523.217 888.167C523.227 888.224 523.226 888.281 523.213 888.337C523.2 888.393 523.175 888.445 523.141 888.49C523.106 888.536 523.063 888.574 523.013 888.601C522.963 888.629 522.907 888.646 522.851 888.651C514.117 889.452 509.711 894.264 509.633 903.086C509.437 923.534 509.428 941.686 509.603 957.542C509.809 976.989 520.301 991.527 540.787 991.541C554.664 991.571 566.402 984.991 571.429 971.904C573.158 967.4 573.895 960.615 573.641 951.549C573.554 948.374 573.573 933.582 573.7 907.175C573.729 900.941 573.026 896.819 571.59 894.806C569.089 891.318 565.064 889.286 559.515 888.71C559.473 888.704 559.432 888.69 559.395 888.67C559.358 888.649 559.325 888.621 559.3 888.589C559.274 888.556 559.255 888.519 559.244 888.479C559.233 888.439 559.231 888.398 559.237 888.358L560.16 882.862C560.181 882.743 560.242 882.634 560.333 882.556C560.425 882.478 560.54 882.436 560.658 882.438H597.879C598.001 882.439 598.118 882.481 598.211 882.559C598.305 882.636 598.368 882.743 598.392 882.862L599.447 887.918C599.466 888.005 599.467 888.094 599.448 888.181C599.43 888.267 599.393 888.349 599.34 888.42C599.287 888.491 599.22 888.549 599.142 888.592C599.064 888.634 598.979 888.659 598.89 888.666C590.293 889.457 585.936 894.469 585.819 903.701C585.643 916.207 585.638 932.224 585.804 951.754C585.882 961.055 585.15 968.191 583.606 973.164C578.614 989.255 567.233 999.015 549.462 1002.44C538.384 1004.58 524.756 1003.06 514.41 998.458C497.274 990.818 488.57 976.691 488.296 956.077C488.228 950.831 488.243 934.72 488.34 907.746C488.36 901.122 487.74 896.809 486.479 894.806C484.252 891.269 480.452 889.228 475.078 888.68Z" fill="#1F3C73"/>
<path d="M769.961 888.695C769.86 888.684 769.767 888.636 769.699 888.56C769.632 888.485 769.594 888.386 769.595 888.285V883.419C769.595 883.159 769.697 882.909 769.878 882.725C770.06 882.541 770.306 882.438 770.562 882.438H816.209C816.342 882.437 816.471 882.482 816.575 882.565C816.678 882.647 816.751 882.763 816.781 882.892L817.807 887.816C817.826 887.908 817.825 888.002 817.805 888.094C817.786 888.186 817.747 888.272 817.692 888.348C817.637 888.424 817.566 888.488 817.485 888.535C817.404 888.582 817.314 888.611 817.221 888.622C812.072 889.227 808.374 891.079 806.127 894.176C804.711 896.11 804.008 900.165 804.017 906.339C804.056 952.384 804.086 976.896 804.105 979.876C804.125 986.07 807.295 989.617 813.616 990.515C830.702 992.963 849.43 989.035 860.259 974.498C862.208 971.86 863.586 971.288 866.253 973.164C866.447 973.299 866.611 973.472 866.735 973.674C866.858 973.876 866.939 974.101 866.971 974.337C868.07 983.276 860.699 998.121 851.584 1000.67C850.983 1000.85 850.359 1000.92 849.738 1000.89C828.91 999.943 805.175 999.723 778.534 1000.23C773.454 1000.33 769.873 1000.57 767.793 1000.96C767.344 1001.05 766.88 1000.96 766.499 1000.71C766.118 1000.45 765.851 1000.06 765.756 999.616L765.14 996.67C765.042 996.185 765.133 995.681 765.395 995.263C765.657 994.845 766.07 994.546 766.547 994.428C772.497 992.919 778.637 991.512 781.831 986.031C782.71 984.526 783.155 981.088 783.165 975.714C783.233 938.531 783.204 913.676 783.077 901.151C783.003 893.37 776.966 889.442 769.961 888.695Z" fill="#1F3C73"/>
<path d="M920.617 882.393C928.041 882.393 935.471 882.393 942.906 882.393C943.131 882.395 943.349 882.473 943.522 882.615C943.696 882.756 943.814 882.952 943.858 883.17L944.796 887.713C944.819 887.827 944.819 887.945 944.796 888.059C944.773 888.173 944.727 888.281 944.661 888.375C944.595 888.47 944.511 888.55 944.413 888.61C944.315 888.67 944.206 888.709 944.092 888.724C936.531 889.794 931.124 893.487 930.919 901.84C930.879 903.775 930.855 917.022 930.845 941.584C930.836 966.154 930.855 979.407 930.904 981.342C931.109 989.695 936.502 993.402 944.063 994.472C944.177 994.487 944.286 994.526 944.384 994.586C944.481 994.646 944.566 994.726 944.632 994.821C944.698 994.916 944.744 995.024 944.767 995.138C944.79 995.251 944.79 995.369 944.767 995.483L943.829 1000.03C943.782 1000.24 943.662 1000.43 943.489 1000.57C943.316 1000.71 943.1 1000.79 942.876 1000.79C935.442 1000.79 928.012 1000.78 920.587 1000.77C913.173 1000.77 905.743 1000.77 898.299 1000.77C898.075 1000.77 897.859 1000.7 897.686 1000.56C897.513 1000.42 897.393 1000.23 897.346 1000.01L896.408 995.469C896.385 995.354 896.385 995.237 896.408 995.123C896.431 995.009 896.477 994.901 896.543 994.806C896.609 994.712 896.693 994.632 896.791 994.572C896.889 994.512 896.998 994.473 897.112 994.457C904.673 993.388 910.08 989.695 910.286 981.342C910.334 979.407 910.359 966.154 910.359 941.584C910.369 917.013 910.349 903.76 910.3 901.826C910.11 893.472 904.703 889.78 897.141 888.71C897.028 888.694 896.918 888.656 896.821 888.595C896.723 888.535 896.638 888.456 896.572 888.361C896.506 888.266 896.46 888.158 896.437 888.044C896.414 887.93 896.414 887.813 896.438 887.699L897.375 883.156C897.419 882.938 897.538 882.742 897.711 882.6C897.885 882.459 898.103 882.381 898.328 882.379C905.772 882.389 913.202 882.393 920.617 882.393Z" fill="#1F3C73"/>
<path d="M1848.86 941.569C1848.88 966.13 1848.92 979.378 1848.97 981.312C1849.17 989.665 1854.58 993.358 1862.14 994.428C1862.25 994.443 1862.36 994.482 1862.46 994.542C1862.56 994.602 1862.64 994.682 1862.71 994.777C1862.77 994.872 1862.82 994.98 1862.84 995.094C1862.87 995.207 1862.87 995.325 1862.84 995.439L1861.91 999.968C1861.86 1000.19 1861.74 1000.38 1861.57 1000.52C1861.4 1000.66 1861.18 1000.74 1860.95 1000.74C1853.52 1000.74 1846.09 1000.75 1838.68 1000.76C1831.25 1000.77 1823.83 1000.78 1816.39 1000.79C1816.17 1000.79 1815.95 1000.71 1815.77 1000.57C1815.6 1000.43 1815.48 1000.23 1815.44 1000.01L1814.5 995.469C1814.48 995.354 1814.48 995.237 1814.5 995.123C1814.52 995.009 1814.57 994.901 1814.63 994.806C1814.7 994.712 1814.79 994.632 1814.88 994.572C1814.98 994.512 1815.09 994.473 1815.2 994.457C1822.75 993.388 1828.16 989.695 1828.35 981.342C1828.4 979.407 1828.41 966.159 1828.38 941.598C1828.36 917.037 1828.32 903.789 1828.28 901.855C1828.07 893.502 1822.66 889.809 1815.1 888.739C1814.99 888.723 1814.88 888.685 1814.78 888.626C1814.69 888.567 1814.6 888.488 1814.54 888.395C1814.47 888.302 1814.43 888.196 1814.4 888.084C1814.38 887.972 1814.38 887.856 1814.4 887.742L1815.34 883.2C1815.38 882.982 1815.5 882.786 1815.67 882.644C1815.84 882.503 1816.06 882.425 1816.29 882.423C1823.72 882.423 1831.15 882.418 1838.56 882.408C1845.99 882.398 1853.42 882.389 1860.85 882.379C1861.08 882.381 1861.29 882.459 1861.47 882.6C1861.64 882.742 1861.76 882.938 1861.8 883.156L1862.74 887.699C1862.76 887.813 1862.76 887.93 1862.74 888.044C1862.72 888.158 1862.67 888.266 1862.61 888.361C1862.54 888.456 1862.46 888.535 1862.36 888.595C1862.26 888.656 1862.15 888.694 1862.04 888.71C1854.49 889.78 1849.08 893.487 1848.89 901.826C1848.84 903.76 1848.83 917.008 1848.86 941.569Z" fill="#1F3C73"/>
<path d="M1997.51 966.026C1997.55 966.072 1997.6 966.104 1997.66 966.118C1997.72 966.132 1997.78 966.128 1997.84 966.105C1997.89 966.083 1997.94 966.043 1997.98 965.992C1998.01 965.942 1998.03 965.882 1998.02 965.821C1997.98 929.195 1997.99 909.665 1998.04 907.232C1998.29 894.79 1993.93 890.629 1982.08 888.694C1981.81 888.649 1981.56 888.516 1981.38 888.317C1981.2 888.118 1981.09 887.863 1981.07 887.595C1980.95 885.934 1981.13 884.527 1981.61 883.374C1981.73 883.091 1981.93 882.85 1982.19 882.681C1982.44 882.511 1982.74 882.421 1983.05 882.422H2021.88C2022.29 882.422 2022.69 882.586 2022.98 882.877C2023.27 883.168 2023.43 883.563 2023.43 883.975V887.903C2023.43 888.168 2023.33 888.424 2023.16 888.623C2022.98 888.823 2022.74 888.952 2022.48 888.987C2018.01 889.573 2013.13 892.46 2011.28 896.285C2010.48 897.946 2010.08 901.229 2010.08 906.133C2010.06 952.471 2010.1 977.667 2010.2 981.722C2010.36 988.385 2010.99 994.466 2012.09 999.967C2012.16 1000.29 2012.1 1000.63 2011.94 1000.92C2011.78 1001.21 2011.52 1001.43 2011.21 1001.53C2006.33 1003.29 2003.8 1002.36 2000.02 998.399C1959.11 955.607 1933.98 929.312 1924.64 919.513C1923.46 918.282 1922.45 917.3 1921.6 916.567C1921.56 916.531 1921.51 916.508 1921.45 916.5C1921.4 916.492 1921.34 916.5 1921.29 916.523C1921.24 916.546 1921.2 916.583 1921.17 916.63C1921.14 916.677 1921.12 916.731 1921.12 916.787C1921.02 928.53 1921.03 949.921 1921.15 980.96C1921.18 990.06 1928.93 992.61 1936.83 994.427C1937.06 994.479 1937.27 994.595 1937.43 994.761C1937.6 994.927 1937.71 995.136 1937.77 995.365C1938.23 997.329 1937.99 998.911 1937.02 1000.11C1936.85 1000.32 1936.63 1000.49 1936.39 1000.61C1936.15 1000.73 1935.88 1000.79 1935.61 1000.79H1896.48C1896.23 1000.79 1895.98 1000.72 1895.76 1000.58C1895.54 1000.45 1895.37 1000.26 1895.25 1000.04C1894.52 998.623 1894.28 997.163 1894.52 995.658C1894.57 995.37 1894.7 995.101 1894.89 994.883C1895.09 994.665 1895.34 994.507 1895.62 994.427C1902.51 992.463 1908.88 989.254 1908.91 981.282C1909.05 939.399 1909.03 915.131 1908.87 908.478C1908.67 900.691 1905.88 893.76 1900.49 887.683C1900.15 887.309 1899.93 886.857 1899.84 886.379C1899.58 884.874 1900.23 883.667 1901.8 882.759C1902.15 882.548 1902.55 882.437 1902.96 882.437H1916.71C1917.26 882.437 1917.81 882.551 1918.32 882.773C1918.84 882.995 1919.3 883.319 1919.68 883.726L1997.51 966.026Z" fill="#1F3C73"/>
<path d="M2091.75 941.568C2091.77 966.139 2091.8 979.391 2091.85 981.326C2092.06 989.679 2097.46 993.357 2105.04 994.427C2105.15 994.442 2105.26 994.481 2105.36 994.541C2105.46 994.601 2105.54 994.681 2105.61 994.776C2105.68 994.871 2105.72 994.979 2105.74 995.093C2105.77 995.207 2105.77 995.324 2105.74 995.438L2104.81 999.981C2104.76 1000.2 2104.64 1000.39 2104.47 1000.53C2104.29 1000.67 2104.08 1000.74 2103.85 1000.74C2096.41 1000.75 2088.98 1000.76 2081.57 1000.76C2074.14 1000.77 2066.71 1000.78 2059.28 1000.79C2059.05 1000.79 2058.84 1000.71 2058.66 1000.57C2058.49 1000.43 2058.37 1000.24 2058.32 1000.03L2057.37 995.482C2057.35 995.368 2057.35 995.25 2057.37 995.137C2057.39 995.023 2057.44 994.915 2057.51 994.82C2057.57 994.725 2057.66 994.645 2057.75 994.585C2057.85 994.525 2057.96 994.486 2058.07 994.471C2065.64 993.387 2071.04 989.694 2071.23 981.341C2071.27 979.406 2071.28 966.153 2071.26 941.583C2071.24 917.012 2071.21 903.759 2071.16 901.825C2070.96 893.471 2065.55 889.793 2057.99 888.723C2057.87 888.708 2057.76 888.669 2057.67 888.609C2057.57 888.549 2057.48 888.469 2057.42 888.374C2057.35 888.279 2057.31 888.172 2057.28 888.058C2057.26 887.944 2057.26 887.826 2057.28 887.712L2058.21 883.169C2058.25 882.954 2058.37 882.761 2058.55 882.623C2058.72 882.484 2058.94 882.408 2059.16 882.407C2066.6 882.397 2074.03 882.393 2081.45 882.393C2088.87 882.383 2096.3 882.373 2103.74 882.363C2103.96 882.364 2104.18 882.44 2104.35 882.579C2104.52 882.717 2104.64 882.91 2104.69 883.125L2105.64 887.668C2105.67 887.782 2105.67 887.9 2105.64 888.014C2105.62 888.128 2105.57 888.236 2105.51 888.33C2105.44 888.425 2105.36 888.505 2105.26 888.565C2105.16 888.625 2105.05 888.664 2104.94 888.679C2097.38 889.764 2091.97 893.457 2091.78 901.81C2091.74 903.744 2091.73 916.997 2091.75 941.568Z" fill="#1F3C73"/>
<path d="M2529.79 966.041C2529.83 966.087 2529.88 966.119 2529.94 966.133C2530 966.147 2530.06 966.142 2530.12 966.12C2530.18 966.097 2530.22 966.058 2530.26 966.007C2530.29 965.956 2530.31 965.896 2530.3 965.836C2530.27 929.209 2530.28 909.679 2530.33 907.247C2530.58 894.805 2526.23 890.643 2514.39 888.709C2514.12 888.664 2513.88 888.531 2513.69 888.332C2513.51 888.132 2513.4 887.878 2513.38 887.61C2513.26 885.949 2513.44 884.542 2513.92 883.389C2514.04 883.106 2514.24 882.864 2514.5 882.695C2514.76 882.526 2515.05 882.436 2515.36 882.437L2554.18 882.451C2554.59 882.451 2554.98 882.615 2555.27 882.906C2555.57 883.198 2555.73 883.593 2555.73 884.005V887.932C2555.73 888.197 2555.63 888.453 2555.46 888.653C2555.28 888.852 2555.04 888.981 2554.78 889.016C2550.31 889.603 2545.43 892.475 2543.58 896.3C2542.78 897.961 2542.38 901.243 2542.38 906.148C2542.35 952.486 2542.38 977.682 2542.48 981.736C2542.63 988.399 2543.25 994.481 2544.36 999.981C2544.42 1000.3 2544.36 1000.64 2544.2 1000.92C2544.04 1001.21 2543.78 1001.43 2543.48 1001.53C2538.6 1003.29 2536.06 1002.36 2532.28 998.399C2491.4 955.607 2466.29 929.312 2456.95 919.513C2455.77 918.282 2454.76 917.3 2453.91 916.567C2453.87 916.531 2453.82 916.507 2453.76 916.5C2453.71 916.492 2453.65 916.5 2453.6 916.523C2453.55 916.546 2453.51 916.583 2453.48 916.63C2453.45 916.677 2453.43 916.731 2453.43 916.787C2453.32 928.52 2453.32 949.906 2453.43 980.945C2453.46 990.045 2461.21 992.595 2469.11 994.412C2469.34 994.465 2469.55 994.58 2469.71 994.746C2469.88 994.912 2469.99 995.122 2470.05 995.35C2470.52 997.314 2470.27 998.897 2469.3 1000.1C2469.13 1000.31 2468.92 1000.48 2468.67 1000.6C2468.43 1000.71 2468.16 1000.77 2467.89 1000.77L2428.77 1000.76C2428.51 1000.76 2428.26 1000.69 2428.04 1000.56C2427.82 1000.42 2427.65 1000.24 2427.54 1000.01C2426.8 998.594 2426.56 997.133 2426.8 995.629C2426.85 995.34 2426.98 995.072 2427.17 994.854C2427.37 994.636 2427.62 994.478 2427.9 994.398C2434.79 992.449 2441.16 989.239 2441.19 981.267C2441.35 939.384 2441.34 915.116 2441.18 908.463C2440.98 900.677 2438.19 893.745 2432.8 887.668C2432.46 887.294 2432.24 886.843 2432.15 886.364C2431.89 884.859 2432.54 883.653 2434.11 882.744C2434.46 882.534 2434.86 882.422 2435.27 882.422L2449.02 882.437C2449.57 882.437 2450.12 882.551 2450.64 882.773C2451.15 882.995 2451.61 883.319 2451.99 883.726L2529.79 966.041Z" fill="#1F3C73"/>
<path d="M1686.76 1100.43H1079.02C1078.71 1100.43 1078.45 1100.68 1078.45 1101V1129.16C1078.45 1129.48 1078.71 1129.74 1079.02 1129.74H1686.76C1687.07 1129.74 1687.33 1129.48 1687.33 1129.16V1101C1687.33 1100.68 1687.07 1100.43 1686.76 1100.43Z" fill="#ED232D"/>
<path d="M1519.6 1144.23C1521.86 1146.37 1523.63 1148.82 1524.91 1151.59C1525.17 1152.16 1525.24 1152.81 1525.08 1153.43C1524.93 1154.04 1524.57 1154.59 1524.07 1154.97L1501 1172.38C1500.78 1172.54 1500.52 1172.65 1500.24 1172.69C1498.66 1172.89 1496.89 1172.06 1494.92 1170.2C1492.96 1168.33 1492.04 1166.6 1492.17 1165.01C1492.19 1164.73 1492.28 1164.46 1492.43 1164.23L1508.64 1140.32C1508.99 1139.79 1509.52 1139.4 1510.12 1139.21C1510.73 1139.03 1511.39 1139.05 1511.98 1139.29C1514.8 1140.43 1517.34 1142.08 1519.6 1144.23Z" fill="#ED232D"/>
<path d="M724.559 1184.02C724.621 1184 724.687 1184.01 724.744 1184.04C724.8 1184.07 724.844 1184.12 724.867 1184.18C734.978 1207.67 750.39 1243.63 771.101 1292.05C774.368 1299.67 778.633 1307.47 787.616 1308.93C788.217 1309.03 788.765 1309.34 789.16 1309.8C789.554 1310.27 789.771 1310.86 789.77 1311.47V1313.94C789.77 1314.55 789.53 1315.12 789.105 1315.55C788.679 1315.98 788.101 1316.21 787.498 1316.21H734.612C733.975 1316.21 733.363 1315.96 732.913 1315.51C732.462 1315.06 732.209 1314.45 732.209 1313.81V1311.36C732.21 1310.72 732.444 1310.1 732.867 1309.62C733.29 1309.14 733.874 1308.83 734.509 1308.74C741.309 1307.85 745.06 1303.77 743.243 1296.4C741.973 1291.3 740.273 1287.38 738.144 1284.63C737.108 1283.3 735.354 1282.62 732.883 1282.6C716.343 1282.47 704.044 1282.45 695.984 1282.54C694.489 1282.56 692.77 1282.75 690.826 1283.11C690.073 1283.25 689.365 1283.57 688.761 1284.04C688.157 1284.51 687.674 1285.12 687.353 1285.82C684.231 1292.56 679.777 1303.14 688.291 1307.41C689.316 1307.92 691.339 1308.41 694.357 1308.89C694.999 1308.99 695.583 1309.31 696.005 1309.81C696.427 1310.3 696.659 1310.93 696.658 1311.58V1313.4C696.658 1314.15 696.36 1314.86 695.83 1315.39C695.299 1315.92 694.58 1316.21 693.83 1316.21H653.224C652.586 1316.21 651.975 1315.96 651.524 1315.51C651.074 1315.07 650.82 1314.46 650.82 1313.83V1311.2C650.821 1310.63 651.025 1310.08 651.396 1309.64C651.767 1309.21 652.28 1308.93 652.843 1308.84C661.884 1307.44 666.031 1299.87 669.46 1291.89C682.112 1262.44 694.558 1233.48 706.799 1205.02C709.397 1198.96 710.838 1193.18 711.122 1187.69C711.133 1187.44 711.231 1187.19 711.398 1187C711.566 1186.8 711.793 1186.67 712.045 1186.62L724.559 1184.02ZM713.32 1270.76C723.03 1270.77 728.736 1270.74 730.436 1270.67C730.712 1270.66 730.981 1270.58 731.22 1270.44C731.46 1270.3 731.662 1270.11 731.81 1269.87C731.959 1269.64 732.048 1269.37 732.072 1269.09C732.095 1268.82 732.052 1268.54 731.945 1268.28C726.816 1255.93 720.744 1241.34 713.73 1224.51C713.652 1224.33 713.505 1224.24 713.29 1224.24C713.163 1224.24 713.061 1224.33 712.983 1224.51C705.949 1241.33 699.853 1255.91 694.694 1268.25C694.588 1268.51 694.544 1268.79 694.568 1269.06C694.591 1269.34 694.681 1269.61 694.829 1269.84C694.977 1270.08 695.18 1270.27 695.419 1270.41C695.658 1270.55 695.928 1270.63 696.204 1270.64C697.904 1270.71 703.609 1270.75 713.32 1270.76Z" fill="#ED232D"/>
<path d="M2156.26 1184.02C2156.32 1184 2156.39 1184.01 2156.45 1184.04C2156.5 1184.07 2156.55 1184.12 2156.57 1184.18C2166.68 1207.67 2182.09 1243.63 2202.8 1292.05C2206.07 1299.67 2210.34 1307.47 2219.32 1308.93C2219.92 1309.03 2220.47 1309.34 2220.86 1309.8C2221.26 1310.27 2221.47 1310.86 2221.47 1311.47V1313.94C2221.47 1314.55 2221.23 1315.12 2220.81 1315.55C2220.38 1315.98 2219.8 1316.21 2219.2 1316.21H2166.32C2165.68 1316.21 2165.07 1315.96 2164.62 1315.51C2164.16 1315.06 2163.91 1314.45 2163.91 1313.81V1311.36C2163.91 1310.72 2164.15 1310.1 2164.57 1309.62C2164.99 1309.14 2165.58 1308.83 2166.21 1308.74C2173.01 1307.85 2176.76 1303.77 2174.95 1296.4C2173.68 1291.3 2171.98 1287.38 2169.85 1284.63C2168.81 1283.3 2167.06 1282.62 2164.59 1282.6C2148.05 1282.47 2135.75 1282.45 2127.69 1282.54C2126.19 1282.56 2124.47 1282.75 2122.53 1283.11C2121.78 1283.25 2121.07 1283.57 2120.46 1284.04C2119.86 1284.51 2119.38 1285.12 2119.06 1285.82C2115.93 1292.56 2111.48 1303.14 2119.99 1307.41C2121.02 1307.92 2123.04 1308.41 2126.06 1308.89C2126.7 1308.99 2127.29 1309.31 2127.71 1309.81C2128.13 1310.3 2128.36 1310.93 2128.36 1311.58V1313.4C2128.36 1314.15 2128.06 1314.86 2127.53 1315.39C2127 1315.92 2126.28 1316.21 2125.53 1316.21H2084.93C2084.29 1316.21 2083.68 1315.96 2083.23 1315.51C2082.78 1315.07 2082.52 1314.46 2082.52 1313.83V1311.2C2082.52 1310.63 2082.73 1310.08 2083.1 1309.64C2083.47 1309.21 2083.98 1308.93 2084.55 1308.84C2093.59 1307.44 2097.73 1299.87 2101.16 1291.89C2113.81 1262.44 2126.26 1233.48 2138.5 1205.02C2141.1 1198.96 2142.54 1193.18 2142.82 1187.69C2142.84 1187.44 2142.93 1187.19 2143.1 1187C2143.27 1186.8 2143.5 1186.67 2143.75 1186.62L2156.26 1184.02ZM2145.02 1270.76C2154.73 1270.77 2160.44 1270.74 2162.14 1270.67C2162.41 1270.66 2162.68 1270.58 2162.92 1270.44C2163.16 1270.3 2163.37 1270.11 2163.51 1269.87C2163.66 1269.64 2163.75 1269.37 2163.77 1269.09C2163.8 1268.82 2163.75 1268.54 2163.65 1268.28C2158.52 1255.93 2152.45 1241.34 2145.43 1224.51C2145.35 1224.33 2145.21 1224.24 2144.99 1224.24C2144.87 1224.24 2144.76 1224.33 2144.69 1224.51C2137.65 1241.33 2131.56 1255.91 2126.4 1268.25C2126.29 1268.51 2126.25 1268.79 2126.27 1269.06C2126.29 1269.34 2126.38 1269.61 2126.53 1269.84C2126.68 1270.08 2126.88 1270.27 2127.12 1270.41C2127.36 1270.55 2127.63 1270.63 2127.91 1270.64C2129.61 1270.71 2135.31 1270.75 2145.02 1270.76Z" fill="#ED232D"/>
<path d="M620.345 1211.77C618.792 1211.32 616.271 1209.6 612.783 1206.61C604.128 1199.21 594.554 1196.62 584.061 1198.85C579.206 1199.88 575.914 1202.58 574.185 1206.95C570.492 1216.32 576.178 1223.76 583.871 1228.71C598.642 1238.22 611.132 1246.68 621.341 1254.09C634.608 1263.73 638.643 1276.27 633.446 1291.73C630.984 1299.02 625.845 1305.26 618.029 1310.46C601.177 1321.67 579.079 1321.15 560.439 1314.38C556.815 1313.07 553.991 1311.4 551.969 1309.36C551.382 1308.77 550.949 1308.04 550.706 1307.24C550.464 1306.45 550.419 1305.6 550.577 1304.79C551.525 1299.92 552.756 1295.61 554.27 1291.85C554.599 1291.02 555.138 1290.32 555.818 1289.83C556.498 1289.33 557.286 1289.07 558.08 1289.08C559.389 1289.09 560.664 1289.58 561.905 1290.57C574.17 1300.33 584.882 1307.45 601.47 1305.27C608.71 1304.33 613.882 1300.46 615.421 1292.96C616.72 1286.71 614.058 1281.36 607.435 1276.93C598.926 1271.23 586.802 1262.96 571.063 1252.12C559.78 1244.35 551.676 1235.79 552.76 1221.02C553.581 1209.86 559.013 1200.72 569.056 1193.59C584.926 1182.32 605.28 1181.7 622.704 1189.1C625.127 1190.13 627.139 1191.59 628.742 1193.5C629.182 1194.02 629.476 1194.65 629.595 1195.32C629.713 1196 629.651 1196.69 629.416 1197.34L625.019 1209.41C624.684 1210.32 624.014 1211.08 623.147 1211.51C622.279 1211.95 621.278 1212.04 620.345 1211.77Z" fill="#ED232D"/>
<path d="M2066.27 1295.85C2066.48 1296.26 2066.57 1296.73 2066.52 1297.19C2066.47 1297.65 2066.28 1298.09 2065.97 1298.44C2057.83 1307.86 2046.51 1313.4 2034.51 1317.53C2030.76 1318.82 2027.29 1319.43 2024.11 1319.35C1993.03 1318.6 1960.57 1301.18 1954.85 1268.28C1947.38 1225.24 1972.89 1187.23 2017.84 1184.47C2030.2 1183.71 2053.45 1184.28 2062.72 1193.45C2063.25 1193.97 2063.63 1194.63 2063.82 1195.35C2064.02 1196.06 2064.02 1196.82 2063.82 1197.54C2062.38 1202.78 2060.63 1207.42 2058.54 1211.48C2054.6 1219.17 2046.88 1212.34 2040.45 1208.61C2029.1 1202.03 2016.79 1199.93 2003.49 1202.31C1986.04 1205.43 1978.28 1220.27 1977.46 1236.71C1977.16 1242.71 1977.31 1247.72 1977.9 1251.72C1981.79 1277.75 1998.93 1293.84 2024.25 1298.07C2032.7 1299.49 2042.59 1297.46 2050.85 1295.45C2054.73 1294.51 2058.08 1293.24 2060.9 1291.63C2061.1 1291.51 2061.33 1291.45 2061.56 1291.44C2061.79 1291.43 2062.01 1291.48 2062.22 1291.58C2063.85 1292.38 2065.2 1293.8 2066.27 1295.85Z" fill="#ED232D"/>
<path d="M867.233 1194.86C858.411 1196.56 853.283 1200.24 853.239 1210.41C853.121 1243.22 853.102 1269.57 853.18 1289.47C853.209 1295.96 854.924 1302.28 862.002 1303.74C880.7 1307.64 901.069 1300.42 913.276 1285.54C913.552 1285.21 913.928 1284.98 914.346 1284.88C917.247 1284.21 919.338 1284.95 920.618 1287.1C920.874 1287.52 920.983 1288.02 920.926 1288.5C919.958 1297.4 914.492 1310.29 905.92 1314.98C903.692 1316.2 900.722 1316.63 897.01 1316.27C893.972 1315.98 883.201 1315.64 864.698 1315.26C842.61 1314.81 824.18 1315.15 809.408 1316.29C809.036 1316.32 808.661 1316.27 808.308 1316.14C807.955 1316.02 807.631 1315.82 807.357 1315.57C807.083 1315.32 806.865 1315.01 806.716 1314.66C806.567 1314.32 806.491 1313.95 806.492 1313.58V1310.43C806.491 1309.7 806.749 1309 807.22 1308.46C807.69 1307.91 808.342 1307.55 809.057 1307.44C820.311 1305.71 825.953 1300.18 825.982 1290.86C826.07 1260.74 826.08 1234.52 826.011 1212.18C825.967 1201.72 821.967 1196.22 811.533 1194.77C811.155 1194.72 810.808 1194.53 810.558 1194.24C810.307 1193.95 810.17 1193.57 810.17 1193.19V1189.12C810.17 1188.62 810.366 1188.15 810.716 1187.8C811.065 1187.45 811.538 1187.25 812.031 1187.25H866.662C866.965 1187.25 867.256 1187.37 867.47 1187.59C867.684 1187.8 867.805 1188.09 867.805 1188.4V1194.17C867.804 1194.33 867.747 1194.49 867.643 1194.61C867.539 1194.74 867.394 1194.83 867.233 1194.86Z" fill="#ED232D"/>
<path d="M1029.5 1187.77C1029.55 1187.62 1029.65 1187.49 1029.78 1187.4C1029.91 1187.3 1030.06 1187.25 1030.21 1187.25H1073.77C1074.02 1187.25 1074.28 1187.3 1074.51 1187.4C1074.75 1187.5 1074.96 1187.64 1075.14 1187.82C1075.33 1188.01 1075.47 1188.22 1075.57 1188.46C1075.66 1188.69 1075.72 1188.95 1075.72 1189.2V1193.06C1075.71 1193.46 1075.57 1193.85 1075.31 1194.16C1075.05 1194.47 1074.69 1194.67 1074.29 1194.74C1063.64 1196.6 1060.67 1202.41 1060.55 1212.18C1060.49 1217.21 1060.49 1234.21 1060.56 1263.18C1060.58 1272.84 1059.85 1280.18 1058.38 1285.19C1052.97 1303.5 1040.22 1314.5 1020.13 1318.18C1008.16 1320.38 996.139 1319.39 984.084 1315.22C968.14 1309.69 957.604 1298.82 953.046 1283.18C951.767 1278.8 951.171 1272.65 951.259 1264.73C951.376 1253.24 951.361 1235.26 951.215 1210.79C951.156 1201.1 946.643 1195.78 937.674 1194.83C937.234 1194.79 936.825 1194.58 936.527 1194.25C936.23 1193.93 936.064 1193.5 936.063 1193.06V1189.41C936.062 1188.84 936.291 1188.29 936.698 1187.88C937.104 1187.48 937.656 1187.25 938.231 1187.25H992.671C993.231 1187.25 993.767 1187.48 994.163 1187.87C994.559 1188.27 994.781 1188.8 994.781 1189.36V1193C994.782 1193.43 994.629 1193.84 994.35 1194.16C994.07 1194.49 993.683 1194.71 993.257 1194.77C982.135 1196.5 979.204 1202.66 979.189 1212.53C979.15 1228.76 979.155 1247.32 979.204 1268.22C979.277 1292.08 993.594 1307.39 1018.17 1303.66C1037.91 1300.64 1044.91 1285.06 1045.09 1266.76C1045.11 1264.26 1045.12 1248.3 1045.13 1218.85C1045.15 1207.86 1045.28 1198.7 1034.29 1195.77C1031.46 1195.02 1029.89 1194.63 1029.6 1194.63C1029.36 1194.62 1029.14 1194.52 1028.97 1194.37C1028.79 1194.21 1028.69 1193.99 1028.66 1193.76C1028.47 1191.76 1028.74 1189.76 1029.5 1187.77Z" fill="#ED232D"/>
<path d="M1094.37 1315.25C1093.58 1313.35 1093.41 1311.27 1093.84 1309.02C1093.9 1308.73 1094.04 1308.48 1094.25 1308.28C1094.46 1308.08 1094.72 1307.96 1095 1307.92C1096.6 1307.69 1099.44 1306.84 1103.5 1305.35C1109.93 1303.02 1113.16 1298.07 1113.19 1290.52C1113.29 1268.42 1113.3 1242.3 1113.23 1212.16C1113.22 1201.92 1108.31 1196.76 1098.62 1194.67C1098.27 1194.59 1097.95 1194.39 1097.72 1194.1C1097.49 1193.82 1097.36 1193.46 1097.36 1193.1V1188.98C1097.36 1188.75 1097.41 1188.53 1097.5 1188.32C1097.59 1188.11 1097.72 1187.93 1097.88 1187.77C1098.05 1187.62 1098.24 1187.5 1098.46 1187.42C1098.67 1187.34 1098.89 1187.31 1099.12 1187.32C1113.04 1188.12 1126.18 1188.29 1138.54 1187.85C1155.48 1187.26 1165.85 1187.08 1169.66 1187.31C1201.07 1189.23 1227.52 1207.49 1231.53 1240.29C1234.14 1261.48 1227.28 1282.76 1212.1 1297.72C1201.27 1308.37 1185.48 1315.2 1170.72 1315.99C1163 1316.41 1153.8 1316.31 1143.11 1315.67C1134.51 1315.16 1118.69 1315.29 1095.63 1316.07C1095.37 1316.07 1095.1 1316 1094.88 1315.85C1094.65 1315.71 1094.48 1315.49 1094.37 1315.25ZM1140.39 1289.03C1140.4 1299.98 1149.63 1303.61 1159.26 1304.69C1181.94 1307.21 1200.16 1299.78 1203.68 1275.15C1204.78 1267.44 1204.98 1259.88 1204.28 1252.45C1201.77 1226 1187.41 1199.14 1157.49 1198.37C1148.26 1198.13 1140.47 1200.18 1140.42 1210.7C1140.35 1225.82 1140.34 1251.93 1140.39 1289.03Z" fill="#ED232D"/>
<path d="M1343.37 1268.13C1343.31 1275.01 1343.29 1281.63 1343.31 1288C1343.33 1292.5 1343.78 1296.09 1344.67 1298.77C1346.97 1305.63 1355.71 1307.86 1362.68 1308.55C1363.17 1308.6 1363.62 1308.82 1363.95 1309.19C1364.29 1309.56 1364.47 1310.03 1364.47 1310.53V1314.06C1364.47 1314.63 1364.24 1315.18 1363.84 1315.58C1363.43 1315.99 1362.89 1316.21 1362.32 1316.21H1302.34C1302.08 1316.21 1301.84 1316.13 1301.63 1315.99C1301.42 1315.84 1301.26 1315.63 1301.18 1315.39C1300.51 1313.57 1300.28 1311.77 1300.48 1310C1300.51 1309.73 1300.62 1309.48 1300.79 1309.27C1300.97 1309.06 1301.2 1308.92 1301.46 1308.84C1303.48 1308.24 1306.57 1307.9 1308.95 1306.63C1313.69 1304.08 1316.09 1299.43 1316.13 1292.68C1316.25 1270.95 1316.27 1244.84 1316.17 1214.36C1316.14 1206.01 1314.22 1199.43 1306.32 1196.47C1303.12 1195.28 1301.43 1194.64 1301.27 1194.56C1301.02 1194.46 1300.81 1194.3 1300.66 1194.08C1300.5 1193.86 1300.42 1193.6 1300.4 1193.33C1300.33 1191.3 1300.56 1189.56 1301.09 1188.12C1301.18 1187.88 1301.33 1187.68 1301.54 1187.55C1301.75 1187.41 1302 1187.34 1302.25 1187.35C1318.42 1188.1 1330.15 1188.28 1337.46 1187.9C1349.67 1187.26 1360.17 1187.09 1368.95 1187.37C1396.46 1188.25 1419.92 1202.32 1415.45 1233.25C1412.11 1256.45 1390.13 1266.46 1369.04 1267.98C1360.93 1268.57 1352.71 1268.33 1344.36 1267.27C1344.24 1267.25 1344.11 1267.26 1344 1267.3C1343.88 1267.33 1343.77 1267.39 1343.67 1267.47C1343.58 1267.56 1343.5 1267.66 1343.45 1267.77C1343.4 1267.88 1343.37 1268.01 1343.37 1268.13ZM1343.57 1256.63C1357.35 1258.81 1376.52 1258.33 1383.46 1244.63C1386.67 1238.28 1387.37 1231.04 1385.57 1222.88C1382.06 1207.06 1371.96 1198.89 1355.27 1198.36C1345.62 1198.05 1343.51 1203.12 1343.41 1211.49C1343.23 1225.37 1343.23 1240.36 1343.41 1256.45C1343.41 1256.5 1343.43 1256.54 1343.46 1256.57C1343.49 1256.6 1343.53 1256.62 1343.57 1256.63Z" fill="#ED232D"/>
<path d="M1532.13 1187.77C1532.19 1187.62 1532.29 1187.49 1532.41 1187.4C1532.54 1187.3 1532.69 1187.25 1532.85 1187.25H1576.4C1576.66 1187.25 1576.91 1187.3 1577.15 1187.4C1577.38 1187.5 1577.6 1187.64 1577.78 1187.82C1577.96 1188.01 1578.1 1188.22 1578.2 1188.46C1578.3 1188.69 1578.35 1188.95 1578.35 1189.2V1193.06C1578.35 1193.46 1578.21 1193.85 1577.95 1194.16C1577.69 1194.47 1577.33 1194.67 1576.93 1194.74C1566.27 1196.6 1563.3 1202.41 1563.18 1212.18C1563.12 1217.21 1563.13 1234.21 1563.2 1263.18C1563.22 1272.84 1562.49 1280.18 1561.01 1285.19C1555.6 1303.5 1542.85 1314.5 1522.77 1318.18C1510.79 1320.38 1498.77 1319.39 1486.72 1315.22C1470.77 1309.69 1460.24 1298.82 1455.68 1283.18C1454.4 1278.8 1453.8 1272.65 1453.89 1264.73C1454.01 1253.24 1454 1235.26 1453.86 1210.79C1453.8 1201.1 1449.29 1195.78 1440.32 1194.83C1439.88 1194.79 1439.47 1194.58 1439.18 1194.25C1438.88 1193.93 1438.71 1193.5 1438.71 1193.06V1189.41C1438.71 1188.84 1438.94 1188.29 1439.35 1187.88C1439.75 1187.48 1440.3 1187.25 1440.88 1187.25H1495.3C1495.86 1187.25 1496.4 1187.48 1496.8 1187.87C1497.19 1188.27 1497.42 1188.8 1497.42 1189.36V1193C1497.42 1193.43 1497.26 1193.84 1496.98 1194.16C1496.7 1194.49 1496.32 1194.71 1495.89 1194.77C1484.77 1196.5 1481.84 1202.66 1481.82 1212.53C1481.78 1228.76 1481.79 1247.32 1481.84 1268.22C1481.91 1292.08 1496.23 1307.39 1520.8 1303.66C1540.54 1300.64 1547.55 1285.06 1547.72 1266.76C1547.74 1264.26 1547.76 1248.3 1547.77 1218.85C1547.78 1207.86 1547.91 1198.7 1536.92 1195.77C1534.09 1195.02 1532.53 1194.63 1532.23 1194.63C1532 1194.62 1531.77 1194.52 1531.6 1194.37C1531.43 1194.21 1531.32 1193.99 1531.3 1193.76C1531.1 1191.76 1531.38 1189.76 1532.13 1187.77Z" fill="#ED232D"/>
<path d="M1680.47 1244.29C1680.39 1244.31 1680.32 1244.36 1680.28 1244.43C1680.23 1244.5 1680.21 1244.58 1680.22 1244.66C1680.23 1244.74 1680.27 1244.82 1680.32 1244.88C1680.38 1244.94 1680.46 1244.97 1680.54 1244.98C1705.53 1245.45 1720.76 1266.61 1712.83 1290C1706.88 1307.49 1685.45 1315.46 1667.88 1316.11C1661.25 1316.34 1653.38 1316.2 1644.28 1315.68C1635.47 1315.18 1620.14 1315.3 1598.28 1316.05C1598.03 1316.06 1597.79 1315.99 1597.59 1315.86C1597.39 1315.73 1597.23 1315.53 1597.15 1315.3C1596.43 1313.35 1596.23 1311.28 1596.55 1309.1C1596.58 1308.85 1596.69 1308.6 1596.86 1308.41C1597.04 1308.21 1597.26 1308.06 1597.51 1307.99C1608.34 1304.87 1615.66 1302.99 1615.8 1290.19C1615.95 1276.67 1615.95 1249.95 1615.82 1210.01C1615.77 1200.47 1609.57 1197.19 1601.06 1194.58C1600.74 1194.48 1600.46 1194.3 1600.24 1194.04C1600.03 1193.79 1599.89 1193.47 1599.84 1193.14C1599.61 1191.55 1599.81 1189.93 1600.43 1188.28C1600.55 1187.98 1600.75 1187.73 1601.02 1187.56C1601.28 1187.39 1601.6 1187.31 1601.91 1187.32C1617.94 1188.28 1634.4 1188.31 1651.3 1187.41C1666.96 1186.59 1682.79 1187.12 1695.15 1196.82C1700.75 1201.22 1703.85 1206.92 1704.45 1213.92C1705.9 1231.27 1696.14 1240.14 1680.47 1244.29ZM1643.44 1241.42C1650.33 1241.6 1656.5 1241.56 1661.96 1241.28C1674.96 1240.62 1677.48 1227.93 1675.8 1217.48C1673.95 1205.94 1667.42 1199.54 1656.22 1198.29C1645.77 1197.13 1643.1 1201.54 1643.04 1211.07C1642.99 1221.09 1642.98 1231.06 1643.02 1240.98C1643.02 1241.09 1643.06 1241.2 1643.14 1241.28C1643.22 1241.36 1643.33 1241.41 1643.44 1241.42ZM1643.04 1253.09C1642.92 1269.89 1642.95 1282.49 1643.13 1290.9C1643.41 1303.62 1652.25 1305.34 1662.46 1305.28C1683.28 1305.15 1689.48 1288.93 1683.87 1271.35C1680.63 1261.22 1674.25 1254.94 1664.75 1252.51C1664.52 1252.45 1664.29 1252.42 1664.06 1252.41L1644.25 1251.94C1644.09 1251.93 1643.94 1251.96 1643.79 1252.02C1643.65 1252.07 1643.52 1252.16 1643.4 1252.26C1643.29 1252.37 1643.2 1252.5 1643.14 1252.64C1643.08 1252.79 1643.05 1252.94 1643.04 1253.09Z" fill="#ED232D"/>
<path d="M1798.34 1194.17C1798.34 1194.33 1798.28 1194.49 1798.17 1194.61C1798.07 1194.74 1797.93 1194.83 1797.76 1194.86C1788.94 1196.56 1783.81 1200.24 1783.77 1210.41C1783.65 1243.22 1783.63 1269.57 1783.71 1289.47C1783.74 1295.96 1785.46 1302.28 1792.53 1303.74C1811.23 1307.64 1831.6 1300.42 1843.81 1285.54C1844.08 1285.21 1844.46 1284.98 1844.88 1284.88C1847.78 1284.21 1849.87 1284.95 1851.15 1287.1C1851.41 1287.52 1851.51 1288.02 1851.46 1288.5C1850.49 1297.4 1845.02 1310.29 1836.45 1314.98C1834.22 1316.2 1831.25 1316.63 1827.54 1316.27C1824.5 1315.98 1813.73 1315.64 1795.23 1315.26C1773.14 1314.81 1754.71 1315.15 1739.94 1316.29C1739.57 1316.32 1739.19 1316.27 1738.84 1316.14C1738.49 1316.02 1738.16 1315.82 1737.89 1315.57C1737.61 1315.32 1737.4 1315.01 1737.25 1314.66C1737.1 1314.32 1737.02 1313.95 1737.02 1313.58V1310.43C1737.02 1309.7 1737.28 1309 1737.75 1308.46C1738.22 1307.91 1738.87 1307.55 1739.59 1307.44C1750.84 1305.71 1756.48 1300.18 1756.51 1290.86C1756.6 1260.74 1756.61 1234.52 1756.54 1212.18C1756.5 1201.72 1752.5 1196.22 1742.06 1194.77C1741.69 1194.72 1741.34 1194.53 1741.09 1194.24C1740.84 1193.95 1740.7 1193.57 1740.7 1193.19V1189.12C1740.7 1188.62 1740.9 1188.15 1741.25 1187.8C1741.6 1187.45 1742.07 1187.25 1742.56 1187.25H1797.19C1797.5 1187.25 1797.79 1187.37 1798 1187.59C1798.22 1187.8 1798.34 1188.09 1798.34 1188.4V1194.17Z" fill="#ED232D"/>
<path d="M1898.38 1187.25C1914.23 1187.26 1923.14 1187.25 1925.1 1187.22C1925.62 1187.21 1926.13 1187.38 1926.54 1187.71C1926.95 1188.03 1927.23 1188.49 1927.33 1189L1928.05 1192.48C1928.11 1192.76 1928.11 1193.05 1928.05 1193.33C1927.99 1193.61 1927.87 1193.87 1927.7 1194.1C1927.53 1194.32 1927.32 1194.51 1927.07 1194.65C1926.82 1194.79 1926.55 1194.88 1926.26 1194.9C1916.87 1195.76 1912.12 1201.15 1912 1211.07C1911.95 1214.51 1911.93 1228.06 1911.93 1251.73C1911.93 1275.4 1911.95 1288.97 1911.99 1292.41C1912.12 1302.32 1916.87 1307.7 1926.26 1308.56C1926.55 1308.59 1926.82 1308.67 1927.07 1308.81C1927.32 1308.95 1927.53 1309.14 1927.7 1309.37C1927.87 1309.6 1927.99 1309.86 1928.05 1310.14C1928.11 1310.42 1928.11 1310.7 1928.05 1310.98L1927.33 1314.47C1927.23 1314.98 1926.95 1315.43 1926.54 1315.76C1926.13 1316.08 1925.62 1316.25 1925.1 1316.24C1923.14 1316.21 1914.23 1316.2 1898.38 1316.21C1882.53 1316.2 1873.62 1316.21 1871.65 1316.24C1871.13 1316.25 1870.63 1316.08 1870.22 1315.75C1869.82 1315.43 1869.54 1314.98 1869.43 1314.47L1868.72 1310.98C1868.66 1310.7 1868.66 1310.42 1868.72 1310.14C1868.78 1309.86 1868.9 1309.6 1869.07 1309.37C1869.23 1309.14 1869.45 1308.95 1869.7 1308.81C1869.95 1308.67 1870.22 1308.59 1870.5 1308.56C1879.89 1307.7 1884.64 1302.32 1884.76 1292.41C1884.8 1288.97 1884.82 1275.4 1884.82 1251.73C1884.82 1228.06 1884.8 1214.51 1884.76 1211.07C1884.64 1201.15 1879.89 1195.76 1870.5 1194.9C1870.22 1194.88 1869.95 1194.79 1869.7 1194.65C1869.45 1194.51 1869.23 1194.32 1869.07 1194.1C1868.9 1193.87 1868.78 1193.61 1868.72 1193.33C1868.66 1193.05 1868.66 1192.76 1868.72 1192.48L1869.43 1189C1869.54 1188.49 1869.82 1188.04 1870.22 1187.71C1870.63 1187.39 1871.13 1187.22 1871.65 1187.22C1873.62 1187.25 1882.53 1187.26 1898.38 1187.25Z" fill="#ED232D"/>
</svg>
