<svg width="4389" height="2036" viewBox="0 0 4389 2036" fill="none" xmlns="http://www.w3.org/2000/svg">
<path d="M1790.18 839.043L1831.71 674.797C1831.87 674.118 1832.3 673.529 1832.89 673.158C1833.48 672.786 1834.2 672.662 1834.88 672.811C1944.63 697.889 2054.16 711.524 2163.46 713.717C2184.98 714.173 2209.53 712.786 2237.09 709.558C2278.27 704.717 2295.3 680.405 2288.18 636.622C2284.99 616.966 2273.3 604.055 2253.11 597.889C2193.07 579.391 2137.7 575.232 2064.32 564.866C1991.94 554.644 1932.53 540.099 1886.09 521.228C1798.44 485.536 1787.01 409.993 1787.57 325.263C1787.82 290.709 1791.92 261.969 1799.87 239.044C1834.19 139.665 1936.32 109.807 2033.16 102.048C2174.02 90.6889 2317.17 103.973 2453.31 130.478C2453.88 130.594 2454.42 130.825 2454.9 131.157C2455.38 131.489 2455.78 131.915 2456.09 132.408C2456.4 132.902 2456.6 133.454 2456.69 134.029C2456.78 134.604 2456.75 135.191 2456.6 135.754L2415.26 299.317C2415.14 299.773 2414.85 300.166 2414.45 300.409C2414.06 300.653 2413.59 300.729 2413.15 300.62C2330.17 279.391 2242.03 267.287 2148.75 264.308C2117.01 263.314 2082.59 264.721 2045.51 268.529C2027.26 270.453 2000.82 279.143 1994.42 298.634C1985.54 325.822 1987.84 358.535 2018.88 371.26C2041.48 380.488 2070.88 387.792 2107.1 393.171C2192.21 405.772 2292.65 418.746 2376.27 445.065C2439.47 464.928 2479.76 500.558 2490.81 568.218C2496.64 604.22 2498.5 647.547 2494.59 690.005C2485.78 785.039 2428.67 838.298 2341.88 861.141C2296.35 873.142 2246.63 880.198 2192.7 882.308C2058.94 887.522 1925.7 874.632 1792.97 843.636C1792.49 843.52 1792.03 843.309 1791.63 843.014C1791.22 842.72 1790.88 842.349 1790.62 841.922C1790.36 841.495 1790.19 841.02 1790.11 840.526C1790.04 840.032 1790.06 839.528 1790.18 839.043Z" fill="#103247"/>
<path d="M1708.73 114.649C1708.94 200.393 1684.5 279.577 1635.42 352.203C1623.25 370.204 1593.82 398.634 1570.86 403.848C1568.88 404.291 1566.81 404.095 1564.96 403.289C1526.51 386.943 1410.32 337.554 1216.38 255.121C1185.16 241.899 1168.15 206.393 1174.23 172.129C1179.9 140.14 1199.72 119.698 1233.7 110.8C1235.27 110.388 1236.88 110.18 1238.48 110.18H1704.33C1705.49 110.18 1706.62 110.651 1707.44 111.489C1708.27 112.327 1708.73 113.464 1708.73 114.649Z" fill="#5D8192"/>
<path d="M3222.53 475.852C3228.74 477.3 3238.71 480.694 3252.45 486.032C3304.85 506.351 3336.03 545.105 3346.01 602.295C3354.03 648.188 3352.88 693.067 3342.53 736.932C3326.26 805.833 3277.28 843.76 3210.11 858.595C3170.47 867.368 3126.8 871.796 3079.13 871.879C2947.48 872.127 2787.21 872.189 2598.32 872.065C2598.09 872.065 2597.85 872.017 2597.63 871.923C2597.42 871.83 2597.22 871.693 2597.05 871.52C2596.88 871.347 2596.75 871.141 2596.66 870.916C2596.57 870.69 2596.52 870.447 2596.52 870.203V112.041C2596.52 111.564 2596.71 111.106 2597.05 110.768C2597.39 110.431 2597.85 110.241 2598.32 110.241C2905.12 110.158 3070.56 110.179 3094.65 110.303C3132.18 110.551 3169.56 115.021 3206.76 123.711C3283.7 141.712 3324.73 191.081 3329.87 271.818C3334.89 351.333 3326.26 432.463 3242.4 465.3C3239.83 466.293 3233.15 469.065 3222.34 473.617C3222.11 473.714 3221.92 473.881 3221.79 474.093C3221.66 474.306 3221.61 474.554 3221.63 474.802C3221.65 475.05 3221.75 475.285 3221.91 475.474C3222.07 475.662 3222.29 475.795 3222.53 475.852ZM2802.87 274.052V407.137C2802.87 407.845 2803.16 408.524 2803.66 409.024C2804.16 409.525 2804.84 409.806 2805.54 409.806H3062.86C3078.7 409.806 3093.89 403.705 3105.09 392.843C3116.29 381.982 3122.58 367.252 3122.58 351.892V329.297C3122.58 313.937 3116.29 299.207 3105.09 288.346C3093.89 277.485 3078.7 271.383 3062.86 271.383H2805.54C2804.84 271.383 2804.16 271.664 2803.66 272.165C2803.16 272.665 2802.87 273.344 2802.87 274.052ZM2802.87 559.651V711.234C2802.87 711.958 2803.16 712.653 2803.67 713.165C2804.19 713.677 2804.88 713.965 2805.61 713.965H3074.16C3092.27 713.965 3109.64 706.954 3122.45 694.475C3135.25 681.996 3142.45 665.07 3142.45 647.422V623.462C3142.45 605.814 3135.25 588.889 3122.45 576.409C3109.64 563.93 3092.27 556.92 3074.16 556.92H2805.61C2804.88 556.92 2804.19 557.207 2803.67 557.72C2803.16 558.232 2802.87 558.926 2802.87 559.651Z" fill="#103247"/>
<path d="M992.028 241.28C992.083 241.004 992.23 240.754 992.446 240.573C992.661 240.392 992.932 240.289 993.214 240.282C993.495 240.274 993.771 240.363 993.995 240.533C994.22 240.703 994.38 240.945 994.449 241.218C1014.62 308.443 1054.73 321.789 1111.72 345.997C1263.56 410.636 1417.52 475.854 1573.59 541.652C1674.34 584.11 1712.33 707.139 1652.24 798.449C1627.53 835.941 1588.05 863.005 1545.59 871.943C1520.43 877.281 1492.97 879.04 1463.21 877.219C1330.65 869.15 1219.61 822.078 1130.09 736.003C999.043 610.056 944.786 418.064 992.028 241.28Z" fill="#103247"/>
<path d="M3855.55 1145.68L3846.61 1180.82C3846.52 1181.15 3846.33 1181.45 3846.06 1181.65C3845.78 1181.86 3845.45 1181.96 3845.12 1181.94C3816.52 1179.87 3789.13 1179.04 3762.93 1179.45C3734.74 1179.89 3722.27 1194.72 3724.19 1222.78C3725.99 1249.84 3712.95 1295.09 3754.86 1298.2C3779.32 1299.98 3812.18 1299.25 3853.44 1296.03C3853.61 1296.01 3853.77 1296.04 3853.93 1296.1C3854.09 1296.16 3854.22 1296.26 3854.33 1296.39C3854.44 1296.52 3854.52 1296.67 3854.56 1296.83C3854.6 1297 3854.6 1297.17 3854.56 1297.33L3844.44 1336.93C3844.31 1337.41 3844.04 1337.84 3843.67 1338.17C3843.29 1338.5 3842.83 1338.72 3842.33 1338.79C3825.73 1340.82 3801.46 1342.17 3769.51 1342.83C3733.19 1343.57 3695.26 1336.37 3678.69 1303.1C3674.59 1294.99 3672.91 1280.34 3673.66 1259.15C3674.22 1241.53 3669.31 1191.93 3680.05 1172.69C3692.34 1150.46 3719.22 1138.61 3744.06 1136.87C3778.86 1134.35 3815.51 1136.48 3854 1143.26C3854.27 1143.32 3854.52 1143.42 3854.75 1143.57C3854.98 1143.73 3855.17 1143.92 3855.32 1144.15C3855.46 1144.38 3855.56 1144.63 3855.6 1144.9C3855.64 1145.16 3855.62 1145.43 3855.55 1145.68Z" fill="#103247"/>
<path d="M247.632 1183.49C247.417 1184.3 246.928 1185 246.249 1185.49C245.569 1185.98 244.741 1186.21 243.907 1186.16L155.134 1179.95C150.89 1179.65 146.699 1181.02 143.452 1183.75C140.206 1186.49 138.161 1190.38 137.751 1194.6L137.627 1195.59C137.334 1199.49 138.529 1203.35 140.971 1206.41C143.413 1209.46 146.921 1211.47 150.788 1212.04C181.372 1216.39 205.149 1220.34 222.117 1223.9C244.528 1228.61 262.903 1236.93 266.007 1261.33C271.967 1308.32 257.378 1335.13 207.901 1339.1C166.06 1342.54 126.163 1341.24 88.2122 1335.19C87.5991 1335.1 87.0125 1334.88 86.4895 1334.55C85.9665 1334.21 85.5185 1333.77 85.1741 1333.24C84.8297 1332.71 84.5963 1332.12 84.4888 1331.5C84.3813 1330.87 84.4019 1330.23 84.5495 1329.61L92.8681 1296.71C93.1674 1295.55 93.8633 1294.54 94.837 1293.84C95.8106 1293.14 97.0017 1292.79 98.2069 1292.86L196.106 1299.75C198.254 1299.91 200.411 1299.61 202.437 1298.88C204.463 1298.15 206.313 1297 207.865 1295.51C209.417 1294.01 210.637 1292.21 211.445 1290.21C212.254 1288.22 212.632 1286.07 212.557 1283.92L212.495 1283.3C212.799 1279.29 211.598 1275.32 209.128 1272.16C206.658 1269 203.097 1266.89 199.148 1266.23C159.169 1259.53 133.696 1254.95 122.728 1252.51C98.1862 1247.09 85.0047 1231.82 83.1837 1206.7C80.0798 1164.33 100.38 1141.55 144.083 1138.36C177.234 1135.92 213.798 1137.53 253.777 1143.2C254.271 1143.27 254.743 1143.45 255.164 1143.71C255.586 1143.98 255.946 1144.33 256.221 1144.74C256.497 1145.15 256.681 1145.61 256.763 1146.09C256.845 1146.58 256.822 1147.07 256.695 1147.55L247.632 1183.49Z" fill="#103247"/>
<path d="M4199.41 1311.11C4177.06 1311.11 4163.71 1311.15 4159.37 1311.23C4157.83 1311.26 4156.34 1311.71 4155.05 1312.53C4153.77 1313.35 4152.75 1314.52 4152.1 1315.89L4143.97 1333.46C4143.19 1335.14 4141.95 1336.57 4140.4 1337.57C4138.85 1338.57 4137.05 1339.1 4135.22 1339.11L4089.71 1338.98C4089.07 1338.98 4088.44 1338.81 4087.87 1338.5C4087.31 1338.19 4086.83 1337.74 4086.48 1337.2C4086.14 1336.66 4085.93 1336.03 4085.89 1335.39C4085.85 1334.75 4085.97 1334.1 4086.24 1333.52L4174.95 1141.96C4175.4 1141 4176.11 1140.17 4176.99 1139.57C4177.87 1138.97 4178.91 1138.62 4179.98 1138.55C4186.39 1138.17 4192.95 1137.99 4199.66 1137.99C4206.36 1138.03 4212.92 1138.24 4219.34 1138.61C4220.41 1138.68 4221.44 1139.04 4222.32 1139.64C4223.21 1140.24 4223.91 1141.06 4224.36 1142.02L4312.58 1333.77C4312.85 1334.35 4312.97 1335 4312.92 1335.64C4312.88 1336.28 4312.68 1336.9 4312.33 1337.45C4311.99 1337.99 4311.51 1338.44 4310.94 1338.75C4310.38 1339.06 4309.75 1339.23 4309.1 1339.23L4263.6 1339.29C4261.76 1339.29 4259.96 1338.76 4258.41 1337.75C4256.86 1336.75 4255.62 1335.33 4254.84 1333.64L4246.77 1316.01C4246.14 1314.63 4245.12 1313.45 4243.84 1312.62C4242.55 1311.78 4241.05 1311.33 4239.51 1311.3C4235.17 1311.21 4221.8 1311.15 4199.41 1311.11ZM4171.91 1266.42C4171.77 1266.73 4171.72 1267.07 4171.75 1267.4C4171.78 1267.74 4171.89 1268.06 4172.07 1268.34C4172.26 1268.63 4172.51 1268.86 4172.81 1269.02C4173.1 1269.18 4173.43 1269.27 4173.77 1269.27L4222.87 1269.4C4223.22 1269.4 4223.56 1269.31 4223.86 1269.15C4224.17 1268.98 4224.42 1268.74 4224.61 1268.45C4224.79 1268.16 4224.9 1267.83 4224.93 1267.48C4224.95 1267.14 4224.88 1266.79 4224.74 1266.48L4200.28 1211.86C4200.11 1211.5 4199.85 1211.2 4199.52 1210.98C4199.19 1210.77 4198.81 1210.66 4198.41 1210.66C4198.02 1210.66 4197.64 1210.77 4197.31 1210.98C4196.98 1211.2 4196.72 1211.5 4196.55 1211.86L4171.91 1266.42Z" fill="#103247"/>
<path d="M449.395 1295.78C460.238 1295.78 470.936 1294.24 481.49 1291.18C494.961 1287.27 499.244 1275.48 499.244 1261.2C499.12 1216.43 499.286 1177.09 499.741 1143.2C499.757 1142.12 500.19 1141.1 500.945 1140.34C501.7 1139.59 502.717 1139.17 503.776 1139.17H547.232C547.775 1139.17 548.313 1139.27 548.814 1139.48C549.315 1139.69 549.77 1139.99 550.151 1140.37C550.532 1140.75 550.833 1141.2 551.035 1141.7C551.237 1142.2 551.337 1142.73 551.329 1143.26C551.205 1228.92 551.143 1272 551.143 1272.5C551.515 1334.45 498.748 1340.9 449.333 1340.78C399.855 1340.65 347.15 1334.01 347.771 1272.13C347.771 1271.59 347.875 1228.49 348.081 1142.83C348.082 1141.76 348.513 1140.73 349.282 1139.97C350.05 1139.22 351.092 1138.79 352.179 1138.79L395.634 1138.98C396.694 1138.98 397.711 1139.4 398.466 1140.16C399.221 1140.91 399.653 1141.94 399.669 1143.01C400 1176.91 400 1216.24 399.669 1261.01C399.607 1275.29 403.891 1287.09 417.362 1291.06C427.874 1294.16 438.552 1295.73 449.395 1295.78Z" fill="#103247"/>
<path d="M696.776 1290.94V1337.68C696.776 1338.09 696.612 1338.48 696.321 1338.77C696.03 1339.06 695.635 1339.23 695.224 1339.23H645.871C645.634 1339.23 645.4 1339.18 645.182 1339.09C644.963 1338.99 644.765 1338.86 644.598 1338.68C644.43 1338.51 644.298 1338.3 644.207 1338.08C644.117 1337.85 644.07 1337.61 644.07 1337.37V1141.53C644.07 1140.85 644.338 1140.2 644.816 1139.73C645.293 1139.25 645.941 1138.98 646.616 1138.98C666.398 1139.06 709.522 1139.04 775.989 1138.92C779.506 1138.92 789.874 1139.91 807.09 1141.9C831.86 1144.81 846.945 1160.71 851.105 1185.91C858.368 1229.67 853.898 1283.24 796.599 1285.6C765.932 1286.92 734.313 1287.09 701.742 1286.09C701.096 1286.08 700.453 1286.19 699.851 1286.43C699.249 1286.66 698.7 1287.02 698.237 1287.47C697.775 1287.92 697.407 1288.46 697.156 1289.05C696.905 1289.65 696.775 1290.29 696.776 1290.94ZM696.776 1183.98L696.9 1243.2C696.9 1244.01 697.22 1244.78 697.791 1245.35C698.361 1245.92 699.135 1246.24 699.942 1246.24L775.182 1246.12C781.575 1246.1 787.701 1243.6 792.217 1239.15C796.732 1234.71 799.268 1228.68 799.268 1222.41V1204.53C799.269 1201.41 798.642 1198.32 797.425 1195.44C796.207 1192.56 794.423 1189.94 792.174 1187.74C789.925 1185.54 787.255 1183.79 784.318 1182.6C781.381 1181.42 778.234 1180.81 775.057 1180.82L699.817 1180.94C699.418 1180.94 699.022 1181.02 698.653 1181.17C698.284 1181.33 697.949 1181.55 697.666 1181.83C697.384 1182.11 697.16 1182.45 697.007 1182.82C696.854 1183.19 696.776 1183.58 696.776 1183.98Z" fill="#103247"/>
<path d="M1100.97 1339.17H929.013C928.663 1339.17 928.315 1339.1 927.992 1338.96C927.668 1338.83 927.373 1338.63 927.126 1338.39C926.878 1338.14 926.681 1337.84 926.547 1337.52C926.413 1337.2 926.344 1336.85 926.344 1336.5V1141.71C926.344 1141.36 926.413 1141.01 926.547 1140.69C926.681 1140.37 926.878 1140.07 927.126 1139.82C927.373 1139.58 927.668 1139.38 927.992 1139.25C928.315 1139.11 928.663 1139.04 929.013 1139.04H1111.46C1111.87 1139.05 1112.27 1139.15 1112.63 1139.33C1112.99 1139.51 1113.31 1139.77 1113.55 1140.1C1113.8 1140.42 1113.97 1140.8 1114.05 1141.19C1114.13 1141.59 1114.11 1142 1114.01 1142.39L1104.76 1178.96C1104.61 1179.52 1104.28 1180.02 1103.82 1180.38C1103.36 1180.74 1102.8 1180.93 1102.21 1180.94H982.898C982.19 1180.94 981.511 1181.22 981.01 1181.72C980.51 1182.22 980.228 1182.9 980.228 1183.61V1215.52C980.228 1216.23 980.51 1216.9 981.01 1217.4C981.511 1217.91 982.19 1218.19 982.898 1218.19H1095.14C1095.54 1218.19 1095.94 1218.29 1096.3 1218.47C1096.67 1218.65 1096.98 1218.92 1097.23 1219.24C1097.47 1219.56 1097.64 1219.94 1097.72 1220.34C1097.8 1220.74 1097.79 1221.15 1097.68 1221.54L1088.43 1258.1C1088.28 1258.66 1087.95 1259.16 1087.49 1259.52C1087.03 1259.88 1086.47 1260.08 1085.89 1260.09H982.898C982.19 1260.09 981.511 1260.37 981.01 1260.87C980.51 1261.37 980.228 1262.05 980.228 1262.75V1293.11C980.228 1293.82 980.51 1294.5 981.01 1295C981.511 1295.5 982.19 1295.78 982.898 1295.78H1110.59C1111 1295.78 1111.4 1295.88 1111.76 1296.06C1112.12 1296.25 1112.44 1296.51 1112.69 1296.83C1112.93 1297.16 1113.1 1297.53 1113.18 1297.93C1113.26 1298.33 1113.24 1298.74 1113.14 1299.13L1103.52 1337.18C1103.37 1337.74 1103.04 1338.24 1102.58 1338.6C1102.12 1338.96 1101.56 1339.16 1100.97 1339.17Z" fill="#103247"/>
<path d="M1416.03 1337.68C1416.13 1337.81 1416.19 1337.98 1416.2 1338.14C1416.21 1338.31 1416.17 1338.48 1416.09 1338.64C1416 1338.79 1415.88 1338.92 1415.73 1339.01C1415.58 1339.11 1415.4 1339.16 1415.22 1339.17H1357.67C1357.08 1339.17 1356.5 1339.02 1355.98 1338.75C1355.46 1338.48 1355.02 1338.09 1354.69 1337.62L1320.8 1286.09C1320.23 1285.24 1319.46 1284.53 1318.56 1284.04C1317.66 1283.56 1316.66 1283.3 1315.65 1283.3H1257.54C1256.59 1283.3 1255.67 1283.68 1254.99 1284.36C1254.32 1285.03 1253.94 1285.95 1253.94 1286.9V1337.55C1253.94 1337.77 1253.9 1337.99 1253.81 1338.19C1253.73 1338.4 1253.6 1338.58 1253.45 1338.74C1253.29 1338.89 1253.11 1339.02 1252.9 1339.1C1252.7 1339.19 1252.48 1339.23 1252.26 1339.23H1203.03C1202.56 1339.23 1202.1 1339.04 1201.76 1338.7C1201.42 1338.36 1201.23 1337.91 1201.23 1337.43V1141.22C1201.23 1140.64 1201.46 1140.09 1201.85 1139.68C1202.25 1139.27 1202.79 1139.04 1203.35 1139.04C1227.89 1139.08 1271.67 1139.04 1334.7 1138.92C1346.42 1138.88 1358.85 1140.12 1372.01 1142.64C1395.48 1147.15 1408.56 1162.38 1411.25 1188.33C1414.85 1222.97 1415.1 1261.08 1381.14 1278.15C1380.73 1278.35 1380.38 1278.64 1380.09 1279C1379.8 1279.35 1379.59 1279.76 1379.48 1280.2C1379.36 1280.64 1379.34 1281.1 1379.41 1281.55C1379.48 1282 1379.65 1282.42 1379.9 1282.8L1416.03 1337.68ZM1253.88 1183.61L1254.13 1240.59C1254.13 1241.32 1254.41 1242.01 1254.93 1242.53C1255.44 1243.04 1256.13 1243.33 1256.86 1243.33L1335.45 1243.02C1341.89 1242.98 1348.06 1240.27 1352.6 1235.46C1357.14 1230.65 1359.68 1224.15 1359.66 1217.38V1206.08C1359.65 1202.72 1359.01 1199.39 1357.78 1196.29C1356.54 1193.18 1354.74 1190.37 1352.47 1188C1350.19 1185.63 1347.5 1183.75 1344.54 1182.48C1341.57 1181.2 1338.4 1180.55 1335.2 1180.57L1256.61 1180.88C1255.88 1180.88 1255.19 1181.17 1254.68 1181.68C1254.17 1182.19 1253.88 1182.89 1253.88 1183.61Z" fill="#103247"/>
<path d="M1557.83 1138.94L1509.9 1139.02C1508.15 1139.02 1506.74 1140.44 1506.74 1142.19L1507.08 1336.11C1507.08 1337.86 1508.5 1339.27 1510.25 1339.27L1558.18 1339.19C1559.92 1339.18 1561.34 1337.76 1561.34 1336.01L1561 1142.1C1560.99 1140.35 1559.57 1138.94 1557.83 1138.94Z" fill="#103247"/>
<path d="M1715.87 1339.48H1669.13C1668.58 1339.48 1668.06 1339.26 1667.68 1338.88C1667.29 1338.49 1667.08 1337.97 1667.08 1337.43V1141.09C1667.08 1140.82 1667.13 1140.56 1667.23 1140.31C1667.34 1140.06 1667.49 1139.83 1667.68 1139.64C1667.87 1139.45 1668.09 1139.3 1668.34 1139.2C1668.59 1139.1 1668.86 1139.04 1669.13 1139.04H1719.22C1719.52 1139.05 1719.81 1139.12 1720.08 1139.24C1720.35 1139.37 1720.59 1139.56 1720.78 1139.79L1818.49 1254.62C1818.76 1254.94 1819.13 1255.17 1819.54 1255.27C1819.95 1255.37 1820.37 1255.35 1820.77 1255.2C1821.16 1255.05 1821.5 1254.79 1821.74 1254.44C1821.97 1254.09 1822.1 1253.68 1822.09 1253.26V1141.03C1822.09 1140.49 1822.31 1139.96 1822.69 1139.58C1823.07 1139.2 1823.6 1138.98 1824.14 1138.98H1870.95C1871.49 1138.98 1872.01 1139.2 1872.39 1139.58C1872.78 1139.96 1872.99 1140.49 1872.99 1141.03V1337.43C1872.99 1337.97 1872.78 1338.49 1872.39 1338.88C1872.01 1339.26 1871.49 1339.48 1870.95 1339.48H1828.61C1828.31 1339.47 1828.02 1339.4 1827.75 1339.28C1827.48 1339.15 1827.25 1338.96 1827.06 1338.73L1721.52 1214.65C1721.25 1214.33 1720.88 1214.1 1720.47 1214C1720.07 1213.9 1719.64 1213.92 1719.24 1214.07C1718.85 1214.22 1718.51 1214.48 1718.28 1214.83C1718.04 1215.18 1717.92 1215.59 1717.92 1216.01V1337.43C1717.92 1337.97 1717.71 1338.49 1717.32 1338.88C1716.94 1339.26 1716.42 1339.48 1715.87 1339.48Z" fill="#103247"/>
<path d="M2402.59 1295.9C2402.87 1295.9 2403.15 1295.97 2403.41 1296.09C2403.66 1296.22 2403.88 1296.39 2404.06 1296.61C2404.24 1296.83 2404.37 1297.09 2404.43 1297.36C2404.5 1297.64 2404.51 1297.92 2404.45 1298.2L2395.7 1337.18C2395.57 1337.76 2395.24 1338.28 2394.77 1338.66C2394.3 1339.03 2393.7 1339.23 2393.09 1339.23L2221.57 1339.17C2220.6 1339.17 2219.67 1338.78 2218.98 1338.09C2218.29 1337.41 2217.91 1336.47 2217.91 1335.5L2217.97 1141.28C2217.97 1140.97 2218.03 1140.66 2218.15 1140.37C2218.27 1140.09 2218.44 1139.83 2218.66 1139.61C2218.88 1139.39 2219.14 1139.22 2219.42 1139.1C2219.71 1138.98 2220.02 1138.92 2220.33 1138.92L2401.72 1139.04C2402.13 1139.04 2402.53 1139.13 2402.9 1139.31C2403.26 1139.48 2403.58 1139.73 2403.84 1140.04C2404.1 1140.35 2404.28 1140.71 2404.37 1141.09C2404.47 1141.48 2404.48 1141.88 2404.39 1142.27L2398.25 1177.9C2398.11 1178.76 2397.68 1179.55 2397.02 1180.12C2396.36 1180.68 2395.52 1181 2394.65 1181L2275.02 1180.94C2274.2 1180.94 2273.41 1181.27 2272.82 1181.85C2272.24 1182.43 2271.92 1183.22 2271.92 1184.05L2271.85 1215.02C2271.85 1215.44 2271.93 1215.85 2272.09 1216.23C2272.25 1216.62 2272.47 1216.96 2272.76 1217.26C2273.05 1217.55 2273.39 1217.79 2273.77 1217.94C2274.15 1218.1 2274.55 1218.19 2274.96 1218.19L2384.59 1218.25C2384.93 1218.24 2385.27 1218.32 2385.58 1218.45C2385.89 1218.59 2386.17 1218.8 2386.4 1219.06C2386.62 1219.31 2386.8 1219.62 2386.9 1219.95C2387.01 1220.28 2387.05 1220.63 2387.01 1220.98L2382.79 1257.17C2382.68 1257.97 2382.29 1258.71 2381.67 1259.24C2381.05 1259.78 2380.26 1260.08 2379.44 1260.08L2274.83 1260.02C2274.01 1260.02 2273.22 1260.35 2272.64 1260.93C2272.06 1261.51 2271.73 1262.3 2271.73 1263.13L2271.79 1292.74C2271.79 1293.54 2272.12 1294.32 2272.7 1294.89C2273.28 1295.46 2274.07 1295.78 2274.9 1295.78L2402.59 1295.9Z" fill="#103247"/>
<path d="M2545.31 1214.15C2545.05 1213.86 2544.72 1213.66 2544.34 1213.57C2543.97 1213.48 2543.58 1213.5 2543.22 1213.63C2542.85 1213.77 2542.54 1214.01 2542.32 1214.32C2542.09 1214.63 2541.97 1215.01 2541.96 1215.39L2542.27 1336.68C2542.27 1337.41 2541.98 1338.1 2541.47 1338.61C2540.96 1339.13 2540.26 1339.41 2539.54 1339.41L2493.91 1339.48C2493.2 1339.48 2492.52 1339.19 2492.02 1338.69C2491.52 1338.19 2491.24 1337.51 2491.24 1336.81L2491.18 1142.77C2491.18 1141.76 2491.59 1140.8 2492.31 1140.09C2493.03 1139.38 2494.01 1138.98 2495.03 1138.98L2541.09 1138.79C2542.2 1138.79 2543.31 1139.04 2544.32 1139.51C2545.34 1139.98 2546.25 1140.67 2546.99 1141.52L2643.71 1256.05C2643.91 1256.27 2644.16 1256.43 2644.45 1256.51C2644.74 1256.58 2645.05 1256.57 2645.33 1256.47C2645.61 1256.37 2645.85 1256.19 2646.03 1255.94C2646.21 1255.7 2646.3 1255.42 2646.32 1255.12L2646.19 1141.52C2646.19 1140.82 2646.48 1140.14 2646.99 1139.64C2647.5 1139.14 2648.2 1138.86 2648.92 1138.86L2694.49 1138.79C2695.2 1138.79 2695.88 1139.07 2696.38 1139.57C2696.88 1140.08 2697.16 1140.75 2697.16 1141.46L2697.28 1335.56C2697.28 1336.59 2696.88 1337.56 2696.16 1338.29C2695.43 1339.01 2694.45 1339.41 2693.43 1339.41L2655.32 1339.48C2654.28 1339.47 2653.26 1339.25 2652.32 1338.82C2651.38 1338.4 2650.54 1337.77 2649.85 1336.99L2545.31 1214.15Z" fill="#103247"/>
<path d="M2800.08 1141.96C2800.08 1141.52 2800.17 1141.08 2800.34 1140.66C2800.51 1140.25 2800.77 1139.88 2801.09 1139.57C2801.4 1139.26 2801.78 1139.01 2802.19 1138.85C2802.61 1138.68 2803.05 1138.6 2803.5 1138.61L2936.04 1139.11C2956.01 1139.17 2975.13 1146.96 2989.21 1160.74C3003.28 1174.52 3011.15 1193.18 3011.09 1212.6L3010.84 1266.48C3010.81 1276.1 3008.83 1285.62 3005.02 1294.49C3001.2 1303.37 2995.63 1311.43 2988.61 1318.2C2981.6 1324.98 2973.28 1330.35 2964.13 1334C2954.98 1337.65 2945.18 1339.51 2935.29 1339.48L2802.75 1338.98C2801.87 1338.97 2801.04 1338.61 2800.42 1337.98C2799.81 1337.35 2799.46 1336.51 2799.46 1335.63L2800.08 1141.96ZM2852.41 1183.55L2852.66 1296.15C2852.66 1296.52 2852.74 1296.88 2852.88 1297.22C2853.02 1297.56 2853.22 1297.87 2853.48 1298.13C2853.74 1298.39 2854.05 1298.59 2854.39 1298.73C2854.73 1298.87 2855.09 1298.94 2855.46 1298.94L2919.27 1298.88C2923.99 1298.87 2928.67 1297.93 2933.02 1296.09C2937.38 1294.26 2941.34 1291.57 2944.67 1288.19C2948 1284.8 2950.64 1280.79 2952.44 1276.37C2954.24 1271.95 2955.16 1267.22 2955.16 1262.45L2955.03 1217.01C2955.01 1207.36 2951.21 1198.12 2944.46 1191.31C2937.71 1184.5 2928.56 1180.68 2919.03 1180.7L2855.21 1180.76C2854.47 1180.76 2853.76 1181.05 2853.23 1181.58C2852.71 1182.1 2852.41 1182.81 2852.41 1183.55Z" fill="#103247"/>
<path d="M3279.46 1295.84C3279.74 1295.84 3280.02 1295.91 3280.27 1296.03C3280.53 1296.16 3280.75 1296.33 3280.93 1296.55C3281.11 1296.77 3281.23 1297.03 3281.3 1297.3C3281.37 1297.57 3281.38 1297.86 3281.32 1298.14L3272.57 1337.18C3272.44 1337.76 3272.11 1338.28 3271.64 1338.66C3271.16 1339.03 3270.57 1339.23 3269.96 1339.23L3098.37 1339.29C3097.4 1339.29 3096.47 1338.9 3095.78 1338.22C3095.1 1337.53 3094.71 1336.6 3094.71 1335.63V1141.34C3094.71 1140.71 3094.96 1140.11 3095.4 1139.67C3095.84 1139.23 3096.44 1138.98 3097.07 1138.98H3278.47C3278.86 1138.98 3279.26 1139.07 3279.62 1139.24C3279.98 1139.41 3280.3 1139.65 3280.55 1139.96C3280.81 1140.26 3280.99 1140.61 3281.09 1140.99C3281.19 1141.37 3281.21 1141.76 3281.13 1142.15L3275.05 1177.84C3274.92 1178.7 3274.48 1179.48 3273.82 1180.05C3273.16 1180.62 3272.32 1180.94 3271.45 1180.94H3151.76C3150.94 1180.94 3150.15 1181.27 3149.57 1181.85C3148.98 1182.43 3148.66 1183.22 3148.66 1184.05V1215.02C3148.66 1215.86 3148.98 1216.66 3149.57 1217.26C3150.15 1217.85 3150.94 1218.19 3151.76 1218.19H3261.39C3261.73 1218.18 3262.07 1218.25 3262.38 1218.39C3262.69 1218.53 3262.97 1218.74 3263.2 1219C3263.43 1219.25 3263.6 1219.56 3263.71 1219.89C3263.81 1220.22 3263.85 1220.57 3263.81 1220.92L3259.66 1257.17C3259.55 1257.97 3259.15 1258.71 3258.54 1259.24C3257.92 1259.78 3257.13 1260.08 3256.3 1260.09H3151.64C3150.81 1260.09 3150.02 1260.41 3149.44 1260.99C3148.86 1261.58 3148.53 1262.37 3148.53 1263.19L3148.6 1292.74C3148.6 1293.54 3148.92 1294.32 3149.5 1294.89C3150.09 1295.46 3150.88 1295.78 3151.7 1295.78L3279.46 1295.84Z" fill="#103247"/>
<path d="M3425.9 1214.09C3425.65 1213.81 3425.31 1213.61 3424.94 1213.51C3424.58 1213.42 3424.19 1213.43 3423.83 1213.56C3423.47 1213.69 3423.16 1213.92 3422.93 1214.22C3422.7 1214.52 3422.57 1214.89 3422.55 1215.27L3422.86 1336.19C3422.86 1336.55 3422.79 1336.9 3422.65 1337.23C3422.51 1337.56 3422.31 1337.86 3422.06 1338.12C3421.8 1338.37 3421.5 1338.57 3421.17 1338.71C3420.84 1338.85 3420.48 1338.92 3420.13 1338.92L3374.62 1338.98C3373.92 1338.98 3373.26 1338.71 3372.76 1338.22C3372.26 1337.73 3371.97 1337.07 3371.95 1336.37L3371.89 1142.89C3371.89 1141.9 3372.29 1140.94 3373 1140.23C3373.7 1139.53 3374.67 1139.12 3375.68 1139.1L3421.68 1138.92C3422.77 1138.92 3423.86 1139.16 3424.87 1139.62C3425.87 1140.08 3426.78 1140.75 3427.51 1141.59L3523.98 1255.86C3524.19 1256.07 3524.44 1256.21 3524.72 1256.27C3525 1256.33 3525.29 1256.31 3525.56 1256.22C3525.82 1256.12 3526.06 1255.94 3526.23 1255.72C3526.4 1255.49 3526.51 1255.22 3526.53 1254.93L3526.47 1141.59C3526.47 1141.24 3526.54 1140.89 3526.68 1140.57C3526.81 1140.24 3527.01 1139.95 3527.27 1139.7C3527.52 1139.45 3527.82 1139.26 3528.15 1139.12C3528.49 1138.99 3528.84 1138.92 3529.2 1138.92H3574.58C3575.29 1138.92 3575.97 1139.2 3576.47 1139.7C3576.97 1140.2 3577.25 1140.88 3577.25 1141.59L3577.44 1335.07C3577.44 1336.09 3577.03 1337.07 3576.31 1337.79C3575.59 1338.51 3574.61 1338.92 3573.59 1338.92L3535.53 1338.98C3534.5 1338.98 3533.48 1338.76 3532.54 1338.33C3531.59 1337.91 3530.75 1337.28 3530.07 1336.5L3425.9 1214.09Z" fill="#103247"/>
<path d="M3998.65 1138.98H3949.11C3947.77 1138.98 3946.69 1140.06 3946.69 1141.4V1336.81C3946.69 1338.14 3947.77 1339.23 3949.11 1339.23H3998.65C3999.98 1339.23 4001.07 1338.14 4001.07 1336.81V1141.4C4001.07 1140.06 3999.98 1138.98 3998.65 1138.98Z" fill="#103247"/>
<path d="M2041.11 1140.59C2075.04 1140.8 2108.03 1141.01 2140.06 1141.22C2140.75 1141.22 2141.41 1141.49 2141.9 1141.98C2142.39 1142.47 2142.67 1143.13 2142.67 1143.82V1188.02C2142.67 1188.71 2142.39 1189.37 2141.9 1189.86C2141.41 1190.35 2140.75 1190.63 2140.06 1190.63H2071.4C2070.49 1190.63 2069.61 1190.98 2068.96 1191.62C2068.31 1192.26 2067.94 1193.13 2067.92 1194.04L2067.18 1335.13C2067.16 1336.14 2066.79 1337.1 2066.13 1337.87C2065.48 1338.63 2064.57 1339.13 2063.58 1339.29C2063.25 1339.33 2055.38 1339.31 2039.99 1339.23C2024.59 1339.15 2016.75 1339.06 2016.46 1338.98C2015.47 1338.82 2014.56 1338.32 2013.9 1337.56C2013.25 1336.79 2012.88 1335.83 2012.86 1334.82L2013.73 1193.73C2013.73 1192.82 2013.37 1191.94 2012.73 1191.29C2012.09 1190.64 2011.23 1190.27 2010.31 1190.25L1941.65 1189.51C1941.31 1189.51 1940.96 1189.44 1940.64 1189.3C1940.32 1189.17 1940.03 1188.97 1939.79 1188.72C1939.55 1188.47 1939.36 1188.18 1939.23 1187.86C1939.1 1187.53 1939.04 1187.19 1939.05 1186.84L1939.54 1142.64C1939.56 1141.96 1939.84 1141.31 1940.33 1140.84C1940.82 1140.36 1941.47 1140.1 1942.15 1140.1C1974.23 1140.26 2007.21 1140.43 2041.11 1140.59Z" fill="#103247"/>
<path d="M2789.04 1493.92C2760.44 1491.89 2733.06 1491.1 2706.9 1491.56C2678.72 1492.05 2666.31 1506.89 2668.23 1534.95C2670.09 1562.01 2657.18 1607.26 2699.08 1610.24C2723.5 1611.98 2756.32 1611.19 2797.54 1607.88C2797.71 1607.87 2797.88 1607.89 2798.03 1607.96C2798.19 1608.02 2798.33 1608.12 2798.43 1608.25C2798.54 1608.38 2798.62 1608.53 2798.66 1608.69C2798.7 1608.85 2798.7 1609.02 2798.66 1609.19L2788.66 1648.79C2788.53 1649.27 2788.27 1649.7 2787.89 1650.03C2787.52 1650.36 2787.05 1650.58 2786.55 1650.65C2769.96 1652.72 2745.7 1654.11 2713.8 1654.81C2677.48 1655.62 2639.55 1648.54 2622.91 1615.33C2618.81 1607.22 2617.12 1592.57 2617.82 1571.38C2618.38 1553.76 2613.35 1504.22 2624.03 1484.98C2636.26 1462.76 2663.14 1450.84 2687.97 1449.04C2722.74 1446.47 2759.36 1448.54 2797.85 1455.25C2798.12 1455.3 2798.38 1455.4 2798.6 1455.56C2798.83 1455.71 2799.02 1455.9 2799.17 1456.13C2799.31 1456.36 2799.41 1456.61 2799.45 1456.88C2799.49 1457.14 2799.47 1457.41 2799.4 1457.67L2790.53 1492.8C2790.44 1493.14 2790.24 1493.43 2789.97 1493.64C2789.7 1493.84 2789.37 1493.94 2789.04 1493.92Z" fill="#103247"/>
<path d="M3079.93 1573.67C3079.99 1584.07 3077.99 1594.38 3074.06 1604.01C3070.13 1613.64 3064.34 1622.41 3057.02 1629.8C3049.71 1637.19 3041.01 1643.07 3031.42 1647.1C3021.83 1651.13 3011.54 1653.24 3001.13 1653.29L2943.53 1653.59C2933.12 1653.65 2922.81 1651.65 2913.18 1647.72C2903.55 1643.79 2894.79 1638 2887.39 1630.69C2880 1623.37 2874.12 1614.67 2870.09 1605.08C2866.06 1595.49 2863.95 1585.2 2863.9 1574.8L2863.66 1528.62C2863.6 1518.22 2865.6 1507.91 2869.53 1498.28C2873.46 1488.65 2879.25 1479.89 2886.56 1472.49C2893.88 1465.1 2902.58 1459.22 2912.17 1455.19C2921.76 1451.16 2932.05 1449.06 2942.45 1449L3000.06 1448.7C3010.47 1448.65 3020.78 1450.64 3030.41 1454.57C3040.04 1458.5 3048.8 1464.29 3056.2 1471.61C3063.59 1478.92 3069.47 1487.62 3073.5 1497.21C3077.53 1506.8 3079.64 1517.09 3079.69 1527.49L3079.93 1573.67ZM3021.47 1530.03C3021.33 1519.95 3017.19 1510.35 3009.97 1503.32C3002.75 1496.3 2993.03 1492.43 2982.95 1492.57L2958.62 1492.91C2948.54 1493.05 2938.94 1497.19 2931.91 1504.41C2924.89 1511.63 2921.02 1521.35 2921.16 1531.43L2921.74 1573.14C2921.89 1583.21 2926.02 1592.82 2933.25 1599.84C2940.47 1606.86 2950.19 1610.73 2960.26 1610.59L2984.6 1610.25C2994.67 1610.11 3004.28 1605.97 3011.3 1598.75C3018.33 1591.53 3022.19 1581.81 3022.05 1571.74L3021.47 1530.03Z" fill="#103247"/>
<path d="M3323.04 1498.2L3234.2 1491.99C3229.96 1491.69 3225.77 1493.06 3222.52 1495.79C3219.28 1498.53 3217.23 1502.42 3216.82 1506.64L3216.7 1507.63C3216.41 1511.54 3217.61 1515.41 3220.06 1518.47C3222.52 1521.52 3226.04 1523.53 3229.92 1524.08C3260.5 1528.43 3284.28 1532.38 3301.25 1535.94C3323.66 1540.66 3342.04 1548.97 3345.14 1573.37C3351.16 1620.36 3336.57 1647.17 3287.03 1651.21C3245.19 1654.64 3205.3 1653.34 3167.34 1647.3C3166.73 1647.21 3166.14 1646.99 3165.62 1646.65C3165.1 1646.31 3164.65 1645.87 3164.31 1645.34C3163.96 1644.82 3163.73 1644.22 3163.62 1643.6C3163.51 1642.97 3163.53 1642.33 3163.68 1641.71L3172 1608.81C3172.3 1607.66 3173 1606.64 3173.97 1605.94C3174.94 1605.24 3176.13 1604.89 3177.34 1604.96L3275.24 1611.79C3277.38 1611.95 3279.53 1611.65 3281.55 1610.92C3283.57 1610.19 3285.42 1609.04 3286.97 1607.55C3288.52 1606.06 3289.74 1604.26 3290.56 1602.26C3291.37 1600.26 3291.76 1598.12 3291.69 1595.96L3291.63 1595.34C3291.93 1591.34 3290.73 1587.36 3288.26 1584.2C3285.79 1581.04 3282.23 1578.93 3278.28 1578.27C3238.3 1571.61 3212.83 1567.06 3201.86 1564.62C3177.28 1559.19 3164.08 1543.92 3162.25 1518.81C3159.15 1476.39 3179.45 1453.59 3223.15 1450.4C3256.3 1447.96 3292.89 1449.55 3332.91 1455.18C3333.4 1455.25 3333.88 1455.43 3334.3 1455.69C3334.72 1455.96 3335.08 1456.31 3335.35 1456.72C3335.63 1457.13 3335.81 1457.59 3335.9 1458.07C3335.98 1458.56 3335.95 1459.05 3335.83 1459.53L3326.76 1495.53C3326.55 1496.34 3326.06 1497.04 3325.38 1497.53C3324.7 1498.02 3323.87 1498.25 3323.04 1498.2Z" fill="#103247"/>
<path d="M1255.67 1551.15C1255.67 1562.36 1254.04 1577.59 1250.77 1596.83C1243.13 1641.4 1207.5 1650.09 1168.64 1650.65C1123.73 1651.31 1083.28 1651.44 1047.27 1651.02C1046.34 1651.03 1045.43 1650.68 1044.74 1650.04C1044.05 1649.41 1043.63 1648.54 1043.55 1647.61C1043.09 1642.81 1042.89 1610.63 1042.93 1551.09C1042.93 1491.5 1043.15 1459.32 1043.61 1454.56C1043.69 1453.63 1044.11 1452.76 1044.8 1452.13C1045.5 1451.49 1046.4 1451.14 1047.33 1451.15C1083.34 1450.73 1123.8 1450.88 1168.7 1451.58C1207.56 1452.14 1243.19 1460.83 1250.77 1505.46C1254.04 1524.7 1255.67 1539.93 1255.67 1551.15ZM1095.88 1495.1L1095.51 1608.07C1095.51 1608.78 1095.79 1609.46 1096.29 1609.96C1096.79 1610.46 1097.47 1610.74 1098.18 1610.74L1161.5 1610.99C1171.49 1611.02 1181.09 1607.03 1188.18 1599.89C1195.27 1592.76 1199.27 1583.06 1199.3 1572.94L1199.43 1530.97C1199.45 1525.96 1198.49 1520.99 1196.61 1516.36C1194.73 1511.72 1191.97 1507.5 1188.48 1503.94C1184.99 1500.39 1180.85 1497.56 1176.28 1495.63C1171.72 1493.69 1166.82 1492.69 1161.87 1492.67L1098.55 1492.43C1097.84 1492.43 1097.16 1492.71 1096.66 1493.21C1096.16 1493.71 1095.88 1494.39 1095.88 1495.1Z" fill="#103247"/>
<path d="M1517.9 1607.76C1518.18 1607.76 1518.46 1607.83 1518.71 1607.95C1518.96 1608.07 1519.19 1608.25 1519.37 1608.47C1519.54 1608.69 1519.67 1608.94 1519.74 1609.22C1519.81 1609.49 1519.81 1609.78 1519.76 1610.05L1511.07 1649.04C1510.94 1649.62 1510.61 1650.14 1510.14 1650.51C1509.66 1650.88 1509.07 1651.09 1508.46 1651.08L1336.87 1651.21C1336.39 1651.21 1335.91 1651.11 1335.46 1650.92C1335.01 1650.74 1334.6 1650.46 1334.26 1650.11C1333.92 1649.77 1333.65 1649.36 1333.47 1648.9C1333.29 1648.45 1333.2 1647.97 1333.21 1647.48L1333.15 1453.32C1333.15 1452.69 1333.4 1452.09 1333.84 1451.65C1334.28 1451.21 1334.88 1450.96 1335.51 1450.96L1516.9 1450.9C1517.3 1450.9 1517.7 1450.99 1518.06 1451.16C1518.42 1451.33 1518.74 1451.57 1518.99 1451.87C1519.25 1452.18 1519.43 1452.53 1519.53 1452.91C1519.63 1453.29 1519.64 1453.68 1519.57 1454.06L1513.43 1489.76C1513.29 1490.62 1512.86 1491.4 1512.2 1491.97C1511.54 1492.54 1510.7 1492.86 1509.83 1492.86H1390.2C1389.38 1492.86 1388.59 1493.19 1388 1493.77C1387.42 1494.35 1387.1 1495.14 1387.1 1495.96V1527C1387.1 1527.84 1387.42 1528.64 1388 1529.24C1388.59 1529.83 1389.38 1530.17 1390.2 1530.17L1499.83 1530.1C1500.17 1530.1 1500.51 1530.17 1500.82 1530.31C1501.13 1530.45 1501.41 1530.66 1501.64 1530.91C1501.87 1531.17 1502.04 1531.48 1502.14 1531.81C1502.25 1532.14 1502.29 1532.49 1502.25 1532.84L1498.09 1569.02C1497.99 1569.83 1497.59 1570.56 1496.97 1571.1C1496.36 1571.64 1495.56 1571.93 1494.74 1571.94L1390.14 1572C1389.31 1572 1388.52 1572.33 1387.94 1572.91C1387.36 1573.49 1387.03 1574.28 1387.03 1575.11L1387.1 1604.65C1387.1 1605.46 1387.42 1606.23 1388 1606.8C1388.59 1607.37 1389.38 1607.7 1390.2 1607.7L1517.9 1607.76Z" fill="#103247"/>
<path d="M1934.7 1548.79C1953.32 1553.5 1963.65 1564.86 1965.68 1582.86C1970.95 1628.99 1951.4 1649.59 1905.46 1650.59C1873.05 1651.33 1828.25 1651.46 1771.06 1650.96C1770.58 1650.96 1770.12 1650.77 1769.79 1650.43C1769.45 1650.09 1769.26 1649.64 1769.26 1649.16V1454.87C1769.26 1453.86 1769.65 1452.89 1770.36 1452.17C1771.07 1451.45 1772.03 1451.04 1773.04 1451.02C1793.24 1450.86 1831.3 1450.9 1887.21 1451.15C1902.4 1451.23 1916.01 1452.49 1928.06 1454.93C1966.05 1462.69 1967.72 1506.2 1953.88 1533.45C1952.48 1536.26 1950.15 1538.5 1947.3 1539.79L1934.39 1545.74C1934.08 1545.88 1933.83 1546.12 1933.66 1546.41C1933.49 1546.7 1933.42 1547.04 1933.45 1547.38C1933.49 1547.71 1933.63 1548.03 1933.85 1548.28C1934.07 1548.53 1934.37 1548.71 1934.7 1548.79ZM1822.09 1495.28V1527.56C1822.09 1528.21 1822.34 1528.83 1822.79 1529.29C1823.24 1529.76 1823.86 1530.02 1824.51 1530.04L1891.86 1530.16C1893.92 1530.17 1895.95 1529.79 1897.85 1529.03C1899.74 1528.28 1901.47 1527.17 1902.92 1525.77C1904.38 1524.37 1905.53 1522.7 1906.32 1520.87C1907.1 1519.03 1907.51 1517.07 1907.51 1515.08V1508C1907.51 1504.01 1905.87 1500.19 1902.97 1497.36C1900.06 1494.53 1896.11 1492.94 1891.99 1492.92L1824.63 1492.8C1824.3 1492.79 1823.97 1492.85 1823.66 1492.97C1823.35 1493.09 1823.07 1493.27 1822.84 1493.5C1822.6 1493.73 1822.41 1494.01 1822.28 1494.31C1822.15 1494.62 1822.09 1494.95 1822.09 1495.28ZM1822.15 1570.08L1822.03 1607.94C1822.03 1608.68 1822.32 1609.39 1822.84 1609.92C1823.37 1610.44 1824.08 1610.74 1824.82 1610.74L1892.3 1610.86C1895.01 1610.87 1897.7 1610.39 1900.21 1609.44C1902.71 1608.5 1904.99 1607.11 1906.91 1605.35C1908.84 1603.6 1910.36 1601.52 1911.4 1599.23C1912.44 1596.93 1912.97 1594.47 1912.97 1591.99V1586.28C1912.97 1581.28 1910.81 1576.49 1906.95 1572.96C1903.1 1569.42 1897.88 1567.42 1892.42 1567.41L1824.94 1567.28C1824.58 1567.28 1824.21 1567.36 1823.87 1567.5C1823.53 1567.64 1823.23 1567.84 1822.97 1568.1C1822.71 1568.36 1822.5 1568.67 1822.36 1569.01C1822.22 1569.35 1822.15 1569.71 1822.15 1570.08Z" fill="#103247"/>
<path d="M2133.91 1450.53C2140.61 1450.53 2147.15 1450.71 2153.52 1451.08C2154.59 1451.15 2155.62 1451.5 2156.51 1452.1C2157.39 1452.7 2158.1 1453.53 2158.55 1454.5L2246.58 1645.99C2246.85 1646.58 2246.97 1647.22 2246.93 1647.87C2246.88 1648.51 2246.68 1649.13 2246.33 1649.67C2245.99 1650.22 2245.51 1650.67 2244.95 1650.98C2244.38 1651.29 2243.75 1651.45 2243.1 1651.46H2197.66C2195.83 1651.45 2194.03 1650.92 2192.48 1649.92C2190.93 1648.92 2189.69 1647.49 2188.91 1645.81L2180.84 1628.24C2180.21 1626.87 2179.2 1625.7 2177.93 1624.86C2176.66 1624.03 2175.17 1623.56 2173.64 1623.52C2169.25 1623.44 2155.9 1623.38 2133.6 1623.34C2111.29 1623.3 2097.96 1623.32 2093.62 1623.4C2092.07 1623.43 2090.57 1623.89 2089.29 1624.72C2088 1625.56 2086.99 1626.73 2086.35 1628.12L2078.22 1645.62C2077.44 1647.31 2076.2 1648.73 2074.65 1649.73C2073.1 1650.73 2071.3 1651.27 2069.47 1651.27L2024.03 1651.08C2023.38 1651.08 2022.75 1650.92 2022.18 1650.61C2021.62 1650.29 2021.14 1649.85 2020.8 1649.3C2020.45 1648.76 2020.25 1648.14 2020.2 1647.49C2020.16 1646.85 2020.28 1646.21 2020.55 1645.62L2109.2 1454.44C2109.65 1453.47 2110.36 1452.64 2111.25 1452.04C2112.13 1451.44 2113.16 1451.09 2114.23 1451.02C2120.64 1450.65 2127.2 1450.48 2133.91 1450.53ZM2105.72 1580.01C2105.59 1580.32 2105.54 1580.66 2105.56 1580.99C2105.59 1581.33 2105.71 1581.65 2105.89 1581.94C2106.07 1582.22 2106.33 1582.45 2106.62 1582.61C2106.92 1582.78 2107.25 1582.86 2107.59 1582.87L2157.56 1582.8C2157.9 1582.8 2158.23 1582.71 2158.52 1582.55C2158.82 1582.39 2159.07 1582.16 2159.25 1581.87C2159.44 1581.59 2159.55 1581.27 2159.58 1580.93C2159.61 1580.6 2159.55 1580.26 2159.42 1579.95L2134.34 1523.65C2134.18 1523.29 2133.92 1522.99 2133.59 1522.78C2133.26 1522.57 2132.87 1522.45 2132.48 1522.45C2132.09 1522.45 2131.7 1522.57 2131.37 1522.78C2131.04 1522.99 2130.78 1523.29 2130.62 1523.65L2105.72 1580.01Z" fill="#103247"/>
<path d="M2374.28 1526.13C2374.02 1525.87 2373.69 1525.68 2373.32 1525.61C2372.96 1525.53 2372.58 1525.55 2372.23 1525.68C2371.89 1525.82 2371.58 1526.05 2371.36 1526.35C2371.14 1526.65 2371.01 1527 2370.99 1527.37L2371.12 1648.11C2371.1 1648.82 2370.81 1649.5 2370.29 1650C2369.78 1650.5 2369.1 1650.78 2368.38 1650.78H2322.94C2322.25 1650.78 2321.58 1650.5 2321.08 1650.02C2320.58 1649.53 2320.29 1648.87 2320.27 1648.17L2320.52 1454.93C2320.54 1453.95 2320.94 1453.01 2321.65 1452.32C2322.36 1451.62 2323.31 1451.23 2324.31 1451.21L2370.18 1451.09C2371.3 1451.09 2372.4 1451.33 2373.42 1451.8C2374.43 1452.27 2375.34 1452.96 2376.08 1453.82L2472.18 1567.97C2472.38 1568.19 2472.64 1568.35 2472.93 1568.43C2473.22 1568.5 2473.52 1568.49 2473.8 1568.39C2474.08 1568.29 2474.33 1568.11 2474.5 1567.87C2474.68 1567.62 2474.78 1567.34 2474.79 1567.04L2474.85 1453.94C2474.85 1453.59 2474.92 1453.24 2475.06 1452.92C2475.2 1452.6 2475.4 1452.3 2475.65 1452.05C2475.9 1451.81 2476.21 1451.61 2476.54 1451.48C2476.87 1451.34 2477.22 1451.27 2477.58 1451.27L2522.9 1451.33C2523.61 1451.33 2524.29 1451.62 2524.79 1452.12C2525.29 1452.62 2525.57 1453.3 2525.57 1454L2525.45 1647.17C2525.45 1648.2 2525.04 1649.17 2524.32 1649.9C2523.6 1650.62 2522.62 1651.02 2521.6 1651.02H2483.6C2482.58 1651.02 2481.57 1650.79 2480.64 1650.36C2479.71 1649.94 2478.88 1649.31 2478.2 1648.54L2374.28 1526.13Z" fill="#103247"/>
<path d="M1114.51 1803.04L1127.98 1774.11C1128.26 1773.53 1128.7 1773.05 1129.23 1772.71C1129.77 1772.37 1130.39 1772.19 1131.02 1772.19H1159.52C1159.62 1772.2 1159.72 1772.23 1159.81 1772.29C1159.89 1772.36 1159.96 1772.44 1159.99 1772.54C1160.03 1772.63 1160.04 1772.74 1160.03 1772.84C1160.01 1772.95 1159.96 1773.04 1159.89 1773.12L1128.85 1803.1C1127.5 1804.41 1125.72 1805.15 1123.88 1805.15H1115.88C1115.63 1805.15 1115.38 1805.09 1115.16 1804.97C1114.94 1804.85 1114.75 1804.68 1114.61 1804.47C1114.48 1804.26 1114.4 1804.02 1114.38 1803.77C1114.36 1803.52 1114.41 1803.27 1114.51 1803.04Z" fill="#5D8192"/>
<path d="M1713.57 1872.81C1713.63 1899.94 1718.97 1921.35 1752.31 1919.24C1765.06 1918.46 1774.57 1917.3 1780.87 1915.77C1781.45 1915.62 1782.07 1915.7 1782.61 1915.98C1783.16 1916.27 1783.59 1916.74 1783.85 1917.32L1788.38 1928.12C1788.57 1928.57 1788.67 1929.05 1788.65 1929.54C1788.64 1930.03 1788.52 1930.51 1788.3 1930.95C1788.08 1931.39 1787.77 1931.77 1787.39 1932.08C1787 1932.38 1786.56 1932.6 1786.08 1932.71C1776.19 1935.15 1761.31 1936.33 1741.45 1936.25C1700.91 1936.06 1691.97 1906.64 1691.84 1872.87C1691.78 1839.1 1700.66 1809.62 1741.2 1809.31C1761.06 1809.1 1775.94 1810.2 1785.83 1812.6C1786.31 1812.71 1786.75 1812.93 1787.14 1813.23C1787.52 1813.54 1787.83 1813.92 1788.05 1814.36C1788.27 1814.8 1788.39 1815.28 1788.4 1815.77C1788.42 1816.26 1788.32 1816.74 1788.13 1817.19L1783.66 1828.06C1783.41 1828.63 1782.97 1829.11 1782.43 1829.39C1781.88 1829.67 1781.26 1829.75 1780.68 1829.61C1774.39 1828.08 1764.87 1826.96 1752.12 1826.26C1718.79 1824.27 1713.51 1845.75 1713.57 1872.81Z" fill="#5D8192"/>
<path d="M1917.32 1809.5C1919.35 1809.5 1921.31 1809.6 1923.21 1809.81C1924.28 1809.92 1925.3 1810.31 1926.16 1810.94C1927.03 1811.58 1927.7 1812.43 1928.12 1813.41L1977.6 1931.22C1977.79 1931.67 1977.87 1932.17 1977.83 1932.66C1977.79 1933.15 1977.62 1933.62 1977.35 1934.04C1977.08 1934.45 1976.71 1934.79 1976.28 1935.02C1975.84 1935.26 1975.36 1935.38 1974.86 1935.38H1961.46C1960.38 1935.38 1959.32 1935.06 1958.43 1934.45C1957.53 1933.84 1956.83 1932.98 1956.43 1931.97L1948.61 1913.34C1948.08 1912.13 1947.23 1911.08 1946.15 1910.32C1945.06 1909.57 1943.78 1909.13 1942.46 1909.06C1939.56 1908.9 1931.14 1908.81 1917.19 1908.81C1903.25 1908.77 1894.82 1908.83 1891.93 1909C1890.6 1909.07 1889.33 1909.5 1888.24 1910.26C1887.15 1911.02 1886.3 1912.07 1885.78 1913.28L1877.9 1931.9C1877.49 1932.91 1876.79 1933.78 1875.9 1934.39C1875 1934.99 1873.95 1935.32 1872.87 1935.32L1859.46 1935.26C1858.97 1935.26 1858.48 1935.13 1858.05 1934.9C1857.61 1934.66 1857.24 1934.32 1856.97 1933.91C1856.7 1933.5 1856.54 1933.03 1856.5 1932.54C1856.45 1932.04 1856.53 1931.55 1856.73 1931.1L1906.45 1813.41C1906.87 1812.44 1907.53 1811.59 1908.38 1810.96C1909.23 1810.32 1910.24 1809.93 1911.3 1809.81C1913.24 1809.6 1915.25 1809.5 1917.32 1809.5ZM1895.65 1888.89C1895.52 1889.2 1895.46 1889.54 1895.49 1889.87C1895.52 1890.21 1895.63 1890.53 1895.82 1890.81C1896 1891.1 1896.25 1891.33 1896.55 1891.49C1896.85 1891.65 1897.18 1891.74 1897.51 1891.74H1936.13C1936.46 1891.74 1936.8 1891.65 1937.09 1891.49C1937.39 1891.33 1937.64 1891.1 1937.82 1890.81C1938.01 1890.53 1938.12 1890.21 1938.15 1889.87C1938.18 1889.54 1938.12 1889.2 1937.99 1888.89L1918.68 1842.52C1918.52 1842.16 1918.26 1841.86 1917.93 1841.65C1917.6 1841.44 1917.21 1841.32 1916.82 1841.32C1916.43 1841.32 1916.04 1841.44 1915.71 1841.65C1915.38 1841.86 1915.12 1842.16 1914.96 1842.52L1895.65 1888.89Z" fill="#5D8192"/>
<path d="M2446.61 1888.78C2446.37 1901.62 2441.03 1913.83 2431.78 1922.73C2422.52 1931.64 2410.11 1936.5 2397.27 1936.26L2375.67 1935.84C2362.83 1935.59 2350.62 1930.26 2341.71 1921.01C2332.81 1911.75 2327.94 1899.34 2328.19 1886.5L2328.76 1856.71C2329.01 1843.88 2334.34 1831.66 2343.6 1822.76C2352.85 1813.85 2365.26 1808.99 2378.1 1809.24L2399.7 1809.65C2412.54 1809.9 2424.76 1815.23 2433.66 1824.49C2442.57 1833.74 2447.43 1846.15 2447.19 1858.99L2446.61 1888.78ZM2425.2 1858.38C2425.09 1849.77 2421.57 1841.56 2415.41 1835.54C2409.24 1829.53 2400.94 1826.21 2392.33 1826.32L2381.91 1826.44C2373.3 1826.55 2365.08 1830.07 2359.07 1836.23C2353.05 1842.39 2349.73 1850.69 2349.84 1859.3L2350.18 1887.23C2350.28 1895.84 2353.8 1904.06 2359.97 1910.07C2366.13 1916.08 2374.43 1919.4 2383.04 1919.3L2393.47 1919.17C2402.08 1919.07 2410.29 1915.55 2416.31 1909.38C2422.32 1903.22 2425.64 1894.92 2425.54 1886.31L2425.2 1858.38Z" fill="#5D8192"/>
<path d="M3120.78 1872.75C3120.78 1838.92 3129.72 1809.43 3170.32 1809.18C3190.23 1809.06 3205.13 1810.22 3215.02 1812.66C3215.49 1812.77 3215.94 1812.99 3216.32 1813.3C3216.71 1813.6 3217.02 1813.98 3217.24 1814.42C3217.46 1814.86 3217.58 1815.34 3217.59 1815.83C3217.6 1816.32 3217.51 1816.81 3217.31 1817.25L3212.78 1828.06C3212.53 1828.63 3212.1 1829.1 3211.55 1829.39C3211.01 1829.67 3210.39 1829.75 3209.8 1829.61C3203.51 1828.12 3193.99 1826.98 3181.25 1826.19C3147.85 1824.14 3142.51 1845.62 3142.51 1872.75C3142.51 1899.87 3147.85 1921.35 3181.18 1919.3C3193.93 1918.56 3203.47 1917.42 3209.8 1915.89C3210.39 1915.75 3211.02 1915.84 3211.56 1916.13C3212.11 1916.43 3212.54 1916.91 3212.78 1917.5L3217.25 1928.3C3217.45 1928.75 3217.54 1929.24 3217.53 1929.73C3217.51 1930.22 3217.39 1930.7 3217.18 1931.14C3216.96 1931.57 3216.64 1931.96 3216.26 1932.26C3215.88 1932.57 3215.43 1932.78 3214.96 1932.9C3205.06 1935.3 3190.17 1936.43 3170.26 1936.31C3129.66 1936 3120.78 1906.52 3120.78 1872.75Z" fill="#5D8192"/>
<path d="M3341.29 1908.69C3327.34 1908.65 3318.92 1908.71 3316.02 1908.87C3314.7 1908.94 3313.43 1909.37 3312.34 1910.13C3311.25 1910.88 3310.4 1911.93 3309.87 1913.16L3301.99 1931.72C3301.59 1932.73 3300.9 1933.59 3300 1934.2C3299.11 1934.81 3298.05 1935.13 3296.96 1935.13L3283.55 1935.07C3283.06 1935.07 3282.57 1934.95 3282.14 1934.71C3281.71 1934.48 3281.34 1934.14 3281.07 1933.73C3280.8 1933.31 3280.63 1932.84 3280.59 1932.35C3280.55 1931.86 3280.63 1931.36 3280.82 1930.91L3330.61 1813.34C3331.03 1812.36 3331.7 1811.51 3332.56 1810.88C3333.43 1810.25 3334.44 1809.85 3335.51 1809.74C3337.42 1809.54 3339.4 1809.43 3341.47 1809.43C3343.5 1809.47 3345.47 1809.58 3347.37 1809.74C3348.45 1809.86 3349.47 1810.26 3350.33 1810.91C3351.2 1811.55 3351.87 1812.41 3352.27 1813.41L3401.63 1931.1C3401.82 1931.55 3401.9 1932.04 3401.86 1932.54C3401.82 1933.03 3401.65 1933.5 3401.38 1933.91C3401.11 1934.32 3400.74 1934.66 3400.31 1934.9C3399.87 1935.13 3399.39 1935.26 3398.9 1935.26H3385.49C3384.4 1935.26 3383.34 1934.93 3382.45 1934.32C3381.55 1933.71 3380.86 1932.85 3380.46 1931.84L3372.64 1913.22C3372.11 1912 3371.26 1910.95 3370.17 1910.19C3369.09 1909.43 3367.81 1909 3366.49 1908.94C3363.59 1908.77 3355.19 1908.69 3341.29 1908.69ZM3340.98 1891.68C3351.45 1891.68 3357.55 1891.54 3359.29 1891.25C3359.73 1891.17 3360.15 1891.01 3360.51 1890.75C3360.87 1890.5 3361.17 1890.17 3361.39 1889.79C3361.61 1889.4 3361.73 1888.98 3361.75 1888.54C3361.78 1888.11 3361.7 1887.67 3361.52 1887.27L3341.78 1840.1C3341.75 1840.06 3341.68 1840.01 3341.57 1839.96C3341.46 1839.9 3341.31 1839.84 3341.16 1839.79C3341.08 1839.75 3340.98 1839.73 3340.85 1839.73C3340.81 1839.73 3340.75 1839.75 3340.67 1839.79C3340.51 1839.84 3340.37 1839.9 3340.26 1839.96C3340.15 1840.01 3340.08 1840.06 3340.05 1840.1L3320.37 1887.34C3320.2 1887.73 3320.13 1888.16 3320.16 1888.59C3320.19 1889.01 3320.32 1889.43 3320.53 1889.81C3320.75 1890.18 3321.05 1890.51 3321.4 1890.76C3321.76 1891 3322.17 1891.17 3322.6 1891.25C3324.34 1891.54 3330.46 1891.68 3340.98 1891.68Z" fill="#5D8192"/>
<path d="M3711.53 1908.75C3697.58 1908.75 3689.16 1908.81 3686.26 1908.94C3684.94 1909 3683.66 1909.44 3682.58 1910.2C3681.49 1910.96 3680.64 1912 3680.12 1913.22L3672.23 1931.84C3671.82 1932.85 3671.13 1933.72 3670.23 1934.32C3669.34 1934.93 3668.28 1935.26 3667.2 1935.26L3653.8 1935.19C3653.3 1935.19 3652.82 1935.07 3652.38 1934.84C3651.95 1934.6 3651.58 1934.26 3651.31 1933.85C3651.04 1933.44 3650.87 1932.96 3650.83 1932.47C3650.79 1931.98 3650.87 1931.49 3651.06 1931.03L3700.85 1813.28C3701.27 1812.3 3701.94 1811.45 3702.81 1810.82C3703.67 1810.19 3704.69 1809.79 3705.76 1809.68C3707.66 1809.52 3709.65 1809.43 3711.72 1809.43C3713.78 1809.43 3715.77 1809.54 3717.67 1809.74C3718.74 1809.85 3719.76 1810.25 3720.62 1810.88C3721.49 1811.51 3722.16 1812.36 3722.58 1813.34L3771.99 1931.22C3772.19 1931.67 3772.27 1932.17 3772.23 1932.66C3772.18 1933.15 3772.02 1933.62 3771.75 1934.04C3771.48 1934.45 3771.11 1934.79 3770.68 1935.02C3770.24 1935.26 3769.76 1935.38 3769.26 1935.38H3755.85C3754.78 1935.38 3753.72 1935.06 3752.83 1934.45C3751.93 1933.84 3751.23 1932.98 3750.83 1931.97L3743 1913.34C3742.49 1912.11 3741.63 1911.04 3740.53 1910.27C3739.43 1909.5 3738.14 1909.06 3736.8 1909C3733.94 1908.87 3725.52 1908.79 3711.53 1908.75ZM3711.09 1891.68C3721.61 1891.76 3727.73 1891.66 3729.47 1891.37C3729.91 1891.3 3730.33 1891.13 3730.69 1890.88C3731.05 1890.62 3731.36 1890.29 3731.57 1889.91C3731.79 1889.53 3731.91 1889.1 3731.93 1888.67C3731.96 1888.23 3731.88 1887.8 3731.7 1887.4L3712.21 1840.1C3712.18 1840.06 3712.1 1840.01 3711.99 1839.96C3711.88 1839.9 3711.74 1839.84 3711.59 1839.79C3711.51 1839.75 3711.4 1839.73 3711.28 1839.73C3711.28 1839.73 3711.22 1839.75 3711.09 1839.79C3710.94 1839.84 3710.8 1839.9 3710.69 1839.96C3710.58 1840.01 3710.5 1840.06 3710.47 1840.1L3690.55 1887.21C3690.37 1887.61 3690.29 1888.04 3690.32 1888.48C3690.34 1888.91 3690.46 1889.34 3690.68 1889.72C3690.9 1890.11 3691.2 1890.44 3691.56 1890.69C3691.93 1890.94 3692.34 1891.11 3692.78 1891.18C3694.48 1891.47 3700.58 1891.64 3711.09 1891.68Z" fill="#5D8192"/>
<path d="M678.646 1932.4C678.825 1932.67 678.928 1932.98 678.943 1933.31C678.959 1933.63 678.886 1933.95 678.733 1934.24C678.581 1934.53 678.354 1934.77 678.076 1934.93C677.799 1935.1 677.481 1935.19 677.157 1935.19H660.023C658.669 1935.19 657.335 1934.85 656.143 1934.2C654.95 1933.55 653.937 1932.61 653.194 1931.47L628.735 1894.35C628.163 1893.49 627.387 1892.79 626.478 1892.3C625.568 1891.81 624.552 1891.56 623.52 1891.56H599.433C598.495 1891.56 597.595 1891.93 596.931 1892.59C596.268 1893.26 595.895 1894.16 595.895 1895.09V1932.34C595.895 1933.11 595.588 1933.85 595.04 1934.4C594.493 1934.95 593.751 1935.26 592.977 1935.26H578.761C577.971 1935.26 577.213 1934.94 576.654 1934.38C576.095 1933.82 575.781 1933.07 575.781 1932.28V1815.02C575.781 1814.02 576.169 1813.06 576.864 1812.34C577.56 1811.62 578.507 1811.2 579.506 1811.17C581.12 1811.17 598.564 1811.11 631.839 1810.98C662.216 1810.9 676.06 1826.44 673.37 1857.6C672.045 1872.5 665.03 1882.18 652.325 1886.65C651.952 1886.79 651.615 1887.01 651.338 1887.29C651.06 1887.57 650.851 1887.91 650.725 1888.28C650.599 1888.65 650.561 1889.04 650.612 1889.43C650.663 1889.81 650.803 1890.18 651.021 1890.5L678.646 1932.4ZM595.895 1830.1L596.019 1872.56C596.019 1873.12 596.241 1873.66 596.637 1874.05C597.033 1874.45 597.57 1874.67 598.13 1874.67L633.08 1874.61C635.681 1874.6 638.255 1874.05 640.654 1872.97C643.054 1871.9 645.232 1870.34 647.065 1868.37C648.899 1866.4 650.35 1864.06 651.338 1861.49C652.326 1858.91 652.83 1856.16 652.822 1853.38V1849.04C652.805 1843.42 650.703 1838.04 646.977 1834.09C643.252 1830.13 638.208 1827.91 632.956 1827.93L598.006 1827.99C597.446 1827.99 596.909 1828.22 596.513 1828.61C596.117 1829.01 595.895 1829.54 595.895 1830.1Z" fill="#5D8192"/>
<path d="M835.649 1935.13H755.07C754.444 1935.13 753.844 1934.88 753.402 1934.44C752.959 1934 752.711 1933.4 752.711 1932.77V1813.41C752.711 1812.78 752.959 1812.18 753.402 1811.74C753.844 1811.3 754.444 1811.05 755.07 1811.05H835.587C836.212 1811.05 836.812 1811.3 837.255 1811.74C837.697 1812.18 837.946 1812.78 837.946 1813.41V1825.7C837.946 1826.32 837.697 1826.92 837.255 1827.36C836.812 1827.81 836.212 1828.05 835.587 1828.05H775.184C774.558 1828.05 773.958 1828.3 773.516 1828.75C773.073 1829.19 772.825 1829.79 772.825 1830.41V1859.84C772.825 1860.46 773.073 1861.06 773.516 1861.5C773.958 1861.95 774.558 1862.2 775.184 1862.2H820.253C820.879 1862.2 821.479 1862.44 821.921 1862.89C822.364 1863.33 822.612 1863.93 822.612 1864.55V1876.91C822.612 1877.53 822.364 1878.13 821.921 1878.57C821.479 1879.02 820.879 1879.27 820.253 1879.27H775.246C774.62 1879.27 774.02 1879.51 773.578 1879.96C773.135 1880.4 772.887 1881 772.887 1881.62V1915.7C772.887 1916.33 773.135 1916.93 773.578 1917.37C774.02 1917.81 774.62 1918.06 775.246 1918.06H835.649C836.274 1918.06 836.874 1918.31 837.317 1918.75C837.759 1919.19 838.008 1919.79 838.008 1920.42V1932.77C838.008 1933.4 837.759 1934 837.317 1934.44C836.874 1934.88 836.274 1935.13 835.649 1935.13Z" fill="#5D8192"/>
<path d="M915.113 1811.17C945.946 1810.63 967.88 1810.92 980.917 1812.04C1013.76 1814.83 1016.92 1854.13 1005.56 1877.4C996.871 1895.34 957.203 1893.73 935.164 1892.98C934.632 1892.97 934.102 1893.06 933.606 1893.25C933.109 1893.44 932.657 1893.73 932.274 1894.1C931.892 1894.47 931.588 1894.92 931.381 1895.41C931.174 1895.9 931.067 1896.43 931.067 1896.96V1932.4C931.067 1933.16 930.773 1933.88 930.249 1934.42C929.725 1934.96 929.015 1935.26 928.274 1935.26H914.12C913.296 1935.26 912.507 1934.92 911.925 1934.33C911.343 1933.74 911.016 1932.93 911.016 1932.09V1815.33C911.016 1814.24 911.445 1813.19 912.212 1812.41C912.978 1811.63 914.021 1811.19 915.113 1811.17ZM931.129 1830.48L931.253 1873.8C931.253 1874.48 931.522 1875.13 931.999 1875.6C932.476 1876.08 933.124 1876.35 933.799 1876.35L969.246 1876.29C974.877 1876.27 980.27 1874.18 984.24 1870.48C988.21 1866.78 990.431 1861.77 990.415 1856.55V1847.49C990.407 1844.9 989.85 1842.34 988.775 1839.96C987.701 1837.58 986.13 1835.41 984.153 1833.59C982.176 1831.77 979.831 1830.33 977.251 1829.34C974.672 1828.36 971.91 1827.86 969.122 1827.87L933.674 1827.93C932.999 1827.93 932.352 1828.2 931.875 1828.68C931.397 1829.15 931.129 1829.8 931.129 1830.48Z" fill="#5D8192"/>
<path d="M1127.05 1918.06C1142.26 1918.06 1159.39 1916.26 1160.08 1897.58C1160.62 1881.89 1160.72 1853.94 1160.39 1813.72C1160.38 1813.36 1160.44 1813.01 1160.57 1812.68C1160.7 1812.34 1160.9 1812.04 1161.15 1811.79C1161.4 1811.53 1161.69 1811.33 1162.02 1811.19C1162.35 1811.06 1162.7 1810.98 1163.06 1810.98H1178.64C1179.35 1810.98 1180.03 1811.27 1180.53 1811.77C1181.03 1812.27 1181.31 1812.95 1181.31 1813.65C1181.52 1844.94 1181.47 1872.46 1181.18 1896.21C1180.75 1930.29 1155.24 1936.68 1127.05 1936.68C1098.93 1936.68 1073.41 1930.29 1072.98 1896.15C1072.69 1872.44 1072.65 1844.94 1072.86 1813.65C1072.86 1812.95 1073.14 1812.27 1073.64 1811.77C1074.14 1811.27 1074.82 1810.98 1075.53 1810.98H1091.11C1091.46 1810.98 1091.82 1811.06 1092.14 1811.19C1092.47 1811.33 1092.77 1811.53 1093.02 1811.79C1093.27 1812.04 1093.46 1812.34 1093.59 1812.68C1093.72 1813.01 1093.78 1813.36 1093.78 1813.72C1093.45 1853.94 1093.55 1881.87 1094.09 1897.51C1094.77 1916.26 1111.9 1918.06 1127.05 1918.06Z" fill="#5D8192"/>
<path d="M1345.2 1872.56C1362.77 1877.47 1361.59 1904.9 1356.99 1916.88C1350.97 1932.53 1329.18 1934.82 1313.04 1935.07C1288 1935.4 1271.57 1935.36 1263.75 1934.95C1262.79 1934.9 1261.89 1934.48 1261.24 1933.79C1260.58 1933.1 1260.21 1932.18 1260.21 1931.22V1814.77C1260.21 1813.83 1260.58 1812.92 1261.24 1812.25C1261.91 1811.57 1262.81 1811.19 1263.75 1811.17C1291.19 1810.72 1312.44 1810.92 1327.5 1811.79C1345.47 1812.83 1355.25 1822.28 1356.87 1840.16C1357.94 1851.58 1353.87 1861.66 1344.64 1870.39C1344.48 1870.55 1344.36 1870.75 1344.3 1870.97C1344.24 1871.19 1344.24 1871.42 1344.3 1871.64C1344.36 1871.85 1344.47 1872.06 1344.63 1872.22C1344.78 1872.38 1344.98 1872.5 1345.2 1872.56ZM1280.32 1830.91L1280.45 1861.08C1280.46 1861.83 1280.77 1862.54 1281.31 1863.06C1281.84 1863.58 1282.56 1863.87 1283.3 1863.87L1318.19 1863.75C1322.97 1863.73 1327.54 1861.88 1330.9 1858.59C1334.27 1855.31 1336.15 1850.87 1336.13 1846.24V1845.25C1336.13 1842.96 1335.65 1840.69 1334.74 1838.58C1333.83 1836.47 1332.5 1834.55 1330.82 1832.93C1329.14 1831.32 1327.15 1830.04 1324.96 1829.17C1322.78 1828.3 1320.43 1827.86 1318.07 1827.87L1283.18 1827.99C1282.8 1827.99 1282.42 1828.07 1282.07 1828.22C1281.72 1828.36 1281.4 1828.58 1281.14 1828.85C1280.87 1829.12 1280.66 1829.45 1280.52 1829.8C1280.38 1830.15 1280.32 1830.53 1280.32 1830.91ZM1280.45 1881.69L1280.2 1915.46C1280.2 1916.13 1280.47 1916.78 1280.95 1917.25C1281.42 1917.73 1282.07 1918 1282.75 1918L1319.62 1918.25C1322.22 1918.27 1324.8 1917.8 1327.21 1916.88C1329.62 1915.96 1331.81 1914.6 1333.66 1912.89C1335.51 1911.17 1336.99 1909.12 1338 1906.87C1339.01 1904.62 1339.53 1902.2 1339.55 1899.75V1898.14C1339.58 1893.2 1337.52 1888.45 1333.83 1884.94C1330.14 1881.42 1325.12 1879.43 1319.87 1879.39L1282.99 1879.14C1282.32 1879.14 1281.67 1879.41 1281.19 1879.89C1280.72 1880.37 1280.45 1881.01 1280.45 1881.69Z" fill="#5D8192"/>
<path d="M1458.05 1918.06H1523.17C1523.8 1918.06 1524.4 1918.31 1524.84 1918.75C1525.28 1919.19 1525.53 1919.79 1525.53 1920.42V1932.77C1525.53 1933.4 1525.28 1934 1524.84 1934.44C1524.4 1934.88 1523.8 1935.13 1523.17 1935.13H1437.94C1437.31 1935.13 1436.71 1934.88 1436.27 1934.44C1435.83 1934 1435.58 1933.4 1435.58 1932.77V1813.41C1435.58 1812.78 1435.83 1812.18 1436.27 1811.74C1436.71 1811.3 1437.31 1811.05 1437.94 1811.05H1453.33C1453.96 1811.05 1454.56 1811.3 1455 1811.74C1455.44 1812.18 1455.69 1812.78 1455.69 1813.41V1915.7C1455.69 1916.33 1455.94 1916.93 1456.38 1917.37C1456.83 1917.81 1457.43 1918.06 1458.05 1918.06Z" fill="#5D8192"/>
<path d="M1607.04 1810.98H1591.65C1590.35 1810.98 1589.29 1812.04 1589.29 1813.34V1932.9C1589.29 1934.2 1590.35 1935.25 1591.65 1935.25H1607.04C1608.35 1935.25 1609.4 1934.2 1609.4 1932.9V1813.34C1609.4 1812.04 1608.35 1810.98 1607.04 1810.98Z" fill="#5D8192"/>
<path d="M2154.09 1813.96C2154.09 1813.14 2154.41 1812.35 2155 1811.77C2155.58 1811.19 2156.37 1810.86 2157.19 1810.86L2212.81 1810.8C2218.95 1810.78 2225.03 1812.02 2230.7 1814.43C2236.37 1816.85 2241.53 1820.4 2245.88 1824.88C2250.23 1829.36 2253.68 1834.68 2256.04 1840.54C2258.39 1846.4 2259.61 1852.68 2259.62 1859.03V1886.59C2259.64 1899.39 2254.74 1911.67 2246.01 1920.73C2237.28 1929.8 2225.43 1934.91 2213.06 1934.94L2157.44 1935.01C2156.62 1935.01 2155.83 1934.68 2155.24 1934.1C2154.66 1933.51 2154.33 1932.72 2154.33 1931.9L2154.09 1813.96ZM2175.81 1830.54V1915.58C2175.81 1916.27 2176.09 1916.93 2176.58 1917.42C2177.07 1917.91 2177.73 1918.18 2178.42 1918.18H2207.91C2215.86 1918.18 2223.49 1914.66 2229.11 1908.38C2234.73 1902.11 2237.89 1893.6 2237.89 1884.73V1861.39C2237.89 1852.51 2234.73 1844 2229.11 1837.73C2223.49 1831.45 2215.86 1827.93 2207.91 1827.93H2178.42C2177.73 1827.93 2177.07 1828.2 2176.58 1828.69C2176.09 1829.18 2175.81 1829.84 2175.81 1830.54Z" fill="#5D8192"/>
<path d="M2585.6 1905.58C2585.89 1905.58 2586.18 1905.52 2586.47 1905.4C2586.61 1905.35 2586.76 1905.2 2586.93 1904.97C2587.09 1904.74 2587.26 1904.44 2587.4 1904.09L2629.24 1814.21C2629.69 1813.26 2630.4 1812.47 2631.29 1811.9C2632.18 1811.34 2633.21 1811.05 2634.27 1811.05H2648.43C2649.5 1811.05 2650.52 1811.46 2651.28 1812.21C2652.04 1812.95 2652.46 1813.96 2652.46 1815.02V1932.65C2652.46 1933.35 2652.18 1934.03 2651.68 1934.53C2651.18 1935.03 2650.5 1935.32 2649.79 1935.32H2635.02C2634.26 1935.32 2633.53 1935.01 2633 1934.48C2632.46 1933.94 2632.16 1933.22 2632.16 1932.46V1858.78C2632.17 1858.37 2632.04 1857.97 2631.78 1857.66C2631.53 1857.34 2631.17 1857.12 2630.77 1857.04C2630.37 1856.96 2629.96 1857.02 2629.6 1857.21C2629.24 1857.4 2628.96 1857.72 2628.81 1858.1C2621.28 1876.1 2610.58 1899.81 2596.71 1929.23C2594.81 1933.29 2591.08 1935.29 2585.54 1935.25C2580.03 1935.25 2576.35 1933.23 2574.49 1929.17C2560.71 1899.71 2550.09 1875.95 2542.64 1857.91C2542.49 1857.53 2542.21 1857.22 2541.85 1857.03C2541.5 1856.83 2541.08 1856.77 2540.68 1856.85C2540.28 1856.93 2539.92 1857.15 2539.67 1857.47C2539.42 1857.79 2539.28 1858.19 2539.29 1858.59L2538.98 1932.27C2538.98 1933.03 2538.68 1933.76 2538.14 1934.29C2537.61 1934.83 2536.88 1935.13 2536.12 1935.13L2521.35 1935.07C2520.64 1935.07 2519.96 1934.79 2519.46 1934.29C2518.96 1933.78 2518.68 1933.11 2518.68 1932.4L2519.18 1814.77C2519.18 1814.25 2519.28 1813.73 2519.48 1813.25C2519.69 1812.77 2519.98 1812.33 2520.36 1811.96C2520.73 1811.59 2521.18 1811.3 2521.67 1811.1C2522.16 1810.9 2522.68 1810.8 2523.21 1810.8L2537.37 1810.86C2538.42 1810.86 2539.46 1811.16 2540.35 1811.72C2541.24 1812.28 2541.95 1813.08 2542.39 1814.02L2583.86 1904.09C2584.01 1904.44 2584.17 1904.74 2584.34 1904.97C2584.5 1905.2 2584.66 1905.35 2584.79 1905.4C2585.08 1905.52 2585.35 1905.58 2585.6 1905.58Z" fill="#5D8192"/>
<path d="M2752.35 1811.05H2735.46C2734.12 1811.05 2733.04 1812.13 2733.04 1813.47V1932.65C2733.04 1933.99 2734.12 1935.07 2735.46 1935.07H2752.35C2753.68 1935.07 2754.77 1933.99 2754.77 1932.65V1813.47C2754.77 1812.13 2753.68 1811.05 2752.35 1811.05Z" fill="#5D8192"/>
<path d="M2879.86 1878.15C2866.36 1860.19 2859.04 1850.44 2857.88 1848.91C2857.61 1848.56 2857.25 1848.31 2856.83 1848.18C2856.41 1848.05 2855.96 1848.05 2855.55 1848.19C2855.13 1848.32 2854.77 1848.59 2854.51 1848.94C2854.25 1849.29 2854.1 1849.71 2854.09 1850.15V1931.53C2854.09 1932.27 2853.8 1932.98 2853.29 1933.5C2852.78 1934.03 2852.09 1934.32 2851.36 1934.32H2837.33C2836.94 1934.32 2836.55 1934.24 2836.19 1934.09C2835.83 1933.94 2835.5 1933.71 2835.22 1933.43C2834.95 1933.15 2834.73 1932.81 2834.58 1932.45C2834.43 1932.08 2834.35 1931.68 2834.35 1931.28V1812.78C2834.35 1812.38 2834.43 1811.99 2834.58 1811.62C2834.73 1811.25 2834.95 1810.92 2835.22 1810.63C2835.5 1810.35 2835.83 1810.13 2836.19 1809.97C2836.55 1809.82 2836.94 1809.74 2837.33 1809.74H2850.43C2851.36 1809.75 2852.27 1809.97 2853.1 1810.39C2853.93 1810.81 2854.65 1811.41 2855.21 1812.16C2878.1 1842.91 2891.51 1860.91 2895.44 1866.17C2908.97 1884.13 2916.32 1893.87 2917.48 1895.4C2917.74 1895.75 2918.11 1896.01 2918.53 1896.14C2918.95 1896.27 2919.39 1896.26 2919.81 1896.13C2920.23 1895.99 2920.59 1895.73 2920.85 1895.38C2921.11 1895.02 2921.25 1894.6 2921.26 1894.16V1812.78C2921.26 1812.42 2921.33 1812.05 2921.47 1811.71C2921.61 1811.38 2921.81 1811.07 2922.06 1810.81C2922.32 1810.55 2922.62 1810.34 2922.95 1810.2C2923.28 1810.06 2923.64 1809.99 2923.99 1809.99H2938.02C2938.81 1809.99 2939.57 1810.31 2940.13 1810.88C2940.69 1811.45 2941 1812.23 2941 1813.03V1931.53C2941 1931.93 2940.93 1932.32 2940.78 1932.69C2940.63 1933.06 2940.41 1933.4 2940.13 1933.68C2939.85 1933.96 2939.53 1934.19 2939.16 1934.34C2938.8 1934.49 2938.42 1934.57 2938.02 1934.57H2924.93C2924 1934.57 2923.08 1934.35 2922.26 1933.93C2921.43 1933.51 2920.7 1932.9 2920.15 1932.15C2897.26 1901.44 2883.83 1883.44 2879.86 1878.15Z" fill="#5D8192"/>
<path d="M3042.63 1811.05H3027.11C3025.84 1811.05 3024.81 1812.08 3024.81 1813.34V1932.9C3024.81 1934.16 3025.84 1935.19 3027.11 1935.19H3042.63C3043.9 1935.19 3044.93 1934.16 3044.93 1932.9V1813.34C3044.93 1812.08 3043.9 1811.05 3042.63 1811.05Z" fill="#5D8192"/>
<path d="M3518.77 1878.15C3505.36 1860.31 3498.1 1850.63 3496.98 1849.1C3496.72 1848.75 3496.35 1848.5 3495.93 1848.37C3495.51 1848.24 3495.06 1848.24 3494.65 1848.38C3494.23 1848.51 3493.87 1848.78 3493.61 1849.13C3493.35 1849.48 3493.2 1849.9 3493.19 1850.34L3493.13 1931.22C3493.12 1931.94 3492.83 1932.63 3492.33 1933.14C3491.84 1933.64 3491.17 1933.94 3490.46 1933.95H3476.5C3475.72 1933.95 3474.97 1933.64 3474.41 1933.08C3473.85 1932.53 3473.53 1931.77 3473.52 1930.97L3473.58 1813.22C3473.58 1812.43 3473.88 1811.66 3474.43 1811.09C3474.97 1810.52 3475.72 1810.2 3476.5 1810.18H3489.53C3490.45 1810.18 3491.37 1810.4 3492.2 1810.82C3493.03 1811.24 3493.75 1811.85 3494.31 1812.6C3517.03 1843.14 3530.36 1861.02 3534.29 1866.23C3547.7 1884.11 3554.98 1893.79 3556.14 1895.28C3556.41 1895.63 3556.78 1895.89 3557.19 1896.02C3557.61 1896.15 3558.06 1896.14 3558.48 1896.01C3558.89 1895.87 3559.26 1895.61 3559.52 1895.25C3559.78 1894.9 3559.92 1894.48 3559.93 1894.04V1813.22C3559.93 1812.48 3560.22 1811.77 3560.73 1811.25C3561.24 1810.72 3561.94 1810.43 3562.66 1810.43H3576.63C3577.41 1810.44 3578.15 1810.77 3578.7 1811.34C3579.24 1811.91 3579.55 1812.67 3579.55 1813.47V1931.22C3579.53 1932.02 3579.21 1932.78 3578.65 1933.33C3578.1 1933.89 3577.35 1934.2 3576.57 1934.2H3563.53C3562.62 1934.2 3561.73 1933.99 3560.91 1933.58C3560.09 1933.17 3559.37 1932.58 3558.81 1931.84C3536.05 1901.3 3522.7 1883.41 3518.77 1878.15Z" fill="#5D8192"/>
</svg>
