<svg width="1304" height="519" viewBox="0 0 1304 519" fill="none" xmlns="http://www.w3.org/2000/svg">
<g clip-path="url(#clip0_992_215)">
<path d="M218.598 14.5917C217.355 14.4846 216.132 14.3459 214.883 14.264C214.126 14.2136 213.382 14.1379 212.625 14.0938C208.872 13.8858 205.106 13.7598 201.303 13.7598C90.304 13.7535 0 103.992 0 214.911C0 398.64 201.303 519.001 201.303 519.001V417.013C59.7128 337.95 36.7158 99.265 218.598 14.5917Z" fill="white"/>
<path d="M336.996 54.0035C336.29 53.9972 335.596 53.9531 334.896 53.9531C274.577 53.9531 220.428 80.6522 183.504 122.787H215.968C216.019 122.787 216.063 122.793 216.113 122.793C216.189 122.793 216.258 122.787 216.334 122.787C267.153 122.787 308.499 164.103 308.499 214.885C308.499 265.668 267.153 306.983 216.334 306.983C216.252 306.983 216.176 306.977 216.101 306.977C216.057 306.977 216.012 306.983 215.968 306.983H140.48C151.865 349.477 176.811 386.482 210.449 413.011C211.919 414.032 213.382 415.021 214.846 416.005C215.344 416.005 215.836 416.042 216.334 416.042C327.333 416.042 417.637 325.804 417.637 214.891C417.637 144.286 378.177 82.6629 337.002 54.0099" fill="white"/>
<path d="M340.598 26.1823C320.364 12.1583 304.747 6.39745 281.276 0.0945436L280.911 0L280.545 0.0819377C236.058 10.0846 191.591 40.7735 158.552 84.2824C124.183 129.544 106.162 183.225 107.569 235.899C107.575 237.33 107.625 238.691 107.714 239.983L110.754 239.807C110.71 238.804 110.672 237.802 110.64 236.806C110.363 211.601 125.116 146.889 174.472 94.9091C217.079 50.0325 272.648 27.7958 339.703 28.9492L344.717 29.0312L340.592 26.176L340.598 26.1823Z" fill="white"/>
<path d="M462.746 398.104L466.385 397.02C466.985 402.447 468.398 406.676 473.772 406.676C477.682 406.676 479.959 404.779 479.959 400.329C479.959 396.421 477.897 393.982 474.585 390.837L466.821 383.406C463.995 380.746 462.803 377.979 462.803 374.563C462.803 368.487 466.77 365.121 472.737 365.121C479.089 365.121 482.671 368.159 483.271 376.239L479.738 377.16C479.303 371.626 477.783 368.373 472.737 368.373C469.098 368.373 466.549 370.22 466.549 374.178C466.549 376.567 467.363 378.408 469.646 380.582L477.411 387.906C480.83 391.158 483.819 395.066 483.819 400.058C483.819 406.619 479.637 410.042 473.721 410.042C466.556 410.042 463.244 405.271 462.752 398.104H462.746Z" fill="white"/>
<path d="M488.973 368.43H492.934V373.8H488.973V368.43ZM488.973 378.142H492.934V409.499H488.973V378.142Z" fill="white"/>
<path d="M498.264 401.085L501.576 400.051C502.011 404.879 503.859 406.997 507.057 406.997C509.769 406.997 511.346 405.371 511.346 402.547C511.346 400.486 510.204 398.482 507.542 396.251L503.253 392.564C500.434 390.231 498.964 388.063 498.964 384.697C498.964 380.197 501.954 377.645 506.458 377.645C511.232 377.645 513.623 381.061 513.894 385.889L511.068 386.809C510.854 382.58 509.334 380.626 506.615 380.626C504.174 380.626 502.597 382.038 502.597 384.426C502.597 386.324 503.197 387.572 505.152 389.362L509.605 393.326C512.159 395.602 514.815 398.097 514.815 402.44C514.815 407.325 511.611 409.978 506.779 409.978C501.948 409.978 498.693 406.506 498.258 401.085H498.264Z" fill="white"/>
<path d="M521.123 402.989V380.746H517.27V378.142H521.123V368.43H525.091V378.142H530.301V380.746H525.091V402.61C525.091 405.648 525.526 406.789 527.86 406.789C528.509 406.789 529.38 406.682 530.137 406.518V409.556C528.995 409.77 527.86 409.884 526.769 409.884C522.152 409.884 521.123 407.01 521.123 402.995V402.989Z" fill="white"/>
<path d="M533.94 397.725V389.802C533.94 380.525 536.652 377.65 542.461 377.65C549.034 377.65 550.604 381.772 550.604 390.615V393.433H537.901V398.91C537.901 405.043 539.2 406.997 542.405 406.997C544.852 406.997 546.694 405.913 546.694 400.977V398.809H550.547V400.543C550.547 406.24 548.485 409.984 542.405 409.984C536.324 409.984 533.934 406.839 533.934 397.725H533.94ZM546.7 391.158V388.554C546.7 383.619 546.265 380.632 542.411 380.632C539.156 380.632 537.907 382.365 537.907 389.04V391.158H546.7Z" fill="white"/>
<path d="M555.984 378.136H559.674V381.338C561.737 378.898 564.342 377.594 567.06 377.594C569.23 377.594 571.242 378.571 572.056 381.659C574.175 378.999 576.887 377.594 579.764 377.594C582.64 377.594 585.087 379.277 585.087 384.754V409.493H581.397V384.861C581.397 381.174 580.041 380.304 578.25 380.304C576.294 380.304 574.125 381.602 572.333 383.556C572.39 383.934 572.441 384.313 572.441 384.748V409.486H568.694V384.855C568.694 381.167 567.388 380.298 565.547 380.298C563.705 380.298 561.478 381.596 559.681 383.5V409.486H555.991V378.129L555.984 378.136Z" fill="white"/>
<path d="M590.081 402.988C590.081 396.691 593.505 394.58 602.733 390.458V388.233C602.733 382.535 601.812 380.638 598.823 380.638C596.382 380.638 594.426 381.886 594.426 386.008V387.092L590.516 387.035C590.572 380.688 593.013 377.65 599.037 377.65C604.632 377.65 606.694 380.959 606.694 388.012V403.259C606.694 404.885 606.802 408.358 606.966 409.499H603.433C603.269 408.144 602.948 406.133 602.834 405.156C601.964 407.709 599.687 409.984 596.375 409.984C592.578 409.984 590.074 406.89 590.074 402.988H590.081ZM602.733 402.881V393.118C596.546 396.37 594.048 397.731 594.048 402.017C594.048 405.326 595.732 406.625 597.631 406.625C599.964 406.625 601.812 404.621 602.733 402.881Z" fill="white"/>
<path d="M624.398 365.557H627.382L641.391 399.681V365.557H644.973V409.501H642.04L627.981 374.998V409.501H624.398V365.557Z" fill="white"/>
<path d="M650.956 402.988C650.956 396.691 654.38 394.58 663.608 390.458V388.233C663.608 382.535 662.687 380.638 659.698 380.638C657.257 380.638 655.301 381.886 655.301 386.008V387.092L651.391 387.035C651.447 380.688 653.888 377.65 659.912 377.65C665.507 377.65 667.569 380.959 667.569 388.012V403.259C667.569 404.885 667.677 408.358 667.841 409.499H664.308C664.144 408.144 663.823 406.133 663.709 405.156C662.839 407.709 660.562 409.984 657.25 409.984C653.453 409.984 650.949 406.89 650.949 402.988H650.956ZM663.608 402.881V393.118C657.421 396.37 654.923 397.731 654.923 402.017C654.923 405.326 656.607 406.625 658.506 406.625C660.839 406.625 662.687 404.621 663.608 402.881Z" fill="white"/>
<path d="M672.777 397.619V390.296C672.777 381.616 674.461 377.658 681.191 377.658C687.922 377.658 689.17 381.724 689.17 387.692V389.211H685.481V387.692C685.481 382.215 684.339 380.639 681.191 380.639C677.445 380.639 676.738 383.028 676.738 389.646V398.433C676.738 404.729 677.659 407.005 681.242 407.005C684.825 407.005 685.481 404.565 685.481 399.466V397.733H689.17V399.252C689.17 405.599 687.978 409.992 681.191 409.992C673.862 409.992 672.777 404.729 672.777 397.626V397.619Z" fill="white"/>
<path d="M694.938 368.43H698.899V373.8H694.938V368.43ZM694.938 378.142H698.899V409.499H694.938V378.142Z" fill="white"/>
<path d="M704.984 398.162V389.482C704.984 381.944 706.832 377.658 713.348 377.658C719.864 377.658 721.762 381.887 721.762 389.482V398.162C721.762 405.757 719.914 409.986 713.348 409.986C706.782 409.986 704.984 405.757 704.984 398.162ZM717.744 398.376V389.262C717.744 384.163 717.473 380.633 713.348 380.633C709.223 380.633 709.002 384.163 709.002 389.262V398.376C709.002 403.475 709.273 407.005 713.348 407.005C717.423 407.005 717.744 403.475 717.744 398.376Z" fill="white"/>
<path d="M727.245 378.136H731.212V381.388C733.224 379.22 735.829 377.645 738.756 377.645C741.853 377.645 743.587 380.084 743.587 384.319V409.493H739.62V385.189C739.62 381.937 738.642 380.739 736.636 380.739C734.788 380.739 732.833 381.987 731.206 383.67V409.493H727.238V378.136H727.245Z" fill="white"/>
<path d="M748.588 402.988C748.588 396.691 752.007 394.58 761.235 390.458V388.233C761.235 382.535 760.314 380.638 757.324 380.638C754.883 380.638 752.928 381.886 752.928 386.008V387.092L749.017 387.035C749.074 380.688 751.515 377.65 757.539 377.65C763.133 377.65 765.196 380.959 765.196 388.012V403.259C765.196 404.885 765.303 408.358 765.467 409.499H761.935C761.771 408.144 761.449 406.133 761.336 405.156C760.465 407.709 758.188 409.984 754.877 409.984C751.08 409.984 748.582 406.89 748.582 402.988H748.588ZM761.235 402.881V393.118C755.047 396.37 752.549 397.731 752.549 402.017C752.549 405.326 754.234 406.625 756.132 406.625C758.466 406.625 760.314 404.621 761.235 402.881Z" fill="white"/>
<path d="M771.555 365.557H775.516V409.501H771.555V365.557Z" fill="white"/>
<path d="M792.461 396.855V391.05C792.461 382.857 793.874 377.65 799.847 377.65C802.345 377.65 804.136 379.006 805.385 380.361V365.549H809.352V409.493H805.385V407.268C804.136 408.623 802.401 409.978 800.011 409.978C794.637 409.978 792.461 406.234 792.461 396.849V396.855ZM805.385 404.772V382.964C804.3 381.987 802.673 380.739 800.717 380.739C797.185 380.739 796.428 383.834 796.428 389.746V397.177C796.428 403.524 797.185 406.833 800.825 406.833C802.509 406.833 804.136 405.913 805.385 404.772Z" fill="white"/>
<path d="M814.885 397.725V389.802C814.885 380.525 817.597 377.65 823.407 377.65C829.979 377.65 831.55 381.772 831.55 390.615V393.433H818.846V398.91C818.846 405.043 820.146 406.997 823.35 406.997C825.797 406.997 827.639 405.913 827.639 400.977V398.809H831.493V400.543C831.493 406.24 829.43 409.984 823.35 409.984C817.269 409.984 814.879 406.839 814.879 397.725H814.885ZM827.645 391.158V388.554C827.645 383.619 827.21 380.632 823.356 380.632C820.101 380.632 818.853 382.365 818.853 389.04V391.158H827.645Z" fill="white"/>
<path d="M848.934 365.557H853.059V409.501H848.934V365.557Z" fill="white"/>
<path d="M860.065 378.136H864.026V381.388C866.038 379.22 868.643 377.645 871.57 377.645C874.667 377.645 876.401 380.084 876.401 384.319V409.493H872.434V385.189C872.434 381.937 871.456 380.739 869.45 380.739C867.602 380.739 865.647 381.987 864.02 383.67V409.493H860.059V378.136H860.065Z" fill="white"/>
<path d="M884.065 402.989V380.746H880.211V378.142H884.065V368.43H888.032V378.142H893.242V380.746H888.032V402.61C888.032 405.648 888.467 406.789 890.801 406.789C891.451 406.789 892.321 406.682 893.078 406.518V409.556C891.937 409.77 890.801 409.884 889.71 409.884C885.093 409.884 884.065 407.01 884.065 402.995V402.989Z" fill="white"/>
<path d="M896.877 397.725V389.802C896.877 380.525 899.59 377.65 905.399 377.65C911.971 377.65 913.542 381.772 913.542 390.615V393.433H900.838V398.91C900.838 405.043 902.138 406.997 905.342 406.997C907.789 406.997 909.631 405.913 909.631 400.977V398.809H913.485V400.543C913.485 406.24 911.422 409.984 905.342 409.984C899.262 409.984 896.871 406.839 896.871 397.725H896.877ZM909.637 391.158V388.554C909.637 383.619 909.202 380.632 905.348 380.632C902.094 380.632 900.845 382.365 900.845 389.04V391.158H909.637Z" fill="white"/>
<path d="M919.469 365.557H923.43V409.501H919.469V365.557Z" fill="white"/>
<path d="M930.332 368.43H934.293V373.8H930.332V368.43ZM930.332 378.142H934.293V409.499H930.332V378.142Z" fill="white"/>
<path d="M938.851 414.107C938.851 411.013 941.456 408.573 944.011 407.269C941.57 406.619 940.535 405.479 940.535 403.846C940.535 401.678 941.998 400.102 944.282 398.148C941.456 396.087 940.314 392.885 940.314 388.599C940.314 382.631 943.027 377.639 949.107 377.639C952.746 377.639 954.752 379.372 955.837 381.546C956.436 380.513 958.228 378.779 960.069 378.017L960.883 377.746L961.968 380.513C960.233 380.841 957.679 382.196 956.808 383.223C957.3 384.578 957.786 387.188 957.786 388.7C957.786 394.997 955.452 399.661 949.151 399.661C948.066 399.661 946.71 399.447 945.947 399.176C944.862 400.26 943.828 401.564 943.828 402.756C943.828 403.733 944.584 404.275 946.433 404.489L951.428 405.245C956.48 406.002 959.3 408.227 959.3 412.513C959.3 417.505 955.011 419.786 948.93 419.786C942.85 419.786 938.832 417.996 938.832 414.088L938.851 414.107ZM956.171 412.588C956.171 410.47 955.137 409.115 950.255 408.359L946.237 407.817C944.66 408.958 942.219 410.691 942.219 413.137C942.219 415.582 944.446 416.609 949.113 416.609C953.295 416.609 956.171 415.418 956.171 412.595V412.588ZM954.323 388.612C954.323 384.868 953.51 380.475 949.164 380.475C944.818 380.475 943.897 385.089 943.897 388.612C943.897 392.135 944.603 396.806 949.164 396.806C953.724 396.806 954.323 392.413 954.323 388.612Z" fill="white"/>
<path d="M963.397 397.725V389.802C963.397 380.525 966.109 377.65 971.918 377.65C978.491 377.65 980.061 381.772 980.061 390.615V393.433H967.358V398.91C967.358 405.043 968.657 406.997 971.862 406.997C974.309 406.997 976.151 405.913 976.151 400.977V398.809H980.004V400.543C980.004 406.24 977.942 409.984 971.862 409.984C965.781 409.984 963.391 406.839 963.391 397.725H963.397ZM976.157 391.158V388.554C976.157 383.619 975.722 380.632 971.868 380.632C968.613 380.632 967.364 382.365 967.364 389.04V391.158H976.157Z" fill="white"/>
<path d="M985.448 378.136H989.409V381.388C991.421 379.22 994.026 377.645 996.953 377.645C1000.05 377.645 1001.78 380.084 1001.78 384.319V409.493H997.817V385.189C997.817 381.937 996.839 380.739 994.833 380.739C992.985 380.739 991.03 381.987 989.403 383.67V409.493H985.441V378.136H985.448Z" fill="white"/>
<path d="M1007.05 397.619V390.296C1007.05 381.616 1008.74 377.658 1015.47 377.658C1022.2 377.658 1023.45 381.724 1023.45 387.692V389.211H1019.76V387.692C1019.76 382.215 1018.62 380.639 1015.47 380.639C1011.72 380.639 1011.02 383.028 1011.02 389.646V398.433C1011.02 404.729 1011.94 407.005 1015.52 407.005C1019.1 407.005 1019.76 404.565 1019.76 399.466V397.733H1023.45V399.252C1023.45 405.599 1022.26 409.992 1015.47 409.992C1008.14 409.992 1007.05 404.729 1007.05 397.626V397.619Z" fill="white"/>
<path d="M1029.21 368.43H1033.18V373.8H1029.21V368.43ZM1029.21 378.142H1033.18V409.499H1029.21V378.142Z" fill="white"/>
<path d="M1038.98 402.988C1038.98 396.691 1042.41 394.58 1051.64 390.458V388.233C1051.64 382.535 1050.71 380.638 1047.73 380.638C1045.28 380.638 1043.33 381.886 1043.33 386.008V387.092L1039.42 387.035C1039.47 380.688 1041.92 377.65 1047.94 377.65C1053.53 377.65 1055.6 380.959 1055.6 388.012V403.259C1055.6 404.885 1055.7 408.358 1055.87 409.499H1052.34C1052.17 408.144 1051.85 406.133 1051.74 405.156C1050.87 407.709 1048.59 409.984 1045.28 409.984C1041.48 409.984 1038.98 406.89 1038.98 402.988H1038.98ZM1051.64 402.881V393.118C1045.45 396.37 1042.95 397.731 1042.95 402.017C1042.95 405.326 1044.63 406.625 1046.53 406.625C1048.87 406.625 1050.71 404.621 1051.64 402.881Z" fill="white"/>
<path d="M1071.89 396.855V391.05C1071.89 382.857 1073.3 377.65 1079.28 377.65C1081.77 377.65 1083.57 379.006 1084.81 380.361V365.549H1088.78V409.493H1084.81V407.268C1083.57 408.623 1081.83 409.978 1079.44 409.978C1074.07 409.978 1071.9 406.234 1071.9 396.849L1071.89 396.855ZM1084.81 404.772V382.964C1083.73 381.987 1082.1 380.739 1080.15 380.739C1076.61 380.739 1075.86 383.834 1075.86 389.746V397.177C1075.86 403.524 1076.61 406.833 1080.25 406.833C1081.94 406.833 1083.57 405.913 1084.81 404.772Z" fill="white"/>
<path d="M1094.32 397.725V389.802C1094.32 380.525 1097.03 377.65 1102.84 377.65C1109.41 377.65 1110.98 381.772 1110.98 390.615V393.433H1098.28V398.91C1098.28 405.043 1099.58 406.997 1102.78 406.997C1105.23 406.997 1107.07 405.913 1107.07 400.977V398.809H1110.93V400.543C1110.93 406.24 1108.86 409.984 1102.78 409.984C1096.7 409.984 1094.31 406.839 1094.31 397.725H1094.32ZM1107.08 391.158V388.554C1107.08 383.619 1106.64 380.632 1102.79 380.632C1099.54 380.632 1098.29 382.365 1098.29 389.04V391.158H1107.08Z" fill="white"/>
<path d="M1128.96 365.557H1133.08L1141.77 403.696L1150.62 365.557H1154.74L1155.83 409.501H1152.41L1151.54 374.507L1143.12 409.501H1140.46L1132.16 374.564L1131.29 409.501H1127.87L1128.95 365.557H1128.96Z" fill="white"/>
<path d="M1161.76 397.725V389.802C1161.76 380.525 1164.47 377.65 1170.28 377.65C1176.85 377.65 1178.42 381.772 1178.42 390.615V393.433H1165.72V398.91C1165.72 405.043 1167.02 406.997 1170.22 406.997C1172.67 406.997 1174.51 405.913 1174.51 400.977V398.809H1178.37V400.543C1178.37 406.24 1176.31 409.984 1170.22 409.984C1164.14 409.984 1161.75 406.839 1161.75 397.725H1161.76ZM1174.52 391.158V388.554C1174.52 383.619 1174.09 380.632 1170.23 380.632C1166.98 380.632 1165.73 382.365 1165.73 389.04V391.158H1174.52Z" fill="white"/>
<path d="M1184.07 378.136H1188.09V382.422C1190.1 379.113 1192.92 377.809 1195.31 377.809C1195.53 377.809 1195.69 377.809 1196.02 377.865V382.101C1195.53 381.937 1194.72 381.773 1194.07 381.773C1191.57 381.773 1189.61 382.914 1188.09 385.41V409.5H1184.07V378.143V378.136Z" fill="white"/>
<path d="M1199.17 397.619V390.296C1199.17 381.616 1200.85 377.658 1207.58 377.658C1214.31 377.658 1215.56 381.724 1215.56 387.692V389.211H1211.87V387.692C1211.87 382.215 1210.73 380.639 1207.58 380.639C1203.84 380.639 1203.13 383.028 1203.13 389.646V398.433C1203.13 404.729 1204.05 407.005 1207.63 407.005C1211.22 407.005 1211.87 404.565 1211.87 399.466V397.733H1215.56V399.252C1215.56 405.599 1214.37 409.992 1207.58 409.992C1200.25 409.992 1199.17 404.729 1199.17 397.626V397.619Z" fill="white"/>
<path d="M1220.02 402.988C1220.02 396.691 1223.44 394.58 1232.67 390.458V388.233C1232.67 382.535 1231.75 380.638 1228.76 380.638C1226.32 380.638 1224.36 381.886 1224.36 386.008V387.092L1220.45 387.035C1220.51 380.688 1222.95 377.65 1228.97 377.65C1234.57 377.65 1236.63 380.959 1236.63 388.012V403.259C1236.63 404.885 1236.74 408.358 1236.9 409.499H1233.37C1233.2 408.144 1232.88 406.133 1232.77 405.156C1231.9 407.709 1229.62 409.984 1226.31 409.984C1222.51 409.984 1220.02 406.89 1220.02 402.988H1220.02ZM1232.67 402.881V393.118C1226.48 396.37 1223.98 397.731 1223.98 402.017C1223.98 405.326 1225.67 406.625 1227.57 406.625C1229.9 406.625 1231.75 404.621 1232.67 402.881Z" fill="white"/>
<path d="M1241.85 396.855V391.05C1241.85 382.857 1243.26 377.65 1249.24 377.65C1251.74 377.65 1253.53 379.006 1254.78 380.361V365.549H1258.74V409.493H1254.78V407.268C1253.53 408.623 1251.79 409.978 1249.4 409.978C1244.03 409.978 1241.86 406.234 1241.86 396.849L1241.85 396.855ZM1254.78 404.772V382.964C1253.69 381.987 1252.06 380.739 1250.11 380.739C1246.58 380.739 1245.82 383.834 1245.82 389.746V397.177C1245.82 403.524 1246.58 406.833 1250.22 406.833C1251.9 406.833 1253.53 405.913 1254.78 404.772Z" fill="white"/>
<path d="M1264.28 398.162V389.482C1264.28 381.944 1266.13 377.658 1272.64 377.658C1279.16 377.658 1281.06 381.887 1281.06 389.482V398.162C1281.06 405.757 1279.21 409.986 1272.64 409.986C1266.08 409.986 1264.28 405.757 1264.28 398.162ZM1277.04 398.376V389.262C1277.04 384.163 1276.77 380.633 1272.64 380.633C1268.52 380.633 1268.3 384.163 1268.3 389.262V398.376C1268.3 403.475 1268.57 407.005 1272.64 407.005C1276.72 407.005 1277.04 403.475 1277.04 398.376Z" fill="white"/>
<path d="M1285.18 401.085L1288.49 400.051C1288.93 404.879 1290.78 406.997 1293.97 406.997C1296.69 406.997 1298.26 405.371 1298.26 402.547C1298.26 400.486 1297.12 398.482 1294.46 396.251L1290.17 392.564C1287.35 390.231 1285.88 388.063 1285.88 384.697C1285.88 380.197 1288.87 377.645 1293.38 377.645C1298.15 377.645 1300.54 381.061 1300.81 385.889L1297.99 386.809C1297.77 382.58 1296.25 380.626 1293.53 380.626C1291.09 380.626 1289.52 382.038 1289.52 384.426C1289.52 386.324 1290.11 387.572 1292.07 389.362L1296.52 393.326C1299.08 395.602 1301.73 398.097 1301.73 402.44C1301.73 407.325 1298.53 409.978 1293.7 409.978C1288.87 409.978 1285.61 406.506 1285.18 401.085H1285.18Z" fill="white"/>
<path d="M581.815 57.9434V17.0312H591.863C596.789 17.0312 601.021 17.4977 604.56 18.4179C608.224 19.3003 611.214 21.2164 613.529 24.1661C615.932 27.0718 617.13 31.3451 617.13 36.9799C617.13 45.0161 614.816 50.5312 610.18 53.5188C605.588 56.4685 599.671 57.9371 592.424 57.9371H581.809L581.815 57.9434ZM590.469 50.8085H591.604C597.205 50.8085 601.374 49.737 604.112 47.5877C606.849 45.4384 608.218 41.9025 608.218 36.9799C608.218 32.0574 606.862 28.5214 604.143 26.7503C601.425 24.9855 597.243 24.0968 591.604 24.0968H590.469V50.8022V50.8085Z" fill="white"/>
<path d="M619.785 37.4895C619.785 31.2181 621.734 26.1379 625.632 22.2427C629.53 18.3475 634.696 16.4062 641.142 16.4062C647.588 16.4062 652.483 18.3538 656.337 22.2427C660.191 26.1379 662.121 31.174 662.121 37.3634C662.121 43.5529 660.153 48.5826 656.211 52.5786C652.275 56.5747 647.122 58.579 640.764 58.579C634.406 58.579 629.373 56.6188 625.538 52.7047C621.703 48.7906 619.791 43.7167 619.791 37.4895M653.215 37.4895C653.215 33.5312 652.035 30.3483 649.676 27.9217C647.317 25.5013 644.41 24.2912 640.959 24.2912C637.509 24.2912 634.494 25.5013 632.179 27.9217C629.865 30.342 628.704 33.4871 628.704 37.3571C628.704 41.2271 629.865 44.5676 632.179 46.9879C634.494 49.4083 637.446 50.6184 641.022 50.6184C644.599 50.6184 647.424 49.4083 649.739 46.9879C652.054 44.5676 653.215 41.4036 653.215 37.4895Z" fill="white"/>
<path d="M687.385 58.5731L676.013 38.6875L672.537 57.9428H663.82L672.096 16.4004H672.726L687.637 42.7276L702.548 16.4004H703.179L711.461 57.9428H702.927L699.262 38.7505L688.016 58.5731H687.385Z" fill="white"/>
<path d="M715.188 54.0419V17.0312H723.904V57.9434H719.092C716.935 57.9434 715.188 56.1975 715.188 54.0419Z" fill="white"/>
<path d="M764.523 58.5731L738.436 34.4582V57.9428H729.965V16.4004H730.596L756.69 40.4523V17.0307H765.154V58.5731H764.523Z" fill="white"/>
<path d="M771.223 54.0419V17.0312H779.94V57.9434H775.127C772.97 57.9434 771.223 56.1975 771.223 54.0419Z" fill="white"/>
<path d="M784.297 37.5525C784.297 31.363 786.277 26.2955 790.239 22.3373C794.2 18.3791 799.378 16.4062 805.78 16.4062C810.542 16.4062 814.371 17.3328 817.279 19.1858V27.7074C813.91 25.432 810.221 24.2975 806.222 24.2975C802.223 24.2975 799.258 25.5202 796.842 27.9595C794.42 30.3987 793.209 33.5565 793.209 37.4264C793.209 41.2964 794.439 44.6748 796.906 47.051C799.372 49.4272 802.582 50.6184 806.537 50.6184C810.492 50.6184 814.453 49.4839 817.909 47.2085V55.8561C816.686 56.6125 814.995 57.2554 812.826 57.7785C810.656 58.3017 808.373 58.5664 805.969 58.5664C799.315 58.5664 794.036 56.5999 790.144 52.6606C786.246 48.7275 784.297 43.6852 784.297 37.5399" fill="white"/>
<path d="M819.359 57.9428L838.25 16.4004H838.881L857.709 57.9428H848.424L845.769 51.6273H831.047L828.329 57.9428H819.359ZM833.639 44.8769H843.239L838.439 33.5128L833.639 44.8769Z" fill="white"/>
<path d="M894.797 58.5731L868.703 34.4582V57.9428H860.238V16.4004H860.869L886.957 40.4523V17.0307H895.428V58.5731H894.797Z" fill="white"/>
<path d="M897.953 57.9428L916.844 16.4004H917.475L936.303 57.9428H927.018L924.362 51.6273H909.641L906.922 57.9428H897.953ZM912.233 44.8769H921.84L917.04 33.5128L912.24 44.8769H912.233Z" fill="white"/>
<path d="M488.469 16.8162C485.87 16.1544 482.9 15.8203 479.645 15.8203H465.617V59.1528H475.615V45.4251H478.857C482.464 45.4251 485.568 45.0658 488.078 44.3599C490.639 43.6413 492.872 42.2547 494.714 40.2315C496.751 38.0128 497.785 34.6912 497.785 30.3548C497.785 22.993 494.65 18.436 488.457 16.8099M475.608 23.9763H478.447C479.986 24.0204 481.241 24.1149 482.181 24.2662C483.095 24.4112 484.022 24.6948 484.937 25.1108C485.801 25.5016 486.432 26.113 486.861 26.9765C487.309 27.8652 487.555 29.0312 487.592 30.4241C487.592 32.9768 486.861 34.6912 485.36 35.6745C483.814 36.6829 481.493 37.1998 478.459 37.1998H475.608V23.9826V23.9763Z" fill="white"/>
<path d="M531.819 30.1657C531.819 24.6066 530.179 20.7744 526.943 18.7701C523.783 16.8099 519.582 15.8203 514.454 15.8203H500.363V59.1528H510.361V44.7065H513.798L522.957 59.1528H535.004L524.187 43.2379C529.258 41.4227 531.825 37.0296 531.825 30.1657M510.298 24.0456H512.953C516.037 24.0456 518.258 24.4175 519.551 25.1612C520.762 25.8545 521.443 27.5689 521.563 30.2351C521.563 32.7373 520.863 34.4139 519.481 35.208C518.012 36.0526 515.552 36.4812 512.165 36.4812H510.291V24.0456H510.298Z" fill="white"/>
<path d="M572.603 21.3535C568.535 17.244 563.129 15.1641 556.525 15.1641C549.922 15.1641 544.232 17.244 540.12 21.3535C536.007 25.463 533.926 30.8898 533.926 37.4826C533.926 44.0755 535.976 49.4519 540.019 53.5803C544.062 57.715 549.486 59.8075 556.134 59.8075C562.782 59.8075 568.32 57.6708 572.477 53.4542C576.627 49.2376 578.734 43.8234 578.734 37.3566C578.734 30.8898 576.672 25.463 572.61 21.3598M565.078 46.9937C562.789 49.3888 559.868 50.6053 556.399 50.6053C552.93 50.6053 549.877 49.3888 547.588 46.9937C545.292 44.5923 544.125 41.3526 544.125 37.3566C544.125 33.3605 545.292 30.3225 547.588 27.9148C549.877 25.5197 552.823 24.3033 556.33 24.3033C559.837 24.3033 562.675 25.5197 565.009 27.9148C567.349 30.3162 568.535 33.537 568.535 37.4826C568.535 41.4283 567.368 44.586 565.072 46.9874" fill="white"/>
<path d="M615.001 277.465C615.001 265.181 610.113 255.033 600.343 247.022C590.573 239.017 573.997 231.498 550.609 224.477C525.025 217.455 505.573 208.707 492.233 198.231C478.893 187.756 472.226 173.524 472.226 155.529C472.226 137.534 479.687 122.155 494.623 110.356C509.553 98.5636 528.602 92.6641 551.763 92.6641C576.135 92.6641 595.732 99.3262 610.555 112.657C625.377 125.988 632.561 142.911 632.126 163.42L631.798 164.41H613.355C613.355 148.615 607.615 135.505 596.149 125.08C584.675 114.661 569.884 109.449 551.769 109.449C533.654 109.449 518.478 113.867 507.882 122.697C497.285 131.528 491.987 142.362 491.987 155.195C491.987 168.028 496.787 177.381 506.393 185.229C515.999 193.076 532.929 200.393 557.194 207.194C582.442 214.543 601.712 223.594 614.995 234.347C628.279 245.1 634.92 259.357 634.92 277.131C634.92 295.781 627.15 310.782 611.621 322.134C596.085 333.485 576.52 339.164 552.917 339.164C529.315 339.164 508.727 333.158 491.161 321.144C473.594 309.131 465.086 291.603 465.634 268.572L465.962 267.582H484.241C484.241 286.125 491.211 299.916 505.157 308.967C519.096 318.018 535.016 322.544 552.911 322.544C570.805 322.544 586.176 318.346 597.7 309.957C609.23 301.568 614.989 290.733 614.989 277.459L615.001 277.465Z" fill="white"/>
<path d="M936.612 335.723H916.85L780.666 130.69L779.675 130.854V335.723H759.914V96.1309H779.675L915.86 300.673L916.85 300.509V96.1309H936.612V335.723Z" fill="white"/>
<path d="M1189.71 307.089H1190.7L1279.96 96.1309H1304.01V335.723H1284.24V134.471L1283.25 134.308L1197.3 335.723H1183.14L1095.2 129.372L1094.21 129.536V335.723H1074.45V96.1309H1100.79L1189.71 307.089Z" fill="white"/>
<path d="M700.817 149.725H684.645V288.363H700.817V149.725Z" fill="white"/>
<path d="M700.817 97.2656H684.645V111.756H700.817V97.2656Z" fill="white"/>
<path d="M1015.29 148.066H999.113V285.722H1015.29V148.066Z" fill="white"/>
<path d="M1015.29 97.2656H999.113V110.54H1015.29V97.2656Z" fill="white"/>
<path d="M1007.2 288.76C1017.65 288.76 1026.14 297.25 1026.14 307.688C1026.14 318.125 1017.65 326.615 1007.2 326.615C996.756 326.615 988.26 318.125 988.26 307.688C988.26 297.25 996.756 288.76 1007.2 288.76ZM1007.2 273.658C988.392 273.658 973.141 288.892 973.141 307.694C973.141 326.495 988.392 341.73 1007.2 341.73C1026.01 341.73 1041.26 326.489 1041.26 307.694C1041.26 288.899 1026.02 273.658 1007.2 273.658Z" fill="white"/>
<path d="M1007.2 111.403C1017.65 111.403 1026.14 119.893 1026.14 130.33C1026.14 140.768 1017.65 149.258 1007.2 149.258C996.756 149.258 988.26 140.768 988.26 130.33C988.26 119.893 996.756 111.403 1007.2 111.403ZM1007.2 96.3008C988.392 96.3008 973.141 111.535 973.141 130.336C973.141 149.138 988.392 164.372 1007.2 164.372C1026.01 164.372 1041.26 149.132 1041.26 130.336C1041.26 111.541 1026.02 96.3008 1007.2 96.3008Z" fill="white"/>
<path d="M692.56 111.403C703.006 111.403 711.502 119.893 711.502 130.33C711.502 140.768 703.006 149.258 692.56 149.258C682.115 149.258 673.619 140.768 673.619 130.33C673.619 119.893 682.115 111.403 692.56 111.403ZM692.56 96.3008C673.751 96.3008 658.5 111.535 658.5 130.336C658.5 149.138 673.751 164.372 692.56 164.372C711.369 164.372 726.621 149.132 726.621 130.336C726.621 111.541 711.376 96.3008 692.56 96.3008Z" fill="white"/>
<path d="M692.56 288.76C703.006 288.76 711.502 297.25 711.502 307.688C711.502 318.125 703.006 326.615 692.56 326.615C682.115 326.615 673.619 318.125 673.619 307.688C673.619 297.25 682.115 288.76 692.56 288.76ZM692.56 273.658C673.751 273.658 658.5 288.892 658.5 307.694C658.5 326.495 673.751 341.73 692.56 341.73C711.369 341.73 726.621 326.489 726.621 307.694C726.621 288.899 711.376 273.658 692.56 273.658Z" fill="white"/>
</g>
<defs>
<clipPath id="clip0_992_215">
<rect width="1304" height="519" fill="white"/>
</clipPath>
</defs>
</svg>
