<svg width="2620" height="800" viewBox="0 0 2620 800" fill="none" xmlns="http://www.w3.org/2000/svg">
<g clip-path="url(#clip0_986_9)">
<path d="M0.560002 0H203.17L335.39 132.16C335.63 132.393 335.87 132.393 336.11 132.16L468.44 0H671.32L336.01 335.55C335.959 335.598 335.891 335.625 335.822 335.625C335.753 335.625 335.688 335.598 335.64 335.55C223.887 223.83 112.163 112.143 0.470002 0.49C0.383335 0.403333 0.353335 0.326667 0.380002 0.26C0.406669 0.186667 0.466669 0.1 0.560002 0Z" fill="white"/>
<path d="M345.38 800H326.52C292.6 798.92 260.103 793.397 229.03 783.43C170.64 764.71 117.96 729.38 82.57 678.83C60.73 647.64 46.46 610.68 40.1 573.17C37.18 555.903 35.72 537.267 35.72 517.26C35.7467 383.593 35.75 250.007 35.73 116.5C35.73 115.993 35.91 115.917 36.27 116.27L169.83 245.9C170.077 246.133 170.2 246.423 170.2 246.77C170.24 336.917 170.277 428.743 170.31 522.25C170.31 540.72 172.91 560.78 179.77 578.16C191.403 607.613 210.32 630.073 236.52 645.54C242.88 649.3 251.573 653.413 262.6 657.88C268.38 660.227 274.773 662.087 281.78 663.46C320.18 671.01 360.17 671.37 397.32 661.03C414.77 656.18 431.18 649.21 445.7 638.63C461.813 626.89 474.573 612.353 483.98 595.02C490.74 582.553 495.347 570.12 497.8 557.72C501.15 540.82 501.4 524.29 501.39 507.12C501.363 421.647 501.353 334.973 501.36 247.1C501.36 246.567 501.55 246.113 501.93 245.74L635.46 116.14C635.49 116.113 635.527 116.096 635.566 116.089C635.606 116.083 635.646 116.088 635.683 116.103C635.72 116.119 635.751 116.145 635.774 116.178C635.796 116.211 635.809 116.25 635.81 116.29C635.803 251.89 635.8 387.543 635.8 523.25C635.8 536.443 634.76 550.503 632.68 565.43C628.467 595.683 619.473 624.207 605.7 651C557.62 744.54 455.81 794.43 353.99 799.48C351.123 799.62 348.253 799.793 345.38 800Z" fill="white"/>
<path d="M871.86 252.32L926.88 132.55C926.908 132.491 926.952 132.441 927.007 132.406C927.061 132.37 927.125 132.351 927.19 132.35L967.17 132.34C967.229 132.339 967.288 132.354 967.34 132.382C967.392 132.41 967.437 132.451 967.469 132.501C967.501 132.551 967.519 132.609 967.523 132.668C967.527 132.727 967.515 132.786 967.49 132.84L878.97 322.51C878.942 322.569 878.898 322.619 878.844 322.654C878.789 322.689 878.725 322.709 878.66 322.71H865.59C865.523 322.711 865.457 322.692 865.401 322.657C865.344 322.621 865.299 322.57 865.27 322.51L773.88 132.85C773.855 132.796 773.843 132.737 773.847 132.678C773.851 132.619 773.869 132.561 773.901 132.511C773.933 132.461 773.978 132.42 774.03 132.392C774.082 132.364 774.141 132.349 774.2 132.35L814.47 132.34C814.535 132.341 814.599 132.36 814.654 132.396C814.708 132.431 814.752 132.481 814.78 132.54L871.23 252.32C871.259 252.379 871.303 252.429 871.359 252.464C871.415 252.499 871.479 252.517 871.545 252.517C871.611 252.517 871.675 252.499 871.731 252.464C871.787 252.429 871.831 252.379 871.86 252.32Z" fill="white"/>
<path d="M1030.54 291.9L1122.94 291.91C1123.03 291.91 1123.12 291.946 1123.18 292.009C1123.24 292.073 1123.28 292.16 1123.28 292.25V319.92C1123.28 320.01 1123.24 320.097 1123.18 320.16C1123.12 320.224 1123.03 320.26 1122.94 320.26H991.61C991.52 320.26 991.433 320.224 991.37 320.16C991.306 320.097 991.27 320.01 991.27 319.92V132.68C991.27 132.59 991.306 132.503 991.37 132.439C991.433 132.376 991.52 132.34 991.61 132.34L1120.93 132.35C1121.02 132.35 1121.11 132.386 1121.17 132.449C1121.23 132.513 1121.27 132.6 1121.27 132.69L1121.28 160.41C1121.28 160.5 1121.24 160.587 1121.18 160.65C1121.12 160.714 1121.03 160.75 1120.94 160.75H1030.53C1030.44 160.75 1030.35 160.786 1030.29 160.849C1030.23 160.913 1030.19 161 1030.19 161.09V209.74C1030.19 209.83 1030.23 209.917 1030.29 209.98C1030.35 210.044 1030.44 210.08 1030.53 210.08L1117.08 210.07C1117.17 210.07 1117.26 210.106 1117.32 210.169C1117.38 210.233 1117.42 210.32 1117.42 210.41L1117.41 238.16C1117.41 238.204 1117.4 238.249 1117.38 238.29C1117.37 238.331 1117.34 238.369 1117.31 238.4C1117.28 238.432 1117.24 238.457 1117.2 238.474C1117.16 238.491 1117.11 238.5 1117.07 238.5H1030.54C1030.45 238.5 1030.36 238.536 1030.3 238.599C1030.24 238.663 1030.2 238.75 1030.2 238.84V291.56C1030.2 291.65 1030.24 291.736 1030.3 291.8C1030.36 291.864 1030.45 291.9 1030.54 291.9Z" fill="white"/>
<path d="M1197.56 187.85V319.92C1197.56 320.01 1197.52 320.096 1197.46 320.16C1197.4 320.224 1197.31 320.26 1197.22 320.26H1159.9C1159.86 320.26 1159.81 320.251 1159.77 320.234C1159.73 320.217 1159.69 320.192 1159.66 320.16C1159.63 320.129 1159.6 320.091 1159.59 320.05C1159.57 320.009 1159.56 319.964 1159.56 319.92L1159.58 132.66C1159.58 132.615 1159.59 132.571 1159.61 132.53C1159.62 132.488 1159.65 132.451 1159.68 132.419C1159.71 132.388 1159.75 132.363 1159.79 132.346C1159.83 132.329 1159.88 132.32 1159.92 132.32L1193.49 132.3C1193.54 132.3 1193.58 132.31 1193.63 132.329C1193.67 132.348 1193.71 132.375 1193.74 132.41L1312.55 262.82C1312.6 262.87 1312.66 262.905 1312.72 262.921C1312.79 262.936 1312.86 262.931 1312.92 262.906C1312.99 262.881 1313.04 262.838 1313.08 262.781C1313.12 262.725 1313.14 262.658 1313.14 262.59L1313.12 132.67C1313.12 132.58 1313.16 132.493 1313.22 132.429C1313.28 132.366 1313.37 132.33 1313.46 132.33L1350.82 132.34C1350.86 132.34 1350.91 132.349 1350.95 132.366C1350.99 132.383 1351.03 132.408 1351.06 132.439C1351.09 132.471 1351.12 132.508 1351.13 132.55C1351.15 132.591 1351.16 132.635 1351.16 132.68V319.92C1351.16 319.964 1351.15 320.009 1351.13 320.05C1351.12 320.091 1351.09 320.129 1351.06 320.16C1351.03 320.192 1350.99 320.217 1350.95 320.234C1350.91 320.251 1350.86 320.26 1350.82 320.26H1317.9C1317.85 320.26 1317.81 320.25 1317.76 320.231C1317.72 320.212 1317.68 320.184 1317.65 320.15L1198.15 187.63C1198.1 187.58 1198.04 187.545 1197.98 187.529C1197.91 187.514 1197.84 187.518 1197.78 187.541C1197.72 187.565 1197.66 187.607 1197.62 187.662C1197.58 187.717 1197.56 187.782 1197.56 187.85Z" fill="white"/>
<path d="M1451.57 160.75H1380.92C1380.82 160.75 1380.72 160.709 1380.64 160.636C1380.57 160.562 1380.53 160.463 1380.53 160.36L1380.52 132.73C1380.52 132.626 1380.56 132.527 1380.63 132.454C1380.71 132.381 1380.81 132.34 1380.91 132.34L1561.84 132.35C1561.94 132.35 1562.04 132.391 1562.12 132.464C1562.19 132.537 1562.23 132.636 1562.23 132.74V160.36C1562.23 160.463 1562.19 160.562 1562.12 160.636C1562.04 160.709 1561.94 160.75 1561.84 160.75H1491.15C1491.1 160.75 1491.05 160.76 1491 160.78C1490.95 160.799 1490.91 160.828 1490.87 160.864C1490.84 160.9 1490.81 160.943 1490.79 160.991C1490.77 161.038 1490.76 161.089 1490.76 161.14L1490.77 319.87C1490.77 319.973 1490.73 320.072 1490.66 320.146C1490.58 320.219 1490.48 320.26 1490.38 320.26H1452.34C1452.24 320.26 1452.14 320.219 1452.06 320.146C1451.99 320.072 1451.95 319.973 1451.95 319.87L1451.96 161.14C1451.96 161.036 1451.92 160.937 1451.85 160.864C1451.77 160.791 1451.67 160.75 1451.57 160.75Z" fill="white"/>
<path d="M1607.45 274.73L1588.18 320.05C1588.15 320.112 1588.11 320.165 1588.05 320.202C1587.99 320.24 1587.93 320.26 1587.86 320.26H1547.89C1547.83 320.26 1547.77 320.245 1547.72 320.217C1547.67 320.19 1547.63 320.15 1547.6 320.101C1547.57 320.053 1547.55 319.997 1547.54 319.939C1547.54 319.881 1547.55 319.823 1547.57 319.77L1630.18 132.55C1630.21 132.488 1630.25 132.434 1630.31 132.397C1630.37 132.36 1630.43 132.34 1630.5 132.34L1669.76 132.32C1669.83 132.321 1669.89 132.34 1669.94 132.376C1670 132.411 1670.04 132.461 1670.07 132.52L1758.58 319.76C1758.61 319.813 1758.62 319.871 1758.61 319.929C1758.61 319.988 1758.59 320.045 1758.56 320.094C1758.53 320.144 1758.49 320.185 1758.44 320.214C1758.39 320.243 1758.33 320.259 1758.27 320.26H1717.99C1717.92 320.259 1717.86 320.239 1717.81 320.204C1717.75 320.169 1717.71 320.119 1717.68 320.06L1696.98 274.72C1696.95 274.661 1696.91 274.611 1696.85 274.576C1696.8 274.54 1696.74 274.521 1696.67 274.52H1607.77C1607.7 274.52 1607.64 274.54 1607.58 274.577C1607.52 274.615 1607.48 274.668 1607.45 274.73ZM1619.51 246.53C1619.49 246.579 1619.48 246.632 1619.49 246.684C1619.49 246.736 1619.51 246.787 1619.54 246.83C1619.57 246.874 1619.61 246.909 1619.66 246.934C1619.71 246.958 1619.76 246.97 1619.81 246.97H1683.74C1683.79 246.969 1683.85 246.956 1683.89 246.93C1683.94 246.905 1683.98 246.868 1684.01 246.823C1684.04 246.779 1684.05 246.727 1684.06 246.674C1684.06 246.621 1684.05 246.568 1684.03 246.52L1650.56 173.27C1650.53 173.215 1650.49 173.169 1650.44 173.137C1650.39 173.105 1650.33 173.089 1650.27 173.09C1650.21 173.091 1650.15 173.109 1650.1 173.143C1650.04 173.177 1650 173.224 1649.98 173.28L1619.51 246.53Z" fill="white"/>
<path d="M1936.3 132.34L1973.67 132.35C1973.76 132.35 1973.84 132.385 1973.9 132.446C1973.97 132.508 1974 132.592 1974 132.68V319.93C1974 320.017 1973.97 320.101 1973.9 320.163C1973.84 320.225 1973.76 320.26 1973.67 320.26H1940.73C1940.68 320.26 1940.64 320.251 1940.59 320.232C1940.55 320.213 1940.51 320.185 1940.48 320.15L1821.01 187.65C1820.97 187.598 1820.91 187.562 1820.84 187.545C1820.78 187.529 1820.71 187.533 1820.64 187.557C1820.58 187.581 1820.53 187.624 1820.49 187.68C1820.45 187.736 1820.43 187.802 1820.43 187.87L1820.44 319.94C1820.44 320.027 1820.41 320.111 1820.34 320.173C1820.28 320.235 1820.2 320.27 1820.11 320.27L1782.8 320.23C1782.76 320.23 1782.71 320.221 1782.67 320.205C1782.63 320.188 1782.6 320.164 1782.57 320.133C1782.54 320.103 1782.51 320.066 1782.5 320.026C1782.48 319.986 1782.47 319.943 1782.47 319.9L1782.45 132.66C1782.45 132.572 1782.48 132.488 1782.55 132.426C1782.61 132.365 1782.69 132.33 1782.78 132.33L1816.31 132.28C1816.36 132.279 1816.4 132.289 1816.45 132.308C1816.49 132.327 1816.53 132.355 1816.56 132.39L1935.41 262.85C1935.46 262.898 1935.51 262.931 1935.58 262.945C1935.64 262.96 1935.71 262.955 1935.77 262.931C1935.83 262.908 1935.88 262.866 1935.92 262.813C1935.96 262.759 1935.98 262.695 1935.98 262.63L1935.97 132.67C1935.97 132.582 1936 132.498 1936.07 132.436C1936.13 132.375 1936.21 132.34 1936.3 132.34Z" fill="white"/>
<path d="M2057.66 132.34H2019.3C2019.15 132.34 2019.03 132.461 2019.03 132.61V319.99C2019.03 320.139 2019.15 320.26 2019.3 320.26H2057.66C2057.81 320.26 2057.93 320.139 2057.93 319.99V132.61C2057.93 132.461 2057.81 132.34 2057.66 132.34Z" fill="white"/>
<path d="M2142.33 291.9L2239.19 291.91C2239.28 291.91 2239.37 291.946 2239.43 292.01C2239.49 292.073 2239.53 292.16 2239.53 292.25L2239.54 319.92C2239.54 320.01 2239.5 320.097 2239.44 320.161C2239.38 320.224 2239.29 320.26 2239.2 320.26H2103.43C2103.34 320.26 2103.25 320.224 2103.19 320.161C2103.13 320.097 2103.09 320.01 2103.09 319.92V132.67C2103.09 132.58 2103.13 132.493 2103.19 132.43C2103.25 132.366 2103.34 132.33 2103.43 132.33L2141.65 132.34C2141.74 132.34 2141.83 132.376 2141.89 132.44C2141.95 132.503 2141.99 132.59 2141.99 132.68V291.56C2141.99 291.65 2142.03 291.737 2142.09 291.8C2142.15 291.864 2142.24 291.9 2142.33 291.9Z" fill="white"/>
<path d="M2305.36 291.91H2402.34C2402.42 291.91 2402.51 291.944 2402.57 292.004C2402.63 292.064 2402.66 292.145 2402.66 292.23V319.94C2402.66 320.025 2402.63 320.106 2402.57 320.166C2402.51 320.226 2402.42 320.26 2402.34 320.26H2266.53C2266.49 320.26 2266.45 320.252 2266.41 320.236C2266.37 320.22 2266.33 320.196 2266.3 320.166C2266.27 320.137 2266.25 320.101 2266.23 320.063C2266.22 320.024 2266.21 319.982 2266.21 319.94V132.65C2266.21 132.608 2266.22 132.566 2266.23 132.528C2266.25 132.489 2266.27 132.454 2266.3 132.424C2266.33 132.394 2266.37 132.371 2266.41 132.354C2266.45 132.338 2266.49 132.33 2266.53 132.33L2304.72 132.34C2304.76 132.34 2304.8 132.348 2304.84 132.364C2304.88 132.381 2304.92 132.404 2304.95 132.434C2304.98 132.464 2305 132.499 2305.02 132.538C2305.03 132.576 2305.04 132.618 2305.04 132.66V291.59C2305.04 291.632 2305.05 291.674 2305.06 291.713C2305.08 291.751 2305.1 291.787 2305.13 291.816C2305.16 291.846 2305.2 291.87 2305.24 291.886C2305.28 291.902 2305.32 291.91 2305.36 291.91Z" fill="white"/>
<path d="M2468.65 274.71L2449.38 320.07C2449.35 320.126 2449.31 320.174 2449.26 320.208C2449.21 320.241 2449.15 320.259 2449.09 320.26H2409.03C2408.98 320.259 2408.92 320.246 2408.88 320.22C2408.83 320.195 2408.79 320.158 2408.76 320.113C2408.73 320.069 2408.72 320.017 2408.71 319.964C2408.71 319.912 2408.72 319.858 2408.74 319.81L2491.39 132.53C2491.41 132.474 2491.46 132.426 2491.51 132.392C2491.56 132.358 2491.62 132.34 2491.68 132.34H2530.99C2531.05 132.339 2531.11 132.356 2531.16 132.388C2531.21 132.42 2531.25 132.466 2531.28 132.52L2619.79 319.8C2619.81 319.849 2619.82 319.903 2619.82 319.957C2619.82 320.012 2619.8 320.064 2619.77 320.111C2619.74 320.157 2619.7 320.194 2619.66 320.221C2619.61 320.247 2619.55 320.26 2619.5 320.26H2579.18C2579.12 320.261 2579.05 320.244 2579 320.21C2578.95 320.176 2578.91 320.128 2578.88 320.07L2558.19 274.71C2558.16 274.652 2558.12 274.603 2558.07 274.569C2558.02 274.536 2557.95 274.518 2557.89 274.52H2468.94C2468.88 274.52 2468.82 274.538 2468.77 274.572C2468.72 274.606 2468.67 274.654 2468.65 274.71ZM2480.71 246.53C2480.69 246.579 2480.68 246.632 2480.69 246.684C2480.69 246.736 2480.71 246.787 2480.74 246.83C2480.77 246.874 2480.81 246.909 2480.86 246.934C2480.91 246.958 2480.96 246.97 2481.01 246.97H2544.93C2544.98 246.969 2545.04 246.956 2545.08 246.93C2545.13 246.905 2545.17 246.868 2545.2 246.823C2545.23 246.779 2545.24 246.727 2545.25 246.674C2545.25 246.622 2545.24 246.568 2545.22 246.52L2511.77 173.26C2511.74 173.205 2511.7 173.159 2511.65 173.127C2511.6 173.095 2511.54 173.079 2511.48 173.08C2511.42 173.081 2511.36 173.1 2511.31 173.133C2511.25 173.167 2511.21 173.214 2511.19 173.27L2480.71 246.53Z" fill="white"/>
<path d="M918.48 347.77L864.89 393.45C864.837 393.495 864.77 393.519 864.7 393.52L843.58 393.53C843.527 393.53 843.476 393.516 843.43 393.49C843.384 393.463 843.346 393.426 843.32 393.38C843.294 393.334 843.28 393.283 843.28 393.23C843.28 393.177 843.294 393.125 843.32 393.08L870.29 347.42C870.316 347.374 870.354 347.336 870.4 347.31C870.446 347.284 870.497 347.27 870.55 347.27L918.28 347.24C918.342 347.238 918.403 347.256 918.455 347.291C918.507 347.326 918.546 347.376 918.568 347.434C918.59 347.492 918.593 347.556 918.578 347.616C918.562 347.676 918.528 347.73 918.48 347.77Z" fill="white"/>
<path d="M335.8 602.97C396.916 602.97 446.46 553.426 446.46 492.31C446.46 431.194 396.916 381.65 335.8 381.65C274.684 381.65 225.14 431.194 225.14 492.31C225.14 553.426 274.684 602.97 335.8 602.97Z" fill="white"/>
<path d="M1472.27 435.88C1447.09 426.21 1417.06 424.04 1391.9 434.86C1366.22 445.91 1350.92 470.24 1353.28 498.28C1356.48 536.35 1388.5 556.49 1424.48 557.68C1439.42 558.17 1454.11 555.77 1468.13 550.47C1478.23 546.65 1487.86 542.347 1497.02 537.56C1497.49 537.32 1497.72 537.46 1497.72 537.98V570.79C1497.72 571.003 1497.66 571.211 1497.54 571.392C1497.43 571.572 1497.26 571.718 1497.07 571.81C1479.88 579.96 1462.47 586.25 1444.24 588.05C1410.19 591.42 1375.09 586.96 1347.82 565.78C1330.05 551.97 1317.72 531.45 1314.14 509.7C1307.52 469.55 1326.33 431.49 1361.89 411.86C1390.33 396.15 1424.81 393.1 1456.61 399.32C1469.23 401.787 1481.97 406.047 1494.82 412.1C1495.21 412.287 1495.41 412.597 1495.41 413.03V445.94C1495.41 446.38 1495.21 446.497 1494.82 446.29C1487.57 442.344 1480.05 438.874 1472.27 435.88Z" fill="white"/>
<path d="M912.97 534.43C917.59 525.54 918.53 514.42 918.52 504.3C918.473 467.58 918.46 432.583 918.48 399.31C918.48 398.943 918.663 398.76 919.03 398.76H956.99C957.19 398.76 957.29 398.863 957.29 399.07C957.31 436.596 957.313 474.306 957.3 512.2C957.28 557.94 926.36 583.4 882.76 588.09C837.11 593 784.83 580.63 775.05 527.86C774.083 522.626 773.61 516.05 773.63 508.13C773.71 471.563 773.723 435.303 773.67 399.35C773.67 398.956 773.867 398.76 774.26 398.76H812.03C812.51 398.76 812.75 399 812.75 399.48C812.67 435.76 812.67 473.233 812.75 511.9C812.763 515.36 813.31 519.623 814.39 524.69C816.31 533.623 820.88 540.853 828.1 546.38C842.84 557.65 861.18 559.52 879.27 556.48C892.85 554.19 906.49 546.88 912.97 534.43Z" fill="white"/>
<path d="M1154.11 398.76H1191.46C1191.55 398.76 1191.64 398.796 1191.7 398.859C1191.76 398.923 1191.8 399.01 1191.8 399.1V586.35C1191.8 586.44 1191.76 586.526 1191.7 586.59C1191.64 586.654 1191.55 586.69 1191.46 586.69L1158.56 586.68C1158.51 586.68 1158.47 586.67 1158.42 586.651C1158.38 586.632 1158.34 586.604 1158.31 586.57L1038.83 454.06C1038.78 454.01 1038.72 453.975 1038.66 453.959C1038.59 453.944 1038.52 453.948 1038.46 453.971C1038.4 453.995 1038.34 454.037 1038.3 454.092C1038.26 454.147 1038.24 454.212 1038.24 454.28L1038.25 586.35C1038.25 586.44 1038.21 586.526 1038.15 586.59C1038.09 586.654 1038 586.69 1037.91 586.69L1000.57 586.68C1000.53 586.68 1000.48 586.671 1000.44 586.654C1000.4 586.637 1000.36 586.612 1000.33 586.58C1000.3 586.549 1000.27 586.511 1000.26 586.47C1000.24 586.429 1000.23 586.384 1000.23 586.34L1000.24 399.11C1000.24 399.02 1000.28 398.933 1000.34 398.869C1000.4 398.806 1000.49 398.77 1000.58 398.77L1034.2 398.76C1034.25 398.76 1034.29 398.77 1034.34 398.789C1034.38 398.807 1034.42 398.835 1034.45 398.87L1153.2 529.22C1153.25 529.27 1153.31 529.305 1153.37 529.321C1153.44 529.336 1153.51 529.331 1153.57 529.306C1153.64 529.281 1153.69 529.238 1153.73 529.181C1153.77 529.125 1153.79 529.058 1153.79 528.99L1153.77 399.1C1153.77 399.01 1153.81 398.923 1153.87 398.859C1153.93 398.796 1154.02 398.76 1154.11 398.76Z" fill="white"/>
<path d="M1275.46 398.76H1237.12C1236.97 398.76 1236.85 398.881 1236.85 399.03V586.41C1236.85 586.559 1236.97 586.68 1237.12 586.68H1275.46C1275.61 586.68 1275.73 586.559 1275.73 586.41V399.03C1275.73 398.881 1275.61 398.76 1275.46 398.76Z" fill="white"/>
<path d="M1663.29 540.96H1574.34C1574.27 540.961 1574.21 540.981 1574.15 541.018C1574.1 541.056 1574.06 541.108 1574.03 541.17L1554.79 586.46C1554.76 586.521 1554.72 586.574 1554.67 586.611C1554.61 586.649 1554.55 586.669 1554.48 586.67L1514.45 586.69C1514.39 586.69 1514.34 586.676 1514.29 586.648C1514.24 586.621 1514.19 586.582 1514.16 586.534C1514.13 586.487 1514.12 586.432 1514.11 586.375C1514.11 586.318 1514.12 586.262 1514.14 586.21L1596.78 398.96C1596.81 398.9 1596.85 398.85 1596.91 398.814C1596.96 398.779 1597.02 398.76 1597.09 398.76H1636.37C1636.43 398.759 1636.5 398.776 1636.55 398.81C1636.61 398.844 1636.65 398.892 1636.68 398.95L1725.2 586.2C1725.23 586.252 1725.24 586.31 1725.23 586.368C1725.23 586.426 1725.21 586.482 1725.18 586.532C1725.15 586.581 1725.11 586.621 1725.06 586.649C1725.01 586.677 1724.95 586.691 1724.89 586.69L1684.59 586.68C1684.52 586.68 1684.46 586.661 1684.41 586.625C1684.35 586.59 1684.31 586.539 1684.28 586.48L1663.6 541.16C1663.57 541.1 1663.53 541.05 1663.47 541.014C1663.42 540.979 1663.36 540.96 1663.29 540.96ZM1586.12 512.92C1586.1 512.966 1586.09 513.017 1586.1 513.068C1586.1 513.118 1586.12 513.167 1586.15 513.209C1586.17 513.251 1586.21 513.286 1586.26 513.311C1586.3 513.335 1586.35 513.349 1586.4 513.35L1650.34 513.36C1650.39 513.36 1650.44 513.346 1650.49 513.321C1650.53 513.296 1650.57 513.26 1650.6 513.216C1650.63 513.172 1650.64 513.122 1650.65 513.071C1650.65 513.019 1650.64 512.967 1650.62 512.92L1617.17 439.65C1617.15 439.594 1617.1 439.548 1617.05 439.515C1617 439.482 1616.94 439.466 1616.88 439.467C1616.82 439.468 1616.76 439.487 1616.71 439.521C1616.66 439.555 1616.62 439.604 1616.6 439.66L1586.12 512.92Z" fill="white"/>
<path d="M2359.53 636.88L2334.95 661.91C2334.89 661.971 2334.81 662.007 2334.73 662.01L2324.18 662.06C2324.12 662.061 2324.06 662.045 2324.01 662.014C2323.96 661.983 2323.92 661.938 2323.89 661.886C2323.87 661.833 2323.85 661.773 2323.86 661.714C2323.86 661.655 2323.88 661.598 2323.92 661.55L2342.53 636.51C2342.56 636.47 2342.6 636.437 2342.64 636.414C2342.69 636.391 2342.74 636.38 2342.79 636.38L2359.3 636.33C2359.36 636.329 2359.43 636.347 2359.48 636.382C2359.54 636.417 2359.58 636.467 2359.6 636.527C2359.63 636.586 2359.63 636.652 2359.62 636.715C2359.61 636.778 2359.58 636.835 2359.53 636.88Z" fill="white"/>
<path d="M2074.72 765.02C2076.72 749.56 2064.73 742.57 2052.06 738.68C2030.45 732.04 2003.23 726.97 2005.91 696.71C2008.63 666.03 2046.63 659.04 2070.45 667.82C2076.53 670.06 2082.12 673.894 2087.23 679.32C2087.44 679.554 2087.42 679.76 2087.17 679.94L2076.03 688.03C2075.75 688.237 2075.49 688.21 2075.25 687.95C2074.26 686.85 2073.35 685.68 2072.28 684.63C2067.31 679.75 2061.08 676.974 2053.61 676.3C2036.2 674.73 2016.92 683.37 2021.27 704.32C2024.1 717.97 2048.18 723.4 2059.51 726.59C2062.06 727.304 2065.6 728.727 2070.11 730.86C2079.21 735.16 2087.26 742.52 2089.11 752.51C2092 768.14 2085.87 781.16 2072.8 789.16C2058.01 798.21 2040.55 798.9 2023.75 793.22C2015.82 790.54 2008.97 785.68 2003.22 778.64C2002.97 778.34 2003.01 778.084 2003.33 777.87L2014.94 770.14C2015.32 769.88 2015.63 769.947 2015.88 770.34C2024.88 784.48 2045.15 788.44 2059.84 782.33C2067.02 779.35 2073.69 772.99 2074.72 765.02Z" fill="white"/>
<path d="M2297.69 787.35C2277.22 775.69 2265.25 755.46 2264.9 731.85C2264.8 725.137 2265.51 718.917 2267.03 713.19C2282.48 655.15 2366.67 647.55 2396.44 696.7C2403.02 707.567 2406.04 719.907 2405.5 733.72C2404.44 760.87 2387.54 782.96 2362.2 792.21C2341.86 799.64 2317.15 798.44 2297.69 787.35ZM2344.33 676.74C2314.68 672.55 2286.57 688.84 2280.83 719.39C2274.69 752.06 2295.65 782.48 2329.94 784.88C2349.77 786.26 2368.02 779.77 2380.08 763.75C2394.31 744.85 2394.24 715.95 2379.86 697.18C2371.03 685.653 2359.19 678.84 2344.33 676.74Z" fill="white"/>
<path d="M790.03 667.92C790.03 667.838 790.063 667.759 790.121 667.701C790.179 667.643 790.258 667.61 790.34 667.61H836.6C854.95 667.61 872.549 674.036 885.525 685.473C898.5 696.911 905.79 712.424 905.79 728.6V732.68C905.79 748.855 898.5 764.368 885.525 775.806C872.549 787.244 854.95 793.67 836.6 793.67H790.34C790.258 793.67 790.179 793.637 790.121 793.579C790.063 793.521 790.03 793.442 790.03 793.36V667.92ZM803.78 679.63V781.61C803.78 781.676 803.806 781.74 803.853 781.787C803.9 781.834 803.964 781.86 804.03 781.86H835.04C849.855 781.86 864.063 776.613 874.539 767.274C885.015 757.934 890.9 745.268 890.9 732.06V729.18C890.9 715.972 885.015 703.305 874.539 693.966C864.063 684.627 849.855 679.38 835.04 679.38H804.03C803.964 679.38 803.9 679.406 803.853 679.453C803.806 679.5 803.78 679.564 803.78 679.63Z" fill="white"/>
<path d="M1000.35 722.24H1065.01C1065.11 722.24 1065.2 722.279 1065.27 722.348C1065.34 722.418 1065.38 722.512 1065.38 722.61V733.63C1065.38 733.728 1065.34 733.822 1065.27 733.892C1065.2 733.961 1065.11 734 1065.01 734L1000.35 733.99C1000.25 733.99 1000.16 734.029 1000.09 734.098C1000.02 734.168 999.98 734.262 999.98 734.36L999.97 781.55C999.97 781.648 1000.01 781.742 1000.08 781.812C1000.15 781.881 1000.24 781.92 1000.34 781.92L1071.88 781.88C1071.98 781.88 1072.07 781.919 1072.14 781.988C1072.21 782.058 1072.25 782.152 1072.25 782.25L1072.26 793.31C1072.26 793.408 1072.22 793.502 1072.15 793.572C1072.08 793.641 1071.99 793.68 1071.89 793.68L986.63 793.67C986.532 793.67 986.438 793.631 986.368 793.562C986.299 793.492 986.26 793.398 986.26 793.3V667.9C986.26 667.802 986.299 667.708 986.368 667.638C986.438 667.569 986.532 667.53 986.63 667.53L1069.63 667.52C1069.73 667.52 1069.82 667.559 1069.89 667.628C1069.96 667.698 1070 667.792 1070 667.89L1070.01 678.9C1070.01 678.998 1069.97 679.092 1069.9 679.162C1069.83 679.231 1069.74 679.27 1069.64 679.27H1000.35C1000.25 679.27 1000.16 679.309 1000.09 679.378C1000.02 679.448 999.98 679.542 999.98 679.64V721.87C999.98 721.968 1000.02 722.062 1000.09 722.132C1000.16 722.201 1000.25 722.24 1000.35 722.24Z" fill="white"/>
<path d="M1218.69 667.53H1205.71C1205.5 667.53 1205.33 667.7 1205.33 667.91V793.29C1205.33 793.5 1205.5 793.67 1205.71 793.67H1218.69C1218.9 793.67 1219.07 793.5 1219.07 793.29V667.91C1219.07 667.7 1218.9 667.53 1218.69 667.53Z" fill="white"/>
<path d="M1406.7 773.95V667.85C1406.7 667.762 1406.73 667.679 1406.8 667.617C1406.86 667.555 1406.94 667.52 1407.03 667.52L1420.1 667.54C1420.14 667.54 1420.19 667.549 1420.23 667.565C1420.27 667.582 1420.3 667.606 1420.33 667.637C1420.36 667.667 1420.39 667.704 1420.4 667.744C1420.42 667.784 1420.43 667.827 1420.43 667.87L1420.44 793.35C1420.44 793.438 1420.41 793.521 1420.34 793.583C1420.28 793.645 1420.2 793.68 1420.11 793.68L1403.4 793.66C1403.35 793.661 1403.3 793.65 1403.25 793.627C1403.2 793.605 1403.16 793.571 1403.13 793.53L1323.02 686.03C1322.98 685.976 1322.92 685.937 1322.85 685.917C1322.79 685.897 1322.72 685.899 1322.65 685.921C1322.59 685.943 1322.53 685.984 1322.49 686.04C1322.45 686.095 1322.43 686.162 1322.43 686.23L1322.44 793.35C1322.44 793.438 1322.41 793.521 1322.34 793.583C1322.28 793.645 1322.2 793.68 1322.11 793.68L1309.02 793.67C1308.93 793.67 1308.85 793.635 1308.79 793.573C1308.72 793.511 1308.69 793.428 1308.69 793.34V667.85C1308.69 667.762 1308.72 667.679 1308.79 667.617C1308.85 667.555 1308.93 667.52 1309.02 667.52L1325.69 667.53C1325.74 667.53 1325.79 667.542 1325.84 667.565C1325.88 667.587 1325.92 667.62 1325.95 667.66L1406.11 774.15C1406.15 774.204 1406.21 774.243 1406.28 774.263C1406.34 774.283 1406.41 774.281 1406.48 774.259C1406.54 774.237 1406.6 774.196 1406.64 774.14C1406.68 774.085 1406.7 774.018 1406.7 773.95Z" fill="white"/>
<path d="M1549.49 774.31C1549.51 774.323 1549.54 774.332 1549.57 774.335C1549.59 774.337 1549.62 774.334 1549.65 774.326C1549.67 774.317 1549.69 774.303 1549.71 774.285C1549.73 774.267 1549.75 774.245 1549.76 774.22L1593.8 667.8C1593.87 667.613 1594.01 667.52 1594.22 667.52L1608.44 667.53C1608.48 667.53 1608.52 667.54 1608.55 667.559C1608.59 667.578 1608.62 667.604 1608.64 667.637C1608.66 667.669 1608.67 667.707 1608.68 667.746C1608.68 667.784 1608.67 667.824 1608.66 667.86L1556.44 793.03C1556.26 793.463 1555.93 793.68 1555.46 793.68L1543.22 793.67C1542.69 793.67 1542.33 793.427 1542.13 792.94L1491.3 667.94C1491.28 667.893 1491.28 667.843 1491.28 667.793C1491.29 667.743 1491.31 667.695 1491.33 667.654C1491.36 667.613 1491.4 667.579 1491.45 667.555C1491.49 667.532 1491.54 667.52 1491.59 667.52H1506.04C1506.15 667.52 1506.25 667.553 1506.34 667.613C1506.43 667.674 1506.5 667.76 1506.54 667.86C1520.69 703.12 1534.87 738.447 1549.07 773.84C1549.16 774.047 1549.3 774.203 1549.49 774.31Z" fill="white"/>
<path d="M1693.26 734.35V781.55C1693.26 781.646 1693.3 781.737 1693.37 781.805C1693.43 781.872 1693.52 781.91 1693.62 781.91L1765.15 781.88C1765.25 781.88 1765.34 781.918 1765.4 781.986C1765.47 782.053 1765.51 782.145 1765.51 782.24V793.31C1765.51 793.406 1765.47 793.497 1765.4 793.565C1765.34 793.632 1765.25 793.67 1765.15 793.67H1679.86C1679.76 793.67 1679.67 793.632 1679.61 793.565C1679.54 793.497 1679.5 793.406 1679.5 793.31V667.89C1679.5 667.795 1679.54 667.703 1679.61 667.636C1679.67 667.568 1679.76 667.53 1679.86 667.53H1762.89C1762.99 667.53 1763.08 667.568 1763.14 667.636C1763.21 667.703 1763.25 667.795 1763.25 667.89V678.91C1763.25 679.006 1763.21 679.097 1763.14 679.165C1763.08 679.232 1762.99 679.27 1762.89 679.27H1693.63C1693.58 679.27 1693.54 679.28 1693.49 679.298C1693.45 679.316 1693.41 679.342 1693.38 679.376C1693.34 679.409 1693.32 679.449 1693.3 679.492C1693.28 679.536 1693.27 679.583 1693.27 679.63L1693.26 721.88C1693.26 721.976 1693.3 722.067 1693.37 722.135C1693.43 722.202 1693.52 722.24 1693.62 722.24H1758.29C1758.39 722.24 1758.48 722.278 1758.54 722.346C1758.61 722.413 1758.65 722.505 1758.65 722.6V733.64C1758.65 733.736 1758.61 733.827 1758.54 733.895C1758.48 733.962 1758.39 734 1758.29 734L1693.62 733.99C1693.52 733.99 1693.43 734.028 1693.37 734.096C1693.3 734.163 1693.26 734.255 1693.26 734.35Z" fill="white"/>
<path d="M1897.58 733.7C1897.52 733.703 1897.47 733.721 1897.42 733.752C1897.38 733.782 1897.34 733.824 1897.32 733.874C1897.29 733.923 1897.28 733.978 1897.28 734.034C1897.28 734.089 1897.3 734.143 1897.33 734.19L1935.72 793.26C1935.75 793.301 1935.76 793.348 1935.76 793.397C1935.76 793.445 1935.75 793.493 1935.73 793.535C1935.71 793.577 1935.67 793.611 1935.63 793.635C1935.59 793.659 1935.55 793.671 1935.5 793.67H1919.68C1919.35 793.67 1919.09 793.53 1918.91 793.25L1882.39 735.37C1882.32 735.265 1882.23 735.179 1882.12 735.12C1882.01 735.06 1881.89 735.029 1881.77 735.03H1859.89C1859.5 735.03 1859.31 735.223 1859.31 735.61V793.06C1859.31 793.473 1859.1 793.68 1858.69 793.68L1846.24 793.67C1845.79 793.67 1845.56 793.443 1845.56 792.99L1845.6 667.89C1845.6 667.808 1845.63 667.729 1845.69 667.671C1845.75 667.612 1845.84 667.58 1845.92 667.58C1859.84 667.506 1874 667.496 1888.41 667.55C1908.56 667.62 1929.95 674.92 1931.47 698.02C1932.86 719.15 1918.1 732.52 1897.58 733.7ZM1859.31 679.62V722.9C1859.31 722.974 1859.34 723.045 1859.39 723.098C1859.44 723.15 1859.52 723.18 1859.59 723.18H1889.35C1896.6 723.18 1903.56 721.037 1908.68 717.222C1913.81 713.408 1916.69 708.234 1916.69 702.84V699.68C1916.69 694.285 1913.81 689.112 1908.68 685.297C1903.56 681.483 1896.6 679.34 1889.35 679.34H1859.59C1859.52 679.34 1859.44 679.369 1859.39 679.422C1859.34 679.474 1859.31 679.546 1859.31 679.62Z" fill="white"/>
<path d="M2184.06 667.52H2171.08C2170.87 667.52 2170.7 667.69 2170.7 667.9V793.3C2170.7 793.51 2170.87 793.68 2171.08 793.68H2184.06C2184.27 793.68 2184.44 793.51 2184.44 793.3V667.9C2184.44 667.69 2184.27 667.52 2184.06 667.52Z" fill="white"/>
<path d="M2499.75 686.11V793.36C2499.75 793.442 2499.72 793.521 2499.66 793.579C2499.6 793.637 2499.52 793.67 2499.44 793.67L2486.34 793.66C2486.26 793.66 2486.18 793.627 2486.12 793.569C2486.06 793.511 2486.03 793.432 2486.03 793.35V667.85C2486.03 667.768 2486.06 667.689 2486.12 667.631C2486.18 667.573 2486.26 667.54 2486.34 667.54L2503.05 667.52C2503.1 667.521 2503.14 667.532 2503.18 667.553C2503.23 667.573 2503.26 667.603 2503.29 667.64L2583.48 774.17C2583.52 774.223 2583.57 774.263 2583.64 774.282C2583.7 774.302 2583.77 774.302 2583.83 774.28C2583.89 774.259 2583.95 774.219 2583.98 774.165C2584.02 774.111 2584.04 774.046 2584.04 773.98L2584.02 667.85C2584.02 667.768 2584.05 667.689 2584.11 667.631C2584.17 667.573 2584.25 667.54 2584.33 667.54L2597.45 667.52C2597.53 667.52 2597.61 667.553 2597.67 667.611C2597.73 667.669 2597.76 667.748 2597.76 667.83V793.36C2597.76 793.442 2597.73 793.521 2597.67 793.579C2597.61 793.637 2597.53 793.67 2597.45 793.67H2580.75C2580.7 793.671 2580.65 793.66 2580.61 793.64C2580.57 793.619 2580.53 793.588 2580.5 793.55L2500.31 685.93C2500.27 685.878 2500.22 685.838 2500.16 685.818C2500.09 685.798 2500.03 685.798 2499.97 685.818C2499.9 685.838 2499.85 685.877 2499.81 685.929C2499.77 685.982 2499.75 686.045 2499.75 686.11Z" fill="white"/>
</g>
<defs>
<clipPath id="clip0_986_9">
<rect width="2620" height="800" fill="white"/>
</clipPath>
</defs>
</svg>
