<svg width="950" height="950" viewBox="0 0 950 950" fill="none" xmlns="http://www.w3.org/2000/svg">
<path d="M122.2 54H335.696L475.02 193.395C475.273 193.642 475.526 193.642 475.779 193.395L615.219 54H829L475.674 407.921C475.62 407.971 475.548 408 475.476 408C475.403 408 475.334 407.971 475.284 407.921C357.526 290.084 239.799 172.283 122.105 54.5168C122.013 54.4254 121.982 54.3446 122.01 54.2742C122.038 54.1969 122.101 54.1055 122.2 54Z" fill="#65B500"/>
<path d="M485.642 897H465.748C429.968 895.861 395.689 890.039 362.911 879.532C301.319 859.798 245.75 822.554 208.419 769.266C185.382 736.386 170.329 697.424 163.62 657.882C160.54 639.68 159 620.033 159 598.943C159.028 458.035 159.032 317.211 159.011 176.472C159.011 175.938 159.2 175.857 159.58 176.23L300.465 312.882C300.725 313.128 300.855 313.434 300.855 313.799C300.897 408.83 300.936 505.631 300.971 604.203C300.971 623.674 303.714 644.82 310.95 663.142C323.221 694.191 343.175 717.868 370.812 734.172C377.521 738.136 386.691 742.472 398.323 747.181C404.42 749.655 411.163 751.615 418.554 753.063C459.06 761.022 501.243 761.402 540.431 750.501C558.838 745.389 576.148 738.041 591.464 726.888C608.461 714.512 621.921 699.188 631.843 680.915C638.974 667.773 643.833 654.666 646.421 641.595C649.955 623.779 650.219 606.354 650.208 588.253C650.18 498.15 650.17 406.781 650.177 314.147C650.177 313.585 650.377 313.107 650.778 312.713L791.631 176.093C791.662 176.064 791.701 176.046 791.743 176.039C791.784 176.032 791.827 176.037 791.866 176.054C791.905 176.071 791.938 176.098 791.962 176.133C791.985 176.168 791.999 176.208 792 176.251C791.993 319.197 791.989 462.199 791.989 605.257C791.989 619.165 790.892 633.987 788.698 649.722C784.254 681.615 774.767 711.683 760.239 739.928C709.522 838.535 602.129 891.128 494.725 896.452C491.701 896.599 488.673 896.782 485.642 897Z" fill="#303C92"/>
<path d="M475.5 689C539.841 689 592 636.841 592 572.5C592 508.159 539.841 456 475.5 456C411.159 456 359 508.159 359 572.5C359 636.841 411.159 689 475.5 689Z" fill="#00BDFF"/>
</svg>
