<svg width="531" height="143" viewBox="0 0 531 143" fill="none" xmlns="http://www.w3.org/2000/svg">
<path d="M150.605 16.1993C150.605 11.8993 150.605 7.59935 150.605 3.29935C150.605 1.39935 150.805 0.499342 153.105 0.599342C159.405 0.999342 165.705 -0.200654 171.905 1.29935C180.605 3.39935 185.105 9.49935 184.405 17.6993C183.705 25.3993 177.405 31.2993 168.905 31.6993C163.505 31.9993 158.105 31.6993 152.705 31.7993C150.705 31.7993 150.605 30.8993 150.605 29.3993C150.605 24.9993 150.605 20.5993 150.605 16.0993V16.1993ZM158.905 16.1993C158.905 22.266 161.939 25.066 168.005 24.5993C168.405 24.5993 168.905 24.5993 169.305 24.4993C172.705 23.8993 175.505 21.2993 176.205 18.1993C177.005 14.6993 175.605 11.0993 172.605 9.29935C168.405 6.69935 163.605 7.29935 159.405 8.19935C157.805 8.49935 159.105 13.1993 158.805 15.8993C158.805 15.9993 158.805 16.0993 158.805 16.1993H158.905Z" fill="white"/>
<path d="M128.207 0C141.107 0 149.107 9.4 145.807 21C143.807 28 138.507 31.3 131.807 32.3C128.707 32.8 125.507 32.7 122.307 31.9C113.807 29.7 108.807 23 109.607 14.7C110.407 6.6 116.807 0.6 125.307 0C126.307 0 127.307 0 128.307 0H128.207ZM128.007 25.3C134.507 25.3 138.407 21.8 138.307 15.9C138.307 10.3 134.407 7 127.907 7C121.607 7 117.607 10.5 117.607 16C117.607 21.6 121.607 25.3 128.107 25.2L128.007 25.3Z" fill="white"/>
<path d="M242.309 20.2C245.309 24 248.109 27.7 251.009 31.3C244.909 33 242.309 32.1 238.709 27.4C237.409 25.7 236.009 24.2 234.909 22.4C233.709 20.5 232.109 20.2 230.109 20.3C228.709 20.3 228.509 20.9 228.509 22.1C228.509 24.6 228.509 27.2 228.509 29.7C228.509 31.3 228.109 31.7 226.509 31.8C220.309 32.1 220.309 32.1 220.309 26C220.309 18.4 220.309 10.7 220.309 3.1C220.309 0.999999 220.909 0.5 222.909 0.5C228.109 0.6 233.309 0.5 238.509 0.5C245.009 0.5 249.209 3.3 250.309 8.4C251.409 13.4 248.909 17.2 242.309 20.1V20.2ZM234.509 6.6C230.175 6.6 228.209 8.56667 228.609 12.5C228.609 12.7 228.609 12.9 228.609 13.2C228.609 14 229.109 14.4 229.909 14.3C233.009 14.3 236.109 14.6 239.109 14C241.109 13.7 242.209 12.5 242.309 10.4C242.309 8.4 241.209 7.4 239.509 6.8C237.809 6.2 236.009 6.6 234.509 6.5V6.6Z" fill="white"/>
<path d="M9.60707 7.4C10.2737 11.4 12.5071 13.4 16.3071 13.4C19.6071 13.4 22.9071 13.6 26.2071 13.4C28.9071 13.2 28.3071 15 28.2071 16.4C28.2071 17.7 29.0071 19.6 26.2071 19.5C21.7071 19.3 17.1071 19.5 12.6071 19.5C8.40707 19.4 10.1071 22.8 9.80706 24.6C9.40706 26.4 11.5071 25.5 12.4071 25.5C17.4071 25.6 22.4071 25.7 27.3071 25.5C30.5071 25.4 29.4071 27.6 29.5071 29.1C29.6071 30.6 30.1071 32.3 27.3071 32.3C19.2071 32.1 11.2071 32.2 3.10707 32.3C1.10707 32.3 0.707057 31.8 1.20706 29.9C3.40706 21.1 3.40706 12.2 1.20706 3.4C0.707057 1.3 1.30706 1 3.20706 1C11.2071 1 19.1071 1.2 27.1071 1C30.0071 1 29.5071 2.6 29.4071 4.1C29.3071 5.6 30.4071 7.8 27.2071 7.7C21.5071 7.5 15.7071 7.7 9.70706 7.7L9.60707 7.4Z" fill="white"/>
<path d="M77.0063 16.1C77.0063 11.8 77.0063 7.5 77.0063 3.2C77.0063 1.3 77.3063 0.5 79.5063 0.5C84.9063 0.7 90.3063 0.5 95.7063 0.5C102.006 0.5 106.306 4.4 106.806 10C107.306 16 104.006 20 97.6063 21.3C94.6063 21.9 91.6063 21.8 88.7063 21.6C85.6063 21.3 84.8063 22.5 85.2063 25.3C85.3063 26.2 85.1063 27.1 85.2063 27.9C85.8063 31.2 84.3063 32 81.2063 31.8C76.9063 31.5 76.9062 31.8 76.9062 27.3C76.9062 23.5 76.9062 19.8 76.9062 16L77.0063 16.1ZM90.8063 15.2C92.3063 15.2 93.9062 15.4 95.4062 15.2C97.6063 14.8 98.9063 13.4 98.7063 11C98.5063 8.8 97.3063 7.5 95.2063 7.4C92.3063 7.2 89.5063 7.3 86.6063 7.3C85.9063 7.3 85.3063 7.5 85.3063 8.4C85.3063 10.6 84.7063 13.1 85.6063 14.9C86.2063 16.3 88.8063 15.2 90.5063 15.4C90.6063 15.4 90.7063 15.4 90.8063 15.4V15.2Z" fill="white"/>
<path d="M34.9077 16.1992C34.9077 11.8992 35.0077 7.59922 34.9077 3.29922C34.9077 1.19922 35.5077 0.699219 37.5077 0.699219C43.2077 0.699219 43.2077 0.699216 43.2077 6.39922C43.2077 11.7992 43.2077 17.1992 43.2077 22.5992C43.2077 24.3992 43.7077 24.8992 45.4077 24.7992C50.4077 24.6992 55.4077 24.8992 60.3077 24.6992C63.9077 24.4992 62.7077 26.9992 62.8077 28.6992C62.9077 30.3992 63.4077 32.0992 60.4077 31.9992C52.8077 31.7992 45.2077 31.8992 37.5077 31.9992C35.5077 31.9992 34.8077 31.5992 34.9077 29.4992C35.1077 25.0992 34.9077 20.6992 34.9077 16.1992Z" fill="white"/>
<path d="M212.809 27.1005C212.809 33.6005 212.609 33.8005 207.309 33.8005C202.309 33.8005 197.409 33.8005 192.409 33.8005C191.109 33.8005 188.409 34.4005 190.709 31.4005C191.109 30.8005 190.909 29.7005 190.909 28.8005C190.909 21.1005 190.909 13.3005 190.909 5.6005C190.909 4.9005 191.109 4.1005 190.909 3.6005C188.609 -0.199498 191.709 0.700502 193.509 0.600502C198.209 0.600502 203.009 0.600502 207.809 0.600502C212.509 0.600502 213.609 2.0005 212.709 7.40051C209.009 2.30051 203.709 2.3005 198.409 2.5005C197.209 2.5005 196.909 3.0005 196.909 4.1005C196.909 5.8005 196.709 7.4005 196.909 9.1005C197.109 10.9005 195.709 13.9005 197.709 14.4005C200.209 15.1005 203.409 15.6005 205.809 13.2005C206.909 14.2005 206.409 15.5005 206.509 16.6005C206.509 17.7005 206.009 18.6005 205.009 17.6005C203.009 15.7005 200.609 16.8005 198.409 16.5005C197.209 16.3005 196.909 16.9005 196.909 18.0005C196.909 22.1005 196.909 26.2005 196.909 30.3005C196.909 32.0005 197.809 31.9005 199.009 32.0005C204.109 32.3005 208.909 31.9005 213.009 27.2005L212.809 27.1005Z" fill="white"/>
<path d="M149.208 70.5996C147.508 70.5996 146.408 70.3996 145.308 70.5996C141.908 71.1996 139.608 70.0997 138.808 66.4997C138.508 64.7997 137.408 64.2996 135.608 64.3996C131.608 64.4996 127.608 64.5996 123.708 64.3996C121.608 64.3996 120.608 64.9996 120.108 66.8996C119.408 69.9996 117.508 70.7996 114.408 70.6996C104.408 70.4996 94.4078 70.4996 84.4078 70.6996C82.0078 70.6996 81.5078 69.9996 81.5078 67.7996C81.6078 59.2996 81.6078 50.7996 81.5078 42.2996C81.5078 40.2996 81.8078 39.3996 84.2078 39.3996C89.8078 39.3996 89.8078 39.3996 89.8078 44.8996C89.8078 50.3996 90.1078 54.8996 89.8078 59.7996C89.6078 63.1996 90.8078 63.8996 93.8078 63.5996C97.8078 63.2996 101.808 63.6997 105.708 63.4997C108.608 63.2997 110.108 64.0996 109.508 67.1996C109.408 67.9996 109.508 68.8996 109.508 69.8996C111.008 69.8996 110.908 68.6997 111.208 67.9997C115.308 59.1997 119.408 50.4996 123.308 41.5996C124.008 39.9996 125.008 39.5996 126.708 39.2996C132.608 38.3996 135.908 40.3996 138.108 46.2996C141.108 54.4996 145.308 62.2996 149.208 70.5996ZM135.108 57.9997C133.208 53.6997 131.508 49.8996 129.608 45.6996C127.708 49.9996 126.008 53.8997 124.208 57.9997H135.108Z" fill="white"/>
<path d="M185.207 48.8982C185.207 55.9982 185.207 61.9982 185.207 68.0982C185.207 69.9982 184.907 70.7982 182.707 70.6982C176.707 70.6982 176.707 70.6982 176.707 64.5982C176.707 57.0982 176.707 49.5982 176.707 42.0982C176.707 39.8982 177.407 39.5982 179.507 39.2982C185.807 38.3982 190.007 40.4982 193.107 46.1982C195.807 50.9982 199.407 55.3982 203.207 60.6982C203.207 53.7982 203.207 47.7982 203.207 41.7982C203.207 39.8982 203.807 39.4982 205.607 39.4982C211.707 39.4982 211.707 39.4982 211.707 45.4982C211.707 53.0982 211.707 60.6982 211.707 68.3982C211.707 70.1982 211.307 70.7982 209.307 70.8982C200.707 71.0982 200.707 71.0982 195.807 64.0982C192.507 59.2982 189.107 54.5982 185.307 49.0982L185.207 48.8982Z" fill="white"/>
<path d="M408.809 48.9005C408.809 55.8005 408.709 61.8005 408.809 67.8005C408.809 70.1005 408.309 70.8005 405.909 70.7005C400.309 70.5005 400.309 70.7005 400.309 64.9005C400.309 57.4005 400.309 49.9005 400.309 42.4005C400.309 40.2005 400.809 39.6005 403.109 39.3005C409.409 38.4005 413.509 40.6005 416.709 46.2005C419.409 51.0005 423.009 55.3005 426.209 59.7005C426.209 59.7005 426.409 59.7005 426.809 59.6005C426.809 53.7005 426.809 47.8005 426.809 41.9005C426.809 40.0005 427.109 39.2005 429.309 39.3005C435.309 39.3005 435.309 39.3005 435.309 45.4005C435.309 51.5005 435.309 60.4005 435.309 67.9005C435.309 70.1005 434.609 70.4005 432.509 70.7005C426.209 71.7005 422.309 69.4005 419.309 63.8005C416.509 58.8005 412.809 54.3005 408.909 48.8005L408.809 48.9005Z" fill="white"/>
<path d="M354.209 60.6016C352.009 60.6016 350.509 60.4016 349.009 60.6016C346.509 60.9016 345.709 60.1016 345.709 57.4016C345.709 54.9016 346.309 54.2016 348.809 54.3016C352.709 54.5016 356.509 54.4016 360.409 54.3016C362.009 54.3016 362.509 54.8016 362.409 56.4016C362.309 60.2016 362.409 63.9016 362.409 67.7016C362.409 68.7016 363.409 70.8016 361.009 70.5016C359.209 70.2016 356.209 72.3016 356.009 68.3016C356.009 68.0016 355.909 67.7016 355.709 67.0016C350.609 71.4016 344.809 72.1016 338.609 70.6016C329.909 68.5016 325.309 61.9016 326.109 53.0016C326.809 45.2016 333.109 39.3016 341.409 38.7016C347.909 38.2016 354.009 38.9016 358.809 44.0016C360.509 45.9016 362.909 48.7016 361.709 50.4016C360.409 52.2016 356.809 50.8016 354.209 50.9016C353.609 50.9016 353.409 50.3016 353.109 49.9016C349.809 45.7016 343.509 44.5016 338.909 47.2016C333.909 50.2016 333.609 59.0016 338.409 62.3016C342.509 65.1016 349.909 64.5016 354.309 60.5016L354.209 60.6016Z" fill="white"/>
<path d="M0.00800064 54.9999C0.00800064 50.4999 0.00800064 45.8999 0.00800064 41.3999C0.00800064 40.3999 -0.192006 39.2999 1.40799 39.3999C8.00799 39.6999 14.708 38.5999 21.208 40.0999C29.908 42.0999 34.508 48.2999 33.708 56.4999C33.008 64.1999 26.708 70.0999 18.308 70.4999C12.908 70.7999 7.50801 70.4999 2.10801 70.5999C0.208007 70.5999 0.00800064 69.7999 0.00800064 68.1999C0.00800064 63.7999 0.00800064 59.3999 0.00800064 54.8999V54.9999ZM8.308 54.9999C8.308 61.0666 11.3413 63.8665 17.408 63.3999C17.808 63.3999 18.308 63.3999 18.708 63.2999C22.108 62.6999 24.908 60.0999 25.608 56.9999C26.408 53.4999 25.008 49.8999 22.008 48.0999C17.808 45.4999 13.008 46.0999 8.808 46.9999C7.208 47.2999 8.508 51.9999 8.208 54.6999C8.208 54.7999 8.208 54.8999 8.208 54.9999H8.308Z" fill="white"/>
<path d="M380.607 70.6984C376.607 70.6984 372.607 70.6984 368.707 70.6984C366.907 70.6984 366.007 70.4984 366.507 68.3984C368.707 59.4984 368.707 50.4984 366.507 41.5984C366.007 39.7984 366.807 39.3984 368.507 39.3984C376.707 39.3984 384.807 39.3984 393.007 39.3984C394.907 39.3984 395.107 40.0984 395.107 41.6984C395.107 46.5984 395.207 46.5984 390.507 46.5984C386.407 46.5984 382.307 46.5984 378.207 46.5984C377.407 46.5984 375.407 45.6984 375.807 47.5984C376.107 49.0984 374.907 51.9984 378.407 51.8984C382.707 51.7984 387.007 51.9984 391.307 51.8984C394.107 51.6984 393.907 53.2984 393.907 55.0984C393.907 56.8984 394.207 58.5984 391.307 58.3984C387.107 58.1984 382.907 58.4984 378.707 58.2984C375.007 58.0984 375.907 60.8984 375.707 62.5984C375.407 64.5984 377.407 63.5984 378.407 63.5984C383.107 63.6984 387.907 63.6984 392.607 63.5984C394.407 63.5984 395.407 63.7984 395.307 66.0984C395.307 70.7984 395.307 70.7984 390.607 70.7984C387.207 70.7984 383.807 70.7984 380.307 70.7984L380.607 70.6984Z" fill="white"/>
<path d="M475.809 52.698C474.109 52.698 472.709 52.698 471.309 52.698C468.909 52.698 467.009 52.798 465.609 49.798C464.009 46.298 457.809 45.298 453.409 47.098C449.709 48.598 447.909 52.2981 448.709 56.9981C449.309 60.8981 452.309 63.398 456.909 63.798C461.609 64.198 464.809 62.698 466.609 58.698C467.609 56.498 469.209 57.4981 470.509 57.4981C476.509 57.3981 476.909 58.1981 473.909 63.4981C470.309 69.6981 461.609 72.8981 453.209 70.9981C444.109 68.9981 438.709 62.0981 439.609 53.4981C440.509 44.8981 447.309 39.098 456.309 38.798C461.409 38.698 466.209 39.398 470.309 42.698C473.509 45.198 475.109 48.498 475.809 52.798V52.698Z" fill="white"/>
<path d="M531.008 70.699C529.308 70.699 528.008 70.599 526.708 70.699C523.208 71.199 520.408 70.499 519.708 66.399C519.508 65.099 518.708 64.699 517.308 64.699C513.108 64.699 508.908 64.799 504.708 64.699C502.908 64.699 502.308 65.599 502.008 66.899C501.208 70.199 499.208 71.199 496.008 70.699C494.508 70.499 492.908 70.699 491.008 70.699C493.308 65.499 495.608 60.499 497.808 55.599C499.908 50.899 502.208 46.299 504.208 41.499C504.908 39.899 505.708 39.399 507.408 39.399C510.508 39.599 514.208 38.499 516.508 39.899C518.608 41.199 519.208 44.999 520.408 47.699C523.908 55.299 527.308 62.799 530.908 70.699H531.008ZM511.108 46.199C509.308 50.399 507.808 53.699 506.308 57.299H516.008C514.408 53.699 513.008 50.299 511.208 46.199H511.108Z" fill="white"/>
<path d="M46.008 46.0016C46.008 46.3016 45.808 46.4016 45.808 46.5016C46.3414 50.2349 48.508 52.1016 52.308 52.1016C55.708 52.1016 59.208 52.2016 62.608 52.1016C65.108 52.0016 64.608 53.7016 64.408 54.9016C64.308 56.1016 65.508 58.2016 62.608 58.1016C58.508 58.0016 54.408 58.2016 50.308 58.1016C47.608 58.0016 45.808 58.4016 46.108 61.7016C46.108 62.4016 45.908 63.2016 45.708 64.2016C51.708 64.2016 57.508 64.4016 63.408 64.2016C66.808 64.1016 65.608 66.4016 65.808 67.9016C66.008 69.6016 66.008 71.0016 63.408 70.9016C55.408 70.7016 47.508 70.8016 39.508 70.9016C37.308 70.9016 36.908 70.4016 37.408 68.3016C39.608 59.6016 39.608 50.9016 37.408 42.2016C36.808 40.0016 37.408 39.6016 39.508 39.6016C47.308 39.7016 55.208 39.8016 63.008 39.6016C65.608 39.6016 65.608 40.8016 65.408 42.6016C65.208 44.2016 66.408 46.5016 63.008 46.4016C57.308 46.2016 51.508 46.4016 45.908 46.4016L46.008 46.0016Z" fill="white"/>
<path d="M231.608 39.4005C236.208 39.4005 240.908 39.4005 245.508 39.4005C247.408 39.4005 247.908 40.0005 247.908 41.8005C247.908 47.2005 247.908 47.2005 242.508 47.2005C237.108 47.2005 235.908 47.2005 235.908 53.9005C235.908 58.6005 235.908 63.4005 235.908 68.1005C235.908 69.8005 235.708 70.6005 233.608 70.6005C227.008 70.6005 227.008 70.8005 227.008 64.1005C227.008 59.4005 226.908 54.6005 227.008 49.9005C227.108 47.5005 226.308 46.8005 224.008 47.1005C222.708 47.3005 221.408 47.1005 220.008 47.1005C214.908 47.1005 213.808 45.6005 214.908 40.4005C215.208 38.8005 216.308 39.3005 217.208 39.3005C221.908 39.3005 226.708 39.3005 231.408 39.3005L231.608 39.4005Z" fill="white"/>
<path d="M280.906 54.8999C280.906 50.4999 280.906 46.1 280.906 41.7C280.906 40 281.306 39.3999 283.106 39.3999C289.906 39.1999 289.906 39.1 289.906 46C289.906 52.9 290.006 55.5 289.906 60.2C289.906 62.5 290.606 62.8999 292.706 62.8999C297.306 62.7999 302.006 62.8999 306.606 62.8999C308.706 62.8999 309.706 63.3999 309.406 65.5999C309.306 66.5999 309.306 67.5999 309.406 68.5999C309.606 70.3999 308.806 70.7999 307.206 70.7999C299.306 70.7999 291.306 70.6999 283.406 70.7999C281.406 70.7999 281.106 69.9999 281.106 68.2999C281.106 63.8999 281.106 59.4999 281.106 55.0999L280.906 54.8999Z" fill="white"/>
<path d="M269.106 49.9C269.106 52 269.106 53 269.106 54C269.106 55.5 268.706 56.1 267.206 54.8C265.206 53.2 262.706 54.2 260.506 54C259.606 54 259.506 54.6 259.506 55.3C259.506 59.5 259.506 63.7 259.506 67.9C259.506 69.1 260.006 69.4 261.106 69.4C266.306 69.6 271.306 69.6 275.106 65.1C276.406 69.2 275.106 71.3 271.306 71.3C266.006 71.3 260.706 71.3 255.406 71.3C253.806 71.3 251.406 71.6 253.606 68.7C254.006 68.2 253.806 67.2 253.806 66.4C253.806 58.6 253.806 50.7 253.806 42.9C253.806 42.1 254.006 41.1 253.606 40.6C251.206 37.4 254.106 38.1 255.506 38.1C260.506 38.1 265.406 38.1 270.406 38.1C275.306 38.1 276.106 39.1 275.606 44.9C271.906 40.3 267.206 39.7 262.006 39.9C260.106 39.9 259.606 40.6 259.706 42.4C259.806 44.8 259.906 47.3 259.706 49.7C259.506 51.9 260.406 52.3 262.306 52.2C264.506 52 266.906 52.7 269.406 49.9H269.106Z" fill="white"/>
<path d="M162.207 54.8987C162.207 50.4987 162.207 46.0987 162.207 41.5987C162.207 39.7987 162.807 39.3987 164.507 39.3987C171.207 39.1987 171.207 39.1987 171.207 45.7987C171.207 52.3987 171.207 60.5987 171.207 67.9987C171.207 70.1987 170.607 70.7987 168.407 70.6987C162.207 70.6987 162.207 70.6987 162.207 64.4987C162.207 58.2987 162.207 58.0987 162.207 54.8987Z" fill="white"/>
<path d="M321.707 55.201C321.707 59.601 321.707 64.001 321.707 68.501C321.707 70.301 321.107 70.701 319.407 70.701C312.707 70.901 312.707 70.901 312.707 64.301C312.707 57.701 312.707 49.501 312.707 42.101C312.707 39.901 313.307 39.301 315.507 39.401C321.707 39.401 321.707 39.401 321.707 45.601C321.707 51.801 321.707 52.001 321.707 55.201Z" fill="white"/>
<path d="M488.309 55.201C488.309 59.601 488.309 64.001 488.309 68.501C488.309 70.301 487.709 70.701 486.009 70.701C479.309 70.901 479.309 70.901 479.309 64.301C479.309 57.701 479.309 49.501 479.309 42.101C479.309 39.901 479.909 39.301 482.109 39.401C488.309 39.401 488.309 39.401 488.309 45.601C488.309 51.801 488.309 52.001 488.309 55.201Z" fill="white"/>
<path d="M65.507 101.7C67.107 103.8 68.507 105.6 69.907 107.4C71.307 109.2 72.607 111 74.307 113.3C71.007 113.3 68.107 113.3 65.307 113.3C64.007 113.3 63.607 112.5 63.007 111.7C61.007 109 58.907 106.5 57.107 103.7C55.907 101.8 54.207 101.7 52.507 102.1C50.607 102.5 51.907 104.3 51.607 105.4C51.507 105.8 51.607 106.3 51.607 106.7C51.607 113.6 51.607 113.5 44.807 113.3C42.907 113.3 42.707 112.5 42.707 110.9C42.707 102.1 42.707 93.2 42.707 84.4C42.707 82.5 43.207 82 45.107 82C50.707 82.1 56.407 82 62.007 82C67.607 82 72.207 85.2 73.007 89.7C74.107 95.2 71.807 99 65.507 101.6V101.7ZM57.207 88.7C56.207 88.7 55.207 88.6 54.207 88.7C53.307 88.8 51.907 88 51.707 89.4C51.507 91.3 51.207 93.3 51.907 95.2C51.907 95.4 52.507 95.5 52.807 95.5C55.807 95.5 58.807 95.5 61.707 95.3C63.407 95.2 64.407 93.9 64.407 92.1C64.407 90.2 63.307 89 61.507 88.7C60.107 88.5 58.607 88.7 57.207 88.7Z" fill="white"/>
<path d="M206.91 95.2966C204.61 95.2966 202.41 95.1966 200.21 95.2966C198.61 95.3966 198.11 94.5966 197.41 93.2966C195.91 90.0966 192.11 88.4967 187.81 88.8967C184.21 89.2967 181.11 90.6966 180.11 94.5966C179.21 98.1966 179.41 101.597 182.41 104.297C185.71 107.397 196.01 107.397 197.71 101.297C198.31 99.1966 199.81 99.9967 200.91 99.9967C202.81 99.9967 206.01 99.0967 206.51 100.397C207.41 102.497 205.81 104.997 204.31 106.997C199.31 113.697 192.21 114.697 184.71 113.497C175.41 111.997 169.91 104.697 170.71 95.9967C171.61 87.2967 178.41 81.4967 187.71 81.1967C194.11 81.0967 199.81 82.3966 203.91 87.5966C205.61 89.6966 206.61 92.0966 206.81 95.0966L206.91 95.2966Z" fill="white"/>
<path d="M39.9078 113.299C38.3078 113.299 37.0078 113.099 35.8078 113.299C32.1078 113.899 29.4078 112.899 28.6078 108.899C28.3078 107.299 27.1078 107.299 25.8078 107.299C21.9078 107.299 18.1078 107.299 14.2078 107.299C12.6078 107.299 11.4078 107.599 11.1078 109.399C10.4078 112.899 8.20781 113.899 4.90781 113.399C3.40781 113.199 1.90781 113.399 0.0078125 113.399C4.60781 103.199 8.80782 93.1991 13.8078 83.5991C15.6078 80.1991 20.0078 82.7991 23.2078 82.1991C24.4078 81.9991 25.7078 81.7991 26.4078 83.4991C30.8078 93.2991 35.2078 103.099 39.9078 113.299ZM24.8078 100.099C23.2078 96.2991 21.7078 92.9991 19.9078 88.8991C18.1078 92.9991 16.6078 96.3991 15.0078 100.099H24.7078H24.8078Z" fill="white"/>
<path d="M125.608 97.7981C125.608 93.4981 125.608 89.1981 125.608 84.8981C125.608 82.7981 126.008 81.9981 128.308 82.0981C135.808 82.2981 143.308 82.1981 150.908 82.0981C152.908 82.0981 153.808 82.5981 153.408 84.5981C153.308 85.4981 153.308 86.3981 153.408 87.1981C153.608 88.8981 153.008 89.4981 151.208 89.3981C146.408 89.2981 141.708 89.3981 136.908 89.2981C134.608 89.2981 134.408 90.1981 134.508 91.9981C134.508 93.6981 134.508 94.8981 136.908 94.7981C141.208 94.5981 145.508 94.7981 149.808 94.6981C152.208 94.5981 153.008 95.3981 152.608 97.6981C152.508 98.4981 152.508 99.2981 152.608 99.9981C152.908 101.798 152.108 102.298 150.408 102.298C146.008 102.298 141.608 102.298 137.108 102.298C135.108 102.298 134.208 102.698 134.508 104.798C134.608 105.598 134.508 106.298 134.508 107.098C134.508 113.698 134.508 113.598 127.708 113.398C125.908 113.398 125.508 112.798 125.508 111.098C125.608 106.698 125.508 102.298 125.508 97.7981H125.608Z" fill="white"/>
<path d="M91.6081 82.0971C96.1081 82.0971 100.708 82.0971 105.208 82.0971C107.108 82.0971 107.908 82.2972 107.908 84.4972C107.908 89.8972 107.908 89.8972 102.508 89.8972C97.1081 89.8972 95.9081 89.8972 95.9081 96.6972C95.9081 101.597 95.9081 106.397 95.9081 111.297C95.9081 112.797 95.6081 113.397 93.9081 113.397C87.0081 113.697 87.0081 113.697 87.0081 106.897C87.0081 102.197 87.0081 97.3972 87.0081 92.6972C87.0081 90.6972 86.7081 89.6972 84.4081 89.8972C82.5081 90.0972 80.6081 89.7972 78.8081 89.8972C75.8081 90.2972 75.1081 89.1972 74.9081 86.1972C74.8081 82.5972 76.0081 81.7972 79.3081 81.9972C83.4081 82.2972 87.5081 81.9972 91.5081 81.9972L91.6081 82.0971Z" fill="white"/>
<path d="M256.406 97.6975C256.406 93.1975 256.406 88.6975 256.406 84.0975C256.406 82.4975 256.906 82.0975 258.506 81.9975C265.406 81.6975 265.406 81.5975 265.406 88.4975C265.406 93.1975 265.406 97.9975 265.406 102.697C265.406 104.797 265.806 105.597 268.106 105.497C272.706 105.297 277.406 105.497 282.006 105.397C284.406 105.397 285.206 106.097 284.906 108.297C284.806 109.197 284.806 110.097 284.906 110.897C285.106 112.497 284.606 113.197 282.806 113.197C274.706 113.097 266.706 113.197 258.606 113.197C257.006 113.197 256.506 112.697 256.506 111.097C256.506 106.597 256.506 102.097 256.506 97.4975L256.406 97.6975Z" fill="white"/>
<path d="M220.209 97.6977C220.209 102.098 220.209 106.498 220.209 110.998C220.209 112.898 219.609 113.398 217.809 113.398C211.309 113.398 211.309 113.498 211.309 107.198C211.309 100.898 211.309 92.1977 211.309 84.6977C211.309 82.5977 211.909 82.0977 213.909 82.0977C220.309 82.0977 220.309 82.0977 220.309 88.4977C220.309 94.8977 220.309 94.6977 220.309 97.7977L220.209 97.6977Z" fill="white"/>
<path d="M166.408 97.6C166.408 102 166.408 106.4 166.408 110.9C166.408 112.7 166.108 113.4 164.108 113.4C157.508 113.4 157.508 113.6 157.508 107C157.508 100.4 157.508 92.6 157.508 85.5C157.508 83.1 157.908 82 160.708 82.1C166.508 82.3 166.508 82.1 166.508 88.1C166.508 94.1 166.508 94.5 166.508 97.7L166.408 97.6Z" fill="white"/>
<path d="M120.009 97.6977C120.009 102.098 120.009 106.498 120.009 110.998C120.009 112.898 119.409 113.398 117.609 113.398C111.109 113.398 111.109 113.498 111.109 107.198C111.109 100.898 111.109 92.1977 111.109 84.6977C111.109 82.5977 111.709 82.0977 113.709 82.0977C120.109 82.0977 120.109 82.0977 120.109 88.4977C120.109 94.8977 120.109 94.6977 120.109 97.7977L120.009 97.6977Z" fill="white"/>
<path d="M252.509 112.398C249.809 113.798 247.509 113.198 245.209 113.198C244.609 113.198 243.209 113.098 244.109 111.598C244.309 111.198 244.109 110.498 244.009 109.998C242.409 103.998 242.209 103.898 236.109 103.898H234.109C229.009 103.898 226.609 106.398 226.709 111.798C226.709 113.498 225.409 113.698 222.309 112.398C224.109 111.398 225.009 109.798 225.709 108.098C229.109 99.6984 232.509 91.3984 236.009 82.9984C236.309 82.1984 236.309 80.8984 237.709 80.8984C239.109 80.8984 239.109 82.1984 239.409 82.9984C242.709 91.3984 246.009 99.7984 249.309 108.098C249.909 109.698 250.609 111.298 252.609 112.398H252.509ZM235.409 88.3984C233.409 93.1984 231.709 97.3984 229.909 101.798H240.709C239.009 97.3984 237.309 93.1984 235.409 88.3984Z" fill="white"/>
<path d="M109.01 129.702C109.01 133.202 109.01 136.702 109.01 140.302C109.01 141.302 109.21 142.202 107.61 142.302C105.91 142.302 105.91 141.502 105.91 140.202C105.91 136.102 105.91 132.002 105.91 128.002C105.91 127.002 105.21 125.502 106.81 125.302C108.21 125.102 109.81 124.802 111.01 126.402C113.61 130.002 116.41 133.402 119.11 136.902C119.41 137.202 119.31 137.802 119.41 138.202L120.51 137.502C120.51 134.302 120.51 131.002 120.51 127.802C120.51 126.702 119.91 125.202 122.01 125.202C124.01 125.202 123.61 126.602 123.61 127.702C123.61 131.602 123.61 135.402 123.61 139.302C123.61 140.302 124.51 142.002 122.61 142.202C121.21 142.402 119.71 142.602 118.51 141.002C115.71 137.102 112.61 133.402 109.71 129.602C109.51 129.602 109.21 129.702 109.01 129.802V129.702Z" fill="white"/>
<path d="M20.8117 129.599C20.8117 133.099 20.8117 136.599 20.8117 140.099C20.8117 141.299 20.8117 142.199 19.1117 142.099C17.5117 142.099 17.7117 141.099 17.7117 140.099C17.7117 136.099 17.7117 132.199 17.7117 128.199C17.7117 127.099 16.9117 125.499 18.5117 124.999C20.2117 124.599 21.8117 124.699 23.1117 126.599C25.8117 130.299 28.7117 133.899 32.2117 137.299C32.2117 133.999 32.2117 130.599 32.2117 127.299C32.2117 126.299 31.7117 124.999 33.6117 124.899C35.6117 124.799 35.3117 126.099 35.3117 127.299C35.3117 131.199 35.3117 134.999 35.3117 138.899C35.3117 139.899 36.2117 141.599 34.4117 141.899C32.8117 142.199 31.3117 142.199 30.1117 140.499C27.3117 136.699 24.4117 132.999 21.5117 129.299C21.3117 129.299 21.0117 129.299 20.8117 129.399V129.599Z" fill="white"/>
<path d="M159.509 136.1C158.009 136.1 156.609 136.1 155.209 136.1C154.409 136.1 154.009 135.7 154.009 134.9C154.009 134.1 154.409 133.7 155.209 133.7C157.309 133.7 159.409 133.7 161.509 133.7C162.609 133.7 162.809 134.3 162.809 135.2C162.809 137.1 162.809 139 162.809 140.8C162.809 141.3 162.809 142 162.209 142.1C161.709 142.1 160.709 142.1 160.709 141.9C160.109 138.5 158.509 141.2 157.709 141.6C153.209 143.8 147.109 142.3 144.809 138.3C142.509 134.3 143.609 129 147.309 126.5C151.509 123.7 158.509 124.5 161.209 128.1C161.909 129 163.209 130.3 162.209 131.2C161.109 132.1 159.809 131.5 158.809 130C157.109 127.5 153.509 126.9 150.509 128.1C147.709 129.2 146.809 131.5 147.009 134.2C147.209 137 148.709 139 151.509 139.6C155.409 140.5 157.909 139.5 159.609 136.2L159.509 136.1Z" fill="white"/>
<path d="M223.609 124.902C229.609 124.902 233.509 128.202 233.509 133.502C233.509 138.902 229.409 142.702 223.609 142.702C217.909 142.702 213.809 138.902 213.809 133.802C213.809 128.602 217.709 125.002 223.609 125.002V124.902ZM230.309 133.702C230.309 129.902 227.809 127.502 223.809 127.502C219.909 127.502 217.009 130.102 217.009 133.702C217.009 137.202 219.709 139.602 223.609 139.602C227.809 139.602 230.309 137.502 230.309 133.702Z" fill="white"/>
<path d="M79.6086 133.801C79.6086 139.001 75.3086 142.701 69.6086 142.601C63.9086 142.601 59.8086 138.801 59.8086 133.601C59.8086 128.101 63.9086 124.801 70.3086 124.901C75.9086 124.901 79.6086 128.601 79.5086 133.901L79.6086 133.801ZM76.4086 133.701C76.4086 129.901 73.9086 127.501 69.8086 127.501C65.9086 127.501 63.0086 130.101 63.1086 133.701C63.1086 137.201 65.8086 139.601 69.7086 139.601C73.9086 139.601 76.4086 137.501 76.4086 133.701Z" fill="white"/>
<path d="M174.71 124.902C180.71 124.902 184.51 128.302 184.51 133.602C184.51 138.802 180.51 142.502 174.81 142.602C169.01 142.602 164.71 138.702 164.81 133.502C164.81 128.202 168.81 124.902 174.71 124.902ZM174.81 139.702C179.01 139.702 181.31 137.402 181.31 133.502C181.31 129.902 178.71 127.602 174.81 127.602C170.91 127.602 168.01 130.102 168.01 133.702C168.01 137.302 170.81 139.702 174.81 139.702Z" fill="white"/>
<path d="M251.711 130.001C250.311 130.201 249.111 130.401 247.911 129.001C246.111 126.701 243.311 127.201 240.811 127.801C239.911 128.001 239.211 128.701 239.211 129.701C239.211 130.901 240.011 131.401 241.111 131.601C243.711 132.001 246.411 132.301 248.911 133.001C252.211 133.901 253.211 137.501 251.011 140.101C247.811 143.801 239.111 143.301 236.511 139.301C236.111 138.601 234.811 137.601 236.111 136.801C236.911 136.301 238.111 136.101 239.011 137.401C241.111 140.501 244.211 140.201 247.311 139.401C248.311 139.101 249.011 138.401 248.911 137.201C248.811 136.201 248.111 135.701 247.111 135.501C244.611 135.101 242.111 134.701 239.611 134.201C237.411 133.801 236.111 132.501 236.011 130.101C235.911 127.801 237.111 126.401 239.111 125.501C244.411 123.101 250.311 125.201 251.611 130.001H251.711Z" fill="white"/>
<path d="M97.3092 130.1C95.9092 130.1 94.7092 130.7 93.7092 129.3C91.9092 126.7 89.3092 127.2 86.8092 127.6C85.7092 127.8 84.7092 128.5 84.7092 129.8C84.7092 130.9 85.7092 131.401 86.8092 131.501C89.3092 131.901 91.8092 132.2 94.3092 132.8C95.8092 133.1 97.3092 133.901 97.5092 135.701C97.7092 137.501 97.5092 139.201 96.0092 140.501C92.4092 143.501 84.7092 142.9 82.1092 139.3C81.6092 138.6 80.5092 137.5 81.4092 136.8C82.2092 136.2 83.6092 136.001 84.5092 137.401C86.6092 140.401 89.6092 140.1 92.6092 139.3C93.6092 139 94.4092 138.401 94.3092 137.201C94.3092 136.001 93.5092 135.5 92.4092 135.3C89.9092 134.9 87.4092 134.501 84.9092 134.001C82.9092 133.601 81.6092 132.3 81.4092 130.1C81.2092 127.8 82.4092 126.401 84.3092 125.401C89.5092 122.901 95.4092 124.901 97.1092 129.901L97.3092 130.1Z" fill="white"/>
<path d="M130.41 139.5C133.41 139.5 136.51 139.5 139.61 139.5C140.61 139.5 141.61 139.3 141.61 140.9C141.61 142.6 140.41 142.2 139.51 142.2C135.91 142.2 132.21 142.2 128.61 142.2C126.81 142.2 126.51 141.5 126.91 140.1C128.11 135.9 128.11 131.7 126.91 127.4C126.51 125.8 126.91 125 128.81 125.1C132.31 125.2 135.91 125.1 139.41 125.1C140.41 125.1 141.51 124.8 141.51 126.4C141.51 128 140.51 127.8 139.51 127.8C137.11 127.8 134.61 127.8 132.21 127.8C131.21 127.8 129.91 127.6 130.41 129.2C130.71 130.3 129.81 132.4 132.31 132.3C134.61 132.3 136.91 132.3 139.31 132.3C140.41 132.3 140.91 132.6 140.91 133.8C140.91 135 140.21 135 139.41 135C138.01 135 136.51 135.2 135.11 135C131.41 134.3 130.01 135.9 130.41 139.7V139.5Z" fill="white"/>
<path d="M3.60986 139.499C6.50986 139.499 9.60986 139.499 12.7099 139.499C13.6099 139.499 14.8099 138.999 14.8099 140.699C14.8099 142.299 13.9099 142.099 12.9099 142.099C9.30985 142.099 5.60986 142.099 2.00986 142.099C0.409858 142.099 -0.290145 141.799 0.209855 140.099C1.40986 135.799 1.30986 131.399 0.209855 127.099C-0.190145 125.499 0.309858 124.899 2.00986 124.999C5.60986 124.999 9.30985 124.999 12.9099 124.999C14.0099 124.999 14.9099 124.999 14.8099 126.499C14.8099 127.899 13.8099 127.699 12.9099 127.699C10.5099 127.699 8.00986 127.699 5.60986 127.699C4.50986 127.699 3.10986 127.499 3.70986 129.299C4.00986 130.499 3.30986 132.399 5.80986 132.199C8.00986 131.999 10.2099 132.199 12.4099 132.199C13.4099 132.199 14.1099 132.199 14.2099 133.499C14.2099 134.899 13.4099 134.799 12.5099 134.799C11.2099 134.799 9.80986 134.999 8.50986 134.799C5.00986 134.299 3.10986 135.299 3.70986 139.499H3.60986Z" fill="white"/>
<path d="M196.411 124.899C200.111 124.699 203.111 125.999 205.011 129.299C205.411 129.999 206.511 131.199 205.211 131.799C204.311 132.299 202.911 132.399 202.211 130.799C201.311 128.499 199.211 127.699 196.811 127.599C193.411 127.399 191.111 128.899 190.211 131.899C189.411 134.899 190.411 137.599 192.911 138.999C195.511 140.399 199.711 139.799 201.411 137.699C201.711 137.299 202.011 136.799 202.211 136.299C202.811 134.799 204.211 135.199 205.011 135.599C206.211 136.099 205.311 137.099 205.011 137.799C203.211 141.899 197.811 143.699 192.711 142.099C188.711 140.899 186.111 136.599 186.711 132.599C187.511 127.699 190.911 124.999 196.311 124.999L196.411 124.899Z" fill="white"/>
<path d="M44.91 133.5C44.91 131.4 44.91 129.3 44.91 127.2C44.91 126.1 44.81 125 46.51 125C48.11 125 48.31 125.8 48.21 127.1C48.21 130.4 48.21 133.7 48.21 137C48.21 138.8 48.61 139.6 50.51 139.4C52.91 139.2 55.41 139.4 57.81 139.4C58.81 139.4 59.81 139.4 59.71 140.9C59.71 142.3 58.71 142.1 57.91 142.1C56.51 142.1 55.01 142.1 53.61 142.1C50.81 141.9 47.01 143.3 45.41 141.5C44.01 139.9 45.11 136.2 45.11 133.5C45.11 133.5 45.01 133.5 44.91 133.5Z" fill="white"/>
<path d="M211.509 133.8C211.509 136 211.509 138.2 211.509 140.4C211.509 141.7 211.109 142.2 209.809 142.2C208.509 142.2 208.109 141.8 208.109 140.5C208.109 136 208.109 131.4 208.109 126.9C208.109 125.7 208.309 125 209.709 125C211.009 125 211.509 125.5 211.409 126.8C211.409 129.1 211.409 131.4 211.409 133.8H211.509Z" fill="white"/>
</svg>
