<svg width="1477" height="926" viewBox="0 0 1477 926" fill="none" xmlns="http://www.w3.org/2000/svg">
<path d="M863.779 240.67C855.606 242.13 847.429 243.557 839.249 244.95C836.436 245.43 833.302 245.027 829.849 243.74C820.809 240.38 818.149 231.06 821.589 222.5C823.289 218.27 826.989 214.46 831.559 213.65C869.212 206.977 904.932 200.723 938.719 194.89C939.459 194.763 939.516 194.49 938.889 194.07C914.449 177.797 888.986 164.137 862.499 153.09C837.339 142.597 810.676 134.713 782.509 129.44C775.942 128.207 769.289 127.247 762.549 126.56C743.816 124.653 725.366 124.353 707.199 125.66C693.259 126.667 679.036 128.977 664.529 132.59C645.989 137.203 628.932 143.053 613.359 150.14C597.406 157.407 581.342 166.413 565.169 177.16C548.476 188.267 533.706 200.483 520.859 213.81C518.486 216.27 516.176 217.94 513.929 218.82C499.789 224.37 487.469 210.1 493.379 197.05C494.479 194.617 496.712 191.74 500.079 188.42C514.499 174.17 531.839 160.64 549.399 148.9C580.819 127.893 614.192 112.617 649.519 103.07C694.709 90.8699 742.949 89.8199 790.239 98.1299C850.619 109.08 908.049 134.43 958.849 168.16C958.899 168.193 958.957 168.212 959.017 168.213C959.077 168.214 959.136 168.197 959.186 168.166C959.237 168.134 959.278 168.088 959.303 168.034C959.328 167.98 959.337 167.919 959.329 167.86C954.842 136.773 950.286 105.147 945.659 72.9799C944.769 66.7999 946.619 61.0899 951.709 57.2599C957.123 53.1866 963.376 53.0099 970.469 56.7299C974.099 58.6399 976.539 62.1999 977.119 66.2499C983.672 111.763 990.059 156.08 996.279 199.2C997.219 205.69 995.669 213.33 990.159 217.32C988.632 218.427 985.902 219.32 981.969 220C942.562 226.86 903.166 233.75 863.779 240.67Z" fill="white"/>
<path d="M903.52 341.809C911.666 341.809 918.27 335.205 918.27 327.059C918.27 318.912 911.666 312.309 903.52 312.309C895.373 312.309 888.77 318.912 888.77 327.059C888.77 335.205 895.373 341.809 903.52 341.809Z" fill="white"/>
<path d="M1045.16 341.809C1053.31 341.809 1059.91 335.205 1059.91 327.059C1059.91 318.912 1053.31 312.309 1045.16 312.309C1037.01 312.309 1030.41 318.912 1030.41 327.059C1030.41 335.205 1037.01 341.809 1045.16 341.809Z" fill="white"/>
<path d="M623.699 384.988C619.599 416.808 590.129 434.868 559.989 435.408C547.629 435.628 534.969 435.702 522.009 435.628C519.462 435.615 516.845 435.545 514.159 435.418C513.973 435.411 513.798 435.332 513.669 435.2C513.541 435.068 513.469 434.891 513.469 434.708L513.479 315.778C513.479 315.718 513.491 315.659 513.514 315.604C513.537 315.548 513.571 315.498 513.614 315.456C513.657 315.415 513.708 315.382 513.763 315.36C513.819 315.338 513.879 315.327 513.939 315.328C526.719 315.355 539.955 315.365 553.649 315.358C579.709 315.348 607.009 322.938 618.999 348.578C624.069 359.438 625.239 373.028 623.699 384.988ZM539.959 340.218V410.738C539.959 410.807 539.986 410.873 540.035 410.922C540.084 410.971 540.15 410.998 540.219 410.998H560.339C570.009 410.998 579.282 407.533 586.12 401.365C592.957 395.197 596.799 386.831 596.799 378.108V372.848C596.799 364.125 592.957 355.76 586.12 349.592C579.282 343.423 570.009 339.958 560.339 339.958H540.219C540.15 339.958 540.084 339.986 540.035 340.034C539.986 340.083 539.959 340.149 539.959 340.218Z" fill="white"/>
<path d="M727.438 399.942C723.768 428.262 697.128 441.812 670.628 436.402C666.348 435.548 662.448 434.205 658.928 432.372C643.008 424.052 634.808 408.312 636.228 390.572C640.578 336.272 727.558 338.012 727.768 394.752C727.768 395.598 727.658 397.328 727.438 399.942ZM702.11 391.941C702.102 389.522 701.617 387.129 700.683 384.897C699.75 382.665 698.386 380.64 696.67 378.935C694.953 377.231 692.918 375.881 690.68 374.963C688.442 374.045 686.045 373.577 683.626 373.586L680.026 373.598C677.607 373.607 675.213 374.091 672.982 375.025C670.75 375.958 668.724 377.322 667.02 379.039C665.315 380.755 663.966 382.79 663.048 385.028C662.13 387.267 661.662 389.663 661.67 392.082L661.686 396.722C661.695 399.141 662.18 401.535 663.113 403.766C664.047 405.998 665.411 408.024 667.127 409.728C668.843 411.433 670.879 412.783 673.117 413.7C675.355 414.618 677.752 415.086 680.171 415.078L683.771 415.065C686.19 415.057 688.583 414.572 690.815 413.639C693.046 412.705 695.072 411.341 696.777 409.625C698.481 407.908 699.831 405.873 700.749 403.635C701.667 401.397 702.135 399 702.126 396.581L702.11 391.941Z" fill="white"/>
<path d="M742.68 386.431L742.77 353.531C742.77 353.198 742.933 353.031 743.26 353.031L766.73 353.021C766.852 353.021 766.969 353.069 767.055 353.156C767.141 353.242 767.19 353.359 767.19 353.481L767.2 363.301C767.2 364.181 767.426 364.241 767.88 363.481C769.353 360.994 771.396 358.701 774.01 356.601C783.183 350.534 793.1 349.434 803.76 353.301C809.893 355.528 814.256 359.514 816.85 365.261C816.875 365.314 816.914 365.359 816.963 365.392C817.012 365.425 817.068 365.444 817.126 365.447C817.184 365.451 817.241 365.438 817.291 365.41C817.341 365.382 817.382 365.341 817.41 365.291C821.763 357.444 828.043 352.878 836.25 351.591C843.036 350.524 849.193 350.931 854.72 352.811C869.12 357.721 872.39 373.101 872.44 386.871C872.493 400.651 872.503 416.461 872.47 434.301C872.47 435.081 872.083 435.471 871.31 435.471L847.77 435.611C847.664 435.612 847.559 435.593 847.46 435.553C847.362 435.513 847.273 435.455 847.198 435.38C847.122 435.306 847.062 435.217 847.022 435.119C846.981 435.022 846.96 434.917 846.96 434.811C847.053 418.104 847.036 402.048 846.91 386.641C846.896 384.968 846.61 383.111 846.05 381.071C844.73 376.311 841.74 373.781 837.08 373.481C823.83 372.621 820.25 382.141 820.27 393.251C820.303 407.164 820.29 421.078 820.23 434.991C820.23 435.338 820.053 435.511 819.7 435.511L795.74 435.581C795.619 435.581 795.5 435.557 795.389 435.511C795.278 435.464 795.177 435.396 795.093 435.311C795.008 435.225 794.941 435.124 794.896 435.012C794.851 434.901 794.828 434.781 794.83 434.661C794.97 418.474 794.946 402.751 794.76 387.491C794.66 379.411 791.12 372.691 781.79 373.441C771.53 374.271 768.29 382.431 768.23 391.371C768.143 406.044 768.153 420.564 768.26 434.931C768.261 435.005 768.247 435.079 768.219 435.148C768.191 435.217 768.149 435.28 768.096 435.333C768.043 435.386 767.98 435.429 767.91 435.457C767.84 435.486 767.765 435.501 767.69 435.501L743.46 435.581C743.364 435.582 743.27 435.564 743.181 435.528C743.093 435.492 743.012 435.439 742.944 435.371C742.876 435.303 742.822 435.222 742.785 435.133C742.749 435.043 742.73 434.948 742.73 434.851L742.68 386.431Z" fill="white"/>
<path d="M959.709 363.69C960.179 363.13 960.469 362.26 960.909 361.71C968.749 351.95 980.339 349.56 992.229 351.81C1008.77 354.95 1013.63 369.28 1013.87 384.51C1014.1 399.597 1014.16 416.477 1014.05 435.15C1014.04 435.424 1013.9 435.56 1013.63 435.56L989.289 435.55C989.11 435.55 988.939 435.479 988.812 435.352C988.684 435.225 988.612 435.052 988.609 434.87C988.596 421.884 988.619 409.04 988.679 396.34C988.729 384.61 987.989 371.31 971.869 373.69C960.459 375.38 959.999 387.68 960.029 396.52C960.076 408 960.119 418.774 960.159 428.84C960.172 430.914 960.099 432.937 959.939 434.91C959.906 435.317 959.686 435.52 959.279 435.52L935.489 435.6C935.261 435.6 935.042 435.51 934.881 435.348C934.72 435.187 934.629 434.968 934.629 434.74L934.649 353.57C934.649 353.217 934.826 353.04 935.179 353.04L958.519 353.01C958.852 353.01 959.022 353.18 959.029 353.52L959.059 363.45C959.066 364.117 959.282 364.197 959.709 363.69Z" fill="white"/>
<path d="M1073.81 397.29C1072.13 364.91 1100.28 345.87 1130.6 352.32C1137.74 353.84 1143.69 356.924 1148.46 361.57C1148.77 361.87 1148.78 362.18 1148.48 362.5L1132.64 379.14C1132.33 379.454 1132.03 379.447 1131.74 379.12C1126.83 373.687 1120.4 372.117 1112.47 374.41C1100.92 377.76 1097.3 390.27 1100.03 400.98C1102.08 409.02 1107.43 413.697 1116.09 415.01C1122.79 416.02 1127.2 413.95 1131.69 409.4C1132 409.087 1132.3 409.09 1132.61 409.41L1148.51 426.18C1148.78 426.46 1148.77 426.73 1148.5 426.99C1145.05 430.37 1141.3 432.797 1137.25 434.27C1124.45 438.924 1111.83 438.71 1099.39 433.63C1084.41 427.51 1074.65 413.42 1073.81 397.29Z" fill="white"/>
<path d="M1209.17 425.811C1204.04 433.191 1196.43 436.391 1187.62 437.311C1169.61 439.191 1152.63 429.511 1154.13 409.511C1155.11 396.461 1164.59 389.331 1176.39 386.271C1187.08 383.501 1198.35 382.961 1209.03 383.161C1209.68 383.174 1209.97 382.861 1209.92 382.221C1209.05 371.671 1199.54 367.271 1189.87 368.591C1183.68 369.444 1178.11 372.514 1173.18 377.801C1173.14 377.846 1173.09 377.882 1173.04 377.908C1172.98 377.933 1172.92 377.946 1172.86 377.947C1172.8 377.948 1172.73 377.937 1172.68 377.913C1172.62 377.89 1172.57 377.855 1172.52 377.811L1159.6 364.561C1159.56 364.514 1159.52 364.459 1159.5 364.399C1159.48 364.339 1159.47 364.275 1159.47 364.211C1159.47 364.147 1159.49 364.085 1159.52 364.028C1159.54 363.971 1159.58 363.921 1159.63 363.881C1173.26 352.091 1191.94 348.731 1209.23 352.431C1219.78 354.681 1227.07 361.181 1230.45 371.101C1232 375.681 1232.47 380.081 1232.92 384.741C1233.13 386.987 1233.24 389.191 1233.25 391.351C1233.28 403.397 1233.34 415.677 1233.43 428.191C1233.44 430.304 1233.37 432.674 1233.21 435.301C1233.2 435.408 1233.15 435.509 1233.07 435.582C1232.99 435.654 1232.89 435.693 1232.78 435.691L1210.31 435.481C1210.2 435.478 1210.09 435.433 1210.01 435.354C1209.94 435.276 1209.89 435.17 1209.89 435.061L1209.96 426.061C1209.97 425.127 1209.7 425.044 1209.17 425.811ZM1198.74 418.911C1205.78 416.531 1209.77 411.901 1209.88 404.831C1209.91 403.104 1209.93 401.437 1209.96 399.831C1209.96 399.736 1209.92 399.645 1209.86 399.576C1209.79 399.507 1209.7 399.466 1209.6 399.461C1202.02 399.231 1182.58 398.531 1179.05 407.891C1177.08 413.121 1179.72 417.611 1185.05 419.361C1189.23 420.741 1193.79 420.591 1198.74 418.911Z" fill="white"/>
<path d="M1273.76 363.528C1273.75 364.242 1273.94 364.299 1274.32 363.699C1282.12 351.389 1297.23 348.638 1310.56 352.738C1325.59 357.368 1328.47 373.109 1328.62 386.749C1328.76 399.869 1328.8 415.925 1328.73 434.919C1328.73 435.339 1328.52 435.548 1328.1 435.548L1304.51 435.678C1304.35 435.68 1304.2 435.65 1304.05 435.59C1303.91 435.53 1303.77 435.442 1303.66 435.331C1303.55 435.219 1303.46 435.086 1303.4 434.94C1303.34 434.794 1303.31 434.637 1303.31 434.479C1303.27 419.192 1303.25 404.915 1303.26 391.648C1303.27 383.378 1301.31 373.949 1290.99 373.419C1279.96 372.859 1275.01 380.259 1274.88 390.479C1274.73 402.725 1274.7 417.589 1274.78 435.069C1274.78 435.217 1274.72 435.359 1274.62 435.464C1274.51 435.569 1274.37 435.629 1274.22 435.629L1250.55 435.599C1249.68 435.599 1249.25 435.165 1249.25 434.298L1249.28 353.629C1249.28 353.229 1249.48 353.028 1249.87 353.028L1273.15 353.039C1273.31 353.039 1273.47 353.103 1273.58 353.217C1273.7 353.332 1273.76 353.487 1273.76 353.648V363.528Z" fill="white"/>
<path d="M915.721 353.02H891.301C891.014 353.02 890.781 353.252 890.781 353.54V435C890.781 435.287 891.014 435.52 891.301 435.52H915.721C916.008 435.52 916.241 435.287 916.241 435V353.54C916.241 353.252 916.008 353.02 915.721 353.02Z" fill="white"/>
<path d="M1057.52 353.02H1032.84C1032.62 353.02 1032.45 353.194 1032.45 353.41V435.13C1032.45 435.345 1032.62 435.52 1032.84 435.52H1057.52C1057.73 435.52 1057.91 435.345 1057.91 435.13V353.41C1057.91 353.194 1057.73 353.02 1057.52 353.02Z" fill="white"/>
<path d="M176.372 355H159.652C159.298 355 159.012 355.287 159.012 355.64V434.36C159.012 434.713 159.298 435 159.652 435H176.372C176.725 435 177.012 434.713 177.012 434.36V355.64C177.012 355.287 176.725 355 176.372 355Z" fill="white"/>
<path d="M439.808 393.778L430.488 393.748C429.982 393.748 429.732 393.495 429.738 392.988L429.768 381.018C429.768 380.545 430.005 380.308 430.478 380.308L439.958 380.338C440.046 380.338 440.133 380.321 440.213 380.287C440.294 380.253 440.367 380.204 440.429 380.141C440.49 380.079 440.539 380.005 440.571 379.924C440.604 379.843 440.62 379.756 440.618 379.668L440.538 364.518C440.538 364.404 440.585 364.295 440.667 364.214C440.75 364.133 440.862 364.088 440.978 364.088L457.028 364.078C457.145 364.078 457.257 364.126 457.34 364.21C457.422 364.294 457.468 364.409 457.468 364.528L457.428 379.478C457.428 379.69 457.513 379.894 457.663 380.044C457.813 380.194 458.016 380.278 458.228 380.278L471.518 380.248C472.038 380.248 472.298 380.505 472.298 381.018L472.308 393.228C472.308 393.588 472.128 393.768 471.768 393.768L457.998 393.758C457.625 393.758 457.438 393.941 457.438 394.308C457.425 400.641 457.445 407.315 457.498 414.328C457.538 419.601 460.095 422.231 465.168 422.218C467.668 422.211 469.935 421.815 471.968 421.028C472.182 420.948 472.288 421.021 472.288 421.248L472.258 434.248C472.259 434.408 472.206 434.564 472.108 434.691C472.011 434.818 471.873 434.908 471.718 434.948C461.668 437.588 446.668 437.718 441.668 426.618C440.795 424.665 440.405 420.478 440.498 414.058C440.598 407.305 440.615 400.788 440.548 394.508C440.542 394.021 440.295 393.778 439.808 393.778Z" fill="white"/>
<path d="M207.73 387.11C212.49 380.13 219.89 378.17 228.08 379.27C241.15 381.02 243.6 392.55 243.69 403.5C243.777 413.554 243.774 423.844 243.68 434.37C243.68 434.797 243.467 435.01 243.04 435.01H227.23C227.119 435.01 227.012 434.966 226.933 434.887C226.855 434.809 226.81 434.702 226.81 434.59C226.83 424.69 226.844 415.09 226.85 405.79C226.86 399.8 225.18 393.66 217.83 393.78C209.3 393.93 207.78 400.96 207.84 407.87C207.927 416.317 207.957 425.124 207.93 434.29C207.93 434.386 207.912 434.481 207.875 434.57C207.838 434.658 207.784 434.739 207.717 434.807C207.649 434.874 207.568 434.928 207.48 434.965C207.391 435.002 207.296 435.02 207.2 435.02L191.99 435C191.858 435 191.726 434.974 191.604 434.924C191.481 434.873 191.37 434.798 191.276 434.705C191.183 434.611 191.108 434.499 191.057 434.377C191.007 434.254 190.98 434.123 190.98 433.99L191.01 380.54C191.01 380.506 191.017 380.472 191.03 380.441C191.043 380.409 191.062 380.381 191.087 380.357C191.111 380.332 191.139 380.313 191.171 380.3C191.203 380.287 191.236 380.28 191.27 380.28L206.76 380.27C207.094 380.27 207.257 380.434 207.25 380.76L207.23 386.95C207.224 387.557 207.39 387.61 207.73 387.11Z" fill="white"/>
<path d="M333.591 413.731C334.951 418.501 338.261 422.251 343.281 423.231C349.095 424.358 353.928 422.441 357.781 417.481C357.907 417.315 358.092 417.205 358.298 417.175C358.504 417.145 358.714 417.197 358.881 417.321L369.561 425.211C369.915 425.471 369.948 425.768 369.661 426.101C360.401 436.671 345.541 438.901 333.011 433.401C324.891 429.841 318.911 422.541 317.271 413.971C313.421 393.801 327.881 378.351 347.901 379.021C362.381 379.501 371.481 389.711 372.421 403.841C372.621 406.781 372.691 409.628 372.631 412.381C372.626 412.529 372.565 412.668 372.46 412.771C372.356 412.874 372.216 412.931 372.071 412.931L334.201 412.911C333.641 412.911 333.438 413.184 333.591 413.731ZM333.861 401.561L355.741 401.401C355.785 401.398 355.825 401.379 355.855 401.348C355.885 401.316 355.901 401.274 355.901 401.231V401.121C355.882 398.443 354.709 395.883 352.64 394.004C350.572 392.125 347.777 391.081 344.871 391.101H344.571C343.132 391.111 341.708 391.382 340.381 391.899C339.055 392.416 337.852 393.169 336.84 394.114C335.829 395.06 335.029 396.179 334.487 397.409C333.945 398.639 333.671 399.954 333.681 401.281L333.691 401.391C333.691 401.436 333.709 401.479 333.741 401.511C333.773 401.543 333.816 401.561 333.861 401.561Z" fill="white"/>
<path d="M399.012 393.492C396.742 395.672 397.992 398.842 400.802 399.692C411.922 403.042 427.022 403.242 426.282 419.322C425.482 436.902 402.672 438.002 390.512 434.962C386.572 433.975 383.095 432.135 380.082 429.442C380.02 429.387 379.969 429.32 379.934 429.245C379.898 429.171 379.877 429.09 379.872 429.007C379.867 428.924 379.879 428.842 379.907 428.763C379.934 428.685 379.976 428.613 380.032 428.552L389.592 417.862C389.624 417.825 389.663 417.796 389.708 417.777C389.753 417.757 389.801 417.747 389.85 417.748C389.9 417.749 389.948 417.761 389.994 417.782C390.039 417.803 390.079 417.834 390.112 417.872C394.545 423.098 400.138 424.728 406.892 422.762C409.602 421.962 410.522 418.782 408.232 416.952C407.252 416.172 406.158 415.628 404.952 415.322C395.692 413.002 382.172 411.912 381.112 399.382C379.502 380.232 400.602 376.532 414.462 380.442C417.682 381.348 420.652 382.948 423.372 385.242C423.494 385.344 423.594 385.471 423.664 385.614C423.735 385.758 423.774 385.915 423.78 386.075C423.785 386.235 423.757 386.395 423.697 386.545C423.637 386.694 423.547 386.829 423.432 386.942L414.352 395.872C414.289 395.933 414.215 395.981 414.133 396.013C414.052 396.045 413.965 396.06 413.877 396.058C413.79 396.057 413.704 396.037 413.624 396.002C413.544 395.966 413.472 395.915 413.412 395.852C410.518 392.738 406.925 391.412 402.632 391.872C401.185 392.032 399.978 392.572 399.012 393.492Z" fill="white"/>
<path d="M282.131 417.15C282.2 417.153 282.268 417.133 282.326 417.094C282.384 417.054 282.428 416.997 282.451 416.93L294.921 380.75C295.014 380.47 295.208 380.33 295.501 380.33L311.561 380.28C311.616 380.279 311.671 380.292 311.72 380.317C311.769 380.343 311.811 380.381 311.842 380.427C311.874 380.473 311.894 380.527 311.901 380.583C311.907 380.639 311.901 380.696 311.881 380.75L290.621 434.54C290.569 434.675 290.477 434.791 290.357 434.873C290.238 434.955 290.096 434.999 289.951 435H273.001C272.708 435 272.508 434.866 272.401 434.6L250.141 380.79C250.116 380.733 250.106 380.671 250.111 380.61C250.116 380.548 250.136 380.489 250.17 380.437C250.203 380.385 250.25 380.343 250.304 380.314C250.359 380.284 250.419 380.269 250.481 380.27L267.551 380.31C267.938 380.31 268.201 380.49 268.341 380.85C272.848 392.903 277.334 404.926 281.801 416.92C281.854 417.066 281.964 417.143 282.131 417.15Z" fill="white"/>
<path d="M395.632 468.611C401.033 468.611 405.412 464.232 405.412 458.831C405.412 453.429 401.033 449.051 395.632 449.051C390.23 449.051 385.852 453.429 385.852 458.831C385.852 464.232 390.23 468.611 395.632 468.611Z" fill="white"/>
<path d="M1054.33 451H1029.67C1029.3 451 1029 451.3 1029 451.67V579.33C1029 579.7 1029.3 580 1029.67 580H1054.33C1054.7 580 1055 579.7 1055 579.33V451.67C1055 451.3 1054.7 451 1054.33 451Z" fill="white"/>
<path d="M950.96 505.6C956.4 498.88 964.07 496.42 972.56 495.65C998.43 493.32 1013.82 515.11 1014.23 538.77C1014.58 559.56 1002.93 577.68 981.58 581.37C968.81 583.57 956.65 579.84 948.91 569.88C948.31 569.106 948.01 569.21 948.01 570.19V579.37C948.01 579.796 947.796 580.01 947.37 580.01L925.07 580C924.953 580 924.841 579.953 924.759 579.871C924.676 579.788 924.63 579.676 924.63 579.56L924.59 452.26C924.59 452.106 924.651 451.958 924.76 451.85C924.868 451.741 925.016 451.68 925.17 451.68L949.5 451.72C949.853 451.72 950.03 451.896 950.03 452.25V505.27C950.03 506.256 950.34 506.366 950.96 505.6ZM988.6 536.42C988.6 531.534 986.659 526.849 983.205 523.395C979.75 519.94 975.065 518 970.18 518H966.6C961.715 518 957.029 519.94 953.575 523.395C950.12 526.849 948.18 531.534 948.18 536.42V541.1C948.18 545.985 950.12 550.67 953.575 554.125C957.029 557.579 961.715 559.52 966.6 559.52H970.18C975.065 559.52 979.75 557.579 983.205 554.125C986.659 550.67 988.6 545.985 988.6 541.1V536.42Z" fill="white"/>
<path d="M1086.43 486.258C1094.58 486.258 1101.19 479.65 1101.19 471.498C1101.19 463.347 1094.58 456.738 1086.43 456.738C1078.28 456.738 1071.67 463.347 1071.67 471.498C1071.67 479.65 1078.28 486.258 1086.43 486.258Z" fill="white"/>
<path d="M539.969 532.632L539.979 578.782C539.979 579.622 539.559 580.042 538.719 580.042H514.259C513.739 580.042 513.479 579.782 513.479 579.262L513.469 460.232C513.469 460.107 513.518 459.988 513.606 459.899C513.695 459.811 513.814 459.762 513.939 459.762C529.112 459.768 544.305 459.775 559.519 459.782C584.389 459.792 605.979 468.482 605.279 497.482C604.889 513.602 596.199 525.712 579.679 529.202C579.641 529.209 579.605 529.225 579.575 529.249C579.545 529.274 579.52 529.305 579.505 529.34C579.489 529.375 579.482 529.414 579.485 529.453C579.487 529.491 579.499 529.529 579.519 529.562L609.659 579.612C609.681 579.651 609.693 579.695 609.694 579.74C609.694 579.786 609.682 579.83 609.66 579.87C609.638 579.909 609.606 579.942 609.567 579.965C609.528 579.988 609.484 580.001 609.439 580.002L578.559 580.012C578.432 580.012 578.308 579.978 578.199 579.913C578.09 579.848 578 579.754 577.939 579.642L553.309 532.482C553.23 532.331 553.111 532.205 552.965 532.117C552.819 532.028 552.65 531.982 552.479 531.982H540.619C540.185 531.982 539.969 532.198 539.969 532.632ZM539.969 482.572L539.929 509.192C539.929 509.231 539.937 509.27 539.952 509.307C539.967 509.343 539.989 509.376 540.017 509.404C540.045 509.432 540.078 509.454 540.114 509.469C540.15 509.484 540.189 509.492 540.229 509.492L562.249 509.532C564.288 509.535 566.307 509.219 568.191 508.601C570.076 507.983 571.788 507.076 573.232 505.931C574.675 504.786 575.82 503.425 576.602 501.928C577.384 500.43 577.787 498.824 577.789 497.202V494.682C577.792 491.407 576.161 488.265 573.255 485.945C570.348 483.625 566.404 482.319 562.289 482.312L540.269 482.272C540.189 482.272 540.113 482.303 540.057 482.36C540 482.416 539.969 482.492 539.969 482.572Z" fill="white"/>
<path d="M432.418 482.519C432.405 483.272 432.612 483.339 433.038 482.719C438.008 475.459 446.448 473.629 454.918 475.379C466.628 477.799 468.808 488.899 468.898 499.009C469.005 510.155 469.018 520.599 468.938 530.339C468.938 530.453 468.893 530.562 468.812 530.643C468.732 530.723 468.622 530.769 468.508 530.769L452.798 530.759C452.688 530.759 452.58 530.737 452.478 530.694C452.377 530.652 452.285 530.59 452.208 530.512C452.131 530.434 452.07 530.341 452.029 530.239C451.987 530.137 451.967 530.028 451.968 529.919C452.088 520.079 452.078 510.032 451.938 499.779C451.888 495.619 450.178 490.739 445.568 489.809C436.208 487.919 433.108 494.909 433.088 502.749C433.075 511.602 433.088 520.762 433.128 530.229C433.128 530.39 433.064 530.545 432.95 530.66C432.835 530.774 432.68 530.839 432.518 530.839L416.868 530.759C416.701 530.759 416.541 530.691 416.423 530.571C416.305 530.451 416.238 530.288 416.238 530.119L416.248 476.769C416.248 476.275 416.492 476.029 416.978 476.029H431.768C432.262 476.029 432.505 476.275 432.498 476.769L432.418 482.519Z" fill="white"/>
<path d="M403.579 476.039H387.679C387.414 476.039 387.199 476.254 387.199 476.519V530.299C387.199 530.564 387.414 530.779 387.679 530.779H403.579C403.844 530.779 404.059 530.564 404.059 530.299V476.519C404.059 476.254 403.844 476.039 403.579 476.039Z" fill="white"/>
<path d="M666.691 495.568C675.744 496.168 683.331 499.275 689.451 504.888C701.161 515.628 702.741 531.388 702.221 546.258C702.207 546.578 702.044 546.738 701.731 546.738L643.711 546.698C643.641 546.698 643.571 546.713 643.508 546.744C643.445 546.774 643.39 546.818 643.346 546.873C643.303 546.928 643.273 546.992 643.258 547.061C643.243 547.129 643.244 547.2 643.261 547.268C645.821 557.498 653.541 563.258 663.941 562.668C670.881 562.268 676.071 558.538 680.181 553.178C680.427 552.858 680.714 552.818 681.041 553.058L697.711 565.258C698.224 565.625 698.271 566.045 697.851 566.518C683.631 582.578 661.451 586.058 642.041 577.558C623.161 568.228 614.431 549.418 618.791 528.738C623.501 506.448 644.551 494.258 666.691 495.568ZM643.711 529.558L676.851 529.318C676.898 529.318 676.944 529.299 676.978 529.266C677.012 529.232 677.031 529.186 677.031 529.138V529.048C677.001 524.974 675.248 521.079 672.158 518.22C669.068 515.36 664.893 513.77 660.551 513.798H659.811C657.658 513.812 655.53 514.224 653.547 515.011C651.564 515.797 649.765 516.942 648.253 518.38C646.741 519.819 645.546 521.523 644.735 523.394C643.925 525.266 643.516 527.269 643.531 529.288V529.378C643.531 529.426 643.55 529.472 643.583 529.506C643.617 529.539 643.663 529.558 643.711 529.558Z" fill="white"/>
<path d="M745.54 571.948L745.57 618.218C745.572 618.29 745.559 618.361 745.532 618.428C745.506 618.495 745.466 618.556 745.416 618.607C745.366 618.658 745.306 618.699 745.24 618.726C745.173 618.754 745.102 618.768 745.031 618.768L720.81 618.738C720.627 618.736 720.451 618.661 720.322 618.53C720.193 618.399 720.12 618.222 720.12 618.038C720.27 579.588 720.37 539.358 719.98 497.978C719.98 497.87 720.024 497.765 720.101 497.688C720.177 497.612 720.282 497.568 720.391 497.568L743.25 497.478C743.285 497.477 743.32 497.483 743.353 497.496C743.386 497.509 743.416 497.529 743.441 497.554C743.466 497.579 743.486 497.609 743.5 497.643C743.513 497.676 743.52 497.712 743.521 497.748L743.51 507.748C743.51 508.362 743.704 508.432 744.091 507.958C754.041 495.828 768.63 492.778 783.19 497.678C793.897 501.285 801.537 508.395 806.11 519.008C811.3 531.048 810.88 546.498 805.49 558.808C798.67 574.388 785.03 583.648 767.54 581.778C758.88 580.848 751.86 578.508 746.35 571.668C745.81 570.988 745.54 571.082 745.54 571.948ZM784.13 536.408C784.13 531.523 782.19 526.838 778.735 523.383C775.281 519.929 770.596 517.988 765.711 517.988H762.13C757.245 517.988 752.56 519.929 749.106 523.383C745.651 526.838 743.711 531.523 743.711 536.408V541.068C743.711 545.954 745.651 550.639 749.106 554.093C752.56 557.548 757.245 559.488 762.13 559.488H765.711C770.596 559.488 775.281 557.548 778.735 554.093C782.19 550.639 784.13 545.954 784.13 541.068V536.408Z" fill="white"/>
<path d="M1115.08 541.63C1113.35 510.62 1139.75 491.47 1169.04 496.21C1177.57 497.59 1184.52 500.886 1189.9 506.1C1189.99 506.181 1190.04 506.293 1190.04 506.411C1190.04 506.528 1190 506.643 1189.92 506.73L1173.89 523.59C1173.83 523.648 1173.77 523.694 1173.69 523.726C1173.62 523.757 1173.53 523.772 1173.45 523.772C1173.37 523.771 1173.29 523.753 1173.22 523.72C1173.14 523.687 1173.08 523.639 1173.02 523.58C1170.13 520.39 1166.58 518.31 1162.24 517.96C1152.66 517.18 1144.16 521.88 1141.43 531.51C1137.64 544.88 1144.04 558.79 1159.15 559.57C1165.18 559.88 1168.96 558.09 1172.9 553.89C1173.22 553.55 1173.54 553.55 1173.87 553.89L1189.76 570.53C1189.88 570.654 1189.95 570.819 1189.94 570.99C1189.94 571.16 1189.87 571.322 1189.75 571.44C1185.64 575.433 1180.9 578.216 1175.51 579.79C1147.67 587.88 1116.83 572.92 1115.08 541.63Z" fill="white"/>
<path d="M879.76 569.508C879.76 568.755 879.56 568.695 879.16 569.328C872.48 579.858 861.36 583.118 849.28 581.698C837.29 580.288 829.15 573.518 826.52 561.458C825.44 556.505 824.88 551.755 824.84 547.208C824.707 530.322 824.683 513.925 824.77 498.018C824.77 497.678 824.943 497.508 825.29 497.508L849.8 497.488C849.917 497.488 850.029 497.536 850.111 497.62C850.194 497.704 850.24 497.819 850.24 497.938C850.14 512.758 850.16 527.685 850.3 542.718C850.37 549.458 852.26 557.928 860.25 559.358C867.4 560.638 874.61 558.138 877.16 550.708C878.153 547.808 878.66 544.735 878.68 541.488C878.773 526.055 878.787 511.568 878.72 498.028C878.72 497.682 878.893 497.508 879.24 497.508L903.74 497.498C903.803 497.498 903.865 497.511 903.924 497.536C903.982 497.56 904.035 497.596 904.079 497.642C904.124 497.687 904.159 497.741 904.183 497.801C904.208 497.86 904.22 497.924 904.22 497.988L904.23 579.518C904.23 579.648 904.177 579.773 904.083 579.865C903.99 579.957 903.863 580.008 903.73 580.008H880.51C880.003 580.008 879.75 579.755 879.75 579.248L879.76 569.508Z" fill="white"/>
<path d="M1098.69 497.5H1074.21C1073.95 497.5 1073.73 497.715 1073.73 497.98V579.54C1073.73 579.805 1073.95 580.02 1074.21 580.02H1098.69C1098.96 580.02 1099.17 579.805 1099.17 579.54V497.98C1099.17 497.715 1098.96 497.5 1098.69 497.5Z" fill="white"/>
<path d="M512.072 834.071C511.898 833.445 511.768 832.828 511.682 832.221C505.168 788.161 498.742 744.088 492.402 700.001C491.492 693.671 491.512 688.821 494.492 683.731C496.445 680.398 499.455 678.375 503.522 677.661C546.355 670.108 589.208 662.568 632.082 655.041C637.742 654.081 643.422 653.095 649.122 652.081C652.108 651.548 655.475 652.048 659.222 653.581C667.772 657.061 669.972 666.101 666.782 674.471C665.682 677.351 663.938 679.638 661.552 681.331C659.912 682.498 657.472 683.361 654.232 683.921C620.605 689.755 585.642 695.858 549.342 702.231C549.228 702.251 549.155 702.315 549.122 702.421C549.096 702.511 549.099 702.607 549.129 702.693C549.16 702.779 549.217 702.852 549.292 702.901C572.412 718.228 596.618 731.361 621.912 742.301C647.098 753.195 674.385 761.495 703.772 767.201C729.272 772.151 756.152 773.241 781.642 771.321C792.928 770.475 803.978 768.875 814.792 766.521C836.492 761.801 856.385 755.328 874.472 747.101C907.982 731.861 940.972 710.441 966.682 684.101C971.902 678.751 976.142 676.141 983.562 677.391C989.442 678.371 993.732 682.281 995.642 687.911C998.432 696.101 994.632 702.361 988.652 708.261C976.092 720.641 962.662 731.451 948.572 741.501C914.472 765.835 878.205 783.235 839.772 793.701C773.642 811.701 702.412 805.811 636.922 782.701C599.908 769.641 564.148 751.728 529.642 728.961C529.581 728.92 529.509 728.897 529.435 728.895C529.361 728.894 529.288 728.914 529.226 728.953C529.163 728.993 529.113 729.049 529.082 729.116C529.051 729.184 529.041 729.258 529.052 729.331C533.545 760.351 538.112 792.075 542.752 824.501C543.532 829.981 541.922 835.181 537.642 838.991C532.948 843.185 527.238 844.045 520.512 841.571C516.652 840.158 513.838 837.658 512.072 834.071Z" fill="white"/>
</svg>
