<svg width="1657" height="446" viewBox="0 0 1657 446" fill="none" xmlns="http://www.w3.org/2000/svg">
<g clip-path="url(#clip0_2682_8)">
<path d="M140.094 92.8315C120.204 117.111 105.904 146.461 98.5836 176.941C96.2303 186.755 95.0603 196.425 95.0736 205.951C95.0736 206.145 94.9769 206.245 94.7836 206.251L92.7636 206.271C92.7016 206.272 92.6421 206.248 92.5973 206.205C92.5526 206.162 92.5262 206.103 92.5236 206.041C92.2436 198.381 92.2769 191.931 92.6236 186.691C94.3503 160.951 100.654 136.511 111.534 113.371C133.124 67.4615 170.244 27.5815 217.274 7.77146C224.78 4.61146 232.467 2.1648 240.334 0.431463C240.807 0.331463 241.28 0.341463 241.754 0.461463C248.814 2.26146 255.65 4.3848 262.264 6.83146C273.357 10.9315 284.28 16.8948 295.034 24.7215C295.46 25.0348 295.41 25.1881 294.884 25.1815C281.177 24.9615 269.094 25.5315 258.634 26.8915C210.494 33.1381 170.98 55.1181 140.094 92.8315Z" fill="#FF009C"/>
<path d="M172.868 363.301C172.875 389.641 172.878 416.778 172.878 444.711C172.877 444.833 172.844 444.953 172.782 445.059C172.72 445.164 172.632 445.252 172.525 445.313C172.419 445.373 172.299 445.405 172.177 445.405C172.054 445.405 171.934 445.372 171.828 445.311C169.795 444.138 167.688 442.814 165.508 441.341C126.855 415.241 93.3681 384.831 65.0481 350.111C28.7481 305.601 2.8481 251.621 0.388098 193.841C-1.03857 160.281 6.15143 129.294 21.9581 100.881C35.1781 77.1111 54.3381 56.1111 77.3181 40.9211C109.791 19.4678 145.888 9.9611 185.608 12.4011C187.455 12.5144 187.538 12.9544 185.858 13.7211C171.178 20.4344 157.288 29.1344 144.188 39.8211C115.895 62.9078 96.2148 91.8544 85.1481 126.661C81.3148 138.728 78.7481 150.934 77.4481 163.281C73.6681 199.141 78.8114 233.774 92.8781 267.181C108.938 305.301 136.448 337.641 172.238 358.041C172.538 358.214 172.698 358.471 172.718 358.811C172.818 360.298 172.868 361.794 172.868 363.301Z" fill="#FF009C"/>
<path d="M178.14 353.008C150.45 330.138 130.1 299.248 120.75 264.478C120.65 264.112 120.79 263.925 121.17 263.918C139.463 263.812 158.837 263.822 179.29 263.948C186.93 263.995 193.147 263.632 197.94 262.858C238.44 256.278 267.27 220.088 264.39 179.238C263.03 160.045 255.377 143.295 241.43 128.988C230.323 117.595 216.373 110.252 199.58 106.958C195.093 106.072 188.483 105.642 179.75 105.668C173.07 105.688 165.923 105.715 158.31 105.748C157.663 105.755 157.557 105.515 157.99 105.028C191.29 67.6283 237.73 46.6083 287.83 46.4883C288.657 46.4883 289.4 46.7316 290.06 47.2183C300.907 55.2183 310.467 64.4083 318.74 74.7883C347.45 110.838 362.08 156.518 357.3 202.508C352.2 251.468 326.59 295.688 286.72 324.688C257.74 345.768 224.493 356.755 186.98 357.648C183.59 357.728 180.96 355.338 178.14 353.008Z" fill="#FF009C"/>
<path d="M710.899 202.05C685.669 196.8 666.499 179.28 657.959 155.32C652.959 141.293 651.888 125.613 654.748 108.28C659.448 79.8897 679.988 57.8897 707.508 50.4097C722.518 46.3397 740.808 46.2597 755.598 50.0597C784.448 57.4697 804.648 80.6497 809.218 109.9C812.848 133.12 808.539 157.27 793.889 175.63C782.799 189.53 768.028 198.62 750.718 202.14C737.452 204.84 724.179 204.81 710.899 202.05ZM711.209 166.72C725.329 174.25 744.739 173.53 757.639 163.33C772.859 151.29 777.208 131.69 773.288 113.43C768.228 89.8597 747.058 75.8897 722.988 80.2997C704.328 83.7097 691.898 99.0697 689.508 117.73C687.078 136.68 693.359 157.2 711.209 166.72Z" fill="#FF009C"/>
<path d="M448.88 199.521C448.84 200.861 448.097 201.454 446.65 201.301C445.517 201.174 444.91 201.111 444.83 201.111C434.477 200.944 424.117 201.094 413.75 201.561L413.78 50.1011C413.78 49.7678 413.947 49.6011 414.28 49.6011C431.68 49.5211 448.9 49.5445 465.94 49.6711C477.29 49.7511 490.4 51.1811 500.76 55.4011C515.23 61.2811 523.61 73.5111 525.76 88.8511C527.84 103.691 526.88 122.751 516.57 134.561C509.437 142.734 500.703 148.051 490.37 150.511C477.01 153.681 463.67 153.841 449.52 153.441C449.446 153.438 449.372 153.451 449.303 153.478C449.234 153.505 449.171 153.546 449.118 153.598C449.065 153.65 449.023 153.713 448.994 153.782C448.965 153.851 448.95 153.926 448.95 154.001L448.88 199.521ZM448.89 78.7311L448.97 124.211C448.97 124.267 448.992 124.32 449.031 124.36C449.071 124.399 449.124 124.421 449.18 124.421L467.36 124.381C470.44 124.376 473.489 123.858 476.332 122.856C479.176 121.853 481.759 120.387 483.934 118.54C486.109 116.693 487.833 114.502 489.007 112.091C490.182 109.681 490.784 107.098 490.78 104.491L490.76 98.2911C490.751 93.0271 488.272 87.9829 483.869 84.2678C479.466 80.5528 473.499 78.4713 467.28 78.4811L449.1 78.5211C449.044 78.5211 448.991 78.5433 448.952 78.5826C448.912 78.622 448.89 78.6754 448.89 78.7311Z" fill="#FF009C"/>
<path d="M653.062 201.692C651.209 201.318 649.689 201.128 648.503 201.122C639.576 201.088 628.282 201.245 614.622 201.592L583.122 151.752C582.822 151.272 582.389 151.032 581.823 151.032L571.253 151.042C571.067 151.042 570.889 151.114 570.758 151.244C570.626 151.373 570.552 151.549 570.552 151.732L570.443 199.022C570.529 200.555 570.133 201.308 569.253 201.282C558.379 201.002 547.496 201.022 536.602 201.342C536.256 201.355 536.009 201.202 535.862 200.882C535.616 200.335 535.556 199.632 535.682 198.772L535.562 50.1616C535.562 49.7749 535.753 49.5816 536.133 49.5816C549.859 49.5616 566.119 49.5682 584.912 49.6016C598.482 49.6216 611.352 51.4616 623.472 57.0216C635.972 62.7616 642.312 72.4716 644.732 85.9616C646.459 95.5882 646.399 105.208 644.552 114.822C641.552 130.422 633.192 140.762 619.472 145.842C619.312 145.902 619.283 146.002 619.383 146.142L656.653 201.092C656.859 201.398 656.776 201.558 656.403 201.572L653.062 201.692ZM570.443 78.9416V121.522C570.443 121.596 570.472 121.667 570.525 121.72C570.577 121.772 570.648 121.802 570.722 121.802H589.213C594.668 121.802 599.9 119.943 603.758 116.635C607.615 113.327 609.783 108.84 609.783 104.162V96.3016C609.783 91.6231 607.615 87.1363 603.758 83.8282C599.9 80.5201 594.668 78.6616 589.213 78.6616H570.722C570.648 78.6616 570.577 78.6911 570.525 78.7436C570.472 78.7961 570.443 78.8673 570.443 78.9416Z" fill="#FF009C"/>
<path d="M825.753 312.948C825.607 312.202 825.357 312.138 825.003 312.758L786.473 380.708C786.33 380.96 786.122 381.17 785.872 381.316C785.621 381.462 785.336 381.539 785.046 381.54C784.756 381.541 784.471 381.466 784.22 381.321C783.968 381.177 783.759 380.969 783.613 380.718C771.547 359.772 759.617 338.928 747.823 318.188C746.797 316.388 745.833 314.508 744.933 312.548C744.898 312.472 744.843 312.407 744.774 312.359C744.705 312.311 744.625 312.283 744.541 312.277C744.457 312.271 744.374 312.287 744.298 312.324C744.223 312.361 744.159 312.418 744.113 312.488C743.807 312.955 743.6 313.492 743.493 314.098C740.913 329.372 737.073 350.848 731.973 378.528C731.9 378.928 731.663 379.128 731.263 379.128H701.673C701.613 379.128 701.553 379.114 701.499 379.088C701.444 379.062 701.396 379.024 701.358 378.978C701.32 378.931 701.292 378.876 701.278 378.817C701.263 378.759 701.262 378.698 701.274 378.638L729.704 236.008C730.484 232.095 731.857 231.875 733.823 235.348L784.313 324.608C784.363 324.698 784.435 324.773 784.523 324.825C784.611 324.877 784.711 324.905 784.813 324.905C784.916 324.905 785.016 324.877 785.104 324.825C785.192 324.773 785.264 324.698 785.313 324.608C802.127 294.808 818.977 265.062 835.863 235.368C836.583 234.102 837.45 233.348 838.464 233.108C838.99 232.988 839.307 233.192 839.413 233.718L868.313 378.458C868.407 378.905 868.227 379.128 867.774 379.128H839.003C838.83 379.129 838.661 379.067 838.526 378.954C838.391 378.841 838.298 378.683 838.264 378.508L825.753 312.948Z" fill="#FF009C"/>
<path d="M1202.78 233.23C1205.92 233.516 1209.05 233.79 1212.17 234.05C1221.65 234.856 1230.51 237.69 1238.76 242.55C1239.12 242.756 1239.29 243.063 1239.29 243.47V272.48C1239.29 272.519 1239.28 272.557 1239.26 272.591C1239.25 272.625 1239.22 272.653 1239.18 272.672C1239.15 272.69 1239.11 272.699 1239.07 272.697C1239.03 272.695 1238.99 272.682 1238.96 272.66C1226.06 264.08 1211.95 260.223 1196.63 261.09C1173.57 262.38 1156.74 279.52 1155.12 302.51C1154.45 312.11 1155.79 322.76 1160.5 330.99C1169.35 346.48 1184.51 353.47 1202 353.32C1216.16 353.2 1229.15 349.333 1240.96 341.72C1241 341.694 1241.05 341.68 1241.1 341.678C1241.15 341.677 1241.2 341.688 1241.24 341.71C1241.28 341.733 1241.31 341.766 1241.34 341.806C1241.36 341.847 1241.37 341.893 1241.37 341.94L1241.39 371.27C1241.39 371.425 1241.35 371.579 1241.28 371.715C1241.2 371.852 1241.09 371.967 1240.96 372.05C1238.71 373.51 1236.47 374.62 1234.23 375.38C1213.49 382.46 1193.13 383.236 1173.15 377.71C1150.13 371.34 1132.12 352.01 1126.33 329.15C1120.36 305.64 1123.83 279.07 1139.36 259.73C1150.76 245.55 1165.81 237.036 1184.51 234.19C1188.43 233.6 1192.44 233.65 1196.41 233.24C1198.45 233.033 1200.58 233.03 1202.78 233.23Z" fill="#FF009C"/>
<path d="M1313.03 233.681C1313.13 233.489 1313.28 233.328 1313.46 233.215C1313.64 233.102 1313.85 233.041 1314.07 233.039C1314.28 233.037 1314.49 233.094 1314.68 233.204C1314.86 233.313 1315.02 233.471 1315.12 233.661C1316.51 236.294 1317.93 239.201 1319.36 242.381C1339.94 288.054 1360.42 333.334 1380.79 378.221C1380.83 378.318 1380.85 378.425 1380.85 378.532C1380.84 378.639 1380.8 378.743 1380.74 378.833C1380.69 378.924 1380.6 378.998 1380.51 379.05C1380.41 379.103 1380.31 379.13 1380.2 379.131L1349.14 379.121C1348.71 379.121 1348.42 378.924 1348.26 378.531L1339.47 357.501C1339.33 357.168 1339.08 357.001 1338.72 357.001H1288.45C1288.2 357.001 1287.95 357.075 1287.74 357.214C1287.53 357.352 1287.36 357.55 1287.26 357.781L1278.31 378.561C1278.15 378.941 1277.86 379.131 1277.45 379.131H1247.2C1247.13 379.13 1247.06 379.112 1247 379.078C1246.93 379.044 1246.88 378.995 1246.84 378.936C1246.8 378.876 1246.78 378.808 1246.77 378.738C1246.77 378.667 1246.78 378.596 1246.81 378.531C1268.33 331.171 1289.87 283.714 1311.44 236.161C1311.86 235.251 1312.57 234.561 1313.03 233.681ZM1297.08 332.341C1297.05 332.412 1297.04 332.489 1297.04 332.566C1297.05 332.643 1297.08 332.716 1297.12 332.78C1297.16 332.845 1297.22 332.897 1297.29 332.934C1297.36 332.971 1297.43 332.99 1297.51 332.991H1329.53C1329.61 332.99 1329.68 332.971 1329.75 332.934C1329.82 332.897 1329.87 332.845 1329.92 332.78C1329.96 332.716 1329.98 332.643 1329.99 332.566C1330 332.489 1329.99 332.412 1329.96 332.341L1313.95 294.441C1313.91 294.358 1313.85 294.287 1313.78 294.237C1313.7 294.187 1313.61 294.161 1313.52 294.161C1313.43 294.161 1313.34 294.187 1313.26 294.237C1313.19 294.287 1313.13 294.358 1313.09 294.441L1297.08 332.341Z" fill="#FF009C"/>
<path d="M1419.48 297.228C1419.29 297.402 1419.19 297.658 1419.19 297.998C1418.98 324.938 1419.05 351.965 1419.41 379.078L1390.33 379.088C1390.09 379.088 1389.98 378.972 1389.98 378.738V234.048C1389.98 233.8 1390.05 233.557 1390.18 233.349C1390.32 233.141 1390.51 232.978 1390.74 232.879C1390.97 232.78 1391.22 232.75 1391.46 232.792C1391.71 232.835 1391.94 232.948 1392.12 233.118L1482.5 316.498C1483.22 317.172 1483.59 317.012 1483.59 316.018L1483.7 236.968C1483.7 236.683 1483.81 236.409 1484.02 236.207C1484.22 236.005 1484.49 235.891 1484.78 235.888L1512.71 235.648C1512.78 235.647 1512.85 235.66 1512.92 235.688C1512.99 235.716 1513.06 235.757 1513.11 235.809C1513.16 235.861 1513.2 235.923 1513.23 235.992C1513.26 236.06 1513.28 236.134 1513.28 236.208L1513.29 380.288C1513.29 380.526 1513.22 380.759 1513.09 380.958C1512.96 381.158 1512.78 381.316 1512.56 381.414C1512.34 381.511 1512.1 381.543 1511.87 381.507C1511.63 381.47 1511.41 381.367 1511.24 381.208C1509.88 379.988 1508.62 378.845 1507.46 377.778C1490.32 362.032 1473.47 346.468 1456.9 331.088C1451.97 326.515 1447.25 322.152 1442.73 317.998C1438.67 314.272 1434.71 310.535 1430.87 306.788C1427.52 303.538 1423.75 300.928 1420.6 297.368C1420.51 297.27 1420.4 297.191 1420.29 297.134C1420.17 297.077 1420.04 297.045 1419.92 297.038C1419.68 297.018 1419.54 297.082 1419.48 297.228Z" fill="#FF009C"/>
<path d="M1656.03 379.129L1624.53 379.119C1624.2 379.119 1623.98 378.969 1623.85 378.669L1615.28 358.009C1615.16 357.71 1614.95 357.455 1614.67 357.275C1614.4 357.095 1614.09 356.999 1613.76 356.999H1564.52C1563.6 356.999 1562.96 357.423 1562.59 358.269L1553.79 378.719C1553.74 378.841 1553.66 378.945 1553.54 379.018C1553.43 379.091 1553.3 379.13 1553.17 379.129L1522.76 379.119C1522.29 379.119 1522.16 378.906 1522.35 378.479L1587.99 233.979C1588.09 233.769 1588.23 233.584 1588.41 233.442C1588.6 233.299 1588.81 233.202 1589.04 233.159C1590.03 232.959 1590.71 233.279 1591.09 234.119C1614.24 285.213 1636.02 333.333 1656.45 378.479C1656.64 378.913 1656.5 379.129 1656.03 379.129ZM1572.56 332.509C1572.54 332.562 1572.53 332.62 1572.53 332.677C1572.54 332.735 1572.56 332.79 1572.59 332.838C1572.62 332.886 1572.66 332.925 1572.71 332.952C1572.77 332.978 1572.82 332.991 1572.88 332.989H1605.28C1605.34 332.991 1605.4 332.978 1605.45 332.952C1605.5 332.925 1605.54 332.886 1605.57 332.838C1605.61 332.79 1605.63 332.735 1605.63 332.677C1605.63 332.62 1605.62 332.562 1605.6 332.509L1589.39 294.169C1589.36 294.11 1589.32 294.059 1589.27 294.023C1589.21 293.988 1589.15 293.969 1589.08 293.969C1589.02 293.969 1588.95 293.988 1588.9 294.023C1588.84 294.059 1588.8 294.11 1588.77 294.169L1572.56 332.509Z" fill="#FF009C"/>
<path d="M598.588 235.98C603.281 234.726 607.858 233.986 612.318 233.76C616.448 233.54 620.658 233.04 624.848 233.42C628.568 233.75 632.278 233.67 635.988 234.24C669.608 239.35 692.728 265.37 695.018 298.97C695.684 308.723 695.181 317.476 693.508 325.23C688.418 348.77 672.478 367.52 650.178 376.24C641.931 379.46 632.388 381.12 621.548 381.22C607.248 381.34 593.768 378.9 581.498 371.87C563.608 361.62 551.498 343.61 548.248 323.55C544.428 300.05 548.068 275.78 563.888 257.31C572.828 246.87 584.394 239.76 598.588 235.98ZM663.008 318.31C667.018 295.72 659.568 273.62 637.648 264.07C634.494 262.696 631.124 261.8 627.538 261.38C614.824 259.88 603.988 262.56 595.028 269.42C579.798 281.08 575.838 300.65 579.278 318.69C582.558 335.84 595.448 349.68 613.008 352.62C627.438 355.05 641.288 351.36 651.518 340.8C657.631 334.493 661.461 326.996 663.008 318.31Z" fill="#FF009C"/>
<path d="M937.693 235.241L1026.33 316.811C1026.38 316.855 1026.44 316.884 1026.5 316.895C1026.56 316.905 1026.62 316.897 1026.68 316.872C1026.74 316.846 1026.79 316.804 1026.82 316.75C1026.86 316.697 1026.87 316.635 1026.87 316.571L1026.88 235.621L1055.48 235.741C1055.68 235.741 1055.86 235.818 1056 235.955C1056.14 236.092 1056.21 236.278 1056.21 236.471L1056.42 381.051C1055.49 381.431 1054.33 381.341 1053.63 380.611C1052.22 379.145 1050.55 377.528 1048.61 375.761C1020.46 349.968 992.176 323.835 963.763 297.361C963.699 297.302 963.619 297.262 963.533 297.248C963.446 297.234 963.358 297.245 963.277 297.281C963.197 297.317 963.128 297.376 963.079 297.451C963.03 297.525 963.004 297.613 963.003 297.701V378.491C963.003 378.838 962.832 379.011 962.492 379.011L933.963 379.051C933.943 378.991 933.923 378.941 933.903 378.901C933.843 378.781 933.812 378.658 933.812 378.531C933.819 330.371 933.819 282.178 933.812 233.951C933.814 233.84 933.844 233.731 933.902 233.635C933.959 233.539 934.04 233.46 934.138 233.407C934.236 233.353 934.346 233.326 934.457 233.328C934.569 233.331 934.678 233.363 934.773 233.421L937.693 235.241Z" fill="#FF009C"/>
<path d="M416.952 235.81L421.812 235.8C433.612 235.74 445.426 235.744 457.252 235.81C465.506 235.857 473.502 236.474 481.242 237.66C490.632 239.1 501.272 241.61 509.282 246.53C520.842 253.624 528.826 263.11 533.232 274.99C536.192 282.97 537.616 292.157 537.502 302.55L537.492 308.22C537.552 316.08 536.552 324.167 534.492 332.48C530.619 348.147 521.666 359.614 507.632 366.88C496.272 372.76 484.222 376.394 471.482 377.78C464.922 378.5 458.142 379.09 451.492 379.1C438.592 379.134 426.216 379.144 414.362 379.13C413.949 379.13 413.742 378.92 413.742 378.5V236.26C413.742 235.927 413.909 235.764 414.242 235.77L416.952 235.81ZM480.652 264.31C469.382 260.94 456.832 260.12 444.722 260.25C444.362 260.25 444.182 260.434 444.182 260.8V353.24C444.182 353.62 444.369 353.817 444.742 353.83C456.262 354.3 468.642 353.19 479.682 349.29C493.689 344.33 502.106 334.547 504.932 319.94C506.586 311.42 506.776 302.647 505.502 293.62C503.332 278.21 495.472 268.73 480.652 264.31Z" fill="#FF009C"/>
<path d="M912.007 235.621L911.987 378.771C911.987 378.859 911.952 378.943 911.89 379.004C911.828 379.066 911.744 379.101 911.657 379.101C906.137 379.161 900.59 379.151 895.017 379.071C887.91 378.964 883.42 375.274 881.547 368.001L881.827 236.811C881.827 236.564 881.925 236.326 882.099 236.15C882.273 235.974 882.509 235.874 882.757 235.871L912.007 235.621Z" fill="#FF009C"/>
<path d="M1085.3 377.58C1080.98 375.24 1077.81 370.49 1077.8 365.36C1077.74 322.46 1077.73 279.493 1077.77 236.46C1077.77 236.278 1077.84 236.104 1077.97 235.975C1078.1 235.846 1078.27 235.772 1078.46 235.77L1107.77 235.68C1108.17 235.68 1108.37 235.876 1108.37 236.27L1108.38 378.75C1108.38 378.803 1108.37 378.856 1108.34 378.905C1108.32 378.954 1108.29 378.999 1108.26 379.036C1108.22 379.073 1108.17 379.103 1108.12 379.122C1108.07 379.142 1108.02 379.151 1107.97 379.15C1103.63 379.07 1099.26 379.08 1094.85 379.18C1090.61 379.273 1087.43 378.74 1085.3 377.58Z" fill="#FF009C"/>
</g>
<defs>
<clipPath id="clip0_2682_8">
<rect width="1657" height="446" fill="white"/>
</clipPath>
</defs>
</svg>
