<svg width="1369" height="243" viewBox="0 0 1369 243" fill="none" xmlns="http://www.w3.org/2000/svg">
<g clip-path="url(#clip0_1117_2)">
<path d="M98.93 115.172C51.12 160.952 18.18 210.892 -1.56 245.782H-69V200.012C-26.44 167.642 29.35 135.582 98.93 115.172Z" fill="url(#paint0_linear_1117_2)"/>
<path d="M860.85 137.231C616.05 204.861 493.31 140.771 416.43 125.321C286.11 92.1809 185.32 89.8009 98.9297 115.161C185.43 32.4609 320.41 -36.5391 512.93 22.3509C685.05 75.1309 782.62 115.841 860.85 137.231Z" fill="url(#paint1_linear_1117_2)"/>
<path d="M1369.31 46.6504V245.78H-1.55859C18.1814 210.89 51.1114 160.94 98.9314 115.17C185.331 89.8104 293.111 82.6104 423.431 115.76C500.301 131.21 616.051 204.87 860.851 137.24C956.001 163.28 1022.27 160.56 1158.91 115.76C1274.07 78.0404 1335.98 57.6404 1369.31 46.6504Z" fill="#172554"/>
<path d="M1369.31 17.4909V46.6509C1335.97 57.6309 1274.07 78.0409 1158.91 115.761C1022.27 160.551 959.392 188.251 860.852 137.241C925.872 119.251 1000.12 91.3609 1085.05 49.6609C1206.14 5.16092 1276.99 -18.3691 1369.31 17.4909Z" fill="url(#paint2_linear_1117_2)"/>
</g>
<defs>
<linearGradient id="paint0_linear_1117_2" x1="-69" y1="180.477" x2="98.9274" y2="180.477" gradientUnits="userSpaceOnUse">
<stop stop-color="#360F14"/>
<stop offset="0.0796" stop-color="#53181E"/>
<stop offset="0.1839" stop-color="#751F24"/>
<stop offset="0.2939" stop-color="#942227"/>
<stop offset="0.4087" stop-color="#AF2327"/>
<stop offset="0.5297" stop-color="#C52327"/>
<stop offset="0.66" stop-color="#D62126"/>
<stop offset="0.806" stop-color="#E02026"/>
<stop offset="1" stop-color="#E31F25"/>
</linearGradient>
<linearGradient id="paint1_linear_1117_2" x1="98.9271" y1="83.9966" x2="860.847" y2="83.9966" gradientUnits="userSpaceOnUse">
<stop stop-color="#360F14"/>
<stop offset="0.0796" stop-color="#53181E"/>
<stop offset="0.1839" stop-color="#751F24"/>
<stop offset="0.2939" stop-color="#942227"/>
<stop offset="0.4087" stop-color="#AF2327"/>
<stop offset="0.5297" stop-color="#C52327"/>
<stop offset="0.66" stop-color="#D62126"/>
<stop offset="0.806" stop-color="#E02026"/>
<stop offset="1" stop-color="#E31F25"/>
</linearGradient>
<linearGradient id="paint2_linear_1117_2" x1="860.849" y1="82.3378" x2="1369.32" y2="82.3378" gradientUnits="userSpaceOnUse">
<stop stop-color="#360F14"/>
<stop offset="0.0796" stop-color="#53181E"/>
<stop offset="0.1839" stop-color="#751F24"/>
<stop offset="0.2939" stop-color="#942227"/>
<stop offset="0.4087" stop-color="#AF2327"/>
<stop offset="0.5297" stop-color="#C52327"/>
<stop offset="0.66" stop-color="#D62126"/>
<stop offset="0.806" stop-color="#E02026"/>
<stop offset="1" stop-color="#E31F25"/>
</linearGradient>
<clipPath id="clip0_1117_2">
<rect width="1369" height="243" fill="white"/>
</clipPath>
</defs>
</svg>
