<svg width="1471" height="650" viewBox="0 0 1471 650" fill="none" xmlns="http://www.w3.org/2000/svg">
<path d="M520.591 439.198C520.591 426.963 529.514 417.531 543.026 417.531C556.537 417.531 554.243 419.57 556.792 423.649L551.948 427.727C549.909 424.923 546.85 423.394 542.516 423.394C533.338 423.394 527.474 430.276 527.474 438.943C527.474 447.61 531.298 448.884 538.692 448.884C546.085 448.884 546.34 447.61 548.889 444.806L552.713 449.139C549.144 453.218 544.045 455.002 537.927 455.002C526.964 455.002 520.336 448.629 520.336 439.453L520.591 439.198Z" fill="#003366"/>
<path d="M590.185 448.627L589.42 453.725C588.146 454.235 586.871 454.489 585.341 454.489C581.517 454.489 579.223 452.705 578.458 450.156C575.909 452.96 572.594 454.489 568.26 454.489C561.377 454.489 556.023 449.901 556.023 442.254C556.023 434.607 562.652 426.195 571.575 426.195C580.498 426.195 579.223 427.725 581.007 430.529L581.772 426.45H588.146L584.322 445.058C584.322 445.568 584.322 445.823 584.322 446.333C584.322 448.372 585.596 449.136 587.636 449.136C589.675 449.136 589.42 449.136 590.185 448.627ZM579.733 438.686C579.733 434.352 577.183 431.803 572.34 431.803C567.496 431.803 562.907 436.136 562.907 442.254C562.907 448.372 565.456 449.136 570.3 449.136C575.144 449.136 579.733 444.803 579.733 438.686Z" fill="#003366"/>
<path d="M626.388 438.431C626.388 447.862 619.76 454.744 610.837 454.744C601.914 454.744 603.189 453.215 601.404 450.411L598.6 464.431H592.227L599.62 426.705H605.738L605.228 429.509C607.523 427.47 610.582 426.195 614.151 426.195C621.035 426.195 626.388 430.529 626.388 438.431ZM620.015 438.686C620.015 434.352 617.466 431.803 612.622 431.803C607.778 431.803 603.189 436.136 603.189 442.254C603.189 448.372 605.738 449.136 610.582 449.136C615.426 449.136 620.015 444.803 620.015 438.686Z" fill="#003366"/>
<path d="M664.373 448.627L663.608 453.725C662.333 454.235 661.059 454.489 659.529 454.489C655.705 454.489 653.41 452.705 652.646 450.156C650.096 452.96 646.782 454.489 642.448 454.489C635.565 454.489 630.211 449.901 630.211 442.254C630.211 434.607 636.839 426.195 645.762 426.195C654.685 426.195 653.41 427.725 655.195 430.529L655.96 426.45H662.333L658.509 445.058C658.509 445.568 658.509 445.823 658.509 446.333C658.509 448.372 659.784 449.136 661.823 449.136C663.863 449.136 663.608 449.136 664.373 448.627ZM653.665 438.686C653.665 434.352 651.116 431.803 646.272 431.803C641.428 431.803 636.839 436.136 636.839 442.254C636.839 448.372 639.389 449.136 644.233 449.136C649.076 449.136 653.665 444.803 653.665 438.686Z" fill="#003366"/>
<path d="M668.453 442.512C668.453 433.335 675.336 426.453 685.024 426.453C694.712 426.453 694.712 428.747 697.006 432.826L691.398 435.63C690.123 433.081 687.828 431.806 684.514 431.806C678.906 431.806 675.081 436.139 675.081 442.257C675.081 448.375 677.631 449.139 682.475 449.139C687.319 449.139 688.338 447.865 690.123 445.316L694.967 448.63C692.417 452.453 687.574 454.747 682.22 454.747C674.062 454.747 668.708 449.904 668.708 442.512H668.453Z" fill="#003366"/>
<path d="M704.14 426.452H710.513L704.905 453.981H698.531L704.14 426.452ZM711.533 415.746H719.181L709.494 422.883H703.63L711.533 415.746Z" fill="#003366"/>
<path d="M721.988 444.806C721.988 445.315 721.988 445.57 721.988 446.08C721.988 448.119 723.008 449.139 725.302 449.139C727.596 449.139 727.851 448.884 728.871 448.119L729.891 452.962C727.851 454.237 725.557 454.747 723.263 454.747C718.674 454.747 715.359 451.943 715.359 447.355C715.359 442.766 715.359 445.825 715.359 445.06L720.203 420.59H726.577L725.302 426.962H732.695L731.675 432.06H724.282L721.733 445.06L721.988 444.806Z" fill="#003366"/>
<path d="M768.388 448.627L767.624 453.725C766.349 454.235 765.074 454.489 763.545 454.489C759.72 454.489 757.426 452.705 756.661 450.156C754.112 452.96 750.798 454.489 746.464 454.489C739.58 454.489 734.227 449.901 734.227 442.254C734.227 434.607 740.855 426.195 749.778 426.195C758.701 426.195 757.426 427.725 759.211 430.529L759.975 426.45H766.349L762.525 445.058C762.525 445.568 762.525 445.823 762.525 446.333C762.525 448.372 763.8 449.136 765.839 449.136C767.879 449.136 767.624 449.136 768.388 448.627ZM757.681 438.686C757.681 434.352 755.132 431.803 750.288 431.803C745.444 431.803 740.855 436.136 740.855 442.254C740.855 448.372 743.404 449.136 748.248 449.136C753.092 449.136 757.681 444.803 757.681 438.686Z" fill="#003366"/>
<path d="M780.371 444.806C780.371 445.315 780.371 445.57 780.371 446.08C780.371 448.119 781.39 449.139 783.685 449.139C785.979 449.139 786.234 448.884 787.254 448.119L788.274 452.962C786.234 454.237 783.94 454.747 781.645 454.747C777.056 454.747 773.742 451.943 773.742 447.355C773.742 442.766 773.742 445.825 773.742 445.06L778.586 420.59H784.96L783.685 426.962H791.078L790.058 432.06H782.665L780.116 445.06L780.371 444.806Z" fill="#003366"/>
<path d="M821.418 438.686C821.418 439.195 821.418 439.705 821.418 439.96L799.238 444.038C800.003 447.352 802.552 448.882 806.886 448.882C811.22 448.882 813.005 447.862 814.789 446.078L817.593 450.666C814.789 453.215 810.455 454.489 806.376 454.489C797.963 454.489 792.609 449.646 792.609 442.254C792.609 434.862 799.238 426.195 808.416 426.195C817.593 426.195 821.163 430.274 821.163 438.686H821.418ZM799.238 439.96L815.554 436.901C815.044 433.333 812.495 431.548 808.416 431.548C804.337 431.548 800.003 434.862 799.238 439.96Z" fill="#003366"/>
<path d="M871.386 426.453L866.542 450.414C864.503 460.61 859.149 464.688 850.226 464.688C841.304 464.688 840.794 463.414 837.734 460.865L841.049 456.022C843.343 458.061 846.912 459.335 850.481 459.335C856.345 459.335 858.894 456.786 859.914 451.179V450.159C857.62 452.198 854.56 453.218 850.991 453.218C845.128 453.218 841.049 449.904 841.049 443.786C841.049 437.669 841.049 441.747 841.304 440.473L844.108 426.708H850.481L847.677 440.218C847.677 440.983 847.677 441.747 847.677 442.512C847.677 445.571 849.462 447.355 853.031 447.355C856.6 447.355 860.934 444.806 861.954 439.453L864.503 426.708H870.876L871.386 426.453Z" fill="#003366"/>
<path d="M889.484 442.512C889.484 433.335 896.368 426.453 906.055 426.453C915.743 426.453 915.743 428.747 918.038 432.826L912.429 435.63C911.154 433.081 908.86 431.806 905.546 431.806C899.937 431.806 896.113 436.139 896.113 442.257C896.113 448.375 898.662 449.139 903.506 449.139C908.35 449.139 909.37 447.865 911.154 445.316L915.998 448.63C913.449 452.453 908.605 454.747 903.251 454.747C895.093 454.747 889.739 449.904 889.739 442.512H889.484Z" fill="#003366"/>
<path d="M919.31 442.512C919.31 433.335 926.193 426.453 935.626 426.453C945.059 426.453 949.137 431.296 949.137 438.688C949.137 446.081 942.254 455.002 932.566 455.002C922.879 455.002 919.055 450.159 919.055 442.767L919.31 442.512ZM942.764 438.688C942.764 434.355 940.215 431.806 935.371 431.806C930.527 431.806 925.938 436.139 925.938 442.257C925.938 448.375 928.487 449.139 933.331 449.139C938.175 449.139 942.764 444.806 942.764 438.688Z" fill="#003366"/>
<path d="M983.304 435.63C983.304 436.649 983.304 437.669 983.049 438.943L979.989 454.237H973.616L976.675 439.198C976.675 438.434 976.675 437.669 976.675 437.159C976.675 433.845 974.891 432.061 971.067 432.061C967.242 432.061 963.163 434.61 961.889 439.963L959.084 454.237H952.711L958.32 426.708H964.438L963.928 429.767C966.478 427.473 969.792 426.453 973.361 426.453C979.48 426.453 983.559 429.767 983.559 435.884L983.304 435.63Z" fill="#003366"/>
<path d="M1017.46 438.686C1017.46 439.195 1017.46 439.705 1017.46 439.96L995.285 444.038C996.05 447.352 998.599 448.882 1002.93 448.882C1007.27 448.882 1009.05 447.862 1010.84 446.078L1013.64 450.666C1010.84 453.215 1006.5 454.489 1002.42 454.489C994.01 454.489 988.656 449.646 988.656 442.254C988.656 434.862 995.285 426.195 1004.46 426.195C1013.64 426.195 1017.21 430.274 1017.21 438.686H1017.46ZM995.285 439.96L1011.6 436.901C1011.09 433.333 1008.54 431.548 1004.46 431.548C1000.38 431.548 996.05 434.862 995.285 439.96Z" fill="#003366"/>
<path d="M1021.03 442.512C1021.03 433.335 1027.91 426.453 1037.6 426.453C1047.29 426.453 1047.29 428.747 1049.58 432.826L1043.98 435.63C1042.7 433.081 1040.41 431.806 1037.09 431.806C1031.48 431.806 1027.66 436.139 1027.66 442.257C1027.66 448.375 1030.21 449.139 1035.05 449.139C1039.9 449.139 1040.92 447.865 1042.7 445.316L1047.54 448.63C1045 452.453 1040.15 454.747 1034.8 454.747C1026.64 454.747 1021.29 449.904 1021.29 442.512H1021.03Z" fill="#003366"/>
<path d="M1058.76 444.806C1058.76 445.315 1058.76 445.57 1058.76 446.08C1058.76 448.119 1059.78 449.139 1062.08 449.139C1064.37 449.139 1064.62 448.884 1065.64 448.119L1066.66 452.962C1064.62 454.237 1062.33 454.747 1060.04 454.747C1055.45 454.747 1052.13 451.943 1052.13 447.355C1052.13 442.766 1052.13 445.825 1052.13 445.06L1056.98 420.59H1063.35L1062.08 426.962H1069.47L1068.45 432.06H1061.06L1058.51 445.06L1058.76 444.806Z" fill="#003366"/>
<path d="M1105.16 448.627L1104.4 453.725C1103.12 454.235 1101.85 454.489 1100.32 454.489C1096.49 454.489 1094.2 452.705 1093.43 450.156C1090.89 452.96 1087.57 454.489 1083.24 454.489C1076.35 454.489 1071 449.901 1071 442.254C1071 434.607 1077.63 426.195 1086.55 426.195C1095.47 426.195 1094.2 427.725 1095.98 430.529L1096.75 426.45H1103.12L1099.3 445.058C1099.3 445.568 1099.3 445.823 1099.3 446.333C1099.3 448.372 1100.57 449.136 1102.61 449.136C1104.65 449.136 1104.4 449.136 1105.16 448.627ZM1094.45 438.686C1094.45 434.352 1091.9 431.803 1087.06 431.803C1082.22 431.803 1077.63 436.136 1077.63 442.254C1077.63 448.372 1080.18 449.136 1085.02 449.136C1089.87 449.136 1094.45 444.803 1094.45 438.686Z" fill="#003366"/>
<path d="M1124.03 442.512C1124.03 433.335 1130.91 426.453 1140.6 426.453C1150.29 426.453 1150.29 428.747 1152.58 432.826L1146.98 435.63C1145.7 433.081 1143.41 431.806 1140.09 431.806C1134.48 431.806 1130.66 436.139 1130.66 442.257C1130.66 448.375 1133.21 449.139 1138.05 449.139C1142.9 449.139 1143.92 447.865 1145.7 445.316L1150.54 448.63C1148 452.453 1143.15 454.747 1137.8 454.747C1129.64 454.747 1124.29 449.904 1124.29 442.512H1124.03Z" fill="#003366"/>
<path d="M1153.86 442.512C1153.86 433.335 1160.74 426.453 1170.17 426.453C1179.61 426.453 1183.68 431.296 1183.68 438.688C1183.68 446.081 1176.8 455.002 1167.11 455.002C1157.43 455.002 1153.6 450.159 1153.6 442.767L1153.86 442.512ZM1177.31 438.688C1177.31 434.355 1174.76 431.806 1169.92 431.806C1165.07 431.806 1160.48 436.139 1160.48 442.257C1160.48 448.375 1163.03 449.139 1167.88 449.139C1172.72 449.139 1177.31 444.806 1177.31 438.688Z" fill="#003366"/>
<path d="M1217.84 435.63C1217.84 436.649 1217.84 437.669 1217.59 438.943L1214.53 454.237H1208.15L1211.21 439.198C1211.21 438.434 1211.21 437.669 1211.21 437.159C1211.21 433.845 1209.43 432.061 1205.61 432.061C1201.78 432.061 1197.7 434.61 1196.43 439.963L1193.62 454.237H1187.25L1192.86 426.708H1198.98L1198.47 429.767C1201.02 427.473 1204.33 426.453 1207.9 426.453C1214.02 426.453 1218.1 429.767 1218.1 435.884L1217.84 435.63Z" fill="#003366"/>
<path d="M568.771 497.571C568.771 498.591 568.771 499.865 568.516 500.885L565.457 516.179H559.083L562.142 501.14C562.142 500.375 562.142 499.61 562.142 498.845C562.142 495.532 560.358 494.002 556.789 494.002C553.219 494.002 549.395 496.551 548.376 501.904L545.571 516.179H539.198L542.257 501.14C542.257 500.375 542.257 499.61 542.257 498.845C542.257 495.532 540.472 494.002 536.903 494.002C533.334 494.002 529.51 496.551 528.49 501.904L525.686 516.179H519.312L524.921 488.649H531.04L530.53 491.708C533.079 489.414 536.138 488.395 539.708 488.395C543.277 488.395 546.846 489.924 548.376 492.983C551.18 489.924 554.749 488.395 559.338 488.395C563.927 488.395 569.281 491.708 569.281 497.571H568.771Z" fill="#003366"/>
<path d="M603.191 500.885C603.191 501.395 603.191 501.904 603.191 502.159L581.011 506.238C581.776 509.551 584.325 511.081 588.659 511.081C592.993 511.081 594.778 510.061 596.563 508.277L599.367 512.865C596.563 515.414 592.229 516.689 588.15 516.689C579.737 516.689 574.383 511.845 574.383 504.453C574.383 497.061 581.011 488.395 590.189 488.395C599.367 488.395 602.936 492.473 602.936 500.885H603.191ZM581.011 501.904L597.327 498.845C596.817 495.277 594.268 493.493 590.189 493.493C586.11 493.493 581.776 496.806 581.011 501.904Z" fill="#003366"/>
<path d="M627.92 488.395L626.645 494.512C626.135 494.512 625.625 494.512 625.115 494.512C620.017 494.512 616.702 497.061 615.428 502.924L612.623 516.434H606.25L611.859 488.904H617.977L617.212 492.473C619.762 489.669 623.331 488.649 627.92 488.649V488.395Z" fill="#003366"/>
<path d="M627.914 504.453C627.914 495.277 634.797 488.395 644.485 488.395C654.173 488.395 654.173 490.689 656.467 494.767L650.859 497.571C649.584 495.022 647.289 493.747 643.975 493.747C638.367 493.747 634.542 498.081 634.542 504.198C634.542 510.316 637.092 511.081 641.936 511.081C646.78 511.081 647.799 509.806 649.584 507.257L654.428 510.571C651.878 514.395 647.034 516.689 641.681 516.689C633.523 516.689 628.169 511.845 628.169 504.453H627.914Z" fill="#003366"/>
<path d="M691.904 510.826L691.139 515.924C689.865 516.434 688.59 516.689 687.06 516.689C683.236 516.689 680.942 514.904 680.177 512.355C677.627 515.159 674.313 516.689 669.979 516.689C663.096 516.689 657.742 512.1 657.742 504.453C657.742 496.806 664.371 488.395 673.294 488.395C682.216 488.395 680.942 489.924 682.726 492.728L683.491 488.649H689.865L686.04 507.257C686.04 507.767 686.04 508.022 686.04 508.532C686.04 510.571 687.315 511.336 689.355 511.336C691.394 511.336 691.139 511.336 691.904 510.826ZM681.197 500.885C681.197 496.551 678.647 494.002 673.803 494.002C668.959 494.002 664.371 498.336 664.371 504.453C664.371 510.571 666.92 511.336 671.764 511.336C676.608 511.336 681.197 507.002 681.197 500.885Z" fill="#003366"/>
<path d="M724.538 508.53C724.538 510.314 725.812 511.334 727.597 511.334C729.381 511.334 729.381 511.334 730.146 510.824L729.381 515.922C728.107 516.432 726.832 516.686 725.302 516.686C721.733 516.686 719.184 515.157 718.419 512.353C715.87 515.157 712.555 516.686 708.221 516.686C701.338 516.686 695.984 512.098 695.984 504.451C695.984 496.804 702.613 488.392 711.536 488.392C720.459 488.392 719.184 489.922 720.968 492.726L724.028 477.941H730.401L724.538 507.255C724.538 507.765 724.538 508.02 724.538 508.53ZM719.439 500.883C719.439 496.549 716.889 494 712.046 494C707.202 494 702.613 498.334 702.613 504.451C702.613 510.569 705.162 511.334 710.006 511.334C714.85 511.334 719.439 507 719.439 500.883Z" fill="#003366"/>
<path d="M733.716 504.453C733.716 495.277 740.599 488.395 750.032 488.395C759.465 488.395 763.544 493.238 763.544 500.63C763.544 508.022 756.66 516.944 746.973 516.944C737.285 516.944 733.461 512.1 733.461 504.708L733.716 504.453ZM757.17 500.885C757.17 496.551 754.621 494.002 749.777 494.002C744.933 494.002 740.344 498.336 740.344 504.453C740.344 510.571 742.894 511.336 747.737 511.336C752.581 511.336 757.17 507.002 757.17 500.885Z" fill="#003366"/>
<path d="M765.07 513.63L767.875 508.787C770.169 510.316 773.738 511.591 777.562 511.591C781.386 511.591 783.936 510.316 783.936 508.277C783.936 503.689 768.894 507.257 768.894 497.826C768.894 488.395 774.248 488.395 782.151 488.395C790.054 488.395 789.799 489.159 792.094 490.689L789.799 495.532C787.25 494.002 784.191 493.493 781.641 493.493C777.562 493.493 775.523 495.022 775.523 496.806C775.523 501.649 790.564 498.081 790.564 507.257C790.564 516.434 784.956 516.689 777.307 516.689C769.659 516.689 767.875 515.414 765.58 513.63H765.07Z" fill="#003366"/>
<path d="M810.71 488.649H817.084L811.475 516.179H805.102L810.71 488.649ZM811.73 480.493C811.73 478.198 813.515 476.414 816.064 476.414C818.613 476.414 819.888 477.943 819.888 479.983C819.888 482.022 818.103 484.316 815.554 484.316C813.005 484.316 811.73 482.787 811.73 480.747V480.493Z" fill="#003366"/>
<path d="M851.241 497.571C851.241 498.591 851.241 499.61 850.986 500.885L847.927 516.179H841.553L844.613 501.14C844.613 500.375 844.613 499.61 844.613 499.1C844.613 495.787 842.828 494.002 839.004 494.002C835.18 494.002 831.101 496.551 829.826 501.904L827.022 516.179H820.648L826.257 488.649H832.376L831.866 491.708C834.415 489.414 837.729 488.395 841.299 488.395C847.417 488.395 851.496 491.708 851.496 497.826L851.241 497.571Z" fill="#003366"/>
<path d="M864.246 507.001C864.246 507.511 864.246 507.766 864.246 508.275C864.246 510.315 865.265 511.334 867.56 511.334C869.854 511.334 870.109 511.079 871.129 510.315L872.149 515.158C870.109 516.432 867.815 516.942 865.52 516.942C860.931 516.942 857.617 514.138 857.617 509.55C857.617 504.962 857.617 508.02 857.617 507.256L862.461 482.785H868.835L867.56 489.158H874.953L873.933 494.256H866.54L863.991 507.256L864.246 507.001Z" fill="#003366"/>
<path d="M905.293 500.885C905.293 501.395 905.293 501.904 905.293 502.159L883.113 506.238C883.878 509.551 886.427 511.081 890.761 511.081C895.095 511.081 896.88 510.061 898.664 508.277L901.468 512.865C898.664 515.414 894.33 516.689 890.251 516.689C881.838 516.689 876.484 511.845 876.484 504.453C876.484 497.061 883.113 488.395 892.291 488.395C901.468 488.395 905.038 492.473 905.038 500.885H905.293ZM883.113 501.904L899.429 498.845C898.919 495.277 896.37 493.493 892.291 493.493C888.212 493.493 883.878 496.806 883.113 501.904Z" fill="#003366"/>
<path d="M930.021 488.395L928.747 494.512C928.237 494.512 927.727 494.512 927.217 494.512C922.118 494.512 918.804 497.061 917.529 502.924L914.725 516.434H908.352L913.96 488.904H920.079L919.314 492.473C921.863 489.669 925.432 488.649 930.021 488.649V488.395Z" fill="#003366"/>
<path d="M960.866 497.571C960.866 498.591 960.866 499.61 960.611 500.885L957.552 516.179H951.178L954.238 501.14C954.238 500.375 954.238 499.61 954.238 499.1C954.238 495.787 952.453 494.002 948.629 494.002C944.805 494.002 940.726 496.551 939.451 501.904L936.647 516.179H930.273L935.882 488.649H942.001L941.491 491.708C944.04 489.414 947.354 488.395 950.924 488.395C957.042 488.395 961.121 491.708 961.121 497.826L960.866 497.571Z" fill="#003366"/>
<path d="M1000.38 510.826L999.616 515.924C998.341 516.434 997.066 516.689 995.537 516.689C991.713 516.689 989.418 514.904 988.653 512.355C986.104 515.159 982.79 516.689 978.456 516.689C971.572 516.689 966.219 512.1 966.219 504.453C966.219 496.806 972.847 488.395 981.77 488.395C990.693 488.395 989.418 489.924 991.203 492.728L991.968 488.649H998.341L994.517 507.257C994.517 507.767 994.517 508.022 994.517 508.532C994.517 510.571 995.792 511.336 997.831 511.336C999.871 511.336 999.616 511.336 1000.38 510.826ZM989.673 500.885C989.673 496.551 987.124 494.002 982.28 494.002C977.436 494.002 972.847 498.336 972.847 504.453C972.847 510.571 975.397 511.336 980.24 511.336C985.084 511.336 989.673 507.002 989.673 500.885Z" fill="#003366"/>
<path d="M1004.72 504.453C1004.72 495.277 1011.6 488.395 1021.29 488.395C1030.98 488.395 1030.98 490.689 1033.27 494.767L1027.66 497.571C1026.39 495.022 1024.09 493.747 1020.78 493.747C1015.17 493.747 1011.35 498.081 1011.35 504.198C1011.35 510.316 1013.9 511.081 1018.74 511.081C1023.58 511.081 1024.6 509.806 1026.39 507.257L1031.23 510.571C1028.68 514.395 1023.84 516.689 1018.49 516.689C1010.33 516.689 1004.97 511.845 1004.97 504.453H1004.72Z" fill="#003366"/>
<path d="M1040.16 488.649H1046.53L1040.92 516.179H1034.55L1040.16 488.649ZM1041.18 480.493C1041.18 478.198 1042.96 476.414 1045.51 476.414C1048.06 476.414 1049.33 477.943 1049.33 479.983C1049.33 482.022 1047.55 484.316 1045 484.316C1042.45 484.316 1041.18 482.787 1041.18 480.747V480.493Z" fill="#003366"/>
<path d="M1050.35 504.453C1050.35 495.277 1057.23 488.395 1066.66 488.395C1076.1 488.395 1080.18 493.238 1080.18 500.63C1080.18 508.022 1073.29 516.944 1063.61 516.944C1053.92 516.944 1050.09 512.1 1050.09 504.708L1050.35 504.453ZM1073.55 500.885C1073.55 496.551 1071 494.002 1066.15 494.002C1061.31 494.002 1056.72 498.336 1056.72 504.453C1056.72 510.571 1059.27 511.336 1064.12 511.336C1068.96 511.336 1073.55 507.002 1073.55 500.885Z" fill="#003366"/>
<path d="M1114.34 497.571C1114.34 498.591 1114.34 499.61 1114.09 500.885L1111.03 516.179H1104.65L1107.71 501.14C1107.71 500.375 1107.71 499.61 1107.71 499.1C1107.71 495.787 1105.93 494.002 1102.11 494.002C1098.28 494.002 1094.2 496.551 1092.93 501.904L1090.12 516.179H1083.75L1089.36 488.649H1095.48L1094.97 491.708C1097.52 489.414 1100.83 488.395 1104.4 488.395C1110.52 488.395 1114.6 491.708 1114.6 497.826L1114.34 497.571Z" fill="#003366"/>
<path d="M1153.86 510.826L1153.09 515.924C1151.82 516.434 1150.54 516.689 1149.01 516.689C1145.19 516.689 1142.89 514.904 1142.13 512.355C1139.58 515.159 1136.27 516.689 1131.93 516.689C1125.05 516.689 1119.7 512.1 1119.7 504.453C1119.7 496.806 1126.32 488.395 1135.25 488.395C1144.17 488.395 1142.89 489.924 1144.68 492.728L1145.44 488.649H1151.82L1147.99 507.257C1147.99 507.767 1147.99 508.022 1147.99 508.532C1147.99 510.571 1149.27 511.336 1151.31 511.336C1153.35 511.336 1153.09 511.336 1153.86 510.826ZM1143.15 500.885C1143.15 496.551 1140.6 494.002 1135.76 494.002C1130.91 494.002 1126.32 498.336 1126.32 504.453C1126.32 510.571 1128.87 511.336 1133.72 511.336C1138.56 511.336 1143.15 507.002 1143.15 500.885Z" fill="#003366"/>
<path d="M1159.47 509.549C1159.47 508.785 1159.47 508.02 1159.72 507.255L1165.59 477.941H1171.96L1166.1 507.255C1166.1 507.765 1166.1 508.02 1166.1 508.53C1166.1 510.569 1167.12 511.334 1169.16 511.334C1171.2 511.334 1170.94 511.334 1171.71 510.824L1170.94 515.922C1169.67 516.432 1168.39 516.686 1166.86 516.686C1162.27 516.686 1159.47 514.137 1159.47 509.549Z" fill="#003366"/>
<path d="M1203.82 500.885C1203.82 501.395 1203.82 501.904 1203.82 502.159L1181.64 506.238C1182.41 509.551 1184.96 511.081 1189.29 511.081C1193.63 511.081 1195.41 510.061 1197.2 508.277L1200 512.865C1197.2 515.414 1192.86 516.689 1188.78 516.689C1180.37 516.689 1175.02 511.845 1175.02 504.453C1175.02 497.061 1181.64 488.395 1190.82 488.395C1200 488.395 1203.57 492.473 1203.57 500.885H1203.82ZM1181.64 501.904L1197.96 498.845C1197.45 495.277 1194.9 493.493 1190.82 493.493C1186.74 493.493 1182.41 496.806 1181.64 501.904Z" fill="#003366"/>
<path d="M1204.84 513.63L1207.65 508.787C1209.94 510.316 1213.51 511.591 1217.34 511.591C1221.16 511.591 1223.71 510.316 1223.71 508.277C1223.71 503.689 1208.67 507.257 1208.67 497.826C1208.67 488.395 1214.02 488.395 1221.92 488.395C1229.83 488.395 1229.57 489.159 1231.87 490.689L1229.57 495.532C1227.02 494.002 1223.96 493.493 1221.41 493.493C1217.34 493.493 1215.3 495.022 1215.3 496.806C1215.3 501.649 1230.34 498.081 1230.34 507.257C1230.34 516.434 1224.73 516.689 1217.08 516.689C1209.43 516.689 1207.65 515.414 1205.35 513.63H1204.84Z" fill="#003366"/>
<path d="M190.185 376.746C181.262 385.158 165.966 390.001 148.12 390.001C119.057 390.001 104.016 377.511 104.016 359.923C104.016 342.335 112.684 337.492 124.921 334.178C114.723 330.354 108.605 321.433 108.605 309.962C108.605 298.492 122.371 280.648 150.415 280.648C178.458 280.648 172.339 282.688 181.262 288.041L182.027 298.237C172.594 292.884 162.142 290.335 150.924 290.335C130.274 290.335 120.077 299.001 120.077 310.727C120.077 322.452 129 329.59 144.551 329.59H171.32V339.531H144.041C126.96 339.531 115.488 345.903 115.488 359.413C115.488 372.923 126.195 380.57 148.63 380.57C171.065 380.57 177.693 376.237 185.851 368.335L190.185 377.001V376.746Z" fill="#003366"/>
<path d="M148.121 392.039C119.567 392.039 101.977 379.804 101.977 359.921C101.977 340.039 108.35 338.509 119.312 333.666C111.154 328.568 106.565 320.156 106.565 309.706C106.565 299.255 118.038 278.098 150.415 278.098C182.792 278.098 173.36 280.392 182.282 286L183.302 286.509L184.322 302.058L180.753 300.019C171.575 294.921 161.632 292.372 150.67 292.372C132.824 292.372 122.117 299.255 122.117 310.725C122.117 322.196 136.138 327.549 144.296 327.549H173.36V341.823H144.042C134.099 341.823 117.528 344.117 117.528 359.411C117.528 374.706 128.745 378.274 148.376 378.274C168.006 378.274 176.419 373.941 184.067 366.804L186.107 364.764L192.48 377.509L191.205 378.529C182.028 387.196 165.966 392.294 147.611 392.294L148.121 392.039ZM150.415 282.686C126.451 282.686 110.899 293.392 110.899 309.96C110.899 326.529 116.253 328.568 125.686 332.137L132.059 334.431L125.686 336.215C113.704 339.529 106.311 348.451 106.311 359.921C106.311 377.255 121.862 387.706 148.121 387.706C174.379 387.706 178.713 383.627 187.381 376.235L185.087 371.647C176.419 378.529 163.162 382.607 148.63 382.607C116.763 382.607 113.449 366.294 113.449 359.411C113.449 345.392 124.666 337.49 144.296 337.49H169.281V332.137H144.806C127.98 332.137 118.038 324.49 118.038 310.98C118.038 297.47 126.706 288.294 150.925 288.294C175.144 288.294 170.81 290.333 179.478 294.666V289.568C171.065 284.98 162.907 282.941 150.415 282.941V282.686Z" fill="#003366"/>
<path d="M269.22 388.98L234.549 341.568L199.877 388.98H186.875L227.665 333.666L195.543 291.097H208.545L234.804 325.254L267.181 281.156H279.418L241.177 333.156L282.222 388.725H268.965L269.22 388.98Z" fill="#003366"/>
<path d="M286.809 391.274H268.199L234.547 345.392L201.15 391.274H182.539L225.114 333.666L191.462 289.058H210.073L235.057 321.686L266.159 279.117H284.005L244.234 333.411L286.809 391.274ZM270.493 386.941H278.141L238.626 333.411L275.082 283.705H268.199L234.802 329.078L207.523 293.392H199.875L230.213 333.666L190.952 386.941H198.6L234.292 338L270.238 386.941H270.493Z" fill="#003366"/>
<path d="M375.526 318.371C375.526 341.312 358.954 355.077 331.421 355.077H302.613V388.979H291.141V281.41H331.421C358.7 281.41 375.526 295.175 375.526 318.371ZM364.053 318.371C364.053 301.038 352.581 291.351 331.166 291.351H302.613V345.136H331.166C352.581 345.136 364.053 335.194 364.053 318.371Z" fill="#003366"/>
<path d="M304.908 391.274H289.102V279.117H331.676C360.23 279.117 377.82 294.156 377.82 318.117C377.82 342.078 360.23 357.117 331.676 357.117H304.908V391.019V391.274ZM293.436 386.941H300.319V353.039H331.421C357.68 353.039 373.232 340.039 373.232 318.372C373.232 296.705 357.68 283.705 331.421 283.705H293.436V386.941ZM331.167 347.176H300.319V289.058H331.167C353.601 289.058 366.348 299.764 366.348 318.372C366.348 336.98 353.601 347.431 331.167 347.431V347.176ZM304.908 342.843H331.421C356.915 342.843 362.014 329.588 362.014 318.372C362.014 297.725 345.188 293.392 331.421 293.392H304.908V342.843Z" fill="#003366"/>
<path d="M588.912 388.979L564.183 354.312C561.378 354.567 558.574 354.822 555.515 354.822H526.707V388.979H515.234V281.41H555.515C582.793 281.41 599.619 295.175 599.619 318.371C599.619 341.567 590.696 347.175 574.89 352.273L601.149 389.234H588.657L588.912 388.979ZM588.147 318.371C588.147 301.038 576.675 291.351 555.26 291.351H526.707V345.391H555.26C576.675 345.391 588.147 335.449 588.147 318.371Z" fill="#003366"/>
<path d="M605.48 391.274H587.635L563.161 356.862C560.611 356.862 558.317 357.117 555.512 357.117H528.744V391.274H512.938V279.117H555.512C584.066 279.117 601.656 294.156 601.656 318.117C601.656 342.078 593.498 347.176 578.202 353.039L605.226 391.019L605.48 391.274ZM589.929 386.941H597.067L571.574 351L574.378 349.98C589.164 345.137 597.577 333.921 597.577 318.117C597.577 302.313 582.026 283.451 555.767 283.451H517.781V386.686H524.665V352.529H555.767C558.572 352.529 561.376 352.529 564.18 352.019H565.455L590.184 386.686L589.929 386.941ZM555.257 347.431H524.41V289.058H555.257C577.692 289.058 590.439 299.764 590.439 318.372C590.439 336.98 577.692 347.431 555.257 347.431ZM528.999 343.098H555.512C575.398 343.098 586.105 334.431 586.105 318.372C586.105 302.313 569.279 293.392 555.512 293.392H528.999V342.843V343.098Z" fill="#003366"/>
<path d="M686.805 301.292C675.843 294.919 663.861 291.605 651.624 290.586V388.978H640.151V290.586C627.914 291.35 616.187 294.664 604.97 301.292L600.891 292.37C614.912 283.958 630.464 280.645 645.76 280.645C661.056 280.645 676.863 284.213 690.884 292.37L686.805 301.292Z" fill="#003366"/>
<path d="M653.918 391.273H638.111V293.136C626.894 294.155 616.187 297.469 606.244 303.332L604.204 304.606L598.086 291.606L599.871 290.587C613.382 282.43 628.934 278.352 646.015 278.352C663.095 278.352 678.902 282.43 692.159 290.587L693.943 291.606L687.825 304.606L685.785 303.332C676.097 297.724 665.645 294.41 653.918 293.136V391.273ZM642.7 386.94H649.584V288.293H651.878C664.115 289.312 675.587 292.626 685.785 298.234L688.079 293.391C675.842 286.508 661.311 282.94 645.76 282.94C630.208 282.94 616.187 286.508 603.695 293.391L605.989 298.234C616.696 292.626 627.914 289.312 640.151 288.548H642.445V386.94H642.7Z" fill="#003366"/>
<path d="M788.02 328.056V389.233H776.803V357.625H709.244V389.233H698.281V328.056C698.281 296.448 716.127 280.645 743.151 280.645C770.174 280.645 788.275 296.703 788.275 328.056H788.02ZM776.803 347.429V326.782C776.803 302.311 763.801 290.586 742.896 290.586C721.991 290.586 708.989 302.311 708.989 326.782V347.429H776.548H776.803Z" fill="#003366"/>
<path d="M790.312 391.273H774.761V359.665H711.536V391.273H695.984V328.057C695.984 296.959 713.575 278.352 743.148 278.352C772.721 278.352 790.312 296.959 790.312 328.057V391.273ZM779.095 386.94H785.978V328.057C785.978 299.254 770.427 282.685 743.148 282.685C715.87 282.685 700.318 299.254 700.318 328.057V386.94H706.947V355.332H779.095V386.94ZM779.095 349.724H706.947V327.038C706.947 302.567 720.204 288.548 742.893 288.548C765.583 288.548 778.84 302.312 778.84 327.038V349.724H779.095ZM711.281 345.391H774.506V327.038C774.506 304.861 763.543 292.881 742.893 292.881C722.243 292.881 711.281 304.606 711.281 327.038V345.391Z" fill="#003366"/>
<path d="M814.531 281.41H858.381C892.798 281.41 915.997 303.587 915.997 335.194C915.997 366.802 892.798 388.979 858.381 388.979H814.531V281.41ZM857.616 379.293C886.169 379.293 904.78 361.194 904.78 335.194C904.78 309.194 886.424 291.096 857.616 291.096H825.749V379.038H857.616V379.293Z" fill="#003366"/>
<path d="M858.378 391.274H812.234V279.117H858.378C893.56 279.117 918.289 302.058 918.289 335.196C918.289 368.333 893.56 391.274 858.378 391.274ZM816.568 386.941H858.123C891.266 386.941 913.7 366.294 913.7 335.196C913.7 304.098 891.521 283.451 858.123 283.451H816.568V386.686V386.941ZM857.614 381.333H823.452V289.058H857.614C887.187 289.058 906.817 307.666 906.817 335.196C906.817 362.725 886.932 381.333 857.614 381.333ZM828.041 377H857.614C884.382 377 902.483 360.176 902.483 335.196C902.483 310.215 884.382 293.392 857.614 293.392H828.041V377Z" fill="#003366"/>
<path d="M924.156 335.195C924.156 303.842 948.121 280.391 980.753 280.391C1013.39 280.391 1037.09 303.587 1037.09 335.195C1037.09 366.802 1012.88 389.998 980.753 389.998C948.63 389.998 924.156 366.547 924.156 335.195ZM1025.88 335.195C1025.88 309.449 1006.76 290.587 980.753 290.587C954.749 290.587 935.374 309.449 935.374 335.195C935.374 360.94 954.749 379.802 980.753 379.802C1006.76 379.802 1025.88 360.94 1025.88 335.195Z" fill="#003366"/>
<path d="M981.008 392.038C947.356 392.038 922.117 367.567 922.117 335.195C922.117 302.822 947.356 278.352 981.008 278.352C1014.66 278.352 1039.64 302.822 1039.64 335.195C1039.64 367.567 1014.41 392.038 981.008 392.038ZM981.008 282.685C949.396 282.685 926.706 304.861 926.706 335.195C926.706 365.528 949.651 387.705 981.008 387.705C1012.37 387.705 1035.31 365.528 1035.31 335.195C1035.31 304.861 1012.62 282.685 981.008 282.685ZM981.008 382.097C953.985 382.097 933.335 361.959 933.335 335.195C933.335 308.43 953.73 288.293 981.008 288.293C1008.29 288.293 1028.17 308.43 1028.17 335.195C1028.17 361.959 1007.78 382.097 981.008 382.097ZM981.008 292.881C956.024 292.881 937.923 310.724 937.923 335.195C937.923 359.665 956.024 377.508 981.008 377.508C1005.99 377.508 1023.84 359.665 1023.84 335.195C1023.84 310.724 1005.74 292.881 981.008 292.881Z" fill="#003366"/>
<path d="M1128.62 388.979L1103.89 354.312C1101.08 354.567 1098.28 354.822 1095.22 354.822H1066.41V388.979H1054.94V281.41H1095.22C1122.5 281.41 1139.32 295.175 1139.32 318.371C1139.32 341.567 1130.4 347.175 1114.59 352.273L1140.85 389.234H1128.36L1128.62 388.979ZM1128.11 318.371C1128.11 301.038 1116.63 291.351 1095.22 291.351H1066.66V345.391H1095.22C1116.63 345.391 1128.11 335.449 1128.11 318.371Z" fill="#003366"/>
<path d="M1145.44 391.274H1127.6L1103.12 356.862C1100.57 356.862 1098.28 357.117 1095.47 357.117H1068.7V391.274H1052.9V279.117H1095.47C1124.03 279.117 1141.62 294.156 1141.62 318.117C1141.62 342.078 1133.46 347.176 1118.16 353.039L1145.19 391.019L1145.44 391.274ZM1129.89 386.941H1137.03L1111.53 351L1114.34 349.98C1129.13 345.137 1137.54 333.921 1137.54 318.117C1137.54 302.313 1121.99 283.451 1095.73 283.451H1057.74V386.686H1064.63V352.529H1095.73C1098.53 352.529 1101.34 352.529 1104.14 352.019H1105.42L1130.15 386.686L1129.89 386.941ZM1095.22 347.431H1064.37V289.058H1095.22C1117.65 289.058 1130.4 299.764 1130.4 318.372C1130.4 336.98 1117.65 347.431 1095.22 347.431ZM1068.7 343.098H1095.22C1115.1 343.098 1125.81 334.431 1125.81 318.372C1125.81 302.313 1108.99 293.392 1095.22 293.392H1068.7V342.843V343.098Z" fill="#003366"/>
<path d="M1247.68 328.056V389.233H1236.46V357.625H1168.9V389.233H1157.94V328.056C1157.94 296.448 1175.78 280.645 1202.81 280.645C1229.83 280.645 1247.93 296.703 1247.93 328.056H1247.68ZM1236.46 347.429V326.782C1236.46 302.311 1223.46 290.586 1202.55 290.586C1181.65 290.586 1168.64 302.311 1168.64 326.782V347.429H1236.2H1236.46Z" fill="#003366"/>
<path d="M1249.97 391.273H1234.42V359.665H1171.19V391.273H1155.64V328.057C1155.64 296.959 1173.23 278.352 1202.8 278.352C1232.38 278.352 1249.97 296.959 1249.97 328.057V391.273ZM1238.75 386.94H1245.63V328.057C1245.63 299.254 1230.08 282.685 1202.8 282.685C1175.53 282.685 1159.97 299.254 1159.97 328.057V386.94H1166.6V355.332H1238.75V386.94ZM1238.75 349.724H1166.6V327.038C1166.6 302.567 1179.86 288.548 1202.55 288.548C1225.24 288.548 1238.5 302.312 1238.5 327.038V349.724H1238.75ZM1170.94 345.391H1234.16V327.038C1234.16 304.861 1223.2 292.881 1202.55 292.881C1181.9 292.881 1170.94 304.606 1170.94 327.038V345.391Z" fill="#003366"/>
<path d="M1263.73 375.979L1268.32 367.312C1275.97 374.959 1289.74 380.312 1303.76 380.312C1323.9 380.312 1332.57 371.9 1332.57 361.194C1332.57 331.626 1266.28 349.724 1266.28 309.959C1266.28 270.194 1278.52 280.39 1306.05 280.39C1333.59 280.39 1330.78 283.959 1339.45 289.822L1335.63 298.998C1326.45 292.881 1315.74 290.077 1306.05 290.077C1286.42 290.077 1277.5 298.743 1277.5 309.704C1277.5 339.273 1343.79 321.43 1343.79 360.684C1343.79 399.939 1331.29 389.998 1303.76 389.998C1276.23 389.998 1271.64 384.39 1263.73 375.979Z" fill="#003366"/>
<path d="M1303.76 392.038C1287.19 392.038 1270.88 386.175 1262.21 377.254L1261.19 376.234L1267.82 363.489L1269.86 365.528C1277.5 373.175 1291.02 378.018 1303.76 378.018C1316.51 378.018 1330.53 371.901 1330.53 361.195C1330.53 350.489 1317.78 346.155 1302.74 342.587C1284.64 338.254 1264.25 333.155 1264.25 309.959C1264.25 286.763 1275.21 278.352 1306.06 278.352C1336.9 278.352 1331.81 282.175 1340.73 288.293L1342.26 289.312L1336.65 302.567L1334.36 301.038C1325.94 295.685 1315.74 292.371 1306.06 292.371C1289.74 292.371 1279.8 298.744 1279.8 309.705C1279.8 320.665 1292.8 324.744 1307.84 328.567C1325.69 332.901 1346.08 337.999 1346.08 360.685C1346.08 383.371 1323.39 392.293 1303.76 392.293V392.038ZM1266.54 375.469C1274.44 382.861 1289.23 387.705 1303.76 387.705C1331.81 387.705 1341.75 373.685 1341.75 360.43C1341.75 341.057 1323.9 336.724 1306.82 332.646C1291.53 328.822 1275.46 324.999 1275.46 309.45C1275.46 293.901 1283.62 287.783 1306.06 287.783C1328.49 287.783 1325.94 290.587 1334.61 295.685L1336.65 290.587C1328.49 285.489 1317.27 282.43 1306.06 282.43C1278.52 282.43 1268.58 296.45 1268.58 309.705C1268.58 329.332 1286.43 333.665 1303.76 337.999C1319.06 341.822 1334.86 345.646 1334.86 360.94C1334.86 376.234 1323.14 382.097 1303.76 382.097C1284.39 382.097 1277.5 377.508 1268.84 370.371L1266.29 375.214L1266.54 375.469Z" fill="#003366"/>
<path d="M459.4 417.019H493.817V446.333H459.4V480.999H429.827V446.588H395.41V417.274H429.827V395.607C427.788 394.842 425.493 394.333 423.199 393.568C385.213 380.313 368.642 335.195 389.292 300.529C414.021 258.98 474.187 258.725 499.171 300.019C520.076 334.431 503.76 379.803 466.029 393.313C463.734 394.078 461.44 394.588 459.4 395.352V416.764V417.019ZM440.79 298.744C417.59 300.784 403.568 325.764 412.746 347.176C422.944 370.372 454.811 375.215 470.872 355.588C490.758 331.627 471.892 296.45 440.79 298.999V298.744Z" fill="#EE4D9B"/>
<path d="M1066.92 189.648C1059.02 203.158 1049.58 210.295 1040.15 211.824C1046.01 200.099 1048.82 187.354 1048.82 176.648C1048.82 154.471 1036.07 140.962 1012.87 140.962C989.672 140.962 962.904 166.452 956.275 189.903H955.765C941.999 213.609 928.997 226.864 921.349 226.864C913.7 226.864 914.465 224.06 923.388 202.393L962.649 105.785H932.056L911.406 156.766C911.406 156.766 907.072 141.217 888.716 141.217C870.361 141.217 849.711 166.707 841.553 190.158C841.553 190.158 841.298 190.158 841.043 190.158C827.531 213.864 814.274 227.118 806.626 227.118C798.978 227.118 799.743 224.569 808.665 202.648L818.098 179.707C822.177 169.766 823.962 163.138 823.962 158.04C823.962 147.844 817.588 141.471 805.606 141.471C793.624 141.471 775.013 153.197 774.249 154.217L778.328 144.02H747.735L728.869 190.413H728.36C714.593 214.118 701.591 227.373 693.943 227.373C686.295 227.373 687.314 224.569 695.982 202.903L719.692 144.275H689.099L683.745 157.275C683.745 157.275 679.411 141.726 660.801 141.726C642.19 141.726 621.285 167.217 613.637 190.668C613.637 190.668 613.382 190.668 613.127 190.668C599.36 214.373 586.358 227.628 578.71 227.628C571.062 227.628 571.827 225.079 580.75 203.158L590.182 180.217C594.007 170.275 596.046 163.903 596.046 158.55C596.046 148.609 589.673 141.981 577.435 141.981C565.198 141.981 546.078 153.962 541.489 158.55C541.489 148.864 534.861 141.981 522.878 141.981C510.896 141.981 492.541 153.707 491.521 154.726L495.6 144.53H465.007L446.142 190.922H445.632C431.865 214.628 419.628 227.883 411.725 227.883C403.822 227.883 404.587 224.569 413.255 203.413L436.964 144.785H406.371L385.721 195.511C374.249 214.883 366.601 225.334 359.207 225.334C351.814 225.334 352.579 222.53 360.482 203.413L384.191 144.785H353.599L331.929 198.315C317.907 232.981 330.399 246.746 347.735 246.746C365.071 246.746 369.915 239.864 378.838 229.413C380.877 241.393 390.055 246.746 400.508 246.746C410.96 246.746 419.883 242.158 428.551 234.511L424.727 244.197H455.32L481.323 180.217C489.481 171.04 498.149 166.707 502.738 166.707C507.327 166.707 507.837 168.236 507.837 170.785C507.837 173.334 504.523 181.746 501.209 190.413C494.58 206.471 485.657 228.393 479.284 244.197H509.877L535.625 180.217C543.783 171.295 552.451 166.707 557.295 166.707C562.139 166.707 562.394 168.236 562.394 171.04C562.394 173.844 559.335 181.491 555.766 190.413L552.961 197.55C539.195 231.707 547.608 246.746 567.493 246.746C587.378 246.746 596.301 237.06 608.283 222.53C608.538 236.04 615.931 246.746 629.953 246.746C643.975 246.746 660.036 230.942 660.036 230.942C660.036 230.942 662.585 246.746 682.471 246.746C702.356 246.746 702.866 242.158 711.789 234.511L707.964 244.197H738.557L764.561 180.217C772.719 171.04 781.387 166.707 785.976 166.707C790.565 166.707 791.075 168.236 791.075 171.04C791.075 173.844 788.015 181.236 784.446 190.413L781.642 197.55C768.13 231.452 776.288 246.746 796.173 246.746C816.059 246.746 824.727 237.06 836.454 223.04C836.964 235.785 844.102 246.746 858.124 246.746C872.145 246.746 888.461 230.942 888.461 230.942C888.461 230.942 891.011 246.746 911.151 246.746C931.291 246.746 943.018 234.766 955.51 217.942C958.315 235.53 970.807 246.746 991.712 246.746C1012.62 246.746 1022.3 238.844 1031.74 227.628C1051.37 229.158 1068.7 216.413 1079.16 198.569C1077.63 195.001 1072.53 191.177 1068.45 190.922L1066.92 189.648ZM662.33 207.236C662.33 207.236 653.407 221.001 642.955 221.001C632.502 221.001 636.836 218.962 636.836 213.864C636.836 201.628 651.113 165.687 666.154 165.687C681.196 165.687 674.822 176.393 674.822 176.393L662.33 206.981V207.236ZM890.501 207.236C890.501 207.236 881.833 221.001 871.126 221.001C860.418 221.001 865.007 218.962 865.007 213.864C865.007 201.628 879.284 165.687 894.325 165.687C909.366 165.687 902.993 176.393 902.993 176.393L890.501 206.981V207.236ZM1015.68 189.903C1006.24 189.648 999.36 196.53 999.36 205.197C999.36 213.864 1000.89 213.099 1003.69 215.903C999.36 221.511 994.771 225.334 990.182 225.334C985.593 225.334 982.789 221.256 982.789 215.138C982.789 200.864 997.576 160.589 1012.62 160.589C1027.66 160.589 1020.01 163.393 1020.01 170.53C1020.01 177.668 1018.48 182.256 1015.68 189.648V189.903Z" fill="url(#paint0_linear_2682_26)"/>
<path d="M203.698 219.471C222.054 202.138 251.117 176.393 274.317 155.491C271.257 141.216 268.453 126.432 268.453 113.432C268.453 80.2945 286.554 59.9023 313.322 59.9023C340.091 59.9023 348.504 78.2553 348.504 94.0592C348.504 109.863 329.893 136.373 309.243 156.51C312.048 170.53 314.087 184.549 314.087 197.04C314.087 242.157 282.22 270.706 239.39 270.706C196.56 270.706 209.817 266.628 198.345 260C187.127 273.255 182.283 286.255 185.343 303.844H161.888C158.574 284.471 165.457 263.314 180.244 243.942C172.086 232.981 167.497 218.961 167.497 202.902C167.497 151.157 215.935 124.647 255.196 145.04L244.489 172.314C221.289 160.589 199.619 176.647 199.619 201.883C199.619 227.118 200.894 214.628 203.953 219.981L203.698 219.471ZM279.67 184.04C259.785 202.647 238.625 221.255 222.054 236.294C226.898 238.844 232.761 239.863 238.88 239.863C263.609 239.863 280.435 220.236 280.435 195.255C280.435 170.275 279.67 188.118 279.415 184.04H279.67ZM303.38 127.451C315.362 115.216 320.461 106.294 320.461 98.3925C320.461 90.4906 319.186 89.9808 313.322 89.9808C302.36 89.9808 301.595 105.02 301.595 110.118C301.595 115.216 302.36 120.824 303.38 127.196V127.451Z" fill="#00BDF2"/>
<path d="M370.172 468.509C335.246 479.724 298.28 482.783 262.078 477.685C257.489 476.92 255.705 484.822 260.294 485.842C280.944 490.685 301.849 495.783 322.499 500.626C319.694 509.548 316.89 518.724 314.086 527.646C312.811 529.43 313.576 531.469 315.36 532.489C317.145 534.018 319.949 534.018 321.479 531.979C338.305 512.607 355.641 493.999 373.742 475.901C376.291 473.352 374.506 467.234 370.172 468.509Z" fill="#00BDF2"/>
<path d="M234.031 532.234C230.971 532.234 227.912 532.234 225.108 531.979L225.618 523.057C228.422 523.057 231.481 523.312 234.286 523.312V532.234H234.031ZM252.131 531.469L251.367 522.802C254.171 522.548 256.975 522.293 259.78 521.783L261.054 530.45C257.995 530.959 255.191 531.214 252.131 531.469ZM207.007 529.94C203.948 529.43 201.144 528.92 198.084 528.41L199.869 519.744C202.673 520.253 205.477 520.763 208.282 521.273L206.752 529.94H207.007ZM278.9 526.626L276.606 518.214C279.41 517.45 282.214 516.685 284.764 515.665L287.568 524.077C284.764 525.097 281.704 525.861 278.9 526.626ZM180.748 523.567C177.944 522.802 174.885 521.783 172.08 520.763L175.14 512.351C177.944 513.371 180.493 514.136 183.298 515.155L180.748 523.567ZM304.394 517.195L300.57 509.293C303.119 508.018 305.669 506.744 308.218 505.469L312.552 513.116C310.003 514.646 307.198 515.92 304.394 517.195ZM155.509 514.136C152.705 512.861 150.156 511.587 147.351 510.312L151.43 502.41C153.98 503.685 156.529 504.959 159.333 506.234L155.764 514.391L155.509 514.136ZM131.545 501.391C128.996 499.861 126.446 498.332 123.897 496.548L128.741 489.155C131.035 490.685 133.585 492.214 136.134 493.744L131.545 501.391ZM109.365 486.351C107.071 484.567 104.522 482.528 102.482 480.744L108.091 473.861C110.385 475.646 112.425 477.43 114.719 479.214L109.365 486.097V486.351ZM88.9702 468.508C86.9307 466.469 84.6362 464.175 82.5967 462.136L88.9702 456.018C91.0097 458.057 93.0492 460.097 95.0888 462.136L88.9702 468.508ZM70.8695 448.881C68.83 446.587 67.0454 444.293 65.2609 441.744L72.3992 436.391C74.1837 438.685 75.9683 440.979 77.7529 443.273L70.8695 448.881ZM54.8083 427.214C53.2787 424.665 51.4941 422.116 49.9645 419.567L57.6127 414.979C59.1423 417.528 60.6719 419.822 62.2016 422.371L54.8083 427.214ZM41.2966 403.763C40.0219 401.214 38.7472 398.41 37.4725 395.606L45.6305 392.038C46.9052 394.587 48.1799 397.391 49.4546 399.94L41.5515 403.763H41.2966ZM30.844 379.038C29.8243 376.234 28.8045 373.43 28.0397 370.626L36.4527 367.822C37.2175 370.626 38.2373 373.175 39.257 375.979L30.844 379.038ZM22.9409 353.038L22.431 350.999C21.9212 348.704 21.4113 346.665 20.9014 344.371L29.5693 342.587C30.0792 344.626 30.3342 346.92 30.844 348.959L31.3539 350.999L22.686 353.038H22.9409ZM18.352 326.528C18.0971 323.469 17.5872 320.665 17.3323 317.606L26.0002 316.842C26.2551 319.646 26.5101 322.704 27.02 325.508L18.352 326.528ZM16.3125 299.763C16.3125 297.214 16.3125 294.665 16.3125 291.861V290.587H25.2354V291.861C25.2354 294.41 25.2354 296.959 25.2354 299.508H16.3125V299.763ZM25.4903 273.508L16.5674 272.999C16.5674 269.94 17.0773 267.136 17.3323 264.077L26.0002 264.842C25.7453 267.646 25.4903 270.704 25.2354 273.508H25.4903ZM28.5496 247.508L19.8817 246.234C20.3915 243.175 20.9014 240.371 21.4113 237.312L30.0792 238.842C29.5693 241.646 29.0595 244.45 28.5496 247.508ZM33.6484 222.018L24.9804 219.979C25.7453 217.175 26.5101 214.116 27.2749 211.312L35.6879 213.606C34.9231 216.41 34.1583 219.214 33.3934 222.018H33.6484ZM41.0416 197.038L32.6286 194.234C33.6484 191.43 34.6681 188.626 35.6879 185.822L43.846 188.881C42.8262 191.685 41.8064 194.234 41.0416 197.038ZM50.4744 172.567L42.3163 168.999C43.591 166.195 44.8657 163.646 46.1404 160.842L54.0435 164.665C52.7688 167.214 51.4941 170.018 50.4744 172.567ZM61.9466 149.116L54.2985 144.783C55.8281 142.234 57.1028 139.43 58.6324 136.881L66.2806 141.214C64.751 143.763 63.4763 146.312 61.9466 148.861V149.116ZM75.4584 126.94L68.0652 122.097C69.8498 119.548 71.3794 117.253 73.164 114.704L80.3023 119.802C78.5177 122.097 76.9881 124.646 75.4584 126.94ZM558.823 124.391C558.059 123.371 557.039 122.606 556.274 121.587L562.648 115.469C563.412 116.489 564.432 117.253 565.197 118.273L558.823 124.391ZM544.037 109.351C541.997 107.312 539.703 105.273 537.663 103.489L543.527 96.8613C545.822 98.9005 547.861 100.94 550.156 102.979L544.037 109.351ZM91.0097 105.783L84.1264 100.175C85.9109 97.8809 87.9505 95.5868 89.99 93.2927L96.6184 99.1554C94.8338 101.45 92.7943 103.489 91.0097 105.783ZM524.407 92.0181C522.112 90.2338 519.818 88.4495 517.523 86.6652L522.877 79.7829C525.171 81.5672 527.466 83.3515 529.76 85.3907L524.152 92.2731L524.407 92.0181ZM108.346 86.4103L101.972 80.2927C104.012 78.2534 106.306 75.9593 108.346 73.9201L114.464 80.2927C112.425 82.3319 110.385 84.3711 108.346 86.4103ZM503.757 75.9593C501.462 74.175 498.913 72.6456 496.618 71.1162L501.462 63.724C504.011 65.2534 506.306 67.0378 508.855 68.8221L503.757 75.9593ZM127.721 68.8221L122.112 61.9397C124.407 60.1554 126.701 58.1162 129.251 56.3319L134.604 63.4691C132.31 65.2534 130.015 67.0378 127.721 68.8221ZM481.832 61.9397C479.282 60.4103 476.733 59.1358 474.184 57.6064L478.518 49.9593C481.067 51.4887 483.616 52.7632 486.166 54.2927L481.577 61.9397H481.832ZM148.626 53.7829L143.782 46.3907C146.332 44.8613 148.881 43.077 151.43 41.8025L156.019 49.4495C153.47 50.9789 151.175 52.5083 148.626 54.0378V53.7829ZM458.632 49.4495C456.083 48.175 453.279 46.9005 450.729 45.626L454.298 37.4691C457.103 38.7436 459.652 40.0182 462.456 41.2927L458.632 49.1946V49.4495ZM171.316 41.0378L167.492 33.1358C170.296 31.8613 172.845 30.5868 175.65 29.3123L179.219 37.4691C176.669 38.4887 173.865 39.7633 171.316 41.0378ZM434.668 38.9985C431.864 37.9789 429.314 36.9593 426.51 35.9397L429.569 27.528C432.374 28.5476 435.178 29.5672 437.982 30.5868L434.668 38.7436V38.9985ZM195.28 31.3515L192.476 22.9397C195.28 21.9201 198.084 21.1554 201.144 20.3907L203.693 28.8025C200.889 29.5672 198.084 30.3319 195.535 31.3515H195.28ZM410.194 30.5868C407.389 29.8221 404.585 28.8025 401.781 28.0378L404.075 19.626C406.88 20.3907 409.684 21.1554 412.743 22.175L410.194 30.5868ZM220.264 24.4691L218.224 15.8025C221.029 15.0378 224.088 14.528 226.892 14.0182L228.677 22.6848C225.873 23.1946 223.068 23.9593 220.264 24.4691ZM384.7 23.9593C381.896 23.4495 379.091 22.6848 376.287 22.175L378.071 13.5083C380.876 14.0182 383.935 14.7829 386.739 15.2927L384.7 23.9593ZM246.013 19.626L244.738 10.9593C247.542 10.4495 250.602 10.1946 253.661 9.68482L254.681 18.3515C251.876 18.6064 248.817 19.1162 246.013 19.626ZM359.206 19.1162C356.402 18.6064 353.342 18.3515 350.538 17.8417L351.558 9.17502C354.617 9.42992 357.421 9.93972 360.481 10.4495L359.206 19.1162ZM272.017 16.5672L271.252 7.6456C274.311 7.6456 277.115 7.1358 280.175 6.8809L280.685 15.8025C277.88 15.8025 274.821 16.3123 272.017 16.3123V16.5672ZM333.202 16.3123C330.398 16.3123 327.339 15.8025 324.534 15.8025L325.044 6.8809C328.103 6.8809 330.908 7.1358 333.967 7.3907L333.202 16.3123ZM298.275 15.2927V6.37109C300.315 6.37109 302.609 6.37109 304.649 6.37109H306.943V15.2927H304.649C302.354 15.2927 300.315 15.2927 298.275 15.2927Z" fill="#00BDF2"/>
<path d="M1096.74 170.02C1131.67 158.804 1168.64 155.745 1204.84 160.843C1209.43 161.608 1211.21 153.706 1206.62 152.686C1185.97 147.843 1165.07 142.745 1144.42 137.902C1147.22 128.981 1150.03 119.804 1152.83 110.883C1154.11 109.098 1153.34 107.059 1151.56 106.039C1149.77 104.51 1146.97 104.51 1145.44 106.549C1128.61 125.922 1111.28 144.53 1093.17 162.628C1090.63 165.177 1092.41 171.294 1096.74 170.02Z" fill="#EE4D9B"/>
<path d="M1095.47 172.315C1093.69 172.315 1091.9 171.295 1090.88 169.766C1089.35 167.217 1089.61 163.393 1091.65 161.354C1109.75 143.256 1127.34 124.393 1143.91 105.276C1144.93 104.001 1146.2 103.237 1147.73 102.982C1149.52 102.727 1151.56 103.237 1152.83 104.511C1155.38 106.295 1156.15 109.354 1154.62 111.903L1146.97 136.374L1207.13 150.648C1210.19 151.413 1211.98 154.217 1211.47 157.531C1210.96 160.59 1208.41 163.393 1204.58 162.884C1168.38 157.786 1132.44 160.844 1097.51 172.06C1097 172.06 1096.24 172.315 1095.73 172.315H1095.47ZM1146.97 108.08C1130.4 127.197 1112.81 146.06 1094.71 164.158C1093.94 164.923 1093.94 166.452 1094.71 167.472C1094.96 167.982 1095.47 168.237 1096.24 167.982C1131.67 156.766 1168.38 153.707 1205.35 158.805C1206.62 158.805 1207.39 157.531 1207.39 157.021C1207.39 156.511 1207.39 155.237 1206.37 154.982L1141.87 139.688L1151.3 110.119C1152.07 109.099 1151.3 108.335 1150.79 108.08C1150.03 107.57 1149.26 107.315 1148.75 107.315C1148.24 107.315 1147.99 107.57 1147.73 108.08V108.59L1146.97 108.08Z" fill="#EE4D9B"/>
<path d="M1162.52 639.548H1160.23V630.627H1162.52C1164.56 630.627 1166.86 630.627 1168.9 630.627V639.548C1166.86 639.548 1164.56 639.548 1162.52 639.548ZM1142.64 639.038C1139.58 639.038 1136.77 638.783 1133.72 638.529L1134.48 629.862C1137.28 629.862 1140.34 630.372 1143.15 630.372L1142.64 639.038ZM1187 638.783L1186.49 630.117C1189.29 630.117 1192.35 629.607 1195.16 629.607L1195.92 638.274C1192.86 638.274 1190.06 638.783 1187 639.038V638.783ZM1115.87 636.744C1113.07 636.489 1110.01 635.98 1106.95 635.47L1108.22 626.803C1111.03 627.313 1114.08 627.568 1116.89 628.078L1115.87 636.744ZM1213.51 636.234L1212.49 627.568C1215.3 627.313 1218.36 626.803 1221.16 626.293L1222.43 634.96C1219.63 635.47 1216.57 635.725 1213.51 636.234ZM1089.61 632.666C1086.81 632.156 1083.75 631.391 1080.94 630.882L1082.98 622.215C1085.79 622.725 1088.59 623.489 1091.4 623.999L1089.61 632.666ZM1240.02 631.901L1238.24 623.234C1241.04 622.725 1243.85 621.96 1246.65 621.45L1248.69 630.117C1245.89 630.882 1242.83 631.391 1240.02 631.901ZM1063.61 626.293C1060.8 625.529 1058 624.764 1054.94 623.744L1057.49 615.332C1060.29 616.097 1063.1 616.862 1065.9 617.881L1063.61 626.293ZM1266.03 625.783L1263.48 617.372C1266.28 616.607 1269.09 615.842 1271.64 614.823L1274.44 623.234C1271.64 624.254 1268.83 625.019 1265.77 625.783H1266.03ZM1038.11 618.391C1035.31 617.372 1032.5 616.352 1029.7 615.332L1033.01 607.176C1035.82 608.195 1038.37 609.215 1041.17 610.234L1038.11 618.391ZM1291.27 616.607L1287.7 608.45C1290.25 607.176 1293.05 606.156 1295.6 604.882L1299.43 612.783C1296.62 614.058 1294.07 615.332 1291.27 616.607ZM1013.38 608.195C1010.58 606.921 1008.03 605.646 1005.23 604.372L1009.05 596.47C1011.6 597.744 1014.4 599.019 1016.95 600.038L1013.38 607.94V608.195ZM1315.23 604.372L1310.64 596.725C1313.19 595.195 1315.49 593.666 1318.04 592.136L1322.88 599.529C1320.33 601.058 1317.78 602.587 1315.23 604.117V604.372ZM989.42 596.215C986.87 594.685 984.321 593.411 981.771 591.882L986.105 584.234C988.655 585.764 991.204 587.038 993.754 588.568L989.42 596.215ZM1337.67 589.587L1332.31 582.45C1334.61 580.666 1336.9 578.881 1339.2 577.097L1344.81 583.98C1342.51 585.764 1340.22 587.803 1337.67 589.587ZM966.475 582.195C963.926 580.666 961.631 578.881 959.082 577.097L964.181 569.96C966.475 571.744 969.024 573.274 971.319 574.803L966.475 582.195ZM1358.06 572.254L1351.94 565.882C1353.98 563.842 1356.02 561.803 1358.06 559.764L1364.44 565.882C1362.4 567.921 1360.1 570.215 1358.06 572.254ZM944.805 566.646C942.511 564.862 940.216 563.078 937.922 561.038L943.531 554.156C945.825 555.94 948.119 557.725 950.414 559.509L945.06 566.391L944.805 566.646ZM1376.67 552.881L1370.04 547.019C1371.83 544.725 1373.87 542.685 1375.65 540.391L1382.54 545.999C1380.75 548.293 1378.71 550.587 1376.67 552.881ZM1393.5 531.725L1386.36 526.627C1388.14 524.333 1389.67 521.783 1391.2 519.489L1398.6 524.332C1396.81 526.882 1395.28 529.176 1393.5 531.725ZM1408.03 509.293L1400.38 504.96C1401.91 502.411 1403.19 499.862 1404.72 497.313L1412.36 501.646C1410.83 504.195 1409.56 506.744 1408.03 509.548V509.293ZM1420.52 485.332L1412.62 481.509C1413.89 478.96 1415.17 476.156 1416.19 473.607L1424.35 477.176C1423.07 479.98 1421.8 482.529 1420.52 485.332ZM1430.97 460.862L1422.82 457.803C1423.84 454.999 1424.86 452.45 1425.62 449.646L1434.03 452.45C1433.01 455.254 1431.99 458.058 1430.97 460.862ZM1439.13 435.372L1430.72 433.078C1431.48 430.274 1432.25 427.47 1433.01 424.666L1441.68 426.705C1440.92 429.509 1440.15 432.568 1439.39 435.372H1439.13ZM1445.25 409.117L1436.58 407.587C1437.09 404.783 1437.6 401.98 1438.11 398.921L1446.78 400.195C1446.27 403.254 1445.76 406.058 1445.25 408.862V409.117ZM1449.08 382.607L1440.41 381.842C1440.66 379.038 1440.92 375.98 1441.17 373.176L1449.84 373.685C1449.84 376.744 1449.33 379.548 1449.08 382.607ZM1450.35 356.097H1441.43V354.823C1441.43 352.274 1441.43 349.725 1441.43 347.431H1450.35C1450.35 349.725 1450.35 352.274 1450.35 354.823V356.097ZM1440.41 329.842C1440.15 327.038 1439.9 324.234 1439.39 321.176L1448.06 320.156C1448.31 323.215 1448.82 326.019 1449.08 329.078L1440.41 329.842ZM1436.58 304.352C1436.07 302.313 1435.82 300.019 1435.31 297.98L1434.8 295.94L1443.47 293.901L1443.98 295.94C1444.49 298.234 1445 300.274 1445.51 302.568L1436.84 304.352H1436.58ZM1430.21 279.117C1429.44 276.313 1428.43 273.764 1427.41 270.96L1435.56 267.901C1436.58 270.705 1437.6 273.509 1438.37 276.313L1429.95 278.862L1430.21 279.117ZM1421.03 255.156C1419.76 252.607 1418.48 249.803 1417.21 247.254L1425.11 243.431C1426.39 245.98 1427.66 248.783 1428.94 251.587L1421.03 255.156ZM1409.05 232.215C1407.52 229.666 1405.99 227.372 1404.46 224.823L1411.85 219.98C1413.38 222.529 1415.17 225.078 1416.7 227.627L1409.05 232.215ZM1394.52 210.803C1392.73 208.509 1390.95 206.215 1389.16 204.176L1396.05 198.568C1397.83 200.862 1399.87 203.156 1401.66 205.45L1394.77 210.803H1394.52ZM1377.69 191.176C1375.65 189.136 1373.61 187.097 1371.57 185.058L1377.69 178.685C1379.73 180.725 1382.03 182.764 1384.07 185.058L1377.69 191.176ZM1358.57 173.332C1356.28 171.548 1354.24 169.764 1351.94 167.98L1357.3 161.097C1359.59 162.882 1361.89 164.666 1364.18 166.705L1358.57 173.587V173.332ZM1337.92 158.038C1335.63 156.509 1333.08 154.98 1330.53 153.45L1335.12 145.803C1337.67 147.332 1340.22 148.862 1342.77 150.646L1337.92 158.038ZM1315.49 145.038C1312.94 143.764 1310.39 142.489 1307.58 141.215L1311.15 133.313C1313.96 134.587 1316.51 135.862 1319.31 137.136L1315.49 145.038ZM1158.95 142.234L1154.62 134.587C1157.17 133.058 1159.97 131.783 1162.78 130.509L1166.6 138.411C1164.05 139.685 1161.5 140.96 1158.95 142.234ZM1291.78 134.842C1288.97 133.823 1286.42 133.058 1283.62 132.038L1286.17 123.627C1288.97 124.391 1291.78 125.411 1294.58 126.431L1291.52 134.842H1291.78ZM1182.41 131.783L1179.6 123.372C1182.41 122.352 1185.47 121.587 1188.27 120.823L1190.57 129.234C1187.76 129.999 1185.21 130.764 1182.41 131.783ZM1267.05 127.96C1264.24 127.45 1261.44 126.94 1258.64 126.431L1260.17 117.764C1263.22 118.274 1266.03 118.783 1269.09 119.293L1267.3 127.96H1267.05ZM1207.39 125.921L1206.12 117.254C1209.18 116.744 1211.98 116.489 1215.04 116.234L1215.81 124.901C1213 125.156 1210.2 125.411 1207.39 125.921ZM1241.55 124.391C1238.75 124.391 1235.95 124.136 1232.89 124.136V115.215C1235.95 115.215 1239.01 115.215 1242.06 115.47L1241.55 124.136V124.391Z" fill="#EE4D9B"/>
<defs>
<linearGradient id="paint0_linear_2682_26" x1="428.806" y1="175.373" x2="998.595" y2="175.373" gradientUnits="userSpaceOnUse">
<stop stop-color="#00BDF2"/>
<stop offset="1" stop-color="#EE4D9B"/>
</linearGradient>
</defs>
</svg>
