<svg width="50" height="50" viewBox="0 0 50 50" fill="none" xmlns="http://www.w3.org/2000/svg">
<path d="M5.00016 8.00002C4.73514 7.99627 4.47202 8.04523 4.22608 8.14406C3.98014 8.24289 3.7563 8.38961 3.56756 8.5757C3.37882 8.76179 3.22895 8.98353 3.12665 9.22805C3.02436 9.47256 2.97168 9.73497 2.97168 10C2.97168 10.2651 3.02436 10.5275 3.12665 10.772C3.22895 11.0165 3.37882 11.2382 3.56756 11.4243C3.7563 11.6104 3.98014 11.7571 4.22608 11.856C4.47202 11.9548 4.73514 12.0038 5.00016 12H45.0002C45.2652 12.0038 45.5283 11.9548 45.7743 11.856C46.0202 11.7571 46.244 11.6104 46.4328 11.4243C46.6215 11.2382 46.7714 11.0165 46.8737 10.772C46.976 10.5275 47.0286 10.2651 47.0286 10C47.0286 9.73497 46.976 9.47256 46.8737 9.22805C46.7714 8.98353 46.6215 8.76179 46.4328 8.5757C46.244 8.38961 46.0202 8.24289 45.7743 8.14406C45.5283 8.04523 45.2652 7.99627 45.0002 8.00002H5.00016ZM5.00016 23C4.73514 22.9963 4.47202 23.0452 4.22608 23.1441C3.98014 23.2429 3.7563 23.3896 3.56756 23.5757C3.37882 23.7618 3.22895 23.9835 3.12665 24.228C3.02436 24.4726 2.97168 24.735 2.97168 25C2.97168 25.2651 3.02436 25.5275 3.12665 25.772C3.22895 26.0165 3.37882 26.2382 3.56756 26.4243C3.7563 26.6104 3.98014 26.7571 4.22608 26.856C4.47202 26.9548 4.73514 27.0038 5.00016 27H45.0002C45.2652 27.0038 45.5283 26.9548 45.7743 26.856C46.0202 26.7571 46.244 26.6104 46.4328 26.4243C46.6215 26.2382 46.7714 26.0165 46.8737 25.772C46.976 25.5275 47.0286 25.2651 47.0286 25C47.0286 24.735 46.976 24.4726 46.8737 24.228C46.7714 23.9835 46.6215 23.7618 46.4328 23.5757C46.244 23.3896 46.0202 23.2429 45.7743 23.1441C45.5283 23.0452 45.2652 22.9963 45.0002 23H5.00016ZM5.00016 38C4.73514 37.9963 4.47202 38.0452 4.22608 38.1441C3.98014 38.2429 3.7563 38.3896 3.56756 38.5757C3.37882 38.7618 3.22895 38.9835 3.12665 39.228C3.02436 39.4726 2.97168 39.735 2.97168 40C2.97168 40.2651 3.02436 40.5275 3.12665 40.772C3.22895 41.0165 3.37882 41.2382 3.56756 41.4243C3.7563 41.6104 3.98014 41.7571 4.22608 41.856C4.47202 41.9548 4.73514 42.0038 5.00016 42H45.0002C45.2652 42.0038 45.5283 41.9548 45.7743 41.856C46.0202 41.7571 46.244 41.6104 46.4328 41.4243C46.6215 41.2382 46.7714 41.0165 46.8737 40.772C46.976 40.5275 47.0286 40.2651 47.0286 40C47.0286 39.735 46.976 39.4726 46.8737 39.228C46.7714 38.9835 46.6215 38.7618 46.4328 38.5757C46.244 38.3896 46.0202 38.2429 45.7743 38.1441C45.5283 38.0452 45.2652 37.9963 45.0002 38H5.00016Z" fill="black"/>
</svg>
