<svg width="100" height="100" viewBox="0 0 100 100" fill="none" xmlns="http://www.w3.org/2000/svg">
<path d="M59.5045 33.3668L50.3985 40.0695L41.2924 33.3668C40.8652 32.9663 40.1976 32.9663 39.797 33.3668C39.3697 33.7941 39.3697 34.4617 39.797 34.8622L49.3036 42.0723V49.1755C49.3036 49.763 49.7843 50.2437 50.3717 50.2437C50.9592 50.2437 51.4399 49.763 51.4399 49.1755V42.099L60.9999 34.8622C61.4272 34.435 61.4272 33.7674 60.9999 33.3668C60.5993 32.9663 59.9317 32.9663 59.5045 33.3668Z" fill="#606060"/>
<path d="M30.7125 13.8179C30.7125 16.328 29.7244 18.7047 27.9352 20.4938C26.1461 22.283 23.7961 23.271 21.2593 23.271C16.052 23.271 11.8328 19.0251 11.8328 13.8446C11.8328 11.3344 12.8208 8.95776 14.61 7.1686C16.3992 5.37944 18.7758 4.39139 21.286 4.39139C26.4932 4.39139 30.7125 8.6106 30.7125 13.8179ZM12.2067 4.76525C9.7766 7.1953 8.44141 10.4265 8.44141 13.8446C8.44141 20.9211 14.2094 26.6624 21.286 26.6624C24.7041 26.6624 27.9352 25.3272 30.3653 22.8972C32.7954 20.4671 34.1305 17.236 34.1305 13.8179C34.1305 6.74133 28.3625 1 21.286 1C17.8679 1 14.6367 2.33519 12.2067 4.76525Z" fill="#606060"/>
<path d="M13.3316 30.6142C19.4468 34.6732 26.0427 32.7505 29.6477 30.5875C33.0925 34.4863 33.9203 40.1475 34.0805 42.9247H8.49821C9.03229 36.4357 11.8362 32.35 13.3316 30.6142ZM6.70905 46.2894H35.8163C36.7242 46.2894 37.4719 45.5684 37.5253 44.6605C37.552 44.2065 37.8191 33.3647 31.0096 27.116C30.3954 26.5552 29.4875 26.5285 28.8199 27.0092C28.7398 27.0626 21.2093 32.7238 14.1861 27.0359C13.5452 26.5018 12.6373 26.5285 11.9964 27.0626C11.7027 27.3029 5.16022 33.1511 5 44.5803C5 45.0343 5.16022 45.4616 5.48067 45.8087C5.82782 46.1292 6.25508 46.2894 6.70905 46.2894Z" fill="#606060"/>
<path d="M72.0553 7.1686C73.8445 5.37944 76.1944 4.39139 78.7313 4.39139C83.9385 4.39139 88.1578 8.63731 88.1578 13.8179C88.1578 16.328 87.1697 18.7047 85.3806 20.4938C83.5914 22.283 81.2415 23.271 78.7046 23.271C73.4973 23.271 69.2781 19.0251 69.2781 13.8446C69.3048 11.3077 70.2662 8.93105 72.0553 7.1686ZM78.7313 26.6624C82.1494 26.6624 85.3806 25.3272 87.8106 22.8972C90.2407 20.4671 91.5759 17.236 91.5759 13.8179C91.5759 6.74133 85.8078 1 78.7313 1C75.3132 1 72.082 2.33519 69.652 4.76525C67.2219 7.1953 65.8867 10.4265 65.8867 13.8446C65.9134 20.8944 71.6548 26.6624 78.7313 26.6624Z" fill="#606060"/>
<path d="M65.9363 42.898C66.4704 36.409 69.2743 32.35 70.7698 30.5875C76.8849 34.6465 83.4541 32.7238 87.0858 30.5608C90.5306 34.4596 91.3585 40.1208 91.5187 42.898H65.9363ZM94.9902 44.6605C95.0169 44.2065 95.2839 33.3647 88.4744 27.116C87.8602 26.5552 86.9523 26.5285 86.2847 27.0092C86.2046 27.0626 78.6741 32.7238 71.651 27.0359C71.0101 26.5018 70.1022 26.5285 69.4613 27.0626C69.1675 27.3029 62.6251 33.1511 62.4648 44.5803C62.4648 45.0343 62.6251 45.4616 62.9455 45.8087C63.266 46.1292 63.6932 46.3161 64.1472 46.3161H93.2544C94.2158 46.2894 94.9635 45.5684 94.9902 44.6605Z" fill="#606060"/>
<path d="M57.0752 73.419C55.2861 75.2081 52.9094 76.1962 50.3993 76.1962C45.192 76.1962 40.9728 71.977 40.9728 66.7697C40.9728 64.2595 41.9608 61.8829 43.75 60.0937C45.5391 58.3046 47.9158 57.3165 50.426 57.3165C55.6332 57.3165 59.8524 61.5625 59.8524 66.743C59.8524 69.2532 58.8644 71.6298 57.0752 73.419ZM50.3993 53.8984C46.9812 53.8984 43.75 55.2336 41.3199 57.6637C38.8899 60.0937 37.5547 63.3249 37.5547 66.743C37.5547 73.8195 43.3227 79.5609 50.3993 79.5609C53.8174 79.5609 57.0485 78.2257 59.4786 75.7956C61.9086 73.3656 63.2438 70.1344 63.2438 66.7163C63.2438 59.6665 57.4758 53.8984 50.3993 53.8984Z" fill="#606060"/>
<path d="M42.469 83.5187C48.5842 87.5777 55.1533 85.655 58.785 83.492C62.2298 87.3908 63.0577 93.052 63.2179 95.8292H37.6356C38.1429 89.3402 40.9469 85.2812 42.469 83.5187ZM35.8464 99.2206H64.9536C65.8616 99.2206 66.6093 98.4996 66.6627 97.5917C66.6627 97.1377 66.9564 86.2959 60.147 80.0472C59.5328 79.4864 58.6248 79.4597 57.9572 79.9671C57.8771 80.0205 50.3466 85.6817 43.3502 79.9671C42.7093 79.4597 41.7747 79.4597 41.1605 79.9938C40.8934 80.2341 34.3243 86.0556 34.1641 97.5116C34.1641 97.9655 34.3243 98.3928 34.6447 98.7399C34.9652 99.0337 35.3924 99.2206 35.8464 99.2206Z" fill="#606060"/>
</svg>
