<svg width="100" height="100" viewBox="0 0 100 100" fill="none" xmlns="http://www.w3.org/2000/svg">
<path d="M64.5729 93.5916H18.482C16.6571 93.5916 15.1451 92.1056 15.1451 90.2547V10.482C15.1451 8.65709 16.631 7.14505 18.482 7.14505H81.492C83.3168 7.14505 84.8289 8.63102 84.8289 10.482V74.5087H75.1571C69.3436 74.5087 64.5989 79.2533 64.5989 85.0668V93.5916H64.5729ZM69.7607 91.3757V84.5194C69.7607 81.6778 72.0548 79.3837 74.8964 79.3837H82.4826L69.7607 91.3757ZM67.988 97.2413C68.4312 97.2413 68.8743 97.0849 69.2132 96.7721L88.1397 78.9405C88.5047 78.6016 88.6872 78.1323 88.6872 77.6631C88.8697 77.3503 89 76.9853 89 76.5942V10.482C89 6.36297 85.6631 3 81.5181 3H18.482C14.363 3 11 6.36297 11 10.482V90.2547C11 94.3737 14.363 97.7366 18.482 97.7366H66.6584C67.1537 97.7366 67.623 97.5541 67.988 97.2413Z" fill="#606060"/>
<path d="M27.5769 25.2123H72.4165V28.1061H27.5769V25.2123ZM27.1598 30.5827H72.8336C73.9806 30.5827 74.9191 29.6442 74.9191 28.4971V24.7692C74.9191 23.6221 73.9806 22.6836 72.8336 22.6836H27.1598C26.0127 22.6836 25.0742 23.6221 25.0742 24.7692V28.4971C25.0742 29.6442 26.0127 30.5827 27.1598 30.5827Z" fill="#606060"/>
<path d="M27.5769 38.1941H72.4165V41.0878H27.5769V38.1941ZM27.1598 43.5905H72.8336C73.9806 43.5905 74.9191 42.652 74.9191 41.5049V37.777C74.9191 36.6299 73.9806 35.6914 72.8336 35.6914H27.1598C26.0127 35.6914 25.0742 36.6299 25.0742 37.777V41.5049C25.0742 42.652 26.0127 43.5905 27.1598 43.5905Z" fill="#606060"/>
<path d="M72.4165 54.0995H27.5769V51.2058H72.4165V54.0995ZM74.8931 54.5166V50.7887C74.8931 49.6416 73.9546 48.7031 72.8075 48.7031H27.1598C26.0127 48.7031 25.0742 49.6416 25.0742 50.7887V54.5166C25.0742 55.6637 26.0127 56.6022 27.1598 56.6022H72.8336C73.9546 56.5761 74.8931 55.6637 74.8931 54.5166Z" fill="#606060"/>
</svg>
