<svg width="100" height="100" viewBox="0 0 100 100" fill="none" xmlns="http://www.w3.org/2000/svg">
<path d="M87.9763 15.3147V18.6767H91.1296C90.1326 17.6101 89.1124 16.5436 87.9763 15.3147ZM42.5551 7.06054V72.3984H45.4765V70.0334C45.4765 50.9978 45.4765 31.9622 45.4765 12.9266C45.4765 10.1443 45.662 9.95877 48.4907 9.95877C60.1764 9.95877 71.8621 9.95877 83.5478 9.95877C84.9621 9.95877 86.3765 10.0747 87.7908 10.1443V7.06054H42.5551ZM93.8655 78.2876V21.8763C91.8019 21.8763 89.8775 21.8763 87.9299 21.8763C85.1244 21.8763 84.8694 21.6213 84.8694 18.9317C84.8694 16.9609 84.8694 15.0133 84.8694 13.1121H48.6066V78.2876H93.8655ZM45.4534 75.4125C43.8303 75.4125 42.5551 75.3894 41.2799 75.4125C39.9815 75.4357 39.3787 74.7865 39.3555 73.5577C39.3555 73.1403 39.3555 72.723 39.3555 72.3056V7.08372C39.3555 4.18549 39.541 4 42.4392 4C57.6028 4 72.7895 4 87.9531 4C90.6658 4 91.1991 4.27823 90.8745 6.82868C90.2717 11.7441 91.5701 15.6857 95.7899 18.6535C96.5087 19.1636 96.9492 20.4852 96.9492 21.4358C97.0188 40.5178 96.9956 59.623 96.9956 78.7049C96.9956 81.0467 96.6478 81.3945 94.2133 81.3945C78.9338 81.3945 63.6311 81.3945 48.3516 81.3945C45.7548 81.3945 45.4997 81.1163 45.4765 78.6354C45.4534 77.6384 45.4534 76.6414 45.4534 75.4125Z" fill="#606060"/>
<path d="M21.3407 78.2186H27.0908V75.4595H21.3407V78.2186ZM9.49274 84.247H39.0547C38.1273 82.5312 36.9448 81.4878 35.1363 81.4647C27.8792 81.4183 20.622 81.4183 13.3648 81.4647C11.5795 81.4647 10.2811 82.3689 9.49274 84.247ZM42.2776 87.4234H6.15397V93.1967H42.3008V87.4234H42.2776ZM26.6271 72.399C27.9951 68.0168 29.5253 63.9593 30.4528 59.7858C31.2179 56.3775 31.473 52.8301 31.5889 49.329C31.6353 48.1002 30.8701 46.6626 30.0818 45.5961C28.2733 43.092 24.9809 42.1646 22.0827 43.0225C19.0453 43.9267 16.5876 46.7786 16.7267 50.2101C16.8659 53.7111 17.5151 57.2122 18.2338 60.6437C18.8598 63.542 19.9728 66.3706 20.7843 69.2457C21.0625 70.2427 21.0625 71.3324 21.1784 72.4222H26.6271V72.399ZM6.17716 84.247C7.98566 78.265 12.8779 78.1259 18.002 78.4273C18.2802 73.5351 18.2802 68.8747 16.4021 64.4462C14.4545 59.9018 13.4112 55.2182 13.5966 50.2564C13.8053 44.4368 18.4657 39.7301 24.1926 39.6837C29.9891 39.6605 34.6494 44.1817 34.8349 50.0941C34.974 54.6386 34.3016 59.0671 32.4468 63.2637C30.36 68.0168 30.0354 72.9786 30.36 78.3577C31.5657 78.3577 32.7018 78.3577 33.8379 78.3577C37.71 78.3114 40.5618 79.7721 42.0457 83.4818C42.208 83.8992 43.0195 84.2701 43.5528 84.2933C44.8744 84.3861 45.4541 85.0121 45.4772 86.2178C45.5004 88.9073 45.5004 91.6201 45.4772 94.3328C45.4541 95.6544 44.7585 96.2573 43.3905 96.2573C30.6151 96.2341 17.8165 96.2341 5.04105 96.2573C3.53397 96.2573 2.97751 95.5153 3.00069 94.1242C3.04706 91.9679 3.00069 89.8116 3.00069 87.6321C3.00069 84.5252 3.00069 84.5252 6.17716 84.247Z" fill="#606060"/>
<path d="M54.6359 24.7552H78.6332V18.9819H54.6359V24.7552ZM66.5534 27.7925C62.3336 27.7925 58.1137 27.7462 53.8939 27.8157C52.155 27.8389 51.4362 27.1665 51.4826 25.474C51.5521 23.0163 51.5289 20.5586 51.4826 18.0777C51.4594 16.5938 52.1086 15.875 53.6852 15.875C62.3799 15.8982 71.0515 15.8982 79.7462 15.875C81.2301 15.875 81.8793 16.5474 81.8793 17.9617C81.8793 20.5354 81.8561 23.1322 81.8793 25.7058C81.8793 27.2361 81.1141 27.8157 79.5839 27.8157C75.2249 27.7694 70.8892 27.7925 66.5534 27.7925Z" fill="#606060"/>
<path d="M51.5547 33.6302V30.8711H90.8084C90.8548 31.729 90.8779 32.5868 90.9243 33.6302H51.5547Z" fill="#606060"/>
<path d="M90.7857 36.8594H51.6016V39.6185H90.7857V36.8594Z" fill="#606060"/>
<path d="M75.6412 51.6953H51.5742V54.4544H75.6412V51.6953Z" fill="#606060"/>
<path d="M75.6651 62.1758H51.6445V64.8422H75.6651V62.1758Z" fill="#606060"/>
<path d="M75.6216 72.582H51.5547V75.2948H75.6216V72.582Z" fill="#606060"/>
<path d="M77.5391 49.4909C78.3274 48.9576 79.0693 48.4707 79.9968 47.8679C80.646 48.749 81.272 49.5837 82.0139 50.5575C84.1238 48.0766 86.1642 45.7116 88.2509 43.2539C89.0393 43.9031 89.7348 44.4596 90.5927 45.132C88.0191 48.1461 85.5614 51.1139 82.9877 53.989C82.1299 54.9628 81.1097 54.6846 80.3909 53.6412C79.4635 52.3196 78.5361 50.9748 77.5391 49.4909Z" fill="#606060"/>
<path d="M88.2551 64.0781C89.0434 64.7041 89.739 65.2838 90.5969 65.9562C88.0232 68.9704 85.5655 71.9381 83.0383 74.8132C82.1572 75.8102 81.1602 75.532 80.4415 74.5118C79.4908 73.1902 78.6098 71.8454 77.5664 70.3151C78.3547 69.7819 79.0735 69.2949 80.0009 68.6689C80.6733 69.55 81.2993 70.3615 82.0413 71.3353C84.128 68.9008 86.1452 66.5358 88.2551 64.0781Z" fill="#606060"/>
<path d="M77.5391 59.8857C78.4201 59.306 79.1157 58.8423 79.9968 58.2859C80.646 59.1437 81.272 59.9784 82.0139 60.9522C84.1238 58.4714 86.1642 56.1064 88.2509 53.6719C89.0393 54.2979 89.7348 54.8544 90.5927 55.5499C88.0191 58.5641 85.5614 61.5319 83.0109 64.4069C82.153 65.3808 81.1329 65.1257 80.4141 64.1055C79.4635 62.7607 78.5592 61.416 77.5391 59.8857Z" fill="#606060"/>
</svg>
