<svg width="100" height="100" viewBox="0 0 100 100" fill="none" xmlns="http://www.w3.org/2000/svg">
<path d="M14.6141 43.8868V38.2323C12.8065 40.0399 10.7903 42.0792 8.98272 43.8868H14.6141ZM6.03956 93.7119H43.9762V35.2428H17.7195C17.7195 38.3713 17.7195 41.4303 17.7195 44.4662C17.7195 46.5751 17.3951 46.8763 15.2398 46.8763C12.204 46.8763 9.16812 46.8763 6.06274 46.8763V93.7119H6.03956ZM47.0584 64.5585C47.0584 74.4076 47.0584 84.2568 47.0584 94.1059C47.0584 96.5856 46.8498 96.7941 44.3006 96.7941C31.462 96.7941 18.6233 96.7941 5.76147 96.7941C3.21228 96.7941 3.00371 96.5856 3.00371 94.1059C3.00371 78.2546 2.98053 62.4264 3.05006 46.5751C3.05006 45.5554 3.58307 44.304 4.2783 43.5624C7.5459 40.0862 10.9294 36.7259 14.3824 33.4351C15.0776 32.7631 16.2595 32.2532 17.2328 32.2532C26.3404 32.1606 35.448 32.2069 44.5787 32.2069C46.7108 32.2069 47.0352 32.5082 47.0352 34.6634C47.0815 44.6284 47.0584 54.5934 47.0584 64.5585Z" fill="#606060"/>
<path d="M58.5302 43.7862H64.5555V37.7377C62.5393 39.777 60.5232 41.77 58.5302 43.7862ZM93.8944 93.7504V35.2812H67.6145C67.6145 38.2243 67.6145 41.0516 67.6145 43.8557C67.6145 46.7525 67.4987 46.8684 64.6482 46.8916C61.7514 46.8916 58.8314 46.8916 55.981 46.8916V93.7735H93.8944V93.7504ZM96.9766 64.6664C96.9766 74.5155 96.9766 84.3647 96.9766 94.2138C96.9766 96.4849 96.6985 96.7862 94.4738 96.7862C81.4497 96.7862 68.4257 96.7862 55.4016 96.7862C53.2696 96.7862 52.9451 96.4849 52.9451 94.3297C52.9451 78.3162 52.9219 62.2794 52.9915 46.2659C52.9915 45.4084 53.455 44.3424 54.0575 43.7167C57.4873 40.1478 60.9867 36.6485 64.5555 33.2186C65.1349 32.6624 66.1314 32.2453 66.9657 32.2453C76.1891 32.1758 85.4357 32.2221 94.6592 32.1758C96.4204 32.1758 97.023 32.871 96.9998 34.5859C96.9534 44.6205 96.9766 54.655 96.9766 64.6664Z" fill="#606060"/>
<path d="M49.9606 23.3961C54.7346 23.4193 58.7438 19.5028 58.8133 14.7288C58.8828 9.8622 54.92 5.80667 50.0533 5.7835C45.2099 5.76032 41.2007 9.76951 41.2007 14.613C41.2239 19.4101 45.1867 23.3729 49.9606 23.3961ZM73.4827 16.1193H61.8723C59.045 23.3729 55.5225 26.3392 49.8216 26.2697C44.3061 26.2002 40.8531 23.2107 38.1417 16.1425H26.5312V18.9698C26.5312 21.8434 26.6008 24.717 26.4617 27.5907C26.4386 28.17 25.5116 28.703 25.0017 29.2592C24.5382 28.7262 23.6808 28.17 23.6808 27.6138C23.5649 23.3497 23.6113 19.0625 23.6344 14.7752C23.6344 13.3847 24.5614 13.1066 25.7433 13.1066C29.8915 13.1298 34.0398 13.1066 38.3039 13.1066C39.8334 6.71047 43.773 2.88669 50.4009 3.00256C56.7044 3.11843 60.366 6.98857 61.8491 13.1066C65.9047 13.1066 69.937 13.1066 73.9694 13.1066C76.1941 13.1066 76.4722 13.3847 76.4722 15.679C76.4722 19.4796 76.4722 23.257 76.4722 27.0345C76.4722 28.1005 76.3563 29.1434 75.0586 29.1897C73.6449 29.2361 73.5059 28.1237 73.5059 27.0113C73.5059 23.4424 73.4827 19.8504 73.4827 16.1193Z" fill="#606060"/>
<path d="M23.9131 60.611C26.4623 58.0387 29.0115 55.4895 31.5375 52.9403C31.9314 52.5463 32.2559 51.967 32.7194 51.8279C33.4146 51.6193 34.2025 51.7352 34.9673 51.7352C34.8978 52.4536 35.1064 53.3806 34.7124 53.8209C33.1365 55.6054 31.3984 57.2276 29.7067 58.9193C28.2004 60.4256 26.6708 61.932 25.1645 63.4615C24.2607 64.3885 23.4032 64.4348 22.4763 63.5079C20.1588 61.1672 17.7718 58.873 15.5471 56.4165C15.13 55.953 15.3154 54.9565 15.2227 54.1917C16.0338 54.2844 17.0998 54.0758 17.5864 54.5162C19.7648 56.3933 21.7347 58.4558 23.9131 60.611Z" fill="#606060"/>
<path d="M23.7219 81.3519C26.5028 78.5478 29.0752 75.9522 31.6707 73.3799C32.0647 72.9859 32.3891 72.4065 32.8526 72.2675C33.5015 72.0821 34.2431 72.2443 34.9615 72.2675C34.9383 72.9164 35.1933 73.8433 34.8456 74.2141C31.6012 77.5976 28.2873 80.9347 24.8806 84.1792C24.4866 84.5499 23.1194 84.5268 22.7022 84.1328C20.1762 81.8154 17.7661 79.4052 15.4486 76.9024C15.0778 76.5084 15.2864 75.5351 15.24 74.8167C16.0048 74.863 17.0245 74.5849 17.4648 74.9789C19.5968 76.9487 21.5667 79.1039 23.7219 81.3519Z" fill="#606060"/>
<path d="M74.9547 75.862C76.5769 74.1703 77.9673 72.7103 79.3346 71.2503C80.0762 70.4856 80.8873 69.883 81.8143 70.8564C82.7645 71.8297 82.0692 72.6176 81.3276 73.3592C79.914 74.7728 78.4772 76.1633 76.855 77.7623C78.454 79.2919 79.8908 80.6823 81.3508 82.0496C82.0924 82.7449 82.5559 83.5791 81.7448 84.4366C80.841 85.3867 79.9835 84.8537 79.2419 84.0658C77.8978 82.6522 76.5305 81.2617 74.8851 79.5468C73.402 81.0995 72.0347 82.5595 70.6674 83.9963C69.9258 84.761 69.0915 85.6417 68.0487 84.6452C66.8899 83.5328 67.8633 82.6753 68.6744 81.9106C70.0417 80.5896 71.3858 79.2919 73.0312 77.716C71.4321 76.1633 69.9026 74.8192 68.5353 73.2897C68.095 72.7798 67.7938 71.6443 68.0487 71.1113C68.5817 70.0916 69.5782 70.3002 70.3429 71.0649C71.8261 72.5713 73.2398 74.0776 74.9547 75.862Z" fill="#606060"/>
<path d="M74.9619 58.9897C73.2702 60.7741 71.8333 62.2572 70.3965 63.7636C69.6781 64.5052 68.867 64.9223 68.0327 64.088C67.1753 63.2306 67.5924 62.4195 68.334 61.7242C69.8403 60.2874 71.3235 58.8738 73.2702 56.9966C71.6479 55.5598 70.1648 54.3084 68.7511 53.0106C67.9864 52.2922 67.0594 51.5043 68.1254 50.4151C69.1451 49.3722 70.0026 50.1138 70.7441 50.9249C72.0419 52.2922 73.3629 53.6595 74.9619 55.3281C76.4682 53.7522 77.8355 52.3154 79.1796 50.8554C79.8981 50.0907 80.7323 49.4649 81.6825 50.3687C82.6326 51.2726 82.0533 52.13 81.2885 52.8716C79.8749 54.2157 78.5076 55.6062 76.6768 57.3906C78.2758 58.8043 79.759 60.1252 81.2422 61.4461C82.0301 62.1645 82.6095 63.022 81.6825 63.949C80.7555 64.8991 79.9212 64.2734 79.1796 63.5087C77.9051 62.0719 76.5609 60.6582 74.9619 58.9897Z" fill="#606060"/>
</svg>
