<svg width="100" height="100" viewBox="0 0 100 100" fill="none" xmlns="http://www.w3.org/2000/svg">
<path d="M69.143 22.4244H71.8414V19.5807H69.143V22.4244ZM25.491 8.97385C25.4495 7.3548 24.0587 6.0056 22.4397 6.04711C20.8206 6.08863 19.4922 7.47935 19.5129 9.09839C19.5545 10.7174 20.9452 12.0666 22.5642 12.0251C24.1833 11.9836 25.5325 10.5929 25.491 8.97385ZM66.0087 70.4769C66.0087 76.6625 65.9464 82.8481 66.0502 89.0337C66.0917 91.4 68.2297 93.2059 70.5545 93.1644C72.8793 93.1229 74.8719 91.317 74.955 88.9092C75.0588 86.0447 74.9965 83.1595 74.9965 80.2742C74.9965 76.9739 74.9965 73.6735 74.9965 70.4769H66.0087ZM84.1919 27.5722C83.7144 30.4159 83.756 30.6027 85.3958 32.5954C88.0734 35.8127 89.6302 39.5282 89.9208 43.7004C90.5643 52.5221 85.1882 60.6381 76.9061 63.5441C68.4995 66.4916 59.2834 63.4195 54.3017 56.0093C49.3616 48.6821 49.9012 39.0923 55.817 32.3878C57.2285 30.7895 57.0001 29.2535 56.8133 27.4061C49.2163 32.8237 46.0612 43.5551 49.2578 52.5844C52.6204 62.0911 61.8573 68.1937 71.966 67.6125C81.8048 67.0313 90.2737 59.7248 92.4739 49.9067C94.3628 41.5416 90.4605 30.9971 84.1919 27.5722ZM74.9965 25.4549H65.9049V19.5599C64.4519 19.5599 63.2065 19.5807 61.9611 19.5599C60.6534 19.5392 59.9892 20.1411 59.9892 21.4696C59.9892 27.2193 59.9892 32.969 59.9892 38.7394C59.9892 39.9641 60.5911 40.5868 61.8365 40.5868C67.5862 40.5868 73.3152 40.5868 79.0649 40.5868C80.2688 40.5868 80.9745 40.0679 80.9745 38.8017C80.9745 32.9897 81.016 27.157 80.9122 21.345C80.9122 20.7431 80.1442 19.7467 79.6253 19.6637C78.1308 19.4354 76.574 19.5807 74.9757 19.5807V25.4549H74.9965ZM22.502 24.0642C17.8939 24.0642 13.2651 24.0642 8.65702 24.0642C6.31148 24.0642 6.02088 24.3341 6.02088 26.6173C6.02088 33.9238 6.02088 41.251 6.02088 48.5575C6.02088 50.82 6.31148 51.0899 8.65702 51.1106C17.8939 51.1106 27.1308 51.1106 36.3677 51.1106C38.7132 51.1106 39.0038 50.8408 39.0038 48.5575C39.0038 41.251 39.0038 33.9238 39.0038 26.6173C39.0038 24.3548 38.7132 24.085 36.3677 24.085C31.7388 24.0642 27.11 24.0642 22.502 24.0642ZM56.8756 36.1863C51.8939 42.5587 53.596 52.7919 60.3628 58.1057C67.5032 63.7101 77.7572 62.444 83.4654 55.3243C88.5093 49.0349 87.5753 39.7565 84.0258 36.3524C84.0258 36.9128 84.0258 37.411 84.0258 37.9091C84.005 42.019 82.4483 43.5758 78.3799 43.5758C73.6473 43.5758 68.8939 43.5758 64.1406 43.5758C58.0795 43.5758 57.2077 42.7248 57.0209 36.7468C56.9794 36.643 56.9379 36.5392 56.8756 36.1863ZM25.5948 63.1289C19.9073 63.1289 14.2407 63.1289 8.55324 63.1289C6.33224 63.1289 6.02088 63.4403 6.02088 65.5783C6.02088 72.9678 6.02088 80.3365 6.02088 87.7053C6.02088 89.8432 6.35299 90.1546 8.574 90.1546C19.8658 90.1546 31.1576 90.1546 42.4702 90.1546C44.6912 90.1546 45.0026 89.8432 45.0026 87.7053C45.0233 80.3158 45.0233 72.947 45.0026 65.5783C45.0026 63.4403 44.6705 63.1289 42.4495 63.1289C36.8243 63.1289 31.1992 63.1289 25.5948 63.1289ZM68.9977 16.5502C68.9977 15.1802 68.9354 14.0386 69.0185 12.9384C69.143 11.1326 68.3127 10.5099 66.5691 10.5306C57.7682 10.5721 48.9464 10.5514 40.1454 10.5514C36.2639 10.5514 32.4031 10.5514 29.2688 10.5514C27.4214 12.1912 26.0099 13.3951 24.6399 14.6613C24.3701 14.9104 24.0795 15.3255 24.0795 15.6576C24.0172 17.4012 24.0587 19.124 24.0587 21.0544C28.3347 21.0544 32.4446 21.0544 36.5545 21.0544C40.4153 21.0544 42.0551 22.6735 42.0551 26.4928C42.0551 33.9446 42.0551 41.3963 42.0551 48.8481C42.0551 52.4183 40.3323 54.0996 36.7413 54.1204C32.5691 54.1411 28.397 54.1204 24.1418 54.1204V60.1192H26.1344C31.7596 60.1192 37.3848 60.0984 43.0099 60.1192C46.2272 60.1399 48.0331 61.9043 48.0539 65.0801C48.0746 72.781 48.0746 80.4818 48.0539 88.1827C48.0539 91.3793 46.248 93.1644 43.0307 93.1644C31.4067 93.1851 19.7828 93.1851 8.15885 93.1644C4.83773 93.1644 3.07338 91.4 3.05263 88.0789C3.03187 80.4403 3.03187 72.8017 3.05263 65.1631C3.05263 61.8628 4.83773 60.1192 8.20037 60.1192C12.3933 60.0984 16.5655 60.1192 20.9037 60.1192V54.1204C17.3957 54.1204 13.867 53.9751 10.3383 54.1619C4.50562 54.4525 2.84505 52.6466 3.01111 46.8762C3.21868 40.0679 3.05263 33.2388 3.05263 26.4098C3.05263 22.7358 4.73394 21.0752 8.47021 21.0544C12.5801 21.0544 16.69 21.0544 21.049 21.0544C21.049 19.1448 21.0905 17.3389 21.0075 15.5538C20.9867 15.201 20.5508 14.7651 20.1772 14.5367C17.3957 12.9177 16.1088 10.5929 16.6277 7.936C17.1259 5.34137 19.3054 3.32794 21.9 3.03734C24.5984 2.74674 26.8194 4.15822 28.1894 7.06421C28.2309 7.16799 28.3139 7.27177 28.4592 7.52086H30.5972C42.5948 7.52086 54.5923 7.52086 66.5899 7.52086C70.3884 7.52086 72.0282 9.18143 72.0282 13.0422C72.0282 14.1424 72.0282 15.2632 72.0282 16.5502C74.436 16.5502 76.6778 16.5294 78.9196 16.5502C82.2407 16.5709 84.0466 18.3145 84.005 21.6356C83.9843 22.8603 84.2956 23.6283 85.3335 24.4171C93.0966 30.2291 96.8536 38.0752 95.8365 47.7272C94.7572 57.9189 89.0698 64.9763 79.6461 68.9617C79.2517 69.1277 78.8365 69.273 78.4214 69.4391C78.3176 69.4806 78.2138 69.5844 78.027 69.7297C78.027 75.9775 78.0685 82.3084 78.0063 88.6186C77.9855 91.8567 76.4287 94.2437 73.4605 95.5514C70.6168 96.7968 67.9391 96.2987 65.5936 94.306C63.8292 92.8115 63.0197 90.8188 63.0197 88.494C63.0197 82.7236 62.9782 76.9739 63.0612 71.2242C63.082 69.958 62.6876 69.4391 61.5044 68.9617C52.0392 65.0593 46.3518 58.002 45.2309 47.8103C44.1723 38.0752 47.9916 30.2083 55.817 24.3548C56.7095 23.6698 57.0832 23.0264 57.0624 21.9055C57.0209 18.2107 58.723 16.5709 62.4592 16.5502C64.5349 16.5294 66.6314 16.5502 68.9977 16.5502Z" fill="#606060"/>
<path d="M12.0427 77.9894H20.8644V69.2715H12.0427V77.9894ZM23.9157 81.0822H9.13672V66.2617H23.9157V81.0822Z" fill="#606060"/>
<path d="M41.9275 84.3008H9.08984V87.0822H41.9275V84.3008Z" fill="#606060"/>
<path d="M41.9311 66.2617H27.0898V69.0432H41.9311V66.2617Z" fill="#606060"/>
<path d="M41.9702 72.2852H27.1289V75.0043H41.9702V72.2852Z" fill="#606060"/>
<path d="M41.9311 78.2852H27.0898V81.0666H41.9311V78.2852Z" fill="#606060"/>
<path d="M59.9025 46.7109H57.1211V49.5131H59.9025V46.7109Z" fill="#606060"/>
<path d="M65.8818 46.7109H63.1211V49.5131H65.8818V46.7109Z" fill="#606060"/>
<path d="M71.8593 46.75H69.0156V49.4692H71.8593V46.75Z" fill="#606060"/>
<path d="M77.8842 46.6719H75.082V49.4948H77.8842V46.6719Z" fill="#606060"/>
<path d="M83.9023 46.7109H81.0586V49.4716H83.9023V46.7109Z" fill="#606060"/>
<path d="M12.1504 45.0034H14.8903V39.1707H12.1504V45.0034ZM20.8891 36.1609H18.1284V45.0034H20.8891V36.1609ZM24.1064 44.9826H26.8671V33.1511H24.1064V44.9826ZM30.1467 45.0034H32.9074V30.1414H30.1467V45.0034ZM14.9526 36.0986V33.1304H20.8891C20.9721 32.051 21.0344 31.1377 21.0967 30.0998H26.8879C26.9502 29.0827 27.0124 28.1694 27.0539 27.1523H35.8757V47.9301H9.14062V36.0779H14.9526V36.0986Z" fill="#606060"/>
</svg>
