<svg width="100" height="100" viewBox="0 0 100 100" fill="none" xmlns="http://www.w3.org/2000/svg">
<path d="M29.4209 5.35956C29.4235 10.8586 29.4222 16.2126 29.4171 21.4216C29.4171 22.263 29.3786 23.3894 28.333 23.5935C27.8421 23.6917 27.3472 23.7264 26.8524 23.7302C20.9413 23.7777 15.1912 23.7636 9.60232 23.6879C8.86039 23.6776 8.18584 23.4517 7.57868 23.0101C6.74111 22.3997 7.86365 20.8228 8.35656 20.3357C14.2343 14.5452 20.0395 8.91007 25.7722 3.43026C26.631 2.61002 27.7419 2.08437 28.9319 2.07475C36.1382 2.00928 50.4031 1.98682 71.7268 2.00736C73.3788 2.00928 74.1355 2.31735 74.1355 4.11572C74.1406 16.1408 74.1426 28.1594 74.1413 40.1716C74.1413 41.1112 73.9988 42.1105 72.8609 42.2607C71.3821 42.4552 70.9451 41.5502 70.9451 40.2698C70.9463 28.1883 70.9451 16.5291 70.9412 5.29216C70.9412 5.27378 70.9339 5.25615 70.9209 5.24315C70.9079 5.23015 70.8903 5.22285 70.8719 5.22285H29.5557C29.4646 5.22285 29.4196 5.26842 29.4209 5.35956ZM26.0764 8.38443C26.0764 8.3715 26.0725 8.35888 26.0653 8.34814C26.0581 8.3374 26.0479 8.32904 26.036 8.3241C26.024 8.31915 26.0109 8.31786 25.9982 8.32037C25.9856 8.32288 25.9739 8.32909 25.9647 8.33822L13.4628 20.4358C13.4537 20.4449 13.4475 20.4566 13.445 20.4693C13.4425 20.4819 13.4438 20.4951 13.4487 20.507C13.4537 20.519 13.462 20.5292 13.4728 20.5364C13.4835 20.5436 13.4961 20.5474 13.509 20.5475L26.0129 20.5436C26.0302 20.5436 26.0469 20.5367 26.0592 20.5244C26.0715 20.5122 26.0783 20.4955 26.0783 20.4781L26.0764 8.38443Z" fill="#606060"/>
<path d="M66.1474 35.4773C66.1435 37.2814 65.5043 37.7031 63.781 37.7031C56.8147 37.7018 49.939 37.7012 43.1537 37.7012C41.5132 37.7031 40.616 37.4817 40.6083 35.5986C40.5813 28.4796 40.5788 20.6295 40.6006 12.0485C40.6025 11.3438 40.6429 10.2578 41.4555 9.97863C41.8508 9.84256 42.2372 9.77389 42.6146 9.7726C49.8273 9.75592 56.9194 9.75335 63.8907 9.7649C64.4799 9.76619 64.9767 9.84256 65.381 9.99403C65.9356 10.202 66.1474 11.1146 66.1493 11.7057C66.1609 18.7118 66.1602 26.6356 66.1474 35.4773ZM47.2222 23.7783C46.7928 21.4196 47.2588 19.1341 49.138 17.5514C51.4697 15.5855 54.6929 15.4584 57.1498 17.1952C59.4584 18.8241 60.0245 21.2675 59.4834 24.0286C59.4269 24.3148 59.4532 24.6268 59.5624 24.9644C59.6952 25.3745 60.1188 25.6903 60.4558 25.9367C61.19 26.4745 61.9505 27.0143 62.7374 27.556C62.744 27.5601 62.7516 27.5623 62.7594 27.5625C62.7671 27.5627 62.7748 27.5609 62.7817 27.5572C62.7885 27.5534 62.7942 27.548 62.7983 27.5414C62.8023 27.5348 62.8046 27.5272 62.8048 27.5194V13.0439C62.8048 13.0003 62.783 12.9785 62.7393 12.9785H44.0009C43.9329 12.9785 43.8989 13.0125 43.8989 13.0805V27.6041C43.8989 27.6542 43.9188 27.6645 43.9586 27.6349C44.73 27.0958 45.4546 26.565 46.1324 26.0426C46.8236 25.5112 47.3878 24.6794 47.2222 23.7783ZM56.5413 22.1766C56.5406 21.7728 56.4581 21.3731 56.2985 21.0003C56.1388 20.6275 55.9052 20.2889 55.611 20.0039C55.3167 19.7189 54.9676 19.493 54.5835 19.3391C54.1994 19.1852 53.7879 19.1064 53.3725 19.1072C52.957 19.1079 52.5458 19.1881 52.1622 19.3433C51.7787 19.4985 51.4304 19.7256 51.1371 20.0117C50.8438 20.2977 50.6114 20.6371 50.4531 21.0105C50.2947 21.3838 50.2136 21.7838 50.2143 22.1876C50.215 22.5914 50.2976 22.9911 50.4572 23.3639C50.6168 23.7367 50.8504 24.0753 51.1447 24.3603C51.4389 24.6453 51.7881 24.8712 52.1722 25.0251C52.5563 25.1789 52.9678 25.2578 53.3832 25.257C53.7986 25.2563 54.2099 25.176 54.5934 25.0208C54.977 24.8656 55.3253 24.6385 55.6186 24.3525C55.9118 24.0664 56.1443 23.7271 56.3026 23.3537C56.4609 22.9804 56.542 22.5804 56.5413 22.1766ZM50.7515 27.8371C50.2034 27.6099 49.6559 27.608 49.1091 27.8313C46.7081 28.8056 44.3783 31.8363 44.2917 34.4279C44.2891 34.5036 44.3257 34.5415 44.4014 34.5415H62.6296C62.7143 34.5415 62.747 34.5011 62.7278 34.4202C62.0526 31.4255 60.3646 29.2594 57.6639 27.9218C57.1883 27.6869 56.5779 27.6253 56.0869 27.8217C54.2693 28.5399 52.4844 28.5553 50.7515 27.8371Z" fill="#606060"/>
<path d="M10.3947 88.8796C24.1757 88.8924 37.9285 88.8892 51.6531 88.87C51.9457 88.8687 52.2346 88.8584 52.5195 88.8392C53.4771 88.7711 54.2402 89.2024 54.8089 90.133C54.8448 90.1921 54.8583 90.2556 54.8493 90.3237C54.7588 90.9456 53.9097 91.7812 53.3282 91.9872C52.8834 92.1451 52.171 91.9911 51.6916 91.9911C37.8926 92.0027 23.8452 92.0033 9.54939 91.993C8.71182 91.993 7.41407 91.995 7.20227 90.9725C7.106 90.5053 7.05786 90.0393 7.05786 89.5747C7.05016 68.9917 7.05016 49.1172 7.05786 29.9514C7.05786 29.6138 7.04053 29.2903 7.00587 28.9809C6.92308 28.2223 7.73369 27.4714 8.29207 27.0844C8.95635 26.6261 9.73808 27.6466 10.0442 28.1126C10.464 28.7537 10.2637 29.3718 10.2637 30.0919C10.2624 49.3939 10.2624 68.9467 10.2637 88.7506C10.2637 88.8366 10.3074 88.8796 10.3947 88.8796Z" fill="#606060"/>
<path d="M29.4007 31.2375C29.2577 31.3337 29.0935 31.395 28.9212 31.4166C28.1819 31.5039 27.4322 31.5424 26.6723 31.5321C24.1654 31.4987 21.7451 31.4994 19.4115 31.534C18.6131 31.5469 17.8249 31.5006 17.047 31.3954C16.4559 31.3164 15.6241 30.4057 15.162 29.984C15.1068 29.9327 15.1075 29.8826 15.1639 29.8339C15.5863 29.4706 16.0022 29.1221 16.4116 28.7883C16.6761 28.574 16.9591 28.4617 17.2607 28.4514C20.7432 28.3282 24.5781 28.3237 28.7653 28.4379C29.1196 28.4482 29.4199 28.5624 29.6664 28.7806C30.0489 29.1182 30.461 29.4905 30.9025 29.8974C30.9513 29.9423 30.9507 29.9873 30.9006 30.0322C30.3435 30.5379 29.8435 30.9397 29.4007 31.2375Z" fill="#606060"/>
<path d="M17.2409 37.6602C16.3514 37.5813 15.7795 36.8111 15.1576 36.2662C15.096 36.2123 15.0934 36.1558 15.1499 36.0968C15.5247 35.7065 15.9117 35.324 16.3109 34.9492C16.5189 34.7541 16.7718 34.6533 17.0696 34.6469C21.4814 34.5494 25.4382 34.55 28.9399 34.6488C29.6562 34.6681 30.4071 35.5634 30.8981 36.0313C30.9533 36.0839 30.9527 36.1366 30.8962 36.1892C30.3301 36.7052 29.6061 37.5563 28.8244 37.6352C28.189 37.6994 27.5767 37.7302 26.9875 37.7276C24.3933 37.7173 21.5751 37.7135 18.5329 37.7161C18.0913 37.7161 17.6607 37.6975 17.2409 37.6602Z" fill="#606060"/>
<path d="M26.2259 53.1021C26.2259 53.5423 26.0511 53.9644 25.7398 54.2757C25.4286 54.5869 25.0064 54.7618 24.5662 54.7618H16.7027C16.2625 54.7618 15.8404 54.5869 15.5291 54.2757C15.2178 53.9644 15.043 53.5423 15.043 53.1021V45.5582C15.043 45.118 15.2178 44.6958 15.5291 44.3846C15.8404 44.0733 16.2625 43.8984 16.7027 43.8984H24.5662C25.0064 43.8984 25.4286 44.0733 25.7398 44.3846C26.0511 44.6958 26.2259 45.118 26.2259 45.5582V53.1021ZM22.8718 47.1717C22.8718 47.1548 22.8651 47.1387 22.8532 47.1268C22.8413 47.1148 22.8251 47.1082 22.8083 47.1082H18.4337C18.4168 47.1082 18.4007 47.1148 18.3887 47.1268C18.3768 47.1387 18.3701 47.1548 18.3701 47.1717V51.5193C18.3701 51.5362 18.3768 51.5524 18.3887 51.5643C18.4007 51.5762 18.4168 51.5829 18.4337 51.5829H22.8083C22.8251 51.5829 22.8413 51.5762 22.8532 51.5643C22.8651 51.5524 22.8718 51.5362 22.8718 51.5193V47.1717Z" fill="#606060"/>
<path d="M31.8993 46.8031C30.977 46.4469 30.8287 45.3956 31.5681 44.7544C31.8582 44.5028 32.1721 44.3006 32.5097 44.1479C33.0642 43.8957 33.8517 43.9399 34.4755 43.9342C39.7654 43.8828 45.457 43.87 51.5504 43.8956C51.6916 43.8969 51.904 43.9342 52.1877 44.0073C52.8115 44.1729 53.2794 44.4925 53.2833 45.2184C53.2871 46.21 51.8084 46.9032 51.069 46.9417C50.1114 46.9905 49.261 47.0142 48.5178 47.0129C43.011 47.0065 37.8547 47.0052 33.0488 47.0091C32.681 47.011 32.2439 46.9359 31.8993 46.8031Z" fill="#606060"/>
<path d="M67.2793 71.5515C66.2562 70.7326 65.2094 69.8578 64.1389 68.9271C62.8463 67.8052 62.0016 66.4683 61.605 64.9164C61.3893 64.0718 61.3065 62.9242 61.3566 61.4737C61.3977 60.2787 61.4047 59.0663 61.3778 57.8366C61.3688 57.3847 61.356 56.9252 61.3393 56.458C61.3065 55.5376 60.9503 54.6095 60.2918 54.0338C58.8497 52.7707 58.1026 50.6239 57.9697 48.7312C57.8446 46.9482 58.403 45.4906 60.4362 45.4829C70.8157 45.4457 81.1226 45.4335 91.3569 45.4463C92.4814 45.4476 93.1162 45.9553 93.2612 46.9694C93.421 48.0996 93.3671 49.5321 93.2015 50.6739C92.9628 52.3016 92.1079 53.5152 90.6368 54.3149C90.2826 54.5094 90.1882 54.8791 90.169 55.2565C90.0598 57.3937 90.0451 59.3063 90.1247 60.9943C90.1927 62.4551 90.1311 63.6251 89.9398 64.5044C89.6587 65.7906 89.1215 66.926 88.3282 67.9105C87.2095 69.3026 85.546 70.4983 84.227 71.7845C84.2228 71.7884 84.2195 71.7932 84.2172 71.7985C84.2149 71.8038 84.2137 71.8095 84.2137 71.8153C84.2137 71.8211 84.2149 71.8268 84.2172 71.8321C84.2195 71.8374 84.2228 71.8421 84.227 71.8461C85.2796 72.7934 86.3489 73.7728 87.4348 74.7843C88.6556 75.9229 89.4694 77.2406 89.8763 78.7373C90.074 79.46 90.1587 80.5549 90.1304 82.0221C90.1009 83.5932 90.0964 85.2029 90.117 86.8511C90.1362 88.3837 90.7524 89.6642 91.9481 90.5364C92.9878 91.2931 93.4711 92.4849 93.448 93.7981C93.43 94.8366 93.3055 95.9687 93.0745 97.1946C93.0632 97.251 93.0357 97.3026 92.9955 97.3428C92.4512 97.8832 91.7793 98.1547 90.9796 98.1573C80.9647 98.1958 70.7316 98.2157 60.2803 98.217C59.2097 98.217 58.274 97.8011 58.1873 96.5823C58.1167 95.5926 58.1193 94.5779 58.195 93.5382C58.3311 91.6461 59.1738 90.2694 60.7231 89.4081C61.0813 89.2078 61.2732 88.8645 61.2988 88.378C61.4157 86.165 61.433 84.2075 61.3508 82.5054C61.2866 81.1768 61.3297 80.1319 61.4798 79.3707C61.8611 77.4363 62.8758 75.7387 64.524 74.2779C65.4161 73.4872 66.3371 72.6432 67.287 71.746C67.3589 71.678 67.3563 71.6131 67.2793 71.5515ZM61.5607 50.6816C61.7667 51.5153 62.7718 51.6309 63.4862 51.6347C72.0172 51.6617 80.2048 51.6597 88.049 51.6289C88.8577 51.6251 89.7916 51.4768 89.9552 50.5083C90.0502 49.9487 90.0727 49.3704 90.0226 48.7735C90.0175 48.7106 89.9835 48.6792 89.9206 48.6792L61.5761 48.683C61.4914 48.683 61.4465 48.7247 61.4413 48.8082C61.3964 49.5514 61.4362 50.1759 61.5607 50.6816ZM70.7932 71.2492C71.0628 71.9308 70.8202 72.5932 70.3273 73.0572C69.2747 74.0495 68.2349 75.0468 67.208 76.0493C66.4879 76.7528 65.8474 77.4979 65.2864 78.2848C65.0592 78.6025 64.8205 79.053 64.7762 79.4516C64.6645 80.4567 64.6138 81.7532 64.6241 83.341C64.6356 85.0303 64.6478 86.8293 64.6607 88.738C64.6607 88.7727 64.678 88.79 64.7127 88.79H86.7956C86.8777 88.79 86.9182 88.7496 86.9169 88.6687C86.8899 86.4711 86.8886 84.1324 86.913 81.6524C86.9323 79.7847 86.7147 78.5582 85.4478 77.2624C84.2309 76.0198 82.962 74.785 81.6412 73.5578C81.2503 73.1939 80.8344 72.7491 80.5956 72.2716C80.224 71.5265 81.0943 70.6273 81.6027 70.144C82.5988 69.1954 83.5968 68.2314 84.5967 67.252C85.3265 66.5396 86.6723 65.0974 86.732 64.0635C86.9015 61.0598 86.8437 58.006 86.7879 54.9446C86.7866 54.8842 86.7558 54.8541 86.6955 54.8541H64.6664C64.6023 54.8541 64.5695 54.8868 64.5682 54.9523C64.5182 57.5805 64.3719 60.1086 64.6414 62.602C65.0207 66.1025 67.7857 68.1935 70.1347 70.4174C70.4864 70.7499 70.7059 71.0271 70.7932 71.2492ZM61.5684 92.9143C61.4298 93.456 61.3887 94.0972 61.4452 94.8378C61.4516 94.9174 61.4946 94.9572 61.5742 94.9572H89.9206C89.9848 94.9572 90.0194 94.9251 90.0245 94.8609C90.0919 93.8982 90.1959 92.3848 88.9983 92.1441C88.7018 92.0844 88.359 92.0132 88.0548 92.0113C79.6073 91.992 71.4652 91.9907 63.6286 92.0074C62.9489 92.0094 61.7841 92.0806 61.5684 92.9143Z" fill="#606060"/>
<path d="M46.0156 51.8243C46.9918 52.1478 47.1786 53.2126 46.4181 53.8923C45.8096 54.4372 45.2301 54.701 44.3944 54.7241C40.4845 54.8268 36.7632 54.8197 33.2307 54.7029C32.8892 54.6913 32.5863 54.5681 32.3219 54.3332C31.9278 53.9828 31.5215 53.6131 31.1031 53.2241C31.0961 53.2177 31.0906 53.2098 31.087 53.2009C31.0834 53.1921 31.0817 53.1825 31.0821 53.1729C31.0824 53.1633 31.0848 53.1538 31.0891 53.145C31.0934 53.1362 31.0995 53.1284 31.1069 53.1221C31.7423 52.5945 32.4721 51.7858 33.3481 51.703C34.0657 51.6363 34.7524 51.6068 35.4084 51.6145C38.602 51.6543 41.779 51.6645 44.9393 51.6453C45.2923 51.6427 45.6511 51.7024 46.0156 51.8243Z" fill="#606060"/>
<path d="M77.8884 67.2008C76.6618 68.2463 74.954 68.3792 73.6928 67.3028C72.7185 66.4698 71.6159 65.4512 70.3849 64.2472C69.0544 62.9436 67.774 61.7691 67.9357 59.809C68.0166 58.8174 69.6166 58.1358 70.4407 57.9799C71.1981 57.8361 72.0228 57.777 72.9149 57.8027C74.8725 57.8592 76.8428 57.8618 78.826 57.8104C80.3857 57.7681 81.9992 57.8643 83.1698 59.0465C83.7648 59.6454 83.6397 60.7178 83.372 61.4302C83.1987 61.8949 82.8791 62.3718 82.4131 62.8608C80.7932 64.5642 79.2849 66.0109 77.8884 67.2008ZM79.2227 61.1838C79.2324 61.1749 79.2391 61.1632 79.2421 61.1504C79.2451 61.1376 79.2441 61.1241 79.2393 61.1119C79.2345 61.0996 79.2262 61.0891 79.2153 61.0816C79.2044 61.0742 79.1916 61.0702 79.1784 61.0702L72.4201 61.0683C72.4072 61.0683 72.3945 61.0722 72.3838 61.0793C72.3731 61.0865 72.3647 61.0968 72.3598 61.1087C72.3548 61.1206 72.3535 61.1338 72.356 61.1465C72.3585 61.1591 72.3648 61.1708 72.3739 61.1799L75.6125 64.4147C75.6244 64.4266 75.6405 64.4335 75.6573 64.4338C75.6742 64.4342 75.6905 64.428 75.703 64.4166L79.2227 61.1838Z" fill="#606060"/>
<path d="M26.2259 68.5849C26.2259 69.0317 26.0484 69.4603 25.7324 69.7762C25.4165 70.0922 24.988 70.2697 24.5411 70.2697H16.7238C16.277 70.2697 15.8485 70.0922 15.5325 69.7762C15.2166 69.4603 15.0391 69.0317 15.0391 68.5849V61.0949C15.0391 60.6481 15.2166 60.2196 15.5325 59.9036C15.8485 59.5877 16.277 59.4102 16.7238 59.4102H24.5411C24.988 59.4102 25.4165 59.5877 25.7324 59.9036C26.0484 60.2196 26.2259 60.6481 26.2259 61.0949V68.5849ZM22.8737 62.6738C22.8737 62.6564 22.8668 62.6398 22.8545 62.6275C22.8422 62.6152 22.8256 62.6083 22.8082 62.6083H18.4105C18.3932 62.6083 18.3765 62.6152 18.3642 62.6275C18.3519 62.6398 18.345 62.6564 18.345 62.6738V66.9714C18.345 66.9887 18.3519 67.0054 18.3642 67.0177C18.3765 67.0299 18.3932 67.0368 18.4105 67.0368H22.8082C22.8256 67.0368 22.8422 67.0299 22.8545 67.0177C22.8668 67.0054 22.8737 66.9887 22.8737 66.9714V62.6738Z" fill="#606060"/>
<path d="M33.3909 62.4734C32.5707 62.4676 31.0399 61.6609 31.1035 60.6827C31.1728 59.6006 32.3127 59.4004 33.181 59.4042C37.9857 59.4261 42.9969 59.4177 48.2149 59.3792C48.6757 59.3766 49.1654 59.3901 49.684 59.4197C50.3252 59.4543 51.0415 59.4023 51.6441 59.591C52.2853 59.7932 53.2711 60.3843 53.2807 61.1776C53.2942 62.3232 52.0966 62.5081 51.2321 62.5119C44.796 62.5325 38.8489 62.5196 33.3909 62.4734Z" fill="#606060"/>
<path d="M44.7676 67.2186C45.4858 67.2379 46.1289 67.6403 46.5967 68.164C47.1956 68.836 46.9125 69.7968 46.0595 70.0875C45.4338 70.3032 44.8542 70.2704 44.1861 70.2724C40.6831 70.2788 36.8745 70.2769 32.7605 70.2666C32.2291 70.2647 31.4435 69.9951 31.2047 69.4579C30.8081 68.5684 31.5879 67.8059 32.3234 67.4516C32.6289 67.3027 32.9717 67.2238 33.3516 67.2148C37.2834 67.1146 41.0887 67.1159 44.7676 67.2186Z" fill="#606060"/>
<path d="M76.2272 73.0901C75.484 73.585 74.6561 72.7397 74.3307 72.1467C74.0534 71.6422 74.9295 70.8663 75.3049 70.6102C75.7285 70.3214 76.1342 70.3393 76.5218 70.6641C76.9826 71.0517 77.4486 71.4169 77.9197 71.7597C77.9877 71.8072 77.9877 71.8559 77.9197 71.906C77.319 72.345 76.7548 72.7397 76.2272 73.0901Z" fill="#606060"/>
<path d="M24.1168 78.1321C24.1142 78.0371 24.0815 78.0249 24.0186 78.0955C21.9642 80.3522 20.0041 82.3546 17.5318 83.9181C16.8829 84.3282 16.0107 83.9085 15.487 83.4868C14.8574 82.9823 15.4754 81.7404 15.9202 81.313C17.5703 79.7245 19.3263 78.1976 21.0996 76.6649C22.1817 75.7311 23.543 74.6374 25.0911 75.0014C26.8336 75.4134 27.4363 76.6669 27.4151 78.2996C27.41 78.7746 27.4267 79.2656 27.4652 79.7726C27.4831 80.0114 27.589 80.0595 27.7829 79.917C27.9523 79.7912 28.1108 79.6372 28.2584 79.4549C28.8759 78.6924 29.5145 78.0172 30.1743 77.4293C31.0202 76.6758 32.0034 76.3845 33.124 76.5552C35.5077 76.9172 35.2093 79.3991 35.7176 81.1089C35.7212 81.1202 35.7276 81.1305 35.7361 81.1388C35.7446 81.1472 35.755 81.1532 35.7663 81.1565C35.7776 81.1597 35.7895 81.1601 35.8008 81.1575C35.8122 81.1549 35.8226 81.1494 35.8312 81.1416C36.8183 80.27 37.8067 79.4684 38.7964 78.7367C41.2456 76.9249 42.0388 79.5165 44.0201 80.2174C45.7209 80.8181 47.2664 81.1538 48.6566 81.2244C49.7105 81.277 50.1848 81.838 50.0795 82.9072C49.9884 83.8212 49.4242 84.2698 48.387 84.2531C46.9481 84.23 45.5951 84.1228 44.3282 83.9316C42.8315 83.7056 41.5761 83.1453 40.562 82.2507C40.5004 82.198 40.4324 82.1871 40.3579 82.2179C39.4466 82.603 38.4883 83.0215 37.4832 83.4733C35.6849 84.282 33.5149 84.6594 32.7081 82.2564C32.4835 81.5851 32.2871 80.8939 32.119 80.1827C32.0933 80.0762 32.0432 80.0633 31.9688 80.1442C31.2198 80.9587 30.5459 81.9638 29.6871 82.5703C28.4529 83.4406 25.1739 85.0464 24.3209 83.067C24.1656 82.7051 24.0963 82.1223 24.113 81.3187C24.1373 80.2277 24.1386 79.1654 24.1168 78.1321Z" fill="#606060"/>
<path d="M75.3914 75.1308C75.6007 75.0152 75.8125 75.0249 76.0268 75.1596C76.5544 75.4927 77.5941 76.4766 77.0569 77.087C76.6115 77.5953 76.1565 78.0992 75.6918 78.5985C75.6353 78.6588 75.5846 78.6543 75.5397 78.585C75.2085 78.0844 74.8607 77.5754 74.4961 77.0581C73.8819 76.1898 74.7118 75.5101 75.3914 75.1308Z" fill="#606060"/>
<path d="M80.7291 84.8165C79.9705 84.5456 79.2619 84.2183 78.6034 83.8345C76.6933 82.7197 74.6562 83.0855 72.7423 83.9385C71.8143 84.3505 70.8682 84.7452 69.9042 85.1226C69.5904 85.2458 69.6173 85.5635 69.4075 85.7696C68.8748 86.2933 68.3491 86.7252 67.8305 87.0654C67.1008 87.541 66.2902 86.0526 65.9744 85.5501C65.5681 84.905 66.2343 83.5861 66.6271 83.203C66.8967 82.9385 67.3517 82.6863 67.9923 82.4463C69.4364 81.9033 70.7655 81.4065 71.9799 80.956C73.4143 80.4245 75.0586 79.974 76.5682 80.1049C77.572 80.1935 78.7279 80.4996 80.0359 81.0233C81.3991 81.5689 82.6327 82.0894 83.7366 82.5849C85.1826 83.2357 85.8546 84.8646 85.1769 86.353C84.9817 86.7817 84.6474 87.0769 84.1737 87.2387C83.3098 87.5313 82.7418 87.2823 82.4697 86.4916C82.1905 85.6829 81.5358 85.1053 80.7291 84.8165Z" fill="#606060"/>
</svg>
