<svg width="100" height="100" viewBox="0 0 100 100" fill="none" xmlns="http://www.w3.org/2000/svg">
<path d="M69.3735 34.4405C69.6515 34.2383 69.8284 34.1625 69.9295 34.0362C74.6556 28.6024 80.0388 24.4323 87.1406 22.7643C90.7294 21.9303 92.8018 17.6843 92.2711 13.9186C91.7403 10.0771 88.7076 7.06956 85.0429 6.71574C81.2267 6.36191 77.5368 8.66178 76.6522 12.5539C75.1358 19.226 71.6986 24.5334 66.8714 29.0068C66.3913 29.4617 66.0121 30.0177 65.6836 30.3968C66.9978 31.8627 68.1351 33.101 69.3735 34.4405ZM43.5189 23.4972C54.4623 34.8702 65.2034 45.9904 76.1467 57.3381C77.0313 56.3525 77.9917 55.1899 79.0279 54.1031C80.8728 52.1571 80.8981 51.6264 79.0532 49.7309C71.9514 42.3511 64.8243 34.9713 57.7225 27.5915C55.2963 25.0641 52.87 22.5621 50.4438 20.0348C49.3823 18.9227 48.3461 18.7964 47.2088 19.9084C45.9452 21.1721 44.631 22.4104 43.5189 23.4972ZM40.9663 26.7069C40.4356 26.1003 40.107 25.7465 39.7785 25.3927C38.8686 24.4323 38.7928 23.4466 39.7027 22.4863C41.5223 20.5655 43.3167 18.5942 45.2375 16.7998C47.4616 14.7274 50.4691 14.9548 52.7184 17.28C56.0798 20.7171 59.3906 24.2301 62.8024 27.7684C67.478 23.5477 71.3954 18.9986 72.8612 12.5539C74.5798 5.02243 81.8332 1.13034 88.5306 3.88513C93.1809 5.78063 96.0874 10.532 95.8346 15.7888C95.6072 20.9446 92.1447 25.5696 87.0395 26.7069C80.6454 28.1475 76.172 32.3176 71.9514 37.3217C75.1611 40.6325 78.3455 43.8927 81.5299 47.1783C84.7396 50.5143 84.7144 53.3197 81.4794 56.681C80.3926 57.8183 79.3059 58.9303 78.2191 60.0676C75.7929 62.5697 75.7171 62.5697 72.7601 59.8402C71.6481 61.1796 70.5108 62.595 69.3482 63.9597C68.312 65.1728 67.2505 65.1223 66.1638 63.9597C63.3332 61.0027 60.4773 58.0458 57.6467 55.1141C56.7874 54.2295 56.3578 53.2438 57.3181 52.2329C58.3543 51.1462 59.34 51.6264 60.2246 52.5615C62.6761 55.1141 65.1276 57.6919 67.6296 60.2698C68.59 59.2083 69.4493 58.248 70.2833 57.3381C61.3871 48.1134 52.3899 38.7875 43.2662 29.3353C42.5333 30.2704 41.7245 31.3066 40.8147 32.4945C42.7102 34.4405 44.8079 36.5888 46.8803 38.7623C47.3099 39.1919 47.7143 39.6215 48.1439 40.0765C49.0032 40.961 49.3823 41.9467 48.4472 42.9829C47.5121 43.9938 46.5265 43.64 45.6672 42.7554C44.2519 41.2896 42.8366 39.7985 41.396 38.3326C39.9301 36.8162 38.4896 35.2998 36.9984 33.7834C35.937 32.6967 35.9622 31.6605 37.0237 30.599C38.3379 29.2848 39.5763 28.0464 40.9663 26.7069Z" fill="#606060"/>
<path d="M52.9436 70.6103C52.9436 57.8473 43.0617 47.561 30.7284 47.561C18.5214 47.561 8.5637 57.822 8.53843 70.4586C8.48788 83.1964 18.4456 93.6089 30.6778 93.6089C42.9859 93.6595 52.9436 83.348 52.9436 70.6103ZM30.8547 43.8711C45.0583 43.8964 56.5324 55.8759 56.5071 70.6355C56.4818 85.4457 44.8814 97.3747 30.5767 97.3241C16.449 97.2736 4.94962 85.1929 5.00017 70.4334C5.02544 55.7496 16.6259 43.8459 30.8547 43.8711Z" fill="#606060"/>
<path d="M53.3192 45.4609C53.7741 46.1686 54.6839 46.9268 54.6081 47.5333C54.5323 48.2157 53.5972 49.1508 52.9401 49.2772C52.4599 49.353 51.3731 48.2915 51.3226 47.685C51.272 47.0026 52.0808 46.2444 52.5104 45.5115C52.7632 45.4609 53.0412 45.4609 53.3192 45.4609Z" fill="#606060"/>
<path d="M45.1332 70.5019C45.1079 62.2881 38.739 55.6665 30.778 55.6412C22.7663 55.6412 16.3216 62.3134 16.3469 70.6283C16.3722 78.8168 22.8421 85.489 30.7274 85.5143C38.7138 85.5143 45.1584 78.8168 45.1332 70.5019ZM30.6769 51.9766C40.6345 51.9513 48.6714 60.2157 48.6967 70.5019C48.722 80.8134 40.7356 89.1789 30.8285 89.2042C20.9214 89.2294 12.8339 80.8893 12.8087 70.6536C12.7834 60.3421 20.7697 51.9766 30.6769 51.9766Z" fill="#606060"/>
<path d="M30.2997 72.1278C31.715 70.1059 33.0292 68.2357 34.3434 66.3655C35.1016 65.2787 35.9609 64.3941 37.2751 65.4051C38.463 66.3402 38.0333 67.4269 37.2751 68.4631C35.6324 70.7883 34.0149 73.1387 32.3721 75.4638C31.159 77.1572 30.2744 77.233 28.758 75.7418C27.646 74.6551 26.534 73.5431 25.422 72.4311C24.5879 71.5718 24.3605 70.5861 25.2198 69.6763C26.0791 68.7412 27.0395 68.9686 27.8987 69.7774C28.6569 70.5356 29.4151 71.2685 30.2997 72.1278Z" fill="#606060"/>
</svg>
