<svg width="100" height="100" viewBox="0 0 100 100" fill="none" xmlns="http://www.w3.org/2000/svg">
<path d="M88.5228 82.0923C87.5083 79.9566 86.7075 78.3015 86.0667 76.9132C83.931 77.4739 81.9822 78.0078 79.8732 78.5684C80.8877 80.6774 81.7953 82.5729 82.8632 84.8154C83.931 82.2258 85.4794 80.8643 88.5228 82.0923ZM71.9711 84.8687C73.0923 82.4928 74 80.5973 74.9611 78.5684C72.8254 77.9811 70.8498 77.4472 68.7675 76.8865C68.0734 78.3815 67.3259 80.01 66.3382 82.119C69.4082 80.8376 70.8765 82.1991 71.9711 84.8687ZM65.4839 64.4728C65.6173 64.9266 65.644 65.2469 65.7775 65.5406C67.059 68.0768 66.6852 71.5206 69.9422 72.9622C70.1824 73.069 70.2892 73.4694 70.4761 73.7097C71.0901 74.6174 77.2036 76.6196 78.218 76.2725C78.3248 76.2191 78.4583 76.1924 78.5651 76.139C81.3148 75.1246 84.4917 74.8576 86.0934 71.8142C86.2002 71.6274 86.5206 71.5473 86.7075 71.4138C87.5083 70.8532 89.4305 64.6863 89.1101 63.752C89.0567 63.6452 89.0033 63.5384 88.9499 63.4049C87.9889 60.6285 87.6418 57.4783 84.6251 55.8765C84.4917 55.7964 84.4383 55.5562 84.3315 55.396C83.7175 54.4883 77.604 52.4861 76.5628 52.8598C76.376 52.9132 76.2158 53.02 76.0556 53.0734C73.1991 53.9277 70.396 54.6485 68.4472 57.3448C67.7264 58.3326 66.7119 58.9733 66.7386 60.3882C66.7653 61.1624 66.4182 61.9633 66.1513 62.7108C66.0178 63.3515 65.7241 63.9655 65.4839 64.4728ZM87.802 74.6441C88.4694 74.9377 89.1368 75.3649 89.8309 75.4983C90.6852 75.6585 91.5662 75.525 92.4472 75.525C95.1702 75.525 95.1702 75.525 95.1702 72.8287V16.5528C95.1702 13.8565 95.1702 13.8565 92.4472 13.8565C64.1224 13.8565 35.8242 13.8565 7.49944 13.8565C4.80311 13.8565 4.80311 13.8565 4.80311 16.5795C4.80311 31.5829 4.80311 46.5862 4.80311 61.5896C4.80311 65.594 4.82981 69.5984 4.80311 73.5762C4.80311 74.8576 5.17686 75.525 6.64516 75.525C26.1335 75.4983 45.6485 75.525 65.1368 75.4716C65.7775 75.4716 66.4182 74.8843 67.2191 74.4572C64.416 72.0545 64.3893 71.921 63.9355 68.7175C63.8554 68.1302 63.5884 67.5428 63.3215 66.9822C62.1735 64.5261 63.802 57.4249 65.9377 55.7431C66.0445 55.663 66.1513 55.6096 66.2314 55.5295C68.5273 53.1268 70.7964 50.6174 74.5606 50.6974C74.614 50.6974 74.6674 50.6441 74.7208 50.6174C76.5095 49.6029 78.1646 50.0834 80.0868 50.4839C83.3704 51.2047 85.9066 52.5929 88.1757 55.129C89.564 56.6774 90.8721 57.9588 90.8721 60.1746C90.8721 60.6552 91.0056 61.1891 91.2458 61.5896C92.4472 63.6185 92.3938 65.594 91.1924 67.6229C90.9789 67.97 90.8721 68.4505 90.8721 68.8776C90.9522 71.1201 89.9911 72.8287 87.802 74.6441ZM77.4438 80.0634C76.2158 82.5996 75.228 84.7887 74.0801 86.9244C73.6796 87.6719 72.9321 88.6863 72.2647 88.7397C71.624 88.7931 70.8765 87.8053 70.2091 87.218C69.9422 86.9778 69.7553 86.604 69.6218 86.257C69.0345 84.8154 68.1001 84.2547 66.5517 84.8154C66.2047 84.9488 65.8042 85.0289 65.4572 84.9755C64.6563 84.8421 63.535 84.8687 63.1613 84.3615C62.7875 83.8543 63.0278 82.733 63.2681 81.9855C63.6418 80.8376 64.2558 79.7431 64.8966 78.4082H62.6007C44.1535 78.4082 25.733 78.4082 7.28587 78.4082C3.28142 78.4082 2 77.1268 2 73.1491C2 54.1413 2 35.1602 2 16.1524C2 12.3348 3.33482 11 7.20578 11C35.7709 11 64.3359 11 92.901 11C96.6652 11 98 12.3615 98 16.0456C98 35.1068 98 54.168 98 73.2291C98 77.0734 96.6652 78.3815 92.7942 78.3815C91.9399 78.3815 91.0857 78.3815 89.9644 78.3815C90.6585 79.8765 91.2458 81.0779 91.7798 82.3326C92.554 84.1746 91.673 85.2959 89.7241 85.0289C89.5907 85.0022 89.4839 84.9755 89.3504 84.9488C86.3604 84.4416 86.3871 84.495 84.7052 87.0579C84.2247 87.7787 83.317 88.7931 82.7297 88.713C81.9822 88.6062 81.1813 87.6452 80.7542 86.8443C79.6062 84.7887 78.6719 82.5996 77.4438 80.0634Z" fill="#606060"/>
<path d="M18.2376 68.5335H33.9084C41.5969 68.5335 49.2855 68.5335 56.974 68.5335C57.588 68.5335 58.3088 68.4001 58.816 68.6403C59.35 68.8806 60.0174 69.5213 59.9907 69.9751C59.964 70.429 59.2432 70.9629 58.736 71.2833C58.4156 71.4701 57.8817 71.3367 57.4545 71.3367C44.4534 71.3367 31.4523 71.31 18.4512 71.3634C16.5824 71.3634 15.5947 70.9095 15.2743 68.8806C14.9006 66.4779 13.2187 65.063 10.816 64.6893C9.26765 64.449 8.70703 63.6748 8.70703 62.1798C8.73373 50.5669 8.73373 38.9273 8.70703 27.3144C8.70703 25.8461 9.13417 24.9651 10.736 24.7249C13.3789 24.3244 14.9807 22.6959 15.4078 20.053C15.6481 18.5847 16.3956 18.0508 17.8105 18.0508C39.1142 18.0775 60.4445 18.0775 81.7482 18.0508C83.2699 18.0508 83.964 18.6381 84.2576 20.1598C84.7916 22.9896 86.2599 24.3511 89.1698 24.7516C90.7716 24.9651 91.2521 25.8194 91.2521 27.2877C91.2254 35.1097 91.2254 42.9051 91.2521 50.7271C91.2521 51.7415 91.1186 52.756 89.8906 52.7827C88.5291 52.8094 88.4223 51.6882 88.4223 50.647C88.4223 43.7593 88.3956 36.8984 88.449 30.0107C88.449 28.4623 88.3422 27.4479 86.4734 26.9407C84.1509 26.2999 82.6025 24.4579 81.855 22.1086C81.5613 21.1743 81.1075 20.8539 80.1197 20.8539C59.9373 20.8806 39.7549 20.8806 19.5457 20.8539C18.6114 20.8539 18.1041 21.0942 17.7838 22.0552C16.9829 24.6181 15.2476 26.3266 12.7115 27.1542C11.7237 27.4746 11.5368 28.0085 11.5368 28.9429C11.5635 39.5146 11.5368 50.0597 11.5902 60.6314C11.5902 61.1654 12.0441 61.9929 12.4979 62.1531C15.5413 63.1676 17.3299 65.3033 18.2376 68.5335Z" fill="#606060"/>
<path d="M49.8357 45.8079C41.2662 45.8079 32.7234 45.8079 24.1539 45.8079C23.6467 45.8079 23.0593 45.9413 22.6856 45.7545C22.1517 45.4875 21.3241 44.8201 21.3775 44.4997C21.5109 43.9391 22.125 43.3785 22.6856 43.0314C23.0593 42.8179 23.6467 42.9514 24.1539 42.9514C41.3463 42.9514 58.5121 42.9514 75.7045 42.9514C75.8914 42.9514 76.0782 42.9514 76.2651 42.9514C77.333 42.978 78.6144 42.898 78.6144 44.393C78.6144 45.888 77.333 45.8079 76.2384 45.8079C67.4553 45.8079 58.6455 45.8079 49.8357 45.8079Z" fill="#606060"/>
<path d="M49.8119 30.4579C41.2424 30.4579 32.6995 30.4579 24.13 30.4579C23.6228 30.4579 23.0355 30.6181 22.6617 30.4045C22.1278 30.1376 21.407 29.5769 21.407 29.1231C21.3803 28.6693 22.0744 28.0553 22.5816 27.7883C23.0355 27.548 23.6762 27.6815 24.2368 27.6815C41.4025 27.6815 58.595 27.6815 75.7607 27.6815C76.0811 27.6815 76.3747 27.6815 76.6951 27.6815C77.7096 27.6815 78.6973 27.8684 78.6439 29.1231C78.5905 30.3511 77.6028 30.4579 76.5883 30.4579C67.6717 30.4579 58.7285 30.4579 49.8119 30.4579Z" fill="#606060"/>
<path d="M56.9656 38.073C50.6653 38.073 44.3649 38.073 38.0379 38.073C37.4773 38.073 36.8366 38.1798 36.3827 37.9662C35.9022 37.7527 35.2348 37.1119 35.2882 36.7649C35.3683 36.2577 35.9556 35.7237 36.4361 35.3767C36.7298 35.1631 37.2904 35.3233 37.7175 35.3233C50.5051 35.3233 63.3193 35.3233 76.1069 35.3233C76.4272 35.3233 76.8277 35.2165 77.0412 35.35C77.6286 35.7504 78.1358 36.2577 78.6964 36.7382C78.1358 37.192 77.6285 37.7527 76.9878 38.073C76.5874 38.2866 76.0001 38.1264 75.5195 38.1264C69.326 38.073 63.1324 38.073 56.9656 38.073Z" fill="#606060"/>
<path d="M49.9415 52.9102C52.8781 52.9102 55.8147 52.9369 58.7246 52.9102C59.7657 52.9102 60.7268 53.1237 60.7268 54.3251C60.7268 55.5531 59.7123 55.7133 58.6979 55.7133C52.9048 55.7133 47.085 55.7667 41.3186 55.6599C40.5978 55.6332 39.3697 54.9124 39.2897 54.3785C39.1028 53.0703 40.2507 52.9102 41.3453 52.9102C44.2018 52.9369 47.085 52.9102 49.9415 52.9102Z" fill="#606060"/>
<path d="M26.4753 35.2905C27.5966 35.2905 28.7445 35.157 29.8391 35.3438C30.3997 35.4506 30.8535 36.1714 31.334 36.6253C30.8535 37.0791 30.3997 37.9334 29.8924 37.9601C27.5432 38.0936 25.1672 38.1203 22.7912 37.9601C22.2573 37.9334 21.7768 37.1325 21.2695 36.6787C21.8035 36.1981 22.284 35.4506 22.898 35.3172C24.0726 35.1303 25.274 35.2905 26.4753 35.2905Z" fill="#606060"/>
<path d="M77.2865 70.4741C80.4366 70.5008 83.1597 67.8579 83.2397 64.6543C83.3198 61.4508 80.5701 58.621 77.3399 58.5943C74.163 58.5676 71.4667 61.2105 71.3866 64.3874C71.3332 67.6443 74.0562 70.4474 77.2865 70.4741ZM77.2865 55.8712C82.1185 55.8445 85.9895 59.6621 86.0162 64.4942C86.0429 69.3262 82.252 73.2238 77.4467 73.2772C72.5345 73.3306 68.6102 69.4864 68.6369 64.5742C68.6369 59.6888 72.4544 55.8712 77.2865 55.8712Z" fill="#606060"/>
</svg>
