<svg width="100" height="100" viewBox="0 0 100 100" fill="none" xmlns="http://www.w3.org/2000/svg">
<path d="M75.8624 80.1403C77.3454 78.8569 78.7143 77.6877 79.8836 76.6895C78.6288 75.4347 77.5165 74.2939 76.5184 73.2957C75.3206 74.5221 74.0943 75.8054 72.8394 77.0888C73.8091 78.0869 74.9498 79.2277 75.8624 80.1403ZM76.9462 84.5037C80.1118 87.7264 83.2204 90.9775 86.4715 94.0861C88.4679 95.9969 91.4338 95.8828 93.3446 94.0291C95.1983 92.2324 95.5976 89.2094 93.8294 87.2701C90.6353 83.8478 87.213 80.6822 83.9333 77.4595C81.6233 79.7696 79.3418 82.0511 76.9462 84.5037ZM21.3911 95.398C24.3286 95.398 27.2375 95.3695 30.175 95.398C31.6294 95.398 32.3139 94.7706 32.3139 93.259C32.2854 89.466 32.2854 85.673 32.3139 81.88C32.3424 80.3114 31.658 79.627 30.0894 79.627C24.243 79.6555 18.3681 79.6555 12.5217 79.627C11.0672 79.627 10.3828 80.2544 10.3828 81.7659C10.4113 85.5589 10.4113 89.3519 10.3828 93.145C10.3542 94.7135 11.0387 95.398 12.6072 95.398C15.5162 95.3695 18.4536 95.398 21.3911 95.398ZM27.8079 10.4113C24.8704 10.4113 21.9615 10.4398 19.024 10.3828C17.3984 10.3542 16.6284 10.9531 16.6284 12.6643C16.6855 16.4003 16.6855 20.1363 16.6284 23.8437C16.5999 25.5549 17.3699 26.1538 18.9955 26.1253C24.7278 26.0682 30.4316 26.0682 36.164 26.1253C37.7895 26.1253 38.5596 25.5549 38.5596 23.8437C38.5025 20.1077 38.5025 16.4003 38.5596 12.6643C38.5881 10.9531 37.8181 10.3257 36.1925 10.3828C33.3976 10.4398 30.6027 10.4113 27.8079 10.4113ZM79.2277 56.1558C79.2562 43.0941 68.7612 32.485 55.8136 32.4565C42.923 32.428 32.3424 42.9515 32.2854 55.8706C32.2283 68.9608 42.6663 79.5984 55.6139 79.684C68.5901 79.7125 79.1992 69.1605 79.2277 56.1558ZM52.8761 29.2338C50.9939 26.1823 49.2257 23.3019 47.4005 20.4215C47.2008 20.1077 46.659 19.8796 46.2882 19.8511C44.8052 19.794 43.3222 19.8226 41.6681 19.8226C41.6681 21.3911 41.6966 22.7315 41.6681 24.1004C41.6111 27.3516 39.7574 29.2338 36.5632 29.2624C30.5742 29.2909 24.5567 29.2909 18.5677 29.2624C15.4591 29.2338 13.5484 27.3516 13.5199 24.2715C13.4913 20.2789 13.4913 16.2577 13.5199 12.265C13.5484 9.15644 15.4591 7.24567 18.5392 7.24567C24.5282 7.21715 30.5457 7.21715 36.5347 7.24567C39.7574 7.24567 41.6396 9.12792 41.6681 12.3506C41.6966 13.7765 41.6681 15.174 41.6681 16.6855C43.5789 16.6855 45.2045 16.771 46.8301 16.6569C48.2275 16.5714 49.1401 17.0847 49.8531 18.311C51.222 20.6781 52.8761 22.9026 54.1309 25.3553C55.5284 28.0931 57.268 30.0324 60.6333 29.7757C61.2607 29.7187 61.8881 30.0609 62.5441 30.175C62.8863 30.232 63.4281 30.289 63.6278 30.0894C66.4226 27.3231 69.1605 24.4712 72.212 21.3626H68.3619V18.2825C70.9572 18.2825 73.4954 18.197 76.005 18.3396C76.5754 18.3681 77.5451 19.1951 77.5736 19.68C77.7162 22.3322 77.6591 24.9845 77.6591 27.6083H74.4935V24.1575C71.9553 26.7242 69.5027 29.1768 67.1071 31.6009C80.8533 39.7003 85.3593 51.5072 80.2544 67.0501C84.1615 67.0501 88.0116 67.0501 91.8331 67.0501C94.685 67.0501 94.8561 66.8789 94.8561 64.0556C94.8561 45.0334 94.8561 26.0397 94.8561 7.01751C94.8561 4.30821 94.6565 4.08005 91.9472 4.08005C77.8017 4.08005 63.6563 4.08005 49.5109 4.08005C35.2513 4.08005 20.9633 4.08005 6.7038 4.05154C5.07822 4.05154 4.08006 4.39376 4.08006 6.30454C4.10857 25.783 4.10857 45.2615 4.08006 64.7115C4.08006 66.4226 4.82155 67.0501 6.44713 67.0215C9.89794 66.9645 13.3487 66.993 16.7995 66.993C21.6193 66.993 26.4105 66.993 31.4298 66.993C30.9735 65.8238 30.6027 64.8826 30.232 63.8559C23.5015 63.8559 16.8566 63.8559 10.2116 63.8559C7.38826 63.8559 7.18863 63.6563 7.18863 60.8614C7.18863 47.3434 7.18863 33.8539 7.18863 20.3359V18.311H10.3828V60.5762H29.4335C28.7775 52.4483 29.5761 47.9138 32.7987 42.4667C33.5972 41.1263 33.4832 40.3563 32.0572 39.6718C26.7812 45.4612 21.5052 51.222 16.2006 57.0399C15.3451 56.2414 14.6891 55.6425 13.9191 54.958C14.461 54.3306 14.9173 53.7887 15.4021 53.2754C20.1933 47.9994 24.9845 42.7233 29.8042 37.4758C32.2283 34.8236 32.2569 34.8236 34.738 37.5614C34.9947 37.8466 35.1658 38.2173 35.3654 38.531C41.4115 32.9983 43.5789 31.4298 52.8761 29.2338ZM35.4225 88.7245C35.4225 90.8064 35.451 92.2324 35.4225 93.6868C35.3369 96.5673 33.4832 98.5351 30.6313 98.5636C24.4426 98.6206 18.254 98.6206 12.0654 98.5636C9.21348 98.5351 7.30271 96.5958 7.27419 93.6868C7.21715 89.5516 7.21715 85.4163 7.27419 81.2811C7.30271 78.5147 9.21348 76.5469 11.9798 76.5469C18.2255 76.4899 24.4997 76.4899 30.7453 76.5469C33.4832 76.5754 35.3369 78.5432 35.4225 81.3381C35.4795 82.7641 35.4225 84.2185 35.4225 85.6445C40.3277 87.4126 43.0941 84.4467 45.7749 81.0244C45.3186 80.7677 44.8623 80.4825 44.3774 80.2544C40.2422 78.258 36.7914 75.4347 34.1961 71.6131C33.4832 70.5579 32.7132 70.2442 31.4868 70.2442C23.2163 70.3012 14.9458 70.2727 6.64677 70.2727C2.76818 70.2727 1 68.5331 1 64.6545C1 45.3186 1 25.9542 1 6.61825C1 2.73966 2.73966 1 6.61825 1C35.2228 1 63.8559 1 92.4605 1C96.1965 1 97.9932 2.76818 97.9932 6.50417C97.9932 25.9256 97.9932 45.3186 97.9932 64.74C97.9932 68.476 96.1965 70.2442 92.4605 70.2727C87.926 70.2727 83.3629 70.2727 78.8855 70.2727C80.1118 71.499 81.2811 72.6683 82.5644 73.9517C83.7907 72.7824 84.8745 73.6665 86.0152 74.8643C89.0668 78.0299 92.2038 81.0814 95.2554 84.2185C98.7917 87.8119 98.9058 92.8028 95.6261 96.168C92.2609 99.5903 87.2701 99.4477 83.6196 95.8258C80.454 92.6887 77.374 89.5231 74.2083 86.386C73.1246 85.3022 72.269 84.3041 73.7806 82.9922C73.5809 82.707 73.4954 82.5074 73.3528 82.3648C72.2405 81.2525 71.2709 79.5699 69.959 79.2562C68.8182 78.971 67.3353 80.2829 65.9663 80.8533C61.004 82.9067 55.8991 83.3915 50.6516 82.4503C49.9672 82.3363 49.1972 82.8211 48.4557 83.0492C48.3416 83.0778 48.256 83.2204 48.1705 83.3344C44.8337 86.9278 41.6111 90.949 35.4225 88.7245Z" fill="#606060"/>
<path d="M41.9815 45.7426C43.0082 46.8834 43.8923 47.8815 44.4912 48.5375C47.8279 45.1722 51.0791 41.9211 54.1877 38.8125C49.425 39.3258 45.2612 41.4933 41.9815 45.7426ZM40.6411 63.9378C40.7837 64.3941 40.8408 64.5937 40.9263 64.7648C44.6053 71.3527 52.7047 74.775 60.0626 72.8357C67.6486 70.8394 72.9532 63.9663 72.9532 56.0665C72.9532 48.3378 67.7342 41.3507 60.4333 39.497C59.7489 39.3258 58.6652 39.6966 58.1518 40.2099C54.2162 44.0315 50.3376 47.9386 46.516 51.8742C45.2897 53.129 44.263 53.2431 43.1223 51.8172C42.2667 50.762 41.3256 49.7923 40.2989 48.6516C38.6163 52.2164 38.217 55.6672 38.8729 59.3462C39.0726 60.5155 39.5574 60.8292 40.6696 60.8292C44.976 60.7721 49.2824 60.8007 53.5888 60.8007H58.7792V63.9663H40.6411V63.9378ZM55.6707 76.5147C44.4342 76.4861 35.3651 67.246 35.4221 55.8669C35.4792 44.6589 44.6338 35.5898 55.8418 35.5898C66.9642 35.5898 76.1188 44.83 76.0903 56.038C76.0903 67.3886 66.9642 76.5432 55.6707 76.5147Z" fill="#606060"/>
<path d="M35.2479 13.6328H19.8477V16.5703H35.2479V13.6328Z" fill="#606060"/>
<path d="M35.3335 19.9375H19.8477V22.8464H35.3335V19.9375Z" fill="#606060"/>
<path d="M29.0382 82.8789H13.6094V85.8449H29.0382V82.8789Z" fill="#606060"/>
<path d="M21.4209 89.0977H13.5781V92.2633H21.3638H29.064V89.0977H21.4209Z" fill="#606060"/>
</svg>
