<svg width="100" height="100" viewBox="0 0 100 100" fill="none" xmlns="http://www.w3.org/2000/svg">
<path d="M94.345 29.0665C94.345 24.5393 94.5965 20.1721 94.2764 15.8507C94.0249 12.3524 90.8239 10.0202 87.3027 10.1345C83.9873 10.226 80.8549 12.8097 80.6719 16.1251C80.4433 20.4008 80.6262 24.6765 80.6262 29.0665H94.345ZM6.04157 73.424C6.04157 75.4132 6.01871 77.1967 6.04157 78.9801C6.1559 84.9935 10.2944 89.1549 16.3307 89.1778C30.0495 89.2006 43.7683 89.2006 57.4871 89.1778C57.9216 89.1778 58.356 89.0863 59.1334 88.972C54.0117 84.6506 54.6976 78.9115 54.6748 73.424H6.04157ZM19.5317 70.2915H21.8411C32.7933 70.2915 43.7455 70.2915 54.6976 70.2915C57.5329 70.2915 57.6929 70.4516 57.6929 73.3554C57.6929 75.3904 57.6243 77.4253 57.7158 79.4374C58.0359 86.9599 65.9471 91.6014 72.3035 87.9659C76.0304 85.8395 77.4709 82.4327 77.448 78.2256C77.4023 59.911 77.4023 41.5735 77.448 23.2589C77.4709 18.8002 76.5563 14.113 80.2604 10.0888H78.1568C61.2827 10.0888 44.4314 10.0888 27.5573 10.0888C22.2526 10.0888 19.8976 12.421 19.8747 17.7027C19.7375 34.554 19.6232 51.4053 19.5089 68.2337C19.5317 68.8511 19.5317 69.4684 19.5317 70.2915ZM80.5348 32.3819V34.6226C80.5348 49.0731 80.3518 63.5236 80.6033 77.9741C80.7634 87.1428 73.7211 92.4017 66.7473 92.3102C49.9418 92.0816 33.1362 92.3331 16.3307 92.2645C8.4195 92.2188 3.02344 86.5026 3.00057 78.5914C3.00057 76.5565 3.02344 74.5444 3.00057 72.5094C2.97771 70.9546 3.64078 70.2687 5.21845 70.2915C8.83107 70.3373 12.4666 70.3144 16.3307 70.3144C16.3535 69.5141 16.4221 68.8053 16.4221 68.1194C16.5593 51.2681 16.6965 34.4168 16.788 17.5655C16.8108 13.1527 18.4571 9.74583 22.5728 7.93951C23.9904 7.32217 25.6595 7.04779 27.2143 7.04779C47.1066 7.00206 66.976 6.9792 86.8683 7.02493C93.4533 7.04779 97.569 11.2549 97.569 17.8171C97.5918 21.8184 97.5918 25.8197 97.569 29.7982C97.569 31.856 97.1117 32.2904 95.0767 32.2904C90.458 32.3133 85.8394 32.3133 81.2207 32.3133C81.0835 32.2904 80.9692 32.3133 80.5348 32.3819Z" fill="#606060"/>
<path d="M58.0799 31.3508C58.0799 29.9332 58.0342 28.5155 58.1027 27.1208C58.1485 26.0919 57.8741 25.4517 56.8452 24.9715C54.1014 23.714 51.4491 22.2963 48.7054 21.0388C48.1337 20.7873 47.2649 20.7644 46.6933 21.0159C43.9038 22.2963 41.1371 23.6454 38.4391 25.1087C37.8904 25.4059 37.3645 26.2748 37.3187 26.8921C37.2044 29.7045 37.2502 32.5397 37.273 35.3749C37.2959 38.2788 38.5306 40.5881 40.8856 42.303C42.7148 43.6291 44.6583 44.8409 46.4875 46.1899C47.3106 46.8073 47.9508 46.853 48.774 46.2128C50.1458 45.1839 51.5634 44.1779 53.0268 43.2861C56.6623 41.114 58.4 38.0273 58.057 33.7744C58.0342 32.9513 58.0799 32.151 58.0799 31.3508ZM34.1863 30.3676C32.7001 25.0172 35.3067 22.2735 40.1311 20.6958C42.2804 19.987 44.1782 18.638 46.2817 17.792C47.082 17.4719 48.2481 17.4262 49.0026 17.7691C52.5924 19.3925 56.0678 21.2217 59.6118 22.8908C60.8008 23.4396 61.2124 24.2398 61.1895 25.4974C61.1438 28.6985 61.2123 31.8995 61.1666 35.0777C61.098 39.3077 59.3146 42.6459 55.8163 45.0467C53.5755 46.5786 51.3348 48.0649 49.1398 49.6425C48.1566 50.3513 47.3106 50.3742 46.3046 49.6654C43.9038 47.9505 41.3887 46.3957 39.0107 44.658C35.8325 42.3258 34.2777 39.079 34.1863 35.1692C34.1406 33.5686 34.1863 31.9681 34.1863 30.3676Z" fill="#606060"/>
<path d="M48.432 57.4394C42.5786 57.4394 36.7481 57.4394 30.8948 57.4394C29.7287 57.4394 28.4711 57.4394 28.5168 55.8618C28.5626 54.4442 29.7287 54.3984 30.8262 54.3984C42.51 54.3984 54.1939 54.3984 65.9006 54.3984C67.021 54.3984 68.1642 54.5128 68.1871 55.9075C68.2099 57.3251 67.0896 57.4394 65.9463 57.4394C60.1158 57.4394 54.2853 57.4394 48.432 57.4394Z" fill="#606060"/>
<path d="M48.4133 61.4685C54.198 61.4685 59.9828 61.4227 65.7676 61.5142C66.545 61.5371 67.3224 62.1544 68.0998 62.4974C67.7339 63.1376 67.5053 63.9607 66.9794 64.3951C66.5907 64.7153 65.7904 64.5323 65.1731 64.5323C53.9694 64.5323 42.7885 64.5323 31.5848 64.5323C31.219 64.5323 30.7617 64.6695 30.4873 64.5095C29.7785 64.0979 28.681 63.6635 28.5667 63.069C28.3381 61.8572 29.3898 61.4685 30.5102 61.4685C36.5008 61.4685 42.4456 61.4685 48.4133 61.4685Z" fill="#606060"/>
<path d="M45.9444 34.9833C47.7507 33.1541 49.1683 31.7136 50.5859 30.2731C51.3633 29.4729 52.2321 28.7412 53.2611 29.6786C54.29 30.639 53.6269 31.5535 52.8266 32.3538C51.1346 34.0458 49.4198 35.7378 47.7278 37.4526C46.6532 38.573 45.6242 38.5501 44.5725 37.4069C43.8179 36.6066 42.8348 35.9207 42.3089 35.0061C41.943 34.3888 42.1488 33.4056 42.1031 32.6053C42.8805 32.6968 43.7722 32.5596 44.3667 32.9254C45.0069 33.2913 45.3499 34.1601 45.9444 34.9833Z" fill="#606060"/>
</svg>
