<svg width="100" height="100" viewBox="0 0 100 100" fill="none" xmlns="http://www.w3.org/2000/svg">
<path d="M49.4302 94.0274C59.6784 94.0274 69.9008 94.0274 80.1491 94.0274C82.5756 94.0274 82.8079 93.7951 82.8079 91.4718C82.8079 79.4424 82.8079 67.413 82.8079 55.4095C82.8079 53.0346 82.5756 52.8022 80.2007 52.8022C59.7301 52.8022 39.2594 52.8022 18.763 52.8022C16.4139 52.8022 16.1816 53.0346 16.1816 55.4611C16.1816 67.413 16.1816 79.365 16.1816 91.3428C16.1816 93.8467 16.3881 94.0532 18.8921 94.0532C29.0887 94.0274 39.2594 94.0274 49.4302 94.0274ZM49.5335 5.17514C39.2853 5.17514 29.0629 5.17514 18.8146 5.17514C16.4397 5.17514 16.2074 5.40747 16.2074 7.78237C16.2074 20.7927 16.2074 33.803 16.2074 46.8392C16.2074 49.3948 16.4139 49.6013 18.8921 49.6013C39.3111 49.6013 59.7042 49.6013 80.1232 49.6013C82.6272 49.6013 82.8337 49.3948 82.8337 46.8908C82.8337 33.9321 82.8337 20.9992 82.8337 8.04051C82.8337 5.35584 82.6788 5.20095 80.0716 5.20095C69.875 5.17514 59.7042 5.17514 49.5335 5.17514ZM49.3786 97.2026C39.1304 97.2026 28.8822 97.2026 18.6598 97.2026C14.6844 97.2026 13.0323 95.4988 13.0323 91.5235C13.0323 79.5715 13.0065 67.5937 13.0581 55.6418C13.0581 54.3769 13.5227 53.0862 13.7293 51.8213C13.7809 51.4599 13.8583 51.0727 13.7809 50.7113C13.5486 49.1108 13.0581 47.5103 13.0323 45.9099C12.9806 33.1577 13.0065 20.4055 13.0065 7.62748C13.0065 3.67792 14.6844 2 18.6856 2C39.2336 2 59.7817 2 80.3556 2C84.3309 2 85.983 3.67792 85.983 7.67911C85.983 20.6894 86.0089 33.7256 85.9572 46.7359C85.9572 48.0008 85.4926 49.2915 85.2861 50.5564C85.2344 50.9178 85.157 51.305 85.2086 51.6664C85.4409 53.2669 85.9314 54.8674 85.9572 56.4678C86.0089 68.1617 86.0089 79.8555 85.983 91.5751C85.983 95.5505 84.3051 97.2026 80.3039 97.2026C70.0041 97.2284 59.7042 97.2026 49.3786 97.2026Z" fill="#606060"/>
<path d="M22.6348 39.9507H47.8552C48.0359 35.5107 45.4287 31.716 40.937 31.0707C37.2198 30.5286 33.2702 30.5286 29.553 31.0707C25.0355 31.7419 22.4283 35.5107 22.6348 39.9507ZM35.1805 43.255C30.7662 43.255 26.3262 43.2033 21.912 43.2808C20.0276 43.3066 19.4338 42.5838 19.3306 40.7252C18.7627 31.716 26.4295 27.276 32.3151 27.4051C35.2837 27.4567 38.304 27.3018 41.1693 27.8181C47.8294 29.0572 51.7531 34.6847 51.1078 41.4222C50.9787 42.8936 50.1527 43.2808 48.8361 43.255C44.2929 43.255 39.7238 43.255 35.1805 43.255Z" fill="#606060"/>
<path d="M38.3777 17.9036C38.4035 16.1741 36.9837 14.7285 35.2542 14.7027C33.5246 14.6769 32.079 16.0966 32.0532 17.8262C32.0274 19.5557 33.4472 21.0013 35.1767 21.0271C36.9063 21.0529 38.3519 19.6332 38.3777 17.9036ZM35.3058 11.5275C38.8165 11.5533 41.6561 14.522 41.5786 18.0327C41.5012 21.466 38.61 24.2539 35.1767 24.2023C31.666 24.1506 28.8264 21.2078 28.9039 17.6713C28.9555 14.2638 31.8467 11.5017 35.3058 11.5275Z" fill="#606060"/>
<path d="M66.9535 17.8692C70.4384 17.8692 73.9491 17.8692 77.434 17.8692C78.6215 17.8692 79.7573 18.2048 79.525 19.5471C79.4217 20.1667 78.1827 20.9927 77.4599 20.9927C70.4642 21.096 63.4686 21.0444 56.473 21.0702C55.2855 21.0702 54.1497 20.7346 54.382 19.3922C54.4853 18.7727 55.6985 17.9725 56.4471 17.9467C59.9579 17.766 63.4428 17.8692 66.9535 17.8692Z" fill="#606060"/>
<path d="M66.9535 25.7967C70.4384 25.7967 73.9491 25.7967 77.434 25.7967C78.6215 25.7967 79.7573 26.1323 79.525 27.4746C79.4217 28.0942 78.1827 28.9202 77.4599 28.9202C70.4642 29.0235 63.4686 28.9718 56.473 28.9977C55.2855 28.9977 54.1497 28.6621 54.382 27.3197C54.4853 26.7002 55.6985 25.9 56.4471 25.8741C59.9579 25.7193 63.4428 25.7967 66.9535 25.7967Z" fill="#606060"/>
<path d="M67.1633 33.7194C70.5191 33.7194 73.9008 33.7452 77.2566 33.7194C78.3924 33.7194 79.5283 33.8485 79.5799 35.2166C79.6315 36.7397 78.4441 36.8946 77.2308 36.8946C70.3642 36.8946 63.4977 36.8946 56.6569 36.8946C55.5211 36.8946 54.3853 36.7655 54.3337 35.3715C54.282 33.8485 55.4695 33.6678 56.6827 33.6936C60.1677 33.7452 63.6784 33.7194 67.1633 33.7194Z" fill="#606060"/>
<path d="M66.9535 41.6778C70.4384 41.6778 73.9491 41.6778 77.434 41.6778C78.6215 41.6778 79.7573 42.0134 79.525 43.3557C79.4217 43.9753 78.1827 44.8013 77.4599 44.8013C70.4642 44.9046 63.4686 44.853 56.473 44.8788C55.2855 44.8788 54.1497 44.5432 54.382 43.2008C54.4853 42.5813 55.6985 41.7811 56.4471 41.7553C59.9579 41.5746 63.4428 41.6778 66.9535 41.6778Z" fill="#606060"/>
<path d="M66.91 13.1279C64.9223 13.1279 62.9346 13.257 60.9986 13.0505C60.3016 12.973 59.7079 12.0954 59.0625 11.5791C59.682 11.037 60.2758 10.056 60.8953 10.0302C64.8965 9.87534 68.9235 9.87534 72.9505 10.0302C73.5959 10.056 74.2412 10.9853 74.8608 11.5016C74.1896 12.0437 73.5442 12.973 72.8214 13.0505C70.8596 13.257 68.8719 13.1279 66.91 13.1279Z" fill="#606060"/>
<path d="M49.4047 87.6763C57.7168 87.6763 66.0548 87.6247 74.3669 87.7022C76.0449 87.728 76.5095 87.1601 76.5095 85.5338C76.4579 77.4797 76.4321 69.4257 76.5095 61.3717C76.5353 59.668 76.0449 59.1001 74.2895 59.1001C57.7684 59.1517 41.2732 59.1517 24.7522 59.1001C22.9968 59.1001 22.5063 59.6422 22.5063 61.3717C22.5838 69.3741 22.5838 77.3507 22.5063 85.3531C22.4805 87.1601 22.971 87.7538 24.8296 87.728C33.0385 87.6247 41.2216 87.6763 49.4047 87.6763ZM49.5337 90.8773C41.1441 90.8773 32.7545 90.8773 24.3649 90.8773C20.88 90.8773 19.3828 89.4059 19.3828 85.9726C19.3828 77.583 19.3828 69.1934 19.3828 60.8038C19.3828 57.4996 20.9058 55.9766 24.2617 55.9766C41.0925 55.9766 57.9491 55.9766 74.78 55.9766C78.1358 55.9766 79.6588 57.4738 79.6588 60.778C79.6847 69.2192 79.6847 77.6863 79.6588 86.1533C79.6588 89.3543 78.11 90.8773 74.8832 90.8773C66.4162 90.8773 57.975 90.8773 49.5337 90.8773Z" fill="#606060"/>
<path d="M49.5036 65.4792C45.141 65.4792 41.5787 69.0415 41.5787 73.4041C41.5787 77.7667 45.1152 81.329 49.5036 81.329C53.8662 81.329 57.4286 77.7667 57.4286 73.4041C57.4286 69.0673 53.8662 65.4792 49.5036 65.4792ZM39.2296 68.6543C35.4349 68.6543 31.6919 68.7059 27.923 68.6027C27.226 68.5769 26.4774 68.138 25.9353 67.6734C25.703 67.4668 25.7804 66.4601 26.0386 66.2794C26.6323 65.8664 27.4067 65.505 28.1295 65.505C32.1565 65.4275 36.1835 65.505 40.2364 65.4275C41.0882 65.4017 42.0433 65.0919 42.7145 64.6015C47.0255 61.5296 52.0592 61.5296 56.3702 64.6273C57.0672 65.1178 58.0223 65.4017 58.8742 65.4275C62.8495 65.505 66.7991 65.4792 70.7745 65.4533C71.9619 65.4533 73.2526 65.4533 73.2785 67.0022C73.3043 68.6801 71.9361 68.6543 70.697 68.6543C67.0831 68.6543 63.4691 68.6543 59.8035 68.6543C60.8102 72.3457 59.8293 71.752 63.4175 71.8036C65.9989 71.8294 68.5803 71.7004 71.1359 71.8811C71.8845 71.9327 73.0978 72.7329 73.201 73.3525C73.4333 74.6948 72.2975 75.0046 71.1101 75.0046C68.5287 74.9788 65.9472 74.9529 63.3658 75.0046C59.9584 75.0562 60.7844 74.3076 59.8035 78.1539C63.6756 78.1539 67.4961 78.1539 71.3166 78.1539C72.4782 78.1539 73.4592 78.6186 73.2268 79.8318C73.0978 80.4514 72.0394 80.916 71.3166 81.3032C71.0068 81.4839 70.5422 81.329 70.1549 81.329C66.3861 81.329 62.6172 81.2774 58.8484 81.3549C57.9965 81.3807 57.0414 81.6904 56.3702 82.1809C52.1367 85.2012 47.1029 85.227 42.8694 82.2584C42.0692 81.7163 40.985 81.3807 40.0298 81.3549C36.261 81.2516 32.4921 81.329 28.7232 81.3032C27.4842 81.3032 25.8837 81.5614 25.8579 79.7544C25.8321 77.7925 27.5358 78.1281 28.8265 78.1281C32.3114 78.1023 35.7963 78.1281 39.307 78.1281C38.3003 74.4367 39.2812 75.0304 35.6931 74.9788C33.1117 74.953 30.5302 75.082 27.9746 74.9013C27.226 74.8497 26.0128 74.0495 25.9095 73.4299C25.6772 72.0876 26.813 71.7778 28.0004 71.7778C30.5819 71.8036 33.1633 71.7778 35.7447 71.7778C38.5842 71.8294 38.5842 71.8294 39.2296 68.6543Z" fill="#606060"/>
<path d="M48.813 74.381C49.6133 72.8322 50.3361 71.4382 51.033 70.0442C51.5235 69.0633 52.1689 68.2889 53.3305 68.8568C54.4663 69.3989 54.4147 70.354 53.8984 71.3608C52.9691 73.1677 52.0398 75.0005 51.1621 76.8334C50.4909 78.2015 49.5616 78.4338 48.2709 77.7369C47.5739 77.3496 46.7221 77.1431 46.2058 76.6268C45.6637 76.0589 44.9925 75.1296 45.1216 74.5101C45.3797 73.3226 46.4639 73.2452 47.4965 73.7873C47.8321 73.968 48.1935 74.0971 48.813 74.381Z" fill="#606060"/>
</svg>
