<svg width="100" height="100" viewBox="0 0 100 100" fill="none" xmlns="http://www.w3.org/2000/svg">
<path d="M71.7471 76.7202C65.0161 70.0143 58.4608 63.4339 52.1568 57.1299C51.4787 57.6824 50.6247 58.3857 50.0722 58.8377C56.6776 65.4432 63.2328 72.0235 69.7378 78.5285C70.3406 77.976 71.1192 77.2727 71.7471 76.7202ZM61.7761 47.4101C59.3901 49.7961 57.0544 52.1318 54.9949 54.1913C61.4245 60.621 68.0048 67.2013 74.2838 73.4551C76.4437 71.2952 78.7795 68.9594 80.9646 66.7994C79.3572 65.1669 77.5991 63.3837 75.7907 61.5502C74.7359 62.5549 73.6057 63.5846 72.4754 64.6646C71.5462 65.5436 70.642 65.5436 69.7378 64.6395C67.3016 62.1781 64.8403 59.7419 62.404 57.3057C61.4245 56.3262 61.3994 55.422 62.3789 54.4174C63.4338 53.3374 64.4635 52.1821 65.4179 51.1774C64.0868 49.7961 62.8812 48.5654 61.7761 47.4101ZM71.3452 61.3242C74.761 58.0843 78.2521 54.8694 81.6427 51.529C83.6771 49.5449 85.6361 47.8873 88.8007 47.5356C92.7439 47.1087 95.1801 43.1153 94.728 38.9963C94.3262 35.2038 91.0862 32.215 87.2184 32.0643C83.3255 31.9136 79.4325 34.7517 79.2316 38.5693C79.0809 41.2065 77.7749 42.7385 76.1926 44.371C73.4801 47.1589 70.8178 50.0221 68.1555 52.8351C67.2765 53.7643 66.3974 54.6936 65.6188 55.5224C67.5779 57.5568 69.4113 59.3903 71.3452 61.3242ZM67.7035 48.7412C70.3657 45.9533 72.8522 43.4669 75.1628 40.8297C75.7405 40.1767 75.841 39.0465 76.0168 38.1172C76.9712 33.0689 81.0148 29.3769 86.0882 29.0002C91.1867 28.6235 95.7829 31.6625 97.4154 36.5098C99.6758 43.1906 95.0796 50.3235 88.0723 51.0518C87.4193 51.1272 86.6659 51.2779 86.2138 51.6797C83.5766 54.0909 80.9897 56.5773 78.3525 59.0889C80.1609 60.7465 81.919 62.3539 83.652 63.9362V57.5568H86.7412C86.7914 58.034 86.8668 58.5866 86.8668 59.114C86.8668 70.9184 86.8668 82.7228 86.8919 94.5272C86.8919 96.1849 86.4398 97.0639 84.5813 97.0639C64.1119 97.0388 43.6677 97.0388 23.1983 97.0388C22.8467 97.0388 22.4951 96.9886 22.043 96.9635V93.8994H83.6269V69.5119C83.0492 69.9891 82.6473 70.2905 82.2957 70.6673C78.6288 74.3342 74.9619 78.0011 71.2699 81.668C69.7881 83.1498 69.1853 83.1498 67.7537 81.7182C60.7464 74.736 53.7893 67.7287 46.7569 60.7465C45.5011 59.5159 45.5513 58.5363 46.782 57.3308C51.2024 52.9858 55.5725 48.6156 59.8924 44.2203C61.1231 42.9646 62.1277 42.9897 63.3082 44.2706C64.6896 45.7524 66.1714 47.1589 67.7035 48.7412Z" fill="#606060"/>
<path d="M44.7767 25.6137C45.0279 25.7896 45.7814 26.0407 46.2334 26.5682C46.9618 27.4221 47.4641 27.4974 48.3432 26.7188C48.9208 26.1914 49.8501 25.8398 50.6538 25.7896C51.7087 25.7142 51.985 25.3626 52.0854 24.3328C52.1608 23.5291 52.5375 22.6501 53.0398 22.0222C53.6928 21.2436 53.7179 20.7664 53.0398 19.9878C52.5124 19.385 52.1356 18.4809 52.0854 17.6772C51.985 16.547 51.6836 16.1953 50.5031 16.2958C49.8501 16.346 48.9208 15.9944 48.4939 15.4921C47.5897 14.4121 47.0371 14.5126 46.1581 15.5423C45.7311 16.0195 44.8018 16.346 44.1488 16.2958C42.9433 16.2204 42.6921 16.6474 42.6168 17.7525C42.5665 18.506 42.2652 19.4102 41.7377 19.9125C40.8587 20.7915 40.8587 21.319 41.788 22.1478C42.2903 22.5999 42.6168 23.4789 42.6168 24.157C42.6168 25.4379 42.9935 25.9403 44.7767 25.6137ZM6.22401 27.4221C6.27424 36.1624 13.3067 43.2199 22.0218 43.1948C30.7872 43.1948 37.9201 35.9866 37.8699 27.2212C37.7945 18.506 30.6868 11.5238 21.9214 11.574C13.1811 11.6243 6.1989 18.6818 6.22401 27.4221ZM41.1098 28.4518C38.7238 39.7791 32.5202 45.8068 22.8255 46.3092C14.3113 46.7361 6.47517 41.286 3.88824 33.0983C1.2762 24.8603 4.56637 15.8186 11.9002 11.2726C16.5215 8.40944 21.5195 7.60574 26.8441 8.98711C32.1184 10.3685 35.9611 13.6335 39.0252 18.6316C39.2261 17.652 39.3015 17.2 39.402 16.7479C39.7033 15.1907 40.4819 13.7591 42.0391 13.4577C44.626 12.9554 46.9618 10.0671 49.9255 12.4029C50.0259 12.4782 50.1013 12.6038 50.2268 12.6289C53.8938 13.0056 55.1495 15.7181 56.1542 18.6818C56.2044 18.8576 56.33 19.0083 56.4304 19.159C57.7867 21.9468 54.9486 28.1253 51.9347 28.9039C51.8845 28.929 51.8091 28.929 51.7589 28.9541C47.3134 29.8583 48.519 30.3858 41.1098 28.4518Z" fill="#606060"/>
<path d="M14.1367 49.5742H17.2511V87.3986H77.4034V78.1811H80.5931C80.5931 81.8731 80.6433 85.4898 80.5177 89.1316C80.4926 89.659 79.6136 90.2618 79.0108 90.6636C78.7094 90.8646 78.182 90.7139 77.7299 90.7139C57.5117 90.7139 37.2935 90.7139 17.0753 90.7139C14.3376 90.7139 14.1367 90.4878 14.1367 87.7502V51.5835V49.5742Z" fill="#606060"/>
<path d="M66.5064 16.0899H74.3928C71.7807 13.4779 69.1185 10.8156 66.5064 8.2036V16.0899ZM63.166 5.21482H61.0312C47.1924 5.21482 33.3285 5.21482 19.4897 5.21482C18.5353 5.21482 17.4302 4.81297 17.0283 6.42038C16.9279 6.772 15.3205 6.74688 14.2907 6.92269C14.2154 6.37015 14.14 6.06876 14.14 5.79248C14.0396 2.10046 14.1149 2.02512 17.7567 2.02512C32.9517 2.02512 48.1719 2.05023 63.3669 2C64.8488 2 65.9036 2.42697 66.9585 3.48183C71.0524 7.67617 75.2718 11.77 79.3657 15.9895C80.0438 16.6927 80.521 17.8732 80.5712 18.8778C80.7471 21.6405 80.6215 24.4033 80.6215 27.2414H77.482V19.4555C73.5639 19.4555 69.897 19.4555 66.205 19.4555C63.4172 19.4555 63.1911 19.2043 63.1911 16.3411C63.166 12.7244 63.166 9.08265 63.166 5.21482Z" fill="#606060"/>
<path d="M61.5764 79.5534V82.6427C61.0238 82.6929 60.4964 82.7934 59.969 82.7934C54.0417 82.7934 48.0892 82.8185 42.1619 82.7934C39.8512 82.7934 39.4243 82.3664 39.4243 80.1311C39.4243 76.5395 39.4494 72.948 39.3992 69.3815C39.374 67.6737 40.0019 66.87 41.7852 66.9202C44.6232 66.9955 47.4613 66.9453 50.3999 66.9453V70.135H42.7144V79.5785H61.5764V79.5534Z" fill="#606060"/>
<path d="M42.5416 54.4375H23.6797V57.3007H42.5416V54.4375Z" fill="#606060"/>
<path d="M56.6795 41.7812H37.918V44.6444H56.6795V41.7812Z" fill="#606060"/>
<path d="M58.2889 33.7461H42.7422V36.76H58.2889V33.7461Z" fill="#606060"/>
<path d="M48.8151 48.0898H33.168V50.9782H48.8151V48.0898Z" fill="#606060"/>
<path d="M36.2069 73.3555H23.6992V76.294H36.2069V73.3555Z" fill="#606060"/>
<path d="M36.1382 79.7305C36.5652 82.7946 36.5652 82.7946 33.7774 82.7946C30.5123 82.7946 27.2473 82.7946 23.7562 82.7946C23.7059 81.7648 23.6557 80.8104 23.6055 79.7305H36.1382Z" fill="#606060"/>
<path d="M36.1818 67.0742H23.6992V69.9876H36.1818V67.0742Z" fill="#606060"/>
<path d="M55.2237 73.3555H45.8555V76.294H55.2237V73.3555Z" fill="#606060"/>
<path d="M33.0484 60.7656H23.7305V63.6037H33.0484V60.7656Z" fill="#606060"/>
<path d="M29.8531 48.0625H23.75V50.9759H29.8531V48.0625Z" fill="#606060"/>
<path d="M42.5674 60.7461H36.4141V63.6093H42.5674V60.7461Z" fill="#606060"/>
<path d="M9.64062 31.7422C10.6453 30.838 11.3485 30.2101 12.2778 29.3813C13.3326 30.5618 14.4126 31.7924 15.4675 32.998C20.5158 27.9497 25.2878 23.1526 30.2607 18.1797C30.989 19.109 31.5918 19.8624 32.2951 20.7415C32.1946 20.842 31.9183 21.2438 31.5918 21.5703C26.9203 26.2418 22.2487 30.9385 17.5772 35.61C15.9196 37.2677 15.5177 37.2426 13.7847 35.5849C12.4787 34.3794 11.1727 33.1738 9.64062 31.7422Z" fill="#606060"/>
</svg>
