<svg width="100" height="100" viewBox="0 0 100 100" fill="none" xmlns="http://www.w3.org/2000/svg">
<path d="M49.0646 24.6914H55.021V54.3252H61.2318V58.6918H41.8999V54.3252H48.1319V30.7326L41.8999 35.6504L40.7764 30.4358L49.0646 24.6914ZM40.4161 36.2651C40.522 36.7526 40.8824 37.1554 41.3487 37.3249C41.8151 37.4945 42.345 37.4097 42.7266 37.0918L46.5421 34.0606V52.7142H41.7515C41.3699 52.7142 40.9884 52.8626 40.734 53.1381C40.4585 53.4137 40.3101 53.7741 40.3101 54.1556V58.8402C40.3101 59.2218 40.4585 59.6033 40.734 59.8577C41.0096 60.1332 41.3699 60.2816 41.7727 60.2816H61.4014C61.8041 60.2816 62.1645 60.1332 62.4189 59.8577C62.6944 59.5821 62.8428 59.2218 62.8428 58.819V54.1768C62.8428 53.7953 62.6944 53.4137 62.4189 53.1593C62.1433 52.8838 61.7829 52.7354 61.3802 52.7354H56.6108V24.543C56.6108 24.1614 56.4624 23.7799 56.1869 23.5255C55.9113 23.2499 55.5509 23.1016 55.1482 23.1016H48.9798C48.683 23.1016 48.3862 23.1864 48.1531 23.3559L39.7801 29.164C39.2926 29.5031 39.0594 30.0967 39.1866 30.669L40.4161 36.2651Z" fill="#606060"/>
<path d="M26.0856 60.3037L27.5058 60.113C27.633 60.1978 27.7602 60.3037 27.8662 60.4309C28.163 60.7913 28.2901 61.2788 28.2266 61.7664L27.3787 68.1255C27.2303 69.249 27.4846 70.2453 28.0782 70.9236C28.5021 71.4111 29.0956 71.7291 29.7528 71.8139C30.6006 72.259 31.6605 72.259 32.7416 71.7927L38.6556 69.2702C38.8888 69.1642 39.122 69.1218 39.3339 69.1218C39.6519 69.3126 39.9063 69.6094 40.0334 69.9909L40.097 70.1817L18.603 89.556L18.285 79.9112C18.2638 79.2117 17.7127 78.6182 17.0132 78.5758L6.7113 77.7279L26.0856 60.3037ZM20.4471 56.573C20.0232 56.5306 19.8536 56.4034 19.8324 56.3822C19.8324 56.3822 19.8324 56.361 19.8324 56.3186C19.8536 56.2339 19.896 56.0431 20.0868 55.7675L23.7963 50.5318C23.9659 50.2774 24.1355 50.0019 24.2415 49.7263C24.6018 48.8996 24.7078 47.9881 24.5382 47.0766C24.3051 45.8684 23.5843 44.8297 22.5245 44.1726L17.098 40.7386C16.9284 40.6327 16.8012 40.5267 16.7376 40.4419C16.674 40.3571 16.6528 40.3147 16.6528 40.2935C16.6528 40.2511 16.78 40.0815 17.1616 39.8907L20.108 38.3857L22.8848 36.9655C24.0083 36.3932 24.8138 35.4393 25.1529 34.2523C25.4921 33.1288 25.3649 31.9418 24.8138 30.9031C24.7926 30.8607 24.7714 30.7971 24.729 30.7547L21.5282 25.1798C21.3586 24.9043 21.3374 24.7135 21.3162 24.6287C21.3162 24.6075 21.3162 24.5863 21.3162 24.5651C21.3162 24.5651 21.3374 24.5439 21.3798 24.5227C21.4646 24.4803 21.6342 24.4167 21.9522 24.4167L23.6055 24.4379L28.4385 24.5015C29.668 24.5015 30.8126 24.014 31.6605 23.1449C32.0845 22.6997 32.4024 22.191 32.6144 21.6399C32.6356 21.5975 32.6356 21.5339 32.6568 21.4703C32.8264 20.9616 32.9112 20.4104 32.89 19.8593L32.6356 13.4365C32.6144 13.0126 32.7204 12.8218 32.8052 12.8006C32.8688 12.8006 33.0595 12.8218 33.3775 12.9914L38.0197 15.4927L39.0372 16.0438C39.1008 16.0862 39.1856 16.1074 39.2491 16.1498C39.8639 16.4253 40.521 16.5949 41.1781 16.5949C42.344 16.5949 43.4038 16.1498 44.2093 15.3867C44.6121 15.0051 44.9512 14.56 45.2056 14.03L47.9612 8.22199C48.0248 8.116 48.0672 8.03121 48.1096 7.94642C48.1944 7.81924 48.2792 7.75565 48.3216 7.71325C48.3428 7.69206 48.3428 7.69206 48.364 7.69206C48.3852 7.69206 48.4064 7.71325 48.47 7.73445C48.4912 7.75565 48.5124 7.77685 48.5548 7.79804C48.5972 7.92523 48.6819 8.01002 48.7879 8.17959L51.2256 11.7831L52.3915 13.5001C52.667 13.9241 53.0062 14.2632 53.3877 14.56C54.1509 15.1535 55.1047 15.4927 56.0798 15.4927C56.3766 15.4927 56.6521 15.4503 56.9277 15.4079C57.5848 15.2807 58.2207 15.0051 58.7719 14.6024L60.8704 13.0338L63.9016 10.7657C64.1772 10.5537 64.3679 10.5113 64.4527 10.4901C64.4739 10.4901 64.4951 10.4901 64.4951 10.4901C64.5375 10.5113 64.6647 10.6809 64.7071 11.1048L65.4066 17.4852C65.5126 18.4179 65.8942 19.2658 66.4877 19.9441C66.6997 20.1985 66.954 20.4104 67.2084 20.6012C68.1199 21.2795 69.3069 21.5975 70.5576 21.4067L76.8956 20.3892C77.2559 20.3256 77.5103 20.4104 77.5315 20.4104C77.5315 20.4104 77.5315 20.4316 77.5527 20.4528C77.5739 20.5376 77.5527 20.7284 77.4467 21.0464L75.0938 27.024C75.0302 27.1724 74.9878 27.3208 74.9454 27.4479C74.9454 27.4903 74.9242 27.5115 74.9242 27.5539C74.7122 28.3806 74.7334 29.2285 74.9878 30.034C75.0514 30.2036 75.115 30.3732 75.1786 30.5427C75.2846 30.7547 75.3905 30.9455 75.5389 31.1363C76.0901 31.9418 76.8744 32.5777 77.8282 32.8956L82.3645 34.4218L83.9119 34.9306C84.1874 35.0154 84.3358 35.1214 84.3994 35.1849C84.4418 35.2273 84.463 35.2485 84.463 35.2485C84.463 35.2697 84.4206 35.3757 84.3146 35.5241C84.251 35.6089 84.1874 35.6725 84.0602 35.7785L81.0078 38.4069L79.2061 39.9755C78.2522 40.781 77.701 41.9045 77.6587 43.1551C77.5951 44.3846 78.0402 45.5504 78.9093 46.4619L83.3607 51.1041C83.6575 51.4221 83.6999 51.634 83.6999 51.6552C83.6999 51.6552 83.6787 51.6764 83.6787 51.6976C83.6787 51.6976 83.6787 51.6976 83.6575 51.7188C83.5939 51.7824 83.4243 51.8884 83.1064 51.952L76.8532 53.4146C75.6449 53.6902 74.6274 54.4321 73.9915 55.5132C73.8643 55.7463 73.7372 56.0007 73.6524 56.2339V56.2551C73.5676 56.5094 73.504 56.7638 73.4616 57.0394C72.8893 57.972 72.6137 58.7351 72.8893 59.6042L74.6698 65.7726L68.5438 64.1828C68.2894 64.1193 68.0351 64.0769 67.7807 64.0557C67.6535 64.0345 67.5263 64.0345 67.3992 64.0345C67.166 64.0345 66.9328 64.0557 66.6996 64.0981C66.6573 64.0981 66.5937 64.1193 66.5513 64.1193C66.3605 64.1616 66.1697 64.204 65.9789 64.2676C65.8942 64.2888 65.8306 64.3312 65.7458 64.3524C65.6398 64.3524 65.5338 64.416 65.4066 64.4796C65.2582 64.5432 65.1098 64.628 64.9827 64.734C64.9403 64.7764 64.8979 64.7976 64.8343 64.84C64.6223 64.9883 64.4103 65.1579 64.2196 65.3487C63.2445 66.0058 62.5874 67.0021 62.3542 68.1467L61.2519 73.5521C61.1884 73.8488 61.2307 74.1456 61.3579 74.3999C61.3155 74.3788 61.2519 74.3576 61.2095 74.3152C61.1883 74.3152 61.1883 74.294 61.1672 74.294C61.1036 74.2516 61.0188 74.188 60.9552 74.1244L56.207 69.8001C55.8466 69.4822 55.4439 69.2278 55.0411 69.037C54.4688 68.7827 53.8541 68.6131 53.2182 68.6131C52.4551 68.6131 51.7132 68.8251 51.056 69.1854C50.8229 69.3126 50.6109 69.461 50.4201 69.6306C50.187 69.8213 49.975 70.0333 49.763 70.2665L45.6931 75.2478C45.6295 75.3114 45.5871 75.375 45.5447 75.4174C45.4812 75.481 45.4388 75.5234 45.3752 75.5658C45.3752 75.5658 45.3752 75.5658 45.354 75.587C45.354 75.587 45.354 75.587 45.3328 75.587C45.248 75.6294 45.2056 75.6506 45.1844 75.6718C45.1632 75.6718 45.1632 75.6506 45.142 75.6294C45.0784 75.5658 44.9512 75.4174 44.8452 75.1207L43.3614 71.072C43.743 70.6904 43.8702 70.1181 43.6794 69.6094L43.5734 69.3338C43.1495 68.1467 42.2804 67.2353 41.1357 66.7477C40.7542 66.5781 40.3514 66.4722 39.9487 66.4298C39.7155 66.345 39.4823 66.2814 39.2491 66.239H39.228C38.9736 66.1966 38.7192 66.1754 38.4648 66.1754C38.1681 66.1754 37.8713 66.2178 37.5746 66.2602C37.2778 66.3238 36.981 66.4086 36.7055 66.5357L31.0246 68.9522C31.0246 68.8886 31.0246 68.8463 31.0458 68.7827L31.8937 62.4235C32.0633 61.1728 31.7241 59.9646 30.9398 58.9895C30.2191 58.0992 29.2016 57.5481 28.057 57.3785C27.9086 57.3149 27.739 57.2725 27.5906 57.2301C27.3575 57.1665 27.1455 57.1241 26.8911 57.103L24.729 56.9334L20.4471 56.573ZM76.726 68.2951C76.8108 68.2103 76.8955 68.1044 76.9803 67.9984C77.2135 67.8288 77.4255 67.638 77.6163 67.426C78.2098 66.6417 78.3582 65.5395 78.019 64.3736L77.4467 62.3811L92.7299 79.3389L82.1313 80.314C81.4742 80.3776 80.9442 80.8863 80.8806 81.5434L79.7996 90.7643L64.5799 73.8912L65.767 68.1043C65.8094 67.8924 65.8941 67.7016 66.0001 67.532C66.3817 67.3412 66.8056 67.2777 67.2296 67.3836L73.4404 68.9946C74.7334 69.355 75.9417 69.1006 76.726 68.2951ZM2.06909 79.3389C2.23867 79.8688 2.7262 80.2292 3.27733 80.2716L15.5718 81.2679L15.9533 92.672C15.9745 93.2231 16.3137 93.6895 16.8012 93.9015C16.9708 93.9862 17.1616 94.0074 17.3523 94.0074C17.6915 94.0074 18.0307 93.8803 18.285 93.6471L41.1569 73.0221L42.2592 76.0321C42.7891 77.4947 43.8702 78.3638 45.1632 78.3638C46.1171 78.3638 47.0498 77.8551 47.7917 76.9648L51.8615 72.0047C52.2007 71.5807 52.6882 71.3475 53.197 71.3475C53.4937 71.3475 53.9389 71.4323 54.3628 71.8139L59.111 76.1381C59.8529 76.8164 60.6796 77.1768 61.5063 77.1768C62.0574 77.1768 62.6934 77.0072 63.2021 76.5833L79.7572 94.9189C80.0328 95.2157 80.4143 95.3853 80.7959 95.3853C80.9442 95.3853 81.0714 95.3641 81.2198 95.3217C81.7497 95.1521 82.1101 94.707 82.1737 94.1558L83.4879 82.9849L95.74 81.8614C96.2699 81.819 96.715 81.4798 96.9058 80.9711C97.0966 80.4836 96.9906 79.9324 96.6514 79.5297L76.3232 56.9758C76.3444 56.9334 76.3656 56.8698 76.3868 56.8274C76.62 56.4246 77.0227 56.1279 77.5103 56.0219L83.7635 54.5593C85.0989 54.2413 86.0316 53.457 86.3495 52.3972C86.6675 51.3373 86.3072 50.1502 85.3533 49.1752L80.9018 44.533C80.5627 44.1726 80.3931 43.7275 80.4143 43.2399C80.4355 42.7736 80.6475 42.3284 81.029 42.0105L85.8832 37.8134C86.9219 36.9231 87.3882 35.7997 87.1762 34.6974C86.9643 33.6163 86.0952 32.7473 84.8021 32.3021L78.7185 30.2672C78.2522 30.1188 77.8706 29.7796 77.6799 29.3557C77.4891 28.9317 77.4679 28.4442 77.6587 27.9779L80.0116 22.0002C80.4779 20.8132 80.4143 19.6897 79.842 18.8206C79.1637 17.8456 78.019 17.3792 76.4928 17.6336L70.1548 18.6511C69.1373 18.8206 68.2471 18.1211 68.1411 17.1249L67.4415 10.7445C67.2084 8.64593 65.8094 7.69206 64.5163 7.69206C63.7744 7.69206 63.0113 7.96762 62.3118 8.51875L57.1821 12.3767C56.3978 12.9702 55.2531 12.7794 54.6808 11.9527L51.0984 6.63219C50.3353 5.59352 49.3603 5 48.3216 5C47.1345 5 46.0959 5.7631 45.46 7.07733L42.7043 12.8854C42.2804 13.7757 41.1781 14.136 40.309 13.6697L34.6493 10.6173C33.2079 9.83298 31.6817 9.98136 30.7702 10.9352C30.3463 11.3804 29.8375 12.2071 29.9011 13.5849L30.1555 20.0077C30.1767 20.4952 30.0071 20.9404 29.6892 21.3007C29.3712 21.6399 28.9049 21.8307 28.3961 21.8307L21.9098 21.7459C20.5743 21.7459 19.4933 22.297 18.9421 23.2297C18.391 24.1836 18.4546 25.413 19.1329 26.5788L22.3337 32.1537C22.5881 32.5777 22.6305 33.0652 22.5033 33.5104C22.3761 33.9767 22.0581 34.3371 21.613 34.5702L15.8897 37.4743C14.6815 38.089 13.9608 39.0853 13.8972 40.1875C13.8548 41.2898 14.4695 42.3496 15.6354 43.0703L21.0619 46.5043C21.4646 46.7587 21.7614 47.1614 21.8462 47.6278C21.931 48.0941 21.825 48.5816 21.5494 48.9844L17.8399 54.2201C17.0556 55.3224 16.8648 56.5518 17.3523 57.5481C17.8187 58.5444 18.8573 59.1803 20.214 59.3075L22.8 59.5194L2.45064 77.8763C2.04789 78.2155 1.89951 78.809 2.06909 79.3389Z" fill="#606060"/>
</svg>
