<svg width="100" height="100" viewBox="0 0 100 100" fill="none" xmlns="http://www.w3.org/2000/svg">
<path d="M97.0593 72.9371H81.1693H19.6034H3.69287V27.6929H19.5828H81.1487H97.0387V72.9371H97.0593ZM81.1693 25H19.6034H3.69287C2.19226 25 1 26.2128 1 27.6929V72.9371C1 74.4377 2.21282 75.63 3.69287 75.63H19.5828H81.1487H97.0387C98.5393 75.63 99.7316 74.4172 99.7316 72.9371V27.6929C99.7316 26.1923 98.5188 25 97.0387 25H81.1693Z" fill="#606060"/>
<path d="M90.3803 44.4642V56.1813C85.714 57.2296 82.0345 60.9092 80.9861 65.5755H67.5012H61.9099C65.7539 61.8137 68.0562 56.3046 68.0562 50.3227C68.0562 44.3409 65.7539 38.8318 61.9099 35.07H67.5012H80.9861C82.0345 39.7363 85.714 43.4159 90.3803 44.4642ZM56.6064 67.6516C52.639 69.5428 48.1167 69.5428 44.1493 67.6516C38.0236 64.7327 34.0562 57.9286 34.0562 50.3022C34.0562 42.6758 38.0236 35.8717 44.1493 32.9733C46.1433 32.0277 48.24 31.5549 50.3779 31.5549C52.5363 31.5549 54.633 32.0277 56.6064 32.9733C62.7322 35.8923 66.6995 42.6964 66.6995 50.3022C66.6995 57.9286 62.7322 64.7532 56.6064 67.6516ZM33.2751 65.5755H19.7902C18.7418 60.9092 15.0623 57.2296 10.396 56.1813V44.4642C15.0623 43.4159 18.7418 39.7363 19.7902 35.07H33.2751H38.8664C35.0224 38.8318 32.7201 44.3409 32.7201 50.3227C32.7201 56.3046 35.0224 61.8137 38.8664 65.5755H33.2751ZM67.5012 32.3772H58.3537C57.9837 32.151 57.5931 31.9455 57.2025 31.7605C52.8652 29.7048 47.9111 29.7048 43.5737 31.7605C43.1832 31.9455 42.7926 32.151 42.4226 32.3772H33.2751H19.6052H17.3851C17.3851 37.7218 13.0477 42.0591 7.70312 42.0591V58.5864C13.0477 58.5864 17.3851 62.9237 17.3851 68.2683H19.6052H33.2751H42.4226C42.7926 68.4945 43.1832 68.7 43.5737 68.885C45.7527 69.9128 48.0344 70.4473 50.3779 70.4473C52.7213 70.4473 55.0236 69.9334 57.182 68.885C57.5725 68.7 57.9631 68.4945 58.3331 68.2683H67.4806H81.1505H83.3706C83.3706 62.9237 87.708 58.5864 93.0526 58.5864V42.0591C87.708 42.0591 83.3706 37.7218 83.3706 32.3772H81.1505H67.5012Z" fill="#606060"/>
<path d="M55.273 58.2858C54.4713 59.2108 53.3407 59.8686 52.0251 60.177C51.7167 60.2592 51.5112 60.5264 51.5112 60.8348V63.651H49.2705V61.0198C49.2705 60.6703 49.0033 60.3825 48.6539 60.3414C47.9549 60.2797 47.2766 60.1564 46.5982 59.9508C45.7143 59.6836 44.9537 59.3547 44.3782 58.9436L44.3165 58.9025L45.1593 56.5385L45.2621 56.6002C46.5366 57.4635 48.2633 57.9774 49.8461 57.9774H49.8667C50.9356 57.9774 51.9017 57.6691 52.5801 57.1141C53.2379 56.5385 53.5874 55.819 53.5874 54.9351C53.5874 54.5034 53.5051 54.1129 53.3612 53.7634C53.2173 53.414 52.9912 53.0851 52.6829 52.7973C52.1279 52.2422 51.2234 51.6872 49.99 51.1939C48.6127 50.6594 47.626 50.1455 46.8449 49.5905C45.961 48.9532 45.3443 48.2543 44.9948 47.4321C44.7482 46.8565 44.6248 46.2193 44.6248 45.5204C44.6248 44.2048 45.0976 42.9508 45.9815 42.0258C46.7421 41.2241 47.7699 40.6485 48.9828 40.3402C49.2911 40.2785 49.4967 39.9907 49.4967 39.6824V36.9484H51.6962V39.4563C51.6962 39.8057 51.9634 40.0935 52.3129 40.1346C53.6285 40.258 54.8207 40.628 55.8485 41.2241L55.9308 41.2652L55.0468 43.5881L54.9441 43.5264C54.5329 43.3003 54.0807 43.0536 53.4435 42.8481C52.6418 42.5808 51.8195 42.4575 50.915 42.4575C49.805 42.4575 48.9416 42.7453 48.3455 43.3414C47.8727 43.8142 47.6055 44.4514 47.6055 45.1298C47.6055 45.5409 47.6672 45.8904 47.8316 46.1987C47.9755 46.5071 48.2016 46.7948 48.51 47.0621C49.0855 47.5554 50.0106 48.0693 51.5317 48.686C52.8679 49.2205 53.834 49.7755 54.5946 50.4127C55.3963 51.0705 55.9513 51.8311 56.2597 52.715C56.4652 53.2906 56.5886 53.969 56.5886 54.6884C56.6091 56.0452 56.1363 57.3196 55.273 58.2858ZM55.458 49.4055C54.5946 48.686 53.5051 48.0693 52.0456 47.4732C50.7095 46.9182 49.8461 46.4659 49.3939 46.0754C49.1678 45.8698 49.0855 45.7465 49.0444 45.6437C49.0033 45.5409 48.9622 45.4176 48.9622 45.1503C48.9622 44.9653 49.0033 44.5953 49.2911 44.3075C49.62 43.9786 50.175 43.8142 50.915 43.8142C51.6551 43.8142 52.354 43.917 53.0118 44.1431C53.5257 44.3075 53.9163 44.5131 54.2657 44.7187L55.0468 45.1709C55.2113 45.2737 55.4169 45.2942 55.6019 45.212C55.7869 45.1503 55.9308 45.0065 56.013 44.8214L57.3697 41.2241C57.493 40.9158 57.3697 40.5663 57.0819 40.4019L56.5269 40.073C55.4991 39.4768 54.3274 39.0657 53.0529 38.8807V36.3112C53.0529 35.9412 52.7445 35.6328 52.3745 35.6328H48.8183C48.4483 35.6328 48.14 35.9412 48.14 36.3112V39.2096C46.886 39.6002 45.7965 40.258 44.9743 41.1419C43.8643 42.3136 43.2476 43.8964 43.2476 45.5615C43.2476 46.4454 43.412 47.2676 43.7409 48.0282C44.1932 49.056 44.9743 49.9811 46.0432 50.7416C46.9066 51.3583 48.0166 51.9133 49.4761 52.5095C50.7711 53.0439 51.4084 53.4962 51.6962 53.8045C51.8812 53.9895 52.0045 54.154 52.0867 54.3595C52.169 54.5445 52.2101 54.7707 52.2101 54.9968C52.2101 55.4696 52.0251 55.8601 51.6756 56.1479C51.2439 56.4974 50.5861 56.703 49.8256 56.703H49.805C48.4688 56.703 47.0505 56.2713 45.9815 55.5518L45.1593 54.9968C44.9948 54.8734 44.7687 54.8529 44.5837 54.9146C44.3782 54.9762 44.2343 55.1407 44.152 55.3257L42.8364 58.9847C42.7337 59.2725 42.8364 59.5808 43.0831 59.7658L43.5559 60.1153C44.2548 60.6086 45.1387 61.0198 46.1871 61.3281C46.7421 61.4926 47.3177 61.6159 47.8933 61.6981V64.391C47.8933 64.761 48.2016 65.0693 48.5716 65.0693H52.169C52.539 65.0693 52.8473 64.761 52.8473 64.391V61.4103C54.2246 60.9786 55.3963 60.2386 56.2802 59.2314C57.3491 57.998 57.9453 56.4357 57.9453 54.7912C57.9453 53.9073 57.8014 53.0851 57.5547 52.3656C57.1641 51.1939 56.4447 50.2277 55.458 49.4055Z" fill="#606060"/>
</svg>
