<svg width="100" height="100" viewBox="0 0 100 100" fill="none" xmlns="http://www.w3.org/2000/svg">
<path d="M42.0892 85.1135C42.3009 85.7134 42.6538 86.2251 43.0596 86.6662C43.8183 87.425 44.8594 87.9014 46.0063 87.9014H52.9584C54.1053 87.9014 55.1464 87.4426 55.9051 86.6662C56.3286 86.2251 56.6638 85.7134 56.8756 85.1135H42.0892ZM59.8046 85.1135C59.5223 86.4721 58.8518 87.6896 57.8813 88.6425C56.6285 89.9129 54.8817 90.6716 52.976 90.6716H46.024C44.1007 90.6716 42.3715 89.9129 41.101 88.6425C40.1659 87.6896 39.4954 86.4721 39.1954 85.1135H4.77025V89.2953C4.77025 90.4422 5.24666 91.4833 6.00539 92.242C6.76412 92.9831 7.80516 93.4595 8.95208 93.4595H90.0479C91.1772 93.4595 92.2359 92.9831 92.977 92.242C93.7357 91.4833 94.2121 90.4422 94.2121 89.2953V85.1135H59.8046ZM35.1018 76.7498H63.9159C63.5983 73.3267 62.0632 70.2389 59.734 67.9097C57.1049 65.2983 53.5054 63.675 49.5 63.675C45.5123 63.675 41.8951 65.2983 39.2836 67.9097C36.9545 70.2389 35.4194 73.3091 35.1018 76.7498ZM56.4521 38.1605V51.7823L59.24 49.1709C59.6811 48.7474 60.334 48.6592 60.8809 48.9768L68.9799 53.6527C69.5622 53.9173 69.8798 54.5702 69.721 55.2054L67.6566 64.0632C68.2918 64.8925 68.8564 65.7571 69.4034 66.6569C69.9151 67.5568 70.3739 68.4744 70.7797 69.4625L79.3904 72.0739C80.008 72.2151 80.4668 72.7621 80.4668 73.4149V76.7498H83.1135V38.1605H56.4521ZM43.042 56.0877C42.989 56.0347 42.9538 55.9994 42.9008 55.9465L38.6131 51.9058L32.208 55.6113L34.2019 64.0984C34.2901 64.5396 34.1843 64.9807 33.9196 65.2983C33.2138 66.1629 32.5786 67.0804 31.9963 68.0509C31.4316 69.0037 30.9552 70.0271 30.5847 71.0858C30.4259 71.5093 30.073 71.8093 29.6848 71.9328L21.3211 74.4383V76.7322H32.2962C32.6139 72.515 34.4666 68.739 37.2897 65.9159C40.4129 62.8104 44.7182 60.8694 49.4824 60.8694C54.2465 60.8694 58.5695 62.8104 61.6926 65.9159C64.5158 68.739 66.3509 72.5327 66.6685 76.7322H77.6436V74.4383L69.3152 71.9328C68.8564 71.7916 68.5035 71.4387 68.38 70.9976C67.9918 69.9742 67.5331 69.0037 67.0037 68.0685C66.4214 67.0981 65.8039 66.1629 65.0628 65.3159C64.7805 64.963 64.6922 64.5043 64.7981 64.0808L66.792 55.6113L60.3869 51.9058L56.0992 55.9465C56.0639 55.9818 56.011 56.0171 55.958 56.0877L54.0171 57.8874C53.6995 58.1874 53.2584 58.3109 52.8525 58.258C52.3232 58.1698 51.7585 58.0815 51.1763 58.0463C50.6116 57.9933 50.0646 57.9757 49.4824 57.9757C48.9001 57.9757 48.3531 57.9933 47.8061 58.0463C47.2238 58.0815 46.6768 58.1698 46.1298 58.258C45.6711 58.3109 45.2299 58.1698 44.93 57.8698L43.042 56.0877ZM42.5303 38.1605H15.9042V76.7498H18.5509V73.4149C18.5509 72.815 18.9567 72.268 19.5567 72.0916L28.2379 69.4625C28.6438 68.492 29.1025 67.5568 29.6142 66.6569C30.1259 65.7571 30.7259 64.8925 31.3611 64.0632L29.279 55.2054C29.1378 54.6231 29.4201 54.0232 29.9495 53.688L38.0485 49.0121C38.5602 48.6592 39.3013 48.7121 39.7777 49.1709L42.5303 51.7823V38.1605ZM42.5303 32.5847H14.5102C13.3809 32.5847 12.3223 33.0611 11.5812 33.8198C10.8224 34.5786 10.3637 35.6196 10.3637 36.7665V82.3256H88.6716V36.7665C88.6716 35.6196 88.1952 34.5786 87.4365 33.8198C86.6778 33.0788 85.6367 32.5847 84.4898 32.5847H56.4521V35.3726H84.4721V35.3902C84.7368 35.3902 85.0015 35.4608 85.2309 35.6196C85.6191 35.8666 85.8661 36.2901 85.8661 36.7842V78.1438C85.8661 78.9025 85.2309 79.5201 84.4721 79.5201H14.5102C13.7515 79.5201 13.1339 78.9025 13.1339 78.1438V36.7842C13.1339 36.5195 13.2045 36.2548 13.3633 36.0254C13.6103 35.6373 14.0338 35.3726 14.5279 35.3726H42.5303V32.5847ZM74.6263 7.6172C74.1322 7.12314 73.4441 6.80554 72.6677 6.80554C71.909 6.80554 71.1856 7.1055 70.6915 7.6172C70.1974 8.11126 69.8622 8.81705 69.8622 9.59343C69.8622 10.3522 70.1798 11.0579 70.6915 11.5697C71.1856 12.0637 71.8914 12.3813 72.6677 12.3813C73.4265 12.3813 74.1322 12.0814 74.6263 11.5697C75.138 11.0579 75.4556 10.3698 75.4556 9.59343C75.438 8.81705 75.138 8.11126 74.6263 7.6172ZM51.4586 10.7403C50.9645 10.2463 50.2587 9.92868 49.4824 9.92868C48.7236 9.92868 48.0178 10.2286 47.5238 10.7403C47.0121 11.2344 46.7121 11.9402 46.7121 12.6989C46.7121 13.4577 47.0121 14.1634 47.5414 14.6575C48.0355 15.1692 48.7236 15.4868 49.5 15.4868C50.2587 15.4868 50.9822 15.1868 51.4762 14.6575C51.9703 14.1634 52.3055 13.4753 52.3055 12.6989C52.2879 11.9402 51.9703 11.2344 51.4586 10.7403ZM28.3085 7.6172C27.8145 7.12314 27.1087 6.80554 26.3323 6.80554C25.5735 6.80554 24.8678 7.1055 24.3561 7.6172C23.862 8.11126 23.5444 8.81705 23.5444 9.59343C23.5444 10.3522 23.8444 11.0579 24.3561 11.5697C24.8678 12.0637 25.5559 12.3813 26.3323 12.3813C27.091 12.3813 27.8145 12.0814 28.3085 11.5697C28.8026 11.0579 29.1202 10.3698 29.1202 9.59343C29.1202 8.81705 28.8026 8.11126 28.3085 7.6172ZM8.95208 96.2474C7.02879 96.2474 5.28195 95.4534 4.04681 94.2006C2.77637 92.9302 2 91.201 2 89.2953V83.7195C2 82.9608 2.63522 82.3432 3.39394 82.3432H7.55814V36.7665C7.55814 34.8432 8.35215 33.114 9.60494 31.8613C10.8754 30.5908 12.6222 29.8144 14.5102 29.8144H42.5303V27.0442H26.3323C25.5735 27.0442 24.9383 26.409 24.9383 25.6503V14.9928C23.9855 14.7281 23.1033 14.1987 22.3975 13.5106C21.3741 12.5048 20.7741 11.1109 20.7741 9.57578C20.7741 8.04068 21.3917 6.64673 22.3975 5.62333C23.4032 4.61757 24.7972 4 26.3323 4C27.8674 4 29.2613 4.63522 30.2671 5.62333C31.2905 6.64673 31.8904 8.04068 31.8904 9.57578C31.8904 11.1109 31.2728 12.5048 30.2671 13.5106C29.5789 14.1987 28.7143 14.7104 27.7439 14.9751V24.2563H43.9419C44.7006 24.2563 45.3182 24.8739 45.3182 25.6326V54.4114L46.3945 55.4172C46.8003 55.3642 47.2062 55.3113 47.5944 55.276C47.7708 55.2584 47.9473 55.2584 48.1061 55.2407V18.0983C47.1356 17.8512 46.2533 17.3395 45.5652 16.6337C44.5418 15.628 43.9419 14.234 43.9419 12.6989C43.9419 11.1638 44.5594 9.76987 45.5652 8.74647C46.5709 7.75836 47.9649 7.12314 49.5 7.12314C51.0351 7.12314 52.429 7.75836 53.4524 8.74647C54.4582 9.76987 55.0758 11.1638 55.0758 12.6989C55.0758 14.234 54.4406 15.628 53.4524 16.6337C52.7643 17.3219 51.8821 17.8336 50.9116 18.0983V55.2231C51.088 55.2407 51.2645 55.2407 51.4233 55.2584C51.8291 55.2936 52.235 55.3289 52.6231 55.3995L53.6818 54.3938V25.6326C53.6818 24.8739 54.3171 24.2563 55.0758 24.2563H71.2738V14.9751C70.3033 14.7281 69.4387 14.2164 68.7153 13.5106C67.7272 12.5048 67.0919 11.1109 67.0919 9.57578C67.0919 8.04068 67.7272 6.64673 68.7153 5.62333C69.7387 4.61757 71.115 4 72.6677 4C74.2028 4 75.5791 4.63522 76.6025 5.62333C77.6259 6.64673 78.2259 8.04068 78.2259 9.57578C78.2259 11.1109 77.6083 12.5048 76.6025 13.5106C75.9144 14.1987 75.0321 14.7104 74.044 14.9751V25.6326C74.044 26.3913 73.4265 27.0266 72.6677 27.0266H56.4521V29.7968H84.4721C86.3954 29.7968 88.1246 30.5908 89.3951 31.8436C90.6479 33.0964 91.4242 34.8256 91.4242 36.7489V82.308H95.6061C96.3648 82.308 97 82.9255 97 83.6843V89.26C97 91.1833 96.2236 92.8949 94.9532 94.1653C93.6828 95.4357 91.9536 96.2121 90.0479 96.2121H8.95208V96.2474Z" fill="#961E2E"/>
</svg>
