<svg width="100" height="100" viewBox="0 0 100 100" fill="none" xmlns="http://www.w3.org/2000/svg">
<path d="M49.7006 70.7371C43.5502 70.7371 38.5508 65.7377 38.5508 59.5873C38.5508 53.4369 43.5502 48.4375 49.7006 48.4375C55.851 48.4375 60.8504 53.4369 60.8504 59.5873C60.8504 65.7377 55.851 70.7371 49.7006 70.7371ZM49.7006 51.2609C45.1148 51.2609 41.3742 55.0015 41.3742 59.5873C41.3742 64.1731 45.1148 67.9137 49.7006 67.9137C54.2864 67.9137 58.027 64.1731 58.027 59.5873C58.027 55.0015 54.2864 51.2609 49.7006 51.2609Z" fill="#961E2E"/>
<path d="M63.582 96.4702C62.8267 96.4702 62.1973 95.8767 62.1613 95.1214L61.6578 84.7989C61.6218 84.0256 62.2153 83.3602 63.0066 83.3062C63.7978 83.2703 64.4452 83.8637 64.4992 84.655L65.0027 94.9776C65.0387 95.7508 64.4452 96.4162 63.654 96.4702C63.618 96.4702 63.6 96.4702 63.582 96.4702Z" fill="#961E2E"/>
<path d="M69.7563 96.471C68.965 96.471 68.3356 95.8415 68.3356 95.0503V80.2138C68.3356 77.3724 66.4833 74.8547 63.6059 73.8297L53.9128 70.3229C53.1755 70.0531 52.7978 69.2439 53.0676 68.5065C53.3373 67.7692 54.1466 67.3916 54.8839 67.6613L64.577 71.1681C68.5154 72.5888 71.177 76.2395 71.177 80.2318V95.0682C71.177 95.8415 70.5476 96.471 69.7563 96.471Z" fill="#961E2E"/>
<path d="M36.5394 96.4702C36.5214 96.4702 36.4854 96.4702 36.4675 96.4702C35.6942 96.4342 35.0827 95.7688 35.1187 94.9775L35.6222 84.655C35.6582 83.8817 36.3236 83.2702 37.1149 83.3062C37.8882 83.3422 38.4996 84.0076 38.4636 84.7988L37.9601 95.1214C37.9241 95.8947 37.2947 96.4702 36.5394 96.4702Z" fill="#961E2E"/>
<path d="M29.9402 96.4694C29.149 96.4694 28.5195 95.84 28.5195 95.0487V80.2123C28.5195 76.2199 31.1631 72.5873 35.1195 71.1486L44.8126 67.6418C45.5499 67.372 46.3592 67.7497 46.629 68.487C46.8987 69.2243 46.5211 70.0336 45.7837 70.3034L36.0906 73.8101C33.2132 74.8532 31.3609 77.3529 31.3609 80.1943V95.0307C31.3429 95.84 30.7135 96.4694 29.9402 96.4694Z" fill="#961E2E"/>
<path d="M49.5613 78.0028C48.7701 78.0028 48.1406 77.3734 48.1406 76.5821V76.0066C48.1406 75.2333 48.7701 74.5859 49.5613 74.5859C50.3526 74.5859 50.982 75.2154 50.982 76.0066V76.5821C50.982 77.3734 50.3346 78.0028 49.5613 78.0028Z" fill="#961E2E"/>
<path d="M49.5613 96.4709C48.7701 96.4709 48.1406 95.8415 48.1406 95.0502V81.9402C48.1406 81.1669 48.7701 80.5195 49.5613 80.5195C50.3526 80.5195 50.982 81.149 50.982 81.9402V95.0502C50.982 95.8415 50.3346 96.4709 49.5613 96.4709Z" fill="#961E2E"/>
<path d="M33.2663 68.1628C32.475 68.1628 31.8456 67.5334 31.8456 66.7421V40.7199C31.8456 40.0186 31.2881 39.4611 30.5868 39.4611H16.5056L16.4877 45.7913C16.4877 46.3668 16.146 46.8883 15.6065 47.1041C15.067 47.3199 14.4735 47.194 14.0599 46.7984L3.41362 36.0982C3.14387 35.8284 3 35.4687 3 35.0911C3 34.7134 3.14387 34.3537 3.41362 34.084L14.1138 23.4377C14.5275 23.0241 15.1209 22.9162 15.6604 23.132C16.1819 23.3478 16.5236 23.8693 16.5236 24.4448L16.5056 30.5772H31.7017C36.881 30.5772 41.0712 34.7854 41.0712 39.9646V48.0572C41.0712 48.8305 40.4417 49.4779 39.6505 49.4779C38.8592 49.4779 38.2298 48.8485 38.2298 48.0572V39.9646C38.2298 36.3499 35.2985 33.4186 31.6838 33.4186H15.1029C14.7253 33.4186 14.3656 33.2747 14.0958 33.005C13.8261 32.7352 13.6822 32.3756 13.6822 31.9979L13.7002 27.8617L6.43486 35.0911L13.6822 42.3564L13.7002 38.0224C13.7002 37.2491 14.3296 36.6017 15.1209 36.6017H30.6047C32.8527 36.6017 34.705 38.436 34.705 40.7019V66.7241C34.687 67.5334 34.0396 68.1628 33.2663 68.1628Z" fill="#961E2E"/>
<path d="M66.7525 68.1644C65.9613 68.1644 65.3318 67.5349 65.3318 66.7437V40.7215C65.3318 38.4735 67.1662 36.6212 69.4321 36.6212H84.9159C85.6892 36.6212 86.3366 37.2506 86.3366 38.0419L86.3546 42.376L93.602 35.1106L86.3366 27.8812L86.3546 32.0174C86.3546 32.3951 86.2107 32.7548 85.941 33.0245C85.6712 33.2943 85.3115 33.4381 84.9339 33.4381H68.3171C64.7024 33.4381 61.7711 36.3695 61.7711 39.9841V48.0767C61.7711 48.85 61.1417 49.4974 60.3504 49.4974C59.5771 49.4974 58.9297 48.868 58.9297 48.0767V39.9841C58.9297 34.8049 63.1378 30.5967 68.2991 30.5967H83.4952L83.4772 24.4643C83.4772 23.8889 83.8189 23.3673 84.3404 23.1515C84.862 22.9357 85.4734 23.0436 85.887 23.4573L96.5872 34.1035C96.857 34.3733 97.0009 34.7329 97.0009 35.1106C97.0009 35.4883 96.857 35.8479 96.5872 36.1177L85.941 46.8179C85.5274 47.2315 84.9339 47.3394 84.3944 47.1236C83.8549 46.9078 83.5132 46.3863 83.5132 45.8108L83.4952 39.4806H69.4141C68.7127 39.4806 68.1552 40.0381 68.1552 40.7395V66.7616C68.1732 67.5349 67.5258 68.1644 66.7525 68.1644Z" fill="#961E2E"/>
<path d="M52.7802 46.9447C51.9889 46.9447 51.3595 46.3153 51.3595 45.524V16.067C51.3595 15.2937 51.9889 14.6463 52.7802 14.6463L57.1142 14.6283L49.8489 7.38091L42.6195 14.6463L46.7557 14.6283C47.1334 14.6283 47.493 14.7721 47.7628 15.0419C48.0325 15.3117 48.1764 15.6713 48.1764 16.049V45.506C48.1764 46.2793 47.547 46.9267 46.7557 46.9267C45.9644 46.9267 45.335 46.2973 45.335 45.506V17.5056L39.2026 17.5236C38.6272 17.5236 38.1236 17.1819 37.8898 16.6604C37.674 16.1389 37.7819 15.5275 38.1955 15.1138L48.8418 4.41362C49.1116 4.14387 49.4712 4 49.8489 4C50.2265 4 50.5862 4.14387 50.856 4.41362L61.5562 15.0599C61.9698 15.4555 62.0777 16.067 61.8619 16.6065C61.6461 17.128 61.1246 17.4877 60.5491 17.4877L54.2189 17.5056V45.56C54.1829 46.3153 53.5535 46.9447 52.7802 46.9447Z" fill="#961E2E"/>
</svg>
