<svg width="100" height="100" viewBox="0 0 100 100" fill="none" xmlns="http://www.w3.org/2000/svg">
<path d="M81.1478 29.7946H4.45306C3.65137 29.7946 3 29.1432 3 28.3582C3 27.5565 3.65137 26.9219 4.45306 26.9219H81.1478C81.9495 26.9219 82.5842 27.5732 82.5842 28.3582C82.6009 29.1599 81.9495 29.7946 81.1478 29.7946Z" fill="#961E2E"/>
<path d="M14.6918 59.8407C11.7857 59.8407 9.41406 57.4691 9.41406 54.5629C9.41406 51.6568 11.7857 49.2852 14.6918 49.2852C17.598 49.2852 19.9696 51.6568 19.9696 54.5629C19.9696 57.4691 17.598 59.8407 14.6918 59.8407ZM14.6918 52.1746C13.3724 52.1746 12.3035 53.2435 12.3035 54.5629C12.3035 55.8824 13.3724 56.9513 14.6918 56.9513C16.0113 56.9513 17.0802 55.8824 17.0802 54.5629C17.0802 53.2435 16.0113 52.1746 14.6918 52.1746Z" fill="#961E2E"/>
<path d="M14.6918 72.8681C11.7857 72.8681 9.41406 70.4964 9.41406 67.5903C9.41406 64.6842 11.7857 62.3125 14.6918 62.3125C17.598 62.3125 19.9696 64.6842 19.9696 67.5903C19.9696 70.5131 17.598 72.8681 14.6918 72.8681ZM14.6918 65.2019C13.3724 65.2019 12.3035 66.2708 12.3035 67.5903C12.3035 68.9097 13.3724 69.9786 14.6918 69.9786C16.0113 69.9786 17.0802 68.9097 17.0802 67.5903C17.0802 66.2708 16.0113 65.2019 14.6918 65.2019Z" fill="#961E2E"/>
<path d="M28.5668 59.8407C25.6607 59.8407 23.2891 57.4691 23.2891 54.5629C23.2891 51.6568 25.6607 49.2852 28.5668 49.2852C31.473 49.2852 33.8446 51.6568 33.8446 54.5629C33.8446 57.4691 31.473 59.8407 28.5668 59.8407ZM28.5668 52.1746C27.2474 52.1746 26.1785 53.2435 26.1785 54.5629C26.1785 55.8824 27.2474 56.9513 28.5668 56.9513C29.8863 56.9513 30.9552 55.8824 30.9552 54.5629C30.9552 53.2435 29.8863 52.1746 28.5668 52.1746Z" fill="#961E2E"/>
<path d="M28.5668 72.8681C25.6607 72.8681 23.2891 70.4964 23.2891 67.5903C23.2891 64.6842 25.6607 62.3125 28.5668 62.3125C31.473 62.3125 33.8446 64.6842 33.8446 67.5903C33.8446 70.5131 31.473 72.8681 28.5668 72.8681ZM28.5668 65.2019C27.2474 65.2019 26.1785 66.2708 26.1785 67.5903C26.1785 68.9097 27.2474 69.9786 28.5668 69.9786C29.8863 69.9786 30.9552 68.9097 30.9552 67.5903C30.9552 66.2708 29.8863 65.2019 28.5668 65.2019Z" fill="#961E2E"/>
<path d="M42.4497 46.7977C39.5435 46.7977 37.1719 44.4261 37.1719 41.52C37.1719 38.6138 39.5435 36.2422 42.4497 36.2422C45.3558 36.2422 47.7274 38.6138 47.7274 41.52C47.7274 44.4261 45.3558 46.7977 42.4497 46.7977ZM42.4497 39.1316C41.1302 39.1316 40.0613 40.2005 40.0613 41.52C40.0613 42.8394 41.1302 43.9083 42.4497 43.9083C43.7691 43.9083 44.838 42.8394 44.838 41.52C44.838 40.2005 43.7691 39.1316 42.4497 39.1316Z" fill="#961E2E"/>
<path d="M28.5668 46.7977C25.6607 46.7977 23.2891 44.4261 23.2891 41.52C23.2891 38.6138 25.6607 36.2422 28.5668 36.2422C31.473 36.2422 33.8446 38.6138 33.8446 41.52C33.8446 44.4261 31.473 46.7977 28.5668 46.7977ZM28.5668 39.1316C27.2474 39.1316 26.1785 40.2005 26.1785 41.52C26.1785 42.8394 27.2474 43.9083 28.5668 43.9083C29.8863 43.9083 30.9552 42.8394 30.9552 41.52C30.9552 40.2005 29.8863 39.1316 28.5668 39.1316Z" fill="#961E2E"/>
<path d="M42.4497 59.8407C39.5435 59.8407 37.1719 57.4691 37.1719 54.5629C37.1719 51.6568 39.5435 49.2852 42.4497 49.2852C45.3558 49.2852 47.7274 51.6568 47.7274 54.5629C47.7274 57.4691 45.3558 59.8407 42.4497 59.8407ZM42.4497 52.1746C41.1302 52.1746 40.0613 53.2435 40.0613 54.5629C40.0613 55.8824 41.1302 56.9513 42.4497 56.9513C43.7691 56.9513 44.838 55.8824 44.838 54.5629C44.838 53.2435 43.7691 52.1746 42.4497 52.1746Z" fill="#961E2E"/>
<path d="M42.4497 72.8681C39.5435 72.8681 37.1719 70.4964 37.1719 67.5903C37.1719 64.6842 39.5435 62.3125 42.4497 62.3125C45.3558 62.3125 47.7274 64.6842 47.7274 67.5903C47.7274 70.5131 45.3558 72.8681 42.4497 72.8681ZM42.4497 65.2019C41.1302 65.2019 40.0613 66.2708 40.0613 67.5903C40.0613 68.9097 41.1302 69.9786 42.4497 69.9786C43.7691 69.9786 44.838 68.9097 44.838 67.5903C44.838 66.2708 43.7691 65.2019 42.4497 65.2019Z" fill="#961E2E"/>
<path d="M56.3286 46.7977C53.4224 46.7977 51.0508 44.4261 51.0508 41.52C51.0508 38.6138 53.4224 36.2422 56.3286 36.2422C59.2347 36.2422 61.6063 38.6138 61.6063 41.52C61.6063 44.4261 59.2347 46.7977 56.3286 46.7977ZM56.3286 39.1316C55.0091 39.1316 53.9402 40.2005 53.9402 41.52C53.9402 42.8394 55.0091 43.9083 56.3286 43.9083C57.648 43.9083 58.7169 42.8394 58.7169 41.52C58.7169 40.2005 57.6313 39.1316 56.3286 39.1316Z" fill="#961E2E"/>
<path d="M70.2036 46.7977C67.2974 46.7977 64.9258 44.4261 64.9258 41.52C64.9258 38.6138 67.2974 36.2422 70.2036 36.2422C73.1097 36.2422 75.4813 38.6138 75.4813 41.52C75.4813 44.4261 73.1097 46.7977 70.2036 46.7977ZM70.2036 39.1316C68.8841 39.1316 67.8152 40.2005 67.8152 41.52C67.8152 42.8394 68.8841 43.9083 70.2036 43.9083C71.523 43.9083 72.5919 42.8394 72.5919 41.52C72.5919 40.2005 71.5063 39.1316 70.2036 39.1316Z" fill="#961E2E"/>
<path d="M11.9207 22.3803C11.119 22.3803 10.4844 21.7289 10.4844 20.9439V9.43636C10.4844 8.63467 11.1357 8 11.9207 8C12.7057 8 13.3571 8.65137 13.3571 9.43636V20.9439C13.3571 21.7456 12.7057 22.3803 11.9207 22.3803Z" fill="#961E2E"/>
<path d="M16.7606 22.3803C15.9589 22.3803 15.3242 21.7289 15.3242 20.9439V9.43636C15.3242 8.63467 15.9756 8 16.7606 8C17.5456 8 18.1969 8.65137 18.1969 9.43636V20.9439C18.2136 21.7456 17.5623 22.3803 16.7606 22.3803Z" fill="#961E2E"/>
<path d="M30.6434 22.3803C29.8417 22.3803 29.207 21.7289 29.207 20.9439V9.43636C29.207 8.63467 29.8584 8 30.6434 8C31.4284 8 32.0797 8.65137 32.0797 9.43636V20.9439C32.0964 21.7456 31.4451 22.3803 30.6434 22.3803Z" fill="#961E2E"/>
<path d="M35.5028 22.3803C34.7011 22.3803 34.0664 21.7289 34.0664 20.9439V9.43636C34.0664 8.63467 34.7178 8 35.5028 8C36.2878 8 36.9391 8.65137 36.9391 9.43636V20.9439C36.9558 21.7456 36.3045 22.3803 35.5028 22.3803Z" fill="#961E2E"/>
<path d="M49.3817 22.3803C48.58 22.3803 47.9453 21.7289 47.9453 20.9439V9.43636C47.9453 8.63467 48.5967 8 49.3817 8C50.1667 8 50.818 8.65137 50.818 9.43636V20.9439C50.8347 21.7456 50.1834 22.3803 49.3817 22.3803Z" fill="#961E2E"/>
<path d="M54.241 22.3803C53.4394 22.3803 52.8047 21.7289 52.8047 20.9439V9.43636C52.8047 8.63467 53.4561 8 54.241 8C55.026 8 55.6774 8.65137 55.6774 9.43636V20.9439C55.6774 21.7456 55.0427 22.3803 54.241 22.3803Z" fill="#961E2E"/>
<path d="M68.12 22.3803C67.3183 22.3803 66.6836 21.7289 66.6836 20.9439V9.43636C66.6836 8.63467 67.335 8 68.12 8C68.9049 8 69.5563 8.65137 69.5563 9.43636V20.9439C69.5563 21.7456 68.9216 22.3803 68.12 22.3803Z" fill="#961E2E"/>
<path d="M72.9793 22.3803C72.1776 22.3803 71.543 21.7289 71.543 20.9439V9.43636C71.543 8.63467 72.1943 8 72.9793 8C73.7643 8 74.4157 8.65137 74.4157 9.43636V20.9439C74.4157 21.7456 73.781 22.3803 72.9793 22.3803Z" fill="#961E2E"/>
<path d="M75.57 87.639C65.8162 87.639 57.8828 79.7057 57.8828 69.9518C57.8828 60.1979 65.8162 52.2812 75.57 52.2812C85.3239 52.2812 93.2573 60.2146 93.2573 69.9518C93.2573 79.7057 85.3239 87.639 75.57 87.639ZM75.57 55.1707C67.4196 55.1707 60.7889 61.8013 60.7889 69.9518C60.7889 78.1023 67.4196 84.7496 75.57 84.7496C83.7205 84.7496 90.3512 78.119 90.3512 69.9518C90.3512 61.7846 83.7372 55.1707 75.57 55.1707Z" fill="#961E2E"/>
<path d="M75.5673 92.3963C63.1912 92.3963 53.1367 82.3251 53.1367 69.9657C53.1367 57.5897 63.2079 47.5352 75.5673 47.5352C87.9266 47.5352 97.9978 57.6064 97.9978 69.9657C98.0145 82.3251 87.9433 92.3963 75.5673 92.3963ZM75.5673 50.4079C64.7946 50.4079 56.0261 59.1763 56.0261 69.949C56.0261 80.7217 64.7946 89.5068 75.5673 89.5068C86.3399 89.5068 95.1084 80.7384 95.1084 69.949C95.1251 59.1763 86.3566 50.4079 75.5673 50.4079Z" fill="#961E2E"/>
<path d="M30.6398 17.154H16.7606C15.9589 17.154 15.3242 16.5026 15.3242 15.7176C15.3242 14.9159 15.9756 14.2812 16.7606 14.2812H30.6398C31.4415 14.2812 32.0762 14.9326 32.0762 15.7176C32.0929 16.5026 31.4415 17.154 30.6398 17.154Z" fill="#961E2E"/>
<path d="M49.382 17.154H35.5028C34.7011 17.154 34.0664 16.5026 34.0664 15.7176C34.0664 14.9159 34.7178 14.2812 35.5028 14.2812H49.382C50.1837 14.2812 50.8183 14.9326 50.8183 15.7176C50.835 16.5026 50.1837 17.154 49.382 17.154Z" fill="#961E2E"/>
<path d="M68.1203 17.154H54.241C53.4394 17.154 52.8047 16.5026 52.8047 15.7176C52.8047 14.9159 53.4561 14.2812 54.241 14.2812H68.1203C68.9219 14.2812 69.5566 14.9326 69.5566 15.7176C69.5566 16.5026 68.9219 17.154 68.1203 17.154Z" fill="#961E2E"/>
<path d="M57.217 81.5672H11.1867C6.69393 81.5672 3.01953 77.9095 3.01953 73.4001V22.4094C3.01953 17.8999 6.67723 14.2422 11.1867 14.2422H11.9216C12.7233 14.2422 13.358 14.8936 13.358 15.6785C13.358 16.4802 12.7066 17.1149 11.9216 17.1149H11.1867C8.28061 17.1149 5.90895 19.4866 5.90895 22.3927V73.3833C5.90895 76.2895 8.28061 78.6611 11.1867 78.6611H54.9121C53.743 75.9053 53.1417 72.9324 53.1417 69.9428C53.1417 57.5667 63.2129 47.5122 75.5723 47.5122C76.9585 47.5122 78.3448 47.6458 79.7143 47.8964V22.4094C79.7143 19.5033 77.3427 17.1316 74.4365 17.1316H72.9668C72.1651 17.1316 71.5304 16.4802 71.5304 15.6952C71.5304 14.8936 72.1818 14.2589 72.9668 14.2589H74.4365C78.9293 14.2589 82.6037 17.9166 82.6037 22.4261V49.7169C82.6037 50.1678 82.3866 50.5854 82.0359 50.8693C81.6851 51.1365 81.2175 51.2367 80.7832 51.1198C79.0796 50.6522 77.3427 50.4183 75.589 50.4183C64.8163 50.4183 56.0478 59.1868 56.0478 69.9762C56.0478 73.2831 56.8996 76.5567 58.4863 79.4461C58.7368 79.8971 58.7368 80.4315 58.4696 80.8825C58.2024 81.3 57.718 81.5672 57.217 81.5672Z" fill="#961E2E"/>
<path d="M81.1476 71.3996H75.5692C74.7675 71.3996 74.1328 70.7483 74.1328 69.9633V63.3828C74.1328 62.5811 74.7842 61.9297 75.5692 61.9297C76.3709 61.9297 77.0222 62.5811 77.0222 63.3828V68.5102H81.1476C81.9493 68.5102 82.5839 69.1616 82.5839 69.9466C82.6006 70.7483 81.9493 71.3996 81.1476 71.3996Z" fill="#961E2E"/>
</svg>
