<svg width="100" height="100" viewBox="0 0 100 100" fill="none" xmlns="http://www.w3.org/2000/svg">
<path d="M90.7811 34.1855C90.7269 34.2216 90.6727 34.2397 90.6366 34.2758C90.9618 35.4866 91.2871 36.6973 91.6305 38.0165C92.1726 37.4744 92.6424 37.0045 93.1303 36.5166C92.3171 35.7215 91.5401 34.9625 90.7811 34.1855ZM68.8434 19.476C68.2109 18.8435 67.6326 18.3195 67.1628 17.7231C66.7472 17.1991 66.2773 17.3075 65.8436 17.5424C63.5848 18.7532 61.3079 18.6989 59.0671 17.5605C58.525 17.2894 58.2178 17.3617 57.8564 17.7412C56.3565 19.2772 54.8386 20.7951 53.3207 22.3311C52.7966 22.8552 52.2726 23.3973 51.7485 23.9214C51.7847 23.9575 51.8208 24.0117 51.8569 24.0479C57.4408 22.5299 63.0607 21.012 68.8434 19.476ZM55.2 74.465C53.8447 74.8264 52.7424 75.1155 51.6401 75.4227C51.3871 75.495 51.116 75.6396 50.9353 75.8203C49.4716 77.2659 48.044 78.7477 46.5803 80.2115C44.7552 82.0366 42.93 83.8798 41.0868 85.6869C40.364 86.3916 39.5147 86.5181 38.9003 85.9398C37.0209 84.1689 34.3645 84.1509 32.5033 85.9037C31.8347 86.5362 31.0938 86.4639 30.4432 85.8134C29.7204 85.0905 28.8891 84.44 28.2928 83.6268C27.2989 82.2896 26.1785 81.8378 24.6425 82.6329C24.6064 82.651 24.5703 82.7052 24.516 82.7594C28.2386 86.482 31.9431 90.1865 35.6837 93.9271C42.153 87.512 48.5862 81.0788 55.2 74.465ZM74.4633 17.8496C70.7227 14.1271 66.964 10.4406 63.2595 6.71809C62.8078 6.26633 62.5006 5.8507 61.8681 6.48317C59.7719 8.61551 57.6396 10.6936 55.5253 12.8079C52.1822 16.151 48.8211 19.5121 45.478 22.8733C44.2311 24.1201 43.0023 25.367 41.6109 26.7946C42.93 26.4332 44.0143 26.1621 45.0804 25.8549C45.3334 25.7826 45.6045 25.6381 45.8033 25.4574C46.7249 24.5538 47.6284 23.6322 48.55 22.7106C51.3871 19.8555 54.2423 17.0003 57.0974 14.1632C57.7841 13.4765 58.5973 13.4584 59.3924 14.0186C61.9042 15.8076 63.1692 15.8257 65.6087 14.0548C66.458 13.4404 67.1989 13.5127 67.976 14.2716C68.9518 15.2294 70.036 16.0968 70.8673 17.1629C71.8792 18.4821 72.9635 18.7893 74.4633 17.8496ZM5.0178 39.7693C8.7765 53.7741 12.4991 67.6885 16.2216 81.5848C42.3699 74.5734 68.4639 67.5981 94.6121 60.5867C94.5037 60.1892 94.4133 59.8639 94.323 59.5206C90.7811 46.329 87.2574 33.1555 83.7155 19.9639C83.3902 18.7712 83.3902 18.7712 82.1795 19.0965C56.8264 25.8911 31.4732 32.6856 6.10204 39.4802C5.77677 39.5705 5.4515 39.6609 5.0178 39.7693ZM45.2792 77.0672C40.2556 78.4044 35.25 79.7597 30.1541 81.115C30.4432 81.4403 30.7323 81.6933 30.913 81.9824C31.3287 82.6329 31.9069 82.6149 32.4852 82.3077C34.2561 81.368 36.2258 81.0969 37.9425 81.9282C39.5328 82.6871 40.3821 82.2354 41.3579 81.1331C42.6228 79.7416 43.9601 78.4225 45.2792 77.0672ZM8.70421 66.9295C8.79457 67.0199 8.88492 67.1283 8.97527 67.2187C8.99334 67.0741 8.99334 66.9295 9.01142 66.785C8.50544 64.9056 7.99946 63.0082 7.45734 60.9481C6.58995 61.7975 5.86712 62.5022 5.05394 63.3154C6.30082 64.5623 7.49348 65.7549 8.70421 66.9295ZM96.3469 36.6973C95.7506 38.7393 94.0339 39.8958 92.6424 41.3776C94.1242 46.9072 95.6241 52.473 97.1059 58.0568C97.3046 58.7797 97.3588 59.5386 97.5396 60.2795C97.8287 61.4722 96.8167 63.0805 95.7686 63.46C95.353 63.6045 94.9193 63.7491 94.5037 63.8575C84.3118 66.5862 74.12 69.3871 63.9101 72.0074C61.8862 72.5314 60.4044 73.5434 58.9948 74.989C56.1397 77.9346 53.2122 80.8078 50.3209 83.6991C47.1405 86.8976 43.9601 90.1142 40.7616 93.3127C39.8219 94.2524 38.8822 95.192 37.9064 96.0775C36.4246 97.4147 34.7982 97.3424 33.3526 95.9149C31.0215 93.6018 28.6723 91.3068 26.3592 88.9757C24.7871 87.4036 23.233 85.8134 21.6789 84.2051C21.2453 83.7714 20.8477 83.6449 20.2152 83.8256C18.878 84.2051 17.5227 84.5665 16.1493 84.7111C14.9928 84.8195 13.6375 84.0786 13.1857 82.3257C12.5352 79.8139 11.7943 77.3563 11.216 74.8264C10.963 73.7241 10.3667 72.929 9.60775 72.17C7.4212 70.0196 5.25272 67.8511 3.08424 65.6826C2.86739 65.4658 2.68668 65.2309 2.48791 65.014C2.32527 64.3996 2.16264 63.7852 2 63.1708C2.39755 61.0927 4.0962 60.0085 5.46957 58.6893C6.33696 57.8581 6.53573 57.1172 6.19239 55.9245C4.80095 51.0816 3.60829 46.1844 2.21685 41.3415C1.51209 38.8839 2.57826 37.2394 4.92745 36.625C14.8844 34.0048 24.8413 31.3123 34.7802 28.6197C35.3404 28.4752 35.9006 28.0957 36.3342 27.6801C39.6592 24.4273 42.9481 21.1565 46.237 17.8677C49.7065 14.4162 53.14 10.9466 56.6095 7.47706C57.8203 6.26633 59.031 5.01945 60.2779 3.84486C61.4525 2.72448 63.5125 2.72448 64.7233 3.80872C65.2112 4.24241 65.681 4.69418 66.1328 5.16402C69.6565 8.70587 73.2165 12.2116 76.686 15.7896C77.5896 16.7112 78.3485 17.181 79.6677 16.675C80.7158 16.2775 81.8723 16.151 82.9746 15.9161C84.7094 15.5546 86.0466 16.8015 86.5345 18.5002C87.2212 20.9578 87.9621 23.3973 88.4862 25.9091C88.8476 27.6801 89.7692 28.945 91.0341 30.1377C92.7328 31.7279 94.3049 33.4085 95.9313 35.0529C96.0397 35.5769 96.2023 36.1371 96.3469 36.6973Z" fill="#961E2E"/>
<path d="M45.2656 77.0505V77.0687C45.3019 77.0505 45.3382 77.0142 45.3745 76.9961C45.3564 77.0142 45.3019 77.0324 45.2656 77.0505Z" fill="#961E2E"/>
<path d="M82.7048 58.384C82.741 58.113 82.7771 57.8419 82.8132 57.5528C82.9397 56.1975 83.2469 54.8964 84.1685 53.8664C84.9817 52.9628 85.8853 52.1497 86.7888 51.2281C85.0359 44.6684 83.2289 37.9823 81.4579 31.2961C81.3134 30.7721 81.0785 30.6275 80.5725 30.6094C78.0064 30.4829 75.9825 29.3445 74.5911 27.1941C74.2477 26.67 73.9586 26.5977 73.3804 26.7423C54.7495 31.7479 36.1006 36.7535 17.4697 41.7229C16.8915 41.8675 16.6927 42.0843 16.6566 42.7348C16.5301 45.1925 15.3555 47.1622 13.3496 48.5175C12.681 48.9692 12.7172 49.2764 12.8798 49.8728C14.0363 54.1916 15.1928 58.4925 16.3494 62.8113C16.9276 64.9618 17.4878 67.1302 18.1022 69.2806C18.1926 69.5517 18.5359 69.9312 18.7708 69.9493C21.3007 70.0396 23.3066 71.0877 24.698 73.1478C25.1498 73.8344 25.5473 73.9248 26.2882 73.708C44.7384 68.7385 63.1885 63.8052 81.6386 58.8539C81.9459 58.7816 82.2531 58.6732 82.5602 58.5828C82.6145 58.5105 82.6687 58.4382 82.7048 58.384ZM54.7495 69.2264C45.0998 71.8105 35.45 74.3766 25.8184 76.9968C23.1981 77.7016 23.3246 77.1594 22.5115 75.3885C21.7344 73.7079 19.837 72.7502 18.1745 73.0755C16.512 73.4188 15.9337 73.0393 15.5 71.431C13.4942 63.9137 11.4703 56.3963 9.46444 48.8789C9.08496 47.4694 9.28374 47.0899 10.5848 46.5839C10.7836 46.5116 10.9462 46.349 11.1269 46.2406C13.0424 45.2828 13.964 43.2589 13.4942 41.1627C13.2774 40.205 13.7653 39.7532 14.4519 39.3918C14.7049 39.2653 14.9941 39.2291 15.2832 39.1388C34.8718 33.8802 54.4785 28.6397 74.067 23.3812C75.6934 22.9475 76.0006 23.1824 76.7054 24.7003C77.6631 26.7604 79.434 27.935 81.9097 27.4651C82.9578 27.2664 83.6445 27.6097 83.9156 28.6397C85.9937 36.374 88.0718 44.1082 90.1319 51.8425C90.421 52.9086 90.0415 53.523 88.9753 53.9386C86.6081 54.8603 85.4335 56.5589 85.9756 59.3779C86.1563 60.2995 85.6865 60.9501 84.6203 61.2392C75.8922 63.5703 67.1821 65.9195 58.454 68.2506C57.2252 68.5759 55.9783 68.9011 54.7495 69.2264Z" fill="#961E2E"/>
<path d="M82.5781 58.5629C82.6144 58.5085 82.6507 58.4359 82.687 58.3633C82.6689 58.4359 82.6144 58.5085 82.5781 58.5629Z" fill="#961E2E"/>
<path d="M38.8853 53.0479C40.4574 59.1919 46.6918 62.4808 52.0046 61.2339C58.6727 59.6979 62.4314 53.1744 60.3713 46.7232C58.7088 41.555 53.0888 37.6336 46.3485 39.5853C40.8369 41.1935 37.3131 47.1388 38.8853 53.0479ZM53.378 64.0529C46.1858 66.0949 37.4938 61.7218 35.7229 53.0298C34.3134 46.1268 38.2167 38.8263 45.3907 36.6759C53.9201 34.1279 61.1483 39.1335 63.2987 45.8377C65.9732 54.1321 60.6785 62.2097 53.378 64.0529Z" fill="#961E2E"/>
<path d="M72.8056 42.6049C71.8117 42.8579 71.4141 43.4362 71.631 44.3578C71.8297 45.1529 72.6068 45.6227 73.42 45.4059C74.3596 45.1709 74.8295 44.4481 74.6126 43.6349C74.3596 42.623 73.8356 42.3339 72.8056 42.6049ZM71.9201 39.6594C74.1247 38.6836 77.1425 40.4003 77.6666 43.0748C78.1545 45.4782 76.6727 47.6647 73.8898 48.4779C71.8478 49.0742 69.2818 47.4298 68.6493 45.0987C68.1614 43.2555 69.1733 40.075 71.9201 39.6594Z" fill="#961E2E"/>
<path d="M25.8899 55.1597C24.8599 55.4308 24.5888 55.9187 24.896 56.9487C25.1129 57.7258 25.8357 58.1414 26.6127 57.9426C27.5524 57.7077 28.0945 56.8945 27.8415 56.0813C27.6066 55.3043 26.7934 54.9248 25.8899 55.1597ZM25.0586 52.2142C27.5524 51.2023 30.1726 52.9551 30.787 55.3585C31.4195 57.8161 29.8293 60.2376 27.95 60.7436C24.9322 61.5567 22.7637 60.3641 21.8782 57.78C21.1554 55.6296 22.8179 52.3588 25.0586 52.2142Z" fill="#961E2E"/>
<path d="M52.2236 59.8065C51.3381 60.2041 50.7779 59.5535 50.4165 58.8849C50.1635 58.397 49.9106 58.3247 49.4407 58.2705C47.6879 58.0175 46.2061 57.2947 45.3025 55.6503C44.923 54.9455 44.9592 54.0962 45.5013 53.6987C46.2783 53.1204 47.1638 53.1927 47.724 53.8794C49.1154 55.5599 51.2839 55.6503 52.838 54.0962C53.6873 53.2469 53.4163 52.1084 52.2236 51.9097C51.1393 51.729 50.019 51.747 48.9347 51.7832C46.5133 51.8554 44.7062 50.9338 43.6762 48.675C43.0618 47.3197 43.9653 44.5549 45.3929 43.6333C45.8627 43.3261 46.1338 43.1093 46.0073 42.4226C45.8266 41.4106 46.3326 40.9046 47.3987 40.7059C48.2661 40.5251 48.7179 40.9408 48.9889 41.7539C49.0612 41.9889 49.4769 42.2057 49.766 42.2599C51.3923 42.4948 52.7838 43.1273 53.7415 44.5368C54.2114 45.2416 54.1029 45.856 53.5428 46.3981C52.9645 46.9402 52.2959 47.139 51.5911 46.5969C51.3923 46.4342 51.2478 46.2355 51.0671 46.0548C49.9828 44.9344 48.7721 45.4404 47.6336 45.8379C46.9831 46.0548 46.6578 46.5969 46.6217 47.3559C46.5855 48.2052 47.0735 48.5124 47.7059 48.5666C48.7721 48.675 49.8563 48.675 50.9225 48.675C53.5608 48.675 55.2233 49.4521 56.1991 51.9097C56.6509 53.0662 56.5063 54.3673 55.7474 55.3973C55.1872 56.1382 54.3379 56.6261 53.6512 57.2947C53.4705 57.4754 53.3259 57.8549 53.362 58.126C53.4705 59.0114 53.1813 59.5355 52.2236 59.8065Z" fill="#961E2E"/>
</svg>
