<svg width="100" height="100" viewBox="0 0 100 100" fill="none" xmlns="http://www.w3.org/2000/svg">
<path d="M51.6734 4H46.1797V9.49369H51.6734V4Z" fill="#961E2E"/>
<path d="M51.6734 6.74685C51.6734 8.25868 50.4384 9.49369 48.9265 9.49369C47.4147 9.49369 46.1797 8.25868 46.1797 6.74685C46.1797 5.23502 47.4147 4 48.9265 4C50.4384 4 51.6734 5.23502 51.6734 6.74685Z" fill="#961E2E"/>
<path d="M35.7632 7.79297H30.2695V13.2867H35.7632V7.79297Z" fill="#961E2E"/>
<path d="M35.7632 10.5398C35.7632 12.0516 34.5282 13.2867 33.0164 13.2867C31.5045 13.2867 30.2695 12.0516 30.2695 10.5398C30.2695 9.02798 31.5045 7.79297 33.0164 7.79297C34.5282 7.79297 35.7632 9.00669 35.7632 10.5398Z" fill="#961E2E"/>
<path d="M22.9703 17.8398H17.4766V23.3335H22.9703V17.8398Z" fill="#961E2E"/>
<path d="M22.9703 20.5867C22.9703 22.0985 21.7352 23.3335 20.2234 23.3335C18.7116 23.3335 17.4766 22.0985 17.4766 20.5867C17.4766 19.0749 18.7116 17.8398 20.2234 17.8398C21.7352 17.8398 22.9703 19.0536 22.9703 20.5867Z" fill="#961E2E"/>
<path d="M15.5171 32.2148H10.0234V37.7085H15.5171V32.2148Z" fill="#961E2E"/>
<path d="M15.5328 34.9617C15.5328 36.4735 14.2977 37.7085 12.7859 37.7085C11.2741 37.7085 10.0391 36.4735 10.0391 34.9617C10.0391 33.4499 11.2741 32.2148 12.7859 32.2148C14.2977 32.2148 15.5328 33.4286 15.5328 34.9617Z" fill="#961E2E"/>
<path d="M14.4937 48.3516H9V53.8453H14.4937V48.3516Z" fill="#961E2E"/>
<path d="M14.4937 51.1218C14.4937 52.6337 13.2587 53.8687 11.7468 53.8687C10.235 53.8687 9 52.6337 9 51.1218C9 49.61 10.235 48.375 11.7468 48.375C13.2587 48.375 14.4937 49.5887 14.4937 51.1218Z" fill="#961E2E"/>
<path d="M20.2671 63.5117H14.7734V69.0054H20.2671V63.5117Z" fill="#961E2E"/>
<path d="M20.2828 66.2586C20.2828 67.7704 19.0477 69.0054 17.5359 69.0054C16.0241 69.0054 14.7891 67.7704 14.7891 66.2586C14.7891 64.7467 16.0241 63.5117 17.5359 63.5117C19.0477 63.5117 20.2828 64.7467 20.2828 66.2586Z" fill="#961E2E"/>
<path d="M31.6773 75.168H26.1836V80.6617H31.6773V75.168Z" fill="#961E2E"/>
<path d="M31.6773 77.9148C31.6773 79.4266 30.4423 80.6617 28.9304 80.6617C27.4186 80.6617 26.1836 79.4266 26.1836 77.9148C26.1836 76.403 27.4186 75.168 28.9304 75.168C30.4423 75.168 31.6773 76.3817 31.6773 77.9148Z" fill="#961E2E"/>
<path d="M49.2042 85.9841C45.4353 85.9841 41.6876 85.4731 38.0891 84.451C36.854 84.1103 36.1514 82.8327 36.4921 81.5977C36.8327 80.3627 38.1104 79.6387 39.3454 80.0007C42.5394 80.895 45.8398 81.3635 49.1829 81.3635C69.1348 81.3635 85.3603 65.1379 85.3603 45.1861C85.3603 27.257 71.9881 11.8619 54.2933 9.37059C53.0157 9.20024 52.1427 8.02911 52.313 6.7515C52.4834 5.4739 53.6545 4.60087 54.9321 4.77122C74.9266 7.58195 90.0023 24.9573 90.0023 45.1648C90.0023 67.6931 71.7113 85.9841 49.2042 85.9841Z" fill="#961E2E"/>
<path d="M51.739 71.457L53.3573 74.1613L40.0064 82.125L48.9283 94.8372L46.3518 96.6471L35.4922 81.1455L51.739 71.457Z" fill="#961E2E"/>
<path d="M52.7604 45.3763C52.7604 47.3353 51.1634 48.9323 49.2044 48.9323C47.2454 48.9323 45.6484 47.3353 45.6484 45.3763C45.6484 43.4173 47.2454 41.8203 49.2044 41.8203C51.1634 41.8203 52.7604 43.4173 52.7604 45.3763Z" fill="#961E2E"/>
<path d="M67.4057 66.1952C66.8095 66.1952 66.2133 65.961 65.7448 65.4926L46.8789 46.3072V17.7741C46.8789 16.4965 47.9223 15.4531 49.1999 15.4531C50.4775 15.4531 51.5209 16.4965 51.5209 17.7741V44.4121L69.0666 62.256C69.9609 63.1716 69.9396 64.6408 69.0453 65.5351C68.5769 65.9823 68.0019 66.1952 67.4057 66.1952Z" fill="#961E2E"/>
</svg>
