<svg width="100" height="100" viewBox="0 0 100 100" fill="none" xmlns="http://www.w3.org/2000/svg">
<path d="M11.8226 96.9016C6.42019 96.9016 2 92.5072 2 87.0789V5.68019C2 4.74962 2.74962 4 3.68019 4H74.4033C75.3338 4 76.0834 4.74962 76.0834 5.68019V79.8412C76.0834 80.7718 75.3338 81.5214 74.4033 81.5214C73.4727 81.5214 72.7231 80.7718 72.7231 79.8412V7.36038H5.38623V87.0789C5.38623 90.6461 8.28133 93.5153 11.8226 93.5153C12.7532 93.5153 13.5028 94.265 13.5028 95.1955C13.5028 96.1261 12.7532 96.8757 11.8226 96.8757" fill="#BAB1B1"/>
<path d="M87.7415 96.91H11.3833C10.4527 96.91 9.70312 96.1604 9.70312 95.2299C9.70312 94.2993 10.4527 93.5497 11.3833 93.5497H87.7415C91.0502 93.5497 93.7385 90.8614 93.7385 87.5527C93.7385 84.244 91.0502 81.5557 87.7415 81.5557H11.3833C10.4527 81.5557 9.70312 80.8061 9.70312 79.8755C9.70312 78.9449 10.4527 78.1953 11.3833 78.1953H87.7415C92.9113 78.1953 97.1247 82.4087 97.1247 87.5785C97.1247 92.7483 92.9113 96.9617 87.7415 96.9617" fill="#BAB1B1"/>
<path d="M11.3832 96.9046C6.2134 96.9046 2 92.6912 2 87.5214C2 86.5909 2.74962 85.8412 3.68019 85.8412C4.61076 85.8412 5.36038 86.5909 5.36038 87.5214C5.36038 90.8301 8.04868 93.5184 11.3574 93.5184C14.666 93.5184 17.3543 90.8301 17.3543 87.5214C17.3543 84.2127 14.666 81.5244 11.3574 81.5244C10.4268 81.5244 9.67717 80.7748 9.67717 79.8443C9.67717 78.9137 10.4268 78.1641 11.3574 78.1641C16.5272 78.1641 20.7406 82.3775 20.7406 87.5473C20.7406 92.7171 16.5272 96.9305 11.3574 96.9305" fill="#BAB1B1"/>
<path d="M58.7362 16.0713H20.1177C19.1871 16.0713 18.4375 15.3217 18.4375 14.3911C18.4375 13.4606 19.1871 12.7109 20.1177 12.7109H58.7362C59.6668 12.7109 60.4164 13.4606 60.4164 14.3911C60.4164 15.3217 59.6668 16.0713 58.7362 16.0713Z" fill="#BAB1B1"/>
<path d="M64.6367 22.7705H14.231C13.3004 22.7705 12.5508 22.0209 12.5508 21.0903C12.5508 20.1598 13.3004 19.4102 14.231 19.4102H64.6367C65.5672 19.4102 66.3169 20.1598 66.3169 21.0903C66.3169 22.0209 65.5672 22.7705 64.6367 22.7705Z" fill="#BAB1B1"/>
<path d="M64.6367 29.4619H14.231C13.3004 29.4619 12.5508 28.7123 12.5508 27.7818C12.5508 26.8512 13.3004 26.1016 14.231 26.1016H64.6367C65.5672 26.1016 66.3169 26.8512 66.3169 27.7818C66.3169 28.7123 65.5672 29.4619 64.6367 29.4619Z" fill="#BAB1B1"/>
<path d="M64.6367 36.1377H14.231C13.3004 36.1377 12.5508 35.3881 12.5508 34.4575C12.5508 33.527 13.3004 32.7773 14.231 32.7773H64.6367C65.5672 32.7773 66.3169 33.527 66.3169 34.4575C66.3169 35.3881 65.5672 36.1377 64.6367 36.1377Z" fill="#BAB1B1"/>
<path d="M64.6367 42.8291H14.231C13.3004 42.8291 12.5508 42.0795 12.5508 41.1489C12.5508 40.2184 13.3004 39.4688 14.231 39.4688H64.6367C65.5672 39.4688 66.3169 40.2184 66.3169 41.1489C66.3169 42.0795 65.5672 42.8291 64.6367 42.8291Z" fill="#BAB1B1"/>
<path d="M64.6367 49.5284H14.231C13.3004 49.5284 12.5508 48.7787 12.5508 47.8482C12.5508 46.9176 13.3004 46.168 14.231 46.168H64.6367C65.5672 46.168 66.3169 46.9176 66.3169 47.8482C66.3169 48.7787 65.5672 49.5284 64.6367 49.5284Z" fill="#BAB1B1"/>
<path d="M17.9733 73.6433C17.1202 73.6433 16.2931 73.3848 15.5435 72.8419C14.0701 71.7821 13.4755 69.9727 14.0442 68.2408L14.6387 66.4055C14.7421 66.0953 14.6387 65.7593 14.3802 65.5783L12.8293 64.441C11.3559 63.3812 10.7614 61.5717 11.3301 59.8398C11.8987 58.108 13.4238 56.9964 15.2591 56.9964H17.1719C17.4821 56.9964 17.7923 56.7897 17.8699 56.4795L18.4644 54.6442C19.0331 52.9123 20.5582 51.8008 22.3935 51.8008C24.2287 51.8008 25.7538 52.9123 26.3225 54.6442L26.917 56.4795C27.0204 56.7897 27.3048 56.9964 27.615 56.9964H29.5278C31.3372 56.9964 32.8882 58.108 33.4569 59.8398C34.0255 61.5717 33.4569 63.3812 31.9576 64.441L30.4067 65.5783C30.1482 65.7593 30.0448 66.0953 30.1482 66.4055L30.7427 68.2408C31.3114 69.9727 30.7169 71.7821 29.2435 72.8419C27.7701 73.9017 25.8572 73.9017 24.3838 72.8419L22.8329 71.7046C22.5744 71.5236 22.2125 71.5236 21.954 71.7046L20.4031 72.8419C19.6793 73.3848 18.8263 73.6433 17.9733 73.6433ZM15.2591 60.3568C14.7938 60.3568 14.6129 60.667 14.5612 60.8738C14.5095 61.0806 14.4578 61.4166 14.8197 61.701L16.3706 62.8383C17.8182 63.8982 18.4127 65.7334 17.8699 67.4395L17.2753 69.2748C17.1202 69.7142 17.3787 69.9985 17.5338 70.1019C17.6889 70.2312 18.025 70.3863 18.4127 70.1019L19.9636 68.9646C21.4112 67.9048 23.3499 67.9048 24.7974 68.9646L26.3484 70.1019C26.7361 70.3863 27.0721 70.2312 27.2272 70.1019C27.3823 69.9985 27.6408 69.7142 27.5116 69.2748L26.917 67.4395C26.3742 65.7334 26.9687 63.8723 28.4163 62.8383L29.9672 61.701C30.355 61.4166 30.3033 61.0548 30.2257 60.8738C30.1482 60.6929 29.9931 60.3568 29.5278 60.3568H27.615C25.8314 60.3568 24.2546 59.2195 23.6859 57.5134L23.0914 55.6781C22.9363 55.2387 22.5744 55.1612 22.3935 55.1612C22.2125 55.1612 21.8248 55.2129 21.6955 55.6781L21.101 57.5134C20.5582 59.2195 18.9814 60.3568 17.1719 60.3568H15.2591Z" fill="#BAB1B1"/>
<path d="M43.6462 69.5063C43.2327 69.5063 42.7932 69.3512 42.4572 69.0152C41.7851 68.369 41.7851 67.2833 42.4572 66.6371C42.9225 66.146 43.4136 65.6548 43.9047 65.1378C43.4911 64.6467 43.181 64.1039 43 63.5352C42.2504 61.1571 43.336 57.5382 48.9711 55.2118C49.9017 54.8241 52.3574 53.816 53.5206 55.5478C54.0376 56.3233 54.9423 57.6416 49.7983 63.6903C50.0051 63.6645 50.2377 63.6128 50.4704 63.5611C53.3913 62.889 55.1491 60.8469 56.3123 59.4769C57.1912 58.4688 58.0959 57.409 59.44 57.8484C60.8876 58.3395 60.991 60.0456 61.0685 61.4156C61.5079 68.369 61.5079 68.4982 60.0862 68.9118C59.1815 69.1962 58.251 68.6792 57.9666 67.7745C57.8891 67.516 57.8891 67.2575 57.9149 66.999C57.9149 66.7922 57.9149 65.9133 57.734 62.8631C56.3381 64.3365 54.2185 66.1201 51.1683 66.818C49.4881 67.2058 48.0406 67.1799 46.8515 66.8697C46.2311 67.516 45.5591 68.2139 44.8353 68.9635C44.4993 69.2995 44.0598 69.4546 43.6204 69.4546M49.3072 58.7273C46.8515 59.968 45.8693 61.4931 46.1794 62.4754C47.4202 61.1312 48.5317 59.7871 49.3072 58.7273Z" fill="#BAB1B1"/>
</svg>
