<svg width="100" height="100" viewBox="0 0 100 100" fill="none" xmlns="http://www.w3.org/2000/svg">
<path d="M94.7232 54.7705C96.1597 53.605 97 51.8702 97 50.0271C97 48.184 96.1869 46.4493 94.7232 45.2837L92.0127 43.0882C91.1995 42.4377 90.9556 41.2722 91.4706 40.3506L93.1511 37.2878C94.0456 35.6615 94.1269 33.737 93.4221 32.0294C92.7174 30.3218 91.2808 29.0479 89.519 28.5058L86.1851 27.53C85.1822 27.2318 84.5317 26.2561 84.6401 25.199L85.0196 21.7295C85.2093 19.8864 84.5859 18.0704 83.2578 16.7693C81.9567 15.4683 80.1407 14.8178 78.2976 15.0075L74.8281 15.387C73.7982 15.4954 72.7953 14.8449 72.4971 13.842L71.5213 10.481C71.0063 8.71915 69.7053 7.28258 67.9977 6.57786C66.2901 5.87313 64.3656 5.98155 62.7393 6.8489L59.6765 8.52941C58.7549 9.04441 57.5894 8.80046 56.9389 7.98731L54.7434 5.27682C53.5779 3.84025 51.8431 3 50 3C48.1569 3 46.4221 3.81315 45.2566 5.27682L43.0611 7.98731C42.4106 8.80046 41.2451 9.04441 40.3235 8.52941L37.2607 6.8489C35.6344 5.95444 33.7099 5.87313 32.0023 6.57786C30.2947 7.28258 29.0208 8.71915 28.4787 10.481L27.5029 13.842C27.2047 14.8449 26.229 15.4954 25.1719 15.387L21.7024 15.0075C19.8593 14.8178 18.0433 15.4412 16.7422 16.7693C15.4412 18.0704 14.7907 19.8864 14.9804 21.7295L15.3599 25.199C15.4683 26.2561 14.8178 27.2318 13.8149 27.53L10.4539 28.5058C8.66494 29.0208 7.25548 30.3218 6.55075 32.0294C5.84602 33.737 5.95444 35.6615 6.8218 37.2878L8.50231 40.3506C9.0173 41.2722 8.77336 42.4377 7.96021 43.0882L5.24971 45.2837C3.81315 46.4493 3 48.184 3 50.0271C3 51.8702 3.81315 53.605 5.24971 54.7705L7.96021 56.966C8.77336 57.6436 9.0173 58.782 8.50231 59.7036L6.8489 62.7664C5.95444 64.3927 5.87313 66.3172 6.57786 68.0248C7.28258 69.7324 8.71915 71.0063 10.481 71.5484L13.842 72.5242C14.8449 72.8224 15.4954 73.7982 15.387 74.8552L15.0075 78.3247C14.8178 80.1678 15.4412 81.9839 16.7693 83.2849C18.0704 84.5859 19.8864 85.2364 21.7295 85.0467L25.199 84.6672C26.229 84.5588 27.2318 85.2093 27.53 86.2122L28.5058 89.5732C29.0208 91.3622 30.3218 92.7716 32.0294 93.4764C33.737 94.1811 35.6615 94.0727 37.2878 93.2053L40.3506 91.5519C41.2722 91.0369 42.4377 91.2809 43.0882 92.094L45.2837 94.8045C46.4493 96.2411 48.184 97.0813 50.0271 97.0813C51.8702 97.0813 53.605 96.2411 54.7705 94.8045L56.966 92.094C57.6165 91.2809 58.782 91.0369 59.7036 91.5519L62.7664 93.2324C64.3927 94.1269 66.3172 94.2082 68.0248 93.5035C69.7324 92.7987 71.0063 91.3622 71.5484 89.6003L72.5242 86.2393C72.8224 85.2364 73.7981 84.5859 74.8552 84.6944L78.3247 85.0738C80.1678 85.2636 81.9838 84.6401 83.2849 83.312C84.5859 82.011 85.2364 80.1949 85.0467 78.3518L84.6672 74.8824C84.5588 73.8253 85.2093 72.8495 86.2122 72.5513L89.5461 71.5755C91.3351 71.0606 92.7445 69.7595 93.4492 68.0519C94.154 66.3443 94.0456 64.4198 93.1782 62.7935L91.4977 59.7307C90.9827 58.8091 91.2266 57.6436 92.0398 56.9931L94.7503 54.7976L94.7232 54.7705ZM88.0283 61.5738L89.6817 64.6367C90.0069 65.233 90.034 65.9106 89.7901 66.5069C89.5461 67.1303 89.0311 67.5911 88.3806 67.7537L85.0196 68.7295C82.2007 69.5698 80.3576 72.3074 80.6828 75.2347L81.0623 78.7042C81.1436 79.3547 80.8997 80.0052 80.4389 80.4931C79.9781 80.9539 79.3276 81.1978 78.677 81.1165L75.2076 80.737C72.2803 80.4389 69.5427 82.2549 68.7024 85.0738L67.7266 88.4348C67.5369 89.0582 67.0761 89.5732 66.4798 89.8443C65.8564 90.0882 65.1788 90.0611 64.6096 89.7359L61.5467 88.0554C58.9717 86.6459 55.7463 87.2964 53.876 89.5732L51.6805 92.2837C50.8403 93.3137 49.1055 93.3137 48.2924 92.2837L46.0969 89.5732C44.9043 88.1096 43.1424 87.2964 41.3535 87.2964C40.3506 87.2964 39.3749 87.5404 38.4262 88.0283L35.3633 89.7088C34.7941 90.034 34.0894 90.0611 33.4931 89.8172C32.8697 89.5732 32.4089 89.0582 32.2462 88.4077L31.2705 85.0467C30.4302 82.2278 27.7197 80.3847 24.7653 80.7099L21.2958 81.0894C20.6453 81.1436 19.9948 80.9268 19.534 80.466C19.0732 80.0052 18.8293 79.3547 18.9106 78.677L19.2901 75.2076C19.5882 72.2803 17.7722 69.5427 14.9533 68.7024L11.5923 67.7266C10.9689 67.5369 10.4539 67.0761 10.1828 66.4798C9.93887 65.8564 9.96597 65.1788 10.2912 64.6096L11.9446 61.5467C13.3541 58.9717 12.7036 55.7463 10.4268 53.876L7.71626 51.6805C7.20127 51.2739 6.90311 50.6505 6.90311 49.9729C6.90311 49.2953 7.20127 48.699 7.71626 48.2653L10.4268 46.0698C12.7307 44.2266 13.3541 41.0012 11.9446 38.3991L10.2912 35.3362C9.96597 34.7399 9.93887 34.0623 10.1828 33.4389C10.4268 32.8426 10.9418 32.3818 11.5923 32.192L14.9262 31.2163C17.7451 30.376 19.5882 27.6384 19.263 24.7111L18.8835 21.2416C18.8022 20.5911 19.0461 19.9406 19.5069 19.4527C19.9677 18.9919 20.6182 18.748 21.2687 18.8293L24.7382 19.2088C27.6926 19.5069 30.4031 17.6909 31.2434 14.872L32.2191 11.511C32.4089 10.8875 32.8697 10.3725 33.466 10.1015C34.0894 9.85755 34.767 9.88466 35.3362 10.2099L38.3991 11.8904C41.0012 13.2999 44.1995 12.6494 46.0698 10.3725L48.2653 7.66205C49.1055 6.63207 50.8131 6.63207 51.6534 7.66205L53.8489 10.3725C55.692 12.6765 58.9446 13.327 61.5196 11.8904L64.5825 10.2099C65.1517 9.88466 65.8564 9.85755 66.4527 10.1015C67.049 10.3454 67.5369 10.8604 67.6995 11.511L68.6753 14.872C69.5156 17.6909 72.2532 19.534 75.1805 19.2088L78.6499 18.8293C79.3005 18.748 79.951 18.9919 80.4118 19.4527C80.8726 19.9135 81.1165 20.564 81.0352 21.2416L80.6557 24.7111C80.3575 27.6384 82.1736 30.376 84.9925 31.2163L88.3535 32.192C88.9769 32.3818 89.4919 32.8426 89.763 33.4389C90.0069 34.0623 89.9798 34.7399 89.6546 35.3091L88.0012 38.372C86.5917 40.9469 87.2422 44.1724 89.519 46.0427L92.2295 48.2382C92.7445 48.6448 93.0427 49.2682 93.0427 49.9458C93.0427 50.6234 92.7445 51.2197 92.2295 51.6534L89.519 53.8489C87.2151 55.692 86.5917 58.9175 88.0012 61.5196M60.9504 22.6782C61.9533 23.0848 63.0917 22.5969 63.4983 21.594C63.9048 20.5911 63.417 19.4527 62.4141 19.0461C58.4567 17.4469 54.2284 16.6067 49.9187 16.6067C32.3547 16.6067 17.718 30.3489 16.6338 47.8587C16.5525 48.9429 17.3927 49.8645 18.4769 49.9458C18.504 49.9458 18.5582 49.9458 18.5854 49.9458C19.6153 49.9458 20.4827 49.1326 20.5369 48.1027C21.4856 32.6257 34.3875 20.5369 49.8916 20.5369C53.7134 20.5369 57.4268 21.2687 60.9233 22.6782M21.4043 57.3183C21.1332 56.2612 20.0761 55.6378 19.019 55.9089C17.9619 56.1799 17.3385 57.237 17.6096 58.2941C17.9619 59.7036 18.4227 61.113 18.9919 62.4683C19.2901 63.2272 20.0219 63.688 20.808 63.688C21.0519 63.688 21.2958 63.6338 21.5398 63.5525C22.5427 63.1459 23.0306 62.0075 22.624 61.0046C22.1361 59.812 21.7295 58.5652 21.4043 57.3183ZM81.3333 49.9729C80.2491 49.9187 79.3276 50.7318 79.2463 51.816C78.2976 67.293 65.3956 79.3818 49.8916 79.3818C46.0698 79.3818 42.3564 78.6499 38.8599 77.2405C37.857 76.8339 36.7186 77.3218 36.312 78.3247C35.9054 79.3276 36.3933 80.466 37.3962 80.8726C41.3806 82.4717 45.5819 83.312 49.8916 83.312C67.4827 83.312 82.0923 69.5698 83.1765 52.06C83.2578 50.9758 82.4175 50.0542 81.3333 49.9729ZM78.3789 42.6003C78.6228 43.4948 79.4089 44.064 80.2762 44.064C80.4389 44.064 80.6015 44.064 80.7641 44.0098C81.8212 43.7388 82.4446 42.6817 82.1736 41.6246C81.7941 40.2151 81.3333 38.8056 80.7912 37.4504C80.3847 36.4475 79.2462 35.9596 78.2434 36.3662C77.2405 36.7728 76.7526 37.9112 77.1592 38.9141C77.6471 40.1067 78.0536 41.3535 78.3789 42.6003ZM63.6067 65.6396C64.6909 65.6396 65.5582 64.7722 65.5582 63.688V59.7578C65.5582 54.3639 61.1672 49.9458 55.7462 49.9458H54.9873C56.6407 48.5092 57.6978 46.4221 57.6978 44.064V40.1338C57.6978 35.797 54.1742 32.3005 49.8374 32.3005C45.5006 32.3005 42.004 35.8241 42.004 40.1338V44.064C42.004 46.4221 43.0611 48.5092 44.7145 49.9458H43.9556C38.5617 49.9458 34.1436 54.3368 34.1436 59.7578V63.688C34.1436 64.7722 35.011 65.6396 36.0952 65.6396H63.5525H63.6067ZM45.9614 40.1609C45.9614 37.9925 47.7232 36.2307 49.8916 36.2307C52.06 36.2307 53.8218 37.9925 53.8218 40.1609V44.0911C53.8218 46.2595 52.06 48.0213 49.8916 48.0213C47.7232 48.0213 45.9614 46.2595 45.9614 44.0911V40.1609ZM38.128 59.7578C38.128 56.5052 40.7572 53.876 44.0098 53.876H55.7734C59.0259 53.876 61.6551 56.5052 61.6551 59.7578V61.7093H38.128V59.7578Z" fill="#BAB1B1"/>
</svg>
