<svg width="100" height="100" viewBox="0 0 100 100" fill="none" xmlns="http://www.w3.org/2000/svg">
<path d="M35.1021 72.2516C30.2161 72.2516 25.5415 70.7012 21.5951 67.7649C21.1958 67.483 20.9844 67.0132 20.9844 66.5199V59.097C20.9844 54.4928 24.7428 50.7344 29.347 50.7344H40.8807C45.4849 50.7344 49.2433 54.4928 49.2433 59.097V66.5199C49.2433 67.0132 49.0084 67.4595 48.6326 67.7649C44.6862 70.7012 40.0116 72.2516 35.1256 72.2516M24.0616 65.7447C27.3503 67.9998 31.1557 69.1743 35.1256 69.1743C39.0955 69.1743 42.9009 67.9763 46.1896 65.7447V59.097C46.1896 56.1841 43.817 53.8116 40.9042 53.8116H29.3704C26.4576 53.8116 24.0851 56.1841 24.0851 59.097V65.7447H24.0616Z" fill="#BAB1B1"/>
<path d="M35.098 72.2585C22.5776 72.2585 12.4062 62.0871 12.4062 49.5667C12.4062 37.0463 22.5776 26.875 35.098 26.875C47.6184 26.875 57.7897 37.0463 57.7897 49.5667C57.7897 62.0871 47.6184 72.2585 35.098 72.2585ZM35.098 29.9522C24.2689 29.9522 15.4835 38.7611 15.4835 49.5667C15.4835 60.3723 24.2924 69.1812 35.098 69.1812C45.9036 69.1812 54.7125 60.3723 54.7125 49.5667C54.7125 38.7611 45.9036 29.9522 35.098 29.9522Z" fill="#BAB1B1"/>
<path d="M68.7593 7.65371C68.5948 7.65371 68.4069 7.63022 68.2425 7.55974C67.4908 7.30135 66.7391 7.04296 65.9874 6.83154C65.1652 6.59664 64.6954 5.75098 64.9538 4.92882C65.2122 4.10666 66.0344 3.63685 66.8566 3.89524C67.6787 4.13015 68.4774 4.38854 69.2761 4.67043C70.0747 4.95231 70.4976 5.82146 70.2157 6.62013C70.0043 7.25437 69.3935 7.65371 68.7593 7.65371Z" fill="#BAB1B1"/>
<path d="M53.5211 97.1311C52.8633 97.1311 52.2291 97.1311 51.5714 97.0841C50.7257 97.0371 50.068 96.3324 50.0915 95.4867C50.1385 94.6411 50.8432 93.9599 51.6888 94.0068C53.2392 94.0773 54.813 94.0538 56.3869 93.9599C57.2561 93.9129 57.9608 94.5471 58.0077 95.3928C58.0547 96.2384 57.4205 96.9666 56.5748 97.0136C55.5413 97.0841 54.5077 97.1076 53.4976 97.1076M41.9873 95.6512C41.8698 95.6512 41.7289 95.6512 41.6114 95.6042C39.9906 95.1814 38.3698 94.6881 36.8194 94.1008C36.0207 93.7954 35.6214 92.9263 35.9268 92.1276C36.2321 91.3289 37.1013 90.9296 37.9 91.235C39.3564 91.7753 40.8832 92.2685 42.3866 92.6444C43.2088 92.8558 43.7021 93.7015 43.4907 94.5236C43.3028 95.2049 42.692 95.6747 42.0108 95.6747M28.6682 89.849C28.3864 89.849 28.1045 89.7786 27.8461 89.6141C26.4366 88.698 25.0742 87.7114 23.7587 86.6778C23.101 86.1376 22.9836 85.1744 23.5238 84.5167C24.0641 83.859 25.0272 83.7415 25.685 84.2818C26.9065 85.2449 28.1749 86.1845 29.5139 87.0302C30.2186 87.5 30.43 88.4396 29.9837 89.1443C29.7018 89.6141 29.185 89.849 28.6917 89.849M17.8392 80.171C17.3928 80.171 16.9465 79.9831 16.6412 79.6072C15.5841 78.3152 14.5975 76.9528 13.6814 75.5434C13.2116 74.8387 13.423 73.8756 14.1277 73.4293C14.8324 72.9594 15.7955 73.1709 16.2653 73.8756C17.111 75.191 18.0506 76.4595 19.0372 77.681C19.5775 78.3387 19.4835 79.3019 18.8258 79.8421C18.5439 80.077 18.1915 80.1945 17.8627 80.1945M10.5571 67.6036C9.94639 67.6036 9.35913 67.2278 9.12422 66.617C8.51347 65.0667 7.99668 63.4458 7.57386 61.825C7.36244 61.0028 7.83225 60.1572 8.65441 59.9458C9.47658 59.7343 10.3222 60.2042 10.5336 61.0263C10.933 62.5532 11.4263 64.0566 11.9901 65.513C12.2954 66.3117 11.8961 67.2043 11.0974 67.4862C10.9095 67.5566 10.7216 67.5801 10.5571 67.5801M7.57386 53.345C6.75169 53.345 6.09396 52.7107 6.04698 51.8886C6 51.1134 6 50.3382 6 49.563C6 48.6469 6.02349 47.7542 6.07047 46.8616C6.11745 46.016 6.84565 45.3817 7.69131 45.4052C8.53696 45.4522 9.19469 46.1804 9.14771 47.026C9.10073 47.8717 9.07724 48.7173 9.07724 49.563C9.07724 50.2912 9.07724 51.0194 9.12422 51.7476C9.1712 52.5933 8.51347 53.3215 7.66782 53.345C7.64433 53.345 7.62084 53.345 7.59735 53.345M9.19469 38.8749C9.05375 38.8749 8.91281 38.8749 8.79536 38.8279C7.97319 38.6165 7.50338 37.7473 7.7148 36.9487C8.16112 35.3278 8.7014 33.7305 9.31215 32.1801C9.61752 31.3814 10.5102 31.0056 11.3088 31.311C12.1075 31.6163 12.4833 32.509 12.178 33.3076C11.6142 34.764 11.0974 36.2674 10.6981 37.7708C10.5102 38.452 9.89941 38.8984 9.21818 38.8984M15.2552 25.6498C14.9733 25.6498 14.668 25.5793 14.4096 25.3914C13.7049 24.9216 13.5169 23.9585 13.9867 23.2537C14.9029 21.8678 15.9129 20.5054 16.9935 19.2134C17.5338 18.5557 18.4969 18.4617 19.1546 19.002C19.8124 19.5423 19.9063 20.5054 19.366 21.1631C18.3559 22.3846 17.4163 23.6531 16.5472 24.9451C16.2653 25.3914 15.772 25.6263 15.2787 25.6263M25.1447 14.9382C24.6984 14.9382 24.252 14.7502 23.9467 14.3509C23.4299 13.6932 23.5473 12.7301 24.2051 12.1898C25.5205 11.1562 26.9065 10.1696 28.3159 9.27696C29.0206 8.83065 29.9837 9.04206 30.43 9.74677C30.8763 10.4515 30.6649 11.4146 29.9602 11.8609C28.6447 12.6831 27.3528 13.5992 26.1078 14.5858C25.8259 14.7972 25.497 14.9147 25.1682 14.9147M37.8765 7.82056C37.2422 7.82056 36.655 7.44471 36.4436 6.81047C36.1617 6.0118 36.561 5.14265 37.3597 4.83728C38.9335 4.27351 40.5544 3.75672 42.1752 3.35738C42.9974 3.14597 43.8195 3.66276 44.031 4.48492C44.2424 5.30709 43.7256 6.15274 42.9034 6.34066C41.4 6.71651 39.8732 7.18632 38.3933 7.7266C38.2288 7.79707 38.0409 7.82056 37.8765 7.82056ZM57.0211 5.16614C55.3533 5.04869 53.756 5.0252 52.2056 5.07218C51.36 5.14265 50.6553 4.43794 50.6318 3.59229C50.6083 2.74663 51.266 2.04192 52.1117 2.01843C53.7795 1.97145 55.4708 2.01843 57.1386 2.11239C57.9843 2.18286 58.6185 2.91107 58.548 3.75672C58.4776 4.55539 57.8198 5.18963 57.0211 5.18963" fill="#BAB1B1"/>
<path d="M66.1732 95.3651C65.5154 95.3651 64.8812 94.9188 64.6933 94.261C64.4584 93.4389 64.9282 92.5932 65.7504 92.3583C66.5255 92.1469 67.2772 91.912 68.0289 91.6536C68.8276 91.3717 69.6967 91.7945 69.9786 92.6167C70.2605 93.4154 69.8142 94.2845 69.0155 94.5664C68.2168 94.8483 67.4182 95.0832 66.596 95.3181C66.4551 95.3651 66.3141 95.3886 66.1732 95.3886" fill="#BAB1B1"/>
<path d="M27.8159 70.9402C26.9703 70.9402 26.2891 70.259 26.2891 69.4134V60.8394C26.2891 59.9937 26.9703 59.3125 27.8159 59.3125C28.6616 59.3125 29.3428 59.9937 29.3428 60.8394V69.4134C29.3428 70.259 28.6616 70.9402 27.8159 70.9402Z" fill="#BAB1B1"/>
<path d="M42.4058 70.9402C41.5601 70.9402 40.8789 70.259 40.8789 69.4134V60.8394C40.8789 59.9937 41.5601 59.3125 42.4058 59.3125C43.2514 59.3125 43.9327 59.9937 43.9327 60.8394V69.4134C43.9327 70.259 43.2514 70.9402 42.4058 70.9402Z" fill="#BAB1B1"/>
<path d="M35.0985 49.8649C31.0581 49.8649 27.793 46.5763 27.793 42.5594C27.793 38.5426 31.0581 35.2539 35.0985 35.2539C39.1388 35.2539 42.404 38.5426 42.404 42.5594C42.404 46.5763 39.1388 49.8649 35.0985 49.8649ZM35.0985 38.3311C32.7729 38.3311 30.8702 40.2339 30.8702 42.5594C30.8702 44.885 32.7729 46.7877 35.0985 46.7877C37.424 46.7877 39.3268 44.885 39.3268 42.5594C39.3268 40.2339 37.424 38.3311 35.0985 38.3311Z" fill="#BAB1B1"/>
<path d="M75.7159 37.5574C72.0045 37.5574 68.4339 36.3829 65.4272 34.1513C65.0278 33.8694 64.8164 33.3996 64.8164 32.9063V27.3626C64.8164 23.7216 67.7762 20.7383 71.4407 20.7383H80.0382C83.6792 20.7383 86.6625 23.6981 86.6625 27.3626V32.9063C86.6625 33.3996 86.4276 33.8459 86.0517 34.1513C83.045 36.3829 79.4744 37.5574 75.7629 37.5574M67.9171 32.1076C70.2662 33.658 72.9441 34.4802 75.7629 34.4802C78.5818 34.4802 81.2597 33.658 83.6087 32.1076V27.3626C83.6087 25.4129 82.0114 23.8155 80.0617 23.8155H71.4642C69.5145 23.8155 67.9171 25.4129 67.9171 27.3626V32.1076Z" fill="#BAB1B1"/>
<path d="M75.7108 37.5583C66.1737 37.5583 58.4219 29.8065 58.4219 20.2694C58.4219 10.7323 66.1737 2.98047 75.7108 2.98047C85.2479 2.98047 92.9997 10.7323 92.9997 20.2694C92.9997 29.8065 85.2479 37.5583 75.7108 37.5583ZM75.7108 6.03422C67.865 6.03422 61.4756 12.4236 61.4756 20.2694C61.4756 28.1152 67.865 34.4811 75.7108 34.4811C83.5566 34.4811 89.9225 28.0917 89.9225 20.2694C89.9225 12.4471 83.5331 6.03422 75.7108 6.03422Z" fill="#BAB1B1"/>
<path d="M70.2886 36.5955C69.4429 36.5955 68.7617 35.9143 68.7617 35.0686V28.6792C68.7617 27.8336 69.4429 27.1523 70.2886 27.1523C71.1342 27.1523 71.8155 27.8336 71.8155 28.6792V35.0686C71.8155 35.9143 71.1342 36.5955 70.2886 36.5955Z" fill="#BAB1B1"/>
<path d="M81.1441 36.5955C80.2984 36.5955 79.6172 35.9143 79.6172 35.0686V28.6792C79.6172 27.8336 80.2984 27.1523 81.1441 27.1523C81.9897 27.1523 82.6709 27.8336 82.6709 28.6792V35.0686C82.6709 35.9143 81.9897 36.5955 81.1441 36.5955Z" fill="#BAB1B1"/>
<path d="M75.7162 19.663C72.4981 19.663 69.8906 17.0555 69.8906 13.8373C69.8906 10.6192 72.4981 8.01172 75.7162 8.01172C78.9344 8.01172 81.5419 10.6192 81.5419 13.8373C81.5419 17.0555 78.9344 19.663 75.7162 19.663ZM75.7162 11.0655C74.1894 11.0655 72.9444 12.3105 72.9444 13.8373C72.9444 15.3642 74.1894 16.6092 75.7162 16.6092C77.2431 16.6092 78.4881 15.3642 78.4881 13.8373C78.4881 12.3105 77.2431 11.0655 75.7162 11.0655Z" fill="#BAB1B1"/>
<path d="M75.7159 96.1433C72.0045 96.1433 68.4339 94.9688 65.4272 92.7372C65.0278 92.4554 64.8164 91.9855 64.8164 91.4922V85.9485C64.8164 82.3075 67.7762 79.3242 71.4407 79.3242H80.0382C83.6792 79.3242 86.6625 82.284 86.6625 85.9485V91.4922C86.6625 91.9855 86.4276 92.4319 86.0517 92.7372C83.045 94.9688 79.4744 96.1433 75.7629 96.1433M67.9171 90.6936C70.2662 92.2439 72.9441 93.0661 75.7629 93.0661C78.5818 93.0661 81.2597 92.2439 83.6087 90.6936V85.9485C83.6087 83.9988 82.0114 82.4015 80.0617 82.4015H71.4642C69.5145 82.4015 67.9171 83.9988 67.9171 85.9485V90.6936Z" fill="#BAB1B1"/>
<path d="M75.7108 96.1482C66.1737 96.1482 58.4219 88.3963 58.4219 78.8592C58.4219 69.3221 66.1737 61.5703 75.7108 61.5703C85.2479 61.5703 92.9997 69.3221 92.9997 78.8592C92.9997 88.3963 85.2479 96.1482 75.7108 96.1482ZM75.7108 64.6241C67.865 64.6241 61.4756 71.0135 61.4756 78.8358C61.4756 86.6581 67.865 93.0474 75.7108 93.0474C83.5566 93.0474 89.9225 86.6581 89.9225 78.8358C89.9225 71.0135 83.5331 64.6241 75.7108 64.6241Z" fill="#BAB1B1"/>
<path d="M70.2886 95.1814C69.4429 95.1814 68.7617 94.5002 68.7617 93.6545V87.2652C68.7617 86.4195 69.4429 85.7383 70.2886 85.7383C71.1342 85.7383 71.8155 86.4195 71.8155 87.2652V93.6545C71.8155 94.5002 71.1342 95.1814 70.2886 95.1814Z" fill="#BAB1B1"/>
<path d="M81.1441 95.1814C80.2984 95.1814 79.6172 94.5002 79.6172 93.6545V87.2652C79.6172 86.4195 80.2984 85.7383 81.1441 85.7383C81.9897 85.7383 82.6709 86.4195 82.6709 87.2652V93.6545C82.6709 94.5002 81.9897 95.1814 81.1441 95.1814Z" fill="#BAB1B1"/>
<path d="M75.7162 78.2411C72.4981 78.2411 69.8906 75.6336 69.8906 72.4155C69.8906 69.1973 72.4981 66.5898 75.7162 66.5898C78.9344 66.5898 81.5419 69.1973 81.5419 72.4155C81.5419 75.6336 78.9344 78.2411 75.7162 78.2411ZM75.7162 69.6436C74.1894 69.6436 72.9444 70.8886 72.9444 72.4155C72.9444 73.9423 74.1894 75.1873 75.7162 75.1873C77.2431 75.1873 78.4881 73.9423 78.4881 72.4155C78.4881 70.8886 77.2431 69.6436 75.7162 69.6436Z" fill="#BAB1B1"/>
<path d="M79.9474 51.0889H56.2691C55.4234 51.0889 54.7422 50.4077 54.7422 49.562C54.7422 48.7164 55.4234 48.0352 56.2691 48.0352H79.9474C80.793 48.0352 81.4743 48.7164 81.4743 49.562C81.4743 50.4077 80.793 51.0889 79.9474 51.0889Z" fill="#BAB1B1"/>
<path d="M84.8543 56.0212C81.3073 56.0212 78.418 53.1319 78.418 49.5849C78.418 46.0378 81.3073 43.125 84.8543 43.125C88.4014 43.125 91.2907 46.0143 91.2907 49.5849C91.2907 53.1554 88.4014 56.0212 84.8543 56.0212ZM84.8543 46.2022C82.9986 46.2022 81.4717 47.7291 81.4717 49.5849C81.4717 51.4406 82.9986 52.9675 84.8543 52.9675C86.7101 52.9675 88.237 51.4406 88.237 49.5849C88.237 47.7291 86.7336 46.2022 84.8543 46.2022Z" fill="#BAB1B1"/>
<path d="M75.7144 64.6499C74.8687 64.6499 74.1875 63.9687 74.1875 63.123V36.0386C74.1875 35.1929 74.8687 34.5117 75.7144 34.5117C76.56 34.5117 77.2412 35.1929 77.2412 36.0386V63.123C77.2412 63.9687 76.56 64.6499 75.7144 64.6499Z" fill="#BAB1B1"/>
</svg>
