<svg width="100" height="100" viewBox="0 0 100 100" fill="none" xmlns="http://www.w3.org/2000/svg">
<path d="M49.5185 78.373C33.6088 78.373 20.6641 65.4282 20.6641 49.5185C20.6641 33.6088 33.6088 20.6641 49.5185 20.6641C65.4282 20.6641 78.373 33.6088 78.373 49.5185C78.373 65.4282 65.4282 78.373 49.5185 78.373ZM49.5185 23.8219C35.3444 23.8219 23.8219 35.3444 23.8219 49.5185C23.8219 63.6926 35.3444 75.2151 49.5185 75.2151C63.6926 75.2151 75.2151 63.6926 75.2151 49.5185C75.2151 35.3444 63.6926 23.8219 49.5185 23.8219Z" fill="#BAB1B1"/>
<path d="M10.9531 95.3974C9.00056 95.3974 7.16853 94.6261 5.7704 93.252C4.39638 91.878 3.625 90.0219 3.625 88.0693C3.625 86.1168 4.39638 84.2847 5.7704 82.8866L21.2221 67.4349C21.8489 66.8082 22.8372 66.8082 23.4398 67.4349L31.5634 75.5585C31.8527 75.8478 32.0214 76.2576 32.0214 76.6674C32.0214 77.0772 31.8527 77.487 31.5634 77.7762L16.1117 93.2279C14.7377 94.602 12.9057 95.3733 10.929 95.3733M22.3069 70.7856L7.98812 85.1043C7.19264 85.8998 6.75874 86.9364 6.75874 88.0452C6.75874 89.1541 7.19264 90.2147 7.98812 90.9861C9.55499 92.553 12.303 92.553 13.894 90.9861L28.2127 76.6674L22.3069 70.7856Z" fill="#BAB1B1"/>
<path d="M31.7747 79.5824C31.3649 79.5824 30.9792 79.4378 30.6658 79.1244L19.9388 68.3974C19.3121 67.7707 19.3121 66.7823 19.9388 66.1797L24.543 61.5755C25.1697 60.9488 26.1581 60.9488 26.7607 61.5755C27.3875 62.2023 27.3875 63.1906 26.7607 63.7933L23.2895 67.2886L31.7988 75.7979L35.2941 72.3266C35.9208 71.6999 36.9092 71.6999 37.5118 72.3266C38.1386 72.9534 38.1386 73.9417 37.5118 74.5444L32.9076 79.1485C32.5943 79.4619 32.1845 79.6065 31.7988 79.6065" fill="#BAB1B1"/>
<path d="M49.4956 72.7608C43.5416 72.7608 37.5875 70.4949 33.0556 65.963C23.9919 56.8993 23.9919 42.1467 33.0556 33.0829C42.1193 24.0192 56.872 24.0192 65.9357 33.0829C74.9994 42.1467 74.9994 56.8993 65.9357 65.963C61.4038 70.4949 55.4497 72.7608 49.4956 72.7608ZM49.4956 29.443C44.1201 29.443 39.082 31.5402 35.2974 35.3248C31.5128 39.1094 29.4157 44.1715 29.4157 49.523C29.4157 54.8744 31.5128 59.9366 35.2974 63.7212C43.1318 71.5555 55.8836 71.5555 63.718 63.7212C71.5523 55.8869 71.5523 43.135 63.718 35.3007C59.9334 31.5161 54.8712 29.4189 49.5197 29.4189" fill="#BAB1B1"/>
<path d="M49.4966 50.5166C47.3512 50.5166 45.3263 49.6729 43.8077 48.1543C42.289 46.6356 41.4453 44.6107 41.4453 42.4653C41.4453 40.3199 42.289 38.2951 43.8077 36.7764C45.3263 35.2578 47.3512 34.4141 49.4966 34.4141C51.642 34.4141 53.6669 35.2578 55.1855 36.7764C56.7042 38.2951 57.5479 40.3199 57.5479 42.4653C57.5479 44.6107 56.7042 46.6356 55.1855 48.1543C53.6669 49.6729 51.642 50.5166 49.4966 50.5166ZM49.4966 37.5719C48.1949 37.5719 46.9655 38.0781 46.0495 38.9941C45.1335 39.9101 44.6032 41.1395 44.6032 42.4653C44.6032 43.7912 45.1094 44.9964 46.0495 45.9366C47.9056 47.7927 51.1117 47.7927 52.9678 45.9366C53.8838 45.0205 54.4141 43.7912 54.4141 42.4653C54.4141 41.1395 53.9079 39.9343 52.9678 38.9941C52.0518 38.0781 50.8224 37.5719 49.5207 37.5719" fill="#BAB1B1"/>
<path d="M49.4967 72.7912C44.1934 72.7912 38.8661 70.9592 34.5271 67.3193C34.1655 67.03 33.9727 66.572 33.9727 66.114V61.4134C33.9727 56.3753 38.0706 52.2773 43.1087 52.2773H55.8847C60.9228 52.2773 65.0207 56.3753 65.0207 61.4134V66.114C65.0207 66.572 64.8279 67.03 64.4663 67.3193C60.1273 70.9833 54.824 72.7912 49.4967 72.7912ZM37.1305 65.3667C44.4104 71.0797 54.583 71.0797 61.8629 65.3667V61.4134C61.8629 58.1109 59.1872 55.4352 55.8847 55.4352H43.1087C39.8062 55.4352 37.1305 58.1109 37.1305 61.4134V65.3667Z" fill="#BAB1B1"/>
<path d="M41.4497 71.1271C40.5819 71.1271 39.8828 70.428 39.8828 69.5602V63.3169C39.8828 62.4491 40.5819 61.75 41.4497 61.75C42.3175 61.75 43.0166 62.4491 43.0166 63.3169V69.5602C43.0166 70.428 42.3175 71.1271 41.4497 71.1271Z" fill="#BAB1B1"/>
<path d="M57.5708 71.1271C56.703 71.1271 56.0039 70.428 56.0039 69.5602V63.3169C56.0039 62.4491 56.703 61.75 57.5708 61.75C58.4386 61.75 59.1376 62.4491 59.1376 63.3169V69.5602C59.1376 70.428 58.4386 71.1271 57.5708 71.1271Z" fill="#BAB1B1"/>
<path d="M10.1594 72.7858C9.60494 72.7858 9.07462 72.4966 8.78535 71.9662C5.00077 65.1202 3 57.3582 3 49.4998C3 23.8514 23.8514 3 49.4998 3C50.3676 3 51.0666 3.69906 51.0666 4.56687C51.0666 5.43467 50.3676 6.13373 49.4998 6.13373C25.587 6.13373 6.13373 25.587 6.13373 49.4757C6.13373 56.7797 7.98986 64.0355 11.5093 70.3994C11.9191 71.1466 11.6539 72.1109 10.8825 72.5448C10.6415 72.6894 10.3763 72.7376 10.1112 72.7376" fill="#BAB1B1"/>
<path d="M91.564 66.9467C91.3712 66.9467 91.2024 66.9226 91.0096 66.8503C90.19 66.5369 89.7802 65.6209 90.0936 64.8254C90.3828 64.0781 90.648 63.3067 90.8891 62.5354C91.1542 61.7158 92.0461 61.2337 92.8657 61.4988C93.7094 61.764 94.1674 62.6318 93.9023 63.4755C93.6371 64.3192 93.3478 65.1388 93.0586 65.9343C92.8175 66.561 92.2149 66.9467 91.5881 66.9467" fill="#BAB1B1"/>
<path d="M94.2669 55.1423C94.2669 55.1423 94.1705 55.1423 94.1222 55.1423C93.2544 55.07 92.6277 54.2986 92.7 53.4308C92.8205 52.1291 92.8688 50.8274 92.8688 49.5257V48.8025C92.8688 47.9347 93.5437 47.2115 94.4115 47.2115C95.3034 47.2115 96.0025 47.9106 96.0025 48.7543V49.5257C96.0025 50.9238 95.9543 52.3219 95.8337 53.7201C95.7614 54.5396 95.0624 55.1423 94.2669 55.1423ZM93.2544 40.8235C92.5313 40.8235 91.8804 40.3414 91.7117 39.5941C91.3501 38.0996 90.9162 36.605 90.41 35.1346C90.1207 34.315 90.5546 33.4231 91.3742 33.1338C92.1938 32.8446 93.0857 33.2785 93.375 34.0981C93.9294 35.6649 94.3874 37.2559 94.7731 38.871C94.9659 39.7147 94.4356 40.5584 93.5919 40.7753C93.4714 40.7994 93.3509 40.8235 93.2303 40.8235M87.7584 27.5413C87.228 27.5413 86.7218 27.2762 86.4084 26.7941C85.613 25.4924 84.721 24.1906 83.7568 22.9854C83.2265 22.2863 83.347 21.298 84.0461 20.7676C84.7452 20.2373 85.7335 20.3579 86.2638 21.0569C87.2762 22.3586 88.2405 23.7326 89.0842 25.1549C89.5422 25.9021 89.3011 26.8664 88.5779 27.3244C88.3128 27.4931 88.0235 27.5654 87.7584 27.5654M78.3813 16.6938C78.0197 16.6938 77.6581 16.5733 77.3688 16.3322C76.1877 15.3439 74.9583 14.4038 73.6807 13.536C72.9575 13.0538 72.7646 12.0655 73.2468 11.3423C73.7289 10.6192 74.7172 10.4263 75.4404 10.9084C76.8144 11.8245 78.1402 12.8369 79.4178 13.8975C80.0928 14.452 80.1651 15.4644 79.6107 16.1153C79.2973 16.4768 78.8634 16.6697 78.4054 16.6697M66.0874 9.29337C65.8945 9.29337 65.7017 9.24515 65.5089 9.17284C64.0625 8.5943 62.5921 8.11219 61.1216 7.70239C60.2779 7.46134 59.7958 6.59354 60.0128 5.77394C60.2297 4.95435 61.0975 4.44813 61.9412 4.68919C63.5322 5.12309 65.1232 5.65342 66.6418 6.28016C67.4614 6.59354 67.8471 7.50955 67.5337 8.32914C67.2927 8.95589 66.69 9.31747 66.0633 9.31747" fill="#BAB1B1"/>
<path d="M52.0355 6.23339C51.1436 6.18518 50.324 6.16108 49.5044 6.16108C48.6366 6.16108 47.9375 5.46201 47.9375 4.59421C47.9375 3.72641 48.6366 3.02734 49.5044 3.02734C50.3722 3.02734 51.24 3.05145 52.1078 3.09966C52.9756 3.14787 53.6505 3.89515 53.6023 4.76295C53.5541 5.60665 52.8551 6.2575 52.0355 6.2575" fill="#BAB1B1"/>
<path d="M49.4958 96.0278C41.6373 96.0278 33.8753 94.0271 27.0293 90.2425C26.2579 89.8086 25.9928 88.8684 26.4026 88.0971C26.8365 87.3257 27.7766 87.0605 28.548 87.4703C34.9359 90.9897 42.1676 92.8459 49.4717 92.8459C67.4304 92.8459 83.7258 81.5644 90.0655 64.7869C90.3789 63.9673 91.2949 63.5575 92.0904 63.8709C92.91 64.1843 93.3198 65.0762 93.0064 65.8958C86.2086 83.9027 68.7321 96.0037 49.4717 96.0037" fill="#BAB1B1"/>
</svg>
