<svg width="100" height="100" viewBox="0 0 100 100" fill="none" xmlns="http://www.w3.org/2000/svg">
<path d="M73.6193 87.2736H10.1855C6.7937 87.2736 4.02734 84.5072 4.02734 81.1154V28.5305C4.02734 27.6645 4.72495 26.9669 5.59094 26.9669H17.4021C19.0619 26.9669 20.4331 25.6198 20.4331 23.936V13.087C20.4331 12.221 21.1307 11.5234 21.9967 11.5234H52.7153C53.5813 11.5234 54.2789 12.221 54.2789 13.087C54.2789 13.953 53.5813 14.6506 52.7153 14.6506H23.5843V23.936C23.5843 27.3278 20.8179 30.0941 17.4021 30.0941H7.15453V81.0914C7.15453 82.7512 8.50163 84.1223 10.1855 84.1223H73.5953C75.2551 84.1223 76.6263 82.7752 76.6263 81.0914V17.6816C76.6263 16.0218 75.2792 14.6506 73.5953 14.6506H67.9182C67.0522 14.6506 66.3546 13.953 66.3546 13.087C66.3546 12.221 67.0522 11.5234 67.9182 11.5234H73.5953C76.9871 11.5234 79.7534 14.2898 79.7534 17.6816V81.0914C79.7534 84.4832 76.9871 87.2495 73.5953 87.2495" fill="#BAB1B1"/>
<path d="M81.4621 97.1331C81.2215 97.1331 80.981 97.1331 80.7404 97.085L17.7636 89.6038C15.8151 89.3632 14.0591 88.1845 13.0969 86.4525C12.8323 85.9714 12.8323 85.37 13.0969 84.8889C13.3856 84.4078 13.8907 84.1192 14.444 84.1192H73.596C75.2558 84.1192 76.627 82.7721 76.627 81.0882V22.0805C76.627 21.6235 76.8194 21.2145 77.1562 20.9018C77.4929 20.6132 77.95 20.4688 78.383 20.5169L89.6409 21.864C93.0086 22.273 95.4382 25.328 95.0293 28.7198L87.5481 91.6966C87.1632 94.8238 84.493 97.1331 81.414 97.1331M24.6675 87.2704L81.0531 93.9578C82.6889 94.1502 84.2284 92.9715 84.4209 91.3117L91.9021 28.3349C92.0945 26.6751 90.9158 25.1837 89.256 24.9672L79.7541 23.8366V81.0882C79.7541 84.48 76.9878 87.2463 73.596 87.2463H24.6916L24.6675 87.2704Z" fill="#BAB1B1"/>
<path d="M67.938 34.8011C67.072 34.8011 66.3744 34.1035 66.3744 33.2375V12.0929C66.3744 8.82138 63.7043 6.15125 60.4328 6.15125C57.1612 6.15125 54.4911 8.82138 54.4911 12.0929V29.4849C54.4911 30.6877 55.4774 31.6739 56.6801 31.6739C57.8829 31.6739 58.8692 30.6877 58.8692 29.4849V18.4194C58.8692 17.5535 59.5668 16.8559 60.4328 16.8559C61.2987 16.8559 61.9963 17.5535 61.9963 18.4194V29.4849C61.9963 32.4196 59.6149 34.8011 56.6561 34.8011C53.6973 34.8011 51.3398 32.4196 51.3398 29.4849V12.0929C51.3398 7.0894 55.4052 3 60.4328 3C65.4603 3 69.5257 7.06535 69.5257 12.0929V33.2375C69.5257 34.1035 68.8281 34.8011 67.9621 34.8011" fill="#BAB1B1"/>
<path d="M5.58834 30.1103C5.1794 30.1103 4.74641 29.9419 4.43369 29.6051C3.83231 28.9797 3.85636 27.9693 4.50586 27.392L20.9116 11.9485C21.537 11.3471 22.5473 11.3952 23.1247 12.0207C23.726 12.6461 23.6779 13.6564 23.0525 14.2338L6.64678 29.6773C6.33406 29.9659 5.94917 30.1103 5.56429 30.1103" fill="#BAB1B1"/>
<path d="M44.4148 38.2913H19.1808C18.3148 38.2913 17.6172 37.5936 17.6172 36.7277C17.6172 35.8617 18.3148 35.1641 19.1808 35.1641H44.4148C45.2808 35.1641 45.9784 35.8617 45.9784 36.7277C45.9784 37.5936 45.2808 38.2913 44.4148 38.2913Z" fill="#BAB1B1"/>
<path d="M21.7066 46.9553H19.1808C18.3148 46.9553 17.6172 46.2577 17.6172 45.3917C17.6172 44.5257 18.3148 43.8281 19.1808 43.8281H21.7066C22.5726 43.8281 23.2702 44.5257 23.2702 45.3917C23.2702 46.2577 22.5726 46.9553 21.7066 46.9553Z" fill="#BAB1B1"/>
<path d="M54.4957 46.9553H49.0351C48.1691 46.9553 47.4715 46.2577 47.4715 45.3917C47.4715 44.5257 48.1691 43.8281 49.0351 43.8281H54.4957C55.3616 43.8281 56.0593 44.5257 56.0593 45.3917C56.0593 46.2577 55.3616 46.9553 54.4957 46.9553ZM38.114 46.9553H32.6534C31.7875 46.9553 31.0898 46.2577 31.0898 45.3917C31.0898 44.5257 31.7875 43.8281 32.6534 43.8281H38.114C38.98 43.8281 39.6776 44.5257 39.6776 45.3917C39.6776 46.2577 38.98 46.9553 38.114 46.9553Z" fill="#BAB1B1"/>
<path d="M67.9449 46.9553H65.4191C64.5531 46.9553 63.8555 46.2577 63.8555 45.3917C63.8555 44.5257 64.5531 43.8281 65.4191 43.8281H67.9449C68.8109 43.8281 69.5085 44.5257 69.5085 45.3917C69.5085 46.2577 68.8109 46.9553 67.9449 46.9553Z" fill="#BAB1B1"/>
<path d="M67.9409 55.592H19.1808C18.3148 55.592 17.6172 54.8944 17.6172 54.0284C17.6172 53.1625 18.3148 52.4648 19.1808 52.4648H67.9168C68.7828 52.4648 69.4804 53.1625 69.4804 54.0284C69.4804 54.8944 68.7828 55.592 67.9168 55.592" fill="#BAB1B1"/>
<path d="M21.7066 64.2444H19.1808C18.3148 64.2444 17.6172 63.5468 17.6172 62.6808C17.6172 61.8148 18.3148 61.1172 19.1808 61.1172H21.7066C22.5726 61.1172 23.2702 61.8148 23.2702 62.6808C23.2702 63.5468 22.5726 64.2444 21.7066 64.2444Z" fill="#BAB1B1"/>
<path d="M54.4957 64.2444H49.0351C48.1691 64.2444 47.4715 63.5468 47.4715 62.6808C47.4715 61.8148 48.1691 61.1172 49.0351 61.1172H54.4957C55.3616 61.1172 56.0593 61.8148 56.0593 62.6808C56.0593 63.5468 55.3616 64.2444 54.4957 64.2444ZM38.114 64.2444H32.6534C31.7875 64.2444 31.0898 63.5468 31.0898 62.6808C31.0898 61.8148 31.7875 61.1172 32.6534 61.1172H38.114C38.98 61.1172 39.6776 61.8148 39.6776 62.6808C39.6776 63.5468 38.98 64.2444 38.114 64.2444Z" fill="#BAB1B1"/>
<path d="M67.9449 64.2444H65.4191C64.5531 64.2444 63.8555 63.5468 63.8555 62.6808C63.8555 61.8148 64.5531 61.1172 65.4191 61.1172H67.9449C68.8109 61.1172 69.5085 61.8148 69.5085 62.6808C69.5085 63.5468 68.8109 64.2444 67.9449 64.2444Z" fill="#BAB1B1"/>
<path d="M67.9409 72.9084H19.1808C18.3148 72.9084 17.6172 72.2108 17.6172 71.3448C17.6172 70.4789 18.3148 69.7812 19.1808 69.7812H67.9168C68.7828 69.7812 69.4804 70.4789 69.4804 71.3448C69.4804 72.2108 68.7828 72.9084 67.9168 72.9084" fill="#BAB1B1"/>
</svg>
