<svg width="100" height="100" viewBox="0 0 100 100" fill="none" xmlns="http://www.w3.org/2000/svg">
<path d="M45.8881 85.2689H13.5624C12.7004 85.2689 12 84.5685 12 83.7065V4.53547C12 3.67345 12.7004 3 13.5624 3H72.476C73.338 3 74.0115 3.70039 74.0115 4.53547V48.2021C74.0115 49.0641 73.3111 49.7645 72.476 49.7645C71.6409 49.7645 70.9405 49.0641 70.9405 48.2021V6.07094H15.1248V82.171H45.8881C46.7501 82.171 47.4236 82.8714 47.4236 83.7065C47.4236 84.5416 46.7232 85.2689 45.8881 85.2689Z" fill="#BAB1B1"/>
<path d="M49.1767 91.7314H20.1644C19.3024 91.7314 18.6289 91.031 18.6289 90.1959V83.7308C18.6289 82.8688 19.3293 82.1953 20.1644 82.1953C20.9995 82.1953 21.7268 82.8957 21.7268 83.7308V88.6335H49.1767C50.0387 88.6335 50.7391 89.3339 50.7391 90.1959C50.7391 91.0579 50.0387 91.7314 49.1767 91.7314Z" fill="#BAB1B1"/>
<path d="M79.1115 56.1251C78.2494 56.1251 77.5491 55.4247 77.5491 54.5627V12.5393H72.4847C71.6227 12.5393 70.9492 11.8389 70.9492 11.0038C70.9492 10.1687 71.6496 9.44141 72.4847 9.44141H79.0845C79.9465 9.44141 80.6469 10.1418 80.6469 11.0038V54.5896C80.6469 55.4516 79.9465 56.152 79.0845 56.152" fill="#BAB1B1"/>
<path d="M47.3244 14.4221H38.7581C37.8961 14.4221 37.2227 13.7217 37.2227 12.8866C37.2227 12.0515 37.923 11.3242 38.7581 11.3242H47.3244C48.1865 11.3242 48.8868 12.0246 48.8868 12.8866C48.8868 13.7486 48.1865 14.4221 47.3244 14.4221Z" fill="#BAB1B1"/>
<path d="M61.7798 21.5041H24.3089C23.4469 21.5041 22.7734 20.8037 22.7734 19.9417C22.7734 19.0797 23.4738 18.4062 24.3089 18.4062H61.7798C62.6418 18.4062 63.3422 19.1066 63.3422 19.9417C63.3422 20.7768 62.6418 21.5041 61.7798 21.5041Z" fill="#BAB1B1"/>
<path d="M61.7798 28.5627H24.3089C23.4469 28.5627 22.7734 27.8623 22.7734 27.0003C22.7734 26.1383 23.4738 25.4648 24.3089 25.4648H61.7798C62.6418 25.4648 63.3422 26.1652 63.3422 27.0003C63.3422 27.8354 62.6418 28.5627 61.7798 28.5627Z" fill="#BAB1B1"/>
<path d="M61.7798 35.6252H24.3089C23.4469 35.6252 22.7734 34.9248 22.7734 34.0628C22.7734 33.2008 23.4738 32.5273 24.3089 32.5273H61.7798C62.6418 32.5273 63.3422 33.2277 63.3422 34.0628C63.3422 34.8979 62.6418 35.6252 61.7798 35.6252Z" fill="#BAB1B1"/>
<path d="M61.7798 42.6838H24.3089C23.4469 42.6838 22.7734 41.9834 22.7734 41.1214C22.7734 40.2594 23.4738 39.5859 24.3089 39.5859H61.7798C62.6418 39.5859 63.3422 40.2863 63.3422 41.1214C63.3422 41.9565 62.6418 42.6838 61.7798 42.6838Z" fill="#BAB1B1"/>
<path d="M47.9141 49.7346H24.3163C23.4543 49.7346 22.7539 49.0342 22.7539 48.1991C22.7539 47.364 23.4543 46.6367 24.3163 46.6367H47.9141C48.7761 46.6367 49.4765 47.3371 49.4765 48.1991C49.4765 49.0611 48.7761 49.7346 47.9141 49.7346Z" fill="#BAB1B1"/>
<path d="M50.2307 56.8283H24.3163C23.4543 56.8283 22.7539 56.128 22.7539 55.2659C22.7539 54.4039 23.4543 53.7305 24.3163 53.7305H50.2307C51.0928 53.7305 51.7662 54.4309 51.7662 55.2659C51.7662 56.101 51.0658 56.8283 50.2307 56.8283Z" fill="#BAB1B1"/>
<path d="M40.9597 63.8791H24.2851C23.423 63.8791 22.7227 63.1787 22.7227 62.3167C22.7227 61.4547 23.423 60.7812 24.2851 60.7812H40.9597C41.8218 60.7812 42.4952 61.4816 42.4952 62.3167C42.4952 63.1518 41.7948 63.8791 40.9597 63.8791Z" fill="#BAB1B1"/>
<path d="M35.1919 70.9377H24.3089C23.4469 70.9377 22.7734 70.2373 22.7734 69.3753C22.7734 68.5133 23.4738 67.8398 24.3089 67.8398H35.1919C36.0539 67.8398 36.7543 68.5402 36.7543 69.3753C36.7543 70.2104 36.0539 70.9377 35.1919 70.9377Z" fill="#BAB1B1"/>
<path d="M62.5437 65.9857C62.0049 65.9857 61.4662 65.6894 61.1698 65.1776L50.9334 46.4017C50.5293 45.6475 50.7987 44.7046 51.5529 44.3006C52.3072 43.8965 53.25 44.1659 53.6541 44.9201L63.8906 63.696C64.2947 64.4502 64.0253 65.3931 63.271 65.7971C63.0286 65.9318 62.7861 65.9857 62.5437 65.9857Z" fill="#BAB1B1"/>
<path d="M70.6483 80.856C70.0557 80.856 69.5169 80.5327 69.2476 79.967C67.335 75.9263 69.2476 72.4513 71.0794 70.5656L65.9881 61.2181C65.584 60.4639 65.8534 59.521 66.6076 59.117C67.3619 58.7129 68.3047 58.9823 68.7088 59.7365L74.3927 70.1616C74.7699 70.835 74.5813 71.697 73.9348 72.155C73.8001 72.2627 70.2712 74.9296 72.0222 78.6471C72.3724 79.4283 72.0491 80.3442 71.2679 80.6944C71.0524 80.8021 70.8369 80.8291 70.6214 80.8291" fill="#BAB1B1"/>
<path d="M61.9778 97.8231C61.4391 97.8231 60.9003 97.5268 60.604 97.015C59.2032 94.4558 57.4253 92.1122 55.351 90.0919C53.2229 88.0446 51.445 85.674 50.0173 83.088L45.7341 75.222C45.3301 74.4678 45.5995 73.5249 46.3537 73.1209C47.108 72.7168 48.0508 72.9862 48.4549 73.7404L52.7381 81.6064C54.0041 83.923 55.6204 86.0511 57.5061 87.8829C59.8228 90.1457 61.7892 92.7049 63.3247 95.5603C63.7288 96.3146 63.4594 97.2574 62.7051 97.6615C62.4627 97.7962 62.2203 97.85 61.9778 97.85" fill="#BAB1B1"/>
<path d="M85.4404 95.1546C84.9016 95.1546 84.3628 94.8582 84.0665 94.3464L77.5744 82.4667C77.3859 82.1165 77.332 81.7124 77.4397 81.3353L79.3793 73.7118C79.8642 71.7992 79.6217 69.7789 78.6789 68.0279L72.995 57.6298C72.3485 56.4445 70.9746 55.9058 69.8432 56.3907C69.2236 56.66 68.7387 57.1719 68.5232 57.8184C68.3077 58.4649 68.3616 59.1383 68.6849 59.731C69.0889 60.4852 68.8196 61.4281 68.0653 61.8321C67.311 62.2362 66.3682 61.9668 65.9641 61.2126L56.3742 43.622C55.997 42.8947 55.1889 42.5445 54.5154 42.76C54.0575 42.9216 53.7342 43.2179 53.5726 43.6489C53.411 44.08 53.4379 44.5379 53.6534 44.915C54.0575 45.6693 53.7881 46.6121 53.0338 47.0162C52.2796 47.4203 51.3367 47.1509 50.9327 46.3966C50.2862 45.1844 50.1784 43.7836 50.6902 42.5175C51.1751 41.2515 52.2257 40.2547 53.5457 39.8237C55.6468 39.1233 57.9905 40.0931 59.1219 42.1404L66.3682 55.3939C66.9339 54.5858 67.7151 53.9662 68.631 53.5622C71.2171 52.4308 74.3419 53.5622 75.7427 56.1482L81.4266 66.5463C82.7465 68.9707 83.0967 71.7992 82.4233 74.4661L80.6184 81.4969L86.8142 92.8648C87.2183 93.6191 86.9489 94.5619 86.1946 94.966C85.9522 95.1007 85.7097 95.1546 85.4673 95.1546" fill="#BAB1B1"/>
<path d="M59.6622 70.1612C58.0189 70.1612 56.4296 69.2992 55.5945 67.7637L53.197 63.3998C52.6044 62.3223 52.4697 61.0831 52.8199 59.8978C53.1701 58.7125 53.9513 57.7428 55.0288 57.1501C56.1063 56.5575 57.3455 56.4228 58.5308 56.773C59.716 57.1232 60.6858 57.9044 61.2784 58.9819L63.6759 63.3459C64.8881 65.5818 64.0531 68.3833 61.8441 69.5955C61.1438 69.9727 60.3895 70.1612 59.6352 70.1612M57.2377 59.6554C56.9953 59.6554 56.7528 59.7093 56.5104 59.844C56.1602 60.0325 55.8908 60.3558 55.7831 60.7598C55.6753 61.137 55.7023 61.568 55.8908 61.9182L58.2883 66.2822C58.6924 67.0095 59.6083 67.2789 60.3356 66.9017C61.0629 66.5246 61.3323 65.5818 60.9282 64.8544L58.5308 60.4905C58.3422 60.1403 58.0189 59.8709 57.6418 59.7631C57.5071 59.7093 57.3455 59.7093 57.2108 59.7093" fill="#BAB1B1"/>
<path d="M54.2938 73.0948C53.8628 73.0948 53.4049 73.0409 53.0008 72.9063C51.8155 72.5561 50.8458 71.7749 50.2531 70.6973L47.8556 66.3334C46.6434 64.0975 47.4516 61.296 49.6874 60.0837C50.7649 59.4911 52.0041 59.3564 53.1894 59.7066C54.3746 60.0568 55.3444 60.838 55.937 61.9155L58.3345 66.2795C59.5468 68.5154 58.7386 71.3169 56.5028 72.5291C55.8293 72.9063 55.075 73.0948 54.2938 73.0948ZM51.8963 62.589C51.6539 62.589 51.4115 62.6429 51.169 62.7775C50.8188 62.9661 50.5494 63.2894 50.4417 63.6665C50.3339 64.0436 50.3609 64.4746 50.5494 64.8248L52.9469 69.1888C53.1355 69.539 53.4587 69.8084 53.8359 69.9161C54.213 70.0239 54.644 69.9969 54.9942 69.8084C55.7215 69.4043 55.9909 68.4884 55.5869 67.7611L53.1894 63.3971C53.0008 63.0469 52.6775 62.7775 52.3004 62.6698C52.1657 62.6159 52.0041 62.6159 51.8694 62.6159" fill="#BAB1B1"/>
<path d="M49.7997 77.6222C48.1565 77.6222 46.5671 76.7602 45.732 75.2247L43.3346 70.8607C42.1223 68.6249 42.9574 65.8233 45.1663 64.6111C46.2439 64.0184 47.483 63.8838 48.6683 64.2339C49.8536 64.5841 50.8233 65.3653 51.416 66.4429L53.8135 70.8068C54.4061 71.8844 54.5408 73.1235 54.1906 74.3088C53.8404 75.4941 53.0592 76.4638 51.9817 77.0565C51.2813 77.4336 50.527 77.6222 49.7728 77.6222M47.3753 67.1163C47.1328 67.1163 46.8904 67.1702 46.6479 67.3049C46.2977 67.4935 46.0284 67.8167 45.9206 68.2208C45.8129 68.5979 45.8398 69.0289 46.0284 69.3791L48.4259 73.7431C48.8299 74.4704 49.7458 74.7398 50.4731 74.3357C50.8233 74.1472 51.0927 73.8239 51.2005 73.4468C51.3082 73.0696 51.2813 72.6386 51.0658 72.2884L48.6683 67.9245C48.4797 67.5743 48.1565 67.3049 47.7793 67.1971C47.6446 67.1433 47.483 67.1433 47.3483 67.1433" fill="#BAB1B1"/>
</svg>
