<svg width="100" height="100" viewBox="0 0 100 100" fill="none" xmlns="http://www.w3.org/2000/svg">
<path d="M80.0855 82.6254V3H9V11.1913H11.7232V5.72317H77.3188V82.6254H30.8507V83.9979C30.8507 89.2699 26.559 93.5616 21.2869 93.5616C16.0149 93.5616 11.7232 89.2699 11.7232 83.9979V13.9145H9V83.9761C9 90.7513 14.5117 96.2848 21.3087 96.2848H66.4044V93.5616H29.0207C31.4825 91.5792 33.1599 88.6599 33.5303 85.3703H88.1679C87.5144 89.9888 83.5058 93.5616 78.6913 93.5616H74.5956V96.2848H78.6913C85.4665 96.2848 91 90.7731 91 83.9761V82.6036H80.0638L80.0855 82.6254Z" fill="#BAB1B1"/>
<path d="M59.6716 31.2585L56.0553 34.8748C52.3518 31.4545 47.4283 29.5156 42.3741 29.5156C31.2636 29.5156 22.2227 38.5565 22.2227 49.6671C22.2227 60.7776 31.2636 69.8185 42.3741 69.8185C48.8225 69.8185 54.7264 66.8339 58.5606 61.649C62.2423 56.6602 63.4405 50.4731 61.872 44.5475L67.4054 39.014L59.6716 31.2802V31.2585ZM63.5277 38.9922L44.2041 58.3158L32.6143 46.726L36.4703 42.87L44.2041 50.6038L59.6716 35.1362L63.5277 38.9922ZM56.3385 60.0151C53.0271 64.5029 47.9293 67.0735 42.3523 67.0735C32.745 67.0735 24.9458 59.2744 24.9458 49.6671C24.9458 40.0597 32.7668 32.2606 42.3523 32.2606C46.7747 32.2606 50.8922 33.8727 54.0946 36.8137L44.1823 46.726L36.4485 38.9922L28.7147 46.726L44.1823 62.1936L59.5409 46.835C60.3034 51.4535 59.1924 56.1373 56.3385 60.0151Z" fill="#BAB1B1"/>
<path d="M74.6161 8.47266H71.8711V11.2176H74.6161V8.47266Z" fill="#BAB1B1"/>
<path d="M74.6161 13.918H71.8711V16.6629H74.6161V13.918Z" fill="#BAB1B1"/>
<path d="M71.9012 93.5625H69.1562V96.3074H71.9012V93.5625Z" fill="#BAB1B1"/>
</svg>
