<svg width="100" height="100" viewBox="0 0 100 100" fill="none" xmlns="http://www.w3.org/2000/svg">
<path d="M94.653 83.4091L72.6018 61.3579C71.8377 60.5938 70.5823 60.5938 69.8181 61.3579L67.0072 64.1689L64.1143 61.2761C69.7636 54.9718 73.2295 46.6754 73.2295 37.5875C73.2295 31.6653 71.7558 26.0707 69.1905 21.1583C69.1905 21.1037 69.1905 21.0491 69.1359 21.0218C69.1359 20.9945 69.0813 20.9673 69.0813 20.94C63.0773 9.69607 51.2603 2 37.6421 2C18.0198 2 2.02729 17.9652 2.02729 37.6148C2.02729 57.2643 17.9925 73.2295 37.6421 73.2295C46.7572 73.2295 55.0537 69.7636 61.3306 64.1143L64.2235 67.0072L61.4398 69.7909C61.0577 70.1729 60.8667 70.6642 60.8667 71.1827C60.8667 71.7012 61.085 72.2198 61.4398 72.5745L83.4909 94.6257C84.992 96.1267 86.9569 96.9454 89.0856 96.9454C91.2143 96.9454 93.1793 96.1267 94.6803 94.6257C96.1813 93.1247 97 91.1324 97 89.031C97 86.9296 96.1813 84.9374 94.6803 83.4364M69.1905 35.6225H45.6383L66.4887 24.6515C68.0169 28.0356 68.9448 31.7472 69.1905 35.6225ZM39.607 6.03907C50.1959 6.69405 59.393 12.5889 64.6329 21.1583L39.607 34.3126V6.03907ZM60.1298 59.8296C60.1298 59.8296 60.0207 59.8842 59.9934 59.9388C59.9388 59.9661 59.9388 60.048 59.9115 60.0753C54.1804 65.7245 46.3206 69.245 37.6693 69.245C20.2031 69.245 6.01178 55.0537 6.01178 37.5875C6.01178 20.1212 19.166 7.07613 35.6771 6.03907V37.5875C35.6771 37.5875 35.6771 37.6421 35.6771 37.6693C35.6771 37.8058 35.7317 37.915 35.759 38.0514C35.7863 38.1879 35.8136 38.3243 35.8681 38.4335C35.8681 38.4335 35.8681 38.4881 35.8681 38.5154C35.95 38.6791 36.0865 38.8429 36.2229 38.9793C36.2229 38.9793 36.2775 39.0066 36.2775 39.0339C36.414 39.1704 36.605 39.2795 36.7687 39.3614C36.8233 39.3614 36.8779 39.416 36.9325 39.4433C37.1508 39.5251 37.3691 39.5797 37.6148 39.5797H69.1632C68.6719 47.4668 65.3151 54.5625 60.1026 59.8296M65.6153 71.1827L71.21 65.588L73.6389 68.0169L68.0442 73.6116L65.6153 71.1827ZM91.842 91.8147C90.341 93.3157 87.7483 93.3157 86.2473 91.8147L70.8279 76.3953L76.4226 70.8006L91.842 86.22C92.5789 86.9569 93.0155 87.9667 93.0155 89.031C93.0155 90.0954 92.6061 91.0778 91.842 91.842M9.91439 73.2295C8.82275 73.2295 7.92215 74.1028 7.92215 75.2218V95.0077C7.92215 96.0994 8.79546 97 9.91439 97C11.0333 97 11.8793 96.0994 11.8793 95.0077V75.2218C11.8793 74.1301 11.006 73.2295 9.91439 73.2295ZM3.99224 85.1011C2.9006 85.1011 2 86.0017 2 87.0934V95.0077C2 96.0994 2.87331 97 3.99224 97C5.11118 97 5.9572 96.0994 5.9572 95.0077V87.0934C5.9572 86.0017 5.08389 85.1011 3.99224 85.1011ZM15.8638 79.179C14.7722 79.179 13.8989 80.0796 13.8989 81.1712V95.0077C13.8989 96.0994 14.7722 97 15.8638 97C16.9555 97 17.8288 96.0994 17.8288 95.0077V81.1712C17.8288 80.0796 16.9555 79.179 15.8638 79.179ZM27.7354 85.1011C26.6438 85.1011 25.7705 86.0017 25.7705 87.0934V95.0077C25.7705 96.0994 26.6438 97 27.7354 97C28.8271 97 29.7277 96.0994 29.7277 95.0077V87.0934C29.7277 86.0017 28.8544 85.1011 27.7354 85.1011ZM39.607 81.1439C38.5154 81.1439 37.6421 82.0172 37.6421 83.1089V94.9805C37.6421 96.0721 38.5154 96.9727 39.607 96.9727C40.6986 96.9727 41.572 96.0721 41.572 94.9805V83.1089C41.572 82.0172 40.6986 81.1439 39.607 81.1439ZM21.8133 73.2295C20.7216 73.2295 19.821 74.1028 19.821 75.2218V95.0077C19.821 96.0994 20.6943 97 21.8133 97C22.9322 97 23.8055 96.0994 23.8055 95.0077V75.2218C23.8055 74.1301 22.9322 73.2295 21.8133 73.2295ZM33.6849 77.1867C32.5932 77.1867 31.7199 78.0873 31.7199 79.1517V94.9805C31.7199 96.0721 32.5932 96.9727 33.6849 96.9727C34.7765 96.9727 35.6771 96.0721 35.6771 94.9805V79.1517C35.6771 78.06 34.8038 77.1867 33.6849 77.1867Z" fill="#BAB1B1"/>
</svg>
