<svg width="100" height="100" viewBox="0 0 100 100" fill="none" xmlns="http://www.w3.org/2000/svg">
<path d="M90.5317 48.8255C89.7987 47.9568 72.6141 27.5959 50 27.5959C27.3859 27.5959 10.2013 47.9568 9.4683 48.8255C8.8439 49.5857 8.8439 50.6987 9.4683 51.4589C10.2013 52.3276 27.3859 72.6885 50 72.6885C72.6141 72.6885 89.7987 52.3276 90.5317 51.4589C91.1561 50.6987 91.1561 49.6128 90.5317 48.8255ZM50 68.5891C32.4897 68.5891 17.9384 54.5537 13.812 50.1286C17.9384 45.7035 32.4625 31.6681 50 31.6681C67.5375 31.6681 82.0616 45.7035 86.188 50.1286C82.0616 54.5537 67.5375 68.5891 50 68.5891ZM50 39.8939C44.3533 39.8939 39.7653 44.4819 39.7653 50.1558C39.7653 55.8297 44.3533 60.4176 50 60.4176C55.6467 60.4176 60.2619 55.8025 60.2619 50.1558C60.2619 44.509 55.6739 39.8939 50 39.8939ZM50 56.2912C46.6065 56.2912 43.8646 53.5221 43.8646 50.1286C43.8646 46.7351 46.6065 43.9932 50 43.9932C53.3935 43.9932 56.1626 46.7623 56.1626 50.1286C56.1626 53.495 53.3935 56.2912 50 56.2912ZM50 48.0925C48.8598 48.0925 47.9639 49.0156 47.9639 50.1558C47.9639 51.296 48.8869 52.219 50 52.219C51.1131 52.219 52.0632 51.296 52.0632 50.1558C52.0632 49.0156 51.1402 48.0925 50 48.0925ZM50 23.4966C51.1402 23.4966 52.0632 22.5736 52.0632 21.4334C52.0632 20.2932 51.1402 19.3701 50 19.3701C48.8598 19.3701 47.9639 20.2932 47.9639 21.4334C47.9639 22.5736 48.8869 23.4966 50 23.4966ZM58.1986 23.4966C59.3388 23.4966 60.2619 22.5736 60.2619 21.4334C60.2619 20.2932 59.3388 19.3701 58.1986 19.3701C57.0584 19.3701 56.1354 20.2932 56.1354 21.4334C56.1354 22.5736 57.0584 23.4966 58.1986 23.4966ZM66.3973 23.4966C67.5375 23.4966 68.4605 22.5736 68.4605 21.4334C68.4605 20.2932 67.5375 19.3701 66.3973 19.3701C65.2571 19.3701 64.334 20.2932 64.334 21.4334C64.334 22.5736 65.2571 23.4966 66.3973 23.4966ZM74.5959 23.4966C75.7361 23.4966 76.6592 22.5736 76.6592 21.4334C76.6592 20.2932 75.7361 19.3701 74.5959 19.3701C73.4557 19.3701 72.5327 20.2932 72.5327 21.4334C72.5327 22.5736 73.4557 23.4966 74.5959 23.4966ZM41.8014 23.4966C42.9416 23.4966 43.8646 22.5736 43.8646 21.4334C43.8646 20.2932 42.9416 19.3701 41.8014 19.3701C40.6611 19.3701 39.7653 20.2932 39.7653 21.4334C39.7653 22.5736 40.6883 23.4966 41.8014 23.4966ZM33.6027 23.4966C34.7429 23.4966 35.6659 22.5736 35.6659 21.4334C35.6659 20.2932 34.7429 19.3701 33.6027 19.3701C32.4625 19.3701 31.5395 20.2932 31.5395 21.4334C31.5395 22.5736 32.4625 23.4966 33.6027 23.4966ZM25.4041 23.4966C26.5443 23.4966 27.4673 22.5736 27.4673 21.4334C27.4673 20.2932 26.5443 19.3701 25.4041 19.3701C24.2639 19.3701 23.3408 20.2932 23.3408 21.4334C23.3408 22.5736 24.2639 23.4966 25.4041 23.4966ZM74.5959 31.6952C75.7361 31.6952 76.6592 30.7722 76.6592 29.632C76.6592 28.4918 75.7361 27.5688 74.5959 27.5688C73.4557 27.5688 72.5327 28.4918 72.5327 29.632C72.5327 30.7722 73.4557 31.6952 74.5959 31.6952ZM25.4041 31.6952C26.5443 31.6952 27.4673 30.7722 27.4673 29.632C27.4673 28.4918 26.5443 27.5688 25.4041 27.5688C24.2639 27.5688 23.3408 28.4918 23.3408 29.632C23.3408 30.7722 24.2639 31.6952 25.4041 31.6952ZM50 15.298C51.1402 15.298 52.0632 14.3749 52.0632 13.2347C52.0632 12.0945 51.1402 11.1715 50 11.1715C48.8598 11.1715 47.9639 12.0945 47.9639 13.2347C47.9639 14.3749 48.8869 15.298 50 15.298ZM58.1986 15.298C59.3388 15.298 60.2619 14.3749 60.2619 13.2347C60.2619 12.0945 59.3388 11.1715 58.1986 11.1715C57.0584 11.1715 56.1354 12.0945 56.1354 13.2347C56.1354 14.3749 57.0584 15.298 58.1986 15.298ZM66.3973 15.298C67.5375 15.298 68.4605 14.3749 68.4605 13.2347C68.4605 12.0945 67.5375 11.1715 66.3973 11.1715C65.2571 11.1715 64.334 12.0945 64.334 13.2347C64.334 14.3749 65.2571 15.298 66.3973 15.298ZM74.5959 15.298C75.7361 15.298 76.6592 14.3749 76.6592 13.2347C76.6592 12.0945 75.7361 11.1715 74.5959 11.1715C73.4557 11.1715 72.5327 12.0945 72.5327 13.2347C72.5327 14.3749 73.4557 15.298 74.5959 15.298ZM41.8014 15.298C42.9416 15.298 43.8646 14.3749 43.8646 13.2347C43.8646 12.0945 42.9416 11.1715 41.8014 11.1715C40.6611 11.1715 39.7653 12.0945 39.7653 13.2347C39.7653 14.3749 40.6883 15.298 41.8014 15.298ZM33.6027 15.298C34.7429 15.298 35.6659 14.3749 35.6659 13.2347C35.6659 12.0945 34.7429 11.1715 33.6027 11.1715C32.4625 11.1715 31.5395 12.0945 31.5395 13.2347C31.5395 14.3749 32.4625 15.298 33.6027 15.298ZM25.4041 15.298C26.5443 15.298 27.4673 14.3749 27.4673 13.2347C27.4673 12.0945 26.5443 11.1715 25.4041 11.1715C24.2639 11.1715 23.3408 12.0945 23.3408 13.2347C23.3408 14.3749 24.2639 15.298 25.4041 15.298ZM50 7.09932C51.1402 7.09932 52.0632 6.1763 52.0632 5.03609C52.0632 3.89588 51.1402 3 50 3C48.8598 3 47.9639 3.92303 47.9639 5.03609C47.9639 6.14915 48.8869 7.09932 50 7.09932ZM58.1986 7.09932C59.3388 7.09932 60.2619 6.1763 60.2619 5.03609C60.2619 3.89588 59.3388 3 58.1986 3C57.0584 3 56.1354 3.92303 56.1354 5.03609C56.1354 6.14915 57.0584 7.09932 58.1986 7.09932ZM66.3973 7.09932C67.5375 7.09932 68.4605 6.1763 68.4605 5.03609C68.4605 3.89588 67.5375 3 66.3973 3C65.2571 3 64.334 3.92303 64.334 5.03609C64.334 6.14915 65.2571 7.09932 66.3973 7.09932ZM74.5959 7.09932C75.7361 7.09932 76.6592 6.1763 76.6592 5.03609C76.6592 3.89588 75.7361 3 74.5959 3C73.4557 3 72.5327 3.92303 72.5327 5.03609C72.5327 6.14915 73.4557 7.09932 74.5959 7.09932ZM41.8014 7.09932C42.9416 7.09932 43.8646 6.1763 43.8646 5.03609C43.8646 3.89588 42.9416 3 41.8014 3C40.6611 3 39.7653 3.92303 39.7653 5.03609C39.7653 6.14915 40.6883 7.09932 41.8014 7.09932ZM33.6027 7.09932C34.7429 7.09932 35.6659 6.1763 35.6659 5.03609C35.6659 3.89588 34.7429 3 33.6027 3C32.4625 3 31.5395 3.92303 31.5395 5.03609C31.5395 6.14915 32.4625 7.09932 33.6027 7.09932ZM25.4041 7.09932C26.5443 7.09932 27.4673 6.1763 27.4673 5.03609C27.4673 3.89588 26.5443 3 25.4041 3C24.2639 3 23.3408 3.92303 23.3408 5.03609C23.3408 6.14915 24.2639 7.09932 25.4041 7.09932ZM50 76.8149C48.8598 76.8149 47.9639 77.738 47.9639 78.851C47.9639 79.9641 48.8869 80.9142 50 80.9142C51.1131 80.9142 52.0632 79.9912 52.0632 78.851C52.0632 77.7108 51.1402 76.8149 50 76.8149ZM58.1986 76.8149C57.0584 76.8149 56.1354 77.738 56.1354 78.851C56.1354 79.9641 57.0584 80.9142 58.1986 80.9142C59.3388 80.9142 60.2619 79.9912 60.2619 78.851C60.2619 77.7108 59.3388 76.8149 58.1986 76.8149ZM66.3973 76.8149C65.2571 76.8149 64.334 77.738 64.334 78.851C64.334 79.9641 65.2571 80.9142 66.3973 80.9142C67.5375 80.9142 68.4605 79.9912 68.4605 78.851C68.4605 77.7108 67.5375 76.8149 66.3973 76.8149ZM74.5959 76.8149C73.4557 76.8149 72.5327 77.738 72.5327 78.851C72.5327 79.9641 73.4557 80.9142 74.5959 80.9142C75.7361 80.9142 76.6592 79.9912 76.6592 78.851C76.6592 77.7108 75.7361 76.8149 74.5959 76.8149ZM41.8014 76.8149C40.6611 76.8149 39.7653 77.738 39.7653 78.851C39.7653 79.9641 40.6883 80.9142 41.8014 80.9142C42.9144 80.9142 43.8646 79.9912 43.8646 78.851C43.8646 77.7108 42.9416 76.8149 41.8014 76.8149ZM33.6027 76.8149C32.4625 76.8149 31.5395 77.738 31.5395 78.851C31.5395 79.9641 32.4625 80.9142 33.6027 80.9142C34.7429 80.9142 35.6659 79.9912 35.6659 78.851C35.6659 77.7108 34.7429 76.8149 33.6027 76.8149ZM25.4041 76.8149C24.2639 76.8149 23.3408 77.738 23.3408 78.851C23.3408 79.9641 24.2639 80.9142 25.4041 80.9142C26.5443 80.9142 27.4673 79.9912 27.4673 78.851C27.4673 77.7108 26.5443 76.8149 25.4041 76.8149ZM74.5959 68.6163C73.4557 68.6163 72.5327 69.5393 72.5327 70.6795C72.5327 71.8197 73.4557 72.7156 74.5959 72.7156C75.7361 72.7156 76.6592 71.7926 76.6592 70.6795C76.6592 69.5665 75.7361 68.6163 74.5959 68.6163ZM25.4041 68.6163C24.2639 68.6163 23.3408 69.5393 23.3408 70.6795C23.3408 71.8197 24.2639 72.7156 25.4041 72.7156C26.5443 72.7156 27.4673 71.7926 27.4673 70.6795C27.4673 69.5665 26.5443 68.6163 25.4041 68.6163ZM50 85.0136C48.8598 85.0136 47.9639 85.9366 47.9639 87.0768C47.9639 88.217 48.8869 89.14 50 89.14C51.1131 89.14 52.0632 88.217 52.0632 87.0768C52.0632 85.9366 51.1402 85.0136 50 85.0136ZM58.1986 85.0136C57.0584 85.0136 56.1354 85.9366 56.1354 87.0768C56.1354 88.217 57.0584 89.14 58.1986 89.14C59.3388 89.14 60.2619 88.217 60.2619 87.0768C60.2619 85.9366 59.3388 85.0136 58.1986 85.0136ZM66.3973 85.0136C65.2571 85.0136 64.334 85.9366 64.334 87.0768C64.334 88.217 65.2571 89.14 66.3973 89.14C67.5375 89.14 68.4605 88.217 68.4605 87.0768C68.4605 85.9366 67.5375 85.0136 66.3973 85.0136ZM74.5959 85.0136C73.4557 85.0136 72.5327 85.9366 72.5327 87.0768C72.5327 88.217 73.4557 89.14 74.5959 89.14C75.7361 89.14 76.6592 88.217 76.6592 87.0768C76.6592 85.9366 75.7361 85.0136 74.5959 85.0136ZM41.8014 85.0136C40.6611 85.0136 39.7653 85.9366 39.7653 87.0768C39.7653 88.217 40.6883 89.14 41.8014 89.14C42.9144 89.14 43.8646 88.217 43.8646 87.0768C43.8646 85.9366 42.9416 85.0136 41.8014 85.0136ZM33.6027 85.0136C32.4625 85.0136 31.5395 85.9366 31.5395 87.0768C31.5395 88.217 32.4625 89.14 33.6027 89.14C34.7429 89.14 35.6659 88.217 35.6659 87.0768C35.6659 85.9366 34.7429 85.0136 33.6027 85.0136ZM25.4041 85.0136C24.2639 85.0136 23.3408 85.9366 23.3408 87.0768C23.3408 88.217 24.2639 89.14 25.4041 89.14C26.5443 89.14 27.4673 88.217 27.4673 87.0768C27.4673 85.9366 26.5443 85.0136 25.4041 85.0136ZM50 93.2122C48.8598 93.2122 47.9639 94.1352 47.9639 95.2754C47.9639 96.4157 48.8869 97.3387 50 97.3387C51.1131 97.3387 52.0632 96.4157 52.0632 95.2754C52.0632 94.1352 51.1402 93.2122 50 93.2122ZM58.1986 93.2122C57.0584 93.2122 56.1354 94.1352 56.1354 95.2754C56.1354 96.4157 57.0584 97.3387 58.1986 97.3387C59.3388 97.3387 60.2619 96.4157 60.2619 95.2754C60.2619 94.1352 59.3388 93.2122 58.1986 93.2122ZM66.3973 93.2122C65.2571 93.2122 64.334 94.1352 64.334 95.2754C64.334 96.4157 65.2571 97.3387 66.3973 97.3387C67.5375 97.3387 68.4605 96.4157 68.4605 95.2754C68.4605 94.1352 67.5375 93.2122 66.3973 93.2122ZM74.5959 93.2122C73.4557 93.2122 72.5327 94.1352 72.5327 95.2754C72.5327 96.4157 73.4557 97.3387 74.5959 97.3387C75.7361 97.3387 76.6592 96.4157 76.6592 95.2754C76.6592 94.1352 75.7361 93.2122 74.5959 93.2122ZM41.8014 93.2122C40.6611 93.2122 39.7653 94.1352 39.7653 95.2754C39.7653 96.4157 40.6883 97.3387 41.8014 97.3387C42.9144 97.3387 43.8646 96.4157 43.8646 95.2754C43.8646 94.1352 42.9416 93.2122 41.8014 93.2122ZM33.6027 93.2122C32.4625 93.2122 31.5395 94.1352 31.5395 95.2754C31.5395 96.4157 32.4625 97.3387 33.6027 97.3387C34.7429 97.3387 35.6659 96.4157 35.6659 95.2754C35.6659 94.1352 34.7429 93.2122 33.6027 93.2122ZM25.4041 93.2122C24.2639 93.2122 23.3408 94.1352 23.3408 95.2754C23.3408 96.4157 24.2639 97.3387 25.4041 97.3387C26.5443 97.3387 27.4673 96.4157 27.4673 95.2754C27.4673 94.1352 26.5443 93.2122 25.4041 93.2122Z" fill="#BAB1B1"/>
</svg>
