<svg width="100" height="100" viewBox="0 0 100 100" fill="none" xmlns="http://www.w3.org/2000/svg">
<path d="M33.2022 41.0862H12.5158C11.5465 41.0862 10.7812 40.2955 10.7812 39.3517C10.7812 38.4079 11.572 37.6172 12.5158 37.6172H33.2022C34.1715 37.6172 34.9367 38.3824 34.9367 39.3517C34.9367 40.321 34.146 41.0862 33.2022 41.0862Z" fill="#BAB1B1"/>
<path d="M33.2022 32.5667H12.5158C11.5465 32.5667 10.7812 31.7759 10.7812 30.8322C10.7812 29.8884 11.572 29.0977 12.5158 29.0977H33.2022C34.1715 29.0977 34.9367 29.8629 34.9367 30.8322C34.9367 31.8014 34.146 32.5667 33.2022 32.5667Z" fill="#BAB1B1"/>
<path d="M29.5037 50.7307H12.5158C11.5465 50.7307 10.7812 49.94 10.7812 48.9962C10.7812 48.0524 11.572 47.2617 12.5158 47.2617H29.5037C30.4729 47.2617 31.2382 48.0269 31.2382 48.9962C31.2382 49.9655 30.4474 50.7307 29.5037 50.7307Z" fill="#BAB1B1"/>
<path d="M29.5037 59.3792H12.5158C11.5465 59.3792 10.7812 58.5884 10.7812 57.6447C10.7812 56.7009 11.572 55.9102 12.5158 55.9102H29.5037C30.4729 55.9102 31.2382 56.6754 31.2382 57.6447C31.2382 58.6139 30.4474 59.3792 29.5037 59.3792Z" fill="#BAB1B1"/>
<path d="M29.5037 68.0471H12.5158C11.5465 68.0471 10.7812 67.2564 10.7812 66.3126C10.7812 65.3689 11.572 64.5781 12.5158 64.5781H29.5037C30.4729 64.5781 31.2382 65.3433 31.2382 66.3126C31.2382 67.2819 30.4474 68.0471 29.5037 68.0471Z" fill="#BAB1B1"/>
<path d="M33.2022 24.0471H12.5158C11.5465 24.0471 10.7812 23.2564 10.7812 22.3126C10.7812 21.3689 11.572 20.5781 12.5158 20.5781H33.2022C34.1715 20.5781 34.9367 21.3433 34.9367 22.3126C34.9367 23.2819 34.146 24.0471 33.2022 24.0471Z" fill="#BAB1B1"/>
<path d="M30.4399 96.1052H21.5379C21.0787 96.1052 20.6451 95.9267 20.3135 95.5951L3.52968 78.7857C3.19808 78.4541 3.01953 78.0205 3.01953 77.5614V12.1095C3.01953 11.1402 3.81026 10.375 4.75403 10.375H70.4355C71.4048 10.375 72.17 11.1657 72.17 12.1095V63.0222C72.17 63.9915 71.3793 64.7567 70.4355 64.7567C69.4917 64.7567 68.701 63.966 68.701 63.0222V13.844H6.48853V76.8217L22.2521 92.6107H30.4399C31.4092 92.6107 32.1744 93.376 32.1744 94.3452C32.1744 95.3145 31.3837 96.0797 30.4399 96.0797" fill="#BAB1B1"/>
<path d="M76.6425 65.0646C75.6732 65.0646 74.908 64.2739 74.908 63.3301V7.469H12.6956V12.1113C12.6956 13.0806 11.9048 13.8458 10.9611 13.8458C10.0173 13.8458 9.22656 13.0551 9.22656 12.1113V5.7345C9.22656 4.76522 10.0173 4 10.9611 4H76.6425C77.6118 4 78.377 4.79073 78.377 5.7345V63.3301C78.377 64.2994 77.5863 65.0646 76.6425 65.0646Z" fill="#BAB1B1"/>
<path d="M21.5439 96.1122C21.0847 96.1122 20.6511 95.9337 20.3195 95.6021L3.51015 78.8182C3 78.3081 2.87246 77.5684 3.12754 76.9307C3.40812 76.2675 4.02029 75.8594 4.7345 75.8594H21.5183C22.4876 75.8594 23.2528 76.6246 23.2528 77.5939V94.3777C23.2528 95.0919 22.8192 95.7296 22.1815 95.9847C21.9775 96.0867 21.7479 96.1122 21.5183 96.1122M8.91771 79.3284L19.7583 90.169V79.3284H8.91771Z" fill="#BAB1B1"/>
<path d="M53.1244 44.3503C45.6762 44.3503 39.6055 38.2796 39.6055 30.8314C39.6055 23.3833 45.6762 17.3125 53.1244 17.3125C60.5725 17.3125 66.6433 23.3833 66.6433 30.8314C66.6433 38.2796 60.5725 44.3503 53.1244 44.3503ZM53.1244 20.807C47.5893 20.807 43.1 25.2963 43.1 30.8314C43.1 36.3665 47.5893 40.8558 53.1244 40.8558C58.6595 40.8558 63.1488 36.341 63.1488 30.8314C63.1488 25.3218 58.6595 20.807 53.1244 20.807Z" fill="#BAB1B1"/>
<path d="M56.3067 38.5609H49.9298C48.9605 38.5609 48.1953 37.7701 48.1953 36.8264V35.551C48.1953 34.5817 48.986 33.8165 49.9298 33.8165C50.746 33.8165 51.4092 34.3521 51.6133 35.0919H54.5722V32.5921H49.9298C48.9605 32.5921 48.1953 31.8014 48.1953 30.8576V24.8634C48.1953 23.8941 48.986 23.1289 49.9298 23.1289H56.3067C57.2759 23.1289 58.0412 23.8941 58.0412 24.8634V26.0623C58.0412 27.0315 57.2504 27.7968 56.3067 27.7968C55.5414 27.7968 54.8782 27.2866 54.6487 26.5979H51.6643V29.0976H56.3067C57.2759 29.0976 58.0412 29.8884 58.0412 30.8321V36.8264C58.0412 37.7956 57.2504 38.5609 56.3067 38.5609Z" fill="#BAB1B1"/>
<path d="M61.6906 96.1109H36.7189C35.7496 96.1109 34.9844 95.3202 34.9844 94.3764V85.9845C34.9844 85.0152 35.7751 84.25 36.7189 84.25H61.6906C62.6599 84.25 63.4251 85.0152 63.4251 85.9845V94.3764C63.4251 95.3457 62.6344 96.1109 61.6906 96.1109ZM38.4534 92.6164H59.9306V87.6935H38.4534V92.6164Z" fill="#BAB1B1"/>
<path d="M61.6906 87.7203H36.7189C35.7496 87.7203 34.9844 86.9296 34.9844 85.9858V77.5939C34.9844 76.6246 35.7751 75.8594 36.7189 75.8594H61.6906C62.6599 75.8594 63.4251 76.6501 63.4251 77.5939V85.9858C63.4251 86.9551 62.6344 87.7203 61.6906 87.7203ZM38.4534 84.2258H59.9306V79.3029H38.4534V84.2258Z" fill="#BAB1B1"/>
<path d="M61.6906 79.3023H36.7189C35.7496 79.3023 34.9844 78.5116 34.9844 77.5678V69.1759C34.9844 68.2066 35.7751 67.4414 36.7189 67.4414H61.6906C62.6599 67.4414 63.4251 68.2321 63.4251 69.1759V77.5678C63.4251 78.5371 62.6344 79.3023 61.6906 79.3023ZM38.4534 75.8078H59.9306V70.8849H38.4534V75.8078Z" fill="#BAB1B1"/>
<path d="M61.6906 70.9117H36.7189C35.7496 70.9117 34.9844 70.121 34.9844 69.1772V60.7853C34.9844 59.816 35.7751 59.0508 36.7189 59.0508H61.6906C62.6599 59.0508 63.4251 59.8415 63.4251 60.7853V69.1772C63.4251 70.1465 62.6344 70.9117 61.6906 70.9117ZM38.4534 67.4172H59.9306V62.4943H38.4534V67.4172Z" fill="#BAB1B1"/>
<path d="M61.6906 62.5133H36.7189C35.7496 62.5133 34.9844 61.748 34.9844 60.7788V52.3868C34.9844 51.4176 35.7751 50.6523 36.7189 50.6523H61.6906C62.6599 50.6523 63.4251 51.4431 63.4251 52.3868V60.7788C63.4251 61.748 62.6344 62.5133 61.6906 62.5133ZM38.4534 59.0188H59.9306V54.0958H38.4534V59.0188Z" fill="#BAB1B1"/>
<path d="M86.6593 96.1109H61.6876C60.7183 96.1109 59.9531 95.3202 59.9531 94.3764V85.9845C59.9531 85.0152 60.7439 84.25 61.6876 84.25H86.6593C87.6286 84.25 88.3938 85.0152 88.3938 85.9845V94.3764C88.3938 95.3457 87.6286 96.1109 86.6593 96.1109ZM63.4476 92.6164H84.9248V87.6935H63.4476V92.6164Z" fill="#BAB1B1"/>
<path d="M86.6593 87.7203H61.6876C60.7183 87.7203 59.9531 86.9296 59.9531 85.9858V77.5939C59.9531 76.6246 60.7439 75.8594 61.6876 75.8594H86.6593C87.6286 75.8594 88.3938 76.6501 88.3938 77.5939V85.9858C88.3938 86.9551 87.6286 87.7203 86.6593 87.7203ZM63.4476 84.2258H84.9248V79.3029H63.4476V84.2258Z" fill="#BAB1B1"/>
<path d="M86.6593 79.3023H61.6876C60.7183 79.3023 59.9531 78.5116 59.9531 77.5678V69.1759C59.9531 68.2066 60.7439 67.4414 61.6876 67.4414H86.6593C87.6286 67.4414 88.3938 68.2321 88.3938 69.1759V77.5678C88.3938 78.5371 87.6286 79.3023 86.6593 79.3023ZM63.4476 75.8078H84.9248V70.8849H63.4476V75.8078Z" fill="#BAB1B1"/>
<path d="M54.4259 65.6317C53.4566 65.6317 52.6914 64.841 52.6914 63.8972V60.7853C52.6914 59.816 53.4821 59.0508 54.4259 59.0508C55.3697 59.0508 56.1604 59.8415 56.1604 60.7853V63.8972C56.1604 64.8665 55.3697 65.6317 54.4259 65.6317Z" fill="#BAB1B1"/>
<path d="M71.1525 74.0223C70.1832 74.0223 69.418 73.2316 69.418 72.2878V69.1759C69.418 68.2066 70.2087 67.4414 71.1525 67.4414C72.0962 67.4414 72.887 68.2321 72.887 69.1759V72.2878C72.887 73.2571 72.0962 74.0223 71.1525 74.0223Z" fill="#BAB1B1"/>
<path d="M49.2228 74.0223C48.2535 74.0223 47.4883 73.2316 47.4883 72.2878V69.1759C47.4883 68.2066 48.279 67.4414 49.2228 67.4414C50.1666 67.4414 50.9573 68.2321 50.9573 69.1759V72.2878C50.9573 73.2571 50.1666 74.0223 49.2228 74.0223Z" fill="#BAB1B1"/>
<path d="M44.8595 57.2332C43.8902 57.2332 43.125 56.4425 43.125 55.4987V52.3868C43.125 51.4176 43.9157 50.6523 44.8595 50.6523C45.8033 50.6523 46.594 51.4431 46.594 52.3868V55.4987C46.594 56.468 45.8033 57.2332 44.8595 57.2332Z" fill="#BAB1B1"/>
<path d="M44.1915 82.409C43.2222 82.409 42.457 81.6183 42.457 80.6745V77.5626C42.457 76.5933 43.2478 75.8281 44.1915 75.8281C45.1353 75.8281 45.926 76.6189 45.926 77.5626V80.6745C45.926 81.6438 45.1353 82.409 44.1915 82.409Z" fill="#BAB1B1"/>
<path d="M52.8907 91.2879C51.9215 91.2879 51.1562 90.4972 51.1562 89.5534V86.4415C51.1562 85.4723 51.947 84.707 52.8907 84.707C53.8345 84.707 54.6253 85.4978 54.6253 86.4415V89.5534C54.6253 90.5227 53.8345 91.2879 52.8907 91.2879Z" fill="#BAB1B1"/>
<path d="M69.7267 91.2879C68.7574 91.2879 67.9922 90.4972 67.9922 89.5534V86.4415C67.9922 85.4723 68.7829 84.707 69.7267 84.707C70.6705 84.707 71.4612 85.4978 71.4612 86.4415V89.5534C71.4612 90.5227 70.696 91.2879 69.7267 91.2879Z" fill="#BAB1B1"/>
<path d="M78.6251 82.409C77.6558 82.409 76.8906 81.6183 76.8906 80.6745V77.5626C76.8906 76.5933 77.6814 75.8281 78.6251 75.8281C79.5689 75.8281 80.3596 76.6189 80.3596 77.5626V80.6745C80.3596 81.6438 79.5944 82.409 78.6251 82.409Z" fill="#BAB1B1"/>
<path d="M94.8548 96.1057H10.9611C9.99178 96.1057 9.22656 95.315 9.22656 94.3712C9.22656 93.4274 10.0173 92.6367 10.9611 92.6367H94.8548C95.8241 92.6367 96.5893 93.4019 96.5893 94.3712C96.5893 95.3405 95.7985 96.1057 94.8548 96.1057Z" fill="#BAB1B1"/>
</svg>
