<svg width="100" height="100" viewBox="0 0 100 100" fill="none" xmlns="http://www.w3.org/2000/svg">
<path d="M29.1508 60.1096C29.1508 64.3725 32.6143 67.8627 36.8772 67.8627H38.8221C39.8878 67.8627 40.767 67.0101 40.767 65.9178C40.767 64.8254 39.8878 63.9728 38.8221 63.9728H36.8772C34.7457 63.9728 33.014 62.2411 33.014 60.1096V56.2464C33.014 53.9818 32.0282 51.877 30.403 50.4383C32.0282 48.9996 33.014 46.8948 33.014 44.6302V40.767C33.014 38.6356 34.7457 36.9038 36.8772 36.9038H38.8221C39.8878 36.9038 40.767 36.0246 40.767 34.9589C40.767 33.8932 39.8878 33.0406 38.8221 33.0406H36.8772C32.6143 33.0406 29.1508 36.5042 29.1508 40.767V44.6302C29.1508 46.1755 28.2183 47.5875 26.8062 48.1737C25.9003 48.5467 25.3408 49.4259 25.3408 50.4117C25.3408 51.3975 25.927 52.2767 26.8062 52.6497C28.2183 53.2625 29.1508 54.6479 29.1508 56.2198V60.083V60.1096ZM62.0279 36.9038H63.9728C66.1043 36.9038 67.836 38.6356 67.836 40.767V44.6302C67.836 46.8948 68.8218 48.9996 70.447 50.4383C68.8218 51.877 67.836 53.9818 67.836 56.2464V60.1096C67.836 62.2411 66.1043 63.9728 63.9728 63.9728H62.0279C60.9622 63.9728 60.083 64.8254 60.083 65.9178C60.083 67.0101 60.9622 67.8627 62.0279 67.8627H63.9728C68.2357 67.8627 71.6992 64.3991 71.6992 60.1096V56.2464C71.6992 54.7012 72.6317 53.3157 74.0438 52.703C74.9497 52.3033 75.5092 51.4241 75.5092 50.465C75.5092 49.5058 74.923 48.6 74.0438 48.227C72.6317 47.6142 71.6992 46.2288 71.6992 44.6568V40.7936C71.6992 36.5308 68.2357 33.0672 63.9728 33.0672H62.0279C60.9622 33.0672 60.083 33.9198 60.083 34.9855C60.083 36.0512 60.9622 36.9304 62.0279 36.9304M40.767 52.4099H44.6302V48.5467H40.767V52.4099ZM52.3832 48.5467H48.52V52.4099H52.3832V48.5467ZM60.1096 48.5467H56.2464V52.4099H60.1096V48.5467ZM94.9317 85.2871H89.1236V13.6713C89.1236 8.34277 84.7808 4 79.4523 4H13.6713C8.34277 4 4 8.34277 4 13.6713C4 14.737 4.87921 15.6162 5.94492 15.6162H11.753V87.1787C11.753 92.5072 16.0958 96.85 21.4244 96.85H87.1787C92.5072 96.85 96.85 92.5072 96.85 87.1787C96.85 86.113 95.9974 85.2338 94.9051 85.2338M8.18291 11.753C8.98219 9.48841 11.1403 7.88984 13.6447 7.88984H71.6726C70.82 9.00884 70.2339 10.341 69.9408 11.753H8.18291ZM27.2058 87.1787C27.2058 90.3758 24.5949 92.9868 21.3977 92.9868C18.2006 92.9868 15.5896 90.3758 15.5896 87.1787V15.6162H71.6726C72.7383 15.6162 73.6175 14.737 73.6175 13.6713C73.6175 10.4742 76.2285 7.8632 79.4256 7.8632C82.6228 7.8632 85.2338 10.4742 85.2338 13.6713V85.2338H29.1508C28.0851 85.2338 27.2058 86.113 27.2058 87.1787ZM87.1787 92.9868H29.1241C29.9767 91.8678 30.5628 90.5357 30.8825 89.1236H92.6405C91.8412 91.3882 89.6831 92.9868 87.1787 92.9868Z" fill="#BAB1B1"/>
</svg>
