<svg width="274" height="139" viewBox="0 0 274 139" fill="none" xmlns="http://www.w3.org/2000/svg">
<path d="M254.245 124.105H39.3476C19.3105 124.105 3 108.713 3 89.7783H25.1891C25.1891 96.4704 31.5401 101.916 39.3476 101.916C47.1551 101.916 53.5061 96.4704 53.5061 89.7783C53.5061 83.0861 47.1551 77.6405 39.3476 77.6405H31.1595V55.4514H39.3476C47.1551 55.4514 53.5061 50.0059 53.5061 43.3137C53.5061 36.6216 47.1551 31.176 39.3476 31.176C31.5401 31.176 25.1891 36.6216 25.1891 43.3137H3C3 24.392 19.2974 9 39.3476 9C59.3978 9 75.6952 24.392 75.6952 43.3137C75.6952 52.2628 72.0473 60.4246 66.0768 66.5394C72.0473 72.6542 75.6952 80.816 75.6952 89.7651C75.6952 94.0297 74.8685 98.1238 73.3464 101.903" stroke="#1E3059" stroke-width="2.25" stroke-linecap="round" stroke-linejoin="round"/>
<path d="M68.7109 101.917C68.7109 99.3584 70.7842 97.2852 73.343 97.2852C75.9017 97.2852 77.975 99.3584 77.975 101.917C77.975 104.476 75.9017 106.549 73.343 106.549C70.7842 106.549 68.7109 104.476 68.7109 101.917Z" fill="#1E3059"/>
<path d="M73.343 106.549C75.9012 106.549 77.975 104.475 77.975 101.917C77.975 99.359 75.9012 97.2852 73.343 97.2852C70.7848 97.2852 68.7109 99.359 68.7109 101.917C68.7109 104.475 70.7848 106.549 73.343 106.549Z" stroke="#1E3059" stroke-width="2.25" stroke-linecap="round" stroke-linejoin="round"/>
<path d="M262.113 131.991C266.468 131.991 269.999 128.46 269.999 124.105C269.999 119.75 266.468 116.219 262.113 116.219C257.757 116.219 254.227 119.75 254.227 124.105C254.227 128.46 257.757 131.991 262.113 131.991Z" stroke="#1E3059" stroke-width="2.25" stroke-linecap="round" stroke-linejoin="round"/>
</svg>
