<svg width="274" height="139" viewBox="0 0 274 139" fill="none" xmlns="http://www.w3.org/2000/svg">
<path d="M255.926 117.736H96.0107C76.5486 117.736 60.7188 101.894 60.7188 82.4438V50.3389C60.7188 30.8767 76.5486 15.0469 96.0107 15.0469C115.473 15.0469 131.303 30.8884 131.303 50.3389V82.4438C131.303 87.9977 130.014 93.247 127.717 97.9338M95.999 34.6379C87.3401 34.6379 80.2981 41.6799 80.2981 50.3389V82.4438C80.2981 91.1027 87.3401 98.1448 95.999 98.1448C104.658 98.1448 111.7 91.1027 111.7 82.4438V50.3389C111.7 41.6799 104.658 34.6379 95.999 34.6379Z" stroke="#1E3059" stroke-width="2.25" stroke-linecap="round" stroke-linejoin="round"/>
<path d="M123.594 97.933C123.594 95.6482 125.445 93.7969 127.73 93.7969C130.015 93.7969 131.866 95.6482 131.866 97.933C131.866 100.218 130.015 102.069 127.73 102.069C125.445 102.069 123.594 100.218 123.594 97.933Z" fill="#1E3059"/>
<path d="M127.73 102.069C130.014 102.069 131.866 100.217 131.866 97.933C131.866 95.6487 130.014 93.7969 127.73 93.7969C125.446 93.7969 123.594 95.6487 123.594 97.933C123.594 100.217 125.446 102.069 127.73 102.069Z" stroke="#1E3059" stroke-width="2.25" stroke-linecap="round" stroke-linejoin="round"/>
<path d="M262.96 124.775C266.849 124.775 270.002 121.623 270.002 117.733C270.002 113.844 266.849 110.691 262.96 110.691C259.071 110.691 255.918 113.844 255.918 117.733C255.918 121.623 259.071 124.775 262.96 124.775Z" stroke="#1E3059" stroke-width="2.25" stroke-linecap="round" stroke-linejoin="round"/>
<path d="M218.443 117.701H22.8137V42.629L3 49.3429V28.4278L42.6273 15V97.8987" stroke="#1E3059" stroke-width="2.25" stroke-linecap="round" stroke-linejoin="round"/>
<path d="M38.4805 97.8979C38.4805 95.613 40.3318 93.7617 42.6166 93.7617C44.9015 93.7617 46.7528 95.613 46.7528 97.8979C46.7528 100.183 44.9015 102.034 42.6166 102.034C40.3318 102.034 38.4805 100.183 38.4805 97.8979Z" fill="#1E3059"/>
<path d="M42.6244 102.034C44.9088 102.034 46.7606 100.182 46.7606 97.8979C46.7606 95.6135 44.9088 93.7617 42.6244 93.7617C40.3401 93.7617 38.4883 95.6135 38.4883 97.8979C38.4883 100.182 40.3401 102.034 42.6244 102.034Z" stroke="#1E3059" stroke-width="2.25" stroke-linecap="round" stroke-linejoin="round"/>
</svg>
