<svg width="274" height="139" viewBox="0 0 274 139" fill="none" xmlns="http://www.w3.org/2000/svg">
<path d="M65.9412 100.198C82.2853 78.4105 84.2104 63.7748 84.2104 50.6179C84.2104 28.2181 65.9922 10 43.6052 10C21.2182 10 3 28.2181 3 50.6179C3 73.0177 21.2182 91.2231 43.6052 91.2231C44.3064 91.2231 45.0076 91.2104 45.696 91.1721C38.8881 99.6246 29.3264 109.671 15.9274 121.744H254.663M43.6052 31.5584C54.1103 31.5584 62.6648 40.1129 62.6648 50.6179C62.6648 61.123 54.1103 69.6775 43.6052 69.6775C33.1001 69.6775 24.5456 61.123 24.5456 50.6179C24.5456 40.1129 33.1001 31.5584 43.6052 31.5584Z" stroke="#1E3059" stroke-width="2.25" stroke-linecap="round" stroke-linejoin="round"/>
<path d="M61.4414 100.196C61.4414 97.7096 63.4557 95.6953 65.9418 95.6953C68.4278 95.6953 70.4421 97.7096 70.4421 100.196C70.4421 102.682 68.4278 104.696 65.9418 104.696C63.4557 104.696 61.4414 102.682 61.4414 100.196Z" fill="#1E3059"/>
<path d="M65.9418 104.696C68.4272 104.696 70.4421 102.681 70.4421 100.196C70.4421 97.7102 68.4272 95.6953 65.9418 95.6953C63.4563 95.6953 61.4414 97.7102 61.4414 100.196C61.4414 102.681 63.4563 104.696 65.9418 104.696Z" stroke="#1E3059" stroke-width="2.25" stroke-linecap="round" stroke-linejoin="round"/>
<path d="M254.676 121.74C254.676 117.508 258.105 114.078 262.338 114.078C266.57 114.078 270 117.508 270 121.74C270 125.973 266.57 129.402 262.338 129.402C258.105 129.402 254.676 125.973 254.676 121.74Z" stroke="#1E3059" stroke-width="2.25" stroke-linecap="round" stroke-linejoin="round"/>
</svg>
