<svg width="274" height="139" viewBox="0 0 274 139" fill="none" xmlns="http://www.w3.org/2000/svg">
<path d="M80.5939 101.005C82.6749 96.6476 83.8194 91.8614 83.8194 86.841C83.8194 76.4232 78.8641 67.0329 70.9695 60.4388C75.7557 55.0153 78.63 48.1741 78.63 40.7217C78.63 23.2286 62.8277 9 43.4097 9C23.9917 9 8.1894 23.2286 8.1894 40.7217C8.1894 48.1741 11.0637 55.0153 15.8499 60.4388C7.9553 67.0459 3 76.4362 3 86.841C3 106.779 21.1174 122.998 43.3967 122.998H254.354M29.9485 40.7087C29.9485 35.3112 36.1133 30.7461 43.4097 30.7461C50.7061 30.7461 56.8839 35.3112 56.8839 40.7087C56.8839 46.1062 50.7191 50.6843 43.4097 50.6843C36.1003 50.6843 29.9485 46.1192 29.9485 40.7087ZM43.4097 101.239C33.304 101.239 24.7591 94.6446 24.7591 86.828C24.7591 79.0114 33.304 72.4174 43.4097 72.4174C53.5154 72.4174 62.0603 79.0114 62.0603 86.828C62.0603 94.6446 53.5154 101.239 43.4097 101.239Z" stroke="#1E3059" stroke-width="2.25" stroke-linecap="round" stroke-linejoin="round"/>
<path d="M75.9922 101.005C75.9922 98.469 78.0471 96.4141 80.5833 96.4141C83.1195 96.4141 85.1744 98.469 85.1744 101.005C85.1744 103.541 83.1195 105.596 80.5833 105.596C78.0471 105.596 75.9922 103.541 75.9922 101.005Z" fill="#1E3059"/>
<path d="M75.9922 101.005C75.9922 98.469 78.0471 96.4141 80.5833 96.4141C83.1195 96.4141 85.1744 98.469 85.1744 101.005C85.1744 103.541 83.1195 105.596 80.5833 105.596C78.0471 105.596 75.9922 103.541 75.9922 101.005Z" stroke="#1E3059" stroke-width="2.25" stroke-linecap="round" stroke-linejoin="round"/>
<path d="M262.184 130.817C266.501 130.817 270 127.317 270 123C270 118.683 266.501 115.184 262.184 115.184C257.867 115.184 254.367 118.683 254.367 123C254.367 127.317 257.867 130.817 262.184 130.817Z" stroke="#1E3059" stroke-width="2.25" stroke-linecap="round" stroke-linejoin="round"/>
</svg>
