<svg width="274" height="139" viewBox="0 0 274 139" fill="none" xmlns="http://www.w3.org/2000/svg">
<path d="M79.3269 100.06C82.356 94.3834 84.0743 87.9051 84.0743 81.0323C84.0743 58.67 65.8867 40.4824 43.5371 40.4824C42.8371 40.4824 42.1371 40.4951 41.4498 40.5333C48.259 32.095 57.7792 22.0657 71.1558 10H40.0116C6.24551 44.4152 3 63.9647 3 81.0195C3 103.369 21.1876 121.557 43.5371 121.557H254.699M43.5371 100.034C33.0497 100.034 24.5095 91.4943 24.5095 81.0068C24.5095 70.5193 33.0497 61.9792 43.5371 61.9792C54.0246 61.9792 62.5648 70.5193 62.5648 81.0068C62.5648 91.4943 54.0246 100.034 43.5371 100.034Z" stroke="#1E3059" stroke-width="2.25" stroke-linecap="round" stroke-linejoin="round"/>
<path d="M74.8359 100.059C74.8359 97.5774 76.8469 95.5664 79.3287 95.5664C81.8106 95.5664 83.8216 97.5774 83.8216 100.059C83.8216 102.541 81.8106 104.552 79.3287 104.552C76.8469 104.552 74.8359 102.541 74.8359 100.059Z" fill="#1E3059"/>
<path d="M79.3287 104.552C81.8101 104.552 83.8216 102.541 83.8216 100.059C83.8216 97.5779 81.8101 95.5664 79.3287 95.5664C76.8474 95.5664 74.8359 97.5779 74.8359 100.059C74.8359 102.541 76.8474 104.552 79.3287 104.552Z" stroke="#1E3059" stroke-width="2.25" stroke-linecap="round" stroke-linejoin="round"/>
<path d="M254.703 121.583C254.703 117.357 258.127 113.934 262.352 113.934C266.578 113.934 270.002 117.357 270.002 121.583C270.002 125.808 266.578 129.232 262.352 129.232C258.127 129.232 254.703 125.808 254.703 121.583Z" stroke="#1E3059" stroke-width="2.25" stroke-linecap="round" stroke-linejoin="round"/>
</svg>
