<svg width="274" height="139" viewBox="0 0 274 139" fill="none" xmlns="http://www.w3.org/2000/svg">
<path d="M254.344 125.468H26.7751V38.1398L3.72656 45.9363V21.6065L49.8237 6V102.42" stroke="#1E3059" stroke-width="2.25" stroke-linecap="round" stroke-linejoin="round"/>
<path d="M45 102.421C45 99.7629 47.1536 97.6094 49.8114 97.6094C52.4693 97.6094 54.6229 99.7629 54.6229 102.421C54.6229 105.079 52.4693 107.232 49.8114 107.232C47.1536 107.232 45 105.079 45 102.421Z" fill="#1E3059"/>
<path d="M49.8232 107.232C52.4804 107.232 54.6346 105.078 54.6346 102.421C54.6346 99.7635 52.4804 97.6094 49.8232 97.6094C47.1659 97.6094 45.0117 99.7635 45.0117 102.421C45.0117 105.078 47.1659 107.232 49.8232 107.232Z" stroke="#1E3059" stroke-width="2.25" stroke-linecap="round" stroke-linejoin="round"/>
<path d="M254.344 125.469C254.344 120.944 258.01 117.277 262.535 117.277C267.061 117.277 270.727 120.944 270.727 125.469C270.727 129.994 267.061 133.661 262.535 133.661C258.01 133.661 254.344 129.994 254.344 125.469Z" stroke="#1E3059" stroke-width="2.25" stroke-linecap="round" stroke-linejoin="round"/>
</svg>
