<svg width="274" height="139" viewBox="0 0 274 139" fill="none" xmlns="http://www.w3.org/2000/svg">
<path d="M76.836 100.727C79.4139 95.52 80.876 89.6716 80.876 83.4769C80.876 62.0071 63.4078 44.5389 41.938 44.5389C39.7833 44.5389 36.8335 44.7056 33.5117 45.1417L36.0383 31.4441H80.2989V10H18.1981L9.27163 58.3006L27.6248 73.4218C30.7927 68.92 36.0127 65.983 41.938 65.983C51.5956 65.983 59.4319 73.8194 59.4319 83.4769C59.4319 93.1345 51.5956 100.971 41.938 100.971C32.2805 100.971 24.4441 93.1345 24.4441 83.4769H3C3 104.947 20.4682 122.415 41.938 122.415H254.584" stroke="#1E3059" stroke-width="2.25" stroke-linecap="round" stroke-linejoin="round"/>
<path d="M72.3086 100.727C72.3086 98.2256 74.335 96.1992 76.836 96.1992C79.3369 96.1992 81.3634 98.2256 81.3634 100.727C81.3634 103.228 79.3369 105.254 76.836 105.254C74.335 105.254 72.3086 103.228 72.3086 100.727Z" fill="#1E3059"/>
<path d="M76.836 105.254C79.3364 105.254 81.3634 103.227 81.3634 100.727C81.3634 98.2262 79.3364 96.1992 76.836 96.1992C74.3356 96.1992 72.3086 98.2262 72.3086 100.727C72.3086 103.227 74.3356 105.254 76.836 105.254Z" stroke="#1E3059" stroke-width="2.25" stroke-linecap="round" stroke-linejoin="round"/>
<path d="M254.582 122.415C254.582 118.157 258.032 114.707 262.29 114.707C266.548 114.707 269.998 118.157 269.998 122.415C269.998 126.673 266.548 130.123 262.29 130.123C258.032 130.123 254.582 126.673 254.582 122.415Z" stroke="#1E3059" stroke-width="2.25" stroke-linecap="round" stroke-linejoin="round"/>
</svg>
