<svg width="274" height="139" viewBox="0 0 274 139" fill="none" xmlns="http://www.w3.org/2000/svg">
<path d="M256.588 115.701H70.482V44.284L51.6328 50.66V30.763L89.3311 18V96.8521" stroke="#1E3059" stroke-width="2.25" stroke-linecap="round" stroke-linejoin="round"/>
<path d="M85.3867 96.8528C85.3867 94.6792 87.1479 92.918 89.3215 92.918C91.4951 92.918 93.2563 94.6792 93.2563 96.8528C93.2563 99.0264 91.4951 100.788 89.3215 100.788C87.1479 100.788 85.3867 99.0264 85.3867 96.8528Z" fill="#1E3059"/>
<path d="M89.3332 100.788C91.5064 100.788 93.268 99.0259 93.268 96.8528C93.268 94.6796 91.5064 92.918 89.3332 92.918C87.1601 92.918 85.3984 94.6796 85.3984 96.8528C85.3984 99.0259 87.1601 100.788 89.3332 100.788Z" stroke="#1E3059" stroke-width="2.25" stroke-linecap="round" stroke-linejoin="round"/>
<path d="M256.602 115.703C256.602 112.002 259.6 109.004 263.301 109.004C267.001 109.004 270 112.002 270 115.703C270 119.404 267.001 122.402 263.301 122.402C259.6 122.402 256.602 119.404 256.602 115.703Z" stroke="#1E3059" stroke-width="2.25" stroke-linecap="round" stroke-linejoin="round"/>
<path d="M207.944 115.701H21.838V44.284L3 50.66V30.763L40.6872 18V96.8521" stroke="#1E3059" stroke-width="2.25" stroke-linecap="round" stroke-linejoin="round"/>
<path d="M36.7539 96.8528C36.7539 94.6792 38.5151 92.918 40.6887 92.918C42.8623 92.918 44.6235 94.6792 44.6235 96.8528C44.6235 99.0264 42.8623 100.788 40.6887 100.788C38.5151 100.788 36.7539 99.0264 36.7539 96.8528Z" fill="#1E3059"/>
<path d="M40.6887 100.788C42.8618 100.788 44.6235 99.0259 44.6235 96.8528C44.6235 94.6796 42.8618 92.918 40.6887 92.918C38.5156 92.918 36.7539 94.6796 36.7539 96.8528C36.7539 99.0259 38.5156 100.788 40.6887 100.788Z" stroke="#1E3059" stroke-width="2.25" stroke-linecap="round" stroke-linejoin="round"/>
</svg>
