<svg width="274" height="139" viewBox="0 0 274 139" fill="none" xmlns="http://www.w3.org/2000/svg">
<path d="M78.5721 100.415H42.329C52.413 90.137 63.4137 78.9426 65.9186 76.4377C74.3628 67.9935 78.6366 58.4517 78.6366 48.0578C78.6366 26.8827 61.3221 9 40.8183 9C20.3146 9 3 26.5211 3 48.0578H24.8337C24.8337 38.5677 31.9996 30.8337 40.8183 30.8337C49.637 30.8337 56.803 38.8776 56.803 48.0578C56.803 50.8984 56.1445 55.34 50.4762 61.0082C45.5698 65.9147 10.0369 102.158 8.5262 103.694V122.248H254.481" stroke="#1E3059" stroke-width="2.25" stroke-linecap="round" stroke-linejoin="round"/>
<path d="M74.0039 100.413C74.0039 97.8955 76.0439 95.8555 78.5617 95.8555C81.0795 95.8555 83.1196 97.8955 83.1196 100.413C83.1196 102.931 81.0795 104.971 78.5617 104.971C76.0439 104.971 74.0039 102.931 74.0039 100.413Z" fill="#1E3059"/>
<path d="M78.5734 104.971C81.0907 104.971 83.1313 102.931 83.1313 100.413C83.1313 97.8961 81.0907 95.8555 78.5734 95.8555C76.0562 95.8555 74.0156 97.8961 74.0156 100.413C74.0156 102.931 76.0562 104.971 78.5734 104.971Z" stroke="#1E3059"/>
<path d="M254.48 122.248C254.48 117.962 257.954 114.488 262.24 114.488C266.527 114.488 270 117.962 270 122.248C270 126.535 266.527 130.008 262.24 130.008C257.954 130.008 254.48 126.535 254.48 122.248Z" stroke="#1E3059" stroke-width="2.25" stroke-linecap="round" stroke-linejoin="round"/>
</svg>
