<svg width="274" height="139" viewBox="0 0 274 139" fill="none" xmlns="http://www.w3.org/2000/svg">
<path d="M254.194 123.37H17.5973L56.9796 30.2447H3V8H73.7619L84.0155 23.4528L51.175 101.112" stroke="#1E3059" stroke-width="2.25" stroke-linecap="round" stroke-linejoin="round"/>
<path d="M46.5273 101.111C46.5273 98.5445 48.607 96.4648 51.1737 96.4648C53.7404 96.4648 55.8201 98.5445 55.8201 101.111C55.8201 103.678 53.7404 105.758 51.1737 105.758C48.607 105.758 46.5273 103.678 46.5273 101.111Z" fill="#1E3059"/>
<path d="M51.1737 105.758C53.7399 105.758 55.8201 103.677 55.8201 101.111C55.8201 98.5451 53.7399 96.4648 51.1737 96.4648C48.6076 96.4648 46.5273 98.5451 46.5273 101.111C46.5273 103.677 48.6076 105.758 51.1737 105.758Z" stroke="#1E3059" stroke-width="2.25" stroke-linecap="round" stroke-linejoin="round"/>
<path d="M262.09 131.282C266.459 131.282 270.001 127.741 270.001 123.372C270.001 119.003 266.459 115.461 262.09 115.461C257.721 115.461 254.18 119.003 254.18 123.372C254.18 127.741 257.721 131.282 262.09 131.282Z" stroke="#1E3059" stroke-width="2.25" stroke-linecap="round" stroke-linejoin="round"/>
</svg>
