<svg width="274" height="139" viewBox="0 0 274 139" fill="none" xmlns="http://www.w3.org/2000/svg">
<path d="M76.364 101.59V91.8012H92.4364V73.6255H76.364V8H60.4636L3 80.0941L8.68816 91.8012H53.995V123.959H254.099M31.3879 71.2973L53.995 42.9359V71.2973H31.3879Z" stroke="#1E3059" stroke-width="2.25" stroke-linecap="round" stroke-linejoin="round"/>
<path d="M71.6953 101.588C71.6953 99.008 73.7854 96.918 76.3649 96.918C78.9444 96.918 81.0345 99.008 81.0345 101.588C81.0345 104.167 78.9444 106.257 76.3649 106.257C73.7854 106.257 71.6953 104.167 71.6953 101.588Z" fill="#1E3059"/>
<path d="M71.6953 101.588C71.6953 99.008 73.7854 96.918 76.3649 96.918C78.9444 96.918 81.0345 99.008 81.0345 101.588C81.0345 104.167 78.9444 106.257 76.3649 106.257C73.7854 106.257 71.6953 104.167 71.6953 101.588Z" stroke="#1E3059" stroke-width="2.25" stroke-linecap="round" stroke-linejoin="round"/>
<path d="M262.052 131.908C266.443 131.908 270.002 128.349 270.002 123.958C270.002 119.567 266.443 116.008 262.052 116.008C257.661 116.008 254.102 119.567 254.102 123.958C254.102 128.349 257.661 131.908 262.052 131.908Z" stroke="#1E3059" stroke-width="2.25" stroke-linecap="round" stroke-linejoin="round"/>
</svg>
