<svg width="100" height="100" viewBox="0 0 100 100" fill="none" xmlns="http://www.w3.org/2000/svg">
<g clip-path="url(#clip0_1539_158)">
<path fill-rule="evenodd" clip-rule="evenodd" d="M33.7155 48.2109H38.2013L38.4517 48.2423L38.6916 48.3363L38.8899 48.5139L39.0359 48.7125L39.1611 48.9423L39.1924 49.214V50.5722L39.2341 50.8543L39.3384 51.0946L39.4949 51.2932L39.6931 51.4499L39.9435 51.5439L40.1835 51.5753L40.4338 51.5439L40.6738 51.4394L41.8526 50.7603L42.103 50.6663L42.3533 50.6349L42.6037 50.6663L42.8437 50.7603L43.0419 50.9066L43.2192 51.1364L45.4934 54.9814L45.5978 55.2321L45.6291 55.4829L45.5873 55.7546L45.4934 55.9844L45.337 56.1829L45.1179 56.3606L43.939 57.0397L43.7304 57.2173L43.5739 57.4158L43.48 57.6561L43.4487 57.9069L43.48 58.1472L43.5739 58.3875L43.7304 58.5965L43.9495 58.7741L45.1283 59.4532L45.3474 59.6309L45.5039 59.8294L45.5978 60.0592L45.6395 60.3309L45.6082 60.5712L45.5039 60.8219L43.2609 64.6982L43.0836 64.9072L42.8854 65.0639L42.6454 65.158L42.3951 65.1893L42.1447 65.158L41.8943 65.0639L40.6946 64.3848L40.4547 64.2803L40.2043 64.2385L39.9644 64.2803L39.714 64.3743L39.5158 64.5206L39.3593 64.7191L39.255 64.9699L39.2133 65.252V66.5998L39.182 66.8715L39.0568 67.1118L38.9107 67.3103L38.7125 67.467L38.4726 67.5715L38.2222 67.6029H33.7364L33.4651 67.5715L33.2252 67.467L33.027 67.3103L32.8809 67.1118L32.7766 66.8715L32.7349 66.5998V65.252L32.6931 64.9699L32.5888 64.7191L32.4323 64.5206L32.2341 64.3743L31.942 64.2803L31.7021 64.2385L31.4517 64.2803L31.2013 64.3848L30.0225 65.0639L29.7721 65.158L29.5218 65.1893L29.2714 65.158L29.0314 65.0639L28.8332 64.9072L28.6559 64.6982L26.413 60.8219L26.3191 60.5712L26.2773 60.3309L26.3191 60.0592L26.413 59.8294L26.5694 59.6309L26.7885 59.4532L27.9674 58.7741L28.1864 58.5965L28.3429 58.3875L28.4368 58.1472L28.4681 57.9069L28.4368 57.6561L28.3429 57.4158L28.1864 57.2173L27.9674 57.0397L26.7885 56.3606L26.5694 56.1829L26.413 55.9844L26.3191 55.7546L26.2773 55.4829L26.3191 55.2321L26.4025 54.9814L28.6455 51.126L28.8228 50.8961L29.021 50.7499L29.2609 50.6558L29.5113 50.6245L29.7617 50.6558L30.0121 50.7499L31.1909 51.429L31.4308 51.5335L31.6812 51.5648L31.9212 51.5335L32.1715 51.4394L32.3697 51.2827L32.5262 51.0842L32.6305 50.8439L32.6723 50.5618V49.2035L32.714 48.9319L32.8183 48.702L32.9644 48.5035L33.1626 48.3259L33.4025 48.2318L33.7155 48.2109ZM35.9584 54.9291L35.4159 54.9814L34.8943 55.1172L34.4562 55.3262L34.0389 55.6187L33.6738 55.9844L33.3817 56.4023L33.1522 56.8725L33.0165 57.3636L32.9644 57.9069L33.0165 58.4293L33.1522 58.9517L33.3817 59.401L33.6738 59.8294L34.0389 60.1742L34.4562 60.4667L34.8943 60.6966L35.4159 60.8324L35.948 60.8846L36.4696 60.8324L36.9912 60.6966L37.4502 60.4667L37.8675 60.1742L38.2326 59.8294L38.5143 59.401L38.7438 58.9517L38.8899 58.4293L38.9316 57.9069L38.8899 57.3636L38.7438 56.8725L38.5143 56.4023L38.2326 55.9844L37.8675 55.6187L37.4502 55.3262L36.9912 55.1172L36.48 54.9814L35.9584 54.9291Z" fill="white"/>
<path fill-rule="evenodd" clip-rule="evenodd" d="M41.288 28.8164H41.5696L41.8513 28.9L42.1226 29.0149L42.3625 29.2239L47.0048 33.9674L47.1717 34.1763L47.2865 34.4167L47.3595 34.6674L47.3908 34.9391L47.3595 35.2107L47.2865 35.4615L47.1717 35.6913L47.0048 35.9003L42.3625 40.6543L42.1539 40.8423L41.9348 40.9573L41.674 41.0408L41.4132 41.0513L41.1628 41.0408L40.9229 40.9573L40.6933 40.8423L40.4743 40.6543L40.2865 40.4035L40.1613 40.1214L40.0987 39.8288V39.5363L40.1613 39.2542L40.2865 38.9721L40.4743 38.7318L42.8111 36.3391L41.6635 36.4541L40.5369 36.6526L39.4519 36.9556L38.3774 37.3317L37.3655 37.781L36.3848 38.3138L35.4355 38.8885L34.5592 39.5676L33.7142 40.299L32.9422 41.0722L32.2015 41.9289L31.5443 42.8275L30.9497 43.7783L30.4281 44.7604L29.9691 45.8052L29.5831 46.8918L29.2805 47.9889H29.2075L28.7276 48.0411L28.2686 48.1456L27.82 48.3024L27.4236 48.5531L27.0585 48.8457L26.7351 49.2009L26.4638 49.6188L26.2656 49.9741L26.4117 48.7203L26.6516 47.4874L26.9646 46.2754L27.3506 45.1156L27.82 43.9872L28.3625 42.9006L28.9571 41.8662L29.6352 40.8737L30.3655 39.9229L31.1583 39.0348L31.9929 38.2094L32.9005 37.4257L33.8498 36.7257L34.8409 36.057L35.8737 35.4824L36.9482 34.96L38.0749 34.542L39.2328 34.1659L40.4221 33.8838L41.6322 33.7062L42.8528 33.6017L40.4743 31.1568L40.2865 30.9061L40.1613 30.6344L40.0987 30.3418V30.0388L40.1613 29.7463L40.2865 29.4642L40.4743 29.2239L40.7246 29.0149L40.9959 28.9L41.288 28.8164Z" fill="white"/>
<path fill-rule="evenodd" clip-rule="evenodd" d="M59.7019 25.2969L60.3695 25.3178L61.0059 25.4327L61.6318 25.6521L62.2056 25.9238L62.7376 26.2372L63.2175 26.6238L63.6557 27.0626L64.0521 27.5537L64.365 28.0866L64.6363 28.6612L64.8345 29.2881L64.9492 29.9254L64.991 30.5837L64.9492 31.2419L64.8345 31.8793L64.6363 32.4957L64.365 33.0704L64.0521 33.6032L63.6557 34.0838L63.2175 34.5331L62.7376 34.9301L62.2056 35.2645L61.6318 35.5257L61.0059 35.7138L60.3695 35.8287L59.7019 35.8705L59.0446 35.8287L58.4083 35.7138L57.8032 35.5257L57.2294 35.2645L56.6974 34.9301L56.2175 34.5331L55.7689 34.0838L55.3725 33.6032L55.0387 33.0704L54.7883 32.4957L54.6005 31.8793L54.4649 31.2419L54.4336 30.5837L54.4649 29.9254L54.6005 29.2881L54.7883 28.6612L55.0387 28.0866L55.3725 27.5537L55.7689 27.0626L56.2175 26.6238L56.6974 26.2372L57.2294 25.9238L57.8032 25.6521L58.4083 25.4327L59.0446 25.3178L59.7019 25.2969Z" fill="white"/>
<path fill-rule="evenodd" clip-rule="evenodd" d="M55.4638 39.4023L55.6203 39.4128L55.7351 39.4755L55.8394 39.58L55.9228 39.6949L59.1777 48.3878L59.2611 48.5341L59.3968 48.6595L59.5532 48.7326L59.7097 48.764L59.8871 48.7326L60.054 48.6595L60.1792 48.5341L60.2731 48.3878L63.5279 39.6949L63.6218 39.5486L63.747 39.4337L63.9348 39.4023L64.1121 39.4128L66.981 39.8725L66.9914 39.883L67.5547 40.1128L68.0763 40.3845L68.5562 40.7188L68.9944 41.1263L69.3699 41.5547L69.6829 42.0457L69.9437 42.5577L70.1315 43.1219L70.2358 43.6966L70.2671 44.2817V51.5432L70.2358 51.9298L70.1315 52.2955L69.9333 52.6402L69.6829 52.9328L69.3804 53.1731L69.0465 53.3403L68.671 53.4657L68.2537 53.497H51.1762L50.7693 53.4657L50.3938 53.3403L50.0495 53.1731L49.7365 52.9328L49.4966 52.6402L49.3193 52.2955L49.2045 51.9298L49.1523 51.5432V44.313L49.2045 43.7175L49.3193 43.1428L49.4966 42.5682L49.7365 42.0666L50.0599 41.586L50.4459 41.1367L50.8737 40.7293L51.3431 40.3845L51.8751 40.1128L52.4593 39.8725H52.4906L52.6158 39.8412L52.7932 39.7994L53.0436 39.7785L53.3148 39.7367L53.6278 39.674L53.9303 39.6218L54.2433 39.58L54.5771 39.5277L54.8483 39.4859L55.0778 39.4337L55.276 39.4128L55.4221 39.4023H55.4638Z" fill="white"/>
<path fill-rule="evenodd" clip-rule="evenodd" d="M73.7945 53.4961L73.7527 54.8021L73.5963 56.0977L73.3772 57.341L73.0538 58.5844L72.6365 59.7546L72.1462 60.9143L71.5516 62.0323L70.9152 63.1085L70.1954 64.1324L69.4025 65.1041L68.5471 66.0131L67.629 66.8698L66.6589 67.6639L65.6261 68.3953L64.5411 69.0848L63.404 69.6699L62.246 70.1924L61.015 70.6416L59.7736 71.0178L58.4696 71.2999L57.1447 71.4984L55.7885 71.6029L58.3548 74.0582L58.5739 74.309L58.7095 74.5911L58.7826 74.8941V75.1866L58.7095 75.4792L58.5739 75.7613L58.3548 76.0016L58.1358 76.1896L57.8854 76.3255L57.6141 76.3882L57.3429 76.4195L57.0612 76.3882L56.8109 76.3255L56.5605 76.1896L56.331 76.0016L51.3131 71.2267L51.1045 70.976L50.9793 70.7043L50.9062 70.4118V70.0983L50.9793 69.8058L51.1045 69.5237L51.3131 69.2834L56.331 64.4876L56.6022 64.2891L56.8943 64.1533L57.1864 64.0906H57.489L57.8019 64.1533L58.094 64.2891L58.3548 64.4876L58.5739 64.7488L58.7095 65.0205L58.7826 65.3235V65.616L58.7095 65.9086L58.5739 66.1907L58.3548 66.431L55.8407 68.8445L57.0717 68.7192L58.2714 68.5206L59.4606 68.2281L60.5978 67.852L61.6723 67.4027L62.7259 66.8907L63.7274 66.3056L64.6767 65.6369L65.5843 64.916L66.4293 64.1428L67.2222 63.307L67.9316 62.4084L68.5784 61.4785L69.1626 60.486L69.6633 59.462L70.091 58.3963L70.4249 57.2888L70.6857 56.1499L71.176 56.0977L71.6246 55.9828L72.0627 55.8365L72.4487 55.638L72.8138 55.3663L73.1372 55.0842L73.3876 54.7499L73.5858 54.3842L73.7214 53.9558L73.7945 53.4961Z" fill="white"/>
<path fill-rule="evenodd" clip-rule="evenodd" d="M58.8255 37.6367H60.6303L60.8598 37.6472L61.0789 37.7308L61.2667 37.8352L61.4231 38.0233L61.4753 38.2114V38.4203L61.3814 38.6084L60.4112 39.7368L60.8598 42.7146L59.9731 44.5534L59.9 44.6475L59.7749 44.6893H59.6601L59.5453 44.6475L59.4515 44.5534L58.5856 42.7146L59.0237 39.7368L58.0744 38.6084L57.9701 38.4203L57.9492 38.2114L58.0327 38.0233L58.1787 37.8352L58.3769 37.7308L58.5856 37.6472L58.8255 37.6367Z" fill="white"/>
<path d="M50.225 97.452C75.7544 97.452 96.4501 76.3082 96.4501 50.226C96.4501 24.1438 75.7544 3 50.225 3C24.6957 3 4 24.1438 4 50.226C4 76.3082 24.6957 97.452 50.225 97.452Z" stroke="white" stroke-width="5.3175" stroke-miterlimit="8"/>
</g>
<defs>
<clipPath id="clip0_1539_158">
<rect width="100" height="100" fill="white"/>
</clipPath>
</defs>
</svg>
