<svg width="100" height="100" viewBox="0 0 100 100" fill="none" xmlns="http://www.w3.org/2000/svg">
<g clip-path="url(#clip0_1539_188)">
<path fill-rule="evenodd" clip-rule="evenodd" d="M50.3427 25.2969L51.365 25.3387L52.3561 25.4745L53.3158 25.6835L54.2652 25.976L55.1623 26.3521L56.0491 26.8014L56.8836 27.3029L57.6765 27.8985L58.4172 28.5358L59.1161 29.2359L59.7629 29.9986L60.3471 30.8135L60.8896 31.6703L61.3591 32.5688L61.7763 33.5092L62.1102 34.4913L62.3814 35.5152L62.5796 36.5705L62.6944 37.6362L62.757 38.7437L62.6944 39.8095L62.59 40.8961L62.3918 41.9409L62.1206 42.9439L61.7972 43.9261L61.3904 44.856L60.9209 45.7545L60.3993 46.6008L59.8151 47.4158L59.1892 48.1576L58.5006 48.8576L57.7912 49.495L57.0088 50.0905L56.8941 49.5577L56.7689 49.077L56.602 48.6173L56.3933 48.1994L56.143 47.8233L55.9239 47.5516L55.6944 47.3008L55.444 47.1023L56.0386 46.6217L56.6124 46.1202L57.134 45.556L57.6139 44.95L58.0312 44.3022L58.4172 43.6126H55.976L55.7152 44.4276L55.444 45.2008L55.131 45.9321L54.8076 46.5904L54.5468 46.3187L54.2339 46.0262L53.8687 45.7441L53.4515 45.4515L53.3784 45.4097L53.3054 45.3679L53.5766 44.8246L53.8061 44.25L54.0252 43.6335H51.2711V44.6783L50.8643 44.6365L50.447 44.6261L49.8836 44.6574L49.6541 44.6679L49.3933 44.6992V43.6335H46.6497L46.8792 44.2709L47.1295 44.8769L47.4008 45.4411L46.8792 45.8068L46.3576 46.1829L45.8673 46.6322L45.5439 45.953L45.2309 45.2321L44.9492 44.4485L44.6884 43.6335H42.2473L42.6541 44.3336L43.0923 44.9918L43.5826 45.6082L44.1251 46.1829L44.7093 46.7157L45.3352 47.165L44.9179 47.7083L44.5424 48.283L44.219 48.8785L43.9686 49.495L43.7912 50.1428L42.9984 49.5681L42.2577 48.9203L41.5588 48.2307L40.9224 47.468L40.3278 46.6531L39.7957 45.8068L39.3263 44.8978L38.909 43.9679L38.5752 42.9648L38.3039 41.9514L38.1057 40.8961L37.9909 39.8304L37.9492 38.7437L37.9909 37.6362L38.1057 36.5496L38.3039 35.5048L38.5752 34.4809L38.909 33.4987L39.3263 32.5584L39.8061 31.6494L40.3382 30.8031L40.9328 29.9777L41.5692 29.2359L42.2681 28.5358L43.0088 27.8985L43.8225 27.3134L44.6571 26.8119L45.523 26.3626L46.4202 25.9865L47.3695 25.6939L48.3397 25.4849L49.3307 25.3491L50.3427 25.2969ZM49.4038 29.1418L49.0699 29.518L48.7048 29.9672L48.3397 30.4896L47.9746 31.0539L47.599 31.6703L47.2756 32.3494L46.9418 33.0913L46.6601 33.8749H49.4142V29.1418H49.4038ZM51.2711 29.1627V33.8958H54.0148L53.7331 33.1122L53.4097 32.3703L53.0759 31.6912L52.7108 31.0747L52.3352 30.5105L51.9805 30.009L51.6154 29.5598L51.2711 29.1627ZM54.0044 29.5284L54.3799 30.124L54.745 30.7822L55.0789 31.4822L55.4127 32.2241L55.7152 33.039L55.9865 33.8853H58.4276L58.0208 33.1853L57.5826 32.5271L57.0923 31.9106L56.5498 31.336L55.9656 30.8135L55.3501 30.3225L54.6825 29.9045L54.0044 29.5284ZM46.681 29.5389L45.9924 29.9045L45.3248 30.3225L44.7093 30.8031L44.1251 31.3255L43.5826 31.9002L43.0923 32.5375L42.6541 33.1957L42.2473 33.8958H44.6884L44.9597 33.039L45.2622 32.2345L45.596 31.4718L45.9298 30.7822L46.295 30.124L46.681 29.5389ZM41.4753 35.9018L41.298 36.5914L41.1832 37.281L41.1206 38.0019L41.0997 38.7333L41.1206 39.4751L41.1832 40.1961L41.298 40.8961L41.4753 41.5752H44.2398L44.1251 40.6871L44.0521 39.7363L44.0312 38.7333L44.0521 37.7512L44.1251 36.8108L44.2398 35.9123H41.4753V35.9018ZM51.2711 35.9018V41.5648H54.5155L54.6199 40.9065L54.7137 40.2169L54.7555 39.4856L54.7763 38.7228L54.7555 37.981L54.7137 37.2601L54.6199 36.5601L54.5155 35.9018H51.2711ZM56.4351 35.9018L56.5394 36.8004L56.6124 37.7407L56.6333 38.7228L56.6124 39.7259L56.5394 40.6662L56.4351 41.5648H59.1996L59.3665 40.8961L59.4813 40.1961L59.5439 39.4751L59.5647 38.7333L59.5439 38.0019L59.4813 37.281L59.3665 36.5914L59.1996 35.9018H56.4351ZM46.1594 35.9227L46.055 36.581L45.9611 37.2705L45.9194 37.9915L45.8985 38.7646L45.9194 39.5065L45.9611 40.2274L46.055 40.9274L46.1594 41.5857H49.4038V35.9227H46.1594Z" fill="white"/>
<path fill-rule="evenodd" clip-rule="evenodd" d="M46.6603 60.8008L48.6424 66.5264L48.9241 67.2996L49.8108 65.0114L49.5396 64.6353L49.3101 64.2905L49.1536 64.0084L49.0493 63.7158L48.9763 63.486L48.9554 63.277L48.9658 63.0889L49.0075 62.9322L49.0806 62.7755L49.1745 62.671L49.2788 62.5665L49.404 62.4934L49.5396 62.4307L49.6752 62.3785L49.8108 62.3367L49.9464 62.3053L50.0925 62.2949L50.1968 62.2844H50.2803H50.3429H50.3846H50.4576H50.5515L50.6663 62.2949L50.8019 62.3053L50.9166 62.3367L51.0523 62.3785L51.1983 62.4307L51.3444 62.4934L51.4695 62.5665L51.5739 62.671L51.6573 62.7755L51.7303 62.9322L51.7825 63.0889V63.277L51.7512 63.486L51.6991 63.7158L51.5947 64.0084L51.4278 64.2905L51.1983 64.6353L50.9375 65.0114L51.8138 67.2996L52.0955 66.5264L54.088 60.8008L54.1193 60.8217L54.2132 60.8844L54.3801 60.968L54.5783 61.0724L54.86 61.2083L55.1834 61.3754L55.5798 61.5531L56.0075 61.7516L56.477 61.9605L57.009 62.1695L57.6037 62.3994L58.2192 62.6188L58.6678 62.7964L59.0537 62.9949L59.4084 63.183L59.8153 63.0158L60.17 62.8382L60.4934 62.7024L60.7751 62.5665L61.0046 62.462L61.1819 62.3471L61.3175 62.2844L61.3906 62.2322L61.4114 62.2217L63.091 67.0384L63.3101 67.6862L64.0821 65.7532L63.8213 65.4189L63.623 65.1055L63.4874 64.8234L63.3935 64.583L63.3518 64.3636L63.3414 64.186L63.3831 64.0397L63.4457 63.9039L63.5292 63.7785L63.6439 63.6949L63.7482 63.6323L63.8734 63.5696L64.009 63.5382L64.1447 63.5069L64.2594 63.486L64.3637 63.4755H64.4576H64.5202H64.5515H64.6245H64.7184L64.8332 63.486L64.9479 63.5069L65.0731 63.5382L65.1983 63.5696L65.3339 63.6323L65.4591 63.6949L65.553 63.7785L65.6365 63.9039L65.6991 64.0397L65.7304 64.186V64.3636L65.6886 64.583L65.6052 64.8234L65.4695 65.1055L65.2818 65.4189L65.021 65.7532L65.7616 67.6862L65.9912 67.0384L67.6603 62.2217L67.702 62.2322L67.7959 62.2844L67.942 62.3785L68.1506 62.4934L68.4323 62.6188L68.7453 62.7755L69.1312 62.9531L69.5694 63.1412L70.0388 63.3188L70.5709 63.5382L71.1238 63.7472L71.6037 63.9353L72.021 64.1442L72.3444 64.4054L72.626 64.6771L72.8451 64.9905L73.0224 65.3458L73.1685 65.7532L73.2624 66.1816L73.3145 66.6518L73.3563 67.1742L73.3771 67.728V68.3235L73.398 68.9817V69.6713H27.3086L27.3295 68.9817V68.3235L27.3399 67.728L27.3712 67.1742L27.4025 66.6518L27.4755 66.1816L27.5694 65.7532L27.7259 65.3458L27.8824 64.9905L28.1014 64.6771L28.3935 64.4054L28.7169 64.1442L29.1238 63.9353L29.6037 63.7472L30.1774 63.5487L30.6991 63.3397L31.1685 63.1412L31.6067 62.9636L31.9822 62.7755L32.2952 62.6292L32.5873 62.4934L32.7855 62.3785L32.942 62.2844L33.0359 62.2322L33.0672 62.2217L34.7467 67.0384L34.9763 67.6862L35.7274 65.7532L35.4666 65.4189L35.2788 65.1055L35.1432 64.8234L35.0597 64.583L35.018 64.3636L35.0075 64.186L35.0493 64.0397L35.1014 63.9039L35.1849 63.7785L35.2892 63.6949L35.404 63.6323L35.5396 63.5696L35.6752 63.5382L35.8004 63.5069L35.9047 63.486L36.0195 63.4755H36.0925H36.176H36.2177H36.2907H36.3742L36.4785 63.486L36.6037 63.5069L36.7393 63.5382L36.8645 63.5696L36.9897 63.6323L37.1044 63.6949L37.1983 63.7785L37.2818 63.9039L37.3652 64.0397L37.3965 64.186V64.3636L37.3548 64.583L37.24 64.8234L37.1253 65.1055L36.9271 65.4189L36.6558 65.7532L37.4174 67.6862L37.6365 67.0384L39.316 62.2217L39.3473 62.2322L39.4308 62.2844L39.556 62.3471L39.7333 62.462L39.9628 62.5665L40.2341 62.7024L40.5679 62.8486L40.9226 63.0263L41.3295 63.183L41.6842 62.974L42.0701 62.7755L42.5187 62.6188L43.1342 62.3994L43.7184 62.1695L44.2505 61.9605L44.7408 61.7516L45.1685 61.5531L45.5545 61.3754L45.8779 61.2083L46.1491 61.0724L46.3578 60.968L46.5351 60.8844L46.6186 60.8217L46.6603 60.8008Z" fill="white"/>
<path fill-rule="evenodd" clip-rule="evenodd" d="M63.8298 50.1445L64.2262 50.1863L64.6018 50.2595L64.946 50.3535L65.2381 50.4998L65.5198 50.6356L65.8119 50.8341L66.0518 51.0431L66.2396 51.2416L66.3752 51.3983L66.4691 51.555L66.5317 51.6282L66.5526 51.6595L66.563 51.67H66.5943L66.6778 51.6909L66.7717 51.7222L66.876 51.764L66.9803 51.8371L67.0951 51.9207L67.2307 52.0357L67.3559 52.1924L67.4706 52.37L67.5749 52.5999L67.6584 52.8611L67.7314 53.1745L67.794 53.5089L67.8253 53.9163L67.8149 54.3761L67.7836 54.9089L67.7001 55.494L67.6375 55.7657L67.5436 56.0791L67.6375 56.0687L67.7314 56.0791L67.8253 56.1209L67.9088 56.1732L67.9714 56.2776L68.0235 56.3926L68.0653 56.5597L68.0757 56.7583L68.0548 57.0195L68.0027 57.3225L67.9192 57.6882L67.8044 58.0747L67.6793 58.3986L67.5749 58.6389L67.4706 58.8166L67.3663 58.9419L67.2724 59.0046L67.1681 59.0255L67.1055 59.4121L66.9907 59.8091L66.8238 60.1957L66.6256 60.5928L66.3648 60.9793L66.0936 61.3241L65.7597 61.6585L65.3946 61.951L65.019 62.2122L64.5913 62.4003L64.1115 62.5152L63.6316 62.5779L63.1621 62.5152L62.6822 62.4003L62.2545 62.2122L61.8581 61.9615L61.5034 61.6794L61.18 61.3346L60.9088 60.9793L60.648 60.6032L60.4602 60.2062L60.3037 59.8091L60.1681 59.4121L60.0951 59.0255L60.022 59.0046L59.9177 58.9419L59.8238 58.827L59.7195 58.6389L59.5943 58.4091L59.49 58.0852L59.3648 57.6882L59.2813 57.3225L59.2292 57.0195L59.2188 56.7583L59.2292 56.5597L59.25 56.3926L59.3022 56.2776L59.3648 56.1732L59.4483 56.1209L59.5421 56.0791L59.6256 56.0687L59.7404 56.0791L59.6465 55.7866L59.5734 55.494L59.5004 55.003L59.4691 54.5328L59.49 54.0522L59.563 53.6029L59.6986 53.1536L59.8864 52.7357L60.0951 52.3387L60.3559 51.9834L60.6167 51.6909L60.9192 51.3774L61.2322 51.1058L61.5869 50.8446L61.8685 50.6356L62.1919 50.4789L62.5153 50.3222L62.9326 50.2072L63.3708 50.1759L63.8298 50.1445Z" fill="white"/>
<path fill-rule="evenodd" clip-rule="evenodd" d="M36.3845 50.1445L36.8853 50.1863L37.3234 50.2595L37.7407 50.3535L38.0954 50.4998L38.4188 50.6356L38.7631 50.8341L39.076 51.0431L39.2951 51.2416L39.462 51.3983L39.5872 51.555L39.6498 51.6282L39.6811 51.6595L39.702 51.67H39.7437L39.8272 51.6909L39.9315 51.7222L40.0462 51.764L40.1818 51.8371L40.3383 51.9207L40.4844 52.0357L40.62 52.1924L40.7556 52.37L40.9017 52.5999L41.006 52.8611L41.0999 53.1745L41.1625 53.5089L41.1938 53.9163V54.3761L41.152 54.9089L41.0581 55.494L40.9747 55.7657L40.8704 56.0791L40.9956 56.0687L41.0999 56.0791L41.2146 56.1209L41.3085 56.1732L41.3815 56.2776L41.4441 56.3926L41.4963 56.5597V56.7583L41.4754 57.0195L41.4128 57.3225L41.319 57.6882L41.1833 58.0747L41.0373 58.3986L40.9121 58.6389L40.7765 58.8166L40.6513 58.9419L40.5365 59.0046L40.4322 59.0255L40.3383 59.4121L40.1818 59.8091L39.9941 60.1957L39.7437 60.5928L39.4516 60.9793L39.1073 61.3241L38.7213 61.6585L38.3041 61.951L37.8346 62.2122L37.3026 62.4003L36.7601 62.5152L36.1655 62.5779L35.5917 62.5152L35.0283 62.4003L34.5172 62.2122L34.0477 61.9615L33.6096 61.6794L33.2236 61.3346L32.8793 60.9793L32.5976 60.6032L32.3473 60.2062L32.1595 59.8091L32.0239 59.4121L31.93 59.0255L31.8048 59.0046L31.7005 58.9419L31.5753 58.8166L31.4501 58.6389L31.3249 58.3986L31.1684 58.0852L31.0328 57.6882L30.9389 57.3329L30.8763 57.0404L30.8555 56.7792V56.5702L30.9076 56.3926L30.9702 56.2776L31.0432 56.1941L31.1371 56.1418L31.2623 56.1L31.3666 56.0791H31.4814L31.3666 55.7866L31.3041 55.494L31.2102 55.003L31.1476 54.5328L31.1789 54.0731L31.2936 53.6238L31.4501 53.1745L31.6483 52.7461L31.93 52.3491L32.2117 52.0043L32.5351 51.7013L32.9106 51.3774L33.2966 51.1058L33.7035 50.8446L34.0686 50.6565L34.4233 50.4893L34.8301 50.3431L35.31 50.2281L35.8421 50.1759L36.3845 50.1445Z" fill="white"/>
<path fill-rule="evenodd" clip-rule="evenodd" d="M50.4873 46.6016L50.915 46.612L51.3219 46.6747L51.6766 46.7583L52.0208 46.8837L52.3129 47.0195L52.5946 47.1553L52.8971 47.3538L53.1788 47.5628L53.3874 47.7509L53.5648 47.9389L53.7004 48.0957L53.7734 48.2106L53.8256 48.2942L53.836 48.3151H53.8569L53.909 48.336L53.9716 48.3464L54.0447 48.3673L54.1698 48.3987L54.2846 48.4718L54.3994 48.5554L54.535 48.6494L54.6602 48.7748L54.8062 48.9211L54.921 49.1196L55.0462 49.3286L55.1505 49.6002L55.2235 49.8823L55.307 50.2271L55.3591 50.6137L55.3695 51.0525L55.3591 51.5436L55.3174 52.0764L55.2131 52.7033L55.1296 53.0168L55.0462 53.372L55.1505 53.3616L55.2339 53.372L55.3591 53.3929L55.4426 53.4452L55.526 53.5392L55.5886 53.6437L55.6304 53.8004L55.6512 53.9885L55.6721 54.2079L55.6408 54.49L55.5782 54.8243L55.4843 55.19L55.3695 55.6079L55.2235 55.9423L55.1087 56.2035L55.0044 56.4124L54.9001 56.5587L54.7958 56.6632L54.681 56.7154L54.5976 56.7363L54.5037 57.1438L54.3889 57.5513L54.222 57.9483L54.0134 58.3558L53.763 58.7633L53.4605 59.1499L53.1475 59.5051L52.7824 59.8499L52.3859 60.1425L51.9478 60.3932L51.4888 60.5917L51.0298 60.738L50.5707 60.7903L50.1117 60.8007L49.6631 60.738L49.2041 60.5917L48.7347 60.4037L48.2861 60.1634L47.9001 59.8604L47.535 59.5156L47.2116 59.1708L46.9195 58.7738L46.6795 58.3663L46.4709 57.9692L46.304 57.5618L46.1892 57.1438L46.1058 56.7572L46.0119 56.7259L45.9076 56.6632L45.8032 56.5692L45.6885 56.4229L45.5842 56.2035L45.4694 55.9527L45.3338 55.6184L45.219 55.2005L45.1147 54.8348L45.0625 54.49L45.0312 54.2183V53.9989L45.0625 53.8108L45.1147 53.6541L45.1773 53.5496L45.2608 53.466L45.3442 53.4138L45.4485 53.3825L45.5529 53.372H45.6572L45.5529 53.0272L45.4903 52.7033L45.3859 52.1287L45.3442 51.5958L45.3755 51.063L45.4798 50.5614L45.605 50.1226L45.7615 49.7047L45.9597 49.3286L46.1997 48.9733L46.45 48.6494L46.7317 48.3464L47.0864 48.0016L47.4828 47.6777L47.8792 47.4061L48.2235 47.1762L48.5991 46.9777L49.0059 46.8105L49.3189 46.7165L49.6736 46.6538L50.0283 46.612L50.4873 46.6016Z" fill="white"/>
<path d="M50.225 97.452C75.7544 97.452 96.4501 76.3082 96.4501 50.226C96.4501 24.1438 75.7544 3 50.225 3C24.6957 3 4 24.1438 4 50.226C4 76.3082 24.6957 97.452 50.225 97.452Z" stroke="white" stroke-width="5.3175" stroke-miterlimit="8"/>
</g>
<defs>
<clipPath id="clip0_1539_188">
<rect width="100" height="100" fill="white"/>
</clipPath>
</defs>
</svg>
