<svg width="100" height="100" viewBox="0 0 100 100" fill="none" xmlns="http://www.w3.org/2000/svg">
<g clip-path="url(#clip0_1539_167)">
<path d="M50.225 97.452C75.7544 97.452 96.4501 76.3082 96.4501 50.226C96.4501 24.1438 75.7544 3 50.225 3C24.6957 3 4 24.1438 4 50.226C4 76.3082 24.6957 97.452 50.225 97.452Z" stroke="white" stroke-width="5.3175" stroke-miterlimit="8"/>
<path d="M24.1862 50.5083L24.1758 46.82L29.8092 45.6812C30.0074 44.5946 30.2995 43.5184 30.675 42.4631L26.3665 38.6495L29.0267 34.0523L34.4724 35.8912C35.1922 35.0449 35.985 34.2508 36.8405 33.5194L35.0044 28.055L39.6154 25.3907L43.4127 29.7163C44.4664 29.3401 45.5513 29.0476 46.6363 28.8491L47.7734 23.207H53.1042L54.2414 28.8491C55.3263 29.0476 56.4008 29.3401 57.4545 29.7163L61.2414 25.3907L65.8628 28.055L64.0267 33.5194C64.8822 34.2508 65.675 35.0449 66.3949 35.8912L71.8405 34.0627L74.5007 38.66L70.2026 42.4631C70.5782 43.5184 70.8703 44.605 71.0685 45.6916L76.681 46.82V50.5083H74.8554V48.3141L69.4619 47.2275L69.368 46.6006C69.1594 45.2214 68.7943 43.8527 68.2727 42.5258L68.0431 41.9303L72.1743 38.2734L71.0163 36.2569L65.7898 38.0122L65.3934 37.5107C64.5171 36.4136 63.5051 35.4001 62.3993 34.5225L61.8986 34.1254L63.6616 28.8804L61.6378 27.7102L57.9969 31.8686L57.4023 31.6388C56.0774 31.1163 54.7108 30.7507 53.3442 30.5417L52.7078 30.4477L51.6229 25.025H49.2756L48.1803 30.4477L47.5439 30.5417C46.1668 30.7507 44.8002 31.1163 43.4753 31.6388L42.8807 31.8686L39.2399 27.7207L37.216 28.8909L38.9791 34.1359L38.4783 34.5329C37.3725 35.421 36.371 36.424 35.4947 37.5211L35.0983 38.0226L29.8613 36.2569L28.6929 38.2734L32.8241 41.9407L32.5946 42.5363C32.0834 43.8527 31.7078 45.2214 31.4992 46.6006L31.4053 47.238L25.991 48.3246L26.0014 50.5187L24.1862 50.5083Z" fill="white"/>
<path d="M51.3413 32.3594H49.5156V34.3863H51.3413V32.3594Z" fill="white"/>
<path d="M42.6669 34.203L41.0859 35.1172L42.0979 36.8725L43.6789 35.9583L42.6669 34.203Z" fill="white"/>
<path d="M36.0648 40.1351L35.1523 41.7188L36.9052 42.7318L37.8176 41.1482L36.0648 40.1351Z" fill="white"/>
<path d="M35.3481 48.5742H33.3242V50.4027H35.3481V48.5742Z" fill="white"/>
<path d="M36.9091 56.2602L35.1562 57.2734L36.0689 58.857L37.8217 57.8438L36.9091 56.2602Z" fill="white"/>
<path d="M67.5317 48.5859H65.5078V50.4144H67.5317V48.5859Z" fill="white"/>
<path d="M63.9402 56.2603L63.0273 57.8438L64.78 58.8572L65.6928 57.2738L63.9402 56.2603Z" fill="white"/>
<path d="M64.7878 40.1311L63.0352 41.1445L63.948 42.728L65.7006 41.7145L64.7878 40.1311Z" fill="white"/>
<path d="M58.1996 34.2017L57.1875 35.957L58.7685 36.8714L59.7806 35.1161L58.1996 34.2017Z" fill="white"/>
<path d="M50.4325 62.7965C43.1091 62.7965 37.1523 56.8306 37.1523 49.4959C37.1523 42.1613 43.1091 36.1953 50.4325 36.1953C57.7559 36.1953 63.7127 42.1613 63.7127 49.4959C63.7023 56.8306 57.7455 62.7965 50.4325 62.7965ZM50.4325 38.0238C44.121 38.0238 38.978 43.1643 38.978 49.4959C38.978 55.8171 44.1106 60.9681 50.4325 60.9681C56.744 60.9681 61.8871 55.8275 61.8871 49.4959C61.8766 43.1747 56.744 38.0238 50.4325 38.0238Z" fill="white"/>
<path d="M43.4311 49.4967H41.6055C41.6055 44.6278 45.5593 40.668 50.4207 40.668V42.4964C46.5712 42.4964 43.4311 45.6309 43.4311 49.4967Z" fill="white"/>
<path d="M54.7827 65.7227H52.957V77.4351H54.7827V65.7227Z" fill="white"/>
<path d="M47.8959 65.7227H46.0703V77.4351H47.8959V65.7227Z" fill="white"/>
<path d="M57.4232 66.6403H43.4336V60.2773H45.2592V64.8119H55.5975V60.2773H57.4232V66.6403Z" fill="white"/>
</g>
<defs>
<clipPath id="clip0_1539_167">
<rect width="100" height="100" fill="white"/>
</clipPath>
</defs>
</svg>
