<svg width="500" height="500" viewBox="0 0 500 500" fill="none" xmlns="http://www.w3.org/2000/svg">
<path d="M164.649 124.971C164.614 124.97 164.578 124.976 164.544 124.989C164.511 125.002 164.48 125.021 164.454 125.046C164.428 125.071 164.408 125.101 164.394 125.134C164.38 125.167 164.373 125.203 164.373 125.239L164.315 133.678C164.315 133.888 164.42 133.993 164.63 133.993L212.356 134.012C212.521 134.012 212.604 133.93 212.604 133.764V125.229C212.603 125.193 212.595 125.157 212.58 125.124C212.564 125.091 212.543 125.061 212.516 125.036C212.49 125.011 212.459 124.992 212.425 124.979C212.39 124.966 212.354 124.961 212.318 124.962C206.465 125.22 198.627 125.888 198.503 118.489C198.436 114.794 201.482 112.369 205.014 112.302C215.128 112.118 224.659 112.111 233.608 112.283C242.343 112.465 242.544 124.589 233.379 124.962C231.157 125.051 228.955 125.054 226.772 124.971C226.301 124.959 226.062 125.185 226.056 125.649L226.008 133.315C226.008 133.742 226.218 133.955 226.638 133.955L273.734 133.946C273.868 133.946 273.934 133.876 273.934 133.736L273.954 125.21C273.954 125.025 273.861 124.936 273.677 124.943C269.782 125.153 267.086 125.124 265.59 124.857C257.132 123.339 258.163 112.331 267.099 112.236C277.575 112.121 286.785 112.14 294.728 112.293C303.864 112.465 303.779 124.866 294.432 124.962C292.249 124.981 289.974 125.051 287.606 125.172C287.428 125.185 287.339 125.28 287.339 125.458L287.319 133.659C287.319 133.85 287.415 133.946 287.606 133.946H335.074C335.16 133.946 335.242 133.912 335.303 133.853C335.364 133.794 335.398 133.714 335.398 133.631L335.379 125.239C335.379 125.203 335.372 125.167 335.358 125.134C335.344 125.101 335.323 125.071 335.298 125.046C335.272 125.021 335.241 125.002 335.208 124.989C335.174 124.976 335.138 124.97 335.102 124.971C329.489 125.153 322.691 125.869 321.326 119.873C320.419 115.825 323.703 112.417 327.618 112.312C334.886 112.121 344.318 112.108 355.915 112.274C360.555 112.341 364.746 116.455 362.359 121.229C360.02 125.936 353.643 125.143 349.213 124.981C348.748 124.962 348.516 125.185 348.516 125.649L348.43 134.308C348.424 134.716 348.624 134.907 349.032 134.881C353.022 134.639 357.115 134.305 361.309 133.879C364.517 133.548 368.555 132.564 373.424 130.929C387.134 126.314 400.344 121.655 413.054 116.952C413.754 116.691 413.853 116.29 413.35 115.749C409.378 111.472 405.159 109.238 399.364 112.255C394.886 114.594 388.346 116.112 386.246 109.648C385.091 106.097 386.952 103.347 390.303 102.097C395.077 100.314 399.472 98.7965 403.488 97.5427C406.877 96.483 409.674 96.9699 412.624 99.0511C417.602 102.564 422.248 106.033 426.563 109.457C428.835 111.271 430.85 110.985 433.647 109.963C443.296 106.418 452.006 103.37 459.777 100.817C463.208 99.6844 465.884 100.394 467.806 102.946C468.583 103.977 468.971 105.12 468.971 106.374C468.977 188.211 468.981 267.824 468.981 345.212C468.981 346.148 468.675 346.978 468.064 347.704C463.577 353.05 456.274 350.539 456.274 343.599C456.286 267.439 456.289 191.591 456.283 116.054C456.283 115.987 456.266 115.921 456.234 115.862C456.203 115.802 456.158 115.751 456.103 115.713C456.048 115.675 455.984 115.65 455.917 115.641C455.851 115.633 455.783 115.64 455.72 115.663C428.492 125.337 401.9 134.579 375.945 143.388C372.66 144.501 371.022 146.834 371.028 150.386C371.174 232.229 371.235 311.969 371.209 389.606C371.209 389.841 371.327 389.959 371.563 389.959L387.525 389.978C387.92 389.978 388.241 389.826 388.489 389.52C394.097 382.614 398.861 376.227 402.781 370.359C404.242 368.192 404.624 365.461 404.433 362.931C404.229 360.22 404.089 357.579 404.013 355.007C403.994 354.587 403.774 354.38 403.354 354.387C399.885 354.425 396.229 354.419 392.385 354.368C387.688 354.31 384.403 352.547 382.532 349.079C381.482 347.131 380.97 343.974 380.995 339.608C381.141 311.979 381.135 286.326 380.976 262.649C380.909 252.778 383.525 247.699 393.884 247.575C410.922 247.384 422.757 247.454 429.389 247.785C433.615 247.995 436.572 249.805 438.258 253.217C439.047 254.821 439.452 257.809 439.471 262.181C439.623 292.121 439.604 319.19 439.413 343.389C439.347 352.01 433.408 354.692 425.809 354.444C422.97 354.349 420.1 354.349 417.197 354.444C416.828 354.457 416.647 354.648 416.653 355.017C416.685 359.186 416.688 363.402 416.663 367.667C416.65 369.092 417.064 370.375 417.904 371.514C422.175 377.3 426.547 382.945 431.022 388.451C431.881 389.507 432.96 390.039 434.258 390.045C441.234 390.064 448.369 390.071 455.663 390.064C455.825 390.064 455.98 390 456.095 389.885C456.209 389.771 456.274 389.615 456.274 389.453C456.331 383.84 456.315 377.545 456.226 370.569C456.169 366.664 457.982 363.323 462.126 362.798C464.952 362.435 467.281 364.602 468.732 366.75C468.912 367.017 469.006 367.334 469 367.657C468.968 377.542 468.962 387.493 468.981 397.511C468.99 400.957 464.016 402.848 461.181 402.848C320.559 402.886 179.937 402.927 39.3158 402.972C35.9616 402.972 33.3521 401.753 31.4872 399.315C31.2269 398.968 31.0862 398.546 31.0862 398.112L31.0671 167.446C31.0671 167.134 31.1562 166.848 31.3344 166.587C33.2152 163.914 36.4135 162.043 39.774 163.417C42.4727 164.525 43.8252 166.915 43.8315 170.587C43.8443 243.52 43.7997 316.393 43.6979 389.205C43.6979 389.354 43.7572 389.498 43.8629 389.603C43.9685 389.709 44.1118 389.768 44.2612 389.768H127.788C128.469 389.768 128.81 389.428 128.81 388.747C128.772 309.322 128.803 229.317 128.905 148.734C128.905 146.315 127.734 144.702 125.392 143.894C96.6872 134.016 69.6436 124.596 44.2612 115.634C44.2017 115.613 44.1378 115.606 44.0751 115.614C44.0124 115.623 43.9527 115.646 43.9011 115.683C43.8494 115.72 43.8074 115.768 43.7787 115.824C43.75 115.881 43.7353 115.943 43.7361 116.007C43.7106 125.191 43.7392 134.35 43.822 143.483C43.8793 150.529 36.318 153.641 31.9168 147.751C31.3185 146.955 31.0226 146.073 31.0289 145.106C31.1117 132.58 31.1021 119.606 31.0003 106.183C30.9876 105.005 31.3758 103.933 32.165 102.965C34.2654 100.369 37.0086 99.6398 40.3946 100.779C49.7889 103.949 58.9922 107.185 68.0047 110.488C70.3437 111.338 72.6445 110.183 74.4489 108.713C79.8462 104.315 84.3937 100.989 88.0916 98.7361C90.873 97.043 94.3895 96.8553 98.6411 98.1728C102.619 99.4075 106.454 100.801 110.145 102.354C112.265 103.242 113.964 105.409 113.945 107.825C113.916 113.505 108.704 115.252 104.054 113.582C102.285 112.939 100.512 112.251 98.7366 111.52C96.1398 110.444 93.648 110.651 91.2613 112.14C90.7775 112.446 89.7974 113.06 88.3208 113.983C85.9849 115.44 86.1122 116.637 88.7027 117.572C106.88 124.134 121.875 129.347 133.688 133.21C137.017 134.299 142.764 134.744 150.93 134.547C151.121 134.541 151.217 134.442 151.217 134.251V125.258C151.217 125.205 151.206 125.154 151.186 125.106C151.165 125.058 151.135 125.015 151.097 124.98C151.059 124.945 151.015 124.918 150.966 124.902C150.918 124.886 150.866 124.88 150.816 124.885C143.496 125.63 139.156 124.526 137.794 121.573C135.512 116.608 138.806 112.331 143.98 112.264C153.864 112.131 163.192 112.134 171.962 112.274C181.023 112.427 181.223 124.542 172.077 124.943C169.684 125.051 167.208 125.06 164.649 124.971ZM248.387 297.085C248.444 293.801 250.85 291.128 254.124 291.014C260.801 290.797 268.566 290.765 277.419 290.918C282.562 291.014 285.127 293.435 285.114 298.183C285.089 307.221 285.063 316.695 285.038 326.605C285.038 326.701 285.076 326.793 285.144 326.861C285.212 326.93 285.304 326.968 285.4 326.968C294.419 326.853 302.852 326.875 310.7 327.035C314.318 327.111 317.622 329.555 317.431 333.393C317.234 337.524 314.729 339.684 309.917 339.875C309.332 339.894 309.039 340.2 309.039 340.792V389.453C309.039 389.575 309.087 389.691 309.173 389.777C309.259 389.863 309.376 389.911 309.497 389.911H357.786C357.877 389.911 357.965 389.875 358.029 389.811C358.094 389.746 358.13 389.659 358.13 389.568L358.168 147.722C358.168 147.455 358.031 147.321 357.758 147.321H142.242C142.164 147.321 142.089 147.352 142.033 147.408C141.978 147.463 141.947 147.538 141.947 147.617V389.434C141.947 389.733 142.099 389.883 142.405 389.883L190.56 389.892C190.656 389.892 190.749 389.854 190.817 389.786C190.885 389.718 190.923 389.626 190.923 389.53V340.811C190.923 340.327 190.684 340.06 190.207 340.009L188.24 339.799C187.916 339.761 187.629 339.633 187.381 339.417C185.701 337.975 181.939 335.016 183.018 332.495C183.925 330.376 186.445 326.939 189.185 326.939C208.127 326.933 227.469 326.917 247.212 326.891C247.976 326.891 248.355 326.509 248.348 325.746C248.215 315.887 248.227 306.333 248.387 297.085ZM426.468 261.017C426.468 260.926 426.431 260.838 426.367 260.774C426.303 260.709 426.215 260.673 426.124 260.673H394.37C394.279 260.673 394.192 260.709 394.127 260.774C394.063 260.838 394.027 260.926 394.027 261.017V341.021C394.027 341.112 394.063 341.2 394.127 341.264C394.192 341.328 394.279 341.365 394.37 341.365H426.124C426.215 341.365 426.303 341.328 426.367 341.264C426.431 341.2 426.468 341.112 426.468 341.021V261.017ZM272.025 304.322C272.025 304.239 271.992 304.158 271.933 304.099C271.874 304.04 271.794 304.007 271.71 304.007H261.609C261.526 304.007 261.446 304.04 261.386 304.099C261.327 304.158 261.294 304.239 261.294 304.322V326.452C261.294 326.536 261.327 326.616 261.386 326.675C261.446 326.734 261.526 326.767 261.609 326.767H271.71C271.794 326.767 271.874 326.734 271.933 326.675C271.992 326.616 272.025 326.536 272.025 326.452V304.322ZM295.883 340.372C295.883 340.286 295.849 340.203 295.788 340.142C295.727 340.081 295.645 340.047 295.559 340.047H204.442C204.355 340.047 204.273 340.081 204.212 340.142C204.151 340.203 204.117 340.286 204.117 340.372V389.577C204.117 389.663 204.151 389.746 204.212 389.807C204.273 389.868 204.355 389.902 204.442 389.902H295.559C295.645 389.902 295.727 389.868 295.788 389.807C295.849 389.746 295.883 389.663 295.883 389.577V340.372ZM405.216 389.329C405.174 389.382 405.148 389.445 405.141 389.512C405.134 389.579 405.146 389.647 405.177 389.707C405.207 389.767 405.253 389.817 405.311 389.852C405.369 389.886 405.435 389.904 405.502 389.902L415.135 389.883C415.202 389.883 415.267 389.864 415.323 389.829C415.379 389.794 415.425 389.743 415.454 389.683C415.482 389.623 415.494 389.557 415.487 389.491C415.479 389.425 415.453 389.362 415.412 389.31L410.581 383.123C410.548 383.082 410.506 383.048 410.458 383.025C410.41 383.002 410.358 382.99 410.304 382.99C410.251 382.99 410.199 383.002 410.151 383.025C410.103 383.048 410.061 383.082 410.028 383.123L405.216 389.329Z" fill="#F19BC0"/>
<path d="M105.42 193.508C105.42 195.306 104.706 197.03 103.435 198.302C102.164 199.573 100.44 200.287 98.6418 200.287H70.4972C68.6994 200.287 66.9753 199.573 65.7041 198.302C64.4329 197.03 63.7188 195.306 63.7188 193.508V160.476C63.7187 158.678 64.4329 156.954 65.7041 155.683C66.9753 154.411 68.6994 153.697 70.4972 153.697H98.6418C100.44 153.697 102.164 154.411 103.435 155.683C104.706 156.954 105.42 158.678 105.42 160.476V193.508ZM92.3425 167.088C92.3424 167.044 92.3337 167 92.3169 166.96C92.3 166.919 92.2753 166.883 92.2442 166.852C92.2132 166.821 92.1763 166.796 92.1357 166.779C92.0951 166.763 92.0517 166.754 92.0078 166.754L77.0953 166.78C77.0514 166.78 77.008 166.789 76.9675 166.806C76.927 166.823 76.8902 166.847 76.8592 166.879C76.8283 166.91 76.8037 166.946 76.787 166.987C76.7703 167.028 76.7617 167.071 76.7618 167.115L76.7965 186.973C76.7966 187.017 76.8053 187.06 76.8221 187.101C76.839 187.141 76.8637 187.178 76.8948 187.209C76.9258 187.24 76.9627 187.264 77.0033 187.281C77.0439 187.298 77.0873 187.306 77.1312 187.306L92.0437 187.28C92.0876 187.28 92.131 187.272 92.1715 187.255C92.212 187.238 92.2488 187.213 92.2798 187.182C92.3107 187.151 92.3353 187.114 92.352 187.073C92.3687 187.033 92.3773 186.989 92.3772 186.946L92.3425 167.088Z" fill="#F19BC0"/>
<path d="M191.858 230.027L228.586 230.018C229.038 230.018 229.26 229.792 229.254 229.34C229.14 224.996 228.147 217.989 233.445 216.06C237.703 214.504 241.761 217.855 241.885 222.103C242.018 226.635 242.022 231.428 241.894 236.481C241.799 240.405 239.326 242.916 235.441 242.945C218.415 243.053 201.405 243.037 184.412 242.897C180.812 242.868 178.33 240.357 178.311 236.548C178.184 215.379 178.161 196.065 178.244 178.607C178.263 174.158 179.781 170.692 184.879 170.597C201.771 170.304 218.568 170.301 235.269 170.587C241.054 170.692 242.066 175.017 242.009 179.991C241.945 185.949 241.923 191.575 241.942 196.87C241.961 202.713 234.925 205.997 230.992 201.596C229.871 200.33 229.27 198.478 229.187 196.04C229.028 191.636 229.07 187.537 229.311 183.743C229.314 183.703 229.308 183.662 229.295 183.624C229.281 183.586 229.259 183.551 229.232 183.522C229.204 183.492 229.17 183.468 229.133 183.452C229.096 183.436 229.056 183.428 229.015 183.428L191.973 183.457C191.585 183.457 191.39 183.654 191.39 184.049L191.4 229.569C191.4 229.691 191.448 229.807 191.534 229.893C191.62 229.979 191.737 230.027 191.858 230.027Z" fill="#F19BC0"/>
<path d="M434.488 219.163C434.488 220.047 434.314 220.923 433.976 221.739C433.637 222.556 433.142 223.298 432.517 223.923C431.892 224.548 431.15 225.043 430.333 225.382C429.516 225.72 428.641 225.894 427.757 225.894H399.574C398.691 225.894 397.815 225.72 396.999 225.382C396.182 225.043 395.44 224.548 394.815 223.923C394.19 223.298 393.694 222.556 393.356 221.739C393.018 220.923 392.844 220.047 392.844 219.163V186.112C392.844 184.326 393.553 182.614 394.815 181.352C396.077 180.09 397.789 179.381 399.574 179.381H427.757C429.542 179.381 431.254 180.09 432.517 181.352C433.779 182.614 434.488 184.326 434.488 186.112V219.163ZM421.361 192.766C421.361 192.654 421.317 192.548 421.238 192.469C421.159 192.39 421.052 192.346 420.941 192.346H406.372C406.261 192.346 406.154 192.39 406.075 192.469C405.996 192.548 405.952 192.654 405.952 192.766V212.566C405.952 212.678 405.996 212.785 406.075 212.863C406.154 212.942 406.261 212.986 406.372 212.986H420.941C421.052 212.986 421.159 212.942 421.238 212.863C421.317 212.785 421.361 212.678 421.361 212.566V192.766Z" fill="#F19BC0"/>
<path d="M315.511 179.723H277.284C273.867 179.723 271.098 182.492 271.098 185.909V186.253C271.098 189.67 273.867 192.439 277.284 192.439H315.511C318.927 192.439 321.697 189.67 321.697 186.253V185.909C321.697 182.492 318.927 179.723 315.511 179.723Z" fill="#F19BC0"/>
<path d="M315.558 200.459H277.236C273.846 200.459 271.098 203.207 271.098 206.598V206.941C271.098 210.332 273.846 213.08 277.236 213.08H315.558C318.949 213.08 321.697 210.332 321.697 206.941V206.598C321.697 203.207 318.949 200.459 315.558 200.459Z" fill="#F19BC0"/>
<path d="M315.485 221.066L277.335 220.999C273.918 220.993 271.144 223.758 271.138 227.175L271.137 227.518C271.131 230.935 273.896 233.71 277.313 233.716L315.463 233.782C318.879 233.788 321.654 231.023 321.66 227.607L321.661 227.263C321.666 223.846 318.902 221.072 315.485 221.066Z" fill="#F19BC0"/>
<path d="M96.5979 236.301L72.5394 236.259C69.1543 236.253 66.4054 238.992 66.3995 242.377L66.3986 242.855C66.3927 246.24 69.1321 248.989 72.5171 248.994L96.5756 249.036C99.9607 249.042 102.71 246.303 102.716 242.918L102.716 242.441C102.722 239.056 99.9829 236.307 96.5979 236.301Z" fill="#F19BC0"/>
<path d="M96.5636 259.422L72.5242 259.464C69.1496 259.47 66.4188 262.21 66.4247 265.585L66.4256 266.062C66.4314 269.437 69.1718 272.167 72.5463 272.161L96.5858 272.12C99.9603 272.114 102.691 269.373 102.685 265.999L102.684 265.521C102.678 262.147 99.9381 259.416 96.5636 259.422Z" fill="#F19BC0"/>
<path d="M413.509 267.411L407.208 267.433C403.987 267.444 401.384 270.065 401.395 273.286L401.398 274.146C401.41 277.367 404.03 279.97 407.252 279.958L413.553 279.936C416.775 279.925 419.377 277.304 419.366 274.083L419.363 273.224C419.352 270.002 416.731 267.4 413.509 267.411Z" fill="#F19BC0"/>
<path d="M96.6131 282.658L72.4973 282.7C69.1333 282.706 66.411 285.438 66.4169 288.802L66.4177 289.279C66.4236 292.643 69.1554 295.366 72.5194 295.36L96.6352 295.318C99.9991 295.312 102.721 292.58 102.716 289.216L102.715 288.739C102.709 285.375 99.977 282.652 96.6131 282.658Z" fill="#F19BC0"/>
<path d="M410.834 285.438C415.054 285.677 418.748 286.259 419.398 291.357C419.885 295.167 416.696 298.059 412.992 298.327C409.256 298.594 406.446 298.273 404.562 297.362C398.757 294.556 401.669 288.713 405.812 286.336C407.072 285.616 408.746 285.317 410.834 285.438Z" fill="#F19BC0"/>
<path d="M413.465 303.829L407.297 303.839C404.055 303.845 401.43 306.478 401.436 309.721L401.438 310.599C401.443 313.842 404.077 316.466 407.319 316.461L413.487 316.45C416.729 316.444 419.353 313.811 419.348 310.568L419.346 309.69C419.341 306.447 416.707 303.823 413.465 303.829Z" fill="#F19BC0"/>
<path d="M413.61 322.234L407.214 322.212C404.034 322.2 401.448 324.769 401.437 327.948L401.434 328.827C401.423 332.006 403.991 334.592 407.171 334.603L413.567 334.626C416.747 334.637 419.333 332.068 419.344 328.889L419.347 328.011C419.358 324.831 416.79 322.245 413.61 322.234Z" fill="#F19BC0"/>
</svg>
