<svg width="500" height="500" viewBox="0 0 500 500" fill="none" xmlns="http://www.w3.org/2000/svg">
<path d="M170.138 84.6C170.138 93.5113 166.598 102.058 160.296 108.359C153.995 114.66 145.449 118.2 136.538 118.2C127.626 118.2 119.08 114.66 112.779 108.359C106.477 102.058 102.938 93.5113 102.938 84.6C102.938 75.6887 106.477 67.1424 112.779 60.8412C119.08 54.54 127.626 51 136.538 51C145.449 51 153.995 54.54 160.296 60.8412C166.598 67.1424 170.138 75.6887 170.138 84.6ZM162.238 84.62C162.238 77.8039 159.53 71.267 154.71 66.4474C149.89 61.6277 143.354 58.92 136.538 58.92C129.721 58.92 123.185 61.6277 118.365 66.4474C113.545 71.267 110.838 77.8039 110.838 84.62C110.838 91.4361 113.545 97.973 118.365 102.793C123.185 107.612 129.721 110.32 136.538 110.32C143.354 110.32 149.89 107.612 154.71 102.793C159.53 97.973 162.238 91.4361 162.238 84.62Z" fill="#5EC3FD"/>
<path d="M188.55 136.429C188.592 136.458 188.641 136.478 188.692 136.486C188.743 136.495 188.795 136.491 188.845 136.477C188.895 136.463 188.941 136.438 188.98 136.403C189.018 136.369 189.049 136.327 189.07 136.279L214.83 76.3191C215.042 75.8241 215.35 75.3759 215.736 75C216.121 74.624 216.577 74.3277 217.077 74.1281C217.576 73.9284 218.11 73.8293 218.648 73.8363C219.185 73.8433 219.716 73.9564 220.21 74.1691L319.15 116.799C319.403 116.907 319.683 116.935 319.953 116.878C320.223 116.82 320.47 116.681 320.66 116.479L338.71 97.1691C339.416 96.4145 340.39 95.9675 341.423 95.9245C342.455 95.8814 343.463 96.2458 344.23 96.9391L464.24 205.509C464.635 205.867 464.955 206.301 465.181 206.784C465.408 207.266 465.536 207.789 465.558 208.322C465.581 208.854 465.497 209.385 465.312 209.885C465.126 210.384 464.844 210.841 464.48 211.229L243.58 446.709C242.859 447.477 241.92 448.004 240.889 448.219C239.858 448.434 238.787 448.326 237.82 447.909L176.07 421.299C175.854 421.206 175.612 421.196 175.389 421.269C175.166 421.343 174.977 421.496 174.86 421.699C167.17 435.079 149.57 436.379 139.85 424.399C139.797 424.334 139.731 424.282 139.656 424.246C139.58 424.21 139.498 424.192 139.415 424.192C139.331 424.192 139.249 424.21 139.174 424.246C139.098 424.282 139.032 424.334 138.98 424.399C132.43 432.659 121.34 435.089 112.19 429.859C105.39 425.969 101.5 418.969 101.5 411.109C101.506 382.916 101.513 354.696 101.52 326.449C101.52 325.936 101.263 325.679 100.75 325.679L87.3196 325.689C86.8863 325.689 86.6663 325.906 86.6596 326.339C86.5463 330.299 86.5529 334.036 86.6796 337.549C86.8396 341.916 86.3329 345.446 85.1596 348.139C81.9896 355.439 75.5696 357.959 67.6596 357.739C62.8663 357.599 58.0629 357.602 53.2496 357.749C49.2229 357.869 45.9463 357.359 43.4196 356.219C37.1896 353.419 34.0396 347.389 34.0196 340.719C33.9729 322.792 34.0096 303.589 34.1296 283.109C34.1363 281.109 34.5863 279.169 35.4796 277.289C38.4696 270.989 44.0196 267.619 50.8496 267.859C52.6363 267.926 54.3696 267.912 56.0496 267.819C56.4629 267.792 56.6729 267.569 56.6796 267.149L56.7696 254.749C56.7693 254.529 56.7228 254.313 56.6331 254.114C56.5434 253.916 56.4126 253.74 56.2496 253.599C50.7096 248.759 48.7996 241.719 50.9596 234.839C59.8863 206.472 68.6529 178.582 77.2596 151.169C81.2496 138.439 89.8396 131.129 103.98 131.219C129.066 131.379 151.2 131.379 170.38 131.219C177.46 131.169 182.82 132.419 188.55 136.429ZM237.97 438.409L364.33 145.309C364.374 145.2 364.375 145.078 364.332 144.969C364.289 144.861 364.206 144.775 364.1 144.729L221.25 83.1891C221.085 83.1198 220.9 83.1186 220.734 83.186C220.567 83.2533 220.433 83.3837 220.36 83.5491L195.12 142.159C194.853 142.772 194.85 143.386 195.11 143.999C196.923 148.259 198.393 152.832 199.52 157.719C199.536 157.796 199.57 157.868 199.621 157.929C199.671 157.99 199.736 158.038 199.81 158.068C199.883 158.098 199.964 158.111 200.044 158.104C200.124 158.097 200.201 158.072 200.27 158.029C200.43 157.936 200.543 157.806 200.61 157.639C204.196 149.219 208.176 139.966 212.55 129.879C213.496 127.692 215.096 126.799 217.35 127.199C218.8 127.459 219.34 128.749 220.78 129.059C232.32 131.569 242.97 126.389 248.37 116.019C249.73 113.419 252.13 112.539 254.81 113.689C275.523 122.589 296.336 131.586 317.25 140.679C319.43 141.629 320.82 144.729 320.01 146.969C315.65 159.029 320.41 171.439 331.85 177.309C334.04 178.429 335.13 180.529 334.1 182.939C303.67 254.099 272.4 325.869 244.67 390.629C243.67 392.959 242.05 395.369 239.09 394.259C227.02 389.749 214.36 394.339 208.39 405.739C207.27 407.859 205.04 409.189 202.68 408.019C194.84 404.112 186.663 400.032 178.15 395.779C177.73 395.572 177.52 395.706 177.52 396.179L177.5 412.669C177.5 413.089 177.693 413.382 178.08 413.549L236.72 438.929C236.947 439.028 237.207 439.029 237.441 438.931C237.675 438.834 237.865 438.646 237.97 438.409ZM341.53 105.739L328.22 119.899C328.16 119.961 328.117 120.036 328.093 120.118C328.069 120.2 328.066 120.287 328.084 120.372C328.102 120.456 328.14 120.536 328.194 120.603C328.249 120.671 328.32 120.724 328.4 120.759C341.393 126.346 355.543 132.466 370.85 139.119C375.97 141.339 372.59 146.579 371.09 149.859C370.916 150.226 370.98 150.542 371.28 150.809C385.246 163.316 399.323 175.876 413.51 188.489C415.78 190.509 415.75 193.889 413.9 196.189C406.27 205.669 406.7 218.969 415.29 227.799C416.8 229.349 417.21 231.799 415.64 233.489C366.153 286.249 316.89 338.749 267.85 390.989C266.676 392.236 265.773 393.606 265.14 395.099C261.08 404.706 256.923 414.382 252.67 424.129C251.923 425.836 252.186 426.009 253.46 424.649L455.67 209.109C455.923 208.836 455.91 208.572 455.63 208.319L342.21 105.709C342.117 105.624 341.994 105.579 341.866 105.585C341.739 105.59 341.618 105.646 341.53 105.739ZM220.31 322.809C220.01 323.729 219.486 324.539 218.74 325.239C218.513 325.452 218.416 325.712 218.45 326.019C221.18 348.829 193.62 361.909 178.23 344.419C177.75 343.866 177.51 343.956 177.51 344.689L177.52 386.129C177.52 386.469 177.67 386.712 177.97 386.859L202.35 399.029C202.683 399.196 202.963 399.129 203.19 398.829C211.64 387.459 223.63 382.479 237.74 385.569C237.986 385.622 238.163 385.532 238.27 385.299L325.32 183.509C325.473 183.142 325.39 182.846 325.07 182.619C313.53 174.399 308 161.429 311.55 147.639C311.676 147.146 311.506 146.799 311.04 146.599L255 122.299C254.778 122.204 254.53 122.189 254.298 122.256C254.067 122.324 253.865 122.47 253.73 122.669C245.47 134.782 233.813 139.499 218.76 136.819C218.38 136.752 218.113 136.896 217.96 137.249C213.7 147.309 209.19 157.742 204.43 168.549C203.46 170.739 203.97 172.079 204.6 174.199C208.613 187.666 212.84 201.689 217.28 216.269C217.373 216.569 217.573 216.682 217.88 216.609C238.15 211.819 258.79 221.169 268.35 239.399C275.17 252.389 275.28 268.309 268.5 281.119C261.253 294.806 249.643 302.846 233.67 305.239C227.89 306.109 221.74 305.229 216.16 303.879C216.082 303.861 216.001 303.863 215.924 303.885C215.847 303.908 215.777 303.95 215.722 304.007C215.666 304.065 215.627 304.136 215.607 304.213C215.587 304.291 215.588 304.372 215.61 304.449L220.34 320.899C220.516 321.525 220.505 322.189 220.31 322.809ZM173.47 185.469C171.84 179.709 179.37 177.519 181.11 183.549C186.63 202.689 192.233 222.409 197.92 242.709C201.56 255.709 219.39 250.659 215.44 237.629C206.26 207.356 197.706 178.849 189.78 152.109C186.79 142.039 178.49 138.139 168.37 139.399C168.016 139.446 167.8 139.642 167.72 139.989C165.373 149.736 162.993 159.099 160.58 168.079C159.55 171.919 156.13 171.299 153.52 169.809C147.486 166.369 141.7 163.122 136.16 160.069C135.9 159.929 135.643 159.929 135.39 160.069L116.62 170.579C116.103 170.868 115.527 171.033 114.936 171.064C114.345 171.094 113.756 170.988 113.213 170.754C112.67 170.52 112.189 170.164 111.807 169.714C111.425 169.264 111.152 168.732 111.01 168.159L104.07 140.389C103.87 139.589 103.36 139.192 102.54 139.199C93.8096 139.229 87.7796 144.299 85.2296 152.389C76.6029 179.796 67.7029 208.132 58.5296 237.399C56.5296 243.779 60.6696 249.249 67.1596 249.679C70.9396 249.939 74.5896 249.389 76.9396 246.329C77.7196 245.316 78.4829 243.539 79.2296 240.999C84.7496 222.086 90.4629 202.726 96.3696 182.919C97.0696 180.579 98.6629 179.702 101.15 180.289C101.203 180.302 101.256 180.319 101.31 180.339C103.743 181.106 104.6 182.792 103.88 185.399C97.0463 210.159 89.1896 238.496 80.3096 270.409C80.2163 270.742 80.2996 271.019 80.5596 271.239C84.5729 274.712 86.5896 279.139 86.6096 284.519C86.6496 295.519 86.6396 306.396 86.5796 317.149C86.5796 317.332 86.6523 317.508 86.7817 317.637C86.9111 317.766 87.0866 317.839 87.2696 317.839L210.39 317.819C210.923 317.819 211.116 317.562 210.97 317.049C198.343 272.869 185.843 229.009 173.47 185.469ZM117.6 139.399C117.562 139.353 117.515 139.316 117.461 139.29C117.408 139.264 117.349 139.25 117.29 139.249L112.47 139.289C112.408 139.29 112.347 139.305 112.292 139.333C112.237 139.361 112.189 139.401 112.152 139.45C112.114 139.499 112.088 139.556 112.076 139.616C112.063 139.677 112.065 139.739 112.08 139.799L117.28 160.599C117.296 160.66 117.326 160.716 117.367 160.763C117.408 160.81 117.46 160.848 117.518 160.872C117.576 160.896 117.639 160.906 117.701 160.903C117.764 160.899 117.825 160.88 117.88 160.849L129.59 154.229C129.642 154.199 129.687 154.158 129.721 154.109C129.756 154.06 129.779 154.004 129.79 153.945C129.8 153.886 129.798 153.825 129.782 153.767C129.766 153.709 129.738 153.655 129.7 153.609L117.6 139.399ZM144.86 139.779C144.904 139.735 144.934 139.679 144.946 139.617C144.958 139.556 144.951 139.493 144.926 139.435C144.901 139.378 144.859 139.33 144.807 139.296C144.754 139.263 144.692 139.247 144.63 139.249L128.52 139.219C128.46 139.218 128.402 139.235 128.352 139.266C128.301 139.298 128.261 139.343 128.236 139.397C128.211 139.451 128.201 139.511 128.209 139.569C128.217 139.628 128.241 139.684 128.28 139.729L135.75 148.589C135.777 148.623 135.812 148.65 135.85 148.669C135.889 148.689 135.932 148.699 135.975 148.701C136.019 148.703 136.062 148.696 136.102 148.68C136.143 148.664 136.179 148.64 136.21 148.609L144.86 139.779ZM142.27 153.829C142.228 153.872 142.198 153.924 142.179 153.98C142.161 154.037 142.156 154.097 142.165 154.156C142.174 154.215 142.196 154.271 142.23 154.32C142.263 154.369 142.308 154.41 142.36 154.439L153.77 160.849C153.822 160.879 153.88 160.896 153.939 160.899C153.999 160.903 154.059 160.893 154.114 160.869C154.169 160.846 154.218 160.811 154.257 160.766C154.296 160.72 154.324 160.667 154.34 160.609L159.62 139.769C159.635 139.711 159.637 139.65 159.625 139.592C159.613 139.533 159.588 139.477 159.551 139.43C159.514 139.383 159.467 139.344 159.413 139.318C159.359 139.292 159.3 139.279 159.24 139.279H156.45C156.396 139.278 156.342 139.288 156.292 139.309C156.242 139.329 156.197 139.36 156.16 139.399L142.27 153.829ZM337.64 227.139L329.6 245.759C329.48 246.039 329.493 246.312 329.64 246.579C336.666 259.079 338.033 271.656 333.74 284.309C329.646 296.402 321.76 305.116 310.08 310.449C308.206 311.309 305.153 312.352 300.92 313.579C300.54 313.692 300.27 313.929 300.11 314.289L276.19 369.489C275.576 370.909 275.8 371.056 276.86 369.929L406.97 231.179C407.063 231.077 407.119 230.947 407.128 230.811C407.137 230.674 407.099 230.539 407.02 230.429C398.73 218.869 398.52 205.299 406.07 193.299C406.316 192.912 406.266 192.566 405.92 192.259L367.97 158.439C367.92 158.395 367.86 158.363 367.796 158.346C367.731 158.328 367.664 158.327 367.6 158.34C367.535 158.354 367.475 158.383 367.425 158.424C367.374 158.466 367.335 158.519 367.31 158.579L355.88 184.909C355.861 184.953 355.852 185 355.853 185.048C355.854 185.095 355.865 185.142 355.886 185.185C355.907 185.227 355.937 185.265 355.974 185.295C356.011 185.325 356.054 185.347 356.1 185.359C361.093 186.692 365.15 189.332 368.27 193.279C375.7 202.669 374.8 216.409 365.85 224.219C357.81 231.232 348.633 232.126 338.32 226.899C338.259 226.868 338.192 226.85 338.124 226.846C338.056 226.841 337.988 226.851 337.925 226.873C337.861 226.896 337.803 226.931 337.754 226.977C337.705 227.022 337.666 227.078 337.64 227.139ZM352.03 193.799L341.56 217.869C341.386 218.275 341.379 218.733 341.542 219.144C341.705 219.554 342.024 219.883 342.43 220.059L344.65 221.029C348.261 222.598 352.339 222.688 355.988 221.278C359.637 219.868 362.559 217.073 364.11 213.509L364.22 213.269C364.988 211.503 365.396 209.601 365.42 207.671C365.445 205.742 365.086 203.823 364.363 202.024C363.641 200.225 362.569 198.582 361.21 197.188C359.85 195.793 358.229 194.676 356.44 193.899L354.22 192.939C353.815 192.764 353.358 192.757 352.947 192.918C352.537 193.079 352.207 193.396 352.03 193.799ZM202.36 258.129L212.35 293.119C212.446 293.457 212.617 293.768 212.848 294.031C213.08 294.294 213.368 294.502 213.69 294.639C230.08 301.579 248.78 296.219 258.98 281.649C270.42 265.329 266.61 243.369 251.54 231.239C242.93 224.319 231.13 221.789 220.36 224.149C220.278 224.166 220.201 224.2 220.133 224.249C220.066 224.297 220.008 224.358 219.965 224.43C219.922 224.501 219.894 224.58 219.883 224.663C219.872 224.745 219.877 224.829 219.9 224.909C220.72 227.962 221.633 230.962 222.64 233.909C224.79 240.219 224.54 246.539 220.28 251.779C219.046 253.299 218.04 255.146 217.26 257.319C215.68 261.749 221.98 264.169 223.78 260.049C224.193 259.102 224.666 258.202 225.2 257.349C231.5 247.179 246.69 252.109 246.45 263.919C246.443 264.292 246.606 264.562 246.94 264.729C249.39 265.959 252.55 266.379 252.6 269.789C252.66 272.819 249.62 274.489 246.91 273.379C246.136 273.059 245.383 272.716 244.65 272.349C244.537 272.291 244.413 272.259 244.287 272.256C244.16 272.252 244.035 272.277 243.919 272.329C243.804 272.381 243.702 272.459 243.62 272.555C243.539 272.652 243.481 272.766 243.45 272.889C241.98 278.619 233.61 276.099 235.87 270.629C236.616 268.816 237.386 266.999 238.18 265.179C240.18 260.589 234.01 257.549 231.85 261.789C231.09 263.269 230.29 265.119 229.12 266.299C225.86 269.592 222.193 270.742 218.12 269.749C212.633 268.416 209.603 264.726 209.03 258.679C208.996 258.352 208.816 258.199 208.49 258.219C206.523 258.366 204.62 258.196 202.78 257.709C202.721 257.693 202.66 257.692 202.601 257.707C202.543 257.722 202.489 257.753 202.446 257.796C202.403 257.839 202.373 257.892 202.358 257.951C202.342 258.009 202.343 258.071 202.36 258.129ZM75.7296 257.419C75.7421 257.372 75.7435 257.323 75.7337 257.276C75.7238 257.228 75.703 257.184 75.6728 257.146C75.6427 257.108 75.6041 257.078 75.5601 257.057C75.5161 257.037 75.468 257.027 75.4196 257.029L64.7596 257.659C64.6809 257.664 64.6071 257.699 64.5532 257.757C64.4993 257.814 64.4694 257.89 64.4696 257.969L64.5296 267.459C64.5296 267.54 64.5608 267.617 64.6168 267.675C64.6728 267.733 64.7491 267.766 64.8296 267.769L72.5896 267.939C72.6567 267.94 72.7222 267.919 72.7763 267.879C72.8304 267.839 72.8701 267.783 72.8896 267.719L75.7296 257.419ZM324.55 257.669L305.1 302.839C304.626 303.932 304.936 304.246 306.03 303.779C324.23 296.069 332.19 276.129 326.24 257.739C325.746 256.212 325.183 256.189 324.55 257.669ZM78.6196 283.749C78.6196 281.633 77.7789 279.603 76.2823 278.106C74.7858 276.61 72.756 275.769 70.6396 275.769H50.0396C47.9232 275.769 45.8934 276.61 44.3969 278.106C42.9003 279.603 42.0596 281.633 42.0596 283.749V341.809C42.0596 343.926 42.9003 345.955 44.3969 347.452C45.8934 348.948 47.9232 349.789 50.0396 349.789H70.6396C72.756 349.789 74.7858 348.948 76.2823 347.452C77.7789 345.955 78.6196 343.926 78.6196 341.809V283.749ZM134.69 325.669H110.11C110.014 325.669 109.919 325.688 109.83 325.725C109.742 325.761 109.661 325.815 109.593 325.883C109.526 325.951 109.472 326.031 109.435 326.12C109.398 326.208 109.38 326.303 109.38 326.399V411.359C109.38 413.115 109.714 414.853 110.365 416.476C111.015 418.098 111.968 419.572 113.17 420.813C114.371 422.055 115.798 423.039 117.368 423.711C118.938 424.383 120.62 424.729 122.32 424.729H122.48C124.179 424.729 125.862 424.383 127.432 423.711C129.001 423.039 130.428 422.055 131.63 420.813C132.831 419.572 133.784 418.098 134.435 416.476C135.085 414.853 135.42 413.115 135.42 411.359V326.399C135.42 326.303 135.401 326.208 135.364 326.12C135.327 326.031 135.274 325.951 135.206 325.883C135.138 325.815 135.058 325.761 134.969 325.725C134.88 325.688 134.785 325.669 134.69 325.669ZM168.82 325.679H144.08C143.857 325.679 143.643 325.768 143.486 325.925C143.328 326.083 143.24 326.296 143.24 326.519V411.129C143.24 412.914 143.579 414.681 144.238 416.33C144.898 417.979 145.864 419.477 147.082 420.739C148.301 422.001 149.747 423.002 151.339 423.685C152.931 424.368 154.637 424.719 156.36 424.719H156.54C158.263 424.719 159.969 424.368 161.56 423.685C163.152 423.002 164.599 422.001 165.817 420.739C167.035 419.477 168.002 417.979 168.661 416.33C169.32 414.681 169.66 412.914 169.66 411.129V326.519C169.66 326.296 169.571 326.083 169.414 325.925C169.256 325.768 169.042 325.679 168.82 325.679ZM209.12 325.669H182.08C181.671 325.669 181.279 325.831 180.991 326.12C180.702 326.409 180.54 326.801 180.54 327.209V329.499C180.54 333.464 182.108 337.267 184.901 340.07C187.693 342.874 191.481 344.449 195.43 344.449H195.77C199.719 344.449 203.506 342.874 206.298 340.07C209.091 337.267 210.66 333.464 210.66 329.499V327.209C210.66 326.801 210.497 326.409 210.209 326.12C209.92 325.831 209.528 325.669 209.12 325.669Z" fill="#5EC3FD"/>
<path d="M286.046 180.32C286.046 183.338 285.452 186.326 284.297 189.114C283.142 191.902 281.449 194.435 279.315 196.569C277.181 198.703 274.648 200.396 271.86 201.551C269.072 202.705 266.084 203.3 263.066 203.3C260.048 203.3 257.06 202.705 254.272 201.551C251.484 200.396 248.951 198.703 246.817 196.569C244.683 194.435 242.99 191.902 241.835 189.114C240.68 186.326 240.086 183.338 240.086 180.32C240.086 177.302 240.68 174.314 241.835 171.526C242.99 168.738 244.683 166.204 246.817 164.071C248.951 161.937 251.484 160.244 254.272 159.089C257.06 157.934 260.048 157.34 263.066 157.34C269.161 157.34 275.006 159.761 279.315 164.071C283.625 168.38 286.046 174.225 286.046 180.32ZM278.126 180.3C278.126 176.303 276.538 172.47 273.712 169.644C270.886 166.818 267.053 165.23 263.056 165.23C259.059 165.23 255.226 166.818 252.4 169.644C249.574 172.47 247.986 176.303 247.986 180.3C247.986 184.297 249.574 188.13 252.4 190.956C255.226 193.782 259.059 195.37 263.056 195.37C267.053 195.37 270.886 193.782 273.712 190.956C276.538 188.13 278.126 184.297 278.126 180.3Z" fill="#5EC3FD"/>
</svg>
