<svg width="500" height="500" viewBox="0 0 500 500" fill="none" xmlns="http://www.w3.org/2000/svg">
<path d="M368.328 45H367.928C365.388 45 363.328 47.0595 363.328 49.6V64.28C363.328 66.8205 365.388 68.88 367.928 68.88H368.328C370.869 68.88 372.928 66.8205 372.928 64.28V49.6C372.928 47.0595 370.869 45 368.328 45Z" fill="#F19BC0"/>
<path d="M323.992 85.3697L313.59 75.0398C311.776 73.238 308.844 73.2482 307.042 75.0627L306.845 75.2613C305.043 77.0758 305.053 80.0073 306.868 81.8091L317.27 92.139C319.085 93.9408 322.016 93.9306 323.818 92.1162L324.015 91.9175C325.817 90.1031 325.807 87.1715 323.992 85.3697Z" fill="#F19BC0"/>
<path d="M429.392 75.2061L429.194 75.0084C427.382 73.2035 424.451 73.2086 422.646 75.0198L412.298 85.4041C410.493 87.2154 410.498 90.1469 412.309 91.9519L412.508 92.1496C414.319 93.9545 417.25 93.9494 419.055 92.1381L429.403 81.7539C431.208 79.9426 431.203 77.011 429.392 75.2061Z" fill="#F19BC0"/>
<path d="M392.78 227.69C395.5 227.69 398.386 227.677 401.44 227.65C408.35 227.59 408.33 237.4 400.77 237.26C397.836 237.2 395.096 237.167 392.55 237.16C392.452 237.16 392.359 237.198 392.288 237.267C392.217 237.336 392.175 237.43 392.17 237.53C392.043 240.09 392.03 242.81 392.13 245.69C392.24 248.72 390.67 251.56 387.41 251.56C374.336 251.573 361.456 251.573 348.77 251.56C348.162 251.559 347.56 251.437 346.999 251.203C346.437 250.968 345.928 250.626 345.499 250.194C345.07 249.762 344.73 249.25 344.498 248.686C344.267 248.123 344.148 247.519 344.15 246.91L344.16 237.88C344.16 237.4 343.92 237.167 343.44 237.18C340.373 237.227 337.426 237.233 334.6 237.2C328.01 237.11 328.12 227.5 334.94 227.63C337.993 227.69 340.863 227.703 343.55 227.67C343.923 227.663 344.116 227.473 344.13 227.1C344.303 222.433 344.09 218.19 343.49 214.37C340.74 196.89 334.19 180.4 324.25 165.75C302.66 133.93 321.88 90.3098 359.48 84.1598C400.87 77.3898 433.11 118.81 416.56 157.31C414.16 162.87 410.64 167.7 407.64 172.88C399.586 186.8 394.476 201.51 392.31 217.01C391.95 219.57 391.9 222.94 392.16 227.12C392.186 227.5 392.393 227.69 392.78 227.69ZM375.76 155.81C376.293 151.356 377.03 146.167 377.97 140.24C378.94 134.2 388.05 135.52 387.24 142.01C384.326 165.243 381.353 188.86 378.32 212.86C378.3 213.033 378.376 213.116 378.55 213.11L383.1 212.95C383.233 212.95 383.31 212.883 383.33 212.75C386.23 195.07 393.03 177.21 403.08 162.06C405.82 157.926 407.85 153.867 409.17 149.88C419.81 117.74 391.42 86.8998 358.64 94.0398C342.61 97.5298 330.25 109.99 326.08 125.83C323.88 134.17 324.4 142.777 327.64 151.65C328.74 154.657 330.933 158.67 334.22 163.69C343.673 178.163 349.856 194.343 352.77 212.23C352.85 212.703 353.13 212.947 353.61 212.96L357.22 213.07C357.693 213.083 357.9 212.853 357.84 212.38C354.82 188.673 351.88 165.133 349.02 141.76C348.24 135.44 357.64 133.97 358.53 141.12C361.563 165.633 364.52 189.483 367.4 212.67C367.416 212.807 367.48 212.935 367.58 213.03C367.681 213.125 367.812 213.181 367.95 213.19C368.516 213.223 368.843 212.89 368.93 212.19C371.27 192.997 373.546 174.203 375.76 155.81ZM382.54 223.16C382.54 223.048 382.495 222.942 382.417 222.863C382.338 222.784 382.231 222.74 382.12 222.74H354C353.888 222.74 353.781 222.784 353.703 222.863C353.624 222.942 353.58 223.048 353.58 223.16V241.54C353.58 241.595 353.591 241.65 353.612 241.701C353.633 241.752 353.664 241.798 353.703 241.837C353.742 241.876 353.788 241.907 353.839 241.928C353.89 241.949 353.944 241.96 354 241.96H382.12C382.175 241.96 382.229 241.949 382.28 241.928C382.331 241.907 382.378 241.876 382.417 241.837C382.456 241.798 382.487 241.752 382.508 241.701C382.529 241.65 382.54 241.595 382.54 241.54V223.16Z" fill="#F19BC0"/>
<path d="M156.24 308.23L165.82 277.39C165.891 277.167 165.876 276.925 165.778 276.712C165.68 276.5 165.506 276.331 165.29 276.24C143.92 267.17 128.57 247.92 123.86 225.34C122.72 219.893 122.203 213.127 122.31 205.04C122.417 197.073 122.443 189.417 122.39 182.07C122.337 174.103 123.723 166.413 126.55 159C126.603 158.857 126.598 158.698 126.536 158.558C126.475 158.418 126.361 158.308 126.22 158.25C117.78 154.77 111.26 147.13 109.36 138.27C107.16 128.017 109.723 119.077 117.05 111.45C123.32 104.93 133.28 101.7 142.28 103.41C151.467 105.163 158.34 110.183 162.9 118.47C163.107 118.85 163.403 118.947 163.79 118.76C177.05 112.59 192.49 111.12 206.35 113.97C238.71 120.62 262.14 148.66 262.61 181.58C262.743 191.08 262.753 201.51 262.64 212.87C262.35 241.11 245.22 265.36 219.4 276.61C219.301 276.65 219.221 276.726 219.175 276.822C219.129 276.918 219.12 277.028 219.15 277.13L228.82 308.27C228.869 308.426 228.956 308.569 229.073 308.684C229.189 308.799 229.333 308.883 229.49 308.93C253.31 316.197 278.263 323.677 304.35 331.37C312.697 333.83 318.253 335.947 321.02 337.72C332.14 344.86 338.96 356.61 338.97 369.82C338.977 393.94 338.98 420.377 338.98 449.13C338.98 452.45 336.47 454.06 333.34 454.06C238.98 454.06 144.853 454.057 50.96 454.05C50.3078 454.05 49.662 453.921 49.0596 453.671C48.4572 453.421 47.9099 453.055 47.4492 452.594C46.9885 452.132 46.6234 451.584 46.3747 450.981C46.126 450.378 45.9987 449.732 46 449.08C46.0733 425.913 46.0767 400.423 46.01 372.61C45.9967 367.557 46.46 363.307 47.4 359.86C49.9 350.667 55.2467 343.41 63.44 338.09C66.24 336.27 70.1133 334.62 75.06 333.14C104.333 324.353 131.097 316.343 155.35 309.11C155.559 309.048 155.749 308.936 155.905 308.782C156.06 308.629 156.175 308.439 156.24 308.23ZM154.52 122.92C147.24 109.7 129.29 108.97 121.12 121.51C114.41 131.82 119.2 144.8 130.12 149.66C130.247 149.717 130.39 149.724 130.522 149.68C130.654 149.635 130.764 149.542 130.83 149.42C136.363 139.167 144.18 130.663 154.28 123.91C154.439 123.805 154.552 123.644 154.596 123.46C154.641 123.276 154.614 123.083 154.52 122.92ZM144.02 146.41C137.47 154.96 133.06 166.11 132.13 177.33C132.123 177.404 132.132 177.478 132.156 177.548C132.18 177.618 132.218 177.682 132.269 177.737C132.32 177.792 132.382 177.835 132.451 177.865C132.52 177.895 132.595 177.91 132.67 177.91C136.883 177.937 141.053 177.923 145.18 177.87C155.07 177.74 164.84 173.99 172.23 167.57C182.083 159.017 187.063 147.79 187.17 133.89C187.197 130.27 187.293 126.857 187.46 123.65C187.507 122.663 187.04 122.237 186.06 122.37C168.467 124.777 154.453 132.79 144.02 146.41ZM222.04 173.75C231.85 178.62 242.13 178.08 252.5 177.88C252.585 177.879 252.669 177.861 252.747 177.825C252.824 177.788 252.893 177.736 252.949 177.671C253.004 177.605 253.046 177.529 253.07 177.446C253.095 177.363 253.101 177.276 253.09 177.19C253.077 177.083 253.037 176.987 252.97 176.9C252.83 176.713 252.753 176.5 252.74 176.26C252.48 172.967 251.927 169.843 251.08 166.89C244.25 143.2 225.41 126.56 201.07 122.68C199.97 122.507 198.863 122.417 197.75 122.41C197.31 122.41 197.1 122.63 197.12 123.07C197.5 130.08 197.12 137.62 198.61 144.19C201.657 157.657 209.467 167.51 222.04 173.75ZM131.93 212.03C132.23 235.7 146.44 257.1 167.58 266.84C185.64 275.17 206.7 273.97 223.52 263.78C238.74 254.56 248.217 241.193 251.95 223.68C252.93 219.073 253.353 213.07 253.22 205.67C253.113 199.67 253.12 193.833 253.24 188.16C253.253 187.72 253.04 187.5 252.6 187.5C248.987 187.453 245.38 187.457 241.78 187.51C220.95 187.81 201.24 176.07 192.77 156.72C192.74 156.646 192.689 156.583 192.624 156.538C192.558 156.493 192.481 156.468 192.402 156.465C192.322 156.463 192.244 156.484 192.176 156.526C192.108 156.568 192.054 156.628 192.02 156.7C183.98 173.247 171.013 183.253 153.12 186.72C146.54 188 139.26 187.4 132.41 187.52C132.077 187.527 131.91 187.7 131.91 188.04C131.817 195.98 131.823 203.977 131.93 212.03ZM209.43 279.79C198.52 282.55 186.38 282.85 175.76 279.73C175.586 279.679 175.4 279.698 175.239 279.782C175.079 279.866 174.957 280.008 174.9 280.18L165.31 311C165.277 311.112 165.276 311.231 165.305 311.345C165.335 311.46 165.396 311.565 165.48 311.65C172.267 318.423 179.523 325.673 187.25 333.4C190.09 336.25 193.9 336.14 196.75 333.45C204.357 326.263 211.893 319.073 219.36 311.88C219.507 311.735 219.612 311.553 219.663 311.354C219.714 311.155 219.71 310.946 219.65 310.75L210.17 280.21C210.124 280.059 210.021 279.931 209.883 279.853C209.746 279.775 209.584 279.752 209.43 279.79ZM164.09 421.19C168.52 393.95 172.72 365.29 177.26 337.44C177.313 337.113 177.223 336.837 176.99 336.61L158.91 318.53C158.61 318.23 158.257 318.143 157.85 318.27C132.73 325.83 106.273 333.747 78.48 342.02C73.8267 343.407 70.22 345.003 67.66 346.81C62.4067 350.517 58.8333 355.347 56.94 361.3C56.0067 364.267 55.5467 368.187 55.56 373.06C55.64 397.293 55.66 420.89 55.62 443.85C55.62 444.237 55.8167 444.43 56.21 444.43L97.89 444.45C98.2367 444.45 98.41 444.273 98.41 443.92C98.41 424.633 98.4067 406.283 98.4 388.87C98.4 381.64 107.94 381.64 107.93 389.02C107.897 409.7 107.903 428.03 107.95 444.01C107.95 444.121 107.994 444.228 108.073 444.307C108.152 444.386 108.259 444.43 108.37 444.43L180.39 444.45C180.837 444.45 180.913 444.283 180.62 443.95C175.76 438.483 170.763 432.897 165.63 427.19C164.21 425.603 163.697 423.603 164.09 421.19ZM208.48 348.59C212.787 373.203 217.037 397.753 221.23 422.24C221.537 424.007 221.153 425.457 220.08 426.59C214.307 432.703 208.793 438.55 203.54 444.13C203.515 444.157 203.498 444.191 203.491 444.228C203.485 444.264 203.49 444.302 203.505 444.336C203.519 444.37 203.544 444.399 203.575 444.419C203.606 444.44 203.643 444.45 203.68 444.45L276.66 444.43C277.013 444.43 277.19 444.253 277.19 443.9C277.17 426.04 277.17 407.643 277.19 388.71C277.197 385.703 278.747 383.94 281.84 383.42C281.907 383.407 281.977 383.407 282.05 383.42C285.143 383.913 286.69 385.68 286.69 388.72C286.683 407.047 286.68 425.437 286.68 443.89C286.68 444.257 286.86 444.44 287.22 444.44H328.89C329.283 444.44 329.48 444.243 329.48 443.85C329.373 420.19 329.39 396.79 329.53 373.65C329.557 368.43 329.09 364.317 328.13 361.31C326.257 355.443 322.663 350.587 317.35 346.74C314.93 344.993 310.777 343.25 304.89 341.51C278.797 333.797 252.843 326.017 227.03 318.17C226.914 318.137 226.791 318.134 226.674 318.162C226.557 318.19 226.448 318.248 226.36 318.33L207.02 336.87C206.909 336.975 206.824 337.104 206.774 337.247C206.723 337.389 206.708 337.541 206.73 337.69C207.217 341.083 207.8 344.717 208.48 348.59ZM185.76 344.39L183.83 356.78C183.763 357.207 183.943 357.42 184.37 357.42H199.64C200.113 357.42 200.313 357.187 200.24 356.72L198.21 344.44C198.143 344.047 197.923 343.913 197.55 344.04C193.79 345.333 190.087 345.313 186.44 343.98C186.047 343.84 185.82 343.977 185.76 344.39ZM182.53 366.86C182.456 366.859 182.384 366.885 182.327 366.932C182.27 366.98 182.232 367.047 182.22 367.12L173.72 421.69C173.714 421.735 173.718 421.781 173.732 421.824C173.746 421.867 173.769 421.907 173.8 421.94L191.78 442.2C191.809 442.23 191.844 442.255 191.883 442.271C191.921 442.288 191.963 442.297 192.005 442.297C192.047 442.297 192.089 442.288 192.127 442.271C192.166 442.255 192.201 442.23 192.23 442.2L211.41 421.92C211.442 421.886 211.466 421.844 211.48 421.799C211.494 421.754 211.497 421.706 211.49 421.66L202.06 367.1C202.048 367.028 202.012 366.963 201.957 366.916C201.902 366.868 201.833 366.841 201.76 366.84L182.53 366.86Z" fill="#F19BC0"/>
<path d="M300.968 131.573L286.128 131.547C283.615 131.543 281.575 133.576 281.57 136.089L281.57 136.469C281.565 138.982 283.599 141.023 286.112 141.027L300.952 141.053C303.464 141.057 305.505 139.024 305.509 136.511L305.51 136.131C305.515 133.618 303.481 131.577 300.968 131.573Z" fill="#F19BC0"/>
<path d="M450.026 131.491L435.287 131.568C432.768 131.581 430.737 133.633 430.75 136.152L430.753 136.572C430.766 139.09 432.818 141.121 435.336 141.108L450.076 141.031C452.595 141.017 454.625 138.965 454.612 136.447L454.61 136.027C454.597 133.508 452.545 131.478 450.026 131.491Z" fill="#F19BC0"/>
</svg>
