<svg width="500" height="500" viewBox="0 0 500 500" fill="none" xmlns="http://www.w3.org/2000/svg">
<path d="M163.321 300.663C144.061 302.403 125.631 297.433 116.211 279.423C114.301 275.783 118.081 271.223 121.981 272.973C126.321 274.919 131.091 275.019 136.291 273.273C142.491 271.183 141.741 262.363 140.841 257.253C139.988 252.413 138.748 247.133 137.121 241.413C135.028 234.059 133.278 226.033 131.871 217.333C126.901 186.583 132.661 151.683 156.781 130.983C169.571 120.003 186.541 113.063 203.661 113.083C211.155 113.089 218.308 113.839 225.121 115.333C225.575 115.433 225.801 115.249 225.801 114.783L225.861 95.7528C225.861 95.6405 225.816 95.5326 225.736 95.4522C225.656 95.3719 225.546 95.3254 225.431 95.3228C220.245 95.2762 214.625 95.2862 208.571 95.3528C204.601 95.4028 201.551 91.8828 204.001 88.1528C217.095 68.1795 229.761 48.8295 242.001 30.1028C242.581 29.2162 243.375 28.6195 244.381 28.3128C247.931 27.2328 249.471 29.0928 251.171 31.6928C263.105 50.0195 275.335 68.7095 287.861 87.7628C290.171 91.2828 288.181 95.3528 284.061 95.3328C278.075 95.2995 272.318 95.3028 266.791 95.3428C266.663 95.3428 266.54 95.393 266.448 95.4828C266.357 95.5725 266.304 95.6946 266.301 95.8228L266.231 139.283C266.231 139.889 266.421 140.426 266.801 140.893C271.088 146.219 274.731 152.009 277.731 158.263C277.769 158.343 277.828 158.412 277.902 158.462C277.975 158.512 278.06 158.541 278.149 158.548C278.237 158.554 278.326 158.536 278.406 158.497C278.485 158.457 278.553 158.397 278.601 158.323C289.601 141.469 300.648 124.549 311.741 107.563C314.111 103.933 318.121 102.933 320.791 107.033C334.245 127.706 346.775 146.869 358.381 164.523C360.651 167.973 358.251 172.073 354.271 172.053C348.331 172.019 342.571 172.013 336.991 172.033C336.901 172.033 336.815 172.069 336.751 172.132C336.687 172.196 336.651 172.283 336.651 172.373C336.805 224.206 336.938 277.593 337.051 332.533C337.051 333.953 337.385 335.353 338.051 336.733C339.391 339.526 340.215 341.943 340.521 343.983C345.195 374.756 349.848 405.363 354.481 435.803C354.868 438.343 354.261 440.979 352.661 443.713C350.228 447.853 346.738 450.573 342.191 451.873C272.018 472.006 201.258 476.326 129.911 464.833C112.638 462.046 93.7747 457.859 73.3214 452.273C69.3881 451.199 66.5881 449.913 64.9214 448.413C60.7914 444.683 59.3814 439.703 60.2414 434.353C64.6614 406.639 69.1181 378.313 73.6114 349.373C74.3047 344.906 75.338 341.196 76.7114 338.243C80.4447 330.223 85.9947 324.143 93.3614 320.003C97.2747 317.803 103.108 315.833 110.861 314.093C119.315 312.2 127.345 310.373 134.951 308.613C142.931 306.766 151.848 304.593 161.701 302.093C162.455 301.9 163.061 301.559 163.521 301.073C163.821 300.759 163.755 300.623 163.321 300.663ZM256.921 91.0828C256.911 88.4028 258.741 86.0428 261.581 86.0328C266.281 85.9995 270.661 85.9995 274.721 86.0328C275.255 86.0395 275.375 85.8195 275.081 85.3728L246.441 41.6328C246.398 41.5668 246.338 41.5127 246.268 41.4752C246.199 41.4378 246.121 41.4181 246.041 41.4181C245.962 41.4181 245.884 41.4378 245.814 41.4752C245.745 41.5127 245.685 41.5668 245.641 41.6328L217.041 85.3128C216.741 85.7662 216.861 85.9928 217.401 85.9928C221.641 86.0328 225.881 86.0295 230.121 85.9828C233.011 85.9428 235.181 87.9028 235.181 90.8628C235.195 99.7628 235.198 108.746 235.191 117.813C235.191 118.199 235.371 118.463 235.731 118.603C243.198 121.456 250.028 125.376 256.221 130.363C256.286 130.413 256.363 130.444 256.444 130.453C256.526 130.462 256.608 130.448 256.682 130.412C256.755 130.377 256.818 130.322 256.862 130.253C256.906 130.184 256.93 130.105 256.931 130.023C256.931 117.669 256.928 104.689 256.921 91.0828ZM306.231 313.423C312.211 314.753 317.371 316.203 322.771 319.443C324.271 320.343 325.631 321.483 327.001 322.413C327.481 322.74 327.718 322.616 327.711 322.043C327.525 270.696 327.335 219.249 327.141 167.703C327.131 164.543 329.531 162.443 332.671 162.463C337.018 162.496 341.235 162.516 345.321 162.523C345.371 162.524 345.419 162.511 345.462 162.487C345.505 162.462 345.54 162.426 345.564 162.383C345.587 162.339 345.599 162.29 345.597 162.241C345.594 162.192 345.579 162.144 345.551 162.103L316.781 118.183C316.744 118.125 316.693 118.077 316.633 118.045C316.573 118.012 316.505 117.994 316.436 117.994C316.368 117.994 316.3 118.012 316.24 118.045C316.18 118.077 316.128 118.125 316.091 118.183L287.401 161.973C287.363 162.03 287.342 162.097 287.338 162.166C287.335 162.235 287.351 162.303 287.384 162.364C287.417 162.425 287.466 162.475 287.525 162.51C287.585 162.545 287.652 162.563 287.721 162.563C291.421 162.516 295.131 162.483 298.851 162.463C302.941 162.443 305.681 163.633 305.681 168.023C305.655 217.396 305.655 265.633 305.681 312.733C305.681 313.106 305.865 313.336 306.231 313.423ZM238.751 181.643C244.645 183.336 250.648 184.639 256.761 185.553C257.238 185.624 257.723 185.513 258.121 185.243C261.811 182.743 265.981 185.053 265.771 189.423C265.671 191.516 265.528 193.486 265.341 195.333C265.326 195.492 265.352 195.652 265.415 195.797C265.478 195.942 265.576 196.068 265.701 196.163C267.301 197.403 268.368 198.883 268.901 200.603C270.331 205.163 270.071 210.983 269.021 215.613C267.635 221.706 266.401 227.839 265.321 234.013C264.688 237.606 262.538 240.363 258.871 242.283C258.585 242.429 258.405 242.659 258.331 242.973C255.985 253.366 251.198 262.259 243.971 269.653C243.685 269.939 243.548 270.286 243.561 270.693L244.091 289.223C244.105 289.643 244.318 289.889 244.731 289.963C253.471 291.589 262.155 291.51 270.781 289.723C275.541 288.733 279.601 286.963 283.241 283.853C284.055 283.159 283.928 282.773 282.861 282.693C278.655 282.399 274.965 281.129 271.791 278.883C265.991 274.773 265.961 266.893 267.281 260.543C268.375 255.309 269.615 250.166 271.001 245.113C273.891 234.643 275.541 227.003 276.891 217.663C278.911 203.636 278.255 190.276 274.921 177.583C268.781 154.173 253.881 135.043 230.601 126.913C224.921 124.926 218.365 123.563 210.931 122.823C196.298 121.363 182.651 124.689 169.991 132.803C141.961 150.773 136.251 185.813 141.331 216.923C142.618 224.803 144.255 232.279 146.241 239.353C149.801 252.063 156.961 274.823 140.111 281.853C137.805 282.813 135.501 283.359 133.201 283.493C131.521 283.586 131.368 284.12 132.741 285.093C140.321 290.463 148.771 291.653 158.221 291.633C162.868 291.626 167.238 291.099 171.331 290.053C171.731 289.946 171.938 289.686 171.951 289.273L172.701 269.033C172.715 268.686 172.593 268.346 172.361 268.083C165.795 260.656 161.548 252.339 159.621 243.133C159.581 242.925 159.492 242.731 159.361 242.566C159.231 242.4 159.063 242.269 158.871 242.183C154.521 240.163 152.551 236.353 151.971 231.683C151.405 227.163 150.598 222.889 149.551 218.863C147.681 211.643 146.111 201.303 152.121 196.143C152.401 195.903 152.515 195.599 152.461 195.233C152.051 192.513 153.401 190.493 155.951 189.503C158.131 188.649 160.215 187.616 162.201 186.403C174.795 178.689 182.195 167.996 184.401 154.323C185.101 150.013 190.041 147.803 192.931 151.663C203.601 165.883 220.621 176.433 238.751 181.643ZM259.391 215.663C260.091 212.596 260.478 209.373 260.551 205.993C260.565 205.426 260.291 205.099 259.731 205.013C256.505 204.513 254.881 202.869 254.861 200.083C254.851 198.583 255.591 197.043 255.741 195.523C255.775 195.129 255.598 194.909 255.211 194.863C242.305 193.143 229.991 189.473 218.271 183.853C208.425 179.133 199.688 172.939 192.061 165.273C191.721 164.933 191.468 164.986 191.301 165.433C186.201 179.066 176.735 189.493 162.901 196.713C162.735 196.801 162.603 196.944 162.529 197.119C162.454 197.293 162.441 197.489 162.491 197.673C163.738 202.033 162.215 204.513 157.921 205.113C157.561 205.159 157.371 205.366 157.351 205.733C157.178 208.566 157.401 211.233 158.021 213.733C159.548 219.926 160.765 226.179 161.671 232.493C161.693 232.657 161.757 232.813 161.857 232.945C161.957 233.077 162.09 233.179 162.241 233.243C165.041 234.423 167.571 234.143 168.161 238.013C169.368 245.926 172.455 253.119 177.421 259.593C178.541 261.046 179.908 262.266 181.521 263.253C186.115 266.039 190.701 268.886 195.281 271.793C203.671 277.123 212.851 278.883 221.781 273.073C226.508 270.006 231.198 266.909 235.851 263.783C237.878 262.423 239.575 260.813 240.941 258.953C245.761 252.373 248.645 245.369 249.591 237.943C249.931 235.243 252.281 233.733 254.901 233.563C255.192 233.542 255.467 233.425 255.683 233.229C255.899 233.033 256.043 232.77 256.091 232.483C257.165 226.223 258.265 220.616 259.391 215.663ZM226.361 281.433C219.111 286.413 208.711 287.113 200.461 284.843C194.191 283.123 188.351 278.343 182.711 275.083C182.643 275.042 182.565 275.02 182.485 275.02C182.405 275.019 182.327 275.04 182.257 275.079C182.188 275.119 182.131 275.176 182.091 275.245C182.051 275.315 182.031 275.393 182.031 275.473C182.105 279.659 182.108 283.883 182.041 288.143C181.961 293.129 180.375 297.673 177.281 301.773C177.055 302.073 177.025 302.39 177.191 302.723L207.571 363.443C207.61 363.518 207.669 363.582 207.741 363.626C207.813 363.671 207.896 363.694 207.981 363.694C208.066 363.694 208.15 363.671 208.222 363.626C208.294 363.582 208.353 363.518 208.391 363.443L239.711 303.983C239.965 303.503 239.925 303.053 239.591 302.633C233.391 294.723 233.711 286.423 234.161 276.963C234.166 276.885 234.148 276.809 234.111 276.741C234.073 276.673 234.018 276.617 233.949 276.579C233.881 276.54 233.803 276.521 233.724 276.524C233.645 276.526 233.568 276.55 233.501 276.593C231.108 278.193 228.728 279.806 226.361 281.433ZM172.711 340.913C172.771 340.924 172.827 340.951 172.871 340.993L196.381 363.323C196.436 363.369 196.505 363.395 196.577 363.397C196.649 363.399 196.719 363.377 196.777 363.335C196.835 363.292 196.876 363.231 196.895 363.162C196.914 363.093 196.909 363.019 196.881 362.953L170.151 309.573C170.129 309.529 170.097 309.491 170.057 309.462C170.018 309.433 169.972 309.413 169.924 309.404C169.875 309.396 169.826 309.398 169.778 309.412C169.731 309.425 169.688 309.45 169.651 309.483L142.981 333.953C142.938 333.992 142.906 334.042 142.889 334.098C142.872 334.154 142.87 334.214 142.885 334.27C142.899 334.327 142.929 334.379 142.97 334.42C143.012 334.461 143.064 334.489 143.121 334.503L172.711 340.913ZM218.731 363.903C218.689 363.966 218.673 364.042 218.685 364.116C218.696 364.191 218.736 364.258 218.795 364.305C218.855 364.352 218.929 364.374 219.005 364.368C219.08 364.362 219.15 364.328 219.201 364.273L244.981 340.953C245.021 340.918 245.069 340.893 245.121 340.883L274.451 334.563C274.506 334.551 274.555 334.524 274.595 334.485C274.635 334.446 274.663 334.397 274.677 334.343C274.69 334.289 274.688 334.232 274.672 334.179C274.655 334.126 274.624 334.079 274.581 334.043L247.471 310.143C247.437 310.112 247.396 310.089 247.351 310.077C247.306 310.064 247.26 310.062 247.214 310.071C247.168 310.08 247.126 310.099 247.089 310.127C247.052 310.155 247.022 310.191 247.001 310.233L218.731 363.903ZM148.381 315.033C135.728 318.046 123.851 320.793 112.751 323.273C106.071 324.766 101.238 326.336 98.2514 327.983C92.9181 330.923 88.728 335.289 85.6814 341.083C84.4014 343.509 83.2414 348.153 82.2014 355.013C77.9347 383.039 73.7347 409.699 69.6014 434.993C69.1314 437.863 69.6914 441.303 72.8214 442.203C85.9614 445.969 100.021 449.439 115.001 452.613C115.092 452.632 115.186 452.631 115.276 452.609C115.366 452.588 115.451 452.546 115.523 452.488C115.595 452.429 115.653 452.355 115.692 452.271C115.732 452.187 115.752 452.096 115.751 452.003C115.771 433.256 115.768 414.706 115.741 396.353C115.735 393.206 117.258 391.436 120.311 391.043C120.385 391.036 120.455 391.036 120.521 391.043C123.575 391.429 125.101 393.119 125.101 396.113C125.088 415.619 125.091 434.899 125.111 453.953C125.111 454.226 125.245 454.386 125.511 454.433C131.338 455.506 137.395 456.469 143.681 457.323C191.328 463.789 239.285 462.953 287.551 454.813C287.918 454.753 288.101 454.539 288.101 454.173C288.195 435.319 288.228 415.92 288.201 395.973C288.201 393.086 289.715 391.529 292.741 391.303C292.808 391.296 292.875 391.293 292.941 391.293C296.021 391.266 297.561 392.983 297.561 396.443C297.561 414.343 297.568 432.913 297.581 452.153C297.588 452.699 297.855 452.92 298.381 452.813C312.175 450 325.831 446.683 339.351 442.863C341.531 442.249 343.191 441.106 344.331 439.433C344.945 438.526 345.158 437.459 344.971 436.233C340.618 407.246 336.301 378.473 332.021 349.913C331.368 345.566 330.431 342.213 329.211 339.853C325.911 333.493 321.251 328.889 315.231 326.043C312.858 324.923 309.961 323.94 306.541 323.093C294.121 320.023 281.471 317.773 268.681 315.013C267.275 314.706 267.115 315.026 268.201 315.973C275.208 322.12 281.845 327.976 288.111 333.543C291.461 336.513 289.541 340.903 285.461 341.783C274.435 344.156 262.991 346.613 251.131 349.153C250.111 349.373 249.195 349.843 248.381 350.563C241.421 356.71 234.095 363.343 226.401 370.463C220.091 376.323 213.481 380.223 205.211 378.953C200.565 378.246 196.791 376.526 193.891 373.793C185.791 366.173 177.381 358.219 168.661 349.933C168.388 349.673 168.068 349.503 167.701 349.423C156.315 346.949 144.478 344.396 132.191 341.763C128.361 340.933 126.381 336.723 129.571 333.683C135.145 328.389 141.708 322.363 149.261 315.603C149.621 315.283 149.565 315.086 149.091 315.013C148.851 314.973 148.615 314.98 148.381 315.033Z" fill="#F19BC0"/>
<path d="M417.208 245.701L417.138 447.581C417.138 448.83 416.641 450.028 415.756 450.911C414.871 451.794 413.67 452.291 412.418 452.291L381.448 452.271C380.167 452.271 378.939 451.763 378.033 450.859C377.127 449.955 376.618 448.729 376.618 447.451L376.598 245.281C376.598 245.226 376.587 245.172 376.565 245.121C376.544 245.071 376.512 245.025 376.472 244.987C376.432 244.949 376.384 244.919 376.332 244.899C376.28 244.879 376.224 244.869 376.168 244.871C371.362 244.977 365.835 245.021 359.588 245.001C354.778 244.981 352.598 241.041 355.298 236.921C367.972 217.554 380.438 198.497 392.698 179.751C394.778 176.571 398.938 176.571 401.108 179.891C413.648 199.011 426.232 218.234 438.858 237.561C441.158 241.081 438.548 244.911 434.528 244.961C429.595 245.021 424.095 244.997 418.028 244.891C417.482 244.877 417.208 245.147 417.208 245.701ZM381.578 235.551C384.338 235.601 386.088 238.021 386.088 240.691C386.128 303.764 386.122 370.947 386.068 442.241C386.068 442.371 386.12 442.495 386.212 442.587C386.304 442.679 386.428 442.731 386.558 442.731L407.028 442.741C407.187 442.741 407.34 442.677 407.453 442.565C407.565 442.452 407.628 442.3 407.628 442.141L407.618 240.441C407.618 239.13 408.139 237.874 409.065 236.947C409.992 236.021 411.248 235.501 412.558 235.501L425.708 235.491C425.762 235.49 425.814 235.475 425.859 235.448C425.905 235.42 425.943 235.381 425.968 235.334C425.994 235.287 426.006 235.234 426.004 235.181C426.003 235.128 425.987 235.076 425.958 235.031L397.338 191.291C397.287 191.215 397.219 191.153 397.138 191.111C397.058 191.068 396.969 191.046 396.879 191.046C396.789 191.046 396.7 191.068 396.622 191.111C396.543 191.153 396.477 191.215 396.428 191.291L367.858 234.861C367.558 235.327 367.682 235.554 368.228 235.541C373.075 235.467 377.525 235.471 381.578 235.551Z" fill="#F19BC0"/>
</svg>
