<svg width="500" height="500" viewBox="0 0 500 500" fill="none" xmlns="http://www.w3.org/2000/svg">
<path d="M287.221 68.7507L315.101 80.2207C315.461 80.3741 315.777 80.3141 316.051 80.0407C323.097 73.0607 330.237 65.8541 337.471 58.4207C342.701 53.0507 350.031 51.8807 355.701 57.5007C367.167 68.8741 378.821 80.3874 390.661 92.0407C394.221 95.5507 395.481 101.041 393.311 105.621C392.511 107.314 391.191 109.071 389.351 110.891C382.331 117.824 375.407 124.771 368.581 131.731C368.459 131.856 368.376 132.014 368.342 132.186C368.308 132.358 368.325 132.537 368.391 132.701L380.151 161.051C380.195 161.154 380.269 161.243 380.364 161.305C380.458 161.367 380.568 161.4 380.681 161.401C389.247 161.454 398.201 161.384 407.541 161.191C412.487 161.084 416.127 161.574 418.461 162.661C422.654 164.614 424.747 168.554 424.741 174.481C424.707 191.321 424.697 207.887 424.711 224.181C424.721 229.121 420.971 233.591 416.471 235.041C415.051 235.501 412.614 235.711 409.161 235.671C399.827 235.557 390.404 235.514 380.891 235.541C380.431 235.541 380.111 235.751 379.931 236.171C378.984 238.417 378.081 240.614 377.221 242.761C374.931 248.491 366.691 245.581 368.981 239.511C370.201 236.271 371.571 232.904 373.091 229.411C373.811 227.751 375.361 226.481 377.241 226.491C389.207 226.557 401.071 226.581 412.831 226.561C413.646 226.558 414.427 226.232 415.002 225.655C415.578 225.078 415.901 224.296 415.901 223.481L415.891 173.051C415.891 172.684 415.818 172.32 415.677 171.981C415.535 171.642 415.328 171.334 415.067 171.074C414.806 170.815 414.496 170.61 414.155 170.47C413.814 170.331 413.449 170.259 413.081 170.261L377.131 170.351C376.289 170.35 375.467 170.101 374.767 169.635C374.068 169.169 373.523 168.506 373.201 167.731L358.771 132.891C358.433 132.072 358.344 131.172 358.515 130.304C358.685 129.436 359.108 128.638 359.731 128.011L384.231 103.291C385.904 101.597 385.894 99.9141 384.201 98.2407L349.231 63.6407C348.948 63.3612 348.614 63.1398 348.246 62.9895C347.879 62.8392 347.485 62.7627 347.089 62.7646C346.692 62.7664 346.3 62.8465 345.935 63.0003C345.569 63.1541 345.239 63.3785 344.961 63.6607L319.951 88.9807C319.338 89.5966 318.557 90.0174 317.706 90.19C316.855 90.3626 315.973 90.2794 315.171 89.9507L280.201 75.5307C279.433 75.214 278.776 74.6778 278.312 73.9895C277.848 73.3011 277.597 72.491 277.591 71.6607L277.381 36.0307C277.375 35.2209 277.049 34.4462 276.474 33.8764C275.898 33.3065 275.12 32.9881 274.311 32.9907L225.671 33.0207C224.831 33.0207 224.025 33.3541 223.429 33.948C222.833 34.5419 222.496 35.3482 222.491 36.1907L222.351 71.7707C222.348 72.5738 222.107 73.3583 221.659 74.0256C221.21 74.6928 220.574 75.2131 219.831 75.5207L184.851 89.9607C184.052 90.289 183.174 90.373 182.328 90.2021C181.482 90.0312 180.707 89.613 180.101 89.0007L155.381 63.9807C153.747 62.3274 152.107 62.3174 150.461 63.9507L115.381 98.6007C114.814 99.161 114.493 99.9229 114.487 100.72C114.482 101.516 114.792 102.283 115.351 102.851C123.857 111.504 132.157 119.881 140.251 127.981C141.741 129.471 141.841 131.511 141.061 133.381C136.121 145.227 131.414 156.551 126.941 167.351C126.087 169.404 124.514 170.417 122.221 170.391C110.861 170.284 99.0873 170.251 86.9007 170.291C86.1827 170.293 85.495 170.58 84.9873 171.087C84.4797 171.595 84.1933 172.283 84.1907 173.001L84.0807 223.461C84.0807 223.875 84.1625 224.286 84.3214 224.669C84.4803 225.051 84.7133 225.399 85.0068 225.692C85.3004 225.984 85.6488 226.216 86.0321 226.374C86.4155 226.532 86.8262 226.612 87.2407 226.611L122.811 226.491C123.657 226.488 124.485 226.734 125.193 227.198C125.9 227.662 126.456 228.324 126.791 229.101C128.071 232.081 129.531 235.691 131.171 239.931C132.157 242.491 131.377 244.281 128.831 245.301C128.777 245.321 128.724 245.341 128.671 245.361C126.031 246.421 124.041 245.504 122.701 242.611C121.801 240.657 120.987 238.624 120.261 236.511C120.041 235.891 119.601 235.577 118.941 235.571C110.254 235.477 100.481 235.527 89.6207 235.721C83.5807 235.841 78.9407 234.011 76.3307 228.711C75.6107 227.244 75.2507 225.597 75.2507 223.771C75.304 206.984 75.2973 190.254 75.2307 173.581C75.1907 165.481 81.1207 161.231 88.7007 161.261C99.0207 161.307 109.147 161.347 119.081 161.381C119.264 161.381 119.444 161.327 119.597 161.226C119.75 161.125 119.87 160.98 119.941 160.811L131.691 132.531C131.726 132.448 131.737 132.356 131.721 132.267C131.705 132.178 131.663 132.096 131.601 132.031C124.987 125.197 118.057 118.197 110.811 111.031C108.244 108.484 106.681 106.237 106.121 104.291C104.611 99.0807 106.441 94.8207 110.181 91.1607C121.061 80.5207 132.111 69.5841 143.331 58.3507C148.831 52.8507 156.121 51.9907 161.861 57.8207C169.467 65.5341 176.831 72.9641 183.951 80.1107C184.191 80.3507 184.464 80.4041 184.771 80.2707L212.911 68.6607C213.297 68.5007 213.494 68.2107 213.501 67.7907C213.621 59.5774 213.657 49.5607 213.611 37.7407C213.581 28.8807 218.631 23.9307 227.481 24.0007C243.721 24.1274 258.571 24.1441 272.031 24.0507C281.551 23.9774 286.334 28.5607 286.381 37.8007C286.421 47.3807 286.477 57.3674 286.551 67.7607C286.557 68.2407 286.781 68.5707 287.221 68.7507Z" fill="#5EC3FD"/>
<path d="M174.351 176.862C168.605 197.149 170.841 216.922 181.061 236.182C182.408 238.722 181.938 240.895 179.651 242.702C179.611 242.735 179.558 242.765 179.491 242.792C176.751 243.865 174.685 243.115 173.291 240.542C163.838 223.068 160.461 205.015 163.161 186.382C164.881 174.508 168.765 163.615 174.811 153.702C183.405 139.609 195.108 128.705 209.921 120.992C215.655 117.998 222.025 115.652 229.031 113.952C245.018 110.072 261.125 110.668 277.351 115.742C283.671 117.722 289.795 120.532 295.721 124.172C308.021 131.732 317.805 141.515 325.071 153.522C331.205 163.648 335.068 174.199 336.661 185.172C339.528 204.865 336.198 223.328 326.671 240.562C325.205 243.215 323.181 243.908 320.601 242.642C320.541 242.608 320.481 242.575 320.421 242.542C318.001 241.002 317.465 238.955 318.811 236.402C329.605 215.982 331.665 195.448 324.991 174.802C322.905 168.328 320.135 162.398 316.681 157.012C306.921 141.778 293.618 131.095 276.771 124.962C267.885 121.728 258.268 120.245 247.921 120.512C230.888 120.945 215.751 126.168 202.511 136.182C194.291 142.402 187.521 149.925 182.201 158.752C178.775 164.439 176.158 170.475 174.351 176.862Z" fill="#5EC3FD"/>
<path d="M213.55 277.52C205.844 274.054 199.3 269.927 193.92 265.14C192.54 263.914 192.237 262.264 193.01 260.19C193.13 259.864 193.314 259.577 193.56 259.33C195.64 257.184 197.9 257.087 200.34 259.04C205.374 263.06 210.84 266.467 216.74 269.26C219.64 270.634 220.494 272.64 219.3 275.28C219.274 275.334 219.247 275.384 219.22 275.43C217.86 277.91 215.97 278.607 213.55 277.52Z" fill="#5EC3FD"/>
<path d="M293.611 263.462C295.351 262.368 296.937 261.188 298.371 259.922C299.917 258.562 301.364 257.832 302.711 257.732C304.704 257.578 306.161 258.478 307.081 260.432C307.581 261.505 307.594 262.572 307.121 263.632C306.701 264.565 306.067 265.368 305.221 266.042C299.461 270.615 293.374 274.395 286.961 277.382C284.334 278.608 282.254 278.002 280.721 275.562C280.687 275.522 280.664 275.475 280.651 275.422C279.617 272.688 280.507 270.628 283.321 269.242C286.827 267.508 290.257 265.582 293.611 263.462Z" fill="#5EC3FD"/>
<path d="M116.762 310.891C123.069 298.311 129.032 286.181 134.652 274.501C137.219 269.168 139.465 265.625 141.392 263.871C150.862 255.231 165.582 258.041 171.252 269.541C178.525 284.268 185.345 298.148 191.712 311.181C194.332 316.551 186.482 320.591 183.802 315.171C176.629 300.658 169.642 286.518 162.842 272.751C162.022 271.105 160.529 269.761 158.362 268.721C153.652 266.461 147.682 268.581 145.482 273.031C138.342 287.491 131.082 302.205 123.702 317.171C122.902 318.785 121.609 319.721 119.822 319.981C104.229 322.295 89.1954 324.465 74.7221 326.491C71.3954 326.951 69.1021 327.555 67.8421 328.301C61.9421 331.761 61.4721 339.561 66.3421 344.331C78.3288 356.065 89.8521 367.295 100.912 378.021C102.179 379.255 102.662 380.778 102.362 382.591C99.5754 399.625 96.8721 415.415 94.2521 429.961C93.0321 436.731 97.8321 443.211 104.922 442.281C106.769 442.035 108.979 441.218 111.552 439.831C125.685 432.218 139.055 425.168 151.662 418.681C157.542 415.651 161.842 423.411 155.582 426.671C142.475 433.498 129.352 440.415 116.212 447.421C111.839 449.755 108.402 451.031 105.902 451.251C99.1221 451.845 93.4888 449.428 89.0021 444.001C85.0321 439.201 84.6521 433.081 85.7021 427.011C88.1621 412.745 90.6521 398.401 93.1721 383.981C93.2155 383.741 93.199 383.493 93.1241 383.258C93.0493 383.023 92.9182 382.808 92.7421 382.631C83.0621 372.971 72.8054 362.975 61.9721 352.641C58.6454 349.468 56.4854 346.681 55.4921 344.281C51.7221 335.191 55.2821 324.721 64.0721 320.111C65.9521 319.125 68.6454 318.378 72.1521 317.871C87.0921 315.705 101.689 313.575 115.942 311.481C116.315 311.428 116.589 311.231 116.762 310.891Z" fill="#5EC3FD"/>
<path d="M406.862 383.921C409.549 399.261 412.132 414.451 414.612 429.491C416.892 443.341 403.352 455.141 389.912 450.291C387.766 449.518 384.526 447.955 380.192 445.601C368.359 439.181 356.392 432.858 344.292 426.631C341.426 425.151 340.642 423.085 341.942 420.431C341.969 420.378 341.999 420.325 342.032 420.271C343.599 417.871 345.562 417.281 347.922 418.501C361.222 425.408 374.606 432.418 388.072 439.531C393.412 442.361 397.282 443.941 402.212 440.191C405.186 437.925 406.349 434.791 405.702 430.791C403.036 414.285 400.286 398.205 397.452 382.551C397.319 381.821 397.368 381.069 397.592 380.36C397.817 379.651 398.212 379.006 398.742 378.481C409.762 367.601 420.992 356.648 432.432 345.621C434.499 343.628 435.832 341.841 436.432 340.261C438.822 333.971 434.502 327.781 428.042 326.881C412.229 324.681 396.082 322.325 379.602 319.811C378.93 319.709 378.292 319.446 377.743 319.044C377.194 318.642 376.752 318.112 376.452 317.501C368.966 302.288 361.726 287.591 354.732 273.411C352.262 268.401 346.342 266.361 341.242 268.881C339.342 269.821 337.642 271.808 336.142 274.841C329.476 288.341 322.832 301.775 316.212 315.141C313.502 320.601 305.712 316.501 308.282 311.221C315.222 296.921 322.249 282.625 329.362 268.331C330.496 266.051 332.522 263.918 335.442 261.931C342.802 256.941 352.302 258.081 358.742 264.001C360.442 265.555 362.142 268.081 363.842 271.581C371.062 286.415 377.532 299.525 383.252 310.911C383.419 311.245 383.689 311.438 384.062 311.491C398.662 313.631 413.536 315.805 428.682 318.011C437.362 319.278 442.862 323.815 445.182 331.621C447.182 338.361 445.172 345.631 440.102 350.551C429.856 360.478 418.919 371.148 407.292 382.561C406.912 382.941 406.769 383.395 406.862 383.921Z" fill="#5EC3FD"/>
<path d="M312.691 406.371C311.281 407.761 311.011 407.901 311.361 410.041C313.548 423.394 315.834 436.748 318.221 450.101C319.081 454.921 319.271 458.564 318.791 461.031C316.921 470.591 308.021 477.251 298.561 476.221C295.681 475.908 292.248 474.681 288.261 472.541C275.581 465.721 263.011 459.101 250.551 452.681C250.375 452.591 250.18 452.545 249.984 452.545C249.787 452.545 249.594 452.591 249.421 452.681C238.008 458.534 226.588 464.561 215.161 470.761C209.361 473.914 205.121 475.681 202.441 476.061C192.501 477.461 182.801 470.811 181.151 460.901C180.698 458.208 180.878 454.618 181.691 450.131C183.824 438.418 186.038 425.808 188.331 412.301C188.558 410.974 188.704 409.644 188.771 408.311C188.791 408.018 188.694 407.764 188.481 407.551C177.728 396.904 167.361 386.814 157.381 377.281C149.901 370.131 146.991 361.241 152.651 351.851C156.281 345.841 161.821 343.601 168.591 342.651C183.484 340.551 197.838 338.504 211.651 336.511C211.837 336.483 212.014 336.41 212.167 336.299C212.32 336.187 212.445 336.041 212.531 335.871C218.698 323.564 225.138 310.494 231.851 296.661C233.651 292.954 235.471 290.291 237.311 288.671C242.411 284.191 248.364 282.824 255.171 284.571C261.811 286.261 265.451 291.051 268.371 297.111C274.611 310.031 280.958 322.911 287.411 335.751C287.513 335.955 287.662 336.131 287.847 336.265C288.031 336.399 288.245 336.487 288.471 336.521C300.271 338.261 313.371 340.114 327.771 342.081C334.051 342.941 338.371 344.074 340.731 345.481C351.801 352.061 353.481 366.701 344.271 375.601C332.884 386.608 322.358 396.864 312.691 406.371ZM198.201 407.441C195.561 422.611 193.211 437.691 190.331 452.881C189.751 455.941 189.684 458.324 190.131 460.031C191.701 466.021 198.581 469.241 204.101 466.351C217.608 459.271 232.141 451.628 247.701 443.421C249.201 442.628 250.678 442.611 252.131 443.371C265.778 450.491 279.821 457.894 294.261 465.581C297.971 467.551 301.351 468.371 305.271 466.021C309.651 463.381 310.641 459.301 309.841 454.251C307.331 438.531 304.301 422.971 301.811 407.771C301.484 405.804 302.028 404.138 303.441 402.771C314.401 392.171 325.891 380.998 337.911 369.251C344.181 363.131 341.241 353.331 332.531 351.981C316.224 349.448 300.214 347.114 284.501 344.981C282.668 344.728 281.338 343.764 280.511 342.091C272.578 325.984 265.408 311.444 259.001 298.471C255.191 290.771 244.841 290.711 240.991 298.511C233.791 313.111 226.628 327.624 219.501 342.051C218.661 343.758 217.311 344.738 215.451 344.991C199.671 347.164 183.618 349.508 167.291 352.021C163.351 352.628 160.741 354.698 159.461 358.231C157.691 363.131 159.481 366.841 162.961 370.211C174.701 381.611 185.978 392.571 196.791 403.091C197.362 403.65 197.788 404.337 198.034 405.095C198.279 405.853 198.337 406.658 198.201 407.441Z" fill="#5EC3FD"/>
</svg>
