<svg width="518" height="124" viewBox="0 0 518 124" fill="none" xmlns="http://www.w3.org/2000/svg">
<path d="M510.347 63.0864C504.997 67.6164 501.237 68.1064 495.107 64.9464C494.077 64.4164 493.437 63.8864 493.227 65.5664C493.097 66.5864 492.217 66.5464 491.457 66.4364C490.417 66.2864 490.497 65.4564 490.487 64.7064C490.477 63.0964 490.457 61.4964 490.497 59.8864C490.517 59.0864 490.207 58.0664 491.427 57.8064C492.687 57.5364 493.237 58.1464 493.827 59.2764C495.857 63.1564 499.077 64.7364 503.117 64.0664C505.397 63.6864 507.347 62.6764 507.667 60.1964C508.007 57.5464 506.127 56.3864 503.877 55.7964C501.067 55.0664 498.197 54.5364 495.407 53.7564C492.487 52.9364 490.267 51.2964 490.457 47.9164C490.647 44.6064 492.727 42.7364 495.807 41.8464C498.377 41.1064 500.927 41.2564 503.437 42.1164C504.787 42.5764 506.037 44.2364 507.507 42.1864C507.737 41.8564 509.007 41.8964 509.187 42.5664C509.737 44.6364 509.717 46.7864 509.197 48.8564C509.027 49.5364 508.107 49.3364 507.467 49.2964C506.487 49.2364 506.427 48.3464 506.047 47.7464C503.957 44.4164 499.887 43.0264 496.237 44.4464C494.627 45.0664 493.447 46.0864 493.507 47.9964C493.567 49.7964 494.757 50.6764 496.317 51.0864C498.497 51.6564 500.707 52.1564 502.927 52.5564C505.897 53.0864 508.387 54.3864 510.357 56.6564C510.347 58.8064 510.347 60.9464 510.347 63.0864Z" fill="#717173"/>
<path d="M224.074 102.46C224.074 75.31 224.074 48.15 224.074 21C224.504 21 224.934 21 225.374 21C225.374 48.15 225.374 75.31 225.374 102.46C224.944 102.46 224.504 102.46 224.074 102.46Z" fill="#717173"/>
<path d="M36.2953 48.4102C36.6453 48.6002 36.9553 48.7002 37.1653 48.9002C39.5453 51.2302 41.8853 53.5902 44.2653 55.9202C45.2353 56.8702 44.4453 57.4302 43.8453 58.0202C35.0853 66.7202 26.2853 75.4002 17.5653 84.1402C16.3953 85.3102 15.7253 85.0802 14.7353 84.0302C12.8153 82.0002 10.8353 80.0302 8.78529 78.1302C7.76529 77.1902 7.72529 76.5802 8.74529 75.5802C17.5453 66.9202 26.3053 58.2002 35.0753 49.5102C35.4653 49.1202 35.8753 48.7902 36.2953 48.4102Z" fill="#1E2C4D"/>
<path d="M84.3169 81.9602C83.2269 82.6702 82.0369 83.2602 81.0569 84.1002C79.1169 85.7802 77.2969 88.9702 75.4169 88.9802C73.5569 88.9902 71.6269 85.9002 69.8069 84.1002C62.7769 77.1602 55.7969 70.1502 48.7169 63.2502C47.2769 61.8402 46.8869 60.8602 48.6269 59.4302C51.0169 57.4602 52.7869 53.5402 55.4369 53.4602C58.1369 53.3802 60.0269 57.2302 62.2369 59.3802C68.8569 65.8302 75.3869 72.3702 81.9269 78.8902C82.6069 79.5402 83.5169 80.0702 84.3169 81.9602Z" fill="#84ACCF"/>
<path d="M196.795 72.0803C196.795 73.9003 196.805 75.7203 196.785 77.5303C196.775 78.1403 196.925 78.9403 196.095 79.1103C195.275 79.2803 195.025 78.6103 194.865 77.9603C194.145 75.1303 193.065 75.5003 191.015 77.1103C184.915 81.9103 177.955 81.8703 171.135 79.1403C164.225 76.3703 160.795 70.6903 160.035 63.4503C159.605 59.3603 160.135 55.3603 161.665 51.4903C166.355 39.6803 180.365 35.4603 190.785 42.8803C192.925 44.4103 194.105 45.0103 194.505 41.7403C194.585 41.1203 194.585 40.0303 195.735 40.2903C196.555 40.4803 196.305 41.3403 196.325 41.9203C196.455 45.8703 196.555 49.8203 196.635 53.7703C196.645 54.3603 196.875 55.2203 195.995 55.3303C195.165 55.4403 195.105 54.6403 194.915 54.0203C194.355 52.1903 193.905 50.2903 193.095 48.5603C190.635 43.3203 186.085 41.1403 180.545 41.0603C175.135 40.9803 171.245 43.8003 169.195 48.6403C166.235 55.5903 166.055 62.8203 168.535 69.9403C170.545 75.7103 175.615 79.0303 181.375 78.8703C187.805 78.7003 191.995 75.3303 194.365 68.7203C194.795 67.5303 194.315 65.1303 195.895 65.3503C197.755 65.6003 196.475 67.8403 196.755 69.1703C196.955 70.1203 196.795 71.1103 196.795 72.0803Z" fill="#717173"/>
<path d="M51.8066 72.8393C51.2866 73.4093 50.8866 73.8893 50.4466 74.3293C43.4666 81.3093 36.4566 88.2693 29.5166 95.2993C28.3666 96.4593 27.6466 96.6393 26.4766 95.3593C24.6766 93.3793 22.7466 91.4993 20.7666 89.6893C19.5766 88.5993 19.4566 87.9093 20.7066 86.6793C27.7766 79.7493 34.7466 72.7693 41.6966 65.7493C42.8166 64.6093 43.5666 64.3093 44.7766 65.6393C46.6466 67.6993 48.7166 69.5893 50.6866 71.5693C51.0566 71.9293 51.3766 72.3393 51.8066 72.8393Z" fill="#E7145B"/>
<path d="M137.846 40.8399C143.566 40.8399 149.286 40.8999 154.996 40.8099C156.786 40.7799 157.516 41.2699 157.406 43.1399C157.296 45.1599 157.496 47.1999 157.546 49.2299C157.556 49.7699 157.536 50.3699 156.866 50.4899C156.136 50.6199 156.026 49.9999 155.886 49.4899C155.736 48.9799 155.606 48.4599 155.456 47.9399C154.266 43.7899 152.876 42.6699 148.656 42.4799C140.926 42.1299 140.926 42.1299 140.926 49.8299C140.926 57.7499 140.916 65.6699 140.926 73.5899C140.936 78.4599 141.346 78.8899 146.076 79.3099C146.746 79.3699 147.796 78.9899 147.686 80.2299C147.606 81.0499 146.806 81.0299 146.156 81.0299C140.436 81.0299 134.716 81.0299 129.006 81.0199C128.366 81.0199 127.596 80.9899 127.626 80.0899C127.656 79.1299 128.496 79.3799 129.086 79.3099C134.426 78.6999 134.596 78.6299 134.656 73.2999C134.756 63.8799 134.676 54.4699 134.776 45.0499C134.796 43.1599 134.336 42.2199 132.266 42.4599C131.206 42.5799 130.106 42.4799 129.036 42.4799C122.236 42.4899 121.996 42.6599 119.826 48.9599C119.626 49.5399 119.716 50.3599 118.836 50.3599C117.636 50.3699 117.976 49.3799 117.916 48.7099C117.216 40.8399 117.216 40.8399 125.216 40.8399C129.436 40.8399 133.636 40.8399 137.846 40.8399Z" fill="#717173"/>
<path d="M255.707 61.3577C255.707 63.1577 255.667 64.1877 255.717 65.2077C255.757 66.0677 255.607 66.6877 254.567 66.6977C253.717 66.7077 253.017 66.5277 253.017 65.5177C253.007 61.8777 253.007 58.2377 253.037 54.6077C253.047 53.8177 253.587 53.5277 254.337 53.5377C255.007 53.5477 255.627 53.5777 255.837 54.4077C256.017 55.1377 256.237 55.8577 256.487 56.5577C258.737 62.8977 266.037 66.2277 272.327 63.7777C275.287 62.6277 277.117 60.6077 277.287 57.3177C277.457 53.9377 275.667 51.8377 272.667 50.7477C270.047 49.7977 267.327 49.0777 264.637 48.3377C262.227 47.6777 259.927 46.8277 257.827 45.4677C254.247 43.1477 252.477 39.9777 253.147 35.6677C253.797 31.4977 256.507 28.9777 260.317 27.7777C265.777 26.0577 270.737 27.1777 274.857 31.2677C275.767 30.6777 275.387 29.8677 275.427 29.2077C275.497 28.0677 276.097 27.7777 277.127 27.8277C278.147 27.8777 278.367 28.4877 278.367 29.3177C278.367 31.5677 278.407 33.8177 278.357 36.0577C278.337 36.9277 278.797 38.1177 277.337 38.3777C275.997 38.6177 275.557 37.7877 275.017 36.6977C272.347 31.2877 268.067 29.1277 262.377 30.2177C259.427 30.7877 257.097 32.2577 256.387 35.3277C255.607 38.6677 257.047 41.1677 259.917 42.8977C263.587 45.1077 267.877 45.4777 271.857 46.7277C277.857 48.6177 280.607 51.7577 280.537 56.8077C280.467 61.2277 277.987 64.7977 273.657 66.3177C266.977 68.6877 261.157 67.2477 255.707 61.3577Z" fill="#717173"/>
<path d="M448.277 62.8275C441.167 68.1475 434.477 68.3875 429.797 63.6575C425.347 59.1575 424.737 51.2475 428.457 46.2375C432.717 40.5075 438.807 40.1875 448.677 45.4975C448.677 40.7075 448.687 36.1775 448.667 31.6375C448.657 29.8675 447.247 30.4375 446.287 30.3575C445.397 30.2875 444.537 30.3475 444.517 29.0775C444.497 27.8475 445.267 27.7075 446.217 27.7375C446.437 27.7475 446.647 27.7475 446.867 27.7375C451.517 27.5775 451.517 27.5775 451.517 32.2475C451.517 41.8675 451.537 51.4875 451.497 61.1075C451.487 62.7875 451.537 64.1375 453.817 63.8375C454.877 63.6975 455.417 64.2075 455.367 65.3175C455.317 66.3975 454.547 66.3375 453.777 66.4375C449.677 66.9375 448.957 66.5075 448.277 62.8275ZM429.157 53.9875C429.117 59.7675 433.337 64.3275 438.747 64.3475C444.027 64.3675 448.357 59.8875 448.387 54.3675C448.417 48.4575 444.467 44.3175 438.707 44.2375C432.987 44.1575 429.197 48.0375 429.157 53.9875Z" fill="#717173"/>
<path d="M106.856 61.0099C106.856 65.4999 106.876 69.9799 106.856 74.4699C106.846 77.5099 107.986 79.4099 111.386 79.3199C112.046 79.2999 113.136 78.9999 113.096 80.1499C113.066 81.1999 112.036 81.0099 111.326 81.0099C106.376 81.0299 101.416 81.0299 96.4657 81.0099C95.7557 81.0099 94.7457 81.2399 94.6157 80.2299C94.4657 79.0499 95.5457 79.2799 96.2157 79.3099C99.3957 79.4299 100.616 77.7799 100.706 74.8099C100.986 65.4099 100.956 56.0199 100.716 46.6299C100.646 43.7899 99.5257 42.1999 96.4357 42.4499C95.7457 42.4999 94.7357 42.6999 94.6257 41.6499C94.4957 40.3999 95.6157 40.7699 96.2457 40.7699C101.306 40.7299 106.366 40.7299 111.436 40.7699C112.086 40.7699 113.186 40.4399 113.086 41.6399C112.996 42.6599 111.976 42.5199 111.276 42.4599C107.666 42.1399 106.866 44.3199 106.856 47.2299C106.846 51.8199 106.856 56.4199 106.856 61.0099Z" fill="#717173"/>
<path d="M415.378 45.6677C416.208 44.4877 415.028 42.6677 416.368 42.3577C418.198 41.9377 420.198 42.1777 422.128 42.2677C422.728 42.2977 422.788 42.9977 422.798 43.5477C422.818 44.5277 422.228 44.9477 421.368 44.8477C418.748 44.5177 418.718 46.1077 418.748 47.9977C418.818 52.3777 418.828 56.7677 418.748 61.1477C418.718 62.8977 418.948 64.1077 421.138 63.8277C422.108 63.6977 422.818 64.0277 422.798 65.2077C422.778 66.4577 421.908 66.4777 421.018 66.4977C420.698 66.5077 420.368 66.4677 420.048 66.5077C417.178 66.8777 414.818 66.6477 415.928 61.8577C412.198 66.0077 408.358 67.6877 403.618 66.9577C400.728 66.5077 398.318 65.2177 396.418 63.0477C391.888 57.8777 391.918 49.9377 396.448 45.1877C401.378 40.0677 408.358 40.1977 415.378 45.6677ZM405.548 44.2377C399.998 44.2777 396.198 48.4077 396.278 54.3077C396.348 59.8077 400.728 64.3677 405.908 64.3377C411.208 64.3077 415.868 59.4077 415.728 54.0377C415.568 48.3577 411.248 44.1977 405.548 44.2377Z" fill="#717173"/>
<path d="M71.8263 93.1199C71.2263 93.7499 70.7462 94.3299 70.1962 94.8299C67.9062 96.9099 66.1162 100.65 63.4062 100.82C60.8362 100.98 59.0362 97.1699 56.8562 95.1599C53.8662 92.3999 51.0262 89.4699 48.0162 86.7199C46.6362 85.4599 46.2162 84.4999 47.9262 83.1999C48.9462 82.4299 49.7763 81.4099 50.6863 80.5099C54.9163 76.3199 54.9062 76.3199 59.0562 80.3999C62.8062 84.0799 66.5662 87.7499 70.3062 91.4399C70.8462 91.9499 71.2963 92.5199 71.8263 93.1199Z" fill="#1BAADF"/>
<path d="M74.8337 33.2494C74.4937 33.6494 74.1837 34.0594 73.8237 34.4294C69.2537 38.9794 64.6537 43.4994 60.1037 48.0694C59.2037 48.9794 58.5637 49.3194 57.5137 48.1994C55.5337 46.0794 53.4537 44.0494 51.3337 42.0694C50.2937 41.0994 50.3637 40.4294 51.3537 39.4694C56.0437 34.8894 60.6837 30.2594 65.3337 25.6394C65.8737 25.1094 66.3437 24.4694 67.1737 25.2994C69.5237 27.6594 71.9037 29.9894 74.2537 32.3494C74.4737 32.5494 74.5937 32.8594 74.8337 33.2494Z" fill="#E7145B"/>
<path d="M362.13 47.2675C362.13 51.8675 362.23 56.4675 362.09 61.0675C362.03 63.1475 362.62 63.9875 364.8 63.7675C365.68 63.6775 367.12 63.1375 367.2 64.9575C367.28 66.9975 365.72 66.3875 364.69 66.4075C361.78 66.4775 358.87 66.4374 355.96 66.4274C355.02 66.4174 353.93 66.6275 353.86 65.1375C353.8 63.6575 354.84 63.5975 355.81 63.7575C358.54 64.2075 358.94 62.8775 358.91 60.5275C358.79 51.4375 358.79 42.3474 358.91 33.2574C358.94 30.9774 358.22 30.1074 355.99 30.4574C355.78 30.4874 355.56 30.4574 355.34 30.4574C349.29 30.4374 349.31 30.4374 349.07 36.2774C349.03 37.2274 349.55 38.5274 347.75 38.6174C345.85 38.7074 346.1 37.4174 346.05 36.2574C345.7 27.7574 345.7 27.7574 354.16 27.7574C360.2 27.7574 366.24 27.8275 372.27 27.7175C374.27 27.6775 375.23 28.0775 375.04 30.3175C374.84 32.5475 374.97 34.8075 375 37.0475C375.01 38.0675 374.7 38.6375 373.54 38.6275C372.44 38.6175 371.96 38.1574 371.97 37.0974C371.97 36.8874 371.99 36.6674 371.96 36.4574C371.63 34.5174 373.04 31.6175 371.19 30.8275C369 29.8875 366.12 30.4874 363.54 30.5074C361.87 30.5174 362.16 31.8375 362.16 32.8575C362.12 37.6375 362.13 42.4575 362.13 47.2675Z" fill="#717173"/>
<path d="M483.839 59.507C482.509 64.347 476.839 67.817 469.739 67.017C464.319 66.407 459.599 62.217 458.649 56.867C457.299 49.367 461.869 42.957 469.469 41.687C477.349 40.377 483.959 44.777 485.079 51.987C485.449 54.347 485.049 55.467 482.209 55.357C476.289 55.137 470.339 55.437 464.419 55.227C461.379 55.127 461.529 56.347 462.389 58.437C465.149 65.207 474.829 66.647 479.829 60.917C480.999 59.587 482.029 58.697 483.839 59.507ZM471.569 52.787C474.379 52.787 477.189 52.707 479.989 52.817C481.929 52.897 482.149 52.137 481.619 50.527C480.309 46.567 476.649 44.197 471.749 44.237C467.189 44.277 463.289 47.047 462.089 50.927C461.639 52.387 461.959 52.847 463.479 52.807C466.169 52.737 468.869 52.787 471.569 52.787Z" fill="#717173"/>
<path d="M292.167 46.0766C295.147 43.8666 297.587 41.9966 300.807 41.5666C306.467 40.8066 309.527 43.2466 309.637 48.9166C309.717 52.9866 309.707 57.0566 309.637 61.1166C309.607 62.8266 309.727 64.1266 311.987 63.8166C312.867 63.6966 313.767 63.7866 313.807 65.0366C313.847 66.5166 312.777 66.4066 311.797 66.4066C309.527 66.4166 307.267 66.4266 304.997 66.3966C304.077 66.3866 302.937 66.6366 302.967 65.0866C302.997 63.8466 303.837 63.7266 304.737 63.8166C306.557 63.9966 306.877 63.0566 306.847 61.5066C306.767 57.6566 306.927 53.7966 306.787 49.9466C306.607 44.8466 303.447 42.9366 298.637 44.8866C294.277 46.6566 292.157 49.7666 292.157 54.4166C292.157 56.2366 292.187 58.0566 292.147 59.8766C292.097 62.0166 291.637 64.3866 295.177 63.8366C295.967 63.7166 296.277 64.3466 296.297 65.0766C296.327 66.0466 295.787 66.3966 294.887 66.3966C292.297 66.3966 289.707 66.4066 287.117 66.3966C286.377 66.3966 285.547 66.4566 285.467 65.3566C285.397 64.2866 285.857 63.6666 286.957 63.8166C289.547 64.1666 289.327 62.4866 289.327 60.8066C289.307 51.5966 289.287 42.3966 289.337 33.1866C289.347 31.4166 289.347 29.9166 286.877 30.2966C286.007 30.4266 285.477 30.0566 285.447 29.0566C285.407 27.7866 286.187 27.7066 287.127 27.7166C288.097 27.7266 289.077 27.8066 290.037 27.6966C291.827 27.4966 292.197 28.3566 292.177 29.9366C292.117 35.0866 292.167 40.2266 292.167 46.0766Z" fill="#717173"/>
<path d="M48.2845 37.0391C47.6345 37.7691 47.1245 38.439 46.5245 39.009C44.3545 41.079 42.2945 44.5591 39.9445 44.7691C37.4745 44.9991 35.5945 41.1391 33.4145 39.1091C30.8245 36.6791 28.4445 34.0391 25.8145 31.659C24.2945 30.279 24.4345 29.3691 25.8845 28.0891C28.2145 26.0291 30.2745 22.259 32.6745 22.069C35.1445 21.879 37.1645 25.8691 39.4145 27.9991C41.9145 30.3591 44.3145 32.8291 46.7445 35.2591C47.2645 35.7991 47.7145 36.3791 48.2845 37.0391Z" fill="#1BAADF"/>
<path d="M341.978 59.5454C339.318 66.8354 331.698 68.0654 325.898 66.6454C319.378 65.0554 315.538 58.5554 316.778 51.6954C317.898 45.4654 324.008 41.0354 330.868 41.4754C337.828 41.9254 342.698 46.4054 343.278 52.7254C343.458 54.6654 342.998 55.3854 340.898 55.3454C334.648 55.2254 328.388 55.3754 322.138 55.2654C319.848 55.2254 319.608 56.0554 320.288 57.9254C321.528 61.3654 324.008 63.4854 327.468 64.1954C331.488 65.0154 335.268 64.2554 337.978 60.8754C339.108 59.4754 340.188 58.6954 341.978 59.5454ZM329.958 52.7854C332.658 52.7854 335.358 52.7054 338.048 52.8154C339.858 52.8854 340.328 52.3454 339.738 50.5954C338.388 46.5754 334.838 44.2054 329.928 44.2354C325.328 44.2654 321.508 46.9754 320.238 50.8654C319.638 52.6954 320.408 52.8354 321.868 52.8054C324.558 52.7454 327.258 52.7854 329.958 52.7854Z" fill="#717173"/>
<path d="M81.7667 49.0794C81.0067 49.9594 80.6767 50.3794 80.3067 50.7594C77.3467 53.7094 74.3267 56.5894 71.4567 59.6194C70.3467 60.7894 69.6867 60.7094 68.6567 59.5894C66.4067 57.1594 62.5467 55.0494 62.1767 52.4094C61.8267 49.9194 66.0567 47.8094 68.2767 45.5394C72.8567 40.8594 72.8867 40.9294 77.6467 45.5794C78.9267 46.8394 80.3867 47.9194 81.7667 49.0794Z" fill="#1E2C4D"/>
<path d="M32.9046 44.95C32.5246 45.41 32.1946 45.81 31.8546 46.21C25.1446 54.01 25.1446 54.01 17.8446 46.77C12.4446 41.42 12.4446 41.42 17.8946 36.01C21.0046 32.92 21.0146 32.92 24.0846 35.97C26.5846 38.46 29.0746 40.96 31.5546 43.47C31.9946 43.92 32.4046 44.41 32.9046 44.95Z" fill="#84ACCF"/>
<path d="M379.919 44.1564C381.269 43.2864 382.319 42.0164 383.969 41.6164C386.919 40.8964 389.879 42.3164 390.429 44.8764C390.579 45.5664 390.919 46.4664 389.969 46.8364C389.239 47.1164 388.639 46.8464 388.049 46.1464C385.689 43.3464 382.759 43.6864 381.009 46.9164C379.909 48.9364 379.629 51.1964 379.549 53.4364C379.449 56.1064 379.619 58.7964 379.489 61.4664C379.399 63.2364 379.899 64.0864 381.799 63.8264C382.729 63.6964 383.509 63.8664 383.579 65.0864C383.659 66.5864 382.669 66.5164 381.659 66.5164C379.179 66.5064 376.689 66.5164 374.209 66.5064C373.299 66.5064 372.469 66.4164 372.469 65.1764C372.469 63.9564 373.239 63.7164 374.179 63.8364C376.439 64.1164 376.539 62.7864 376.519 61.0964C376.449 56.5964 376.449 52.0964 376.519 47.6064C376.549 45.8764 376.349 44.6164 374.139 44.8664C373.169 44.9764 372.459 44.6464 372.469 43.4664C372.479 42.2464 373.299 41.9564 374.199 42.1464C376.159 42.5564 378.969 40.6264 379.919 44.1564Z" fill="#717173"/>
<path d="M254.264 91.4297V76.8842H260.003C261.101 76.8842 262.039 77.0807 262.815 77.4737C263.597 77.862 264.191 78.4136 264.598 79.1286C265.01 79.8388 265.216 80.6745 265.216 81.6357C265.216 82.6016 265.008 83.4325 264.591 84.1286C264.174 84.8198 263.571 85.3501 262.78 85.7195C261.994 86.0888 261.042 86.2734 259.925 86.2734H256.082V83.8018H259.428C260.015 83.8018 260.502 83.7214 260.891 83.5604C261.279 83.3994 261.568 83.1579 261.757 82.8359C261.951 82.514 262.048 82.1139 262.048 81.6357C262.048 81.1527 261.951 80.7455 261.757 80.4141C261.568 80.0826 261.277 79.8317 260.884 79.6612C260.495 79.486 260.005 79.3984 259.413 79.3984H257.339V91.4297H254.264ZM262.119 84.8104L265.734 91.4297H262.339L258.803 84.8104H262.119ZM272.128 91.6428C271.006 91.6428 270.04 91.4155 269.23 90.9609C268.426 90.5017 267.805 89.853 267.37 89.0149C266.934 88.1721 266.716 87.1754 266.716 86.0249C266.716 84.9027 266.934 83.9179 267.37 83.0703C267.805 82.2228 268.418 81.5623 269.209 81.0888C270.005 80.6153 270.937 80.3786 272.007 80.3786C272.727 80.3786 273.397 80.4946 274.017 80.7266C274.642 80.9538 275.187 81.2971 275.651 81.7564C276.12 82.2157 276.484 82.7933 276.745 83.4893C277.005 84.1806 277.135 84.9903 277.135 85.9183V86.7493H267.924V84.8743H274.287C274.287 84.4387 274.193 84.0528 274.003 83.7166C273.814 83.3804 273.551 83.1177 273.215 82.9283C272.883 82.7341 272.498 82.6371 272.057 82.6371C271.598 82.6371 271.191 82.7436 270.836 82.9567C270.485 83.165 270.211 83.4467 270.012 83.8018C269.813 84.1522 269.711 84.5429 269.706 84.9737V86.7564C269.706 87.2962 269.806 87.7625 270.005 88.1555C270.208 88.5485 270.495 88.8516 270.864 89.0646C271.233 89.2777 271.671 89.3842 272.178 89.3842C272.514 89.3842 272.822 89.3369 273.101 89.2422C273.381 89.1475 273.62 89.0054 273.819 88.8161C274.017 88.6267 274.169 88.3946 274.273 88.12L277.071 88.3047C276.929 88.977 276.638 89.5642 276.198 90.0661C275.762 90.5632 275.199 90.9515 274.507 91.2308C273.821 91.5054 273.028 91.6428 272.128 91.6428ZM279.11 95.5206V80.5206H282.093V82.353H282.228C282.36 82.0594 282.552 81.7611 282.803 81.4581C283.059 81.1503 283.39 80.8946 283.797 80.6911C284.209 80.4827 284.721 80.3786 285.331 80.3786C286.127 80.3786 286.861 80.5869 287.533 81.0036C288.205 81.4155 288.743 82.0381 289.145 82.8714C289.548 83.7 289.749 84.7393 289.749 85.9893C289.749 87.2062 289.552 88.2337 289.159 89.0717C288.771 89.9051 288.241 90.5372 287.569 90.968C286.901 91.3942 286.153 91.6072 285.324 91.6072C284.737 91.6072 284.238 91.5102 283.826 91.3161C283.418 91.1219 283.085 90.8781 282.824 90.5845C282.564 90.2862 282.365 89.9856 282.228 89.6825H282.135V95.5206H279.11ZM282.071 85.9751C282.071 86.6238 282.161 87.1896 282.341 87.6726C282.521 88.1555 282.782 88.532 283.123 88.8018C283.463 89.067 283.878 89.1996 284.365 89.1996C284.858 89.1996 285.275 89.0646 285.615 88.7947C285.956 88.5201 286.214 88.1413 286.39 87.6584C286.569 87.1707 286.659 86.6096 286.659 85.9751C286.659 85.3454 286.572 84.7914 286.397 84.3132C286.221 83.835 285.963 83.4609 285.623 83.1911C285.282 82.9212 284.863 82.7862 284.365 82.7862C283.873 82.7862 283.456 82.9164 283.115 83.1768C282.779 83.4373 282.521 83.8066 282.341 84.2848C282.161 84.763 282.071 85.3265 282.071 85.9751ZM298.762 86.7848V80.5206H301.787V91.4297H298.882V89.4482H298.769C298.523 90.0874 298.113 90.6011 297.54 90.9893C296.972 91.3776 296.278 91.5717 295.459 91.5717C294.73 91.5717 294.088 91.406 293.534 91.0746C292.98 90.7431 292.547 90.272 292.235 89.6612C291.927 89.0504 291.771 88.3189 291.766 87.4666V80.5206H294.792V86.9268C294.796 87.5708 294.969 88.0798 295.31 88.4538C295.651 88.8279 296.108 89.0149 296.681 89.0149C297.045 89.0149 297.386 88.9321 297.703 88.7663C298.021 88.5959 298.276 88.3449 298.471 88.0135C298.669 87.6821 298.766 87.2725 298.762 86.7848ZM295.701 79.1143L297.206 75.8828H300.005L297.838 79.1143H295.701ZM304.264 91.4297V76.8842H307.29V82.353H307.382C307.515 82.0594 307.706 81.7611 307.957 81.4581C308.213 81.1503 308.545 80.8946 308.952 80.6911C309.364 80.4827 309.875 80.3786 310.486 80.3786C311.281 80.3786 312.015 80.5869 312.688 81.0036C313.36 81.4155 313.897 82.0381 314.3 82.8714C314.702 83.7 314.903 84.7393 314.903 85.9893C314.903 87.2062 314.707 88.2337 314.314 89.0717C313.926 89.9051 313.395 90.5372 312.723 90.968C312.055 91.3942 311.307 91.6072 310.479 91.6072C309.892 91.6072 309.392 91.5102 308.98 91.3161C308.573 91.1219 308.239 90.8781 307.979 90.5845C307.718 90.2862 307.519 89.9856 307.382 89.6825H307.247V91.4297H304.264ZM307.226 85.9751C307.226 86.6238 307.316 87.1896 307.496 87.6726C307.676 88.1555 307.936 88.532 308.277 88.8018C308.618 89.067 309.032 89.1996 309.52 89.1996C310.012 89.1996 310.429 89.0646 310.77 88.7947C311.111 88.5201 311.369 88.1413 311.544 87.6584C311.724 87.1707 311.814 86.6096 311.814 85.9751C311.814 85.3454 311.726 84.7914 311.551 84.3132C311.376 83.835 311.118 83.4609 310.777 83.1911C310.436 82.9212 310.017 82.7862 309.52 82.7862C309.027 82.7862 308.611 82.9164 308.27 83.1768C307.934 83.4373 307.676 83.8066 307.496 84.2848C307.316 84.763 307.226 85.3265 307.226 85.9751ZM319.948 76.8842V91.4297H316.922V76.8842H319.948ZM322.371 91.4297V80.5206H325.397V91.4297H322.371ZM323.891 79.1143C323.442 79.1143 323.056 78.9652 322.734 78.6669C322.416 78.3639 322.258 78.0017 322.258 77.5803C322.258 77.1636 322.416 76.8061 322.734 76.5078C323.056 76.2048 323.442 76.0533 323.891 76.0533C324.341 76.0533 324.725 76.2048 325.042 76.5078C325.364 76.8061 325.525 77.1636 325.525 77.5803C325.525 78.0017 325.364 78.3639 325.042 78.6669C324.725 78.9652 324.341 79.1143 323.891 79.1143ZM332.75 91.6428C331.632 91.6428 330.671 91.406 329.866 90.9325C329.066 90.4543 328.45 89.7914 328.02 88.9439C327.593 88.0964 327.38 87.121 327.38 86.0178C327.38 84.9003 327.596 83.9202 328.027 83.0774C328.462 82.2299 329.08 81.5694 329.88 81.0959C330.681 80.6177 331.632 80.3786 332.735 80.3786C333.687 80.3786 334.52 80.5514 335.235 80.897C335.95 81.2427 336.516 81.728 336.933 82.353C337.35 82.978 337.579 83.7119 337.622 84.5547H334.767C334.686 84.0102 334.473 83.5722 334.127 83.2408C333.787 82.9046 333.339 82.7365 332.785 82.7365C332.316 82.7365 331.907 82.8643 331.556 83.12C331.211 83.371 330.941 83.7379 330.747 84.2209C330.553 84.7038 330.456 85.2886 330.456 85.9751C330.456 86.6712 330.55 87.263 330.74 87.7507C330.934 88.2384 331.206 88.6101 331.556 88.8658C331.907 89.1214 332.316 89.2493 332.785 89.2493C333.131 89.2493 333.441 89.1783 333.716 89.0362C333.995 88.8942 334.225 88.6882 334.404 88.4183C334.589 88.1437 334.71 87.8146 334.767 87.4311H337.622C337.574 88.2644 337.347 88.9983 336.94 89.6328C336.538 90.2625 335.981 90.755 335.271 91.1101C334.561 91.4652 333.72 91.6428 332.75 91.6428ZM342.67 91.6357C341.974 91.6357 341.353 91.5149 340.809 91.2734C340.264 91.0272 339.834 90.665 339.516 90.1868C339.204 89.7038 339.048 89.1025 339.048 88.3828C339.048 87.7768 339.159 87.2678 339.381 86.8558C339.604 86.4439 339.907 86.1125 340.29 85.8615C340.674 85.6106 341.11 85.4212 341.597 85.2933C342.09 85.1655 342.606 85.0755 343.146 85.0234C343.78 84.9571 344.291 84.8956 344.68 84.8388C345.068 84.7772 345.35 84.6873 345.525 84.5689C345.7 84.4505 345.788 84.2753 345.788 84.0433V84.0007C345.788 83.5509 345.646 83.2029 345.362 82.9567C345.082 82.7105 344.684 82.5874 344.168 82.5874C343.624 82.5874 343.191 82.7081 342.869 82.9496C342.547 83.1863 342.334 83.4846 342.229 83.8445L339.431 83.6172C339.573 82.9543 339.853 82.3814 340.269 81.8984C340.686 81.4107 341.223 81.0367 341.881 80.7763C342.544 80.5111 343.311 80.3786 344.183 80.3786C344.789 80.3786 345.369 80.4496 345.923 80.5916C346.481 80.7337 346.976 80.9538 347.407 81.2521C347.843 81.5504 348.186 81.9339 348.437 82.4027C348.688 82.8667 348.813 83.4231 348.813 84.0717V91.4297H345.944V89.9169H345.859C345.683 90.2578 345.449 90.5585 345.156 90.8189C344.862 91.0746 344.509 91.2758 344.097 91.4226C343.685 91.5646 343.21 91.6357 342.67 91.6357ZM343.536 89.5476C343.981 89.5476 344.374 89.46 344.715 89.2848C345.056 89.1049 345.324 88.8634 345.518 88.5604C345.712 88.2573 345.809 87.9141 345.809 87.5305V86.3729C345.714 86.4344 345.584 86.4912 345.418 86.5433C345.257 86.5907 345.075 86.6357 344.871 86.6783C344.668 86.7161 344.464 86.7517 344.261 86.7848C344.057 86.8132 343.872 86.8393 343.707 86.8629C343.352 86.915 343.041 86.9979 342.776 87.1115C342.511 87.2251 342.305 87.379 342.158 87.5732C342.012 87.7625 341.938 87.9993 341.938 88.2834C341.938 88.6953 342.087 89.0102 342.386 89.228C342.689 89.4411 343.072 89.5476 343.536 89.5476ZM361.002 91.4297H355.846V76.8842H361.045C362.508 76.8842 363.768 77.1754 364.824 77.7578C365.879 78.3355 366.691 79.1664 367.26 80.2507C367.833 81.335 368.119 82.6323 368.119 84.1428C368.119 85.6579 367.833 86.96 367.26 88.049C366.691 89.138 365.875 89.9737 364.809 90.5561C363.749 91.1385 362.48 91.4297 361.002 91.4297ZM358.922 88.7947H360.875C361.784 88.7947 362.548 88.6338 363.169 88.3118C363.794 87.9851 364.262 87.4808 364.575 86.799C364.892 86.1125 365.051 85.227 365.051 84.1428C365.051 83.0679 364.892 82.1896 364.575 81.5078C364.262 80.826 363.796 80.3241 363.176 80.0021C362.556 79.6802 361.791 79.5192 360.882 79.5192H358.922V88.7947ZM375.269 91.6428C374.166 91.6428 373.212 91.4084 372.407 90.9396C371.607 90.4661 370.989 89.808 370.553 88.9652C370.118 88.1177 369.9 87.1352 369.9 86.0178C369.9 84.8909 370.118 83.906 370.553 83.0632C370.989 82.2157 371.607 81.5575 372.407 81.0888C373.212 80.6153 374.166 80.3786 375.269 80.3786C376.372 80.3786 377.324 80.6153 378.124 81.0888C378.929 81.5575 379.549 82.2157 379.985 83.0632C380.421 83.906 380.638 84.8909 380.638 86.0178C380.638 87.1352 380.421 88.1177 379.985 88.9652C379.549 89.808 378.929 90.4661 378.124 90.9396C377.324 91.4084 376.372 91.6428 375.269 91.6428ZM375.283 89.299C375.785 89.299 376.204 89.157 376.54 88.8729C376.877 88.584 377.13 88.1911 377.3 87.6939C377.476 87.1967 377.563 86.6309 377.563 85.9964C377.563 85.362 377.476 84.7962 377.3 84.299C377.13 83.8018 376.877 83.4089 376.54 83.12C376.204 82.8312 375.785 82.6868 375.283 82.6868C374.777 82.6868 374.351 82.8312 374.005 83.12C373.664 83.4089 373.406 83.8018 373.231 84.299C373.06 84.7962 372.975 85.362 372.975 85.9964C372.975 86.6309 373.06 87.1967 373.231 87.6939C373.406 88.1911 373.664 88.584 374.005 88.8729C374.351 89.157 374.777 89.299 375.283 89.299ZM382.606 91.4297V80.5206H385.489V82.4453H385.617C385.844 81.8061 386.223 81.3018 386.754 80.9325C387.284 80.5632 387.918 80.3786 388.657 80.3786C389.405 80.3786 390.042 80.5656 390.567 80.9396C391.093 81.3089 391.443 81.8108 391.619 82.4453H391.732C391.955 81.8203 392.357 81.3208 392.94 80.9467C393.527 80.5679 394.22 80.3786 395.021 80.3786C396.039 80.3786 396.865 80.7029 397.499 81.3516C398.138 81.9955 398.458 82.9093 398.458 84.093V91.4297H395.44V84.6896C395.44 84.0836 395.279 83.629 394.957 83.326C394.635 83.023 394.232 82.8714 393.749 82.8714C393.2 82.8714 392.772 83.0466 392.464 83.397C392.156 83.7427 392.002 84.1996 392.002 84.7678V91.4297H389.069V84.6257C389.069 84.0907 388.915 83.6645 388.607 83.3473C388.304 83.0301 387.904 82.8714 387.407 82.8714C387.071 82.8714 386.768 82.9567 386.498 83.1271C386.233 83.2929 386.022 83.5272 385.866 83.8303C385.71 84.1286 385.631 84.4789 385.631 84.8814V91.4297H382.606ZM400.848 91.4297V80.5206H403.874V91.4297H400.848ZM402.368 79.1143C401.918 79.1143 401.532 78.9652 401.21 78.6669C400.893 78.3639 400.734 78.0017 400.734 77.5803C400.734 77.1636 400.893 76.8061 401.21 76.5078C401.532 76.2048 401.918 76.0533 402.368 76.0533C402.818 76.0533 403.201 76.2048 403.518 76.5078C403.84 76.8061 404.001 77.1636 404.001 77.5803C404.001 78.0017 403.84 78.3639 403.518 78.6669C403.201 78.9652 402.818 79.1143 402.368 79.1143ZM409.323 85.1229V91.4297H406.297V80.5206H409.181V82.4453H409.309C409.55 81.8108 409.955 81.3089 410.523 80.9396C411.091 80.5656 411.78 80.3786 412.59 80.3786C413.347 80.3786 414.008 80.5443 414.571 80.8757C415.135 81.2071 415.573 81.6806 415.885 82.2962C416.198 82.907 416.354 83.6361 416.354 84.4837V91.4297H413.328V85.0234C413.333 84.3558 413.163 83.835 412.817 83.4609C412.471 83.0821 411.996 82.8928 411.39 82.8928C410.982 82.8928 410.623 82.9804 410.31 83.1555C410.002 83.3307 409.761 83.5864 409.586 83.9226C409.415 84.254 409.328 84.6541 409.323 85.1229ZM418.739 91.4297V80.5206H421.764V91.4297H418.739ZM420.259 79.1143C419.809 79.1143 419.423 78.9652 419.101 78.6669C418.784 78.3639 418.625 78.0017 418.625 77.5803C418.625 77.1636 418.784 76.8061 419.101 76.5078C419.423 76.2048 419.809 76.0533 420.259 76.0533C420.708 76.0533 421.092 76.2048 421.409 76.5078C421.731 76.8061 421.892 77.1636 421.892 77.5803C421.892 78.0017 421.731 78.3639 421.409 78.6669C421.092 78.9652 420.708 79.1143 420.259 79.1143ZM429.117 91.6428C427.999 91.6428 427.038 91.406 426.233 90.9325C425.433 90.4543 424.818 89.7914 424.387 88.9439C423.961 88.0964 423.748 87.121 423.748 86.0178C423.748 84.9003 423.963 83.9202 424.394 83.0774C424.829 82.2299 425.447 81.5694 426.248 81.0959C427.048 80.6177 427.999 80.3786 429.103 80.3786C430.054 80.3786 430.888 80.5514 431.603 80.897C432.318 81.2427 432.883 81.728 433.3 82.353C433.717 82.978 433.946 83.7119 433.989 84.5547H431.134C431.053 84.0102 430.84 83.5722 430.495 83.2408C430.154 82.9046 429.706 82.7365 429.152 82.7365C428.684 82.7365 428.274 82.8643 427.924 83.12C427.578 83.371 427.308 83.7379 427.114 84.2209C426.92 84.7038 426.823 85.2886 426.823 85.9751C426.823 86.6712 426.917 87.263 427.107 87.7507C427.301 88.2384 427.573 88.6101 427.924 88.8658C428.274 89.1214 428.684 89.2493 429.152 89.2493C429.498 89.2493 429.808 89.1783 430.083 89.0362C430.362 88.8942 430.592 88.6882 430.772 88.4183C430.956 88.1437 431.077 87.8146 431.134 87.4311H433.989C433.942 88.2644 433.714 88.9983 433.307 89.6328C432.905 90.2625 432.348 90.755 431.638 91.1101C430.928 91.4652 430.087 91.6428 429.117 91.6428ZM439.037 91.6357C438.341 91.6357 437.721 91.5149 437.176 91.2734C436.632 91.0272 436.201 90.665 435.884 90.1868C435.571 89.7038 435.415 89.1025 435.415 88.3828C435.415 87.7768 435.526 87.2678 435.749 86.8558C435.971 86.4439 436.274 86.1125 436.658 85.8615C437.041 85.6106 437.477 85.4212 437.964 85.2933C438.457 85.1655 438.973 85.0755 439.513 85.0234C440.147 84.9571 440.659 84.8956 441.047 84.8388C441.435 84.7772 441.717 84.6873 441.892 84.5689C442.067 84.4505 442.155 84.2753 442.155 84.0433V84.0007C442.155 83.5509 442.013 83.2029 441.729 82.9567C441.449 82.7105 441.052 82.5874 440.536 82.5874C439.991 82.5874 439.558 82.7081 439.236 82.9496C438.914 83.1863 438.701 83.4846 438.597 83.8445L435.798 83.6172C435.94 82.9543 436.22 82.3814 436.636 81.8984C437.053 81.4107 437.59 81.0367 438.249 80.7763C438.911 80.5111 439.679 80.3786 440.55 80.3786C441.156 80.3786 441.736 80.4496 442.29 80.5916C442.848 80.7337 443.343 80.9538 443.774 81.2521C444.21 81.5504 444.553 81.9339 444.804 82.4027C445.055 82.8667 445.18 83.4231 445.18 84.0717V91.4297H442.311V89.9169H442.226C442.051 90.2578 441.816 90.5585 441.523 90.8189C441.229 91.0746 440.876 91.2758 440.464 91.4226C440.053 91.5646 439.577 91.6357 439.037 91.6357ZM439.903 89.5476C440.348 89.5476 440.741 89.46 441.082 89.2848C441.423 89.1049 441.691 88.8634 441.885 88.5604C442.079 88.2573 442.176 87.9141 442.176 87.5305V86.3729C442.081 86.4344 441.951 86.4912 441.786 86.5433C441.625 86.5907 441.442 86.6357 441.239 86.6783C441.035 86.7161 440.831 86.7517 440.628 86.7848C440.424 86.8132 440.24 86.8393 440.074 86.8629C439.719 86.915 439.409 86.9979 439.143 87.1115C438.878 87.2251 438.672 87.379 438.526 87.5732C438.379 87.7625 438.305 87.9993 438.305 88.2834C438.305 88.6953 438.455 89.0102 438.753 89.228C439.056 89.4411 439.439 89.5476 439.903 89.5476ZM450.553 85.1229V91.4297H447.528V80.5206H450.411V82.4453H450.539C450.781 81.8108 451.185 81.3089 451.754 80.9396C452.322 80.5656 453.011 80.3786 453.82 80.3786C454.578 80.3786 455.238 80.5443 455.802 80.8757C456.365 81.2071 456.803 81.6806 457.116 82.2962C457.428 82.907 457.585 83.6361 457.585 84.4837V91.4297H454.559V85.0234C454.564 84.3558 454.393 83.835 454.048 83.4609C453.702 83.0821 453.226 82.8928 452.62 82.8928C452.213 82.8928 451.853 82.9804 451.54 83.1555C451.233 83.3307 450.991 83.5864 450.816 83.9226C450.646 84.254 450.558 84.6541 450.553 85.1229ZM463.08 91.6357C462.384 91.6357 461.764 91.5149 461.219 91.2734C460.675 91.0272 460.244 90.665 459.926 90.1868C459.614 89.7038 459.458 89.1025 459.458 88.3828C459.458 87.7768 459.569 87.2678 459.792 86.8558C460.014 86.4439 460.317 86.1125 460.701 85.8615C461.084 85.6106 461.52 85.4212 462.007 85.2933C462.5 85.1655 463.016 85.0755 463.556 85.0234C464.19 84.9571 464.702 84.8956 465.09 84.8388C465.478 84.7772 465.76 84.6873 465.935 84.5689C466.11 84.4505 466.198 84.2753 466.198 84.0433V84.0007C466.198 83.5509 466.056 83.2029 465.772 82.9567C465.492 82.7105 465.095 82.5874 464.578 82.5874C464.034 82.5874 463.601 82.7081 463.279 82.9496C462.957 83.1863 462.744 83.4846 462.64 83.8445L459.841 83.6172C459.983 82.9543 460.263 82.3814 460.679 81.8984C461.096 81.4107 461.633 81.0367 462.292 80.7763C462.954 80.5111 463.721 80.3786 464.593 80.3786C465.199 80.3786 465.779 80.4496 466.333 80.5916C466.891 80.7337 467.386 80.9538 467.817 81.2521C468.253 81.5504 468.596 81.9339 468.847 82.4027C469.098 82.8667 469.223 83.4231 469.223 84.0717V91.4297H466.354V89.9169H466.269C466.094 90.2578 465.859 90.5585 465.566 90.8189C465.272 91.0746 464.919 91.2758 464.507 91.4226C464.096 91.5646 463.62 91.6357 463.08 91.6357ZM463.946 89.5476C464.391 89.5476 464.784 89.46 465.125 89.2848C465.466 89.1049 465.734 88.8634 465.928 88.5604C466.122 88.2573 466.219 87.9141 466.219 87.5305V86.3729C466.124 86.4344 465.994 86.4912 465.828 86.5433C465.667 86.5907 465.485 86.6357 465.282 86.6783C465.078 86.7161 464.874 86.7517 464.671 86.7848C464.467 86.8132 464.283 86.8393 464.117 86.8629C463.762 86.915 463.452 86.9979 463.186 87.1115C462.921 87.2251 462.715 87.379 462.569 87.5732C462.422 87.7625 462.348 87.9993 462.348 88.2834C462.348 88.6953 462.498 89.0102 462.796 89.228C463.099 89.4411 463.482 89.5476 463.946 89.5476Z" fill="#F19BC0"/>
</svg>
