<svg width="518" height="124" viewBox="0 0 518 124" fill="none" xmlns="http://www.w3.org/2000/svg">
<path d="M510.347 74.0864C504.997 78.6164 501.237 79.1064 495.107 75.9464C494.077 75.4164 493.437 74.8864 493.227 76.5664C493.097 77.5864 492.217 77.5464 491.457 77.4364C490.417 77.2864 490.497 76.4564 490.487 75.7064C490.477 74.0964 490.457 72.4964 490.497 70.8864C490.517 70.0864 490.207 69.0664 491.427 68.8064C492.687 68.5364 493.237 69.1464 493.827 70.2764C495.857 74.1564 499.077 75.7364 503.117 75.0664C505.397 74.6864 507.347 73.6764 507.667 71.1964C508.007 68.5464 506.127 67.3864 503.877 66.7964C501.067 66.0664 498.197 65.5364 495.407 64.7564C492.487 63.9364 490.267 62.2964 490.457 58.9164C490.647 55.6064 492.727 53.7364 495.807 52.8464C498.377 52.1064 500.927 52.2564 503.437 53.1164C504.787 53.5764 506.037 55.2364 507.507 53.1864C507.737 52.8564 509.007 52.8964 509.187 53.5664C509.737 55.6364 509.717 57.7864 509.197 59.8564C509.027 60.5364 508.107 60.3364 507.467 60.2964C506.487 60.2364 506.427 59.3464 506.047 58.7464C503.957 55.4164 499.887 54.0264 496.237 55.4464C494.627 56.0664 493.447 57.0864 493.507 58.9964C493.567 60.7964 494.757 61.6764 496.317 62.0864C498.497 62.6564 500.707 63.1564 502.927 63.5564C505.897 64.0864 508.387 65.3864 510.357 67.6564C510.347 69.8064 510.347 71.9464 510.347 74.0864Z" fill="#717173"/>
<path d="M224.074 102.46C224.074 75.31 224.074 48.15 224.074 21C224.504 21 224.934 21 225.374 21C225.374 48.15 225.374 75.31 225.374 102.46C224.944 102.46 224.504 102.46 224.074 102.46Z" fill="#717173"/>
<path d="M36.2953 48.4102C36.6453 48.6002 36.9553 48.7002 37.1653 48.9002C39.5453 51.2302 41.8853 53.5902 44.2653 55.9202C45.2353 56.8702 44.4453 57.4302 43.8453 58.0202C35.0853 66.7202 26.2853 75.4002 17.5653 84.1402C16.3953 85.3102 15.7253 85.0802 14.7353 84.0302C12.8153 82.0002 10.8353 80.0302 8.78529 78.1302C7.76529 77.1902 7.72529 76.5802 8.74529 75.5802C17.5453 66.9202 26.3053 58.2002 35.0753 49.5102C35.4653 49.1202 35.8753 48.7902 36.2953 48.4102Z" fill="#1E2C4D"/>
<path d="M84.3169 81.9602C83.2269 82.6702 82.0369 83.2602 81.0569 84.1002C79.1169 85.7802 77.2969 88.9702 75.4169 88.9802C73.5569 88.9902 71.6269 85.9002 69.8069 84.1002C62.7769 77.1602 55.7969 70.1502 48.7169 63.2502C47.2769 61.8402 46.8869 60.8602 48.6269 59.4302C51.0169 57.4602 52.7869 53.5402 55.4369 53.4602C58.1369 53.3802 60.0269 57.2302 62.2369 59.3802C68.8569 65.8302 75.3869 72.3702 81.9269 78.8902C82.6069 79.5402 83.5169 80.0702 84.3169 81.9602Z" fill="#84ACCF"/>
<path d="M196.795 72.0803C196.795 73.9003 196.805 75.7203 196.785 77.5303C196.775 78.1403 196.925 78.9403 196.095 79.1103C195.275 79.2803 195.025 78.6103 194.865 77.9603C194.145 75.1303 193.065 75.5003 191.015 77.1103C184.915 81.9103 177.955 81.8703 171.135 79.1403C164.225 76.3703 160.795 70.6903 160.035 63.4503C159.605 59.3603 160.135 55.3603 161.665 51.4903C166.355 39.6803 180.365 35.4603 190.785 42.8803C192.925 44.4103 194.105 45.0103 194.505 41.7403C194.585 41.1203 194.585 40.0303 195.735 40.2903C196.555 40.4803 196.305 41.3403 196.325 41.9203C196.455 45.8703 196.555 49.8203 196.635 53.7703C196.645 54.3603 196.875 55.2203 195.995 55.3303C195.165 55.4403 195.105 54.6403 194.915 54.0203C194.355 52.1903 193.905 50.2903 193.095 48.5603C190.635 43.3203 186.085 41.1403 180.545 41.0603C175.135 40.9803 171.245 43.8003 169.195 48.6403C166.235 55.5903 166.055 62.8203 168.535 69.9403C170.545 75.7103 175.615 79.0303 181.375 78.8703C187.805 78.7003 191.995 75.3303 194.365 68.7203C194.795 67.5303 194.315 65.1303 195.895 65.3503C197.755 65.6003 196.475 67.8403 196.755 69.1703C196.955 70.1203 196.795 71.1103 196.795 72.0803Z" fill="#717173"/>
<path d="M51.8066 72.8393C51.2866 73.4093 50.8866 73.8893 50.4466 74.3293C43.4666 81.3093 36.4566 88.2693 29.5166 95.2993C28.3666 96.4593 27.6466 96.6393 26.4766 95.3593C24.6766 93.3793 22.7466 91.4993 20.7666 89.6893C19.5766 88.5993 19.4566 87.9093 20.7066 86.6793C27.7766 79.7493 34.7466 72.7693 41.6966 65.7493C42.8166 64.6093 43.5666 64.3093 44.7766 65.6393C46.6466 67.6993 48.7166 69.5893 50.6866 71.5693C51.0566 71.9293 51.3766 72.3393 51.8066 72.8393Z" fill="#E7145B"/>
<path d="M137.846 40.8399C143.566 40.8399 149.286 40.8999 154.996 40.8099C156.786 40.7799 157.516 41.2699 157.406 43.1399C157.296 45.1599 157.496 47.1999 157.546 49.2299C157.556 49.7699 157.536 50.3699 156.866 50.4899C156.136 50.6199 156.026 49.9999 155.886 49.4899C155.736 48.9799 155.606 48.4599 155.456 47.9399C154.266 43.7899 152.876 42.6699 148.656 42.4799C140.926 42.1299 140.926 42.1299 140.926 49.8299C140.926 57.7499 140.916 65.6699 140.926 73.5899C140.936 78.4599 141.346 78.8899 146.076 79.3099C146.746 79.3699 147.796 78.9899 147.686 80.2299C147.606 81.0499 146.806 81.0299 146.156 81.0299C140.436 81.0299 134.716 81.0299 129.006 81.0199C128.366 81.0199 127.596 80.9899 127.626 80.0899C127.656 79.1299 128.496 79.3799 129.086 79.3099C134.426 78.6999 134.596 78.6299 134.656 73.2999C134.756 63.8799 134.676 54.4699 134.776 45.0499C134.796 43.1599 134.336 42.2199 132.266 42.4599C131.206 42.5799 130.106 42.4799 129.036 42.4799C122.236 42.4899 121.996 42.6599 119.826 48.9599C119.626 49.5399 119.716 50.3599 118.836 50.3599C117.636 50.3699 117.976 49.3799 117.916 48.7099C117.216 40.8399 117.216 40.8399 125.216 40.8399C129.436 40.8399 133.636 40.8399 137.846 40.8399Z" fill="#717173"/>
<path d="M255.707 72.3577C255.707 74.1577 255.667 75.1877 255.717 76.2077C255.757 77.0677 255.607 77.6877 254.567 77.6977C253.717 77.7077 253.017 77.5277 253.017 76.5177C253.007 72.8777 253.007 69.2377 253.037 65.6077C253.047 64.8177 253.587 64.5277 254.337 64.5377C255.007 64.5477 255.627 64.5777 255.837 65.4077C256.017 66.1377 256.237 66.8577 256.487 67.5577C258.737 73.8977 266.037 77.2277 272.327 74.7777C275.287 73.6277 277.117 71.6077 277.287 68.3177C277.457 64.9377 275.667 62.8377 272.667 61.7477C270.047 60.7977 267.327 60.0777 264.637 59.3377C262.227 58.6777 259.927 57.8277 257.827 56.4677C254.247 54.1477 252.477 50.9777 253.147 46.6677C253.797 42.4977 256.507 39.9777 260.317 38.7777C265.777 37.0577 270.737 38.1777 274.857 42.2677C275.767 41.6777 275.387 40.8677 275.427 40.2077C275.497 39.0677 276.097 38.7777 277.127 38.8277C278.147 38.8777 278.367 39.4877 278.367 40.3177C278.367 42.5677 278.407 44.8177 278.357 47.0577C278.337 47.9277 278.797 49.1177 277.337 49.3777C275.997 49.6177 275.557 48.7877 275.017 47.6977C272.347 42.2877 268.067 40.1277 262.377 41.2177C259.427 41.7877 257.097 43.2577 256.387 46.3277C255.607 49.6677 257.047 52.1677 259.917 53.8977C263.587 56.1077 267.877 56.4777 271.857 57.7277C277.857 59.6177 280.607 62.7577 280.537 67.8077C280.467 72.2277 277.987 75.7977 273.657 77.3177C266.977 79.6877 261.157 78.2477 255.707 72.3577Z" fill="#717173"/>
<path d="M448.277 73.8275C441.167 79.1475 434.477 79.3875 429.797 74.6575C425.347 70.1575 424.737 62.2475 428.457 57.2375C432.717 51.5075 438.807 51.1875 448.677 56.4975C448.677 51.7075 448.687 47.1775 448.667 42.6375C448.657 40.8675 447.247 41.4375 446.287 41.3575C445.397 41.2875 444.537 41.3475 444.517 40.0775C444.497 38.8475 445.267 38.7075 446.217 38.7375C446.437 38.7475 446.647 38.7475 446.867 38.7375C451.517 38.5775 451.517 38.5775 451.517 43.2475C451.517 52.8675 451.537 62.4875 451.497 72.1075C451.487 73.7875 451.537 75.1375 453.817 74.8375C454.877 74.6975 455.417 75.2075 455.367 76.3175C455.317 77.3975 454.547 77.3375 453.777 77.4375C449.677 77.9375 448.957 77.5075 448.277 73.8275ZM429.157 64.9875C429.117 70.7675 433.337 75.3275 438.747 75.3475C444.027 75.3675 448.357 70.8875 448.387 65.3675C448.417 59.4575 444.467 55.3175 438.707 55.2375C432.987 55.1575 429.197 59.0375 429.157 64.9875Z" fill="#717173"/>
<path d="M106.856 61.0099C106.856 65.4999 106.876 69.9799 106.856 74.4699C106.846 77.5099 107.986 79.4099 111.386 79.3199C112.046 79.2999 113.136 78.9999 113.096 80.1499C113.066 81.1999 112.036 81.0099 111.326 81.0099C106.376 81.0299 101.416 81.0299 96.4657 81.0099C95.7557 81.0099 94.7457 81.2399 94.6157 80.2299C94.4657 79.0499 95.5457 79.2799 96.2157 79.3099C99.3957 79.4299 100.616 77.7799 100.706 74.8099C100.986 65.4099 100.956 56.0199 100.716 46.6299C100.646 43.7899 99.5257 42.1999 96.4357 42.4499C95.7457 42.4999 94.7357 42.6999 94.6257 41.6499C94.4957 40.3999 95.6157 40.7699 96.2457 40.7699C101.306 40.7299 106.366 40.7299 111.436 40.7699C112.086 40.7699 113.186 40.4399 113.086 41.6399C112.996 42.6599 111.976 42.5199 111.276 42.4599C107.666 42.1399 106.866 44.3199 106.856 47.2299C106.846 51.8199 106.856 56.4199 106.856 61.0099Z" fill="#717173"/>
<path d="M415.378 56.6677C416.208 55.4877 415.028 53.6677 416.368 53.3577C418.198 52.9377 420.198 53.1777 422.128 53.2677C422.728 53.2977 422.788 53.9977 422.798 54.5477C422.818 55.5277 422.228 55.9477 421.368 55.8477C418.748 55.5177 418.718 57.1077 418.748 58.9977C418.818 63.3777 418.828 67.7677 418.748 72.1477C418.718 73.8977 418.948 75.1077 421.138 74.8277C422.108 74.6977 422.818 75.0277 422.798 76.2077C422.778 77.4577 421.908 77.4777 421.018 77.4977C420.698 77.5077 420.368 77.4677 420.048 77.5077C417.178 77.8777 414.818 77.6477 415.928 72.8577C412.198 77.0077 408.358 78.6877 403.618 77.9577C400.728 77.5077 398.318 76.2177 396.418 74.0477C391.888 68.8777 391.918 60.9377 396.448 56.1877C401.378 51.0677 408.358 51.1977 415.378 56.6677ZM405.548 55.2377C399.998 55.2777 396.198 59.4077 396.278 65.3077C396.348 70.8077 400.728 75.3677 405.908 75.3377C411.208 75.3077 415.868 70.4077 415.728 65.0377C415.568 59.3577 411.248 55.1977 405.548 55.2377Z" fill="#717173"/>
<path d="M71.8263 93.1199C71.2263 93.7499 70.7462 94.3299 70.1962 94.8299C67.9062 96.9099 66.1162 100.65 63.4062 100.82C60.8362 100.98 59.0362 97.1699 56.8562 95.1599C53.8662 92.3999 51.0262 89.4699 48.0162 86.7199C46.6362 85.4599 46.2162 84.4999 47.9262 83.1999C48.9462 82.4299 49.7763 81.4099 50.6863 80.5099C54.9163 76.3199 54.9062 76.3199 59.0562 80.3999C62.8062 84.0799 66.5662 87.7499 70.3062 91.4399C70.8462 91.9499 71.2963 92.5199 71.8263 93.1199Z" fill="#1BAADF"/>
<path d="M74.8337 33.2494C74.4937 33.6494 74.1837 34.0594 73.8237 34.4294C69.2537 38.9794 64.6537 43.4994 60.1037 48.0694C59.2037 48.9794 58.5637 49.3194 57.5137 48.1994C55.5337 46.0794 53.4537 44.0494 51.3337 42.0694C50.2937 41.0994 50.3637 40.4294 51.3537 39.4694C56.0437 34.8894 60.6837 30.2594 65.3337 25.6394C65.8737 25.1094 66.3437 24.4694 67.1737 25.2994C69.5237 27.6594 71.9037 29.9894 74.2537 32.3494C74.4737 32.5494 74.5937 32.8594 74.8337 33.2494Z" fill="#E7145B"/>
<path d="M362.13 58.2675C362.13 62.8675 362.23 67.4675 362.09 72.0675C362.03 74.1475 362.62 74.9875 364.8 74.7675C365.68 74.6775 367.12 74.1375 367.2 75.9575C367.28 77.9975 365.72 77.3875 364.69 77.4075C361.78 77.4775 358.87 77.4374 355.96 77.4274C355.02 77.4174 353.93 77.6275 353.86 76.1375C353.8 74.6575 354.84 74.5975 355.81 74.7575C358.54 75.2075 358.94 73.8775 358.91 71.5275C358.79 62.4375 358.79 53.3474 358.91 44.2574C358.94 41.9774 358.22 41.1074 355.99 41.4574C355.78 41.4874 355.56 41.4574 355.34 41.4574C349.29 41.4374 349.31 41.4374 349.07 47.2774C349.03 48.2274 349.55 49.5274 347.75 49.6174C345.85 49.7074 346.1 48.4174 346.05 47.2574C345.7 38.7574 345.7 38.7574 354.16 38.7574C360.2 38.7574 366.24 38.8275 372.27 38.7175C374.27 38.6775 375.23 39.0775 375.04 41.3175C374.84 43.5475 374.97 45.8075 375 48.0475C375.01 49.0675 374.7 49.6375 373.54 49.6275C372.44 49.6175 371.96 49.1574 371.97 48.0974C371.97 47.8874 371.99 47.6674 371.96 47.4574C371.63 45.5174 373.04 42.6175 371.19 41.8275C369 40.8875 366.12 41.4874 363.54 41.5074C361.87 41.5174 362.16 42.8375 362.16 43.8575C362.12 48.6375 362.13 53.4575 362.13 58.2675Z" fill="#717173"/>
<path d="M483.839 70.507C482.509 75.347 476.839 78.817 469.739 78.017C464.319 77.407 459.599 73.217 458.649 67.867C457.299 60.367 461.869 53.957 469.469 52.687C477.349 51.377 483.959 55.777 485.079 62.987C485.449 65.347 485.049 66.467 482.209 66.357C476.289 66.137 470.339 66.437 464.419 66.227C461.379 66.127 461.529 67.347 462.389 69.437C465.149 76.207 474.829 77.647 479.829 71.917C480.999 70.587 482.029 69.697 483.839 70.507ZM471.569 63.787C474.379 63.787 477.189 63.707 479.989 63.817C481.929 63.897 482.149 63.137 481.619 61.527C480.309 57.567 476.649 55.197 471.749 55.237C467.189 55.277 463.289 58.047 462.089 61.927C461.639 63.387 461.959 63.847 463.479 63.807C466.169 63.737 468.869 63.787 471.569 63.787Z" fill="#717173"/>
<path d="M292.167 57.0766C295.147 54.8666 297.587 52.9966 300.807 52.5666C306.467 51.8066 309.527 54.2466 309.637 59.9166C309.717 63.9866 309.707 68.0566 309.637 72.1166C309.607 73.8266 309.727 75.1266 311.987 74.8166C312.867 74.6966 313.767 74.7866 313.807 76.0366C313.847 77.5166 312.777 77.4066 311.797 77.4066C309.527 77.4166 307.267 77.4266 304.997 77.3966C304.077 77.3866 302.937 77.6366 302.967 76.0866C302.997 74.8466 303.837 74.7266 304.737 74.8166C306.557 74.9966 306.877 74.0566 306.847 72.5066C306.767 68.6566 306.927 64.7966 306.787 60.9466C306.607 55.8466 303.447 53.9366 298.637 55.8866C294.277 57.6566 292.157 60.7666 292.157 65.4166C292.157 67.2366 292.187 69.0566 292.147 70.8766C292.097 73.0166 291.637 75.3866 295.177 74.8366C295.967 74.7166 296.277 75.3466 296.297 76.0766C296.327 77.0466 295.787 77.3966 294.887 77.3966C292.297 77.3966 289.707 77.4066 287.117 77.3966C286.377 77.3966 285.547 77.4566 285.467 76.3566C285.397 75.2866 285.857 74.6666 286.957 74.8166C289.547 75.1666 289.327 73.4866 289.327 71.8066C289.307 62.5966 289.287 53.3966 289.337 44.1866C289.347 42.4166 289.347 40.9166 286.877 41.2966C286.007 41.4266 285.477 41.0566 285.447 40.0566C285.407 38.7866 286.187 38.7066 287.127 38.7166C288.097 38.7266 289.077 38.8066 290.037 38.6966C291.827 38.4966 292.197 39.3566 292.177 40.9366C292.117 46.0866 292.167 51.2266 292.167 57.0766Z" fill="#717173"/>
<path d="M48.2845 37.0391C47.6345 37.7691 47.1245 38.439 46.5245 39.009C44.3545 41.079 42.2945 44.5591 39.9445 44.7691C37.4745 44.9991 35.5945 41.1391 33.4145 39.1091C30.8245 36.6791 28.4445 34.0391 25.8145 31.659C24.2945 30.279 24.4345 29.3691 25.8845 28.0891C28.2145 26.0291 30.2745 22.259 32.6745 22.069C35.1445 21.879 37.1645 25.8691 39.4145 27.9991C41.9145 30.3591 44.3145 32.8291 46.7445 35.2591C47.2645 35.7991 47.7145 36.3791 48.2845 37.0391Z" fill="#1BAADF"/>
<path d="M341.978 70.5454C339.318 77.8354 331.698 79.0654 325.898 77.6454C319.378 76.0554 315.538 69.5554 316.778 62.6954C317.898 56.4654 324.008 52.0354 330.868 52.4754C337.828 52.9254 342.698 57.4054 343.278 63.7254C343.458 65.6654 342.998 66.3854 340.898 66.3454C334.648 66.2254 328.388 66.3754 322.138 66.2654C319.848 66.2254 319.608 67.0554 320.288 68.9254C321.528 72.3654 324.008 74.4854 327.468 75.1954C331.488 76.0154 335.268 75.2554 337.978 71.8754C339.108 70.4754 340.188 69.6954 341.978 70.5454ZM329.958 63.7854C332.658 63.7854 335.358 63.7054 338.048 63.8154C339.858 63.8854 340.328 63.3454 339.738 61.5954C338.388 57.5754 334.838 55.2054 329.928 55.2354C325.328 55.2654 321.508 57.9754 320.238 61.8654C319.638 63.6954 320.408 63.8354 321.868 63.8054C324.558 63.7454 327.258 63.7854 329.958 63.7854Z" fill="#717173"/>
<path d="M81.7667 49.0794C81.0067 49.9594 80.6767 50.3794 80.3067 50.7594C77.3467 53.7094 74.3267 56.5894 71.4567 59.6194C70.3467 60.7894 69.6867 60.7094 68.6567 59.5894C66.4067 57.1594 62.5467 55.0494 62.1767 52.4094C61.8267 49.9194 66.0567 47.8094 68.2767 45.5394C72.8567 40.8594 72.8867 40.9294 77.6467 45.5794C78.9267 46.8394 80.3867 47.9194 81.7667 49.0794Z" fill="#1E2C4D"/>
<path d="M32.9046 44.95C32.5246 45.41 32.1946 45.81 31.8546 46.21C25.1446 54.01 25.1446 54.01 17.8446 46.77C12.4446 41.42 12.4446 41.42 17.8946 36.01C21.0046 32.92 21.0146 32.92 24.0846 35.97C26.5846 38.46 29.0746 40.96 31.5546 43.47C31.9946 43.92 32.4046 44.41 32.9046 44.95Z" fill="#84ACCF"/>
<path d="M379.919 55.1564C381.269 54.2864 382.319 53.0164 383.969 52.6164C386.919 51.8964 389.879 53.3164 390.429 55.8764C390.579 56.5664 390.919 57.4664 389.969 57.8364C389.239 58.1164 388.639 57.8464 388.049 57.1464C385.689 54.3464 382.759 54.6864 381.009 57.9164C379.909 59.9364 379.629 62.1964 379.549 64.4364C379.449 67.1064 379.619 69.7964 379.489 72.4664C379.399 74.2364 379.899 75.0864 381.799 74.8264C382.729 74.6964 383.509 74.8664 383.579 76.0864C383.659 77.5864 382.669 77.5164 381.659 77.5164C379.179 77.5064 376.689 77.5164 374.209 77.5064C373.299 77.5064 372.469 77.4164 372.469 76.1764C372.469 74.9564 373.239 74.7164 374.179 74.8364C376.439 75.1164 376.539 73.7864 376.519 72.0964C376.449 67.5964 376.449 63.0964 376.519 58.6064C376.549 56.8764 376.349 55.6164 374.139 55.8664C373.169 55.9764 372.459 55.6464 372.469 54.4664C372.479 53.2464 373.299 52.9564 374.199 53.1464C376.159 53.5564 378.969 51.6264 379.919 55.1564Z" fill="#717173"/>
</svg>
