<svg width="100" height="100" viewBox="0 0 100 100" fill="none" xmlns="http://www.w3.org/2000/svg">
<path d="M23.7444 17.4817C22.5461 19.4186 20.8153 20.7413 18.5518 21.4497C17.0823 21.91 14.558 22.145 14.8563 19.7808C14.9234 19.2514 15.1743 18.6786 15.435 18.1947C16.4048 16.3993 17.6353 14.6 17.817 12.5063C17.9572 10.8907 18.3957 8.95897 19.4346 7.65933C21.3525 5.26151 24.3843 5.68616 26.6182 7.51119C26.6748 7.55728 26.7361 7.56452 26.8019 7.53292C29.2998 6.37417 31.6482 6.46766 33.8472 7.81339C38.2656 10.5213 38.3683 16.7943 34.1692 19.7926C32.5338 20.9599 30.3098 21.3786 28.3247 20.8434C26.4181 20.3298 24.9413 19.2093 23.8945 17.4817C23.8445 17.3987 23.7944 17.3987 23.7444 17.4817ZM22.9938 13.3359C23.057 11.7064 23.8866 10.0394 25.0381 8.85626C25.0452 8.8488 25.0506 8.83985 25.0538 8.83005C25.057 8.82025 25.058 8.80986 25.0567 8.79963C25.0554 8.7894 25.0518 8.7796 25.0461 8.77095C25.0405 8.76229 25.0331 8.755 25.0243 8.7496C23.4185 7.72056 21.5737 7.42429 20.5624 9.51793C20.1437 10.3844 19.8922 11.337 19.8079 12.376C19.6104 14.754 18.5873 16.6916 17.3094 18.8208C17.1435 19.096 17.0072 19.3949 16.9005 19.7175C16.8978 19.7258 16.8972 19.7346 16.8988 19.7432C16.9004 19.7517 16.9041 19.7597 16.9096 19.7664C16.9152 19.7731 16.9223 19.7783 16.9304 19.7815C16.9385 19.7847 16.9472 19.7858 16.9558 19.7847C20.2366 19.3521 22.8595 16.7055 22.9938 13.3359ZM35.3009 13.9027C35.3009 12.524 34.7532 11.2017 33.7783 10.2268C32.8034 9.25188 31.4811 8.70418 30.1024 8.70418C28.7236 8.70418 27.4013 9.25188 26.4264 10.2268C25.4515 11.2017 24.9038 12.524 24.9038 13.9027C24.9038 15.2815 25.4515 16.6038 26.4264 17.5787C27.4013 18.5536 28.7236 19.1013 30.1024 19.1013C31.4811 19.1013 32.8034 18.5536 33.7783 17.5787C34.7532 16.6038 35.3009 15.2815 35.3009 13.9027Z" fill="white"/>
<path d="M75.2001 17.4878C74.2033 19.1337 72.8049 20.2312 71.0049 20.7803C68.5399 21.5309 65.8044 20.8119 64.0011 19.0225C60.7441 15.7951 61.2773 10.3733 65.0874 7.91822C67.3338 6.46979 69.7309 6.33943 72.2789 7.52715C72.3513 7.56138 72.4191 7.55414 72.4823 7.50542C74.971 5.55003 78.2477 5.20438 80.0767 8.27375C80.7976 9.48254 81.163 11.0824 81.2815 12.5025C81.4712 14.7818 82.9288 16.7412 83.8947 18.6729C84.3509 19.5873 84.6215 21.1438 83.3396 21.5921C82.757 21.7955 82.0222 21.7817 81.4238 21.6593C78.806 21.122 76.7809 19.7309 75.3482 17.4858C75.2982 17.4068 75.2488 17.4075 75.2001 17.4878ZM76.1166 13.4427C76.3081 16.7352 78.8798 19.3839 82.1486 19.7849C82.1615 19.7866 82.1746 19.7848 82.1865 19.7797C82.1985 19.7745 82.2088 19.7662 82.2163 19.7556C82.2238 19.7451 82.2283 19.7326 82.2293 19.7197C82.2302 19.7067 82.2276 19.6937 82.2217 19.6822C81.1354 17.4404 79.575 15.4099 79.3558 12.8521C79.1918 10.9481 78.5361 7.46197 75.7946 8.00908C75.21 8.12627 74.651 8.36592 74.1177 8.72803C74.0492 8.7728 74.0427 8.82481 74.098 8.88407C75.3436 10.2245 76.0165 11.7441 76.1166 13.4427ZM74.1947 13.9029C74.1947 13.2202 74.0603 12.5442 73.799 11.9135C73.5378 11.2828 73.1549 10.7097 72.6721 10.227C72.1894 9.74422 71.6163 9.3613 70.9856 9.10005C70.3549 8.83879 69.6789 8.70433 68.9962 8.70433C67.6174 8.70433 66.2952 9.25203 65.3202 10.227C64.3453 11.2019 63.7976 12.5242 63.7976 13.9029C63.7976 15.2816 64.3453 16.6039 65.3202 17.5788C66.2952 18.5538 67.6174 19.1015 68.9962 19.1015C69.6789 19.1015 70.3549 18.967 70.9856 18.7057C71.6163 18.4445 72.1894 18.0616 72.6721 17.5788C73.1549 17.0961 73.5378 16.523 73.799 15.8923C74.0603 15.2616 74.1947 14.5856 74.1947 13.9029Z" fill="white"/>
<path d="M38.4043 73.117C38.4583 78.3064 38.5097 83.4002 38.5584 88.3987C38.5761 90.2 37.6636 91.9361 35.9611 92.6235C34.691 93.135 32.9766 93.0363 31.8133 92.2897C30.2806 91.3041 29.8065 89.7832 29.7275 87.9444C29.5168 83.0197 29.2923 78.0759 29.054 73.1131C29.0514 73.0433 29.0152 73.009 28.9454 73.0104H28.6096C28.5503 73.0104 28.5194 73.0406 28.5168 73.1012C28.3048 77.9561 28.1033 82.9822 27.9124 88.1794C27.8492 89.8701 27.4838 91.2192 26.2335 92.268C24.5112 93.7157 21.8803 93.7098 20.3654 91.9993C19.3857 90.8933 19.2573 89.6549 19.2494 88.0372C19.2231 82.9506 19.2027 77.9818 19.1882 73.1308C19.1882 73.0466 19.146 73.0011 19.0618 72.9946C16.5632 72.7654 15.0898 70.5592 15.5737 68.1574C16.2163 64.959 16.8628 61.6849 17.5133 58.3351C17.5291 58.2574 17.4968 58.2179 17.4165 58.2166C15.7086 58.1902 14.3932 57.4838 13.4702 56.0972C13.1936 55.6798 12.873 54.7113 12.5083 53.1918C11.7327 49.9552 10.9604 46.8635 10.1914 43.9166C9.89516 42.7789 9.90898 41.4753 10.4739 40.4818C12.6294 36.6856 14.7902 32.8815 16.9563 29.0694C17.2223 28.6007 17.4705 28.1536 17.7009 27.7283C19.1546 25.0441 21.3845 22.8912 24.3492 22.0182C25.4303 21.7009 26.7168 21.5705 28.2086 21.6271C30.7144 21.7232 33.136 22.0959 35.4732 22.745C35.539 22.7635 35.5963 22.749 35.645 22.7016C38.4405 20.0865 41.4315 17.2621 44.6181 14.2282C46.0264 12.8871 47.4228 12.2531 49.2992 12.7054C49.7179 12.8061 50.0794 12.6106 50.4941 12.581C51.8662 12.4809 53.0539 12.9036 54.0573 13.849C57.1872 16.7986 60.3165 19.7494 63.4451 22.7016C63.4697 22.725 63.5001 22.7415 63.5333 22.7495C63.5666 22.7575 63.6016 22.7566 63.6347 22.747C66.5527 21.9372 69.4225 21.5679 72.2444 21.639C76.3072 21.7397 79.5346 24.2264 81.4051 27.756C81.6552 28.23 81.9081 28.6902 82.1635 29.1366C84.2822 32.8341 86.412 36.5697 88.5531 40.3435C89.2444 41.5622 89.199 42.8184 88.8375 44.2089C87.9724 47.5495 87.1514 50.8282 86.3745 54.0451C86.1322 55.0458 85.8583 55.7654 85.5528 56.2039C84.6245 57.5365 83.3249 58.206 81.6539 58.2126C81.5973 58.2126 81.5743 58.2403 81.5848 58.2956C82.2287 61.6138 82.8792 64.9143 83.5362 68.1969C84.0083 70.5592 82.4934 72.799 80.0462 72.9867C79.9579 72.9932 79.9138 73.0413 79.9138 73.1308C79.9033 78.4993 79.8776 83.7834 79.8368 88.9833C79.8072 92.7677 75.8154 94.65 72.8902 92.2936C71.6439 91.2883 71.2509 89.8761 71.1877 88.1932C70.9954 83.0421 70.7966 78.016 70.5912 73.115C70.5872 73.0439 70.5497 73.0084 70.4786 73.0084L70.1507 73.0104C70.0783 73.0117 70.0401 73.0485 70.0362 73.121C69.8044 78.2879 69.5674 83.4516 69.3251 88.612C69.2185 90.8952 67.6581 92.7775 65.2464 92.9217C62.1257 93.1094 60.5081 90.9446 60.5377 88.0787C60.5864 83.1856 60.6411 78.199 60.7017 73.119C60.7017 73.103 60.6985 73.0872 60.6922 73.0725C60.686 73.0578 60.6768 73.0446 60.6653 73.0337C60.6538 73.0227 60.6402 73.0143 60.6254 73.0089C60.6106 73.0036 60.5949 73.0014 60.5792 73.0025C57.5256 73.2079 56.3386 70.9463 56.7356 68.2996C58.1853 58.5991 59.5798 49.3416 60.9189 40.5272C61.0058 39.9518 61.0282 39.3902 60.9861 38.8424C60.8202 36.7198 60.6661 34.5939 60.5239 32.4647C60.5188 32.3873 60.4849 32.3152 60.4291 32.2632L49.6191 21.9866C49.6 21.9682 49.5745 21.958 49.548 21.958C49.5215 21.958 49.4961 21.9682 49.4769 21.9866L38.8922 32.0242C38.8373 32.0778 38.803 32.1491 38.7954 32.2257C38.5992 34.3233 38.3799 36.5249 38.1377 38.8306C38.0797 39.3823 38.0936 39.9406 38.1791 40.5055C39.5854 49.7755 40.9944 59.1343 42.4059 68.5821C42.5482 69.5262 42.398 70.6303 41.8924 71.4697C41.2077 72.6087 40.0891 73.117 38.5366 72.9946C38.4471 72.9867 38.403 73.0275 38.4043 73.117ZM39.0146 71.053C40.3044 71.053 40.6323 69.9193 40.4723 68.8586C39.1094 59.7848 37.6854 50.3259 36.2001 40.4818C36.1237 39.9696 36.1118 39.4541 36.1645 38.9353C36.4186 36.4255 36.6655 33.9434 36.9052 31.489C36.9244 31.2926 37.0134 31.1097 37.156 30.9735C41.4302 26.9231 45.6755 22.8958 49.8917 18.8915C51.853 17.029 49.951 13.8174 47.3853 14.6667C46.9981 14.7958 46.6163 15.0387 46.2397 15.3956C42.9175 18.5479 39.7 21.585 36.5872 24.5069C36.2633 24.8124 35.8952 24.9052 35.4831 24.7854C32.9378 24.048 30.4057 23.6444 27.8867 23.5746C26.7121 23.5417 25.6772 23.6641 24.7818 23.942C22.3938 24.6807 20.5471 26.5314 19.3916 28.7317C19.1704 29.1531 18.9479 29.5593 18.724 29.9503C16.633 33.6096 14.544 37.2722 12.4569 40.938C12.0599 41.6372 11.8091 42.2969 11.9987 43.0416C12.9336 46.7048 13.7941 50.1593 14.5802 53.4051C14.7079 53.9318 14.8514 54.3894 15.0108 54.7778C15.5836 56.1743 17.3632 56.6424 18.6095 55.8523C19.7333 55.1373 19.9605 54.0273 19.6504 52.8047C18.726 49.1625 17.934 46.0056 17.2743 43.3339C17.1994 43.0293 17.2432 42.7079 17.3967 42.4352C18.5989 40.3021 19.836 38.0886 21.108 35.7948C21.6235 34.8665 22.9271 35.0541 23.0239 36.1424C23.0937 36.9219 23.1444 37.7449 23.176 38.6113C23.2023 39.2776 23.1213 40.0696 22.933 40.9874C22.3129 44.0291 21.7157 47.0393 21.1416 50.0178C21.0863 50.2995 21.0935 50.5794 21.1633 50.8572C21.4003 51.8072 21.7361 52.7632 21.7401 53.7034C21.7466 55.24 21.0843 56.4942 19.7531 57.466C19.6925 57.5108 19.655 57.5707 19.6405 57.6457C18.9689 61.118 18.2539 64.751 17.4955 68.5446C17.3098 69.4709 17.5449 70.2827 18.3626 70.7725C18.6786 70.9621 19.0289 71.0563 19.4133 71.055C26.1196 71.051 32.6534 71.0504 39.0146 71.053ZM75.6298 35.7671C75.9636 35.0837 76.9037 34.9652 77.3284 35.6249C78.7623 37.8581 80.2292 40.1493 81.729 42.4984C81.797 42.6052 81.8428 42.7248 81.8635 42.8501C81.8842 42.9753 81.8794 43.1036 81.8495 43.2272C81.0897 46.3321 80.3128 49.4226 79.5188 52.4985C79.3463 53.1635 79.2838 53.681 79.3312 54.051C79.507 55.4514 80.8342 56.4547 82.2089 56.2078C83.5303 55.9708 84.0932 55.1018 84.4033 53.8456C85.2803 50.2745 86.1678 46.7252 87.0658 43.1976C87.2436 42.5024 87.1507 41.817 86.7853 41.179C84.6232 37.3946 82.4479 33.5807 80.2595 29.737C80.0606 29.3881 79.8691 29.0411 79.6847 28.6961C78.0671 25.6623 75.3513 23.5687 71.8019 23.5786C69.0328 23.5851 66.2768 23.9946 63.534 24.8071C63.1824 24.9118 62.7874 24.7893 62.5247 24.5404C59.1393 21.3341 55.7941 18.1739 52.489 15.0598C52.1717 14.7596 52.0947 14.8122 52.2579 15.2178C53.0533 17.1903 52.647 18.9587 51.0393 20.523C50.9985 20.5625 50.9991 20.6014 51.0413 20.6395C54.7545 24.1685 58.5303 27.7547 62.3687 31.3981C62.7993 31.809 62.9573 32.3067 62.582 32.836C62.5399 32.8926 62.5214 32.9565 62.5267 33.0276C62.6557 34.9777 62.7993 36.9265 62.9573 38.874C63.002 39.4099 62.9829 39.9518 62.9 40.4996C61.3291 50.8941 59.907 60.3418 58.6337 68.8428C58.4757 69.8877 58.7798 71.0569 60.0617 71.055C66.6982 71.0497 73.2188 71.0497 79.6235 71.055C80.5301 71.055 81.2668 70.6066 81.5848 69.7237C81.6994 69.4038 81.6895 68.9119 81.5552 68.2483C80.8441 64.7418 80.1462 61.2043 79.4615 57.6359C79.4484 57.5635 79.4115 57.5055 79.3509 57.4621C78.0776 56.5469 77.4126 55.35 77.356 53.8713C77.3165 52.8363 77.7096 51.7598 77.9545 50.7466C78.0098 50.5175 78.0144 50.2851 77.9683 50.0494C77.3257 46.7812 76.6917 43.5643 76.0663 40.3988C75.849 39.2987 75.8075 38.1709 75.7246 37.0549C75.693 36.6105 75.4125 36.2096 75.6298 35.7671ZM21.426 90.0044C22.2022 92.1534 25.1314 91.5648 25.7377 89.645C25.8589 89.2618 25.9287 88.8181 25.9471 88.3137C26.1354 83.2113 26.3382 78.1563 26.5555 73.1486C26.5594 73.0564 26.5153 73.0104 26.4231 73.0104L21.2759 73.0084C21.1798 73.0084 21.1317 73.0564 21.1317 73.1526C21.1646 78.1655 21.1883 83.3588 21.2028 88.7325C21.2041 89.1709 21.2785 89.5949 21.426 90.0044ZM34.7286 90.9407C35.9907 90.7669 36.6168 89.6074 36.605 88.4303C36.5536 83.6728 36.499 78.5605 36.441 73.0933C36.4405 73.0706 36.4311 73.049 36.4149 73.0331C36.3986 73.0173 36.3768 73.0084 36.3541 73.0084H31.1101C31.0976 73.0084 31.0852 73.0109 31.0737 73.0157C31.0621 73.0205 31.0517 73.0275 31.043 73.0364C31.0344 73.0453 31.0276 73.0557 31.0232 73.0672C31.0188 73.0787 31.0168 73.0909 31.0173 73.1032C31.2517 78.1569 31.4828 83.2225 31.7106 88.2999C31.7935 90.121 32.8542 91.2014 34.7286 90.9407ZM65.2958 90.9584C66.6053 90.8182 67.3184 89.7003 67.3756 88.4638C67.6113 83.3285 67.8457 78.2083 68.0788 73.1032C68.0814 73.0426 68.0518 73.0117 67.9899 73.0104H62.7222C62.6775 73.0104 62.6544 73.0334 62.6531 73.0795C62.5991 78.1332 62.5477 83.2238 62.499 88.3513C62.4813 90.1091 63.5083 91.1481 65.2958 90.9584ZM75.4184 91.3416C77.0459 91.5747 77.8854 90.2711 77.8933 88.8213C77.917 83.7334 77.9387 78.5072 77.9584 73.1427C77.9587 73.1254 77.9555 73.1082 77.9491 73.0922C77.9427 73.0762 77.9331 73.0615 77.921 73.0492C77.9088 73.0369 77.8944 73.0271 77.8784 73.0205C77.8625 73.0138 77.8454 73.0104 77.8281 73.0104H72.6493C72.5768 73.0104 72.542 73.0466 72.5446 73.119C72.7605 78.0608 72.9587 83.0322 73.1391 88.0333C73.1733 88.98 73.2984 89.6456 73.5144 90.0301C73.9384 90.7846 74.5731 91.2218 75.4184 91.3416Z" fill="white"/>
</svg>
