<svg width="100" height="100" viewBox="0 0 100 100" fill="none" xmlns="http://www.w3.org/2000/svg">
<path fill-rule="evenodd" clip-rule="evenodd" d="M49.7749 17.7157L47.8039 17.8029L45.9026 18.0471L44.0537 18.4308L42.2397 18.9541L40.4954 19.6169L38.8383 20.4019L37.2162 21.3089L35.6987 22.338L34.2858 23.4892L32.9427 24.7276L31.6869 26.0533L30.5356 27.501L29.524 29.036L28.5995 30.6233L27.8146 32.3152L27.1518 34.0595L26.6285 35.8735L26.2447 37.7224L26.0005 39.6237L25.9482 41.5947L26.0005 43.5308L26.2447 45.4321L26.6285 47.2984L27.1518 49.1125L27.8146 50.8568L28.5995 52.5487L29.524 54.1185L30.5356 55.6535L31.6869 57.1012L32.9427 58.4269L34.2858 59.6653L35.6987 60.8165L37.2162 61.8456L38.8383 62.7526L40.4954 63.555L42.2397 64.2004L44.0537 64.7237L45.9026 65.09L47.8039 65.3342L49.7749 65.4214L51.7285 65.3342L53.6297 65.09L55.4786 64.7237L57.3101 64.2004L59.0369 63.555L60.7289 62.7526L62.3336 61.8456L63.8337 60.8165L65.2814 59.6653L66.6245 58.4269L67.8804 57.1012L68.9967 55.6535L70.0258 54.1185L70.9328 52.5487L71.7178 50.8568L72.398 49.1125L72.9213 47.2984L73.305 45.4321L73.5144 43.5308L73.6016 41.5947L73.5144 39.6237L73.305 37.7224L72.9213 35.8735L72.398 34.0595L71.7178 32.3152L70.9328 30.6233L70.0258 29.036L68.9967 27.501L67.8804 26.0533L66.6245 24.7276L65.2814 23.4892L63.8337 22.338L62.3336 21.3089L60.7289 20.4019L59.0369 19.6169L57.3101 18.9541L55.4786 18.4308L53.6297 18.0471L51.7285 17.8029L49.7749 17.7157ZM49.5307 5L50.3156 5.05233L51.0831 5.2442L51.8157 5.57561L52.4959 6.01168L53.1064 6.58728L54.3623 7.9827L54.903 8.50597L55.5135 8.94204L56.1938 9.23857L56.8741 9.44788L57.6241 9.55253L58.3567 9.53509L59.0718 9.41299L59.8044 9.1688L61.5312 8.41876L62.3162 8.13968L63.136 8.03503L63.9383 8.06991L64.7058 8.19201L65.4384 8.47109L66.1187 8.88972L66.7466 9.37811L67.2699 9.9886L67.6885 10.6863L67.985 11.4887L68.5083 13.2678L68.8048 14.0876L69.2583 14.7853L69.7991 15.4133L70.4619 15.9365L71.1945 16.3203L72.0143 16.5994L72.869 16.7215L74.7353 16.7912L75.59 16.8785L76.3575 17.1226L77.0727 17.5064L77.718 17.9599L78.2587 18.5355L78.7123 19.1983L79.0437 19.9135L79.253 20.681L79.3053 21.5008L79.253 22.3554L78.9565 24.1869L78.8692 24.9544L78.9216 25.7044L79.096 26.4021L79.3751 27.0824L79.7239 27.7103L80.1949 28.286L80.7705 28.7743L81.3984 29.193L83.038 30.0651L83.6834 30.5012L84.2416 30.9896L84.6951 31.5303L85.0614 32.1582L85.3405 32.8385L85.4975 33.5187L85.5498 34.2165L85.4975 34.9665L85.3405 35.6642L85.0614 36.3445L84.6776 36.9898L83.5788 38.5248L83.1253 39.2748L82.8462 40.0597L82.7241 40.8795V41.7342L82.8811 42.554L83.1776 43.3564L83.6311 44.089L84.73 45.5891L85.1312 46.2344L85.4102 46.9147L85.6196 47.6299L85.6719 48.3624L85.6196 49.0776L85.4451 49.7579L85.2009 50.4381L84.8346 51.0661L84.3811 51.6417L83.8404 52.1301L83.2125 52.5661L81.5729 53.4557L80.9449 53.8743L80.4042 54.3976L79.9507 54.9732L79.5844 55.6012L79.3402 56.2814L79.1658 56.9791L79.1309 57.7466L79.2007 58.4792L79.5321 60.3107L79.6193 61.1654L79.5669 61.9852L79.3751 62.7526L79.0437 63.4678L78.5902 64.1306L78.0669 64.7237L77.439 65.1946L76.7412 65.5784L75.9738 65.8226L75.1191 65.9447L73.2527 66.0667L72.3806 66.1888L71.5956 66.4679L70.8631 66.8866L70.2351 67.4098L69.6944 68.0378L69.2409 68.7704L68.9444 69.5727L68.456 71.3693L68.1595 72.1717L67.7408 72.8694L67.2175 73.4799L66.6071 74.0032L65.9268 74.3869L65.2116 74.6834L64.4267 74.8404L63.6418 74.8753L62.8569 74.7706L62.0371 74.5264L60.3103 73.8113L59.5951 73.5671L58.8625 73.445H58.1125L57.3799 73.5845L56.6996 73.7938L56.0542 74.1253L55.4438 74.5439L54.903 75.0846L53.6646 76.4975L53.0541 77.0731L52.3739 77.5266L51.6413 77.858L50.8738 78.0499L50.1063 78.1022L49.3214 78.0499L48.5539 77.858L47.8039 77.5615L47.1236 77.1254L46.5131 76.5498L45.2572 75.1195L44.7165 74.5962L44.0886 74.195L43.4432 73.8636L42.7281 73.6543L42.0304 73.5496H41.2803L40.5477 73.6718L39.8326 73.9334L38.1058 74.666L37.3208 74.9102L36.501 75.0497L35.7161 75.0148L34.9312 74.8404L34.1812 74.5613L33.5009 74.195L32.8904 73.6892L32.3671 73.0612L31.9136 72.4856L31.6171 71.7007L31.1287 69.8867L30.7973 69.1018L30.3612 68.3866L29.7856 67.7587L29.1228 67.2354L28.3727 66.8517L27.5878 66.5726L26.7331 66.4679L24.8493 66.3807L24.0295 66.2586L23.2272 66.0144L22.5295 65.683L21.9015 65.2295L21.3608 64.6539L20.9247 63.9911L20.5933 63.2934L20.384 62.5259L20.2968 61.7061L20.384 60.8514L20.6805 59.0025L20.7503 58.2524L20.698 57.5198L20.541 56.7698L20.2619 56.107L19.8782 55.4965L19.4247 54.9209L18.8839 54.4151L18.256 54.0139L16.599 53.1069L15.971 52.6882L15.4303 52.1998L14.9768 51.6242L14.5931 50.9963L14.3489 50.3335L14.1744 49.6532L14.1047 48.9032L14.157 48.2055L14.314 47.4903L14.5931 46.8101L14.9768 46.1472L16.0757 44.6123L16.5117 43.8797L16.8083 43.0773L16.9129 42.2575V41.4377L16.7385 40.6179L16.442 39.833L16.0059 39.0655L14.8896 37.5654L14.5058 36.9375L14.2093 36.2224L14.0523 35.5247L14 34.8095L14.0523 34.1118L14.1744 33.4315L14.4535 32.7513L14.8198 32.1408L15.2733 31.5652L15.814 31.0593L16.4594 30.6233L18.1165 29.7162L18.727 29.2802L19.2677 28.7918L19.7212 28.2162L20.0875 27.5882L20.3666 26.908L20.5236 26.1579L20.5584 25.4254L20.4712 24.6579L20.1573 22.8438L20.07 22.024L20.1224 21.1868L20.3317 20.4193L20.6282 19.6867L21.0643 19.0239L21.605 18.4483L22.2329 17.9599L22.9481 17.5936L23.7156 17.3145L24.5354 17.1924L26.4192 17.0703L27.2739 16.9482L28.0762 16.6691L28.8088 16.2505L29.4716 15.7272L30.0124 15.0644L30.4484 14.3667L30.745 13.5469L31.2508 11.7678L31.5473 10.9828L31.9485 10.2677L32.4369 9.65719L33.0648 9.13391L33.7276 8.71529L34.4602 8.43621L35.2277 8.27922L36.0475 8.24434L36.8324 8.33155L37.6174 8.61063L39.3616 9.30834L40.0768 9.51765L40.8094 9.63975H41.542L42.2571 9.51765L42.9548 9.30834L43.6176 8.97693L44.2281 8.54086L44.7688 8.01758L46.0073 6.60472L46.6178 6.02912L47.298 5.55817L48.0132 5.22676L48.7807 5.03489L49.5307 5Z" fill="white"/>
<path fill-rule="evenodd" clip-rule="evenodd" d="M74.807 71.4219L81.191 82.9166L81.4178 83.4747L81.5224 84.0678L81.4875 84.6608L81.3305 85.2539L78.2432 92.9461L77.9815 93.4171L77.6501 93.8706L77.2315 94.1845L76.778 94.4636L76.2547 94.6206L75.7489 94.6729L75.1733 94.6206L66.9578 93.1031L66.3822 92.9461L65.8763 92.6321L65.4228 92.231L65.0565 91.7426L58.2539 79.4455L58.7074 78.9397L60.1028 79.4978L61.3064 79.9339L62.5971 80.1781L63.9053 80.2653L65.1089 80.1781L66.295 79.9688L67.4287 79.6025L68.4927 79.149L69.5219 78.5559L70.4289 77.8408L71.2836 77.021L72.0336 76.1314L72.679 75.1372L73.2023 74.0732L73.5686 72.9394L73.9872 71.4742L74.807 71.4219Z" fill="white"/>
<path fill-rule="evenodd" clip-rule="evenodd" d="M24.6756 71.7871L26.1408 71.8394L26.5594 73.2697L26.9781 74.3861L27.5013 75.4501L28.1467 76.392L28.8968 77.2815L29.7514 78.0839L30.6933 78.7816L31.705 79.3398L32.769 79.8107L33.9028 80.1596L35.054 80.3863L36.275 80.4212L37.3041 80.3863L38.3158 80.2468L39.31 79.9677L40.2519 79.6189L41.6822 79.0433L41.752 79.113L34.7052 91.7415L34.3563 92.2299L33.9028 92.6485L33.3621 92.945L32.769 93.102L24.5186 94.6195L23.9779 94.6719L23.4198 94.5847L22.9314 94.4277L22.4604 94.1835L22.0592 93.8695L21.6929 93.416L21.4487 92.945L18.3091 85.2703L18.1346 84.6772L18.1172 84.0667L18.2218 83.4737L18.4486 82.933L24.6756 71.7871Z" fill="white"/>
<path fill-rule="evenodd" clip-rule="evenodd" d="M50.7517 23.3828H51.0308L51.2924 23.4526L51.6238 23.4875L51.9552 23.5747L52.2866 23.7142L52.618 23.8712L52.932 24.0805L53.246 24.3596L53.5076 24.6561L53.7518 25.0399L53.9611 25.4759L54.1181 25.9992L54.2053 26.5748L54.2577 27.2202L54.2053 27.9702L54.1007 28.79L53.9088 29.6796L53.6123 30.6913L53.2809 31.6681L53.0716 32.5402L52.8797 33.2728L52.775 33.9007L52.7053 34.4415L52.6878 34.895V35.2438L52.7401 35.5229L52.8274 35.7322L52.932 35.8892L53.0367 36.0113L53.1588 36.0636L53.246 36.0985H53.3681H53.4727L53.5425 36.0636H53.5774L53.6123 36.0287L54.2925 35.8892L54.9554 35.7671H55.0251L55.2344 35.7148L55.5833 35.645L56.0368 35.5578L56.5775 35.488L57.2055 35.4357L57.8683 35.3485L58.5834 35.3136H59.316L60.0486 35.3834L60.7638 35.4706L61.4615 35.5927L62.0894 35.7845L62.6476 36.0985L63.1534 36.4299L63.5546 36.9009L63.8162 37.3718L63.9907 37.8428L64.043 38.2963V38.7324L63.9907 39.1335L63.886 39.4998L63.7639 39.7964L63.6592 40.0057L63.572 40.1626L63.5546 40.1975L63.572 40.2499L63.6941 40.372L63.8511 40.5638L64.043 40.808L64.2349 41.1046L64.3918 41.4534L64.5314 41.872L64.636 42.3255V42.8139L64.5663 43.3547L64.3395 43.9128L64.0255 44.5059L63.5197 45.0989L63.5546 45.1687L63.6418 45.3431L63.729 45.5873L63.8162 45.8838L63.9034 46.285L63.9732 46.7211V47.2095L63.886 47.7328L63.6941 48.2909L63.3627 48.8491L62.8918 49.4073L62.2813 49.9654V49.9829L62.3162 50.1224L62.351 50.3143L62.3859 50.5585L62.4034 50.855V51.1864L62.351 51.5701L62.2813 51.9539L62.1069 52.3551L61.8627 52.7737L61.5661 53.1749L61.1649 53.5586L60.6242 53.9249L59.9963 54.2738L59.1939 54.5528L58.2869 54.797L57.3276 54.954L56.281 55.0412L55.1647 55.0587L54.0483 55.0412L52.932 54.954H51.4145L49.9493 54.9191L48.5365 54.8843L47.2283 54.797L46.548 54.6575L45.955 54.4133L45.3793 54.047L44.9258 53.6284L44.4723 53.14L44.106 52.5644L43.8095 51.9539L43.5479 51.326L43.3211 50.6806L43.1292 50.0178L42.9897 49.3724L42.8502 48.7444L42.7804 48.1339L42.7281 47.5932L42.6757 47.0874L42.6408 46.7036V46.3722L42.606 46.1804V46.0583V52.7214L42.5885 53.297L42.5187 53.7505L42.4315 54.1342L42.292 54.4133L42.1873 54.6226L42.0652 54.7447L42.0129 54.8145L41.5594 55.0587L41.071 55.2157L40.5128 55.2854H36.5359L35.9429 55.1982L35.3673 55.0064L34.8614 54.6749L34.4602 54.2738L34.1463 53.7854L33.9544 53.2098L33.8672 52.5993V41.9069L33.9544 41.2964L34.1463 40.7208L34.4428 40.2324L34.8614 39.8312L35.3673 39.4998L35.9429 39.2905L36.5359 39.2207H40.5128L41.1757 39.2905L41.7338 39.5347L42.2571 39.8836L42.4839 39.3254L42.7804 38.7324L43.1816 38.087L43.7048 37.4242L44.1932 36.9881L44.7165 36.4648L45.1875 35.8543L45.6759 35.1392L46.1468 34.3717L46.6003 33.5693L47.0364 32.767L47.4725 31.9472L47.8562 31.1274L48.2399 30.3075L48.5539 29.5401L48.8853 28.8424L49.1295 28.1795L49.3737 27.6388L49.5481 27.1853L49.6702 26.819L49.7575 26.6097L49.7923 26.5225V26.4702L49.7575 26.2783L49.7226 26.0341V25.7027L49.7051 25.3538L49.7226 24.9701L49.7923 24.5689L49.8621 24.2026L49.9668 23.8712L50.1935 23.627L50.4203 23.4526L50.7517 23.3828Z" fill="white"/>
</svg>
