<svg width="100" height="100" viewBox="0 0 100 100" fill="none" xmlns="http://www.w3.org/2000/svg">
<path d="M30.2468 57.0716C30.2468 56.6293 30.2468 56.305 30.2468 55.9806C30.2468 50.2899 30.2468 44.5992 30.2468 38.9085C30.2468 37.4048 30.4532 37.1246 31.9274 36.6971C34.4927 35.96 37.0727 35.2228 39.6379 34.5004C39.8738 34.4415 40.0949 34.353 40.3603 34.2646C40.3603 31.891 40.3603 29.5469 40.3603 27.2028C40.3603 25.7285 40.8321 25.2715 42.3063 25.2715C47.7612 25.2715 53.216 25.2715 58.6708 25.2715C60.1451 25.2715 60.6168 25.7433 60.6168 27.2175C60.6168 29.5616 60.6168 31.9057 60.6168 34.294C63.4032 35.0902 66.1454 35.8863 68.8875 36.6529C70.5534 37.1246 70.7303 37.3605 70.7303 39.1149C70.7303 44.7466 70.7303 50.3784 70.7303 56.0101C70.7303 56.3344 70.7303 56.6588 70.7303 57.0863C71.1284 57.0863 71.4527 57.0863 71.7623 57.0863C76.0672 57.0863 80.3721 57.0863 84.6917 57.0863C86.166 57.0863 86.7115 57.5728 86.623 59.0176C86.4903 61.0226 86.2839 63.0276 86.0333 65.0327C85.8711 66.3005 85.3846 66.6691 84.0873 66.6544C81.0797 66.6101 80.9765 66.6249 80.0035 69.4407C79.6055 70.6054 79.0452 71.7111 78.5293 72.8316C77.9985 73.9962 78.0722 74.6154 78.9568 75.5147C79.3843 75.9423 79.8119 76.3551 80.2394 76.7974C80.8144 77.4018 80.9028 78.08 80.4311 78.7729C77.8216 82.6355 74.5782 85.8789 70.7156 88.4884C70.0374 88.9454 69.3445 88.8717 68.7401 88.2967C68.2683 87.8397 67.8113 87.3532 67.3248 86.8961C66.6466 86.2475 65.8947 86.1 65.0102 86.4686C63.3295 87.191 61.6341 87.8839 59.9387 88.5768C59.0541 88.9306 58.5971 89.5646 58.6118 90.5229C58.6118 91.1568 58.6118 91.7907 58.6118 92.4247C58.6118 93.2945 58.2138 93.8547 57.3439 94.0316C52.7737 94.9457 48.1887 94.9309 43.6184 94.0316C42.7928 93.8695 42.38 93.3387 42.3653 92.5131C42.3506 91.8497 42.3653 91.1863 42.3653 90.5229C42.3653 89.5646 41.8935 88.9454 41.0237 88.5916C39.3578 87.9134 37.6771 87.25 36.0259 86.5276C35.1119 86.1295 34.3305 86.2327 33.6229 86.9256C33.1658 87.3679 32.7383 87.8249 32.2813 88.2672C31.5884 88.9159 30.9544 88.9896 30.1731 88.4589C26.3694 85.8789 23.1703 82.6797 20.5903 78.8761C20.1038 78.1537 20.1333 77.4608 20.7524 76.8269C21.2095 76.3551 21.696 75.8981 22.153 75.4115C22.8017 74.7334 22.9491 73.9815 22.5658 73.0969C21.8434 71.4163 21.1505 69.7208 20.4576 68.0254C20.1038 67.1556 19.4698 66.6986 18.5115 66.6986C17.8776 66.6986 17.2437 66.6986 16.6097 66.6986C15.7399 66.6986 15.1355 66.3005 15.0323 65.416C14.7816 63.1751 14.531 60.9342 14.3688 58.6933C14.2951 57.6465 14.9586 57.1305 16.1232 57.1305C20.4576 57.1305 24.792 57.1305 29.1411 57.1305C29.4654 57.0716 29.7897 57.0716 30.2468 57.0716ZM77.3793 78.0358C77.2024 77.8441 77.0697 77.6819 76.9223 77.5345C75.1384 75.6769 74.8731 73.8341 75.9493 71.5047C76.6274 70.0304 77.2171 68.5119 77.7921 67.0082C78.544 65.0179 80.2099 63.7943 82.3329 63.75C82.6572 63.75 82.9816 63.75 83.3501 63.75C83.4828 62.4527 83.6155 61.2585 83.7334 60.0201C80.2099 60.0201 76.7749 60.0201 73.3251 60.0201C72.352 72.3893 62.327 81.3086 50.636 81.3971C38.4585 81.4856 28.4039 72.0502 27.5931 60.0349C24.158 60.0349 20.7082 60.0349 17.2142 60.0349C17.3469 61.3027 17.4796 62.4822 17.6122 63.7058C17.8924 63.7206 18.0988 63.75 18.3052 63.75C20.8999 63.809 22.4036 64.9442 23.3029 67.3915C23.8484 68.851 24.4824 70.2811 25.1163 71.7111C25.5733 72.7579 25.9271 73.8636 25.5144 74.9398C25.0868 76.0602 24.4086 77.0775 23.7452 78.3011C25.6765 80.9106 28.0796 83.3874 30.9544 85.4219C31.2788 85.1123 31.5294 84.8469 31.8095 84.611C33.3722 83.2694 35.1119 82.9746 37.0137 83.7707C38.7386 84.4931 40.4635 85.186 42.1736 85.9084C44.1049 86.734 45.1222 88.2082 45.2254 90.3017C45.2401 90.6555 45.2254 90.9946 45.2254 91.3337C48.8079 91.9087 52.2282 91.9234 55.7075 91.319C55.7075 90.9504 55.7075 90.6408 55.7075 90.3459C55.7517 88.282 56.9606 86.5865 58.8772 85.8347C60.5578 85.1712 62.209 84.4783 63.875 83.7707C65.7768 82.9598 67.5164 83.2399 69.0939 84.552C69.4035 84.8174 69.6984 85.1123 69.9932 85.3776C72.6174 83.6233 75.6397 80.601 77.3793 78.0358ZM30.6596 60.0201C30.7923 65.1653 33.844 72.2419 40.7731 75.957C47.8496 79.7606 54.9261 79.4805 61.6488 75.0725C66.9857 71.5637 69.7868 66.4185 70.4355 60.0349C57.0786 60.0201 43.8691 60.0201 30.6596 60.0201ZM57.683 28.22C52.8474 28.22 48.0707 28.22 43.3088 28.22C43.3088 37.847 43.3088 47.4151 43.3088 57.0273C44.2671 57.0273 45.1812 57.0273 46.0657 57.0273C46.11 56.9536 46.1395 56.9241 46.1395 56.8947C46.1542 55.1108 46.1542 53.3417 46.1689 51.5578C46.1837 50.3784 46.6997 49.8476 47.8791 49.8476C49.2944 49.8329 50.7097 49.8476 52.125 49.8476C54.6608 49.8476 54.8377 50.0245 54.8377 52.5603C54.8377 54.0493 54.8377 55.5383 54.8377 57.0273C55.8549 57.0273 56.7542 57.0273 57.683 57.0273C57.683 47.4151 57.683 37.847 57.683 28.22ZM67.8555 57.0273C67.8555 56.6293 67.8555 56.305 67.8555 55.9806C67.8555 50.8059 67.8408 45.6312 67.8702 40.4418C67.8702 39.6162 67.6933 39.2329 66.8383 39.0265C64.7743 38.5252 62.7398 37.8913 60.661 37.3016C60.661 43.9211 60.661 50.4521 60.661 57.0126C63.0494 57.0273 65.3935 57.0273 67.8555 57.0273ZM40.3308 37.3163C37.913 38.0092 35.5394 38.6874 33.1806 39.3655C33.1806 45.2774 33.1806 51.1302 33.1806 57.0273C35.5836 57.0273 37.9425 57.0273 40.3308 57.0273C40.3308 50.4521 40.3308 43.9211 40.3308 37.3163ZM51.8744 57.0421C51.8744 55.5531 51.8744 54.1673 51.8744 52.7814C50.9161 52.7814 50.0168 52.7814 49.1027 52.7814C49.1027 54.2262 49.1027 55.612 49.1027 57.0421C50.0463 57.0421 50.9456 57.0421 51.8744 57.0421Z" fill="white"/>
<path d="M24.468 49.8045C23.4803 49.8045 22.581 49.8045 21.5785 49.8045C21.5785 49.2885 21.5785 48.7873 21.5785 48.286C21.5785 45.4849 21.5637 42.6838 21.5932 39.8826C21.5932 39.3667 21.4753 39.057 20.974 38.8359C19.9568 38.3789 18.969 37.8776 17.9812 37.3469C17.5684 37.1258 17.2736 37.1258 16.8608 37.4206C15.1359 38.6443 12.9687 38.5116 11.4502 37.1552C9.97593 35.8431 9.57787 33.7202 10.4772 31.9658C11.3617 30.2409 13.3225 29.2826 15.1654 29.6659C17.2294 30.0935 18.5709 31.7299 18.7184 33.8971C18.7331 34.1919 19.0132 34.6047 19.2786 34.7374C20.6497 35.4746 22.065 36.1527 23.4655 36.8456C24.07 37.1552 24.4828 37.5828 24.4828 38.3052C24.468 42.1235 24.468 45.9124 24.468 49.8045ZM14.325 32.4965C13.5437 32.4965 12.895 33.1452 12.895 33.9266C12.895 34.7079 13.5289 35.3566 14.2955 35.3861C15.1064 35.4009 15.7846 34.7227 15.7698 33.9118C15.7551 33.1305 15.1064 32.4818 14.325 32.4965Z" fill="white"/>
<path d="M79.4321 49.8052C78.4296 49.8052 77.545 49.8052 76.5425 49.8052C76.5425 49.245 76.5425 48.7142 76.5425 48.1835C76.5425 45.0286 76.5573 41.8589 76.5278 38.7039C76.513 37.7751 76.8669 37.1854 77.7072 36.7874C79.0635 36.1534 80.3904 35.431 81.7467 34.7824C82.189 34.576 82.3364 34.3253 82.3512 33.8241C82.3806 31.7601 83.8107 30.1089 85.8305 29.6814C87.6733 29.2833 89.6341 30.2416 90.5186 31.9665C91.4179 33.7209 91.0346 35.8291 89.5604 37.1559C88.0713 38.4975 85.9042 38.6744 84.2382 37.4803C83.7665 37.1412 83.4274 37.1265 82.9556 37.3771C82.0121 37.8931 81.0391 38.3796 80.0513 38.8366C79.5648 39.0578 79.4174 39.3526 79.4321 39.8686C79.4468 43.1562 79.4321 46.4291 79.4321 49.8052ZM86.7003 32.4972C85.9189 32.4825 85.2555 33.1017 85.226 33.8831C85.1965 34.6939 85.8599 35.3868 86.6708 35.3868C87.4522 35.3868 88.1008 34.7381 88.1008 33.9568C88.1156 33.1754 87.4669 32.512 86.7003 32.4972Z" fill="white"/>
<path d="M36.0387 33.8945C35.0509 33.8945 34.1516 33.8945 33.1491 33.8945C33.1491 33.5555 33.1491 33.2459 33.1491 32.9215C33.1491 30.3268 33.1786 27.7468 33.1196 25.1521C33.1049 24.7246 32.8395 24.297 32.6184 23.899C32.471 23.6483 32.1908 23.4714 31.9992 23.2503C31.2768 22.4247 30.6281 21.8645 29.2865 22.2625C27.5764 22.7638 25.6598 21.5254 24.8784 19.8447C24.0676 18.0903 24.5099 16.0411 25.9694 14.7437C27.3995 13.4906 29.4782 13.3284 31.0851 14.3309C32.6774 15.3187 33.5177 17.2352 32.9722 19.0044C32.7511 19.7415 32.869 20.1985 33.444 20.6113C35.6112 22.1446 36.3335 24.1938 36.0682 26.8328C35.847 29.1474 36.0387 31.4767 36.0387 33.8945ZM30.2448 18.0461C30.2595 17.2795 29.6256 16.616 28.8442 16.5866C28.0776 16.5571 27.3994 17.191 27.3552 17.9576C27.311 18.7685 27.9892 19.4614 28.8 19.4614C29.5814 19.4614 30.2301 18.8275 30.2448 18.0461Z" fill="white"/>
<path d="M67.8581 33.8963C66.8703 33.8963 65.9857 33.8963 64.9685 33.8963C64.9685 33.572 64.9685 33.2476 64.9685 32.938C64.9685 30.078 64.998 27.2179 64.9537 24.3578C64.939 23.5322 65.1896 22.913 65.7941 22.3675C66.4428 21.7778 67.0177 21.1144 67.6664 20.5394C68.1087 20.1413 68.2561 19.7728 68.0645 19.1536C67.519 17.355 68.2709 15.4532 69.8188 14.4212C71.3816 13.3892 73.4161 13.4629 74.8756 14.6276C76.3499 15.7922 76.9101 17.7235 76.2762 19.4927C75.6422 21.2471 73.9616 22.4117 72.104 22.3675C71.9271 22.3675 71.7207 22.397 71.5732 22.3233C70.5265 21.7778 69.9515 22.397 69.1996 23.0309C68.1087 23.9597 67.7696 25.0065 67.8286 26.407C67.9318 28.8543 67.8581 31.3163 67.8581 33.8963ZM72.2219 16.5883C71.4405 16.5736 70.7919 17.2075 70.7624 17.9889C70.7329 18.7998 71.4111 19.4927 72.2219 19.4632C73.0033 19.4484 73.6372 18.7998 73.6372 18.0184C73.6372 17.2518 72.9885 16.6031 72.2219 16.5883Z" fill="white"/>
<path d="M51.9468 23.7676C50.9738 23.7676 50.0745 23.7676 49.0572 23.7676C49.0572 23.4433 49.0572 23.1337 49.0572 22.8094C49.0572 19.9493 49.0425 17.0892 49.0719 14.2291C49.0719 13.6983 48.9687 13.3887 48.438 13.1086C46.6541 12.1651 45.8138 10.2043 46.3003 8.28775C46.8016 6.31222 48.497 4.98538 50.5167 5.00012C52.4923 5.00012 54.1729 6.31223 54.6889 8.24352C55.1902 10.1453 54.3793 12.1504 52.6249 13.0939C52.0795 13.3887 51.932 13.6983 51.9468 14.2733C51.9763 17.1334 51.9615 19.9935 51.9615 22.8536C51.9468 23.1337 51.9468 23.4285 51.9468 23.7676ZM51.932 9.31974C51.9173 8.53838 51.2539 7.90444 50.4872 7.91918C49.6764 7.93393 49.013 8.62683 49.0572 9.43769C49.1014 10.2191 49.7796 10.8235 50.5462 10.794C51.3276 10.7645 51.9615 10.0864 51.932 9.31974Z" fill="white"/>
<path d="M21.5977 55.5666C21.5977 54.6083 21.5977 53.7385 21.5977 52.7949C22.5264 52.7949 23.4405 52.7949 24.4135 52.7949C24.4135 53.6795 24.4135 54.5935 24.4135 55.5666C23.4995 55.5666 22.5854 55.5666 21.5977 55.5666Z" fill="white"/>
<path d="M79.3576 55.5971C78.4288 55.5971 77.5442 55.5971 76.5859 55.5971C76.5859 54.6536 76.5859 53.7395 76.5859 52.7812C77.5 52.7812 78.3846 52.7812 79.3576 52.7812C79.3576 53.6658 79.3576 54.5799 79.3576 55.5971Z" fill="white"/>
<path d="M54.796 35.3382C51.9212 35.3382 49.1053 35.3382 46.2305 35.3382C46.2305 34.4242 46.2305 33.5101 46.2305 32.5371C49.0758 32.5371 51.9064 32.5371 54.796 32.5371C54.796 33.4512 54.796 34.3505 54.796 35.3382Z" fill="white"/>
<path d="M54.796 38.334C54.796 39.307 54.796 40.1916 54.796 41.1204C51.9359 41.1204 49.12 41.1204 46.2305 41.1204C46.2305 40.2211 46.2305 39.307 46.2305 38.334C49.0611 38.334 51.8917 38.334 54.796 38.334Z" fill="white"/>
<path d="M46.2031 46.883C46.2031 45.9542 46.2031 45.0549 46.2031 44.1113C49.078 44.1113 51.9086 44.1113 54.7981 44.1113C54.7981 45.0254 54.7981 45.9247 54.7981 46.883C51.9675 46.883 49.1222 46.883 46.2031 46.883Z" fill="white"/>
<path d="M66.3679 41.2246C66.3679 42.1829 66.3679 43.0675 66.3679 44.011C64.9526 44.011 63.5815 44.011 62.1367 44.011C62.1367 43.1117 62.1367 42.2124 62.1367 41.2246C63.5078 41.2246 64.9084 41.2246 66.3679 41.2246Z" fill="white"/>
<path d="M62.0898 49.7578C62.0898 48.8142 62.0898 47.9444 62.0898 47.0156C63.5051 47.0156 64.891 47.0156 66.3505 47.0156C66.3505 47.9149 66.3505 48.829 66.3505 49.7578C64.9204 49.7578 63.5051 49.7578 62.0898 49.7578Z" fill="white"/>
<path d="M38.8874 41.209C38.8874 42.1378 38.8874 43.0223 38.8874 43.9806C37.5016 43.9806 36.101 43.9806 34.6562 43.9806C34.6562 43.0813 34.6562 42.1673 34.6562 41.209C36.0568 41.209 37.4426 41.209 38.8874 41.209Z" fill="white"/>
<path d="M34.6719 46.9727C36.1019 46.9727 37.4435 46.9727 38.8588 46.9727C38.8588 47.9014 38.8588 48.8155 38.8588 49.7885C37.4877 49.7885 36.0872 49.7885 34.6719 49.7885C34.6719 48.8302 34.6719 47.9014 34.6719 46.9727Z" fill="white"/>
</svg>
