<svg width="100" height="100" viewBox="0 0 100 100" fill="none" xmlns="http://www.w3.org/2000/svg">
<path d="M6 20.5317C6.70527 19.5817 7.03632 19.4666 8.18779 19.8696C9.90059 20.4597 11.599 21.0355 13.2974 21.6832C13.83 21.8847 14.1898 21.8127 14.6216 21.4673C15.5428 20.7332 16.464 19.9992 17.4571 19.3658C17.8601 19.1068 18.4934 18.9772 18.954 19.078C19.904 19.2795 20.8107 19.6393 21.7319 19.9704C22.5523 20.2726 22.8978 20.9491 22.6531 21.6544C22.4228 22.3309 21.7607 22.6187 20.9547 22.4172C20.7388 22.3597 20.4941 22.3165 20.307 22.2157C19.0835 21.5824 18.0184 21.6832 17.1404 22.921C17.2556 22.9786 17.3995 23.0793 17.5722 23.1369C20.6524 24.2164 23.7182 25.3679 26.8415 26.3466C27.8635 26.6633 29.0437 26.5337 30.224 26.6057C30.224 25.9148 30.224 25.3679 30.224 24.6626C29.749 24.6626 29.2452 24.677 28.7415 24.6626C27.8779 24.6338 27.3453 24.1013 27.3597 23.3384C27.3741 22.6187 27.9066 22.1006 28.7271 22.0862C30.627 22.0718 32.5125 22.0718 34.4124 22.0862C35.2185 22.1006 35.7654 22.6187 35.7942 23.324C35.823 24.0581 35.2472 24.6194 34.4124 24.6482C33.9375 24.6626 33.4481 24.6482 32.8723 24.6482C32.8723 25.008 32.8723 25.2815 32.8723 25.555C32.8723 25.8428 32.8723 26.1163 32.8723 26.4618C36.1396 26.4618 39.335 26.4618 42.6022 26.4618C42.6022 25.886 42.6022 25.3247 42.6022 24.6482C42.0985 24.6482 41.5803 24.6626 41.0765 24.6482C40.2561 24.605 39.7524 24.1156 39.738 23.3816C39.7236 22.6475 40.2417 22.1006 41.0478 22.0862C42.9765 22.0574 44.8908 22.0574 46.8195 22.0862C47.6111 22.1006 48.1581 22.6619 48.1581 23.3672C48.1581 24.0725 47.6111 24.605 46.8051 24.6482C46.3157 24.677 45.8407 24.6482 45.2938 24.6482C45.2938 25.2671 45.2938 25.8285 45.2938 26.4618C48.4891 26.4618 51.6844 26.4618 54.9373 26.4618C54.9373 25.886 54.9373 25.3247 54.9373 24.6482C54.4192 24.6482 53.9154 24.6626 53.4116 24.6482C52.62 24.605 52.073 24.0581 52.073 23.3528C52.073 22.6475 52.62 22.0862 53.426 22.0862C55.3259 22.0574 57.2115 22.0718 59.1114 22.0862C59.975 22.1006 60.5075 22.6331 60.4931 23.396C60.4788 24.13 59.9606 24.6194 59.1402 24.6626C58.8811 24.677 58.622 24.6626 58.3629 24.6626C58.1326 24.6626 57.9167 24.677 57.6289 24.6914C57.6289 25.2815 57.6289 25.8428 57.6289 26.4618C60.8386 26.4618 64.0483 26.4618 67.3012 26.4618C67.3012 25.9004 67.3012 25.3391 67.3012 24.6482C66.8262 24.6482 66.3224 24.6626 65.8187 24.6482C65.0127 24.6194 64.4657 24.1013 64.4513 23.396C64.4225 22.6619 64.9983 22.0862 65.8475 22.0718C67.7474 22.0574 69.6329 22.0574 71.5328 22.0718C72.3676 22.1006 72.9002 22.6331 72.9002 23.3528C72.9146 24.1156 72.3676 24.6338 71.504 24.6626C71.0291 24.677 70.5397 24.6626 69.9784 24.6626C69.9784 25.0224 69.9784 25.3103 69.9784 25.5838C69.9784 25.8716 69.9784 26.1451 69.9784 26.6777C71.3601 26.5193 72.7131 26.5481 73.9221 26.1883C76.8008 25.3103 79.6219 24.2452 82.4574 23.252C82.6877 23.1657 82.918 23.0649 83.1626 22.9498C82.3278 21.9423 81.4211 21.4529 80.1832 22.1294C79.8378 22.3165 79.4348 22.4172 79.0318 22.4748C78.3409 22.6043 77.8227 22.3021 77.6068 21.6544C77.3765 20.9635 77.6068 20.3446 78.2833 20.0855C79.3484 19.6681 80.4423 19.2939 81.5506 19.0204C81.9248 18.934 82.4574 19.1356 82.8172 19.3658C83.8247 20.0423 84.7747 20.7764 85.7247 21.5248C86.0989 21.8271 86.4299 21.8847 86.8905 21.712C88.6177 21.0787 90.3449 20.4741 92.0865 19.8696C93.238 19.4666 93.569 19.5674 94.2887 20.5317C94.2887 36.7962 94.2887 53.0606 94.2887 69.3251C93.8713 69.9296 93.3819 70.4046 92.5759 70.1167C91.7842 69.8289 91.6547 69.1668 91.6979 68.4327C91.7123 68.2312 91.6979 68.0297 91.6979 67.8282C91.6979 53.1758 91.6979 38.509 91.6979 23.8566C91.6979 23.5255 91.6979 23.1801 91.6979 22.7771C91.3668 22.8778 91.1222 22.9642 90.8919 23.0361C85.7966 24.8209 80.7158 26.6201 75.6061 28.3473C74.7713 28.6352 74.541 28.995 74.5554 29.8586C74.5842 45.5473 74.5698 61.236 74.5698 76.9248C74.5698 77.2846 74.5698 77.6588 74.5698 78.0906C75.7645 78.0906 76.8728 78.0906 77.9954 78.0906C79.0605 76.6801 80.2696 75.3415 81.1044 73.8158C81.493 73.0961 81.1764 71.9735 81.1764 70.9371C80.3703 70.9371 79.6507 70.9515 78.9454 70.9371C77.3765 70.894 76.5705 70.0879 76.5705 68.5047C76.5561 62.9345 76.5561 57.3498 76.5705 51.7796C76.5705 50.2108 77.4053 49.3903 78.9742 49.3759C81.3059 49.3615 83.6232 49.3615 85.9549 49.3759C87.495 49.3903 88.3298 50.182 88.3442 51.7077C88.373 57.3354 88.373 62.9776 88.3442 68.6054C88.3442 70.1455 87.5382 70.9084 85.9693 70.9371C85.2641 70.9515 84.5444 70.9371 83.7672 70.9371C83.7672 71.9879 83.7528 72.9234 83.7816 73.8734C83.7816 74.0749 83.9255 74.3052 84.0694 74.4779C84.8898 75.5574 85.7103 76.6225 86.5451 77.6876C86.689 77.8747 86.9337 78.105 87.1352 78.105C88.6465 78.1338 90.1578 78.1194 91.7123 78.1194C91.7123 76.7952 91.7267 75.6006 91.7123 74.3915C91.6979 73.6575 91.7842 72.9954 92.5759 72.6931C93.3819 72.3909 93.8569 72.8802 94.3031 73.456C94.3031 75.5862 94.3031 77.7164 94.3031 79.8322C93.9145 80.4799 93.3531 80.7246 92.5903 80.7246C64.3074 80.7102 36.0245 80.7102 7.74159 80.7246C6.96435 80.7246 6.41741 80.4943 6.02879 79.8322C6.02879 64.2586 6.02879 48.6851 6.02879 33.0971C6.48937 32.5645 6.96435 32.0608 7.77038 32.3774C8.56201 32.6941 8.64837 33.3562 8.61959 34.0902C8.60519 34.2917 8.61959 34.4932 8.61959 34.6947C8.61959 48.8002 8.61959 62.9057 8.61959 77.0255C8.61959 77.3566 8.61959 77.702 8.61959 78.0618C14.3625 78.0618 20.0335 78.0618 25.7045 78.0618C25.7189 77.8316 25.7333 77.6588 25.7333 77.4861C25.7333 61.4807 25.7333 45.4753 25.7476 29.47C25.7476 28.8511 25.503 28.6352 24.9704 28.4624C21.3145 27.2102 17.6586 25.9292 14.0027 24.6482C12.2323 24.0293 10.4475 23.4104 8.60519 22.7627C8.60519 24.6338 8.5908 26.3754 8.60519 28.1314C8.61959 28.8798 8.50444 29.5419 7.71281 29.8154C6.92117 30.0745 6.40301 29.6427 6.01439 28.995C6 26.1595 6 23.3528 6 20.5317ZM38.2267 68.0585C37.9388 68.0153 37.6509 68.0729 37.507 67.9433C37.1472 67.5979 36.6002 67.1805 36.5858 66.7775C36.5714 66.3745 37.032 65.8707 37.4062 65.554C37.6221 65.3669 38.0683 65.4245 38.3994 65.4245C41.8826 65.4101 45.3514 65.4245 48.8345 65.4245C49.1368 65.4245 49.4391 65.3957 49.7701 65.3813C49.7701 63.3806 49.7557 61.4951 49.7701 59.5952C49.7845 58.6452 50.2451 58.1703 51.2094 58.1559C52.7351 58.1415 54.2608 58.1415 55.7721 58.1559C56.7077 58.1703 57.1683 58.6596 57.1971 59.624C57.2115 60.2573 57.1971 60.8906 57.1971 61.5239C57.1971 62.8049 57.1971 64.0859 57.1971 65.4389C57.9599 65.4389 58.622 65.4389 59.2697 65.4389C60.3348 65.4389 61.3999 65.4101 62.465 65.4677C63.2135 65.5109 63.746 66.0722 63.7173 66.7487C63.6885 67.4684 63.2998 67.9146 62.5658 68.0153C62.4075 68.0441 62.2347 68.0585 62.0332 68.0729C62.0332 71.4409 62.0332 74.7658 62.0332 78.1194C65.3293 78.1194 68.5966 78.1194 71.9071 78.1194C71.9071 61.7974 71.9071 45.5185 71.9071 29.2109C57.3554 29.2109 42.8613 29.2109 28.3384 29.2109C28.3384 45.5329 28.3384 61.8118 28.3384 78.1194C31.6489 78.1194 34.9162 78.1194 38.2123 78.1194C38.2267 74.737 38.2267 71.4409 38.2267 68.0585ZM40.9038 78.0906C47.0786 78.0906 53.1957 78.0906 59.3705 78.0906C59.3705 74.737 59.3705 71.4121 59.3705 68.0441C53.1957 68.0441 47.0786 68.0441 40.9038 68.0441C40.9038 71.4121 40.9038 74.7226 40.9038 78.0906ZM79.1757 68.3176C81.3635 68.3176 83.4937 68.3176 85.6815 68.3176C85.6815 62.8769 85.6815 57.465 85.6815 52.0387C83.4793 52.0387 81.3491 52.0387 79.1757 52.0387C79.1757 57.4794 79.1757 62.8625 79.1757 68.3176ZM54.5631 65.3669C54.5631 63.7549 54.5631 62.258 54.5631 60.7755C53.8002 60.7755 53.1094 60.7755 52.4329 60.7755C52.4329 62.3443 52.4329 63.8556 52.4329 65.3669C53.1669 65.3669 53.8434 65.3669 54.5631 65.3669ZM81.3635 78.0762C82.1407 78.0762 82.774 78.0762 83.5513 78.0762C83.1482 77.5581 82.8172 77.1407 82.4574 76.6801C82.0831 77.1551 81.7665 77.5581 81.3635 78.0762Z" fill="white"/>
<path d="M21.001 35.1849C21.001 36.2212 21.0154 37.2575 21.001 38.2795C20.9866 39.3734 20.526 39.8339 19.4177 39.8483C17.6617 39.8627 15.9201 39.8627 14.1642 39.8483C13.1134 39.8339 12.6385 39.3734 12.6241 38.3083C12.6097 36.2068 12.6097 34.1198 12.6241 32.0184C12.6385 30.9245 13.0703 30.4783 14.1354 30.4639C15.9201 30.4351 17.6905 30.4495 19.4753 30.4639C20.5692 30.4783 21.001 30.9389 21.0154 32.0759C21.001 33.1123 21.001 34.1486 21.001 35.1849ZM18.367 37.2144C18.367 35.8182 18.367 34.4796 18.367 33.1123C17.3019 33.1123 16.2944 33.1123 15.2437 33.1123C15.2437 34.5084 15.2437 35.847 15.2437 37.2144C16.2944 37.2144 17.2875 37.2144 18.367 37.2144Z" fill="white"/>
<path d="M16.8122 54.3561C16.035 54.3561 15.2577 54.3705 14.4805 54.3561C13.6601 54.3417 13.1275 53.838 13.0987 53.1183C13.07 52.4274 13.6169 51.8229 14.4085 51.7941C15.9918 51.7509 17.5607 51.7509 19.1439 51.7941C19.9644 51.8085 20.4681 52.3698 20.4681 53.0895C20.4681 53.838 19.9212 54.3417 19.0432 54.3561C18.3091 54.3705 17.5607 54.3561 16.8122 54.3561Z" fill="white"/>
<path d="M16.7337 49.6784C15.9852 49.6784 15.2368 49.6928 14.4883 49.6784C13.6679 49.664 13.1353 49.1602 13.1066 48.4406C13.0778 47.7353 13.6247 47.1308 14.402 47.1164C16.014 47.0732 17.6261 47.0732 19.2237 47.1164C20.0154 47.1452 20.5191 47.7641 20.4615 48.4837C20.4184 49.1746 19.9002 49.6496 19.1374 49.6784C18.3457 49.7072 17.5397 49.6784 16.7337 49.6784Z" fill="white"/>
<path d="M16.7119 59.0492C15.9634 59.0492 15.215 59.078 14.4809 59.0348C13.6605 58.9916 13.128 58.4734 13.1136 57.7682C13.0992 57.0629 13.6461 56.4872 14.4377 56.4728C16.021 56.444 17.5899 56.444 19.1732 56.4728C19.9936 56.4872 20.4973 57.0485 20.4829 57.7682C20.4685 58.459 19.9936 58.9628 19.2019 59.006C18.3815 59.078 17.5467 59.0492 16.7119 59.0492Z" fill="white"/>
<path d="M78.9283 40.3225C78.9283 39.2286 78.9139 38.1347 78.9283 37.0552C78.9427 36.1484 79.4033 35.659 80.31 35.6446C82.1812 35.6159 84.0379 35.6159 85.909 35.6446C86.8302 35.659 87.2908 36.1196 87.3052 37.0408C87.334 39.2286 87.334 41.402 87.3052 43.5898C87.2908 44.5397 86.787 45.0003 85.8371 45.0147C84.0235 45.0291 82.2243 45.0291 80.4108 45.0147C79.4176 45.0003 78.9427 44.5253 78.9283 43.5178C78.9139 42.4527 78.9283 41.3876 78.9283 40.3225ZM81.5766 38.2642C81.5766 39.6748 81.5766 41.0277 81.5766 42.3807C82.6418 42.3807 83.6349 42.3807 84.6424 42.3807C84.6424 40.9846 84.6424 39.6316 84.6424 38.2642C83.5773 38.2642 82.5986 38.2642 81.5766 38.2642Z" fill="white"/>
<path d="M45.9403 36.464C43.3351 36.464 40.8738 36.464 38.3262 36.464C38.3262 39.5873 38.3262 42.6963 38.3262 45.8484C40.8163 45.8484 43.3063 45.8484 45.9403 45.8484C45.9403 45.3446 45.9259 44.8409 45.9403 44.3371C45.9835 43.5023 46.4728 42.9841 47.1781 42.9697C47.8978 42.9553 48.4591 43.4591 48.4879 44.2795C48.5311 45.2583 48.5311 46.237 48.4879 47.2014C48.4447 47.993 47.9841 48.4824 47.1493 48.4824C43.7669 48.4968 40.3701 48.4968 36.9876 48.4824C36.1816 48.4824 35.6778 47.993 35.6778 47.187C35.6491 43.2 35.6491 39.1987 35.6778 35.2117C35.6778 34.3769 36.196 33.8732 37.0596 33.8732C40.4132 33.8444 43.7813 33.8444 47.1349 33.8732C47.9841 33.8732 48.4735 34.3769 48.5023 35.2261C48.5455 36.5503 48.5455 37.8745 48.5023 39.1843C48.4735 40.0191 47.9553 40.5373 47.2357 40.5373C46.4872 40.5517 45.9691 40.0191 45.9403 39.1267C45.9115 38.2631 45.9403 37.4139 45.9403 36.464Z" fill="white"/>
<path d="M59.358 38.2942C58.1778 38.2942 57.0119 38.3086 55.8317 38.2942C54.9105 38.2798 54.3492 37.7473 54.3636 36.97C54.3779 36.2216 54.9249 35.7178 55.8029 35.7178C58.2354 35.7034 60.6822 35.7034 63.1147 35.7178C64.0215 35.7178 64.6116 36.2792 64.5972 37.042C64.5684 37.7761 64.0071 38.2798 63.1435 38.2942C61.8769 38.2942 60.6247 38.2942 59.358 38.2942Z" fill="white"/>
<path d="M59.4444 42.4505C58.2354 42.4505 57.0407 42.4649 55.8317 42.4505C54.8961 42.4361 54.3492 41.9323 54.3636 41.1407C54.378 40.3922 54.9393 39.8885 55.8029 39.8741C58.2354 39.8597 60.6678 39.8597 63.1147 39.8741C64.0215 39.8741 64.6116 40.4354 64.5972 41.1983C64.5828 41.9323 64.0215 42.4361 63.1435 42.4505C61.9057 42.4649 60.6822 42.4505 59.4444 42.4505Z" fill="white"/>
<path d="M59.4588 46.6263C58.2785 46.6263 57.1127 46.6407 55.9324 46.6263C54.9105 46.6119 54.3492 46.1369 54.3636 45.3309C54.3779 44.5536 54.9249 44.0499 55.8748 44.0499C58.2785 44.0355 60.6822 44.0355 63.0859 44.0499C64.0071 44.0643 64.5972 44.6112 64.5828 45.3597C64.5684 46.1225 63.9927 46.6119 63.0571 46.6263C61.8769 46.6407 60.6678 46.6263 59.4588 46.6263Z" fill="white"/>
<path d="M82.4261 55.9539C82.167 55.9395 81.908 55.9539 81.6633 55.8964C81.0156 55.7812 80.6557 55.3782 80.627 54.7161C80.5982 54.0684 80.886 53.5646 81.5337 53.4495C82.0807 53.3487 82.6708 53.3343 83.2322 53.4063C83.9518 53.5071 84.326 54.0108 84.2829 54.7449C84.2397 55.4358 83.8223 55.8244 83.1314 55.9107C82.9011 55.9395 82.6708 55.9107 82.4405 55.9107C82.4261 55.9251 82.4261 55.9395 82.4261 55.9539Z" fill="white"/>
<path d="M82.2863 59.6679C82.0992 59.6391 81.7106 59.6247 81.3795 59.4951C80.8038 59.2792 80.4583 58.7611 80.6742 58.1997C80.8326 57.7679 81.2644 57.3217 81.6818 57.1202C82.056 56.9331 82.5742 57.0483 83.0347 57.0771C83.7688 57.1058 84.2006 57.5233 84.287 58.2429C84.3733 58.9338 83.8983 59.4951 83.1643 59.6247C82.934 59.6535 82.6893 59.6391 82.2863 59.6679Z" fill="white"/>
<path d="M82.4451 60.7051C82.733 60.7339 83.0209 60.7051 83.2943 60.777C83.942 60.9642 84.3163 61.4104 84.2731 62.1012C84.2299 62.7921 83.8125 63.1951 83.136 63.2815C82.7474 63.3247 82.33 63.3103 81.9414 63.2959C81.1353 63.2527 80.6316 62.7633 80.6172 62.0149C80.6172 61.2808 81.121 60.777 81.927 60.7195C82.0997 60.7051 82.2724 60.7195 82.4451 60.7195V60.7051Z" fill="white"/>
<path d="M82.4424 66.9948C81.1614 66.9948 80.5713 66.5342 80.6288 65.613C80.6864 64.7638 81.2621 64.404 82.5431 64.4184C83.6658 64.4328 84.2416 64.8214 84.2847 65.6418C84.3279 66.5342 83.709 66.9948 82.4424 66.9948Z" fill="white"/>
</svg>
