<svg width="500" height="500" viewBox="0 0 500 500" fill="none" xmlns="http://www.w3.org/2000/svg">
<path d="M440 249.5C440 274.517 435.073 299.289 425.499 322.401C415.926 345.514 401.893 366.514 384.204 384.204C366.514 401.893 345.514 415.926 322.401 425.499C299.289 435.073 274.517 440 249.5 440C198.976 440 150.522 419.93 114.796 384.204C79.0705 348.478 59 300.024 59 249.5C59 198.976 79.0705 150.522 114.796 114.796C150.522 79.0705 198.976 59 249.5 59C274.517 59 299.289 63.9274 322.401 73.501C345.514 83.0745 366.514 97.1066 384.204 114.796C401.893 132.486 415.926 153.486 425.499 176.599C435.073 199.711 440 224.483 440 249.5ZM255.665 378.169C260.258 380.707 262.327 385.313 262.272 390.472C262.171 397.938 262.152 405.492 262.217 413.133C262.226 413.721 262.525 413.988 263.113 413.932C324.558 408.181 375.645 371.383 400.775 315.096C407.68 299.649 412.066 282.294 413.933 263.03C413.988 262.488 413.744 262.212 413.201 262.203C406.36 262.157 398.807 262.171 390.541 262.244C377.121 262.354 370.928 246.714 382.458 238.742C384.527 237.308 387.87 236.627 392.485 236.701C400.034 236.839 407.009 236.848 413.408 236.728C413.481 236.729 413.552 236.714 413.619 236.685C413.685 236.656 413.745 236.614 413.794 236.56C413.844 236.507 413.881 236.445 413.905 236.376C413.929 236.308 413.938 236.235 413.933 236.163C409.257 179.407 376.169 130.403 326.31 103.618C307.203 93.3476 286.151 87.1732 263.154 85.0951C262.538 85.04 262.226 85.3204 262.217 85.9365C262.18 93.1729 262.189 100.754 262.244 108.68C262.382 127.093 236.411 127.245 236.659 107.659C236.77 99.6139 236.788 92.2718 236.715 85.633C236.705 85.1825 236.48 84.9756 236.039 85.0124C221.75 86.364 208.316 89.2144 195.737 93.5636C133.796 114.983 90.4466 171.256 85.0676 236.218C85.04 236.595 85.2147 236.783 85.5917 236.783C93.4533 236.774 101.292 236.779 109.108 236.797C127.024 236.839 126.679 262.451 108.928 262.258C100.579 262.166 92.7315 262.157 85.3848 262.23C85.3365 262.232 85.289 262.243 85.2453 262.263C85.2015 262.283 85.1624 262.311 85.1302 262.346C85.098 262.381 85.0734 262.422 85.0579 262.466C85.0424 262.51 85.0363 262.556 85.04 262.603C88.2674 299.966 103.784 335.785 129.851 362.901C157.142 391.285 190.473 408.089 229.846 413.312C231.887 413.588 233.942 413.772 236.011 413.864C236.452 413.882 236.678 413.67 236.687 413.229C236.825 406.94 236.806 400.067 236.632 392.609C236.54 388.784 237.082 385.732 238.259 383.451C241.542 377.093 249.224 374.597 255.665 378.169Z" fill="white"/>
<path d="M229.577 254.065C189.058 242.389 168.781 236.546 168.744 236.537C164.924 235.634 163.411 233.13 164.205 229.025C164.214 228.943 164.237 228.856 164.274 228.765C165.704 224.861 168.522 223.506 172.729 224.701C192.444 230.284 211.975 235.834 231.321 241.353C231.838 241.499 232.239 241.344 232.525 240.888C239.859 228.888 254.666 228.067 264.187 238.425C264.501 238.763 264.865 238.835 265.28 238.644C301.592 221.403 338.107 204.094 374.825 186.717C382.533 183.064 388.152 194.366 380.001 198.224C342.923 215.802 305.896 233.376 268.92 250.945C268.712 251.042 268.531 251.189 268.393 251.373C268.255 251.556 268.165 251.771 268.131 251.998C265.059 272.673 237.009 275.396 230.684 255.159C230.509 254.594 230.14 254.229 229.577 254.065Z" fill="white"/>
</svg>
