<svg width="500" height="500" viewBox="0 0 500 500" fill="none" xmlns="http://www.w3.org/2000/svg">
<path d="M383.918 228.518C395.732 227.558 406.742 228.925 416.948 232.618C454.148 246.068 474.428 285.258 460.628 323.108C451.998 346.748 430.148 363.718 405.788 368.418C400.882 369.365 394.482 369.835 386.588 369.828C344.448 369.782 302.838 369.772 261.758 369.798C261.238 369.798 261.192 369.648 261.618 369.348C273.005 361.288 280.482 350.955 284.048 338.348C289.318 319.718 283.768 299.708 270.308 286.108C259.135 274.828 245.242 269.012 228.628 268.658C228.262 268.652 228.072 268.465 228.058 268.098C227.118 245.998 218.212 227.968 201.338 214.008C201.052 213.768 200.928 213.462 200.968 213.088C202.762 196.982 207.995 182.622 216.668 170.008C244.438 129.608 297.668 118.008 339.648 143.488C351.958 150.958 362.898 162.108 370.348 174.658C379.955 190.832 384.278 208.592 383.318 227.938C383.298 228.365 383.498 228.558 383.918 228.518Z" fill="white"/>
<path d="M97.7557 269.119C98.2757 251.199 105.526 235.229 118.786 223.589C143.256 202.119 180.256 204.479 202.126 228.439C212.499 239.806 217.832 253.489 218.126 269.489C218.186 272.639 217.716 275.829 217.596 278.989C217.576 279.429 217.782 279.619 218.216 279.559C220.529 279.246 222.906 279.013 225.346 278.859C242.816 277.739 259.416 285.649 268.916 300.179C278.976 315.559 278.366 334.939 267.636 349.769C260.789 359.229 251.439 365.363 239.586 368.169C235.706 369.089 230.516 369.543 224.016 369.529C175.049 369.423 129.709 369.416 87.9957 369.509C72.1623 369.549 59.189 364.033 49.0757 352.959C30.5557 332.699 31.9057 300.959 51.8757 282.289C61.8157 272.996 73.759 268.476 87.7057 268.729C90.7657 268.789 93.8557 269.309 96.9657 269.779C97.4723 269.853 97.7357 269.633 97.7557 269.119Z" fill="white"/>
</svg>
