<svg width="500" height="500" viewBox="0 0 500 500" fill="none" xmlns="http://www.w3.org/2000/svg">
<path d="M161.819 82.8871C251.496 39.4115 355.885 83.3255 390.576 175.146C400.065 200.242 403.531 230.895 399.077 258.261C392.793 296.941 376.001 329.202 348.702 355.044C319.154 383.015 283.736 398.248 242.447 400.743C231.908 401.39 220.909 400.816 209.449 399.021C130.029 386.59 72.1728 320.273 68.2049 241.087C64.88 174.926 102.269 111.756 161.819 82.8871ZM143.156 342.128C151.813 349.627 164.218 357.518 175.714 359.772C177.764 360.169 178.13 359.553 176.812 357.925C176.373 357.372 175.866 356.897 175.291 356.5C168.275 351.553 161.5 346.569 154.965 341.549C131.142 323.263 113.671 298.308 105.782 269.392C92.2475 219.764 107.335 167.74 145.555 132.891C152.038 126.984 159.001 121.176 166.446 115.466C167.836 114.391 169.023 113.186 170.006 111.85C170.988 110.524 170.675 110.044 169.065 110.41C165.133 111.307 161.443 112.742 157.992 114.715C146.888 121.082 137.463 128.664 129.715 137.463C106.817 163.482 94.5948 193.557 93.0474 227.686C91.0399 271.772 109.985 313.4 143.156 342.128ZM363.256 292.484C378.448 258.136 380.137 222.958 368.322 186.95C359.9 161.259 342.115 135.74 318.7 119.787C314.559 116.969 310.304 114.918 305.933 113.635C303.748 112.998 303.325 113.598 304.663 115.435C305.332 116.343 306.085 117.157 306.921 117.877C314.429 124.338 321.178 130.538 327.169 136.476C376.587 185.416 382.076 261.956 339.135 316.86C328.972 329.854 316.3 340.344 303.487 350.77C302.462 351.616 301.526 352.565 300.679 353.619C299.404 355.227 299.765 355.79 301.762 355.31C306.393 354.183 311.109 352.075 315.908 348.985C336.83 335.537 353.595 314.308 363.256 292.484ZM219.989 178.997C219.832 213.335 219.847 249.504 220.036 287.506C220.098 299.138 218.593 307.107 205.607 309.001C197.755 310.139 189.474 311.026 180.764 311.662C180.649 311.67 180.542 311.722 180.463 311.806C180.384 311.89 180.341 312.001 180.341 312.116L180.357 322.888C180.357 323.138 180.482 323.263 180.733 323.263H288.838C289.089 323.263 289.215 323.143 289.215 322.903V312.038C289.215 311.861 289.126 311.762 288.948 311.741C283.281 311.261 277.212 310.473 270.74 309.377C259.62 307.482 251.732 302.927 251.7 290.621C251.591 243.701 250.916 193.369 252.986 144.68C253.018 144.012 252.699 143.678 252.03 143.678H240.973C240.325 143.678 239.765 143.902 239.295 144.351C222.984 160.022 202.439 165.549 180.278 163.952C179.944 163.931 179.776 164.088 179.776 164.422V177.337C179.776 177.454 179.823 177.565 179.905 177.647C179.987 177.73 180.099 177.776 180.216 177.776L218.75 177.76C219.576 177.76 219.989 178.172 219.989 178.997Z" fill="white"/>
<path d="M412.653 179.864C413.298 181.104 413.044 181.329 411.892 180.538L404.206 175.277C403.667 174.903 403.286 174.401 403.064 173.77C400.106 165.345 396.614 157.23 392.588 149.424C391.669 147.639 391.827 147.532 393.064 149.104C400.333 158.309 406.863 168.563 412.653 179.864Z" fill="white"/>
<path d="M423.142 204.318C427.172 217.157 429.787 229.762 430.987 242.133C431.071 243.037 430.737 243.234 429.985 242.725L414.514 232.239C413.992 231.886 413.721 231.403 413.7 230.79C413.335 218.253 411.785 205.575 409.049 192.757C408.882 191.957 409.138 191.791 409.817 192.259L420.981 199.893C421.409 200.184 421.728 200.563 421.937 201.031C422.375 202.08 422.777 203.176 423.142 204.318Z" fill="white"/>
<path d="M406.021 288.66C410.356 274.217 412.965 259.794 413.849 245.393C413.852 245.319 413.875 245.248 413.914 245.186C413.954 245.124 414.009 245.074 414.073 245.042C414.138 245.009 414.21 244.995 414.281 245.001C414.353 245.007 414.422 245.033 414.48 245.076L431.229 256.812C431.753 257.183 432.01 257.69 432 258.335C431.918 273.476 430.146 288.131 426.684 302.3C426.499 303.04 426.103 303.193 425.497 302.76L406.222 289.231C406.133 289.171 406.065 289.083 406.029 288.98C405.993 288.877 405.99 288.765 406.021 288.66Z" fill="white"/>
<path d="M409.176 345.622C408.941 346.038 408.621 346.11 408.215 345.84L386.51 331.451C385.954 331.087 385.853 330.625 386.205 330.065C391.758 321.188 396.687 311.704 400.991 301.612C401.268 300.958 401.706 300.828 402.304 301.223L422.392 314.538C422.958 314.912 423.129 315.41 422.905 316.033C419.177 326.197 414.601 336.06 409.176 345.622Z" fill="white"/>
<path d="M379.892 340.092L401.631 354.986C401.723 355.05 401.802 355.131 401.863 355.224C401.924 355.318 401.966 355.423 401.986 355.532C402.006 355.641 402.005 355.753 401.981 355.861C401.958 355.969 401.913 356.071 401.849 356.161C395.387 365.537 388.115 374.401 380.032 382.753C379.901 382.89 379.728 382.975 379.542 382.995C379.357 383.016 379.171 382.969 379.019 382.863L356.236 367.233C356.171 367.188 356.116 367.13 356.075 367.061C356.035 366.993 356.01 366.917 356.002 366.839C355.995 366.761 356.005 366.682 356.032 366.61C356.059 366.537 356.102 366.472 356.158 366.419C364.625 358.233 372.303 349.494 379.191 340.202C379.271 340.097 379.389 340.027 379.52 340.006C379.65 339.986 379.784 340.017 379.892 340.092Z" fill="white"/>
<path d="M315.166 395.9C326.661 389.762 337.237 382.841 346.896 375.137C347.003 375.051 347.136 375.003 347.276 375C347.416 374.997 347.556 375.04 347.674 375.121L370.721 390.921C370.803 390.978 370.871 391.053 370.919 391.141C370.967 391.228 370.995 391.325 370.999 391.424C371.004 391.523 370.985 391.621 370.945 391.71C370.905 391.8 370.844 391.878 370.768 391.938C361.182 399.872 351.082 406.824 340.469 412.795C339.95 413.088 339.442 413.067 338.944 412.733L315.135 396.417C315.091 396.388 315.055 396.348 315.032 396.301C315.008 396.254 314.997 396.202 315.001 396.149C315.004 396.097 315.021 396.046 315.05 396.002C315.079 395.958 315.119 395.923 315.166 395.9Z" fill="white"/>
<path d="M150.158 394.467C160.4 399.619 171.095 404.093 182.245 407.166C185.382 408.03 188.27 409.36 190.907 411.158C197.788 415.848 204.887 420.538 212.205 425.228C213.352 425.961 213.258 426.172 211.924 425.861C209.932 425.409 207.926 424.861 205.903 424.219C185.21 417.611 166.54 407.824 149.892 394.858C148.62 393.864 148.709 393.734 150.158 394.467Z" fill="white"/>
<path d="M269.283 410.908C280.347 408.417 291.001 405.225 301.071 401.138C301.661 400.904 302.218 400.968 302.745 401.33L326.783 417.884C326.858 417.938 326.917 418.011 326.954 418.096C326.992 418.181 327.007 418.274 326.997 418.367C326.988 418.459 326.954 418.547 326.9 418.622C326.846 418.697 326.773 418.756 326.689 418.794C316.545 423.051 306.17 426.435 295.563 428.947C295.005 429.074 294.484 428.973 294 428.643L269.156 411.546C269.099 411.508 269.054 411.453 269.027 411.388C269 411.324 268.993 411.253 269.007 411.184C269.02 411.115 269.054 411.052 269.103 411.003C269.152 410.954 269.215 410.921 269.283 410.908Z" fill="white"/>
<path d="M239.947 431.104C231.636 425.252 223.419 419.448 215.471 413.629C214.777 413.128 214.85 412.926 215.691 413.024C227.772 414.386 239.563 414.43 251.065 413.155C251.759 413.079 252.39 413.242 252.958 413.645L277.419 430.924C278.27 431.524 278.186 431.878 277.166 431.987C266.064 433.218 254.709 433.327 243.101 432.314C242.018 432.226 240.967 431.823 239.947 431.104Z" fill="white"/>
</svg>
