<svg width="100" height="100" viewBox="0 0 100 100" fill="none" xmlns="http://www.w3.org/2000/svg">
<path d="M20 7V14.5522H22.5119V9.51187H78.0058V82.9216H72.9655V85.4335H80.5177V7H20Z" fill="white"/>
<path d="M67.9414 82.9375H70.4533V85.4494H67.9414V82.9375Z" fill="white"/>
<path d="M32.5898 37.2422H67.939V39.7541H32.5898V37.2422Z" fill="white"/>
<path d="M27.5508 43.5469H72.964V46.0587H27.5508V43.5469Z" fill="white"/>
<path d="M49.6523 64.9551H72.3922V67.4669H49.6523V64.9551Z" fill="white"/>
<path d="M27.5508 56.1367H72.964V58.6486H27.5508V56.1367Z" fill="white"/>
<path d="M27.5508 49.834H72.964V52.3459H27.5508V49.834Z" fill="white"/>
<path d="M72.9844 17.0801H75.4962V19.5919H72.9844V17.0801Z" fill="white"/>
<path d="M72.9844 12.0391H75.4962V14.5509H72.9844V12.0391Z" fill="white"/>
<path d="M53.315 15.8164H47.2267L43.9662 19.0768V20.8568H30.1094V23.3686H43.9662V25.1486L47.2267 28.409H53.315L56.5755 25.1486V23.3853H70.4323V20.8568H56.5755V19.0768L53.315 15.8164ZM54.047 24.1172L52.267 25.8971H48.2747L46.4947 24.1172V20.1248L48.2747 18.3449H52.267L54.047 20.1248V24.1172Z" fill="white"/>
<path d="M41.4257 77.7641C42.9894 76.1672 43.9376 74.0046 43.9376 71.5926C43.9376 66.7352 39.9785 62.7761 35.1211 62.7761C30.2637 62.7761 26.3046 66.7352 26.3046 71.5926C26.3046 73.988 27.2694 76.1672 28.8165 77.7641V82.9376H22.5119V17.0801H20V85.4494H28.8165V93.0183L35.1211 89.8743L41.4257 93.0183V85.4494H65.4132V82.9376H41.4257V77.7641ZM35.1211 65.288C38.5978 65.288 41.4257 68.1159 41.4257 71.5926C41.4257 75.0693 38.5978 77.8972 35.1211 77.8972C31.6444 77.8972 28.8165 75.0693 28.8165 71.5926C28.8165 68.1159 31.6444 65.288 35.1211 65.288ZM35.1211 87.063L31.345 88.9594V79.5773C32.4928 80.1263 33.7737 80.4257 35.1211 80.4257C36.4685 80.4257 37.7494 80.1263 38.8972 79.5773V88.9594L35.1211 87.063Z" fill="white"/>
<path d="M33.8555 70.332H36.3673V72.8439H33.8555V70.332Z" fill="white"/>
</svg>
