<svg width="100" height="100" viewBox="0 0 100 100" fill="none" xmlns="http://www.w3.org/2000/svg">
<path d="M56.2448 52.8479C56.2231 52.2188 56.0495 51.6113 55.7024 51.0256L57.9153 49.7022C58.4793 50.6568 58.7831 51.6981 58.8047 52.7611L56.2448 52.8479ZM53.9451 49.3117C53.3594 48.9429 52.6868 48.6392 51.9492 48.4656L52.6001 45.9707C53.5763 46.231 54.4875 46.6215 55.3119 47.1422L53.9451 49.3117Z" fill="white"/>
<path d="M93.7985 12H24.05V14.5817H91.2385V74.6977H58.6097V72.116H84.2528V70.836C84.2528 69.1222 85.6629 67.712 87.3768 67.712H88.6568V21.5457H87.3768C85.6629 21.5457 84.2528 20.1355 84.2528 18.4216V17.1416H15.5457V18.4216C15.5457 20.1355 14.1355 21.5457 12.4216 21.5457H11.1416V67.6903H12.4216C14.1355 67.6903 15.5457 69.1005 15.5457 70.8143V72.0943H41.1888V74.676H8.58167V14.5817H16.3484V12H6V77.2577H41.1888V88.5389L49.8884 83.3973L58.588 88.5389V77.2577H93.7768V12H93.7985ZM38.4336 52.9596C38.4336 46.6247 43.5752 41.4831 49.9101 41.4831C56.2449 41.4831 61.3866 46.6247 61.3866 52.9596C61.3866 59.2945 56.2449 64.4361 49.9101 64.4361C43.5752 64.4361 38.4336 59.2945 38.4336 52.9596ZM17.9755 69.5344C17.4765 67.43 15.8277 65.7595 13.7233 65.2822V23.9755C15.8277 23.4982 17.4982 21.8277 17.9755 19.7233H81.823C82.322 21.8277 83.9708 23.4982 86.0751 23.9755V65.2822C83.9708 65.7812 82.3003 67.43 81.823 69.5344H58.6097V63.9805C61.8639 61.3988 63.9682 57.4287 63.9682 52.9596C63.9682 45.2146 57.6551 38.9014 49.9101 38.9014C42.1651 38.9014 35.8519 45.2146 35.8519 52.9596C35.8519 57.4287 37.9563 61.3988 41.2105 63.9805V69.5344H17.9755ZM49.9101 80.4034L43.7705 84.0264V65.5859C47.6321 67.4734 52.1663 67.4734 56.028 65.5859V84.0264L49.9101 80.4034Z" fill="white"/>
<path d="M18.9062 12H21.4879V14.5817H18.9062V12Z" fill="white"/>
<path d="M63.1016 32.1973H73.5584V34.7789H63.1016V32.1973Z" fill="white"/>
<path d="M26.2422 32.1973H60.5415V34.7789H26.2422V32.1973Z" fill="white"/>
<path d="M31.8164 24.9961H68.0032V27.5778H31.8164V24.9961Z" fill="white"/>
<path d="M69.8359 51.6543H82.0718V54.236H69.8359V51.6543Z" fill="white"/>
<path d="M66.9688 58.8379H82.0683V61.4196H66.9688V58.8379Z" fill="white"/>
<path d="M17.7383 51.6543H29.9741V54.236H17.7383V51.6543Z" fill="white"/>
<path d="M17.7383 58.8379H32.8378V61.4196H17.7383V58.8379Z" fill="white"/>
</svg>
