<svg width="100" height="100" viewBox="0 0 100 100" fill="none" xmlns="http://www.w3.org/2000/svg">
<path d="M37.9431 34.1061L33.6288 32.2702L32.8026 30.8199C33.5553 30.3609 34.253 29.8102 34.9139 29.1492C36.7681 27.2767 37.888 24.9267 37.888 22.8338L37.7778 8H26.4505C21.5855 8 17.6383 11.9471 17.6383 16.8122V22.8522C17.6383 24.9267 18.7399 27.295 20.6124 29.1492C21.2734 29.8102 21.971 30.3609 22.7237 30.8199L21.8976 32.2702L17.5833 34.1061C14.0951 35.5932 12.2592 36.7681 11.837 40.2379H8V47.7099H10.4968V52.6851H12.9936V47.7099H42.5695V76.6616L40.3481 85.5289H15.1966L12.9752 76.6616V55.1819H10.4968V76.9553L12.6448 85.5105H9.24839V92.9825H46.2963V85.5105H42.9183L45.0663 76.9553V47.7099H47.563V40.2379H43.7261C43.2855 36.7681 41.4496 35.5932 37.9431 34.1061ZM43.7995 90.5041H11.7268V88.0073H43.7995V90.5041ZM41.1926 40.2379H29.9754L33.2616 34.8221L36.9701 36.4009C39.8524 37.631 40.8805 38.2735 41.1926 40.2379ZM26.4505 10.4968H35.2994L35.3545 17.6567L27.9376 15.5822H20.2636C20.8511 12.6815 23.403 10.4968 26.4505 10.4968ZM20.1351 22.8522V18.0606H27.5888L35.3729 20.2453L35.3912 22.8706C35.3912 26.7075 30.7832 29.8285 27.7723 29.8285C23.5498 29.8102 20.1351 25.606 20.1351 22.8522ZM27.7723 32.3069C28.7086 32.3069 29.6449 32.1601 30.5445 31.8663L31.3156 33.2249L27.7723 39.0813L24.2291 33.2249L25.0002 31.8663C25.8998 32.1601 26.836 32.3069 27.7723 32.3069ZM18.5563 36.4009L22.2647 34.8221L25.5509 40.2379H14.3338C14.6459 38.2735 15.6739 37.631 18.5563 36.4009ZM45.0479 45.2131H10.4968V42.7163H45.0479V45.2131Z" fill="white"/>
<path d="M71.9844 90.502H74.4812V92.9987H71.9844V90.502Z" fill="white"/>
<path d="M90.5022 47.7099H92.999V40.2379H89.162C88.7398 36.7681 86.9039 35.5932 83.4157 34.1061L79.1014 32.2702L78.2753 30.8199C79.028 30.3609 79.7256 29.8102 80.3865 29.1492C82.2408 27.2767 83.3606 24.9267 83.3606 22.8522V16.8122C83.3606 11.9471 79.4135 8 74.5485 8H71.9232C67.0581 8 63.111 11.9471 63.111 16.8122V22.8522C63.111 24.9267 64.2125 27.295 66.0851 29.1492C66.746 29.8102 67.4436 30.3609 68.1963 30.8199L67.3702 32.2702L63.0559 34.1061C59.5677 35.5932 57.7319 36.7681 57.3096 40.2379H53.4727V47.7099H55.9694V76.9553L58.1174 85.5105H54.7394V92.9825H69.5182V90.4857H57.2178V87.9889H89.2722V90.4857H76.9718V92.9825H91.7506V85.5105H88.3726L90.5206 76.9553L90.5022 47.7099ZM86.6469 40.2379H75.4297L78.7159 34.8221L82.4244 36.4009C85.3067 37.631 86.3531 38.2735 86.6469 40.2379ZM71.9232 10.4968H74.5485C78.0366 10.4968 80.8639 13.324 80.8639 16.8122V17.6567L73.245 15.5087L65.6261 17.6567V16.8122C65.6078 13.324 68.435 10.4968 71.9232 10.4968ZM65.6078 22.8522V20.2453L73.2266 18.0973L80.8455 20.2453V22.8522C80.8455 26.6892 76.2375 29.8102 73.2266 29.8102C69.0225 29.8102 65.6078 25.606 65.6078 22.8522ZM73.2266 32.3069C74.1629 32.3069 75.0992 32.1601 75.9988 31.8663L76.7699 33.2249L73.2266 39.0813L69.6834 33.2249L70.4545 31.8663C71.354 32.1601 72.2903 32.3069 73.2266 32.3069ZM64.0289 36.4009L67.7374 34.8221L71.0236 40.2379H59.8064C60.1185 38.2735 61.1466 37.631 64.0289 36.4009ZM55.9511 42.7347H90.5022V45.2315H55.9511V42.7347ZM60.6509 85.5289L58.4295 76.6616V47.7099H88.0054V76.6616L85.784 85.5289H60.6509Z" fill="white"/>
<path d="M37.5742 55.1797H40.071V57.6765H37.5742V55.1797Z" fill="white"/>
<path d="M83.0352 55.1797H85.5319V57.6765H83.0352V55.1797Z" fill="white"/>
<path d="M37.5742 50.207H40.071V52.7038H37.5742V50.207Z" fill="white"/>
<path d="M83.0352 50.207H85.5319V52.7038H83.0352V50.207Z" fill="white"/>
<path d="M67.0078 56.6504V75.3212H69.5046V69.0976H80.2261L77.1051 62.874L80.2261 56.6504H67.0078ZM69.5046 66.6192V59.1472H76.2055L74.3329 62.874L76.2055 66.6008H69.5046V66.6192Z" fill="white"/>
<path d="M21.5469 56.6504V75.3212H24.0437V69.0976H34.7652L31.6442 62.874L34.7652 56.6504H21.5469ZM30.7262 66.6192H24.0253V59.1472H30.7262L28.8536 62.874L30.7262 66.6192Z" fill="white"/>
</svg>
