<svg width="100" height="100" viewBox="0 0 100 100" fill="none" xmlns="http://www.w3.org/2000/svg">
<path d="M53.7875 80.5571V72.7683C70.2028 70.879 83 56.9055 83 39.9911C83 32.9687 80.8434 26.3027 76.744 20.6527L82.3405 15.0562L74.926 7.65947L69.3295 13.256C63.6795 9.15663 57.0135 7 49.9911 7C40.7942 7 31.936 10.8855 25.6978 17.6762L27.5514 19.3873C33.3084 13.1312 41.4893 9.53092 49.9911 9.53092C56.354 9.53092 62.3783 11.438 67.5115 15.074L62.0397 20.5458C58.4216 18.3 54.2687 17.1059 49.9733 17.1059C37.3543 17.1059 27.088 27.3721 27.088 39.9911C27.088 52.61 37.3543 62.8763 49.9733 62.8763C54.9103 62.8763 59.5979 61.3257 63.5547 58.4026L62.0575 56.3708C58.5463 58.973 54.3578 60.3454 49.9733 60.3454C38.7445 60.3454 29.6011 51.202 29.6011 39.9733C29.6011 28.7445 38.7624 19.619 49.9911 19.619C50.0624 19.619 50.1337 19.619 50.2228 19.619L49.6703 27.1939C42.7726 27.3721 37.2117 33.04 37.2117 39.9733C37.2117 42.8785 38.2098 45.7124 40.0278 47.976L41.9884 46.3897C40.509 44.5539 39.7248 42.326 39.7248 39.9733C39.7248 34.4837 44.0559 29.9922 49.4742 29.7248L48.6187 41.3457L60.2395 40.4901C59.9722 45.9085 55.4807 50.2395 49.9911 50.2395C47.6206 50.2395 45.4105 49.4553 43.5747 47.976L41.9884 49.9365C44.252 51.7545 47.0859 52.7526 49.9911 52.7526C56.9422 52.7526 62.5922 47.1917 62.7705 40.2941L70.3454 39.7416C70.3454 39.8129 70.3454 39.8841 70.3454 39.9733C70.3454 45.6767 68.0462 50.9525 63.8933 54.838L65.6222 56.6738C70.2385 52.3605 72.8763 46.2649 72.8763 39.9554C72.8763 35.66 71.6822 31.5072 69.4364 27.889L74.9082 22.4172C78.5442 27.5682 80.4513 33.5925 80.4513 39.9376C80.4513 56.7451 66.7807 70.3978 49.9911 70.3978C33.2015 70.3978 19.5309 56.7985 19.5309 39.9911C19.5309 33.04 21.8123 26.4988 26.1078 21.0805L24.1294 19.512C19.4596 25.3937 17 32.4696 17 39.9911C17 56.9055 29.7972 70.879 46.2125 72.7683V80.5571H30.6884L26.3751 86.4567V93.1761H36.7127V90.6452H28.906V87.2765L31.9716 83.0702H46.2125V85.8328H43.6816V88.3638H56.3006V85.8328H53.7696V83.0702H68.0105L71.0762 87.2765V90.6452H39.2436V93.1761H73.6071V86.4567L69.2938 80.5571H53.7875ZM60.2217 22.3816L56.9422 25.6611L50.9179 19.6546C54.2152 19.7972 57.3878 20.724 60.2217 22.3816ZM51.3635 38.6187L52.3794 24.6808L56.9244 29.2258L74.926 11.2241L78.7402 15.0383L60.7386 33.04L65.2836 37.5849L51.3635 38.6187ZM70.3454 39.0643L64.3389 33.0578L67.6184 29.7783C69.2582 32.5944 70.185 35.7669 70.3454 39.0643ZM48.7256 85.8507V72.9643C49.1534 72.9822 49.5633 72.9822 49.9911 72.9822C50.4189 72.9822 50.8288 72.9643 51.2565 72.9643V85.8507H48.7256Z" fill="white"/>
<path d="M65.1406 85.5996H67.6715V88.1305H65.1406V85.5996Z" fill="white"/>
</svg>
