<svg width="100" height="100" viewBox="0 0 100 100" fill="none" xmlns="http://www.w3.org/2000/svg">
<path d="M68.4732 37.1362H61.614V35.638C61.614 32.4792 59.0508 29.916 55.8919 29.916H43.3649C40.206 29.916 37.6429 32.4792 37.6429 35.638V37.1362H30.7836C28.3017 37.1362 26.2891 39.1579 26.2891 41.6398V64.5821C26.2891 67.064 28.3107 69.0857 30.7836 69.0857H68.4732C70.9551 69.0857 72.9678 67.064 72.9678 64.5821V41.6398C72.9678 39.1579 70.9551 37.1362 68.4732 37.1362ZM71.3432 64.5821C71.3432 66.1705 70.0526 67.4521 68.4732 67.4521H30.7836C29.1952 67.4521 27.9136 66.1615 27.9136 64.5821V41.6398C27.9136 40.0514 29.2042 38.7608 30.7836 38.7608H38.4551C38.9064 38.7608 39.2674 38.3998 39.2674 37.9485V35.638C39.2674 33.3817 41.1086 31.5406 43.3649 31.5406H55.8829C58.1483 31.5406 59.9804 33.3817 59.9804 35.638V37.9485C59.9804 38.3998 60.3414 38.7608 60.7927 38.7608H68.4641C70.0526 38.7608 71.3342 40.0514 71.3342 41.6398V64.5821H71.3432Z" fill="#00A7E1"/>
<path d="M55.8871 33.6074H43.36C42.2319 33.6074 41.3203 34.519 41.3203 35.6471V37.9576C41.3203 38.4089 41.6813 38.7699 42.1326 38.7699H45.2373C45.2553 38.7699 45.2644 38.7699 45.2824 38.7699H45.9052C45.9232 38.7699 45.9322 38.7699 45.9503 38.7699H46.9521C46.9701 38.7699 46.9792 38.7699 46.9972 38.7699H52.2589C52.277 38.7699 52.286 38.7699 52.3041 38.7699H53.3059C53.3239 38.7699 53.3329 38.7699 53.351 38.7699H53.9737C53.9918 38.7699 54.0008 38.7699 54.0189 38.7699H57.1236C57.5748 38.7699 57.9358 38.4089 57.9358 37.9576V35.6471C57.9178 34.519 57.0062 33.6074 55.8871 33.6074ZM56.2932 37.1363H53.9557C53.9376 37.1363 53.9286 37.1363 53.9106 37.1363H53.3781C53.36 37.1363 53.351 37.1363 53.3329 37.1363H52.2499C52.2319 37.1363 52.2228 37.1363 52.2048 37.1363H47.0243C47.0062 37.1363 46.9972 37.1363 46.9792 37.1363H45.8961C45.8781 37.1363 45.869 37.1363 45.851 37.1363H45.3185C45.3005 37.1363 45.2914 37.1363 45.2734 37.1363H42.9358V35.6381C42.9358 35.4125 43.1254 35.2229 43.351 35.2229H55.8691C56.0947 35.2229 56.2842 35.4035 56.2842 35.6381V37.1363H56.2932Z" fill="#00A7E1"/>
<path d="M49.5 92C26.0614 92 7 72.9296 7 49.5C7 26.0614 26.0614 7 49.5 7C72.9386 7 92 26.0614 92 49.5C92 72.9296 72.9296 92 49.5 92ZM49.5 8.787C27.0451 8.787 8.787 27.0542 8.787 49.5C8.787 71.9549 27.0542 90.213 49.5 90.213C71.9459 90.213 90.213 71.9459 90.213 49.5C90.213 27.0451 71.9549 8.787 49.5 8.787Z" fill="#00A7E1"/>
</svg>
