<svg width="100" height="100" viewBox="0 0 100 100" fill="none" xmlns="http://www.w3.org/2000/svg">
<path d="M32.6468 82.8884C30.7897 78.9959 25.868 71.1088 20.6134 75.5282C18.8423 77.0174 17.8064 77.7647 15.7668 78.0335C15.1263 78.116 14.6021 77.883 14.1942 77.3346C14.0797 77.1805 14.0869 77.0317 14.2157 76.8884C14.7202 76.3364 15.3267 75.9314 16.0352 75.6733C17.3019 75.2074 18.5149 74.5138 19.6742 73.5927C21.7459 71.9421 23.9787 71.8615 26.4476 72.4959C26.7124 72.564 26.7911 72.4726 26.6838 72.2217L24.7945 67.84C24.7426 67.7207 24.6675 67.6129 24.5738 67.5229C24.48 67.433 24.3694 67.3627 24.2484 67.3161C24.1275 67.2695 23.9986 67.2477 23.8693 67.2518C23.7401 67.2559 23.613 67.2859 23.4956 67.34C21.0553 68.4547 18.7134 69.6213 16.4699 70.84C15.7239 71.2486 14.4948 71.5497 14.0762 70.5067C14.0175 70.3632 13.9922 70.2084 14.0021 70.0537C14.012 69.899 14.057 69.7487 14.1335 69.614C14.2101 69.4793 14.3162 69.3638 14.4439 69.2763C14.5716 69.1888 14.7175 69.1315 14.8705 69.1088C16.3841 68.8794 17.7098 68.254 18.8476 67.2325C20.2181 65.9995 21.7066 65.2719 23.3132 65.0497C23.5457 65.0174 23.6298 64.8884 23.5654 64.6626L21.5957 57.6034C21.49 57.2254 21.528 56.8214 21.7024 56.4691C21.8767 56.1168 22.1752 55.841 22.5403 55.6948L29.405 52.969C29.6833 52.8582 29.9215 52.6658 30.0882 52.4172C30.2549 52.1686 30.3423 51.8755 30.3389 51.5765C30.3102 48.426 30.3102 45.0694 30.3389 41.5067C30.3496 39.9852 32.2013 40.2486 33.1835 40.2862C33.3982 40.2934 33.5163 40.1895 33.5377 39.9744C33.7149 38.0228 33.7846 36.1088 32.3784 34.5927C30.8863 32.9905 30.0061 31.0658 30.253 28.84C30.5053 26.5765 32.6307 27.3239 34.1013 27.2432C34.2909 27.2325 34.3858 27.1303 34.3858 26.9368C34.375 26.0515 34.3768 25.1285 34.3911 24.1679C34.418 22.5927 36.2643 22.969 37.3055 22.9045C37.4737 22.8973 37.5596 22.8077 37.5632 22.6357C37.5846 21.8436 37.5846 20.9816 37.5632 20.0497C37.5256 18.6142 38.6688 18.4744 39.753 18.4206C40.0428 18.4063 40.1663 18.2558 40.1233 17.969C39.9784 16.9475 39.8872 15.1787 40.7298 14.4636C40.8228 14.385 40.9336 14.3303 41.0525 14.3043C41.1714 14.2784 41.2946 14.2821 41.4114 14.3151C41.5281 14.348 41.6348 14.4092 41.7218 14.4933C41.8089 14.5774 41.8738 14.6817 41.9106 14.797C42.2541 15.8758 42.3472 16.9314 42.1897 17.9636C42.1575 18.1895 42.2523 18.3328 42.4742 18.3938C43.6603 18.711 43.8858 17.7809 44.2937 16.9852C45.8824 13.8884 49.2798 13.7701 52.2962 14.1572C54.393 14.4224 55.8547 15.573 56.6812 17.6088C56.9603 18.2934 57.4434 18.5604 58.1304 18.4099C58.3522 18.3633 58.4649 18.2253 58.4685 17.9959L58.49 14.9905C58.4916 14.8495 58.529 14.7111 58.5986 14.5885C58.6681 14.4658 58.7677 14.3628 58.8878 14.2892C59.0079 14.2156 59.1448 14.1738 59.2855 14.1676C59.4262 14.1614 59.5661 14.1912 59.6923 14.254C60.8086 14.8185 60.7228 16.9153 60.5725 17.9905C60.5224 18.3346 60.6691 18.4852 61.0126 18.4421C63.6801 18.0981 63.0682 20.6034 63.0038 22.1357C62.9931 22.3436 63.0861 22.4869 63.2829 22.5658C65.301 23.3615 67.3889 22.8722 66.4925 26.3077C66.3101 26.9995 66.5748 27.3185 67.2869 27.2647C68.4999 27.1733 70.4213 26.8131 70.636 28.5443C70.9098 30.7002 70.1798 32.7002 68.8058 34.3292C67.3567 36.0497 66.9649 37.6357 67.4586 39.9529C67.4908 40.1106 67.5892 40.1984 67.7538 40.2163L69.6002 40.4153C69.8828 40.4459 70.1441 40.5799 70.3335 40.7914C70.5228 41.003 70.6268 41.277 70.6253 41.5604L70.6199 51.5443C70.6197 51.8805 70.7202 52.2093 70.9087 52.4881C71.0971 52.767 71.3648 52.9832 71.6773 53.1088L78.2307 55.711C78.5636 55.8437 78.836 56.0949 78.9954 56.4163C79.1549 56.7378 79.1903 57.1069 79.0948 57.4529L77.1089 64.6841C77.0517 64.892 77.1304 65.0102 77.3451 65.0389C78.9016 65.2468 80.4026 65.9744 81.8482 67.2217C82.9681 68.1859 84.3511 68.8328 85.9971 69.1626C86.1503 69.1939 86.2915 69.2689 86.4034 69.3784C86.5154 69.488 86.5934 69.6273 86.628 69.7797C86.6627 69.9321 86.6524 70.091 86.5986 70.2372C86.5447 70.3833 86.4495 70.5106 86.3245 70.6034C84.6123 71.8722 82.2829 70.3722 80.8982 69.254C79.7442 68.3239 78.4293 67.8185 77.0606 67.3346C76.8385 67.2557 76.595 67.2634 76.379 67.3561C76.163 67.4489 75.9904 67.6198 75.8959 67.8346L73.953 72.2271C73.8349 72.4959 73.9154 72.5873 74.1945 72.5013C77.2073 71.5694 79.7979 72.1733 81.9663 74.3131C82.9359 75.2701 84.1418 75.8848 85.5838 76.1572C85.7004 76.1784 85.8122 76.2262 85.9112 76.297C86.4515 76.6948 86.6501 77.0335 86.507 77.3131C86.2207 77.8543 85.7842 78.0694 85.1973 77.9583C82.9574 77.5389 81.2077 76.7163 79.9482 75.4905C78.118 73.7056 75.9872 73.7486 74.0335 75.2808C71.4143 77.3382 69.33 79.8328 67.7807 82.7647C67.6697 82.9762 67.7342 83.0927 67.9739 83.1142C70.6092 83.3239 72.8795 80.0335 75.5202 79.3615C80.3668 78.1303 81.6174 82.7432 85.7287 83.2916C85.8513 83.3067 85.9695 83.3486 86.0751 83.4145C86.1808 83.4804 86.2713 83.5687 86.3406 83.6733C86.5231 83.9565 86.591 84.2056 86.5445 84.4206C86.4157 84.969 86.0722 85.2127 85.514 85.1518C83.3528 84.9153 81.6764 84.2127 80.4849 83.0443C74.4199 77.1142 70.9205 89.3776 63.9163 83.8991C63.1613 83.3041 62.4009 82.7325 61.6352 82.1841C58.8979 80.2056 56.8101 81.9529 54.6417 83.7217C52.0601 85.8292 48.8505 85.8776 46.1561 83.7862C45.5013 83.2808 44.8304 82.7737 44.1434 82.2647C41.4329 80.254 39.3182 81.797 37.1714 83.5765C33.5216 86.5981 29.6197 85.3454 26.5872 82.2002C26.1578 81.7558 26.0898 81.2414 26.3832 80.6572C26.4118 80.5998 26.4548 80.5604 26.512 80.5389C27.1561 80.2808 27.7286 80.383 28.2295 80.8454C29.4497 81.9672 30.8505 82.7343 32.4321 83.1464C32.6897 83.2145 32.7613 83.1285 32.6468 82.8884ZM46.2366 18.426L54.4699 18.3938C54.4805 18.3938 54.491 18.3917 54.5008 18.3876C54.5105 18.3836 54.5194 18.3776 54.5269 18.3701C54.5343 18.3626 54.5403 18.3538 54.5443 18.344C54.5484 18.3342 54.5505 18.3237 54.5505 18.3131V18.2593C54.5473 17.7019 54.1361 17.1691 53.4074 16.7779C52.6787 16.3867 51.6921 16.1692 50.6646 16.1733H50.0205C49.5115 16.1753 49.0078 16.2317 48.5381 16.3393C48.0683 16.4469 47.6419 16.6035 47.283 16.8002C46.9242 16.9969 46.6399 17.2298 46.4466 17.4857C46.2532 17.7417 46.1545 18.0155 46.1561 18.2916V18.3454C46.1561 18.3668 46.1646 18.3873 46.1797 18.4024C46.1948 18.4175 46.2153 18.426 46.2366 18.426ZM46.768 24.1948C46.8073 23.3346 47.3601 22.9206 48.4264 22.9529C52.4894 23.0765 56.59 22.9099 60.6154 22.9583C60.7263 22.9583 60.7836 22.9027 60.7872 22.7916L60.8301 20.9206C60.8308 20.9004 60.8275 20.8803 60.8202 20.8614C60.813 20.8425 60.8021 20.8253 60.788 20.8107C60.774 20.7961 60.7572 20.7846 60.7386 20.7767C60.72 20.7688 60.7 20.7647 60.6798 20.7647H39.9945C39.9604 20.7647 39.9276 20.7789 39.9034 20.8041C39.8793 20.8293 39.8657 20.8635 39.8657 20.8991L39.8603 22.7862C39.8604 22.8224 39.8749 22.8572 39.9009 22.8832C39.927 22.9093 39.9624 22.9246 39.9999 22.926L42.764 22.9744C42.8714 22.9761 42.9768 23.0016 43.0725 23.0491C43.1681 23.0965 43.2516 23.1647 43.3168 23.2486C43.5566 23.5533 43.6478 23.8436 43.5906 24.1196C43.4653 24.7468 43.0825 25.0604 42.442 25.0604H36.7956C36.6311 25.0604 36.5488 25.1446 36.5488 25.3131L36.5327 26.9206C36.5327 27.0676 36.6042 27.1411 36.7473 27.1411H64.2222C64.254 27.1411 64.2846 27.1288 64.3076 27.1068C64.3306 27.0847 64.3443 27.0546 64.3456 27.0228L64.3564 25.1948C64.3564 25.1196 64.3188 25.0819 64.2437 25.0819L47.5569 25.0282C47.4498 25.0276 47.344 25.0053 47.2457 24.9626C47.1474 24.92 47.0588 24.8579 46.9851 24.78C46.9114 24.7022 46.8541 24.6102 46.8168 24.5096C46.7795 24.4091 46.7629 24.302 46.768 24.1948ZM35.8564 46.6733C34.8473 47.6787 34.0208 47.4206 32.6951 47.469C32.649 47.4704 32.6054 47.4897 32.5733 47.5228C32.5412 47.556 32.5233 47.6003 32.5233 47.6464V51.4959C32.5234 51.5156 32.5284 51.535 32.5378 51.5523C32.5473 51.5696 32.5609 51.5842 32.5774 51.5949C32.5939 51.6056 32.6129 51.612 32.6325 51.6134C32.6521 51.6149 32.6718 51.6115 32.6897 51.6034C37.8852 49.4565 43.2489 47.297 48.7807 45.1249C49.5643 44.8185 50.5841 44.6518 51.3623 44.9475C56.6508 46.9619 62.2739 49.2163 68.2315 51.711C68.3246 51.7504 68.3711 51.7199 68.3711 51.6196L68.3979 47.711C68.3979 47.6464 68.3675 47.5981 68.3067 47.5658C68.1349 47.469 67.9542 47.435 67.7646 47.4636C66.8665 47.5927 66.0739 47.4583 65.3869 47.0604C64.5174 46.5515 64.5424 46.0891 65.462 45.6733C66.2456 45.3221 67.099 45.2038 68.0222 45.3185C68.3049 45.3507 68.4462 45.2253 68.4462 44.9421L68.4194 42.8239C68.4194 42.5801 68.2977 42.4511 68.0544 42.4368L66.0739 42.34C65.8891 42.331 65.7127 42.2597 65.5734 42.1377C65.4341 42.0157 65.34 41.8502 65.3064 41.6679C64.6086 38.0264 65.2885 34.9708 67.3459 32.5013C67.9614 31.7665 68.3907 30.8615 68.6341 29.7862C68.6806 29.5927 68.6036 29.4959 68.4033 29.4959H32.4911C32.2836 29.4959 32.2049 29.5963 32.255 29.797C32.4911 30.7862 32.9223 31.6626 33.5485 32.426C35.6775 35.0174 36.3591 38.0855 35.5934 41.6303C35.5562 41.8046 35.4642 41.9624 35.3309 42.0804C35.1976 42.1985 35.03 42.2706 34.8527 42.2862L32.9473 42.4421C32.679 42.4636 32.543 42.6106 32.5394 42.883L32.5233 45.0712C32.5198 45.3041 32.6325 45.3973 32.8615 45.3507C34.0387 45.1034 35.0352 45.3812 35.851 46.1841C35.8837 46.2157 35.9097 46.2535 35.9277 46.2953C35.9456 46.3371 35.9551 46.3821 35.9556 46.4276C35.9561 46.4731 35.9476 46.5182 35.9306 46.5604C35.9135 46.6026 35.8883 46.641 35.8564 46.6733ZM48.9954 47.3024L24.0914 57.3937C23.8767 57.4798 23.8016 57.6339 23.866 57.8561L25.2024 62.5873C25.2668 62.8167 25.4153 62.9045 25.6479 62.8507C33.7381 61.0694 41.3972 58.2683 48.625 54.4475C48.8098 54.3503 48.9645 54.2037 49.0724 54.0236C49.1803 53.8435 49.2371 53.6369 49.2369 53.426L49.253 47.4798C49.253 47.2934 49.1671 47.2343 48.9954 47.3024ZM51.2442 77.4636C51.416 77.8292 51.4911 78.1679 51.4697 78.5765C51.4124 80.0246 51.3945 81.3884 51.416 82.6679C51.4231 83.0299 51.5824 83.1178 51.8937 82.9314C52.9886 82.2683 53.9797 81.5676 54.8671 80.8292C58.2002 78.0497 62.0699 79.0604 64.9629 82.0604C65.1239 82.2289 65.2831 82.2271 65.4406 82.055C65.8377 81.6249 66.2009 81.1751 66.5301 80.7056C68.6341 77.6912 70.6217 74.1984 72.4931 70.2271C73.2875 68.5461 73.9083 66.9117 74.3555 65.3239C74.3685 65.2783 74.3722 65.2306 74.3665 65.1836C74.3608 65.1366 74.3457 65.0912 74.3222 65.0502C74.2987 65.0091 74.2672 64.9731 74.2296 64.9444C74.192 64.9157 74.1491 64.8948 74.1033 64.883L69.5948 63.7432C69.4272 63.6977 69.2774 63.6021 69.1654 63.469C68.8613 63.0998 68.7557 62.7647 68.8488 62.4636C69.0634 61.7862 69.5161 61.5317 70.2067 61.7002L75.0694 62.883C75.1498 62.9027 75.2346 62.8901 75.3059 62.8479C75.3771 62.8057 75.429 62.7372 75.4504 62.6572L76.8406 57.6841C76.8536 57.6377 76.8493 57.5881 76.8286 57.5446C76.8079 57.5011 76.7721 57.4666 76.7279 57.4475L51.7004 47.3077C51.6722 47.2964 51.6415 47.2921 51.6112 47.2953C51.5809 47.2984 51.5518 47.3089 51.5265 47.3259C51.5011 47.3428 51.4802 47.3657 51.4657 47.3925C51.4511 47.4193 51.4433 47.4492 51.4428 47.4798L51.4106 53.0335C51.409 53.392 51.513 53.7432 51.7096 54.0434C51.9062 54.3435 52.1867 54.5794 52.5163 54.7217L65.6123 60.3454C65.8029 60.4263 65.957 60.5752 66.0451 60.7636C66.1332 60.952 66.1492 61.1668 66.09 61.3669L66.0363 61.555C65.8145 62.3221 65.335 62.5515 64.5979 62.2432L51.6468 56.7755C51.6213 56.7648 51.5936 56.7606 51.5661 56.7633C51.5386 56.766 51.5122 56.7755 51.4893 56.791C51.4664 56.8064 51.4477 56.8274 51.4349 56.8519C51.4221 56.8764 51.4156 56.9037 51.416 56.9314V72.4529C51.416 73.1662 51.0617 73.5604 50.3533 73.6357C50.042 73.6679 49.7414 73.5156 49.4516 73.1787C49.3199 73.026 49.2475 72.8332 49.2476 72.6357V56.7862C49.2473 56.7642 49.2414 56.7427 49.2305 56.7237C49.2195 56.7046 49.2039 56.6887 49.1851 56.6774C49.1663 56.666 49.1449 56.6597 49.123 56.659C49.101 56.6583 49.0793 56.6632 49.0598 56.6733C41.7532 60.4081 34.1764 63.1608 26.3295 64.9314C26.2933 64.9393 26.2591 64.9548 26.2293 64.9769C26.1996 64.9989 26.1749 65.027 26.1571 65.0592C26.1392 65.0913 26.1286 65.1268 26.126 65.1632C26.1233 65.1996 26.1287 65.2361 26.1417 65.2701C28.4174 71.4099 31.4213 77.0282 35.1533 82.1249C35.1808 82.1622 35.2164 82.1929 35.2573 82.2147C35.2982 82.2365 35.3434 82.2489 35.3897 82.251C35.436 82.253 35.4821 82.2447 35.5248 82.2266C35.5675 82.2085 35.6056 82.1811 35.6363 82.1464C38.5239 78.8937 42.9358 78.012 46.3386 81.1411C47.1222 81.8615 47.9631 82.5031 48.8612 83.0658C49.1081 83.2163 49.2315 83.1482 49.2315 82.8615L49.2584 77.8991C49.2591 77.6618 49.3406 77.4318 49.4894 77.2472C49.6383 77.0626 49.8455 76.9343 50.0769 76.8835C50.3084 76.8328 50.5501 76.8626 50.7624 76.9681C50.9746 77.0735 51.1446 77.2483 51.2442 77.4636Z" fill="white"/>
<path d="M38.433 32.5729L37.4884 33.0245C37.3905 33.0715 37.2794 33.0832 37.1738 33.0578C37.0682 33.0323 36.9746 32.9712 36.9087 32.8847L36.4633 32.2879C36.3896 32.1907 36.3563 32.0688 36.3703 31.9475C36.3843 31.8263 36.4445 31.7152 36.5384 31.6374L37.0322 31.2288C37.1086 31.165 37.2032 31.127 37.3025 31.1202C37.4018 31.1135 37.5007 31.1383 37.585 31.1911L38.476 31.7449C38.5479 31.7895 38.6065 31.8527 38.6457 31.9277C38.6849 32.0028 38.7032 32.087 38.6989 32.1716C38.6945 32.2562 38.6675 32.3381 38.6207 32.4086C38.574 32.4792 38.5092 32.5359 38.433 32.5729Z" fill="white"/>
<path d="M42.2385 32.937L41.6857 32.2489C41.6245 32.1711 41.5949 32.073 41.6028 31.9743C41.6108 31.8756 41.6557 31.7835 41.7286 31.7166L42.2922 31.2005C42.3554 31.1426 42.4358 31.107 42.5211 31.0993C42.6064 31.0915 42.6919 31.1119 42.7645 31.1575L43.8003 31.8188C43.8578 31.8561 43.9045 31.9079 43.9358 31.9689C43.9671 32.03 43.9818 32.0982 43.9786 32.1667C43.9753 32.2353 43.9542 32.3018 43.9172 32.3596C43.8803 32.4174 43.8289 32.4645 43.7681 32.4962L42.7215 33.0392C42.6415 33.0803 42.5499 33.0925 42.4619 33.0739C42.374 33.0553 42.2951 33.007 42.2385 32.937Z" fill="white"/>
<path d="M47.0291 31.7179L47.4853 31.2663C47.5657 31.1874 47.6729 31.1418 47.7854 31.1388C47.8979 31.1358 48.0074 31.1756 48.0918 31.2502L48.6768 31.7663C48.7548 31.8355 48.806 31.9299 48.8217 32.033C48.8374 32.1361 48.8165 32.2415 48.7627 32.3308L48.2099 33.2609C48.1684 33.33 48.109 33.3865 48.0381 33.4244C47.9671 33.4624 47.8872 33.4804 47.8069 33.4766C47.7265 33.4727 47.6487 33.4471 47.5817 33.4025C47.5147 33.3579 47.461 33.296 47.4263 33.2233L46.9432 32.2287C46.9027 32.1452 46.8892 32.0511 46.9046 31.9595C46.92 31.868 46.9635 31.7835 47.0291 31.7179Z" fill="white"/>
<path d="M53.8808 32.7489C52.9863 33.179 52.4335 32.9891 52.2224 32.179C52.1804 32.0181 52.1874 31.8485 52.2424 31.6917C52.2974 31.5349 52.398 31.398 52.5314 31.2984C52.6648 31.1987 52.825 31.1408 52.9917 31.132C53.1584 31.1232 53.324 31.1639 53.4676 31.2489L53.9399 31.5339C54.677 31.9747 54.6573 32.3797 53.8808 32.7489Z" fill="white"/>
<path d="M59.4146 32.5395L58.6739 32.9696C58.5642 33.0342 58.4357 33.0593 58.3098 33.0407C58.1839 33.0221 58.0681 32.961 57.9816 32.8674L57.5683 32.4212C57.5182 32.3675 57.4792 32.3045 57.4535 32.2358C57.4278 32.167 57.4158 32.0938 57.4183 32.0204C57.4208 31.9471 57.4377 31.8749 57.468 31.808C57.4984 31.7412 57.5416 31.681 57.5951 31.6308L57.9494 31.3029C58.0278 31.2295 58.1258 31.1803 58.2314 31.1612C58.3371 31.1421 58.446 31.154 58.5451 31.1954L59.3556 31.5448C59.4499 31.5861 59.531 31.6527 59.5899 31.7373C59.6488 31.8218 59.6832 31.9211 59.6893 32.024C59.6954 32.127 59.673 32.2296 59.6245 32.3205C59.576 32.4115 59.5034 32.4873 59.4146 32.5395Z" fill="white"/>
<path d="M64.8236 32.4059L63.8253 33.0403C63.7472 33.0893 63.6543 33.1092 63.563 33.0964C63.4717 33.0836 63.3878 33.039 63.3261 32.9704L62.7196 32.2984C62.6535 32.2235 62.6183 32.1263 62.6213 32.0263C62.6243 31.9264 62.6652 31.8314 62.7357 31.7607L63.2724 31.2231C63.3321 31.1622 63.41 31.1224 63.4942 31.1098C63.5785 31.0972 63.6646 31.1124 63.7394 31.1532L64.8021 31.7338C64.861 31.7669 64.9105 31.8146 64.9456 31.8724C64.9806 31.9302 65.0002 31.9962 65.0024 32.0638C65.0045 32.1314 64.9892 32.1984 64.9579 32.2584C64.9266 32.3183 64.8803 32.3691 64.8236 32.4059Z" fill="white"/>
<path d="M48.6441 41.6263C48.6441 41.9443 48.518 42.2492 48.2936 42.4741C48.0691 42.6989 47.7647 42.8252 47.4472 42.8252H41.1461C40.8287 42.8252 40.5242 42.6989 40.2998 42.4741C40.0753 42.2492 39.9492 41.9443 39.9492 41.6263V35.9919C39.9492 35.6739 40.0753 35.369 40.2998 35.1441C40.5242 34.9193 40.8287 34.793 41.1461 34.793H47.4472C47.7647 34.793 48.0691 34.9193 48.2936 35.1441C48.518 35.369 48.6441 35.6739 48.6441 35.9919V41.6263ZM46.4033 37.2355C46.4033 37.1988 46.396 37.1624 46.3819 37.1285C46.3678 37.0947 46.3472 37.0639 46.3212 37.038C46.2953 37.012 46.2645 36.9915 46.2306 36.9775C46.1967 36.9635 46.1604 36.9563 46.1237 36.9564L42.4525 36.9629C42.4159 36.9629 42.3796 36.9702 42.3458 36.9843C42.3119 36.9984 42.2812 37.0191 42.2553 37.0451C42.2295 37.0711 42.209 37.1019 42.195 37.1359C42.181 37.1698 42.1739 37.2062 42.1739 37.2429L42.1793 40.3289C42.1794 40.3657 42.1867 40.402 42.2007 40.4359C42.2148 40.4698 42.2354 40.5006 42.2614 40.5265C42.2874 40.5524 42.3182 40.5729 42.352 40.5869C42.3859 40.6009 42.4222 40.6081 42.4589 40.608L46.1301 40.6016C46.1667 40.6015 46.203 40.5942 46.2368 40.5801C46.2707 40.566 46.3014 40.5453 46.3273 40.5193C46.3531 40.4933 46.3737 40.4625 46.3876 40.4285C46.4016 40.3946 46.4087 40.3582 46.4087 40.3215L46.4033 37.2355Z" fill="white"/>
<path d="M60.9891 41.6614C60.9894 41.8146 60.9595 41.9664 60.9012 42.108C60.8429 42.2497 60.7574 42.3785 60.6494 42.487C60.5414 42.5955 60.4132 42.6817 60.272 42.7405C60.1308 42.7994 59.9794 42.8299 59.8264 42.8301L53.4931 42.8412C53.3402 42.8415 53.1887 42.8116 53.0473 42.7532C52.9058 42.6948 52.7773 42.6091 52.669 42.5009C52.5606 42.3928 52.4746 42.2643 52.4158 42.1229C52.357 41.9814 52.3267 41.8298 52.3264 41.6766L52.3164 35.9669C52.3161 35.8137 52.346 35.6619 52.4043 35.5203C52.4626 35.3786 52.5481 35.2498 52.6561 35.1413C52.7641 35.0328 52.8923 34.9466 53.0335 34.8878C53.1748 34.8289 53.3262 34.7984 53.4791 34.7982L59.8124 34.7871C59.9653 34.7868 60.1168 34.8168 60.2583 34.8751C60.3997 34.9335 60.5282 35.0192 60.6365 35.1274C60.7449 35.2355 60.8309 35.364 60.8897 35.5054C60.9485 35.6469 60.9789 35.7985 60.9791 35.9517L60.9891 41.6614ZM58.7755 37.2244C58.7754 37.1919 58.769 37.1598 58.7565 37.1298C58.7441 37.0998 58.7258 37.0726 58.7029 37.0497C58.6799 37.0267 58.6527 37.0086 58.6227 36.9962C58.5927 36.9838 58.5606 36.9775 58.5282 36.9775L54.7496 36.9841C54.7172 36.9842 54.6851 36.9906 54.6552 37.0031C54.6252 37.0156 54.5981 37.0338 54.5752 37.0569C54.5523 37.0799 54.5341 37.1072 54.5218 37.1372C54.5094 37.1672 54.5031 37.1994 54.5032 37.2319L54.5085 40.3071C54.5086 40.3396 54.515 40.3717 54.5275 40.4017C54.54 40.4317 54.5582 40.4589 54.5812 40.4819C54.6041 40.5048 54.6314 40.523 54.6614 40.5353C54.6913 40.5477 54.7234 40.554 54.7559 40.554L58.5344 40.5474C58.5668 40.5474 58.5989 40.5409 58.6289 40.5284C58.6588 40.516 58.686 40.4977 58.7089 40.4747C58.7318 40.4517 58.7499 40.4244 58.7622 40.3943C58.7746 40.3643 58.7809 40.3321 58.7809 40.2996L58.7755 37.2244Z" fill="white"/>
<path d="M14.2436 84.4168C14.2108 84.3607 14.1893 84.2987 14.1804 84.2342C14.1715 84.1698 14.1754 84.1042 14.1919 84.0413C14.2083 83.9784 14.237 83.9193 14.2763 83.8675C14.3156 83.8157 14.3646 83.7722 14.4207 83.7394L19.7289 80.648C20.4206 80.2448 21.1454 79.9636 21.7448 79.8659C22.3443 79.7682 22.7696 79.8619 22.9278 80.1265L22.9332 80.1372C23.0882 80.4046 22.9616 80.8215 22.5812 81.2963C22.2008 81.7712 21.5977 82.2651 20.9043 82.6695L15.5962 85.7663C15.4835 85.831 15.3499 85.8487 15.2243 85.8155C15.0988 85.7823 14.9913 85.7009 14.9252 85.5889L14.2436 84.4168Z" fill="white"/>
</svg>
