<svg width="500" height="500" viewBox="0 0 500 500" fill="none" xmlns="http://www.w3.org/2000/svg">
<path d="M243.077 76.4546C243.06 76.9754 243.312 77.227 243.834 77.2094L248.55 77.0505C249.072 77.0328 249.334 76.7592 249.334 76.2295C249.334 73.4754 249.351 70.7124 249.387 67.9406C249.4 65.9942 248.258 64.5376 249.068 62.5647C249.148 62.3668 249.295 62.2036 249.485 62.104C249.674 62.0045 249.892 61.9752 250.101 62.0213C250.31 62.0674 250.496 62.1859 250.625 62.3558C250.755 62.5256 250.819 62.7357 250.808 62.9487L250.184 75.9117C250.177 76.0589 250.199 76.206 250.249 76.3445C250.3 76.4831 250.377 76.6102 250.477 76.7186C250.577 76.827 250.698 76.9145 250.832 76.976C250.967 77.0376 251.112 77.0719 251.26 77.0769L255.271 77.2226C255.909 77.2403 256.316 76.9445 256.493 76.3354C256.644 75.8499 256.67 75.3468 256.573 74.826C256.546 74.656 256.586 74.4821 256.685 74.3412C256.784 74.2003 256.935 74.1035 257.104 74.0712L257.649 73.9785C258.012 73.9167 258.202 74.0712 258.22 74.442L258.353 77.3153C258.379 77.8096 258.145 78.0568 257.649 78.0568L251.313 78.0038C250.64 78.0038 250.312 78.3349 250.33 78.9969L250.396 81.857C250.405 82.3337 250.649 82.6073 251.127 82.6779C267.66 85.0348 276.949 94.8421 278.995 112.1C279.008 112.213 278.997 112.328 278.962 112.437C278.927 112.546 278.869 112.647 278.793 112.732C278.716 112.817 278.622 112.885 278.518 112.931C278.413 112.977 278.299 113.001 278.184 113H221.811C221.253 113 220.983 112.726 221.001 112.179C221.333 96.3824 232.889 84.4655 248.576 82.8236C249.072 82.7706 249.325 82.497 249.334 82.0026L249.36 78.6791C249.369 78.2466 249.156 78.0303 248.723 78.0303L242.054 78.0171C241.594 78.0171 241.368 77.7876 241.377 77.3285L241.417 74.4817C241.426 74.1286 241.603 73.9653 241.948 73.9918L242.48 74.0315C242.922 74.0668 243.139 74.3052 243.13 74.7465L243.077 76.4546Z" fill="white"/>
<path d="M287.754 117H212.246C211.558 117 211 117.489 211 118.092V120.908C211 121.511 211.558 122 212.246 122H287.754C288.442 122 289 121.511 289 120.908V118.092C289 117.489 288.442 117 287.754 117Z" fill="white"/>
<path d="M233.9 126H227.1C225.94 126 225 126.991 225 128.213V166.787C225 168.009 225.94 169 227.1 169H233.9C235.06 169 236 168.009 236 166.787V128.213C236 126.991 235.06 126 233.9 126Z" fill="white"/>
<path d="M253.673 126H246.327C245.042 126 244 127.009 244 128.253V166.747C244 167.991 245.042 169 246.327 169H253.673C254.958 169 256 167.991 256 166.747V128.253C256 127.009 254.958 126 253.673 126Z" fill="white"/>
<path d="M271.867 126H265.133C263.955 126 263 127.008 263 128.251V166.749C263 167.992 263.955 169 265.133 169H271.867C273.045 169 274 167.992 274 166.749V128.251C274 127.008 273.045 126 271.867 126Z" fill="white"/>
<path d="M287.166 173H212.834C211.821 173 211 173.818 211 174.827V177.173C211 178.182 211.821 179 212.834 179H287.166C288.179 179 289 178.182 289 177.173V174.827C289 173.818 288.179 173 287.166 173Z" fill="white"/>
<path d="M186.656 187.03C186.79 186.967 186.893 187.003 186.964 187.136H186.978C187.022 187.234 187 187.314 186.911 187.376C166.462 200.806 149.291 217.261 135.396 236.739C117.469 261.859 104.379 290.011 96.1263 321.197C91.9016 337.172 89.6752 353.839 87.9853 370.387C87.972 370.519 87.9096 370.641 87.8104 370.73C87.7112 370.819 87.5823 370.867 87.4488 370.867L60.062 371C59.3199 371 58.9667 370.636 59.0025 369.907C62.7309 288.648 111.684 219.113 186.656 187.03Z" fill="white"/>
<path d="M318.744 189.331C355.177 206.269 384.303 231.314 406.124 264.469C426.713 295.729 438.004 330.773 439.997 369.6C440.041 370.533 439.598 371 438.669 371L412.314 370.893C411.588 370.893 411.185 370.529 411.105 369.8C409.795 357.112 408.772 348.55 408.037 344.114C402.564 311.426 391.299 281.179 374.907 253.013C359.516 226.571 339.086 204.748 313.617 187.544C312.74 186.949 312.798 186.842 313.79 187.224C315.437 187.855 317.088 188.558 318.744 189.331Z" fill="white"/>
<path d="M213.809 192.716C216.41 191.46 216.695 191.856 214.664 193.904C208.848 199.781 203.361 206.767 198.204 214.861C177.788 246.926 165.055 282.731 160.005 322.275C159.488 326.309 158.985 330.187 158.495 333.909C158.121 336.727 158.415 339.492 158.081 342.39C157.021 351.686 156.674 360.942 157.039 370.159C157.042 370.268 157.024 370.377 156.985 370.479C156.945 370.58 156.886 370.674 156.81 370.752C156.734 370.831 156.643 370.893 156.542 370.936C156.441 370.978 156.333 371 156.224 371H107.884C106.521 371 105.898 370.319 106.014 368.956C107.857 347.408 111.759 327.44 117.718 309.052C125.507 284.97 137.959 263.212 153.004 243.204C169.669 221.05 189.938 204.22 213.809 192.716Z" fill="white"/>
<path d="M340.115 329.344C336.065 287.569 322.447 246.86 299.446 211.798C295.564 205.89 291.038 200.298 285.868 195.021C285.348 194.487 284.88 193.896 284.465 193.246C283.645 191.982 283.909 191.68 285.259 192.338C308.587 203.781 328.27 219.9 344.31 240.694C357.465 257.765 369.548 277.745 377.131 297.552C384.833 317.661 389.739 338.754 391.848 360.83C392.13 363.81 392.509 366.791 392.986 369.772C393.011 369.923 393.003 370.078 392.962 370.226C392.922 370.374 392.85 370.511 392.752 370.627C392.654 370.744 392.531 370.838 392.393 370.903C392.256 370.967 392.105 371 391.953 371H342.987C342.475 371 342.211 370.742 342.193 370.226C341.928 362.227 341.738 354.343 341.624 346.575C341.544 340.889 340.684 335.083 340.115 329.344Z" fill="white"/>
<path d="M176.002 370.25C175.858 322.259 185.578 272.245 209.617 230.981C217.613 217.258 227.211 205.295 238.412 195.092C238.463 195.045 238.527 195.014 238.596 195.004C238.664 194.994 238.734 195.004 238.796 195.034C238.859 195.064 238.912 195.112 238.948 195.173C238.984 195.233 239.002 195.303 239 195.374V370.236C239 370.393 238.941 370.542 238.835 370.653C238.73 370.764 238.587 370.826 238.438 370.826L176.72 371C176.241 371 176.002 370.75 176.002 370.25Z" fill="white"/>
<path d="M304.243 260.856C317.539 294.041 324.124 330.554 323.998 370.397C323.998 370.557 323.934 370.71 323.82 370.823C323.707 370.936 323.552 371 323.391 371L259.351 370.678C259.258 370.678 259.168 370.642 259.103 370.576C259.037 370.511 259 370.422 259 370.33V195.663C259 194.93 259.274 194.805 259.823 195.287C279.996 213.024 294.318 236.095 304.243 260.856Z" fill="white"/>
<path d="M87.0189 382.505L87.0456 377.616C87.0491 377.187 87.2249 376.775 87.5347 376.473C87.8446 376.17 88.2633 376 88.6997 376H106.281C107.767 376 108.509 376.726 108.509 378.177V382.739C108.509 383.243 108.767 383.495 109.283 383.495H155.052C155.229 383.495 155.398 383.427 155.523 383.304C155.648 383.182 155.719 383.016 155.719 382.844L155.732 377.629C155.735 377.2 155.911 376.788 156.221 376.486C156.531 376.183 156.95 376.013 157.386 376.013L175.101 376C175.642 376 176.16 376.208 176.545 376.579C176.929 376.95 177.149 377.453 177.156 377.981L177.182 382.739C177.191 383.243 177.458 383.495 177.983 383.495H238.425C238.56 383.495 238.689 383.443 238.784 383.35C238.879 383.257 238.932 383.131 238.932 383L238.945 378.02C238.945 376.673 239.639 376 241.026 376L258.622 376.013C259.106 376.013 259.571 376.2 259.914 376.532C260.257 376.865 260.449 377.316 260.449 377.786V382.831C260.449 383.007 260.519 383.176 260.644 383.301C260.77 383.425 260.939 383.495 261.116 383.495H321.492C321.954 383.495 322.185 383.269 322.185 382.817V378.268C322.185 376.782 322.95 376.039 324.48 376.039L341.795 376.026C342.308 376.026 342.8 376.227 343.163 376.583C343.525 376.94 343.729 377.424 343.729 377.929L343.743 382.791C343.743 383.261 343.978 383.495 344.45 383.495H390.165C390.339 383.495 390.507 383.427 390.632 383.305C390.757 383.183 390.828 383.018 390.832 382.844L390.885 377.942C390.889 377.433 391.097 376.946 391.464 376.587C391.832 376.228 392.328 376.026 392.846 376.026L410.428 376.039C410.94 376.039 411.431 376.236 411.796 376.587C412.16 376.939 412.369 377.416 412.376 377.916L412.442 382.791C412.442 383.252 412.678 383.482 413.149 383.482L449.14 383.534C450.83 383.534 451.741 384.356 451.875 385.998L451.981 387.223C452.141 389.074 451.274 390 449.38 390H50.0011C48.6582 390 47.9912 389.344 48.0001 388.032L48.0268 385.803C48.0357 384.325 48.796 383.582 50.3079 383.574L86.0317 383.469C86.6898 383.469 87.0189 383.148 87.0189 382.505Z" fill="white"/>
<path d="M106.312 396.926L89.3169 396.897C88.0718 396.894 87.0607 397.902 87.0586 399.147L87.029 416.088C87.0268 417.334 88.0344 418.345 89.2795 418.347L106.274 418.376C107.519 418.379 108.53 417.371 108.533 416.126L108.562 399.185C108.564 397.939 107.557 396.928 106.312 396.926Z" fill="white"/>
<path d="M174.691 396H157.309C156.034 396 155 397.035 155 398.312V415.688C155 416.965 156.034 418 157.309 418H174.691C175.966 418 177 416.965 177 415.688V398.312C177 397.035 175.966 396 174.691 396Z" fill="white"/>
<path d="M258.227 396.894L241.179 396.924C239.956 396.926 238.967 397.919 238.969 399.142L238.998 416.164C239.001 417.387 239.994 418.376 241.217 418.374L258.265 418.344C259.488 418.342 260.478 417.349 260.475 416.126L260.446 399.105C260.444 397.882 259.45 396.892 258.227 396.894Z" fill="white"/>
<path d="M341.604 396H324.396C323.073 396 322 397.079 322 398.411V415.589C322 416.921 323.073 418 324.396 418H341.604C342.927 418 344 416.921 344 415.589V398.411C344 397.079 342.927 396 341.604 396Z" fill="white"/>
<path d="M410.115 396.952L393.147 396.922C391.894 396.92 390.877 397.933 390.875 399.186L390.845 416.074C390.843 417.326 391.857 418.343 393.109 418.346L410.077 418.375C411.33 418.377 412.347 417.364 412.349 416.111L412.379 399.223C412.381 397.971 411.367 396.954 410.115 396.952Z" fill="white"/>
<path d="M448.614 423H50.3856C49.0681 423 48 424.075 48 425.4V434.6C48 435.925 49.0681 437 50.3856 437H448.614C449.932 437 451 435.925 451 434.6V425.4C451 424.075 449.932 423 448.614 423Z" fill="white"/>
</svg>
