<svg width="200" height="200" viewBox="0 0 200 200" fill="none" xmlns="http://www.w3.org/2000/svg">
<path d="M95.4232 29.5694C72.0699 41.556 48.7966 53.5127 25.6033 65.4394C22.1833 67.2094 17.7333 66.6294 15.8033 62.8894C13.3633 58.1594 16.8832 54.8994 20.9832 52.8194C43.2832 41.4927 65.2832 30.2194 86.9832 18.9994C91.4032 16.7094 96.6332 14.3194 101.813 15.1794C104.507 15.6327 107.437 16.6694 110.603 18.2894C133.783 30.156 156.853 41.9627 179.813 53.7094C188.603 58.2094 182.213 69.7894 174.163 65.6694C150.243 53.4427 126.687 41.3694 103.493 29.4494C100.88 28.1027 98.1899 28.1427 95.4232 29.5694Z" fill="white"/>
<path d="M102.994 44.1091C122.754 54.3591 142.664 64.6691 162.534 75.2791C168.881 78.6725 172.077 84.5925 172.124 93.0391C172.237 112.426 172.281 132.736 172.254 153.969C172.247 159.202 171.781 163.229 170.854 166.049C168.264 173.939 161.714 180.279 153.754 182.849C151.014 183.729 147.647 184.159 143.654 184.139C114.161 183.986 84.904 183.999 55.884 184.179C51.5773 184.212 47.954 183.709 45.014 182.669C33.344 178.549 26.994 168.729 26.994 156.299C26.9873 117.246 26.974 96.5158 26.954 94.1091C26.894 85.3091 30.024 78.6191 37.794 74.5591C58.7073 63.6191 78.1406 53.4791 96.094 44.1391C98.414 42.9325 100.714 42.9225 102.994 44.1091ZM155.594 86.4291C137.894 77.1991 119.004 67.2491 100.564 57.7091C100.265 57.5551 99.9327 57.4756 99.5966 57.4774C99.2606 57.4791 98.9303 57.5621 98.634 57.7191C81.6406 66.6125 63.6206 75.9925 44.574 85.8591C41.524 87.4391 40.044 90.1591 40.064 93.5791C40.224 114.312 40.224 134.119 40.064 152.999C40.004 160.239 40.934 166.679 48.294 169.809C50.1406 170.596 53.8806 170.979 59.514 170.959C88.934 170.846 117.257 170.832 144.484 170.919C150.297 170.932 154.567 168.649 157.294 164.069C158.954 161.279 159.004 157.489 159.004 154.249C158.997 134.442 159.007 114.632 159.034 94.8191C159.034 91.3991 158.564 87.9791 155.594 86.4291Z" fill="white"/>
<path d="M117.59 85.4798C98.1605 84.8898 82.8605 99.6698 81.2505 118.75C81.2438 118.843 81.1938 118.886 81.1005 118.88L80.8105 118.85C80.7571 118.85 80.7305 118.82 80.7305 118.76C80.9238 107.813 84.6205 98.5365 91.8205 90.9298C96.3805 86.1098 101.474 82.8665 107.1 81.1998C110.02 80.3398 115.63 83.4698 117.77 84.9198C118.357 85.3132 118.297 85.4998 117.59 85.4798Z" fill="white"/>
<path d="M89.6929 88.8296C71.5529 104.88 74.8729 134.25 95.2229 146.95C95.5962 147.19 95.7829 147.533 95.7829 147.98L95.7629 162.97C95.7643 163.018 95.7523 163.066 95.7281 163.108C95.7039 163.149 95.6685 163.184 95.626 163.206C95.5834 163.229 95.5353 163.24 95.487 163.237C95.4388 163.234 95.3924 163.218 95.3529 163.19C79.9129 152.94 65.6229 137.28 63.9429 118.7C63.1229 109.553 65.4996 101.586 71.0729 94.7996C77.5129 86.9463 86.3196 82.993 97.4929 82.9396C98.1996 82.933 98.2462 83.1063 97.6329 83.4596C94.8929 85.0596 92.0829 86.7196 89.6929 88.8296Z" fill="white"/>
<path d="M123.021 135.04C117.741 141.634 110.688 145.567 101.861 146.84C100.654 147.02 99.4277 147.07 98.181 146.99C97.8429 146.971 97.5177 146.845 97.251 146.63C92.051 142.457 88.3777 137.044 86.231 130.39C86.1043 129.977 86.2543 129.767 86.681 129.76C92.041 129.62 98.461 130.51 103.331 128.7C116.541 123.79 115.501 105.56 102.551 101.1C99.751 100.14 96.431 100.37 93.491 100.41C93.4364 100.41 93.3827 100.394 93.3366 100.364C93.2905 100.335 93.254 100.293 93.2316 100.244C93.2093 100.195 93.202 100.141 93.2108 100.089C93.2196 100.037 93.244 99.9884 93.281 99.9502C99.8143 93.1502 107.658 89.6402 116.811 89.4202C117.171 89.4135 117.491 89.5202 117.771 89.7402C131.921 100.86 134.161 121.14 123.021 135.04Z" fill="white"/>
</svg>
