<svg width="100" height="100" viewBox="0 0 100 100" fill="none" xmlns="http://www.w3.org/2000/svg">
<path d="M36.449 29.9281L35.0665 27.8633C32.2116 29.7845 29.8056 32.2084 27.9023 35.0633L29.9672 36.4459C31.7088 33.8603 33.8814 31.6698 36.449 29.9281Z" fill="white"/>
<path d="M29.9789 62.5527L27.9141 63.9353C29.8173 66.7902 32.2233 69.2141 35.0782 71.1353L36.4607 69.0705C33.8752 67.3288 31.7026 65.1383 29.9789 62.5527Z" fill="white"/>
<path d="M62.5547 69.0705L63.9372 71.1353C66.7921 69.2141 69.1981 66.7902 71.1014 63.9353L69.0365 62.5527C67.3128 65.1383 65.1223 67.3288 62.5547 69.0705Z" fill="white"/>
<path d="M69.0365 36.4459L71.1014 35.0633C69.1981 32.2084 66.7921 29.7845 63.9372 27.8633L62.5547 29.9281C65.1223 31.6698 67.3128 33.8603 69.0365 36.4459Z" fill="white"/>
<path d="M58.2266 48.2617H60.7044V50.7575H58.2266V48.2617Z" fill="white"/>
<path d="M38.2969 48.2617H40.7747V50.7575H38.2969V48.2617Z" fill="white"/>
<path d="M90.1506 45.0292C88.9476 43.8262 87.3676 43.1618 85.6798 43.1618H81.2628L78.3181 45.8012L74.0627 39.481H67.9759C66.0368 35.9079 63.0921 32.9453 59.537 30.9882V24.9552L53.2167 20.6998L55.8561 17.7552V13.3382C55.8382 9.83692 53.0013 7 49.5 7C46.0526 7 43.1977 9.80101 43.1618 13.2664L45.6576 13.3023C45.6755 11.2015 47.4172 9.49578 49.5 9.49578C51.6187 9.49578 53.3424 11.2195 53.3424 13.3382V16.8035L50.7569 19.6943H48.2431L45.6576 16.8035V15.7621H43.1618V17.7552L45.8012 20.6998L39.481 24.9552V30.9882C35.9259 32.9453 32.9812 35.8899 31.042 39.481H24.9552L20.6998 45.8012L17.7552 43.1618H13.3382C9.83692 43.1618 7 46.0167 7 49.5C7 52.9833 9.83692 55.8382 13.3382 55.8382H17.7552L20.6998 53.1988L24.9552 59.519H31.042C32.9812 63.0921 35.9259 66.0547 39.481 68.0118V74.0448L45.8012 78.3002L43.1618 81.2448V85.6618C43.1618 89.1631 45.9987 92 49.5 92C53.0013 92 55.8382 89.1631 55.8382 85.6618V81.2448L53.1988 78.3002L54.8147 77.2049L53.4142 75.1401L50.9185 76.8278H48.0636L41.9768 72.7161V69.161C44.3109 70.0587 46.8426 70.5615 49.5 70.5615C52.1574 70.5615 54.6891 70.0587 57.0232 69.161V72.7161L55.497 73.7575L56.8976 75.8224L59.519 74.0448V68.0118C63.0741 66.0547 66.0188 63.1101 67.958 59.519H74.0448L78.3002 53.1988L81.2448 55.8382H85.6618C87.3496 55.8382 88.9476 55.1738 90.1327 53.9708C91.3357 52.7678 92 51.1878 92 49.5C92 47.8122 91.3357 46.2322 90.1506 45.0292ZM53.3424 85.6618C53.3424 87.7805 51.6187 89.5042 49.5 89.5042C47.3813 89.5042 45.6576 87.7805 45.6576 85.6618V82.1965L48.2431 79.3057H50.7569L53.3424 82.1965V85.6618ZM41.9768 26.2839L48.0636 22.1722H50.9185L57.0053 26.2839V29.839C54.6711 28.9413 52.1394 28.4385 49.482 28.4385C46.8247 28.4385 44.293 28.9413 41.9588 29.839L41.9768 26.2839ZM16.8035 53.3424H13.3382C11.2195 53.3424 9.49578 51.6187 9.49578 49.5C9.49578 47.3813 11.2195 45.6576 13.3382 45.6576H16.8035L19.6943 48.2431V50.7569L16.8035 53.3424ZM26.2839 57.0232L22.1722 50.9364V48.0815L26.2839 41.9947H29.8929C28.9951 44.3289 28.5103 46.8606 28.5103 49.518C28.5103 52.1574 28.9951 54.707 29.8929 57.0412L26.2839 57.0232ZM31.06 50.7928H32.9812V48.297H31.06C31.3293 44.1493 32.9453 40.3608 35.4949 37.3802L36.8775 38.7448L38.6371 36.9673L37.2545 35.6027C40.1992 32.9632 44.0057 31.2755 48.1713 30.9702L48.1893 32.9992L50.685 32.9812L50.6671 30.9523C54.8686 31.2036 58.6931 32.8735 61.6736 35.4949L60.2731 36.9134L62.0327 38.673L63.4332 37.2725C66.0188 40.2351 67.6886 44.0237 67.9759 48.1893H66.0547V50.685H67.9759C67.7066 54.8327 66.0906 58.6212 63.541 61.5839L62.1584 60.2193L60.3988 61.9968L61.7814 63.3614C58.8367 66.0008 55.0302 67.6886 50.8646 67.9939L50.8466 65.9649L48.3509 65.9829L48.3688 68.0118C44.1673 67.7605 40.3428 66.0906 37.3623 63.4692L38.7628 62.0507L37.0032 60.2911L35.6027 61.6916C33.0171 58.7649 31.3473 54.9584 31.06 50.7928ZM76.8278 50.9364L72.7161 57.0232H69.0891C69.9869 54.6891 70.4717 52.1574 70.4717 49.5C70.4717 46.8606 69.9869 44.3109 69.0891 41.9768H72.6981L76.8099 48.0636L76.8278 50.9364ZM88.391 52.2112C87.6548 52.9474 86.7032 53.3424 85.6798 53.3424H82.2144L79.3236 50.7569V48.2431L82.2144 45.6576H85.6798C86.7032 45.6576 87.6728 46.0526 88.391 46.7888C89.1272 47.5249 89.5222 48.4766 89.5222 49.5C89.5222 50.5234 89.1092 51.493 88.391 52.2112Z" fill="white"/>
</svg>
