<svg width="100" height="100" viewBox="0 0 100 100" fill="none" xmlns="http://www.w3.org/2000/svg">
<path d="M89.32 50.16C89.32 60.5459 85.1942 70.5064 77.8503 77.8503C70.5064 85.1942 60.5459 89.32 50.16 89.32C39.7741 89.32 29.8136 85.1942 22.4697 77.8503C15.1258 70.5064 11 60.5459 11 50.16C11 39.7741 15.1258 29.8136 22.4697 22.4697C29.8136 15.1258 39.7741 11 50.16 11C60.5459 11 70.5064 15.1258 77.8503 22.4697C85.1942 29.8136 89.32 39.7741 89.32 50.16ZM85.88 50.16C85.88 45.4692 84.9561 40.8243 83.161 36.4905C81.3659 32.1568 78.7348 28.2191 75.4179 24.9021C72.1009 21.5852 68.1632 18.9541 63.8295 17.159C59.4957 15.3639 54.8508 14.44 50.16 14.44C40.6865 14.44 31.6009 18.2033 24.9021 24.9021C18.2033 31.6009 14.44 40.6865 14.44 50.16C14.44 59.6335 18.2033 68.7191 24.9021 75.4179C31.6009 82.1167 40.6865 85.88 50.16 85.88C54.8508 85.88 59.4957 84.9561 63.8295 83.161C68.1632 81.3659 72.1009 78.7348 75.4179 75.4179C78.7348 72.1009 81.3659 68.1632 83.161 63.8295C84.9561 59.4957 85.88 54.8508 85.88 50.16Z" fill="white"/>
<path d="M82.4677 50.1616C82.4677 58.7307 79.0636 66.9489 73.0043 73.0082C66.945 79.0675 58.7268 82.4716 50.1577 82.4716C41.5885 82.4716 33.3703 79.0675 27.311 73.0082C21.2517 66.9489 17.8477 58.7307 17.8477 50.1616C17.8477 41.5924 21.2517 33.3742 27.311 27.3149C33.3703 21.2556 41.5885 17.8516 50.1577 17.8516C58.7268 17.8516 66.945 21.2556 73.0043 27.3149C79.0636 33.3742 82.4677 41.5924 82.4677 50.1616ZM51.8477 74.0716L51.8977 78.4316C51.9043 78.8316 52.1043 79.0116 52.4977 78.9716C66.6277 77.5816 77.6377 66.8916 78.9477 52.6616C78.9943 52.1549 78.7643 51.8982 78.2577 51.8916L74.2377 51.8416C73.4043 51.8349 72.8043 51.4582 72.4377 50.7116C72.3243 50.4916 72.301 50.2616 72.3677 50.0216C72.6543 48.9682 73.341 48.4416 74.4277 48.4416L78.1977 48.4316C78.8777 48.4316 79.1643 48.0982 79.0577 47.4316C77.0843 35.0649 70.5043 26.8382 59.3177 22.7516C57.2777 22.0049 54.9943 21.5382 52.4677 21.3516C52.0877 21.3249 51.8977 21.5016 51.8977 21.8816L51.8677 26.0516C51.8677 26.9182 51.471 27.5349 50.6777 27.9016C50.3043 28.0682 49.9143 27.9882 49.5077 27.6616C48.7943 27.0749 48.4377 26.3182 48.4377 25.3916L48.4477 21.9016C48.4543 21.5416 48.2743 21.3616 47.9077 21.3616C46.9277 21.3482 45.9543 21.4516 44.9877 21.6716C34.1677 24.1249 26.821 30.4016 22.9477 40.5016C22.061 42.8016 21.541 45.2682 21.3877 47.9016C21.3677 48.2416 21.5277 48.4116 21.8677 48.4116L26.3777 48.4716C26.7564 48.4782 27.1185 48.6324 27.3877 48.9016C28.1277 49.6749 28.171 50.4782 27.5177 51.3116C27.384 51.4827 27.2128 51.6211 27.017 51.7164C26.8212 51.8117 26.606 51.8613 26.3877 51.8616L22.0577 51.8816C21.5177 51.8816 21.2777 52.1482 21.3377 52.6816C22.9377 66.9016 33.5477 77.6216 47.8177 78.9716C48.231 79.0116 48.4377 78.8216 48.4377 78.4016L48.4477 74.1516C48.4477 73.8082 48.5678 73.4728 48.7877 73.2016C49.321 72.5282 49.8777 72.2516 50.4577 72.3716C51.371 72.5716 51.8343 73.1382 51.8477 74.0716Z" fill="white"/>
<path d="M51.877 39.8312L51.887 47.8412C51.887 48.3279 52.127 48.6179 52.607 48.7112C63.067 50.7512 62.777 62.3512 52.497 64.3912C52.1037 64.4645 51.9037 64.7012 51.897 65.1012L51.867 67.1212C51.8537 68.0345 51.4003 68.5912 50.507 68.7912C49.3737 69.0512 48.687 68.4212 48.447 66.9012C48.447 66.8879 48.447 66.8745 48.447 66.8612L48.437 65.1012C48.4303 64.7212 48.2437 64.4945 47.877 64.4212C43.947 63.6312 39.857 60.8312 39.967 56.5212C39.9788 56.1064 40.1454 55.7111 40.4342 55.4131C40.7229 55.1151 41.1128 54.936 41.527 54.9112C42.457 54.8512 43.147 55.5012 43.287 56.4012C43.6403 58.6945 45.147 60.2012 47.807 60.9212C48.2203 61.0345 48.427 60.8745 48.427 60.4412L48.447 52.4112C48.447 51.9779 48.237 51.7212 47.817 51.6412C37.377 49.6712 37.427 37.6512 47.947 35.9112C48.0723 35.8887 48.1862 35.8249 48.2698 35.7303C48.3534 35.6358 48.4018 35.5162 48.407 35.3912L48.507 32.9312C48.5178 32.6761 48.5907 32.4275 48.7192 32.207C48.8478 31.9866 49.0281 31.8011 49.2443 31.6668C49.4605 31.5325 49.706 31.4536 49.9593 31.4369C50.2126 31.4203 50.4659 31.4664 50.697 31.5712C51.757 32.0445 52.1303 33.0679 51.817 34.6412C51.677 35.3679 51.967 35.8112 52.687 35.9712C57.0737 36.9579 59.647 39.3379 60.407 43.1112C60.4721 43.4303 60.4408 43.7611 60.317 44.0612C59.7703 45.4079 58.9203 45.7745 57.767 45.1612C57.5732 45.0596 57.4072 44.9117 57.2834 44.7304C57.1597 44.5491 57.0819 44.3399 57.057 44.1212C56.7703 41.7679 55.2537 40.1845 52.507 39.3712C52.087 39.2445 51.877 39.3979 51.877 39.8312ZM48.407 47.8012L48.427 39.7412C48.427 39.6934 48.4081 39.6477 48.3743 39.6139C48.3405 39.5802 48.2948 39.5612 48.247 39.5612H48.077C46.8719 39.5581 45.7149 39.9954 44.86 40.7772C44.005 41.559 43.5221 42.6214 43.517 43.7312V43.7712C43.5145 44.3221 43.63 44.8682 43.8569 45.3781C44.0838 45.888 44.4177 46.3517 44.8394 46.7428C45.2611 47.1338 45.7623 47.4445 46.3145 47.657C46.8666 47.8695 47.4587 47.9797 48.057 47.9812H48.227C48.2748 47.9812 48.3205 47.9622 48.3543 47.9285C48.3881 47.8947 48.407 47.8489 48.407 47.8012ZM51.897 52.5512L51.877 60.5312C51.877 60.5614 51.883 60.5913 51.8945 60.6192C51.9061 60.6471 51.923 60.6725 51.9444 60.6938C51.9657 60.7152 51.9911 60.7321 52.019 60.7437C52.0469 60.7552 52.0768 60.7612 52.107 60.7612H52.257C52.8515 60.7626 53.4405 60.6547 53.9901 60.4437C54.5397 60.2327 55.0392 59.9228 55.46 59.5318C55.8808 59.1407 56.2146 58.6761 56.4423 58.1647C56.67 57.6532 56.7872 57.1049 56.787 56.5512V56.5312C56.7867 55.4164 56.3117 54.3472 55.4663 53.5579C54.6208 52.7687 53.4739 52.3239 52.277 52.3212H52.127C52.066 52.3212 52.0075 52.3454 51.9644 52.3886C51.9212 52.4317 51.897 52.4902 51.897 52.5512Z" fill="white"/>
<path d="M68.8966 51.8302C69.8189 51.8302 70.5666 51.0825 70.5666 50.1602C70.5666 49.2379 69.8189 48.4902 68.8966 48.4902C67.9742 48.4902 67.2266 49.2379 67.2266 50.1602C67.2266 51.0825 67.9742 51.8302 68.8966 51.8302Z" fill="white"/>
</svg>
