<svg width="500" height="500" viewBox="0 0 500 500" fill="none" xmlns="http://www.w3.org/2000/svg">
<path d="M269.578 80.3642C269.661 80.5934 269.794 80.8009 269.968 80.971C270.142 81.1412 270.353 81.2697 270.584 81.3467C270.815 81.4237 271.061 81.4473 271.302 81.4157C271.543 81.3841 271.775 81.2981 271.978 81.1642C276.528 78.1942 281.478 84.9742 286.448 83.8642C288.108 83.4975 289.451 82.7809 290.478 81.7142C290.699 81.4807 290.87 81.2041 290.98 80.9013C291.09 80.5986 291.137 80.2763 291.118 79.9542C290.931 77.0942 292.585 75.2276 296.078 74.3542C297.345 74.0409 298.518 74.2676 299.598 75.0342C303.778 77.9742 312.758 86.1342 309.968 90.8042C308.235 93.7109 307.071 96.7876 306.478 100.034C306.178 101.654 306.798 102.581 308.338 102.814C310.745 103.181 313.281 103.448 315.948 103.614C319.328 103.824 320.008 100.344 320.958 97.9142C321.057 97.6653 321.224 97.449 321.442 97.2899C321.659 97.1308 321.918 97.0353 322.188 97.0142C326.808 96.6842 328.198 98.9942 330.978 102.704C333.078 105.504 335.648 109.344 336.198 112.854C337.008 117.954 341.408 119.394 342.698 123.944C343.765 127.731 344.648 131.648 345.348 135.694C345.798 138.284 347.908 143.724 350.638 144.614C353.058 145.404 355.628 145.654 358.078 144.824C360.558 143.991 362.988 143.864 365.368 144.444C369.728 145.518 374.341 145.591 379.208 144.664C379.655 144.578 379.888 144.761 379.908 145.214C380.068 148.304 379.658 157.234 383.538 158.214C385.505 158.714 387.521 159.138 389.588 159.484C394.408 160.304 393.938 168.384 397.068 171.584C399.601 174.184 402.478 175.504 405.698 175.544C407.138 175.564 408.378 176.314 409.318 177.364C412.665 181.151 416.578 184.208 421.058 186.534C421.378 186.701 421.541 186.964 421.548 187.324C421.581 189.078 421.528 190.818 421.388 192.544C421.281 193.898 420.588 194.621 419.308 194.714C418.846 194.749 418.406 194.922 418.045 195.212C417.684 195.501 417.421 195.892 417.288 196.334C415.948 200.734 412.228 199.014 409.918 201.934C406.748 205.934 402.228 206.714 397.368 207.034C396.248 207.108 395.308 207.578 394.548 208.444C389.968 213.671 384.695 216.094 378.728 215.714C378.275 215.688 377.928 215.864 377.688 216.244C376.341 218.404 376.505 220.241 378.178 221.754C378.467 222.01 378.643 222.373 378.668 222.764C378.808 224.474 377.998 226.964 375.968 227.344C375.248 227.484 374.528 227.664 373.808 227.884C373.508 227.971 373.241 228.121 373.008 228.334C372.001 229.261 371.165 230.321 370.498 231.514C370.231 231.994 370.015 231.971 369.848 231.444C369.255 229.618 368.718 227.808 368.238 226.014C367.178 222.084 364.648 222.374 361.568 220.934C361.215 220.769 360.92 220.5 360.724 220.164C360.527 219.828 360.438 219.441 360.468 219.054C360.595 217.314 360.731 215.624 360.878 213.984C360.945 213.291 360.765 212.648 360.338 212.054C355.751 205.728 349.715 202.378 342.228 202.004C339.228 201.854 336.428 202.684 333.828 204.064C333.479 204.247 333.178 204.511 332.952 204.835C332.726 205.158 332.58 205.532 332.528 205.924L331.938 210.394C331.879 210.833 331.663 211.235 331.329 211.525C330.996 211.814 330.568 211.97 330.128 211.964L326.128 211.944C325.755 211.938 325.465 212.091 325.258 212.404L323.658 214.814C323.493 215.062 323.24 215.239 322.95 215.309C322.659 215.379 322.352 215.338 322.088 215.194C320.648 214.384 319.308 213.234 319.138 211.464C319.065 210.678 318.768 210.008 318.248 209.454C315.888 206.924 312.758 206.814 309.448 207.234C307.338 207.514 306.248 210.024 304.718 211.334C304.552 211.475 304.357 211.58 304.147 211.64C303.936 211.7 303.715 211.715 303.498 211.684L301.608 211.414C300.881 211.308 300.395 211.601 300.148 212.294C298.808 215.941 298.891 219.071 300.398 221.684C301.568 223.714 301.688 226.254 301.058 228.464C300.238 231.314 299.618 234.094 299.628 237.084C299.648 241.254 303.718 243.044 304.378 247.144C305.138 251.864 304.815 256.541 303.408 261.174C303.188 261.904 302.698 262.884 302.058 263.314C299.818 264.841 297.758 266.688 295.878 268.854C291.818 273.534 285.648 276.934 280.328 280.264C277.338 282.144 276.718 285.814 277.118 289.134C277.585 292.908 277.028 296.388 275.448 299.574C275.228 300.022 274.866 300.387 274.418 300.614C272.745 301.474 271.651 302.991 271.138 305.164C270.851 306.378 271.215 307.304 272.228 307.944C274.341 309.284 276.141 311.024 277.628 313.164C279.078 315.244 277.558 318.124 277.428 320.464C277.408 320.864 277.548 321.201 277.848 321.474L279.598 323.064C279.845 323.285 280.016 323.579 280.088 323.904C280.818 327.374 279.068 332.904 276.678 335.494C275.158 337.148 274.751 339.378 275.458 342.184C276.238 345.254 278.998 346.304 278.708 350.004C278.388 354.164 278.421 358.288 278.808 362.374C278.961 364.014 279.701 365.198 281.028 365.924C285.988 368.664 288.698 376.304 289.618 381.574C289.685 381.961 289.565 382.274 289.258 382.514C285.038 385.834 286.108 391.464 288.358 395.744C289.285 397.491 289.835 399.444 290.008 401.604C290.045 402.051 289.925 402.497 289.667 402.866C289.41 403.234 289.032 403.503 288.598 403.624C286.398 404.231 284.048 404.774 281.548 405.254C278.258 405.874 276.378 409.924 275.648 412.714C275.548 413.108 275.568 413.498 275.708 413.884L276.528 416.164C276.599 416.372 276.599 416.6 276.528 416.814C275.061 421.068 272.021 422.254 267.408 420.374C267.181 420.281 266.955 420.284 266.728 420.384C264.778 421.274 263.658 424.004 262.628 425.794C262.408 426.176 262.061 426.466 261.648 426.614L259.548 427.354C259.4 427.41 259.267 427.501 259.161 427.619C259.055 427.738 258.979 427.88 258.938 428.034C258.298 430.474 259.055 432.124 261.208 432.984C261.429 433.072 261.629 433.203 261.799 433.369C261.968 433.535 262.103 433.733 262.195 433.952C262.287 434.171 262.335 434.406 262.335 434.643C262.336 434.88 262.289 435.115 262.198 435.334C260.568 439.204 257.238 441.834 252.908 441.754C248.881 441.681 245.185 440.858 241.818 439.284C240.618 438.724 239.888 437.834 239.038 436.864C238.804 436.597 238.493 436.409 238.148 436.324C236.375 435.898 234.591 435.908 232.798 436.354C229.898 437.074 229.198 439.794 225.508 439.124C223.228 438.714 220.948 439.204 218.858 440.094C218.345 440.314 218.051 440.148 217.978 439.594C217.558 436.114 217.518 432.274 218.628 428.854C219.378 426.564 220.828 422.644 220.168 420.314C220.068 419.968 219.851 419.721 219.518 419.574C218.098 418.954 216.328 418.544 215.618 416.994C213.318 411.944 214.138 408.064 217.078 403.854C217.319 403.508 217.455 403.098 217.468 402.674L217.688 392.324C217.701 391.786 217.59 391.253 217.365 390.766C217.139 390.279 216.805 389.85 216.388 389.514C213.348 387.054 211.198 386.274 209.198 382.634C208.605 381.561 207.651 380.821 206.338 380.414C205.078 380.014 204.291 380.458 203.978 381.744C203.085 385.424 201.081 388.051 197.968 389.624C194.638 391.304 190.568 390.414 187.448 392.254C184.628 393.904 178.288 394.534 175.538 391.644C173.418 389.411 171.955 387.051 171.148 384.564C169.488 379.458 167.211 374.361 164.318 369.274C162.588 366.224 160.838 363.534 157.378 362.244C153.108 360.644 143.108 357.544 141.678 352.734C140.438 348.554 139.478 344.281 138.798 339.914C138.491 337.994 137.648 336.314 136.268 334.874C133.938 332.454 133.328 329.894 133.528 326.614C133.735 323.161 133.991 319.744 134.298 316.364C134.488 314.254 133.458 312.564 132.918 310.624C132.882 310.499 132.878 310.366 132.906 310.238C132.934 310.111 132.994 309.992 133.079 309.893C133.164 309.794 133.273 309.717 133.395 309.67C133.517 309.623 133.648 309.608 133.778 309.624L136.468 309.964C136.664 309.989 136.862 309.963 137.044 309.89C137.226 309.816 137.386 309.697 137.508 309.544C138.308 308.558 138.845 307.454 139.118 306.234C139.205 305.868 139.161 305.518 138.988 305.184C138.268 303.784 137.258 302.634 136.798 301.094C136.108 298.744 135.378 296.314 133.398 294.644C130.348 292.054 128.668 288.494 129.308 284.364C130.021 279.771 131.048 275.131 132.388 270.444C132.449 270.226 132.461 269.997 132.425 269.773C132.388 269.549 132.303 269.336 132.175 269.148C132.048 268.961 131.881 268.803 131.686 268.687C131.491 268.57 131.274 268.498 131.048 268.474C129.475 268.308 128.451 267.414 127.978 265.794C127.8 265.179 127.399 264.653 126.853 264.318C126.308 263.983 125.657 263.864 125.028 263.984C122.108 264.544 117.038 265.994 115.638 269.054C114.798 270.888 113.688 272.634 112.308 274.294C110.798 276.114 108.938 275.754 106.898 275.704C106.471 275.691 106.281 275.474 106.328 275.054C106.641 272.194 105.735 269.991 103.608 268.444C100.208 265.974 96.1581 264.514 94.7981 260.174C93.5581 256.164 89.5981 253.154 85.3781 253.334C83.2181 253.424 82.9881 252.064 82.2181 250.614C79.6981 245.828 78.6581 240.754 79.0981 235.394C79.2314 233.821 79.7948 232.434 80.7881 231.234C82.0681 229.681 83.1914 228.014 84.1581 226.234C87.2381 220.534 97.8281 222.224 102.738 223.474C106.768 224.504 109.958 223.794 113.208 221.564C113.518 221.352 113.741 221.032 113.838 220.664L114.518 218.004C114.618 217.611 114.871 217.384 115.278 217.324C118.358 216.891 120.875 217.608 122.828 219.474C123.032 219.67 123.288 219.8 123.566 219.85C123.843 219.9 124.129 219.867 124.388 219.754C127.301 218.488 129.965 216.774 132.378 214.614C132.654 214.366 132.858 214.048 132.968 213.693C133.079 213.338 133.093 212.958 133.008 212.594C132.495 210.454 133.181 208.428 135.068 206.514C136.848 204.714 139.278 205.054 141.308 203.644C143.868 201.864 145.008 199.584 145.418 196.594C145.798 193.864 148.588 193.684 150.558 194.604C159.668 198.884 165.648 193.974 170.998 187.344C173.858 183.804 177.718 182.714 181.978 182.264C186.008 181.824 185.908 176.514 185.408 173.594C185.306 172.996 185.392 172.381 185.656 171.834C185.919 171.288 186.347 170.837 186.878 170.544C188.591 169.611 189.305 168.061 189.018 165.894C188.638 163.024 185.218 162.714 187.888 159.284C188.455 158.558 189.178 158.174 190.058 158.134C192.488 158.024 193.858 159.344 195.338 160.964C196.758 162.504 198.638 162.314 200.508 162.404C202.688 162.518 204.651 163.631 206.398 165.744C206.537 165.914 206.637 166.112 206.694 166.324C206.751 166.536 206.763 166.758 206.728 166.974C206.448 168.768 207.311 170.111 209.318 171.004C210.598 171.564 212.098 172.324 213.388 171.344C215.355 169.844 216.691 168.088 217.398 166.074C217.546 165.655 217.545 165.197 217.396 164.777C217.247 164.357 216.958 163.999 216.578 163.764C213.228 161.674 216.598 159.264 215.018 156.544C214.145 155.038 213.175 153.548 212.108 152.074C211.943 151.844 211.86 151.564 211.872 151.279C211.885 150.995 211.993 150.722 212.178 150.504C215.091 147.098 215.248 143.531 212.648 139.804C211.188 137.714 213.148 133.424 213.788 131.164C214.368 129.104 212.708 126.284 210.498 126.264C203.891 126.204 198.325 125.064 193.798 122.844C191.178 121.564 192.248 118.004 193.288 115.984C194.118 114.354 193.608 112.764 193.508 111.064C193.455 110.238 193.788 109.614 194.508 109.194C196.848 107.824 199.608 106.984 202.098 108.594C204.008 109.824 206.378 111.524 208.708 110.154C212.308 108.048 215.291 104.711 217.658 100.144C219.738 96.1142 215.748 91.1142 218.418 87.5542C220.378 84.9409 222.625 82.4242 225.158 80.0042C227.688 77.5942 231.158 77.3242 233.718 75.1042C234.598 74.3442 235.355 73.5342 235.988 72.6742C239.738 67.6042 242.638 61.9242 248.428 58.1342C248.801 57.8875 249.041 57.9809 249.148 58.4142C249.661 60.4542 250.255 62.4809 250.928 64.4942C252.318 68.6542 256.128 71.8042 259.388 74.6042C261.301 76.2309 263.455 77.1709 265.848 77.4242C267.638 77.6142 268.978 78.6842 269.578 80.3642ZM254.488 275.884C263.998 261.994 272.568 244.024 270.548 226.754C268.478 208.944 256.698 193.424 239.698 187.234C213.258 177.614 186.048 195.954 180.478 222.434C177.228 237.924 182.738 253.794 190.338 266.984C198.291 280.798 209.181 294.354 223.008 307.654C224.148 308.754 225.918 308.984 227.128 307.834C237.495 298.028 246.615 287.378 254.488 275.884ZM200.988 311.794C203.338 314.614 208.208 315.914 211.728 316.624C220.855 318.478 230.085 318.428 239.418 316.474C242.608 315.814 249.928 313.684 250.248 309.734C250.578 305.594 241.858 303.184 238.938 302.594C238.794 302.567 238.646 302.577 238.508 302.622C238.37 302.668 238.246 302.747 238.148 302.854C235.555 305.694 232.988 308.264 230.448 310.564C226.975 313.704 223.501 313.734 220.028 310.654C217.561 308.468 214.978 305.891 212.278 302.924C212.011 302.631 211.688 302.528 211.308 302.614C207.768 303.354 196.728 306.684 200.988 311.794Z" fill="white"/>
<path d="M249.729 230.935C249.729 237.446 247.142 243.69 242.538 248.294C237.934 252.898 231.69 255.485 225.179 255.485C218.668 255.485 212.423 252.898 207.819 248.294C203.215 243.69 200.629 237.446 200.629 230.935C200.629 224.424 203.215 218.179 207.819 213.575C212.423 208.971 218.668 206.385 225.179 206.385C231.69 206.385 237.934 208.971 242.538 213.575C247.142 218.179 249.729 224.424 249.729 230.935ZM239.999 230.925C239.999 226.997 238.439 223.23 235.661 220.453C232.884 217.675 229.117 216.115 225.189 216.115C221.261 216.115 217.494 217.675 214.717 220.453C211.939 223.23 210.379 226.997 210.379 230.925C210.379 234.853 211.939 238.62 214.717 241.397C217.494 244.174 221.261 245.735 225.189 245.735C229.117 245.735 232.884 244.174 235.661 241.397C238.439 238.62 239.999 234.853 239.999 230.925Z" fill="white"/>
</svg>
