<svg width="500" height="500" viewBox="0 0 500 500" fill="none" xmlns="http://www.w3.org/2000/svg">
<path d="M207.279 69.0911C280.016 40.6646 358.057 90.6718 375.472 163.967C388.75 219.887 362.51 276.566 330.791 322.226C308.287 354.626 283.226 383.774 255.607 409.671C251.075 413.908 246.686 411.774 242.629 407.964C209.389 376.702 180.659 341.593 156.44 302.637C145.336 284.772 136.357 265.642 129.505 245.247C117.269 208.805 117.664 170.196 134.431 136.442C150.409 104.284 174.691 81.834 207.279 69.0911ZM319.486 192.109C319.486 173.655 312.166 155.957 299.135 142.909C286.104 129.86 268.43 122.529 250.002 122.529C231.573 122.529 213.9 129.86 200.869 142.909C187.838 155.957 180.517 173.655 180.517 192.109C180.517 210.563 187.838 228.261 200.869 241.31C213.9 254.358 231.573 261.689 250.002 261.689C268.43 261.689 286.104 254.358 299.135 241.31C312.166 228.261 319.486 210.563 319.486 192.109Z" fill="white"/>
<path d="M250 235C273.196 235 292 216.196 292 193C292 169.804 273.196 151 250 151C226.804 151 208 169.804 208 193C208 216.196 226.804 235 250 235Z" fill="white"/>
<path d="M236.18 418.905C244.827 426.504 256.048 426.424 264.364 418.491C272.476 410.776 280.035 403.124 287.042 395.535C287.229 395.331 287.467 395.18 287.733 395.097C287.998 395.013 288.282 395 288.557 395.058C294.743 396.415 300.892 398.386 307.005 400.972C315.053 404.374 326.715 412.689 317.783 422.037C310.066 430.097 295.342 434.007 284.596 435.883C257.936 440.557 232.155 439.974 207.253 434.135C200.13 432.46 193.697 429.975 187.953 426.679C171.399 417.204 180.583 406.091 193.113 400.845C199.078 398.344 205.165 396.41 211.372 395.042C211.95 394.915 212.44 395.074 212.839 395.519C222.034 405.503 229.815 413.298 236.18 418.905Z" fill="white"/>
</svg>
