<svg width="500" height="500" viewBox="0 0 500 500" fill="none" xmlns="http://www.w3.org/2000/svg">
<path d="M87.8113 282.026C55.9436 243.029 53.0872 189.498 82.0182 147.749C120.275 92.5015 193.693 73.3602 256.705 87.4571C304.186 98.0758 347.812 129.045 364.181 175.516C368.816 188.677 370.682 202.305 369.779 216.402C369.749 216.801 369.546 216.939 369.171 216.817C337.143 205.975 305.176 205.48 273.27 215.331C262.472 218.663 251.796 223.669 241.242 230.349C204.831 253.429 182.428 293.255 191.249 336.513C191.349 337.035 191.138 337.262 190.618 337.193C173.87 334.905 157.913 330.409 142.748 323.706C142.358 323.53 141.964 323.526 141.566 323.695L81.9723 348.917C81.5364 349.109 81.3452 348.967 81.3987 348.491L88.3045 283.685C88.3734 283.063 88.2089 282.51 87.8113 282.026Z" fill="white"/>
<path d="M371.221 226.237C406.861 239.996 437.827 271.727 437.999 311.976C438.091 331.853 430.333 350.933 417.635 365.685C417.504 365.842 417.406 366.023 417.347 366.217C417.287 366.412 417.268 366.615 417.29 366.816L422.769 415.515C422.823 415.961 422.643 416.099 422.228 415.93L375.618 397.058C375.281 396.919 374.939 396.919 374.594 397.058C341.218 410.463 307.593 412.156 273.719 402.137C254.356 396.419 237.5 386.735 223.149 373.083C196.488 347.713 188.131 310.787 204.063 277.475C218.302 247.695 249.786 227.933 281.121 220.396C311.895 212.993 341.928 214.94 371.221 226.237Z" fill="white"/>
</svg>
