<svg width="100" height="66" viewBox="0 0 100 66" fill="none" xmlns="http://www.w3.org/2000/svg">
<g clip-path="url(#clip0_1198_582)">
<path d="M25.8299 42.7458H22.7668C23.4601 45.9702 23.718 45.8089 25.8299 45.5349V42.7458ZM58.992 42.7378H51.0763V45.6155H58.992V42.7378ZM39.9605 45.6316H48.0293V42.7055H39.9605V45.6316ZM28.8285 45.6397H36.9296V42.7136H28.8285V45.6397ZM17.6563 32.8714C17.6563 34.0886 17.6241 35.2251 17.6805 36.3536C17.6886 36.5955 17.9949 36.9663 18.2206 37.0227C19.6151 37.3774 20.6952 38.0867 21.3804 39.3926C21.4852 39.586 21.8076 39.7634 22.0333 39.7714C23.1054 39.8117 24.1775 39.8198 25.2496 39.7634C25.4914 39.7472 25.9105 39.4651 25.9105 39.2958C25.9509 37.1597 25.9428 35.0317 25.9428 32.8633H17.6563V32.8714ZM36.9941 23.0695H28.9333V29.8325H36.9941V23.0695ZM25.9025 23.0856H17.8659V29.8647H25.9025V23.0856ZM36.9458 32.9036H28.9253V39.7069H36.9458V32.9036ZM48.0616 32.8875H40.0089V39.6989H48.0616V32.8875ZM51.0602 39.6827H59.1532V32.8794H51.0602V39.6827ZM36.9538 12.792H28.9253V20.0306H36.9538V12.792ZM90.6064 22.2553H73.4933V30.3887H90.7595V22.4327C90.7112 22.3762 90.6548 22.3198 90.6064 22.2553ZM91.3883 19.2648C91.4528 19.2325 91.5173 19.1922 91.5898 19.1519C91.5334 19.0633 91.4689 18.9746 91.4044 18.8859C90.7998 17.6123 89.623 17.1609 88.3735 17.1448C84.061 17.0803 79.7405 17.1126 75.4279 17.1529C74.0415 17.169 73.0742 17.8944 72.4454 19.2648H91.3883ZM99.8844 41.0289C99.7957 41.577 99.4088 42.633 99.2234 43.2134C98.1755 46.4699 97.1679 49.7345 96.128 53.0556C96.5633 53.0556 96.9744 53.0475 97.3855 53.0556C98.3367 53.0798 98.7558 53.4747 98.7961 54.3534C98.8364 55.1836 98.3044 55.9736 97.5225 55.9494C96.2167 55.9091 95.33 56.5943 94.395 57.3359C93.3712 58.1419 92.2105 58.4563 90.8724 58.5692C88.8975 58.7304 87.4707 57.9162 86.0198 56.7958C84.7059 55.7721 82.9406 55.4335 81.0866 57.0054C78.7651 58.9722 76.2663 59.1898 73.9286 57.9324C73.2435 57.5616 72.6389 57.0296 71.986 56.5781C70.7124 55.7076 68.9148 55.7076 67.7541 56.7152C64.7393 59.343 61.6118 59.3269 58.5406 56.8038C57.0897 55.6028 55.3969 55.6673 53.9459 56.8442C52.5676 57.9565 51.0602 58.7868 49.2143 58.7143C47.6747 58.6498 46.3769 57.9646 45.1758 57.0699C43.0961 55.5222 41.8145 55.5222 39.8235 57.1424C38.6627 58.0936 37.4052 58.4644 35.8898 58.5772C34.0519 58.7062 32.6977 57.9646 31.3677 56.9248C29.683 55.6109 27.9822 55.635 26.2975 56.9973C25.0158 58.0291 23.6052 58.7546 21.9124 58.6981C20.534 58.6578 19.204 58.287 18.1803 57.3439C16.3988 55.6995 14.561 55.3207 12.1105 57.3036C9.66001 59.2866 6.71782 59.1254 4.38826 57.2472C3.51769 56.5378 2.63907 56.0461 1.41383 55.9333C0.607752 55.8527 0.325624 55.5061 0.0999223 55.0063C0.0193145 54.6677 -0.0774149 54.3292 0.0999223 53.8375C0.48684 52.8944 1.64759 52.846 2.44561 53.112C3.70309 53.5312 4.99282 54.0632 6.04072 54.8612C7.7496 56.159 9.3134 56.0381 10.8208 54.7C13.2954 52.4913 16.9792 52.5075 19.5667 54.6839C21.5658 56.3686 22.9522 56.0058 24.4677 54.7161C26.5232 52.9589 28.8205 52.6284 31.279 53.4989C32.206 53.8214 32.9879 54.5549 33.8262 55.1111C35.0515 55.9172 36.8007 55.8607 37.9372 54.9176C39.3156 53.773 40.7908 52.9427 42.6689 53.0556C44.1924 53.1443 45.5708 53.5473 46.7557 54.5549C48.8838 56.3524 50.0687 56.2557 51.963 54.6677C54.6231 52.4349 58.2746 52.5961 60.8943 54.8451C62.5146 56.2315 64.1106 56.0623 65.6502 54.6919C68.1249 52.4994 71.8086 52.5075 74.3881 54.6919C76.097 56.1429 77.5399 56.1912 79.289 54.7161C81.3123 53.0153 83.5774 52.58 86.0117 53.4909C86.9871 53.8536 87.8012 54.6597 88.7363 55.1675C89.3005 55.4738 89.9454 55.7237 90.5741 55.7721C91.6946 55.8527 92.3475 55.2884 92.7344 54.0954C94.1209 49.7265 95.467 45.3495 96.8696 40.9886C97.1276 40.1825 96.8454 39.9326 96.0958 39.9326C94.4433 39.9407 92.7828 39.981 91.1223 39.9084C90.6306 39.8843 90.0421 39.6505 89.6955 39.3119C88.9056 38.5381 89.3247 37.2645 90.421 37.0952C91.614 36.9098 92.8312 36.8857 94.1128 36.7809C94.1128 36.0312 94.0806 35.2574 94.1209 34.4835C94.1612 33.6775 93.8065 33.3873 93.0246 33.3953C90.163 33.4195 87.3015 33.4034 84.4399 33.4034C80.0548 33.4034 75.6617 33.4034 71.2766 33.4034C70.0756 33.4034 69.9385 33.5485 69.9305 34.7334C69.9224 35.4428 69.9305 36.1602 69.9305 37.0066C70.3093 37.0066 70.656 37.0066 70.9945 37.0066C75.1861 37.0066 79.3777 37.0066 83.5774 37.0146C83.9562 37.0146 84.4883 36.9663 84.6898 37.1839C85.2943 37.5628 85.52 38.2076 85.4636 38.6751C85.4072 39.1185 85.254 39.4812 84.7946 39.7956C84.5689 39.9488 83.6741 39.9246 83.3517 39.9246C78.7006 39.9326 74.0576 39.9246 69.4065 39.9246C67.7379 39.9246 67.6251 40.0455 67.0044 41.6335C66.3999 43.1811 65.7792 44.7288 65.0456 46.2281C64.3121 47.7355 63.0788 48.6141 61.3296 48.6141C49.1095 48.6141 36.8813 48.6222 24.6611 48.606C22.5331 48.606 21.2917 47.6307 20.5662 45.5832C20.0101 44.0114 19.47 42.4395 18.809 40.908C18.6317 40.4969 18.0513 39.981 17.6563 39.981C13.0133 39.9165 8.37028 39.9407 3.57412 39.9407C3.94492 41.2224 4.25929 42.4154 4.63008 43.5922C5.08149 45.0593 5.58125 46.5183 6.04878 47.9854C6.38733 49.0413 6.05684 49.8796 5.23464 50.1134C4.26735 50.3955 3.67891 50.0489 3.30811 48.9123C2.38918 46.0669 1.47832 43.2214 0.583569 40.376C0.0999223 38.8525 1.45413 37.0872 3.20332 37.0307C5.31525 36.9582 7.42717 36.9985 9.5391 36.9985C11.2883 36.9985 13.0375 36.9985 14.8834 36.9985V35.87C14.8834 31.5494 14.8753 27.2208 14.8834 22.9002C14.8915 20.8286 15.6411 20.095 17.7369 20.095C20.4292 20.095 23.1296 20.095 25.9428 20.095C25.9428 18.6038 25.9347 17.1529 25.9428 15.7019C25.9509 14.3719 25.9508 13.0419 26.0234 11.7118C26.0798 10.7445 26.6441 10.1158 27.6114 9.9707C28.3449 9.86591 29.0946 9.82561 29.8361 9.83367C32.4962 9.84979 35.1563 9.82561 37.8083 9.9707C39.1947 10.0432 39.8799 10.9299 39.9202 12.3325C39.9524 13.6948 39.9282 15.0651 39.9282 16.4274C39.9282 20.8769 39.9282 25.3265 39.9282 29.8486H48.0455V23.0292C47.0056 23.0292 45.9497 23.0372 44.8856 23.0292C43.9506 23.0211 43.3299 22.5133 43.209 21.675C43.1284 21.1268 43.8942 20.1434 44.5793 20.1353C46.0544 20.1192 47.5457 20.1192 49.0047 20.3207C50.4718 20.5223 51.0038 21.3203 51.0118 22.8357C51.0279 25.1089 51.036 27.382 51.0441 29.6632C51.0924 29.7357 51.1489 29.8002 51.1972 29.8728C53.7605 29.8889 56.3319 29.9614 58.8953 29.905C60.8782 29.8647 62.1115 30.7917 62.1115 33.1132C62.1035 37.1355 62.1115 41.1579 62.305 45.2527C62.7 44.358 63.103 43.4713 63.4819 42.5685C63.893 41.5851 64.2154 40.5533 64.6829 39.5941C64.9812 38.9815 65.3681 38.2399 65.9243 37.9416C66.8916 37.4257 67.0528 36.7647 67.0286 35.7894C67.0125 34.7818 67.0689 33.7339 67.343 32.7747C67.7379 31.3479 68.9954 30.7836 70.3174 30.4048C70.3658 30.3484 70.4222 30.2919 70.4706 30.2355V22.4407C70.4222 22.3843 70.3658 22.3279 70.3174 22.2715C69.1002 21.5621 68.9793 21.0946 69.3179 19.5792C69.9385 16.774 71.5507 14.9361 74.3962 14.3638C75.3634 14.1704 76.3872 14.2349 77.3867 14.2107C78.4507 14.1865 79.5228 14.2026 80.5385 14.2026V10.5269C79.4583 10.5269 78.4668 10.535 77.4754 10.5269C76.5242 10.5188 75.6133 9.76918 75.5891 8.99535C75.565 8.18121 76.492 7.40737 77.5157 7.39931C78.4588 7.39125 79.3938 7.39931 80.4014 7.39931V5.90001C79.2246 5.80328 77.822 5.83552 77.7575 4.10245C77.7172 3.1271 78.4427 2.77242 80.3611 2.69181C80.4659 2.14368 80.5707 1.59555 80.6755 1.03935C80.8367 0.152668 81.5299 -0.0972162 82.2312 0.0317564C82.9083 0.160729 83.4645 0.547646 83.4081 1.47464C83.3275 2.88527 83.3839 2.89333 84.7865 2.90946C85.8102 2.92558 86.3181 3.34474 86.31 4.19918C86.31 5.00526 85.6329 5.60982 84.7543 5.65012C84.1578 5.68236 83.3356 5.30351 83.3517 6.52069C83.3597 7.37513 83.5935 7.6895 84.456 7.60889C85.2298 7.53635 86.0117 7.59277 86.7936 7.59277C87.7045 7.59277 88.438 8.18927 88.4542 8.93892C88.4703 9.64021 87.5997 10.4947 86.7936 10.5108C85.6974 10.543 84.593 10.5188 83.4323 10.5188V14.1946C84.9397 14.1946 86.4309 14.1623 87.9141 14.2026C91.0014 14.2832 93.3471 15.5488 94.4836 18.5474C94.7577 19.2728 94.798 20.095 94.8625 20.8769C94.8786 21.151 94.7013 21.6105 94.4917 21.6991C93.4921 22.1344 93.6937 22.9727 93.6937 23.7466C93.6856 25.9875 93.6937 28.2284 93.6937 30.437C94.3305 30.695 94.9995 30.832 95.5073 31.1947C96.4021 31.8315 96.9583 32.7021 96.8454 33.9032C96.7648 34.7415 96.7971 35.5959 96.8454 36.4342C96.8616 36.6841 97.0631 37.0952 97.2485 37.1355C98.7236 37.458 99.6506 38.3447 99.9488 39.7795C100.094 40.4727 99.8844 41.0289 99.8844 41.0289Z" fill="white"/>
<path d="M0.0989134 61.2519C0.453588 59.8412 2.38012 60.47 3.53281 60.7602C4.35501 60.9697 5.1369 61.5018 5.83013 62.0257C7.59544 63.3638 9.27208 63.5089 10.9004 62.0257C13.3508 59.7848 17.3571 59.9702 19.6463 62.1708C20.9119 63.3799 23.314 63.3154 24.507 62.1144C26.7317 59.8815 30.746 59.8815 33.0917 61.9612C33.9381 62.7109 34.8489 63.0494 36.0258 63.0414C37.243 63.0333 37.9765 62.2836 38.7584 61.6468C40.8381 59.9541 44.5541 60.0669 46.6016 61.7919C47.5205 62.5658 48.5039 63.3154 49.7856 62.9688C50.64 62.735 51.567 62.4126 52.2038 61.8403C54.4528 59.8251 58.4187 59.938 60.6596 62.066C61.9412 63.2832 64.2466 63.4283 65.6734 62.0579C67.9788 59.8493 71.9689 59.938 74.0405 61.8403C75.9186 63.5734 77.9822 63.4525 79.8926 61.6871C81.7627 59.9621 85.8012 60.0589 87.8889 61.9048C88.6224 62.5497 89.4124 63.0011 90.5087 63.0494C91.879 63.1139 92.7093 62.3159 93.6201 61.6227C94.8534 60.6876 96.2157 60.3329 97.715 60.478C98.5372 60.5586 98.8838 61.0987 98.8274 61.9612C98.771 62.735 98.4405 63.1381 97.6666 63.1945C96.4495 63.2832 95.4822 63.8555 94.539 64.6051C92.2337 66.4511 88.6547 66.5881 86.1961 64.3069C84.7936 63.0091 82.4479 63.1058 81.0372 64.4359C78.8608 66.4914 75.1448 66.5236 72.7346 64.5245C70.7839 62.9124 69.4217 62.8801 67.4629 64.4198C65.3832 66.048 63.102 66.4108 60.6596 65.508C59.9744 65.2581 59.4021 64.6858 58.7895 64.2505C57.0725 63.0172 55.5732 62.9527 53.9288 64.2908C51.2688 66.4511 47.8268 66.6203 44.9975 64.315C43.2967 62.9285 41.7409 63.0172 40.0723 64.2988C37.1221 66.5639 34.6877 66.7171 31.7617 64.5407C29.6256 62.9527 27.9328 62.856 25.9095 64.6696C23.8621 66.4994 19.8559 66.3221 17.8326 64.4439C16.285 63.0091 14.6567 63.1381 13.367 63.8071C12.7302 64.1376 12.1498 64.6052 11.6017 65.0807C10.0056 66.4591 5.80595 66.1931 4.22603 64.5245C3.56505 63.8152 2.70255 63.3638 1.60628 63.3396C1.09845 63.3235 0.284311 62.993 0.106974 62.4126C0.00218404 62.0741 0.00218404 61.7113 0.0989134 61.2519Z" fill="white"/>
<path d="M70.3281 22.2637C70.3846 22.3201 70.4329 22.3765 70.4813 22.4329C70.4249 22.3765 70.3765 22.3201 70.3281 22.2637Z" fill="white"/>
<path d="M51.2039 29.8483C51.1556 29.7757 51.0991 29.7112 51.0508 29.6387C51.0991 29.7112 51.1556 29.7838 51.2039 29.8483Z" fill="white"/>
<path d="M88.0741 26.3427C88.0741 25.9235 88.0338 25.4963 88.0822 25.0771C88.1709 24.2872 87.663 23.9486 87.0504 23.8197C86.3572 23.6746 85.5672 23.8116 85.4463 24.6177C85.2851 25.6575 85.2287 26.7538 85.3899 27.7856C85.5431 28.8254 86.1154 29.0995 87.1552 28.8576C87.8887 28.6964 88.1628 28.1564 88.0822 27.4067C88.0419 27.052 88.0741 26.6973 88.0741 26.3427ZM75.588 26.3427C75.588 26.7618 75.5719 27.181 75.588 27.6002C75.6364 28.4707 76.0958 28.8738 77.0148 28.8657C77.7966 28.8576 78.4899 28.3014 78.5141 27.584C78.5382 26.778 78.5463 25.9638 78.506 25.1658C78.4657 24.3678 77.8047 23.8035 76.9906 23.7874C76.2732 23.7793 75.6444 24.392 75.5961 25.1739C75.5719 25.5608 75.588 25.9558 75.588 26.3427ZM83.1974 26.4475C83.1974 25.9961 83.1893 25.5366 83.2054 25.0852C83.2296 24.4 82.8508 23.9647 82.2543 23.8358C81.6336 23.7068 80.9887 23.731 80.626 24.4726C80.0134 25.7059 80.1343 26.9714 80.5373 28.1886C80.8114 29.0108 81.7061 29.043 82.351 28.8254C82.7218 28.6964 82.9959 28.0677 83.1732 27.6082C83.3022 27.2616 83.1974 26.8344 83.1974 26.4475ZM73.4922 30.3892V22.2559ZM90.6052 22.2559C90.6536 22.3123 90.71 22.3687 90.7584 22.4332Z" fill="white"/>
<path d="M91.4062 18.8926C91.4707 18.9812 91.5272 19.0699 91.5917 19.1586Z" fill="white"/>
<path d="M83.2008 26.447C83.2008 26.8339 83.3055 27.2692 83.1766 27.6078C83.0073 28.0672 82.7332 28.696 82.3544 28.8249C81.7095 29.0426 80.8148 29.0103 80.5407 28.1881C80.1457 26.971 80.0167 25.7054 80.6294 24.4721C80.9921 23.7305 81.6289 23.7063 82.2576 23.8353C82.8541 23.9643 83.233 24.3915 83.2088 25.0847C83.1846 25.5361 83.2008 25.9876 83.2008 26.447Z" fill="white"/>
<path d="M75.5868 26.3403C75.5868 25.9533 75.5626 25.5664 75.5949 25.1795C75.6513 24.3976 76.272 23.785 76.9894 23.793C77.8035 23.8011 78.4726 24.3654 78.5048 25.1714C78.5451 25.9775 78.5371 26.7836 78.5129 27.5897C78.4887 28.299 77.8035 28.8633 77.0136 28.8713C76.0947 28.8794 75.6352 28.4764 75.5868 27.6058C75.5707 27.1786 75.5868 26.7594 75.5868 26.3403Z" fill="white"/>
<path d="M88.0818 26.3439C88.0818 26.6986 88.0496 27.0614 88.0899 27.416C88.1705 28.1657 87.8884 28.7058 87.1629 28.867C86.1231 29.1007 85.5588 28.8347 85.3976 27.7949C85.2444 26.7631 85.2928 25.6668 85.454 24.627C85.583 23.8129 86.3649 23.6839 87.0581 23.829C87.6707 23.9579 88.1786 24.2965 88.0899 25.0865C88.0415 25.4976 88.0818 25.9248 88.0818 26.3439Z" fill="white"/>
</g>
<defs>
<clipPath id="clip0_1198_582">
<rect width="100" height="66" fill="white"/>
</clipPath>
</defs>
</svg>
