<svg width="500" height="500" viewBox="0 0 500 500" fill="none" xmlns="http://www.w3.org/2000/svg">
<path d="M162.672 162.9C144.46 179.67 137.36 208.084 135.272 232.271C133.717 250.394 134.34 268.154 137.143 285.551C140.103 303.973 146.831 324.111 160.557 336.282C160.882 336.572 161.258 336.691 161.685 336.64C169.588 335.641 177.948 334.454 186.765 333.079C191.956 332.272 196.082 334.706 197.889 339.484C206.108 361.322 213.845 382.063 221.099 401.706C222.675 405.972 222.367 410.571 218.702 413.3C204.758 423.702 189.747 434.963 173.667 447.082C170.323 449.606 166.734 449.58 163.171 447.351C133.131 428.545 114.254 392.572 104.001 358.893C99.5669 344.357 96.2348 329.577 94.0048 314.554C88.5026 277.463 87.5372 239.607 91.1085 200.987C92.6635 184.162 95.2608 168.14 98.9005 152.921C107.192 118.178 122.968 81.6032 151.471 59.0306C156.324 55.1959 161.04 52.369 165.619 50.5498C168.554 49.384 172.283 50.1399 174.744 52.1768C189.405 64.3129 203.78 75.7401 217.869 86.4584C221.201 88.995 222.047 93.4916 220.714 97.3732C214.016 116.905 206.775 137.842 198.991 160.185C197.825 163.528 193.583 166.411 190.366 166.923C188.427 167.23 186.44 167.171 184.407 166.744C177.572 165.309 170.66 163.934 163.671 162.619C163.287 162.542 162.954 162.636 162.672 162.9Z" fill="white"/>
<path d="M229.844 165.374C237.045 145.296 244.388 125.385 251.872 105.641C252.989 102.711 252.283 99.8828 251.949 96.9264C251.88 96.3437 252.142 96.0523 252.732 96.0523C287.01 96.138 322.011 96.1208 357.736 96.0009C364.278 95.9752 369.66 96.515 373.881 97.6205C389.847 101.824 402.923 112.03 407.919 128.2C409.315 132.742 410.008 139.58 410 148.715C409.914 220.937 409.893 290.07 409.936 356.114C409.936 359.902 409.422 363.48 408.394 366.847C403.115 384.174 392.454 398.16 375.371 403.07C370.739 404.398 363.957 405.041 355.026 404.998C324.713 404.861 290.26 404.839 251.666 404.934C250.921 404.934 250.703 404.595 251.011 403.918L252.334 400.975C252.524 400.537 252.542 400.046 252.386 399.599C243.917 375.665 235.333 351.5 226.633 327.103C224.517 321.164 220.934 315.898 215.882 311.305C204.155 300.636 188.472 300.572 173.624 303.554C173.118 303.657 172.801 303.456 172.673 302.95C163.9 268.321 163.399 230.428 173.431 195.928C173.568 195.456 173.872 195.281 174.343 195.401C191.182 199.9 209.614 197.804 220.878 184.128C223.524 180.914 226.513 174.663 229.844 165.374ZM381.011 173.479C381.014 171.428 380.614 169.397 379.833 167.501C379.052 165.604 377.906 163.881 376.459 162.428C375.012 160.975 373.294 159.822 371.402 159.034C369.51 158.246 367.481 157.838 365.432 157.834L270.383 157.668C266.244 157.661 262.272 159.3 259.34 162.223C256.408 165.147 254.757 169.117 254.75 173.259L254.748 174.107C254.745 176.158 255.145 178.19 255.926 180.086C256.707 181.982 257.853 183.706 259.3 185.158C260.747 186.611 262.465 187.765 264.357 188.553C266.249 189.341 268.278 189.748 270.327 189.752L365.376 189.918C369.515 189.925 373.487 188.287 376.419 185.363C379.351 182.439 381.002 178.47 381.009 174.328L381.011 173.479ZM286.59 249.85C286.59 245.947 285.041 242.203 282.283 239.443C279.525 236.683 275.784 235.132 271.884 235.132C267.983 235.132 264.242 236.683 261.484 239.443C258.726 242.203 257.177 245.947 257.177 249.85C257.177 253.754 258.726 257.497 261.484 260.257C264.242 263.017 267.983 264.568 271.884 264.568C275.784 264.568 279.525 263.017 282.283 260.257C285.041 257.497 286.59 253.754 286.59 249.85ZM332.612 249.837C332.612 247.905 332.232 245.991 331.493 244.205C330.754 242.42 329.67 240.797 328.305 239.43C326.939 238.064 325.318 236.98 323.533 236.24C321.749 235.5 319.837 235.12 317.905 235.12C314.005 235.12 310.264 236.67 307.506 239.43C304.748 242.19 303.198 245.934 303.198 249.837C303.198 253.741 304.748 257.484 307.506 260.244C310.264 263.005 314.005 264.555 317.905 264.555C319.837 264.555 321.749 264.175 323.533 263.435C325.318 262.695 326.939 261.611 328.305 260.244C329.67 258.878 330.754 257.255 331.493 255.47C332.232 253.684 332.612 251.77 332.612 249.837ZM378.634 249.85C378.634 245.947 377.084 242.203 374.326 239.443C371.568 236.683 367.827 235.132 363.927 235.132C360.026 235.132 356.286 236.683 353.528 239.443C350.769 242.203 349.22 245.947 349.22 249.85C349.22 253.754 350.769 257.497 353.528 260.257C356.286 263.017 360.026 264.568 363.927 264.568C367.827 264.568 371.568 263.017 374.326 260.257C377.084 257.497 378.634 253.754 378.634 249.85ZM286.59 296.073C286.59 292.17 285.041 288.426 282.283 285.666C279.525 282.906 275.784 281.355 271.884 281.355C267.983 281.355 264.242 282.906 261.484 285.666C258.726 288.426 257.177 292.17 257.177 296.073C257.177 299.977 258.726 303.72 261.484 306.48C264.242 309.24 267.983 310.791 271.884 310.791C275.784 310.791 279.525 309.24 282.283 306.48C285.041 303.72 286.59 299.977 286.59 296.073ZM332.599 296.073C332.599 292.173 331.051 288.433 328.295 285.675C325.54 282.918 321.802 281.368 317.905 281.368C314.008 281.368 310.271 282.918 307.515 285.675C304.759 288.433 303.211 292.173 303.211 296.073C303.211 299.973 304.759 303.714 307.515 306.471C310.271 309.229 314.008 310.778 317.905 310.778C321.802 310.778 325.54 309.229 328.295 306.471C331.051 303.714 332.599 299.973 332.599 296.073ZM378.634 296.073C378.634 292.17 377.084 288.426 374.326 285.666C371.568 282.906 367.827 281.355 363.927 281.355C360.026 281.355 356.286 282.906 353.528 285.666C350.769 288.426 349.22 292.17 349.22 296.073C349.22 299.977 350.769 303.72 353.528 306.48C356.286 309.24 360.026 310.791 363.927 310.791C367.827 310.791 371.568 309.24 374.326 306.48C377.084 303.72 378.634 299.977 378.634 296.073ZM286.59 342.63C286.59 338.727 285.041 334.983 282.283 332.223C279.525 329.463 275.784 327.913 271.884 327.913C267.983 327.913 264.242 329.463 261.484 332.223C258.726 334.983 257.177 338.727 257.177 342.63C257.177 346.534 258.726 350.277 261.484 353.037C264.242 355.798 267.983 357.348 271.884 357.348C275.784 357.348 279.525 355.798 282.283 353.037C285.041 350.277 286.59 346.534 286.59 342.63ZM332.612 342.63C332.612 340.698 332.232 338.784 331.493 336.998C330.754 335.212 329.67 333.59 328.305 332.223C326.939 330.857 325.318 329.773 323.533 329.033C321.749 328.293 319.837 327.913 317.905 327.913C314.005 327.913 310.264 329.463 307.506 332.223C304.748 334.983 303.198 338.727 303.198 342.63C303.198 346.534 304.748 350.277 307.506 353.037C310.264 355.798 314.005 357.348 317.905 357.348C319.837 357.348 321.749 356.968 323.533 356.228C325.318 355.488 326.939 354.404 328.305 353.037C329.67 351.671 330.754 350.048 331.493 348.263C332.232 346.477 332.612 344.563 332.612 342.63ZM378.634 342.63C378.634 338.727 377.084 334.983 374.326 332.223C371.568 329.463 367.827 327.913 363.927 327.913C360.026 327.913 356.286 329.463 353.528 332.223C350.769 334.983 349.22 338.727 349.22 342.63C349.22 346.534 350.769 350.277 353.528 353.037C356.286 355.798 360.026 357.348 363.927 357.348C367.827 357.348 371.568 355.798 374.326 353.037C377.084 350.277 378.634 346.534 378.634 342.63Z" fill="white"/>
</svg>
