<svg width="150" height="150" viewBox="0 0 150 150" fill="none" xmlns="http://www.w3.org/2000/svg">
<path d="M24.8625 30.2532C39.6542 14.1864 60.0548 5.88689 82.2423 7.76078C82.4987 7.78343 82.5638 7.90231 82.4375 8.11744L47.3044 67.414C47.2897 67.44 47.2679 67.4617 47.2413 67.4769C47.2148 67.492 47.1844 67.5 47.1535 67.5C47.1226 67.5 47.0923 67.492 47.0657 67.4769C47.0392 67.4617 47.0174 67.44 47.0027 67.414L24.8093 30.7514C24.7627 30.6734 24.7428 30.5834 24.7523 30.4941C24.7619 30.4047 24.8004 30.3205 24.8625 30.2532Z" fill="#1C85BC"/>
<path d="M69.0257 46.2088L90.1092 9.13286C90.139 9.08315 90.1829 9.04418 90.2346 9.02159C90.2862 8.99901 90.343 8.99399 90.3965 9.00725C110.325 14.0428 126.321 27.5624 134.986 46.2887C134.997 46.3115 135.001 46.3367 135 46.3618C134.998 46.3869 134.99 46.4112 134.976 46.4323C134.963 46.4535 134.944 46.4708 134.922 46.4826C134.9 46.4944 134.876 46.5004 134.851 46.5H69.1891C69.1557 46.4995 69.1229 46.4902 69.0942 46.473C69.0654 46.4558 69.0416 46.4313 69.025 46.4018C69.0085 46.3724 68.9999 46.3391 69 46.3052C69.0001 46.2714 69.009 46.2381 69.0257 46.2088Z" fill="#1C85BC"/>
<path d="M13.6511 47.061C15.1197 43.7289 16.863 40.5579 18.8813 37.5478C18.8921 37.5325 18.9064 37.5202 18.9229 37.5118C18.9394 37.5035 18.9576 37.4995 18.976 37.5001C18.9944 37.5006 19.0123 37.5058 19.0283 37.5151C19.0443 37.5245 19.0578 37.5377 19.0677 37.5536L53.2333 95.808C53.2442 95.8274 53.25 95.8495 53.25 95.8719C53.25 95.8944 53.2443 95.9164 53.2334 95.9359C53.2226 95.9553 53.2069 95.9715 53.1881 95.9827C53.1692 95.994 53.1478 95.9999 53.126 96H10.7762C10.5842 96 10.4618 95.905 10.4091 95.7149C5.64959 79.0237 6.73027 62.8057 13.6511 47.061Z" fill="#1C85BC"/>
<path d="M136.544 103.3C134.936 106.909 132.909 110.457 130.461 113.945C130.45 113.962 130.435 113.977 130.417 113.986C130.399 113.996 130.379 114.001 130.358 114C130.338 113.999 130.318 113.994 130.3 113.983C130.283 113.972 130.268 113.957 130.258 113.939L96.7712 55.7435C96.7574 55.7195 96.7501 55.6923 96.75 55.6646C96.7499 55.6368 96.7571 55.6096 96.7708 55.5855C96.7846 55.5615 96.8043 55.5414 96.8282 55.5274C96.852 55.5134 96.8791 55.5059 96.9067 55.5057L139.018 55.5C139.129 55.5003 139.238 55.5368 139.327 55.6041C139.417 55.6714 139.482 55.7659 139.515 55.8737C144.316 72.2563 143.326 88.0651 136.544 103.3Z" fill="#1C85BC"/>
<path d="M69.0203 142.045L103.616 83.3478C103.633 83.3182 103.658 83.2935 103.688 83.2763C103.718 83.2591 103.753 83.25 103.788 83.25C103.823 83.25 103.857 83.2591 103.888 83.2763C103.918 83.2935 103.943 83.3182 103.959 83.3478L125.966 120.445C125.993 120.491 126.005 120.544 125.998 120.597C125.992 120.65 125.968 120.7 125.93 120.739C111.257 136.055 90.855 143.96 69.1505 142.277C69.1235 142.276 69.0973 142.268 69.0744 142.254C69.0515 142.24 69.0327 142.221 69.0197 142.198C69.0067 142.174 68.9999 142.148 69 142.121C69.0001 142.095 69.0071 142.068 69.0203 142.045Z" fill="#1C85BC"/>
<path d="M62.3249 141.891L62.9175 142.251C63.3049 142.487 63.2761 142.555 62.8312 142.456C41.6929 137.872 24.0873 124.135 15.0428 104.558C14.9469 104.353 15.0121 104.25 15.2384 104.25H83.1237C83.1459 104.25 83.1677 104.256 83.1869 104.267C83.2061 104.278 83.222 104.294 83.2331 104.313C83.2442 104.332 83.25 104.354 83.25 104.376C83.25 104.398 83.2441 104.419 83.233 104.438L62.1753 141.309C62.0372 141.552 62.0871 141.746 62.3249 141.891Z" fill="#1C85BC"/>
</svg>
