<svg width="500" height="500" viewBox="0 0 500 500" fill="none" xmlns="http://www.w3.org/2000/svg">
<g clip-path="url(#clip0_2911_9)">
<path d="M481.667 435.207C483.437 429.686 483.75 423.852 482.5 417.915C479.687 404.79 468.958 394.373 455.729 392.186C445.937 390.519 435.937 393.227 428.437 399.582C426.146 401.561 424.167 403.852 422.5 406.352C420.208 404.582 417.708 403.019 414.896 401.977C416.667 396.457 416.979 390.519 415.729 384.686C412.917 371.561 402.187 361.248 389.062 358.957C379.271 357.29 369.271 359.894 361.771 366.248C354.167 372.602 349.896 381.873 349.896 391.769C349.896 401.665 350.417 398.748 351.562 401.977C348.854 403.019 346.25 404.477 344.062 406.352C339.062 399.061 331.354 393.852 322.396 392.29C312.604 390.623 302.604 393.332 295.104 399.686C292.812 401.665 290.833 403.957 289.167 406.457C286.875 404.686 284.375 403.123 281.562 402.082C283.333 396.561 283.646 390.623 282.396 384.79C279.583 371.665 268.854 361.352 255.729 359.061C245.937 357.394 235.937 359.998 228.437 366.352C220.833 372.707 216.562 381.977 216.562 391.873C216.562 401.769 217.083 398.852 218.229 402.082C215.521 403.123 212.917 404.582 210.729 406.457C205.729 399.165 198.021 393.957 189.062 392.394C179.271 390.727 169.271 393.436 161.771 399.79C159.479 401.769 157.5 404.061 155.833 406.561C153.542 404.79 151.042 403.227 148.229 402.186C150 396.665 150.313 390.727 149.063 384.894C146.25 371.769 135.521 361.457 122.396 359.165C112.604 357.498 102.604 360.102 95.1042 366.457C87.5 372.811 83.2292 382.082 83.2292 391.977C83.2292 401.873 83.75 398.957 84.8958 402.186C82.1875 403.227 79.5833 404.686 77.3958 406.561C72.3958 399.269 64.6875 394.061 55.7292 392.498C45.9375 390.832 35.9375 393.54 28.4375 399.894C20.9375 406.248 16.5625 415.519 16.5625 425.415C16.5625 435.311 17.0833 432.394 18.2292 435.623C7.60417 439.269 0 449.686 0 461.769V491.665C0 496.248 3.75 499.998 8.33333 499.998H91.6667C96.25 499.998 100 496.248 100 491.665V483.332H133.333V491.665C133.333 496.248 137.083 499.998 141.667 499.998H225C229.583 499.998 233.333 496.248 233.333 491.665V483.332H266.667V491.665C266.667 496.248 270.417 499.998 275 499.998H358.333C362.917 499.998 366.667 496.248 366.667 491.665V483.332H400V491.665C400 496.248 403.75 499.998 408.333 499.998H491.667C496.25 499.998 500 496.248 500 491.665V461.769C500 449.686 492.396 439.269 481.667 435.207ZM83.3333 483.332H16.6667V461.769C16.6667 455.311 21.9792 449.998 28.4375 449.998H31.4583C34.7917 449.998 37.7083 448.019 39.0625 445.102C40.4167 442.082 39.8958 438.54 37.6042 436.144C35.625 433.957 33.2292 430.207 33.2292 425.102C33.2292 419.998 35.4167 415.519 39.1667 412.394C43.0208 409.165 47.8125 407.915 52.9167 408.748C59.375 409.894 64.7917 415.102 66.1458 421.561C67.7083 428.852 64.375 433.852 62.1875 436.248C60 438.644 59.4792 442.186 60.7292 445.207C62.0833 448.227 65.1042 450.102 68.3333 450.102H71.3542C77.8125 450.102 83.125 455.415 83.125 461.873V483.436L83.3333 483.332ZM100 466.665V461.769C100 450.311 93.125 440.415 83.3333 435.936V428.436C83.3333 421.873 88.6458 416.561 95.2083 416.561H98.2292C101.562 416.561 104.479 414.582 105.833 411.561C107.187 408.54 106.562 404.998 104.375 402.602C101.562 399.477 100 395.623 100 391.561C100 387.498 102.187 381.977 105.937 378.852C109.792 375.623 114.583 374.373 119.687 375.207C126.146 376.248 131.562 381.561 132.917 388.019C134.479 395.207 131.042 400.311 128.958 402.707C126.771 405.207 126.25 408.644 127.5 411.665C128.854 414.686 131.875 416.561 135.104 416.561H138.125C144.688 416.561 150 421.873 150 428.436V435.936C140.208 440.415 133.333 450.311 133.333 461.769V466.665H100ZM216.667 483.332H150V461.769C150 455.311 155.312 449.998 161.771 449.998H164.792C168.125 449.998 171.042 448.019 172.396 445.102C173.75 442.082 173.229 438.54 170.937 436.144C168.958 433.957 166.562 430.207 166.562 425.102C166.562 419.998 168.75 415.519 172.5 412.394C176.354 409.165 181.146 407.915 186.25 408.748C192.708 409.894 198.125 415.102 199.479 421.561C201.042 428.852 197.708 433.852 195.521 436.248C193.333 438.644 192.812 442.186 194.062 445.207C195.417 448.227 198.437 450.102 201.667 450.102H204.687C211.146 450.102 216.458 455.415 216.458 461.873V483.436L216.667 483.332ZM233.333 466.665V461.769C233.333 450.311 226.458 440.415 216.667 435.936V428.436C216.667 421.873 221.979 416.561 228.542 416.561H231.562C234.896 416.561 237.812 414.582 239.167 411.561C240.521 408.54 239.896 404.998 237.708 402.602C234.896 399.477 233.333 395.623 233.333 391.561C233.333 387.498 235.521 381.977 239.271 378.852C243.125 375.623 247.917 374.373 253.021 375.207C259.479 376.248 264.896 381.561 266.25 388.019C267.812 395.207 264.375 400.311 262.292 402.707C260.104 405.207 259.583 408.644 260.833 411.665C262.187 414.686 265.208 416.561 268.438 416.561H271.458C278.021 416.561 283.333 421.873 283.333 428.436V435.936C273.542 440.415 266.667 450.311 266.667 461.769V466.665H233.333ZM350 483.332H283.333V461.769C283.333 455.311 288.646 449.998 295.104 449.998H298.125C301.458 449.998 304.375 448.019 305.729 445.102C307.083 442.082 306.562 438.54 304.271 436.144C302.292 433.957 299.896 430.207 299.896 425.102C299.896 419.998 302.083 415.519 305.833 412.394C309.687 409.165 314.583 407.915 319.583 408.748C326.042 409.894 331.458 415.102 332.812 421.561C334.375 428.852 331.042 433.852 328.854 436.248C326.667 438.644 326.146 442.186 327.396 445.207C328.75 448.227 331.771 450.102 335 450.102H338.021C344.479 450.102 349.792 455.415 349.792 461.873V483.436L350 483.332ZM366.667 466.665V461.769C366.667 450.311 359.792 440.415 350 435.936V428.436C350 421.873 355.312 416.561 361.875 416.561H364.896C368.229 416.561 371.146 414.582 372.5 411.561C373.854 408.54 373.229 404.998 371.042 402.602C368.229 399.477 366.667 395.623 366.667 391.561C366.667 387.498 368.854 381.977 372.604 378.852C376.458 375.623 381.25 374.373 386.354 375.207C392.812 376.248 398.229 381.561 399.583 388.019C401.146 395.207 397.708 400.311 395.625 402.707C393.437 405.207 392.917 408.644 394.167 411.665C395.521 414.686 398.542 416.561 401.771 416.561H404.792C411.354 416.561 416.667 421.873 416.667 428.436V435.936C406.875 440.415 400 450.311 400 461.769V466.665H366.667ZM483.333 483.332H416.667V461.769C416.667 455.311 421.979 449.998 428.437 449.998H431.458C434.792 449.998 437.708 448.019 439.062 445.102C440.417 442.082 439.896 438.54 437.604 436.144C435.625 433.957 433.229 430.207 433.229 425.102C433.229 419.998 435.417 415.519 439.167 412.394C443.021 409.165 447.917 407.915 452.917 408.748C459.375 409.894 464.792 415.102 466.146 421.561C467.708 428.852 464.375 433.852 462.187 436.248C460 438.644 459.479 442.186 460.729 445.207C462.083 448.227 465.104 450.102 468.333 450.102H471.354C477.812 450.102 483.125 455.415 483.125 461.873V483.436L483.333 483.332Z" fill="white"/>
<path d="M476.146 86.8737C459.583 58.332 435.313 35.207 406.042 19.8945C356.354 -6.14714 293.646 -6.14714 243.958 19.8945C228.75 27.9154 215 38.0195 202.813 49.9987H49.8958C22.3958 49.9987 0 72.3945 0 99.8945V233.332C0 260.832 22.3958 283.228 49.8958 283.228H79.8958L127.5 330.832C129.063 332.395 131.25 333.228 133.438 333.228C135.625 333.228 135.625 333.02 136.667 332.603C139.792 331.353 141.771 328.228 141.771 324.895V283.228H187.917C203.021 302.395 222.292 318.54 244.063 329.999C268.854 343.02 296.875 349.895 325.104 349.895C353.333 349.895 381.354 343.02 406.146 329.999C443.438 310.415 472.5 278.124 487.917 239.061C496.042 218.645 500.104 197.082 500.104 174.895C500.104 152.707 499.792 163.853 499.271 158.54C496.979 133.02 489.167 108.853 476.146 86.7695V86.8737ZM481.563 152.811C463.229 156.561 442.917 159.582 421.146 161.874C420.313 142.915 417.917 124.478 413.854 106.77C431.563 105.103 448.438 103.02 464.271 100.311C473.229 116.77 478.958 134.374 481.563 152.811ZM333.333 294.374V257.707C353.854 257.499 374.063 256.77 393.542 255.415C388.75 271.665 382.604 286.874 375 300.728C362.604 297.186 348.438 294.999 333.333 294.374ZM270.938 301.978C263.438 288.54 257.188 273.54 252.292 257.29C252.708 256.561 253.021 255.832 253.333 255.103C274.063 256.561 295.313 257.395 316.667 257.603V294.374C299.896 294.999 284.271 297.707 270.938 301.978ZM375 49.2695C382.083 62.2904 388.021 76.5612 392.708 91.6654C373.646 93.0195 353.75 93.7487 333.333 93.8529V55.5195C348.438 54.8945 362.604 52.707 375 49.1654V49.2695ZM316.667 110.624V166.561C296.875 166.353 277.396 165.624 258.333 164.374V108.54C276.875 109.79 296.458 110.52 316.667 110.624ZM258.333 233.436V181.04C277.396 182.29 296.875 183.02 316.667 183.228V241.04C296.979 240.936 277.292 240.207 258.021 238.853C258.229 237.082 258.333 235.311 258.333 233.436ZM316.667 93.957C296.146 93.7487 276.354 93.1237 257.604 91.7695C257.083 88.7487 256.354 85.9362 255.313 83.1237C259.583 70.6237 264.792 58.957 270.833 48.0195C284.167 52.2904 299.792 54.9987 316.563 55.6237V93.957H316.667ZM255.313 41.6654C251.25 49.1654 247.5 56.9779 244.167 65.207C238.75 59.582 232.083 55.3112 224.583 52.707C231.667 46.8737 239.271 41.6654 247.396 37.082C249.896 38.7487 252.5 40.207 255.313 41.6654ZM333.333 240.936V183.228C357.917 183.02 381.875 181.978 404.792 180.103C404.479 200.103 402.083 219.686 398.021 238.332C377.188 239.895 355.417 240.832 333.438 240.936H333.333ZM333.333 166.561V110.624C355.313 110.415 376.667 109.582 397.188 108.124C401.354 125.832 403.854 144.374 404.583 163.436C381.875 165.311 357.917 166.457 333.333 166.561ZM455.104 84.8945C440.729 87.082 425.521 88.957 409.688 90.3112C404.792 73.6445 398.542 57.9154 390.938 43.5404C395.313 41.5612 399.167 39.3737 402.708 37.082C423.646 48.957 441.563 65.207 455.208 84.8945H455.104ZM384.375 28.332C369.271 35.207 347.917 39.2695 325 39.2695C302.083 39.2695 280.729 35.207 265.625 28.332C303.229 13.332 346.771 13.332 384.271 28.332H384.375ZM133.333 266.665C128.75 266.665 125 270.415 125 274.999V304.895L89.2708 269.165C87.7083 267.603 85.625 266.77 83.3333 266.77H49.8958C31.5625 266.77 16.6667 251.874 16.6667 233.54V99.8945C16.6667 81.5612 31.5625 66.6654 49.8958 66.6654H208.333C226.667 66.6654 241.563 81.5612 241.563 99.8945V233.332C241.563 251.665 226.667 266.561 208.333 266.561H133.229L133.333 266.665ZM209.583 283.228C220.938 282.915 231.25 278.957 239.583 272.29C244.063 285.103 249.375 297.082 255.417 308.228C252.604 309.686 250 311.145 247.5 312.811C233.438 304.895 220.521 294.999 209.583 283.228ZM265.625 321.665C280.729 314.79 302.083 310.728 325 310.728C347.917 310.728 369.271 314.79 384.375 321.665C346.979 336.561 303.333 336.665 265.729 321.665H265.625ZM402.604 312.915C399.063 310.624 395.208 308.436 390.938 306.457C399.479 290.415 406.354 272.811 411.354 253.957C430.625 252.186 448.958 249.895 466.042 247.082C451.875 274.686 429.896 297.499 402.708 312.811L402.604 312.915ZM473.75 228.749C455.833 232.082 436.146 234.79 415.208 236.77C419.063 218.02 421.146 198.436 421.354 178.54C443.438 176.249 464.167 173.228 482.917 169.478C482.917 171.353 483.229 173.124 483.229 174.999C483.229 193.54 479.896 211.561 473.646 228.749H473.75Z" fill="white"/>
<path d="M208.022 145.73C208.647 143.543 208.335 141.251 207.189 139.376L190.106 110.522C187.814 106.668 182.814 105.314 178.856 107.501L158.856 118.751C156.147 116.98 153.126 115.314 150.001 113.855V91.5638C150.001 86.9805 146.251 83.2305 141.668 83.2305H108.335C103.751 83.2305 100.001 86.9805 100.001 91.5638V113.855C96.8764 115.314 93.8555 116.876 91.1472 118.751L71.1472 107.501C67.1889 105.314 62.1889 106.668 59.8972 110.522L42.8139 139.376C41.668 141.251 41.3555 143.647 41.9805 145.73C42.6055 147.918 43.9597 149.689 45.9389 150.835L65.7305 161.98C65.6264 163.543 65.5222 165.105 65.5222 166.668C65.5222 168.23 65.5222 169.793 65.7305 171.355L45.9389 182.501C43.9597 183.647 42.6055 185.418 41.9805 187.605C41.3555 189.793 41.668 192.085 42.8139 193.96L59.8972 222.814C62.1889 226.772 67.1889 228.022 71.1472 225.835L91.1472 214.585C93.8555 216.355 96.8764 218.022 100.001 219.48V241.772C100.001 246.355 103.751 250.105 108.335 250.105H141.668C146.251 250.105 150.001 246.355 150.001 241.772V219.48C153.126 218.022 156.147 216.46 158.856 214.585L178.856 225.835C182.814 228.126 187.814 226.668 190.106 222.814L207.189 193.96C208.335 192.085 208.647 189.689 208.022 187.605C207.397 185.418 206.043 183.647 204.064 182.501L184.272 171.355C184.376 169.793 184.481 168.23 184.481 166.668C184.481 165.105 184.481 163.543 184.272 161.98L204.064 150.835C206.043 149.689 207.397 147.918 208.022 145.73ZM171.147 150.314C168.022 152.085 166.356 155.626 167.085 159.168C167.606 161.772 167.814 164.272 167.814 166.772C167.814 169.272 167.606 171.668 167.085 174.376C166.46 177.918 168.022 181.46 171.147 183.23L188.439 193.022L179.897 207.501L162.293 197.605C159.272 195.939 155.522 196.251 152.814 198.439C149.064 201.564 144.168 204.272 138.856 206.043C135.522 207.189 133.231 210.314 133.231 213.855V233.439H116.564V213.855C116.564 210.314 114.272 207.189 110.939 205.939C105.626 204.064 100.731 201.355 96.9805 198.335C94.3764 196.147 90.5222 195.73 87.5014 197.501L69.8972 207.397L61.3555 192.918L78.6472 183.126C81.7722 181.355 83.4389 177.814 82.7097 174.272C82.1889 171.668 81.9805 169.168 81.9805 166.668C81.9805 164.168 82.1889 161.772 82.7097 159.064C83.3347 155.522 81.7722 151.98 78.6472 150.21L61.3555 140.418L69.8972 125.939L87.5014 135.835C90.5222 137.501 94.2722 137.189 96.9805 135.001C100.731 131.876 105.626 129.168 110.939 127.397C114.272 126.251 116.564 123.126 116.564 119.585V100.001H133.231V119.585C133.231 123.126 135.522 126.251 138.856 127.501C144.168 129.376 149.064 132.085 152.814 135.105C155.522 137.293 159.272 137.71 162.293 135.939L179.897 126.043L188.439 140.522L171.147 150.314Z" fill="white"/>
<path d="M124.997 133.332C106.664 133.332 91.6641 148.332 91.6641 166.665C91.6641 184.999 106.664 199.999 124.997 199.999C143.331 199.999 158.331 184.999 158.331 166.665C158.331 148.332 143.331 133.332 124.997 133.332ZM124.997 183.332C115.831 183.332 108.331 175.832 108.331 166.665C108.331 157.499 115.831 149.999 124.997 149.999C134.164 149.999 141.664 157.499 141.664 166.665C141.664 175.832 134.164 183.332 124.997 183.332Z" fill="white"/>
</g>
<defs>
<clipPath id="clip0_2911_9">
<rect width="500" height="500" fill="white"/>
</clipPath>
</defs>
</svg>
