<svg width="500" height="500" viewBox="0 0 500 500" fill="none" xmlns="http://www.w3.org/2000/svg">
<g clip-path="url(#clip0_2911_16)">
<path d="M399.707 433.886C394.629 433.886 389.746 434.57 384.863 435.839C373.535 420.214 355.176 410.644 335.645 410.644C316.113 410.644 317.48 412.695 309.375 416.601C298.535 403.32 283.008 394.726 265.918 392.675C270.605 378.125 280.762 364.648 292.188 353.418C309.18 366.308 324.219 372.754 337.695 372.754C351.172 372.754 344.141 372.363 347.266 371.679C371.191 365.918 383.691 340.234 395.605 315.429C404.102 297.851 412.891 279.687 424.023 274.707C427.246 273.242 429.102 269.824 428.516 266.406C427.93 262.988 425.195 260.254 421.68 259.863C347.754 251.171 304.883 274.414 289.453 299.023C281.445 311.718 279.785 326.074 284.375 339.648C277.344 346.289 270.605 353.613 264.844 361.621V269.824C320.313 265.82 364.258 219.433 364.258 162.89C364.258 106.347 316.211 55.6637 257.031 55.6637C197.852 55.6637 149.805 103.711 149.805 162.89C149.805 222.07 193.75 265.82 249.219 269.824V348.437C243.555 341.015 236.914 334.668 229.785 329.199C233.105 315.722 230.371 301.953 221.875 290.039C204.883 266.406 160.742 245.898 87.4023 259.179C83.9844 259.765 81.3477 262.695 81.0547 266.211C80.7617 269.726 82.8125 273.046 86.1328 274.218C97.5586 278.515 107.422 296.093 117.09 313.086C130.664 337.109 144.629 362.011 168.945 366.211C171.191 366.601 173.535 366.796 175.879 366.796C190.137 366.796 205.664 359.472 222.949 344.433C223.145 344.336 223.242 344.14 223.438 343.945C237.109 355.175 248.047 370.507 249.414 391.113V392.871C232.324 395.019 216.895 403.711 206.055 417.285C197.559 412.988 188.281 410.742 178.613 410.742C159.082 410.742 140.723 420.214 129.395 435.937C124.609 434.668 119.629 433.984 114.551 433.984C82.9102 433.984 57.2266 459.668 57.2266 491.308C57.2266 522.949 60.7422 499.121 65.0391 499.121H449.316C453.613 499.121 457.129 495.605 457.129 491.308C457.129 459.668 431.445 433.984 399.805 433.984L399.707 433.886ZM302.832 307.324C313.965 289.55 346.094 271.484 401.465 273.925C393.945 283.3 387.891 295.8 381.641 308.789C371.191 330.371 360.449 352.636 343.652 356.64C333.301 359.082 320.02 354.589 304.199 343.066C316.992 332.812 329.785 325.879 337.402 323.632C341.504 322.461 343.945 318.066 342.676 313.964C341.406 309.863 337.109 307.421 333.008 308.691C324.121 311.328 311.035 318.359 297.754 328.418C296.875 321.289 298.535 314.257 302.832 307.421V307.324ZM171.582 350.781C154.59 347.851 142.48 326.269 130.762 305.371C123.73 292.871 116.895 280.761 108.789 271.875C163.867 266.015 197.07 282.128 209.277 299.121C213.965 305.664 216.113 312.597 215.625 319.726C201.855 311.816 188.281 306.933 179.199 304.199C175.098 302.929 170.703 305.273 169.434 309.472C168.164 313.574 170.508 317.968 174.707 319.238C183.496 321.875 197.07 326.757 210.254 334.765C195.117 347.265 182.129 352.734 171.582 350.878V350.781ZM165.527 162.793C165.527 112.304 206.641 71.191 257.031 71.191C307.422 71.191 348.633 112.304 348.633 162.793C348.633 213.281 307.617 254.296 257.031 254.296C206.445 254.296 165.43 213.183 165.43 162.695L165.527 162.793ZM73.5352 483.398C77.2461 464.062 94.2383 449.511 114.551 449.511C134.863 449.511 124.902 450.488 129.785 452.343C133.398 453.808 137.5 452.343 139.453 448.925C147.461 434.961 162.5 426.269 178.613 426.269C194.727 426.269 196.387 429.004 203.906 433.984C205.664 435.156 207.812 435.644 209.863 435.156C211.914 434.765 213.77 433.496 214.844 431.64C224.219 416.699 240.332 407.812 258.008 407.812C275.684 407.812 291.211 416.503 300.684 430.957C303.027 434.57 307.812 435.644 311.426 433.3C318.652 428.613 327.051 426.171 335.742 426.171C351.855 426.171 366.895 434.863 374.902 448.828C376.855 452.246 380.957 453.613 384.57 452.246C389.453 450.293 394.531 449.414 399.805 449.414C420.117 449.414 437.109 464.062 440.82 483.3H73.5352V483.398ZM334.277 162.793C334.277 120.214 299.609 85.6441 257.129 85.6441C214.648 85.6441 179.98 120.312 179.98 162.793C179.98 205.273 214.551 239.941 257.129 239.941C299.707 239.941 334.277 205.371 334.277 162.793ZM195.508 162.793C195.508 128.808 223.145 101.269 257.031 101.269C290.918 101.269 318.555 128.906 318.555 162.793C318.555 196.679 290.918 224.316 257.031 224.316C223.145 224.316 195.508 196.679 195.508 162.793ZM257.129 211.914C252.832 211.914 249.316 208.398 249.316 204.101V199.023C244.043 197.851 239.355 194.726 236.133 190.332C233.594 186.816 234.375 181.933 237.891 179.394C241.406 176.855 246.289 177.636 248.828 181.152C250.098 182.91 252.148 183.984 254.199 183.984H258.789C262.402 183.984 265.43 180.957 265.43 177.343C265.43 173.73 262.5 170.703 258.789 170.703H255.566C243.262 170.703 233.301 160.742 233.301 148.437C233.301 136.132 240.137 129.785 249.316 127.05V121.679C249.316 117.382 252.832 113.867 257.129 113.867C261.426 113.867 264.941 117.382 264.941 121.679V126.757C270.215 127.929 274.902 131.054 278.125 135.449C280.664 138.964 279.883 143.847 276.367 146.386C272.852 148.925 267.969 148.144 265.43 144.629C264.16 142.871 262.109 141.796 260.059 141.796H255.469C251.855 141.796 248.828 144.824 248.828 148.437C248.828 152.05 251.758 155.078 255.469 155.078H258.691C270.996 155.078 280.957 165.039 280.957 177.343C280.957 189.648 274.121 195.996 264.941 198.73V204.101C264.941 208.398 261.426 211.914 257.129 211.914ZM136.426 82.3238C148.828 63.6715 165.039 48.5348 184.57 37.2066C213.965 20.2145 247.754 14.1598 280.859 19.7262L276.367 13.1832C273.926 9.66758 274.805 4.78477 278.32 2.34336C281.836 -0.0980467 286.719 0.78086 289.16 4.29648L305.078 27.441C306.348 29.2965 306.836 31.7379 306.152 33.8863C305.469 36.0348 304.004 37.9879 301.953 38.9645L276.563 50.9762C275.488 51.4645 274.316 51.7574 273.242 51.7574C270.312 51.7574 267.48 50.0973 266.211 47.2652C264.355 43.359 266.016 38.6715 269.922 36.816L274.707 34.5699C246.289 30.566 217.48 36.1324 192.285 50.6832C174.902 60.7418 160.449 74.316 149.316 90.9176C147.852 93.1637 145.312 94.4332 142.773 94.4332C140.234 94.4332 139.746 94.0426 138.477 93.1637C134.863 90.8199 133.984 85.9371 136.328 82.3238H136.426ZM326.758 44.3355C329.199 40.7223 333.984 39.7457 337.598 42.1871C356.25 54.5895 371.387 70.8004 382.715 90.3316C399.707 119.726 405.762 153.515 400.195 186.621L406.738 182.129C410.254 179.687 415.137 180.566 417.578 184.082C420.02 187.597 419.141 192.48 415.625 194.921L392.48 210.839C391.113 211.718 389.648 212.207 388.086 212.207C386.523 212.207 386.719 212.207 386.035 211.914C383.789 211.328 382.031 209.765 380.957 207.714L368.848 182.324C366.992 178.418 368.652 173.73 372.559 171.875C376.465 170.019 381.152 171.679 383.008 175.586L385.254 180.371C389.258 151.953 383.691 123.144 369.141 97.9488C359.082 80.566 345.508 66.1129 328.906 54.9801C325.293 52.6363 324.316 47.7535 326.758 44.1402V44.3355ZM96.582 141.601C94.1406 138.086 95.0195 133.203 98.5352 130.761L121.68 114.843C123.535 113.574 125.879 113.086 128.125 113.769C130.371 114.453 132.129 115.918 133.203 117.968L145.313 143.359C147.168 147.265 145.508 151.953 141.602 153.808C140.527 154.296 139.355 154.589 138.281 154.589C135.352 154.589 132.52 152.929 131.25 150.097L129.004 145.312C125 173.73 130.566 202.539 145.117 227.734C146.973 231.054 149.121 234.277 151.27 237.402C153.711 240.918 152.832 245.8 149.316 248.242C147.949 249.218 146.387 249.609 144.824 249.609C142.383 249.609 139.941 248.437 138.379 246.289C135.937 242.773 133.594 239.16 131.543 235.449C114.551 206.054 108.496 172.265 114.063 139.16L107.52 143.652C104.004 146.093 99.1211 145.214 96.6797 141.699L96.582 141.601Z" fill="white"/>
</g>
<defs>
<clipPath id="clip0_2911_16">
<rect width="500" height="500" fill="white"/>
</clipPath>
</defs>
</svg>
