<svg width="500" height="500" viewBox="0 0 500 500" fill="none" xmlns="http://www.w3.org/2000/svg">
<path fill-rule="evenodd" clip-rule="evenodd" d="M368.754 273.535C368.754 277.441 365.629 280.664 361.723 280.664C357.816 280.664 354.594 277.441 354.594 273.535C354.594 269.629 357.816 266.406 361.723 266.406C365.629 266.406 368.754 269.629 368.754 273.535ZM133.793 266.895C133.598 270.801 130.277 273.828 126.371 273.633C122.465 273.438 119.437 270.117 119.633 266.211C119.828 262.305 123.148 259.277 127.055 259.473C130.961 259.668 133.988 262.988 133.891 266.895H133.793ZM387.211 257.227L404.496 301.562C411.723 286.23 416.703 270.117 419.34 253.32C407.719 249.219 399.418 238.086 399.418 225.098C399.418 212.109 407.719 200.977 419.34 196.875C407.23 119.824 347.27 59.8633 270.316 47.8516C266.215 59.4727 255.082 67.7734 242.094 67.7734C229.105 67.7734 217.973 59.4727 213.871 47.8516C136.918 59.9609 76.957 119.922 64.8477 196.875C76.4688 200.977 84.7695 212.109 84.7695 225.098C84.7695 238.086 76.4688 249.219 64.8477 253.32C67.3867 269.824 72.2695 285.645 79.3008 300.684L97.4648 259.57C94.8281 248.34 93.4609 236.816 93.4609 225.098C93.4609 143.066 160.16 76.3672 242.191 76.3672C324.223 76.3672 390.922 143.066 390.922 225.098C390.922 235.937 389.75 246.68 387.406 257.227H387.211ZM412.113 372.168C413.48 371.68 414.164 370.117 413.676 368.75L370.707 258.105C370.316 257.129 369.34 256.445 368.266 256.445C367.191 256.445 367.582 256.445 367.289 256.641L346 264.941C344.633 265.43 343.949 266.992 344.535 268.359L387.406 379.004C387.699 379.883 388.383 380.273 388.773 380.469C389.164 380.664 389.945 380.859 390.824 380.469L412.113 372.168ZM350.785 373.34C349.125 371.582 347.172 370.117 345.121 368.945L288.48 336.621C273.051 327.832 256.742 334.473 240.922 340.82C220.512 349.121 206.645 353.613 193.266 340.625C207.719 331.641 220.023 322.07 230.18 311.816C234.77 307.129 239.457 303.125 244.047 300.098C265.141 285.645 279.203 291.406 294.145 297.461C305.375 302.051 316.996 306.836 329.594 300.293L338.383 295.605L366.02 367.09L350.785 373.437V373.34ZM340.922 394.141C339.848 396.191 337.992 397.656 335.746 398.242C333.5 398.828 331.254 398.633 329.398 397.559C317.387 390.82 303.715 383.203 290.434 375.586C286.625 373.437 281.84 374.707 279.789 378.516C277.641 382.227 278.91 387.012 282.719 389.16C296 396.777 309.672 404.395 321.781 411.23C325.98 413.574 327.445 418.848 325.199 422.949C322.953 427.051 317.68 428.613 313.578 426.367L262.309 397.559C258.5 395.41 253.715 396.777 251.664 400.488C249.516 404.297 250.883 408.984 254.594 411.133C254.594 411.133 296.098 434.57 296.488 434.766C300.59 437.109 302.152 442.383 299.906 446.484C298.832 448.438 296.977 449.902 294.73 450.586C292.582 451.27 290.238 450.977 288.285 449.902L258.793 433.203C256.742 430.859 254.398 428.906 251.566 427.344C246.098 424.414 239.848 423.73 234.184 425.098C232.133 419.629 228.129 414.844 222.66 411.914C217.191 408.984 210.941 408.301 205.277 409.668C203.227 404.199 199.223 399.414 193.754 396.484C189.262 394.141 184.281 393.164 179.496 393.75C178.031 386.816 173.637 380.664 166.996 377.148C158.305 372.461 147.953 373.633 140.434 379.297C138.871 373.242 136.039 366.797 128.422 363.867C127.25 363.379 123.832 361.914 118.266 359.473L149.223 289.551L160.648 294.824C172.66 301.465 184.281 298.73 195.414 296.094C205.18 293.75 214.652 291.602 225.199 295.312C223.148 297.168 221.098 299.121 219.047 301.172C208.5 311.816 195.121 321.875 179.301 331.152C176.859 332.52 175.199 334.961 174.613 337.695C174.027 340.43 174.711 343.359 176.469 345.508C186.527 358.398 198.148 364.648 212.211 364.648H212.797C224.613 364.453 235.844 359.961 246.684 355.566C260.16 350.098 271.781 345.41 280.668 350.391L337.309 382.715C338.871 383.594 340.141 384.961 340.922 386.621C342.191 389.16 342.094 391.992 340.824 394.434L340.922 394.141ZM272.758 468.848C271.684 470.898 269.73 472.363 267.484 473.047C265.336 473.633 263.09 473.34 261.234 472.363L256.742 469.824L261.625 460.742C262.699 458.691 263.48 456.445 263.969 454.102C263.969 454.102 268.949 457.031 269.34 457.227C273.441 459.57 275.004 464.844 272.758 468.945V468.848ZM232.523 476.27C234.867 475.586 236.723 474.023 237.895 471.875L247.855 453.223C249.418 450.195 249.223 446.387 247.074 443.555C246.293 442.48 245.316 441.602 244.047 441.016C240.629 439.258 236.43 439.844 233.598 442.383L220.805 467.09C220.609 470.605 222.367 474.023 225.492 475.684C227.641 476.855 230.082 477.051 232.426 476.367L232.523 476.27ZM195.219 462.793C199.125 464.844 203.91 463.867 206.645 460.449L219.926 435.059C220.512 431.25 218.656 427.344 215.238 425.586C211.918 423.73 207.621 424.414 204.887 426.953L190.629 454.59C190.629 458.008 192.289 461.23 195.316 462.891L195.219 462.793ZM163.676 452.441C168.07 454.785 173.637 453.125 175.98 448.633L190.922 419.629C191.605 415.82 189.652 411.914 186.234 410.156C183.109 408.496 179.301 408.789 176.566 410.937L159.867 440.234C157.523 444.629 159.184 450.098 163.578 452.441H163.676ZM140.629 426.074C143.754 427.734 147.465 427.441 150.199 425.391L163.578 402.148C165.336 397.949 163.578 392.773 159.477 390.625C155.082 388.281 149.613 389.941 147.27 394.336L136.82 413.77C135.746 415.918 135.453 418.359 136.137 420.703C136.82 423.047 138.383 424.902 140.531 426.074H140.629ZM141.898 137.5C150.199 142.187 159.281 146.191 169.047 149.512C158.695 170.703 152.836 193.848 151.762 217.383H109.086C110.844 186.914 122.953 159.082 141.898 137.5ZM176.664 135.547C168.363 132.91 160.551 129.688 153.422 125.977C169.242 111.816 188.48 101.465 209.672 96.0938C196.781 107.52 185.648 120.801 176.664 135.547ZM307.23 135.547C298.246 120.801 287.113 107.52 274.32 96.0938C295.512 101.367 314.75 111.816 330.57 125.977C323.344 129.688 315.531 132.91 307.23 135.547ZM332.133 217.383C331.059 193.848 325.199 170.605 314.848 149.512C324.516 146.191 333.598 142.285 341.898 137.5C360.844 159.082 372.953 186.914 374.711 217.383H332.035H332.133ZM249.809 233.008H316.508C315.629 250.977 311.723 268.359 304.887 284.961C303.324 284.375 301.762 283.691 300.004 283.008C287.309 277.832 270.707 271.094 249.809 279.297V233.008ZM178.227 282.91C171.977 266.992 168.266 250.195 167.484 233.008H234.184V281.738C217.777 274.512 203.617 277.832 191.898 280.664C186.527 281.934 182.133 282.91 178.227 283.008V282.91ZM157.523 270.117C158.109 272.363 158.695 274.512 159.379 276.758L155.375 274.902L157.523 270.117ZM234.184 160.742V217.383H167.484C168.461 194.922 174.32 173.34 184.184 153.906C200.102 157.91 217.094 160.254 234.184 160.742ZM234.184 96.582V145.02C219.926 144.531 205.766 142.773 192.289 139.746C203.129 123.047 217.289 108.398 234.184 96.582ZM249.809 145.02V96.582C266.703 108.398 280.863 123.145 291.703 139.746C278.324 142.773 264.164 144.531 249.809 145.02ZM249.809 160.742C266.996 160.254 283.891 157.91 299.809 153.906C309.672 173.34 315.434 194.824 316.508 217.383H249.809V160.742ZM109.477 237.402C109.379 235.938 109.281 234.473 109.184 233.008H151.859C152.055 237.598 152.445 242.188 153.031 246.68C151.859 245.703 150.492 244.922 149.125 244.336L128.227 235.059C123.832 233.105 118.852 233.008 114.262 234.766C112.504 235.449 110.941 236.328 109.574 237.402H109.477ZM340.336 250.293L361.625 241.992C365.727 240.43 370.023 240.43 373.93 241.699C374.32 238.77 374.613 235.938 374.711 233.008H332.035C331.254 251.66 327.445 269.727 320.805 287.012C321.195 286.816 321.684 286.621 322.074 286.426L332.523 280.859L329.887 273.926C326.176 264.551 330.863 253.906 340.238 250.293H340.336ZM96.0977 370.605L144.047 262.012C144.438 261.133 144.242 260.352 144.047 260.059C143.949 259.668 143.559 258.984 142.68 258.594L121.781 249.316C121.391 249.121 121 249.121 120.707 249.121C120.414 249.121 119.926 249.121 119.73 249.316C119.34 249.414 118.656 249.805 118.266 250.684L70.3164 359.277C69.7305 360.547 70.3164 362.207 71.6836 362.695L92.582 371.973C93.4609 372.363 94.2422 372.168 94.6328 371.973C95.0234 371.875 95.707 371.484 96.0977 370.605ZM40.3359 225.195C40.3359 217.285 46.7812 210.84 54.6914 210.84C62.6016 210.84 69.0469 217.285 69.0469 225.195C69.0469 233.105 62.6016 239.551 54.6914 239.551C46.7812 239.551 40.3359 233.105 40.3359 225.195ZM241.996 23.5352C249.906 23.5352 256.352 29.9805 256.352 37.8906C256.352 45.8008 249.906 52.2461 241.996 52.2461C234.086 52.2461 227.641 45.8008 227.641 37.8906C227.641 29.9805 234.086 23.5352 241.996 23.5352ZM443.656 225.195C443.656 233.105 437.211 239.551 429.301 239.551C421.391 239.551 414.945 233.105 414.945 225.195C414.945 217.285 421.391 210.84 429.301 210.84C437.211 210.84 443.656 217.285 443.656 225.195ZM459.281 225.195C459.281 210.547 448.734 198.437 434.965 195.801C428.715 154.98 409.379 116.602 380.082 87.3047C350.688 57.9102 312.406 38.5742 271.488 32.3242C268.852 18.457 256.645 7.91016 242.094 7.91016C227.543 7.91016 215.336 18.457 212.699 32.3242C171.879 38.5742 133.5 57.9102 104.203 87.207C74.8086 116.602 55.4727 154.883 49.3203 195.703C35.4531 198.34 24.9062 210.547 24.9062 225.098C24.9062 239.648 35.4531 251.953 49.3203 254.492C52.7383 277.246 60.1602 298.926 71.1953 319.043L56.3516 352.832C52.25 362.012 56.3516 372.852 65.6289 376.855L86.5273 386.133C88.8711 387.207 91.3125 387.695 93.8516 387.695C96.3906 387.695 98.3438 387.305 100.492 386.426C105.082 384.668 108.598 381.25 110.551 376.758L112.113 373.242C119.73 376.66 121.977 377.539 122.953 377.93C124.613 378.613 125.395 382.129 126.371 387.109C126.957 390.039 127.543 393.262 128.715 396.289L123.344 406.25C120.219 412.012 119.535 418.75 121.488 425C123.441 431.348 127.738 436.523 133.5 439.648C136.625 441.309 140.141 442.285 143.559 442.48C142.973 451.855 147.758 461.23 156.547 465.918C163.578 469.629 171.488 469.629 178.324 466.699C180.57 470.703 183.891 474.121 188.187 476.367C194.437 479.687 201.469 480.078 207.816 477.93C210.063 482.617 213.676 486.621 218.559 489.16C222.172 491.113 226.176 492.09 230.082 492.09C233.988 492.09 234.965 491.699 237.309 491.016C241.996 489.551 246.195 486.816 249.223 483.008L253.715 485.547C257.328 487.598 261.332 488.672 265.434 488.672C269.535 488.672 269.828 488.379 271.977 487.793C278.227 486.035 283.695 481.738 286.82 476.074C288.578 472.852 289.555 469.434 289.75 465.918C292.875 466.309 296.195 466.016 299.32 465.137C305.57 463.379 310.746 459.18 313.871 453.516C315.727 450 316.703 446.289 316.801 442.48C325.687 442.871 334.477 438.281 339.066 429.98C342.094 424.512 342.777 418.262 341.312 412.598C347.074 410.645 351.859 406.641 354.887 401.27C357.23 396.875 358.207 391.895 357.719 387.109L371.977 381.152L373.148 384.18C374.906 388.672 378.324 392.285 382.816 394.238C385.16 395.313 387.699 395.801 390.141 395.801C392.582 395.801 394.633 395.41 396.781 394.531L418.07 386.23C427.445 382.617 432.133 371.973 428.52 362.598L412.211 320.605C423.93 299.902 431.645 277.637 435.16 254.199C449.027 251.562 459.477 239.355 459.477 224.805L459.281 225.195Z" fill="white"/>
</svg>
