<svg width="500" height="500" viewBox="0 0 500 500" fill="none" xmlns="http://www.w3.org/2000/svg">
<path d="M258.787 20.6055C136.521 20.6055 37.1073 120.02 37.1073 242.285C37.1073 364.551 39.2557 276.953 43.2596 293.75L29.9784 300.684C29.1971 301.172 28.4159 301.758 27.8299 302.539L12.6932 324.902C11.8143 326.27 11.5213 327.93 11.9119 329.492C12.3026 331.055 13.3768 332.422 14.8416 333.203L26.951 339.551V424.414C26.951 426.563 28.1229 428.516 29.9784 429.492L143.064 488.77C143.943 489.258 144.822 489.453 145.701 489.453C146.58 489.453 147.556 489.258 148.338 488.77L207.127 457.91C224.021 461.914 241.404 464.063 258.885 464.063C381.15 464.063 480.564 364.648 480.564 242.383C480.564 120.117 380.955 20.6055 258.787 20.6055ZM258.787 32.0312C288.865 32.0312 315.916 70.9961 331.639 128.613H185.838C201.756 69.9219 229.392 32.0312 258.885 32.0312H258.787ZM334.471 140.039C341.306 168.945 345.408 201.855 345.799 236.621H180.76V211.328H196.287C198.533 211.328 200.584 209.961 201.56 207.91C202.537 205.859 202.049 203.418 200.584 201.758L176.267 175.098C178.025 162.891 180.174 151.172 182.81 140.039H334.471ZM116.111 199.902H107.81L145.603 158.398L183.396 199.902H175.096C171.971 199.902 169.334 202.441 169.334 205.664V300.098H121.775V205.664C121.775 202.539 119.236 199.902 116.111 199.902ZM166.404 164.258L149.9 146.094C147.752 143.75 143.65 143.75 141.502 146.094L90.7205 201.855C89.158 203.516 88.7674 205.957 89.744 208.008C90.7205 210.059 92.6737 211.426 95.0174 211.426H110.545V236.719H48.826C49.8026 201.758 59.2752 168.848 75.2909 140.137H171.189C169.431 147.852 167.869 155.957 166.502 164.355L166.404 164.258ZM116.111 311.523H175.096C178.221 311.523 180.857 308.984 180.857 305.762V271.387L246.385 305.762L145.701 358.594L44.9198 305.762L110.447 271.387V305.762C110.447 308.887 112.986 311.523 116.209 311.523H116.111ZM162.596 379.98L153.904 367.187L256.736 313.281L265.428 326.074L162.596 379.98ZM151.267 383.691L155.955 390.625C157.029 392.285 158.885 393.164 160.74 393.164C162.596 393.164 162.596 392.969 163.377 392.48L252.928 345.508V420.898L151.267 474.219V383.691ZM264.353 339.551L276.463 333.203C277.928 332.422 278.904 331.152 279.392 329.492C279.783 327.93 279.49 326.27 278.611 324.902L263.474 302.539C262.889 301.758 262.205 301.172 261.326 300.781L180.857 258.496V248.047H345.896C345.506 282.812 341.404 315.723 334.568 344.629H264.451V339.551H264.353ZM357.224 248.047H468.846C467.869 283.008 458.396 315.918 442.381 344.629H346.58C353.123 315.723 356.931 283.008 357.322 248.047H357.224ZM357.224 236.621C356.834 201.66 353.025 168.945 346.482 140.039H442.283C458.396 168.75 467.869 201.66 468.748 236.621H357.127H357.224ZM435.447 128.613H343.748C332.615 85.9375 315.33 52.9297 294.431 35.1562C353.514 45.3125 404.099 80.1758 435.447 128.613ZM223.338 35.1562C202.635 52.7344 185.154 85.5469 173.924 128.711H82.0291C113.377 80.1758 164.158 45.3125 223.338 35.1562ZM48.6307 248.047H110.349V258.496L53.6112 288.281C50.6815 275.098 49.0213 261.621 48.6307 248.047ZM34.3729 313.281L137.205 367.187L128.514 379.98L25.6815 326.074L34.3729 313.281ZM38.2791 345.508L127.83 392.48C128.709 392.969 129.588 393.164 130.467 393.164C132.322 393.164 134.08 392.285 135.252 390.625L139.939 383.691V474.219L38.2791 420.898V345.508ZM223.045 449.512L261.326 429.492C263.181 428.516 264.353 426.563 264.353 424.414V356.055H331.541C315.818 413.672 288.767 452.637 258.689 452.637C228.611 452.637 234.764 451.562 222.947 449.512H223.045ZM294.431 449.512C315.33 431.738 332.615 398.73 343.748 356.055H435.447C404.099 404.59 353.514 439.355 294.431 449.512Z" fill="white"/>
</svg>
