<svg width="500" height="500" viewBox="0 0 500 500" fill="none" xmlns="http://www.w3.org/2000/svg">
<path d="M463.281 284.766L432.031 284.18C427.734 284.18 424.121 287.5 424.121 291.895C424.121 296.289 427.441 299.805 431.836 299.805L441.016 300L421.387 315.332V220.508C421.387 216.211 417.871 212.695 413.574 212.695H362.109C357.812 212.695 354.297 216.211 354.297 220.508V367.871L325.781 390.137V309.375C325.781 305.078 322.266 301.562 317.969 301.562H266.504C262.207 301.562 258.691 305.078 258.691 309.375V386.328L230.176 380.273V287.891C230.176 283.594 226.66 280.078 222.363 280.078H170.898C166.602 280.078 163.086 283.594 163.086 287.891V371.973L134.57 394.043V351.66C134.57 347.363 131.055 343.848 126.758 343.848H75.293C70.9961 343.848 67.4805 347.363 67.4805 351.66V445.898L51.5625 458.203C48.1445 460.84 47.5586 465.723 50.1953 469.141C51.7578 471.094 54.0039 472.168 56.3477 472.168C58.6914 472.168 59.668 471.68 61.1328 470.508L67.4805 465.625V484.375C67.4805 488.672 70.9961 492.188 75.293 492.188H126.758C131.055 492.188 134.57 488.672 134.57 484.375V413.77L163.086 391.699V484.375C163.086 488.672 166.602 492.188 170.898 492.188H222.363C226.66 492.188 230.176 488.672 230.176 484.375V396.289L258.691 402.344V484.473C258.691 488.77 262.207 492.285 266.504 492.285H317.969C322.266 492.285 325.781 488.77 325.781 484.473V410.059L354.297 387.793V484.473C354.297 488.77 357.812 492.285 362.109 492.285H413.574C417.871 492.285 421.387 488.77 421.387 484.473V335.156L450.879 312.109L448.828 321.387C447.949 325.586 450.586 329.785 454.785 330.664C455.371 330.762 455.957 330.859 456.445 330.859C460.059 330.859 463.281 328.418 464.063 324.707L470.801 294.238C471.289 291.992 470.801 289.551 469.336 287.695C467.871 285.84 465.723 284.766 463.379 284.766H463.281ZM83.2031 359.57H119.043V406.152L83.2031 433.887V359.57ZM119.043 476.66H83.2031V453.613L119.043 425.879V476.66ZM214.648 295.801V377.051L178.809 369.434V295.703H214.648V295.801ZM214.648 476.66H178.809V385.547L214.648 393.164V476.758V476.66ZM274.316 317.285H310.156V397.266L274.316 389.648V317.188V317.285ZM274.316 476.66V405.664L310.156 413.281V476.66H274.316ZM369.922 228.32H405.762V327.637L369.922 355.664V228.32ZM405.762 476.66H369.922V375.488L405.762 347.461V476.66ZM488.281 143.457L452.637 122.852C453.809 116.797 454.395 110.645 454.395 104.395C454.395 51.0742 411.035 7.61719 357.617 7.61719C304.199 7.61719 260.84 50.9766 260.84 104.395C260.84 157.812 304.199 201.172 357.617 201.172C411.035 201.172 403.613 192.676 421.289 177.246L456.836 197.754C458.008 198.437 459.375 198.828 460.742 198.828C462.109 198.828 463.574 198.437 464.844 197.656C467.285 196.191 468.75 193.457 468.555 190.625L467.871 176.758C468.75 177.051 469.629 177.246 470.508 177.246C473.242 177.246 475.879 175.879 477.246 173.34C479.199 170.02 478.32 165.82 475.488 163.477L487.793 157.129C490.332 155.859 491.992 153.223 491.992 150.391C491.992 147.559 490.527 144.824 488.086 143.457H488.281ZM459.668 154.102L432.422 138.379L440.82 134.082L468.066 149.805L459.668 154.102ZM403.809 121.875L389.551 113.672C390.43 110.742 390.82 107.617 390.82 104.492C390.82 86.2305 375.977 71.2891 357.617 71.2891C339.258 71.2891 324.414 86.1328 324.414 104.492C324.414 122.852 339.258 137.695 357.617 137.695C375.977 137.695 375.684 133.691 381.738 127.246L395.996 135.449C386.914 146.582 373.145 153.809 357.617 153.809C330.371 153.809 308.301 131.641 308.301 104.492C308.301 77.3437 330.469 55.1758 357.617 55.1758C384.766 55.1758 406.934 77.3437 406.934 104.492C406.934 110.645 405.762 116.504 403.711 121.973L403.809 121.875ZM361.621 97.5586C357.91 95.4102 353.125 96.6797 350.977 100.391C348.828 104.102 350.098 108.887 353.809 111.035L367.48 118.945C364.648 120.801 361.328 121.973 357.617 121.973C347.949 121.973 340.039 114.062 340.039 104.395C340.039 94.7266 347.949 86.8164 357.617 86.8164C367.285 86.8164 375.195 94.7266 375.195 104.395C375.195 114.062 375.195 104.98 375.195 105.273L361.621 97.4609V97.5586ZM276.563 104.395C276.563 59.668 312.988 23.2422 357.715 23.2422C402.441 23.2422 438.867 59.668 438.867 104.395C438.867 149.121 438.477 113.672 437.695 118.164C437.695 118.164 437.695 118.164 437.598 118.164L418.164 128.125C421.094 120.703 422.656 112.695 422.656 104.297C422.656 68.457 393.555 39.3555 357.715 39.3555C321.875 39.3555 292.773 68.457 292.773 104.297C292.773 140.137 321.875 169.238 357.715 169.238C393.555 169.238 396.777 159.57 408.691 144.434L409.766 166.211C409.766 166.211 409.766 166.309 409.766 166.406C395.215 178.613 376.953 185.352 357.715 185.352C312.988 185.352 276.563 148.926 276.563 104.199V104.395ZM425.098 161.328L424.609 151.855L451.855 167.578L452.344 177.051L425.098 161.328ZM147.656 197.754C147.656 233.301 176.562 262.207 212.109 262.207C247.656 262.207 276.563 233.301 276.563 197.754C276.563 162.207 247.656 133.301 212.109 133.301C176.562 133.301 147.656 162.207 147.656 197.754ZM212.207 148.926C239.16 148.926 261.035 170.898 261.035 197.754C261.035 224.609 239.063 246.582 212.207 246.582C185.352 246.582 163.379 224.609 163.379 197.754C163.379 170.898 185.352 148.926 212.207 148.926ZM221.875 214.648C222.363 214.16 222.754 213.477 222.559 212.012C222.363 210.547 221.973 207.129 211.035 205.273C191.797 202.148 188.477 191.113 188.184 184.766C187.695 174.707 194.141 166.309 204.492 163.184V161.816C204.492 157.52 208.008 154.004 212.305 154.004C216.602 154.004 220.117 157.52 220.117 161.816V163.086C226.758 164.941 232.91 169.531 236.23 177.441C237.891 181.445 236.035 186.035 232.031 187.695C228.027 189.355 223.438 187.5 221.777 183.496C219.238 177.539 212.988 177.246 209.766 177.93C208.301 178.223 203.613 179.687 203.809 183.984C203.809 185.059 204.004 188.184 213.574 189.746C228.516 192.188 236.719 199.023 238.086 209.961C238.77 215.527 237.207 220.605 233.691 224.707C230.469 228.418 225.586 231.152 220.02 232.422V233.496C220.02 237.793 216.504 241.309 212.207 241.309C207.91 241.309 204.395 237.793 204.395 233.496V232.324C195.41 229.98 188.574 223.535 186.426 214.844C185.352 210.645 187.891 206.445 192.09 205.371C196.289 204.297 200.488 206.836 201.562 211.035C202.832 216.113 208.398 217.871 212.695 217.676C216.504 217.676 220.215 216.309 221.777 214.551L221.875 214.648ZM165.234 108.789C165.234 104.492 161.719 100.977 157.422 100.977H94.3359V37.8906C94.3359 33.5937 90.8203 30.0781 86.5234 30.0781C43.1641 30.0781 7.8125 65.332 7.8125 108.789C7.8125 152.246 43.0664 187.5 86.5234 187.5C129.98 187.5 165.234 152.246 165.234 108.789ZM23.4375 108.789C23.4375 76.6602 47.5586 50.0977 78.7109 46.1914V108.789C78.7109 113.086 82.2266 116.602 86.5234 116.602H149.121C145.215 147.656 118.652 171.875 86.5234 171.875C51.7578 171.875 23.4375 143.555 23.4375 108.789ZM108.594 94.4336H179.492C181.543 94.4336 183.594 93.6523 185.059 92.1875C186.523 90.7227 187.305 88.7695 187.305 86.6211C187.305 43.2617 152.051 7.91016 108.594 7.91016C65.1367 7.91016 100.781 11.4258 100.781 15.7227V86.6211C100.781 90.918 104.297 94.4336 108.594 94.4336ZM116.406 24.0234C144.922 27.5391 167.676 50.293 171.191 78.8086H116.406V24.0234Z" fill="white"/>
</svg>
