<svg width="100" height="100" viewBox="0 0 100 100" fill="none" xmlns="http://www.w3.org/2000/svg">
<path d="M65.441 17.9491L60.1289 23.2612L68.9876 32.1198L81.3774 19.7301L76.0652 14.418L68.9876 21.4956L65.441 17.9491ZM77.8308 19.7146L68.9721 28.5733L63.66 23.2612L65.4255 21.4956L68.9721 25.0422L76.0498 17.9645L77.8308 19.7146Z" fill="white"/>
<path d="M85.125 22.0039H87.6339V24.5128H85.125V22.0039Z" fill="white"/>
<path d="M53.8516 7V39.5231H65.2192L70.7481 45.0521L76.2615 39.5231H87.6292V27.025H85.1202V37.0297H75.2239L70.7326 41.521L66.2413 37.0297H56.3605V9.50893H85.1202V19.5137H87.6292V7H53.8516Z" fill="white"/>
<path d="M72.6412 56.171C72.6412 52.7174 69.838 49.9142 66.3844 49.9142H50.1073V44.091C50.1073 40.6219 49.5498 38.2214 48.3263 36.5023C46.886 34.458 44.5939 33.4668 41.3416 33.4668H37.5782V48.4274L34.6666 56.171H13V79.9594H15.5089V58.6645H25.5291V87.4552H15.5089V82.4528H13V89.9641H28.0226V87.4552H37.4698L44.9811 92.4576H65.1609C68.5991 92.4576 71.3868 89.6544 71.3868 86.2007C71.3868 84.4042 70.6279 82.7935 69.4199 81.6475C71.3403 80.5789 72.6412 78.5346 72.6412 76.1805C72.6412 74.1362 71.65 72.3087 70.1323 71.1781C71.65 70.0321 72.6412 68.2201 72.6412 66.1758C72.6412 64.1315 71.65 62.304 70.1323 61.1734C71.65 60.0274 72.6412 58.2153 72.6412 56.171ZM28.0226 58.6645H30.5315V84.9617H28.0226V58.6645ZM38.2287 84.9617H33.025V58.6645H36.4012L40.0871 48.8766V35.9602H41.3416C45.9103 35.9602 47.5984 38.1594 47.5984 44.0755V56.1555H50.1073V52.3922H53.8707C53.0809 53.4453 52.6163 54.7462 52.6163 56.1555C52.6163 58.1999 53.6075 60.0274 55.1252 61.1579C53.6075 62.304 52.6163 64.116 52.6163 66.1603C52.6163 68.2046 53.6075 70.0321 55.1252 71.1627C53.6075 72.3087 52.6163 74.1207 52.6163 76.165C52.6163 78.5191 53.9172 80.5634 55.8376 81.632C54.6296 82.7781 53.8707 84.3887 53.8707 86.1852C53.8707 87.5946 54.3354 88.8955 55.1252 89.9486H45.7554L38.2287 84.9617ZM65.1609 89.9641H60.1121C58.0368 89.9641 56.3487 88.276 56.3487 86.2007C56.3487 84.1254 58.0368 82.4373 60.1121 82.4373H65.1144C67.1897 82.4373 68.8778 84.1254 68.8778 86.2007C68.8778 88.2915 67.2207 89.9641 65.1609 89.9641ZM70.1323 76.196C70.1323 78.2713 68.4442 79.9594 66.3689 79.9594H58.8576C56.7823 79.9594 55.0942 78.2713 55.0942 76.196C55.0942 74.1207 56.7823 72.4326 58.8576 72.4326H66.3689C68.4442 72.4481 70.1323 74.1207 70.1323 76.196ZM70.1323 66.1758C70.1323 68.2511 68.4442 69.9392 66.3689 69.9392H58.8576C56.7823 69.9392 55.0942 68.2511 55.0942 66.1758C55.0942 64.1005 56.7823 62.4124 58.8576 62.4124H66.3689C68.4442 62.4279 70.1323 64.116 70.1323 66.1758ZM66.3844 59.9189H58.8731C56.7978 59.9189 55.1097 58.2308 55.1097 56.1555C55.1097 54.0803 56.7978 52.3922 58.8731 52.3922H66.3844C68.4597 52.3922 70.1478 54.0803 70.1478 56.1555C70.1323 58.2308 68.4442 59.9189 66.3844 59.9189Z" fill="white"/>
<path d="M20.5117 61.1758H23.0206V63.6847H20.5117V61.1758Z" fill="white"/>
<path d="M20.5117 66.1758H23.0206V68.6847H20.5117V66.1758Z" fill="white"/>
</svg>
