<svg width="100" height="100" viewBox="0 0 100 100" fill="none" xmlns="http://www.w3.org/2000/svg">
<path d="M32.9494 75.844C37.7871 75.844 41.7346 71.9061 41.7346 67.0587C41.7346 62.2113 37.7967 58.2734 32.9494 58.2734C28.102 58.2734 24.1641 62.2113 24.1641 67.0587C24.1737 71.9061 28.1116 75.844 32.9494 75.844ZM32.9494 60.8955C36.3454 60.8955 39.1126 63.6627 39.1126 67.0587C39.1126 70.4548 36.3454 73.222 32.9494 73.222C29.5533 73.222 26.7861 70.4548 26.7861 67.0587C26.7861 63.6627 29.5533 60.8955 32.9494 60.8955Z" fill="#00A7E1"/>
<path d="M54.429 49.4963L44.6858 54.6146C42.741 52.7763 40.4093 51.4314 37.8549 50.6671L37.4099 39.6758H28.4795L28.0441 50.6671C25.4897 51.4314 23.158 52.7763 21.2132 54.6146L11.47 49.4963L7 57.2367L16.2981 63.1097C15.9885 64.3965 15.8433 65.722 15.8433 67.0572C15.8433 68.3925 15.9981 69.718 16.2981 71.0048L7 76.8778L11.47 84.6182L21.2132 79.4999C21.7647 80.0223 22.3452 80.5061 22.9645 80.9415L24.4932 78.8129C23.7482 78.2711 23.0419 77.6615 22.413 76.9842L21.7357 76.2586L12.486 81.1156L10.5315 77.7389L19.3555 72.1562L19.0653 71.208C18.6589 69.8631 18.4557 68.4602 18.4557 67.0476C18.4557 65.635 18.6589 64.232 19.0653 62.8871L19.3555 61.9389L10.5315 56.3562L12.486 52.9795L21.7357 57.8366L22.413 57.1109C24.3674 55.0404 26.8637 53.5987 29.6212 52.9505L30.5887 52.7183L31.0047 42.2881H34.9039L35.32 52.7183L36.2875 52.9505C39.045 53.5987 41.5316 55.0404 43.4957 57.1109L44.173 57.8366L53.4227 52.9795L55.3772 56.3562L46.5532 61.9389L46.8434 62.8871C47.2498 64.232 47.453 65.6253 47.453 67.0476C47.453 68.4699 47.2498 69.8631 46.8434 71.208L46.5532 72.1562L55.3772 77.7389L53.4227 81.1156L44.173 76.2586L43.4957 76.9842C41.5413 79.0548 39.045 80.4964 36.2972 81.1447L35.3297 81.3769L34.9136 91.807H31.0144L30.5984 81.3769L29.6308 81.1447C28.5762 80.8931 27.5506 80.5254 26.5734 80.0514L25.4123 82.4025C26.2638 82.8185 27.1442 83.1668 28.0537 83.4378L28.4988 94.429H37.4389L37.884 83.4378C40.4383 82.6734 42.7701 81.3285 44.7148 79.4902L54.458 84.6085L58.928 76.8681L49.6299 70.9951C49.9299 69.7083 50.0847 68.3828 50.0847 67.0476C50.0847 65.7124 49.9299 64.3868 49.6299 63.1L58.928 57.227L54.429 49.4963Z" fill="#00A7E1"/>
<path d="M66.3869 23.6055C61.5491 23.6055 57.6016 27.5434 57.6016 32.3908C57.6016 37.2382 61.5395 41.1761 66.3869 41.1761C71.2342 41.1761 75.1721 37.2382 75.1721 32.3908C75.1721 27.5434 71.2342 23.6055 66.3869 23.6055ZM66.3869 38.5443C62.9908 38.5443 60.2236 35.7772 60.2236 32.3811C60.2236 28.985 62.9908 26.2178 66.3869 26.2178C69.7829 26.2178 72.5501 28.985 72.5501 32.3811C72.5501 35.7868 69.7926 38.5443 66.3869 38.5443Z" fill="#00A7E1"/>
<path d="M83.5047 32.3815C83.5047 31.0463 83.3499 29.7207 83.05 28.4339L92.348 22.5609L87.878 14.8206L78.1348 19.9389C77.6898 19.5131 77.2157 19.1165 76.7222 18.7391L75.1355 20.829C75.774 21.3128 76.3836 21.8546 76.9351 22.4448L77.6124 23.1705L86.8621 18.3134L88.8165 21.6901L79.9925 27.2728L80.2828 28.221C80.6892 29.5659 80.8923 30.9689 80.8923 32.3815C80.8923 33.7941 80.6892 35.197 80.2828 36.5419L79.9925 37.4901L88.8165 43.0728L86.8621 46.4495L77.6124 41.5925L76.9351 42.3181C74.9806 44.3887 72.4844 45.8303 69.7269 46.4786L68.7593 46.7108L68.3433 57.1506H64.4441L64.0281 46.7205L63.0605 46.4882C60.303 45.84 57.8164 44.3984 55.8523 42.3278L55.175 41.6022L45.9253 46.4592L43.9709 43.0825L52.7949 37.4998L52.5046 36.5516C52.0983 35.2067 51.8951 33.8134 51.8951 32.3911C51.8951 30.9689 52.0983 29.5756 52.5046 28.2307L52.7949 27.2825L43.9709 21.6998L45.9253 18.3231L55.175 23.1801L55.8523 22.4545C57.8068 20.3839 60.303 18.9423 63.0508 18.294L64.0184 18.0618L64.4344 7.63172H68.3336L68.7497 18.0618L69.7172 18.294C70.8783 18.565 72.0103 18.9907 73.0746 19.5422L74.284 17.2201C73.3262 16.7169 72.3199 16.3106 71.2846 16.001L70.8589 5H61.9188L61.4737 15.9913C58.9194 16.7556 56.5877 18.1005 54.6429 19.9389L44.8997 14.8206L40.4297 22.5609L49.7278 28.4339C49.4278 29.7207 49.273 31.0463 49.273 32.3815C49.273 33.7167 49.4278 35.0422 49.7278 36.329L40.4297 42.202L44.8997 49.9424L54.6429 44.8241C56.5877 46.6624 58.9194 48.0073 61.4737 48.7716L61.9188 59.7629H70.8589L71.304 48.7716C73.8583 48.0073 76.1901 46.6624 78.1348 44.8241L87.878 49.9424L92.348 42.202L83.05 36.329C83.3499 35.0422 83.5047 33.7167 83.5047 32.3815Z" fill="#00A7E1"/>
<path d="M65.082 31.0742H67.7041V33.6963H65.082V31.0742Z" fill="#00A7E1"/>
<path d="M31.6406 65.752H34.2627V68.374H31.6406V65.752Z" fill="#00A7E1"/>
</svg>
