<svg width="500" height="500" viewBox="0 0 500 500" fill="none" xmlns="http://www.w3.org/2000/svg">
<path d="M94.538 377.306C93.4468 375.743 92.5941 373.847 91.9799 371.617C91.0408 368.208 89.4219 368.199 86.9085 366.437C83.0715 363.745 79.5743 366.965 75.7998 367.171C71.6497 367.403 67.115 364.165 68.3404 359.514C68.6892 358.19 70.0934 357.519 71.2204 356.991C71.5305 356.848 71.76 356.624 71.9091 356.32C72.4338 355.271 73.1225 354.388 73.9752 353.672C74.2257 353.47 74.2316 353.258 73.9931 353.037C73.3551 352.459 73.0063 351.713 72.9466 350.801C72.9228 350.401 72.7409 350.088 72.401 349.862C70.6718 348.723 69.7118 347.011 69.521 344.727C69.4971 344.459 69.5687 344.217 69.7357 344.003C73.5906 339.083 68.1525 338.117 65.6303 335.755C63.7251 333.975 61.3549 333.188 59.4319 331.318C59.2173 331.115 59.1725 330.88 59.2978 330.611L61.82 325.074C61.9572 324.77 61.9959 324.454 61.9363 324.126C61.7932 323.333 61.5189 322.567 61.1134 321.827C60.9226 321.487 60.8451 321.124 60.8809 320.736L61.0508 318.947C61.0682 318.729 61.0008 318.514 60.863 318.348C60.2309 317.608 59.5124 316.91 58.7074 316.254C56.686 314.608 56.5161 311.746 57.5447 309.474C59.8046 304.5 62.3954 299.697 65.3172 295.063C65.3831 294.958 65.4234 294.84 65.435 294.717C65.4465 294.594 65.4289 294.47 65.3836 294.355C65.3383 294.24 65.2666 294.137 65.1743 294.055C65.0819 293.973 64.9716 293.914 64.8521 293.882C61.3221 292.928 58.3646 291.464 55.9794 289.49C55.7111 289.269 55.404 289.138 55.0582 289.096C53.8179 288.947 52.9533 288.16 52.4644 286.735C51.3732 283.541 49.4412 283.461 46.7311 282.253C43.0193 280.616 41.8118 276.967 42.9746 273.04C43.058 272.753 43.2339 272.548 43.5023 272.423C43.7706 272.291 43.9346 272.08 43.9942 271.787C44.0598 271.459 43.9614 271.191 43.699 270.982C41.0098 268.83 38.899 266.456 37.3665 263.862C36.7822 262.872 35.9474 262.499 34.8622 262.744C34.5521 262.815 34.2897 262.735 34.0751 262.502C31.6482 259.837 31.3501 257.183 33.1806 254.541C33.7441 253.727 34.3076 253.664 35.1841 253.396C35.4704 253.312 35.7029 253.148 35.8818 252.904C36.8001 251.705 38.0344 250.787 39.5847 250.149C39.859 250.035 40.1243 250.044 40.3807 250.176C42.104 251.058 43.8899 251.41 45.7383 251.231C47.1157 251.094 48.4633 251.401 49.7811 252.153C51.1406 252.94 52.4375 252.546 53.8865 252.814C54.7213 252.97 55.1029 252.621 55.0314 251.768L54.5663 246.267C54.5305 245.855 54.7123 245.694 55.1119 245.784L57.0617 246.222C57.3658 246.293 57.6341 246.228 57.8667 246.025C59.4647 244.641 61.3162 243.661 63.421 243.082C63.6014 243.034 63.7651 242.937 63.8945 242.801C64.0238 242.665 64.1137 242.496 64.1545 242.313C64.8223 239.182 65.189 235.833 65.2546 232.267C65.2993 229.959 63.3942 228.072 61.6233 226.882C59.9954 225.782 59.3961 223.868 58.8863 222.088C58.7909 221.771 58.5912 221.551 58.2871 221.426C56.9931 220.901 55.8572 220.931 54.8793 221.515C51.6355 223.453 49.0387 223.119 47.0889 220.513C46.3734 219.553 46.1706 218.477 46.4807 217.284C47.1962 214.559 48.6154 212.626 50.7381 211.487C51.7578 210.942 52.366 210.101 53.2246 209.358C53.4751 209.144 53.7673 209.03 54.1012 209.018L57.9651 208.911C58.2692 208.899 58.5196 208.777 58.7164 208.544C60.386 206.6 62.3805 204.996 64.7001 203.732C66.2474 202.891 66.8735 200.771 67.3565 199.188C68.1525 196.558 71.0415 196.28 73.1166 195.234C73.4028 195.091 73.5399 194.858 73.528 194.536C73.4624 192.884 73.8768 191.244 74.7713 189.616C74.811 189.546 74.8347 189.468 74.8406 189.387C74.8465 189.307 74.8345 189.226 74.8054 189.151C74.7763 189.075 74.7309 189.007 74.6724 188.952C74.6139 188.896 74.5438 188.854 74.4672 188.829L72.7409 188.239C72.3772 188.119 72.0403 187.94 71.7302 187.702C70.1918 186.527 68.555 185.534 66.8198 184.723C64.0114 183.426 62.1241 180.447 61.0866 177.719C60.7199 176.762 59.5482 176.422 58.9937 175.59C57.2764 173.038 57.6699 170.921 60.1743 169.239C61.2029 168.541 62.3835 168.291 63.3584 167.521C64.6583 166.484 66.0775 165.574 67.6159 164.793C67.92 164.638 68.1495 164.411 68.3046 164.113C70.0308 160.848 69.36 157.082 68.5908 153.459C68.394 152.535 68.084 151.709 67.6606 150.982C66.6052 149.166 66.4621 147.314 65.0578 145.677C64.3184 144.818 63.6745 143.909 63.1259 142.949C62.941 142.627 62.6727 142.525 62.3209 142.645L61.829 142.815C61.4891 142.928 61.3639 142.809 61.4533 142.457L63.2511 135.372C63.3286 135.068 63.263 134.794 63.0543 134.549C61.9452 133.243 61.4295 131.699 61.507 129.915C61.5606 128.723 61.6054 127.444 61.6411 126.078C61.6531 125.798 61.7813 125.589 62.0257 125.452L62.3209 125.282C62.947 124.936 62.9172 124.665 62.2315 124.468C58.6091 123.439 58.1261 119.834 59.4677 116.829C60.6304 114.234 63.4389 114.091 64.0114 111.005C64.077 110.653 64.2856 110.454 64.6375 110.406L68.5908 109.887C68.9665 109.839 69.2825 109.672 69.5389 109.386C70.314 108.527 71.2204 107.842 72.2579 107.329C72.6217 107.144 72.7827 106.849 72.7409 106.443C72.407 103.306 73.6204 101.261 76.3812 100.307C76.7032 100.199 77.0282 100.187 77.3561 100.271C78.9899 100.688 80.4896 100.644 81.8551 100.137C83.1907 99.6477 84.3714 99.4241 85.397 99.4658C87.9729 99.5731 90.3521 99.1885 93.0264 99.7342C95.5755 100.253 97.7847 99.4479 100.244 100.656C102.331 101.687 104.35 102.82 106.3 104.055C109.85 106.3 114.036 106.542 118.178 106.944C120.199 107.141 121.549 108.062 123.347 108.769C123.503 108.831 123.671 108.858 123.839 108.848C124.007 108.837 124.17 108.79 124.318 108.708C124.465 108.627 124.592 108.514 124.69 108.378C124.789 108.241 124.855 108.084 124.886 107.919C125.539 104.413 128.759 103.509 131.728 105.048C133.168 105.781 135.681 106.202 137.077 105.504C137.78 105.152 138.541 104.955 139.357 104.913C139.691 104.89 139.9 104.717 139.984 104.395C140.562 102.182 141.814 100.492 143.74 99.3227C148.397 96.5079 153.024 96.2515 157.622 98.5534C157.979 98.7263 158.358 98.7889 158.757 98.7412C160.66 98.4848 162.335 98.8367 163.784 99.7968C166.789 101.783 170.591 98.3119 173.846 101.389C175.268 102.74 177.075 103.169 178.238 104.842C178.781 105.611 179.317 106.366 179.848 107.105C180.289 107.718 180.954 108.133 181.699 108.259C185.358 108.876 186.932 111.354 190.009 112.884C191.744 113.742 193.419 114.852 195.035 116.211C195.262 116.408 195.524 116.521 195.822 116.551C196.925 116.682 197.987 116.912 199.006 117.24C201.171 117.929 202.978 117.24 205.124 117.607C205.434 117.66 205.676 117.556 205.849 117.294C206.678 116.018 207.855 115.189 209.382 114.807C214.039 113.638 217.909 114.5 220.991 117.392C221.808 118.149 222.732 118.791 223.764 119.315C226.438 120.684 227.234 123.296 228.746 125.675C230.436 128.341 235.168 132.331 238.71 131.982C241.25 131.737 243.733 132.173 246.16 133.288C248.557 134.391 251.256 134.713 254.255 134.254C254.425 134.229 254.588 134.166 254.73 134.07C254.872 133.974 254.991 133.847 255.078 133.699L257.752 129.03C257.937 128.702 258.196 128.627 258.53 128.806C258.608 128.854 258.694 128.884 258.79 128.896C259.04 128.943 259.27 128.89 259.478 128.735C260.641 127.9 262.001 127.42 263.557 127.295C268.199 126.937 274.37 126.266 277.733 129.817C278.583 130.712 279.057 130.962 280.184 131.177C280.475 131.229 280.741 131.37 280.944 131.579C283.914 134.558 286.356 138.843 284.415 143.154C283.92 144.258 283.684 145.394 283.708 146.563C283.714 146.92 283.875 147.186 284.191 147.359C288.037 149.479 286.91 154.372 286.141 157.977C285.935 158.934 286.347 159.927 286.901 160.696C288.842 163.371 289.057 166.287 291.838 168.55C293.413 169.829 293.216 171.94 294.736 173.255C297.187 175.375 300.899 176.798 304.092 175.313C306.656 174.12 309.56 173.7 312.804 174.051C312.956 174.068 313.11 174.044 313.249 173.983C313.389 173.922 313.51 173.825 313.6 173.703C315.245 171.475 317.464 169.767 320.353 169.91C323.137 170.047 326.274 169.963 329.762 169.659C333.876 169.307 337.731 169.975 341.327 171.663C343.169 172.528 345.036 172.313 346.926 171.019C349.365 169.349 351.663 167.647 353.822 165.911C355.7 164.408 358.088 164.856 360.315 165.58C361.138 165.849 361.723 166.442 362.068 167.36C362.694 168.994 362.754 170.435 362.247 171.681C362.098 172.057 362.22 172.188 362.614 172.075C365.446 171.24 367.605 171.905 369.09 174.069C369.31 174.391 369.268 174.672 368.964 174.91L367.319 176.207C366.74 176.666 366.821 176.875 367.56 176.833L369.734 176.699C370.151 176.675 370.348 176.875 370.324 177.299C370.056 181.718 367.578 183.963 363.956 185.886C363.784 185.979 363.634 186.106 363.515 186.26C363.397 186.415 363.312 186.592 363.267 186.781C362.453 190.242 362.113 193.32 358.33 194.491C357.495 194.754 356.639 194.81 355.763 194.661C354.484 194.438 353.258 194.661 351.979 194.232C349.779 193.489 347.391 192.595 345.11 192.836C343.971 192.956 342.853 193.063 341.756 193.159C340.96 193.221 340.862 193.686 340.092 193.892C337.177 194.649 334.416 194.208 331.81 192.568C330.245 191.575 329.091 190.931 327.123 190.949C325.15 190.973 323.194 191.036 321.256 191.137C319.431 191.235 317.616 190.6 315.854 190.162C315.377 190.049 315.159 190.233 315.201 190.716C315.29 191.951 315.093 193.159 314.691 194.312C314.19 195.762 313.984 197.342 314.074 199.053C314.092 199.399 314.262 199.501 314.584 199.358C316.897 198.308 319.279 198.281 321.73 199.277C322.135 199.438 322.538 199.435 322.937 199.268C328.071 197.121 331.801 195.699 337.007 196.781C340.119 197.431 342.227 199.238 343.33 202.202C343.467 202.572 343.73 202.763 344.117 202.775C346.586 202.846 349.019 202.712 351.085 204.304C352.045 205.05 353.106 205.691 354.269 206.228C354.633 206.395 355.011 206.424 355.405 206.317C356.8 205.917 358.222 205.81 359.671 205.995C360.041 206.043 360.226 205.882 360.226 205.512L360.217 198.535C360.217 197.992 360.363 197.95 360.655 198.409L363.875 203.526C364.054 203.806 364.298 203.881 364.609 203.75C367.978 202.265 370.747 203.359 372.918 207.033C373.162 207.45 373.496 207.778 373.919 208.017C374.975 208.613 375.989 209.442 376.961 210.503C377.074 210.626 377.22 210.716 377.381 210.763C377.542 210.809 377.712 210.811 377.874 210.768C378.036 210.724 378.183 210.638 378.3 210.517C378.416 210.397 378.497 210.246 378.535 210.083C378.66 209.516 378.83 208.959 379.044 208.41C379.671 206.809 382.121 206.272 383.597 206.317C383.952 206.328 384.3 206.196 384.563 205.95C386.799 203.884 389.16 205.154 391.772 204.895C394.241 204.662 396.539 205.583 397.854 207.73C398.14 208.201 398.555 208.431 399.097 208.419C401.951 208.365 404.258 208.169 406.602 210.199C406.852 210.42 407.147 210.539 407.487 210.557L409.437 210.629C409.759 210.641 410.048 210.745 410.305 210.942C412.511 212.635 415.125 214.132 418.149 215.432C421.512 216.872 423.256 220.808 426.699 222.535C429.356 223.877 429.651 226.667 431.896 228.349C433.846 229.816 435.357 231.838 437.075 233.663C437.492 234.098 438.008 234.292 438.622 234.244C444.293 233.815 442.763 239.88 447.951 240.076C448.26 240.088 448.556 240.194 448.8 240.381C449.981 241.293 450.944 242.334 451.689 243.502C452.226 244.337 452.93 244.975 453.8 245.417C455.079 246.061 455.312 247.188 456.653 247.68C463.979 250.381 470.177 257.555 465.213 265.884C463.83 268.209 462.622 270.374 461.591 272.378C460.696 274.113 459.042 275.285 458.398 277.155C457.736 279.033 455.956 280.5 454.301 281.52C453.871 281.781 453.522 282.156 453.293 282.603C453.064 283.05 452.964 283.551 453.004 284.051C453.514 290.295 451.618 294.92 444.91 295.68C443.005 295.895 441.851 294.678 440.089 294.446C438.503 294.243 437 293.849 435.581 293.265C435.199 293.11 434.979 293.235 434.919 293.641C434.514 296.444 433.446 298.614 431.717 300.153C430.635 301.119 429.892 302.854 430.384 304.321C430.915 305.89 430.852 307.425 430.196 308.928C430.071 309.208 430.161 309.366 430.465 309.402C433.977 309.784 436.598 311.528 438.327 314.635C438.38 314.731 438.41 314.838 438.416 314.947C438.421 315.056 438.402 315.165 438.358 315.264C438.315 315.364 438.249 315.452 438.166 315.521C438.083 315.591 437.985 315.64 437.88 315.664C437.42 315.777 437.107 316.034 436.94 316.433C436.768 316.833 436.878 316.937 437.271 316.746C437.653 316.555 438.052 316.451 438.47 316.433C438.846 316.415 439.054 316.594 439.096 316.97C439.597 321.183 436.681 324.43 432.325 323.142C430.554 322.623 428.855 322 427.227 321.273C426.885 321.12 426.507 321.069 426.138 321.124C425.768 321.18 425.423 321.34 425.143 321.586C423.783 322.775 422.03 323.455 420.206 322.901C416.861 321.881 413.927 320.778 411.405 319.591C411.055 319.425 410.786 319.129 410.653 318.768C409.768 316.219 407.38 315.646 406.655 313.311C405.683 310.175 406.554 307.843 409.267 306.316C409.637 306.107 409.681 305.842 409.401 305.52C408.113 304.062 408.444 302.246 407.129 300.681C406.11 299.458 405.233 298.164 404.5 296.798C403.301 294.562 401.244 293.337 399.983 291.056C399.81 290.739 399.566 290.495 399.25 290.322C396.736 288.944 394.017 288.828 391.504 287.656C391.169 287.501 390.79 287.475 390.439 287.585C389.271 287.954 388.177 288.792 387.157 290.098C386.871 290.462 386.942 290.564 387.372 290.402L389.026 289.767C389.111 289.735 389.202 289.721 389.293 289.728C389.383 289.735 389.471 289.762 389.551 289.807C389.63 289.853 389.699 289.915 389.752 289.99C389.805 290.065 389.841 290.151 389.858 290.241C390.413 293.48 388.025 297.103 384.492 295.984C382.667 295.412 377.202 292.71 378.168 290.438C378.293 290.134 378.192 289.979 377.864 289.973L371.853 289.83C371.714 289.828 371.576 289.79 371.455 289.722C371.333 289.653 371.23 289.555 371.156 289.436C370.774 288.828 370.229 288.476 369.519 288.381C366.663 287.999 363.78 287.078 360.87 285.617C359.877 285.116 359.349 284.257 358.383 283.855C358.073 283.729 357.754 283.702 357.426 283.774C355.22 284.263 353.02 284.612 350.826 284.821C348.589 285.026 347.167 286.484 344.842 286.332C340.271 286.037 336.282 285.581 331.703 287.111C328.608 288.148 325.105 289.079 321.193 289.902C320.657 290.015 320.436 289.809 320.531 289.284C320.543 289.219 320.534 289.159 320.505 289.105C320.32 288.76 320.046 288.521 319.682 288.39C318.03 287.793 316.757 286.663 315.863 285C315.535 284.391 315.296 284.424 315.147 285.098C314.655 287.272 313.144 289.222 310.738 289.293C305.741 289.436 302.709 287.367 301.641 283.085C301.558 282.739 301.34 282.534 300.988 282.468C295.98 281.538 290.989 281.538 285.837 281.35C284.966 281.32 284.134 281.433 283.341 281.69C282.179 282.066 280.918 282.066 279.934 282.835C277.227 284.976 273.771 286.291 269.567 286.78C269.287 286.809 269.052 286.929 268.861 287.137C266.046 290.137 263.918 293.459 262.475 297.103C261.986 298.349 261.243 299.351 260.247 300.108C258.709 301.262 257.904 302.89 256.482 304.196C255.391 305.189 255.051 306.549 254.282 307.738C252.809 310.034 250.79 310.866 248.226 310.234C247.97 310.169 247.717 310.186 247.466 310.288C246.208 310.813 245.114 310.86 244.184 310.431C244.011 310.353 243.85 310.374 243.701 310.494C242.341 311.573 240.722 311.773 238.844 311.093C237.869 310.735 237.413 310.011 236.554 309.519C236.41 309.436 236.25 309.384 236.086 309.364C235.922 309.344 235.755 309.357 235.597 309.402C231.763 310.523 227.92 310.61 224.068 309.662C222.691 309.322 221.161 309.751 219.945 310.413C215.759 312.676 210.455 316.415 205.822 313.454C205.565 313.287 205.285 313.237 204.981 313.302C203.121 313.72 201.406 313.24 199.838 311.862C198.541 310.726 199.302 309.134 198.649 307.738C197.814 305.949 197.012 304.083 196.243 302.139C195.402 300.01 196.01 297.738 197.137 295.832C197.399 295.385 197.51 294.902 197.468 294.383C197.298 292.29 198.452 290.027 197.495 288.184C197.131 287.492 196.58 287.215 195.84 287.352C195.616 287.395 195.386 287.392 195.164 287.345C194.941 287.297 194.73 287.205 194.543 287.075L193.255 286.171C192.974 285.974 192.646 285.851 192.304 285.816C191.962 285.781 191.617 285.834 191.301 285.971C190.985 286.107 190.71 286.322 190.501 286.595C190.292 286.868 190.156 287.191 190.107 287.531C189.636 290.805 187.632 293.426 184.096 295.394C183.005 296.008 181.708 296.175 180.206 295.895C177.335 295.358 174.812 297.165 171.852 297.639C171.524 297.693 171.291 297.869 171.154 298.167C169.526 301.7 165.716 304.169 162.684 306.173C160.973 307.306 158.421 307.938 155.028 308.069C154.831 308.077 154.636 308.023 154.47 307.916C154.304 307.809 154.174 307.653 154.097 307.47C153.293 305.52 151.432 305.252 149.643 304.795C149.142 304.67 149.074 304.426 149.438 304.062L150.18 303.302C151.259 302.216 151.083 301.399 149.652 300.851C147.029 299.855 144.977 300.302 143.499 302.192C143.308 302.431 143.293 302.681 143.454 302.944C144.08 303.972 144.84 304.939 145.296 306.057C146.549 309.14 148.024 312.139 149.724 315.056C149.897 315.342 149.894 315.628 149.715 315.914C148.457 318.002 147.524 320.154 146.915 322.373C146.313 324.591 145.189 326.497 143.543 328.089C142.685 328.924 141.981 329.896 141.432 331.005C140.437 333.015 139.208 334.705 137.747 336.077C136.835 336.93 136.117 337.887 135.592 338.948C132.986 344.161 129.596 348.386 125.422 351.624C123.437 353.162 122.265 355.757 120.584 357.832C119.987 358.565 119.245 358.983 118.356 359.084C117.969 359.126 117.689 359.32 117.516 359.666C115.53 363.655 113.983 367.88 112.874 372.341C112.587 373.48 112.078 374.515 111.344 375.445C109.877 377.315 109.359 379.685 108.205 381.671C107.033 383.684 104.108 386.072 101.488 385.419C101.16 385.336 100.912 385.443 100.745 385.741C98.8014 389.278 95.492 391.627 90.8172 392.79C87.472 393.622 83.9838 391.949 83.3935 388.362C82.982 385.866 85.0481 383.451 85.6206 381.018C85.6862 380.738 85.8263 380.499 86.041 380.302C87.1977 379.247 88.0594 377.995 88.6258 376.545C88.7272 376.289 88.915 376.158 89.1893 376.152C91.1928 376.122 92.9161 376.569 94.3591 377.494C94.7347 377.732 94.7944 377.67 94.538 377.306ZM97.6237 383.228L97.5253 383.478C97.3524 383.925 97.5045 384.164 97.9815 384.194C98.1663 384.206 98.3422 384.185 98.5092 384.131C98.9683 383.988 99.0369 383.737 98.7149 383.38L98.4287 383.066C98.0769 382.679 97.8086 382.733 97.6237 383.228Z" fill="white"/>
<path d="M98.3341 383.184L98.7268 383.41C99.1686 383.668 99.0745 383.849 98.4446 383.952C98.2155 383.991 97.9742 384.006 97.7205 383.998C97.066 383.976 96.8574 383.804 97.0947 383.481L97.2297 383.3C97.4833 382.943 97.8514 382.905 98.3341 383.184Z" fill="#003876"/>
<path d="M80.04 396.04L80.4078 396.108C80.6474 396.154 80.7871 396.296 80.827 396.535C81.0152 397.713 81.229 399.044 80.4078 400.068C78.8967 401.939 77.0376 402.451 74.8307 401.604C68.8515 399.325 73.2568 389.291 79.5952 394.462C79.9659 394.757 80.0315 395.11 79.792 395.52C79.6209 395.81 79.7036 395.983 80.04 396.04ZM78.1753 396.143C78.1411 395.847 78.0099 395.608 77.7818 395.426C77.5594 395.244 77.3113 395.153 77.0376 395.153C75.0246 395.141 74.0865 396.157 74.2234 398.199C74.242 398.458 74.3204 398.71 74.4525 398.933C74.5846 399.157 74.7668 399.347 74.9847 399.488C75.937 400.108 76.9407 400.022 77.9957 399.232C79.1504 398.37 78.6372 397.619 79.159 396.569C79.2502 396.376 79.1903 396.273 78.9794 396.262C78.871 396.256 78.7855 396.282 78.7227 396.339C78.4148 396.612 78.2323 396.546 78.1753 396.143Z" fill="white"/>
<path d="M76.4199 396.375C76.4574 396.276 76.5174 396.189 76.5939 396.124C76.6704 396.059 76.7607 396.018 76.8557 396.005C76.9507 395.991 77.0472 396.007 77.1353 396.049C77.2235 396.091 77.3003 396.159 77.358 396.245L77.9116 397.079C77.9553 397.146 77.9839 397.225 77.9949 397.308C78.0059 397.391 77.999 397.476 77.9749 397.555C77.9507 397.634 77.91 397.706 77.8562 397.763C77.8023 397.821 77.7369 397.863 77.6656 397.886C77.2196 398.025 76.7685 398.037 76.3123 397.921C76.0201 397.846 75.9329 397.652 76.0508 397.339L76.4199 396.375Z" fill="white"/>
</svg>
