<svg width="100" height="100" viewBox="0 0 100 100" fill="none" xmlns="http://www.w3.org/2000/svg">
<path d="M70.2113 34.2148L59.2992 45.1269C56.4942 43.9507 52.3864 44.6383 49.5814 46.7556C46.7403 44.3307 43.682 43.8421 39.8999 45.1993L28.9154 34.2148L20.8625 42.2677L22.636 44.0412L28.9154 37.7617L34.2538 43.1002L19.9215 57.4325L14.5831 52.094L20.8625 45.8146L19.0891 44.0412L11 52.1121L19.9034 61.0156L21.6769 59.2421L24.4275 61.9928C24.0837 64.2005 24.8075 66.4806 26.4 68.0731L31.3946 73.0677L28.843 75.5831C28.0649 76.3613 27.6306 77.4108 27.6306 78.5147C27.6306 79.6186 28.0649 80.6682 28.843 81.4463C29.404 82.0073 30.1098 82.3873 30.8336 82.5502C30.7431 82.894 30.6888 83.256 30.6888 83.6179C30.6888 84.7218 31.1231 85.7714 31.9013 86.5495C32.6794 87.3276 33.729 87.762 34.8329 87.762C35.1948 87.762 35.5568 87.7077 35.9006 87.6172C36.0816 88.3772 36.4435 89.0649 37.0045 89.6078C37.7826 90.3859 38.8322 90.8202 39.9361 90.8202C40.7504 90.8202 41.5286 90.585 42.18 90.1688C42.3791 90.7298 42.7048 91.2365 43.1391 91.6527C43.9173 92.4308 44.9669 92.8651 46.0707 92.8651C47.1746 92.8651 48.2242 92.4308 49.0024 91.6527L49.491 91.1641L49.9796 91.6527C50.7577 92.4308 51.8073 92.8651 52.9112 92.8651C54.015 92.8651 55.0646 92.4308 55.8428 91.6527C56.2771 91.2184 56.6028 90.7117 56.8019 90.1688C58.4125 91.2003 60.584 91.0193 61.9955 89.6078C62.5565 89.0468 62.9365 88.341 63.0994 87.6172C63.4432 87.7077 63.8052 87.762 64.1671 87.762C65.271 87.762 66.3206 87.3276 67.0987 86.5495C68.1845 85.4637 68.5464 83.9255 68.1664 82.5321C68.8902 82.3693 69.596 81.9892 70.157 81.4282C70.9351 80.6501 71.3695 79.6005 71.3695 78.4966C71.3695 77.3927 70.9351 76.3432 70.157 75.565L67.6054 73.0134L72.6 68.0188C74.1925 66.4264 74.9163 64.1643 74.5725 61.9385L77.3232 59.1878L79.0966 60.9613L88 52.0579L70.2113 34.2148ZM28.1734 66.2635C27.0334 65.1234 26.5991 63.4405 26.9972 61.8842L27.1781 61.1784L23.4503 57.4506L36.0092 44.8917L39.2665 48.149L40.0447 47.8233C43.6639 46.3394 46.0707 46.7556 48.6404 49.3253L59.8421 60.6355C58.1048 61.5584 55.698 61.4499 53.8341 60.2555L44.5145 54.1932L43.8268 54.6275C41.1666 56.3286 35.4482 57.1791 32.8423 54.5913L31.0689 56.3648C34.6157 59.9117 41.1304 58.8621 44.4602 57.161L46.125 58.2468L33.1137 71.2581L28.1734 66.2635ZM54.1417 89.9154C53.8341 90.2231 53.4179 90.3859 52.9836 90.3859C52.5492 90.3859 52.133 90.2231 51.8254 89.9154L51.3368 89.4268L53.6531 87.1105L54.1598 87.6172C54.7751 88.2506 54.7751 89.2821 54.1417 89.9154ZM60.2945 87.8705C59.6611 88.5039 58.6115 88.5039 57.9781 87.8705L55.4266 85.319L57.7429 83.0026L60.3126 85.5723C60.9279 86.2057 60.9279 87.2372 60.2945 87.8705ZM65.4157 84.7942C65.1081 85.1018 64.6919 85.2647 64.2576 85.2647C63.8233 85.2647 63.4071 85.1018 63.0994 84.7942L62.1041 83.7989C62.086 83.7808 62.086 83.7808 62.0679 83.7627L59.5163 81.2111L61.8327 78.8947L65.3976 82.4597C66.0491 83.1112 66.0491 84.1608 65.4157 84.7942ZM68.4921 77.3566C68.7998 77.6642 68.9626 78.0804 68.9626 78.5147C68.9626 78.949 68.7998 79.3653 68.4921 79.6729C67.8588 80.3063 66.8092 80.3063 66.1758 79.6729L63.6242 77.1213L65.9405 74.805L68.4921 77.3566ZM71.9123 61.1784L72.0933 61.8842C72.5095 63.4586 72.0571 65.1234 70.917 66.2635L47.2832 89.9154C46.9756 90.2231 46.5593 90.3859 46.125 90.3859C45.6907 90.3859 45.2745 90.2231 44.9669 89.9154C44.6592 89.6078 44.4964 89.1916 44.4964 88.7573C44.4964 88.323 44.6592 87.9067 44.9669 87.5991L58.141 74.4249L56.3676 72.6515L41.1666 87.8524C40.859 88.1601 40.4428 88.3229 40.0085 88.3229C39.5741 88.3229 39.1579 88.1601 38.8503 87.8524C38.2169 87.2191 38.2169 86.1876 38.8322 85.5542L54.015 70.3352L52.2416 68.5617L37.0407 83.7627C37.0226 83.7808 37.0226 83.7808 37.0045 83.7989L36.0092 84.7942C35.7015 85.1018 35.2853 85.2647 34.851 85.2647C34.4167 85.2647 34.0005 85.1018 33.6928 84.7942C33.3852 84.4865 33.2223 84.0703 33.2223 83.636C33.2223 83.2017 33.3852 82.7855 33.6928 82.4778L49.9253 66.2454L48.1518 64.472L32.9509 79.6729C32.3175 80.3063 31.2679 80.3063 30.6345 79.6729C30.3269 79.3653 30.164 78.949 30.164 78.5147C30.164 78.0804 30.3269 77.6642 30.6345 77.3566L48.3328 59.6583L52.4949 62.3728C55.7704 64.5081 60.1497 64.2005 62.6651 61.6851L63.5518 60.7984L51.4092 48.5472C53.8341 46.8642 57.2181 46.6651 58.8287 47.7328L59.6792 48.2938L63.0813 44.8917L75.6402 57.4506L71.9123 61.1784ZM64.8729 43.1183L70.2113 37.7798L84.5436 52.1121L79.2052 57.4506L64.8729 43.1183Z" fill="white"/>
<path d="M54.8825 13.1895L47.7706 20.3013L44.2056 16.7363L38.8672 22.0929L47.7706 30.9963L60.2209 18.546L54.8825 13.1895ZM42.4322 22.0929L44.2056 20.3194L47.7706 23.8844L54.8825 16.7725L56.6559 18.546L47.7525 27.4494L42.4322 22.0929Z" fill="white"/>
<path d="M77.4336 52.1524L79.207 50.3789L80.9805 52.1524L79.207 53.9258L77.4336 52.1524Z" fill="white"/>
<path d="M18.1133 52.0957L19.8867 50.3223L21.6602 52.0957L19.9048 53.8692L18.1133 52.0957Z" fill="white"/>
<path d="M48.2969 34.6484H50.8123V37.1638H48.2969V34.6484Z" fill="white"/>
<path d="M33.8375 30.8872V37.1847H45.7811V34.6693H36.3529V9.51539H62.7555V34.6512H53.3273V37.1666H65.2709V30.8872H85.1045L78.6984 20.2103L85.1045 9.53349H65.2709V7H33.8375V9.51539H14.0039L20.41 20.1922L14.0039 30.8691L33.8375 30.8872ZM80.6528 12.0308L75.7487 20.1922L80.6528 28.3537H65.2709V12.0308H80.6528ZM18.4556 12.0308H33.8375V28.3537H18.4556L23.3597 20.1922L18.4556 12.0308Z" fill="white"/>
</svg>
