<svg width="100" height="100" viewBox="0 0 100 100" fill="none" xmlns="http://www.w3.org/2000/svg">
<path d="M49.5 92C26.0614 92 7 72.9296 7 49.5C7 26.0704 26.0614 7 49.5 7C72.9386 7 92 26.0614 92 49.5C92 72.9386 72.9296 92 49.5 92ZM49.5 8.787C27.0451 8.787 8.787 27.0542 8.787 49.5C8.787 71.9459 27.0451 90.213 49.5 90.213C71.9549 90.213 90.213 71.9549 90.213 49.5C90.213 27.0451 71.9549 8.787 49.5 8.787Z" fill="#00A7E1"/>
<path d="M25.5562 50.5756C24.3558 50.8373 23.4443 51.9294 23.4443 53.238C23.4443 53.8427 23.6428 54.4113 23.9858 54.8806L22.8757 61.6135C22.8305 61.9023 22.9118 62.1911 23.0923 62.4167C23.2728 62.6424 23.5435 62.7687 23.8323 62.7687H28.3901C28.6699 62.7687 28.9406 62.6423 29.1212 62.4257C29.3107 62.2091 29.3919 61.9203 29.3468 61.6405L28.3991 54.6279C28.6428 54.2127 28.7782 53.7254 28.7782 53.238C28.7782 52.2543 28.2638 51.3969 27.4966 50.9185V47.2813L33.5074 49.9438V65.1604C33.5074 67.0377 35.0056 68.5629 36.8378 68.5629H64.2565C66.0977 68.5629 67.5869 67.0377 67.5869 65.1604V49.0052L81.8919 42.6694C82.2619 42.507 82.4966 42.1279 82.4785 41.7218C82.4605 41.3156 82.1988 40.9546 81.8197 40.8192L49.2746 29.4925C49.058 29.4203 48.8323 29.4203 48.6157 29.5016C37.4786 33.8066 19.1753 40.6658 17.4786 40.7741C17.0183 40.7741 16.6302 41.1081 16.5309 41.5683C16.4406 42.0286 16.6753 42.4889 17.0995 42.6784L25.5562 46.4239V50.5756ZM24.9876 60.7831L25.9894 54.7272C26.0435 54.3752 25.9172 54.0232 25.6554 53.7976C25.493 53.6532 25.3937 53.4456 25.3937 53.229C25.3937 52.8229 25.7186 52.4889 26.1157 52.4889C26.5128 52.4889 26.8378 52.8229 26.8378 53.229C26.8378 53.4546 26.7385 53.6171 26.6573 53.7164C26.4677 53.933 26.3865 54.2218 26.4316 54.5016L27.28 60.7741H24.9876V60.7831ZM65.6464 65.1514C65.6464 65.9366 65.0237 66.5683 64.2565 66.5683H36.8468C36.0796 66.5683 35.4569 65.9366 35.4569 65.1514V50.7922L49.1121 56.8391C49.2385 56.8933 49.3648 56.9203 49.5002 56.9203C49.6356 56.9203 49.7619 56.8933 49.8883 56.8391L65.6464 49.8626V65.1514ZM20.4388 41.9835C27.4786 39.7452 44.3739 33.2561 48.9858 31.4781L78.8233 41.8752L49.5002 54.8535L30.132 46.2795L46.4858 44.0774C47.1988 44.5286 48.2638 44.7994 49.5002 44.7994C51.7565 44.7994 53.4533 43.8878 53.4533 42.6694C53.4533 41.46 51.7565 40.5395 49.5002 40.5395C47.5508 40.5395 46.0255 41.2164 45.6374 42.1911L26.6663 44.7452L20.4388 41.9835ZM46.5128 42.6694C46.5128 42.2091 47.6771 41.5322 49.5002 41.5322C51.3233 41.5322 52.4786 42.2091 52.4786 42.6694C52.4786 43.1297 51.3143 43.8066 49.5002 43.8066C47.6771 43.8156 46.5128 43.1387 46.5128 42.6694Z" fill="#00A7E1"/>
</svg>
