<svg width="100" height="100" viewBox="0 0 100 100" fill="none" xmlns="http://www.w3.org/2000/svg">
<path d="M51.2695 87.2266H53.7971V89.7541H51.2695V87.2266Z" fill="white"/>
<path d="M93.287 25.8163L78.4707 11L70.8214 18.6493L65.2341 20.0461L50.0188 35.2614C49.9689 35.2614 49.919 35.2614 49.8691 35.2614C49.5199 35.2614 49.1541 35.3113 48.8215 35.3945L46.9092 33.4822C47.4413 33.2826 47.9402 32.9667 48.3725 32.5343L51.3657 29.5411L40.5736 18.749L29.3159 19.2313L21.8163 11.715L15.2978 18.2335L17.0937 20.0294L21.8163 15.3069L28.3181 21.8087L39.5759 21.3265L47.8071 29.5578L46.6099 30.7717C45.9447 31.4368 44.8805 31.4368 44.2153 30.7883L39.526 26.099L37.7301 27.8949L42.4194 32.5842L42.436 32.6008L46.6597 36.8246C46.0611 37.5396 45.7119 38.4209 45.662 39.3521C45.1465 39.1193 44.5811 39.0029 43.9991 38.9863L41.8374 36.8246L40.0415 38.6205L41.3219 39.9009C40.374 40.6492 39.7421 41.8132 39.7089 43.1103L37.6303 41.0316L35.8344 42.8276L39.6923 46.6854V51.5078L32.6416 44.4572L30.8457 46.2531L39.6756 55.083V56.6794C39.1601 56.4466 38.5781 56.3135 37.9629 56.3135H36.1004L18.3242 38.4874L16.9274 32.9002L10.5752 26.5479L15.2978 21.8087L13.5185 20.0294L7 26.5479L14.6493 34.1972L16.0461 39.7845L33.7558 57.4942V71.5289L42.0536 79.1449V89.7541H48.7383V87.2265H44.5811V78.0474L36.2834 70.4314V58.8079H37.9961C38.944 58.8079 39.7089 59.5728 39.7089 60.5206V67.1389H42.2365V43.1934C42.2365 42.2456 43.0014 41.4806 43.9492 41.4806C44.8971 41.4806 45.662 42.2456 45.662 43.1934V57.9265H48.1896V39.4852C48.1896 39.0362 48.3725 38.6038 48.6885 38.2879C49.0044 37.9719 49.4368 37.789 49.8857 37.789C50.8336 37.789 51.5985 38.554 51.5985 39.5018V57.8933H54.1261V43.1601C54.1261 42.2123 54.891 41.4474 55.8388 41.4474C56.7867 41.4474 57.5516 42.2123 57.5516 43.1601V58.9741H60.0792V45.8041C60.0792 44.8563 60.8441 44.0914 61.792 44.0914C62.7398 44.0914 63.5047 44.8563 63.5047 45.8041V73.2916L60.5448 78.2303V87.2099H56.3876V89.7375H63.0724V78.9287L66.0323 73.99V56.4798L71.5365 50.9092C71.7526 51.4579 72.0686 51.9402 72.4843 52.3725L75.4775 55.3657L86.2696 44.5736L85.7874 33.3159L93.287 25.8163ZM75.4775 51.7905L74.2636 50.5766C73.9476 50.2606 73.7647 49.8283 73.7647 49.3793C73.7647 48.9303 73.9476 48.498 74.2636 48.182L78.9529 43.4927L77.157 41.6968L65.9658 52.888V45.8041C65.9658 43.4761 64.0701 41.5638 61.7254 41.5638C61.0603 41.5638 60.4284 41.7134 59.863 41.9961C59.5471 40.882 58.7988 39.9674 57.801 39.4187L60.5947 36.625L58.7988 34.8291L54.5418 39.0861C54.3755 39.136 54.2259 39.1859 54.0762 39.2524C54.0263 38.0385 53.4443 36.9576 52.5796 36.2093L66.5146 22.2743L72.1018 20.8775L78.454 14.5253L89.6951 25.7664L83.1933 32.2683L83.6755 43.526L75.4775 51.7905Z" fill="white"/>
<path d="M53.793 64.2949H56.3206V66.8225H53.793V64.2949Z" fill="white"/>
<path d="M48.7422 64.2949H51.2698V66.8225H48.7422V64.2949Z" fill="white"/>
<path d="M31.5078 34.4463L33.3037 32.6504L35.0996 34.4463L33.3037 36.2422L31.5078 34.4463Z" fill="white"/>
<path d="M27.9336 38.0225L29.7295 36.2266L31.5254 38.0225L29.7295 39.8184L27.9336 38.0225Z" fill="white"/>
<path d="M65.1797 33.7315L66.9756 31.9355L68.7715 33.7315L66.9756 35.5274L65.1797 33.7315Z" fill="white"/>
<path d="M68.7578 37.3076L70.5537 35.5117L72.3496 37.3076L70.5537 39.1035L68.7578 37.3076Z" fill="white"/>
</svg>
