<svg width="100" height="100" viewBox="0 0 100 100" fill="none" xmlns="http://www.w3.org/2000/svg">
<path d="M63.3908 11.877C50.3055 11.877 39.6758 22.5066 39.6758 35.5748C39.6758 48.6429 50.3226 59.2726 63.3908 59.2726C76.4761 59.2726 87.1058 48.6429 87.1058 35.5748C87.1058 22.5066 76.4761 11.877 63.3908 11.877ZM63.3908 56.7826C51.6792 56.7826 42.1658 47.2692 42.1658 35.5748C42.1658 23.8804 51.6964 14.3669 63.3908 14.3669C75.0852 14.3669 84.6158 23.8804 84.6158 35.5748C84.6158 47.2692 75.1023 56.7826 63.3908 56.7826Z" fill="white"/>
<path d="M63.3909 7C47.6095 7 34.7817 19.8277 34.7817 35.5748C34.7817 40.7608 36.1727 45.6378 38.6112 49.845L9.2293 79.1925C2.48057 86.4908 12.5264 96.5194 19.8246 89.7707L36.9111 72.7014L35.1424 70.9326L18.0559 88.0019C13.2133 92.5011 6.48172 85.7695 10.998 80.9441L34.5928 57.3837L41.6507 64.4415L37.0828 68.9922L38.8516 70.7609L49.2237 60.3888C53.3966 62.7758 58.2392 64.1496 63.3909 64.1496C79.1723 64.1496 92 51.3218 92 35.5748C92 19.8277 79.1723 7 63.3909 7ZM43.4194 62.6899L36.3616 55.6321L40.0021 51.9915C41.9254 54.7219 44.3296 57.1089 47.0771 59.0322L43.4194 62.6899ZM63.3909 61.6596C49.0005 61.6596 37.2717 49.9652 37.2717 35.5748C37.2717 21.1844 49.0005 9.48999 63.3909 9.48999C77.7813 9.48999 89.51 21.1844 89.51 35.5748C89.51 49.9652 77.7985 61.6596 63.3909 61.6596Z" fill="white"/>
<path d="M63.3952 16.875C53.0746 16.875 44.6602 25.2723 44.6602 35.5757C44.6602 45.8791 53.0574 54.2764 63.3952 54.2764C73.7329 54.2764 82.1302 45.8791 82.1302 35.5757C82.1302 25.2723 73.7329 16.875 63.3952 16.875ZM63.3952 51.7864C54.4484 51.7864 47.1673 44.5053 47.1673 35.5757C47.1673 26.6461 54.4484 19.365 63.3952 19.365C72.342 19.365 79.623 26.6461 79.623 35.5757C79.623 44.5053 72.342 51.7864 63.3952 51.7864Z" fill="white"/>
<path d="M62.0999 34.4244H52.1914V36.9144H64.607V24.4473H62.117L62.0999 34.4244Z" fill="white"/>
</svg>
