<svg width="512" height="512" viewBox="0 0 512 512" fill="none" xmlns="http://www.w3.org/2000/svg">
<path d="M470.872 265.702C517.709 218.85 517.709 142.975 470.872 96.1226C429.422 54.6606 364.098 49.2706 316.431 83.3523L315.104 84.2645C303.167 92.8056 300.431 109.39 308.97 121.249C317.508 133.107 334.088 135.926 345.943 127.385L347.269 126.473C373.88 107.483 410.272 110.468 433.318 133.604C459.432 159.725 459.432 202.016 433.318 228.138L340.306 321.344C314.192 347.465 271.914 347.465 245.801 321.344C222.672 298.208 219.688 261.805 238.672 235.269L239.583 233.942C248.122 222.001 245.303 205.416 233.449 196.958C221.594 188.5 204.932 191.236 196.476 203.095L195.564 204.421C161.41 252.02 166.798 317.364 208.248 358.826C255.086 405.678 330.938 405.678 377.776 358.826L470.872 265.702ZM40.1284 246.298C-6.70948 293.15 -6.70948 369.025 40.1284 415.877C81.5779 457.339 146.902 462.729 194.569 428.648L195.896 427.736C207.833 419.194 210.569 402.61 202.03 390.751C193.492 378.893 176.912 376.074 165.057 384.615L163.731 385.527C137.12 404.517 100.728 401.532 77.6817 378.396C51.5685 352.192 51.5685 309.901 77.6817 283.78L170.694 190.656C196.808 164.535 239.086 164.535 265.199 190.656C288.328 213.792 291.312 250.195 272.328 276.814L271.417 278.141C262.878 290.082 265.697 306.667 277.551 315.125C289.406 323.583 306.068 320.847 314.524 308.988L315.436 307.662C349.59 259.98 344.202 194.636 302.752 153.174C255.914 106.322 180.062 106.322 133.224 153.174L40.1284 246.298Z" fill="#1E3059"/>
</svg>
