<svg width="100" height="100" viewBox="0 0 100 100" fill="none" xmlns="http://www.w3.org/2000/svg">
<g clip-path="url(#clip0_1198_559)">
<path d="M41.2288 43.8062C41.3239 44.5318 41.4017 45.2056 41.5054 45.9917C42.3954 45.2229 43.225 44.5145 44.046 43.8062H41.2288ZM53.0505 43.7716C54.1566 44.9033 55.3059 46.0867 56.3775 47.1838V43.7716H53.0505ZM19.1065 94.4886C19.2361 94.5232 19.3657 94.5491 19.4953 94.5836C19.7719 93.953 20.2904 93.3051 20.2731 92.6831C20.2212 91.0332 19.9015 89.4005 19.7459 87.7505C19.5299 85.4613 19.3657 83.1807 19.1756 80.8138C17.1448 80.6237 15.2178 80.4509 13.2821 80.2609C11.5365 80.0881 9.78223 79.9413 8.04528 79.6821C6.68856 79.4748 6.09229 79.6562 5.49603 80.7619C5.56516 80.831 5.61701 80.9347 5.69478 80.9692C8.44279 82.0491 11.2167 83.0857 13.9475 84.226C14.5437 84.4765 15.1659 84.9775 15.477 85.5304C16.0387 86.5325 16.3757 87.6555 16.8078 88.7353C17.5683 90.6617 18.3374 92.5708 19.1065 94.4886ZM27.4283 59.9171C29.5455 57.8093 31.6021 55.7446 33.6848 53.6628C32.5181 53.4641 31.2997 53.274 30.0985 53.0408C27.532 52.557 24.9654 52.0387 22.3903 51.5722C20.0311 51.1403 17.6288 50.8725 15.3042 50.2937C13.861 49.9395 12.7463 49.8791 11.9858 51.339C17.1535 54.207 22.3557 57.0923 27.4283 59.9171ZM48.7556 88.1738C49.1531 87.6555 49.4901 87.2668 49.7667 86.8348C49.9049 86.6102 50.0173 86.2906 49.9741 86.0487C49.4815 83.4226 48.9371 80.7965 48.4445 78.1704C47.7014 74.1534 46.9927 70.1279 46.2409 65.9468C44.4694 67.7263 42.7929 69.4022 41.1251 71.0781C39.8635 72.3393 39.9067 72.3134 40.8054 73.9115C43.4065 78.5418 45.973 83.1894 48.7556 88.1738ZM85.2662 67.9682C83.0453 65.7567 80.7207 63.839 78.085 62.2927C76.7974 61.5411 76.7629 61.5325 76.3826 62.906C75.2592 66.9057 73.6865 70.7066 71.4829 74.2398C70.757 75.3974 69.9101 76.4945 68.9768 77.8162C75.3111 75.7775 80.6689 72.6503 85.2662 67.9682ZM69.1842 5.69281C73.0297 10.4354 75.1469 15.9727 76.8579 21.8296C78.3961 20.793 79.8825 19.886 81.2478 18.8321C82.6564 17.7436 83.9526 16.5083 85.3353 15.3075C80.617 10.7032 75.3975 7.38597 69.1842 5.69281ZM47.5977 5.75328C44.3744 5.59779 33.7193 11.9817 31.4552 15.3075C33.3218 17.5017 37.8068 20.793 39.7425 21.6482C40.7622 18.9098 41.6782 16.1282 42.8448 13.4502C44.0114 10.7205 45.515 8.13753 47.5977 5.75328ZM60.4044 30.641V39.5992H75.5185C75.1037 35.5304 74.6889 31.5394 74.2741 27.5311C71.8804 28.2222 69.6682 28.9651 67.4041 29.4748C65.1227 29.9845 62.7895 30.2522 60.4044 30.641ZM56.412 30.5805C54.7529 30.4077 53.0937 30.4164 51.5296 30.0363C48.7038 29.3538 45.9298 28.4382 43.1213 27.6607C42.9226 27.6088 42.4473 27.8766 42.4127 28.0494C42.2226 29.0429 42.1189 30.0622 41.9893 31.0643C41.7992 32.5501 41.5399 34.0187 41.4362 35.5045C41.3412 36.8608 41.4189 38.2343 41.4189 39.6078H56.412V30.5805ZM73.289 23.4969C73.2112 23.3673 73.1421 23.2982 73.1248 23.2118C71.7681 17.8127 69.7459 12.7073 66.1856 8.35349C64.6647 6.48756 62.8154 5.00173 60.4217 4.302V26.5377C63.7573 26.5031 69.4003 25.311 73.289 23.4969ZM56.4466 4.29337C56.196 4.32792 56.0577 4.31928 55.9454 4.36247C53.3529 5.21769 51.4604 7.00588 49.879 9.09641C46.7853 13.1824 45.0225 17.9164 43.6139 22.7885C43.4929 23.2032 43.4583 23.6006 44.1497 23.8856C47.589 25.3024 51.1753 26.0625 54.8306 26.5722C56.3256 26.7795 56.4552 26.6586 56.4552 25.1641V12.7678V4.29337H56.4466ZM20.4373 39.6251H37.2883C37.4957 37.2927 37.6426 34.9948 37.9105 32.7056C38.1611 30.5978 38.5499 28.5159 38.8265 26.4167C38.861 26.123 38.6796 25.6393 38.4549 25.5097C35.1365 23.6092 31.9997 21.4582 29.3294 18.6852C28.9751 18.3138 28.7764 18.236 28.3875 18.7543C25.4753 22.5553 23.3149 26.7364 22.1051 31.358C21.4051 34.0359 20.999 36.783 20.4373 39.6251ZM56.4552 56.6949C55.8849 56.8417 55.3578 56.8245 55.0985 57.075C53.6035 58.509 52.169 60.0121 50.7086 61.4893C49.5506 62.6555 49.5334 62.6555 49.8185 64.2104C50.458 67.7091 51.0888 71.2163 51.7802 74.7063C51.9876 75.7429 52.074 76.7968 53.1714 77.5311C55.9022 79.3538 58.6848 79.9672 61.7352 78.49C63.9561 77.4188 65.6844 75.717 67.0843 73.7647C70.1089 69.5577 71.9668 64.8065 73.2026 59.8048C70.8261 58.3449 62.5475 56.453 60.3439 56.954V57.9043C60.3439 60.8673 60.3526 63.8217 60.3353 66.7847C60.3353 67.5536 60.223 68.2878 59.5662 68.8493C58.9699 69.3677 58.3045 69.4886 57.6132 69.2122C56.8873 68.9185 56.4466 68.3569 56.4466 67.519C56.4552 63.9945 56.4552 60.4527 56.4552 56.6949ZM23.1766 81.574C26.9011 78.4727 30.5911 75.717 33.9008 72.5639C40.0622 66.6811 45.9903 60.5563 52.0308 54.5439C52.8949 53.68 53.3011 52.6261 53.3011 51.4686C53.3097 49.3608 52.2122 47.8404 50.579 47.1234C48.4618 46.199 46.5952 46.5187 44.9706 48.1341C39.7511 53.3086 34.5662 58.5176 29.3726 63.7267C28.3961 64.7115 27.4283 65.7135 26.5296 66.7761C24.3865 69.3158 22.2779 71.8988 20.1867 74.4731C19.599 75.1728 19.0978 75.9502 18.4756 76.8141C19.5213 76.9437 20.3681 77.056 21.2064 77.1424C22.1742 77.246 22.7705 77.868 22.8569 78.8528C22.926 79.6303 23.0384 80.4164 23.1766 81.574ZM79.3813 43.5643C79.1479 46.104 78.9665 48.4969 78.7072 50.8898C78.4998 52.8162 78.2924 54.7512 77.8949 56.6344C77.7134 57.5069 77.99 57.7229 78.6554 58.103C81.7404 59.8393 84.6526 61.8435 87.1327 64.4005C87.6858 64.9706 88.0315 64.9534 88.4895 64.3055C90.5634 61.4202 92.335 58.3708 93.588 55.0276C94.9274 51.4513 95.7656 47.7626 95.9039 43.9357C95.9471 42.6659 95.9817 41.396 95.8953 40.1261C95.757 38.0874 95.6792 36.0228 95.2817 34.0273C94.4608 29.9153 92.9485 26.0366 90.7968 22.4257C89.9499 20.9917 88.9302 19.6614 88.1092 18.452C84.618 21.009 81.2565 23.4796 77.9727 25.8898C78.4653 30.4164 78.9751 35.0898 79.485 39.8411C80.5565 39.8411 81.7231 39.8238 82.8897 39.8497C83.1922 39.8583 83.5465 39.9447 83.7625 40.1261C84.3934 40.6358 84.7736 41.3096 84.4971 42.1476C84.2032 43.046 83.5465 43.5384 82.5786 43.5556C81.5071 43.5729 80.4442 43.5643 79.3813 43.5643ZM60.3871 43.7543V52.8248C61.2599 52.9285 62.0463 53.0581 62.8413 53.1185C66.3325 53.3777 69.6682 54.2588 72.9433 55.4596C73.3322 55.5978 73.7556 55.6323 74.2136 55.7187C74.4297 53.8787 74.6543 52.2115 74.8185 50.5442C75.0346 48.2809 75.1901 46.0176 75.3716 43.7543C75.3197 43.7025 75.2592 43.6507 75.2074 43.5988H60.5513C60.4995 43.6507 60.439 43.7025 60.3871 43.7543ZM20.7397 43.7543C20.8348 44.981 20.9298 46.2077 21.0249 47.3739C22.3816 47.6244 23.5655 47.8231 24.7494 48.0477C27.0826 48.4883 29.4072 48.9547 31.7404 49.3694C33.3909 49.6717 35.0501 49.9136 36.692 50.1901C37.4525 50.311 37.7809 50.0346 37.7031 49.2312C37.608 48.0822 37.5562 46.9247 37.5043 45.7671C37.4784 45.0587 37.4957 44.359 37.4957 43.5988H20.9039C20.8434 43.6507 20.7916 43.7025 20.7397 43.7543ZM60.7414 0.0172771H61.5192C62.8586 0.276434 64.1981 0.587422 65.5461 0.786109C69.0546 1.30442 72.3989 2.3756 75.6049 3.8528C79.1998 5.50276 82.5959 7.49827 85.4822 10.2367C87.3488 11.999 89.1376 13.8563 90.84 15.774C93.0608 18.2706 94.6768 21.1818 96.1027 24.1966C97.7705 27.7211 98.8507 31.4271 99.421 35.2799C99.5593 36.2215 99.8012 37.1545 100 38.0961V45.5166C99.8704 45.7412 99.663 45.9572 99.6284 46.199C99.5247 46.9592 99.542 47.7367 99.4037 48.4883C98.6692 52.5311 97.468 56.4357 95.6274 60.1158C94.1583 63.0529 92.4646 65.869 90.2091 68.2706C88.3339 70.2747 86.4846 72.3393 84.3674 74.067C80.9713 76.8573 77.1431 79.0256 73.0124 80.5632C68.8731 82.1009 64.5956 83.0771 60.1538 83.1894C58.8835 83.2239 57.6132 83.2066 56.3515 83.1807C55.3491 83.1634 54.3467 83.0857 53.3788 83.0425C53.5776 84.2865 53.6467 85.4786 53.9838 86.5843C54.243 87.4395 53.9665 88.0615 53.4825 88.5798C52.2209 89.9361 50.9074 91.2491 49.5593 92.519C48.4445 93.5729 47.131 93.3051 46.3965 91.9834C43.6917 87.0854 40.9869 82.1959 38.2734 77.3065C37.8673 76.5722 37.4265 75.8639 36.9945 75.1296C35.7587 76.1921 34.644 77.2201 33.4687 78.1531C30.5565 80.4596 27.6011 82.7229 24.6889 85.0294C24.2741 85.3576 23.6951 85.85 23.6951 86.2647C23.7124 88.1824 23.7556 90.1348 24.084 92.018C24.3951 93.8062 24.326 95.2747 22.7878 96.5014C21.8286 97.2616 21.0335 98.2377 20.1434 99.093C19.7891 99.4299 19.3571 99.6977 18.9596 100H17.7929C17.3954 99.5422 16.851 99.1448 16.6263 98.6092C15.1573 95.1365 13.7573 91.6292 12.3142 88.1393C12.2191 87.9147 12.029 87.6469 11.813 87.5605C9.13412 86.4806 6.42067 85.4699 3.75907 84.3556C2.42828 83.7941 0.872796 83.5867 0 82.2218V80.6583C1.31352 79.2502 2.58382 77.7903 3.96647 76.4513C4.37262 76.0625 5.08123 75.8207 5.66021 75.8034C7.03422 75.7602 8.42551 75.8552 9.79952 75.9589C10.7847 76.0366 11.7525 76.2785 12.7376 76.3217C13.2389 76.3476 13.8092 76.624 14.2845 75.933C17.4646 71.3632 20.9558 67.0352 24.8012 62.9147C21.7249 61.2042 18.6571 59.5024 15.5894 57.8006C13.0142 56.3666 10.4217 54.9499 7.87245 53.4641C6.4898 52.6607 6.36882 51.339 7.48358 50.1987C8.62427 49.0411 9.82544 47.9354 10.9229 46.7346C11.7266 45.8449 12.6253 45.7498 13.7055 46.0003C14.7684 46.2422 15.8486 46.3718 17.0757 46.5705C16.9547 45.914 16.7905 45.482 16.7992 45.0501C16.8424 42.1648 16.7128 39.2623 17.0411 36.4202C17.4214 33.1116 18.2942 29.8808 19.4953 26.7364C21.4051 21.7173 24.2223 17.2771 27.8085 13.3293C30.159 10.7377 32.8638 8.5349 35.8192 6.64306C40.6931 3.53317 45.9903 1.5463 51.6851 0.587422C52.8171 0.397374 53.9492 0.198687 55.0812 0H56.2565C56.7058 0.0518314 57.1552 0.103663 57.6046 0.155494C58.2008 0.155494 58.8057 0.155494 59.402 0.164133C59.8514 0.129578 60.3007 0.0691085 60.7414 0.0172771Z" fill="#00A7E1"/>
</g>
<defs>
<clipPath id="clip0_1198_559">
<rect width="100" height="100" fill="white"/>
</clipPath>
</defs>
</svg>
