<svg width="100" height="100" viewBox="0 0 100 100" fill="none" xmlns="http://www.w3.org/2000/svg">
<g clip-path="url(#clip0_1198_527)">
<path d="M59.8289 100.001C59.7157 100.001 59.5937 100.001 59.4805 99.9925C58.1912 99.8967 57.0151 99.2346 56.2572 98.1892L51.222 91.281C51.1261 91.1416 50.9868 91.011 50.8387 90.9064L43.4513 85.4705C42.406 84.7038 41.7613 83.5191 41.6568 82.2298C41.5609 80.9405 42.0314 79.6773 42.9461 78.7713C44.2963 77.4123 46.3087 77.0377 48.0597 77.8131L53.4782 80.1826L64.7248 68.0562L65.7004 65.5822L64.7248 67.4203L45.0368 57.0013C43.7127 56.2086 42.9112 54.9716 42.737 53.5516C42.5628 52.1316 43.0419 50.7378 44.0524 49.7273C45.0455 48.7342 46.4742 48.3247 47.8419 48.6122L76.4678 54.6754C76.6334 54.7102 76.7989 54.6667 76.9034 54.5447L87.1742 43.6379C88.3242 42.4183 90.2407 41.7127 92.4447 41.6779C94.8403 41.5472 96.8266 42.3573 98.0549 43.5857C99.2832 44.814 99.9975 46.9135 99.9714 49.1959C99.9366 51.3999 99.2222 53.3251 98.0026 54.4663L87.0958 64.7807C86.9739 64.8939 86.9216 65.0595 86.9565 65.2163L93.5423 94.1819C93.8734 95.5671 93.4552 97.0132 92.4447 98.0324C91.4429 99.0429 90.0752 99.5395 88.6378 99.3566C87.2265 99.191 85.9895 98.3983 85.249 97.1874L74.2813 76.9245L72.2341 75.4L73.654 76.9245L61.5538 88.171L63.9233 93.5983C64.6899 95.358 64.3066 97.3616 62.965 98.7119C62.12 99.5395 60.9963 100.001 59.8289 100.001ZM73.9502 72.6384C74.1593 72.6384 74.3684 72.6472 74.5774 72.682C75.9539 72.8737 77.156 73.649 77.8878 74.8337L88.8468 95.0966L90.9637 96.5515L89.4915 95.0792L82.8969 66.1484C82.5136 64.5542 83.0276 62.8555 84.2385 61.723L95.1627 51.426C95.4589 51.1385 95.7986 50.2935 95.816 49.1262C95.8335 47.8891 95.485 46.8786 95.1278 46.5214C94.7619 46.1643 93.7427 45.7722 92.5231 45.8332C91.3558 45.8507 90.5194 46.1817 90.232 46.4866L79.9786 57.3934C78.8722 58.5781 77.1996 59.0921 75.6228 58.7436L46.9969 52.6805L46.0386 55.1545L47.0143 53.3164L66.7023 63.7353C68.0003 64.5106 68.793 65.7215 68.9934 67.0979C69.185 68.4831 68.7582 69.8595 67.8086 70.8874L55.5342 84.0853C54.9331 84.7387 53.9922 84.9391 53.1733 84.5732L46.3958 81.6113C46.2303 81.5416 46.0299 81.5764 45.8993 81.7071L53.3214 87.5438C53.8006 87.901 54.2274 88.3278 54.5846 88.807L59.6285 95.7239C60.1425 95.628 60.1774 95.419 60.099 95.2447L57.1458 88.4672C56.7886 87.657 56.989 86.7075 57.6336 86.1064L70.8141 73.8668C71.6765 73.074 72.8003 72.6384 73.9502 72.6384Z" fill="white"/>
<path d="M41.7013 43.7468C40.9347 43.7468 40.2029 43.3287 39.837 42.5969C39.3231 41.5689 39.7412 40.3145 40.7692 39.8005L80.328 20.008C80.9726 19.6857 81.7479 19.7205 82.349 20.1039C82.9676 20.4872 83.3422 21.1579 83.3422 21.8723V39.5827C83.3422 40.7326 82.41 41.6648 81.2601 41.6648C80.1102 41.6648 79.1781 40.7326 79.1781 39.5827V25.2436L42.6334 43.529C42.3372 43.6771 42.0149 43.7468 41.7013 43.7468Z" fill="white"/>
<path d="M35.8129 81.2491C35.4644 81.2491 35.1247 81.162 34.8024 80.9878L1.07151 62.2319C0.40944 61.8661 0 61.1691 0 60.4112V21.8717C0 21.1486 0.374594 20.4778 0.984397 20.1032C1.5942 19.7286 2.36081 19.6938 3.00546 20.0074L42.5643 39.7999C43.5922 40.3139 44.0104 41.5683 43.4964 42.5963C42.9824 43.6329 41.728 44.0424 40.7 43.5284L4.16409 25.243V59.1916L36.8234 77.3464C37.8252 77.9039 38.1911 79.1758 37.6336 80.1776C37.2503 80.8571 36.5447 81.2491 35.8129 81.2491Z" fill="white"/>
<path d="M81.254 23.9544C80.9404 23.9544 80.6268 23.8847 80.3219 23.7366L41.6429 4.40583L3.01623 23.7366C1.99699 24.2419 0.733823 23.8324 0.219846 22.8045C-0.294132 21.7765 0.124019 20.5221 1.15197 20.0081L40.7108 0.215609C41.2945 -0.0718697 41.9914 -0.0718697 42.575 0.215609L82.1861 20.0081C83.2141 20.5221 83.6323 21.7765 83.1183 22.8045C82.7524 23.5362 82.0206 23.9544 81.254 23.9544Z" fill="white"/>
<path d="M21.0156 48.9096C19.8657 48.9096 18.9336 47.9774 18.9336 46.8275V31.3298C18.9336 30.5458 19.3779 29.8227 20.0835 29.4655L59.6423 9.67306C60.6616 9.16779 61.9247 9.57723 62.4387 10.6052C62.9527 11.6331 62.5345 12.8876 61.5066 13.4016L23.0977 32.6191V46.8275C23.0977 47.9774 22.1656 48.9096 21.0156 48.9096Z" fill="white"/>
</g>
<defs>
<clipPath id="clip0_1198_527">
<rect width="100" height="100" fill="white"/>
</clipPath>
</defs>
</svg>
