<svg width="36" height="36" viewBox="0 0 36 36" fill="none" xmlns="http://www.w3.org/2000/svg">
<path d="M31.6 34.8152H30.6C29.9 31.7152 27 31.4152 24.7 30.1152C24.3 31.3152 23.9 32.4152 23.6 33.5152C23.5 34.0152 23.3 34.1152 22.8 34.1152C19.4 34.1152 16 34.1152 12.7 34.1152C12.4 34.1152 12.1 33.8152 12 33.5152C11.6 32.4152 11.3 31.3152 10.9 30.1152C8.7 31.4152 5.8 31.7152 5 34.8152H4C4 33.6152 4.4 32.7152 5.2 32.0152C5.7 31.6152 5.8 31.1152 5.8 30.5152C5.8 24.2152 5.8 17.9152 5.8 11.6152C5.8 9.2152 6.2 6.91521 7.7 4.81521C10 1.51521 15.7 -0.884794 20.3 3.01521C20.8 3.41521 21.7 3.31521 22.4 3.31521C25.1 3.41521 27.2 4.61521 28.2 7.21521C28.8 8.71521 29.2 10.3152 29.3 11.8152C29.5 15.3152 29.5 18.8152 29.5 22.3152C29.5 24.9152 29.5 27.4152 29.5 30.0152C29.5 30.7152 29.6 31.2152 30.2 31.6152C31.2 32.3152 31.7 33.3152 31.7 34.7152L31.6 34.8152ZM28.2 30.6152C28.2 24.7152 28.2 19.1152 28.2 13.5152C28.2 11.9152 27.9 10.3152 27.5 8.81521C26.6 5.61521 24.2 4.11521 20.9 4.61521C20.5 4.61521 20 4.51521 19.7 4.21521C16 0.815207 10.2 1.9152 8 6.4152C7.1 8.2152 6.9 10.2152 6.9 12.1152C6.9 18.0152 6.9 23.9152 6.9 29.9152C6.9 30.1152 6.9 30.3152 6.9 30.7152C9 29.6152 10.9 28.7152 12.8 27.5152C13.5 27.0152 13.9 26.1152 14.4 25.3152C14.5 25.1152 14.4 24.6152 14.1 24.4152C12 23.0152 10.7 20.9152 10 18.5152C9.9 18.1152 9.6 17.8152 9.2 17.5152C8.2 16.9152 7.7 15.4152 8 14.1152C8.3 12.8152 9.1 12.2152 10.4 12.1152C10.7 12.1152 11 12.1152 11.3 12.1152C14.8 11.5152 17.7 9.71521 20.1 7.01521C20.3 7.41521 20.4 7.71521 20.6 8.01521C21.6 10.1152 23.1 11.6152 25.4 12.2152C26.7 12.6152 27.4 13.1152 27.6 14.5152C27.8 15.9152 27.3 17.1152 26.3 17.7152C26 17.9152 25.7 18.2152 25.6 18.5152C24.9 20.7152 23.8 22.7152 22 24.1152C21 24.9152 20.9 25.2152 21.6 26.3152C21.9 26.8152 22.3 27.3152 22.8 27.5152C24.6 28.5152 26.4 29.4152 28.3 30.5152L28.2 30.6152ZM19.8 9.31521C19.7 9.31521 19.6 9.31521 19.6 9.31521C19.3 9.61521 19 9.8152 18.6 10.1152C16.2 11.9152 13.7 13.2152 10.6 13.4152C9.5 13.4152 9 14.0152 9 15.1152C9 16.3152 9.4 16.7152 10.5 16.7152C11.1 18.1152 11.5 19.5152 12.2 20.8152C13.7 23.6152 16.6 24.9152 19.1 24.2152C21.4 23.5152 22.9 21.9152 23.8 19.7152C24.2 18.7152 24.5 17.7152 24.8 16.7152C25.2 16.6152 25.6 16.7152 25.9 16.4152C26.5 15.9152 26.6 15.1152 26.4 14.4152C26.3 13.8152 25.9 13.3152 25.1 13.3152C24.8 13.3152 24.4 13.1152 24.1 13.0152C22.3 12.2152 20.9 10.9152 19.8 9.21521V9.31521ZM23.6 29.7152C21 28.0152 20.7 27.7152 19.8 25.5152H15.6C15.2 27.3152 14 28.4152 12.4 29.4152C12.2 29.5152 12 29.9152 12 30.1152C12.2 31.1152 12.6 32.0152 12.9 33.0152C16 33.0152 19 33.0152 22.1 33.0152C22.3 33.0152 22.6 32.8152 22.7 32.6152C23 31.7152 23.3 30.7152 23.6 29.7152Z" fill="white"/>
</svg>
