<svg width="512" height="512" viewBox="0 0 512 512" fill="none" xmlns="http://www.w3.org/2000/svg">
<path d="M256.3 0.248061L383.609 127.566C383.647 127.602 383.673 127.649 383.683 127.7C383.693 127.751 383.688 127.804 383.667 127.853C383.647 127.902 383.612 127.944 383.568 127.974C383.523 128.004 383.471 128.021 383.417 128.022H256.212C256.159 128.022 256.108 128.001 256.07 127.963C256.033 127.926 256.012 127.875 256.012 127.822V0.368045C256.012 0.0960841 256.108 0.0560887 256.3 0.248061Z" fill="#1D6F42"/>
<path d="M147.595 348.254C146.294 352.643 145.334 357.093 144.715 361.604C144.23 365.113 143.99 369.232 143.995 373.962C144.033 421.95 144.046 467.794 144.035 511.494C144.035 511.622 143.986 511.744 143.897 511.834C143.809 511.924 143.689 511.974 143.563 511.974C119.418 511.948 95.1011 511.956 70.6139 511.998C64.2522 512.014 59.1409 511.716 55.2801 511.102C44.6843 509.423 35.1417 505.517 26.6523 499.384C24.9192 498.131 23.1141 496.643 21.237 494.921C13.3022 487.642 7.07907 478.139 3.86353 468.373C2.38641 463.883 1.33856 459.246 0.719984 454.463C0.234721 450.724 -0.00524562 446.01 8.69436e-05 440.321C0.085408 317.533 0.085408 194.745 8.69436e-05 71.9577C8.69436e-05 66.2465 0.213392 61.5992 0.639997 58.0157C1.19458 53.4457 2.19444 48.8784 3.63956 44.3137C5.61794 38.0746 8.63085 32.2328 12.6783 26.7882C17.9015 19.7572 23.9726 13.7821 31.5635 9.35872C38.8425 5.12466 46.7507 2.30907 55.2881 0.911937C59.0316 0.298692 63.9909 -0.00526361 70.166 6.89557e-05C121.465 0.048062 172.583 0.0587279 223.52 0.0320651C223.851 0.0320651 224.016 0.194706 224.016 0.519992C224.016 43.4738 224.013 85.3371 224.008 126.11C224.008 129.789 224.336 133.629 225.312 137.196C226.703 142.326 229.271 146.878 233.015 150.85C239.15 157.361 247.988 159.993 256.739 160.001C300.168 160.022 342.436 160.025 383.545 160.009C383.843 160.009 383.993 160.158 383.993 160.457V303.764C383.993 303.793 383.987 303.821 383.976 303.847C383.965 303.873 383.948 303.897 383.927 303.917C383.906 303.937 383.882 303.953 383.855 303.964C383.827 303.975 383.798 303.98 383.769 303.98C328.107 304.023 272.353 304.012 216.505 303.948C210.052 303.943 204.712 304.202 200.483 304.724C191.05 305.892 181.953 309.249 173.191 314.795C169.424 317.178 165.768 320.426 162.681 323.545C158.991 327.268 155.527 331.894 152.29 337.423C151.442 338.874 150.704 340.383 150.074 341.951C149.227 344.055 148.243 346.07 147.595 348.254Z" fill="#1D6F42"/>
<path d="M239.65 461.382C236.536 466.202 233.432 470.908 230.339 475.5C228.59 478.107 227.038 481.534 225.684 485.778C224.172 490.546 224.34 495.697 223.076 500.576C222.351 503.392 220.735 505.826 218.229 507.879C216.475 509.314 214.352 510.409 211.862 511.167C209.42 511.908 207.047 511.964 204.743 511.335C198.973 509.761 195.136 506.495 193.233 501.536C192.155 498.736 191.884 494.836 192.417 489.834C192.971 484.645 193.859 480.123 195.08 476.268C195.71 474.268 196.515 472.116 197.496 469.813C199.32 465.517 201.783 461.598 204.319 457.638C209.966 448.829 215.475 440.379 220.845 432.29C220.983 432.077 220.983 431.866 220.845 431.658C213.222 420.3 206.607 410.317 200.608 400.279C198.64 396.983 197.416 393.823 195.984 390.352C195.456 389.072 194.998 387.691 194.608 386.209C193.083 380.423 192.265 374.725 192.153 369.115C192.073 365.062 193.089 361.401 195.2 358.133C196.056 356.813 197.568 355.381 198.976 354.645C205.487 351.238 211.649 351.363 217.461 355.021C220.085 356.669 221.874 359.116 222.828 362.364C223.591 364.961 224.082 367.763 224.3 370.771C224.756 377.058 227.052 383.337 230.299 388.32C233.542 393.29 236.677 398.044 239.706 402.582C239.893 402.859 240.079 402.859 240.266 402.582C243.519 397.724 246.628 393.053 249.593 388.568C251.923 385.043 253.64 381.407 254.744 377.658C255.792 374.09 255.736 370.283 256.232 366.587C256.752 362.74 258.071 358.796 260.799 356.237C261.497 355.586 262.257 355.037 263.079 354.589C269.248 351.235 275.368 351.36 281.436 354.965C282.98 355.877 285.019 358.077 285.787 359.812C287.318 363.252 288.027 366.361 287.915 369.139C287.747 373.122 287.651 377.05 286.747 381.001C285.867 384.883 284.779 388.579 283.484 392.088C282.247 395.458 280.527 398.865 278.324 402.31C272.096 412.042 265.772 421.75 259.351 431.434C259.242 431.6 259.183 431.795 259.183 431.995C259.183 432.196 259.242 432.392 259.351 432.562C265.574 442 271.965 451.807 278.524 461.982C280.476 465.005 282.087 468.202 283.356 471.572C285.379 476.947 287.155 482.811 287.595 488.53C287.76 490.716 287.856 492.86 287.883 494.961C287.926 498.635 287.006 502.088 285.123 505.319C284.132 507.015 281.74 509.103 279.844 509.919C273.194 512.772 267.174 512.334 261.783 508.607C259.49 507.023 257.847 504.253 256.855 500.296C256.232 497.827 255.853 495.19 255.72 492.385C255.608 490.034 255.173 487.669 254.416 485.29C253.387 482.069 251.899 478.969 249.952 475.988C246.684 470.959 243.455 466.088 240.266 461.374C240.058 461.064 239.853 461.067 239.65 461.382Z" fill="#1D6F42"/>
<path d="M352.568 479.989C362.145 479.963 372.088 479.963 382.396 479.989C388.099 479.997 394.922 482.077 397.69 487.668C400.719 493.801 400.487 499.712 396.994 505.402C396.503 506.207 395.826 507.012 394.962 507.817C391.986 510.609 386.811 511.905 383.044 511.921C369.568 511.985 354.653 511.995 338.298 511.953C332.707 511.945 325.052 510.305 322.452 504.586C320.842 501.04 320.034 497.909 320.029 495.195C319.975 452.364 319.97 410.495 320.013 369.589C320.021 364.174 322.005 357.023 327.332 354.423C329.598 353.314 332.024 352.578 334.611 352.216C336.81 351.912 339.354 352.496 341.434 353.12C345.012 354.186 347.66 356.194 349.377 359.143C351.067 362.038 351.912 365.52 351.912 369.589C351.928 409.466 351.982 446.101 352.072 479.493C352.072 479.824 352.238 479.989 352.568 479.989Z" fill="#1D6F42"/>
<path d="M439.117 441.183C434.723 438.954 430.71 436.618 427.079 434.176C425.665 433.232 424.306 432.12 422.999 430.84C421.319 429.193 419.552 427.801 418.032 425.905C414.966 422.082 412.689 418.117 411.201 414.011C406.604 401.261 407.14 388.833 412.809 376.728C415.011 372.014 418.205 367.711 422.391 363.818C430.497 356.283 440.509 352.388 452.427 352.132C460.772 351.956 469.432 351.916 478.407 352.012C484.246 352.076 490.605 354.011 493.509 359.403C496.644 365.231 496.557 371.11 493.245 377.04C490.557 381.855 484.15 383.823 479.263 383.911C472.613 384.039 465.705 384.039 458.538 383.911C454.405 383.842 451.155 384.252 448.787 385.143C445.177 386.497 442.674 388.996 441.276 392.638C439.965 396.045 439.765 399.133 440.677 401.901C441.802 405.297 444.105 407.905 447.588 409.723C456.461 414.373 465.977 419.298 476.135 424.497C480.988 426.977 485.563 430.075 489.861 433.792C491.264 435.008 492.512 436.341 493.605 437.791C495.109 439.783 496.724 441.511 497.948 443.743C500.124 447.721 501.705 451.981 502.692 456.525C505.081 467.51 503.907 477.866 499.172 487.592C497.098 491.848 494.541 495.444 491.501 498.383C487.55 502.206 482.551 506.238 477.535 508.181C475.776 508.861 474.04 509.661 472.224 510.093C467.489 511.202 462.921 511.794 458.522 511.869C448.753 512.034 440.159 512.042 432.742 511.893C428.11 511.805 421.607 509.997 419.008 505.59C415.312 499.34 415.227 493.066 418.752 486.768C419.584 485.289 421.431 483.281 422.959 482.561C426.479 480.913 429.718 480.068 432.678 480.025C439.69 479.924 447.156 479.921 455.074 480.017C457.458 480.044 459.698 479.804 461.794 479.297C467.993 477.802 471.68 472.482 471.88 466.147C472.045 460.927 469.6 456.983 464.545 454.317C456.696 450.184 448.219 445.806 439.117 441.183Z" fill="#1D6F42"/>
</svg>
