<svg width="4495" height="1947" viewBox="0 0 4495 1947" fill="none" xmlns="http://www.w3.org/2000/svg">
<g clip-path="url(#clip0_1778_2038)">
<path d="M1796.67 485.047C1795.32 483.401 1793.92 481.844 1792.45 480.376C1677.16 365.035 1561.7 249.594 1446.06 134.053C1445.81 133.795 1445.67 133.449 1445.67 133.089C1445.67 132.73 1445.81 132.386 1446.06 132.135L1577.47 0.76634C1578.06 0.176845 1578.65 0.176845 1579.23 0.76634L2062.28 483.879C2062.61 484.207 2062.79 484.651 2062.79 485.114C2062.79 485.576 2062.61 486.02 2062.28 486.348L1579.24 969.678C1578.32 970.602 1577.4 970.602 1576.47 969.678L1445.91 839.144C1445.74 838.971 1445.6 838.764 1445.5 838.536C1445.41 838.309 1445.36 838.064 1445.36 837.818C1445.36 837.571 1445.41 837.327 1445.5 837.099C1445.6 836.872 1445.74 836.665 1445.91 836.491L1796.62 485.965C1796.74 485.847 1796.81 485.689 1796.82 485.52C1796.83 485.351 1796.77 485.182 1796.67 485.047Z" fill="#FD3A1E"/>
<path d="M2805.56 485.482C2805.48 485.595 2805.45 485.732 2805.46 485.869C2805.48 486.006 2805.54 486.134 2805.64 486.233L2902.68 583.65C2902.81 583.777 2902.96 583.878 2903.12 583.946C2903.29 584.015 2903.47 584.051 2903.65 584.051C2903.83 584.051 2904.01 584.015 2904.17 583.946C2904.34 583.878 2904.49 583.777 2904.62 583.65L3020.6 467.697C3020.84 467.459 3021.17 467.325 3021.51 467.325C3021.86 467.325 3022.18 467.459 3022.43 467.697L3153.79 599.049C3154.04 599.293 3154.17 599.622 3154.17 599.966C3154.17 600.31 3154.04 600.64 3153.79 600.884L3037.83 716.836C3037.71 716.957 3037.61 717.102 3037.54 717.261C3037.48 717.419 3037.44 717.59 3037.44 717.762C3037.44 717.935 3037.48 718.105 3037.54 718.264C3037.61 718.423 3037.71 718.567 3037.83 718.688L3156.23 837.043C3156.4 837.212 3156.49 837.44 3156.49 837.677C3156.49 837.915 3156.4 838.142 3156.23 838.311L3024.8 969.88C3024.5 970.178 3024.1 970.346 3023.68 970.346C3023.26 970.346 3022.85 970.178 3022.55 969.88L2539.84 486.95C2539.5 486.605 2539.3 486.136 2539.3 485.645C2539.3 485.155 2539.5 484.682 2539.84 484.331L3022.9 1.21794C3023.07 1.04493 3023.28 0.907586 3023.5 0.813859C3023.73 0.720132 3023.97 0.671875 3024.21 0.671875C3024.46 0.671875 3024.7 0.720132 3024.92 0.813859C3025.14 0.907586 3025.35 1.04493 3025.52 1.21794L3156.35 131.969C3156.48 132.103 3156.58 132.262 3156.66 132.436C3156.73 132.61 3156.76 132.796 3156.76 132.983C3156.76 133.171 3156.73 133.356 3156.66 133.528C3156.58 133.701 3156.48 133.857 3156.35 133.988C3039.94 250.596 2923.93 366.643 2808.33 482.129C2807.29 483.163 2806.37 484.281 2805.56 485.482Z" fill="#FD3A1E"/>
<path d="M4046.87 392.137L3877.63 222.93C3877.52 222.818 3877.43 222.686 3877.37 222.54C3877.31 222.394 3877.28 222.237 3877.28 222.079C3877.28 221.921 3877.31 221.765 3877.37 221.618C3877.43 221.472 3877.52 221.34 3877.63 221.228L4009.2 89.6931C4009.31 89.5812 4009.44 89.4923 4009.59 89.4317C4009.73 89.3711 4009.89 89.3398 4010.05 89.3398C4010.2 89.3398 4010.36 89.3711 4010.51 89.4317C4010.65 89.4923 4010.79 89.5812 4010.9 89.6931L4494.27 573.44C4494.38 573.552 4494.47 573.684 4494.53 573.83C4494.59 573.976 4494.62 574.133 4494.62 574.291C4494.62 574.449 4494.59 574.606 4494.53 574.752C4494.47 574.898 4494.38 575.03 4494.27 575.142L4362.84 706.577C4362.73 706.689 4362.59 706.778 4362.45 706.838C4362.3 706.899 4362.15 706.93 4361.99 706.93C4361.83 706.93 4361.67 706.899 4361.53 706.838C4361.38 706.778 4361.25 706.689 4361.14 706.577L4181.64 527.109C4181.52 526.997 4181.39 526.908 4181.25 526.848C4181.1 526.787 4180.94 526.756 4180.79 526.756C4180.63 526.756 4180.47 526.787 4180.32 526.848C4180.18 526.908 4180.05 526.997 4179.93 527.109L3824.67 882.474C3824.56 882.586 3824.43 882.675 3824.28 882.736C3824.14 882.796 3823.98 882.828 3823.82 882.828C3823.66 882.828 3823.51 882.796 3823.36 882.736C3823.22 882.675 3823.08 882.586 3822.97 882.474L3691.41 750.972C3691.3 750.861 3691.21 750.728 3691.15 750.582C3691.09 750.436 3691.05 750.28 3691.05 750.122C3691.05 749.963 3691.09 749.807 3691.15 749.661C3691.21 749.515 3691.3 749.382 3691.41 749.271L4046.87 393.839C4046.98 393.727 4047.07 393.595 4047.13 393.449C4047.19 393.303 4047.22 393.146 4047.22 392.988C4047.22 392.83 4047.19 392.673 4047.13 392.527C4047.07 392.381 4046.98 392.249 4046.87 392.137Z" fill="#FD3A1E"/>
<path d="M485.392 442.789L135.285 793.216C135.037 793.463 134.7 793.602 134.348 793.602C133.995 793.602 133.654 793.463 133.4 793.216L1.90372 661.731C1.72299 661.547 1.62037 661.3 1.61726 661.042C1.61415 660.784 1.7108 660.535 1.88704 660.346C6.58115 655.341 11.6368 650.136 17.0539 644.73C171.982 489.849 328.111 333.705 485.442 176.299C485.54 176.2 485.657 176.122 485.785 176.069C485.914 176.016 486.051 175.988 486.189 175.988C486.327 175.988 486.464 176.016 486.59 176.069C486.717 176.122 486.831 176.2 486.927 176.299L970.765 660.196C971.532 660.963 971.532 661.725 970.765 662.482L839.836 793.416C839.689 793.563 839.515 793.679 839.324 793.759C839.133 793.838 838.928 793.879 838.721 793.879C838.515 793.879 838.311 793.838 838.121 793.759C837.932 793.679 837.76 793.563 837.617 793.416L486.927 442.789C486.826 442.688 486.706 442.608 486.575 442.554C486.443 442.499 486.302 442.471 486.159 442.471C486.017 442.471 485.875 442.499 485.744 442.554C485.612 442.608 485.492 442.688 485.392 442.789Z" fill="#FD3A1E"/>
<path d="M1346.38 1335.99L1298.65 1378.45C1298.54 1378.54 1298.41 1378.61 1298.27 1378.64C1298.13 1378.67 1297.99 1378.67 1297.85 1378.63L1271.75 1371.38C1271.61 1371.34 1271.48 1371.26 1271.37 1371.16C1271.27 1371.06 1271.19 1370.93 1271.15 1370.79C1271.1 1370.65 1271.1 1370.51 1271.13 1370.36C1271.16 1370.22 1271.22 1370.09 1271.32 1369.97L1309.31 1324.51C1309.42 1324.38 1309.56 1324.28 1309.73 1324.23C1309.89 1324.18 1310.06 1324.18 1310.23 1324.23L1346.05 1334.5C1346.2 1334.55 1346.34 1334.63 1346.44 1334.74C1346.55 1334.86 1346.62 1335 1346.66 1335.15C1346.69 1335.3 1346.68 1335.46 1346.64 1335.61C1346.59 1335.75 1346.5 1335.89 1346.38 1335.99Z" fill="#FD3A1E"/>
<path d="M748.23 1375.48C761.979 1375.48 773.125 1364.34 773.125 1350.59C773.125 1336.84 761.979 1325.7 748.23 1325.7C734.482 1325.7 723.336 1336.84 723.336 1350.59C723.336 1364.34 734.482 1375.48 748.23 1375.48Z" fill="#FD3A1E"/>
<path d="M1154.12 1375.48C1167.87 1375.48 1179.02 1364.34 1179.02 1350.59C1179.02 1336.84 1167.87 1325.7 1154.12 1325.7C1140.37 1325.7 1129.23 1336.84 1129.23 1350.59C1129.23 1364.34 1140.37 1375.48 1154.12 1375.48Z" fill="#FD3A1E"/>
<path d="M2377.67 1375.46C2391.41 1375.46 2402.55 1364.32 2402.55 1350.59C2402.55 1336.85 2391.41 1325.71 2377.67 1325.71C2363.94 1325.71 2352.8 1336.85 2352.8 1350.59C2352.8 1364.32 2363.94 1375.46 2377.67 1375.46Z" fill="#FD3A1E"/>
<path d="M2647.54 1375.46C2661.29 1375.46 2672.44 1364.32 2672.44 1350.57C2672.44 1336.82 2661.29 1325.68 2647.54 1325.68C2633.79 1325.68 2622.65 1336.82 2622.65 1350.57C2622.65 1364.32 2633.79 1375.46 2647.54 1375.46Z" fill="#FD3A1E"/>
<path d="M163.516 1520.44C163.392 1520.15 163.185 1519.9 162.921 1519.73C162.657 1519.55 162.348 1519.46 162.031 1519.46L64.022 1519.48C63.5853 1519.48 63.1582 1519.6 62.7935 1519.84C62.4288 1520.08 62.1424 1520.43 61.9697 1520.83L46.369 1557.5C46.2095 1557.87 45.946 1558.18 45.611 1558.4C45.2759 1558.62 44.8841 1558.73 44.4836 1558.73L1.95295 1558.82C0.618132 1558.83 0.223248 1558.22 0.768299 1557C34.7172 1482.59 71.2856 1409.91 110.474 1338.97C110.713 1338.53 111.051 1338.15 111.463 1337.87C111.874 1337.58 112.347 1337.39 112.843 1337.32C113.366 1337.23 113.861 1337.58 114.328 1338.36C118.199 1344.87 121.758 1351.11 125.006 1357.06C160.724 1422.57 194.1 1489.46 225.135 1557.72C225.191 1557.84 225.216 1557.97 225.207 1558.1C225.199 1558.23 225.157 1558.36 225.085 1558.47C225.013 1558.58 224.914 1558.68 224.797 1558.74C224.681 1558.8 224.55 1558.83 224.417 1558.83L180.735 1558.8C180.112 1558.8 179.678 1558.51 179.434 1557.93L163.516 1520.44ZM79.4558 1482.34C79.3746 1482.51 79.338 1482.7 79.3495 1482.89C79.361 1483.08 79.4202 1483.26 79.5216 1483.43C79.623 1483.59 79.7633 1483.72 79.9297 1483.81C80.0961 1483.91 80.2832 1483.95 80.4736 1483.96H145.379C145.57 1483.95 145.757 1483.91 145.923 1483.81C146.089 1483.72 146.23 1483.59 146.331 1483.43C146.433 1483.26 146.492 1483.08 146.503 1482.89C146.515 1482.7 146.478 1482.51 146.397 1482.34L113.944 1413.65C113.851 1413.46 113.706 1413.3 113.526 1413.19C113.346 1413.08 113.138 1413.02 112.926 1413.02C112.715 1413.02 112.507 1413.08 112.327 1413.19C112.147 1413.3 112.002 1413.46 111.909 1413.65L79.4558 1482.34Z" fill="#FD3A1E"/>
<path d="M1669.99 1342.01C1669.99 1341.55 1670.18 1341.11 1670.5 1340.79C1670.83 1340.46 1671.27 1340.28 1671.73 1340.28L1760.51 1340.59C1788.04 1340.69 1814.4 1351.71 1833.79 1371.23C1853.19 1390.75 1864.04 1417.17 1863.94 1444.68L1863.91 1455.93C1863.86 1469.55 1861.13 1483.04 1855.87 1495.61C1850.61 1508.18 1842.93 1519.59 1833.25 1529.19C1823.58 1538.79 1812.11 1546.39 1799.5 1551.56C1786.88 1556.73 1773.38 1559.37 1759.74 1559.32L1670.96 1559C1670.5 1559 1670.07 1558.81 1669.74 1558.49C1669.42 1558.16 1669.24 1557.72 1669.24 1557.27L1669.99 1342.01ZM1712.77 1378.25V1521.5C1712.77 1522.03 1712.98 1522.54 1713.36 1522.91C1713.74 1523.29 1714.25 1523.5 1714.78 1523.5H1756.92C1773.41 1523.5 1789.22 1516.43 1800.88 1503.85C1812.54 1491.28 1819.09 1474.22 1819.09 1456.43V1443.32C1819.09 1425.53 1812.54 1408.47 1800.88 1395.89C1789.22 1383.31 1773.41 1376.25 1756.92 1376.25H1714.78C1714.25 1376.25 1713.74 1376.46 1713.36 1376.83C1712.98 1377.21 1712.77 1377.72 1712.77 1378.25Z" fill="#FD3A1E"/>
<path d="M273.02 1438.06C268.682 1449.22 279.861 1454.59 288.721 1456.74C305.489 1460.83 315.384 1462.43 327.347 1468.77C339.043 1474.96 347.169 1485.59 349.321 1498.44C355.228 1533.72 335.322 1558.6 299.499 1561.39C278.164 1563.04 257.38 1559.66 237.147 1551.24C236.643 1551.03 236.212 1550.68 235.909 1550.23C235.606 1549.78 235.444 1549.25 235.445 1548.71L235.328 1521.93C235.324 1521.76 235.364 1521.59 235.443 1521.44C235.522 1521.29 235.638 1521.16 235.781 1521.07C235.923 1520.97 236.088 1520.92 236.259 1520.9C236.431 1520.88 236.604 1520.91 236.763 1520.98C253.381 1528.12 271.095 1531.08 289.905 1529.87C294.21 1529.59 298.07 1528.41 301.485 1526.32C309.911 1521.13 309.594 1509.45 301.552 1503.98C297.792 1501.43 293.587 1499.59 288.938 1498.45C280.662 1496.43 272.736 1494.53 265.161 1492.75C247.675 1488.63 232.808 1478.45 230.289 1459.18C225.367 1421.63 248.242 1398.28 284.566 1396.82C303.465 1396.06 321.629 1398.96 339.06 1405.53C339.565 1405.72 339.999 1406.06 340.306 1406.5C340.613 1406.95 340.778 1407.48 340.779 1408.03L340.795 1434.49C340.794 1434.66 340.751 1434.83 340.671 1434.99C340.59 1435.14 340.475 1435.27 340.333 1435.38C340.192 1435.48 340.028 1435.54 339.856 1435.57C339.684 1435.59 339.508 1435.58 339.344 1435.52C324.405 1430.33 309.538 1427.91 294.744 1428.27C287.653 1428.43 276.057 1430.3 273.02 1438.06Z" fill="#FD3A1E"/>
<path d="M539.431 1496.24C530.237 1550.86 475.693 1571.1 426.939 1558C396.505 1549.83 375.582 1525.27 371.093 1494.08C366.488 1462.1 376.049 1430.24 403.079 1411.53C427.356 1394.77 463.196 1392.5 490.543 1402.66C529.486 1417.14 546.188 1456.08 539.431 1496.24ZM449.781 1429.7C431.31 1431.65 418.479 1445.89 414.542 1463.74C409.052 1488.61 415.96 1518.88 442.706 1527.22C465.632 1534.38 487.423 1522.11 494.748 1499.04C504.792 1467.46 490.092 1425.43 449.781 1429.7Z" fill="#FD3A1E"/>
<path d="M603.805 1553.01C570.935 1536.81 556.936 1503.31 561.108 1467.77C566.08 1425.43 596.647 1399.42 638.127 1396.95C656.136 1395.87 674.834 1398.69 694.223 1405.41C694.614 1405.55 694.954 1405.8 695.196 1406.14C695.438 1406.48 695.57 1406.88 695.574 1407.29L695.691 1435.22C695.694 1435.4 695.654 1435.57 695.574 1435.73C695.495 1435.88 695.378 1436.02 695.233 1436.12C695.089 1436.22 694.922 1436.29 694.746 1436.31C694.57 1436.34 694.39 1436.32 694.223 1436.26C670.93 1427.8 642.098 1425.06 621.892 1440.24C604.873 1453.04 599.834 1475.5 605.958 1495.37C612.615 1516.94 632.671 1528.15 654.762 1528.92C668.377 1529.39 682.643 1527.07 697.56 1521.96C697.687 1521.92 697.824 1521.9 697.958 1521.92C698.093 1521.94 698.221 1521.99 698.332 1522.07C698.443 1522.15 698.533 1522.26 698.596 1522.38C698.659 1522.51 698.693 1522.64 698.694 1522.78L698.661 1550.81C698.661 1551.4 698.438 1551.88 697.993 1552.24C696.892 1553.14 695.663 1553.81 694.306 1554.23C665.14 1563.29 630.402 1566.12 603.805 1553.01Z" fill="#FD3A1E"/>
<path d="M897.685 1467.26C897.785 1463.99 897.79 1460.8 897.701 1457.68C897.167 1439 882.184 1429.65 864.915 1429.45C847.896 1429.26 829.765 1431.62 810.521 1436.53C809.108 1436.88 808.408 1436.33 808.419 1434.88L808.452 1406.93C808.451 1406.75 808.507 1406.58 808.612 1406.43C808.717 1406.29 808.866 1406.18 809.036 1406.13C832.251 1398.74 855.894 1395.71 879.965 1397.02C912.835 1398.82 938.981 1418.83 939.181 1453.04C939.403 1488.6 939.414 1524.03 939.214 1559.32C939.214 1560.09 938.83 1560.46 938.063 1560.44C926.005 1560.07 914.692 1557.4 904.125 1552.43C903.82 1552.28 903.488 1552.2 903.149 1552.19C902.81 1552.18 902.472 1552.24 902.156 1552.36C881.222 1560.79 860.632 1563.61 840.388 1560.82C817.245 1557.62 799.008 1543.99 796.138 1520.61C792.034 1487.3 812.206 1468.33 843.107 1463.84C861.038 1461.24 878.769 1462.7 896.3 1468.24C897.19 1468.53 897.651 1468.2 897.685 1467.26ZM840.071 1518.34C843.424 1526.27 852.735 1530.16 860.927 1531.36C872.273 1533.02 884.008 1531.74 896.133 1527.52C896.615 1527.35 897.034 1527.04 897.33 1526.63C897.626 1526.21 897.785 1525.71 897.785 1525.2L897.735 1496.1C897.731 1495.79 897.635 1495.49 897.459 1495.24C897.284 1494.98 897.037 1494.78 896.75 1494.67C882.451 1489.15 863.246 1486.98 849.197 1494.29C840.371 1498.89 836.166 1509.1 840.071 1518.34Z" fill="#FD3A1E"/>
<path d="M1013.58 1500.09C1022.7 1521.15 1045.83 1530.41 1067.8 1528.99C1080.26 1528.19 1092.1 1525.85 1103.33 1521.96C1103.46 1521.92 1103.6 1521.9 1103.74 1521.92C1103.88 1521.94 1104.01 1521.99 1104.13 1522.07C1104.24 1522.15 1104.33 1522.26 1104.4 1522.38C1104.46 1522.5 1104.5 1522.64 1104.5 1522.78V1551.14C1104.5 1551.54 1104.38 1551.93 1104.15 1552.26C1103.93 1552.59 1103.61 1552.84 1103.24 1552.98C1090.39 1557.92 1075.56 1560.82 1058.76 1561.69C1040.34 1562.64 1022.05 1559.95 1006.19 1551.18C972.449 1532.49 960.285 1494.09 968.695 1457.68C978.422 1415.57 1014.51 1394.97 1056.19 1396.79C1071.43 1397.44 1086.23 1400.4 1100.59 1405.66C1101.15 1405.86 1101.43 1406.25 1101.43 1406.83L1101.41 1435.64C1101.41 1435.76 1101.38 1435.87 1101.33 1435.97C1101.28 1436.07 1101.21 1436.15 1101.12 1436.22C1101.03 1436.29 1100.92 1436.33 1100.81 1436.34C1100.71 1436.36 1100.59 1436.35 1100.49 1436.31C1074.81 1427.42 1044.56 1424.63 1024.19 1443.32C1008.87 1457.38 1005.54 1481.51 1013.58 1500.09Z" fill="#FD3A1E"/>
<path d="M1321.19 1401.59C1351.04 1412.1 1368.49 1433.53 1373.51 1465.89C1376.23 1483.44 1373.4 1504.66 1364.75 1520.49C1354.43 1539.37 1338.95 1551.78 1318.3 1557.72C1298.95 1563.29 1279.66 1563.35 1260.44 1557.9C1219.04 1546.15 1199.49 1509.02 1204.26 1467.44C1207.91 1435.64 1226.95 1411.5 1256.95 1401.54C1276.77 1394.97 1302.18 1394.9 1321.19 1401.59ZM1284.8 1429.58C1253.23 1431.87 1242.95 1464.75 1247.37 1491.5C1251.28 1515.19 1268.48 1530.79 1293.09 1528.84C1333.4 1525.65 1341.41 1468.69 1319.65 1443.35C1310.89 1433.13 1299.27 1428.54 1284.8 1429.58Z" fill="#FD3A1E"/>
<path d="M1445.39 1438.61C1445.11 1438.76 1444.87 1438.98 1444.71 1439.25C1444.54 1439.53 1444.46 1439.84 1444.46 1440.16V1557.7C1444.46 1558.39 1444.11 1558.73 1443.42 1558.73L1403.68 1558.75C1403.45 1558.75 1403.24 1558.66 1403.08 1558.5C1402.92 1558.33 1402.83 1558.11 1402.83 1557.88V1399C1402.83 1398.45 1403.11 1398.17 1403.68 1398.17C1417.93 1398.08 1430.25 1401.18 1440.65 1407.48C1441.27 1407.85 1441.96 1408.07 1442.68 1408.13C1443.4 1408.18 1444.12 1408.06 1444.79 1407.78C1481.8 1392.23 1546.14 1385.24 1556 1439.9C1557.14 1446.22 1557.7 1453.14 1557.67 1460.65C1557.53 1493.77 1557.52 1526.22 1557.62 1557.98C1557.62 1558.1 1557.59 1558.21 1557.55 1558.31C1557.51 1558.42 1557.44 1558.51 1557.36 1558.59C1557.28 1558.67 1557.19 1558.73 1557.08 1558.77C1556.97 1558.82 1556.86 1558.84 1556.75 1558.83L1516.7 1558.7C1516.56 1558.7 1516.43 1558.64 1516.33 1558.54C1516.23 1558.44 1516.17 1558.31 1516.17 1558.17C1516.06 1529.55 1516.02 1498.26 1516.05 1464.29C1516.05 1459.1 1515.89 1453.91 1514.19 1448.91C1509.31 1434.51 1496.15 1429.37 1481.8 1429.35C1469.44 1429.35 1457.31 1432.44 1445.39 1438.61Z" fill="#FD3A1E"/>
<path d="M1985.34 1397.99C2030.59 1404.93 2056.57 1441.03 2053.43 1486.53C2051.46 1514.86 2037.38 1539.05 2011.87 1552.1C1995.45 1560.49 1976.73 1562.91 1957.91 1561.36C1919.43 1558.17 1890.07 1533.41 1884.03 1494.55C1882.14 1482.42 1882.47 1470.44 1885.01 1458.62C1895.36 1410.75 1940.32 1391.08 1985.34 1397.99ZM1961.31 1528.55C1998.02 1533.26 2014.59 1500.49 2009.85 1468.86C2006.93 1449.41 1994.52 1432.29 1974.46 1429.87C1956.78 1427.73 1943.27 1433.7 1933.93 1447.76C1917.23 1472.93 1924.77 1523.88 1961.31 1528.55Z" fill="#FD3A1E"/>
<path d="M2124.26 1436.49C2124.1 1436.59 2123.96 1436.73 2123.86 1436.9C2123.76 1437.07 2123.71 1437.26 2123.71 1437.46L2123.66 1558.14C2123.66 1558.3 2123.6 1558.46 2123.48 1558.58C2123.36 1558.7 2123.2 1558.77 2123.03 1558.77L2083.02 1558.82C2082.93 1558.82 2082.83 1558.8 2082.75 1558.77C2082.66 1558.73 2082.59 1558.68 2082.52 1558.62C2082.46 1558.56 2082.41 1558.48 2082.37 1558.4C2082.33 1558.31 2082.32 1558.23 2082.32 1558.14L2082.25 1398.97C2082.25 1398.38 2082.54 1398.09 2083.12 1398.1C2095.75 1398.22 2107.69 1401.04 2118.92 1406.58C2119.49 1406.87 2120.07 1406.88 2120.66 1406.61C2146.92 1394.87 2181.38 1390.68 2205.3 1409.18C2205.69 1409.48 2206.17 1409.66 2206.66 1409.68C2207.15 1409.7 2207.64 1409.57 2208.06 1409.3C2217.03 1403.48 2226.98 1399.76 2237.89 1398.12C2272.76 1392.88 2311.09 1400.47 2319.15 1440.5C2320.54 1447.38 2321.24 1455.64 2321.25 1465.27C2321.29 1499.73 2321.19 1530.7 2320.95 1558.19C2320.95 1558.31 2320.9 1558.44 2320.81 1558.53C2320.72 1558.62 2320.59 1558.67 2320.47 1558.67L2280.24 1558.87C2280.09 1558.87 2279.95 1558.82 2279.84 1558.73C2279.72 1558.63 2279.65 1558.5 2279.64 1558.35C2279.36 1555.86 2279.22 1553.47 2279.24 1551.18C2279.5 1514 2279.42 1482.59 2279 1456.95C2278.87 1448.42 2275.7 1441.37 2269.51 1435.81C2258.06 1425.52 2235.5 1428.92 2222.62 1435.68C2222.26 1435.87 2221.96 1436.17 2221.76 1436.53C2221.57 1436.89 2221.48 1437.3 2221.52 1437.71C2221.97 1442.57 2222.19 1447.22 2222.21 1451.66C2222.32 1487.23 2222.34 1522.68 2222.27 1558C2222.27 1558.19 2222.2 1558.37 2222.06 1558.5C2221.93 1558.64 2221.75 1558.72 2221.55 1558.72L2181.41 1558.82C2181.32 1558.82 2181.23 1558.8 2181.14 1558.77C2181.06 1558.73 2180.98 1558.68 2180.92 1558.62C2180.86 1558.55 2180.81 1558.48 2180.77 1558.4C2180.74 1558.31 2180.72 1558.22 2180.73 1558.14C2180.89 1525.01 2180.86 1492.15 2180.63 1459.55C2180.38 1426.33 2146.32 1423.51 2124.26 1436.49Z" fill="#FD3A1E"/>
<path d="M2478.32 1438.54C2477.81 1438.78 2477.55 1439.18 2477.55 1439.75V1558.17C2477.55 1558.31 2477.5 1558.44 2477.4 1558.54C2477.3 1558.64 2477.16 1558.7 2477.02 1558.7L2436.59 1558.8C2436.38 1558.8 2436.18 1558.72 2436.04 1558.57C2435.89 1558.42 2435.81 1558.23 2435.81 1558.02L2435.77 1399.6C2435.77 1398.64 2436.26 1398.15 2437.23 1398.15C2450.96 1398.06 2463.23 1401.17 2474.03 1407.48C2474.59 1407.81 2475.22 1408 2475.87 1408.05C2476.52 1408.09 2477.17 1407.99 2477.77 1407.75C2508.6 1395.35 2561.35 1386.17 2581.77 1420.38C2589.14 1432.72 2590.95 1446.49 2590.9 1461.18C2590.77 1492.72 2590.75 1524.84 2590.83 1557.55C2590.83 1557.87 2590.7 1558.17 2590.48 1558.4C2590.25 1558.62 2589.95 1558.75 2589.63 1558.75L2550.27 1558.82C2550.04 1558.82 2549.82 1558.73 2549.66 1558.57C2549.5 1558.41 2549.4 1558.19 2549.4 1557.97C2549.24 1528.39 2549.23 1497.93 2549.37 1466.59C2549.38 1462.71 2549.17 1458.91 2548.73 1455.19C2545.6 1428.48 2516 1426.13 2495.86 1431.9C2490.18 1433.54 2484.34 1435.75 2478.32 1438.54Z" fill="#FD3A1E"/>
<path d="M2784.05 1561.82C2743.3 1562.52 2707.26 1541 2699.02 1499.14C2691.23 1459.53 2705.44 1420.76 2743.75 1404.03C2770.28 1392.43 2803.4 1395.74 2830.87 1405.43C2831.24 1405.57 2831.56 1405.81 2831.79 1406.14C2832.01 1406.46 2832.13 1406.85 2832.13 1407.25L2832.22 1435.23C2832.22 1436.3 2831.72 1436.65 2830.72 1436.28C2816.12 1430.85 2801.59 1428.67 2787.12 1429.74C2764.76 1431.39 2745.8 1445.55 2741.28 1467.76C2733.72 1504.9 2761.14 1530.89 2797.75 1529.02C2810.21 1528.39 2822.27 1526.05 2833.9 1522C2834.05 1521.95 2834.21 1521.93 2834.36 1521.96C2834.52 1521.98 2834.67 1522.04 2834.79 1522.13C2834.92 1522.22 2835.02 1522.34 2835.1 1522.48C2835.17 1522.62 2835.2 1522.78 2835.2 1522.93L2835.25 1550.83C2835.25 1551.34 2835.1 1551.84 2834.81 1552.26C2834.51 1552.68 2834.1 1553 2833.62 1553.18C2818.7 1558.63 2802.18 1561.51 2784.05 1561.82Z" fill="#FD3A1E"/>
<path d="M2955.05 1467.14C2955.18 1463.35 2955.13 1459.73 2954.88 1456.28C2953.5 1435.99 2936.15 1429.07 2918.28 1429.39C2901.91 1429.66 2884.94 1432.1 2867.35 1436.69C2867.2 1436.73 2867.04 1436.74 2866.89 1436.71C2866.74 1436.68 2866.59 1436.61 2866.47 1436.52C2866.35 1436.42 2866.25 1436.3 2866.18 1436.16C2866.11 1436.02 2866.08 1435.86 2866.08 1435.71L2866.1 1407.68C2866.1 1407.33 2866.21 1406.99 2866.42 1406.7C2866.63 1406.42 2866.92 1406.21 2867.25 1406.1C2888.66 1398.98 2911.32 1395.9 2935.21 1396.87C2964.39 1398.05 2989.92 1412.28 2995.68 1442.78C2996.68 1448.05 2997.12 1459.32 2997.01 1476.57C2996.85 1504.11 2996.82 1531.76 2996.95 1559.54C2996.95 1559.65 2996.92 1559.77 2996.88 1559.88C2996.83 1559.99 2996.77 1560.09 2996.68 1560.17C2996.6 1560.25 2996.5 1560.31 2996.39 1560.36C2996.28 1560.4 2996.16 1560.42 2996.05 1560.42C2984.1 1560.19 2972.59 1557.56 2961.52 1552.53C2961.18 1552.37 2960.81 1552.28 2960.43 1552.28C2960.05 1552.27 2959.68 1552.34 2959.32 1552.48C2939.68 1560.35 2920.08 1563.27 2900.54 1561.24C2868.95 1557.93 2849.83 1537.23 2853.5 1504.81C2855.89 1483.67 2872.42 1470.06 2892.45 1465.42C2912.34 1460.8 2933.53 1461.99 2953.65 1468.14C2954.55 1468.42 2955.02 1468.09 2955.05 1467.14ZM2897.99 1519.51C2907.15 1536.58 2939.48 1533.04 2954.02 1527.24C2954.71 1526.97 2955.05 1526.46 2955.05 1525.72L2955.02 1496.17C2955.01 1495.41 2954.65 1494.9 2953.95 1494.64C2939.92 1489.44 2926.64 1488.36 2914.1 1491.38C2904.25 1493.76 2898.36 1499.14 2896.45 1507.52C2895.48 1511.8 2896 1515.8 2897.99 1519.51Z" fill="#FD3A1E"/>
<path d="M3075.02 1438.63C3074.36 1438.96 3074.03 1439.49 3074.03 1440.23L3074.08 1557.33C3074.08 1557.71 3073.93 1558.07 3073.67 1558.33C3073.4 1558.6 3073.04 1558.75 3072.66 1558.75L3033.87 1558.82C3033 1558.82 3032.57 1558.38 3032.57 1557.52V1399.32C3032.57 1398.45 3033 1398.03 3033.87 1398.05C3048.84 1398.37 3061.29 1401.68 3071.2 1407.96C3071.5 1408.16 3071.85 1408.28 3072.21 1408.31C3072.57 1408.34 3072.93 1408.28 3073.27 1408.15C3093.97 1399.7 3117.06 1394.83 3138.6 1397.32C3173.44 1401.34 3187.41 1425.73 3187.56 1457.78C3187.69 1489.18 3187.73 1519.98 3187.68 1550.19C3187.68 1552.8 3187.55 1555.39 3187.31 1557.95C3187.29 1558.18 3187.19 1558.39 3187.02 1558.54C3186.86 1558.7 3186.64 1558.78 3186.41 1558.78L3147.11 1558.9C3146.82 1558.9 3146.53 1558.78 3146.32 1558.57C3146.11 1558.36 3146 1558.08 3146 1557.78C3146.12 1524.84 3146.09 1492.74 3145.91 1461.5C3145.83 1445.97 3138.3 1433.85 3122.45 1430.6C3106.27 1427.26 3089.68 1431.2 3075.02 1438.63Z" fill="#FD3A1E"/>
<path d="M3314.53 1467.59C3314.63 1465.38 3314.67 1463.08 3314.63 1460.69C3314.23 1431.15 3289.86 1427.83 3266.21 1429.9C3252.9 1431.06 3239.52 1433.35 3226.09 1436.78C3225.98 1436.8 3225.87 1436.8 3225.76 1436.78C3225.66 1436.76 3225.56 1436.71 3225.47 1436.65C3225.39 1436.58 3225.32 1436.5 3225.27 1436.4C3225.22 1436.31 3225.2 1436.2 3225.2 1436.09L3225.34 1407.98C3225.34 1407.49 3225.5 1407.01 3225.79 1406.62C3226.08 1406.22 3226.49 1405.93 3226.95 1405.78C3248.96 1398.78 3271.93 1395.83 3295.88 1396.92C3303.09 1397.24 3310.4 1398.62 3317.8 1401.04C3342.4 1409.08 3355.93 1428.52 3356.06 1455.23C3356.23 1489.46 3356.22 1524.23 3356.03 1559.52C3356.03 1559.74 3355.94 1559.94 3355.79 1560.1C3355.64 1560.25 3355.43 1560.34 3355.21 1560.34C3343.57 1560.29 3332.35 1557.75 3321.58 1552.7C3321.06 1552.45 3320.5 1552.32 3319.93 1552.31C3319.37 1552.29 3318.81 1552.4 3318.29 1552.61C3302.7 1558.95 3286.38 1562.03 3269.3 1561.86C3237.01 1561.52 3211.04 1545.16 3212.45 1509.52C3213.57 1481.56 3234.65 1467.29 3260.51 1463.72C3278.33 1461.26 3295.96 1462.82 3313.4 1468.38C3314.12 1468.61 3314.5 1468.35 3314.53 1467.59ZM3266.26 1494.1C3260.33 1497.01 3256.86 1501.57 3255.85 1507.78C3254.36 1516.99 3258 1523.73 3266.78 1527.99C3280.48 1534.63 3298.9 1532.43 3313.3 1527.47C3313.65 1527.35 3313.96 1527.12 3314.18 1526.81C3314.4 1526.51 3314.52 1526.14 3314.52 1525.77V1496.17C3314.52 1495.88 3314.43 1495.6 3314.27 1495.36C3314.11 1495.12 3313.88 1494.93 3313.62 1494.82C3299.32 1489.1 3280.53 1487.1 3266.26 1494.1Z" fill="#FD3A1E"/>
<path d="M768.324 1399.45H728.079C727.729 1399.45 727.445 1399.74 727.445 1400.09V1558.15C727.445 1558.5 727.729 1558.78 728.079 1558.78H768.324C768.674 1558.78 768.958 1558.5 768.958 1558.15V1400.09C768.958 1399.74 768.674 1399.45 768.324 1399.45Z" fill="#FD3A1E"/>
<path d="M1173.94 1399.45H1134.03C1133.56 1399.45 1133.18 1399.83 1133.18 1400.3V1557.93C1133.18 1558.4 1133.56 1558.78 1134.03 1558.78H1173.94C1174.41 1558.78 1174.79 1558.4 1174.79 1557.93V1400.3C1174.79 1399.83 1174.41 1399.45 1173.94 1399.45Z" fill="#FD3A1E"/>
<path d="M2397.48 1399.45H2357.74C2357.21 1399.45 2356.79 1399.88 2356.79 1400.4V1557.8C2356.79 1558.32 2357.21 1558.75 2357.74 1558.75H2397.48C2398.01 1558.75 2398.44 1558.32 2398.44 1557.8V1400.4C2398.44 1399.88 2398.01 1399.45 2397.48 1399.45Z" fill="#FD3A1E"/>
<path d="M2667.35 1399.45H2627.71C2627.18 1399.45 2626.74 1399.89 2626.74 1400.42V1557.82C2626.74 1558.35 2627.18 1558.78 2627.71 1558.78H2667.35C2667.89 1558.78 2668.32 1558.35 2668.32 1557.82V1400.42C2668.32 1399.89 2667.89 1399.45 2667.35 1399.45Z" fill="#FD3A1E"/>
<path d="M136.818 1729.76V1661.79C136.818 1660.97 137.218 1660.44 138.019 1660.22L177.363 1649.13C178.219 1648.88 178.648 1649.2 178.648 1650.09V1882.25C178.648 1882.86 178.342 1883.17 177.73 1883.17C164.905 1883.13 153.67 1880.66 144.026 1875.76C142.346 1874.91 140.617 1874.87 138.837 1875.64C122.919 1882.55 105.516 1885.45 86.6287 1884.35C26.929 1880.88 2.56853 1822.65 19.0035 1771.23C35.1548 1720.72 92.4685 1707.62 136.15 1730.16C136.219 1730.2 136.297 1730.22 136.376 1730.21C136.455 1730.21 136.532 1730.19 136.599 1730.15C136.667 1730.11 136.722 1730.05 136.761 1729.98C136.799 1729.92 136.819 1729.84 136.818 1729.76ZM57.3461 1797.63C54.8433 1829.88 75.2327 1854.25 108.837 1851.73C117.702 1851.07 126.623 1848.8 135.6 1844.93C136.412 1844.57 136.818 1843.95 136.818 1843.06L136.835 1763.48C136.834 1763.17 136.752 1762.86 136.597 1762.6C136.441 1762.33 136.218 1762.11 135.95 1761.96C121.851 1753.82 106.05 1749.61 90.0492 1754.02C69.4429 1759.69 58.9813 1776.87 57.3461 1797.63Z" fill="#FD3A1E"/>
<path d="M2107.71 1698.28C2121.45 1698.28 2132.59 1687.14 2132.59 1673.4C2132.59 1659.66 2121.45 1648.53 2107.71 1648.53C2093.97 1648.53 2082.84 1659.66 2082.84 1673.4C2082.84 1687.14 2093.97 1698.28 2107.71 1698.28Z" fill="#FD3A1E"/>
<path d="M2857.66 1729.93C2906.06 1712.09 2969.59 1710.82 2969.59 1780.34C2969.57 1813.96 2969.57 1847.25 2969.57 1880.23C2969.57 1880.64 2969.41 1881.04 2969.11 1881.33C2968.82 1881.62 2968.43 1881.78 2968.02 1881.78L2928.97 1881.65C2928.76 1881.65 2928.55 1881.56 2928.4 1881.41C2928.24 1881.26 2928.16 1881.05 2928.16 1880.83C2928.06 1848.78 2928.03 1818.34 2928.09 1789.54C2928.09 1782.1 2927.94 1774.55 2924.44 1767.71C2914.99 1749.28 2888.75 1750.03 2871.44 1755.75C2866.57 1757.36 2861.79 1759.26 2857.09 1761.44C2856.85 1761.56 2856.64 1761.74 2856.5 1761.96C2856.35 1762.19 2856.28 1762.46 2856.28 1762.73L2856.41 1879.8C2856.41 1881.09 2855.76 1881.73 2854.47 1881.71L2815.5 1881.66C2815.32 1881.66 2815.14 1881.59 2815.01 1881.46C2814.89 1881.34 2814.81 1881.16 2814.81 1880.98L2814.8 1661.37C2814.8 1660.8 2815.07 1660.44 2815.61 1660.29L2854.99 1649.06C2855.14 1649.02 2855.3 1649.01 2855.46 1649.04C2855.61 1649.07 2855.76 1649.13 2855.89 1649.23C2856.01 1649.33 2856.12 1649.45 2856.19 1649.6C2856.26 1649.74 2856.29 1649.9 2856.29 1650.06L2856.38 1729.02C2856.38 1729.95 2856.8 1730.25 2857.66 1729.93Z" fill="#FD3A1E"/>
<path d="M509.38 1753.23L604.068 1753.28C604.374 1753.28 604.666 1753.4 604.882 1753.62C605.098 1753.84 605.22 1754.13 605.22 1754.43L604.986 1787.65C604.986 1787.96 604.865 1788.25 604.649 1788.47C604.433 1788.68 604.14 1788.8 603.835 1788.8H509.38C509.074 1788.8 508.781 1788.92 508.566 1789.14C508.35 1789.36 508.228 1789.65 508.228 1789.95L508.178 1844.94C508.178 1845.25 508.3 1845.54 508.515 1845.76C508.731 1845.97 509.024 1846.1 509.33 1846.1L615.715 1846.13C615.866 1846.13 616.015 1846.16 616.155 1846.22C616.295 1846.27 616.422 1846.36 616.529 1846.47C616.636 1846.57 616.72 1846.7 616.778 1846.84C616.836 1846.98 616.866 1847.13 616.866 1847.28L616.782 1880.55C616.782 1880.85 616.661 1881.15 616.445 1881.36C616.229 1881.58 615.936 1881.7 615.631 1881.7L466.565 1881.63C466.26 1881.63 465.967 1881.51 465.751 1881.29C465.535 1881.08 465.414 1880.79 465.414 1880.48V1664.66C465.414 1664.35 465.535 1664.06 465.751 1663.84C465.967 1663.63 466.26 1663.51 466.565 1663.51L613.195 1663.52C613.5 1663.52 613.793 1663.65 614.009 1663.86C614.225 1664.08 614.346 1664.37 614.346 1664.68L614.146 1698.08C614.146 1698.38 614.025 1698.67 613.809 1698.89C613.593 1699.11 613.3 1699.23 612.995 1699.23L509.413 1699.28C509.108 1699.28 508.815 1699.4 508.599 1699.62C508.383 1699.83 508.262 1700.12 508.262 1700.43L508.228 1752.08C508.228 1752.39 508.35 1752.68 508.566 1752.9C508.781 1753.11 509.074 1753.23 509.38 1753.23Z" fill="#FD3A1E"/>
<path d="M1966.8 1795.26C1966.49 1799.52 1966.35 1803.71 1966.39 1807.83C1966.56 1832.26 1966.59 1856.56 1966.45 1880.73C1966.45 1880.99 1966.34 1881.24 1966.16 1881.42C1965.98 1881.6 1965.74 1881.7 1965.49 1881.7L1924.71 1881.65C1924.37 1881.65 1924.05 1881.52 1923.81 1881.28C1923.57 1881.05 1923.44 1880.73 1923.44 1880.4L1923.42 1664.28C1923.42 1663.78 1923.67 1663.53 1924.16 1663.53H2060.82C2061.8 1663.53 2062.29 1664.02 2062.29 1665L2062.28 1698.2C2062.28 1698.87 2061.94 1699.21 2061.26 1699.21L1967.55 1699.31C1966.85 1699.31 1966.5 1699.66 1966.5 1700.35L1966.47 1757.47C1966.47 1757.71 1966.52 1757.94 1966.61 1758.16C1966.7 1758.38 1966.83 1758.58 1967 1758.75C1967.16 1758.92 1967.36 1759.05 1967.58 1759.14C1967.8 1759.23 1968.04 1759.28 1968.27 1759.28H2046.94C2047.31 1759.28 2047.65 1759.42 2047.91 1759.68C2048.17 1759.93 2048.31 1760.28 2048.31 1760.64V1793.51C2048.31 1793.79 2048.2 1794.05 2048.01 1794.24C2047.81 1794.44 2047.55 1794.55 2047.28 1794.55L1967.65 1794.48C1967.13 1794.48 1966.85 1794.74 1966.8 1795.26Z" fill="#FD3A1E"/>
<path d="M2314.88 1698.53L2314.93 1664.28C2314.93 1664.07 2315.01 1663.88 2315.15 1663.73C2315.29 1663.59 2315.49 1663.51 2315.69 1663.51L2489.77 1663.54C2489.97 1663.54 2490.17 1663.62 2490.31 1663.77C2490.46 1663.91 2490.54 1664.11 2490.54 1664.31L2490.42 1698.48C2490.42 1698.68 2490.34 1698.88 2490.2 1699.02C2490.05 1699.16 2489.86 1699.24 2489.65 1699.24L2425.11 1699.26C2424.91 1699.26 2424.72 1699.34 2424.57 1699.49C2424.43 1699.63 2424.35 1699.83 2424.35 1700.03L2424.36 1880.91C2424.36 1881.12 2424.28 1881.31 2424.14 1881.46C2423.99 1881.6 2423.8 1881.68 2423.6 1881.68L2382.08 1881.73C2381.88 1881.73 2381.68 1881.65 2381.54 1881.51C2381.4 1881.36 2381.32 1881.17 2381.32 1880.96V1700C2381.32 1699.79 2381.23 1699.6 2381.09 1699.45C2380.95 1699.31 2380.75 1699.23 2380.55 1699.23L2315.64 1699.29C2315.44 1699.29 2315.24 1699.21 2315.1 1699.07C2314.96 1698.93 2314.88 1698.73 2314.88 1698.53Z" fill="#FD3A1E"/>
<path d="M250.776 1818.13C253.763 1843.48 270.515 1851.95 294.125 1851.88C312.267 1851.84 330.487 1849.03 348.785 1843.46C348.919 1843.42 349.061 1843.41 349.2 1843.43C349.338 1843.45 349.47 1843.51 349.583 1843.59C349.696 1843.67 349.789 1843.78 349.853 1843.91C349.918 1844.03 349.952 1844.17 349.953 1844.31L349.987 1872.36C349.987 1872.87 349.828 1873.36 349.532 1873.78C349.236 1874.19 348.817 1874.51 348.335 1874.67C329.558 1880.97 309.731 1884.31 288.852 1884.68C255.181 1885.3 225.081 1871.34 213.151 1838.3C205.192 1816.28 205.659 1787.89 213.718 1767.11C226.566 1734.03 256.032 1717.28 291.004 1719.7C343.329 1723.3 367.056 1768.23 359.998 1816.08C359.92 1816.61 359.609 1816.88 359.063 1816.88L251.861 1816.9C251.038 1816.9 250.676 1817.31 250.776 1818.13ZM251.16 1790.09H317.768C317.825 1790.09 317.881 1790.08 317.934 1790.05C317.986 1790.03 318.034 1790 318.074 1789.96C318.115 1789.92 318.147 1789.87 318.168 1789.82C318.19 1789.77 318.201 1789.71 318.201 1789.65V1789.25C318.201 1779.08 314.65 1769.32 308.33 1762.12C302.009 1754.92 293.436 1750.88 284.497 1750.88H284.43C275.492 1750.88 266.919 1754.92 260.598 1762.12C254.277 1769.32 250.726 1779.08 250.726 1789.25V1789.65C250.726 1789.77 250.772 1789.88 250.853 1789.96C250.935 1790.04 251.045 1790.09 251.16 1790.09Z" fill="#FD3A1E"/>
<path d="M772.478 1732.35C789.797 1719.85 816.01 1717.72 836.816 1720.64C855.087 1723.19 872.256 1733.03 879.614 1750.72C883.407 1759.83 885.337 1768.52 885.404 1776.79C885.66 1812.94 885.687 1847.29 885.487 1879.85C885.476 1881.08 884.853 1881.7 883.618 1881.7L845.342 1881.73C844.988 1881.73 844.649 1881.59 844.399 1881.34C844.148 1881.09 844.008 1880.75 844.008 1880.4C844.008 1848.97 844.002 1817.19 843.991 1785.07C843.991 1780.85 843.474 1776.7 842.439 1772.62C835.932 1746.95 805.615 1749.47 787.128 1758.44C786.743 1758.63 786.425 1758.93 786.218 1759.3C786.012 1759.67 785.927 1760.1 785.976 1760.53C786.421 1764.35 786.661 1767.78 786.694 1770.82C787.005 1802.5 787.022 1838.95 786.744 1880.18C786.744 1881.17 786.249 1881.67 785.259 1881.67L746.382 1881.75C746.257 1881.75 746.134 1881.73 746.018 1881.68C745.903 1881.63 745.798 1881.56 745.71 1881.47C745.622 1881.38 745.552 1881.28 745.504 1881.16C745.456 1881.05 745.431 1880.92 745.431 1880.8C745.342 1849.68 745.353 1818.98 745.465 1788.71C745.498 1777.18 743.863 1764.1 733.618 1757.31C720.854 1748.83 703.234 1751.85 689.836 1758.59C688.624 1759.19 688.017 1760.19 688.017 1761.59C688.118 1801.26 688.134 1840.81 688.068 1880.27C688.068 1880.63 687.924 1880.97 687.668 1881.23C687.412 1881.48 687.064 1881.63 686.699 1881.63L647.756 1881.82C647.6 1881.82 647.446 1881.79 647.303 1881.73C647.159 1881.67 647.028 1881.58 646.918 1881.47C646.808 1881.36 646.721 1881.23 646.662 1881.09C646.602 1880.94 646.571 1880.79 646.571 1880.63L646.555 1721.42C646.555 1721.35 646.568 1721.29 646.593 1721.23C646.618 1721.17 646.656 1721.12 646.702 1721.07C646.749 1721.03 646.804 1720.99 646.865 1720.97C646.926 1720.94 646.99 1720.93 647.055 1720.94C660.337 1721.09 671.866 1724.02 683.362 1729.36C683.666 1729.5 683.996 1729.58 684.33 1729.58C684.664 1729.58 684.994 1729.51 685.298 1729.38C711.644 1717.62 747.434 1713.75 770.226 1732.28C770.96 1732.88 771.711 1732.9 772.478 1732.35Z" fill="#FD3A1E"/>
<path d="M1156.45 1765.33C1156.32 1765.37 1156.2 1765.45 1156.11 1765.56C1156.03 1765.67 1155.98 1765.81 1155.98 1765.95L1155.95 1880.71C1155.95 1880.97 1155.85 1881.21 1155.67 1881.39C1155.5 1881.57 1155.25 1881.68 1155 1881.68L1116.32 1881.78C1115.08 1881.78 1114.46 1881.16 1114.46 1879.93L1114.42 1721.85C1114.42 1721.29 1114.7 1721.02 1115.26 1721.02C1127.85 1720.79 1139.62 1723.54 1150.56 1729.26C1151.08 1729.53 1151.66 1729.69 1152.25 1729.72C1152.84 1729.74 1153.43 1729.64 1153.98 1729.41C1169.84 1722.82 1187.23 1719.53 1206.12 1719.53C1207.01 1719.53 1207.46 1719.97 1207.46 1720.85L1207.53 1757.65C1207.53 1758.33 1207.19 1758.67 1206.51 1758.67C1189.02 1758.57 1172.34 1760.79 1156.45 1765.33Z" fill="#FD3A1E"/>
<path d="M1452.48 1822.89C1425.52 1814.65 1390.51 1814.83 1388.24 1776.94C1385.73 1734.86 1416.84 1717.93 1454.42 1719.63C1469.86 1720.33 1484.42 1723.31 1498.1 1728.56C1498.43 1728.69 1498.71 1728.91 1498.91 1729.2C1499.11 1729.49 1499.22 1729.84 1499.22 1730.19L1499.15 1757.62C1499.15 1757.76 1499.12 1757.9 1499.05 1758.02C1498.99 1758.15 1498.9 1758.25 1498.78 1758.33C1498.67 1758.42 1498.54 1758.47 1498.4 1758.48C1498.27 1758.5 1498.13 1758.49 1498 1758.44C1483.53 1753.33 1443.84 1744.31 1432.91 1758.37C1428.96 1763.46 1430.11 1770.65 1435.1 1774.27C1438.12 1776.47 1441.62 1778.09 1445.59 1779.13C1460.94 1783.11 1477.19 1785.63 1490.51 1794.49C1503.47 1803.12 1508.6 1816.68 1508.86 1831.88C1509.46 1866.08 1484.8 1884 1452.03 1884.57C1431.41 1884.92 1412.61 1881.4 1395.64 1874.01C1395.15 1873.79 1394.73 1873.44 1394.43 1873C1394.14 1872.55 1393.98 1872.03 1393.98 1871.5L1393.93 1844.78C1393.94 1844.62 1393.98 1844.46 1394.05 1844.33C1394.13 1844.19 1394.24 1844.07 1394.37 1843.98C1394.5 1843.89 1394.65 1843.84 1394.81 1843.82C1394.96 1843.81 1395.12 1843.83 1395.27 1843.89C1406.05 1848.5 1418.06 1851.45 1431.31 1852.75C1442.42 1853.85 1467.43 1854.35 1466.05 1837.2C1465.46 1829.76 1459.19 1824.94 1452.48 1822.89Z" fill="#FD3A1E"/>
<path d="M2518.4 1818.08C2520.97 1844.34 2539.81 1852.17 2563 1851.97C2579.33 1851.82 2597.02 1849.05 2616.07 1843.64C2616.24 1843.6 2616.42 1843.59 2616.59 1843.62C2616.76 1843.65 2616.92 1843.73 2617.05 1843.83C2617.19 1843.94 2617.3 1844.07 2617.38 1844.23C2617.45 1844.38 2617.49 1844.55 2617.49 1844.73L2617.58 1872.07C2617.58 1872.66 2617.4 1873.23 2617.06 1873.71C2616.71 1874.18 2616.23 1874.54 2615.67 1874.72C2596.86 1881.01 2577.22 1884.31 2556.74 1884.63C2515.08 1885.3 2483.64 1865.08 2476.59 1821.57C2468.83 1773.75 2490.63 1724.95 2543.96 1719.87C2601.76 1714.36 2636.01 1760.94 2627.6 1815.3C2627.53 1815.74 2627.31 1816.14 2626.97 1816.43C2626.63 1816.72 2626.2 1816.88 2625.75 1816.88L2519.47 1816.9C2518.69 1816.9 2518.33 1817.29 2518.4 1818.08ZM2518.73 1790.1L2585.34 1790C2585.4 1790 2585.46 1789.99 2585.51 1789.97C2585.56 1789.95 2585.61 1789.91 2585.65 1789.87C2585.69 1789.83 2585.72 1789.78 2585.75 1789.72C2585.77 1789.67 2585.78 1789.61 2585.77 1789.55V1789.14C2585.75 1778.98 2582.19 1769.25 2575.86 1762.08C2569.53 1754.92 2560.95 1750.9 2552.02 1750.91H2551.92C2547.49 1750.92 2543.11 1751.92 2539.03 1753.85C2534.95 1755.78 2531.24 1758.61 2528.12 1762.17C2524.99 1765.73 2522.52 1769.96 2520.83 1774.61C2519.15 1779.26 2518.29 1784.24 2518.3 1789.27V1789.69C2518.3 1789.8 2518.35 1789.91 2518.43 1789.98C2518.51 1790.06 2518.62 1790.1 2518.73 1790.1Z" fill="#FD3A1E"/>
<path d="M962.885 1874.38L963.002 1945.38C963.002 1945.69 962.88 1945.98 962.664 1946.2C962.449 1946.41 962.156 1946.53 961.85 1946.53L921.773 1946.57C921.613 1946.57 921.46 1946.51 921.348 1946.4C921.235 1946.29 921.172 1946.14 921.172 1945.98V1721.74C921.172 1721.19 921.444 1720.92 921.989 1720.92C929.831 1720.94 937.534 1722 945.098 1724.09C949.453 1725.31 953.441 1727.48 957.629 1729.08C958.186 1729.28 958.796 1729.26 959.331 1729.03C968.753 1724.82 979.209 1721.98 990.699 1720.5C1037.35 1714.5 1077.01 1737.14 1084.45 1785.95C1091.43 1831.68 1069.4 1875.54 1021.25 1883.4C1000.79 1886.74 981.595 1883.58 963.652 1873.91C963.573 1873.87 963.483 1873.84 963.391 1873.84C963.3 1873.85 963.211 1873.87 963.133 1873.92C963.055 1873.97 962.991 1874.04 962.947 1874.12C962.904 1874.2 962.882 1874.29 962.885 1874.38ZM1042.32 1796.76C1040.39 1768.33 1019.05 1749.83 990.733 1752.43C982.234 1753.21 973.369 1755.45 964.136 1759.14C963.771 1759.29 963.458 1759.54 963.238 1759.87C963.018 1760.2 962.901 1760.59 962.902 1760.99L962.968 1839.86C962.968 1840.38 963.105 1840.9 963.365 1841.35C963.626 1841.81 964.001 1842.19 964.453 1842.46C1003.68 1865.85 1045.58 1844.4 1042.32 1796.76Z" fill="#FD3A1E"/>
<path d="M1257.77 1818.1C1260.75 1845.74 1280.58 1852.55 1304.55 1851.88C1321.58 1851.42 1338.6 1848.61 1355.61 1843.48C1355.76 1843.43 1355.92 1843.42 1356.08 1843.45C1356.23 1843.48 1356.38 1843.55 1356.51 1843.64C1356.63 1843.74 1356.74 1843.86 1356.81 1844C1356.88 1844.14 1356.91 1844.3 1356.91 1844.46V1871.92C1356.91 1872.56 1356.71 1873.18 1356.34 1873.7C1355.96 1874.22 1355.43 1874.61 1354.83 1874.81C1336.85 1880.82 1317.46 1884.11 1296.66 1884.65C1279.04 1885.1 1260.84 1881.73 1246.4 1872.07C1217.44 1852.73 1210.62 1816.31 1216.15 1783.56C1223.66 1739.15 1260.39 1714.21 1304.57 1720.43C1352.32 1727.17 1374.8 1771.8 1366.57 1816.45C1366.52 1816.75 1366.34 1816.9 1366.04 1816.9H1258.84C1258.03 1816.9 1257.68 1817.3 1257.77 1818.1ZM1258.05 1790.1H1324.83C1324.93 1790.1 1325.03 1790.06 1325.11 1789.99C1325.18 1789.91 1325.23 1789.81 1325.23 1789.7V1789.3C1325.23 1779.12 1321.67 1769.35 1315.34 1762.15C1309.01 1754.94 1300.42 1750.9 1291.47 1750.9H1291.4C1282.45 1750.9 1273.87 1754.94 1267.54 1762.15C1261.21 1769.35 1257.65 1779.12 1257.65 1789.3V1789.7C1257.65 1789.76 1257.66 1789.81 1257.68 1789.86C1257.7 1789.91 1257.73 1789.95 1257.77 1789.99C1257.81 1790.02 1257.85 1790.05 1257.9 1790.07C1257.95 1790.09 1258 1790.1 1258.05 1790.1Z" fill="#FD3A1E"/>
<path d="M1628.5 1789.94C1630.4 1765.18 1617.84 1752.07 1593.23 1752.23C1576.28 1752.35 1558.53 1754.85 1539.97 1759.74C1539.88 1759.77 1539.79 1759.77 1539.71 1759.75C1539.62 1759.74 1539.54 1759.7 1539.47 1759.65C1539.4 1759.59 1539.34 1759.52 1539.31 1759.44C1539.27 1759.37 1539.25 1759.28 1539.25 1759.19L1539.33 1730.26C1539.33 1729.95 1539.43 1729.64 1539.62 1729.38C1539.8 1729.13 1540.07 1728.94 1540.37 1728.84C1567.23 1720.61 1592.65 1717.84 1616.62 1720.52C1640.49 1723.19 1660.72 1736.08 1667.81 1759.89C1669.55 1765.77 1670.38 1775.96 1670.28 1790.49C1670.08 1820.38 1670.05 1850.94 1670.19 1882.19C1670.19 1882.86 1669.86 1883.2 1669.19 1883.19C1657.64 1883.12 1646.56 1880.61 1635.97 1875.66C1635.44 1875.41 1634.87 1875.27 1634.29 1875.25C1633.7 1875.23 1633.12 1875.32 1632.57 1875.53C1611.06 1883.75 1590.21 1886.42 1570.03 1883.54C1540.82 1879.38 1523.7 1858.36 1526.77 1828.83C1530.82 1789.69 1575.52 1781.82 1606.64 1786.57C1613.29 1787.58 1620.13 1789.02 1627.16 1790.87C1627.99 1791.09 1628.43 1790.77 1628.5 1789.94ZM1584.68 1852.39C1597.21 1856.34 1611.43 1855.63 1627.36 1850.27C1628.15 1850 1628.55 1849.45 1628.55 1848.62L1628.53 1818.89C1628.53 1818.17 1628.2 1817.7 1627.53 1817.45C1613.65 1812.35 1600.38 1811.27 1587.72 1814.22C1575.64 1817.02 1566.93 1826.44 1570.2 1838.91C1571.9 1845.39 1576.73 1849.89 1584.68 1852.39Z" fill="#FD3A1E"/>
<path d="M1725.57 1812.93C1708.28 1807.01 1699.17 1795.19 1698.24 1777.46C1696.67 1747.45 1710.07 1728.84 1738.44 1721.63C1745.15 1719.93 1753.11 1719.25 1762.31 1719.6C1779.44 1720.24 1794.61 1723.24 1807.81 1728.59C1808.19 1728.74 1808.51 1729.01 1808.73 1729.34C1808.96 1729.68 1809.08 1730.08 1809.08 1730.49V1757.62C1809.08 1757.75 1809.05 1757.88 1808.99 1757.99C1808.93 1758.11 1808.84 1758.21 1808.74 1758.28C1808.63 1758.36 1808.51 1758.41 1808.38 1758.43C1808.25 1758.44 1808.12 1758.43 1808 1758.39C1794.06 1753.58 1780.29 1751.12 1766.68 1751C1757.31 1750.9 1738.67 1752.93 1740.72 1767.1C1741.89 1775.16 1752.2 1778.44 1759.09 1780.08C1782.57 1785.67 1810.72 1790.77 1817.11 1818.48C1825.48 1854.87 1804.43 1881.38 1767.9 1884.17C1747.09 1885.76 1726.73 1882.58 1706.82 1874.64C1705.1 1873.95 1704.23 1872.77 1704.2 1871.09C1703.97 1862.88 1703.91 1854.16 1704 1844.93C1704 1844.77 1704.03 1844.62 1704.11 1844.48C1704.18 1844.35 1704.29 1844.23 1704.41 1844.14C1704.54 1844.05 1704.69 1844 1704.84 1843.98C1705 1843.97 1705.15 1843.99 1705.3 1844.04C1718.95 1849.52 1733.07 1852.55 1747.66 1853.14C1757.31 1853.54 1771.27 1852.92 1775.23 1842.73C1780.58 1828.94 1764.1 1822.4 1754.12 1820.4C1743.27 1818.22 1733.76 1815.73 1725.57 1812.93Z" fill="#FD3A1E"/>
<path d="M2208.49 1761.61C2207.93 1761.9 2207.65 1762.36 2207.65 1762.98V1880.23C2207.65 1881.18 2207.18 1881.66 2206.24 1881.67L2167.21 1881.73C2166.93 1881.73 2166.66 1881.62 2166.47 1881.43C2166.27 1881.23 2166.16 1880.96 2166.16 1880.68L2166.14 1721.82C2166.14 1721.61 2166.23 1721.4 2166.38 1721.25C2166.53 1721.1 2166.74 1721.02 2166.96 1721.02C2181.01 1720.85 2193.52 1724.04 2204.5 1730.6C2204.92 1730.85 2205.39 1731 2205.88 1731.03C2206.37 1731.07 2206.86 1730.99 2207.32 1730.8C2239.39 1717.42 2296.19 1708.32 2314.67 1748.36C2318.79 1757.28 2320.85 1767.7 2320.86 1779.6C2320.88 1812.3 2320.88 1846.03 2320.85 1880.8C2320.85 1881.04 2320.75 1881.27 2320.58 1881.44C2320.41 1881.61 2320.18 1881.7 2319.95 1881.7L2281 1881.78C2280.58 1881.79 2280.17 1881.62 2279.86 1881.32C2279.56 1881.02 2279.39 1880.61 2279.38 1880.18C2279.16 1850.81 2279.17 1819.63 2279.4 1786.65C2279.68 1743.58 2234.72 1748.03 2208.49 1761.61Z" fill="#FD3A1E"/>
<path d="M2748.01 1752.28C2716.31 1750.7 2690.23 1770.27 2690.99 1803.02C2691.93 1842.24 2726.53 1856.07 2760.52 1850.75C2768.75 1849.47 2776.91 1847.46 2784.98 1844.73C2785.11 1844.68 2785.25 1844.67 2785.38 1844.69C2785.51 1844.72 2785.64 1844.77 2785.75 1844.85C2785.86 1844.93 2785.95 1845.03 2786.01 1845.15C2786.07 1845.27 2786.1 1845.41 2786.1 1845.54L2786.02 1874.09C2786.02 1874.34 2785.95 1874.59 2785.83 1874.81C2785.71 1875.02 2785.54 1875.21 2785.33 1875.34C2784.16 1876.12 2782.89 1876.72 2781.51 1877.14C2762.61 1883.11 2743.71 1885.52 2724.8 1884.38C2683.8 1881.93 2653.13 1854.7 2648.5 1813.98C2644.83 1781.81 2655.8 1749.11 2684.5 1731.98C2713.69 1714.56 2750.06 1717.33 2782.1 1728.37C2782.37 1728.46 2782.6 1728.64 2782.77 1728.88C2782.94 1729.11 2783.03 1729.4 2783.03 1729.69L2783.05 1758.57C2783.05 1758.69 2783.02 1758.81 2782.96 1758.92C2782.9 1759.03 2782.82 1759.12 2782.72 1759.19C2782.62 1759.26 2782.51 1759.3 2782.38 1759.32C2782.26 1759.33 2782.14 1759.32 2782.03 1759.27C2771.31 1755.2 2759.96 1752.87 2748.01 1752.28Z" fill="#FD3A1E"/>
<path d="M2127.32 1722.4H2087.94C2087.36 1722.4 2086.89 1722.87 2086.89 1723.45V1880.68C2086.89 1881.26 2087.36 1881.73 2087.94 1881.73H2127.32C2127.9 1881.73 2128.37 1881.26 2128.37 1880.68V1723.45C2128.37 1722.87 2127.9 1722.4 2127.32 1722.4Z" fill="#FD3A1E"/>
</g>
<defs>
<clipPath id="clip0_1778_2038">
<rect width="4495" height="1947" fill="white"/>
</clipPath>
</defs>
</svg>
