<svg width="4255" height="1613" viewBox="0 0 4255 1613" fill="none" xmlns="http://www.w3.org/2000/svg">
<path d="M3620.84 267.589L3625.66 406.56C3549.95 385.735 3473.65 385.675 3396.78 406.379L3400.03 273.247C3400.07 271.24 3399.21 269.736 3397.44 268.733L3395.88 267.83C3397.96 266.024 3399.1 262.513 3399.31 257.297C3400.43 227.766 3401.61 198.154 3402.86 168.462C3404.6 125.85 3432.77 118.868 3470.98 118.748C3503.32 118.667 3534.94 118.868 3565.83 119.35C3591.47 119.711 3614.58 131.688 3617.95 158.651C3619.16 168.161 3619.94 176.948 3620.3 185.013C3621.58 213.221 3621.77 240.746 3620.84 267.589Z" fill="#0DB02D"/>
<path d="M2352.83 673.187C2353.33 673.187 2353.8 672.985 2354.15 672.623C2354.5 672.262 2354.7 671.772 2354.7 671.261L2355.66 271.863C2355.66 270.267 2355.03 268.736 2353.92 267.608C2352.8 266.479 2351.28 265.845 2349.7 265.845L2295.96 265.965C2294.44 265.965 2292.99 265.363 2291.92 264.29C2290.84 263.218 2290.24 261.764 2290.24 260.247L2289.82 143.967C2289.82 142.977 2290.21 142.028 2290.89 141.328C2291.58 140.629 2292.52 140.235 2293.49 140.235L2476.33 139.754C2477.65 139.754 2478.92 140.28 2479.86 141.217C2480.8 142.154 2481.32 143.425 2481.32 144.749C2481.24 437.417 2481.28 729.261 2481.45 1020.28C2481.45 1049.59 2484.39 1079.45 2486.8 1108.52C2494.2 1198.5 2549.75 1282.88 2621.85 1335.6C2622.11 1335.79 2622.33 1336.04 2622.48 1336.32C2622.63 1336.6 2622.73 1336.91 2622.75 1337.23C2622.77 1337.55 2622.72 1337.87 2622.61 1338.17C2622.5 1338.47 2622.32 1338.75 2622.09 1338.97L2532.3 1429.25C2531.38 1430.17 2530.15 1430.71 2528.85 1430.77C2527.56 1430.82 2526.3 1430.39 2525.32 1429.55C2495.89 1404.51 2469.23 1377.43 2447.44 1345.17C2433.44 1324.43 2419.56 1302.88 2405.79 1280.53C2405.55 1280.14 2405.21 1279.82 2404.81 1279.6C2404.4 1279.37 2403.95 1279.25 2403.49 1279.25C2403.03 1279.24 2402.58 1279.35 2402.17 1279.56C2401.76 1279.78 2401.42 1280.09 2401.16 1280.47C2362.12 1339.65 2314.54 1382.57 2258.4 1409.21C2203.48 1435.29 2147.22 1445.76 2089.65 1440.63C2071.83 1439.02 2051.55 1434.87 2028.8 1428.17C1957.36 1407.04 1897.6 1364.49 1854.33 1304.18C1834.89 1277.04 1815.33 1243.15 1802.45 1209.27C1794.15 1187.36 1784.4 1166.42 1778.86 1143.43C1775.49 1129.38 1772.26 1115.6 1769.17 1102.08C1766.36 1089.76 1764.27 1076.92 1762.91 1063.56C1756.73 1004.82 1757.93 951.49 1766.52 903.582C1774.95 856.516 1786.2 816.111 1800.28 782.366C1815.81 745.291 1834.05 713.212 1854.99 686.128C1868.19 669.035 1885.62 650.738 1907.29 631.237C1971.87 573.097 2040.48 552.634 2125.16 552.333C2157.01 552.212 2188.25 558.592 2218.86 571.472C2271.3 593.46 2313.69 626.182 2346.03 669.636C2347.07 671.001 2348.4 672.004 2350 672.646C2350.93 673.007 2351.87 673.187 2352.83 673.187ZM1929.68 814.987C1918.12 839.423 1910.32 860.167 1906.27 877.22C1902.74 891.825 1898.3 918.909 1892.97 958.472C1889.12 986.8 1890.28 1020.54 1896.46 1059.71C1900.39 1084.74 1905.26 1107.55 1911.08 1128.14C1917.62 1151.13 1928.5 1176.03 1943.7 1202.83C1988.72 1282.07 2055.92 1318.15 2145.32 1311.04C2189.25 1307.49 2226.57 1284.56 2259.67 1257.42C2272.07 1247.25 2280.13 1232.86 2290.42 1220.52C2297.48 1212.06 2303.9 1202.05 2309.68 1190.49C2329.22 1151.29 2342.8 1109.98 2350.42 1066.57C2356.44 1032.26 2357.11 984.292 2353.92 952.273C2348.14 895.015 2331.47 841.068 2303.9 790.431C2285.13 755.964 2259.07 728.318 2225.72 707.494C2201.73 692.487 2175.49 683.74 2147 681.252C2116.27 678.564 2088.83 680.791 2064.67 687.933C2041.4 694.794 2016.48 708.898 1989.92 730.244C1962.48 752.273 1944.12 784.472 1929.68 814.987Z" fill="#959490"/>
<path d="M3920.2 437.856L3799.17 504.061C3750.46 457.517 3692.62 425.016 3625.66 406.559L3620.84 267.588L3685.3 284.741C3687.31 285.263 3688.83 284.621 3689.87 282.815C3707.01 251.96 3724.7 223.05 3742.96 196.087C3758.64 172.895 3780.19 168.922 3807.59 184.17C3842.82 203.75 3877.39 224.073 3911.29 245.139C3935.53 260.185 3940.64 281.271 3926.64 308.395C3912.11 336.482 3897.43 364.589 3882.58 392.716C3881.89 394.048 3881.63 395.565 3881.84 397.046C3882.06 398.528 3882.74 399.899 3883.79 400.962L3920.2 437.856Z" fill="#01679E"/>
<path d="M3395.87 267.831L3397.44 268.733C3399.2 269.737 3400.07 271.241 3400.03 273.247L3396.78 406.38C3327.57 424.877 3265.6 460.909 3210.87 514.475C3211.91 507.132 3209.42 502.398 3203.41 500.271C3195.5 497.503 3191.23 495.918 3190.59 495.516C3159.37 477.34 3127.31 460.408 3094.41 444.719L3130.28 408.848C3131.77 407.403 3132.21 405.678 3131.61 403.672C3128.16 392.637 3123.62 382.346 3118.01 372.796C3106.89 353.897 3095.84 334.317 3084.84 314.054C3067.69 282.456 3085.93 260.307 3112.83 244.117C3151.11 221.086 3184.35 201.605 3212.55 185.676C3234.34 173.338 3256.19 181.643 3269.43 201.385C3290.37 232.601 3308.41 260.448 3323.53 284.924C3324.21 285.997 3325.21 286.82 3326.4 287.266C3327.58 287.712 3328.88 287.756 3330.09 287.391L3395.87 267.831Z" fill="#01679E"/>
<path d="M1037.45 407.823C1084.92 407.823 1123.39 369.343 1123.39 321.876C1123.39 274.409 1084.92 235.93 1037.45 235.93C989.986 235.93 951.508 274.409 951.508 321.876C951.508 369.343 989.986 407.823 1037.45 407.823Z" fill="#959490"/>
<path d="M4035.99 633.642H4033.52C4032.46 633.683 4031.42 634.016 4030.51 634.605L3919.83 704.362C3904.27 651.518 3881.64 604.532 3851.95 563.405C3837.74 543.724 3817.52 524.584 3799.16 504.061L3920.19 437.856C3966.17 411.173 3995.5 394.581 4008.18 388.081C4037.07 373.195 4060.86 381.26 4079.56 412.276C4096.89 440.965 4113.68 469.413 4129.93 497.621C4144.56 523.08 4151.54 551.909 4122.77 572.132C4096.37 590.669 4069.37 608.204 4041.77 624.735C4039.44 626.139 4037.51 629.108 4035.99 633.642Z" fill="#0DB02D"/>
<path d="M3094.41 444.717C3127.31 460.405 3159.37 477.338 3190.59 495.514C3191.23 495.916 3195.5 497.5 3203.41 500.269C3209.43 502.396 3211.91 507.13 3210.87 514.473C3156.78 570.567 3119.87 636.852 3100.13 713.329L2981.45 639.782C2977.96 636.612 2974.39 633.903 2970.74 631.656C2945.5 616.048 2919.7 599.597 2893.34 582.303C2873.6 569.363 2866.8 548.539 2877.87 527.233C2901.87 481.37 2923.33 443.473 2942.27 413.54C2957.92 388.743 2979 382.865 3005.52 395.906C3036.06 410.912 3065.69 427.182 3094.41 444.717Z" fill="#0DB02D"/>
<path d="M3793.21 813.905C3793.21 888.817 3763.45 960.66 3710.48 1013.63C3657.51 1066.6 3585.67 1096.36 3510.76 1096.36C3435.86 1096.36 3364.01 1066.6 3311.05 1013.63C3258.08 960.66 3228.32 888.817 3228.32 813.905C3228.32 738.993 3258.08 667.149 3311.05 614.179C3364.01 561.208 3435.86 531.449 3510.76 531.449C3585.67 531.449 3657.51 561.208 3710.48 614.179C3763.45 667.149 3793.21 738.993 3793.21 813.905ZM3635.77 813.905C3635.77 780.815 3622.62 749.08 3599.22 725.681C3575.83 702.283 3544.09 689.138 3511 689.138C3477.92 689.138 3446.18 702.283 3422.78 725.681C3399.39 749.08 3386.24 780.815 3386.24 813.905C3386.24 846.995 3399.39 878.73 3422.78 902.128C3446.18 925.526 3477.92 938.672 3511 938.672C3544.09 938.672 3575.83 925.526 3599.22 902.128C3622.62 878.73 3635.77 846.995 3635.77 813.905Z" fill="#01679E"/>
<path d="M1373.7 1290.76C1374.06 1181.98 1373.8 1060.99 1372.91 927.776C1372.25 832.561 1340.96 746.795 1269.4 684.201C1258.2 674.411 1247.41 664.901 1237.02 655.673C1236.52 655.229 1236.12 654.689 1235.84 654.085C1235.56 653.481 1235.41 652.826 1235.39 652.161C1235.38 651.495 1235.49 650.834 1235.74 650.216C1235.99 649.599 1236.36 649.039 1236.84 648.571L1324.34 561.12C1325.09 560.381 1326.07 559.946 1327.11 559.902C1328.15 559.857 1329.16 560.206 1329.94 560.879C1348.68 576.808 1366.51 593.199 1383.45 610.051C1413.42 639.904 1436.53 681.072 1455.55 719.109C1455.95 719.934 1456.56 720.641 1457.32 721.164C1458.08 721.687 1458.95 722.009 1459.87 722.099C1460.78 722.19 1461.71 722.045 1462.55 721.68C1463.4 721.315 1464.13 720.741 1464.69 720.012C1508.79 663.036 1560.57 616.933 1620.03 581.704C1652.41 562.484 1688.88 551.69 1729.44 549.323C1730.04 549.29 1730.63 549.38 1731.19 549.586C1731.75 549.793 1732.26 550.112 1732.69 550.525C1733.11 550.937 1733.45 551.433 1733.68 551.982C1733.91 552.531 1734.03 553.122 1734.02 553.717L1733.35 701.415C1733.35 703.983 1732.07 705.407 1729.5 705.688C1696.96 709.139 1670.04 715.799 1648.74 725.67C1584.88 755.282 1540.95 820.042 1510.19 884.382C1505.14 894.914 1500.5 906.47 1500.44 918.086C1500.16 1037.82 1500.12 1156.57 1500.32 1274.33C1500.36 1280.23 1500.84 1285.99 1501.77 1291.6C1501.96 1292.75 1502.55 1293.79 1503.45 1294.53C1504.35 1295.27 1505.48 1295.67 1506.64 1295.64L1556.71 1294.25C1557.82 1294.22 1558.93 1294.41 1559.96 1294.81C1560.99 1295.22 1561.93 1295.83 1562.72 1296.6C1563.52 1297.38 1564.14 1298.3 1564.57 1299.33C1564.99 1300.35 1565.21 1301.45 1565.2 1302.56L1564.84 1417.09C1564.84 1417.65 1564.73 1418.19 1564.51 1418.71C1564.3 1419.22 1563.98 1419.68 1563.59 1420.07C1563.19 1420.46 1562.72 1420.77 1562.2 1420.99C1561.68 1421.2 1561.13 1421.31 1560.57 1421.31H1312.19C1311.18 1421.31 1310.22 1420.91 1309.51 1420.2C1308.8 1419.48 1308.4 1418.52 1308.4 1417.51V1298.65C1308.4 1296.32 1309.56 1295.16 1311.89 1295.16L1369 1295.46C1369.61 1295.46 1370.22 1295.35 1370.79 1295.12C1371.36 1294.88 1371.88 1294.54 1372.32 1294.1C1372.75 1293.67 1373.1 1293.15 1373.34 1292.57C1373.57 1292 1373.7 1291.38 1373.7 1290.76Z" fill="#959490"/>
<path d="M573.429 876.497C573.79 857.598 568.373 837.496 566.146 818.417C564.702 805.858 561.592 794.302 556.818 783.75C537.86 742.1 506.143 699.488 461.547 685.645C432.699 676.658 404.111 673.327 375.785 675.654C347.859 677.942 321.158 690.44 295.68 713.151C290.785 717.484 286.372 717.063 282.44 711.887L214.191 622.871C213.93 622.536 213.739 622.154 213.628 621.744C213.517 621.335 213.489 620.908 213.545 620.487C213.601 620.067 213.74 619.662 213.954 619.296C214.169 618.931 214.454 618.611 214.793 618.357C230.802 606.239 249.459 593.72 270.764 580.8C312.05 555.823 362.063 547.397 408.104 551.67C442.288 554.8 477.195 557.207 509.032 570.268C582.416 600.281 635.057 649.393 666.954 717.605C678.811 743.003 684.227 770.508 693.074 796.991C696.605 807.543 698.511 818.818 698.792 830.815C699.153 846.644 700.958 862.474 700.958 878.363C700.878 929.562 700.858 981.282 700.898 1033.52C700.898 1045.56 701.52 1057.62 702.764 1069.7C704.389 1086.07 703.907 1101.96 706.375 1118.33C720.037 1208.97 766.137 1279.08 837.335 1333.73C837.844 1334.13 838.263 1334.63 838.567 1335.19C838.87 1335.76 839.051 1336.39 839.096 1337.03C839.142 1337.67 839.051 1338.31 838.831 1338.92C838.61 1339.52 838.264 1340.07 837.816 1340.54L751.934 1428.71C749.647 1431.08 747.079 1431.4 744.23 1429.67C737.53 1425.5 731.291 1420.76 725.513 1415.47C689.122 1382 658.729 1343.81 634.335 1300.87C633.934 1300.17 633.36 1299.58 632.67 1299.17C631.979 1298.75 631.193 1298.51 630.386 1298.48C629.579 1298.45 628.778 1298.63 628.058 1298.99C627.338 1299.36 626.722 1299.9 626.27 1300.57C565.444 1390.09 483.353 1437.07 379.998 1441.53C363.307 1442.25 345.412 1440.65 326.314 1436.71C227.492 1416.29 160.166 1360.92 124.337 1270.6C109.652 1233.46 108.087 1191.57 106.703 1152.27C105.98 1132.89 108.609 1111.95 114.587 1089.44C124.337 1052.48 137.838 1022.11 155.091 998.315C194.752 943.665 256.32 913.572 324.689 897.081C354.46 889.939 383.488 885.906 411.775 884.983C459.681 883.418 510.998 883.077 565.725 883.96C570.781 884.081 573.348 881.593 573.429 876.497ZM459.139 1296.36C498.44 1277.52 524.258 1249.59 550.378 1214.81C563.318 1197.59 583.54 1173.22 581.433 1152.81C576.297 1102.42 573.75 1052.98 573.79 1004.51C573.83 1001.26 572.205 999.619 568.915 999.579C502.632 999.057 446.822 999.92 401.483 1002.17C381.984 1003.13 361.401 1007.46 342.563 1012.88C285.389 1029.37 251.987 1067.39 242.357 1126.93C229.357 1207.62 256.942 1267.13 325.11 1305.45C340.758 1314.23 360.197 1317.36 378.252 1316.52C406.94 1315.2 433.902 1308.48 459.139 1296.36Z" fill="#959490"/>
<path d="M1109.37 1295.15L1158.96 1295.03C1164.62 1294.99 1167.45 1297.8 1167.45 1303.46V1417.21C1167.45 1418.33 1167 1419.4 1166.21 1420.19C1165.42 1420.98 1164.35 1421.43 1163.23 1421.43L911.423 1421.49C910.754 1421.49 910.092 1421.35 909.474 1421.1C908.857 1420.84 908.297 1420.46 907.827 1419.98C907.357 1419.51 906.985 1418.94 906.735 1418.32C906.484 1417.7 906.36 1417.04 906.368 1416.37L906.969 1297.08C906.969 1295.92 907.551 1295.33 908.715 1295.33L966.25 1295.46C967.19 1295.46 968.096 1295.11 968.788 1294.47C969.48 1293.83 969.906 1292.96 969.982 1292.02C970.985 1278.22 971.527 1265.12 971.607 1252.72C972.329 1069.96 972.128 885.946 971.005 700.691C971.005 697.762 969.561 695.937 966.672 695.215C951.265 691.302 926.529 694.432 910.641 694.011C908.233 693.931 907.03 692.707 907.03 690.339V572.253C907.03 569.846 908.213 568.682 910.58 568.763C918.103 569.063 925.566 567.198 932.969 567.318C986.492 567.96 1041.24 568.181 1097.21 567.98C1100.78 567.94 1102.57 569.705 1102.57 573.277L1102.69 1288.47C1102.69 1292.93 1104.91 1295.15 1109.37 1295.15Z" fill="#959490"/>
<path d="M4035.99 633.645L4055.01 696.72C4055.53 698.441 4056.58 699.957 4058 701.057C4059.43 702.157 4061.16 702.787 4062.95 702.859C4096.86 704.063 4130.78 705.307 4164.72 706.591C4190.84 707.614 4203.48 731.568 4203.72 755.342C4204.08 799.037 4203.86 839.362 4203.06 876.317C4202.28 912.429 4176.04 922.059 4145.04 922.961C4115.91 923.764 4087.19 924.586 4058.86 925.429C4056.73 925.509 4055.39 926.593 4054.83 928.679L4039.3 989.708C4009.65 970.89 3980.06 952.292 3950.53 933.915C3946.16 931.187 3941.5 927.515 3936.57 922.901C3932.15 918.808 3927.58 914.997 3922.85 911.466C3938.61 840.807 3937.61 771.773 3919.84 704.364L4030.51 634.608C4031.42 634.018 4032.46 633.685 4033.52 633.645H4035.99Z" fill="#01679E"/>
<path d="M2981.45 639.781L3100.13 713.329C3082.12 785.794 3083.02 856.553 3102.84 925.607L2986.03 996.447L2967.43 928.496C2966.95 926.61 2965.72 925.627 2963.76 925.547C2930.5 924.464 2898 923.3 2866.26 922.056C2834.92 920.852 2818.71 903.88 2817.63 871.138C2816.47 835.267 2816.41 796.627 2817.45 755.219C2818.11 729.76 2832.38 707.01 2858.92 706.227C2894.47 705.184 2927.99 704.04 2959.48 702.797C2961.46 702.723 2963.35 702.011 2964.87 700.772C2966.4 699.532 2967.46 697.833 2967.91 695.935L2981.45 639.781Z" fill="#01679E"/>
<path d="M3922.85 911.465C3927.58 914.996 3932.16 918.808 3936.57 922.9C3941.5 927.515 3946.16 931.186 3950.53 933.914C3980.06 952.291 4009.65 970.889 4039.3 989.707C4046.89 994.362 4054.77 999.157 4062.96 1004.09C4083.06 1016.33 4104.4 1030.09 4126.99 1045.38C4152.03 1062.29 4152.75 1086.25 4139.63 1110.62C4121.29 1144.69 4102.36 1177.85 4082.82 1210.11C4061.03 1246.04 4035.57 1240.93 4002.23 1223.77C3976.87 1210.73 3952.12 1197.23 3927.96 1183.27C3885.63 1164.13 3845.25 1142.26 3806.81 1117.66C3864.75 1058.56 3903.43 989.828 3922.85 911.465Z" fill="#0DB02D"/>
<path d="M3102.84 925.609C3119.53 985.154 3146.83 1036.95 3184.75 1081.01C3195.58 1093.61 3207.84 1107.53 3221.52 1122.78L3101.94 1189.59C3058.93 1215.03 3029.48 1231.7 3013.59 1239.6C2985.18 1253.81 2962.47 1247.05 2945.46 1219.32C2928.45 1191.63 2911.11 1163.13 2893.46 1133.79C2885.15 1120.07 2873.84 1100.09 2878.29 1083.66C2881.58 1071.46 2887.12 1062.85 2894.9 1057.84C2924.23 1038.98 2953.66 1020.26 2983.19 1001.69C2986.08 999.88 2987.03 998.134 2986.02 996.449L3102.84 925.609Z" fill="#0DB02D"/>
<path d="M3806.81 1117.66C3845.25 1142.26 3885.63 1164.13 3927.96 1183.27L3894.2 1216.73C3892.3 1218.61 3891.03 1221.04 3890.59 1223.67C3890.14 1226.31 3890.55 1229.02 3891.73 1231.42C3903.53 1255.09 3916.83 1278.96 3931.63 1303.04C3948.06 1329.76 3951.31 1355.58 3921.4 1374.12C3885.33 1396.47 3850.95 1417.79 3818.25 1438.1C3796.22 1451.76 3766.79 1448.69 3751.44 1426.12C3731.58 1396.91 3714.23 1369.44 3699.38 1343.72C3698.73 1342.56 3697.7 1341.65 3696.47 1341.13C3695.24 1340.61 3693.88 1340.5 3692.58 1340.84L3624.82 1357.75C3623.29 1356.46 3622.13 1355.12 3621.33 1353.72C3620.64 1352.47 3620.44 1350.77 3620.72 1348.6C3626.14 1306.55 3627.99 1264.12 3626.26 1221.31C3694.47 1202.37 3754.65 1167.82 3806.81 1117.66Z" fill="#01679E"/>
<path d="M3221.52 1122.78C3256.83 1157.17 3296.89 1183.55 3341.71 1201.93C3349.21 1205.02 3367.24 1211.28 3395.81 1220.7L3400.02 1361.48L3337.25 1344.75C3335.96 1344.39 3334.58 1344.49 3333.34 1345.04C3332.1 1345.58 3331.08 1346.55 3330.45 1347.76C3321.42 1365.37 3311.51 1382.55 3300.72 1399.28C3281.04 1429.97 3268.16 1457.96 3233.32 1449.47C3223.93 1447.19 3213.15 1442.47 3201 1435.33C3172.91 1418.88 3144.52 1402.57 3115.84 1386.4C3085.54 1369.31 3079.51 1344.71 3097.72 1312.61C3111.52 1288.29 3124.6 1264.12 3136.96 1240.08C3138.4 1237.32 3138.93 1234.17 3138.48 1231.09C3138.02 1228.01 3136.61 1225.15 3134.43 1222.93L3101.93 1189.59L3221.52 1122.78Z" fill="#01679E"/>
<path d="M3395.81 1220.7C3471.76 1242.49 3548.58 1242.69 3626.26 1221.3C3627.98 1264.12 3626.14 1306.55 3620.72 1348.6C3620.44 1350.77 3620.64 1352.47 3621.32 1353.72C3622.12 1355.12 3623.29 1356.46 3624.81 1357.75C3624.17 1358.19 3623.63 1358.65 3623.19 1359.13C3622.67 1359.73 3622.38 1360.48 3622.34 1361.36C3621.86 1398.55 3620.4 1434.83 3617.95 1470.18C3616.21 1495.51 3596.59 1505.87 3573.6 1505.57C3533.43 1505.04 3490.4 1504.98 3444.5 1505.39C3418.38 1505.63 3404.12 1488.47 3402.85 1462.41C3400.77 1420.44 3399.82 1386.8 3400.03 1361.48L3395.81 1220.7Z" fill="#0DB02D"/>
</svg>
