<svg width="4619" height="1090" viewBox="0 0 4619 1090" fill="none" xmlns="http://www.w3.org/2000/svg">
<path d="M309.383 328.754L304.672 135.418" stroke="#23287B" stroke-width="2"/>
<path d="M175.061 417.619L24.2969 319.98" stroke="#20579F" stroke-width="2"/>
<path d="M184.297 424.359L184.389 621.021" stroke="#249DD7" stroke-width="2"/>
<path d="M673.821 487.082L672.25 682.913" stroke="#249DD7" stroke-width="2"/>
<path d="M829.2 776.393C823.411 778.548 818.238 778.148 813.68 775.192C768.353 745.509 723.24 716.258 678.344 687.438" stroke="#20579F" stroke-width="2"/>
<path d="M562.412 763.832C552.311 821.411 549.14 883.547 552.896 950.241C553.018 952.67 552.575 955.103 551.603 957.353L544.859 972.872" stroke="#23287B" stroke-width="2"/>
<path d="M309.383 328.753L304.672 135.417L411.001 65.3981C421.656 58.3777 432.31 58.3777 442.965 65.3981L818.028 312.773C825.787 317.884 829.667 325.089 829.667 334.388V466.758C829.675 471.697 828.341 476.543 825.807 480.781C823.273 485.02 819.635 488.494 815.277 490.833C810.92 493.173 806.006 494.291 801.058 494.07C796.11 493.848 791.311 492.295 787.173 489.574L434.281 256.887C432.025 255.408 429.394 254.612 426.705 254.596C424.016 254.58 421.385 255.343 419.131 256.795L309.383 328.753Z" fill="#273287"/>
<path d="M304.67 135.418L309.382 328.754L175.061 417.617L24.2969 319.979L304.67 135.418Z" fill="#1F1D6E"/>
<path d="M24.298 319.98L175.062 417.619L184.3 424.362L184.393 621.024L35.5684 523.478C31.7675 520.98 28.6521 517.567 26.5061 513.549C24.3601 509.532 23.2517 505.038 23.2819 500.477L24.298 319.98Z" fill="#2191CF"/>
<path d="M673.817 487.082L672.246 682.913L309.932 445.792C305.943 443.196 302.664 439.647 300.391 435.467C298.118 431.286 296.923 426.604 296.914 421.846C296.905 417.087 298.082 412.401 300.339 408.212C302.595 404.022 305.861 400.461 309.839 397.85C341.988 376.727 373.366 356.128 403.975 336.053C426.608 321.088 438.987 333.374 457.185 345.198C529.365 392 601.575 439.295 673.817 487.082Z" fill="#26A8DF"/>
<path d="M1505.98 698.43C1389.58 724.202 1312.72 640.143 1327.78 525.6C1338.12 446.344 1397.62 399.881 1478.91 403.668C1542.04 406.624 1581.36 435.321 1596.88 489.76C1601.62 506.572 1595.25 514.977 1577.76 514.977H1548.66C1535.73 514.977 1526.43 509.189 1520.76 497.611C1498.77 452.995 1425.89 459.738 1409.72 508.696C1394.94 553.22 1397.99 632.938 1461.45 636.91C1495.39 639.003 1517.87 624.716 1528.89 594.049C1531.23 587.521 1535.88 584.257 1542.84 584.257H1587.83C1600.88 584.257 1605.81 590.6 1602.61 603.286C1589.31 655.384 1557.1 687.099 1505.98 698.43Z" fill="black"/>
<path d="M2502.76 453.55C2508.55 464.511 2510.27 476.212 2507.93 488.651C2507.13 492.654 2504.73 494.933 2500.73 495.487C2486.99 497.519 2473.6 497.273 2460.54 494.748C2456.11 493.886 2453.31 491.269 2452.14 486.896C2441.05 447.084 2388.76 449.116 2359.57 463.988C2355.78 465.884 2352.83 469.223 2351.35 473.318C2342.97 496.903 2351.04 511.437 2375.55 516.918C2401.17 522.583 2425.96 528.249 2449.92 533.914C2474.95 539.826 2508.12 558.578 2515.88 585.366C2518.53 594.48 2519.6 606.488 2519.11 621.391C2517.26 677.184 2465.81 700.555 2416.02 702.402C2372.5 703.973 2327.33 697.506 2300.45 660.742C2289.61 645.839 2284.93 629.058 2286.41 610.399C2286.71 606.827 2288.56 604.518 2291.95 603.471C2310.43 597.744 2342.57 594.788 2347.47 621.207C2355.41 664.899 2475.6 664.807 2457.68 603.84C2456.67 600.394 2454.39 597.457 2451.31 595.619C2438.49 588.106 2424.7 583.395 2409.92 581.486C2352.37 574.373 2284.65 559.132 2288.62 486.527C2293.06 407.271 2374.44 395.909 2437.63 406.901C2467.32 412.136 2489.03 427.685 2502.76 453.55Z" fill="black"/>
<path d="M3702.49 480.062C3703.23 486.158 3700.52 489.237 3694.36 489.299L3683.65 489.484C3681.15 489.515 3678.74 488.594 3676.87 486.901C3675.01 485.208 3673.83 482.867 3673.58 480.339C3668.5 425.469 3605.59 419.465 3564.2 431.566C3540.61 438.463 3526.97 454.013 3523.28 478.214C3518.94 507.404 3544.34 526.341 3569.65 531.052C3597.49 536.224 3623.88 541.89 3648.82 548.048C3698.34 560.303 3718.51 590.632 3709.33 639.035C3698.61 695.845 3632.1 706.375 3583.51 701.664C3529.93 696.43 3499.2 670.227 3491.31 623.055C3489.4 611.785 3493.96 606.551 3504.99 607.352C3505.48 607.352 3505.94 607.321 3506.37 607.259C3515.42 605.535 3520.32 609.599 3521.06 619.452C3523.03 644.947 3534.15 661.728 3554.41 669.796C3591.64 684.483 3669.79 685.776 3681.52 635.341C3696.12 572.25 3622.22 567.816 3581.94 561.719C3546.09 556.269 3499.9 539.919 3496.21 498.536C3488.45 410.135 3571.87 392.585 3638.94 407.826C3676.57 416.448 3697.75 440.526 3702.49 480.062Z" fill="black"/>
<path d="M3948.97 699.541C3882.82 712.103 3823.42 683.006 3802.36 617.883C3768.73 514.056 3813.17 391.477 3942.5 404.964C3988.41 409.767 4024.26 444.037 4038.39 487.083C4062.87 561.351 4043.84 681.62 3948.97 699.541ZM3869.8 434.431C3811.41 467.408 3806.61 548.973 3820.56 605.413C3843.19 696.677 3966.24 713.859 4009.75 630.261C4036.45 578.902 4034.42 493.734 3992.11 450.134C3961.62 418.635 3908.04 412.815 3869.8 434.431Z" fill="black"/>
<path d="M1760.3 630.444H1861.46C1878.39 630.444 1886.77 638.911 1886.58 655.846L1886.49 670.072C1886.31 688.361 1877.07 697.506 1858.78 697.506L1693.51 697.229C1691.51 697.229 1689.52 696.837 1687.68 696.076C1685.83 695.315 1684.15 694.199 1682.73 692.792C1681.31 691.385 1680.19 689.715 1679.43 687.877C1678.66 686.039 1678.27 684.069 1678.27 682.08V427.5C1678.27 414.938 1684.58 408.656 1697.2 408.656L1732.03 408.749C1746.63 408.749 1753.92 416.046 1753.92 430.641L1753.83 623.977C1753.83 628.288 1755.99 630.444 1760.3 630.444Z" fill="black"/>
<path d="M2021.55 620.745C2045.11 660.28 2118 659.172 2139.34 618.99C2145.5 607.289 2148.51 593.618 2148.39 577.976C2147.96 525.262 2147.75 473.687 2147.75 423.252C2147.75 413.645 2152.55 408.811 2162.16 408.749L2186.73 408.564C2199.42 408.441 2205.7 414.753 2205.57 427.501C2205.14 473.749 2205.24 523.199 2205.85 575.852C2207.05 668.04 2144.7 710.069 2058.6 701.386C2020.66 697.568 1991.99 681.803 1972.59 654.091C1959.72 635.74 1952.92 606.827 1952.18 567.353C1951.19 517.533 1951.41 470.793 1952.82 427.131C1953.19 414.63 1959.66 408.441 1972.22 408.564L1995.41 408.749C2006.56 408.872 2012.1 414.507 2012.04 425.653C2011.61 471.101 2011.45 516.918 2011.58 563.104C2011.7 590.631 2015.03 609.845 2021.55 620.745Z" fill="black"/>
<path d="M2727.61 459.649L2726.87 686.794C2726.87 688.107 2726.61 689.408 2726.1 690.619C2725.59 691.831 2724.85 692.929 2723.91 693.849C2722.97 694.769 2721.86 695.493 2720.64 695.979C2719.42 696.465 2718.11 696.702 2716.8 696.678L2689.83 696.123C2687.25 696.051 2684.81 694.978 2683.01 693.132C2681.22 691.287 2680.22 688.814 2680.22 686.24L2681.42 459.741C2681.42 457.12 2680.38 454.606 2678.52 452.752C2676.67 450.899 2674.16 449.857 2671.53 449.857L2591.53 450.227C2590.21 450.239 2588.9 449.987 2587.68 449.484C2586.46 448.981 2585.35 448.239 2584.42 447.3C2583.49 446.361 2582.75 445.246 2582.26 444.019C2581.77 442.792 2581.53 441.479 2581.56 440.158L2582.11 418.451C2582.18 415.877 2583.26 413.434 2585.1 411.64C2586.95 409.846 2589.42 408.843 2592 408.844L2816.2 408.936C2818.79 408.936 2821.28 409.952 2823.13 411.765C2824.97 413.579 2826.04 416.046 2826.09 418.635L2826.46 440.158C2826.47 441.464 2826.22 442.759 2825.73 443.969C2825.24 445.179 2824.51 446.279 2823.59 447.207C2822.67 448.135 2821.58 448.871 2820.38 449.373C2819.17 449.876 2817.88 450.134 2816.57 450.134L2737.49 449.765C2734.87 449.765 2732.36 450.806 2730.5 452.66C2728.65 454.513 2727.61 457.027 2727.61 459.649Z" fill="black"/>
<path d="M2945.9 580.008L2946.27 644.023C2946.3 646.628 2947.35 649.118 2949.2 650.952C2951.05 652.786 2953.55 653.814 2956.16 653.814H3095.1C3097.69 653.814 3100.17 654.83 3102.02 656.643C3103.87 658.457 3104.93 660.924 3104.98 663.513L3105.26 687.161C3105.28 688.474 3105.05 689.779 3104.56 691C3104.08 692.22 3103.35 693.332 3102.43 694.269C3101.51 695.207 3100.41 695.951 3099.2 696.46C3097.99 696.968 3096.69 697.23 3095.38 697.229L2909.6 697.137C2906.98 697.137 2904.46 696.096 2902.61 694.242C2900.76 692.388 2899.71 689.874 2899.71 687.253L2898.88 418.817C2898.88 416.196 2899.92 413.682 2901.78 411.829C2903.63 409.975 2906.15 408.934 2908.77 408.934H3095.01C3097.61 408.933 3100.11 409.962 3101.96 411.796C3103.81 413.629 3104.87 416.12 3104.89 418.725L3105.08 440.156C3105.09 441.461 3104.84 442.757 3104.35 443.966C3103.86 445.176 3103.13 446.277 3102.21 447.204C3101.29 448.132 3100.2 448.868 3098.99 449.371C3097.79 449.873 3096.5 450.132 3095.19 450.132L2955.51 450.04C2954.21 450.039 2952.91 450.298 2951.71 450.801C2950.5 451.303 2949.41 452.039 2948.49 452.967C2947.57 453.895 2946.84 454.995 2946.35 456.205C2945.86 457.415 2945.61 458.71 2945.63 460.016L2945.9 519.319C2945.93 521.925 2946.98 524.415 2948.83 526.248C2950.68 528.082 2953.18 529.111 2955.79 529.111L3085.86 529.295C3088.48 529.295 3091 530.337 3092.85 532.19C3094.7 534.044 3095.74 536.558 3095.74 539.179V560.425C3095.74 563.046 3094.7 565.56 3092.85 567.414C3091 569.268 3088.48 570.309 3085.86 570.309L2955.79 570.032C2954.48 570.032 2953.19 570.291 2951.98 570.793C2950.78 571.295 2949.69 572.032 2948.77 572.959C2947.85 573.887 2947.12 574.988 2946.63 576.197C2946.14 577.407 2945.89 578.702 2945.9 580.008Z" fill="black"/>
<path d="M3362.36 570.218C3380.65 581.426 3390.96 595.96 3393.3 613.818C3396.51 637.959 3401.86 661.421 3409.38 684.207C3412.09 692.52 3409.07 696.862 3400.32 697.231L3395.98 697.416C3385.7 697.847 3379.66 693.013 3377.88 682.913C3373.93 660.559 3370.02 639.159 3366.14 618.714C3362.39 598.7 3351.24 586.261 3332.7 581.396C3304.99 574.129 3270.9 572.343 3230.44 576.038C3227.17 576.346 3225.54 578.132 3225.54 581.396L3225.82 688.456C3225.88 694.429 3222.89 697.262 3216.86 696.954C3210.76 696.708 3207.68 696.585 3207.62 696.585C3205.25 696.466 3203.02 695.46 3201.39 693.775C3199.75 692.09 3198.84 689.855 3198.84 687.532C3198.78 600.763 3198.78 509.529 3198.84 413.831C3198.84 412.696 3199.3 411.605 3200.11 410.793C3200.92 409.982 3202.03 409.514 3203.18 409.49C3245.49 408.135 3285.4 408.166 3322.91 409.582C3375.94 411.553 3404.57 437.14 3408.82 486.344C3412.03 524.032 3396.69 549.958 3362.82 564.122C3358.75 565.846 3358.6 567.878 3362.36 570.218ZM3225.54 437.479L3225.36 548.326C3225.36 548.811 3225.45 549.292 3225.64 549.74C3225.82 550.188 3226.1 550.596 3226.44 550.939C3226.78 551.282 3227.19 551.554 3227.64 551.74C3228.09 551.925 3228.57 552.021 3229.05 552.021L3321.89 552.113C3329.72 552.126 3337.47 550.635 3344.7 547.727C3351.94 544.818 3358.51 540.549 3364.05 535.162C3369.6 529.775 3374 523.377 3377 516.332C3380.01 509.287 3381.56 501.734 3381.57 494.103V492.071C3381.59 476.662 3375.34 461.874 3364.18 450.96C3353.03 440.047 3337.88 433.901 3322.08 433.876L3229.24 433.784C3228.26 433.784 3227.32 434.173 3226.62 434.866C3225.93 435.559 3225.54 436.499 3225.54 437.479Z" fill="black"/>
<path d="M4166.8 569.017L4166.9 690.303C4166.9 695.352 4164.34 697.785 4159.23 697.6C4157.94 697.538 4156.67 697.477 4155.44 697.415C4152.94 697.274 4150.59 696.18 4148.87 694.359C4147.15 692.537 4146.2 690.127 4146.2 687.624V414.57C4146.2 413.026 4146.82 411.546 4147.91 410.455C4149 409.363 4150.48 408.75 4152.02 408.75H4319.69C4324.5 408.75 4327.91 410.936 4329.95 415.308C4330.99 417.525 4331.21 419.958 4330.59 422.606C4329.92 425.685 4328.01 427.225 4324.87 427.225H4173.55C4169.11 427.225 4166.9 429.442 4166.9 433.875L4166.8 539.458C4166.8 543.153 4168.65 545 4172.35 545L4305.84 545.092C4310.52 545.092 4313.47 547.34 4314.7 551.836C4315.2 553.683 4314.7 555.962 4313.23 558.671C4312.44 560.12 4311.27 561.331 4309.84 562.177C4308.41 563.022 4306.77 563.47 4305.1 563.475H4172.35C4168.65 563.475 4166.8 565.322 4166.8 569.017Z" fill="black"/>
<path d="M4510.63 425.47L4510.45 694.09C4510.45 694.849 4510.15 695.578 4509.61 696.115C4509.07 696.652 4508.35 696.953 4507.59 696.953L4499.55 696.861C4499.17 696.861 4498.8 696.787 4498.45 696.643C4498.11 696.499 4497.79 696.288 4497.52 696.022C4497.26 695.756 4497.05 695.441 4496.9 695.093C4496.76 694.746 4496.69 694.374 4496.69 693.997L4496.59 425.562C4496.59 424.802 4496.29 424.074 4495.75 423.537C4495.22 423 4494.49 422.698 4493.73 422.698L4399.04 422.421C4398.33 422.425 4397.64 422.161 4397.11 421.683C4396.58 421.204 4396.24 420.545 4396.18 419.835L4395.53 411.891C4395.49 411.492 4395.54 411.09 4395.66 410.71C4395.79 410.33 4395.99 409.98 4396.26 409.684C4396.53 409.388 4396.86 409.152 4397.23 408.991C4397.6 408.83 4397.99 408.748 4398.39 408.75H4608.93C4609.32 408.749 4609.71 408.829 4610.07 408.984C4610.43 409.14 4610.75 409.367 4611.02 409.653C4611.29 409.939 4611.5 410.277 4611.63 410.646C4611.76 411.015 4611.82 411.407 4611.79 411.798L4611.14 419.835C4611.1 420.562 4610.77 421.244 4610.24 421.741C4609.71 422.239 4609.01 422.515 4608.28 422.514L4513.5 422.606C4512.74 422.606 4512.01 422.908 4511.47 423.445C4510.94 423.982 4510.63 424.71 4510.63 425.47Z" fill="black"/>
<path d="M184.297 424.359L543.747 659.91C547.669 662.483 550.892 665.988 553.126 670.111C555.36 674.235 556.535 678.845 556.544 683.528C556.553 688.211 555.397 692.819 553.179 696.936C550.961 701.053 547.752 704.551 543.84 707.113L445.825 771.497C441.13 774.572 435.64 776.211 430.028 776.211C424.415 776.211 418.925 774.572 414.231 771.497L184.389 621.021L184.297 424.359Z" fill="#26A8DF"/>
<path d="M673.821 487.082L822.922 585.182C824.825 586.428 826.387 588.136 827.468 590.152C828.548 592.168 829.113 594.428 829.111 596.729L829.204 776.394C823.415 778.549 818.241 778.149 813.684 775.193C768.356 745.511 723.244 716.259 678.347 687.439C674.344 685.407 672.312 683.898 672.25 682.913L673.821 487.082Z" fill="#2191CF"/>
<path d="M562.408 763.83C552.308 821.409 549.136 883.545 552.893 950.238C553.014 952.667 552.572 955.101 551.6 957.351L544.856 972.869L443.7 1039.38C438.575 1042.75 432.568 1044.53 426.426 1044.52C420.284 1044.5 414.277 1042.68 409.15 1039.29L36.5813 793.666C32.4315 790.909 29.0284 787.172 26.6751 782.788C24.3218 778.404 23.0915 773.51 23.0938 768.541V641.897C23.0817 636.623 24.5024 631.446 27.205 626.917C29.9075 622.388 33.7911 618.676 38.443 616.175C43.095 613.674 48.3415 612.477 53.6254 612.713C58.9092 612.948 64.033 614.606 68.4524 617.511L422.822 851.214C424.076 852.064 425.557 852.518 427.072 852.518C428.587 852.518 430.067 852.064 431.321 851.214L562.408 763.83Z" fill="#273287"/>
<path d="M678.348 687.438C723.245 716.258 768.357 745.509 813.685 775.192C818.243 778.148 823.416 778.548 829.205 776.393C831.114 780.765 830.56 783.967 827.542 785.999C773.592 822.764 679.365 885.054 544.859 972.87L551.603 957.351C552.575 955.101 553.018 952.668 552.896 950.238C549.14 883.545 552.311 821.409 562.412 763.83L678.348 687.438Z" fill="#1F1D6E"/>
</svg>
