<svg width="3602" height="1492" viewBox="0 0 3602 1492" fill="none" xmlns="http://www.w3.org/2000/svg">
<path d="M2561.43 32.3731L2508.33 94.0447C2508.22 94.1702 2508.09 94.2712 2507.94 94.3411C2507.79 94.4109 2507.62 94.4479 2507.46 94.4497H2483.45C2483.25 94.4521 2483.04 94.4002 2482.86 94.299C2482.68 94.1979 2482.53 94.0511 2482.42 93.8733C2482.32 93.6956 2482.26 93.4932 2482.26 93.2863C2482.25 93.0794 2482.31 92.8753 2482.41 92.6944L2515.76 30.9553C2515.86 30.7691 2516.02 30.6144 2516.2 30.5074C2516.38 30.4004 2516.59 30.3453 2516.81 30.3477L2560.56 30.4152C2560.78 30.4177 2561 30.4847 2561.19 30.6085C2561.38 30.7322 2561.53 30.9074 2561.62 31.1133C2561.71 31.3193 2561.75 31.5474 2561.71 31.7707C2561.68 31.9939 2561.58 32.203 2561.43 32.3731Z" fill="#133C6C"/>
<path d="M760.559 849.073C786.103 846.8 812.412 843.729 839.486 839.858C840.724 839.678 841.444 840.207 841.647 841.445L843.537 853.495C843.594 853.866 843.576 854.245 843.484 854.609C843.392 854.973 843.227 855.314 843.001 855.613C842.774 855.912 842.489 856.163 842.164 856.35C841.839 856.537 841.479 856.657 841.106 856.702L761.201 865.816C760.526 865.884 760.222 866.266 760.289 866.964C765.623 915.414 773.725 965.137 784.595 1016.13C784.933 1017.73 785.901 1018.41 787.498 1018.19C811.984 1014.66 835.277 1010.29 857.378 1005.09C857.682 1005.02 857.997 1005.01 858.305 1005.06C858.612 1005.11 858.907 1005.22 859.17 1005.38C859.434 1005.55 859.662 1005.76 859.841 1006.01C860.02 1006.26 860.147 1006.55 860.214 1006.85L862.712 1017.95C863.117 1019.66 862.453 1020.72 860.72 1021.13C837.044 1026.64 813.74 1030.93 790.807 1033.99C790.539 1034.02 790.282 1034.11 790.052 1034.25C789.822 1034.39 789.624 1034.58 789.471 1034.8C789.318 1035.02 789.214 1035.27 789.165 1035.53C789.116 1035.79 789.123 1036.06 789.186 1036.32C798.346 1075.18 808.879 1113.74 820.784 1152C822.022 1155.93 824.396 1159.05 827.907 1161.35C840.443 1169.52 853.406 1177.82 866.796 1186.26C867.187 1186.5 867.468 1186.89 867.581 1187.34C867.694 1187.78 867.631 1188.25 867.404 1188.66C821.853 1267.24 776.302 1346.05 730.751 1425.08C730.458 1425.62 729.963 1425.9 729.265 1425.92C728.968 1425.93 728.675 1425.84 728.436 1425.66C728.197 1425.49 728.025 1425.23 727.949 1424.94L708.268 1345.11C707.953 1343.88 707.165 1343.27 705.905 1343.29C574.518 1345.65 456.263 1307.04 351.14 1227.44C213.305 1123.07 126.209 957.395 118.58 784.803C110.444 601.273 188.29 420.782 331.189 306.249C344.377 295.672 357.351 284.623 370.112 273.101C446.923 203.654 537.755 159.603 642.608 140.947C643.778 140.745 644.352 140.047 644.33 138.854L643.351 69.0139C643.306 65.6383 644.521 65.0982 646.997 67.3936L831.958 238.467C832.813 239.255 833.162 240.223 833.004 241.37C832.667 244.003 832.037 246.524 831.114 248.932C806.876 313.562 788.511 379.048 776.021 445.389C775.982 445.593 775.992 445.803 776.049 446.002C776.107 446.2 776.211 446.383 776.352 446.534C776.494 446.686 776.669 446.801 776.863 446.872C777.058 446.943 777.267 446.967 777.472 446.942L807.213 443.432C807.883 443.363 808.552 443.553 809.081 443.962C809.61 444.371 809.957 444.968 810.049 445.626L811.669 457.44C811.849 458.723 811.298 459.432 810.015 459.567L774.67 463.483C773.387 463.618 772.634 464.315 772.408 465.575C761.786 527.258 755.226 587.85 752.727 647.35C752.717 647.623 752.764 647.895 752.867 648.148C752.97 648.402 753.126 648.63 753.324 648.818C753.522 649.007 753.758 649.151 754.016 649.241C754.274 649.331 754.548 649.365 754.82 649.341L815.349 644.075C816.632 643.963 817.329 644.548 817.442 645.831L818.59 657.746C818.647 658.363 818.459 658.977 818.068 659.457C817.676 659.937 817.112 660.244 816.497 660.312C795.116 662.742 774.355 664.385 754.213 665.24C753.043 665.285 752.412 665.893 752.322 667.063C751.917 672.914 751.658 678.742 751.546 684.548C750.601 737.86 752.817 792.038 758.196 847.082C758.331 848.522 759.119 849.186 760.559 849.073ZM807.146 278.299C808.541 274.271 810.094 270.209 811.804 266.113C812.997 263.233 812.423 262.828 810.083 264.898C795.859 277.5 783.177 290.372 772.037 303.514C734.633 347.599 701.899 394.902 673.835 445.423C673.114 446.728 673.497 447.46 674.982 447.617C701.944 450.43 730.638 450.622 761.066 448.191C762.326 448.079 763.069 447.404 763.294 446.166C774.006 388.219 788.624 332.263 807.146 278.299ZM647.436 414.199L646.355 333.219C646.351 333.037 646.297 332.859 646.2 332.705C646.103 332.55 645.966 332.425 645.803 332.342C645.641 332.259 645.459 332.221 645.277 332.233C645.095 332.245 644.919 332.306 644.769 332.409C615.647 353.09 587.605 377.226 560.643 404.815C560.319 405.143 560.073 405.539 559.921 405.974C559.769 406.41 559.715 406.875 559.763 407.335C559.811 407.796 559.961 408.242 560.2 408.64C560.44 409.039 560.764 409.381 561.15 409.642C589.732 428.725 621.757 440.517 657.225 445.018C658.306 445.153 659.116 444.748 659.656 443.803C676.985 412.95 696.092 382.739 716.978 353.169C718.575 350.896 718.362 350.705 716.336 352.595L649.731 415.178C648.246 416.596 647.481 416.27 647.436 414.199ZM601.322 346.722C578.906 357.692 557.335 369.844 536.574 383.954C536.381 384.085 536.219 384.257 536.1 384.457C535.981 384.658 535.907 384.882 535.885 385.114C535.862 385.346 535.891 385.58 535.969 385.8C536.047 386.019 536.173 386.219 536.337 386.385L547.579 397.659C548.457 398.559 549.323 398.537 550.178 397.591C566.675 379.701 584.161 363.453 602.638 348.848C608.805 344.01 608.366 343.301 601.322 346.722ZM435.873 566.707C461.282 510.088 494.725 458.723 536.202 412.613C537.08 411.623 537.058 410.666 536.135 409.744L522.395 395.667C522.117 395.379 521.742 395.202 521.338 395.171C520.935 395.14 520.53 395.257 520.201 395.499C466.615 435.758 424.136 485.401 392.764 544.429C392.476 544.969 392.368 545.587 392.452 546.193C392.537 546.799 392.812 547.363 393.236 547.804C403.521 558.673 415.224 568.823 428.345 578.252C429.358 578.994 430.145 578.803 430.708 577.678C432.508 574.032 434.23 570.375 435.873 566.707ZM582.62 637.358C598.385 577.273 620.8 518.065 649.934 462.942C650.051 462.725 650.113 462.483 650.116 462.236C650.118 461.989 650.06 461.745 649.947 461.526C649.834 461.307 649.669 461.118 649.467 460.977C649.265 460.835 649.031 460.745 648.786 460.715C611.157 455.224 577.792 441.935 548.693 420.849C548.22 420.515 547.64 420.369 547.061 420.437C546.482 420.506 545.946 420.784 545.553 421.22C500.79 471.786 466.233 526.583 441.882 585.61C441.387 586.758 441.679 587.647 442.76 588.277C484.597 613.009 530.373 629.909 580.088 638.978C581.438 639.226 582.282 638.686 582.62 637.358ZM663.369 464.596C634.034 520.428 610.504 580.851 594.874 640.666C594.834 640.811 594.826 640.962 594.85 641.11C594.873 641.258 594.929 641.4 595.012 641.525C595.095 641.65 595.205 641.755 595.332 641.834C595.46 641.913 595.603 641.964 595.752 641.982C642.901 649.139 690.455 651.727 738.414 649.746C739.719 649.679 740.394 648.992 740.439 647.687C742.915 587.039 749.273 526.639 759.513 466.487C759.554 466.261 759.543 466.028 759.479 465.807C759.416 465.585 759.302 465.381 759.146 465.208C758.99 465.036 758.796 464.901 758.579 464.812C758.362 464.724 758.127 464.685 757.892 464.698C726.632 466.903 695.766 466.521 665.294 463.55C664.903 463.521 664.513 463.605 664.172 463.791C663.83 463.976 663.551 464.256 663.369 464.596ZM382.805 564.817C363.428 610.286 351.275 655.552 347.426 706.591C346.92 713.274 346.076 719.283 350.6 725.021C361.132 738.366 372.464 750.653 384.594 761.882C385.787 762.985 386.451 762.738 386.586 761.14C391.065 705.578 403.161 651.389 422.876 598.573C423.117 597.938 423.138 597.24 422.936 596.591C422.735 595.943 422.321 595.381 421.762 594.995C408.439 586.038 396.263 575.833 385.236 564.378C385.066 564.202 384.856 564.071 384.623 563.996C384.391 563.921 384.143 563.905 383.903 563.948C383.663 563.992 383.437 564.094 383.245 564.245C383.054 564.397 382.903 564.593 382.805 564.817ZM575.598 655.35C527.864 647.383 478.003 630.134 435.805 604.311C435.662 604.226 435.502 604.174 435.336 604.157C435.17 604.141 435.003 604.16 434.845 604.215C434.688 604.27 434.544 604.358 434.425 604.473C434.305 604.589 434.211 604.73 434.151 604.885C414.549 657.814 402.644 712.824 398.435 769.916C398.352 770.987 398.547 772.062 399.002 773.038C399.458 774.014 400.158 774.857 401.034 775.486C445.46 807.104 496.48 828.426 554.094 839.453C554.236 839.483 554.382 839.481 554.523 839.448C554.664 839.414 554.795 839.35 554.908 839.26C555.021 839.169 555.113 839.055 555.176 838.925C555.24 838.795 555.274 838.653 555.276 838.508C555.613 780.066 562.984 719.913 577.387 658.05C577.456 657.755 577.464 657.448 577.41 657.15C577.356 656.851 577.242 656.567 577.075 656.314C576.907 656.061 576.69 655.846 576.436 655.68C576.182 655.514 575.897 655.401 575.598 655.35ZM589.777 660.447C575.936 720.644 568.486 780.651 567.429 840.466C567.406 841.658 567.98 842.356 569.15 842.559C625.797 851.875 683.962 854.418 743.646 850.187C745.177 850.075 745.874 849.265 745.739 847.757C740.406 787.942 738.38 728.059 739.663 668.109C739.686 666.714 738.999 666.039 737.604 666.084C689.15 668.312 640.718 665.859 592.308 658.725C590.936 658.523 590.092 659.097 589.777 660.447ZM377.134 895.082C379.159 900.213 381.455 904.995 384.02 909.428C384.876 910.891 386.192 911.746 387.97 911.994C389.5 912.196 390.164 911.533 389.962 910.002C384.583 870.306 382.861 828.674 384.797 785.106C384.864 783.869 384.414 782.879 383.446 782.136C369.606 771.379 357.723 759.891 347.798 747.671C346.875 746.524 346.447 746.681 346.515 748.144C348.585 799.7 358.792 848.68 377.134 895.082ZM552.913 855.858C498.528 845.495 444.177 825.546 398.806 793.613C397.614 792.78 396.995 793.095 396.95 794.558C395.757 838.283 398.221 880.68 404.343 921.749C404.613 923.685 405.524 925.26 407.077 926.475C454.046 963.719 507.238 990.408 566.652 1006.54C567.755 1006.86 568.216 1006.45 568.036 1005.33C559.687 956.99 555.276 907.91 554.803 858.086C554.803 856.826 554.173 856.083 552.913 855.858ZM745.537 866.255C685.481 870.272 627.181 868.854 569.083 858.998C567.89 858.818 567.305 859.324 567.327 860.517C567.868 907.707 572.492 956.788 581.202 1007.76C581.323 1008.5 581.66 1009.18 582.17 1009.73C582.681 1010.28 583.343 1010.66 584.071 1010.83C644.499 1025.31 709.719 1026.8 771.463 1020.38C771.623 1020.37 771.779 1020.33 771.92 1020.25C772.06 1020.17 772.183 1020.07 772.279 1019.94C772.375 1019.81 772.443 1019.66 772.477 1019.51C772.511 1019.35 772.51 1019.19 772.476 1019.03C761.651 968.602 753.481 918.363 747.968 868.314C747.908 867.723 747.621 867.178 747.168 866.794C746.714 866.41 746.13 866.217 745.537 866.255ZM569.623 1024.2C512.099 1009.48 459.234 985.244 410.487 949.901C409.069 948.866 408.484 949.215 408.731 950.948C409.542 957.26 411.466 963.235 414.875 968.636C440.284 1009.03 472.928 1045.8 512.808 1078.95C527.279 1090.97 540.321 1099.89 551.934 1105.72C563.637 1111.55 577.601 1116.5 593.828 1120.57C593.985 1120.61 594.152 1120.61 594.31 1120.57C594.468 1120.53 594.611 1120.44 594.725 1120.33C594.839 1120.21 594.919 1120.06 594.957 1119.9C594.995 1119.75 594.99 1119.58 594.942 1119.42C586.344 1091.14 578.67 1060.19 571.919 1026.59C571.797 1026.02 571.518 1025.49 571.112 1025.06C570.706 1024.64 570.19 1024.34 569.623 1024.2ZM631.873 1036.75C631.821 1036.52 631.7 1036.31 631.525 1036.15C631.35 1035.98 631.13 1035.88 630.894 1035.84L586.029 1028.59C585.835 1028.55 585.636 1028.57 585.449 1028.63C585.262 1028.69 585.094 1028.8 584.96 1028.94C584.826 1029.09 584.73 1029.26 584.681 1029.46C584.632 1029.65 584.631 1029.85 584.679 1030.04L608.951 1124.42C609.007 1124.63 609.118 1124.81 609.273 1124.96C609.428 1125.11 609.62 1125.21 609.829 1125.26L654.052 1134.41C654.249 1134.45 654.452 1134.44 654.644 1134.38C654.836 1134.32 655.009 1134.21 655.147 1134.07C655.286 1133.92 655.385 1133.75 655.436 1133.55C655.486 1133.36 655.486 1133.15 655.436 1132.96L631.873 1036.75ZM653.343 1049.21C704.003 1081.59 754.517 1114.09 804.884 1146.7C805.964 1147.39 806.313 1147.14 805.93 1145.92C794.408 1108.99 784.708 1073.02 776.831 1038C776.516 1036.63 775.649 1036.01 774.231 1036.15C728.489 1041.04 682.274 1041.65 636.667 1036.45C635.159 1036.27 635.013 1036.62 636.228 1037.5C641.854 1041.62 647.559 1045.52 653.343 1049.21Z" fill="#133C6C"/>
<path d="M1101.38 351.749C1046.86 345.437 1000.95 308.204 987.754 255.309C965.339 165.384 1025.7 89.4338 1116.54 85.957C1148.54 84.7193 1177.34 90.3227 1202.93 102.767C1204.05 103.307 1204.59 104.185 1204.55 105.4L1202.66 158.464C1202.65 158.766 1202.56 159.06 1202.39 159.309C1202.22 159.558 1201.98 159.751 1201.7 159.866C1201.42 159.98 1201.11 160.011 1200.81 159.954C1200.52 159.897 1200.24 159.755 1200.03 159.544C1177.23 138.031 1151.03 128.467 1121.44 130.852C1068.81 135.105 1038.93 169.266 1039.27 220.912C1039.67 283.495 1087.88 312.863 1145.37 303.006C1166.03 299.45 1184.13 290.381 1199.65 275.799C1199.86 275.613 1200.11 275.49 1200.38 275.443C1200.66 275.397 1200.94 275.43 1201.19 275.537C1201.44 275.645 1201.65 275.823 1201.8 276.049C1201.95 276.276 1202.02 276.541 1202.02 276.811L1201.98 330.686C1201.98 331.259 1201.83 331.826 1201.53 332.33C1201.23 332.833 1200.81 333.255 1200.3 333.555C1171.76 349.982 1138.79 356.047 1101.38 351.749Z" fill="#133C6C"/>
<path d="M1532.27 220.597C1531.96 256.065 1517.12 289.954 1491.02 314.809C1464.92 339.663 1429.7 353.447 1393.1 353.127C1356.5 352.808 1321.52 338.412 1295.86 313.106C1270.2 287.8 1255.96 253.657 1256.27 218.189C1256.58 182.72 1271.42 148.831 1297.51 123.976C1323.61 99.1221 1358.84 85.3385 1395.44 85.6578C1432.04 85.9771 1467.01 100.373 1492.67 125.679C1518.33 150.985 1532.58 185.128 1532.27 220.597ZM1393.68 305.739C1404.5 305.795 1415.21 303.624 1425.23 299.349C1435.24 295.074 1444.35 288.779 1452.03 280.823C1459.72 272.867 1465.84 263.406 1470.03 252.98C1474.22 242.554 1476.41 231.368 1476.47 220.06C1476.53 208.752 1474.46 197.543 1470.37 187.074C1466.29 176.605 1460.28 167.081 1452.67 159.045C1445.07 151.009 1436.03 144.619 1426.06 140.239C1416.09 135.859 1405.4 133.576 1394.58 133.519C1383.77 133.463 1373.05 135.634 1363.04 139.909C1353.03 144.184 1343.92 150.479 1336.23 158.435C1328.55 166.391 1322.43 175.852 1318.24 186.278C1314.05 196.704 1311.86 207.89 1311.8 219.198C1311.74 230.506 1313.81 241.714 1317.89 252.183C1321.98 262.652 1327.99 272.177 1335.59 280.213C1343.2 288.249 1352.24 294.639 1362.21 299.019C1372.18 303.399 1382.87 305.682 1393.68 305.739Z" fill="#133C6C"/>
<path d="M2171.01 148.675C2160.48 131.764 2140.86 127.814 2122.06 132.203C2105.18 136.152 2094.01 154.549 2104.54 170.178C2109.11 176.974 2115.95 182.51 2125.06 186.786C2171.08 208.423 2229.07 228.913 2213.34 295.816C2205.64 328.458 2175.63 348.171 2143.26 351.817C2104.54 356.205 2063.08 349.927 2041.38 315.563C2040.32 313.876 2040.47 312.3 2041.82 310.838L2070.65 279.445C2070.86 279.223 2071.12 279.056 2071.41 278.957C2071.69 278.858 2072 278.83 2072.3 278.877C2072.61 278.923 2072.89 279.042 2073.14 279.223C2073.38 279.405 2073.58 279.643 2073.72 279.917C2085.67 305.504 2114.67 314.416 2139.48 304.525C2152.26 299.439 2158.9 290.01 2159.4 276.238C2159.94 260.913 2138.94 248.086 2127.16 242.28C2104.71 231.174 2079.83 219.596 2061.9 202.212C2044.04 184.963 2040.23 159.241 2047.22 136.287C2055.69 108.472 2086.04 91.2233 2113.82 87.3414C2150.45 82.1768 2184.01 88.4216 2206.32 119.477C2207.06 120.512 2206.96 121.435 2206.02 122.245L2174.82 149.283C2174.54 149.523 2174.22 149.698 2173.86 149.799C2173.51 149.899 2173.14 149.921 2172.77 149.863C2172.41 149.805 2172.07 149.669 2171.76 149.464C2171.46 149.259 2171.2 148.99 2171.01 148.675Z" fill="#133C6C"/>
<path d="M2667.05 220.844C2666.86 238.41 2663.1 255.767 2655.98 271.924C2648.85 288.08 2638.51 302.72 2625.53 315.007C2612.55 327.294 2597.19 336.987 2580.34 343.534C2563.48 350.08 2545.45 353.352 2527.28 353.161C2490.58 352.777 2455.53 338.315 2429.85 312.958C2404.16 287.6 2389.94 253.423 2390.31 217.946C2390.5 200.38 2394.26 183.023 2401.38 166.866C2408.5 150.71 2418.85 136.07 2431.83 123.784C2444.81 111.497 2460.16 101.803 2477.02 95.2568C2493.88 88.7102 2511.91 85.4386 2530.08 85.6289C2566.78 86.0132 2601.82 100.475 2627.51 125.833C2653.2 151.19 2667.42 185.367 2667.05 220.844ZM2527.98 305.74C2549.88 305.893 2570.94 296.967 2586.54 280.927C2602.14 264.887 2610.99 243.045 2611.15 220.208C2611.23 208.9 2609.17 197.688 2605.09 187.212C2601.02 176.736 2595 167.201 2587.39 159.151C2579.78 151.102 2570.72 144.695 2560.73 140.298C2550.74 135.901 2540.02 133.599 2529.18 133.523C2507.28 133.37 2486.21 142.295 2470.62 158.336C2455.02 174.376 2446.17 196.218 2446.01 219.055C2445.93 230.363 2447.99 241.575 2452.06 252.051C2456.14 262.527 2462.16 272.062 2469.77 280.112C2477.38 288.161 2486.44 294.568 2496.42 298.965C2506.41 303.362 2517.13 305.664 2527.98 305.74Z" fill="#133C6C"/>
<path d="M1724.45 270.705C1724.86 260.533 1726.56 250.946 1729.55 241.945C1744.97 195.677 1761.37 146.822 1778.77 95.3779C1779.36 93.6676 1780.56 92.8125 1782.38 92.8125L1835.75 92.8462C1836.95 92.8462 1837.63 93.4426 1837.81 94.6353L1876.7 347.769C1876.74 347.966 1876.73 348.169 1876.67 348.362C1876.62 348.555 1876.52 348.735 1876.39 348.889C1876.26 349.043 1876.1 349.168 1875.91 349.254C1875.73 349.34 1875.52 349.386 1875.32 349.389H1825.39C1824.11 349.389 1823.4 348.759 1823.26 347.499L1800.61 157.927C1800.59 157.725 1800.54 157.725 1800.48 157.927C1797.2 169.877 1794.6 182.164 1790.65 194.046C1773.82 244.544 1756.77 295.706 1739.51 347.533C1739.33 348.073 1738.99 348.543 1738.53 348.876C1738.07 349.21 1737.51 349.389 1736.94 349.389H1708.28C1707.78 349.391 1707.29 349.231 1706.89 348.934C1706.48 348.637 1706.18 348.217 1706.02 347.735C1688.04 292.601 1670.86 239.875 1654.47 189.556C1650.8 178.282 1648.07 165.612 1646.27 151.547C1646.25 151.322 1646.16 151.142 1646 151.007C1645.86 150.872 1645.72 150.861 1645.56 150.973C1645.31 151.131 1645.18 151.356 1645.16 151.649C1644.28 163.148 1643.15 174.895 1641.78 186.89C1635.59 240.741 1629.15 294.525 1622.47 348.242C1622.44 348.566 1622.29 348.867 1622.05 349.085C1621.81 349.303 1621.5 349.424 1621.19 349.423L1570.89 349.389C1570.67 349.392 1570.46 349.347 1570.26 349.258C1570.06 349.169 1569.89 349.038 1569.74 348.874C1569.6 348.71 1569.5 348.517 1569.44 348.309C1569.38 348.1 1569.37 347.882 1569.4 347.668L1608.02 94.7028C1608.22 93.4651 1608.96 92.8462 1610.22 92.8462H1665.31C1666.57 92.8462 1667.4 93.4426 1667.81 94.6353C1683.47 142.501 1699.87 192.504 1716.99 244.645C1719.86 253.321 1720.6 262.367 1723.37 270.874C1724 272.854 1724.36 272.798 1724.45 270.705Z" fill="#133C6C"/>
<path d="M1981.56 92.8438H1927.88C1927.32 92.8438 1926.87 93.2971 1926.87 93.8564V348.374C1926.87 348.933 1927.32 349.387 1927.88 349.387H1981.56C1982.11 349.387 1982.57 348.933 1982.57 348.374V93.8564C1982.57 93.2971 1982.11 92.8438 1981.56 92.8438Z" fill="#133C6C"/>
<path d="M2329.37 92.8438H2275.49C2274.99 92.8438 2274.58 93.2518 2274.58 93.7552V348.475C2274.58 348.979 2274.99 349.387 2275.49 349.387H2329.37C2329.87 349.387 2330.28 348.979 2330.28 348.475V93.7552C2330.28 93.2518 2329.87 92.8438 2329.37 92.8438Z" fill="#133C6C"/>
<path d="M2777.47 164.982C2778.42 171.936 2778.93 178.631 2778.99 185.067C2779.47 240.719 2779.56 294.908 2779.26 347.634C2779.26 348.827 2778.67 349.423 2777.47 349.423L2727.78 349.389C2727.33 349.389 2726.9 349.211 2726.59 348.895C2726.27 348.578 2726.09 348.149 2726.09 347.701V94.534C2726.09 93.3863 2726.67 92.8125 2727.82 92.8125L2781.76 92.88C2782.55 92.8807 2783.32 93.0607 2784.03 93.4061C2784.73 93.7515 2785.34 94.2529 2785.81 94.8716C2820.63 140.644 2856.85 188.026 2894.48 237.017C2904.03 249.506 2910.28 262.165 2916.69 276.072C2919.24 281.608 2919.92 281.394 2918.75 275.431C2917.51 269.31 2916.9 262.93 2916.9 256.291C2916.85 203.137 2916.79 149.274 2916.73 94.7028C2916.73 93.4426 2917.36 92.8125 2918.62 92.8125L2967.46 92.8462C2969.15 92.8462 2970 93.6901 2970 95.3779L2970.03 348.545C2970.03 348.778 2969.94 349.001 2969.77 349.166C2969.61 349.331 2969.39 349.423 2969.15 349.423L2917.57 349.389C2915.66 349.389 2914.1 348.624 2912.91 347.094C2873.82 296.348 2836.19 247.526 2800.02 200.628C2791.45 189.489 2785.41 177.168 2779.84 164.307C2777.47 158.861 2776.69 159.086 2777.47 164.982Z" fill="#133C6C"/>
<path d="M1733.74 591.62C1708.76 568.97 1681.75 559.282 1647.05 563.67C1592.53 570.556 1566.27 616.059 1574.06 668.414C1581.9 720.904 1624.67 742.406 1675.24 735.655C1696.84 732.775 1716.05 723.56 1732.86 708.009C1733.07 707.819 1733.33 707.694 1733.61 707.648C1733.89 707.603 1734.17 707.64 1734.43 707.755C1734.69 707.869 1734.91 708.057 1735.06 708.294C1735.21 708.531 1735.3 708.807 1735.29 709.09L1735.33 762.12C1735.33 762.909 1735.12 763.685 1734.72 764.367C1734.32 765.049 1733.75 765.613 1733.07 766.002C1704.75 782.024 1672.14 787.977 1635.23 783.858C1604.92 780.483 1576.83 767.791 1555.23 746.423C1523.45 714.963 1511.38 674.569 1519 625.241C1528.22 565.662 1580.04 524.716 1638.41 518.809C1672.35 515.343 1705.06 520.609 1736.54 534.607C1736.98 534.808 1737.35 535.134 1737.61 535.543C1737.86 535.952 1737.98 536.425 1737.96 536.902L1736.04 590.641C1736.02 590.902 1735.94 591.154 1735.79 591.368C1735.64 591.582 1735.44 591.75 1735.2 591.853C1734.96 591.955 1734.69 591.987 1734.43 591.946C1734.18 591.905 1733.94 591.792 1733.74 591.62Z" fill="#133C6C"/>
<path d="M2146.66 653.153C2146.23 688.62 2131.27 722.457 2105.09 747.22C2078.9 771.983 2043.63 785.644 2007.03 785.197C1970.43 784.75 1935.51 770.232 1909.94 744.836C1884.36 719.441 1870.24 685.249 1870.67 649.781C1871.11 614.314 1886.06 580.477 1912.25 555.714C1938.43 530.951 1973.7 517.29 2010.3 517.737C2046.9 518.184 2081.83 532.702 2107.4 558.098C2132.97 583.493 2147.09 617.685 2146.66 653.153ZM2008.08 737.847C2018.89 737.903 2029.61 735.732 2039.62 731.457C2049.64 727.182 2058.75 720.887 2066.43 712.931C2074.12 704.975 2080.23 695.514 2084.43 685.088C2088.62 674.662 2090.81 663.476 2090.87 652.168C2090.93 640.86 2088.86 629.652 2084.77 619.183C2080.69 608.714 2074.67 599.189 2067.07 591.153C2059.47 583.117 2050.42 576.727 2040.46 572.347C2030.49 567.967 2019.8 565.684 2008.98 565.627C1998.17 565.571 1987.45 567.742 1977.44 572.017C1967.43 576.292 1958.32 582.587 1950.63 590.543C1942.94 598.499 1936.83 607.96 1932.64 618.386C1928.44 628.812 1926.26 639.998 1926.2 651.306C1926.14 662.614 1928.21 673.823 1932.29 684.292C1936.37 694.76 1942.39 704.285 1949.99 712.321C1957.6 720.357 1966.64 726.747 1976.61 731.127C1986.57 735.507 1997.27 737.79 2008.08 737.847Z" fill="#133C6C"/>
<path d="M1186.72 708.244C1185.77 702.46 1185.29 696.812 1185.27 691.298C1184.95 636.164 1184.9 580.985 1185.1 525.76C1185.11 525.525 1185.2 525.302 1185.37 525.138C1185.53 524.974 1185.75 524.883 1185.98 524.883L1236.51 524.917C1237.64 524.917 1238.2 525.49 1238.2 526.638V779.772C1238.2 780.228 1238.02 780.666 1237.7 780.989C1237.37 781.312 1236.93 781.493 1236.48 781.493L1185.81 781.46C1184.88 781.459 1183.97 781.249 1183.15 780.845C1182.32 780.441 1181.6 779.855 1181.05 779.13C1143.15 729.915 1105.53 681.048 1068.19 632.53C1059.28 620.918 1052.8 607.922 1047.13 594.284C1045.62 590.661 1045.06 590.808 1045.44 594.723C1046.35 603.905 1047.4 613.323 1047.4 622.335C1047.44 679.427 1047.49 731.827 1047.53 779.535C1047.53 780.818 1046.89 781.46 1045.61 781.46H995.985C994.86 781.46 994.297 780.897 994.297 779.772V526.604C994.297 525.479 994.86 524.917 995.985 524.917H1049.96C1050.75 524.917 1051.53 525.1 1052.24 525.451C1052.95 525.802 1053.57 526.312 1054.05 526.942C1090.87 575.415 1127.39 623.213 1163.63 670.336C1172.68 682.117 1179.09 694.978 1184.9 708.784C1186.99 713.802 1187.6 713.622 1186.72 708.244Z" fill="#133C6C"/>
<path d="M1331.34 728.497L1314.12 780.447C1314.02 780.752 1313.83 781.018 1313.57 781.206C1313.31 781.395 1312.99 781.495 1312.67 781.493L1255.82 781.426C1255.58 781.425 1255.33 781.365 1255.12 781.251C1254.9 781.136 1254.71 780.971 1254.57 780.768C1254.43 780.566 1254.34 780.332 1254.32 780.088C1254.29 779.844 1254.32 779.597 1254.4 779.367L1351.22 525.862C1351.33 525.574 1351.53 525.327 1351.78 525.152C1352.03 524.977 1352.33 524.883 1352.64 524.883L1414.79 524.917C1415.1 524.917 1415.4 525.011 1415.65 525.186C1415.9 525.36 1416.1 525.608 1416.21 525.895L1514.54 779.468C1514.63 779.698 1514.66 779.945 1514.63 780.189C1514.6 780.434 1514.52 780.667 1514.38 780.869C1514.24 781.072 1514.05 781.238 1513.83 781.352C1513.61 781.467 1513.37 781.527 1513.13 781.527L1452.33 781.426C1452.02 781.425 1451.72 781.332 1451.47 781.157C1451.21 780.982 1451.02 780.734 1450.91 780.447L1430.89 728.463C1430.78 728.176 1430.59 727.928 1430.34 727.753C1430.08 727.578 1429.78 727.485 1429.47 727.484L1332.79 727.45C1332.47 727.449 1332.16 727.549 1331.89 727.737C1331.63 727.925 1331.44 728.191 1331.34 728.497ZM1371.14 613.694C1363.38 636.67 1355.64 659.242 1347.95 681.408C1347.45 682.848 1347.97 683.568 1349.5 683.568L1415.6 683.501C1415.82 683.501 1416.04 683.45 1416.23 683.35C1416.43 683.25 1416.6 683.105 1416.73 682.927C1416.85 682.749 1416.94 682.543 1416.97 682.325C1417 682.108 1416.99 681.886 1416.92 681.678C1408.03 656.204 1398.89 629.953 1389.5 602.926C1386.57 594.419 1384.91 585.846 1383.73 576.833C1382.94 570.914 1382 570.892 1380.9 576.765C1378.6 589.007 1375.35 601.317 1371.14 613.694Z" fill="#133C6C"/>
<path d="M1832.99 524.883H1779.38C1778.8 524.883 1778.34 525.351 1778.34 525.929V780.447C1778.34 781.025 1778.8 781.493 1779.38 781.493H1832.99C1833.57 781.493 1834.04 781.025 1834.04 780.447V525.929C1834.04 525.351 1833.57 524.883 1832.99 524.883Z" fill="#133C6C"/>
<path d="M2233.7 593.643C2234.64 603.5 2235.65 613.491 2235.65 623.314C2235.72 674.735 2235.77 726.663 2235.79 779.097C2235.79 780.672 2235 781.46 2233.43 781.46H2184.27C2183.15 781.46 2182.59 780.897 2182.59 779.772V526.604C2182.59 525.479 2183.15 524.917 2184.27 524.917H2238.15C2238.94 524.917 2239.72 525.1 2240.43 525.451C2241.14 525.802 2241.75 526.312 2242.24 526.942C2279.35 575.505 2316.38 624.001 2353.33 672.429C2361.19 682.713 2368.03 695.484 2373.86 710.741C2374.04 711.237 2374.37 711.439 2374.84 711.349C2374.95 711.327 2375.05 711.282 2375.14 711.214C2375.35 711.057 2375.42 710.854 2375.38 710.606C2374.47 703.349 2373.35 695.518 2373.35 688.26C2373.35 633.666 2373.33 579.837 2373.29 526.773C2373.26 525.513 2373.88 524.883 2375.14 524.883L2424.8 524.917C2425.93 524.917 2426.49 525.479 2426.49 526.604V779.772C2426.49 780.228 2426.31 780.666 2425.99 780.989C2425.68 781.312 2425.25 781.493 2424.8 781.493L2374.2 781.46C2373.24 781.459 2372.3 781.24 2371.44 780.819C2370.58 780.398 2369.82 779.786 2369.23 779.029C2332.51 731.321 2294.62 682.072 2255.57 631.281C2246.86 619.939 2240.55 606.504 2234.88 593.339C2233.84 590.886 2233.45 590.988 2233.7 593.643Z" fill="#133C6C"/>
<path d="M2621.17 727.484L2524.45 727.45C2524.13 727.449 2523.82 727.549 2523.56 727.737C2523.3 727.925 2523.1 728.191 2523 728.497L2505.99 780.413C2505.89 780.719 2505.69 780.985 2505.43 781.173C2505.17 781.361 2504.86 781.461 2504.54 781.46H2447.49C2447.24 781.459 2447 781.399 2446.78 781.285C2446.56 781.17 2446.38 781.004 2446.24 780.802C2446.1 780.599 2446.01 780.366 2445.98 780.122C2445.95 779.878 2445.98 779.63 2446.07 779.4L2542.89 525.862C2543 525.574 2543.19 525.327 2543.44 525.152C2543.7 524.977 2544 524.883 2544.3 524.883L2606.49 524.984C2606.79 524.984 2607.09 525.078 2607.35 525.253C2607.6 525.428 2607.8 525.675 2607.9 525.963L2706.21 779.434C2706.3 779.664 2706.33 779.912 2706.3 780.156C2706.27 780.4 2706.18 780.633 2706.04 780.836C2705.9 781.038 2705.71 781.204 2705.5 781.318C2705.28 781.433 2705.04 781.493 2704.79 781.493L2644.03 781.46C2643.72 781.459 2643.42 781.365 2643.17 781.191C2642.91 781.016 2642.72 780.768 2642.61 780.481L2622.59 728.463C2622.48 728.176 2622.29 727.928 2622.03 727.753C2621.78 727.578 2621.48 727.485 2621.17 727.484ZM2539.14 682.522C2538.91 683.197 2539.16 683.534 2539.88 683.534L2607.7 683.568C2607.89 683.569 2608.08 683.523 2608.25 683.436C2608.42 683.348 2608.56 683.221 2608.67 683.066C2608.78 682.91 2608.85 682.73 2608.88 682.541C2608.9 682.352 2608.88 682.16 2608.82 681.982C2598.82 653.807 2589.5 627.039 2580.83 601.677C2578.18 593.846 2576.34 585.159 2575.33 575.618C2574.9 571.364 2574.12 571.297 2573 575.415C2570.33 585.407 2568.75 595.871 2565.47 605.66C2557.35 629.942 2548.57 655.562 2539.14 682.522Z" fill="#133C6C"/>
<path d="M2779.5 734.271L2865.18 734.169C2865.46 734.169 2865.74 734.283 2865.94 734.486C2866.14 734.688 2866.26 734.963 2866.26 735.249L2866.16 780.381C2866.16 780.667 2866.04 780.942 2865.84 781.145C2865.64 781.347 2865.36 781.461 2865.08 781.461H2723.8C2723.51 781.461 2723.24 781.347 2723.04 781.145C2722.83 780.942 2722.72 780.667 2722.72 780.381V525.998C2722.72 525.712 2722.83 525.437 2723.04 525.234C2723.24 525.032 2723.51 524.918 2723.8 524.918H2777.34C2777.63 524.918 2777.9 525.032 2778.1 525.234C2778.31 525.437 2778.42 525.712 2778.42 525.998V733.19C2778.42 733.477 2778.53 733.752 2778.74 733.954C2778.94 734.157 2779.21 734.271 2779.5 734.271Z" fill="#133C6C"/>
<path d="M2992.41 527.28C2992.41 527.019 2992.47 526.76 2992.57 526.518C2992.67 526.276 2992.81 526.057 2993 525.872C2993.18 525.687 2993.4 525.54 2993.64 525.44C2993.89 525.34 2994.14 525.289 2994.41 525.289L3095.95 525.086C3111.95 525.055 3127.81 528.098 3142.6 534.042C3157.4 539.987 3170.85 548.716 3182.18 559.731C3193.52 570.746 3202.52 583.831 3208.67 598.24C3214.82 612.648 3217.99 628.097 3218.02 643.704V662.742C3218.07 694.248 3205.29 724.486 3182.49 746.806C3159.69 769.126 3128.73 781.7 3096.42 781.764L2994.88 781.967C2994.62 781.967 2994.36 781.915 2994.12 781.815C2993.87 781.715 2993.65 781.568 2993.47 781.383C2993.29 781.198 2993.14 780.979 2993.04 780.737C2992.94 780.496 2992.89 780.237 2992.89 779.975L2992.41 527.28ZM3048.49 573.053V733.257C3048.49 733.436 3048.56 733.608 3048.68 733.735C3048.81 733.861 3048.98 733.932 3049.16 733.932H3091.06C3109.96 733.932 3128.08 726.624 3141.45 713.615C3154.81 700.606 3162.32 682.962 3162.32 664.565V641.746C3162.32 623.348 3154.81 605.704 3141.45 592.695C3128.08 579.686 3109.96 572.378 3091.06 572.378H3049.16C3048.98 572.378 3048.81 572.449 3048.68 572.576C3048.56 572.702 3048.49 572.874 3048.49 573.053Z" fill="#133C6C"/>
<path d="M3308.39 671.215L3308.46 733.055C3308.46 733.351 3308.58 733.634 3308.79 733.843C3309 734.052 3309.28 734.169 3309.58 734.169L3403.66 734.237C3403.96 734.237 3404.24 734.354 3404.45 734.563C3404.66 734.772 3404.77 735.055 3404.77 735.351L3404.6 780.381C3404.6 780.527 3404.58 780.672 3404.52 780.807C3404.46 780.942 3404.38 781.065 3404.28 781.168C3404.18 781.272 3404.05 781.354 3403.92 781.41C3403.78 781.466 3403.64 781.495 3403.49 781.495L3253.84 781.461C3253.55 781.461 3253.26 781.344 3253.05 781.135C3252.84 780.926 3252.73 780.642 3252.73 780.347V526.032C3252.73 525.736 3252.84 525.453 3253.05 525.244C3253.26 525.035 3253.55 524.918 3253.84 524.918H3403.52C3403.67 524.918 3403.82 524.947 3403.95 525.003C3404.09 525.059 3404.21 525.141 3404.31 525.244C3404.42 525.348 3404.5 525.47 3404.55 525.606C3404.61 525.741 3404.64 525.886 3404.64 526.032L3404.67 571.062C3404.67 571.208 3404.64 571.353 3404.59 571.488C3404.53 571.623 3404.45 571.746 3404.35 571.85C3404.24 571.953 3404.12 572.035 3403.98 572.091C3403.85 572.147 3403.7 572.176 3403.56 572.176H3309.47C3309.18 572.176 3308.9 572.293 3308.69 572.502C3308.48 572.711 3308.36 572.994 3308.36 573.29L3308.5 621.695C3308.5 621.991 3308.61 622.274 3308.82 622.483C3309.03 622.692 3309.31 622.809 3309.61 622.809H3403.56C3403.7 622.809 3403.85 622.838 3403.98 622.894C3404.12 622.95 3404.24 623.032 3404.35 623.136C3404.45 623.239 3404.53 623.362 3404.59 623.497C3404.64 623.632 3404.67 623.777 3404.67 623.923L3404.64 668.953C3404.64 669.1 3404.61 669.244 3404.55 669.38C3404.5 669.515 3404.42 669.638 3404.31 669.741C3404.21 669.844 3404.09 669.927 3403.95 669.983C3403.82 670.038 3403.67 670.067 3403.52 670.067L3309.51 670.101C3309.21 670.101 3308.93 670.218 3308.72 670.427C3308.51 670.636 3308.39 670.92 3308.39 671.215Z" fill="#133C6C"/>
<path d="M2365.83 867.771L2312.63 929.51C2312.51 929.639 2312.37 929.741 2312.21 929.811C2312.06 929.881 2311.89 929.916 2311.71 929.916L2287.78 929.983C2287.57 929.985 2287.36 929.931 2287.18 929.828C2286.99 929.726 2286.84 929.577 2286.73 929.396C2286.62 929.216 2286.56 929.01 2286.56 928.799C2286.55 928.588 2286.6 928.38 2286.7 928.194L2320.12 866.523C2320.22 866.332 2320.37 866.173 2320.56 866.06C2320.74 865.947 2320.95 865.886 2321.17 865.881L2364.92 865.746C2365.15 865.745 2365.38 865.812 2365.58 865.939C2365.78 866.066 2365.93 866.248 2366.03 866.463C2366.13 866.677 2366.16 866.915 2366.12 867.147C2366.09 867.379 2365.98 867.596 2365.83 867.771Z" fill="#133C6C"/>
<path d="M2171.85 1125.77H2113.38C2112.93 1125.77 2112.5 1125.59 2112.19 1125.27C2111.87 1124.96 2111.69 1124.53 2111.69 1124.08L2111.66 1080.2C2111.66 1079.05 2112.23 1078.48 2113.38 1078.48L2227.25 1078.51C2228.73 1078.51 2229.51 1079.25 2229.58 1080.74C2230.64 1106.84 2227.29 1128.82 2219.55 1146.66C2193.39 1207.02 2138.6 1225.52 2076.86 1213.9C2055.07 1209.81 2035.27 1200.03 2017.44 1184.57C1981.59 1153.48 1968.8 1109.77 1974.33 1063.45C1980.24 1014.21 2014 974.239 2060.11 957.766C2076.5 951.937 2095.29 949.383 2116.49 950.103C2157.17 951.521 2189.51 969.85 2214.52 1000.94C2215.56 1002.22 2215.42 1003.37 2214.12 1004.38L2180.43 1030.81C2180.21 1030.98 2179.97 1031.1 2179.7 1031.18C2179.44 1031.25 2179.17 1031.27 2178.9 1031.23C2178.63 1031.2 2178.37 1031.11 2178.13 1030.97C2177.89 1030.84 2177.69 1030.66 2177.52 1030.44C2155.51 1002.33 2126.38 992.444 2090.12 1000.77C2059.54 1007.77 2040.09 1027.03 2031.79 1058.56C2024.36 1086.71 2030.51 1121.28 2049.41 1142.51C2062.49 1157.18 2078.99 1165.75 2098.93 1168.2C2127.76 1171.71 2171.61 1164.45 2174.18 1128.27C2174.29 1126.6 2173.52 1125.77 2171.85 1125.77Z" fill="#133C6C"/>
<path d="M1051.21 1054.88L1145.03 1054.85C1145.18 1054.85 1145.34 1054.88 1145.48 1054.94C1145.62 1055 1145.75 1055.08 1145.86 1055.19C1145.97 1055.3 1146.06 1055.43 1146.12 1055.58C1146.18 1055.72 1146.21 1055.87 1146.21 1056.03V1100.99C1146.21 1101.15 1146.18 1101.3 1146.12 1101.44C1146.06 1101.59 1145.97 1101.72 1145.86 1101.83C1145.75 1101.94 1145.62 1102.02 1145.48 1102.08C1145.34 1102.14 1145.18 1102.17 1145.03 1102.17L1051.18 1102.14C1051.02 1102.14 1050.87 1102.17 1050.73 1102.23C1050.58 1102.29 1050.45 1102.37 1050.34 1102.48C1050.23 1102.59 1050.15 1102.72 1050.09 1102.87C1050.03 1103.01 1050 1103.16 1050 1103.32V1165.16C1050 1165.47 1050.12 1165.77 1050.34 1165.99C1050.57 1166.22 1050.87 1166.34 1051.18 1166.34L1145.03 1166.24C1145.18 1166.24 1145.34 1166.27 1145.48 1166.33C1145.62 1166.39 1145.75 1166.48 1145.86 1166.59C1145.97 1166.7 1146.06 1166.83 1146.12 1166.97C1146.18 1167.11 1146.21 1167.27 1146.21 1167.42L1146.28 1212.38C1146.28 1212.7 1146.15 1213 1145.93 1213.22C1145.71 1213.44 1145.41 1213.57 1145.09 1213.57L995.478 1213.53C995.323 1213.53 995.17 1213.5 995.026 1213.44C994.883 1213.38 994.753 1213.29 994.643 1213.19C994.533 1213.08 994.446 1212.95 994.387 1212.8C994.327 1212.66 994.297 1212.5 994.297 1212.35V958.17C994.297 958.015 994.327 957.861 994.387 957.718C994.446 957.574 994.533 957.444 994.643 957.334C994.753 957.225 994.883 957.138 995.026 957.078C995.17 957.019 995.323 956.988 995.478 956.988H1145.03C1145.18 956.988 1145.34 957.019 1145.48 957.078C1145.62 957.138 1145.75 957.225 1145.86 957.334C1145.97 957.444 1146.06 957.574 1146.12 957.718C1146.18 957.861 1146.21 958.015 1146.21 958.17L1146.28 1003.06C1146.28 1003.38 1146.15 1003.68 1145.93 1003.9C1145.71 1004.12 1145.41 1004.25 1145.09 1004.25H1051.08C1050.76 1004.25 1050.46 1004.37 1050.24 1004.59C1050.02 1004.81 1049.9 1005.11 1049.9 1005.43L1050.03 1053.7C1050.03 1053.85 1050.06 1054.01 1050.12 1054.15C1050.18 1054.29 1050.27 1054.42 1050.38 1054.53C1050.49 1054.64 1050.62 1054.73 1050.76 1054.79C1050.9 1054.85 1051.06 1054.88 1051.21 1054.88Z" fill="#133C6C"/>
<path d="M1264.23 1025.01C1265.62 1032.68 1266.38 1039.61 1266.49 1045.8C1267.03 1074.43 1267.15 1129.75 1266.86 1211.78C1266.86 1212.97 1266.27 1213.57 1265.07 1213.57L1215.41 1213.53C1214.29 1213.53 1213.73 1212.97 1213.73 1211.85V958.679C1213.73 957.531 1214.29 956.957 1215.41 956.957L1269.36 956.991C1270.14 956.99 1270.9 957.169 1271.6 957.514C1272.3 957.86 1272.9 958.362 1273.38 958.982C1308.33 1004.87 1344.47 1052.14 1381.81 1100.79C1391.19 1113.04 1397.91 1125.74 1404.12 1139.88C1406.64 1145.59 1407.36 1145.38 1406.28 1139.24C1405.37 1134.04 1404.6 1128.4 1404.56 1123.14C1404.43 1069.28 1404.38 1014.5 1404.43 958.78C1404.43 957.565 1405.03 956.957 1406.25 956.957L1455.94 956.991C1457.07 956.991 1457.63 957.553 1457.63 958.679L1457.66 1212.69C1457.66 1212.92 1457.57 1213.15 1457.41 1213.31C1457.24 1213.48 1457.02 1213.57 1456.79 1213.57L1404.76 1213.53C1403.17 1213.53 1401.88 1212.9 1400.92 1211.64C1360.32 1159.12 1320.48 1107.37 1281.41 1056.4C1277.11 1050.8 1272.4 1040.79 1267.27 1026.39C1267.09 1025.87 1266.74 1025.51 1266.22 1025.31L1264.6 1024.67C1264.29 1024.54 1264.16 1024.65 1264.23 1025.01Z" fill="#133C6C"/>
<path d="M1587.8 1054.88H1681.95C1682.23 1054.88 1682.5 1054.99 1682.69 1055.19C1682.89 1055.38 1683 1055.65 1683 1055.93L1682.93 1101.09C1682.93 1101.37 1682.82 1101.63 1682.63 1101.83C1682.43 1102.03 1682.16 1102.14 1681.89 1102.14H1587.77C1587.63 1102.14 1587.49 1102.16 1587.37 1102.22C1587.24 1102.27 1587.13 1102.35 1587.03 1102.44C1586.93 1102.54 1586.85 1102.66 1586.8 1102.78C1586.75 1102.91 1586.72 1103.05 1586.72 1103.18L1586.76 1165.23C1586.76 1165.36 1586.78 1165.5 1586.84 1165.63C1586.89 1165.75 1586.97 1165.87 1587.06 1165.97C1587.16 1166.06 1587.27 1166.14 1587.4 1166.19C1587.53 1166.25 1587.66 1166.27 1587.8 1166.27H1681.99C1682.27 1166.27 1682.53 1166.38 1682.73 1166.58C1682.92 1166.78 1683.03 1167.04 1683.03 1167.32L1683 1212.52C1683 1212.8 1682.89 1213.06 1682.69 1213.26C1682.5 1213.45 1682.23 1213.57 1681.95 1213.57L1532.1 1213.53C1531.82 1213.53 1531.56 1213.42 1531.36 1213.22C1531.16 1213.03 1531.05 1212.76 1531.05 1212.48V958.035C1531.05 957.757 1531.16 957.491 1531.36 957.295C1531.56 957.099 1531.82 956.988 1532.1 956.988H1681.95C1682.23 956.988 1682.5 957.099 1682.69 957.295C1682.89 957.491 1683 957.757 1683 958.035V1003.17C1683 1003.44 1682.89 1003.71 1682.69 1003.91C1682.5 1004.1 1682.23 1004.21 1681.95 1004.21L1587.77 1004.25C1587.63 1004.25 1587.49 1004.27 1587.37 1004.33C1587.24 1004.38 1587.13 1004.46 1587.03 1004.55C1586.93 1004.65 1586.85 1004.77 1586.8 1004.89C1586.75 1005.02 1586.72 1005.16 1586.72 1005.29L1586.76 1053.83C1586.76 1053.97 1586.78 1054.11 1586.84 1054.23C1586.89 1054.36 1586.97 1054.48 1587.06 1054.57C1587.16 1054.67 1587.27 1054.75 1587.4 1054.8C1587.53 1054.85 1587.66 1054.88 1587.8 1054.88Z" fill="#133C6C"/>
<path d="M1808.11 1100.76C1806.83 1098.53 1806.19 1098.7 1806.19 1101.26V1212.69C1806.19 1212.91 1806.1 1213.13 1805.94 1213.29C1805.78 1213.44 1805.57 1213.53 1805.34 1213.53H1751.33C1751.1 1213.53 1750.89 1213.44 1750.73 1213.29C1750.57 1213.13 1750.48 1212.91 1750.48 1212.69V957.936C1750.48 957.721 1750.57 957.515 1750.72 957.363C1750.87 957.211 1751.08 957.126 1751.29 957.126C1784.76 956.766 1816.44 956.833 1846.32 957.328C1857.69 957.531 1869.65 960.006 1882.21 964.755C1905.37 973.554 1918.88 990.161 1922.75 1014.58C1928.56 1051.3 1914.28 1084.79 1877.18 1097.11C1874.55 1097.95 1871.58 1097.92 1868.94 1098.87C1867.7 1099.29 1867.43 1100.06 1868.13 1101.16L1937.37 1212.39C1937.44 1212.51 1937.47 1212.64 1937.47 1212.77C1937.47 1212.91 1937.44 1213.04 1937.37 1213.16C1937.31 1213.28 1937.21 1213.37 1937.1 1213.44C1936.99 1213.5 1936.86 1213.54 1936.73 1213.53H1874.55C1873.15 1213.53 1872.1 1212.93 1871.41 1211.71L1808.11 1100.76ZM1806.02 1002.46L1805.88 1067.2C1805.88 1067.52 1806.01 1067.82 1806.23 1068.04C1806.45 1068.26 1806.75 1068.38 1807.06 1068.38L1830.12 1068.45C1835.06 1068.46 1839.95 1067.75 1844.52 1066.34C1849.09 1064.94 1853.24 1062.88 1856.74 1060.28C1860.24 1057.68 1863.01 1054.58 1864.91 1051.18C1866.81 1047.78 1867.79 1044.12 1867.79 1040.43V1029.5C1867.81 1022.05 1863.86 1014.9 1856.82 1009.62C1849.78 1004.34 1840.23 1001.37 1830.26 1001.35L1807.2 1001.28C1806.88 1001.28 1806.58 1001.4 1806.36 1001.62C1806.14 1001.85 1806.02 1002.15 1806.02 1002.46Z" fill="#133C6C"/>
<path d="M2341.96 956.988H2288.22C2287.68 956.988 2287.24 957.427 2287.24 957.967V1212.55C2287.24 1213.09 2287.68 1213.53 2288.22 1213.53H2341.96C2342.5 1213.53 2342.94 1213.09 2342.94 1212.55V957.967C2342.94 957.427 2342.5 956.988 2341.96 956.988Z" fill="#133C6C"/>
<path d="M2443.47 1213.53H2387C2386.72 1213.54 2386.44 1213.47 2386.19 1213.34C2385.95 1213.21 2385.73 1213.02 2385.57 1212.8C2385.41 1212.57 2385.31 1212.3 2385.28 1212.02C2385.24 1211.75 2385.28 1211.47 2385.38 1211.2L2482.06 958.071C2482.18 957.742 2482.41 957.459 2482.7 957.26C2482.99 957.061 2483.33 956.955 2483.68 956.957L2545.53 956.991C2545.88 956.989 2546.22 957.095 2546.51 957.294C2546.8 957.493 2547.02 957.776 2547.15 958.105L2645.38 1211.2C2645.49 1211.47 2645.53 1211.75 2645.5 1212.03C2645.46 1212.32 2645.36 1212.59 2645.2 1212.82C2645.04 1213.05 2644.83 1213.24 2644.58 1213.37C2644.33 1213.51 2644.05 1213.57 2643.76 1213.57L2583.44 1213.5C2583.08 1213.5 2582.74 1213.4 2582.45 1213.2C2582.16 1213 2581.94 1212.72 2581.82 1212.39L2561.9 1160.67C2561.77 1160.34 2561.55 1160.06 2561.26 1159.86C2560.97 1159.66 2560.63 1159.56 2560.28 1159.56L2463.86 1159.52C2463.5 1159.52 2463.14 1159.63 2462.84 1159.85C2462.55 1160.06 2462.32 1160.36 2462.21 1160.71L2445.13 1212.35C2445.01 1212.7 2444.79 1213 2444.49 1213.21C2444.2 1213.43 2443.84 1213.54 2443.47 1213.53ZM2502.45 1044.11C2494.26 1068.82 2486.3 1092.2 2478.58 1114.26C2478.53 1114.42 2478.51 1114.58 2478.54 1114.75C2478.56 1114.91 2478.62 1115.07 2478.72 1115.2C2478.81 1115.34 2478.94 1115.45 2479.09 1115.52C2479.23 1115.6 2479.4 1115.64 2479.56 1115.64H2546.23C2547.72 1115.64 2548.21 1114.94 2547.72 1113.55C2539.14 1088.55 2530.68 1064.3 2522.33 1040.81C2518.26 1029.37 2515.53 1017.41 2514.13 1004.92C2514.09 1004.61 2513.93 1004.4 2513.66 1004.28C2513.55 1004.24 2513.43 1004.21 2513.32 1004.21C2512.8 1004.28 2512.49 1004.58 2512.37 1005.09C2509.94 1018.55 2506.64 1031.56 2502.45 1044.11Z" fill="#133C6C"/>
<path d="M1509.49 1320.03L1519.24 1302.01C1519.34 1301.83 1519.48 1301.68 1519.65 1301.57C1519.82 1301.47 1520.02 1301.41 1520.22 1301.4L1531.73 1301.23C1531.96 1301.22 1532.18 1301.28 1532.37 1301.4C1532.56 1301.52 1532.72 1301.7 1532.81 1301.9C1532.9 1302.11 1532.94 1302.34 1532.9 1302.56C1532.86 1302.78 1532.76 1302.99 1532.61 1303.15L1516.85 1321.05C1516.65 1321.28 1516.37 1321.42 1516.07 1321.45L1510.53 1321.72C1510.33 1321.73 1510.13 1321.68 1509.96 1321.58C1509.78 1321.49 1509.63 1321.35 1509.52 1321.18C1509.42 1321.01 1509.36 1320.81 1509.35 1320.61C1509.35 1320.41 1509.39 1320.21 1509.49 1320.03Z" fill="#133C6C"/>
<path d="M1050.67 1382.24L1035.55 1382.68C1033.5 1382.73 1032.47 1381.73 1032.44 1379.68L1032.41 1371.27C1032.41 1369.61 1033.23 1368.78 1034.87 1368.78H1068.53C1068.94 1368.77 1069.33 1368.93 1069.63 1369.22C1069.93 1369.5 1070.1 1369.89 1070.12 1370.29C1073.33 1434.33 976.068 1421.4 989.807 1361.48C991.698 1353.2 996.413 1346.27 1003.95 1340.69C1022.55 1326.92 1047.26 1328.94 1064.28 1344.2C1064.51 1344.41 1064.69 1344.67 1064.8 1344.96C1064.91 1345.25 1064.95 1345.56 1064.91 1345.87C1064.88 1346.18 1064.77 1346.47 1064.59 1346.73C1064.42 1346.98 1064.18 1347.19 1063.91 1347.34C1059.89 1349.53 1055.33 1352.94 1050.74 1349.8C1035.92 1339.71 1015.43 1345.72 1008.54 1359.97C1003.51 1370.43 1005.88 1385.96 1015.43 1393.42C1026.98 1402.4 1048.51 1402.26 1052.83 1384.91C1052.91 1384.59 1052.91 1384.25 1052.84 1383.93C1052.77 1383.6 1052.62 1383.3 1052.41 1383.04C1052.2 1382.79 1051.94 1382.58 1051.64 1382.44C1051.33 1382.3 1051.01 1382.23 1050.67 1382.24Z" fill="#133C6C"/>
<path d="M1104.01 1396.62L1099.29 1411.71C1099.21 1411.95 1099.06 1412.15 1098.86 1412.3C1098.66 1412.44 1098.42 1412.52 1098.17 1412.52L1081.6 1412.69C1081.4 1412.69 1081.21 1412.65 1081.04 1412.56C1080.86 1412.47 1080.72 1412.34 1080.61 1412.18C1080.5 1412.02 1080.43 1411.83 1080.41 1411.64C1080.38 1411.45 1080.41 1411.25 1080.48 1411.07L1110.8 1332.42C1110.89 1332.2 1111.04 1332.01 1111.24 1331.88C1111.44 1331.74 1111.67 1331.67 1111.91 1331.68L1130.45 1331.61C1130.68 1331.61 1130.92 1331.68 1131.12 1331.81C1131.32 1331.94 1131.47 1332.13 1131.56 1332.35L1162.58 1411.27C1162.66 1411.46 1162.68 1411.65 1162.66 1411.85C1162.64 1412.05 1162.56 1412.23 1162.45 1412.4C1162.34 1412.56 1162.18 1412.69 1162.01 1412.77C1161.83 1412.86 1161.63 1412.9 1161.44 1412.89L1143.54 1412.42C1143.31 1412.41 1143.09 1412.33 1142.9 1412.19C1142.72 1412.05 1142.58 1411.86 1142.5 1411.64L1136.83 1396.66C1136.74 1396.43 1136.58 1396.24 1136.38 1396.11C1136.18 1395.98 1135.95 1395.91 1135.71 1395.91L1105.16 1395.78C1104.9 1395.78 1104.65 1395.86 1104.44 1396.01C1104.24 1396.16 1104.09 1396.38 1104.01 1396.62ZM1119.68 1349.5C1117.52 1360.03 1113.46 1370.12 1110.09 1380.25C1109.64 1381.65 1110.15 1382.34 1111.61 1382.34L1130.68 1382.24C1130.84 1382.24 1130.99 1382.2 1131.13 1382.13C1131.27 1382.05 1131.39 1381.95 1131.48 1381.82C1131.58 1381.69 1131.64 1381.55 1131.66 1381.39C1131.69 1381.24 1131.67 1381.08 1131.63 1380.93L1121.26 1349.43C1120.63 1347.47 1120.1 1347.5 1119.68 1349.5Z" fill="#133C6C"/>
<path d="M1195.26 1378.06L1195.13 1411C1195.13 1412.08 1194.58 1412.62 1193.48 1412.62L1179.16 1412.76C1177.99 1412.78 1177.41 1412.21 1177.41 1411.04L1177.44 1334.07C1177.44 1332.66 1178.15 1331.91 1179.57 1331.85C1195.48 1330.97 1207.98 1331.48 1217.07 1333.37C1224.5 1334.92 1230.98 1341.37 1232.13 1349C1234.18 1362.41 1229 1371.24 1216.6 1375.49C1215.29 1375.92 1215 1376.73 1215.72 1377.92L1236.58 1411.95C1236.63 1412.03 1236.66 1412.13 1236.66 1412.22C1236.66 1412.32 1236.63 1412.41 1236.58 1412.49C1236.54 1412.57 1236.47 1412.64 1236.38 1412.69C1236.3 1412.74 1236.21 1412.76 1236.11 1412.76L1217.24 1412.79C1216.72 1412.79 1216.33 1412.56 1216.06 1412.08L1196.99 1377.62C1195.86 1375.55 1195.29 1375.7 1195.26 1378.06ZM1195.13 1346.26V1364.42C1195.12 1364.55 1195.15 1364.68 1195.19 1364.8C1195.24 1364.92 1195.3 1365.03 1195.39 1365.12C1195.48 1365.22 1195.59 1365.29 1195.7 1365.35C1195.82 1365.4 1195.95 1365.43 1196.07 1365.43H1204.38C1207.13 1365.44 1209.77 1364.57 1211.72 1363.02C1213.67 1361.46 1214.77 1359.34 1214.78 1357.13V1353.69C1214.78 1352.59 1214.52 1351.51 1214 1350.49C1213.48 1349.48 1212.72 1348.56 1211.77 1347.78C1210.81 1347 1209.67 1346.39 1208.41 1345.96C1207.15 1345.54 1205.81 1345.32 1204.45 1345.32H1196.14C1196.01 1345.31 1195.89 1345.33 1195.76 1345.38C1195.64 1345.42 1195.53 1345.49 1195.44 1345.58C1195.35 1345.67 1195.27 1345.77 1195.22 1345.89C1195.16 1346.01 1195.13 1346.13 1195.13 1346.26Z" fill="#133C6C"/>
<path d="M1266.15 1396.52L1261.33 1411.81C1261.26 1412.02 1261.13 1412.19 1260.95 1412.32C1260.77 1412.45 1260.56 1412.52 1260.35 1412.52L1243.37 1412.76C1243.2 1412.76 1243.03 1412.72 1242.88 1412.64C1242.73 1412.56 1242.6 1412.44 1242.51 1412.3C1242.41 1412.17 1242.35 1412 1242.33 1411.84C1242.31 1411.67 1242.33 1411.5 1242.39 1411.34L1272.87 1332.35C1272.95 1332.15 1273.08 1331.98 1273.26 1331.86C1273.43 1331.74 1273.64 1331.68 1273.85 1331.68L1292.59 1331.57C1292.8 1331.57 1293.01 1331.64 1293.18 1331.76C1293.36 1331.88 1293.49 1332.05 1293.57 1332.25L1324.72 1411.44C1324.79 1411.6 1324.81 1411.78 1324.78 1411.95C1324.76 1412.12 1324.7 1412.28 1324.6 1412.42C1324.5 1412.56 1324.36 1412.67 1324.21 1412.75C1324.06 1412.83 1323.88 1412.86 1323.71 1412.86L1305.45 1412.45C1305.24 1412.45 1305.04 1412.38 1304.87 1412.26C1304.71 1412.14 1304.58 1411.97 1304.5 1411.78L1298.8 1396.59C1298.72 1396.39 1298.59 1396.22 1298.41 1396.1C1298.24 1395.98 1298.03 1395.91 1297.82 1395.91L1267.17 1395.78C1266.94 1395.77 1266.72 1395.85 1266.54 1395.98C1266.35 1396.11 1266.22 1396.3 1266.15 1396.52ZM1281.75 1349.53C1279.35 1360.13 1275.67 1370.19 1272.1 1380.38C1272.02 1380.61 1272 1380.85 1272.03 1381.08C1272.07 1381.32 1272.15 1381.54 1272.29 1381.73C1272.42 1381.93 1272.6 1382.08 1272.81 1382.19C1273.02 1382.29 1273.25 1382.35 1273.48 1382.34L1292.72 1382.24C1292.88 1382.24 1293.03 1382.2 1293.17 1382.13C1293.31 1382.05 1293.43 1381.95 1293.52 1381.82C1293.62 1381.69 1293.68 1381.54 1293.7 1381.39C1293.73 1381.23 1293.71 1381.07 1293.67 1380.92L1283.3 1349.46C1282.7 1347.62 1282.18 1347.64 1281.75 1349.53Z" fill="#133C6C"/>
<path d="M1355.68 1355.44L1355.98 1411.61C1355.98 1411.9 1355.87 1412.17 1355.67 1412.37C1355.46 1412.58 1355.19 1412.69 1354.9 1412.69L1341.06 1412.79C1340.3 1412.79 1339.91 1412.4 1339.91 1411.61L1339.95 1333.47C1339.95 1332.14 1340.62 1331.48 1341.97 1331.51C1347.75 1331.61 1357.3 1329.89 1361.15 1335.22C1371.66 1349.76 1382.67 1364.36 1394.2 1379.04C1396.36 1381.8 1397.67 1385.11 1399.09 1388.28C1399.97 1390.24 1400.41 1390.15 1400.41 1388.01L1400.07 1332.79C1400.07 1332.65 1400.09 1332.5 1400.15 1332.37C1400.2 1332.23 1400.28 1332.11 1400.39 1332C1400.49 1331.9 1400.61 1331.82 1400.75 1331.76C1400.89 1331.71 1401.04 1331.68 1401.19 1331.68L1417.02 1331.51C1417.65 1331.51 1417.96 1331.82 1417.96 1332.45V1410.66C1417.96 1412.13 1417.23 1412.85 1415.77 1412.82L1403.48 1412.69C1401.55 1412.67 1399.96 1411.92 1398.72 1410.46C1383.48 1392.66 1369.33 1374.25 1356.25 1355.24C1355.87 1354.68 1355.68 1354.74 1355.68 1355.44Z" fill="#133C6C"/>
<path d="M1452.1 1345.18L1435.12 1345.21C1434.69 1345.21 1434.27 1345.04 1433.97 1344.74C1433.67 1344.43 1433.49 1344.02 1433.49 1343.59L1433.46 1333.23C1433.46 1332.8 1433.63 1332.39 1433.94 1332.08C1434.24 1331.78 1434.65 1331.61 1435.08 1331.61L1490.28 1331.71C1490.49 1331.71 1490.71 1331.75 1490.9 1331.84C1491.1 1331.92 1491.28 1332.04 1491.43 1332.2C1491.58 1332.35 1491.7 1332.53 1491.78 1332.73C1491.86 1332.93 1491.9 1333.15 1491.9 1333.36L1491.8 1343.59C1491.8 1343.81 1491.75 1344.02 1491.67 1344.22C1491.59 1344.42 1491.46 1344.6 1491.31 1344.75C1491.15 1344.9 1490.97 1345.02 1490.77 1345.1C1490.57 1345.18 1490.36 1345.22 1490.14 1345.21L1473.13 1345.15C1472.7 1345.15 1472.28 1345.32 1471.98 1345.62C1471.68 1345.92 1471.51 1346.34 1471.51 1346.77L1471.57 1411.1C1471.57 1411.32 1471.53 1411.53 1471.45 1411.72C1471.37 1411.92 1471.25 1412.1 1471.1 1412.25C1470.95 1412.4 1470.77 1412.52 1470.57 1412.6C1470.38 1412.68 1470.17 1412.72 1469.95 1412.72L1455.27 1412.62C1454.84 1412.62 1454.43 1412.45 1454.12 1412.15C1453.82 1411.84 1453.65 1411.43 1453.65 1411L1453.72 1346.8C1453.72 1346.37 1453.55 1345.96 1453.24 1345.65C1452.94 1345.35 1452.53 1345.18 1452.1 1345.18Z" fill="#133C6C"/>
<path d="M1524.94 1331.63L1509.14 1331.66C1508.6 1331.66 1508.16 1332.1 1508.17 1332.64L1508.3 1411.76C1508.3 1412.3 1508.74 1412.74 1509.28 1412.74L1525.08 1412.71C1525.62 1412.71 1526.06 1412.27 1526.06 1411.73L1525.92 1332.61C1525.92 1332.07 1525.48 1331.63 1524.94 1331.63Z" fill="#133C6C"/>
<path d="M1563.22 1396.73L1558.36 1411.68C1558.28 1411.95 1558.11 1412.19 1557.88 1412.36C1557.65 1412.53 1557.37 1412.62 1557.08 1412.62L1540.91 1412.69C1540.69 1412.69 1540.47 1412.64 1540.28 1412.53C1540.08 1412.43 1539.92 1412.28 1539.79 1412.1C1539.67 1411.91 1539.59 1411.7 1539.57 1411.48C1539.55 1411.26 1539.58 1411.04 1539.66 1410.84L1569.84 1332.49C1569.94 1332.23 1570.11 1332.01 1570.33 1331.86C1570.55 1331.7 1570.82 1331.61 1571.09 1331.61L1589.49 1331.54C1589.76 1331.55 1590.03 1331.63 1590.25 1331.79C1590.47 1331.94 1590.64 1332.17 1590.74 1332.42L1621.49 1411.07C1621.57 1411.28 1621.59 1411.5 1621.57 1411.72C1621.54 1411.93 1621.46 1412.14 1621.33 1412.32C1621.2 1412.5 1621.04 1412.65 1620.84 1412.75C1620.64 1412.85 1620.43 1412.9 1620.21 1412.89L1602.69 1412.42C1602.42 1412.41 1602.16 1412.32 1601.95 1412.17C1601.73 1412.01 1601.57 1411.79 1601.47 1411.54L1596.07 1396.76C1595.97 1396.5 1595.8 1396.27 1595.57 1396.12C1595.34 1395.96 1595.07 1395.88 1594.79 1395.88L1564.51 1395.78C1564.22 1395.78 1563.94 1395.87 1563.71 1396.04C1563.48 1396.21 1563.31 1396.45 1563.22 1396.73ZM1579.33 1349.53L1569.27 1380.52C1569.2 1380.73 1569.19 1380.96 1569.23 1381.18C1569.26 1381.39 1569.35 1381.6 1569.47 1381.78C1569.6 1381.95 1569.77 1382.1 1569.96 1382.2C1570.15 1382.29 1570.37 1382.35 1570.58 1382.35L1589.08 1382.28C1590.5 1382.26 1590.98 1381.58 1590.53 1380.25L1580.37 1349.53C1580.01 1348.48 1579.66 1348.48 1579.33 1349.53Z" fill="#133C6C"/>
<path d="M1676.52 1333.36C1676.52 1332.92 1676.7 1332.49 1677.01 1332.17C1677.33 1331.85 1677.76 1331.68 1678.21 1331.68L1709.74 1331.74C1720.12 1331.76 1730.07 1335.81 1737.41 1343C1744.74 1350.19 1748.85 1359.94 1748.83 1370.09V1374.55C1748.82 1379.57 1747.8 1384.55 1745.82 1389.19C1743.85 1393.83 1740.95 1398.05 1737.31 1401.59C1733.67 1405.14 1729.35 1407.95 1724.59 1409.87C1719.84 1411.78 1714.74 1412.77 1709.6 1412.76L1678.07 1412.69C1677.62 1412.69 1677.19 1412.51 1676.88 1412.19C1676.56 1411.88 1676.38 1411.45 1676.38 1411L1676.52 1333.36ZM1694.75 1347L1694.68 1397.43C1694.68 1397.92 1694.87 1398.38 1695.21 1398.72C1695.56 1399.06 1696.02 1399.25 1696.5 1399.25L1708.32 1399.29C1711.29 1399.29 1714.23 1398.73 1716.98 1397.62C1719.72 1396.51 1722.22 1394.89 1724.32 1392.84C1726.43 1390.79 1728.09 1388.35 1729.24 1385.67C1730.38 1382.99 1730.97 1380.12 1730.97 1377.21V1367.36C1730.98 1361.49 1728.6 1355.86 1724.37 1351.71C1720.13 1347.56 1714.38 1345.22 1708.39 1345.21L1696.57 1345.18C1696.09 1345.18 1695.62 1345.37 1695.28 1345.71C1694.94 1346.05 1694.75 1346.52 1694.75 1347Z" fill="#133C6C"/>
<path d="M1787.65 1365.37L1815.3 1365.5C1815.51 1365.51 1815.72 1365.55 1815.92 1365.64C1816.11 1365.72 1816.29 1365.85 1816.44 1366C1816.58 1366.15 1816.7 1366.33 1816.78 1366.53C1816.85 1366.73 1816.89 1366.94 1816.89 1367.16L1816.58 1377.32C1816.57 1377.73 1816.39 1378.13 1816.09 1378.42C1815.78 1378.71 1815.38 1378.87 1814.96 1378.87L1787.55 1379C1787.12 1379 1786.71 1379.17 1786.41 1379.48C1786.1 1379.78 1785.93 1380.19 1785.93 1380.62L1785.9 1397.47C1785.9 1397.9 1786.07 1398.31 1786.37 1398.61C1786.68 1398.92 1787.09 1399.09 1787.52 1399.09L1814.9 1399.19C1815.31 1399.19 1815.72 1399.35 1816.02 1399.64C1816.32 1399.93 1816.5 1400.32 1816.52 1400.74L1816.96 1410.97C1816.96 1411.19 1816.93 1411.41 1816.85 1411.61C1816.77 1411.82 1816.66 1412 1816.51 1412.16C1816.35 1412.32 1816.17 1412.44 1815.97 1412.53C1815.77 1412.61 1815.55 1412.66 1815.33 1412.66L1769.83 1412.73C1769.62 1412.73 1769.41 1412.68 1769.21 1412.6C1769.01 1412.52 1768.83 1412.4 1768.68 1412.25C1768.53 1412.1 1768.41 1411.92 1768.33 1411.73C1768.25 1411.53 1768.21 1411.32 1768.21 1411.11L1768.14 1333.26C1768.14 1332.84 1768.31 1332.42 1768.62 1332.12C1768.92 1331.82 1769.33 1331.64 1769.76 1331.64L1814.96 1331.68C1815.39 1331.68 1815.79 1331.84 1816.1 1332.14C1816.4 1332.44 1816.57 1332.84 1816.58 1333.26L1816.72 1343.49C1816.72 1343.71 1816.68 1343.92 1816.61 1344.12C1816.53 1344.32 1816.41 1344.51 1816.26 1344.66C1816.11 1344.81 1815.93 1344.94 1815.73 1345.02C1815.53 1345.1 1815.31 1345.15 1815.1 1345.15L1787.55 1345.25C1787.12 1345.25 1786.71 1345.42 1786.41 1345.72C1786.1 1346.03 1785.93 1346.44 1785.93 1346.87L1786.07 1363.78C1786.07 1364.2 1786.24 1364.6 1786.54 1364.89C1786.84 1365.19 1787.23 1365.36 1787.65 1365.37Z" fill="#133C6C"/>
<path d="M1884.81 1400.78L1884.71 1411.04C1884.71 1411.47 1884.54 1411.88 1884.23 1412.18C1883.93 1412.49 1883.52 1412.66 1883.09 1412.66H1840.72C1840.29 1412.66 1839.88 1412.49 1839.58 1412.18C1839.27 1411.88 1839.1 1411.47 1839.1 1411.04V1333.26C1839.1 1332.84 1839.27 1332.42 1839.58 1332.12C1839.88 1331.82 1840.29 1331.64 1840.72 1331.64H1855C1855.21 1331.64 1855.43 1331.69 1855.62 1331.77C1855.82 1331.85 1856 1331.97 1856.15 1332.12C1856.3 1332.27 1856.42 1332.45 1856.5 1332.64C1856.58 1332.84 1856.62 1333.05 1856.62 1333.26L1856.89 1397.57C1856.89 1398 1857.06 1398.41 1857.37 1398.72C1857.67 1399.02 1858.08 1399.19 1858.51 1399.19L1883.19 1399.16C1883.62 1399.16 1884.03 1399.33 1884.34 1399.63C1884.64 1399.93 1884.81 1400.35 1884.81 1400.78Z" fill="#133C6C"/>
<path d="M1939.7 1333.77C1939.7 1333.26 1939.9 1332.77 1940.26 1332.41C1940.62 1332.05 1941.11 1331.85 1941.62 1331.85L1972.64 1331.71C1977.8 1331.69 1982.92 1332.65 1987.69 1334.52C1992.47 1336.4 1996.81 1339.15 2000.47 1342.64C2004.13 1346.12 2007.04 1350.26 2009.03 1354.82C2011.02 1359.38 2012.06 1364.27 2012.07 1369.21V1374.88C2012.11 1384.87 2008 1394.45 2000.66 1401.54C1993.31 1408.62 1983.33 1412.62 1972.91 1412.66L1941.89 1412.79C1941.38 1412.79 1940.89 1412.59 1940.53 1412.23C1940.17 1411.87 1939.97 1411.38 1939.97 1410.87L1939.7 1333.77ZM1958.09 1346.6V1397.7C1958.09 1398.1 1958.25 1398.48 1958.53 1398.75C1958.81 1399.03 1959.18 1399.19 1959.58 1399.19H1971.39C1977.46 1399.19 1983.29 1396.87 1987.58 1392.73C1991.87 1388.6 1994.28 1382.99 1994.28 1377.15V1367.15C1994.28 1361.31 1991.87 1355.7 1987.58 1351.57C1983.29 1347.43 1977.46 1345.11 1971.39 1345.11H1959.58C1959.18 1345.11 1958.81 1345.27 1958.53 1345.55C1958.25 1345.83 1958.09 1346.2 1958.09 1346.6Z" fill="#133C6C"/>
<path d="M2050.77 1399.19L2078.35 1399.12C2078.78 1399.12 2079.19 1399.29 2079.49 1399.6C2079.8 1399.9 2079.97 1400.31 2079.97 1400.74L2080.1 1411.07C2080.1 1411.28 2080.06 1411.49 2079.98 1411.69C2079.9 1411.89 2079.78 1412.07 2079.63 1412.22C2079.48 1412.37 2079.3 1412.49 2079.1 1412.57C2078.9 1412.65 2078.69 1412.69 2078.48 1412.69H2033.18C2032.75 1412.69 2032.34 1412.52 2032.03 1412.22C2031.73 1411.91 2031.56 1411.5 2031.56 1411.07L2031.42 1333.23C2031.42 1332.8 2031.59 1332.39 2031.9 1332.08C2032.2 1331.78 2032.61 1331.61 2033.04 1331.61L2078.68 1331.68C2078.9 1331.68 2079.11 1331.72 2079.31 1331.8C2079.51 1331.89 2079.69 1332.01 2079.84 1332.16C2079.99 1332.32 2080.11 1332.5 2080.19 1332.7C2080.27 1332.9 2080.31 1333.12 2080.3 1333.33L2080.14 1343.59C2080.13 1344.02 2079.95 1344.42 2079.65 1344.72C2079.35 1345.01 2078.94 1345.18 2078.51 1345.18H2051C2050.58 1345.18 2050.17 1345.35 2049.87 1345.64C2049.56 1345.94 2049.39 1346.34 2049.38 1346.77L2049.18 1363.78C2049.17 1363.99 2049.21 1364.21 2049.29 1364.41C2049.37 1364.61 2049.49 1364.79 2049.64 1364.95C2049.79 1365.1 2049.97 1365.22 2050.17 1365.31C2050.37 1365.39 2050.58 1365.43 2050.8 1365.43L2078.35 1365.4C2078.77 1365.4 2079.18 1365.56 2079.48 1365.86C2079.78 1366.16 2079.96 1366.56 2079.97 1366.99L2080.1 1377.25C2080.11 1377.46 2080.07 1377.68 2079.99 1377.88C2079.91 1378.08 2079.79 1378.26 2079.64 1378.41C2079.49 1378.57 2079.31 1378.69 2079.11 1378.77C2078.91 1378.86 2078.7 1378.9 2078.48 1378.9L2050.93 1378.97C2050.51 1378.97 2050.1 1379.13 2049.8 1379.43C2049.5 1379.73 2049.32 1380.13 2049.31 1380.56L2049.14 1397.53C2049.14 1397.75 2049.18 1397.96 2049.26 1398.16C2049.34 1398.37 2049.46 1398.55 2049.61 1398.7C2049.76 1398.86 2049.94 1398.98 2050.14 1399.06C2050.34 1399.15 2050.55 1399.19 2050.77 1399.19Z" fill="#133C6C"/>
<path d="M2117.2 1349.67C2116.63 1350.46 2116.22 1351.36 2116.02 1352.31C2115.81 1353.26 2115.81 1354.24 2116.01 1355.2C2116.2 1356.15 2116.6 1357.05 2117.16 1357.84C2117.73 1358.64 2118.45 1359.3 2119.29 1359.8C2133.47 1368.2 2159.3 1373.03 2151.26 1396.69C2144.41 1416.91 2109.5 1417.79 2097.76 1402.19C2097.47 1401.8 2097.32 1401.32 2097.33 1400.84C2097.34 1400.35 2097.52 1399.89 2097.82 1399.53L2105.49 1390.58C2106.21 1389.73 2106.87 1389.77 2107.48 1390.72C2113.04 1399.4 2120.74 1401.42 2130.6 1396.76C2131.55 1396.3 2132.4 1395.66 2133.09 1394.86C2133.79 1394.06 2134.31 1393.14 2134.63 1392.13C2134.95 1391.12 2135.06 1390.06 2134.95 1389.01C2134.85 1387.96 2134.53 1386.95 2134.01 1386.03C2130.84 1380.32 2116.39 1374.24 2110.25 1371.21C2100.89 1366.55 2095.56 1357.1 2099.24 1346.84C2105.52 1329.32 2137.66 1326.58 2148.53 1340.56C2149.61 1341.95 2149.47 1343.21 2148.12 1344.34L2141.13 1350.28C2140.88 1350.49 2140.58 1350.65 2140.27 1350.74C2139.95 1350.83 2139.61 1350.86 2139.28 1350.82C2138.96 1350.78 2138.64 1350.67 2138.35 1350.5C2138.07 1350.33 2137.82 1350.11 2137.62 1349.84C2132.83 1343.29 2121.52 1343.73 2117.2 1349.67Z" fill="#133C6C"/>
<path d="M2187.86 1396.62L2182.79 1411.88C2182.71 1412.11 2182.56 1412.32 2182.37 1412.46C2182.17 1412.61 2181.92 1412.69 2181.68 1412.69L2165.17 1412.52C2164.98 1412.52 2164.79 1412.48 2164.62 1412.39C2164.45 1412.3 2164.31 1412.17 2164.2 1412.02C2164.09 1411.86 2164.02 1411.68 2163.99 1411.49C2163.97 1411.3 2163.99 1411.11 2164.06 1410.93L2194.47 1332.45C2194.56 1332.23 2194.71 1332.04 2194.91 1331.91C2195.11 1331.78 2195.35 1331.71 2195.59 1331.71L2214.09 1331.57C2214.32 1331.57 2214.56 1331.64 2214.76 1331.77C2214.96 1331.91 2215.11 1332.1 2215.2 1332.32L2246.19 1411.24C2246.26 1411.42 2246.29 1411.61 2246.27 1411.81C2246.25 1412 2246.18 1412.19 2246.07 1412.35C2245.96 1412.51 2245.81 1412.64 2245.64 1412.73C2245.46 1412.82 2245.27 1412.86 2245.08 1412.86L2227.32 1412.49C2227.09 1412.48 2226.86 1412.41 2226.67 1412.28C2226.47 1412.15 2226.33 1411.96 2226.24 1411.74L2220.4 1396.55C2220.31 1396.33 2220.16 1396.14 2219.96 1396.01C2219.76 1395.88 2219.52 1395.81 2219.28 1395.81H2188.97C2188.72 1395.81 2188.48 1395.89 2188.28 1396.04C2188.08 1396.18 2187.93 1396.39 2187.86 1396.62ZM2215.5 1381.3L2204.8 1349.5C2204.46 1348.53 2204.14 1348.54 2203.82 1349.53L2193.63 1380.89C2193.57 1381.06 2193.56 1381.23 2193.59 1381.4C2193.62 1381.57 2193.68 1381.73 2193.79 1381.87C2193.89 1382.01 2194.02 1382.12 2194.18 1382.2C2194.33 1382.27 2194.5 1382.31 2194.67 1382.31L2214.79 1382.28C2214.91 1382.28 2215.03 1382.25 2215.13 1382.2C2215.24 1382.14 2215.33 1382.06 2215.4 1381.97C2215.47 1381.87 2215.52 1381.76 2215.53 1381.64C2215.55 1381.53 2215.54 1381.41 2215.5 1381.3Z" fill="#133C6C"/>
<path d="M2275.45 1378.06L2275.39 1411C2275.39 1412.11 2274.84 1412.66 2273.73 1412.66L2259.39 1412.73C2258.93 1412.73 2258.49 1412.54 2258.17 1412.22C2257.85 1411.9 2257.66 1411.46 2257.66 1411L2257.7 1334.01C2257.7 1332.52 2258.44 1331.76 2259.93 1331.71C2271.18 1331.4 2281.69 1331.57 2291.46 1332.22C2317.79 1334.01 2320.59 1367.86 2296.76 1375.53C2295.36 1375.95 2295.06 1376.79 2295.84 1378.03L2316.94 1411.78C2317 1411.87 2317.03 1411.97 2317.03 1412.07C2317.03 1412.17 2317.01 1412.27 2316.96 1412.36C2316.91 1412.45 2316.84 1412.52 2316.76 1412.57C2316.67 1412.63 2316.57 1412.66 2316.47 1412.66L2297.63 1412.79C2297.03 1412.79 2296.59 1412.53 2296.32 1412.02L2277.31 1377.59C2276.07 1375.34 2275.45 1375.49 2275.45 1378.06ZM2275.39 1346.33V1364.49C2275.39 1364.62 2275.42 1364.74 2275.47 1364.86C2275.53 1364.98 2275.6 1365.08 2275.7 1365.17C2275.79 1365.26 2275.9 1365.33 2276.02 1365.37C2276.14 1365.42 2276.27 1365.44 2276.4 1365.43H2284.87C2286.21 1365.43 2287.54 1365.21 2288.77 1364.78C2290.01 1364.36 2291.13 1363.73 2292.07 1362.95C2293.02 1362.17 2293.76 1361.24 2294.27 1360.21C2294.78 1359.19 2295.04 1358.1 2295.03 1357V1353.69C2295.03 1351.46 2293.94 1349.32 2292.02 1347.75C2290.11 1346.18 2287.51 1345.31 2284.81 1345.32H2276.33C2276.2 1345.32 2276.08 1345.35 2275.96 1345.4C2275.84 1345.46 2275.74 1345.53 2275.65 1345.63C2275.56 1345.72 2275.49 1345.83 2275.45 1345.95C2275.4 1346.07 2275.38 1346.2 2275.39 1346.33Z" fill="#133C6C"/>
<path d="M2353.1 1378.06L2353.07 1411.07C2353.05 1412.24 2352.46 1412.81 2351.31 1412.79L2337 1412.66C2335.9 1412.63 2335.35 1412.07 2335.35 1410.97L2335.31 1333.97C2335.31 1332.64 2335.98 1331.92 2337.3 1331.81C2351.98 1330.6 2364.74 1331.23 2375.59 1333.7C2392.53 1337.58 2394.86 1359.73 2383.62 1370.39C2380.99 1372.86 2377.41 1373.94 2374.44 1375.86C2373.43 1376.51 2373.23 1377.36 2373.86 1378.39L2394.22 1411.68C2394.27 1411.77 2394.3 1411.87 2394.3 1411.98C2394.3 1412.08 2394.28 1412.18 2394.23 1412.28C2394.17 1412.37 2394.1 1412.44 2394.01 1412.5C2393.92 1412.55 2393.82 1412.58 2393.71 1412.59L2375.79 1412.76C2374.78 1412.76 2374.03 1412.32 2373.56 1411.44L2355.06 1377.58C2353.76 1375.22 2353.1 1375.38 2353.1 1378.06ZM2353 1346.97V1363.51C2353 1363.76 2353.04 1364.01 2353.14 1364.25C2353.23 1364.48 2353.37 1364.7 2353.54 1364.88C2353.72 1365.06 2353.93 1365.21 2354.16 1365.31C2354.39 1365.41 2354.64 1365.46 2354.89 1365.47H2361.61C2363.08 1365.47 2364.54 1365.23 2365.9 1364.77C2367.26 1364.31 2368.5 1363.63 2369.55 1362.77C2370.59 1361.91 2371.42 1360.89 2371.99 1359.77C2372.55 1358.64 2372.85 1357.44 2372.85 1356.22V1354.39C2372.86 1351.93 2371.69 1349.57 2369.59 1347.82C2367.5 1346.07 2364.65 1345.09 2361.68 1345.08H2354.96C2354.71 1345.07 2354.46 1345.12 2354.22 1345.21C2353.99 1345.3 2353.77 1345.44 2353.59 1345.62C2353.41 1345.79 2353.26 1346 2353.16 1346.23C2353.06 1346.47 2353.01 1346.71 2353 1346.97Z" fill="#133C6C"/>
<path d="M2493.84 1372.26C2493.83 1377.58 2492.68 1382.84 2490.47 1387.75C2488.25 1392.67 2485.01 1397.13 2480.93 1400.88C2476.84 1404.63 2471.99 1407.61 2466.66 1409.64C2461.33 1411.66 2455.62 1412.7 2449.85 1412.69C2444.08 1412.68 2438.37 1411.62 2433.05 1409.58C2427.72 1407.53 2422.89 1404.54 2418.81 1400.77C2414.74 1397 2411.51 1392.53 2409.32 1387.61C2407.12 1382.69 2405.99 1377.43 2406 1372.11C2406.01 1366.79 2407.15 1361.52 2409.37 1356.61C2411.59 1351.7 2414.83 1347.24 2418.91 1343.49C2423 1339.73 2427.85 1336.76 2433.18 1334.73C2438.51 1332.7 2444.22 1331.67 2449.99 1331.68C2455.76 1331.69 2461.47 1332.74 2466.79 1334.79C2472.12 1336.83 2476.95 1339.83 2481.03 1343.59C2485.1 1347.36 2488.32 1351.83 2490.52 1356.75C2492.72 1361.67 2493.85 1366.94 2493.84 1372.26ZM2449.03 1399.41C2452.49 1399.52 2455.93 1398.92 2459.17 1397.66C2462.4 1396.39 2465.37 1394.48 2467.89 1392.03C2470.41 1389.58 2472.45 1386.64 2473.87 1383.39C2475.3 1380.13 2476.09 1376.61 2476.2 1373.04C2476.43 1365.83 2473.88 1358.83 2469.1 1353.57C2464.32 1348.32 2457.72 1345.24 2450.74 1345.02C2447.28 1344.91 2443.84 1345.51 2440.6 1346.78C2437.37 1348.04 2434.4 1349.95 2431.88 1352.4C2429.36 1354.85 2427.32 1357.79 2425.9 1361.05C2424.47 1364.3 2423.68 1367.82 2423.57 1371.39C2423.34 1378.6 2425.9 1385.61 2430.67 1390.86C2435.45 1396.12 2442.05 1399.19 2449.03 1399.41Z" fill="#133C6C"/>
<path d="M2529.93 1399.09L2555.15 1399.26C2555.32 1399.26 2555.49 1399.29 2555.65 1399.36C2555.81 1399.42 2555.96 1399.52 2556.08 1399.64C2556.2 1399.76 2556.3 1399.91 2556.36 1400.07C2556.43 1400.23 2556.46 1400.4 2556.46 1400.57L2556.5 1411.34C2556.5 1411.69 2556.36 1412.03 2556.11 1412.27C2555.87 1412.52 2555.53 1412.66 2555.18 1412.66L2512.24 1412.76C2511.89 1412.76 2511.56 1412.62 2511.31 1412.37C2511.06 1412.13 2510.92 1411.79 2510.92 1411.44L2510.79 1332.86C2510.79 1332.69 2510.82 1332.52 2510.89 1332.36C2510.96 1332.2 2511.05 1332.05 2511.17 1331.93C2511.3 1331.81 2511.44 1331.71 2511.6 1331.64C2511.76 1331.58 2511.93 1331.54 2512.11 1331.54L2527.26 1331.71C2527.61 1331.71 2527.95 1331.85 2528.19 1332.1C2528.44 1332.34 2528.58 1332.68 2528.58 1333.03L2528.61 1397.77C2528.61 1398.12 2528.75 1398.46 2529 1398.7C2529.25 1398.95 2529.58 1399.09 2529.93 1399.09Z" fill="#133C6C"/>
<path d="M2593.86 1399.19L2619.42 1399.16C2619.72 1399.16 2620.01 1399.28 2620.23 1399.49C2620.44 1399.71 2620.57 1400 2620.57 1400.3L2620.73 1411.48C2620.73 1411.78 2620.61 1412.07 2620.4 1412.29C2620.18 1412.5 2619.89 1412.62 2619.59 1412.62L2576.14 1412.76C2575.84 1412.76 2575.54 1412.64 2575.33 1412.42C2575.11 1412.21 2574.99 1411.92 2574.99 1411.61L2575.03 1332.79C2575.03 1332.49 2575.15 1332.2 2575.36 1331.98C2575.58 1331.77 2575.87 1331.64 2576.17 1331.64L2591.63 1331.68C2591.94 1331.68 2592.23 1331.8 2592.45 1332.01C2592.66 1332.23 2592.78 1332.52 2592.78 1332.83L2592.72 1398.04C2592.72 1398.35 2592.84 1398.64 2593.05 1398.85C2593.27 1399.07 2593.56 1399.19 2593.86 1399.19Z" fill="#133C6C"/>
<path d="M2716.58 1372.41C2716.52 1383.15 2711.85 1393.42 2703.58 1400.96C2695.32 1408.51 2684.14 1412.72 2672.51 1412.66C2660.88 1412.6 2649.75 1408.27 2641.57 1400.64C2633.39 1393.01 2628.82 1382.69 2628.88 1371.95C2628.93 1361.22 2633.61 1350.95 2641.87 1343.4C2650.13 1335.86 2661.31 1331.65 2672.94 1331.71C2684.57 1331.77 2695.7 1336.1 2703.88 1343.73C2712.07 1351.36 2716.63 1361.68 2716.58 1372.41ZM2671.12 1399.45C2678.11 1399.85 2684.97 1397.37 2690.2 1392.55C2695.43 1387.74 2698.6 1380.98 2699.01 1373.77C2699.43 1366.56 2697.06 1359.48 2692.41 1354.09C2687.77 1348.71 2681.24 1345.46 2674.26 1345.06C2667.28 1344.65 2660.42 1347.13 2655.19 1351.95C2649.96 1356.76 2646.79 1363.52 2646.37 1370.73C2645.96 1377.95 2648.33 1385.02 2652.97 1390.41C2657.61 1395.79 2664.14 1399.04 2671.12 1399.45Z" fill="#133C6C"/>
<path d="M2791.11 1354.43C2791.13 1355.7 2791.52 1356.93 2792.22 1357.99C2792.92 1359.05 2793.9 1359.89 2795.06 1360.4C2803.46 1364.12 2811.07 1367.9 2817.88 1371.75C2828.32 1377.65 2830.48 1391.32 2824.53 1400.91C2814.75 1416.67 2783.42 1416.98 2772.78 1402.09C2772.18 1401.21 2772.22 1400.37 2772.92 1399.56L2780.28 1390.89C2781.22 1389.78 2782.11 1389.82 2782.94 1390.99C2788.98 1399.65 2796.75 1401.44 2806.27 1396.35C2807.74 1395.58 2808.89 1394.32 2809.54 1392.79C2810.19 1391.26 2810.3 1389.55 2809.85 1387.95C2809.04 1384.96 2807 1382.61 2803.74 1380.93C2796.47 1377.15 2789.62 1373.48 2783.18 1369.92C2767.65 1361.38 2770.99 1341.1 2786.66 1334.75C2799.91 1329.39 2811.63 1330.54 2821.8 1338.19C2824.88 1340.49 2824.96 1342.9 2822.04 1345.42L2817.14 1349.67C2815.41 1351.15 2813.74 1351.08 2812.15 1349.43C2806.24 1343.32 2790.98 1343.29 2791.11 1354.43Z" fill="#133C6C"/>
<path d="M2929.29 1372.41C2929.23 1383.16 2924.55 1393.43 2916.28 1400.99C2908.01 1408.54 2896.83 1412.75 2885.19 1412.69C2879.43 1412.66 2873.72 1411.58 2868.41 1409.52C2863.1 1407.45 2858.28 1404.44 2854.22 1400.66C2850.16 1396.88 2846.96 1392.4 2844.78 1387.47C2842.6 1382.55 2841.49 1377.27 2841.52 1371.95C2841.57 1361.21 2846.25 1350.93 2854.52 1343.38C2862.79 1335.82 2873.97 1331.62 2885.61 1331.68C2891.38 1331.71 2897.08 1332.78 2902.39 1334.85C2907.7 1336.91 2912.53 1339.92 2916.58 1343.7C2920.64 1347.49 2923.85 1351.97 2926.03 1356.89C2928.21 1361.82 2929.31 1367.09 2929.29 1372.41ZM2883.6 1399.4C2887.05 1399.63 2890.51 1399.15 2893.79 1398C2897.07 1396.84 2900.1 1395.03 2902.7 1392.67C2905.31 1390.31 2907.44 1387.44 2908.98 1384.23C2910.52 1381.02 2911.44 1377.53 2911.67 1373.96C2911.91 1370.39 2911.47 1366.81 2910.37 1363.43C2909.26 1360.04 2907.53 1356.92 2905.26 1354.23C2902.98 1351.54 2900.22 1349.35 2897.12 1347.77C2894.03 1346.19 2890.66 1345.26 2887.21 1345.04C2883.76 1344.81 2880.29 1345.28 2877.01 1346.44C2873.74 1347.59 2870.71 1349.4 2868.1 1351.76C2865.49 1354.12 2863.36 1356.99 2861.82 1360.2C2860.28 1363.41 2859.36 1366.9 2859.13 1370.47C2858.89 1374.04 2859.34 1377.62 2860.44 1381.01C2861.54 1384.39 2863.27 1387.52 2865.55 1390.2C2867.82 1392.89 2870.58 1395.08 2873.68 1396.66C2876.78 1398.24 2880.15 1399.17 2883.6 1399.4Z" fill="#133C6C"/>
<path d="M2954.87 1390.38C2967.94 1410.19 2993.39 1391.79 2977.29 1381.84C2965.07 1374.28 2939.11 1367.39 2946.47 1346.87C2952.81 1329.18 2984.98 1326.41 2996.02 1340.62C2996.92 1341.79 2996.82 1342.86 2995.72 1343.83L2988.39 1350.21C2987.2 1351.24 2986.08 1351.19 2985.02 1350.04C2980.13 1344.68 2974.12 1343.67 2966.99 1347C2966.1 1347.42 2965.32 1348.04 2964.72 1348.82C2964.11 1349.59 2963.7 1350.49 2963.51 1351.46C2960.14 1368.71 3008.58 1364.38 2998.99 1395.78C2992.28 1417.72 2956.49 1417.62 2944.24 1401.14C2944.04 1400.85 2944.05 1400.57 2944.27 1400.3L2953.25 1390.28C2953.36 1390.16 2953.49 1390.07 2953.63 1390.01C2953.77 1389.96 2953.93 1389.93 2954.09 1389.94C2954.24 1389.95 2954.39 1389.99 2954.53 1390.07C2954.66 1390.15 2954.78 1390.25 2954.87 1390.38Z" fill="#133C6C"/>
<path d="M3028.8 1345.21H3011.79C3011.37 1345.21 3010.97 1345.05 3010.67 1344.76C3010.36 1344.47 3010.18 1344.08 3010.17 1343.66L3009.83 1333.3C3009.82 1333.08 3009.86 1332.86 3009.93 1332.66C3010.01 1332.45 3010.13 1332.27 3010.28 1332.11C3010.43 1331.95 3010.61 1331.82 3010.81 1331.74C3011.01 1331.65 3011.23 1331.61 3011.45 1331.61L3066.71 1331.71C3066.93 1331.71 3067.14 1331.75 3067.34 1331.84C3067.54 1331.92 3067.72 1332.04 3067.87 1332.2C3068.02 1332.35 3068.14 1332.53 3068.22 1332.73C3068.3 1332.93 3068.34 1333.15 3068.33 1333.36L3068.2 1343.59C3068.19 1344.02 3068.01 1344.42 3067.71 1344.72C3067.41 1345.01 3067 1345.18 3066.58 1345.18H3049.6C3049.17 1345.18 3048.75 1345.35 3048.45 1345.65C3048.15 1345.96 3047.98 1346.37 3047.98 1346.8L3048.15 1411.07C3048.15 1411.5 3047.97 1411.91 3047.67 1412.22C3047.37 1412.52 3046.95 1412.69 3046.52 1412.69H3031.81C3031.38 1412.69 3030.96 1412.52 3030.66 1412.22C3030.36 1411.91 3030.19 1411.5 3030.19 1411.07L3030.42 1346.83C3030.42 1346.62 3030.38 1346.41 3030.3 1346.21C3030.22 1346.02 3030.1 1345.84 3029.95 1345.69C3029.8 1345.54 3029.62 1345.42 3029.42 1345.34C3029.23 1345.25 3029.01 1345.21 3028.8 1345.21Z" fill="#133C6C"/>
<path d="M3102.5 1380.59L3102.4 1397.5C3102.4 1397.71 3102.44 1397.92 3102.52 1398.12C3102.6 1398.32 3102.72 1398.5 3102.87 1398.65C3103.02 1398.8 3103.2 1398.92 3103.4 1399C3103.59 1399.08 3103.81 1399.12 3104.02 1399.12L3131.67 1399.19C3132.1 1399.19 3132.51 1399.36 3132.81 1399.66C3133.12 1399.97 3133.29 1400.38 3133.29 1400.81L3133.25 1411.1C3133.25 1411.32 3133.21 1411.53 3133.13 1411.72C3133.05 1411.92 3132.93 1412.1 3132.78 1412.25C3132.63 1412.4 3132.45 1412.52 3132.25 1412.6C3132.06 1412.68 3131.84 1412.72 3131.63 1412.72L3086.46 1412.66C3086.03 1412.66 3085.62 1412.49 3085.32 1412.18C3085.01 1411.88 3084.84 1411.47 3084.84 1411.04L3084.64 1333.23C3084.64 1332.8 3084.81 1332.39 3085.12 1332.08C3085.42 1331.78 3085.83 1331.61 3086.26 1331.61L3131.97 1331.64C3132.19 1331.64 3132.4 1331.69 3132.6 1331.77C3132.8 1331.85 3132.98 1331.98 3133.13 1332.13C3133.28 1332.28 3133.4 1332.47 3133.48 1332.67C3133.56 1332.87 3133.59 1333.08 3133.59 1333.3L3133.45 1343.56C3133.45 1343.98 3133.27 1344.39 3132.97 1344.68C3132.67 1344.98 3132.26 1345.15 3131.83 1345.15L3104.12 1345.25C3103.69 1345.25 3103.28 1345.42 3102.97 1345.72C3102.67 1346.03 3102.5 1346.44 3102.5 1346.87L3102.46 1363.85C3102.46 1364.28 3102.64 1364.69 3102.94 1364.99C3103.24 1365.3 3103.66 1365.47 3104.09 1365.47L3131.53 1365.4C3131.75 1365.39 3131.96 1365.43 3132.16 1365.51C3132.36 1365.59 3132.54 1365.71 3132.7 1365.86C3132.85 1366.01 3132.97 1366.19 3133.06 1366.39C3133.14 1366.59 3133.18 1366.8 3133.18 1367.02L3133.29 1377.28C3133.29 1377.7 3133.12 1378.11 3132.82 1378.41C3132.53 1378.72 3132.12 1378.89 3131.7 1378.9L3104.12 1378.97C3103.69 1378.97 3103.28 1379.14 3102.97 1379.44C3102.67 1379.75 3102.5 1380.16 3102.5 1380.59Z" fill="#133C6C"/>
<path d="M3215.11 1387.61C3216.17 1389.43 3216.69 1389.3 3216.67 1387.21L3216.3 1332.52C3216.3 1331.87 3216.62 1331.55 3217.27 1331.58L3233.31 1331.64C3233.53 1331.64 3233.75 1331.74 3233.91 1331.9C3234.06 1332.07 3234.15 1332.29 3234.15 1332.52V1410.94C3234.15 1411.43 3233.96 1411.9 3233.61 1412.25C3233.26 1412.6 3232.79 1412.79 3232.3 1412.79C3227.2 1412.83 3217.34 1414.11 3213.9 1409.72C3202.94 1395.7 3191.93 1381.66 3180.88 1367.59C3177.87 1363.75 3175.14 1359.62 3172.71 1355.21C3172.66 1355.09 3172.57 1355.01 3172.46 1354.95C3172.35 1354.9 3172.23 1354.89 3172.11 1354.92C3171.99 1354.95 3171.88 1355.03 3171.8 1355.13C3171.72 1355.23 3171.67 1355.35 3171.67 1355.48L3171.97 1410.87C3171.99 1412.11 3171.39 1412.73 3170.15 1412.73L3157.59 1412.66C3157.21 1412.66 3156.85 1412.51 3156.59 1412.24C3156.32 1411.98 3156.17 1411.62 3156.17 1411.24L3156.21 1333.43C3156.21 1332.15 3156.85 1331.52 3158.13 1331.54L3172.48 1331.88C3173.21 1331.9 3173.93 1332.09 3174.58 1332.43C3175.23 1332.77 3175.79 1333.25 3176.22 1333.84C3187.16 1348.8 3198.59 1363.96 3210.52 1379.31C3212.51 1381.87 3213.56 1384.88 3215.11 1387.61Z" fill="#133C6C"/>
<path d="M3273.55 1331.63L3258.43 1331.66C3257.85 1331.66 3257.38 1332.13 3257.38 1332.71L3257.52 1411.63C3257.52 1412.21 3257.99 1412.67 3258.57 1412.67L3273.69 1412.65C3274.27 1412.64 3274.74 1412.18 3274.74 1411.6L3274.6 1332.68C3274.6 1332.1 3274.13 1331.63 3273.55 1331.63Z" fill="#133C6C"/>
<path d="M3338.4 1371.78C3346.74 1373.7 3355.35 1378.33 3356.33 1387.81C3359.3 1416.2 3319.87 1413.13 3303.06 1412.62C3301.62 1412.58 3300.9 1411.84 3300.9 1410.4L3300.7 1333.5C3300.7 1332.47 3301.21 1331.91 3302.25 1331.85C3316.31 1330.97 3328.05 1331.48 3337.46 1333.37C3356.7 1337.21 3360.95 1365.94 3338.44 1370.33C3336.19 1370.78 3336.18 1371.26 3338.4 1371.78ZM3318.52 1347.17V1363.37C3318.52 1363.66 3318.58 1363.95 3318.69 1364.21C3318.8 1364.47 3318.96 1364.71 3319.16 1364.91C3319.37 1365.12 3319.61 1365.27 3319.88 1365.38C3320.14 1365.49 3320.43 1365.54 3320.71 1365.54H3326.15C3328.69 1365.53 3331.13 1364.61 3332.93 1362.99C3334.73 1361.37 3335.74 1359.18 3335.74 1356.89V1353.65C3335.74 1352.52 3335.49 1351.39 3335 1350.34C3334.52 1349.29 3333.8 1348.33 3332.91 1347.53C3332.01 1346.73 3330.95 1346.09 3329.77 1345.66C3328.6 1345.23 3327.35 1345.01 3326.08 1345.01H3320.65C3320.08 1345.02 3319.54 1345.25 3319.14 1345.66C3318.74 1346.06 3318.52 1346.61 3318.52 1347.17ZM3318.55 1380.86L3318.49 1397.27C3318.49 1397.78 3318.69 1398.28 3319.06 1398.65C3319.43 1399.02 3319.92 1399.22 3320.44 1399.22L3327.06 1399.26C3328.6 1399.26 3330.12 1399.02 3331.53 1398.53C3332.95 1398.05 3334.24 1397.34 3335.33 1396.45C3336.42 1395.55 3337.28 1394.48 3337.87 1393.31C3338.47 1392.14 3338.77 1390.88 3338.77 1389.6V1388.66C3338.78 1386.09 3337.56 1383.62 3335.37 1381.8C3333.19 1379.98 3330.22 1378.95 3327.13 1378.94L3320.51 1378.9C3320.25 1378.9 3320 1378.95 3319.76 1379.05C3319.52 1379.15 3319.31 1379.29 3319.13 1379.48C3318.94 1379.66 3318.8 1379.87 3318.7 1380.11C3318.6 1380.35 3318.55 1380.6 3318.55 1380.86Z" fill="#133C6C"/>
<path d="M3390.72 1399.22L3415.98 1399.12C3416.32 1399.12 3416.66 1399.26 3416.91 1399.5C3417.15 1399.75 3417.29 1400.09 3417.29 1400.44L3417.36 1411.31C3417.36 1411.65 3417.22 1411.99 3416.97 1412.24C3416.73 1412.48 3416.39 1412.62 3416.04 1412.62L3373.07 1412.72C3372.72 1412.72 3372.38 1412.58 3372.14 1412.34C3371.89 1412.09 3371.75 1411.76 3371.75 1411.41L3371.62 1333.06C3371.62 1332.71 3371.76 1332.38 3372 1332.13C3372.25 1331.88 3372.58 1331.74 3372.93 1331.74L3388.12 1331.57C3388.47 1331.57 3388.81 1331.71 3389.06 1331.96C3389.3 1332.21 3389.44 1332.54 3389.44 1332.89L3389.41 1397.9C3389.41 1398.25 3389.55 1398.59 3389.79 1398.84C3390.04 1399.08 3390.38 1399.22 3390.72 1399.22Z" fill="#133C6C"/>
<path d="M3455.41 1365.43L3482.72 1365.47C3483.15 1365.47 3483.56 1365.64 3483.86 1365.94C3484.17 1366.25 3484.34 1366.66 3484.34 1367.09L3484.37 1377.25C3484.37 1377.46 3484.33 1377.67 3484.25 1377.87C3484.17 1378.07 3484.05 1378.24 3483.89 1378.39C3483.74 1378.54 3483.57 1378.66 3483.37 1378.75C3483.17 1378.83 3482.96 1378.87 3482.75 1378.87L3455.2 1379C3454.77 1379 3454.36 1379.17 3454.06 1379.48C3453.75 1379.78 3453.58 1380.19 3453.58 1380.62L3453.55 1397.47C3453.55 1397.9 3453.72 1398.31 3454.02 1398.61C3454.33 1398.92 3454.74 1399.09 3455.17 1399.09L3482.72 1399.22C3483.15 1399.22 3483.56 1399.39 3483.86 1399.7C3484.17 1400 3484.34 1400.41 3484.34 1400.84L3484.4 1411.07C3484.4 1411.5 3484.23 1411.91 3483.93 1412.22C3483.62 1412.52 3483.21 1412.69 3482.78 1412.69H3437.51C3437.08 1412.69 3436.67 1412.52 3436.37 1412.22C3436.06 1411.91 3435.89 1411.5 3435.89 1411.07L3435.76 1333.26C3435.76 1332.84 3435.93 1332.42 3436.23 1332.12C3436.54 1331.82 3436.95 1331.64 3437.38 1331.64L3482.99 1331.68C3483.42 1331.68 3483.83 1331.85 3484.13 1332.15C3484.44 1332.46 3484.61 1332.87 3484.61 1333.3L3484.47 1343.56C3484.46 1343.98 3484.29 1344.38 3484 1344.67C3483.7 1344.97 3483.3 1345.14 3482.88 1345.15L3455.1 1345.21C3454.89 1345.21 3454.67 1345.26 3454.47 1345.34C3454.27 1345.42 3454.09 1345.55 3453.94 1345.7C3453.79 1345.85 3453.67 1346.04 3453.59 1346.24C3453.51 1346.44 3453.48 1346.65 3453.48 1346.87L3453.78 1363.85C3453.79 1364.27 3453.97 1364.67 3454.27 1364.97C3454.57 1365.27 3454.98 1365.43 3455.41 1365.43Z" fill="#133C6C"/>
</svg>
