<svg width="2349" height="1670" viewBox="0 0 2349 1670" fill="none" xmlns="http://www.w3.org/2000/svg">
<path d="M1361.71 107.011L1256.26 107.195C1252.52 107.202 1249.5 110.237 1249.5 113.976L1249.71 233.674C1249.72 237.412 1252.76 240.437 1256.49 240.431L1361.94 240.247C1365.68 240.24 1368.71 237.204 1368.7 233.466L1368.49 113.768C1368.48 110.03 1365.45 107.005 1361.71 107.011Z" fill="#0000B1"/>
<path d="M758.164 489.709L759.411 579.661C759.411 581.314 760.067 582.9 761.237 584.069C762.406 585.238 763.992 585.895 765.645 585.895L906.542 585.539C908.195 585.539 909.781 584.882 910.95 583.713C912.119 582.544 912.776 580.958 912.776 579.305L912.242 299.652C912.242 297.999 912.898 296.413 914.068 295.244C915.237 294.075 916.822 293.418 918.476 293.418H1031.05C1032.7 293.418 1034.29 294.075 1035.46 295.244C1036.63 296.413 1037.29 297.999 1037.29 299.652L1036.75 650.554C1036.75 652.207 1036.09 653.793 1034.92 654.962C1033.76 656.131 1032.17 656.788 1030.52 656.788H631.339C629.686 656.788 628.1 656.131 626.931 654.962C625.762 653.793 625.105 652.207 625.105 650.554L624.57 417.926C624.57 416.272 625.227 414.686 626.396 413.517C627.565 412.348 629.151 411.691 630.805 411.691L858.626 411.335C859.445 411.335 860.255 411.496 861.012 411.81C861.768 412.123 862.456 412.582 863.034 413.161C863.613 413.74 864.073 414.427 864.386 415.184C864.699 415.94 864.86 416.751 864.86 417.569L865.395 477.062C865.395 477.881 865.234 478.692 864.92 479.448C864.607 480.204 864.148 480.892 863.569 481.471C862.99 482.049 862.303 482.509 861.546 482.822C860.79 483.135 859.979 483.297 859.16 483.297L764.398 483.475C763.579 483.475 762.769 483.636 762.012 483.949C761.256 484.262 760.569 484.722 759.99 485.301C759.411 485.88 758.952 486.567 758.638 487.323C758.325 488.08 758.164 488.89 758.164 489.709Z" fill="#0000B1"/>
<path d="M1377.86 305.531H1251.39C1248.44 305.531 1246.05 307.924 1246.05 310.875V1547.4C1246.05 1550.35 1248.44 1552.74 1251.39 1552.74H1377.86C1380.81 1552.74 1383.2 1550.35 1383.2 1547.4V310.875C1383.2 307.924 1380.81 305.531 1377.86 305.531Z" fill="#0000B1"/>
<path d="M207.759 839.187L207.581 927.002C207.581 928.749 208.275 930.426 209.511 931.662C210.747 932.898 212.424 933.592 214.172 933.592L1077.01 933.414C1078.76 933.414 1080.43 932.72 1081.67 931.484C1082.9 930.248 1083.6 928.571 1083.6 926.823L1083.06 426.655C1083.06 424.907 1083.76 423.231 1084.99 421.995C1086.23 420.759 1087.91 420.065 1089.65 420.065L1184.95 419.887C1186.7 419.887 1188.38 420.581 1189.61 421.817C1190.85 423.053 1191.54 424.729 1191.54 426.477V1059.52C1191.54 1061.27 1190.85 1062.95 1189.61 1064.18C1188.38 1065.42 1186.7 1066.12 1184.95 1066.12L75.5906 1067.9C73.8427 1067.9 72.1663 1067.2 70.9304 1065.97C69.6944 1064.73 69 1063.05 69 1061.31L69.1781 701.498C69.1781 699.751 69.8725 698.074 71.1085 696.838C72.3445 695.602 74.0208 694.908 75.7687 694.908L1036.57 696.155C1038.32 696.155 1040 696.849 1041.23 698.085C1042.47 699.321 1043.16 700.997 1043.16 702.745L1042.99 826.006C1042.99 827.754 1042.29 829.43 1041.06 830.666C1039.82 831.902 1038.14 832.597 1036.39 832.597H214.35C212.602 832.597 210.925 833.291 209.689 834.527C208.453 835.763 207.759 837.439 207.759 839.187Z" fill="#0000B1"/>
<path d="M1632.75 590.349H1427.55C1421.73 590.349 1418.82 587.44 1418.82 581.621L1418.29 480.448C1418.29 474.391 1421.32 471.363 1427.37 471.363H1743.19C1751.03 471.363 1754.94 475.282 1754.94 483.119L1754.05 996.29C1754.05 999.853 1752.27 1001.57 1748.71 1001.46L1646.29 1001.28C1643.08 1001.28 1641.48 999.615 1641.48 996.29L1641.84 742.288C1641.84 736.35 1638.81 733.382 1632.75 733.382L1552.95 733.203C1542.62 733.203 1538.23 738.31 1539.77 748.522C1543.45 771.203 1543.39 793.824 1539.59 816.387C1537.93 826.836 1542.38 832.061 1552.95 832.061L1586.44 831.883C1593.92 831.764 1597.66 835.446 1597.66 842.927L1597.48 995.934C1597.48 1004.6 1593.09 1008.94 1584.3 1008.94L1429.51 1008.58C1427.81 1008.58 1426.18 1007.91 1424.98 1006.7C1423.77 1005.5 1423.1 1003.87 1423.1 1002.17L1423.28 661.776C1423.28 660.406 1423.82 659.092 1424.79 658.124C1425.76 657.155 1427.07 656.611 1428.44 656.611L1632.93 657.501C1638.63 657.501 1641.48 654.651 1641.48 648.951L1642.19 599.79C1642.19 593.496 1639.04 590.349 1632.75 590.349Z" fill="#0000B1"/>
<path d="M2095.42 1029.55L1426.74 1030.72C1423.1 1030.73 1420.15 1033.68 1420.16 1037.32L1420.34 1142.06C1420.35 1145.7 1423.3 1148.64 1426.94 1148.64L2095.62 1147.47C2099.26 1147.46 2102.21 1144.51 2102.2 1140.87L2102.02 1036.13C2102.01 1032.49 2099.06 1029.55 2095.42 1029.55Z" fill="#0000B1"/>
<path d="M2274.82 1027.38L2162.6 1027.19C2159.65 1027.18 2157.25 1029.57 2157.25 1032.52L2157.06 1141.89C2157.05 1144.84 2159.44 1147.24 2162.39 1147.24L2274.61 1147.44C2277.56 1147.44 2279.96 1145.06 2279.96 1142.1L2280.15 1032.74C2280.16 1029.79 2277.77 1027.39 2274.82 1027.38Z" fill="#0000B1"/>
<path d="M469.25 1419.86H1201.88C1203.29 1419.86 1204.65 1420.43 1205.65 1421.43C1206.66 1422.43 1207.22 1423.79 1207.22 1425.21L1206.69 1557.38C1206.69 1558.79 1206.12 1560.15 1205.12 1561.15C1204.12 1562.16 1202.76 1562.72 1201.34 1562.72L344.562 1562.9C343.145 1562.9 341.786 1562.33 340.784 1561.33C339.782 1560.33 339.219 1558.97 339.219 1557.55L339.575 1189.73C339.575 1188.31 340.138 1186.95 341.14 1185.95C342.142 1184.95 343.501 1184.39 344.919 1184.39H1199.92C1201.33 1184.39 1202.69 1184.95 1203.7 1185.95C1204.7 1186.95 1205.26 1188.31 1205.26 1189.73L1205.44 1302.66C1205.44 1304.08 1204.88 1305.44 1203.87 1306.44C1202.87 1307.44 1201.51 1308 1200.09 1308L469.606 1307.83C468.189 1307.83 466.829 1308.39 465.827 1309.39C464.825 1310.39 464.262 1311.75 464.262 1313.17L463.906 1414.52C463.906 1415.22 464.044 1415.92 464.313 1416.57C464.581 1417.21 464.975 1417.8 465.471 1418.3C465.967 1418.8 466.556 1419.19 467.205 1419.46C467.853 1419.73 468.548 1419.86 469.25 1419.86Z" fill="#0000B1"/>
<path d="M1542.8 1484.71H1817.29C1819.14 1484.71 1820.9 1485.44 1822.21 1486.74C1823.51 1488.04 1824.24 1489.81 1824.24 1491.65L1823.88 1554.53C1823.88 1556.37 1823.15 1558.14 1821.85 1559.44C1820.55 1560.74 1818.78 1561.48 1816.94 1561.48L1428.09 1561.65C1426.25 1561.65 1424.48 1560.92 1423.18 1559.62C1421.88 1558.32 1421.14 1556.55 1421.14 1554.71L1421.5 1378.37C1421.5 1376.52 1422.23 1374.76 1423.53 1373.45C1424.84 1372.15 1426.6 1371.42 1428.45 1371.42L1923.46 1371.6C1925.27 1371.6 1927.01 1370.89 1928.31 1369.63C1929.6 1368.36 1930.36 1366.64 1930.4 1364.83L1930.94 1328.85C1930.96 1327.92 1930.8 1327 1930.46 1326.13C1930.12 1325.27 1929.61 1324.48 1928.97 1323.82C1928.32 1323.16 1927.54 1322.63 1926.69 1322.27C1925.84 1321.91 1924.92 1321.72 1923.99 1321.72L1426.67 1321.55C1424.82 1321.55 1423.06 1320.81 1421.75 1319.51C1420.45 1318.21 1419.72 1316.44 1419.72 1314.6L1419.9 1210.93C1419.9 1209.09 1420.63 1207.32 1421.93 1206.02C1423.23 1204.72 1425 1203.98 1426.84 1203.98L2053.84 1204.16C2055.68 1204.16 2057.45 1204.89 2058.75 1206.2C2060.06 1207.5 2060.79 1209.27 2060.79 1211.11V1550.79C2060.79 1552.63 2060.06 1554.4 2058.75 1555.7C2057.45 1557 2055.68 1557.74 2053.84 1557.74L1935.03 1557.2C1934.11 1557.2 1933.19 1557.02 1932.33 1556.66C1931.48 1556.3 1930.7 1555.77 1930.06 1555.1C1929.41 1554.44 1928.9 1553.65 1928.56 1552.79C1928.22 1551.93 1928.06 1551 1928.09 1550.08L1930.94 1453.71C1930.96 1452.78 1930.8 1451.86 1930.46 1451C1930.12 1450.14 1929.61 1449.35 1928.97 1448.68C1928.32 1448.02 1927.54 1447.49 1926.69 1447.13C1925.84 1446.77 1924.92 1446.59 1923.99 1446.59H1542.45C1541.52 1446.59 1540.6 1446.77 1539.75 1447.13C1538.89 1447.49 1538.12 1448.02 1537.47 1448.68C1536.82 1449.35 1536.32 1450.14 1535.98 1451C1535.64 1451.86 1535.48 1452.78 1535.5 1453.71L1535.86 1477.94C1535.9 1479.75 1536.65 1481.47 1537.95 1482.73C1539.25 1484 1540.99 1484.71 1542.8 1484.71Z" fill="#0000B1"/>
</svg>
