<svg width="3074" height="1523" viewBox="0 0 3074 1523" fill="none" xmlns="http://www.w3.org/2000/svg">
<path fill-rule="evenodd" clip-rule="evenodd" d="M170 1030.11H248.479L282.958 1180.61L321.742 1030.11H397.891V1273.82H347.868V1069.73L297.996 1273.82H259.01L213.442 1069.73V1273.82H170V1030.11Z" fill="#1C4688"/>
<path fill-rule="evenodd" clip-rule="evenodd" d="M428.472 1093.69H478.85V1273.82H428.472V1093.69ZM479.255 1078.69H428.117V1029H479.255V1078.69Z" fill="#1C4688"/>
<path fill-rule="evenodd" clip-rule="evenodd" d="M505.433 1093.69H553.28V1118.26C560.571 1100.07 578.798 1088.67 598.291 1090.04C608.569 1089.64 618.746 1092.42 627.404 1097.99C634.645 1102.7 639.86 1109.9 642.087 1118.26C644.619 1130.56 645.682 1143.18 645.277 1155.74V1273.87H594.848V1155.54C594.848 1143.38 593.329 1135.88 590.241 1133.05C586.798 1130.06 582.342 1128.54 577.836 1128.74C570.799 1127.78 563.862 1131.02 560.065 1137.05C556.52 1146.98 555.052 1157.51 555.812 1168.05V1273.82H505.383L505.433 1093.69Z" fill="#1C4688"/>
<path fill-rule="evenodd" clip-rule="evenodd" d="M668.925 1093.69H719.303V1273.82H668.925V1093.69ZM719.708 1078.69H668.57V1029H719.708V1078.69Z" fill="#1C4688"/>
<path fill-rule="evenodd" clip-rule="evenodd" d="M864.563 1137.05L828.767 1147.73C824.007 1131.42 815.248 1123.27 802.438 1123.27C794.844 1122.2 787.857 1127.52 786.793 1135.12C786.591 1136.44 786.642 1137.7 786.793 1139.02C786.49 1144.24 788.667 1149.25 792.667 1152.55C800.211 1157.36 808.362 1161.06 816.919 1163.59C827.349 1167.03 837.475 1171.29 847.247 1176.41C854.032 1180.46 859.601 1186.18 863.449 1193.07C867.955 1200.82 870.234 1209.69 870.031 1218.65C870.335 1234.56 863.753 1249.81 852.007 1260.54C838.083 1272.5 820.008 1278.58 801.679 1277.46C761.073 1277.46 738.592 1259.53 734.188 1223.62L773.984 1217.18C777.325 1235.22 786.844 1244.23 802.489 1244.23C815.906 1244.23 822.59 1238.66 822.59 1227.57C822.944 1222.35 820.716 1217.34 816.717 1214.04C809.679 1209.53 801.983 1206.14 793.882 1204.06C777.73 1200.11 762.997 1191.8 751.25 1180C743.605 1170.88 739.504 1159.28 739.656 1147.38C739.048 1131.42 745.782 1116.08 757.934 1105.69C770.743 1095.05 786.996 1089.48 803.603 1090.04C832.969 1088.01 859.095 1108.22 864.563 1137.05Z" fill="#1C4688"/>
<path fill-rule="evenodd" clip-rule="evenodd" d="M893.468 1038.27L942.378 1036.65V1093.64H975.592V1133.1H942.327V1199.25C942.124 1207.21 942.428 1215.16 943.137 1223.06C943.643 1226.66 945.618 1229.95 948.504 1232.13C953.061 1234.96 958.428 1236.28 963.795 1235.77C967.592 1235.77 972.402 1235.67 978.123 1235.42V1273.66C968.048 1276.05 957.719 1277.31 947.39 1277.41C935.087 1278.17 922.834 1275.13 912.353 1268.65C904.708 1263.43 899.189 1255.68 896.81 1246.72C894.126 1232.89 892.962 1218.86 893.468 1204.77V1133.05H873.367V1093.59H893.468V1038.27Z" fill="#1C4688"/>
<path fill-rule="evenodd" clip-rule="evenodd" d="M1078.68 1162.38C1078.78 1160.3 1078.88 1158.63 1078.88 1157.46C1078.88 1134.67 1071.08 1123.27 1055.49 1123.27C1040.15 1123.27 1032.4 1136.29 1032.3 1162.38H1078.68ZM1126.17 1191.96H1031.94V1201.89C1030.78 1213.08 1033.06 1224.33 1038.48 1234.2C1042.58 1239.52 1048.91 1242.56 1055.59 1242.36C1070.78 1242.36 1079.33 1232.13 1081.21 1211.66L1126.12 1214.5C1118.17 1256.44 1094.37 1277.41 1054.78 1277.41C1033.26 1278.73 1012.5 1269.51 999.084 1252.64C985.515 1233.29 978.832 1209.94 980.047 1186.28C980.047 1155.03 986.781 1131.12 1000.25 1114.66C1013.41 1098.35 1033.46 1089.18 1054.42 1089.94C1073.82 1089.53 1092.45 1097.49 1105.56 1111.77C1119.33 1126.41 1126.17 1153.11 1126.17 1191.96Z" fill="#1C4688"/>
<path fill-rule="evenodd" clip-rule="evenodd" d="M1145.16 1093.68H1189.36V1137.15C1197.31 1106.45 1211.48 1091.1 1231.94 1091.1C1234.82 1091.15 1237.66 1091.46 1240.5 1092.01V1141.15C1237.71 1140.74 1234.93 1140.49 1232.14 1140.44C1207.74 1140.44 1195.58 1159.03 1195.58 1196.16V1273.82H1145.16V1093.68Z" fill="#1C4688"/>
<path fill-rule="evenodd" clip-rule="evenodd" d="M1246.42 1093.69H1296.8V1273.82H1246.42V1093.69ZM1297.21 1078.69H1246.07V1029H1297.21V1078.69Z" fill="#1C4688"/>
<path fill-rule="evenodd" clip-rule="evenodd" d="M1409.96 1183.75C1410.82 1168.1 1409.25 1152.4 1405.25 1137.25C1403.17 1129.96 1396.44 1124.94 1388.85 1125.14C1381.5 1124.99 1374.87 1129.65 1372.54 1136.64C1368.29 1151.99 1366.57 1167.9 1367.58 1183.8C1366.87 1199.2 1368.29 1214.6 1371.83 1229.59C1374.42 1238.92 1384.04 1244.34 1393.35 1241.8C1399.23 1240.18 1403.83 1235.57 1405.5 1229.7C1409.2 1214.6 1410.67 1199.15 1409.96 1183.75ZM1461.81 1183.65C1461.81 1246.21 1437.5 1277.46 1388.85 1277.46C1340.09 1277.46 1315.73 1246.21 1315.73 1183.65C1315.73 1121.24 1340.09 1090.04 1388.85 1090.04C1437.45 1090.04 1461.81 1121.24 1461.81 1183.65Z" fill="#1C4688"/>
<path fill-rule="evenodd" clip-rule="evenodd" d="M1625.96 1168.91C1627.02 1156.8 1625.1 1144.59 1620.39 1133.35C1617 1127.57 1610.72 1124.08 1604.03 1124.33C1596.08 1123.98 1588.95 1129.14 1586.77 1136.79C1582.82 1153.71 1581.25 1171.14 1582.21 1188.46C1581.4 1202.29 1583.12 1216.22 1587.22 1229.44C1589.55 1236.53 1596.19 1241.35 1603.68 1241.19C1609.96 1241.24 1615.93 1238.31 1619.68 1233.24C1625 1223.26 1627.22 1211.97 1626.01 1200.72L1625.96 1168.91ZM1625.96 1030.11H1675.32V1273.82H1628.59V1244.13C1621 1265.66 1607.38 1276.45 1587.73 1276.45C1569.6 1277.16 1552.79 1267.28 1544.54 1251.12C1534.21 1230.51 1529.35 1207.61 1530.31 1184.56C1530.31 1153.31 1535.73 1129.9 1546.62 1114.4C1556.14 1099.66 1572.59 1090.9 1590.16 1091.2C1604.84 1090.09 1618.82 1097.59 1625.96 1110.5V1030.11Z" fill="#1C4688"/>
<path fill-rule="evenodd" clip-rule="evenodd" d="M1792.73 1162.38C1792.83 1160.3 1792.93 1158.63 1792.93 1157.46C1792.93 1134.67 1785.14 1123.27 1769.54 1123.27C1754.2 1123.27 1746.45 1136.29 1746.35 1162.38H1792.73ZM1840.22 1191.96H1746V1201.89C1744.83 1213.08 1747.11 1224.33 1752.53 1234.2C1756.63 1239.52 1762.96 1242.56 1769.64 1242.36C1784.83 1242.36 1793.39 1232.13 1795.26 1211.66L1840.17 1214.5C1832.22 1256.44 1808.43 1277.41 1768.83 1277.41C1747.32 1278.73 1726.56 1269.51 1713.14 1252.64C1699.57 1233.29 1692.89 1209.94 1694.1 1186.28C1694.1 1155.03 1700.84 1131.12 1714.3 1114.66C1727.47 1098.35 1747.52 1089.18 1768.48 1089.94C1787.87 1089.48 1806.5 1097.44 1819.62 1111.77C1833.34 1126.41 1840.22 1153.11 1840.22 1191.96Z" fill="#1C4688"/>
<path fill-rule="evenodd" clip-rule="evenodd" d="M1893.39 1030.11H2044.93V1075.45H1995.26V1273.87H1941.95V1075.45H1893.39V1030.11Z" fill="#1C4688"/>
<path fill-rule="evenodd" clip-rule="evenodd" d="M2037.79 1093.69H2088.17V1209.43C2087.56 1217.39 2088.68 1225.39 2091.36 1232.89C2093.49 1236.84 2098.09 1238.76 2105.23 1238.76C2110.6 1239.17 2115.92 1237.4 2120.07 1233.95C2123.61 1230.36 2125.79 1225.64 2126.19 1220.63C2126.9 1214.96 2127.26 1203.36 2127.31 1185.73V1093.74H2177.69V1273.82H2129.84V1249.15C2125.18 1258.82 2117.79 1266.93 2108.62 1272.5C2100.78 1276 2092.27 1277.72 2083.71 1277.52C2073.23 1278.22 2062.8 1275.39 2054.09 1269.46C2047.46 1264.45 2042.75 1257.25 2040.78 1249.15C2038.4 1236.54 2037.39 1223.67 2037.74 1210.8L2037.79 1093.69Z" fill="#1C4688"/>
<path fill-rule="evenodd" clip-rule="evenodd" d="M2204.16 1093.68H2248.37V1137.15C2256.31 1106.45 2270.54 1091.1 2290.95 1091.1C2293.83 1091.15 2296.67 1091.46 2299.5 1092.01V1141.15C2296.72 1140.74 2293.93 1140.49 2291.15 1140.44C2266.74 1140.44 2254.59 1159.03 2254.59 1196.16V1273.82H2204.16V1093.68Z" fill="#1C4688"/>
<path fill-rule="evenodd" clip-rule="evenodd" d="M2305.42 1093.69H2355.85V1273.82H2305.42V1093.69ZM2356.21 1078.69H2305.07V1029H2356.21V1078.69Z" fill="#1C4688"/>
<path fill-rule="evenodd" clip-rule="evenodd" d="M2501.07 1137.05L2465.27 1147.73C2460.51 1131.42 2451.75 1123.27 2438.94 1123.27C2431.35 1122.2 2424.36 1127.52 2423.3 1135.12C2423.09 1136.44 2423.15 1137.7 2423.3 1139.02C2422.99 1144.24 2425.17 1149.25 2429.17 1152.55C2436.71 1157.36 2444.87 1161.06 2453.42 1163.59C2463.85 1167.03 2474.03 1171.29 2483.75 1176.41C2490.54 1180.46 2496.11 1186.18 2500 1193.07C2504.51 1200.82 2506.79 1209.69 2506.59 1218.65C2506.89 1234.56 2500.31 1249.81 2488.56 1260.54C2474.64 1272.5 2456.56 1278.58 2438.23 1277.46C2397.68 1277.46 2375.15 1259.53 2370.74 1223.62L2410.54 1217.18C2413.88 1235.22 2423.4 1244.23 2439.04 1244.23C2452.46 1244.23 2459.14 1238.66 2459.14 1227.57C2459.5 1222.35 2457.27 1217.34 2453.27 1214.04C2446.23 1209.53 2438.54 1206.14 2430.44 1204.06C2414.28 1200.11 2399.55 1191.8 2387.8 1180C2380.16 1170.88 2376.06 1159.28 2376.21 1147.38C2375.6 1131.42 2382.34 1116.08 2394.49 1105.69C2407.3 1095.05 2423.55 1089.48 2440.21 1090.04C2469.47 1088.01 2495.65 1108.22 2501.07 1137.05Z" fill="#1C4688"/>
<path fill-rule="evenodd" clip-rule="evenodd" d="M2521.22 1093.69H2569.07V1118.26C2576.05 1100.48 2593.62 1089.13 2612.71 1090.04C2631.04 1087.81 2648 1100.12 2651.54 1118.26C2658.38 1100.27 2676.15 1088.83 2695.34 1090.04C2705.11 1089.54 2714.88 1091.76 2723.49 1096.47C2730.22 1100.48 2735.34 1106.71 2738.02 1114.05C2741.52 1127.78 2742.88 1141.91 2742.12 1156.1V1273.87H2691.69V1161.11C2692.3 1152.25 2691.34 1143.38 2688.86 1134.87C2686.28 1130.46 2681.26 1128.03 2676.25 1128.79C2669.97 1127.93 2663.85 1131.12 2660.96 1136.75C2657.92 1147.13 2656.71 1158.02 2657.42 1168.81V1273.82H2607.04V1159.54C2607.65 1151.08 2606.68 1142.62 2604.3 1134.52C2602.48 1130.72 2598.28 1128.79 2591.75 1128.79C2585.17 1127.98 2578.79 1131.28 2575.65 1137.1C2572.31 1147.33 2570.94 1158.07 2571.65 1168.81V1273.82H2521.22V1093.69Z" fill="#1C4688"/>
<path fill-rule="evenodd" clip-rule="evenodd" d="M2852.4 1183.75C2853.26 1168.1 2851.69 1152.4 2847.69 1137.25C2845.61 1129.96 2838.88 1124.94 2831.28 1125.14C2823.94 1124.99 2817.31 1129.65 2814.98 1136.64C2810.68 1151.99 2809.01 1167.9 2810.02 1183.8C2809.31 1199.2 2810.73 1214.6 2814.27 1229.59C2816.85 1238.92 2826.47 1244.39 2835.79 1241.8C2841.71 1240.18 2846.32 1235.57 2847.99 1229.7C2851.64 1214.6 2853.16 1199.15 2852.4 1183.75ZM2904.24 1183.65C2904.24 1246.21 2879.94 1277.46 2831.28 1277.46C2782.53 1277.46 2758.17 1246.21 2758.17 1183.65C2758.17 1121.24 2782.53 1090.04 2831.28 1090.04C2879.94 1090.04 2904.24 1121.24 2904.24 1183.65Z" fill="#1C4688"/>
<path d="M481.061 1396.3C484.859 1394.78 488.302 1392.45 491.188 1389.47C496.301 1384.1 499.035 1376.95 498.883 1369.56C498.934 1363.78 497.364 1358.06 494.327 1353.1C491.441 1348.18 486.934 1344.33 481.618 1342.25C475.087 1340.13 468.252 1339.17 461.366 1339.47H416V1440.37H439.088V1400.51H447.239C449.012 1400.46 450.733 1400.56 452.505 1400.76C453.822 1401.12 455.087 1401.67 456.201 1402.38C457.973 1403.7 459.543 1405.32 460.859 1407.09C462.986 1409.78 465.771 1413.78 469.112 1419L482.631 1440.27H510.731L489.719 1407.2C487.188 1403.35 484.302 1399.65 481.061 1396.3ZM472.656 1363.28C474.479 1364.85 475.492 1367.18 475.39 1369.56C475.39 1371.33 474.884 1373.1 473.922 1374.57C472.91 1376.04 471.441 1377.16 469.77 1377.71C466.277 1378.78 462.682 1379.23 459.037 1379.03H439.189V1360.54H461.923C465.669 1360.24 469.467 1361.15 472.656 1363.28Z" fill="#1C4688"/>
<path d="M566.424 1399.29H615.891V1377.56H566.424V1361.2H619.283V1339.42H543.336V1440.32H621.409V1418.59H566.424V1399.29Z" fill="#1C4688"/>
<path d="M730.621 1345.5C726.621 1342.86 722.115 1341.09 717.356 1340.43C712.495 1339.72 707.584 1339.37 702.723 1339.47H663.281V1440.38H686.369V1403.8H703.786C714.824 1404.97 725.912 1401.47 734.216 1394.08C743.431 1383.69 745.608 1368.85 739.684 1356.29C737.608 1351.98 734.519 1348.23 730.621 1345.5ZM713.254 1361.81C715.077 1362.27 716.647 1363.38 717.71 1364.95C718.976 1366.82 719.634 1369.1 719.533 1371.33C719.786 1374.27 718.723 1377.16 716.596 1379.13C712.849 1381.51 708.394 1382.58 703.989 1382.02H686.369V1361.15H703.685C706.875 1361.05 710.065 1361.25 713.254 1361.81Z" fill="#1C4688"/>
<path d="M842.16 1396.86C842.16 1409.63 839.628 1414.24 838.109 1415.86C834.008 1419.1 828.793 1420.62 823.578 1420.01C820.085 1420.16 816.591 1419.4 813.452 1417.78C811.173 1416.52 809.401 1414.49 808.49 1412.06C807.022 1407.14 806.414 1401.98 806.718 1396.86V1339.42H783.63V1396.86C783.326 1405.22 784.592 1413.63 787.478 1421.48C790.161 1428.06 795.123 1433.54 801.402 1436.83C808.591 1440.37 816.591 1442.15 824.641 1441.84C832.996 1442.2 841.248 1440.17 848.539 1436.02C854.564 1432.42 859.223 1426.9 861.805 1420.37C864.336 1412.82 865.501 1404.86 865.248 1396.91V1339.42H842.16V1396.86Z" fill="#1C4688"/>
<path d="M853.709 1306.39H824.14L810.875 1334.76H831.583L853.709 1306.39Z" fill="#1C4688"/>
<path d="M977.554 1386.02C978.82 1384.75 979.883 1383.29 980.845 1381.77C983.428 1377.66 984.795 1372.9 984.795 1368.04C984.744 1362.77 983.276 1357.65 980.44 1353.25C977.554 1348.54 973.251 1344.84 968.137 1342.71C962.162 1340.38 955.783 1339.27 949.403 1339.52H910.164V1440.43H950.011C955.327 1440.53 960.643 1439.97 965.858 1438.75C970.112 1437.74 974.111 1435.92 977.656 1433.38C981.2 1430.65 984.035 1427.1 985.908 1423C988.086 1418.59 989.2 1413.73 989.149 1408.82C989.25 1402.69 987.326 1396.71 983.63 1391.85C981.909 1389.57 979.883 1387.59 977.554 1386.02ZM950.062 1418.64H933.303V1398.89H948.441C952.289 1398.74 956.087 1399.14 959.783 1400.1C961.504 1400.61 963.023 1401.72 964.086 1403.19C965.2 1404.87 965.757 1406.79 965.656 1408.77C965.707 1410.49 965.301 1412.16 964.542 1413.68C963.934 1414.84 963.074 1415.86 962.01 1416.57C960.492 1417.43 958.821 1418.04 957.099 1418.29C954.77 1418.64 952.391 1418.74 950.062 1418.64ZM960.643 1364.49C961.555 1365.96 961.96 1367.68 961.909 1369.41C962.011 1371.03 961.605 1372.6 960.694 1373.97C959.681 1375.18 958.314 1376.04 956.745 1376.4C953.555 1377.11 950.315 1377.36 947.074 1377.21H933.303V1361.2H945.606C949.606 1361 953.656 1361.3 957.555 1362.21C958.821 1362.52 959.935 1363.38 960.643 1364.49Z" fill="#1C4688"/>
<path d="M1053.5 1339.42H1030.41V1440.32H1097.6V1418.59H1053.5V1339.42Z" fill="#1C4688"/>
<path d="M1162.51 1339.47H1139.42V1440.37H1162.51V1339.47Z" fill="#1C4688"/>
<path d="M1272.89 1402.13C1272.03 1407.5 1269.39 1412.41 1265.44 1416.06C1261.7 1419.1 1256.99 1420.72 1252.18 1420.52C1247.82 1420.57 1243.57 1419.35 1239.87 1417.12C1236.13 1414.79 1233.34 1411.3 1231.87 1407.14C1229.8 1401.42 1228.79 1395.29 1228.94 1389.21C1228.94 1383.94 1229.8 1378.78 1231.47 1373.76C1232.84 1369.51 1235.52 1365.81 1239.17 1363.23C1243.32 1360.44 1248.18 1359.07 1253.14 1359.32C1257.24 1359.12 1261.29 1360.29 1264.68 1362.67C1268.18 1365.71 1270.61 1369.71 1271.77 1374.17L1273.34 1379.13L1295.77 1373.81L1294.1 1368.14C1291.77 1359.32 1286.56 1351.52 1279.32 1345.95C1271.77 1340.53 1262.66 1337.69 1253.34 1338C1244.84 1337.95 1236.43 1340.02 1228.94 1344.08C1221.39 1348.23 1215.27 1354.56 1211.42 1362.26C1207.32 1370.67 1205.29 1379.89 1205.45 1389.26C1205.39 1398.28 1207.17 1407.19 1210.61 1415.5C1213.8 1423.5 1219.37 1430.34 1226.51 1435.11C1234.51 1439.92 1243.77 1442.3 1253.09 1441.94C1262.91 1442.2 1272.48 1439.06 1280.23 1433.03C1288.03 1426.54 1293.44 1417.63 1295.57 1407.7L1296.99 1402.23L1274 1396.45L1272.89 1402.13Z" fill="#1C4688"/>
<path d="M1362.5 1339.42L1323.82 1440.32H1348.53L1358.25 1413.12H1388.22L1398.6 1440.32H1424.27L1383.16 1339.42H1362.5ZM1365.84 1392.3L1372.83 1373.51L1372.98 1373.1C1373.24 1373.76 1373.44 1374.37 1373.69 1375.03L1380.22 1392.3H1365.84Z" fill="#1C4688"/>
<path d="M1591 1348.49C1586.54 1344.74 1581.18 1342.1 1575.51 1340.89C1569.83 1339.77 1564.06 1339.32 1558.29 1339.47H1521.84V1440.38H1559.81C1565.13 1440.43 1570.39 1439.87 1575.56 1438.7C1580.01 1437.69 1584.21 1435.92 1588.06 1433.44C1591.81 1430.85 1595.05 1427.61 1597.68 1423.91C1600.77 1419.4 1603.15 1414.44 1604.62 1409.17C1606.44 1402.74 1607.35 1396.1 1607.25 1389.42C1607.35 1381.46 1606.04 1373.56 1603.35 1366.11C1600.77 1359.33 1596.52 1353.25 1591 1348.49ZM1544.82 1418.64V1361.2H1558.04C1562.54 1360.95 1567 1361.45 1571.35 1362.67C1574.95 1364.24 1577.94 1367.03 1579.81 1370.47C1582.69 1376.3 1584.01 1382.73 1583.61 1389.21C1583.71 1394.48 1583.05 1399.75 1581.53 1404.76C1580.52 1408.16 1578.75 1411.3 1576.32 1413.93C1574.64 1415.45 1572.67 1416.62 1570.49 1417.23C1566.54 1418.29 1562.44 1418.75 1558.34 1418.59L1544.82 1418.64Z" fill="#1C4688"/>
<path d="M1719.2 1344.69C1711.56 1340.18 1702.8 1337.9 1693.94 1338C1680.77 1337.59 1668.01 1342.81 1658.9 1352.38C1649.48 1363.02 1644.62 1376.95 1645.38 1391.19C1645.38 1399.8 1647.31 1408.26 1651.1 1416.01C1654.9 1423.86 1660.88 1430.5 1668.32 1435C1676.01 1439.66 1684.87 1442.04 1693.89 1441.94C1702.44 1441.99 1710.85 1439.82 1718.34 1435.71C1726.04 1431.46 1732.27 1424.97 1736.21 1417.07C1740.37 1408.71 1742.49 1399.44 1742.34 1390.12C1742.49 1380.95 1740.47 1371.89 1736.52 1363.58C1732.72 1355.68 1726.7 1349.14 1719.2 1344.69ZM1715.71 1373.31C1717.94 1378.62 1719.05 1384.3 1718.9 1390.07C1719.51 1398.33 1716.92 1406.48 1711.76 1412.97C1702.24 1422.85 1686.55 1423.15 1676.67 1413.63C1676.47 1413.42 1676.27 1413.22 1676.06 1413.02C1670.9 1406.99 1668.32 1399.24 1668.87 1391.34C1667.91 1382.42 1670.55 1373.51 1676.22 1366.57C1680.98 1361.91 1687.41 1359.32 1694.09 1359.48C1698.7 1359.38 1703.2 1360.64 1707.1 1363.07C1710.9 1365.56 1713.94 1369.1 1715.71 1373.31Z" fill="#1C4688"/>
<path d="M1831.85 1403.95L1810.33 1339.47H1782.89V1440.37H1805.52V1392.35L1821.78 1440.37H1831.6L1831.7 1440.78L1831.8 1440.37H1840.41L1857.01 1392.81V1440.37H1879.65V1339.42H1854.18L1831.85 1403.95Z" fill="#1C4688"/>
<path d="M1949.47 1339.47H1926.38V1440.37H1949.47V1339.47Z" fill="#1C4688"/>
<path d="M2054.99 1397.01L2016.56 1339.47H1995.75V1440.37H2018.38V1382.83L2056.81 1440.37H2077.62V1339.42H2054.99V1397.01Z" fill="#1C4688"/>
<path d="M2148.3 1339.47H2125.21V1440.37H2148.3V1339.47Z" fill="#1C4688"/>
<path d="M2258.68 1402.13C2257.82 1407.5 2255.23 1412.41 2251.23 1416.06C2247.54 1419.1 2242.83 1420.67 2238.02 1420.52C2233.67 1420.57 2229.41 1419.35 2225.72 1417.12C2221.97 1414.79 2219.18 1411.3 2217.72 1407.14C2215.64 1401.42 2214.63 1395.29 2214.78 1389.21C2214.78 1383.94 2215.64 1378.78 2217.31 1373.76C2218.68 1369.51 2221.36 1365.81 2225.01 1363.23C2229.16 1360.44 2234.02 1359.07 2239.03 1359.32C2243.13 1359.12 2247.18 1360.29 2250.53 1362.67C2254.02 1365.71 2256.45 1369.71 2257.61 1374.17L2259.18 1379.13L2281.61 1373.81L2279.94 1368.14C2277.61 1359.32 2272.4 1351.52 2265.16 1345.95C2257.61 1340.53 2248.5 1337.69 2239.18 1338C2230.68 1337.9 2222.27 1340.02 2214.78 1344.08C2207.24 1348.23 2201.11 1354.56 2197.26 1362.26C2193.16 1370.67 2191.08 1379.89 2191.29 1389.26C2191.24 1398.28 2193.01 1407.19 2196.45 1415.5C2199.64 1423.5 2205.21 1430.34 2212.35 1435.11C2220.35 1439.92 2229.61 1442.3 2238.93 1441.94C2248.75 1442.2 2258.32 1439.06 2266.07 1433.03C2273.87 1426.54 2279.23 1417.63 2281.41 1407.75L2282.83 1402.28L2259.84 1396.51L2258.68 1402.13Z" fill="#1C4688"/>
<path d="M2348.29 1339.42L2309.61 1440.32H2334.32L2344.04 1413.12H2374.01L2384.39 1440.32H2410.06L2369 1339.42H2348.29ZM2351.63 1392.3L2358.62 1373.51L2358.77 1373.1C2359.03 1373.76 2359.23 1374.37 2359.48 1375.03L2366.01 1392.3H2351.63Z" fill="#1C4688"/>
<path d="M2501.25 1397.01L2462.82 1339.42H2442.01V1440.32H2464.64V1382.78L2503.07 1440.32H2523.88V1339.42H2501.25V1397.01Z" fill="#1C4688"/>
<path d="M2616.39 1339.42H2595.73L2557.05 1440.32H2581.81L2591.53 1413.12H2621.5L2631.88 1440.32H2657.55L2616.39 1339.42ZM2599.02 1392.3L2606.06 1373.51L2606.21 1373.1C2606.46 1373.76 2606.67 1374.37 2606.92 1375.03L2613.45 1392.3H2599.02Z" fill="#1C4688"/>
<mask id="mask0_1766_251" style="mask-type:luminance" maskUnits="userSpaceOnUse" x="1205" y="82" width="732" height="715">
<path d="M1570.93 797C1772.66 797 1936.19 636.942 1936.19 439.5C1936.19 242.058 1772.66 82 1570.93 82C1369.2 82 1205.67 242.058 1205.67 439.5C1205.67 636.942 1369.2 797 1570.93 797Z" fill="white"/>
</mask>
<g mask="url(#mask0_1766_251)">
<path d="M1576.02 848.999C1813.19 848.999 2005.45 660.813 2005.45 428.673C2005.45 196.534 1813.19 8.34766 1576.02 8.34766C1338.84 8.34766 1146.58 196.534 1146.58 428.673C1146.58 660.813 1338.84 848.999 1576.02 848.999Z" fill="#D32027"/>
<path d="M1576.02 842.392C1809.47 842.392 1998.72 657.165 1998.72 428.677C1998.72 200.188 1809.47 14.9609 1576.02 14.9609C1342.56 14.9609 1153.31 200.188 1153.31 428.677C1153.31 657.165 1342.56 842.392 1576.02 842.392Z" fill="#D52027"/>
<path d="M1576 835.841C1805.74 835.841 1991.98 653.546 1991.98 428.673C1991.98 203.8 1805.74 21.5039 1576 21.5039C1346.27 21.5039 1160.03 203.8 1160.03 428.673C1160.03 653.546 1346.27 835.841 1576 835.841Z" fill="#D72027"/>
<path d="M1576.01 829.294C1802.07 829.294 1985.32 649.93 1985.32 428.673C1985.32 207.415 1802.07 28.0508 1576.01 28.0508C1349.96 28.0508 1166.71 207.415 1166.71 428.673C1166.71 649.93 1349.96 829.294 1576.01 829.294Z" fill="#D82827"/>
<path d="M1576.02 822.688C1798.36 822.688 1978.59 646.283 1978.59 428.676C1978.59 211.069 1798.36 34.6641 1576.02 34.6641C1353.69 34.6641 1173.45 211.069 1173.45 428.676C1173.45 646.283 1353.69 822.688 1576.02 822.688Z" fill="#D93227"/>
<path d="M1576.01 816.137C1794.63 816.137 1971.85 642.663 1971.85 428.672C1971.85 214.681 1794.63 41.207 1576.01 41.207C1357.39 41.207 1180.17 214.681 1180.17 428.672C1180.17 642.663 1357.39 816.137 1576.01 816.137Z" fill="#DC3926"/>
<path d="M1576.02 809.594C1790.95 809.594 1965.19 639.051 1965.19 428.676C1965.19 218.301 1790.95 47.7578 1576.02 47.7578C1361.09 47.7578 1186.85 218.301 1186.85 428.676C1186.85 639.051 1361.09 809.594 1576.02 809.594Z" fill="#DD4126"/>
<path d="M1576.02 802.98C1787.24 802.98 1958.46 635.396 1958.46 428.671C1958.46 221.947 1787.24 54.3633 1576.02 54.3633C1364.81 54.3633 1193.59 221.947 1193.59 428.671C1193.59 635.396 1364.81 802.98 1576.02 802.98Z" fill="#DD4826"/>
<path d="M1576.02 796.433C1783.55 796.433 1951.78 631.78 1951.78 428.671C1951.78 225.562 1783.55 60.9102 1576.02 60.9102C1368.49 60.9102 1200.25 225.562 1200.25 428.671C1200.25 631.78 1368.49 796.433 1576.02 796.433Z" fill="#E04E26"/>
<path d="M1576.02 789.89C1779.83 789.89 1945.05 628.168 1945.05 428.675C1945.05 229.182 1779.83 67.4609 1576.02 67.4609C1372.21 67.4609 1206.98 229.182 1206.98 428.675C1206.98 628.168 1372.21 789.89 1576.02 789.89Z" fill="#E25526"/>
<path d="M1576.03 783.275C1776.12 783.275 1938.33 624.513 1938.33 428.671C1938.33 232.828 1776.12 74.0664 1576.03 74.0664C1375.93 74.0664 1213.73 232.828 1213.73 428.671C1213.73 624.513 1375.93 783.275 1576.03 783.275Z" fill="#E35C25"/>
<path d="M1576.01 776.732C1772.42 776.732 1931.65 620.902 1931.65 428.675C1931.65 236.448 1772.42 80.6172 1576.01 80.6172C1379.6 80.6172 1220.38 236.448 1220.38 428.675C1220.38 620.902 1379.6 776.732 1576.01 776.732Z" fill="#E66125"/>
<path d="M1576.02 770.185C1768.72 770.185 1924.92 617.286 1924.92 428.675C1924.92 240.064 1768.72 87.1641 1576.02 87.1641C1383.33 87.1641 1227.12 240.064 1227.12 428.675C1227.12 617.286 1383.33 770.185 1576.02 770.185Z" fill="#E86724"/>
<path d="M1576.01 763.571C1764.98 763.571 1918.18 613.631 1918.18 428.67C1918.18 243.71 1764.98 93.7695 1576.01 93.7695C1387.04 93.7695 1233.84 243.71 1233.84 428.67C1233.84 613.631 1387.04 763.571 1576.01 763.571Z" fill="#E96E24"/>
<path d="M1576.02 757.028C1761.31 757.028 1911.52 610.019 1911.52 428.674C1911.52 247.329 1761.31 100.32 1576.02 100.32C1390.73 100.32 1240.52 247.329 1240.52 428.674C1240.52 610.019 1390.73 757.028 1576.02 757.028Z" fill="#EB7423"/>
<path d="M1576.02 750.481C1757.59 750.481 1904.79 606.403 1904.79 428.674C1904.79 250.945 1757.59 106.867 1576.02 106.867C1394.45 106.867 1247.26 250.945 1247.26 428.674C1247.26 606.403 1394.45 750.481 1576.02 750.481Z" fill="#ED7A23"/>
<path d="M1576.01 743.934C1753.86 743.934 1898.04 602.787 1898.04 428.674C1898.04 254.561 1753.86 113.414 1576.01 113.414C1398.15 113.414 1253.98 254.561 1253.98 428.674C1253.98 602.787 1398.15 743.934 1576.01 743.934Z" fill="#F08122"/>
<path d="M1576.02 737.323C1750.19 737.323 1891.38 599.136 1891.38 428.673C1891.38 258.211 1750.19 120.023 1576.02 120.023C1401.85 120.023 1260.66 258.211 1260.66 428.673C1260.66 599.136 1401.85 737.323 1576.02 737.323Z" fill="#F38820"/>
<path d="M1576.03 730.773C1746.48 730.773 1884.66 595.516 1884.66 428.669C1884.66 261.823 1746.48 126.566 1576.03 126.566C1405.58 126.566 1267.4 261.823 1267.4 428.669C1267.4 595.516 1405.58 730.773 1576.03 730.773Z" fill="#F7901E"/>
<path d="M1576.01 724.166C1742.75 724.166 1877.91 591.869 1877.91 428.673C1877.91 265.477 1742.75 133.18 1576.01 133.18C1409.28 133.18 1274.12 265.477 1274.12 428.673C1274.12 591.869 1409.28 724.166 1576.01 724.166Z" fill="#F8981D"/>
<path d="M1576.02 717.619C1739.07 717.619 1871.25 588.253 1871.25 428.673C1871.25 269.092 1739.07 139.727 1576.02 139.727C1412.97 139.727 1280.8 269.092 1280.8 428.673C1280.8 588.253 1412.97 717.619 1576.02 717.619Z" fill="#F99F1B"/>
<path d="M1576.03 711.072C1735.36 711.072 1864.52 584.638 1864.52 428.673C1864.52 272.708 1735.36 146.273 1576.03 146.273C1416.69 146.273 1287.53 272.708 1287.53 428.673C1287.53 584.638 1416.69 711.072 1576.03 711.072Z" fill="#FAA61A"/>
<path d="M1576.02 704.525C1731.67 704.525 1857.84 581.022 1857.84 428.673C1857.84 276.324 1731.67 152.82 1576.02 152.82C1420.37 152.82 1294.2 276.324 1294.2 428.673C1294.2 581.022 1420.37 704.525 1576.02 704.525Z" fill="#FBAE17"/>
<path d="M1576.02 697.919C1727.95 697.919 1851.11 577.375 1851.11 428.676C1851.11 279.978 1727.95 159.434 1576.02 159.434C1424.09 159.434 1300.93 279.978 1300.93 428.676C1300.93 577.375 1424.09 697.919 1576.02 697.919Z" fill="#FDB614"/>
<path d="M1576.01 691.368C1724.22 691.368 1844.37 573.755 1844.37 428.672C1844.37 283.589 1724.22 165.977 1576.01 165.977C1427.8 165.977 1307.65 283.589 1307.65 428.672C1307.65 573.755 1427.8 691.368 1576.01 691.368Z" fill="#FDB614"/>
<path d="M1576.02 684.821C1720.55 684.821 1837.71 570.139 1837.71 428.672C1837.71 287.205 1720.55 172.523 1576.02 172.523C1431.49 172.523 1314.33 287.205 1314.33 428.672C1314.33 570.139 1431.49 684.821 1576.02 684.821Z" fill="#FDB913"/>
<path d="M1576.01 678.278C1716.86 678.278 1831.03 566.527 1831.03 428.676C1831.03 290.825 1716.86 179.074 1576.01 179.074C1435.17 179.074 1320.99 290.825 1320.99 428.676C1320.99 566.527 1435.17 678.278 1576.01 678.278Z" fill="#FEBD11"/>
<path d="M1576.02 671.727C1713.18 671.727 1824.37 562.907 1824.37 428.672C1824.37 294.437 1713.18 185.617 1576.02 185.617C1438.86 185.617 1327.67 294.437 1327.67 428.672C1327.67 562.907 1438.86 671.727 1576.02 671.727Z" fill="#FEC010"/>
<path d="M1576.01 665.243C1709.49 665.243 1817.69 559.327 1817.69 428.672C1817.69 298.018 1709.49 192.102 1576.01 192.102C1442.53 192.102 1334.33 298.018 1334.33 428.672C1334.33 559.327 1442.53 665.243 1576.01 665.243Z" fill="#FEC20E"/>
<path d="M1576.02 658.7C1705.81 658.7 1811.03 555.715 1811.03 428.676C1811.03 301.638 1705.81 198.652 1576.02 198.652C1446.23 198.652 1341.01 301.638 1341.01 428.676C1341.01 555.715 1446.23 658.7 1576.02 658.7Z" fill="#FFC60B"/>
<path d="M1575.95 652.149C1702.06 652.149 1804.29 552.095 1804.29 428.672C1804.29 305.249 1702.06 205.195 1575.95 205.195C1449.84 205.195 1347.61 305.249 1347.61 428.672C1347.61 552.095 1449.84 652.149 1575.95 652.149Z" fill="#FFC908"/>
<path d="M1576.02 645.602C1698.41 645.602 1797.62 548.479 1797.62 428.672C1797.62 308.865 1698.41 211.742 1576.02 211.742C1453.62 211.742 1354.41 308.865 1354.41 428.672C1354.41 548.479 1453.62 645.602 1576.02 645.602Z" fill="#FFCC05"/>
<path d="M1576.03 639.059C1694.73 639.059 1790.96 544.867 1790.96 428.676C1790.96 312.485 1694.73 218.293 1576.03 218.293C1457.32 218.293 1361.09 312.485 1361.09 428.676C1361.09 544.867 1457.32 639.059 1576.03 639.059Z" fill="#FFCE07"/>
<path d="M1576.02 632.508C1691.04 632.508 1784.29 541.248 1784.29 428.672C1784.29 316.096 1691.04 224.836 1576.02 224.836C1461 224.836 1367.75 316.096 1367.75 428.672C1367.75 541.248 1461 632.508 1576.02 632.508Z" fill="#FED007"/>
<path d="M1576.01 626.025C1687.35 626.025 1777.61 537.667 1777.61 428.673C1777.61 319.678 1687.35 231.32 1576.01 231.32C1464.67 231.32 1374.41 319.678 1374.41 428.673C1374.41 537.667 1464.67 626.025 1576.01 626.025Z" fill="#FED304"/>
<path d="M1576.02 619.478C1683.67 619.478 1770.95 534.051 1770.95 428.672C1770.95 323.294 1683.67 237.867 1576.02 237.867C1468.36 237.867 1381.09 323.294 1381.09 428.672C1381.09 534.051 1468.36 619.478 1576.02 619.478Z" fill="#FED600"/>
<path d="M1576.01 612.931C1679.98 612.931 1764.27 530.435 1764.27 428.672C1764.27 326.909 1679.98 244.414 1576.01 244.414C1472.04 244.414 1387.75 326.909 1387.75 428.672C1387.75 530.435 1472.04 612.931 1576.01 612.931Z" fill="#FED900"/>
<path d="M1576.02 606.384C1676.31 606.384 1757.61 526.82 1757.61 428.672C1757.61 330.525 1676.31 250.961 1576.02 250.961C1475.73 250.961 1394.43 330.525 1394.43 428.672C1394.43 526.82 1475.73 606.384 1576.02 606.384Z" fill="#FEDB00"/>
<path d="M1576.01 599.837C1672.61 599.837 1750.93 523.204 1750.93 428.672C1750.93 334.141 1672.61 257.508 1576.01 257.508C1479.4 257.508 1401.09 334.141 1401.09 428.672C1401.09 523.204 1479.4 599.837 1576.01 599.837Z" fill="#FEDF00"/>
<path d="M1576.02 593.353C1668.94 593.353 1744.27 519.623 1744.27 428.673C1744.27 337.722 1668.94 263.992 1576.02 263.992C1483.09 263.992 1407.77 337.722 1407.77 428.673C1407.77 519.623 1483.09 593.353 1576.02 593.353Z" fill="#FFE200"/>
<path d="M1576.03 586.806C1665.23 586.806 1737.55 516.007 1737.55 428.673C1737.55 341.338 1665.23 270.539 1576.03 270.539C1486.82 270.539 1414.51 341.338 1414.51 428.673C1414.51 516.007 1486.82 586.806 1576.03 586.806Z" fill="#FFE500"/>
<path d="M1576.01 580.259C1661.53 580.259 1730.86 512.392 1730.86 428.673C1730.86 344.954 1661.53 277.086 1576.01 277.086C1490.49 277.086 1421.16 344.954 1421.16 428.673C1421.16 512.392 1490.49 580.259 1576.01 580.259Z" fill="#FEE800"/>
<path d="M1576.02 573.712C1657.86 573.712 1724.2 508.776 1724.2 428.673C1724.2 348.569 1657.86 283.633 1576.02 283.633C1494.19 283.633 1427.84 348.569 1427.84 428.673C1427.84 508.776 1494.19 573.712 1576.02 573.712Z" fill="#FDEE0A"/>
<path d="M1576.02 567.169C1654.17 567.169 1717.53 505.164 1717.53 428.676C1717.53 352.189 1654.17 290.184 1576.02 290.184C1497.86 290.184 1434.51 352.189 1434.51 428.676C1434.51 505.164 1497.86 567.169 1576.02 567.169Z" fill="#FDEE0A"/>
<path d="M1505.3 428.675C1504.48 389.582 1535.44 357.225 1574.51 356.344C1613.58 355.526 1645.93 386.498 1646.81 425.59C1647.63 464.683 1616.67 497.04 1577.59 497.921C1577.09 497.921 1576.59 497.921 1576.08 497.921C1537.39 498.362 1505.74 467.39 1505.3 428.675Z" fill="#FDEE0A"/>
</g>
<path fill-rule="evenodd" clip-rule="evenodd" d="M1190.49 516.936L1205.66 513.663L1230.89 498.869L1288.15 503.78L1310.04 475.766L1368.94 464.246L1305.01 459.336L1278.08 485.713H1227.55L1190.49 516.936Z" fill="#329DD8"/>
<path fill-rule="evenodd" clip-rule="evenodd" d="M1327.22 574.097L1339.36 571.453L1359.62 559.556L1405.49 563.521L1423.05 541.048L1470.3 531.794L1418.96 527.828L1397.44 548.98H1356.85L1327.22 574.097Z" fill="#329DD8"/>
<path fill-rule="evenodd" clip-rule="evenodd" d="M1034.32 620.238L1046.46 617.594L1066.72 605.697L1112.59 609.663L1130.15 587.126L1177.4 577.872L1126.06 573.906L1104.48 595.058H1064.02L1034.32 620.238Z" fill="#329DD8"/>
<mask id="mask1_1766_251" style="mask-type:luminance" maskUnits="userSpaceOnUse" x="838" y="687" width="811" height="130">
<path d="M1401.15 696.619C1412.1 705.872 1409.64 720.54 1418.64 730.612C1419.33 738.418 1425.94 743.769 1430.59 750.064C1447.08 758.311 1466.15 760.01 1483.83 754.786C1511.39 743.58 1541.71 741.188 1570.66 747.861C1587.65 745.721 1600.73 755.982 1618.04 754.786C1628.48 756.737 1640.5 756.737 1647.3 766.494C1648.55 772.097 1648.55 777.826 1647.3 783.428C1641.95 786.009 1634.65 774.3 1631.19 784.058C1630.37 786.639 1633.01 790.983 1628.67 791.675C1615.71 791.99 1607.4 780.092 1594.57 781.603C1589.6 785.38 1584.25 790.542 1577.77 789.22C1576.13 787.898 1572.8 786.135 1573.11 783.365C1577.14 780.596 1587.39 784.687 1586.26 777.511C1571.29 775.937 1556.12 776.504 1541.34 779.274C1540.33 780.721 1538.19 781.729 1538.82 783.995C1540.02 786.45 1545.11 785.946 1543.16 789.22C1542.91 791.108 1541.4 792.619 1539.51 792.808C1527.05 794.571 1508.93 785.883 1499.93 798.033C1495.97 798.474 1492.19 796.396 1490.43 792.808C1492.57 790.542 1499.93 792.997 1499.43 787.457C1495.4 785.128 1490.5 784.939 1486.28 786.954C1476.15 791.234 1466.33 796.082 1456.83 801.621C1449.79 801.118 1442.93 799.292 1436.51 796.27C1427.7 797.718 1416.19 792.997 1410.08 800.488C1396.81 807.979 1397.12 786.009 1384.98 790.416C1379.63 791.045 1374.53 794.319 1368.87 792.179C1367.23 790.416 1365.03 787.331 1367.67 785.254C1370 783.743 1372.2 781.98 1374.15 780.029C1373.65 770.335 1360.19 775.937 1357.48 767.691C1352.32 764.291 1344.64 767.061 1338.86 765.424C1325.58 767.061 1326.71 745.909 1311.93 751.26C1304.06 755.982 1294.37 756.422 1286.13 752.393C1278.33 751.008 1270.84 748.239 1264.04 744.273C1258.69 744.902 1251.71 742.321 1249.76 748.994C1249.76 754.66 1257.25 757.807 1259.89 762.529C1254.04 766.117 1248.94 760.892 1243.78 759.57C1234.59 756.485 1231.95 770.649 1224.46 765.928C1217.1 762.025 1208.8 760.388 1200.49 761.207C1197.85 762.969 1200.49 765.613 1200.49 767.691L1204.83 769.957C1197.91 774.489 1186.02 770.46 1179.04 775.811C1174.19 777.133 1170.23 783.428 1164.56 779.399C1163.87 778.266 1161.79 777.637 1162.24 775.811C1165.38 772.412 1173.18 773.86 1172.37 766.998C1168.84 765.361 1164.82 764.921 1161.04 765.865C1159.66 767.187 1156.7 767.502 1156.89 769.957C1157.89 776.63 1147.89 773.545 1149.08 780.533C1144.05 782.925 1138.39 783.554 1132.98 782.295C1132.47 780.533 1131.34 779.022 1131.59 777.07C1134.74 776.126 1138.26 779.651 1141.91 777.574C1144.93 774.3 1148.2 770.649 1146.06 765.865C1143.86 761.521 1138.7 759.444 1134.11 761.144C1125.62 762.906 1133.29 773.86 1125.11 774.678C1121.02 773.482 1116.74 775.811 1115.55 779.903C1115.55 779.966 1115.48 780.029 1115.48 780.092C1112.72 789.22 1101.52 786.261 1094.53 789.409C1090.69 789.22 1088.05 794.634 1083.71 791.864C1082.45 785.569 1078.24 780.344 1072.38 777.7C1063.7 779.148 1053.44 776.756 1047.28 784.184C1049.61 788.087 1055.58 786.135 1059.23 788.276C1061.56 788.087 1063.57 786.513 1066.41 787.142C1068.42 790.101 1065.59 794.067 1064.08 797.089C1060.62 801.747 1055.39 804.706 1049.61 805.21C1046.27 805.713 1042.87 804.895 1040.1 802.943C1032.93 801.621 1020.16 806.72 1017.33 797.089C1017.64 793.689 1014.56 790.227 1017.33 787.142C1019.84 785.191 1026.14 788.779 1027.46 784.184C1022.11 781.414 1014.5 784.813 1009.46 781.225C1007.83 780.596 1006.95 782.043 1005.81 782.988C1003.17 790.983 1002.67 801.055 993.858 805.776C988.509 806.091 985.363 811.945 980.707 813.897C966.739 810.309 953.588 821.388 940.626 813.393C937.48 811.253 935.655 815.974 932.824 816.352C928.168 815.534 921.184 818.303 918.981 813.897C920.617 805.272 920.366 794.445 929.804 790.479C934.208 788.779 939.053 788.402 943.646 789.346C944.59 788.716 945.031 787.52 944.842 786.387C936.348 778.77 927.35 787.835 919.736 791.108C915.961 795.2 911.179 798.222 905.894 799.922C890.604 793.06 879.97 809.364 863.485 802.88C860.15 802.251 857.948 799.292 854.487 799.292C851.907 805.335 848.635 811.064 844.797 816.415C839.826 810.56 837.813 802.754 839.449 795.263C847.754 785.758 857.633 777.826 868.707 771.845C913.13 748.113 963.844 738.796 1003.42 703.291C1013.36 695.737 1026.83 695.045 1037.53 701.529C1046.84 706.439 1048.35 716.322 1050.68 724.947L1055.52 726.709C1100.76 725.765 1139.02 701.466 1185.45 699.703C1210.24 699.388 1236.67 696.115 1260.33 696.304C1264.67 695.171 1269.14 694.73 1273.61 695.171C1300.54 695.989 1326.65 691.582 1353.14 689.82C1368.87 687.617 1389.26 684.721 1401.15 696.619Z" fill="white"/>
</mask>
<g mask="url(#mask1_1766_251)">
<path d="M1249.07 1218.3C1476.93 1218.3 1661.64 1037.5 1661.64 814.465C1661.64 591.435 1476.93 410.633 1249.07 410.633C1021.21 410.633 836.492 591.435 836.492 814.465C836.492 1037.5 1021.21 1218.3 1249.07 1218.3Z" fill="#0B522A"/>
<path d="M1249.13 1211.81C1473.34 1211.81 1655.1 1033.91 1655.1 814.466C1655.1 595.016 1473.34 417.117 1249.13 417.117C1024.92 417.117 843.164 595.016 843.164 814.466C843.164 1033.91 1024.92 1211.81 1249.13 1211.81Z" fill="#0A542B"/>
<path d="M1249.13 1205.33C1469.69 1205.33 1648.49 1030.33 1648.49 814.462C1648.49 598.594 1469.69 423.598 1249.13 423.598C1028.57 423.598 849.766 598.594 849.766 814.462C849.766 1030.33 1028.57 1205.33 1249.13 1205.33Z" fill="#04572C"/>
<path d="M1249.14 1198.85C1466.02 1198.85 1641.83 1026.75 1641.83 814.466C1641.83 602.179 1466.02 430.086 1249.14 430.086C1032.26 430.086 856.445 602.179 856.445 814.466C856.445 1026.75 1032.26 1198.85 1249.14 1198.85Z" fill="#03582D"/>
<path d="M1249.13 1192.36C1462.36 1192.36 1635.22 1023.17 1635.22 814.467C1635.22 605.76 1462.36 436.57 1249.13 436.57C1035.9 436.57 863.047 605.76 863.047 814.467C863.047 1023.17 1035.9 1192.36 1249.13 1192.36Z" fill="#045A2F"/>
<path d="M1249.06 1185.81C1458.61 1185.81 1628.48 1019.55 1628.48 814.463C1628.48 609.372 1458.61 443.113 1249.06 443.113C1039.52 443.113 869.648 609.372 869.648 814.463C869.648 1019.55 1039.52 1185.81 1249.06 1185.81Z" fill="#055C2F"/>
<path d="M1249.14 1179.33C1455.03 1179.33 1621.95 1015.97 1621.95 814.463C1621.95 612.953 1455.03 449.598 1249.14 449.598C1043.24 449.598 876.328 612.953 876.328 814.463C876.328 1015.97 1043.24 1179.33 1249.14 1179.33Z" fill="#065E30"/>
<path d="M1249.07 1172.85C1451.28 1172.85 1615.21 1012.4 1615.21 814.467C1615.21 616.539 1451.28 456.086 1249.07 456.086C1046.86 456.086 882.93 616.539 882.93 814.467C882.93 1012.4 1046.86 1172.85 1249.07 1172.85Z" fill="#046031"/>
<path d="M1249.06 1166.36C1447.63 1166.36 1608.6 1008.81 1608.6 814.464C1608.6 620.116 1447.63 462.566 1249.06 462.566C1050.5 462.566 889.531 620.116 889.531 814.464C889.531 1008.81 1050.5 1166.36 1249.06 1166.36Z" fill="#036232"/>
<path d="M1249.07 1159.88C1443.98 1159.88 1601.99 1005.23 1601.99 814.464C1601.99 623.698 1443.98 469.051 1249.07 469.051C1054.15 469.051 896.141 623.698 896.141 814.464C896.141 1005.23 1054.15 1159.88 1249.07 1159.88Z" fill="#036434"/>
<path d="M1249.07 1153.39C1440.3 1153.39 1595.32 1001.65 1595.32 814.465C1595.32 627.279 1440.3 475.535 1249.07 475.535C1057.84 475.535 902.812 627.279 902.812 814.465C902.812 1001.65 1057.84 1153.39 1249.07 1153.39Z" fill="#056634"/>
<path d="M1249.06 1146.91C1436.65 1146.91 1588.71 998.066 1588.71 814.461C1588.71 630.857 1436.65 482.016 1249.06 482.016C1061.48 482.016 909.414 630.857 909.414 814.461C909.414 998.066 1061.48 1146.91 1249.06 1146.91Z" fill="#076835"/>
<path d="M1249.07 1140.43C1432.97 1140.43 1582.05 994.489 1582.05 814.466C1582.05 634.442 1432.97 488.504 1249.07 488.504C1065.17 488.504 916.086 634.442 916.086 814.466C916.086 994.489 1065.17 1140.43 1249.07 1140.43Z" fill="#086A36"/>
<path d="M1249.07 1133.94C1429.32 1133.94 1575.44 990.909 1575.44 814.466C1575.44 638.023 1429.32 494.988 1249.07 494.988C1068.82 494.988 922.695 638.023 922.695 814.466C922.695 990.909 1068.82 1133.94 1249.07 1133.94Z" fill="#096B37"/>
<path d="M1249.13 1127.39C1425.73 1127.39 1568.89 987.289 1568.89 814.462C1568.89 641.635 1425.73 501.531 1249.13 501.531C1072.52 501.531 929.359 641.635 929.359 814.462C929.359 987.289 1072.52 1127.39 1249.13 1127.39Z" fill="#086E38"/>
<path d="M1249.07 1120.91C1421.98 1120.91 1562.16 983.712 1562.16 814.466C1562.16 645.22 1421.98 508.02 1249.07 508.02C1076.15 508.02 935.969 645.22 935.969 814.466C935.969 983.712 1076.15 1120.91 1249.07 1120.91Z" fill="#047039"/>
<path d="M1249.13 1114.43C1418.4 1114.43 1555.62 980.131 1555.62 814.467C1555.62 648.802 1418.4 514.504 1249.13 514.504C1079.86 514.504 942.641 648.802 942.641 814.467C942.641 980.131 1079.86 1114.43 1249.13 1114.43Z" fill="#03723B"/>
<path d="M1249.13 1107.95C1414.72 1107.95 1548.95 976.551 1548.95 814.467C1548.95 652.383 1414.72 520.988 1249.13 520.988C1083.55 520.988 949.312 652.383 949.312 814.467C949.312 976.551 1083.55 1107.95 1249.13 1107.95Z" fill="#0A753C"/>
<path d="M1249.07 1101.46C1411 1101.46 1542.28 972.966 1542.28 814.464C1542.28 655.961 1411 527.469 1249.07 527.469C1087.13 527.469 955.852 655.961 955.852 814.464C955.852 972.966 1087.13 1101.46 1249.07 1101.46Z" fill="#11773C"/>
<path d="M1249.13 1094.97C1407.42 1094.97 1535.74 969.386 1535.74 814.464C1535.74 659.542 1407.42 533.953 1249.13 533.953C1090.84 533.953 962.523 659.542 962.523 814.464C962.523 969.386 1090.84 1094.97 1249.13 1094.97Z" fill="#16793D"/>
<path d="M1249.13 1088.49C1403.74 1088.49 1529.07 965.809 1529.07 814.468C1529.07 663.127 1403.74 540.441 1249.13 540.441C1094.53 540.441 969.195 663.127 969.195 814.468C969.195 965.809 1094.53 1088.49 1249.13 1088.49Z" fill="#187B3E"/>
<path d="M1249.06 1081.94C1400.02 1081.94 1522.4 962.189 1522.4 814.464C1522.4 666.739 1400.02 546.984 1249.06 546.984C1098.11 546.984 975.734 666.739 975.734 814.464C975.734 962.189 1098.11 1081.94 1249.06 1081.94Z" fill="#1D7E3F"/>
<path d="M1249.13 1075.46C1396.4 1075.46 1515.79 958.609 1515.79 814.465C1515.79 670.321 1396.4 553.469 1249.13 553.469C1101.86 553.469 982.469 670.321 982.469 814.465C982.469 958.609 1101.86 1075.46 1249.13 1075.46Z" fill="#20803F"/>
<path d="M1249.06 1068.98C1392.69 1068.98 1509.12 955.032 1509.12 814.469C1509.12 673.906 1392.69 559.957 1249.06 559.957C1105.44 559.957 989.008 673.906 989.008 814.469C989.008 955.032 1105.44 1068.98 1249.06 1068.98Z" fill="#248240"/>
<path d="M1249.07 1062.49C1389.01 1062.49 1502.46 951.448 1502.46 814.465C1502.46 677.483 1389.01 566.438 1249.07 566.438C1109.13 566.438 995.688 677.483 995.688 814.465C995.688 951.448 1109.13 1062.49 1249.07 1062.49Z" fill="#278340"/>
<path d="M1249.07 1056.01C1385.36 1056.01 1495.84 947.867 1495.84 814.466C1495.84 681.065 1385.36 572.922 1249.07 572.922C1112.78 572.922 1002.29 681.065 1002.29 814.466C1002.29 947.867 1112.78 1056.01 1249.07 1056.01Z" fill="#298641"/>
<path d="M1249.06 1049.53C1381.7 1049.53 1489.23 944.286 1489.23 814.466C1489.23 684.646 1381.7 579.406 1249.06 579.406C1116.42 579.406 1008.89 684.646 1008.89 814.466C1008.89 944.286 1116.42 1049.53 1249.06 1049.53Z" fill="#2C8842"/>
<path d="M1249.07 1043.04C1378.03 1043.04 1482.57 940.702 1482.57 814.463C1482.57 688.224 1378.03 585.887 1249.07 585.887C1120.11 585.887 1015.57 688.224 1015.57 814.463C1015.57 940.702 1120.11 1043.04 1249.07 1043.04Z" fill="#2E8B42"/>
<path d="M1249.07 1036.56C1374.38 1036.56 1475.96 937.125 1475.96 814.467C1475.96 691.809 1374.38 592.375 1249.07 592.375C1123.76 592.375 1022.17 691.809 1022.17 814.467C1022.17 937.125 1123.76 1036.56 1249.07 1036.56Z" fill="#308D43"/>
<path d="M1249.07 1030.08C1370.7 1030.08 1469.29 933.544 1469.29 814.467C1469.29 695.39 1370.7 598.859 1249.07 598.859C1127.44 598.859 1028.84 695.39 1028.84 814.467C1028.84 933.544 1127.44 1030.08 1249.07 1030.08Z" fill="#339044"/>
<path d="M1249.13 1023.52C1367.11 1023.52 1462.75 929.925 1462.75 814.463C1462.75 699.002 1367.11 605.402 1249.13 605.402C1131.16 605.402 1035.52 699.002 1035.52 814.463C1035.52 929.925 1131.16 1023.52 1249.13 1023.52Z" fill="#379144"/>
<path d="M1249.07 1017.04C1363.4 1017.04 1456.08 926.344 1456.08 814.464C1456.08 702.584 1363.4 611.887 1249.07 611.887C1134.74 611.887 1042.05 702.584 1042.05 814.464C1042.05 926.344 1134.74 1017.04 1249.07 1017.04Z" fill="#3A9445"/>
<path d="M1249.13 1010.56C1359.78 1010.56 1449.47 922.767 1449.47 814.468C1449.47 706.169 1359.78 618.375 1249.13 618.375C1138.49 618.375 1048.79 706.169 1048.79 814.468C1048.79 922.767 1138.49 1010.56 1249.13 1010.56Z" fill="#3D9645"/>
<path d="M1249.13 1004.07C1356.13 1004.07 1442.87 919.183 1442.87 814.465C1442.87 709.746 1356.13 624.855 1249.13 624.855C1142.14 624.855 1055.4 709.746 1055.4 814.465C1055.4 919.183 1142.14 1004.07 1249.13 1004.07Z" fill="#409945"/>
<path d="M1249.12 997.59C1352.43 997.59 1436.19 915.602 1436.19 814.465C1436.19 713.328 1352.43 631.34 1249.12 631.34C1145.81 631.34 1062.05 713.328 1062.05 814.465C1062.05 915.602 1145.81 997.59 1249.12 997.59Z" fill="#439B46"/>
<path d="M1249.13 991.107C1348.79 991.107 1429.59 912.022 1429.59 814.465C1429.59 716.909 1348.79 637.824 1249.13 637.824C1149.47 637.824 1068.67 716.909 1068.67 814.465C1068.67 912.022 1149.47 991.107 1249.13 991.107Z" fill="#459E46"/>
<path d="M1249.13 984.619C1345.15 984.619 1422.98 908.437 1422.98 814.462C1422.98 720.487 1345.15 644.305 1249.13 644.305C1153.12 644.305 1075.28 720.487 1075.28 814.462C1075.28 908.437 1153.12 984.619 1249.13 984.619Z" fill="#48A046"/>
<path d="M1249.06 978.076C1341.4 978.076 1416.25 904.825 1416.25 814.466C1416.25 724.106 1341.4 650.855 1249.06 650.855C1156.73 650.855 1081.88 724.106 1081.88 814.466C1081.88 904.825 1156.73 978.076 1249.06 978.076Z" fill="#4DA346"/>
<path d="M1249.06 971.592C1337.74 971.592 1409.63 901.245 1409.63 814.466C1409.63 727.688 1337.74 657.34 1249.06 657.34C1160.38 657.34 1088.48 727.688 1088.48 814.466C1088.48 901.245 1160.38 971.592 1249.06 971.592Z" fill="#50A546"/>
<path d="M1249.07 965.105C1334.07 965.105 1402.98 897.66 1402.98 814.463C1402.98 731.265 1334.07 663.82 1249.07 663.82C1164.07 663.82 1095.16 731.265 1095.16 814.463C1095.16 897.66 1164.07 965.105 1249.07 965.105Z" fill="#54A946"/>
<path d="M1249.06 958.621C1330.42 958.621 1396.36 894.08 1396.36 814.463C1396.36 734.847 1330.42 670.305 1249.06 670.305C1167.71 670.305 1101.77 734.847 1101.77 814.463C1101.77 894.08 1167.71 958.621 1249.06 958.621Z" fill="#57AD47"/>
<path d="M1249.07 952.142C1326.73 952.142 1389.7 890.503 1389.7 814.467C1389.7 738.432 1326.73 676.793 1249.07 676.793C1171.4 676.793 1108.44 738.432 1108.44 814.467C1108.44 890.503 1171.4 952.142 1249.07 952.142Z" fill="#57AD47"/>
<path d="M1249.12 945.591C1323.11 945.591 1383.08 886.883 1383.08 814.463C1383.08 742.044 1323.11 683.336 1249.12 683.336C1175.14 683.336 1115.16 742.044 1115.16 814.463C1115.16 886.883 1175.14 945.591 1249.12 945.591Z" fill="#60AD45"/>
<path d="M1249.13 939.044C1319.43 939.044 1376.42 883.267 1376.42 814.463C1376.42 745.659 1319.43 689.883 1249.13 689.883C1178.83 689.883 1121.84 745.659 1121.84 814.463C1121.84 883.267 1178.83 939.044 1249.13 939.044Z" fill="#6AAD44"/>
<path d="M1249.07 932.437C1315.65 932.437 1369.62 879.62 1369.62 814.467C1369.62 749.313 1315.65 696.496 1249.07 696.496C1182.48 696.496 1128.51 749.313 1128.51 814.467C1128.51 879.62 1182.48 932.437 1249.07 932.437Z" fill="#74AE43"/>
<path d="M1249.08 925.886C1311.97 925.886 1362.96 876 1362.96 814.463C1362.96 752.925 1311.97 703.039 1249.08 703.039C1186.18 703.039 1135.19 752.925 1135.19 814.463C1135.19 876 1186.18 925.886 1249.08 925.886Z" fill="#7DAE41"/>
<path d="M1249.07 919.343C1308.25 919.343 1356.22 872.388 1356.22 814.467C1356.22 756.545 1308.25 709.59 1249.07 709.59C1189.89 709.59 1141.91 756.545 1141.91 814.467C1141.91 872.388 1189.89 919.343 1249.07 919.343Z" fill="#86AF40"/>
<path d="M1249.13 912.796C1304.62 912.796 1349.61 868.773 1349.61 814.467C1349.61 760.16 1304.62 716.137 1249.13 716.137C1193.63 716.137 1148.64 760.16 1148.64 814.467C1148.64 868.773 1193.63 912.796 1249.13 912.796Z" fill="#8EB03E"/>
<path d="M1249.14 906.246C1300.91 906.246 1342.89 865.153 1342.89 814.463C1342.89 763.772 1300.91 722.68 1249.14 722.68C1197.36 722.68 1155.38 763.772 1155.38 814.463C1155.38 865.153 1197.36 906.246 1249.14 906.246Z" fill="#96B13C"/>
<path d="M1249.07 899.702C1297.16 899.702 1336.15 861.541 1336.15 814.466C1336.15 767.392 1297.16 729.23 1249.07 729.23C1200.97 729.23 1161.98 767.392 1161.98 814.466C1161.98 861.541 1200.97 899.702 1249.07 899.702Z" fill="#9FB23A"/>
<path d="M1249.07 893.155C1293.45 893.155 1329.42 857.925 1329.42 814.466C1329.42 771.008 1293.45 735.777 1249.07 735.777C1204.69 735.777 1168.72 771.008 1168.72 814.466C1168.72 857.925 1204.69 893.155 1249.07 893.155Z" fill="#A8B337"/>
<path d="M1249.06 886.545C1289.76 886.545 1322.74 854.274 1322.74 814.466C1322.74 774.658 1289.76 742.387 1249.06 742.387C1208.37 742.387 1175.38 774.658 1175.38 814.466C1175.38 854.274 1208.37 886.545 1249.06 886.545Z" fill="#B0B335"/>
<path d="M1249.13 879.998C1286.14 879.998 1316.14 850.658 1316.14 814.466C1316.14 778.273 1286.14 748.934 1249.13 748.934C1212.12 748.934 1182.12 778.273 1182.12 814.466C1182.12 850.658 1212.12 879.998 1249.13 879.998Z" fill="#B8B533"/>
<path d="M1249.14 873.447C1282.43 873.447 1309.42 847.039 1309.42 814.462C1309.42 781.885 1282.43 755.477 1249.14 755.477C1215.85 755.477 1188.86 781.885 1188.86 814.462C1188.86 847.039 1215.85 873.447 1249.14 873.447Z" fill="#C1B530"/>
<path d="M1249.07 866.904C1278.68 866.904 1302.68 843.427 1302.68 814.466C1302.68 785.505 1278.68 762.027 1249.07 762.027C1219.46 762.027 1195.46 785.505 1195.46 814.466C1195.46 843.427 1219.46 866.904 1249.07 866.904Z" fill="#CAB62D"/>
<path d="M1249.07 860.357C1274.96 860.357 1295.95 839.811 1295.95 814.466C1295.95 789.121 1274.96 768.574 1249.07 768.574C1223.18 768.574 1202.2 789.121 1202.2 814.466C1202.2 839.811 1223.18 860.357 1249.07 860.357Z" fill="#D2B62B"/>
<path d="M1249.12 853.806C1271.33 853.806 1289.33 836.191 1289.33 814.462C1289.33 792.732 1271.33 775.117 1249.12 775.117C1226.92 775.117 1208.91 792.732 1208.91 814.462C1208.91 836.191 1226.92 853.806 1249.12 853.806Z" fill="#DAB527"/>
<path d="M1249.13 847.263C1267.62 847.263 1282.6 832.579 1282.6 814.466C1282.6 796.352 1267.62 781.668 1249.13 781.668C1230.64 781.668 1215.66 796.352 1215.66 814.466C1215.66 832.579 1230.64 847.263 1249.13 847.263Z" fill="#E1B624"/>
<path d="M1222.32 814.464C1222 799.671 1233.71 787.395 1248.49 787.08C1263.28 786.766 1275.55 798.475 1275.86 813.268C1276.18 828.062 1264.48 840.337 1249.69 840.652C1249.5 840.652 1249.31 840.652 1249.06 840.652C1234.46 840.841 1222.44 829.069 1222.32 814.464Z" fill="#EAB61F"/>
<path d="M1249.06 834.106C1260.15 834.106 1269.14 825.312 1269.14 814.465C1269.14 803.618 1260.15 794.824 1249.06 794.824C1237.98 794.824 1228.99 803.618 1228.99 814.465C1228.99 825.312 1237.98 834.106 1249.06 834.106Z" fill="#F2B61B"/>
<path d="M1235.74 814.462C1235.55 807.034 1241.46 800.928 1248.83 800.739C1256.25 800.55 1262.35 806.467 1262.54 813.833C1262.73 821.261 1256.82 827.367 1249.46 827.556C1249.33 827.556 1249.27 827.556 1249.14 827.556C1241.78 827.619 1235.8 821.764 1235.74 814.462Z" fill="#F9B617"/>
<path d="M1242.39 814.468C1242.33 810.754 1245.22 807.732 1248.94 807.606C1252.65 807.544 1255.67 810.439 1255.79 814.153C1255.92 817.868 1252.96 820.889 1249.25 821.015C1249.19 821.015 1249.19 821.015 1249.12 821.015C1245.47 821.078 1242.45 818.119 1242.39 814.468Z" fill="#FDB614"/>
</g>
<path d="M1344.9 735.313C1346.1 744.126 1334.58 737.894 1329.93 740.538C1328.54 740.727 1324.58 740.034 1325.08 737.579C1329.42 732.039 1337.92 736.131 1343.71 734.18L1344.9 735.313Z" fill="white"/>
<path d="M1231.84 740.099V742.365C1225.17 743.183 1218.44 742.554 1212.02 740.602C1211.01 738.462 1213.84 737.329 1215.04 736.51C1221.33 734.181 1226.49 737.958 1231.84 740.099Z" fill="white"/>
<path d="M1164.57 751.114C1165.07 755.647 1159.41 754.199 1158.09 756.969C1153.94 757.913 1149.6 756.591 1146.64 753.57C1145.82 751.303 1148.46 750.17 1149.6 749.415C1154.32 749.163 1161.61 747.086 1164.57 751.114Z" fill="white"/>
<path d="M1218.49 752.247C1218.94 754.009 1217.93 755.835 1216.17 756.401C1213.84 757.849 1212.01 755.079 1210.19 753.443C1209.81 752.247 1210.5 750.988 1211.7 750.61C1211.83 750.547 1211.95 750.547 1212.01 750.547C1213.9 752.058 1217.05 749.98 1218.49 752.247Z" fill="white"/>
<path d="M1354.59 756.967C1349.06 758.289 1340.12 759.737 1335.97 755.834C1336.47 748.91 1345.66 752.246 1350.25 750.609C1352.77 751.805 1354.4 754.261 1354.59 756.967Z" fill="white"/>
<path d="M1063.52 770.501C1061.5 775.222 1055.4 774.278 1051.56 773.46C1048.79 772.012 1047.22 765.465 1043.76 770.501C1040.99 777.363 1032.94 774.404 1026.96 775.222C1024.63 773.775 1025.32 770.186 1026.96 768.298C1030.1 764.898 1032.5 760.681 1037.28 759.988C1044.51 768.739 1057.85 759.296 1063.52 770.501Z" fill="white"/>
<path d="M1101.7 771.699C1101.2 773.461 1100.88 776.609 1098.18 776.42C1095.22 776.105 1089.87 777.364 1090.38 772.832C1090.19 770.377 1093.15 770.062 1094.53 768.74C1097.42 768.551 1100.88 768.425 1101.7 771.699Z" fill="white"/>
<path d="M971.834 788.13L971.331 789.893L956.859 787.438C956.167 785.801 958.054 784.479 959.376 784.038C963.906 783.598 968.436 785.046 971.834 788.13Z" fill="white"/>
<path d="M1283.86 785.298H1279.84C1278.83 782.654 1282.54 782.969 1283.86 782.969V785.298Z" fill="white"/>
<path d="M1243.47 802.736C1241.14 803.744 1238.06 808.276 1235.41 804.373C1236.42 799.085 1242.15 804.058 1243.47 802.736Z" fill="white"/>
<path d="M1263.67 802.734C1261.34 804.056 1259.33 807.015 1255.62 806.008L1256.62 802.042C1259.27 801.412 1260.97 803.427 1263.67 802.734Z" fill="white"/>
<path d="M1836.01 802.735V802.105L1840.03 802.735H1836.01Z" fill="#1A1818"/>
<path d="M1220.94 805.946C1220.25 809.03 1218.55 811.737 1216.22 813.878C1213.2 814.192 1211.88 812.241 1208.8 812.87C1209.11 810.226 1207.79 806.953 1210.49 805.001L1209.8 806.009L1211.19 807.331C1210.12 802.106 1218.55 804.372 1220.94 805.946Z" fill="white"/>
<path d="M1310.79 813.942C1305.76 815.956 1301.73 810.668 1297.01 809.032C1292.98 810.354 1285.24 810.354 1284.87 806.073C1294.18 805.129 1303.55 807.961 1310.79 813.942Z" fill="white"/>
<path d="M1196.72 811.295C1196.41 810.98 1196.03 810.288 1195.02 810.603L1198.42 808.273L1196.72 811.295Z" fill="white"/>
<path d="M1119.26 809.977C1119.26 811.613 1117.25 811.299 1115.87 811.299H1113.54C1114.17 809.662 1117.88 811.613 1119.26 809.977Z" fill="white"/>
<path d="M1228.37 810.664C1227.99 811.671 1229.06 813.308 1227.37 813.938C1226.67 813.938 1226.36 813.308 1225.98 812.93C1224.97 810.979 1227.3 811.294 1228.37 810.664Z" fill="white"/>
<path d="M1175.83 813.939C1173.63 814.506 1171.49 815.261 1169.41 816.268L1168.41 815.261C1170.73 814.254 1173.25 813.813 1175.83 813.939Z" fill="white"/>
<path d="M1324.26 816.27C1322.24 816.584 1319.85 817.277 1319.54 814.633L1324.26 816.27Z" fill="white"/>
<path d="M1354.21 822.502C1346.16 827.097 1338.35 813.625 1329.98 821.872C1330.99 815.64 1334.33 819.858 1338.04 816.962C1344.46 816.269 1348.17 824.831 1354.21 822.502Z" fill="white"/>
<path d="M2151.8 820.863C2153.5 824.829 2149.1 827.095 2146.08 827.095C2144.06 824.766 2137.33 829.11 2139.03 823.13C2144.06 820.171 2147.4 826.466 2151.8 820.863Z" fill="white"/>
<path d="M2171.31 828.795C2166.91 826.151 2159.55 827.158 2157.47 822.562C2162.25 824.514 2173.7 821.178 2171.31 828.795Z" fill="white"/>
<path d="M1627.29 825.839L1625.91 823.195H1627.29V825.839Z" fill="white"/>
<path d="M1093.34 826.465C1089 827.472 1085.6 831.06 1080.57 830.431C1084.6 828.479 1088.88 827.157 1093.34 826.465Z" fill="white"/>
<path d="M1465.01 829.739C1466.4 832.068 1471.75 830.432 1470.74 834.335C1460.61 834.964 1450.54 827.41 1440.1 833.642L1440.79 832.635C1434.37 833.139 1427.95 831.754 1422.29 828.669V826.34C1436.07 831.376 1450.86 826.781 1465.01 829.739Z" fill="white"/>
<path d="M1735.01 826.464C1734.32 828.793 1733 832.004 1729.98 832.004C1727.27 828.793 1731.3 825.457 1735.01 826.464Z" fill="white"/>
<path d="M1776.1 828.795C1776.79 830.747 1774.4 832.446 1772.7 832.761H1769.68C1768.68 829.802 1770.69 829.11 1772.7 828.166C1773.71 828.103 1775.41 827.473 1776.1 828.795Z" fill="white"/>
<path d="M1688.89 832.068C1686.88 832.068 1684.86 835.027 1683.16 832.761C1682.47 828.795 1689.9 827.473 1688.89 832.068Z" fill="white"/>
<path d="M1499.69 832.072L1497.36 831.065C1497.04 829.68 1498.74 829.428 1499.69 829.68V832.072Z" fill="white"/>
<path d="M1393.92 830.434H1391.59V834.4H1393.92V830.434Z" fill="white"/>
<path d="M1489.24 832.069V834.398C1484.9 832.761 1478.8 838.049 1477.16 832.762C1480.88 830.684 1485.28 830.432 1489.24 832.069Z" fill="white"/>
<path d="M1663.6 835.03C1657.87 837.862 1651.39 838.807 1645.1 837.674C1644.09 834.4 1638.37 837.674 1640.38 832.763C1647.8 832.7 1659.57 827.79 1663.6 835.03Z" fill="white"/>
<path d="M1631.32 837.611V838.933C1627.61 839.94 1623.27 836.289 1625.91 832.7C1630.32 831.064 1630 835.03 1631.32 837.611Z" fill="white"/>
<path d="M2103.98 835.031C2104.99 837.99 2102.6 838.305 2100.96 838.997C2099.96 839.312 2099.58 838.682 2099.26 838.368C2097.57 834.717 2101.97 835.346 2103.98 835.031Z" fill="white"/>
<path d="M1415.87 838.993C1413.17 839.686 1413.17 838.364 1412.48 836.664H1415.87V838.993Z" fill="white"/>
<path d="M1743.76 840C1743.44 841.007 1744.45 842.644 1743.07 842.959C1739.35 844.281 1738.35 840 1739.04 837.671C1741.05 836.664 1742.44 838.678 1743.76 840Z" fill="white"/>
<path d="M1405.05 838.363H1403.73V840H1405.05V838.363Z" fill="white"/>
<path d="M1426.95 840.633V841.64H1424.62V840.003C1425.25 840.003 1426.63 839.625 1426.95 840.633Z" fill="white"/>
<path d="M1561.29 841.639C1561.29 842.269 1561.29 843.591 1560.29 843.968C1559.28 843.654 1557.58 844.598 1557.27 842.961C1557.33 841.702 1558.34 840.758 1559.59 840.758C1560.22 840.758 1560.85 841.073 1561.29 841.639Z" fill="white"/>
<path d="M1608.73 843.965C1602.63 845.035 1596.4 845.601 1590.23 845.601V842.328C1596.97 845.601 1602 839.054 1608.73 842.328V843.965Z" fill="white"/>
<path d="M2226.11 820.866V823.195C2217.93 822.755 2209.76 823.636 2201.89 825.839C2197.55 826.847 2197.55 821.244 2197.86 819.23L2200.88 820.237C2207.93 814.634 2217.68 814.949 2225.11 810.668C2231.84 810.983 2238.57 810.731 2245.31 810.039C2253.42 808.087 2254.74 818.6 2262.48 816.963C2264.81 816.334 2263.18 813.312 2264.81 812.368C2257.39 803.177 2244.93 814.382 2238.89 806.828C2238.89 806.136 2238.89 804.877 2239.89 804.499L2237.19 802.17C2229.76 803.492 2222.4 793.294 2218.69 794.93C2218.38 795.56 2220.01 799.526 2216.99 799.526C2210.95 797.7 2204.72 796.693 2198.49 796.567C2185.4 801.163 2166.59 796.252 2154.07 801.163C2152.06 800.533 2147.97 800.155 2149.35 796.567C2150.48 794.553 2152.87 793.545 2155.08 794.238C2162.82 793.923 2168.86 788.32 2175.27 787.628L2176.66 789.265L2179.36 785.299C2178.36 785.11 2177.29 785.488 2176.66 786.306L2175.27 784.669C2167.53 793.231 2150.36 789.328 2139.6 791.594C2133.24 793.86 2126.7 795.749 2120.09 797.134C2109.65 791.531 2101.91 804.373 2091.84 802.044C2081.4 801.225 2070.95 801.225 2060.51 802.044C2050.38 806.01 2043.71 803.051 2034.58 805.003C2020.55 808.15 2006.33 810.605 1991.98 812.242C1984.24 811.927 1975.5 815.515 1967.76 815.201C1962.16 816.649 1956.31 817.026 1950.58 816.208C1947.56 818.159 1942.84 817.215 1939.51 818.537L1937.81 816.9C1925.85 819.544 1913.65 820.866 1901.44 820.866C1887.66 821.181 1870.48 829.113 1854.63 821.874C1853.87 822.44 1853.31 823.007 1852.74 823.573C1851.42 825.021 1850.47 826.532 1849.53 827.917C1847.64 830.561 1845.57 832.701 1840.22 832.701L1836.82 824.769C1833.49 824.14 1833.11 825.776 1831.09 827.098C1825.49 828.357 1819.71 828.169 1814.23 826.469C1811.53 824.832 1812.22 820.866 1813.22 818.537C1814.92 822.188 1817.57 817.908 1818.95 819.23C1820.52 811.55 1826.06 805.317 1833.42 802.736C1828.39 802.044 1822.98 807.017 1817.25 805.066V804.499C1813.22 806.136 1803.79 807.458 1799.76 809.094C1798.75 808.402 1798.44 807.08 1797.05 807.458C1797.05 808.465 1797.37 809.409 1796.36 810.102C1790.64 807.458 1786.61 811.738 1781.89 809.094C1764.02 817.908 1751.25 806.387 1733.44 814.634V813.942L1731.11 816.271L1729.41 813.942C1729.41 814.634 1729.41 815.893 1728.41 816.271L1727.02 814.634L1725.32 816.963C1723 814.634 1716.64 818.285 1715.63 816.963C1712.61 814.319 1706.51 818.915 1703.49 816.271L1701.79 818.6C1700.78 814.319 1696.07 818.6 1693.04 818.6C1687.63 816.271 1680.59 820.237 1674.55 817.971L1671.15 823.258C1666.11 824.266 1666.74 819.293 1663.72 817.026L1662.34 818.663C1661.33 818.978 1661.02 818.348 1660.64 818.033L1658.94 819.355L1657.24 818.033L1655.54 819.355C1654.85 819.67 1654.47 819.041 1654.16 818.663L1652.46 820.3L1650.76 818.663C1649.44 821.685 1647.05 816.019 1646.73 820.3C1645.04 821.307 1640.32 818.033 1639.31 820.992C1632.26 817.341 1620.5 820.992 1613.7 820.992C1612.38 820.677 1608.67 820.992 1606.97 818.663V820.3C1597.22 821.999 1587.21 822.566 1577.33 821.936V822.566C1573.68 822.629 1570.1 823.195 1566.57 824.203C1564.56 822.566 1564.56 819.922 1563.55 817.971C1560.53 822.251 1554.11 818.663 1550.4 821.936C1541.91 821.433 1533.35 821.433 1524.79 821.936C1521.4 820.3 1516.68 822.944 1517.37 816.963C1517.68 809.787 1524.04 816.271 1527.06 815.327V814.697L1535.8 815.327C1546.38 812.809 1557.26 811.487 1568.15 811.361C1559.4 801.163 1545.56 814.634 1534.17 809.031C1518.38 804.436 1502.9 816.963 1486.73 816.963H1487.36C1488.68 818.285 1488.05 820.237 1488.36 821.936C1484.21 826.28 1479.55 822.944 1474.52 824.895C1471.88 824.266 1471.12 821.307 1470.49 819.355C1467.16 820.992 1463.44 823.636 1460.8 823.321C1459.1 821.999 1454.45 820.048 1452.75 821.999C1444.32 818.348 1436.89 828.232 1429.15 822.629C1425.44 823.636 1418.71 818.348 1416.38 822.629L1414.68 820.992L1412.98 822.629C1408.96 819.67 1402.54 828.924 1400.84 820.992L1396.12 824.958C1393.98 824.958 1391.34 825.336 1389.39 824.454C1389.2 824.392 1388.95 824.455 1388.76 824.329C1388.76 823.573 1388.88 822.881 1389.39 822.377C1389.51 822.251 1389.51 822.062 1389.76 821.999C1390.46 821.685 1390.77 822.314 1391.46 822.629V820.3C1390.77 820.048 1390.08 819.796 1389.39 819.544C1388.32 819.167 1387.25 818.726 1386.11 818.285C1379.82 815.893 1373.34 813.879 1367.87 819.292L1363.15 811.361C1358.43 810.731 1354.4 809.031 1351 814.005C1342.32 810.857 1333.26 808.654 1324.07 807.395C1318.1 804.814 1311.87 802.736 1305.58 801.163C1302.87 800.533 1296.51 801.477 1294.5 798.833C1290.79 799.148 1286.82 798.519 1285.44 794.867L1287.14 792.538C1295.57 793.168 1303.31 787.943 1310.73 790.902C1317.78 798.77 1325.9 795.497 1333.95 796.441C1333.26 792.79 1329.23 794.112 1327.53 791.468C1316.4 794.049 1312.06 785.488 1303.31 784.543C1299.98 786.18 1295.26 782.214 1291.23 786.18C1286.82 782.403 1281.98 779.193 1276.76 776.612C1274.05 778.563 1270.34 784.166 1266.31 782.151C1261.91 776.234 1271.35 776.234 1272.73 770.946C1279.46 768.302 1284.18 778.185 1288.9 773.275C1292.93 771.638 1294.56 775.604 1295.95 778.185C1299.85 778.248 1303.69 777.682 1307.4 776.549C1315.45 785.425 1322.56 784.48 1334.02 786.747C1336.72 789.705 1339.43 788.383 1342.07 790.713C1345.4 788.069 1348.8 791.72 1352.51 790.02C1342.26 782.655 1329.74 779.255 1317.15 780.452C1314.13 779.13 1314.82 775.856 1314.82 773.212C1328.29 767.924 1341.44 779.822 1355.91 777.178L1346.22 773.212C1342.2 776.863 1339.18 768.931 1335.15 772.52C1327.79 769.939 1320.05 768.617 1312.24 768.554C1311.93 768.554 1310.23 771.512 1309.22 769.246L1306.9 771.575C1302.87 775.227 1303.18 768.302 1301.17 767.61V768.617C1297.84 767.295 1294.75 769.309 1290.73 768.617C1290.35 772.268 1288.4 767.609 1287.33 770.946C1285.63 766.036 1279.59 770.631 1278.52 767.043L1276.82 769.372C1273.42 767.043 1270.78 770.694 1267.76 767.735V769.372C1266.75 771.701 1265.43 768.68 1264.74 768.68C1263.04 772.709 1259.77 775.793 1255.68 777.241L1247.62 774.912C1242.21 777.241 1247.31 781.144 1244.6 784.48C1237.18 794.049 1235.17 772.96 1227.43 782.844C1220.32 780.892 1212.83 781.144 1205.91 783.473C1206.1 784.48 1205.72 785.488 1204.9 786.117L1203.2 784.48C1197.16 788.132 1189.04 786.117 1184.01 792.412C1182 792.098 1179.98 787.439 1178.29 791.405C1176.59 796.001 1172.56 793.042 1169.54 794.049C1163.5 787.124 1165.51 803.618 1156.39 799.337C1143.24 794.364 1128.45 805.254 1115.3 802.61C1105.49 806.891 1092.08 807.898 1084.66 810.479V809.85C1074.91 813.438 1061.76 814.068 1053.7 822.314C1043.19 826.91 1030.8 826.28 1022.37 829.554C1025.39 831.883 1031.11 830.561 1033.44 833.519C1032.06 840.759 1019.28 840.444 1014.94 844.41C1009.22 846.739 1008.52 841.451 1002.8 843.781C993.045 845.103 982.915 850.39 974.546 851.649C961.521 852.72 948.56 854.86 935.849 857.882C933.899 862.162 929.494 859.518 926.16 860.211C922.007 863.862 917.351 856.937 912.317 860.211V861.218C910.618 861.218 908.29 863.17 906.906 860.211L905.207 862.54C899.292 862.288 893.44 863.421 888.029 865.814L887.337 862.54C883.436 864.617 878.969 865.499 874.564 865.184V864.177H866.51V865.184C859.903 864.303 853.234 865.121 847.004 867.513C845.683 867.828 845.306 866.506 844.676 865.876C833.225 868.52 818.69 863.232 809 870.472C810.321 871.479 810.321 872.801 811.328 873.745C819.697 872.549 828.128 871.983 836.56 872.109C849.018 879.033 857.764 869.465 871.229 871.479C871.921 867.198 875.256 870.472 877.647 869.842C888.407 861.596 900.865 868.835 915.022 866.569C927.481 864.303 940.065 862.981 952.712 862.603C960.892 860.022 969.387 858.511 977.944 858.008C984.991 851.461 994.115 854.419 1002.17 852.468C1010.22 847.18 1025.07 852.783 1032.81 850.831C1041.87 838.304 1054.33 849.824 1063.45 839.941L1065.15 841.577L1066.85 839.941C1067.54 839.626 1067.86 840.255 1068.55 840.633C1083.4 838.807 1098 835.156 1111.97 829.742C1127.13 831.694 1144.31 822.818 1160.42 823.133L1162.11 820.803L1163.81 822.44C1168.85 818.474 1175.58 820.111 1180.61 817.845C1185.33 817.026 1190.11 819.104 1192.76 823.133C1199.49 826.784 1204.9 820.174 1210.63 817.845C1219.06 822.818 1224.47 816.523 1232.52 818.474L1233.22 821.748C1234.03 821.118 1234.41 820.111 1234.22 819.104C1238.56 812.494 1245.93 803.932 1255.05 807.206C1264.49 816.397 1247.69 809.85 1246.3 817.782L1247 818.411C1251.34 817.089 1252.72 812.809 1257.44 813.816C1264.49 822.692 1269.58 810.857 1275.31 809.85C1279.71 809.157 1280.03 817.089 1284.06 814.445C1290.1 821.622 1298.91 813.06 1303.56 819.985C1303.94 820.426 1304.38 820.803 1304.95 821.055C1307.34 822.377 1310.36 821.433 1311.68 818.978C1313 822.629 1314.32 817.971 1315.71 819.985C1320.55 824.895 1326.78 828.232 1333.58 829.554C1339.55 834.904 1347.67 828.987 1354.4 830.939C1360.82 845.103 1373.59 836.856 1382.65 842.836C1383.98 842.018 1385.23 841.577 1386.56 841.263C1387.62 841.011 1388.76 840.948 1389.83 841.011C1398.64 841.2 1407 849.698 1415 845.48C1416.69 848.124 1419.02 846.173 1420.72 846.173C1428.46 850.453 1440.98 846.173 1450.67 842.207C1462.12 847.117 1468.54 840.318 1480.62 838.933C1490 837.611 1495.72 838.933 1501.45 834.338C1503.15 834.653 1505.16 833.645 1506.17 834.967L1505.48 835.975L1510.2 838.304C1511.96 836.226 1513.15 833.771 1513.59 831.064L1515.29 832.701V831.064C1522.34 832.953 1531.09 826.721 1539.52 829.679C1541.53 831.001 1538.82 832.638 1538.51 834.275C1535.49 837.926 1529.39 836.919 1526.37 837.548C1526.74 838.87 1525.99 840.822 1527.37 842.144C1528.76 840.192 1532.09 842.836 1533.1 839.815C1539.14 840.129 1537.82 847.746 1540.15 851.712C1561.35 839.5 1572.8 854.671 1592.69 850.705C1603.82 847.746 1616.91 850.39 1628.36 848.376L1626.66 846.739C1628.68 836.856 1636.1 843.088 1643.46 841.451C1645.16 841.137 1646.11 838.493 1647.49 841.451C1656.24 839.122 1664.29 842.773 1671.71 838.178C1674.73 842.459 1681.47 836.856 1684.87 839.815C1684.87 838.807 1684.55 837.863 1685.56 837.485C1687.26 839.437 1694.62 839.437 1697.7 839.815C1693.67 839.5 1692.98 835.219 1692.98 831.883C1700.97 829.05 1709.59 828.232 1717.96 829.554C1720.29 828.924 1724 830.246 1723 833.519C1716.96 841.451 1711.23 830.246 1706.82 839.752L1707.52 840.444C1710.54 839.815 1712.93 837.485 1716.26 838.115C1721.99 837.8 1724.38 841.766 1728.41 842.081C1733.13 840.444 1731.11 850.013 1737.47 850.013C1738.16 853.286 1740.49 857.252 1736.46 859.581C1747.16 864.366 1759.24 865.184 1770.44 861.911V862.477C1775.85 864.806 1778.87 862.162 1782.58 860.148C1784.6 862.099 1791.33 860.463 1794.03 858.511C1786.61 857.504 1779.88 860.463 1773.84 859.518C1773.84 858.196 1773.14 856.245 1774.53 855.552C1785.6 853.601 1797.05 852.971 1807.81 850.013C1814.42 851.901 1821.15 853.034 1828.01 853.286C1818.95 866.821 1806.81 846.362 1796.36 858.574L1797.05 859.581C1805.11 858.259 1812.22 861.91 1819.96 859.581L1821.34 861.911C1829.52 857.189 1842.29 859.078 1849.78 856.56C1850.03 856.497 1850.35 856.497 1850.6 856.371C1850.35 855.993 1850.03 855.993 1849.78 855.93C1848.33 855.426 1846.7 857.819 1845.57 854.734C1845.57 855.741 1845.88 856.686 1844.87 857.378C1844.56 856.686 1843.87 856.371 1844.18 855.741C1840.85 853.412 1836.51 856.371 1834.49 856.371C1832.92 855.427 1831.98 853.601 1832.16 851.775C1834.18 846.802 1837.89 850.139 1840.91 849.446C1843.74 848.061 1846.82 847.621 1849.78 847.935C1850.91 848.061 1851.92 848.376 1852.99 848.754C1855 849.446 1857.02 850.327 1858.65 851.838C1858.34 853.475 1859.35 855.489 1857.65 856.434C1855.63 853.79 1855.32 858.448 1853.62 858.07C1859.79 856.56 1866.14 855.993 1872.5 856.434C1875.89 851.775 1884.96 856.434 1885.96 849.509C1889.99 848.817 1894.08 843.592 1898.11 847.872C1899.11 849.824 1896.72 850.516 1897.41 852.468L1910.19 851.775C1912.51 853.349 1912.83 855.364 1914.21 857.315C1916.92 857.315 1919.94 857 1920.95 854.671C1917.23 854.356 1918.93 850.705 1918.24 848.439C1921.89 845.417 1926.86 844.536 1931.39 846.11C1933.03 853.034 1919.94 848.754 1923.34 854.671C1926.36 852.657 1931.08 853.979 1935.48 854.671C1938.12 859.015 1939.19 864.114 1938.5 869.15C1942.84 868.08 1945.93 861.596 1951.65 862.54C1954.36 863.232 1957.69 864.177 1958.7 867.513C1961.4 873.116 1954.99 875.445 1953.29 879.411C1950.58 876.452 1949.26 882.055 1946.56 879.411V881.048C1956.31 887.658 1963.36 879.033 1971.79 876.074C1976.44 877.208 1981.35 876.641 1985.57 874.438C1986.57 875.067 1986.26 876.075 1986.26 877.082C1990.6 876.767 1990.98 872.109 1991.98 869.15C1997.4 866.506 2005.76 863.547 2011.18 868.143L2014.57 863.547C2023.32 869.465 2033.13 862.225 2042.82 863.547C2041.5 861.218 2041.5 856.623 2044.52 855.678C2052.26 856.686 2056.98 846.802 2063.71 854.671C2061.7 861.91 2050.56 857.315 2045.22 861.911L2046.22 862.54C2049.24 860.589 2051.26 865.184 2054.97 863.547C2060.32 860.589 2067.43 865.562 2072.84 865.184C2075.54 861.91 2079.51 867.135 2080.89 862.54L2082.59 864.177L2093.67 863.484C2096.37 864.492 2099.71 860.211 2102.73 861.848C2102.79 861.848 2102.79 861.848 2102.85 861.848C2104.55 861.407 2105.56 859.644 2105.12 857.945C2110.53 859.581 2115.25 849.383 2121.29 856.308C2127.33 856.308 2136.77 858.952 2139.79 851.712C2137.46 844.473 2146.2 849.383 2148.53 846.802C2148.22 846.487 2147.53 846.173 2147.84 845.48H2155.27C2168.23 849.131 2181.94 848.754 2194.65 844.473C2187.8 846.424 2180.43 845.354 2174.46 841.514C2173.76 838.87 2176.78 838.556 2176.78 836.541C2189.24 840.822 2199 827.98 2210.07 837.548C2210.32 837.422 2210.51 837.297 2210.7 837.108C2211.64 836.163 2211.71 834.59 2210.7 833.582C2217.81 831.568 2225.17 836.541 2232.6 838.178L2234.29 833.582C2237.69 826.028 2246.44 828.043 2252.16 828.043C2257.58 830.372 2248.2 832.701 2253.55 834.967L2256.25 832.009C2259.97 832.323 2262.99 827.728 2265 824.769C2256.69 821.685 2247.89 820.363 2239.08 820.803C2234.86 819.23 2227.81 824.203 2226.11 820.866Z" fill="url(#paint0_linear_1766_251)"/>
<path d="M894.703 852.528C905.022 856.494 916.663 854.731 925.346 847.932C935.476 851.584 942.838 838.364 951.269 848.562C969.768 843.589 989.337 839.686 1007.84 833.768L1007.96 832.761C1004.63 833.768 1000.54 830.117 998.901 833.768C982.667 837.357 966.245 840.001 949.759 841.7C945.732 841.7 938.308 844.659 934.281 842.33L932.582 844.659L931.198 843.022L930.191 846.296C928.177 843.022 923.773 846.296 921.445 844.659C918.047 845.289 916.033 848.625 914.02 845.666V846.359L889.04 850.325C889.04 851.647 888.348 853.598 889.732 854.291L894.703 852.528Z" fill="url(#paint1_linear_1766_251)"/>
<path d="M1638.05 851.836L1641.07 850.199L1637.04 848.562L1638.05 851.836Z" fill="url(#paint2_linear_1766_251)"/>
<path fill-rule="evenodd" clip-rule="evenodd" d="M1591.11 761.752C1591.93 766.977 1587.59 768.614 1583.81 770.565C1581.3 771.698 1579.35 768.803 1579.16 766.977C1578.97 763.515 1580.54 760.178 1583.31 758.164C1586.39 757.345 1589.67 758.793 1591.11 761.752ZM1531.21 765.277C1531.21 771.447 1522.03 768.047 1517.94 768.236C1516.43 766.914 1512.4 768.551 1512.59 765.781C1514.6 762.193 1519.26 765.592 1521.58 762.822C1525.42 762.067 1528.07 764.333 1531.21 765.277ZM1625.22 770.502V772.265C1621.94 773.083 1618.48 772.643 1615.53 771.132L1624.02 770.502V769.873C1624.46 769.936 1624.9 770.125 1625.22 770.502ZM1527.56 779.315C1517.43 784.54 1507.93 777.364 1498.81 775.224C1501.58 770.691 1509.13 773.902 1513.78 774.594L1527.56 779.315ZM1492.26 779.945L1477.79 780.449C1476.6 779.127 1474.27 777.49 1475.97 775.727C1481.76 774.846 1487.67 776.357 1492.26 779.945Z" fill="white"/>
<mask id="mask2_1766_251" style="mask-type:luminance" maskUnits="userSpaceOnUse" x="1475" y="757" width="151" height="25">
<path d="M1591.06 761.712C1591.88 766.937 1587.53 768.573 1583.76 770.525C1581.24 771.658 1579.29 768.762 1579.1 766.937C1578.91 763.474 1580.49 760.138 1583.26 758.123C1586.4 757.305 1589.67 758.816 1591.06 761.712ZM1531.22 765.3C1531.22 771.469 1522.03 768.07 1517.94 768.259C1516.43 766.937 1512.41 768.573 1512.59 765.803C1514.61 762.215 1519.26 765.615 1521.59 762.845C1525.37 762.026 1528.07 764.356 1531.22 765.3ZM1625.16 770.525V772.287C1621.89 773.106 1618.43 772.665 1615.47 771.154L1623.97 770.525V769.895C1624.41 769.895 1624.85 770.147 1625.16 770.525ZM1527.51 779.338C1517.38 784.563 1507.88 777.387 1498.75 775.246C1501.52 770.714 1509.07 773.924 1513.73 774.617L1527.51 779.338ZM1492.27 779.968L1477.8 780.471C1476.6 779.149 1474.28 777.512 1475.97 775.75C1481.76 774.806 1487.68 776.316 1492.27 779.968Z" fill="white"/>
</mask>
<g mask="url(#mask2_1766_251)">
<mask id="mask3_1766_251" style="mask-type:luminance" maskUnits="userSpaceOnUse" x="1205" y="82" width="732" height="716">
<path d="M1570.85 797.004C1772.61 797.004 1936.17 636.946 1936.17 439.504C1936.17 242.062 1772.61 82.0039 1570.85 82.0039C1369.09 82.0039 1205.53 242.062 1205.53 439.504C1205.53 636.946 1369.09 797.004 1570.85 797.004Z" fill="white"/>
</mask>
<g mask="url(#mask3_1766_251)">
<path d="M1575.95 849.003C1813.13 849.003 2005.39 660.817 2005.39 428.677C2005.39 196.538 1813.13 8.35156 1575.95 8.35156C1338.78 8.35156 1146.52 196.538 1146.52 428.677C1146.52 660.817 1338.78 849.003 1575.95 849.003Z" fill="#D32027"/>
<path d="M1575.95 842.396C1809.4 842.396 1998.65 657.169 1998.65 428.681C1998.65 200.192 1809.4 14.9648 1575.95 14.9648C1342.49 14.9648 1153.24 200.192 1153.24 428.681C1153.24 657.169 1342.49 842.396 1575.95 842.396Z" fill="#D52027"/>
<path d="M1575.96 835.845C1805.69 835.845 1991.93 653.55 1991.93 428.677C1991.93 203.803 1805.69 21.5078 1575.96 21.5078C1346.22 21.5078 1159.98 203.803 1159.98 428.677C1159.98 653.55 1346.22 835.845 1575.96 835.845Z" fill="#D72027"/>
<path d="M1575.95 829.298C1802 829.298 1985.26 649.934 1985.26 428.676C1985.26 207.419 1802 28.0547 1575.95 28.0547C1349.9 28.0547 1166.65 207.419 1166.65 428.676C1166.65 649.934 1349.9 829.298 1575.95 829.298Z" fill="#D82827"/>
<path d="M1575.95 822.692C1798.29 822.692 1978.52 646.287 1978.52 428.68C1978.52 211.073 1798.29 34.668 1575.95 34.668C1353.62 34.668 1173.38 211.073 1173.38 428.68C1173.38 646.287 1353.62 822.692 1575.95 822.692Z" fill="#D93227"/>
<path d="M1575.96 816.141C1794.57 816.141 1971.79 642.667 1971.79 428.676C1971.79 214.685 1794.57 41.2109 1575.96 41.2109C1357.34 41.2109 1180.12 214.685 1180.12 428.676C1180.12 642.667 1357.34 816.141 1575.96 816.141Z" fill="#DC3926"/>
<path d="M1575.96 809.598C1790.89 809.598 1965.13 639.055 1965.13 428.68C1965.13 218.305 1790.89 47.7617 1575.96 47.7617C1361.03 47.7617 1186.79 218.305 1186.79 428.68C1186.79 639.055 1361.03 809.598 1575.96 809.598Z" fill="#DD4126"/>
<path d="M1575.95 802.984C1787.17 802.984 1958.39 635.4 1958.39 428.675C1958.39 221.951 1787.17 54.3672 1575.95 54.3672C1364.74 54.3672 1193.52 221.951 1193.52 428.675C1193.52 635.4 1364.74 802.984 1575.95 802.984Z" fill="#DD4826"/>
<path d="M1575.95 796.436C1783.48 796.436 1951.72 631.784 1951.72 428.675C1951.72 225.566 1783.48 60.9141 1575.95 60.9141C1368.42 60.9141 1200.19 225.566 1200.19 428.675C1200.19 631.784 1368.42 796.436 1575.95 796.436Z" fill="#E04E26"/>
<path d="M1575.96 789.893C1779.77 789.893 1944.99 628.172 1944.99 428.679C1944.99 229.186 1779.77 67.4648 1575.96 67.4648C1372.14 67.4648 1206.92 229.186 1206.92 428.679C1206.92 628.172 1372.14 789.893 1575.96 789.893Z" fill="#E25526"/>
<path d="M1575.96 783.279C1776.05 783.279 1938.26 624.517 1938.26 428.675C1938.26 232.832 1776.05 74.0703 1575.96 74.0703C1375.86 74.0703 1213.66 232.832 1213.66 428.675C1213.66 624.517 1375.86 783.279 1575.96 783.279Z" fill="#E35C25"/>
<path d="M1575.95 776.736C1772.36 776.736 1931.58 620.905 1931.58 428.679C1931.58 236.452 1772.36 80.6211 1575.95 80.6211C1379.54 80.6211 1220.32 236.452 1220.32 428.679C1220.32 620.905 1379.54 776.736 1575.95 776.736Z" fill="#E66125"/>
<path d="M1575.95 770.189C1768.64 770.189 1924.84 617.29 1924.84 428.679C1924.84 240.067 1768.64 87.168 1575.95 87.168C1383.25 87.168 1227.05 240.067 1227.05 428.679C1227.05 617.29 1383.25 770.189 1575.95 770.189Z" fill="#E86724"/>
<path d="M1575.96 763.575C1764.93 763.575 1918.12 613.635 1918.12 428.674C1918.12 243.714 1764.93 93.7734 1575.96 93.7734C1386.98 93.7734 1233.79 243.714 1233.79 428.674C1233.79 613.635 1386.98 763.575 1575.96 763.575Z" fill="#E96E24"/>
</g>
</g>
<path d="M2156.9 741.043C2156.9 741.043 2266.83 641.517 2073.66 660.969C1880.49 680.421 1695.62 760.81 1695.62 760.81C1695.62 760.81 1931.08 572.963 1736.02 526.82C1736.02 526.82 2033.51 465.128 2159.17 492.386C2284.82 519.644 2277.65 690.116 2156.9 741.043Z" fill="url(#paint3_linear_1766_251)"/>
<path d="M2091.2 509.572C2091.2 509.572 2183.01 426.476 2021.74 442.718C1913.2 456.126 1806.99 484.203 1706 526.128C1706 526.128 1902.63 369.254 1739.73 330.728C1739.73 330.728 1988.14 279.233 2093.16 301.959C2198.17 324.684 2192.07 467.08 2091.2 509.572Z" fill="url(#paint4_linear_1766_251)"/>
<path d="M2029.61 307.626C2029.61 307.626 2098.07 245.619 1977.76 257.768C1896.85 267.778 1817.63 288.677 1742.25 319.964C1742.25 319.964 1888.92 202.938 1767.42 174.232C1767.42 174.232 1952.72 135.832 2031 152.766C2109.4 169.7 2104.87 275.898 2029.61 307.626Z" fill="url(#paint5_linear_1766_251)"/>
<defs>
<linearGradient id="paint0_linear_1766_251" x1="808.815" y1="825.365" x2="2264.86" y2="825.365" gradientUnits="userSpaceOnUse">
<stop stop-color="#70297D"/>
<stop offset="0.3432" stop-color="#1D458F"/>
<stop offset="0.537" stop-color="#228DA7"/>
<stop offset="0.7068" stop-color="#1D468F"/>
<stop offset="0.8534" stop-color="#41B1A8"/>
<stop offset="1" stop-color="#164A96"/>
</linearGradient>
<linearGradient id="paint1_linear_1766_251" x1="888.81" y1="843.347" x2="1007.94" y2="843.347" gradientUnits="userSpaceOnUse">
<stop stop-color="#70297D"/>
<stop offset="0.3432" stop-color="#1D458F"/>
<stop offset="0.537" stop-color="#228DA7"/>
<stop offset="0.7068" stop-color="#1D468F"/>
<stop offset="0.8534" stop-color="#41B1A8"/>
<stop offset="1" stop-color="#164A96"/>
</linearGradient>
<linearGradient id="paint2_linear_1766_251" x1="1637.04" y1="850.194" x2="1641.07" y2="850.194" gradientUnits="userSpaceOnUse">
<stop stop-color="#70297D"/>
<stop offset="0.3432" stop-color="#1D458F"/>
<stop offset="0.537" stop-color="#228DA7"/>
<stop offset="0.7068" stop-color="#1D468F"/>
<stop offset="0.8534" stop-color="#41B1A8"/>
<stop offset="1" stop-color="#164A96"/>
</linearGradient>
<linearGradient id="paint3_linear_1766_251" x1="1695.59" y1="623.297" x2="2250.47" y2="623.297" gradientUnits="userSpaceOnUse">
<stop stop-color="#4C3029"/>
<stop offset="0.779" stop-color="#E41E26"/>
<stop offset="0.991" stop-color="#FEC10F"/>
</linearGradient>
<linearGradient id="paint4_linear_1766_251" x1="1706" y1="411.333" x2="2169.44" y2="411.333" gradientUnits="userSpaceOnUse">
<stop stop-color="#4C3029"/>
<stop offset="0.779" stop-color="#E41E26"/>
<stop offset="0.991" stop-color="#FEC10F"/>
</linearGradient>
<linearGradient id="paint5_linear_1766_251" x1="1742.32" y1="234.047" x2="2087.96" y2="234.047" gradientUnits="userSpaceOnUse">
<stop stop-color="#4C3029"/>
<stop offset="0.779" stop-color="#E41E26"/>
<stop offset="0.991" stop-color="#FEC10F"/>
</linearGradient>
</defs>
</svg>
